<?xml version="1.0" encoding="UTF-8" standalone="no"?>
<svg xmlns:ffdec="https://www.free-decompiler.com/flash" xmlns:xlink="http://www.w3.org/1999/xlink" ffdec:objectType="shape" height="21.3px" width="22.9px" xmlns="http://www.w3.org/2000/svg">
  <g transform="matrix(1.0, 0.0, 0.0, 1.0, 9.4, 15.05)">
    <path d="M4.3 -14.6 L4.4 -14.55 Q5.15 -14.5 5.65 -14.3 L5.75 -14.25 4.95 -14.0 Q4.25 -13.8 3.65 -13.45 3.3 -13.2 2.95 -12.85 3.6 -13.15 4.25 -13.3 L4.6 -13.45 6.55 -13.7 7.55 -13.8 Q7.15 -13.65 6.8 -13.5 6.05 -13.15 5.8 -12.8 L5.85 -12.8 Q6.05 -12.9 7.35 -13.35 8.6 -13.75 8.75 -13.75 L9.4 -13.7 8.2 -13.0 7.75 -12.7 Q6.65 -12.55 6.1 -11.7 L6.75 -11.95 Q7.55 -12.2 8.55 -12.2 L9.0 -12.15 Q9.95 -11.95 10.5 -11.5 10.75 -11.35 11.15 -10.9 L11.2 -10.85 Q9.75 -11.65 8.4 -11.45 L8.45 -11.4 Q9.45 -11.2 10.9 -10.45 12.35 -9.65 12.5 -9.2 12.15 -9.45 10.6 -9.9 L10.45 -9.85 10.4 -9.8 Q10.7 -9.5 11.55 -8.05 11.9 -7.45 12.15 -7.0 L12.2 -6.95 Q12.2 -6.8 12.3 -6.2 12.45 -5.6 12.45 -5.25 12.45 -4.6 12.35 -4.2 L12.3 -4.2 11.95 -5.4 11.8 -5.85 Q11.55 -7.95 9.75 -9.05 L9.7 -9.0 Q10.7 -7.8 11.05 -6.95 11.45 -6.1 11.45 -5.05 L11.4 -4.1 11.15 -3.0 Q11.05 -3.5 10.6 -4.35 L10.4 -4.8 Q10.25 -6.0 9.75 -5.85 L9.75 -5.65 9.95 -4.7 Q10.1 -3.65 10.1 -3.05 L10.1 -2.0 9.75 -0.5 9.7 -0.55 9.15 -2.25 8.8 -3.25 Q8.95 -3.8 8.95 -4.3 8.95 -5.55 8.85 -6.1 8.65 -6.9 7.8 -8.05 L7.75 -8.0 Q8.05 -7.55 8.35 -6.8 8.65 -5.9 8.65 -5.45 8.65 -4.0 7.85 -2.55 L7.85 -2.5 Q7.8 -3.05 7.5 -3.8 L6.9 -5.5 6.8 -5.5 Q7.0 -4.9 7.0 -4.75 7.0 -4.35 7.25 -3.65 7.45 -2.9 7.45 -2.2 L7.4 -1.85 7.3 -1.6 6.9 -2.4 6.45 -3.0 6.15 -3.45 Q5.3 -4.6 3.6 -4.95 L3.6 -4.8 Q3.6 -4.75 4.2 -3.95 L4.95 -3.05 4.35 -3.4 Q3.2 -4.1 2.8 -4.4 2.15 -4.95 1.4 -5.35 0.55 -5.8 0.05 -5.75 -1.3 -6.6 -3.05 -6.45 -1.4 -6.35 -0.2 -5.35 L0.35 -4.9 Q-0.3 -5.1 -1.35 -5.1 -2.9 -5.1 -5.2 -4.7 -5.4 -4.65 -5.4 -4.55 L-5.4 -4.45 Q-5.2 -4.15 -4.8 -3.95 L-4.15 -3.6 -4.2 -3.6 -4.45 -3.55 Q-4.85 -3.55 -5.05 -3.75 -5.25 -3.9 -5.35 -3.9 -5.5 -3.9 -5.6 -3.75 -5.55 -3.5 -5.45 -1.75 -5.4 -0.25 -5.4 0.2 L-5.45 1.05 Q-5.55 0.85 -5.7 0.0 -5.85 -0.8 -5.85 -1.05 -5.85 -1.75 -6.2 -2.4 -6.65 -3.2 -7.6 -3.4 L-7.55 -3.45 -7.7 -3.55 -8.1 -3.6 -8.35 -3.6 -8.25 -3.75 -8.6 -3.55 -8.6 -3.5 -8.8 -3.45 -8.75 -3.5 Q-8.7 -4.0 -8.7 -5.85 -8.75 -7.4 -8.4 -8.25 -8.45 -7.6 -8.15 -7.15 -7.75 -8.0 -7.05 -9.1 L-6.4 -10.0 Q-5.75 -10.8 -4.75 -11.35 L-5.25 -10.6 Q-5.55 -10.1 -5.75 -9.85 L-5.7 -9.85 -5.95 -9.65 Q-5.15 -10.0 -4.55 -10.55 -4.2 -10.85 -3.55 -11.6 -2.35 -13.05 -1.0 -13.7 L-1.0 -13.6 -1.5 -12.6 Q-1.8 -12.0 -1.95 -11.75 L-2.2 -11.5 Q-1.9 -11.6 -1.35 -12.1 L-0.85 -12.55 0.9 -13.6 Q2.05 -14.2 2.95 -14.45 L4.05 -14.55 4.3 -14.6 M-7.7 2.55 L-7.75 2.55 Q-7.75 2.7 -8.05 3.1 L-8.15 3.3 -8.5 4.35 -8.55 4.35 Q-8.4 3.75 -8.4 3.55 L-8.4 2.8 -8.25 2.2 -8.35 1.55 Q-8.25 1.55 -7.85 1.75 L-7.25 2.05 Q-7.45 3.05 -7.55 3.95 L-7.5 4.2 -7.55 4.3 -7.65 4.35 -7.75 5.25 Q-7.8 5.1 -7.95 4.45 L-8.0 4.2 -8.05 4.0 Q-7.7 3.15 -7.7 2.8 -7.7 2.6 -7.7 2.55" fill="#003366" fill-rule="evenodd" stroke="none"/>
    <path d="M2.0 -14.7 Q4.3 -15.55 6.25 -14.35 L7.0 -14.4 Q7.75 -14.4 8.0 -14.2 L8.2 -14.0 8.4 -14.05 Q10.5 -14.6 10.5 -13.85 10.5 -13.5 9.25 -13.0 L8.55 -12.75 Q9.65 -12.7 10.65 -12.1 10.8 -12.05 10.8 -12.0 L10.7 -12.0 11.05 -11.7 Q11.75 -11.05 11.85 -10.55 L11.85 -10.45 Q12.55 -9.95 13.05 -9.4 13.5 -8.85 13.5 -8.45 13.5 -8.3 13.45 -8.15 L13.45 -8.1 Q12.9 -8.6 12.2 -8.8 11.85 -9.0 11.55 -9.1 11.75 -8.8 12.25 -7.8 L12.4 -7.55 12.4 -7.45 12.55 -7.2 12.9 -5.95 12.8 -6.05 Q12.9 -5.4 12.9 -4.6 12.6 -2.85 12.15 -2.85 12.1 -2.85 11.85 -4.1 L11.75 -3.55 Q11.6 -2.95 11.1 -1.85 10.85 -2.3 10.6 -3.7 L10.45 -4.2 10.5 -3.05 Q10.5 -2.1 10.35 -1.25 L10.4 -1.35 10.3 -0.95 10.3 -0.8 10.2 -0.35 9.75 0.9 9.7 0.9 Q9.6 0.65 9.5 0.25 9.25 -0.15 9.05 -1.1 8.8 -1.95 8.65 -2.8 L8.5 -2.5 Q8.2 -1.85 7.85 -1.35 7.7 -0.55 7.35 -0.55 7.15 -0.55 6.7 -1.7 L6.45 -2.25 6.1 -2.85 Q5.45 -3.8 4.5 -4.35 4.55 -4.15 4.95 -3.6 L5.05 -3.45 Q5.45 -2.95 5.65 -2.5 4.7 -2.6 3.95 -3.0 3.45 -3.25 2.75 -3.9 2.0 -4.6 1.55 -4.85 1.15 -5.1 0.7 -5.3 1.2 -4.8 1.35 -4.25 L1.35 -4.2 Q1.1 -4.3 0.75 -4.55 -0.45 -4.8 -0.75 -4.8 -2.15 -4.8 -3.15 -4.6 L-4.55 -4.25 -4.0 -3.9 Q-3.65 -3.65 -3.25 -3.55 L-3.2 -3.45 Q-3.85 -2.95 -4.25 -3.1 L-4.65 -3.25 Q-4.95 -3.4 -5.2 -3.4 -5.2 -3.25 -5.05 -2.25 -4.95 -1.3 -4.95 -1.05 -4.95 -0.5 -5.05 0.3 L-5.15 1.65 -5.15 1.7 -5.3 1.7 -5.75 1.35 Q-6.2 0.9 -6.2 0.45 -6.15 -0.25 -6.25 -0.85 -6.25 -1.0 -6.35 -1.25 -6.45 -1.7 -6.65 -2.05 -7.15 -3.05 -8.1 -3.15 L-9.2 -2.75 Q-9.35 -2.75 -9.35 -2.8 L-9.4 -2.8 -9.4 -2.95 Q-9.4 -3.95 -9.2 -5.75 -8.85 -8.55 -8.3 -9.45 -8.0 -9.15 -8.0 -8.8 L-8.05 -8.2 Q-8.0 -8.85 -7.2 -9.75 -6.8 -10.25 -6.3 -10.65 L-5.9 -11.05 -4.05 -12.6 -4.0 -12.4 Q-4.2 -11.65 -4.55 -11.1 L-4.6 -11.0 -3.65 -12.2 Q-2.1 -13.8 0.0 -14.5 L0.05 -14.4 Q0.05 -14.2 -0.65 -13.2 L-0.9 -12.8 Q-0.35 -13.35 0.25 -13.75 L0.65 -14.05 1.0 -14.2 Q1.5 -14.5 2.0 -14.7 M4.3 -14.6 L4.05 -14.55 2.95 -14.45 Q2.05 -14.2 0.9 -13.6 L-0.85 -12.55 -1.35 -12.1 Q-1.9 -11.6 -2.2 -11.5 L-1.95 -11.75 Q-1.8 -12.0 -1.5 -12.6 L-1.0 -13.6 -1.0 -13.7 Q-2.35 -13.05 -3.55 -11.6 -4.2 -10.85 -4.55 -10.55 -5.15 -10.0 -5.95 -9.65 L-5.7 -9.85 -5.75 -9.85 Q-5.55 -10.1 -5.25 -10.6 L-4.75 -11.35 Q-5.75 -10.8 -6.4 -10.0 L-7.05 -9.1 Q-7.75 -8.0 -8.15 -7.15 -8.45 -7.6 -8.4 -8.25 -8.75 -7.4 -8.7 -5.85 -8.7 -4.0 -8.75 -3.5 L-8.8 -3.45 -8.6 -3.5 -8.6 -3.55 -8.25 -3.75 -8.35 -3.6 -8.1 -3.6 -7.7 -3.55 -7.55 -3.45 -7.6 -3.4 Q-6.65 -3.2 -6.2 -2.4 -5.85 -1.75 -5.85 -1.05 -5.85 -0.8 -5.7 0.0 -5.55 0.85 -5.45 1.05 L-5.4 0.2 Q-5.4 -0.25 -5.45 -1.75 -5.55 -3.5 -5.6 -3.75 -5.5 -3.9 -5.35 -3.9 -5.25 -3.9 -5.05 -3.75 -4.85 -3.55 -4.45 -3.55 L-4.2 -3.6 -4.15 -3.6 -4.8 -3.95 Q-5.2 -4.15 -5.4 -4.45 L-5.4 -4.55 Q-5.4 -4.65 -5.2 -4.7 -2.9 -5.1 -1.35 -5.1 -0.3 -5.1 0.35 -4.9 L-0.2 -5.35 Q-1.4 -6.35 -3.05 -6.45 -1.3 -6.6 0.05 -5.75 0.55 -5.8 1.4 -5.35 2.15 -4.95 2.8 -4.4 3.2 -4.1 4.35 -3.4 L4.95 -3.05 4.2 -3.95 Q3.6 -4.75 3.6 -4.8 L3.6 -4.95 Q5.3 -4.6 6.15 -3.45 L6.45 -3.0 6.9 -2.4 7.3 -1.6 7.4 -1.85 7.45 -2.2 Q7.45 -2.9 7.25 -3.65 7.0 -4.35 7.0 -4.75 7.0 -4.9 6.8 -5.5 L6.9 -5.5 7.5 -3.8 Q7.8 -3.05 7.85 -2.5 L7.85 -2.55 Q8.65 -4.0 8.65 -5.45 8.65 -5.9 8.35 -6.8 8.05 -7.55 7.75 -8.0 L7.8 -8.05 Q8.65 -6.9 8.85 -6.1 8.95 -5.55 8.95 -4.3 8.95 -3.8 8.8 -3.25 L9.15 -2.25 9.7 -0.55 9.75 -0.5 10.1 -2.0 10.1 -3.05 Q10.1 -3.65 9.95 -4.7 L9.75 -5.65 9.75 -5.85 Q10.25 -6.0 10.4 -4.8 L10.6 -4.35 Q11.05 -3.5 11.15 -3.0 L11.4 -4.1 11.45 -5.05 Q11.45 -6.1 11.05 -6.95 10.7 -7.8 9.7 -9.0 L9.75 -9.05 Q11.55 -7.95 11.8 -5.85 L11.95 -5.4 12.3 -4.2 12.35 -4.2 Q12.45 -4.6 12.45 -5.25 12.45 -5.6 12.3 -6.2 12.2 -6.8 12.2 -6.95 L12.15 -7.0 Q11.9 -7.45 11.55 -8.05 10.7 -9.5 10.4 -9.8 L10.45 -9.85 10.6 -9.9 Q12.15 -9.45 12.5 -9.2 12.35 -9.65 10.9 -10.45 9.45 -11.2 8.45 -11.4 L8.4 -11.45 Q9.75 -11.65 11.2 -10.85 L11.15 -10.9 Q10.75 -11.35 10.5 -11.5 9.95 -11.95 9.0 -12.15 L8.55 -12.2 Q7.55 -12.2 6.75 -11.95 L6.1 -11.7 Q6.65 -12.55 7.75 -12.7 L8.2 -13.0 9.4 -13.7 8.75 -13.75 Q8.6 -13.75 7.35 -13.35 6.05 -12.9 5.85 -12.8 L5.8 -12.8 Q6.05 -13.15 6.8 -13.5 7.15 -13.65 7.55 -13.8 L6.55 -13.7 4.6 -13.45 4.25 -13.3 Q3.6 -13.15 2.95 -12.85 3.3 -13.2 3.65 -13.45 4.25 -13.8 4.95 -14.0 L5.75 -14.25 5.65 -14.3 Q5.15 -14.5 4.4 -14.55 L4.3 -14.6 M13.15 -7.95 L13.05 -8.05 13.2 -7.95 13.15 -7.95 M-7.7 2.55 Q-7.7 2.6 -7.7 2.8 -7.7 3.15 -8.05 4.0 L-8.0 4.2 -7.95 4.45 Q-7.8 5.1 -7.75 5.25 L-7.65 4.35 -7.55 4.3 -7.5 4.2 -7.55 3.95 Q-7.45 3.05 -7.25 2.05 L-7.85 1.75 Q-8.25 1.55 -8.35 1.55 L-8.25 2.2 -8.4 2.8 -8.4 3.55 Q-8.4 3.75 -8.55 4.35 L-8.5 4.35 -8.15 3.3 -8.05 3.1 Q-7.75 2.7 -7.75 2.55 L-7.7 2.55 M-8.85 1.8 Q-8.95 1.25 -8.95 1.05 -8.95 0.0 -6.75 2.2 -6.75 2.75 -7.0 4.05 -7.3 5.4 -7.3 6.15 L-7.35 6.2 -7.5 6.25 Q-8.2 6.25 -8.35 5.45 -8.45 5.15 -8.45 4.75 -8.8 5.25 -9.15 5.25 L-9.25 5.25 Q-9.0 4.7 -8.9 4.15 L-8.8 4.0 Q-8.7 3.55 -8.7 3.25 L-8.75 2.75 -8.75 2.7 Q-8.75 2.35 -8.85 1.8" fill="#1d1d1d" fill-rule="evenodd" stroke="none"/>
  </g>
</svg>
