<?xml version="1.0" encoding="UTF-8" standalone="no"?>
<svg xmlns:ffdec="https://www.free-decompiler.com/flash" xmlns:xlink="http://www.w3.org/1999/xlink" ffdec:objectType="shape" height="19.0px" width="20.6px" xmlns="http://www.w3.org/2000/svg">
  <g transform="matrix(1.0, 0.0, 0.0, 1.0, 10.15, 14.75)">
    <path d="M-6.05 -1.45 L-7.0 -2.65 Q-7.2 -2.85 -7.4 -2.95 -7.6 -3.05 -7.85 -3.05 -7.95 -2.95 -8.05 -2.95 -8.25 -2.95 -8.3 -3.15 -8.45 -3.5 -8.5 -3.7 L-0.7 -13.65 9.85 -3.35 9.85 -2.4 Q9.85 -1.75 9.7 -1.2 9.5 -0.6 9.05 0.05 8.9 0.0 8.9 -0.1 L8.85 -0.25 9.1 -1.8 9.2 -3.0 9.0 -4.55 -6.25 -9.55 -6.05 -1.45" fill="#1a1a1a" fill-rule="evenodd" stroke="none"/>
    <path d="M9.2 -3.0 L8.35 -4.15 Q7.1 -5.55 5.05 -5.8 L2.55 -5.8 Q0.25 -5.6 -1.5 -4.7 -2.4 -4.3 -3.5 -3.35 L-4.0 -2.65 -4.65 -1.75 -6.05 -1.45 -6.25 -9.55 9.0 -4.55 9.2 -3.0" fill="#c7a36d" fill-rule="evenodd" stroke="none"/>
    <path d="M6.3 -7.55 L6.25 -7.55 Q6.45 -6.9 6.5 -6.25 L6.55 -5.05 6.55 -5.0 Q6.55 -3.1 6.15 -1.25 5.7 0.7 4.85 2.45 4.4 -0.45 3.9 -1.65 3.5 -2.6 3.2 -3.6 3.15 -4.3 3.05 -4.85 L3.0 -5.05 Q2.55 -6.85 1.45 -8.15 L1.4 -8.15 Q2.1 -7.45 2.6 -5.5 L2.75 -5.05 2.8 -4.75 2.75 -4.55 2.9 -4.1 Q3.0 -3.3 3.0 -2.65 L2.95 -1.55 2.85 0.0 Q2.45 -1.45 1.0 -4.15 L0.45 -5.05 Q-0.45 -6.65 -0.5 -6.65 -0.7 -6.65 -0.6 -6.65 L-0.6 -6.6 Q-0.4 -5.9 -0.05 -5.05 L0.4 -4.15 Q-0.2 -4.85 -0.55 -5.05 L-0.6 -5.05 -2.55 -6.9 Q-3.75 -8.0 -4.5 -8.3 L-4.5 -8.1 -3.75 -6.75 -3.7 -6.7 -3.6 -6.4 -3.2 -5.05 -3.15 -4.95 -3.25 -5.05 Q-4.35 -6.3 -5.05 -7.6 L-5.15 -7.6 -5.1 -7.55 -5.15 -7.5 Q-4.9 -6.55 -4.7 -5.75 L-4.55 -5.05 Q-4.45 -4.2 -4.45 -3.8 -4.4 -2.75 -4.4 -2.35 L-4.5 -1.75 Q-4.6 -2.4 -4.8 -3.35 -5.05 -4.4 -5.25 -5.05 L-5.45 -5.65 -5.5 -5.65 -5.55 -5.55 -5.45 -5.05 -5.2 -3.6 Q-4.85 -1.55 -4.85 -0.95 -4.85 -0.6 -5.05 0.55 -5.25 1.6 -5.3 1.8 -5.7 -0.05 -6.7 -2.7 -6.75 -3.05 -6.95 -3.35 -7.35 -4.5 -7.75 -4.6 L-7.75 -4.55 Q-7.45 -4.15 -7.2 -3.6 -7.55 -3.85 -8.1 -3.95 L-9.05 -3.9 -9.15 -3.8 -9.2 -4.0 Q-9.4 -4.65 -9.4 -5.0 L-9.4 -5.05 Q-9.35 -5.8 -8.7 -7.45 -7.65 -9.15 -7.2 -10.25 -6.5 -12.1 -3.7 -13.05 -1.45 -13.85 1.45 -13.85 L1.6 -13.8 1.45 -13.9 0.7 -14.1 0.55 -14.1 1.35 -14.15 Q4.25 -14.15 6.0 -11.85 6.55 -11.15 7.05 -10.2 L7.5 -9.25 Q8.85 -7.95 9.6 -6.5 9.85 -6.0 10.0 -5.45 L10.0 -4.3 Q9.9 -3.55 9.7 -3.05 9.65 -3.55 9.4 -4.75 L9.35 -5.05 Q9.15 -6.0 9.1 -6.55 L9.05 -6.55 9.05 -6.05 Q9.05 -5.65 9.1 -5.05 L9.2 -4.4 9.3 -2.95 9.05 -3.7 8.55 -5.05 8.2 -6.0 Q8.1 -6.55 7.95 -7.05 L7.15 -9.0 7.1 -9.0 7.5 -7.8 7.6 -7.35 7.75 -6.55 7.75 -6.45 7.8 -6.1 7.8 -6.0 Q7.8 -5.8 7.85 -5.55 L7.9 -5.1 7.9 -5.05 Q7.75 -3.5 6.9 -1.65 L6.25 -0.25 6.5 -1.8 Q6.8 -3.4 6.8 -3.75 L6.75 -5.05 6.7 -5.5 6.3 -7.55 M-7.55 3.2 Q-7.7 3.0 -7.7 2.7 L-7.7 2.35 Q-7.65 2.05 -7.7 1.9 L-7.55 1.9 -7.35 1.95 -7.35 2.45 -7.55 3.2" fill="#003366" fill-rule="evenodd" stroke="none"/>
    <path d="M6.3 -7.55 L6.7 -5.5 6.75 -5.05 6.8 -3.75 Q6.8 -3.4 6.5 -1.8 L6.25 -0.25 6.9 -1.65 Q7.75 -3.5 7.9 -5.05 L7.9 -5.1 7.85 -5.55 Q7.8 -5.8 7.8 -6.0 L7.8 -6.1 7.75 -6.45 7.75 -6.55 7.6 -7.35 7.5 -7.8 7.1 -9.0 7.15 -9.0 7.95 -7.05 Q8.1 -6.55 8.2 -6.0 L8.55 -5.05 9.05 -3.7 9.3 -2.95 9.2 -4.4 9.1 -5.05 Q9.05 -5.65 9.05 -6.05 L9.05 -6.55 9.1 -6.55 Q9.15 -6.0 9.35 -5.05 L9.4 -4.75 Q9.65 -3.55 9.7 -3.05 9.9 -3.55 10.0 -4.3 L10.0 -5.45 Q9.85 -6.0 9.6 -6.5 8.85 -7.95 7.5 -9.25 L7.05 -10.2 Q6.55 -11.15 6.0 -11.85 4.25 -14.15 1.35 -14.15 L0.55 -14.1 0.7 -14.1 1.45 -13.9 1.6 -13.8 1.45 -13.85 Q-1.45 -13.85 -3.7 -13.05 -6.5 -12.1 -7.2 -10.25 -7.65 -9.15 -8.7 -7.45 -9.35 -5.8 -9.4 -5.05 L-9.4 -5.0 Q-9.4 -4.65 -9.2 -4.0 L-9.15 -3.8 -9.05 -3.9 -8.1 -3.95 Q-7.55 -3.85 -7.2 -3.6 -7.45 -4.15 -7.75 -4.55 L-7.75 -4.6 Q-7.35 -4.5 -6.95 -3.35 -6.75 -3.05 -6.7 -2.7 -5.7 -0.05 -5.3 1.8 -5.25 1.6 -5.05 0.55 -4.85 -0.6 -4.85 -0.95 -4.85 -1.55 -5.2 -3.6 L-5.45 -5.05 -5.55 -5.55 -5.5 -5.65 -5.45 -5.65 -5.25 -5.05 Q-5.05 -4.4 -4.8 -3.35 -4.6 -2.4 -4.5 -1.75 L-4.4 -2.35 Q-4.4 -2.75 -4.45 -3.8 -4.45 -4.2 -4.55 -5.05 L-4.7 -5.75 Q-4.9 -6.55 -5.15 -7.5 L-5.1 -7.55 -5.15 -7.6 -5.05 -7.6 Q-4.35 -6.3 -3.25 -5.05 L-3.15 -4.95 -3.2 -5.05 -3.6 -6.4 -3.7 -6.7 -3.75 -6.75 -4.5 -8.1 -4.5 -8.3 Q-3.75 -8.0 -2.55 -6.9 L-0.6 -5.05 -0.55 -5.05 Q-0.2 -4.85 0.4 -4.15 L-0.05 -5.05 Q-0.4 -5.9 -0.6 -6.6 L-0.6 -6.65 Q-0.7 -6.65 -0.5 -6.65 -0.45 -6.65 0.45 -5.05 L1.0 -4.15 Q2.45 -1.45 2.85 0.0 L2.95 -1.55 3.0 -2.65 Q3.0 -3.3 2.9 -4.1 L2.75 -4.55 2.8 -4.75 2.75 -5.05 2.6 -5.5 Q2.1 -7.45 1.4 -8.15 L1.45 -8.15 Q2.55 -6.85 3.0 -5.05 L3.05 -4.85 Q3.15 -4.3 3.2 -3.6 3.5 -2.6 3.9 -1.65 4.4 -0.45 4.85 2.45 5.7 0.7 6.15 -1.25 6.55 -3.1 6.55 -5.0 L6.55 -5.05 6.5 -6.25 Q6.45 -6.9 6.25 -7.55 L6.3 -7.55 M9.45 -7.45 Q10.45 -5.75 10.45 -5.05 10.4 -4.3 10.4 -3.95 10.35 -3.6 9.75 -1.5 L9.7 -1.3 9.55 -1.0 Q9.35 -0.65 8.9 0.05 L8.9 -0.05 Q9.0 -0.55 9.0 -1.4 L8.95 -1.95 8.9 -2.55 8.9 -2.6 Q8.75 -3.25 8.5 -3.85 L8.3 -4.35 Q8.2 -3.1 7.05 -0.9 L5.8 1.3 5.45 2.3 Q5.05 3.45 4.65 4.25 4.45 3.85 4.45 3.15 4.5 2.3 4.4 2.0 L4.2 0.95 4.0 -0.2 Q3.9 -0.8 3.3 -2.7 L3.3 -1.7 3.1 -0.1 2.9 1.35 Q2.95 1.45 2.8 1.45 L2.2 -0.2 Q1.6 -1.95 1.25 -2.5 L1.05 -2.85 Q0.5 -3.55 -0.4 -4.35 L-1.15 -5.05 -3.5 -7.15 Q-3.15 -6.25 -2.85 -5.05 L-2.8 -4.8 -2.8 -4.6 Q-2.7 -4.2 -2.7 -4.0 L-2.75 -3.7 -2.85 -3.65 Q-3.05 -4.05 -3.65 -5.05 L-4.0 -5.55 -4.8 -6.95 Q-4.3 -5.7 -4.2 -5.45 L-4.1 -5.05 Q-4.0 -4.55 -4.0 -3.8 -4.0 -2.95 -4.15 -2.2 -4.25 -1.8 -4.45 -1.3 L-4.4 -0.9 Q-4.4 0.35 -4.55 1.0 -4.75 1.8 -5.35 3.1 L-6.25 0.1 -6.85 -2.0 -6.9 -2.0 Q-6.95 -2.25 -7.25 -2.75 -7.7 -3.45 -8.15 -3.45 -8.8 -3.45 -8.9 -3.2 -9.05 -2.85 -9.2 -2.75 L-9.25 -2.8 -9.25 -2.75 -9.35 -2.7 Q-9.5 -2.85 -9.5 -3.0 -9.5 -3.25 -9.65 -3.65 L-9.8 -3.9 -9.85 -3.95 Q-10.15 -4.5 -10.15 -5.05 L-10.15 -5.15 Q-10.15 -5.25 -9.7 -6.35 L-9.4 -6.95 -9.25 -7.35 Q-8.4 -9.2 -7.95 -10.05 -7.1 -11.75 -6.2 -12.4 -4.8 -13.45 -1.6 -14.05 -0.6 -14.35 0.65 -14.65 2.05 -15.05 3.85 -13.9 5.4 -12.9 7.0 -10.95 8.4 -9.25 9.45 -7.45 M-6.8 1.5 L-6.8 1.7 -6.9 2.35 Q-7.05 3.0 -7.05 3.6 L-7.05 3.95 Q-7.1 4.25 -7.35 4.25 -7.95 4.25 -8.15 2.85 -8.25 2.15 -8.2 1.45 -8.2 1.1 -7.8 1.2 L-7.0 1.35 Q-6.9 1.35 -6.8 1.5 M-7.55 3.2 L-7.35 2.45 -7.35 1.95 -7.55 1.9 -7.7 1.9 Q-7.65 2.05 -7.7 2.35 L-7.7 2.7 Q-7.7 3.0 -7.55 3.2" fill="#1d1d1d" fill-rule="evenodd" stroke="none"/>
  </g>
</svg>
