<?xml version="1.0" encoding="UTF-8" standalone="no"?>
<svg xmlns:ffdec="https://www.free-decompiler.com/flash" xmlns:xlink="http://www.w3.org/1999/xlink" ffdec:objectType="shape" height="23.55px" width="23.25px" xmlns="http://www.w3.org/2000/svg">
  <g transform="matrix(1.0, 0.0, 0.0, 1.0, 10.2, 13.9)">
    <path d="M9.2 -3.0 Q9.15 -3.6 9.0 -4.55 L8.95 -4.8 8.7 -5.8 -0.3 -12.85 -6.05 -1.45 -7.4 -2.95 Q-7.6 -3.05 -7.85 -3.05 -7.95 -2.95 -8.05 -2.95 -8.25 -2.95 -8.3 -3.15 -8.45 -3.5 -8.5 -3.7 L-5.5 -11.85 9.2 -6.4 9.05 0.05 Q8.9 0.0 8.9 -0.1 L8.85 -0.25 9.1 -1.8 9.2 -3.0" fill="#1a1a1a" fill-rule="evenodd" stroke="none"/>
    <path d="M-6.05 -1.45 L-0.3 -12.85 8.7 -5.8 8.95 -4.8 9.0 -4.55 Q9.15 -3.6 9.2 -3.0 8.9 -3.6 8.35 -4.15 7.1 -5.55 5.05 -5.8 L-6.05 -1.45" fill="#c7a36d" fill-rule="evenodd" stroke="none"/>
    <path d="M-8.4 1.45 Q-8.15 1.55 -7.85 1.7 -7.4 1.95 -7.4 2.1 -7.4 2.65 -7.7 3.35 -8.1 4.2 -8.6 4.2 L-8.85 4.2 -9.0 4.15 Q-8.45 3.55 -8.35 3.3 -8.3 3.15 -8.3 2.5 -8.3 1.9 -8.4 1.45 M9.6 -1.75 L9.6 -2.25 Q9.85 -0.9 9.85 -0.15 9.85 1.95 9.6 2.9 9.45 3.35 9.05 4.15 9.2 3.55 9.3 2.65 9.45 1.2 9.45 -0.55 L9.5 -1.15 9.6 -1.75 M7.7 -9.3 Q7.9 -8.7 8.1 -7.9 L8.15 -7.6 8.45 -6.4 8.45 -6.45 Q8.45 -6.6 8.55 -6.85 L8.65 -7.25 Q8.65 -7.35 8.45 -7.9 L8.05 -9.1 Q7.7 -10.2 7.45 -10.75 7.95 -10.3 9.05 -9.6 10.4 -8.7 11.1 -7.9 L11.5 -7.5 Q11.95 -6.9 12.3 -5.75 12.65 -4.65 12.65 -3.75 L12.6 -3.0 Q12.45 -2.45 12.35 -1.8 12.25 -1.0 12.1 -0.4 L12.05 -0.35 11.85 0.35 11.8 0.3 11.8 -0.05 Q11.95 -0.35 12.0 -0.8 L12.0 -1.6 Q12.0 -3.0 11.8 -3.75 11.65 -4.3 11.15 -5.35 L11.2 -6.15 Q11.2 -6.4 10.25 -7.6 L10.0 -7.9 Q9.3 -8.8 9.05 -9.05 L9.65 -7.9 Q10.5 -6.35 10.65 -6.0 10.75 -5.6 10.75 -5.1 L10.75 -3.65 Q10.75 -1.55 10.3 0.3 10.25 -0.8 9.85 -2.8 L9.35 -5.2 9.55 -6.2 Q9.55 -7.1 8.85 -6.55 8.55 -6.35 8.35 -6.05 L8.35 -6.2 Q8.35 -6.8 7.9 -7.1 7.35 -7.4 6.65 -6.6 6.4 -6.4 6.25 -6.0 L6.2 -6.0 Q5.9 -5.25 5.1 -3.7 L4.2 -2.0 Q3.9 -1.45 3.6 -1.1 2.3 0.6 1.35 2.5 0.15 4.85 0.15 6.3 L0.15 6.15 0.2 5.2 Q0.2 3.75 0.65 2.15 0.9 1.15 1.65 -0.6 2.45 -2.6 2.75 -3.5 3.3 -5.2 3.45 -6.8 3.25 -6.25 2.55 -4.65 L1.35 -1.7 0.85 -0.35 1.05 -2.65 Q1.2 -3.55 1.8 -6.0 L2.25 -7.9 2.3 -8.35 2.3 -8.5 2.25 -8.5 2.1 -7.9 1.45 -5.8 Q0.95 -4.25 0.75 -3.25 L0.75 -3.3 Q-0.05 -0.45 -0.6 1.15 L-1.35 3.35 Q-1.8 4.8 -1.8 5.65 -1.8 6.65 -1.7 7.35 L-1.6 7.95 -2.0 6.25 Q-2.7 3.05 -2.7 1.5 -2.7 -0.85 -2.15 -3.15 -1.65 -5.45 -0.6 -7.9 L-0.7 -7.9 Q-2.1 -5.1 -2.6 -3.05 -3.15 -1.0 -3.15 1.5 -3.15 3.1 -2.55 5.75 -2.3 6.85 -2.05 7.65 L-2.15 7.55 Q-2.45 6.9 -2.8 6.35 L-3.55 4.8 Q-4.3 3.1 -4.6 2.1 -4.95 1.0 -5.05 -0.25 -5.15 -1.35 -5.15 -3.6 -5.15 -4.45 -4.9 -5.6 L-4.6 -6.75 -4.6 -6.9 -4.7 -6.9 Q-5.25 -4.9 -5.35 -4.25 -5.55 -3.35 -5.55 -2.05 -5.55 0.85 -4.95 2.75 L-4.8 3.1 Q-4.6 3.7 -4.2 4.5 -3.85 6.0 -3.7 6.25 L-3.75 6.3 Q-4.85 4.3 -5.6 1.6 L-5.7 1.15 -5.7 1.0 Q-5.7 0.9 -5.9 0.25 -6.3 -1.65 -6.3 -3.25 -6.3 -4.3 -6.05 -5.5 L-5.75 -6.75 -5.75 -6.95 Q-6.65 -5.7 -6.7 -1.85 L-6.95 -2.4 Q-7.3 -3.05 -7.45 -4.15 L-7.7 -5.9 -7.75 -5.9 Q-7.7 -5.5 -7.75 -4.8 L-7.8 -4.05 Q-7.8 -3.85 -7.75 -3.6 -8.0 -3.85 -8.25 -3.85 -8.75 -3.85 -9.2 -3.45 -9.5 -3.2 -9.6 -2.95 L-9.65 -4.0 -9.7 -4.7 Q-9.7 -5.2 -9.15 -6.35 -8.8 -7.15 -8.3 -7.9 -7.9 -8.6 -7.4 -9.25 -5.25 -12.15 -2.3 -13.0 -2.95 -12.45 -3.6 -11.5 -4.15 -10.75 -4.75 -9.7 L-5.4 -8.45 -5.35 -8.45 Q-4.55 -9.85 -3.25 -11.2 -1.2 -13.3 0.6 -13.3 L0.9 -13.25 Q1.8 -13.1 3.05 -12.5 4.9 -11.7 5.05 -11.7 L5.15 -11.7 Q4.85 -11.55 4.5 -11.35 3.7 -10.9 3.15 -10.3 2.55 -9.65 2.6 -9.35 L2.75 -9.35 Q2.8 -9.9 3.65 -10.55 4.75 -11.35 6.2 -11.35 7.05 -11.35 7.7 -9.3" fill="#003366" fill-rule="evenodd" stroke="none"/>
    <path d="M7.2 -11.25 L7.35 -11.05 Q8.0 -10.6 9.15 -10.05 10.65 -9.35 10.75 -9.3 L11.65 -8.0 11.75 -7.9 Q12.15 -7.25 12.25 -6.8 L12.35 -6.45 Q12.55 -5.95 12.7 -5.4 13.05 -4.25 13.05 -3.25 13.05 -2.7 13.0 -2.25 L13.0 -2.05 Q13.0 -1.65 12.7 -0.95 L12.35 -0.15 Q11.95 0.85 11.5 1.2 11.35 1.15 11.35 0.95 L11.5 0.0 Q11.6 -1.0 11.6 -1.55 11.6 -2.9 11.45 -3.45 L11.1 -4.45 11.1 -2.2 Q11.2 -0.8 10.9 0.4 10.65 1.25 10.25 2.05 10.15 2.85 9.9 3.35 L9.2 4.5 8.75 5.2 8.4 5.7 7.95 6.4 8.25 5.8 Q8.8 4.35 9.0 0.15 9.1 -1.95 9.1 -4.05 L9.1 -4.35 Q8.9 -5.45 8.9 -6.05 8.8 -6.0 8.6 -5.7 8.45 -5.35 8.3 -5.2 8.1 -5.4 8.1 -5.5 L8.1 -5.55 7.85 -6.2 Q7.5 -6.85 7.15 -6.85 7.05 -6.85 5.7 -4.0 4.55 -1.7 3.9 -0.55 L3.85 -0.55 Q2.05 3.35 2.05 6.2 L2.0 6.25 1.85 5.45 Q1.75 4.85 1.75 4.6 1.75 3.95 2.0 3.05 L2.1 2.1 Q1.55 2.95 1.2 3.7 0.35 5.45 0.25 7.05 L0.25 7.1 0.2 7.45 -0.05 6.45 Q-0.3 5.7 -0.3 4.9 -0.3 4.5 -0.2 3.9 -0.2 3.2 0.0 2.3 L0.0 2.15 Q0.0 2.0 0.1 1.2 L-0.35 2.25 Q-0.9 3.4 -1.15 4.3 -1.6 5.9 -1.6 7.4 -1.6 7.75 -1.5 8.3 L-1.45 8.55 -1.3 9.2 -1.3 9.25 -1.25 9.35 -1.2 9.65 -1.35 9.5 -1.5 9.25 Q-1.9 8.65 -2.4 7.65 L-3.65 5.55 -3.75 5.3 -3.4 6.5 Q-3.05 7.55 -3.05 7.6 L-3.1 7.7 -3.2 7.8 Q-4.2 7.2 -5.5 3.65 -6.45 1.05 -6.65 -0.5 L-6.95 -1.15 Q-7.4 -2.3 -7.6 -3.05 L-7.85 -3.15 Q-8.2 -3.3 -8.55 -3.3 -8.85 -3.3 -9.25 -2.7 -9.65 -2.1 -9.7 -2.1 -9.8 -2.1 -10.0 -3.55 L-10.2 -5.05 Q-10.2 -5.65 -9.4 -7.05 L-8.85 -7.9 Q-8.2 -9.1 -7.3 -10.15 -3.9 -14.3 -0.55 -13.85 L-0.15 -13.8 Q0.95 -13.8 1.9 -13.6 L2.75 -13.35 Q3.25 -13.2 3.6 -13.0 3.95 -12.85 4.55 -12.45 5.05 -12.05 5.5 -11.8 5.8 -11.9 6.1 -11.9 6.9 -11.95 7.2 -11.25 M7.7 -9.3 Q7.05 -11.35 6.2 -11.35 4.75 -11.35 3.65 -10.55 2.8 -9.9 2.75 -9.35 L2.6 -9.35 Q2.55 -9.65 3.15 -10.3 3.7 -10.9 4.5 -11.35 4.85 -11.55 5.15 -11.7 L5.05 -11.7 Q4.9 -11.7 3.05 -12.5 1.8 -13.1 0.9 -13.25 L0.6 -13.3 Q-1.2 -13.3 -3.25 -11.2 -4.55 -9.85 -5.35 -8.45 L-5.4 -8.45 -4.75 -9.7 Q-4.15 -10.75 -3.6 -11.5 -2.95 -12.45 -2.3 -13.0 -5.25 -12.15 -7.4 -9.25 -7.9 -8.6 -8.3 -7.9 -8.8 -7.15 -9.15 -6.35 -9.7 -5.2 -9.7 -4.7 L-9.65 -4.0 -9.6 -2.95 Q-9.5 -3.2 -9.2 -3.45 -8.75 -3.85 -8.25 -3.85 -8.0 -3.85 -7.75 -3.6 -7.8 -3.85 -7.8 -4.05 L-7.75 -4.8 Q-7.7 -5.5 -7.75 -5.9 L-7.7 -5.9 -7.45 -4.15 Q-7.3 -3.05 -6.95 -2.4 L-6.7 -1.85 Q-6.65 -5.7 -5.75 -6.95 L-5.75 -6.75 -6.05 -5.5 Q-6.3 -4.3 -6.3 -3.25 -6.3 -1.65 -5.9 0.25 -5.7 0.9 -5.7 1.0 L-5.7 1.15 -5.6 1.6 Q-4.85 4.3 -3.75 6.3 L-3.7 6.25 Q-3.85 6.0 -4.2 4.5 -4.6 3.7 -4.8 3.1 L-4.95 2.75 Q-5.55 0.85 -5.55 -2.05 -5.55 -3.35 -5.35 -4.25 -5.25 -4.9 -4.7 -6.9 L-4.6 -6.9 -4.6 -6.75 -4.9 -5.6 Q-5.15 -4.45 -5.15 -3.6 -5.15 -1.35 -5.05 -0.25 -4.95 1.0 -4.6 2.1 -4.3 3.1 -3.55 4.8 L-2.8 6.35 Q-2.45 6.9 -2.15 7.55 L-2.05 7.65 Q-2.3 6.85 -2.55 5.75 -3.15 3.1 -3.15 1.5 -3.15 -1.0 -2.6 -3.05 -2.1 -5.1 -0.7 -7.9 L-0.6 -7.9 Q-1.65 -5.45 -2.15 -3.15 -2.7 -0.85 -2.7 1.5 -2.7 3.05 -2.0 6.25 L-1.6 7.95 -1.7 7.35 Q-1.8 6.65 -1.8 5.65 -1.8 4.8 -1.35 3.35 L-0.6 1.15 Q-0.05 -0.45 0.75 -3.3 L0.75 -3.25 Q0.95 -4.25 1.45 -5.8 L2.1 -7.9 2.25 -8.5 2.3 -8.5 2.3 -8.35 2.25 -7.9 1.8 -6.0 Q1.2 -3.55 1.05 -2.65 L0.85 -0.35 1.35 -1.7 2.55 -4.65 Q3.25 -6.25 3.45 -6.8 3.3 -5.2 2.75 -3.5 2.45 -2.6 1.65 -0.6 0.9 1.15 0.65 2.15 0.2 3.75 0.2 5.2 L0.15 6.15 0.15 6.3 Q0.15 4.85 1.35 2.5 2.3 0.6 3.6 -1.1 3.9 -1.45 4.2 -2.0 L5.1 -3.7 Q5.9 -5.25 6.2 -6.0 L6.25 -6.0 Q6.4 -6.4 6.65 -6.6 7.35 -7.4 7.9 -7.1 8.35 -6.8 8.35 -6.2 L8.35 -6.05 Q8.55 -6.35 8.85 -6.55 9.55 -7.1 9.55 -6.2 L9.35 -5.2 9.85 -2.8 Q10.25 -0.8 10.3 0.3 10.75 -1.55 10.75 -3.65 L10.75 -5.1 Q10.75 -5.6 10.65 -6.0 10.5 -6.35 9.65 -7.9 L9.05 -9.05 Q9.3 -8.8 10.0 -7.9 L10.25 -7.6 Q11.2 -6.4 11.2 -6.15 L11.15 -5.35 Q11.65 -4.3 11.8 -3.75 12.0 -3.0 12.0 -1.6 L12.0 -0.8 Q11.95 -0.35 11.8 -0.05 L11.8 0.3 11.85 0.35 12.05 -0.35 12.1 -0.4 Q12.25 -1.0 12.35 -1.8 12.45 -2.45 12.6 -3.0 L12.65 -3.75 Q12.65 -4.65 12.3 -5.75 11.95 -6.9 11.5 -7.5 L11.1 -7.9 Q10.4 -8.7 9.05 -9.6 7.95 -10.3 7.45 -10.75 7.7 -10.2 8.05 -9.1 L8.45 -7.9 Q8.65 -7.35 8.65 -7.25 L8.55 -6.85 Q8.45 -6.6 8.45 -6.45 L8.45 -6.4 8.15 -7.6 8.1 -7.9 Q7.9 -8.7 7.7 -9.3 M9.6 -1.75 L9.5 -1.15 9.45 -0.55 Q9.45 1.2 9.3 2.65 9.2 3.55 9.05 4.15 9.45 3.35 9.6 2.9 9.85 1.95 9.85 -0.15 9.85 -0.9 9.6 -2.25 L9.6 -1.75 M-8.4 1.45 Q-8.3 1.9 -8.3 2.5 -8.3 3.15 -8.35 3.3 -8.45 3.55 -9.0 4.15 L-8.85 4.2 -8.6 4.2 Q-8.1 4.2 -7.7 3.35 -7.4 2.65 -7.4 2.1 -7.4 1.95 -7.85 1.7 -8.15 1.55 -8.4 1.45 M-7.15 2.9 Q-7.15 3.65 -7.25 3.95 -7.55 4.75 -8.6 4.75 -9.1 4.75 -9.35 4.65 L-9.65 4.5 -9.05 3.65 Q-8.7 3.2 -8.7 2.8 L-8.9 1.75 Q-9.15 0.7 -9.15 0.75 -9.15 -0.35 -8.0 0.7 L-6.9 1.95 -7.0 2.35 -7.15 2.9" fill="#1d1d1d" fill-rule="evenodd" stroke="none"/>
  </g>
</svg>
