<?xml version="1.0" encoding="UTF-8" standalone="no"?>
<svg xmlns:ffdec="https://www.free-decompiler.com/flash" xmlns:xlink="http://www.w3.org/1999/xlink" ffdec:objectType="shape" height="14.05px" width="20.05px" xmlns="http://www.w3.org/2000/svg">
  <g transform="matrix(1.0, 0.0, 0.0, 1.0, 9.5, 14.0)">
    <path d="M-6.05 -1.45 L-7.0 -2.65 -7.4 -2.95 Q-7.6 -3.05 -7.85 -3.05 -7.95 -2.95 -8.05 -2.95 -8.25 -2.95 -8.3 -3.15 -8.45 -3.5 -8.5 -3.7 L-8.85 -6.6 -7.3 -9.85 Q-6.5 -11.0 -5.5 -11.85 L-0.7 -13.65 4.8 -11.75 9.5 -5.8 9.7 -1.2 Q9.5 -0.6 9.05 0.05 8.9 0.0 8.9 -0.1 L8.85 -0.25 9.1 -1.8 9.2 -2.45 9.2 -3.0 Q9.15 -3.6 9.0 -4.55 L7.85 -7.55 6.35 -9.75 Q4.75 -11.45 1.9 -12.5 L-0.9 -12.8 Q-4.2 -12.2 -6.25 -9.55 -6.95 -8.7 -7.4 -7.7 L-7.45 -7.55 -7.7 -6.9 -7.9 -6.4 -8.05 -5.8 -8.0 -5.8 -8.1 -5.5 -8.1 -5.45 -8.05 -4.95 -6.05 -1.45" fill="#1a1a1a" fill-rule="evenodd" stroke="none"/>
    <path d="M9.2 -3.0 Q8.9 -3.6 8.35 -4.15 7.1 -5.55 5.05 -5.8 L4.0 -5.85 2.55 -5.8 Q0.25 -5.6 -1.5 -4.7 -2.4 -4.3 -3.5 -3.35 L-4.0 -2.65 -4.65 -1.75 -5.55 -0.35 -6.05 -1.45 -8.05 -4.95 -8.1 -5.45 -8.1 -5.5 -8.0 -5.8 -8.05 -5.8 -7.9 -6.4 -7.7 -6.9 -7.45 -7.55 -7.4 -7.7 Q-6.95 -8.7 -6.25 -9.55 -4.2 -12.2 -0.9 -12.8 L1.9 -12.5 Q4.75 -11.45 6.35 -9.75 L7.85 -7.55 9.0 -4.55 Q9.15 -3.6 9.2 -3.0" fill="#c7a36d" fill-rule="evenodd" stroke="none"/>
    <path d="M5.85 -10.6 Q6.5 -9.55 6.95 -8.35 7.35 -7.25 7.35 -6.75 L7.2 -5.6 7.05 -5.55 7.05 -5.6 Q7.15 -7.7 6.05 -9.55 4.85 -11.55 2.35 -12.75 L1.9 -13.0 1.95 -13.0 Q4.0 -13.55 5.85 -10.6 M6.25 -10.7 Q7.55 -10.25 8.45 -8.35 9.2 -6.75 9.2 -5.5 L9.15 -4.7 Q9.05 -3.9 8.85 -3.9 L8.7 -3.95 8.7 -4.35 Q8.75 -6.3 8.35 -7.55 7.8 -9.35 6.25 -10.7 M-5.15 -11.4 Q-5.45 -11.25 -5.55 -11.25 L-5.8 -11.3 -5.8 -11.4 -5.8 -11.6 Q-5.8 -11.7 -5.75 -11.8 L-5.8 -11.85 -5.75 -11.9 Q-5.5 -12.15 -5.15 -12.25 L-3.25 -12.25 Q-0.1 -11.55 2.0 -9.45 3.95 -7.55 3.95 -5.8 3.95 -5.55 3.55 -5.55 3.25 -6.55 2.7 -7.4 2.05 -8.45 1.2 -9.15 0.05 -10.1 -0.9 -10.65 -2.65 -11.65 -4.35 -11.8 -4.55 -11.75 -4.9 -11.55 L-5.15 -11.4 M-7.9 -8.05 Q-8.05 -7.9 -8.1 -7.9 -8.35 -7.9 -8.4 -8.05 L-8.45 -8.25 -8.4 -8.5 -8.5 -8.5 -8.5 -8.8 Q-7.8 -9.35 -6.6 -9.05 -5.55 -8.8 -4.35 -8.05 -3.3 -7.35 -2.55 -6.5 -1.8 -5.65 -1.8 -5.2 L-1.8 -5.05 -1.85 -5.05 Q-2.4 -5.35 -3.1 -6.0 -3.9 -6.75 -4.2 -7.0 -5.45 -7.95 -7.45 -8.35 L-7.75 -8.2 -7.9 -8.05 M9.55 -4.35 L9.55 -4.4 Q9.6 -4.75 9.6 -5.35 L9.65 -5.25 Q10.2 -3.8 10.2 -3.7 10.2 -3.0 10.1 -2.65 10.0 -2.25 9.6 -1.45 L9.6 -1.5 Q9.8 -2.65 9.55 -4.35 M1.0 -5.95 Q1.0 -5.8 0.85 -5.75 0.75 -5.65 0.6 -5.65 0.55 -5.65 -0.35 -6.7 -1.35 -7.95 -2.1 -8.5 -3.1 -9.25 -4.2 -9.7 -5.05 -10.0 -6.1 -10.2 L-6.5 -10.0 Q-7.0 -9.8 -7.05 -9.8 -7.25 -9.8 -7.3 -10.0 L-7.3 -10.2 -7.25 -10.4 -7.35 -10.45 -7.3 -10.45 Q-7.5 -10.9 -6.2 -10.7 -4.9 -10.55 -3.3 -9.95 -1.5 -9.25 -0.35 -8.3 1.0 -7.2 1.0 -5.95 M5.1 -7.3 Q4.7 -8.55 3.75 -9.5 2.75 -10.55 1.7 -11.4 -0.45 -13.15 -1.85 -13.15 L-3.15 -13.05 -3.1 -13.1 Q-2.25 -13.75 -0.7 -13.45 0.8 -13.15 2.3 -12.05 3.9 -10.95 4.85 -9.45 5.95 -7.8 5.95 -6.05 L5.9 -5.65 5.8 -5.15 5.65 -5.1 5.55 -5.15 5.1 -7.3 M-8.55 -6.3 L-8.75 -6.2 Q-8.9 -6.2 -9.05 -6.7 L-9.05 -6.85 Q-9.05 -7.6 -7.75 -7.15 -6.55 -6.7 -5.8 -6.0 -5.4 -5.6 -5.0 -4.85 L-4.45 -3.7 -4.45 -2.95 -4.5 -2.95 Q-4.65 -3.4 -5.05 -4.0 -5.4 -4.6 -5.85 -5.05 -6.25 -5.5 -7.05 -6.0 -7.45 -6.25 -7.85 -6.4 L-8.1 -6.4 Q-8.35 -6.4 -8.55 -6.3 M-8.4 -4.85 Q-7.85 -4.8 -7.1 -4.25 -6.3 -3.7 -5.75 -3.0 -5.2 -2.2 -5.2 -1.45 -5.2 -1.3 -5.3 -1.0 L-5.35 -0.85 -5.35 -0.6 -5.4 -0.55 Q-5.45 -0.5 -5.55 -0.5 L-5.7 -0.5 -5.8 -0.6 Q-5.7 -1.45 -6.5 -2.45 -6.85 -2.85 -7.3 -3.3 L-7.4 -3.3 -7.8 -3.6 Q-8.4 -4.05 -8.85 -4.15 L-8.95 -4.2 -9.0 -4.45 Q-9.0 -4.95 -8.4 -4.85" fill="#003366" fill-rule="evenodd" stroke="none"/>
    <path d="M6.25 -10.7 Q7.8 -9.35 8.35 -7.55 8.75 -6.3 8.7 -4.35 L8.7 -3.95 8.85 -3.9 Q9.05 -3.9 9.15 -4.7 L9.2 -5.5 Q9.2 -6.75 8.45 -8.35 7.55 -10.25 6.25 -10.7 M5.85 -10.6 Q4.0 -13.55 1.95 -13.0 L1.9 -13.0 2.35 -12.75 Q4.85 -11.55 6.05 -9.55 7.15 -7.7 7.05 -5.6 L7.05 -5.55 7.2 -5.6 7.35 -6.75 Q7.35 -7.25 6.95 -8.35 6.5 -9.55 5.85 -10.6 M-8.1 -7.9 L-8.25 -7.75 Q-7.6 -7.65 -6.8 -7.2 -5.7 -6.6 -4.95 -5.65 -4.1 -4.6 -4.1 -3.5 L-4.2 -3.15 -4.25 -2.8 Q-4.25 -2.65 -4.3 -2.55 -4.35 -2.45 -4.55 -2.45 -4.65 -2.45 -5.0 -3.0 L-5.75 -4.25 Q-6.95 -5.95 -8.5 -6.0 L-8.5 -5.9 Q-8.5 -5.8 -8.55 -5.65 L-8.65 -5.55 -8.6 -5.55 -8.6 -5.5 -8.65 -5.5 -8.65 -5.45 Q-8.05 -5.55 -7.15 -4.95 -6.25 -4.35 -5.6 -3.3 -4.85 -2.15 -4.85 -0.95 -4.85 -0.75 -5.15 -0.45 -5.45 -0.1 -5.75 -0.1 L-5.95 -0.1 -5.95 -0.25 Q-6.2 -0.35 -6.25 -0.75 -6.3 -1.05 -6.3 -1.35 -6.3 -1.65 -6.7 -2.1 L-6.8 -2.2 Q-6.95 -2.5 -7.2 -2.7 -7.75 -3.15 -8.6 -3.3 L-8.9 -3.3 Q-9.45 -3.65 -9.45 -4.25 -9.45 -5.2 -8.8 -5.4 -9.05 -5.55 -9.2 -5.75 -9.3 -5.95 -9.35 -6.25 L-9.45 -6.5 -9.5 -6.8 Q-9.5 -7.7 -8.65 -7.75 L-8.8 -7.95 Q-8.9 -8.2 -8.9 -8.4 L-8.9 -8.45 -8.95 -8.75 Q-8.95 -9.85 -7.75 -9.8 L-7.75 -10.2 Q-7.8 -10.35 -7.8 -10.5 -7.8 -11.1 -6.5 -11.1 L-6.5 -11.15 Q-6.5 -11.35 -6.45 -11.45 L-6.4 -11.55 -6.45 -11.65 Q-6.45 -11.95 -5.95 -12.35 -5.5 -12.7 -5.2 -12.7 L-3.9 -12.7 Q-3.9 -13.0 -3.6 -13.25 -3.25 -13.6 -2.7 -13.8 -1.25 -14.3 0.6 -13.45 L0.8 -13.4 Q1.0 -13.95 2.25 -13.6 2.95 -13.4 4.45 -12.75 4.85 -12.5 5.4 -11.9 L5.85 -11.4 Q5.9 -11.5 6.05 -11.5 6.35 -11.55 6.8 -11.2 7.9 -10.35 8.7 -8.7 9.2 -7.7 9.4 -7.05 L9.45 -6.9 Q9.75 -6.45 10.1 -5.4 10.55 -3.95 10.55 -3.2 10.55 -2.4 10.35 -1.9 10.1 -1.35 9.35 -0.55 9.2 -0.7 9.2 -0.9 L9.3 -2.1 9.25 -3.6 Q9.1 -3.45 8.85 -3.45 8.35 -3.45 8.1 -4.95 L7.8 -7.3 7.6 -7.9 Q7.65 -7.4 7.65 -6.75 L7.8 -5.9 Q7.85 -5.45 7.35 -5.15 L6.85 -5.15 Q6.75 -5.5 6.4 -7.4 6.1 -8.8 5.55 -9.65 L4.8 -10.75 Q4.35 -11.3 3.65 -11.75 L3.35 -11.9 4.0 -11.25 Q4.85 -10.45 5.6 -8.8 6.35 -7.15 6.35 -6.05 6.35 -5.6 6.25 -5.25 6.05 -4.65 5.55 -4.65 5.3 -4.65 5.2 -5.05 L4.95 -6.05 Q4.55 -7.85 3.5 -9.05 2.6 -10.05 1.5 -10.95 -0.7 -12.75 -2.5 -12.75 L-3.1 -12.7 Q0.35 -11.85 2.45 -9.6 4.35 -7.65 4.35 -5.75 4.35 -5.55 4.2 -5.35 4.1 -5.1 3.95 -5.1 3.2 -5.1 2.8 -5.9 2.55 -6.3 2.45 -6.9 2.25 -7.35 1.9 -7.8 1.5 -8.35 1.0 -8.75 0.25 -9.5 -0.85 -10.15 -2.95 -11.35 -5.15 -11.4 L-4.9 -11.55 Q-4.55 -11.75 -4.35 -11.8 -2.65 -11.65 -0.9 -10.65 0.05 -10.1 1.2 -9.15 2.05 -8.45 2.7 -7.4 3.25 -6.55 3.55 -5.55 3.95 -5.55 3.95 -5.8 3.95 -7.55 2.0 -9.45 -0.1 -11.55 -3.25 -12.25 L-5.15 -12.25 Q-5.5 -12.15 -5.75 -11.9 L-5.8 -11.85 -5.75 -11.8 Q-5.8 -11.7 -5.8 -11.6 L-5.8 -11.4 -5.95 -11.4 -6.0 -11.2 -6.05 -11.1 Q-4.75 -11.0 -3.2 -10.4 -1.25 -9.65 0.0 -8.55 1.45 -7.3 1.45 -5.9 1.45 -5.7 1.2 -5.45 1.0 -5.25 0.7 -5.25 0.6 -5.25 -0.1 -5.95 -1.1 -7.0 -1.65 -7.5 -4.1 -9.75 -6.15 -9.75 L-7.0 -9.8 -7.0 -9.7 Q-6.25 -9.55 -5.2 -9.0 -3.75 -8.25 -2.65 -7.2 -1.5 -6.1 -1.5 -5.35 -1.5 -4.65 -2.15 -4.65 L-2.7 -5.2 Q-3.35 -5.85 -4.0 -6.35 -5.9 -7.85 -7.9 -8.05 L-7.75 -8.2 -7.45 -8.35 Q-5.45 -7.95 -4.2 -7.0 -3.9 -6.75 -3.1 -6.0 -2.4 -5.35 -1.85 -5.05 L-1.8 -5.05 -1.8 -5.2 Q-1.8 -5.65 -2.55 -6.5 -3.3 -7.35 -4.35 -8.05 -5.55 -8.8 -6.6 -9.05 -7.8 -9.35 -8.5 -8.8 L-8.5 -8.5 -8.4 -8.5 -8.45 -8.25 -8.4 -8.05 Q-8.35 -7.9 -8.1 -7.9 M5.1 -7.3 L5.55 -5.15 5.65 -5.1 5.8 -5.15 5.9 -5.65 5.95 -6.05 Q5.95 -7.8 4.85 -9.45 3.9 -10.95 2.3 -12.05 0.8 -13.15 -0.7 -13.45 -2.25 -13.75 -3.1 -13.1 L-3.15 -13.05 -1.85 -13.15 Q-0.45 -13.15 1.7 -11.4 2.75 -10.55 3.75 -9.5 4.7 -8.55 5.1 -7.3 M1.0 -5.95 Q1.0 -7.2 -0.35 -8.3 -1.5 -9.25 -3.3 -9.95 -4.9 -10.55 -6.2 -10.7 -7.5 -10.9 -7.3 -10.45 L-7.35 -10.45 -7.25 -10.4 -7.3 -10.2 -7.3 -10.0 Q-7.25 -9.8 -7.05 -9.8 -7.0 -9.8 -6.5 -10.0 L-6.1 -10.2 Q-5.05 -10.0 -4.2 -9.7 -3.1 -9.25 -2.1 -8.5 -1.35 -7.95 -0.35 -6.7 0.55 -5.65 0.6 -5.65 0.75 -5.65 0.85 -5.75 1.0 -5.8 1.0 -5.95 M9.55 -4.35 Q9.8 -2.65 9.6 -1.5 L9.6 -1.45 Q10.0 -2.25 10.1 -2.65 10.2 -3.0 10.2 -3.7 10.2 -3.8 9.65 -5.25 L9.6 -5.35 Q9.6 -4.75 9.55 -4.4 L9.55 -4.35 M-8.55 -6.3 Q-8.35 -6.4 -8.1 -6.4 L-7.85 -6.4 Q-7.45 -6.25 -7.05 -6.0 -6.25 -5.5 -5.85 -5.05 -5.4 -4.6 -5.05 -4.0 -4.65 -3.4 -4.5 -2.95 L-4.45 -2.95 -4.45 -3.7 -5.0 -4.85 Q-5.4 -5.6 -5.8 -6.0 -6.55 -6.7 -7.75 -7.15 -9.05 -7.6 -9.05 -6.85 L-9.05 -6.7 Q-8.9 -6.2 -8.75 -6.2 L-8.55 -6.3 M-8.4 -4.85 Q-9.0 -4.95 -9.0 -4.45 L-8.95 -4.2 -8.85 -4.15 Q-8.4 -4.05 -7.8 -3.6 L-7.4 -3.3 -7.3 -3.3 Q-6.85 -2.85 -6.5 -2.45 -5.7 -1.45 -5.8 -0.6 L-5.7 -0.5 -5.55 -0.5 Q-5.45 -0.5 -5.4 -0.55 L-5.35 -0.6 -5.35 -0.85 -5.3 -1.0 Q-5.2 -1.3 -5.2 -1.45 -5.2 -2.2 -5.75 -3.0 -6.3 -3.7 -7.1 -4.25 -7.85 -4.8 -8.4 -4.85" fill="#1d1d1d" fill-rule="evenodd" stroke="none"/>
  </g>
</svg>
