<?xml version="1.0" encoding="UTF-8" standalone="no"?>
<svg xmlns:ffdec="https://www.free-decompiler.com/flash" xmlns:xlink="http://www.w3.org/1999/xlink" ffdec:objectType="shape" height="19.2px" width="26.65px" xmlns="http://www.w3.org/2000/svg">
  <g transform="matrix(1.0, 0.0, 0.0, 1.0, 10.0, 19.15)">
    <path d="M-6.05 -1.45 L-6.15 -1.4 -6.8 -2.45 -7.0 -2.65 Q-7.2 -2.85 -7.4 -2.95 -7.6 -3.05 -7.85 -3.05 -7.95 -2.95 -8.05 -2.95 -8.25 -2.95 -8.3 -3.15 -8.45 -3.5 -8.5 -3.7 L-7.3 -9.85 -0.7 -13.65 8.6 -7.55 Q8.95 -6.95 9.2 -6.4 L9.45 -5.8 9.5 -5.8 Q9.8 -4.65 9.85 -3.35 L9.85 -2.4 Q9.85 -1.75 9.7 -1.2 9.5 -0.6 9.05 0.05 8.9 0.0 8.9 -0.1 L8.85 -0.25 9.1 -1.8 9.2 -2.45 9.2 -3.0 Q9.15 -3.6 9.0 -4.55 L8.95 -4.8 8.7 -5.8 8.4 -6.4 -0.9 -12.8 Q-4.2 -12.2 -6.25 -9.55 L-7.4 -7.7 -7.9 -6.4 -7.6 -4.05 -7.4 -3.85 -6.7 -3.2 -6.6 -3.1 -6.35 -2.65 -6.25 -2.35 -6.0 -1.5 -6.05 -1.45" fill="#1a1a1a" fill-rule="evenodd" stroke="none"/>
    <path d="M9.2 -3.0 Q8.9 -3.6 8.35 -4.15 7.1 -5.55 5.05 -5.8 L4.0 -5.85 2.55 -5.8 Q0.25 -5.6 -1.5 -4.7 -2.4 -4.3 -3.5 -3.35 L-4.0 -2.65 -4.65 -1.75 -5.55 -0.35 Q-5.7 -0.35 -5.9 -0.9 L-6.05 -1.45 -6.0 -1.5 -6.25 -2.35 -6.35 -2.65 -6.6 -3.1 -6.7 -3.2 -7.4 -3.85 -7.6 -4.05 -7.9 -6.4 -7.4 -7.7 -6.25 -9.55 Q-4.2 -12.2 -0.9 -12.8 L8.4 -6.4 8.7 -5.8 8.95 -4.8 9.0 -4.55 Q9.15 -3.6 9.2 -3.0" fill="#c7a36d" fill-rule="evenodd" stroke="none"/>
    <path d="M2.95 -11.15 L2.9 -11.15 2.9 -11.0 2.95 -11.15 M5.4 -16.65 Q4.75 -16.45 3.2 -15.6 L3.35 -15.6 3.5 -15.7 3.75 -15.75 5.35 -16.2 Q7.3 -16.65 9.3 -16.65 9.85 -16.65 10.85 -16.2 11.4 -15.95 11.8 -15.7 10.6 -15.8 8.45 -14.85 L8.05 -14.7 Q7.5 -14.55 7.05 -14.35 6.3 -14.05 6.15 -13.7 L5.9 -13.55 Q6.0 -13.6 6.1 -13.65 L6.1 -13.6 Q6.35 -13.75 7.15 -14.0 8.15 -14.35 9.0 -14.4 L11.8 -14.35 Q13.1 -14.05 14.95 -12.8 L15.85 -12.15 Q14.2 -12.35 12.25 -11.2 11.35 -10.7 10.25 -9.8 L8.8 -8.6 8.85 -8.65 8.8 -8.55 7.6 -7.5 7.65 -7.5 Q9.85 -9.05 10.75 -9.5 11.5 -9.95 12.25 -10.25 L11.95 -10.05 Q10.6 -9.2 10.1 -8.6 9.3 -7.75 8.45 -7.0 6.75 -5.5 5.75 -5.5 L5.55 -5.75 Q5.45 -6.2 4.9 -6.7 L3.9 -8.0 Q2.95 -9.35 2.85 -10.4 L2.85 -10.05 Q2.85 -8.8 3.5 -7.8 L3.05 -8.15 Q1.7 -9.15 1.0 -9.85 -0.1 -10.95 -0.55 -12.05 -0.65 -12.05 -0.7 -12.0 -0.7 -10.95 1.05 -9.25 0.65 -9.5 0.45 -9.65 L0.25 -9.95 Q-0.35 -10.9 -1.15 -11.3 -1.35 -11.45 -1.55 -11.6 L-2.5 -11.8 Q-5.55 -11.8 -7.1 -9.4 -7.95 -8.05 -8.3 -6.0 -8.3 -5.45 -8.2 -5.1 -8.1 -4.75 -8.1 -4.4 -8.1 -4.3 -8.2 -4.2 L-8.5 -4.1 -8.55 -4.15 -8.55 -4.05 -8.65 -3.95 -8.85 -3.8 -8.9 -3.8 -8.9 -3.85 -9.0 -4.35 Q-9.0 -4.65 -9.25 -5.65 L-9.35 -6.35 -9.5 -8.2 Q-9.5 -9.25 -8.95 -10.45 L-8.85 -10.65 -8.85 -10.4 Q-8.95 -8.85 -9.05 -8.4 L-8.95 -8.4 Q-8.65 -9.05 -8.5 -10.15 -8.35 -11.45 -8.2 -11.9 -7.7 -14.0 -5.35 -15.4 L-5.4 -15.35 Q-6.0 -14.65 -6.25 -13.7 -7.1 -12.85 -7.1 -12.0 L-7.05 -12.0 Q-6.65 -13.65 -3.6 -15.1 -2.75 -15.55 -1.55 -16.65 -0.65 -17.5 -0.15 -17.9 L-0.15 -17.7 Q-0.25 -17.5 -0.5 -17.2 L-0.6 -17.1 -0.85 -16.5 -1.0 -16.35 -1.3 -15.75 -1.5 -15.3 Q0.15 -16.55 1.2 -17.0 3.25 -17.95 5.9 -17.95 6.5 -17.95 7.95 -17.55 L9.15 -17.2 Q6.6 -17.0 5.4 -16.65 M-8.65 -4.3 L-8.7 -4.3 -8.65 -4.25 -8.65 -4.3" fill="#003366" fill-rule="evenodd" stroke="none"/>
    <path d="M13.05 -15.25 L12.45 -15.3 Q11.65 -15.35 10.95 -15.15 10.35 -15.15 9.45 -14.85 L11.35 -14.85 11.8 -14.8 Q13.3 -14.4 14.2 -14.05 14.7 -13.8 15.1 -13.55 15.9 -13.05 16.5 -12.15 L16.65 -11.95 16.2 -11.85 16.2 -11.9 Q14.0 -11.75 11.95 -10.6 L11.85 -10.5 Q12.9 -10.95 14.0 -11.1 14.35 -11.2 14.7 -11.2 L14.9 -11.15 15.15 -11.2 Q15.3 -11.15 15.3 -11.1 L15.2 -11.05 15.05 -11.05 13.85 -10.6 Q12.65 -10.15 12.2 -9.9 11.5 -9.55 11.05 -9.0 L10.3 -8.1 Q9.5 -7.25 8.55 -6.5 6.7 -4.9 5.75 -4.9 L5.7 -4.9 5.35 -5.4 Q5.35 -5.3 5.35 -5.25 L5.1 -5.7 4.15 -6.6 2.25 -8.2 Q1.3 -8.5 0.3 -9.45 L-0.35 -10.1 Q-1.6 -11.2 -2.9 -11.4 L-3.4 -11.3 -4.2 -11.15 Q-5.15 -10.75 -6.0 -9.7 -6.75 -8.85 -7.15 -7.95 -7.7 -6.9 -7.7 -5.9 -7.55 -4.8 -7.55 -4.05 -7.55 -4.0 -7.8 -3.9 L-7.85 -3.8 Q-8.0 -3.65 -8.35 -3.55 L-9.05 -3.05 Q-9.15 -3.05 -9.25 -3.45 L-9.25 -3.45 -9.35 -3.9 Q-9.65 -4.65 -9.8 -5.95 L-9.8 -6.05 -10.0 -7.3 -10.0 -7.7 Q-10.0 -8.2 -9.95 -8.4 L-9.9 -8.6 -9.85 -9.05 -9.55 -10.25 -9.35 -10.75 -9.1 -11.25 Q-9.0 -11.55 -8.7 -11.8 L-8.5 -12.45 Q-7.75 -14.9 -4.2 -16.2 L-4.15 -16.15 -4.1 -16.0 -4.95 -14.9 -5.15 -14.6 Q-4.45 -15.1 -3.4 -15.75 -2.85 -16.1 -2.2 -16.65 L-1.05 -17.65 Q0.25 -18.8 1.35 -19.1 L1.4 -19.15 1.4 -19.1 1.45 -19.15 1.5 -19.1 1.25 -18.95 0.35 -17.55 0.0 -17.05 0.2 -17.15 Q1.8 -17.9 4.15 -18.2 6.45 -18.5 8.05 -18.25 9.8 -17.95 9.8 -17.1 L9.8 -17.05 Q10.95 -16.8 11.9 -16.35 13.05 -15.75 13.05 -15.3 L13.05 -15.25 M5.4 -16.65 Q6.6 -17.0 9.15 -17.2 L7.95 -17.55 Q6.5 -17.95 5.9 -17.95 3.25 -17.95 1.2 -17.0 0.15 -16.55 -1.5 -15.3 L-1.3 -15.75 -1.0 -16.35 -0.85 -16.5 -0.6 -17.1 -0.5 -17.2 Q-0.25 -17.5 -0.15 -17.7 L-0.15 -17.9 Q-0.65 -17.5 -1.55 -16.65 -2.75 -15.55 -3.6 -15.1 -6.65 -13.65 -7.05 -12.0 L-7.1 -12.0 Q-7.1 -12.85 -6.25 -13.7 -6.0 -14.65 -5.4 -15.35 L-5.35 -15.4 Q-7.7 -14.0 -8.2 -11.9 -8.35 -11.45 -8.5 -10.15 -8.65 -9.05 -8.95 -8.4 L-9.05 -8.4 Q-8.95 -8.85 -8.85 -10.4 L-8.85 -10.65 -8.95 -10.45 Q-9.5 -9.25 -9.5 -8.2 L-9.35 -6.35 -9.25 -5.65 Q-9.0 -4.65 -9.0 -4.35 L-8.9 -3.85 -8.9 -3.8 -8.85 -3.8 -8.65 -3.95 -8.55 -4.05 -8.55 -4.15 -8.5 -4.1 -8.2 -4.2 Q-8.1 -4.3 -8.1 -4.4 -8.1 -4.75 -8.2 -5.1 -8.3 -5.45 -8.3 -6.0 -7.95 -8.05 -7.1 -9.4 -5.55 -11.8 -2.5 -11.8 L-1.55 -11.6 Q-1.35 -11.45 -1.15 -11.3 -0.35 -10.9 0.25 -9.95 L0.45 -9.65 Q0.65 -9.5 1.05 -9.25 -0.7 -10.95 -0.7 -12.0 -0.65 -12.05 -0.55 -12.05 -0.1 -10.95 1.0 -9.85 1.7 -9.15 3.05 -8.15 L3.5 -7.8 Q2.85 -8.8 2.85 -10.05 L2.85 -10.4 Q2.95 -9.35 3.9 -8.0 L4.9 -6.7 Q5.45 -6.2 5.55 -5.75 L5.75 -5.5 Q6.75 -5.5 8.45 -7.0 9.3 -7.75 10.1 -8.6 10.6 -9.2 11.95 -10.05 L12.25 -10.25 Q11.5 -9.95 10.75 -9.5 9.85 -9.05 7.65 -7.5 L7.6 -7.5 8.8 -8.55 8.85 -8.65 8.8 -8.6 10.25 -9.8 Q11.35 -10.7 12.25 -11.2 14.2 -12.35 15.85 -12.15 L14.95 -12.8 Q13.1 -14.05 11.8 -14.35 L9.0 -14.4 Q8.15 -14.35 7.15 -14.0 6.35 -13.75 6.1 -13.6 L6.1 -13.65 Q6.0 -13.6 5.9 -13.55 L6.15 -13.7 Q6.3 -14.05 7.05 -14.35 7.5 -14.55 8.05 -14.7 L8.45 -14.85 Q10.6 -15.8 11.8 -15.7 11.4 -15.95 10.85 -16.2 9.85 -16.65 9.3 -16.65 7.3 -16.65 5.35 -16.2 L3.75 -15.75 3.5 -15.7 3.35 -15.6 3.2 -15.6 Q4.75 -16.45 5.4 -16.65 M2.95 -11.15 L2.9 -11.0 2.9 -11.15 2.95 -11.15 M9.5 -4.45 L9.4 -4.35 Q9.45 -4.5 9.5 -4.5 L9.5 -4.45 M-8.65 -4.3 L-8.65 -4.25 -8.7 -4.3 -8.65 -4.3 M-5.25 -3.55 L-5.25 -3.55" fill="#1d1d1d" fill-rule="evenodd" stroke="none"/>
  </g>
</svg>
