<?xml version="1.0" encoding="UTF-8" standalone="no"?>
<svg xmlns:ffdec="https://www.free-decompiler.com/flash" xmlns:xlink="http://www.w3.org/1999/xlink" ffdec:objectType="shape" height="15.1px" width="18.7px" xmlns="http://www.w3.org/2000/svg">
  <g transform="matrix(1.0, 0.0, 0.0, 1.0, 8.85, 15.05)">
    <path d="M-6.05 -1.45 L-6.15 -1.4 -6.8 -2.45 -7.0 -2.65 Q-7.2 -2.85 -7.4 -2.95 -7.6 -3.05 -7.85 -3.05 -7.95 -2.95 -8.05 -2.95 -8.25 -2.95 -8.3 -3.15 -8.45 -3.5 -8.5 -3.7 -8.6 -4.05 -8.7 -4.7 L-8.75 -5.05 -8.8 -5.35 -8.8 -6.4 -8.85 -6.6 -8.8 -6.75 -8.5 -7.55 Q-8.1 -8.7 -7.4 -9.7 L-7.3 -9.85 Q-6.5 -11.0 -5.5 -11.85 L3.7 -12.4 7.8 -8.7 8.35 -7.95 8.6 -7.55 Q8.95 -6.95 9.2 -6.4 L9.45 -5.8 9.5 -5.8 Q9.8 -4.65 9.85 -3.35 L9.85 -2.4 Q9.85 -1.75 9.7 -1.2 9.5 -0.6 9.05 0.05 8.9 0.0 8.9 -0.1 L8.85 -0.25 9.1 -1.8 9.2 -2.45 9.2 -3.0 Q9.15 -3.6 9.0 -4.55 L8.95 -4.8 8.7 -5.8 8.4 -6.4 7.85 -7.55 7.35 -8.35 -0.9 -12.8 Q-4.2 -12.2 -6.25 -9.55 -6.95 -8.7 -7.4 -7.7 L-7.45 -7.55 -7.7 -6.9 -7.9 -6.4 -8.05 -5.8 -8.0 -5.8 -8.1 -5.5 -8.1 -5.45 -8.05 -4.95 -7.95 -4.6 -7.85 -4.2 -7.6 -4.05 -7.4 -3.85 -6.7 -3.2 -6.6 -3.1 -6.35 -2.65 -6.25 -2.35 -6.0 -1.5 -6.05 -1.45" fill="#1a1a1a" fill-rule="evenodd" stroke="none"/>
    <path d="M9.2 -3.0 Q8.9 -3.6 8.35 -4.15 7.1 -5.55 5.05 -5.8 L4.0 -5.85 2.55 -5.8 Q0.25 -5.6 -1.5 -4.7 -2.4 -4.3 -3.5 -3.35 L-4.0 -2.65 -4.65 -1.75 -5.55 -0.35 Q-5.7 -0.35 -5.9 -0.9 L-6.05 -1.45 -6.0 -1.5 -6.25 -2.35 -6.35 -2.65 -6.6 -3.1 -6.7 -3.2 -7.4 -3.85 -7.6 -4.05 -7.85 -4.2 -7.95 -4.6 -8.05 -4.95 -8.1 -5.45 -8.1 -5.5 -8.0 -5.8 -8.05 -5.8 -7.9 -6.4 -7.7 -6.9 -7.45 -7.55 -7.4 -7.7 Q-6.95 -8.7 -6.25 -9.55 -4.2 -12.2 -0.9 -12.8 L7.35 -8.35 7.85 -7.55 8.4 -6.4 8.7 -5.8 8.95 -4.8 9.0 -4.55 Q9.15 -3.6 9.2 -3.0" fill="#c7a36d" fill-rule="evenodd" stroke="none"/>
    <path d="M0.25 -14.3 L0.35 -14.4 Q0.4 -14.45 0.6 -14.4 L0.65 -14.25 0.55 -14.1 Q0.4 -14.1 0.4 -14.15 L0.25 -14.3 M0.05 -14.6 L0.2 -14.45 0.1 -14.35 Q-0.05 -14.3 -0.15 -14.3 -0.3 -14.3 -0.25 -14.3 L-0.35 -14.35 -0.35 -14.45 -0.3 -14.55 -0.9 -14.5 Q-0.1 -14.25 0.75 -13.65 L0.75 -13.6 Q0.4 -13.85 -0.15 -14.05 -0.65 -14.2 -0.95 -14.25 -1.6 -14.3 -2.3 -14.1 -1.15 -13.35 -0.25 -12.4 0.45 -11.7 0.9 -10.95 L1.0 -10.85 Q2.0 -10.1 2.6 -8.7 L2.7 -8.4 Q2.5 -9.65 2.35 -10.15 2.05 -11.15 1.55 -11.9 L1.6 -11.9 Q2.65 -10.45 3.2 -8.45 L3.6 -6.65 4.0 -5.6 4.0 -5.85 4.05 -6.2 Q4.05 -6.45 3.85 -7.5 L3.8 -7.85 3.9 -8.0 Q3.9 -8.25 3.45 -9.4 L3.45 -9.45 Q3.1 -10.05 2.6 -11.1 2.05 -12.3 1.05 -13.15 L1.1 -13.2 Q1.95 -12.5 2.7 -11.5 3.55 -10.5 3.65 -9.9 3.9 -9.65 4.05 -9.3 L4.15 -9.0 4.25 -8.85 Q4.6 -8.45 4.6 -8.2 L4.55 -8.0 4.6 -7.95 4.55 -7.9 4.4 -7.45 4.25 -6.85 4.25 -6.25 4.2 -5.65 4.2 -5.5 4.8 -5.35 Q4.8 -5.95 5.0 -6.6 5.25 -7.45 5.3 -7.95 L5.4 -7.95 5.4 -7.85 Q5.15 -6.65 5.15 -6.35 L5.35 -5.5 Q5.4 -6.0 5.65 -6.9 6.0 -8.1 6.2 -8.2 5.75 -7.55 5.7 -6.6 L5.6 -5.45 6.05 -5.45 6.6 -6.4 7.4 -7.7 7.55 -8.0 6.75 -8.25 5.2 -8.3 Q5.7 -8.5 6.7 -8.55 7.45 -8.6 7.75 -8.45 L7.75 -8.55 Q7.75 -8.85 7.55 -9.3 7.0 -10.35 5.55 -12.4 L5.3 -12.55 5.2 -12.75 Q4.75 -13.2 4.3 -13.45 4.05 -13.65 3.65 -13.85 L3.7 -13.7 Q3.65 -13.55 3.45 -13.55 L3.3 -13.55 3.3 -13.6 3.25 -13.6 Q3.2 -13.6 3.2 -13.7 3.2 -13.9 3.25 -13.85 L3.65 -13.85 3.0 -14.15 Q2.2 -14.35 1.2 -14.5 L1.25 -14.4 Q0.95 -14.2 0.85 -14.15 L0.75 -14.2 Q0.7 -14.2 0.7 -14.35 0.7 -14.45 0.85 -14.5 L0.4 -14.55 0.05 -14.6 M1.9 -14.15 Q1.85 -14.1 1.7 -14.0 L1.4 -13.95 1.45 -13.9 1.4 -13.8 1.1 -13.75 Q1.05 -13.8 1.05 -13.9 L1.1 -14.0 1.05 -14.1 Q1.05 -14.25 1.35 -14.3 L1.9 -14.3 1.9 -14.15 M7.25 -10.8 Q7.55 -10.2 7.75 -9.65 8.3 -8.8 8.3 -8.5 8.3 -8.35 7.75 -7.45 L7.7 -7.3 Q7.3 -6.75 6.8 -5.95 L6.3 -5.1 Q5.7 -4.85 5.3 -4.6 L5.25 -4.65 Q4.35 -5.15 3.7 -5.25 L3.55 -5.6 3.05 -7.1 2.95 -7.2 Q2.8 -7.8 2.4 -8.25 2.3 -8.35 1.85 -9.05 1.45 -9.8 1.05 -10.25 -0.25 -11.8 -2.2 -11.95 -3.2 -12.0 -5.1 -11.2 L-5.05 -11.05 Q-5.05 -10.9 -5.15 -10.8 -5.25 -10.75 -5.4 -10.75 L-5.5 -10.75 -5.9 -11.15 Q-6.25 -11.7 -6.65 -12.15 -6.3 -12.6 -6.0 -12.85 L-5.3 -13.4 -4.4 -13.8 Q-3.45 -14.5 -2.45 -14.6 L-2.2 -14.7 Q-1.75 -14.85 -1.2 -14.95 0.25 -15.2 1.8 -14.9 3.35 -14.5 4.35 -14.1 L5.25 -13.35 5.35 -13.2 Q5.75 -12.85 6.05 -12.35 6.65 -11.95 7.25 -10.8 M6.0 -10.4 L6.05 -10.25 6.0 -10.25 Q6.0 -10.3 6.0 -10.4 M6.35 -9.2 L6.4 -9.05 6.35 -9.0 6.35 -9.2 M4.45 -13.05 Q4.4 -13.0 4.3 -13.0 L4.15 -13.05 Q4.15 -13.1 4.15 -13.25 L4.3 -13.3 4.5 -13.25 4.5 -13.15 4.45 -13.05 M3.75 -12.75 L4.05 -12.75 4.1 -12.65 4.15 -12.6 Q4.15 -12.55 4.05 -12.55 L3.75 -12.5 Q3.75 -12.55 3.75 -12.65 3.75 -12.8 3.75 -12.75 M4.05 -11.6 L4.2 -11.6 Q4.35 -11.6 4.35 -11.45 L4.25 -11.35 4.05 -11.4 4.0 -11.4 4.0 -11.5 Q4.0 -11.7 4.05 -11.6 M5.0 -12.0 L5.0 -12.1 Q5.1 -12.1 5.15 -12.05 L5.2 -11.95 5.1 -11.9 5.0 -12.0 M2.8 -14.0 L2.7 -13.9 Q2.6 -13.85 2.55 -13.85 L2.5 -13.85 2.45 -13.95 Q2.55 -14.15 2.65 -14.15 2.75 -14.1 2.8 -14.0 M2.35 -13.5 L2.3 -13.5 2.2 -13.55 Q2.2 -13.7 2.35 -13.75 L2.5 -13.65 Q2.45 -13.55 2.35 -13.5 M2.15 -13.35 L2.15 -13.3 2.2 -13.2 Q2.2 -13.1 2.05 -13.0 L1.95 -12.95 1.85 -13.0 Q1.8 -13.0 1.8 -13.15 1.8 -13.2 1.85 -13.3 2.0 -13.4 2.15 -13.35 M2.75 -12.95 L2.75 -12.8 Q2.7 -12.8 2.65 -12.75 2.45 -12.8 2.45 -12.9 L2.45 -13.1 2.55 -13.1 2.65 -13.05 2.75 -13.05 2.75 -12.95 M2.75 -12.4 L2.85 -12.35 2.9 -12.25 2.75 -12.15 2.65 -12.15 2.65 -12.25 Q2.65 -12.45 2.65 -12.4 L2.75 -12.4 M4.6 -8.95 L4.75 -8.8 4.7 -8.7 Q4.7 -8.65 4.6 -8.65 L4.5 -8.65 Q4.45 -8.7 4.45 -8.8 4.45 -8.95 4.5 -8.95 L4.6 -8.95 M5.35 -9.2 L5.3 -9.25 5.3 -9.35 5.45 -9.45 Q5.5 -9.45 5.55 -9.3 5.5 -9.2 5.45 -9.2 L5.35 -9.2 M4.0 -10.4 Q4.35 -10.4 4.35 -10.15 4.35 -10.05 4.3 -10.0 L4.25 -10.0 4.0 -10.25 4.0 -10.4 M-1.55 -12.65 Q-2.6 -13.45 -3.55 -13.45 L-3.85 -13.45 -4.05 -13.3 Q-5.05 -12.65 -5.5 -12.05 L-5.6 -11.9 -5.4 -11.7 -4.65 -12.05 -4.35 -12.15 Q-3.5 -12.7 -2.45 -12.6 -1.95 -12.55 -1.1 -12.15 L-1.55 -12.65 M-0.75 -11.95 L-0.55 -11.85 0.2 -11.4 -0.5 -12.25 Q-1.5 -13.3 -2.45 -14.05 -3.0 -13.9 -3.5 -13.6 -2.7 -13.6 -1.85 -13.05 -1.3 -12.7 -0.9 -12.2 L-0.75 -11.95" fill="#1d1d1d" fill-rule="evenodd" stroke="none"/>
    <path d="M1.9 -14.15 L1.9 -14.3 1.35 -14.3 Q1.05 -14.25 1.05 -14.1 L1.1 -14.0 1.05 -13.9 Q1.05 -13.8 1.1 -13.75 L1.4 -13.8 1.45 -13.9 1.4 -13.95 1.7 -14.0 Q1.85 -14.1 1.9 -14.15 M0.05 -14.6 L0.4 -14.55 0.85 -14.5 Q0.7 -14.45 0.7 -14.35 0.7 -14.2 0.75 -14.2 L0.85 -14.15 Q0.95 -14.2 1.25 -14.4 L1.2 -14.5 Q2.2 -14.35 3.0 -14.15 L3.65 -13.85 3.25 -13.85 Q3.2 -13.9 3.2 -13.7 3.2 -13.6 3.25 -13.6 L3.3 -13.6 3.3 -13.55 3.45 -13.55 Q3.65 -13.55 3.7 -13.7 L3.65 -13.85 Q4.05 -13.65 4.3 -13.45 4.75 -13.2 5.2 -12.75 L5.3 -12.55 5.55 -12.4 Q7.0 -10.35 7.55 -9.3 7.75 -8.85 7.75 -8.55 L7.75 -8.45 Q7.45 -8.6 6.7 -8.55 5.7 -8.5 5.2 -8.3 L6.75 -8.25 7.55 -8.0 7.4 -7.7 6.6 -6.4 6.05 -5.45 5.6 -5.45 5.7 -6.6 Q5.75 -7.55 6.2 -8.2 6.0 -8.1 5.65 -6.9 5.4 -6.0 5.35 -5.5 L5.15 -6.35 Q5.15 -6.65 5.4 -7.85 L5.4 -7.95 5.3 -7.95 Q5.25 -7.45 5.0 -6.6 4.8 -5.95 4.8 -5.35 L4.2 -5.5 4.2 -5.65 4.25 -6.25 4.25 -6.85 4.4 -7.45 4.55 -7.9 4.6 -7.95 4.55 -8.0 4.6 -8.2 Q4.6 -8.45 4.25 -8.85 L4.15 -9.0 4.05 -9.3 Q3.9 -9.65 3.65 -9.9 3.55 -10.5 2.7 -11.5 1.95 -12.5 1.1 -13.2 L1.05 -13.15 Q2.05 -12.3 2.6 -11.1 3.1 -10.05 3.45 -9.45 L3.45 -9.4 Q3.9 -8.25 3.9 -8.0 L3.8 -7.85 3.85 -7.5 Q4.05 -6.45 4.05 -6.2 L4.0 -5.85 4.0 -5.6 3.6 -6.65 3.2 -8.45 Q2.65 -10.45 1.6 -11.9 L1.55 -11.9 Q2.05 -11.15 2.35 -10.15 2.5 -9.65 2.7 -8.4 L2.6 -8.7 Q2.0 -10.1 1.0 -10.85 L0.9 -10.95 Q0.45 -11.7 -0.25 -12.4 -1.15 -13.35 -2.3 -14.1 -1.6 -14.3 -0.95 -14.25 -0.65 -14.2 -0.15 -14.05 0.4 -13.85 0.75 -13.6 L0.75 -13.65 Q-0.1 -14.25 -0.9 -14.5 L-0.3 -14.55 -0.35 -14.45 -0.35 -14.35 -0.25 -14.3 Q-0.3 -14.3 -0.15 -14.3 -0.05 -14.3 0.1 -14.35 L0.2 -14.45 0.05 -14.6 M0.25 -14.3 L0.4 -14.15 Q0.4 -14.1 0.55 -14.1 L0.65 -14.25 0.6 -14.4 Q0.4 -14.45 0.35 -14.4 L0.25 -14.3 M-0.75 -11.95 L-0.9 -12.2 Q-1.3 -12.7 -1.85 -13.05 -2.7 -13.6 -3.5 -13.6 -3.0 -13.9 -2.45 -14.05 -1.5 -13.3 -0.5 -12.25 L0.2 -11.4 -0.55 -11.85 -0.75 -11.95 M-1.55 -12.65 L-1.1 -12.15 Q-1.95 -12.55 -2.45 -12.6 -3.5 -12.7 -4.35 -12.15 L-4.65 -12.05 -5.4 -11.7 -5.6 -11.9 -5.5 -12.05 Q-5.05 -12.65 -4.05 -13.3 L-3.85 -13.45 -3.55 -13.45 Q-2.6 -13.45 -1.55 -12.65 M4.0 -10.4 L4.0 -10.25 4.25 -10.0 4.3 -10.0 Q4.35 -10.05 4.35 -10.15 4.35 -10.4 4.0 -10.4 M5.35 -9.2 L5.45 -9.2 Q5.5 -9.2 5.55 -9.3 5.5 -9.45 5.45 -9.45 L5.3 -9.35 5.3 -9.25 5.35 -9.2 M4.6 -8.95 L4.5 -8.95 Q4.45 -8.95 4.45 -8.8 4.45 -8.7 4.5 -8.65 L4.6 -8.65 Q4.7 -8.65 4.7 -8.7 L4.75 -8.8 4.6 -8.95 M2.75 -12.4 L2.65 -12.4 Q2.65 -12.45 2.65 -12.25 L2.65 -12.15 2.75 -12.15 2.9 -12.25 2.85 -12.35 2.75 -12.4 M2.75 -12.95 L2.75 -13.05 2.65 -13.05 2.55 -13.1 2.45 -13.1 2.45 -12.9 Q2.45 -12.8 2.65 -12.75 2.7 -12.8 2.75 -12.8 L2.75 -12.95 M2.15 -13.35 Q2.0 -13.4 1.85 -13.3 1.8 -13.2 1.8 -13.15 1.8 -13.0 1.85 -13.0 L1.95 -12.95 2.05 -13.0 Q2.2 -13.1 2.2 -13.2 L2.15 -13.3 2.15 -13.35 M2.35 -13.5 Q2.45 -13.55 2.5 -13.65 L2.35 -13.75 Q2.2 -13.7 2.2 -13.55 L2.3 -13.5 2.35 -13.5 M2.8 -14.0 Q2.75 -14.1 2.65 -14.15 2.55 -14.15 2.45 -13.95 L2.5 -13.85 2.55 -13.85 Q2.6 -13.85 2.7 -13.9 L2.8 -14.0 M5.0 -12.0 L5.1 -11.9 5.2 -11.95 5.15 -12.05 Q5.1 -12.1 5.0 -12.1 L5.0 -12.0 M4.05 -11.6 Q4.0 -11.7 4.0 -11.5 L4.0 -11.4 4.05 -11.4 4.25 -11.35 4.35 -11.45 Q4.35 -11.6 4.2 -11.6 L4.05 -11.6 M3.75 -12.75 Q3.75 -12.8 3.75 -12.65 3.75 -12.55 3.75 -12.5 L4.05 -12.55 Q4.15 -12.55 4.15 -12.6 L4.1 -12.65 4.05 -12.75 3.75 -12.75 M4.45 -13.05 L4.5 -13.15 4.5 -13.25 4.3 -13.3 4.15 -13.25 Q4.15 -13.1 4.15 -13.05 L4.3 -13.0 Q4.4 -13.0 4.45 -13.05 M6.35 -9.2 L6.35 -9.0 6.4 -9.05 6.35 -9.2 M6.0 -10.4 Q6.0 -10.3 6.0 -10.25 L6.05 -10.25 6.0 -10.4" fill="#003366" fill-rule="evenodd" stroke="none"/>
  </g>
</svg>
