<?xml version="1.0" encoding="UTF-8" standalone="no"?>
<svg xmlns:ffdec="https://www.free-decompiler.com/flash" xmlns:xlink="http://www.w3.org/1999/xlink" ffdec:objectType="shape" height="21.45px" width="25.65px" xmlns="http://www.w3.org/2000/svg">
  <g transform="matrix(1.0, 0.0, 0.0, 1.0, 9.3, 14.6)">
    <path d="M9.2 0.95 L9.2 1.4 Q9.2 2.05 9.2 3.3 9.2 4.4 9.05 5.25 L8.95 3.8 8.9 2.85 Q8.9 2.4 9.0 2.1 9.15 1.75 9.2 0.95 M9.45 -1.45 L9.4 -1.55 9.45 -1.55 Q9.5 -1.2 9.65 -0.65 9.95 0.35 9.95 1.7 L9.9 1.9 9.85 2.05 9.8 2.05 9.6 0.85 Q9.55 0.35 9.4 0.05 L9.4 -0.05 Q9.55 -0.45 9.55 -0.6 9.55 -0.9 9.45 -1.45 M11.25 -9.25 L10.7 -8.7 9.4 -8.05 Q9.8 -8.35 10.3 -8.8 L11.95 -10.3 12.3 -10.6 12.15 -10.35 11.25 -9.25 M7.4 -13.85 Q5.6 -12.35 3.6 -11.35 L3.7 -11.35 3.4 -11.2 3.65 -11.2 Q4.85 -11.65 7.2 -12.9 9.5 -13.9 11.7 -13.9 13.4 -13.9 14.8 -13.2 L15.7 -12.7 Q13.35 -12.25 11.5 -10.6 10.8 -10.0 9.85 -8.9 L8.8 -7.7 8.25 -7.4 8.6 -7.55 8.55 -7.5 8.8 -7.6 12.35 -9.05 Q14.25 -9.85 15.2 -10.4 14.4 -9.55 13.8 -9.15 13.3 -8.8 12.45 -8.4 L11.0 -7.7 Q9.3 -6.85 9.3 -6.25 L9.35 -6.15 Q9.65 -6.35 11.35 -7.3 L12.7 -7.1 Q12.1 -6.9 11.45 -6.4 10.9 -5.95 10.45 -5.4 L10.4 -5.35 Q10.15 -5.05 9.9 -4.55 9.7 -4.2 9.55 -3.85 9.4 -4.25 8.85 -4.85 L8.5 -5.3 8.35 -5.3 8.2 -5.5 Q7.9 -5.8 7.75 -5.8 L6.7 -6.75 6.7 -6.7 Q6.95 -6.5 7.55 -5.55 8.2 -4.55 8.2 -4.3 L8.15 -4.05 Q7.95 -4.55 7.65 -4.95 6.35 -6.55 3.6 -7.0 6.05 -6.3 7.25 -4.85 7.9 -4.05 8.1 -3.15 L8.1 -3.1 8.0 -2.2 Q7.6 -2.65 6.7 -3.05 L6.65 -3.15 6.1 -3.3 4.9 -3.7 Q3.95 -4.05 2.9 -4.55 0.8 -5.6 -0.2 -6.45 L-0.25 -6.45 Q1.15 -5.35 1.95 -4.8 3.35 -3.85 4.95 -3.3 L4.55 -3.3 Q2.1 -4.0 0.0 -4.9 L-2.3 -5.9 Q-3.75 -7.15 -5.0 -7.2 L-5.05 -7.1 Q-3.7 -6.65 -2.7 -5.75 -2.2 -5.3 -1.5 -4.3 -2.0 -4.7 -3.25 -5.15 L-4.25 -5.5 Q-4.9 -6.15 -6.0 -6.55 L-6.05 -6.5 Q-4.15 -5.0 -3.5 -2.65 L-3.05 -0.75 Q-2.8 0.4 -2.45 1.15 -3.0 0.55 -3.45 -0.35 L-4.2 -1.8 Q-4.45 -2.25 -4.75 -3.25 L-4.95 -3.85 -5.2 -4.85 -5.25 -4.85 -5.25 -4.15 Q-5.2 -2.8 -4.85 -1.9 -4.5 -0.8 -4.5 0.7 -4.5 2.65 -4.55 3.25 -4.65 3.8 -5.35 6.2 -5.2 5.4 -5.1 4.5 -5.05 3.7 -5.05 2.5 -5.05 0.9 -5.6 -1.15 -5.95 -2.6 -6.75 -4.8 L-6.8 -4.8 -6.65 -4.3 Q-6.6 -4.1 -6.6 -3.8 -6.6 -3.5 -6.45 -2.8 L-6.05 -1.25 Q-5.55 0.9 -5.5 2.95 L-5.8 1.9 Q-6.35 0.2 -6.45 -0.25 L-6.6 -1.05 -6.75 -1.65 -6.9 -1.9 -7.1 -2.5 Q-7.25 -2.85 -7.45 -3.05 L-7.35 -3.05 Q-7.55 -3.3 -7.85 -3.5 L-8.25 -3.75 -8.3 -3.75 Q-8.35 -4.05 -8.45 -4.7 L-8.6 -5.8 -8.15 -5.4 Q-8.05 -5.3 -7.85 -5.3 -7.75 -5.3 -7.7 -5.35 -7.8 -6.1 -7.95 -6.45 -8.05 -6.65 -8.05 -7.1 -8.05 -7.45 -7.9 -7.9 L-7.75 -7.4 Q-7.6 -6.85 -7.5 -6.75 -7.45 -6.8 -7.4 -6.8 L-7.35 -6.85 Q-7.35 -8.4 -6.55 -9.85 -5.8 -11.15 -4.45 -12.2 -4.7 -11.85 -4.95 -11.25 L-5.2 -10.65 Q-5.2 -10.55 -5.1 -10.55 L-5.05 -10.55 Q-4.2 -11.45 -2.9 -12.25 -0.7 -13.6 1.35 -13.6 2.6 -13.6 3.5 -13.35 L3.65 -13.3 3.45 -13.3 Q1.05 -13.2 -0.35 -12.55 -0.9 -12.35 -1.4 -12.0 L-2.3 -11.4 Q-1.5 -11.85 -0.4 -12.2 0.8 -12.55 2.25 -12.65 L2.8 -12.7 3.0 -12.75 Q3.95 -12.8 5.05 -13.1 5.5 -13.2 6.2 -13.45 L6.2 -13.45 Q6.75 -13.6 7.4 -13.85 M-7.6 3.0 L-7.9 2.05 -7.95 2.0 -7.65 2.25 Q-7.35 2.45 -7.15 2.45 L-7.3 3.95 -7.6 3.0" fill="#003366" fill-rule="evenodd" stroke="none"/>
    <path d="M8.25 -14.55 L8.25 -14.4 Q8.25 -14.0 6.05 -12.65 L4.75 -11.9 6.55 -12.9 Q8.7 -14.0 10.85 -14.3 12.9 -14.4 14.65 -13.85 15.95 -13.4 16.2 -12.95 L16.2 -12.9 16.35 -12.6 Q16.05 -12.45 15.6 -12.35 14.85 -12.2 14.4 -12.0 13.85 -11.75 13.45 -11.4 13.15 -11.05 12.65 -10.3 12.25 -9.65 11.9 -9.3 L12.25 -9.5 Q14.75 -10.7 15.65 -11.2 L16.15 -11.4 16.1 -11.15 15.7 -10.35 14.5 -9.15 13.15 -8.3 11.95 -7.65 12.7 -7.7 13.7 -7.5 Q14.25 -7.35 14.4 -7.15 L14.8 -6.85 14.7 -6.9 14.2 -6.9 Q11.9 -6.75 10.6 -4.65 10.15 -3.95 9.85 -3.05 L9.8 -2.85 9.75 -2.35 Q9.75 -2.05 10.0 -1.25 10.25 -0.45 10.25 0.25 10.25 0.65 10.1 1.5 9.95 2.5 9.9 2.95 L9.85 3.0 9.7 3.05 9.7 3.3 Q9.7 3.85 9.5 5.15 9.25 6.85 8.95 6.85 8.75 6.85 8.55 4.8 8.45 3.8 8.4 2.75 8.4 2.5 8.75 0.45 9.05 -1.4 9.25 -2.2 L9.2 -2.35 9.2 -3.2 Q9.15 -3.9 8.9 -4.25 8.8 -4.3 8.75 -4.4 L8.65 -4.45 8.7 -4.3 8.7 -3.4 8.65 -2.45 Q8.6 -2.25 8.5 -2.1 L8.5 -1.85 8.35 -1.3 Q8.45 -1.25 8.25 -1.25 L7.5 -1.95 Q6.75 -2.65 6.5 -2.75 L6.4 -2.8 6.3 -2.8 Q4.45 -2.8 3.0 -3.25 2.0 -3.5 0.1 -4.45 L-1.6 -5.25 Q-1.1 -4.75 -0.75 -4.2 -0.3 -3.55 -0.3 -3.2 L-0.3 -3.0 -0.35 -2.95 Q-0.45 -2.95 -0.55 -2.95 -0.7 -2.95 -1.5 -3.6 -2.3 -4.35 -2.5 -4.4 L-3.95 -5.15 -3.7 -4.65 Q-3.5 -4.25 -3.3 -3.55 -3.05 -2.8 -2.95 -2.5 -2.8 -2.3 -2.35 -0.6 -1.9 1.2 -1.9 1.6 L-1.9 1.8 -1.95 1.85 -2.05 1.9 Q-2.65 1.9 -3.4 0.65 -3.9 -0.2 -4.35 -1.35 L-4.4 -1.5 -4.2 -0.6 Q-4.05 0.15 -4.05 2.25 -4.05 3.3 -4.4 4.5 -4.8 5.85 -5.35 6.35 L-5.4 6.45 Q-5.65 5.95 -5.6 5.0 L-5.55 4.75 Q-6.1 2.05 -6.5 0.7 -7.15 -1.45 -8.4 -3.1 L-8.65 -3.1 Q-9.0 -3.1 -8.95 -3.75 L-8.8 -4.75 Q-8.85 -5.0 -9.05 -5.65 L-9.3 -6.35 -9.25 -6.5 -9.2 -6.55 -9.05 -6.55 Q-8.95 -6.55 -8.6 -6.3 L-8.25 -6.05 -8.35 -6.6 -8.35 -7.95 Q-8.25 -8.35 -7.8 -8.8 L-7.75 -8.75 Q-7.7 -8.75 -7.7 -8.65 L-7.7 -8.55 -7.65 -8.45 -7.6 -8.1 Q-7.3 -9.55 -6.55 -10.65 -6.2 -11.15 -5.75 -11.6 L-5.8 -11.55 Q-5.55 -11.9 -4.75 -12.45 -3.8 -13.05 -3.35 -13.05 -3.2 -13.05 -3.15 -12.95 -3.15 -12.9 -3.15 -12.8 L-3.15 -12.7 Q-1.75 -13.6 0.4 -13.85 1.75 -14.05 2.85 -13.85 3.6 -13.7 4.05 -13.4 L4.65 -13.55 6.85 -14.05 8.2 -14.6 8.25 -14.55 M7.4 -13.85 Q6.75 -13.6 6.2 -13.45 L6.2 -13.45 Q5.5 -13.2 5.05 -13.1 3.95 -12.8 3.0 -12.75 L2.8 -12.7 2.25 -12.65 Q0.8 -12.55 -0.4 -12.2 -1.5 -11.85 -2.3 -11.4 L-1.4 -12.0 Q-0.9 -12.35 -0.35 -12.55 1.05 -13.2 3.45 -13.3 L3.65 -13.3 3.5 -13.35 Q2.6 -13.6 1.35 -13.6 -0.7 -13.6 -2.9 -12.25 -4.2 -11.45 -5.05 -10.55 L-5.1 -10.55 Q-5.2 -10.55 -5.2 -10.65 L-4.95 -11.25 Q-4.7 -11.85 -4.45 -12.2 -5.8 -11.15 -6.55 -9.85 -7.35 -8.4 -7.35 -6.85 L-7.4 -6.8 Q-7.45 -6.8 -7.5 -6.75 -7.6 -6.85 -7.75 -7.4 L-7.9 -7.9 Q-8.05 -7.45 -8.05 -7.1 -8.05 -6.65 -7.95 -6.45 -7.8 -6.1 -7.7 -5.35 -7.75 -5.3 -7.85 -5.3 -8.05 -5.3 -8.15 -5.4 L-8.6 -5.8 -8.45 -4.7 Q-8.35 -4.05 -8.3 -3.75 L-8.25 -3.75 -7.85 -3.5 Q-7.55 -3.3 -7.35 -3.05 L-7.45 -3.05 Q-7.25 -2.85 -7.1 -2.5 L-6.9 -1.9 -6.75 -1.65 -6.6 -1.05 -6.45 -0.25 Q-6.35 0.2 -5.8 1.9 L-5.5 2.95 Q-5.55 0.9 -6.05 -1.25 L-6.45 -2.8 Q-6.6 -3.5 -6.6 -3.8 -6.6 -4.1 -6.65 -4.3 L-6.8 -4.8 -6.75 -4.8 Q-5.95 -2.6 -5.6 -1.15 -5.05 0.9 -5.05 2.5 -5.05 3.7 -5.1 4.5 -5.2 5.4 -5.35 6.2 -4.65 3.8 -4.55 3.25 -4.5 2.65 -4.5 0.7 -4.5 -0.8 -4.85 -1.9 -5.2 -2.8 -5.25 -4.15 L-5.25 -4.85 -5.2 -4.85 -4.95 -3.85 -4.75 -3.25 Q-4.45 -2.25 -4.2 -1.8 L-3.45 -0.35 Q-3.0 0.55 -2.45 1.15 -2.8 0.4 -3.05 -0.75 L-3.5 -2.65 Q-4.15 -5.0 -6.05 -6.5 L-6.0 -6.55 Q-4.9 -6.15 -4.25 -5.5 L-3.25 -5.15 Q-2.0 -4.7 -1.5 -4.3 -2.2 -5.3 -2.7 -5.75 -3.7 -6.65 -5.05 -7.1 L-5.0 -7.2 Q-3.75 -7.15 -2.3 -5.9 L0.0 -4.9 Q2.1 -4.0 4.55 -3.3 L4.95 -3.3 Q3.35 -3.85 1.95 -4.8 1.15 -5.35 -0.25 -6.45 L-0.2 -6.45 Q0.8 -5.6 2.9 -4.55 3.95 -4.05 4.9 -3.7 L6.1 -3.3 6.65 -3.15 6.7 -3.05 Q7.6 -2.65 8.0 -2.2 L8.1 -3.1 8.1 -3.15 Q7.9 -4.05 7.25 -4.85 6.05 -6.3 3.6 -7.0 6.35 -6.55 7.65 -4.95 7.95 -4.55 8.15 -4.05 L8.2 -4.3 Q8.2 -4.55 7.55 -5.55 6.95 -6.5 6.7 -6.7 L6.7 -6.75 7.75 -5.8 Q7.9 -5.8 8.2 -5.5 L8.35 -5.3 8.5 -5.3 8.85 -4.85 Q9.4 -4.25 9.55 -3.85 9.7 -4.2 9.9 -4.55 10.15 -5.05 10.4 -5.35 L10.45 -5.4 Q10.9 -5.95 11.45 -6.4 12.1 -6.9 12.7 -7.1 L11.35 -7.3 Q9.65 -6.35 9.35 -6.15 L9.3 -6.25 Q9.3 -6.85 11.0 -7.7 L12.45 -8.4 Q13.3 -8.8 13.8 -9.15 14.4 -9.55 15.2 -10.4 14.25 -9.85 12.35 -9.05 L8.8 -7.6 8.55 -7.5 8.6 -7.55 8.25 -7.4 8.8 -7.7 9.85 -8.9 Q10.8 -10.0 11.5 -10.6 13.35 -12.25 15.7 -12.7 L14.8 -13.2 Q13.4 -13.9 11.7 -13.9 9.5 -13.9 7.2 -12.9 4.85 -11.65 3.65 -11.2 L3.4 -11.2 3.7 -11.35 3.6 -11.35 Q5.6 -12.35 7.4 -13.85 M11.25 -9.25 L12.15 -10.35 12.3 -10.6 11.95 -10.3 10.3 -8.8 Q9.8 -8.35 9.4 -8.05 L10.7 -8.7 11.25 -9.25 M9.45 -1.45 Q9.55 -0.9 9.55 -0.6 9.55 -0.45 9.4 -0.05 L9.4 0.05 Q9.55 0.35 9.6 0.85 L9.8 2.05 9.85 2.05 9.9 1.9 9.95 1.7 Q9.95 0.35 9.65 -0.65 9.5 -1.2 9.45 -1.55 L9.4 -1.55 9.45 -1.45 M9.2 0.95 Q9.15 1.75 9.0 2.1 8.9 2.4 8.9 2.85 L8.95 3.8 9.05 5.25 Q9.2 4.4 9.2 3.3 9.2 2.05 9.2 1.4 L9.2 0.95 M-7.95 1.25 Q-7.25 2.1 -6.7 1.95 -6.5 2.1 -6.5 2.15 -6.5 2.25 -6.85 3.75 L-7.2 5.2 Q-7.35 5.2 -7.9 3.4 L-8.4 1.6 Q-8.4 1.05 -8.3 1.0 -8.2 1.0 -7.95 1.25 M-7.6 3.0 L-7.3 3.95 -7.15 2.45 Q-7.35 2.45 -7.65 2.25 L-7.95 2.0 -7.9 2.05 -7.6 3.0" fill="#111111" fill-rule="evenodd" stroke="none"/>
  </g>
</svg>
