<?xml version="1.0" encoding="UTF-8" standalone="no"?>
<svg xmlns:ffdec="https://www.free-decompiler.com/flash" xmlns:xlink="http://www.w3.org/1999/xlink" ffdec:objectType="shape" height="21.55px" width="24.5px" xmlns="http://www.w3.org/2000/svg">
  <g transform="matrix(1.0, 0.0, 0.0, 1.0, 13.95, 16.55)">
    <path d="M3.05 -15.1 Q5.8 -13.1 7.35 -10.75 7.75 -10.1 8.1 -9.4 L8.2 -8.7 8.35 -8.95 8.4 -9.3 Q8.4 -9.7 8.15 -12.05 8.6 -11.4 8.7 -10.45 L8.75 -9.5 Q8.5 -8.9 8.25 -8.2 L8.0 -7.5 7.45 -5.9 7.5 -6.6 7.45 -7.5 7.4 -8.05 6.9 -10.05 Q6.5 -11.4 5.6 -12.55 4.7 -13.75 4.7 -13.05 4.75 -13.2 5.3 -11.45 5.85 -9.65 5.85 -8.9 5.85 -8.25 5.7 -7.5 5.6 -6.85 5.4 -6.15 5.1 -5.2 5.0 -4.75 4.85 -5.4 4.55 -5.9 4.25 -6.45 3.4 -7.4 L3.3 -7.5 Q2.45 -8.5 2.05 -9.25 1.35 -10.5 1.05 -12.3 0.85 -12.1 0.8 -11.45 L0.8 -10.45 Q0.8 -9.4 1.1 -8.65 1.25 -8.2 1.6 -7.7 1.0 -8.45 0.45 -8.95 -1.3 -10.4 -3.45 -10.4 -3.45 -10.35 -3.35 -10.35 L-3.25 -10.3 Q-2.5 -10.05 -1.2 -9.4 0.15 -8.7 0.45 -8.45 L1.25 -7.5 1.4 -7.35 Q2.1 -6.55 2.2 -6.55 2.35 -6.55 2.35 -6.6 L2.4 -6.7 1.95 -7.25 2.35 -6.85 Q2.1 -7.2 1.9 -7.5 0.95 -9.15 1.05 -10.8 1.1 -9.9 2.0 -8.55 L2.75 -7.5 3.7 -6.5 Q4.5 -5.6 4.65 -4.35 L4.75 -3.35 Q4.75 -3.05 4.8 -2.8 4.45 -3.25 3.5 -3.7 2.1 -4.4 1.1 -4.45 -0.95 -4.45 -2.55 -5.2 -2.95 -5.4 -3.7 -5.8 L-4.35 -6.15 -4.4 -6.25 -4.45 -6.2 -4.7 -6.3 -4.7 -6.25 Q-4.55 -5.95 -4.25 -5.65 L-3.9 -4.9 Q-3.45 -3.95 -3.45 -3.5 L-3.5 -3.15 -3.55 -2.85 Q-3.75 -3.0 -4.35 -3.85 -4.85 -4.55 -5.0 -4.6 L-5.05 -4.75 -5.1 -4.6 -5.1 -4.55 -5.15 -4.4 -5.15 -4.3 -5.2 -3.9 -5.1 -3.1 -5.0 -2.25 Q-5.0 -2.05 -5.15 -1.4 -5.35 -0.75 -5.4 -0.65 -5.55 -1.4 -5.85 -2.0 -6.35 -2.95 -7.1 -3.05 L-7.3 -3.25 -7.45 -3.35 Q-7.65 -3.45 -8.95 -4.15 -10.8 -5.05 -10.9 -6.0 L-10.85 -6.0 -8.85 -4.6 Q-8.7 -4.6 -8.65 -4.65 L-8.65 -4.85 Q-8.65 -5.1 -9.15 -5.65 L-10.3 -6.7 -10.75 -7.2 Q-11.95 -8.55 -11.95 -9.5 -11.95 -9.75 -11.9 -9.85 -11.1 -8.8 -8.45 -7.5 L-8.25 -7.4 -8.1 -7.35 Q-7.65 -7.1 -7.3 -6.95 L-7.1 -6.9 -7.05 -6.9 -6.65 -6.65 -7.75 -7.65 Q-8.55 -8.15 -9.25 -8.8 -9.55 -9.2 -10.55 -10.2 L-10.65 -10.3 -11.1 -10.8 -12.0 -11.85 -12.2 -11.95 -12.25 -12.05 -12.1 -12.0 -12.25 -12.15 -12.2 -12.2 -11.4 -11.7 -11.35 -11.7 Q-10.8 -11.4 -10.6 -11.45 L-10.4 -11.5 -10.35 -11.5 -10.3 -11.7 -11.0 -12.55 Q-11.75 -13.45 -11.95 -14.15 -11.25 -13.75 -10.7 -13.6 -9.8 -13.3 -8.2 -13.45 L-7.3 -13.6 -7.1 -13.6 -5.8 -13.75 -3.7 -13.95 Q-2.55 -13.95 -1.35 -13.15 L-0.9 -12.75 -0.6 -12.5 -0.55 -12.5 -0.2 -12.25 -0.3 -12.4 -0.5 -12.75 Q-0.5 -12.9 -1.5 -14.0 -2.6 -15.15 -3.0 -15.35 L-2.55 -15.35 Q-0.05 -14.9 1.8 -13.25 2.5 -12.65 3.0 -11.95 L3.8 -10.65 3.9 -10.4 3.9 -10.45 4.0 -10.25 Q4.8 -8.85 4.95 -7.9 L4.95 -7.95 Q5.15 -9.1 4.35 -10.5 4.1 -11.0 3.75 -11.45 3.15 -13.05 3.05 -15.1 M-4.85 -9.75 L-4.7 -9.75 Q-3.1 -9.2 -2.05 -8.35 -1.6 -7.95 -1.3 -7.5 -1.05 -7.25 -0.9 -6.95 L-0.85 -7.0 -0.85 -7.15 Q-0.85 -7.3 -0.95 -7.5 L-1.35 -8.0 Q-1.85 -8.65 -2.55 -9.2 -4.5 -10.65 -5.95 -10.15 L-5.95 -10.05 Q-5.1 -9.65 -4.4 -8.9 L-3.85 -8.25 Q-4.6 -8.75 -5.5 -9.25 -6.5 -9.9 -7.1 -10.35 L-7.3 -10.5 -7.8 -10.8 Q-8.05 -10.95 -8.7 -11.55 -9.15 -11.9 -9.15 -11.3 -9.15 -10.35 -7.95 -8.85 L-7.35 -8.1 -6.75 -7.65 -6.85 -7.8 Q-7.2 -8.35 -7.7 -9.35 -8.3 -10.15 -8.5 -10.8 L-8.45 -10.85 Q-8.05 -10.55 -7.3 -10.15 L-7.1 -10.0 Q-6.25 -9.35 -4.9 -8.4 L-3.6 -7.5 Q-2.25 -6.65 -1.85 -6.2 -1.8 -6.25 -1.8 -6.3 L-1.8 -6.35 -2.1 -6.75 -2.85 -7.6 -3.5 -8.05 -4.05 -8.7 -4.85 -9.75 M9.75 -5.75 L9.85 -5.55 Q10.15 -4.8 10.15 -4.35 10.15 -3.8 9.7 -2.85 L9.7 -2.9 9.55 -3.8 Q9.45 -4.4 9.2 -4.65 L9.3 -4.75 Q9.35 -4.8 9.35 -4.9 9.6 -5.3 9.75 -5.75 M8.35 -7.5 L8.95 -9.0 9.1 -9.35 9.55 -10.35 9.55 -10.25 Q9.65 -9.75 9.65 -8.75 L9.6 -7.5 9.6 -7.15 Q9.5 -6.3 9.2 -5.55 8.95 -5.05 7.55 -3.9 L6.4 -3.0 6.5 -3.2 Q6.85 -3.7 7.1 -4.3 7.3 -4.8 7.4 -5.3 L8.3 -7.5 8.35 -7.5 M6.3 -9.0 Q6.3 -9.6 6.15 -10.2 L5.75 -11.55 Q6.5 -10.35 6.8 -9.05 7.0 -8.35 7.05 -7.5 L7.05 -6.7 Q7.05 -5.5 6.65 -4.4 6.35 -3.55 5.75 -2.65 5.65 -2.95 5.45 -3.35 5.1 -3.9 5.1 -4.0 L5.15 -4.05 5.15 -4.15 Q5.35 -4.9 5.9 -6.65 6.05 -7.05 6.15 -7.5 6.3 -8.25 6.3 -9.0 M-7.85 2.05 L-7.5 2.1 Q-7.35 2.2 -7.35 2.3 -7.35 3.0 -7.55 3.4 -7.55 3.15 -7.65 2.7 L-7.85 2.05" fill="#003366" fill-rule="evenodd" stroke="none"/>
    <path d="M3.05 -15.1 Q3.15 -13.05 3.75 -11.45 4.1 -11.0 4.35 -10.5 5.15 -9.1 4.95 -7.95 L4.95 -7.9 Q4.8 -8.85 4.0 -10.25 L3.9 -10.45 3.9 -10.4 3.8 -10.65 3.0 -11.95 Q2.5 -12.65 1.8 -13.25 -0.05 -14.9 -2.55 -15.35 L-3.0 -15.35 Q-2.6 -15.15 -1.5 -14.0 -0.5 -12.9 -0.5 -12.75 L-0.3 -12.4 -0.2 -12.25 -0.55 -12.5 -0.6 -12.5 -0.9 -12.75 -1.35 -13.15 Q-2.55 -13.95 -3.7 -13.95 L-5.8 -13.75 -7.1 -13.6 -7.3 -13.6 -8.2 -13.45 Q-9.8 -13.3 -10.7 -13.6 -11.25 -13.75 -11.95 -14.15 -11.75 -13.45 -11.0 -12.55 L-10.3 -11.7 -10.35 -11.5 -10.4 -11.5 -10.6 -11.45 Q-10.8 -11.4 -11.35 -11.7 L-11.4 -11.7 -12.2 -12.2 -12.25 -12.15 -12.1 -12.0 -12.25 -12.05 -12.2 -11.95 -12.0 -11.85 -11.1 -10.8 -10.65 -10.3 -10.55 -10.2 Q-9.55 -9.2 -9.25 -8.8 -8.55 -8.15 -7.75 -7.65 L-6.65 -6.65 -7.05 -6.9 -7.1 -6.9 -7.3 -6.95 Q-7.65 -7.1 -8.1 -7.35 L-8.25 -7.4 -8.45 -7.5 Q-11.1 -8.8 -11.9 -9.85 -11.95 -9.75 -11.95 -9.5 -11.95 -8.55 -10.75 -7.2 L-10.3 -6.7 -9.15 -5.65 Q-8.65 -5.1 -8.65 -4.85 L-8.65 -4.65 Q-8.7 -4.6 -8.85 -4.6 L-10.85 -6.0 -10.9 -6.0 Q-10.8 -5.05 -8.95 -4.15 -7.65 -3.45 -7.45 -3.35 L-7.3 -3.25 -7.1 -3.05 Q-6.35 -2.95 -5.85 -2.0 -5.55 -1.4 -5.4 -0.65 -5.35 -0.75 -5.15 -1.4 -5.0 -2.05 -5.0 -2.25 L-5.1 -3.1 -5.2 -3.9 -5.15 -4.3 -5.15 -4.4 -5.1 -4.55 -5.1 -4.6 -5.05 -4.75 -5.0 -4.6 Q-4.85 -4.55 -4.35 -3.85 -3.75 -3.0 -3.55 -2.85 L-3.5 -3.15 -3.45 -3.5 Q-3.45 -3.95 -3.9 -4.9 L-4.25 -5.65 Q-4.55 -5.95 -4.7 -6.25 L-4.7 -6.3 -4.45 -6.2 -4.4 -6.25 -4.35 -6.15 -3.7 -5.8 Q-2.95 -5.4 -2.55 -5.2 -0.95 -4.45 1.1 -4.45 2.1 -4.4 3.5 -3.7 4.45 -3.25 4.8 -2.8 4.75 -3.05 4.75 -3.35 L4.65 -4.35 Q4.5 -5.6 3.7 -6.5 L2.75 -7.5 2.0 -8.55 Q1.1 -9.9 1.05 -10.8 0.95 -9.15 1.9 -7.5 2.1 -7.2 2.35 -6.85 L1.95 -7.25 2.4 -6.7 2.35 -6.6 Q2.35 -6.55 2.2 -6.55 2.1 -6.55 1.4 -7.35 L1.25 -7.5 0.45 -8.45 Q0.15 -8.7 -1.2 -9.4 -2.5 -10.05 -3.25 -10.3 L-3.35 -10.35 Q-3.45 -10.35 -3.45 -10.4 -1.3 -10.4 0.45 -8.95 1.0 -8.45 1.6 -7.7 1.25 -8.2 1.1 -8.65 0.8 -9.4 0.8 -10.45 L0.8 -11.45 Q0.85 -12.1 1.05 -12.3 1.35 -10.5 2.05 -9.25 2.45 -8.5 3.3 -7.5 L3.4 -7.4 Q4.25 -6.45 4.55 -5.9 4.85 -5.4 5.0 -4.75 5.1 -5.2 5.4 -6.15 5.6 -6.85 5.7 -7.5 5.85 -8.25 5.85 -8.9 5.85 -9.65 5.3 -11.45 4.75 -13.2 4.7 -13.05 4.7 -13.75 5.6 -12.55 6.5 -11.4 6.9 -10.05 L7.4 -8.05 7.45 -7.5 7.5 -6.6 7.45 -5.9 8.0 -7.5 8.25 -8.2 Q8.5 -8.9 8.75 -9.5 L8.7 -10.45 Q8.6 -11.4 8.15 -12.05 8.4 -9.7 8.4 -9.3 L8.35 -8.95 8.2 -8.7 8.1 -9.4 Q7.75 -10.1 7.35 -10.75 5.8 -13.1 3.05 -15.1 M4.45 -14.4 L5.3 -13.65 5.6 -13.4 Q6.5 -12.6 6.95 -12.1 7.25 -11.75 7.8 -10.8 L8.0 -10.1 Q7.85 -11.0 7.8 -11.5 7.75 -12.25 7.15 -13.25 L6.6 -14.25 Q6.6 -14.55 7.0 -14.3 7.4 -14.0 7.85 -13.35 9.05 -11.75 9.1 -10.15 9.55 -10.9 10.05 -11.5 L10.1 -11.35 10.05 -9.0 10.0 -7.5 9.95 -6.65 9.95 -6.6 10.3 -5.7 Q10.55 -5.0 10.55 -4.35 10.55 -4.15 10.05 -2.45 9.5 -0.8 9.4 -0.8 L9.2 -0.8 9.15 -0.9 Q9.15 -0.95 9.15 -1.05 L9.2 -1.7 9.3 -2.3 Q9.3 -3.05 8.95 -3.8 L8.75 -4.25 Q8.35 -3.9 7.45 -3.35 L6.1 -2.45 6.0 -2.35 5.6 -1.85 5.55 -1.75 Q5.45 -2.05 5.35 -2.2 L5.15 -2.7 5.0 -3.1 4.95 -3.1 4.95 -2.45 4.9 -2.4 Q4.4 -3.0 3.3 -3.4 2.45 -3.65 0.25 -4.05 -1.85 -4.45 -2.8 -4.8 -3.3 -5.0 -3.7 -5.2 L-3.6 -5.05 Q-3.1 -4.2 -3.1 -3.8 -3.1 -3.55 -3.2 -2.95 -3.3 -2.25 -3.45 -2.25 -3.7 -2.25 -4.3 -3.1 L-4.7 -3.65 Q-4.55 -3.05 -4.55 -2.8 -4.55 -1.9 -4.85 -0.95 -5.1 -0.2 -5.5 0.45 -5.8 -0.05 -6.05 -1.2 -6.25 -1.8 -6.65 -2.3 L-6.7 -2.3 Q-6.85 -2.5 -7.1 -2.7 -7.8 -3.2 -8.5 -3.15 L-9.35 -3.2 -9.95 -3.75 Q-10.65 -4.35 -11.1 -5.05 -11.65 -5.85 -11.65 -6.5 L-11.6 -6.7 Q-11.35 -6.7 -11.1 -6.55 L-10.65 -6.25 Q-10.1 -5.9 -9.95 -5.85 L-9.9 -5.9 -11.15 -7.15 -11.55 -7.6 Q-12.35 -8.6 -12.35 -9.5 -12.35 -10.45 -11.85 -10.3 -12.25 -10.95 -12.65 -11.75 L-13.25 -12.25 -13.9 -12.6 -13.9 -12.8 Q-13.95 -12.85 -13.75 -12.85 -13.65 -12.85 -12.6 -12.5 -11.5 -12.2 -11.3 -12.15 -11.5 -12.35 -12.0 -13.35 -12.55 -14.45 -12.55 -14.7 -12.55 -14.85 -12.5 -14.85 L-12.35 -14.95 Q-11.55 -14.35 -11.1 -14.1 -10.3 -13.65 -9.3 -13.75 L-7.3 -14.05 -7.1 -14.1 -5.9 -14.25 -3.7 -14.5 Q-2.8 -14.5 -2.0 -14.05 L-2.15 -14.2 Q-3.25 -15.3 -5.1 -15.6 L-5.0 -15.7 Q-4.95 -15.75 -4.95 -15.85 -0.1 -15.65 2.05 -13.65 2.65 -13.15 3.1 -12.45 L2.9 -13.2 Q2.6 -14.9 2.55 -16.55 L2.75 -16.25 Q3.0 -15.95 3.3 -15.65 3.6 -15.05 4.05 -14.75 L4.45 -14.4 M6.3 -9.0 Q6.3 -8.25 6.15 -7.5 6.05 -7.05 5.9 -6.65 5.35 -4.9 5.15 -4.15 L5.15 -4.05 5.1 -4.0 Q5.1 -3.9 5.45 -3.35 5.65 -2.95 5.75 -2.65 6.35 -3.55 6.65 -4.4 7.05 -5.5 7.05 -6.7 L7.05 -7.5 Q7.0 -8.35 6.8 -9.05 6.5 -10.35 5.75 -11.55 L6.15 -10.2 Q6.3 -9.6 6.3 -9.0 M8.35 -7.5 L8.3 -7.5 7.4 -5.3 Q7.3 -4.8 7.1 -4.3 6.85 -3.7 6.5 -3.2 L6.4 -3.0 7.55 -3.9 Q8.95 -5.05 9.2 -5.55 9.5 -6.3 9.6 -7.15 L9.6 -7.5 9.65 -8.75 Q9.65 -9.75 9.55 -10.25 L9.55 -10.35 9.1 -9.35 8.95 -9.0 8.35 -7.5 M9.75 -5.75 Q9.6 -5.3 9.35 -4.9 9.35 -4.8 9.3 -4.75 L9.2 -4.65 Q9.45 -4.4 9.55 -3.8 L9.7 -2.9 9.7 -2.85 Q10.15 -3.8 10.15 -4.35 10.15 -4.8 9.85 -5.55 L9.75 -5.75 M-4.85 -9.75 L-4.05 -8.7 -3.5 -8.05 -2.85 -7.6 -2.1 -6.75 -1.8 -6.35 -1.8 -6.3 Q-1.8 -6.25 -1.85 -6.2 -2.25 -6.65 -3.6 -7.5 L-4.9 -8.4 Q-6.25 -9.35 -7.1 -10.0 L-7.3 -10.15 Q-8.05 -10.55 -8.45 -10.85 L-8.5 -10.8 Q-8.3 -10.15 -7.7 -9.35 -7.2 -8.35 -6.85 -7.8 L-6.75 -7.65 -7.35 -8.1 -7.95 -8.85 Q-9.15 -10.35 -9.15 -11.3 -9.15 -11.9 -8.7 -11.55 -8.05 -10.95 -7.8 -10.8 L-7.3 -10.5 -7.1 -10.35 Q-6.5 -9.9 -5.5 -9.25 -4.6 -8.75 -3.85 -8.25 L-4.4 -8.9 Q-5.1 -9.65 -5.95 -10.05 L-5.95 -10.15 Q-4.5 -10.65 -2.55 -9.2 -1.85 -8.65 -1.35 -8.0 L-0.95 -7.5 Q-0.85 -7.3 -0.85 -7.15 L-0.85 -7.0 -0.9 -6.95 Q-1.05 -7.25 -1.3 -7.5 -1.6 -7.95 -2.05 -8.35 -3.1 -9.2 -4.7 -9.75 L-4.85 -9.75 M-8.55 1.4 Q-8.35 1.3 -7.85 1.4 L-7.45 1.6 -6.55 2.0 -6.55 2.05 Q-6.95 2.55 -7.1 3.55 -7.2 4.65 -7.45 5.0 -7.65 4.65 -7.95 3.65 L-8.1 3.2 Q-8.35 2.2 -8.4 1.8 L-8.45 1.8 -8.55 1.4 M-7.85 2.05 L-7.65 2.7 Q-7.55 3.15 -7.55 3.4 -7.35 3.0 -7.35 2.3 -7.35 2.2 -7.5 2.1 L-7.85 2.05" fill="#111111" fill-rule="evenodd" stroke="none"/>
  </g>
</svg>
