<?xml version="1.0" encoding="UTF-8" standalone="no"?>
<svg xmlns:ffdec="https://www.free-decompiler.com/flash" xmlns:xlink="http://www.w3.org/1999/xlink" ffdec:objectType="shape" height="19.15px" width="19.8px" xmlns="http://www.w3.org/2000/svg">
  <g transform="matrix(1.0, 0.0, 0.0, 1.0, 9.85, 14.5)">
    <path d="M6.35 -10.75 L6.4 -10.65 Q7.0 -10.35 7.55 -9.95 8.2 -9.45 8.4 -9.1 8.3 -9.1 8.05 -9.25 7.8 -9.35 7.7 -9.35 7.55 -9.35 7.5 -9.25 L7.45 -9.05 Q8.05 -8.7 8.4 -8.1 L8.6 -7.65 8.85 -7.2 8.6 -7.0 Q8.55 -6.95 8.55 -6.85 L8.9 -6.1 8.95 -6.0 8.95 -5.9 9.0 -5.15 Q8.95 -4.65 8.55 -4.35 8.65 -4.9 8.25 -5.45 8.35 -5.7 8.35 -5.85 8.35 -5.95 8.3 -6.0 L8.2 -6.0 7.3 -5.0 6.75 -4.35 6.75 -4.4 Q7.25 -5.65 7.25 -6.0 L7.2 -6.2 7.05 -6.3 Q6.75 -5.9 6.5 -5.0 6.15 -3.95 5.95 -3.6 5.4 -4.4 5.25 -4.4 5.0 -4.4 4.95 -4.2 L4.95 -4.05 4.9 -4.05 3.45 -6.15 3.4 -6.1 3.35 -6.1 Q3.4 -5.6 3.7 -5.0 3.25 -5.55 2.55 -6.15 1.5 -7.0 1.15 -7.0 L0.95 -6.95 0.85 -6.95 0.85 -6.85 1.2 -6.5 1.5 -6.15 Q-0.15 -6.85 -1.85 -7.25 L-1.85 -7.0 -0.95 -6.6 -1.85 -6.55 Q-2.8 -6.55 -2.95 -6.55 L-3.5 -6.7 Q-3.55 -6.7 -3.7 -6.6 -3.35 -5.85 -3.15 -5.55 -3.25 -5.55 -3.9 -5.85 L-4.5 -6.15 -4.7 -6.1 -4.75 -6.1 Q-4.8 -6.1 -4.8 -5.95 -4.8 -5.7 -4.55 -5.2 -4.4 -4.8 -4.35 -4.6 -4.4 -4.3 -4.4 -3.9 -4.4 -2.9 -4.7 -2.5 -5.1 -1.9 -5.4 -0.35 L-5.7 -0.45 Q-5.6 -0.8 -5.7 -1.2 L-5.8 -1.35 Q-5.8 -1.85 -6.55 -2.8 -7.35 -3.85 -8.25 -3.9 L-8.25 -3.85 -8.5 -3.85 -8.95 -3.75 Q-9.45 -3.55 -9.6 -3.1 -9.45 -3.8 -9.25 -5.35 -9.05 -6.75 -8.65 -7.65 L-8.5 -8.05 -7.75 -9.6 Q-7.3 -10.45 -6.55 -11.05 -5.35 -12.1 -4.15 -12.95 L-3.35 -13.45 -3.95 -12.5 -3.85 -12.4 Q-3.4 -12.6 -3.1 -13.0 -2.75 -13.5 -2.6 -13.65 L-2.55 -13.55 Q-2.7 -13.4 -2.6 -13.2 -2.65 -13.15 -2.45 -13.15 L-2.0 -13.45 Q-1.4 -13.75 -0.7 -13.9 L-0.65 -13.65 Q-0.65 -13.5 -0.3 -13.5 0.0 -13.5 0.45 -13.65 0.85 -13.8 1.35 -13.8 L2.55 -13.8 Q2.3 -13.6 2.3 -13.5 L2.3 -13.3 3.15 -13.55 Q3.65 -13.7 4.25 -13.7 4.4 -13.7 4.35 -13.7 4.3 -13.65 4.25 -13.6 4.2 -13.55 4.2 -13.4 4.2 -13.15 4.5 -13.05 L5.65 -12.7 Q5.15 -12.65 5.05 -12.55 4.95 -12.5 4.95 -12.35 4.95 -12.25 5.8 -11.75 L6.75 -11.15 6.9 -11.05 Q6.6 -11.0 6.35 -10.75 M-7.4 2.6 L-7.5 3.0 Q-7.5 3.2 -7.45 3.45 L-7.5 3.45 -7.65 2.55 Q-7.8 2.0 -7.95 1.65 L-7.55 2.0 Q-7.35 2.2 -7.35 2.25 L-7.4 2.6" fill="#003366" fill-rule="evenodd" stroke="none"/>
    <path d="M2.8 -14.3 Q2.6 -14.15 2.4 -14.0 L2.45 -14.0 3.15 -14.05 Q3.7 -14.1 4.2 -14.05 L5.3 -13.5 5.1 -13.45 Q5.35 -13.4 5.6 -13.3 L5.8 -13.1 Q5.85 -13.05 6.2 -12.75 L6.3 -12.55 Q5.95 -12.55 5.85 -12.35 L6.65 -11.95 6.75 -11.85 Q8.0 -10.85 8.35 -10.3 7.6 -10.65 7.2 -10.8 L8.2 -10.2 8.45 -10.1 8.75 -9.55 Q9.05 -9.05 9.05 -8.7 9.05 -8.6 8.95 -8.5 8.85 -8.4 8.7 -8.4 L9.1 -7.65 9.3 -7.3 9.65 -6.65 Q9.65 -6.55 9.55 -6.45 9.5 -6.4 9.35 -6.35 9.4 -6.25 9.65 -5.7 9.85 -5.4 9.85 -5.1 L9.8 -4.95 9.95 -4.5 Q9.95 -4.25 9.85 -3.85 9.7 -3.45 9.6 -3.45 L9.35 -4.25 9.3 -4.4 Q9.0 -3.6 8.4 -3.6 8.35 -3.6 8.15 -4.4 L8.0 -5.0 7.85 -4.75 Q7.2 -3.7 6.5 -3.7 L6.25 -3.05 6.1 -3.0 Q5.85 -3.15 5.7 -3.35 L5.4 -3.8 5.35 -3.8 Q5.4 -3.35 5.15 -3.35 4.7 -3.35 4.05 -4.4 L4.0 -4.5 3.9 -4.45 Q3.8 -4.35 3.7 -4.35 L3.05 -5.0 2.05 -5.95 Q2.05 -5.7 2.0 -5.6 1.95 -5.45 1.75 -5.45 1.5 -5.45 0.2 -6.05 L-0.4 -6.35 -3.2 -6.25 Q-2.45 -5.5 -2.45 -5.35 -2.45 -5.2 -2.55 -5.1 -2.7 -5.05 -3.1 -5.05 -3.3 -5.05 -3.75 -5.2 -4.2 -5.4 -4.45 -5.55 L-4.35 -5.05 Q-4.25 -4.75 -4.25 -4.6 L-4.25 -4.45 -4.15 -4.05 Q-3.95 -3.0 -3.95 -2.8 -3.95 -2.75 -4.1 -2.45 L-4.5 -1.85 Q-5.1 -0.9 -5.1 0.05 -5.1 0.35 -5.35 0.35 -5.8 0.35 -6.05 -0.6 -6.15 -1.0 -6.2 -1.45 L-6.75 -2.35 Q-7.45 -3.35 -8.0 -3.35 L-8.35 -3.45 -8.7 -3.5 Q-9.1 -3.5 -9.3 -3.05 -9.45 -2.8 -9.5 -2.4 L-9.6 -2.35 Q-9.65 -2.5 -9.65 -2.65 L-9.65 -2.9 -9.7 -2.7 -9.75 -2.7 -9.85 -4.5 Q-9.85 -6.1 -9.1 -7.65 L-8.8 -8.45 Q-7.9 -10.2 -6.45 -11.7 -5.25 -12.95 -4.15 -13.5 -3.35 -13.9 -3.15 -13.75 -2.7 -14.4 -2.4 -14.4 -2.15 -14.4 -2.1 -14.15 L-2.1 -13.8 Q-1.4 -14.25 -0.85 -14.4 -0.05 -14.65 0.1 -14.1 1.2 -14.35 2.05 -14.35 L2.8 -14.3 M6.35 -10.75 Q6.6 -11.0 6.9 -11.05 L6.75 -11.15 5.8 -11.75 Q4.95 -12.25 4.95 -12.35 4.95 -12.5 5.05 -12.55 5.15 -12.65 5.65 -12.7 L4.5 -13.05 Q4.2 -13.15 4.2 -13.4 4.2 -13.55 4.25 -13.6 4.3 -13.65 4.35 -13.7 4.4 -13.7 4.25 -13.7 3.65 -13.7 3.15 -13.55 L2.3 -13.3 2.3 -13.5 Q2.3 -13.6 2.55 -13.8 L1.35 -13.8 Q0.85 -13.8 0.45 -13.65 0.0 -13.5 -0.3 -13.5 -0.65 -13.5 -0.65 -13.65 L-0.7 -13.9 Q-1.4 -13.75 -2.0 -13.45 L-2.45 -13.15 Q-2.65 -13.15 -2.6 -13.2 -2.7 -13.4 -2.55 -13.55 L-2.6 -13.65 Q-2.75 -13.5 -3.1 -13.0 -3.4 -12.6 -3.85 -12.4 L-3.95 -12.5 -3.35 -13.45 -4.15 -12.95 Q-5.35 -12.1 -6.55 -11.05 -7.3 -10.45 -7.75 -9.6 L-8.5 -8.05 -8.65 -7.65 Q-9.05 -6.75 -9.25 -5.35 -9.45 -3.8 -9.6 -3.1 -9.45 -3.55 -8.95 -3.75 L-8.5 -3.85 -8.25 -3.85 -8.25 -3.9 Q-7.35 -3.85 -6.55 -2.8 -5.8 -1.85 -5.8 -1.35 L-5.7 -1.2 Q-5.6 -0.8 -5.7 -0.45 L-5.4 -0.35 Q-5.1 -1.9 -4.7 -2.5 -4.4 -2.9 -4.4 -3.9 -4.4 -4.3 -4.35 -4.6 -4.4 -4.8 -4.55 -5.2 -4.8 -5.7 -4.8 -5.95 -4.8 -6.1 -4.75 -6.1 L-4.7 -6.1 -4.5 -6.15 -3.9 -5.85 Q-3.25 -5.55 -3.15 -5.55 -3.35 -5.85 -3.7 -6.6 -3.55 -6.7 -3.5 -6.7 L-2.95 -6.55 Q-2.8 -6.55 -1.85 -6.55 L-0.95 -6.6 -1.85 -7.0 -1.85 -7.25 Q-0.15 -6.85 1.5 -6.15 L1.2 -6.5 0.85 -6.85 0.85 -6.95 0.95 -6.95 1.15 -7.0 Q1.5 -7.0 2.55 -6.15 3.25 -5.55 3.7 -5.0 3.4 -5.6 3.35 -6.1 L3.4 -6.1 3.45 -6.15 4.9 -4.05 4.95 -4.05 4.95 -4.2 Q5.0 -4.4 5.25 -4.4 5.4 -4.4 5.95 -3.6 6.15 -3.95 6.5 -5.0 6.75 -5.9 7.05 -6.3 L7.2 -6.2 7.25 -6.0 Q7.25 -5.65 6.75 -4.4 L6.75 -4.35 7.3 -5.0 8.2 -6.0 8.3 -6.0 Q8.35 -5.95 8.35 -5.85 8.35 -5.7 8.25 -5.45 8.65 -4.9 8.55 -4.35 8.95 -4.65 9.0 -5.15 L8.95 -5.9 8.95 -6.0 8.9 -6.1 8.55 -6.85 Q8.55 -6.95 8.6 -7.0 L8.85 -7.2 8.6 -7.65 8.4 -8.1 Q8.05 -8.7 7.45 -9.05 L7.5 -9.25 Q7.55 -9.35 7.7 -9.35 7.8 -9.35 8.05 -9.25 8.3 -9.1 8.4 -9.1 8.2 -9.45 7.55 -9.95 7.0 -10.35 6.4 -10.65 L6.35 -10.75 M-7.55 1.35 Q-6.65 2.0 -6.65 2.15 L-6.95 2.95 Q-7.25 3.9 -7.3 4.45 L-7.3 4.6 Q-7.35 4.65 -7.45 4.65 -7.75 4.65 -8.1 2.95 L-8.45 1.25 Q-8.45 0.7 -7.55 1.35 M-7.4 2.6 L-7.35 2.25 Q-7.35 2.2 -7.55 2.0 L-7.95 1.65 Q-7.8 2.0 -7.65 2.55 L-7.5 3.45 -7.45 3.45 Q-7.5 3.2 -7.5 3.0 L-7.4 2.6" fill="#1a1a1a" fill-rule="evenodd" stroke="none"/>
  </g>
</svg>
