<?xml version="1.0" encoding="UTF-8" standalone="no"?>
<svg xmlns:ffdec="https://www.free-decompiler.com/flash" xmlns:xlink="http://www.w3.org/1999/xlink" ffdec:objectType="shape" height="21.2px" width="24.45px" xmlns="http://www.w3.org/2000/svg">
  <g transform="matrix(1.0, 0.0, 0.0, 1.0, 10.1, 15.55)">
    <path d="M12.2 -14.25 Q11.5 -13.55 10.45 -12.7 L9.55 -12.05 Q10.75 -12.4 11.2 -12.7 11.9 -13.1 12.7 -13.95 L13.65 -15.0 Q13.6 -14.4 13.3 -13.85 12.95 -12.9 12.3 -12.05 L11.8 -11.45 12.5 -11.95 Q13.05 -12.4 13.85 -13.4 14.1 -13.65 14.25 -13.55 14.35 -13.4 14.35 -12.7 14.35 -10.45 13.9 -9.1 13.7 -8.6 13.5 -8.25 L13.45 -8.15 Q13.3 -7.85 13.05 -7.6 12.75 -7.25 12.4 -6.95 L12.25 -6.85 12.15 -6.75 Q12.15 -5.85 10.9 -4.0 9.8 -2.35 9.6 -1.65 L9.55 -1.5 9.4 -1.2 9.1 -0.65 9.05 -0.6 9.2 -1.6 9.25 -1.9 9.25 -2.1 9.15 -3.2 Q8.85 -4.85 7.75 -4.85 L7.1 -4.75 6.15 -4.3 Q5.45 -3.95 4.95 -3.5 4.85 -3.5 4.6 -3.7 4.4 -3.9 4.4 -3.95 L4.4 -4.0 3.7 -4.75 Q2.5 -5.8 0.05 -5.8 L-1.15 -5.75 -1.6 -5.65 Q-2.25 -5.2 -2.9 -4.7 L-3.15 -4.55 Q-3.15 -4.0 -4.0 -3.8 -4.6 -3.2 -4.6 -2.9 L-4.25 -2.4 Q-3.9 -1.9 -3.9 -1.8 -3.9 -1.7 -4.4 -0.9 L-4.65 -0.55 -4.75 -0.35 Q-5.0 0.65 -5.0 1.1 L-5.0 1.15 -5.15 1.2 Q-5.6 1.2 -6.0 0.2 -6.3 -0.6 -6.3 -1.25 -6.3 -1.8 -7.05 -2.5 -7.7 -3.1 -8.35 -3.2 L-8.85 -2.55 -8.95 -2.4 -9.15 -2.2 -9.25 -2.15 Q-9.65 -2.8 -9.9 -3.9 -10.1 -4.85 -10.1 -5.6 -10.1 -6.55 -9.85 -7.3 L-9.8 -7.4 Q-9.75 -7.75 -9.65 -8.15 -9.4 -8.85 -9.0 -9.55 -8.55 -10.3 -8.0 -10.9 -7.7 -11.3 -7.2 -11.75 -6.0 -12.8 -4.7 -12.7 L-4.7 -12.6 -5.7 -11.65 -6.1 -11.2 -5.2 -11.9 Q-2.4 -13.9 0.55 -13.9 1.85 -13.9 2.9 -13.65 L3.15 -13.6 Q4.2 -13.4 6.25 -13.4 7.3 -13.4 8.9 -13.8 L9.6 -14.0 11.05 -14.7 Q12.4 -15.35 12.85 -15.55 L12.9 -15.5 12.9 -15.35 Q12.9 -15.05 12.2 -14.25 M9.25 -13.55 Q7.35 -12.85 5.0 -12.85 L3.15 -13.0 2.9 -13.05 Q1.85 -13.25 0.55 -13.25 -1.6 -13.25 -4.1 -12.0 -5.6 -11.2 -6.9 -10.15 L-8.1 -8.7 Q-7.45 -10.05 -7.1 -10.6 -6.65 -11.35 -6.1 -11.85 L-6.05 -11.9 Q-6.35 -11.7 -7.3 -10.95 -7.65 -10.6 -7.9 -10.4 L-8.4 -9.6 Q-8.75 -8.8 -9.0 -8.15 L-9.1 -7.85 Q-9.3 -7.4 -9.3 -7.2 L-9.3 -7.0 Q-9.6 -6.25 -9.6 -5.6 -9.6 -4.9 -9.5 -4.45 -9.35 -3.85 -9.05 -3.4 L-8.9 -3.55 -8.85 -3.55 Q-8.5 -3.8 -8.1 -3.65 L-8.0 -3.7 Q-6.75 -3.7 -6.0 -1.8 -5.8 -1.25 -5.55 -0.4 L-5.55 -0.35 Q-5.55 -0.2 -5.45 -0.1 L-5.4 0.15 -5.35 0.0 -5.3 -0.05 -5.3 -0.1 -4.9 -1.05 -4.5 -1.95 Q-4.5 -2.0 -4.65 -2.2 -4.8 -2.25 -4.9 -2.35 L-5.25 -2.75 Q-5.4 -2.9 -5.95 -3.0 L-6.6 -3.2 Q-5.95 -3.5 -5.35 -3.2 L-4.85 -3.7 -5.55 -3.65 Q-6.2 -3.65 -7.75 -4.05 -6.35 -3.95 -4.95 -4.3 L-3.75 -4.6 -3.45 -4.9 -3.0 -5.4 -4.5 -5.1 -8.4 -4.55 Q-7.4 -4.85 -5.9 -5.2 -4.7 -5.45 -4.35 -5.6 -3.7 -5.9 -2.65 -6.05 L-2.0 -6.05 -1.95 -6.1 Q-1.6 -6.15 -1.25 -6.1 L0.05 -6.15 1.2 -6.15 Q0.65 -6.4 0.0 -6.8 -1.4 -7.5 -3.4 -7.5 -4.6 -7.5 -6.05 -7.1 L-7.95 -6.5 -5.8 -7.3 -4.85 -7.6 -3.95 -7.75 Q-2.05 -7.75 -1.2 -7.6 L0.3 -7.1 Q2.45 -6.1 2.65 -5.8 L3.0 -5.45 Q3.2 -5.25 3.45 -5.1 3.7 -4.85 4.35 -4.5 4.75 -4.25 5.0 -4.0 5.15 -4.25 5.8 -4.6 6.05 -4.8 6.6 -5.0 L6.75 -5.05 7.55 -5.4 Q8.9 -5.9 10.45 -6.45 11.7 -6.9 12.4 -7.6 L12.6 -7.75 12.85 -8.15 12.9 -8.25 Q13.15 -8.65 13.3 -9.1 13.65 -10.05 13.9 -12.25 L13.9 -12.65 Q13.05 -11.55 11.9 -10.9 11.0 -10.35 9.95 -10.05 L9.6 -9.9 9.75 -10.0 Q8.85 -9.85 7.95 -9.85 L7.55 -9.9 6.95 -10.0 Q8.05 -10.1 8.95 -10.3 9.35 -10.55 10.1 -11.0 11.05 -11.6 11.5 -11.95 L11.7 -12.2 11.8 -12.3 10.9 -11.9 10.65 -11.75 Q8.9 -10.85 7.1 -10.75 L7.15 -10.75 6.75 -10.7 6.45 -10.75 6.0 -10.8 Q8.2 -11.75 9.45 -12.5 10.9 -13.4 11.9 -14.55 L10.6 -14.05 10.0 -13.9 9.25 -13.55 M8.7 -5.35 L8.9 -5.3 Q9.2 -4.85 9.4 -4.3 9.55 -3.7 9.65 -3.4 L9.7 -3.1 9.9 -3.35 9.85 -3.15 10.2 -3.8 10.9 -5.0 Q11.6 -6.25 11.6 -6.35 L11.6 -6.45 Q10.9 -6.05 9.7 -5.65 L8.7 -5.35 M-7.0 1.7 Q-6.95 1.75 -6.95 1.8 -6.95 2.0 -7.15 3.0 -7.35 4.25 -7.35 5.35 -7.35 5.5 -7.4 5.55 -7.45 5.65 -7.55 5.65 -7.65 5.65 -8.15 3.8 -8.65 2.0 -8.9 0.95 -8.75 0.9 -8.3 1.25 -7.85 1.6 -7.15 1.55 L-7.0 1.7 M-7.45 2.0 L-8.1 2.0 Q-8.0 2.2 -7.9 2.6 L-7.75 3.2 -7.7 3.25 Q-7.6 2.5 -7.45 2.05 L-7.45 2.0" fill="#1a1a1a" fill-rule="evenodd" stroke="none"/>
    <path d="M8.7 -5.35 L9.7 -5.65 Q10.9 -6.05 11.6 -6.45 L11.6 -6.35 Q11.6 -6.25 10.9 -5.0 L10.2 -3.8 9.85 -3.15 9.9 -3.35 9.7 -3.1 9.65 -3.4 Q9.55 -3.7 9.4 -4.3 9.2 -4.85 8.9 -5.3 L8.7 -5.35 M9.25 -13.55 L10.0 -13.9 10.6 -14.05 11.9 -14.55 Q10.9 -13.4 9.45 -12.5 8.2 -11.75 6.0 -10.8 L6.45 -10.75 6.75 -10.7 7.15 -10.75 7.1 -10.75 Q8.9 -10.85 10.65 -11.75 L10.9 -11.9 11.8 -12.3 11.7 -12.2 11.5 -11.95 Q11.05 -11.6 10.1 -11.0 9.35 -10.55 8.95 -10.3 8.05 -10.1 6.95 -10.0 L7.55 -9.9 7.95 -9.85 Q8.85 -9.85 9.75 -10.0 L9.6 -9.9 9.95 -10.05 Q11.0 -10.35 11.9 -10.9 13.05 -11.55 13.9 -12.65 L13.9 -12.25 Q13.65 -10.05 13.3 -9.1 13.15 -8.65 12.9 -8.25 L12.85 -8.15 12.6 -7.75 12.4 -7.6 Q11.7 -6.9 10.45 -6.45 8.9 -5.9 7.55 -5.4 L6.75 -5.05 6.6 -5.0 Q6.05 -4.8 5.8 -4.6 5.15 -4.25 5.0 -4.0 4.75 -4.25 4.35 -4.5 3.7 -4.85 3.45 -5.1 3.2 -5.25 3.0 -5.45 L2.65 -5.8 Q2.45 -6.1 0.3 -7.1 L-1.2 -7.6 Q-2.05 -7.75 -3.95 -7.75 L-4.85 -7.6 -5.8 -7.3 -7.95 -6.5 -6.05 -7.1 Q-4.6 -7.5 -3.4 -7.5 -1.4 -7.5 0.0 -6.8 0.65 -6.4 1.2 -6.15 L0.05 -6.15 -1.25 -6.1 Q-1.6 -6.15 -1.95 -6.1 L-2.0 -6.05 -2.65 -6.05 Q-3.7 -5.9 -4.35 -5.6 -4.7 -5.45 -5.9 -5.2 -7.4 -4.85 -8.4 -4.55 L-4.5 -5.1 -3.0 -5.4 -3.45 -4.9 -3.75 -4.6 -4.95 -4.3 Q-6.35 -3.95 -7.75 -4.05 -6.2 -3.65 -5.55 -3.65 L-4.85 -3.7 -5.35 -3.2 Q-5.95 -3.5 -6.6 -3.2 L-5.95 -3.0 Q-5.4 -2.9 -5.25 -2.75 L-4.9 -2.35 Q-4.8 -2.25 -4.65 -2.2 -4.5 -2.0 -4.5 -1.95 L-4.9 -1.05 -5.3 -0.1 -5.3 -0.05 -5.35 0.0 -5.4 0.15 -5.45 -0.1 Q-5.55 -0.2 -5.55 -0.35 L-5.55 -0.4 Q-5.8 -1.25 -6.0 -1.8 -6.75 -3.7 -8.0 -3.7 L-8.1 -3.65 Q-8.5 -3.8 -8.85 -3.55 L-8.9 -3.55 -9.05 -3.4 Q-9.35 -3.85 -9.5 -4.45 -9.6 -4.9 -9.6 -5.6 -9.6 -6.25 -9.3 -7.0 L-9.3 -7.2 Q-9.3 -7.4 -9.1 -7.85 L-9.0 -8.15 Q-8.75 -8.8 -8.4 -9.6 L-7.9 -10.4 Q-7.65 -10.6 -7.3 -10.95 -6.35 -11.7 -6.05 -11.9 L-6.1 -11.85 Q-6.65 -11.35 -7.1 -10.6 -7.45 -10.05 -8.1 -8.7 L-6.9 -10.15 Q-5.6 -11.2 -4.1 -12.0 -1.6 -13.25 0.55 -13.25 1.85 -13.25 2.9 -13.05 L3.15 -13.0 5.0 -12.85 Q7.35 -12.85 9.25 -13.55 M-7.45 2.0 L-7.45 2.05 Q-7.6 2.5 -7.7 3.25 L-7.75 3.2 -7.9 2.6 Q-8.0 2.2 -8.1 2.0 L-7.45 2.0" fill="#003366" fill-rule="evenodd" stroke="none"/>
  </g>
</svg>
