<?xml version="1.0" encoding="UTF-8" standalone="no"?>
<svg xmlns:ffdec="https://www.free-decompiler.com/flash" xmlns:xlink="http://www.w3.org/1999/xlink" ffdec:objectType="shape" height="18.85px" width="19.9px" xmlns="http://www.w3.org/2000/svg">
  <g transform="matrix(1.0, 0.0, 0.0, 1.0, 9.45, 15.15)">
    <path d="M1.0 -14.85 L0.9 -14.8 1.2 -14.8 1.0 -14.85 M9.65 -3.55 L9.45 -3.2 9.2 -3.25 Q9.3 -3.35 9.35 -3.55 L9.15 -3.45 Q8.9 -3.4 7.9 -3.2 L6.35 -3.1 Q4.4 -3.1 0.8 -3.5 L-2.65 -3.85 -3.15 -3.85 -3.95 -3.8 -4.0 -3.8 -4.2 -3.6 -4.55 -3.3 Q-4.75 -2.9 -4.95 -2.45 L-5.25 -1.45 Q-5.35 -0.9 -5.55 -0.6 L-5.55 -0.3 Q-6.25 -0.85 -6.65 -1.3 -6.95 -1.6 -7.25 -2.05 L-7.1 -2.1 -7.45 -2.5 Q-8.2 -3.35 -8.2 -3.4 L-8.0 -5.5 -8.95 -7.4 Q-9.3 -7.8 -9.3 -7.95 -9.3 -8.5 -9.0 -8.6 L-2.6 -14.0 Q-2.6 -14.25 -2.4 -14.5 -2.2 -14.75 -1.9 -14.75 L-0.1 -14.1 0.35 -14.7 Q0.45 -15.05 0.7 -15.15 1.05 -15.25 1.65 -14.8 L2.15 -14.4 2.35 -14.4 Q2.55 -14.6 2.75 -14.7 2.8 -15.05 3.25 -15.0 3.8 -14.95 4.05 -14.5 4.25 -14.4 4.3 -13.8 L4.35 -13.65 4.4 -13.55 Q4.55 -13.4 4.75 -13.4 L4.95 -13.55 Q5.1 -13.75 5.25 -13.75 6.0 -13.75 6.15 -13.0 6.25 -12.55 6.3 -12.45 6.4 -12.2 6.65 -12.1 6.85 -12.4 7.0 -12.35 7.1 -12.35 7.2 -12.0 7.35 -11.5 7.4 -11.4 7.55 -11.05 7.85 -11.05 L8.3 -11.0 8.35 -10.85 Q8.55 -10.85 8.7 -10.6 8.9 -10.3 8.9 -10.0 8.9 -9.9 8.8 -9.75 8.75 -9.55 8.75 -9.45 L8.75 -9.35 8.85 -9.25 9.0 -9.05 9.3 -8.8 Q9.85 -8.45 9.85 -7.9 9.85 -7.85 10.15 -7.65 10.45 -7.45 10.45 -7.25 10.45 -7.0 10.2 -6.8 9.95 -6.6 9.95 -6.55 9.95 -6.4 10.0 -6.1 L10.05 -5.65 Q10.05 -5.55 10.15 -5.45 L10.2 -5.2 Q10.2 -4.95 10.1 -4.55 10.0 -4.1 9.95 -3.85 L9.7 -3.7 9.65 -3.55 M8.55 -10.2 Q8.55 -10.0 8.55 -9.85 L8.6 -10.05 8.55 -10.2 M8.05 -9.7 L7.55 -10.35 7.3 -10.5 7.25 -10.5 Q7.1 -10.5 6.3 -11.4 L5.75 -12.05 5.3 -12.75 4.95 -12.6 Q4.4 -12.6 3.85 -13.5 L3.3 -14.4 Q3.2 -14.4 2.85 -14.1 L2.5 -13.85 Q2.4 -13.75 2.35 -13.75 1.9 -13.75 1.65 -13.95 L-7.2 -4.2 -2.05 -4.6 6.95 -3.65 Q8.1 -3.7 8.55 -3.9 L8.85 -4.15 9.25 -4.25 9.45 -5.1 9.5 -5.9 9.35 -6.2 Q9.2 -6.4 9.2 -6.55 L9.35 -6.95 9.45 -7.3 Q9.2 -7.4 9.15 -7.6 9.15 -7.7 9.2 -7.9 L8.95 -8.25 8.75 -8.55 Q8.55 -8.75 8.35 -9.0 8.05 -9.4 8.05 -9.7 M-7.5 -2.35 L-7.45 -2.2 Q-7.5 -2.2 -7.5 -2.25 L-7.5 -2.35" fill="#1a1a1a" fill-rule="evenodd" stroke="none"/>
    <path d="M1.0 -14.85 L1.2 -14.8 0.9 -14.8 1.0 -14.85 M9.7 -3.7 L9.65 -3.55 9.7 -3.7 M8.05 -9.7 Q8.05 -9.4 8.35 -9.0 8.55 -8.75 8.75 -8.55 L8.95 -8.25 9.2 -7.9 Q9.15 -7.7 9.15 -7.6 9.2 -7.4 9.45 -7.3 L9.35 -6.95 9.2 -6.55 Q9.2 -6.4 9.35 -6.2 L9.5 -5.9 9.45 -5.1 9.25 -4.25 8.85 -4.15 8.55 -3.9 Q8.1 -3.7 6.95 -3.65 L-2.05 -4.6 -7.2 -4.2 1.65 -13.95 Q1.9 -13.75 2.35 -13.75 2.4 -13.75 2.5 -13.85 L2.85 -14.1 Q3.2 -14.4 3.3 -14.4 L3.85 -13.5 Q4.4 -12.6 4.95 -12.6 L5.3 -12.75 5.75 -12.05 6.3 -11.4 Q7.1 -10.5 7.25 -10.5 L7.3 -10.5 7.55 -10.35 8.05 -9.7 M8.55 -10.2 L8.6 -10.05 8.55 -9.85 Q8.55 -10.0 8.55 -10.2" fill="#003366" fill-rule="evenodd" stroke="none"/>
    <path d="M-3.5 -4.25 L-4.35 -4.3 -4.35 -3.9 Q-4.35 -3.55 -4.25 -3.15 -4.95 -3.1 -5.35 -2.85 L-5.55 -2.8 Q-5.6 -2.75 -5.6 -2.6 L-5.6 -2.55 -5.65 -2.45 Q-5.65 -2.3 -5.6 -2.25 L-5.35 3.05 Q-5.7 2.8 -5.85 1.7 -5.95 1.1 -5.95 0.5 L-5.9 -0.6 Q-5.9 -0.8 -5.9 -1.0 L-5.9 -1.2 Q-5.9 -2.1 -6.45 -2.8 -6.85 -3.35 -7.65 -3.8 L-7.6 -3.9 Q-7.6 -4.1 -7.9 -4.45 L-8.05 -4.6 -7.6 -5.1 Q-7.6 -5.4 -8.15 -5.6 L-8.4 -5.7 -8.6 -6.0 -8.6 -6.05 -8.5 -6.25 Q-8.4 -6.45 -8.4 -6.55 -8.4 -6.8 -8.65 -7.1 -8.9 -7.45 -8.9 -7.5 -8.9 -7.6 -8.75 -7.8 -8.6 -8.05 -8.6 -8.2 L-8.7 -8.5 Q-8.75 -8.7 -8.75 -8.8 -8.7 -8.75 -8.6 -8.9 -8.4 -9.15 -8.1 -9.85 -8.0 -10.0 -7.95 -10.55 -7.9 -11.0 -7.55 -11.0 L-7.5 -11.0 -6.95 -10.95 Q-6.6 -10.95 -6.5 -11.1 -6.45 -11.2 -6.45 -11.45 -6.45 -11.65 -6.6 -11.9 L-6.7 -12.15 -6.65 -12.2 Q-6.55 -12.3 -6.2 -12.35 -5.7 -12.45 -5.35 -12.65 L-4.45 -12.6 Q-4.1 -12.65 -4.1 -13.05 L-4.1 -13.55 Q-4.05 -13.7 -3.95 -13.75 L-3.9 -13.75 -3.45 -13.65 Q-3.1 -13.5 -2.9 -13.5 -2.75 -13.5 -2.55 -13.6 L-2.45 -13.65 Q-2.15 -13.65 -2.05 -13.85 -2.0 -13.95 -1.9 -14.2 -1.85 -14.35 -1.65 -14.35 -1.5 -14.35 -1.35 -14.2 -1.2 -14.05 -1.1 -14.05 L-0.25 -14.05 Q-0.05 -14.1 0.05 -14.25 L0.15 -14.5 0.4 -14.55 0.5 -14.55 0.55 -14.5 0.8 -14.35 Q0.8 -14.6 0.9 -14.7 1.1 -14.95 1.7 -14.3 L1.8 -14.2 1.9 -14.05 2.55 -13.15 2.9 -13.3 Q3.05 -12.95 3.15 -12.7 3.45 -12.25 3.8 -12.25 3.95 -12.25 4.15 -12.45 4.3 -12.65 4.5 -12.65 L4.75 -12.45 Q4.8 -12.7 4.9 -12.9 5.1 -13.25 5.4 -13.2 5.65 -13.15 5.85 -12.7 6.1 -12.2 6.1 -11.45 L6.05 -11.0 6.05 -10.95 6.5 -10.4 7.05 -10.35 7.4 -10.45 Q7.65 -10.6 7.95 -10.6 8.25 -10.6 8.35 -10.2 L8.4 -9.75 Q8.4 -9.5 8.05 -9.3 7.8 -9.2 7.55 -9.15 L8.0 -8.7 Q8.35 -8.25 8.4 -7.8 8.4 -7.5 8.6 -6.9 8.8 -6.35 8.8 -6.05 8.8 -5.6 8.05 -5.7 8.15 -5.9 7.95 -6.1 7.4 -5.7 7.3 -5.55 7.15 -5.3 7.15 -5.0 L7.15 -4.95 6.2 -4.7 3.25 -4.7 2.65 -4.8 0.8 -4.8 -2.6 -5.25 Q-5.85 -5.6 -5.85 -5.1 -5.85 -5.0 -5.65 -4.95 -5.6 -5.05 -5.45 -5.05 L-0.85 -5.05 3.85 -4.45 6.75 -4.45 8.5 -5.15 Q9.4 -5.45 9.7 -5.3 L9.8 -5.25 Q9.9 -5.15 9.9 -5.0 L9.85 -4.85 Q9.7 -4.55 9.0 -4.2 L8.9 -4.15 Q7.95 -3.65 7.2 -3.6 L3.85 -3.6 0.9 -4.05 -2.7 -4.25 -3.5 -4.25 M5.25 -11.9 Q5.35 -11.7 5.45 -11.7 L5.5 -11.65 5.5 -11.95 5.45 -12.25 5.3 -12.55 Q5.25 -12.5 5.15 -12.1 L5.15 -12.05 5.25 -11.9 M1.6 -13.35 L1.8 -12.85 1.95 -12.8 2.2 -12.95 1.95 -13.1 1.6 -13.45 1.6 -13.35" fill="#003366" fill-rule="evenodd" stroke="none"/>
    <path d="M0.55 -14.5 L0.5 -14.55 0.4 -14.55 0.15 -14.5 0.05 -14.25 Q-0.05 -14.1 -0.25 -14.05 L-1.1 -14.05 Q-1.2 -14.05 -1.35 -14.2 -1.5 -14.35 -1.65 -14.35 -1.85 -14.35 -1.9 -14.2 -2.0 -13.95 -2.05 -13.85 -2.15 -13.65 -2.45 -13.65 L-2.55 -13.6 Q-2.75 -13.5 -2.9 -13.5 -3.1 -13.5 -3.45 -13.65 L-3.9 -13.75 -3.95 -13.75 Q-4.05 -13.7 -4.1 -13.55 L-4.1 -13.05 Q-4.1 -12.65 -4.45 -12.6 L-5.35 -12.65 Q-5.7 -12.45 -6.2 -12.35 -6.55 -12.3 -6.65 -12.2 L-6.7 -12.15 -6.6 -11.9 Q-6.45 -11.65 -6.45 -11.45 -6.45 -11.2 -6.5 -11.1 -6.6 -10.95 -6.95 -10.95 L-7.5 -11.0 -7.55 -11.0 Q-7.9 -11.0 -7.95 -10.55 -8.0 -10.0 -8.1 -9.85 -8.4 -9.15 -8.6 -8.9 -8.7 -8.75 -8.75 -8.8 -8.75 -8.7 -8.7 -8.5 L-8.6 -8.2 Q-8.6 -8.05 -8.75 -7.8 -8.9 -7.6 -8.9 -7.5 -8.9 -7.45 -8.65 -7.1 -8.4 -6.8 -8.4 -6.55 -8.4 -6.45 -8.5 -6.25 L-8.6 -6.05 -8.6 -6.0 -8.4 -5.7 -8.15 -5.6 Q-7.6 -5.4 -7.6 -5.1 L-8.05 -4.6 -7.9 -4.45 Q-7.6 -4.1 -7.6 -3.9 L-7.65 -3.8 Q-6.85 -3.35 -6.45 -2.8 -5.9 -2.1 -5.9 -1.2 L-5.9 -1.0 Q-5.9 -0.8 -5.9 -0.6 L-5.95 0.5 Q-5.95 1.1 -5.85 1.7 -5.7 2.8 -5.35 3.05 L-5.6 -2.25 Q-5.65 -2.3 -5.65 -2.45 L-5.6 -2.55 -5.6 -2.6 Q-5.6 -2.75 -5.55 -2.8 L-5.35 -2.85 Q-4.95 -3.1 -4.25 -3.15 -4.35 -3.55 -4.35 -3.9 L-4.35 -4.3 -3.5 -4.25 -4.05 -4.15 -4.05 -3.6 -3.95 -3.3 Q-3.85 -3.1 -3.85 -3.0 -3.85 -2.8 -4.25 -2.7 -4.75 -2.6 -5.15 -2.4 L-5.2 -1.7 -5.3 -0.75 Q-5.3 -0.1 -5.2 1.2 -5.05 2.45 -5.05 3.1 L-5.1 3.6 -5.1 3.65 -5.2 3.7 Q-5.85 3.2 -5.9 3.05 L-5.9 2.5 Q-5.9 1.4 -6.1 0.35 L-6.25 -0.45 -6.3 -0.75 -6.6 -1.85 Q-6.7 -2.5 -7.65 -3.05 L-7.8 -3.15 Q-8.1 -3.35 -8.45 -3.5 -8.25 -3.9 -8.45 -4.05 -8.7 -4.25 -8.7 -4.3 L-8.2 -5.05 Q-8.2 -5.4 -8.55 -5.45 L-8.95 -5.55 Q-9.1 -5.75 -9.1 -5.9 L-9.1 -6.05 -9.05 -6.25 -8.95 -6.55 Q-8.95 -6.8 -9.2 -7.0 -9.5 -7.2 -9.45 -7.45 -9.45 -7.65 -9.3 -7.9 -9.2 -8.1 -9.2 -8.15 L-9.25 -8.45 -9.3 -8.8 Q-9.25 -9.25 -8.95 -9.6 -8.65 -10.0 -8.65 -10.35 -8.6 -10.7 -8.3 -11.1 L-8.1 -11.35 -7.95 -11.35 -7.3 -11.4 Q-7.2 -11.45 -7.2 -11.7 -7.2 -11.8 -7.45 -12.05 -7.35 -12.35 -7.1 -12.55 -6.8 -13.0 -5.95 -13.1 L-5.6 -13.1 -5.4 -13.2 -5.2 -13.1 -4.95 -13.05 Q-4.8 -13.05 -4.75 -13.1 L-4.75 -13.15 -4.7 -13.7 -4.7 -13.8 Q-4.6 -14.1 -4.35 -14.2 L-4.35 -14.25 -4.0 -14.25 Q-3.9 -14.25 -3.85 -14.3 L-2.45 -14.15 Q-1.95 -14.85 -1.65 -14.85 -1.3 -14.85 -1.15 -14.7 L-0.95 -14.5 -0.35 -14.5 Q-0.4 -15.5 0.55 -14.9 L0.9 -14.7 0.65 -14.65 Q0.6 -14.6 0.55 -14.5 M9.0 -4.2 Q9.7 -4.55 9.85 -4.85 10.0 -4.05 10.0 -3.5 10.0 -3.0 9.85 -2.25 9.65 -1.4 9.45 -1.2 L9.25 -1.4 Q9.2 -1.5 9.2 -1.6 L9.25 -2.25 9.35 -2.9 9.3 -3.25 9.2 -3.6 Q9.2 -3.9 9.0 -4.2 M9.8 -5.25 L9.7 -5.3 9.75 -5.45 9.8 -5.55 9.8 -5.25 M1.9 -14.05 L1.8 -14.2 2.05 -14.3 Q2.25 -14.5 2.6 -14.5 L2.9 -14.45 Q2.75 -14.4 2.55 -14.25 L2.25 -14.0 Q2.1 -14.0 1.9 -14.05 M5.45 -11.7 Q5.35 -11.7 5.25 -11.9 L5.45 -11.7" fill="#1a1a1a" fill-rule="evenodd" stroke="none"/>
  </g>
</svg>
