<?xml version="1.0" encoding="UTF-8" standalone="no"?>
<svg xmlns:ffdec="https://www.free-decompiler.com/flash" xmlns:xlink="http://www.w3.org/1999/xlink" ffdec:objectType="shape" height="21.05px" width="22.85px" xmlns="http://www.w3.org/2000/svg">
  <g transform="matrix(1.0, 0.0, 0.0, 1.0, 11.5, 14.35)">
    <path d="M5.8 -12.1 Q6.55 -11.5 7.55 -10.35 8.6 -9.15 9.05 -8.75 9.8 -8.1 10.25 -7.15 L10.45 -6.65 Q10.55 -6.2 10.6 -5.6 10.8 -3.5 10.8 -2.6 L10.7 -2.0 10.65 -2.7 Q10.6 -3.5 10.6 -3.95 10.65 -4.3 10.4 -5.0 10.1 -5.85 10.1 -6.1 L10.05 -6.1 10.0 -5.65 Q10.0 -5.5 10.15 -4.95 L10.25 -4.35 Q10.25 -2.1 10.0 -0.65 9.65 1.35 8.65 3.0 L8.65 2.95 8.9 2.3 Q9.05 1.95 9.2 1.5 9.45 0.65 9.45 -0.15 9.35 -1.45 9.25 -2.8 9.0 -5.45 8.8 -5.45 L8.65 -5.4 8.6 -5.35 Q8.65 -5.0 8.5 -4.4 L8.25 -3.55 8.2 -4.05 8.15 -4.45 Q8.15 -4.7 8.4 -6.25 L8.55 -6.65 Q8.75 -7.5 8.65 -8.35 L8.5 -8.7 8.35 -8.95 8.3 -8.95 Q8.15 -7.6 7.9 -6.65 L7.5 -5.9 Q6.65 -4.25 5.1 -3.1 5.6 -3.85 6.3 -5.25 6.85 -6.3 6.95 -6.65 L7.0 -6.85 6.95 -7.0 6.8 -7.05 6.55 -6.65 Q6.05 -6.1 5.15 -5.35 L3.1 -3.55 Q1.75 -2.35 1.0 -1.4 L1.15 -1.85 Q1.6 -2.85 1.95 -3.45 L2.75 -4.9 Q3.75 -6.25 3.75 -6.65 3.75 -6.75 3.65 -6.8 L3.55 -6.85 3.45 -6.65 Q2.35 -4.95 1.7 -4.0 0.45 -2.3 -1.0 -1.25 L-1.95 -0.45 Q-3.35 0.6 -4.3 1.6 L-4.85 2.25 -4.4 1.4 Q-3.5 -0.35 -2.9 -1.45 -2.65 -1.75 -1.95 -2.65 L-0.7 -4.3 Q0.45 -5.7 0.9 -6.65 L1.0 -7.2 0.7 -6.65 Q0.15 -5.9 -1.15 -4.5 L-1.95 -3.55 Q-2.75 -2.65 -3.15 -2.0 L-3.55 -1.2 -4.7 1.0 -3.9 -1.2 -3.75 -1.7 -3.15 -3.15 Q-2.55 -4.5 -1.95 -5.55 -1.65 -6.15 -1.3 -6.65 -1.0 -7.3 -0.65 -7.8 -1.15 -7.25 -1.55 -6.65 L-1.95 -6.15 Q-2.6 -5.4 -3.15 -4.5 -3.6 -3.7 -4.0 -2.8 L-4.4 -1.9 -4.8 -1.2 Q-6.4 1.4 -7.05 2.8 L-7.1 2.75 -7.2 0.65 Q-7.2 -0.2 -7.05 -1.2 -6.95 -2.1 -6.7 -3.1 -6.2 -5.35 -5.55 -6.65 L-5.6 -6.8 -5.75 -6.65 Q-6.55 -5.8 -7.1 -3.45 -7.4 -2.3 -7.55 -1.2 -7.7 -0.2 -7.7 0.7 L-7.65 1.6 -7.75 1.95 Q-7.85 2.2 -7.85 2.4 L-7.75 2.95 Q-7.7 3.4 -7.7 3.45 L-7.7 4.0 -7.75 4.65 -7.8 4.65 -8.3 2.85 Q-8.55 2.5 -8.75 1.75 -8.9 1.1 -8.9 0.55 -9.0 -0.05 -9.0 -1.2 L-9.0 -2.0 -8.95 -3.8 -8.8 -5.3 -8.8 -5.35 Q-9.35 -4.9 -9.45 -2.8 L-9.45 0.3 -9.05 2.1 -9.15 2.45 Q-9.25 2.85 -9.25 3.45 -9.25 4.1 -9.2 4.5 -9.65 4.05 -10.1 2.7 -10.5 1.4 -10.5 0.65 -10.5 -0.25 -10.25 -1.15 L-10.2 -1.2 Q-10.0 -2.05 -10.0 -2.15 -10.0 -2.65 -10.25 -2.55 -10.55 -2.4 -10.7 -1.95 L-10.85 -1.45 -10.85 -1.2 -10.9 -1.05 -11.1 -0.4 -11.0 -1.2 -10.85 -1.95 Q-10.75 -2.35 -10.05 -3.75 -9.8 -4.25 -9.65 -4.65 L-9.5 -4.95 -8.95 -6.65 -8.85 -7.2 Q-8.9 -8.2 -7.45 -9.55 L-6.15 -10.7 -5.7 -11.15 Q-5.3 -11.35 -4.75 -11.65 L-3.2 -12.6 -3.15 -12.65 Q-2.55 -12.95 -1.95 -13.2 -0.8 -13.7 0.45 -13.9 3.65 -13.9 5.8 -12.1" fill="#003366" fill-rule="evenodd" stroke="none"/>
    <path d="M9.4 -9.2 Q10.2 -8.5 10.7 -7.45 L11.0 -6.65 11.1 -5.75 Q11.35 -3.6 11.35 -2.5 11.35 -1.8 10.55 -0.25 L10.2 0.45 Q9.05 4.35 8.25 4.35 L8.1 4.35 8.05 4.3 8.05 4.2 Q8.05 3.95 8.35 2.95 L8.3 2.95 Q8.5 1.6 8.8 0.5 9.0 -0.25 9.0 -1.35 L8.8 -3.9 8.55 -2.8 Q8.35 -2.0 8.1 -2.0 7.9 -2.0 7.75 -3.2 7.7 -3.8 7.7 -4.45 L7.7 -5.15 Q7.15 -4.3 6.25 -3.45 5.3 -2.5 4.3 -1.8 3.35 -1.2 3.0 -1.15 L2.9 -1.15 Q2.85 -1.15 2.85 -1.3 3.35 -1.65 3.95 -2.3 5.2 -3.55 5.8 -5.2 4.6 -4.1 2.75 -2.3 L0.05 0.3 0.05 0.25 Q0.15 -0.15 0.5 -0.7 0.55 -1.65 1.25 -2.95 -0.2 -1.2 -0.45 -1.05 -1.2 -0.5 -1.95 0.2 -2.8 0.9 -3.65 1.8 -4.5 2.75 -5.95 4.45 L-6.1 4.45 -6.0 4.15 -6.0 4.1 -6.1 3.85 Q-6.1 3.7 -5.3 2.1 -5.25 1.1 -5.0 0.05 L-5.25 0.5 Q-6.35 2.55 -7.25 4.0 L-7.3 5.15 Q-7.45 6.7 -7.5 6.7 -7.85 6.7 -8.7 3.55 L-8.6 4.25 Q-8.45 5.6 -8.45 5.7 -8.45 6.0 -8.75 6.0 -8.85 6.0 -9.45 5.0 L-10.3 3.5 Q-10.55 3.05 -10.75 2.3 L-11.0 1.05 Q-11.0 1.15 -11.1 1.35 L-11.15 1.35 -11.15 1.6 -11.2 1.65 -11.45 0.3 Q-11.5 -0.2 -11.5 -0.85 L-11.5 -1.2 Q-11.45 -2.0 -11.3 -2.55 -11.2 -2.95 -10.8 -3.6 -10.7 -3.85 -10.55 -4.1 L-10.1 -4.7 -10.0 -5.0 -9.5 -6.65 -9.45 -6.8 Q-9.5 -8.2 -8.45 -9.7 -7.2 -11.4 -5.35 -11.95 -5.1 -12.15 -4.8 -12.35 L-4.3 -12.7 -3.55 -13.2 -3.15 -13.45 Q-2.55 -13.75 -1.95 -13.9 -0.75 -14.3 0.6 -14.15 3.2 -14.8 5.55 -12.95 6.3 -12.35 7.6 -10.95 8.8 -9.65 9.4 -9.2 M5.8 -12.1 Q3.65 -13.9 0.45 -13.9 -0.8 -13.7 -1.95 -13.2 -2.55 -12.95 -3.15 -12.65 L-3.2 -12.6 -4.75 -11.65 Q-5.3 -11.35 -5.7 -11.15 L-6.15 -10.7 -7.45 -9.55 Q-8.9 -8.2 -8.85 -7.2 L-8.95 -6.65 -9.5 -4.95 -9.65 -4.65 Q-9.8 -4.25 -10.05 -3.75 -10.75 -2.35 -10.85 -1.95 L-11.0 -1.2 -11.1 -0.4 -10.9 -1.05 -10.85 -1.2 -10.85 -1.45 -10.7 -1.95 Q-10.55 -2.4 -10.25 -2.55 -10.0 -2.65 -10.0 -2.15 -10.0 -2.05 -10.2 -1.2 L-10.25 -1.15 Q-10.5 -0.25 -10.5 0.65 -10.5 1.4 -10.1 2.7 -9.65 4.05 -9.2 4.5 -9.25 4.1 -9.25 3.45 -9.25 2.85 -9.15 2.45 L-9.05 2.1 -9.45 0.3 -9.45 -2.8 Q-9.35 -4.9 -8.8 -5.35 L-8.8 -5.3 -8.95 -3.8 -9.0 -2.0 -9.0 -1.2 Q-9.0 -0.05 -8.9 0.55 -8.9 1.1 -8.75 1.75 -8.55 2.5 -8.3 2.85 L-7.8 4.65 -7.75 4.65 -7.7 4.0 -7.7 3.45 Q-7.7 3.4 -7.75 2.95 L-7.85 2.4 Q-7.85 2.2 -7.75 1.95 L-7.65 1.6 -7.7 0.7 Q-7.7 -0.2 -7.55 -1.2 -7.4 -2.3 -7.1 -3.45 -6.55 -5.8 -5.75 -6.65 L-5.6 -6.8 -5.55 -6.65 Q-6.2 -5.35 -6.7 -3.1 -6.95 -2.1 -7.05 -1.2 -7.2 -0.2 -7.2 0.65 L-7.1 2.75 -7.05 2.8 Q-6.4 1.4 -4.8 -1.2 L-4.4 -1.9 -4.0 -2.8 Q-3.6 -3.7 -3.15 -4.5 -2.6 -5.4 -1.95 -6.15 L-1.55 -6.65 Q-1.15 -7.25 -0.65 -7.8 -1.0 -7.3 -1.3 -6.65 -1.65 -6.15 -1.95 -5.55 -2.55 -4.5 -3.15 -3.15 L-3.75 -1.7 -3.9 -1.2 -4.7 1.0 -3.55 -1.2 -3.15 -2.0 Q-2.75 -2.65 -1.95 -3.55 L-1.15 -4.5 Q0.15 -5.9 0.7 -6.65 L1.0 -7.2 0.9 -6.65 Q0.45 -5.7 -0.7 -4.3 L-1.95 -2.65 Q-2.65 -1.75 -2.9 -1.45 -3.5 -0.35 -4.4 1.4 L-4.85 2.25 -4.3 1.6 Q-3.35 0.6 -1.95 -0.45 L-1.0 -1.25 Q0.45 -2.3 1.7 -4.0 2.35 -4.95 3.45 -6.65 L3.55 -6.85 3.65 -6.8 Q3.75 -6.75 3.75 -6.65 3.75 -6.25 2.75 -4.9 L1.95 -3.45 Q1.6 -2.85 1.15 -1.85 L1.0 -1.4 Q1.75 -2.35 3.1 -3.55 L5.15 -5.35 Q6.05 -6.1 6.55 -6.65 L6.8 -7.05 6.95 -7.0 7.0 -6.85 6.95 -6.65 Q6.85 -6.3 6.3 -5.25 5.6 -3.85 5.1 -3.1 6.65 -4.25 7.5 -5.9 L7.9 -6.65 Q8.15 -7.6 8.3 -8.95 L8.35 -8.95 8.5 -8.7 8.65 -8.35 Q8.75 -7.5 8.55 -6.65 L8.4 -6.25 Q8.15 -4.7 8.15 -4.45 L8.2 -4.05 8.25 -3.55 8.5 -4.4 Q8.65 -5.0 8.6 -5.35 L8.65 -5.4 8.8 -5.45 Q9.0 -5.45 9.25 -2.8 9.35 -1.45 9.45 -0.15 9.45 0.65 9.2 1.5 9.05 1.95 8.9 2.3 L8.65 2.95 8.65 3.0 Q9.65 1.35 10.0 -0.65 10.25 -2.1 10.25 -4.35 L10.15 -4.95 Q10.0 -5.5 10.0 -5.65 L10.05 -6.1 10.1 -6.1 Q10.1 -5.85 10.4 -5.0 10.65 -4.3 10.6 -3.95 10.6 -3.5 10.65 -2.7 L10.7 -2.0 10.8 -2.6 Q10.8 -3.5 10.6 -5.6 10.55 -6.2 10.45 -6.65 L10.25 -7.15 Q9.8 -8.1 9.05 -8.75 8.6 -9.15 7.55 -10.35 6.55 -11.5 5.8 -12.1" fill="#1a1a1a" fill-rule="evenodd" stroke="none"/>
  </g>
</svg>
