<?xml version="1.0" encoding="UTF-8" standalone="no"?>
<svg xmlns:ffdec="https://www.free-decompiler.com/flash" xmlns:xlink="http://www.w3.org/1999/xlink" ffdec:objectType="shape" height="20.0px" width="21.75px" xmlns="http://www.w3.org/2000/svg">
  <g transform="matrix(1.0, 0.0, 0.0, 1.0, 10.85, 18.35)">
    <path d="M5.2 -18.0 Q5.2 -17.8 4.65 -17.15 L3.9 -16.4 3.9 -16.35 4.2 -16.5 5.15 -17.05 Q5.8 -17.45 7.7 -18.0 9.85 -18.6 9.85 -18.1 9.35 -17.55 8.8 -16.8 L8.5 -15.7 8.4 -15.15 Q8.15 -14.6 8.05 -13.9 L7.75 -12.7 7.65 -12.15 Q7.9 -12.85 8.4 -13.6 9.3 -14.95 10.05 -15.3 L10.1 -15.05 Q10.1 -14.65 9.9 -14.15 9.75 -13.65 9.75 -13.05 9.75 -11.65 10.3 -9.35 10.85 -7.1 10.85 -5.4 L10.85 -5.15 10.9 -4.65 Q10.9 -2.9 10.65 -1.3 10.55 -0.6 10.45 -0.05 10.3 0.35 10.15 0.6 9.9 0.95 9.1 1.65 L9.1 0.85 9.15 0.5 9.05 -1.25 8.85 -2.45 8.4 -3.55 8.2 -3.95 Q7.6 -2.25 5.95 -1.6 L5.7 -1.7 5.7 -2.05 Q5.55 -2.5 5.4 -3.2 5.2 -4.4 4.95 -4.9 L4.95 -4.2 Q4.95 -3.25 4.9 -2.85 4.85 -2.35 4.7 -2.05 L4.7 -1.5 4.65 -1.5 4.7 -1.3 4.7 -1.05 4.55 -0.95 4.3 -1.5 4.25 -1.55 4.2 -1.55 4.2 -1.75 4.15 -1.75 4.15 -1.85 4.1 -1.85 3.95 -2.15 Q3.25 -3.2 1.35 -4.75 L-0.6 -6.4 Q-1.25 -6.9 -1.65 -7.35 -1.05 -6.65 -0.3 -5.25 0.85 -3.2 0.85 -2.55 L0.8 -2.45 0.75 -2.4 0.65 -2.35 Q0.55 -2.35 -0.25 -3.4 -1.15 -4.45 -1.45 -4.65 L-2.95 -5.8 -3.7 -6.35 -3.6 -5.95 Q-3.45 -5.2 -3.45 -4.5 L-3.45 -4.45 Q-3.35 -3.65 -3.35 -2.95 L-3.4 -2.1 -3.45 -1.9 -3.45 -1.85 Q-3.45 -1.2 -3.45 -1.05 -3.5 -0.7 -3.8 -0.2 L-3.8 -0.45 -3.85 -0.4 -3.9 -0.4 -5.0 -2.1 -4.95 -2.0 Q-4.95 -1.55 -5.05 -0.5 L-5.15 0.95 -5.2 0.95 -5.3 1.0 Q-5.5 1.0 -5.5 0.95 L-6.6 -1.4 -7.15 -2.55 -7.45 -2.7 Q-8.0 -3.0 -8.2 -3.0 -8.65 -3.0 -8.9 -2.6 -9.15 -2.2 -9.3 -2.2 L-9.35 -1.6 Q-9.4 -1.05 -9.45 -0.7 L-9.55 -0.7 Q-9.8 -1.75 -10.3 -4.1 -10.85 -6.55 -10.85 -6.8 -10.85 -7.8 -10.65 -8.45 -10.45 -9.05 -10.05 -9.7 L-9.85 -10.1 Q-9.4 -10.8 -8.85 -11.2 -8.75 -11.05 -8.7 -10.2 L-8.65 -9.95 Q-8.65 -9.6 -8.65 -9.15 L-8.55 -9.5 Q-8.5 -10.0 -8.25 -10.75 -8.0 -11.75 -7.6 -12.7 L-7.45 -12.9 -6.5 -14.2 -5.05 -15.2 -4.8 -15.35 -4.85 -15.25 Q-5.05 -14.85 -5.1 -14.6 L-5.1 -14.55 -5.45 -13.55 -5.5 -13.5 Q-5.1 -13.9 -3.95 -14.9 L-2.95 -15.75 -2.65 -16.15 Q-1.5 -17.4 -1.5 -16.5 -1.5 -16.2 -2.0 -14.95 -1.45 -15.75 -1.2 -16.0 -0.75 -16.35 1.45 -17.2 3.95 -18.2 4.95 -18.2 5.2 -18.2 5.2 -18.0 M2.2 -15.0 L2.3 -15.05 2.2 -15.15 3.2 -16.15 Q4.25 -17.2 4.45 -17.6 L4.5 -17.65 Q0.75 -17.0 -1.05 -15.3 -1.65 -14.75 -2.25 -13.85 -3.0 -12.8 -3.25 -12.55 L-3.15 -12.7 Q-3.1 -12.8 -3.1 -12.9 -3.1 -13.2 -2.6 -14.05 L-2.45 -14.45 Q-2.2 -15.25 -2.2 -15.75 -2.35 -15.55 -4.65 -13.0 L-5.65 -11.9 -5.7 -11.8 -6.05 -10.9 -6.1 -10.9 -6.15 -11.2 -6.25 -11.1 -6.25 -11.15 -6.15 -11.7 -6.1 -11.95 -6.05 -12.5 Q-6.05 -12.75 -5.9 -13.3 -5.75 -13.85 -5.75 -14.05 L-5.7 -14.35 -6.45 -13.45 Q-6.75 -13.1 -7.1 -12.6 L-7.75 -10.95 Q-7.95 -10.25 -8.0 -9.75 -8.3 -8.8 -8.75 -6.7 L-8.8 -6.7 -8.85 -7.45 -8.85 -7.7 -9.1 -8.65 Q-9.25 -9.4 -9.2 -9.9 -10.3 -8.75 -10.3 -6.8 -10.3 -6.3 -9.8 -4.6 -9.55 -3.75 -9.4 -3.15 -8.9 -3.5 -8.45 -3.5 -7.9 -3.5 -7.35 -3.2 L-7.05 -3.0 -7.0 -2.9 Q-6.3 -2.55 -6.05 -1.9 L-5.8 -1.3 Q-5.7 -0.9 -5.45 -0.65 L-5.4 -0.7 -5.4 -0.9 Q-5.4 -1.65 -5.65 -2.5 -5.85 -3.3 -5.85 -3.75 -6.3 -4.7 -6.3 -5.15 -6.3 -5.35 -6.25 -5.25 -5.7 -4.8 -4.7 -2.9 -4.1 -1.85 -3.85 -1.3 L-3.9 -1.8 Q-3.9 -2.2 -3.9 -2.55 L-3.85 -3.45 Q-3.85 -3.9 -4.1 -5.25 -4.3 -6.5 -4.4 -6.75 -4.5 -7.4 -4.65 -7.95 -4.4 -7.8 -4.05 -7.45 L-2.8 -6.2 Q-2.55 -5.9 -1.35 -5.05 -0.3 -4.3 -0.15 -3.95 -0.4 -4.6 -1.2 -5.9 -2.15 -7.45 -2.4 -7.95 -2.15 -7.8 -1.85 -7.55 L-2.25 -8.0 -2.2 -8.0 Q1.25 -5.65 2.15 -4.85 3.25 -3.9 3.8 -3.05 L4.0 -2.8 4.25 -2.4 4.25 -2.65 Q4.1 -3.3 3.4 -5.2 L2.45 -7.5 2.5 -7.5 Q3.0 -7.1 3.9 -4.85 L4.35 -3.6 Q4.45 -4.75 4.45 -5.1 4.45 -5.45 4.25 -7.5 L4.3 -7.5 Q4.7 -7.15 4.85 -6.1 5.05 -6.15 5.35 -5.4 5.6 -4.7 5.85 -3.75 6.05 -2.75 6.05 -2.3 L6.05 -2.25 Q7.5 -3.1 7.8 -4.55 L8.05 -5.75 Q8.15 -6.45 8.45 -6.85 L8.55 -6.75 8.6 -6.45 Q8.6 -5.65 8.5 -4.95 L8.7 -4.6 9.0 -3.8 9.25 -3.05 Q9.45 -2.5 9.55 -1.85 L9.65 -0.65 9.6 -0.5 9.55 0.6 9.55 0.65 Q10.1 -0.6 10.25 -2.5 L10.4 -3.85 10.3 -4.75 10.15 -7.0 Q10.1 -7.45 9.7 -9.4 9.3 -11.3 9.3 -11.45 9.3 -11.9 9.4 -13.0 9.5 -14.05 9.6 -14.4 L9.6 -14.45 Q8.95 -13.45 8.3 -11.95 L7.45 -9.8 7.4 -10.25 Q7.35 -10.6 7.35 -10.7 L7.35 -11.6 Q7.35 -12.45 7.4 -12.95 L7.6 -14.5 Q7.65 -14.95 7.8 -15.35 6.75 -13.65 6.3 -11.95 L6.25 -11.9 Q6.4 -13.4 7.0 -14.85 7.7 -16.4 8.9 -17.75 L8.95 -17.85 8.3 -17.75 8.1 -17.65 6.65 -17.05 Q4.0 -16.05 2.45 -14.95 L2.3 -15.05 2.2 -15.0 M7.4 -9.65 L7.35 -9.55 7.3 -9.55 7.4 -9.65 M-4.0 -3.2 L-4.0 -3.35 Q-4.0 -3.25 -4.0 -3.2" fill="#111111" fill-rule="evenodd" stroke="none"/>
    <path d="M7.4 -9.65 L7.3 -9.55 7.35 -9.55 7.4 -9.65 M2.2 -15.0 L2.3 -15.05 2.45 -14.95 Q4.0 -16.05 6.65 -17.05 L8.1 -17.65 8.3 -17.75 8.95 -17.85 8.9 -17.75 Q7.7 -16.4 7.0 -14.85 6.4 -13.4 6.25 -11.9 L6.3 -11.95 Q6.75 -13.65 7.8 -15.35 7.65 -14.95 7.6 -14.5 L7.4 -12.95 Q7.35 -12.45 7.35 -11.6 L7.35 -10.7 Q7.35 -10.6 7.4 -10.25 L7.45 -9.8 8.3 -11.95 Q8.95 -13.45 9.6 -14.45 L9.6 -14.4 Q9.5 -14.05 9.4 -13.0 9.3 -11.9 9.3 -11.45 9.3 -11.3 9.7 -9.4 10.1 -7.45 10.15 -7.0 L10.3 -4.75 10.4 -3.85 10.25 -2.5 Q10.1 -0.6 9.55 0.65 L9.55 0.6 9.6 -0.5 9.65 -0.65 9.55 -1.85 Q9.45 -2.5 9.25 -3.05 L9.0 -3.8 8.7 -4.6 8.5 -4.95 Q8.6 -5.65 8.6 -6.45 L8.55 -6.75 8.45 -6.85 Q8.15 -6.45 8.05 -5.75 L7.8 -4.55 Q7.5 -3.1 6.05 -2.25 L6.05 -2.3 Q6.05 -2.75 5.85 -3.75 5.6 -4.7 5.35 -5.4 5.05 -6.15 4.85 -6.1 4.7 -7.15 4.3 -7.5 L4.25 -7.5 Q4.45 -5.45 4.45 -5.1 4.45 -4.75 4.35 -3.6 L3.9 -4.85 Q3.0 -7.1 2.5 -7.5 L2.45 -7.5 3.4 -5.2 Q4.1 -3.3 4.25 -2.65 L4.25 -2.4 4.0 -2.8 3.8 -3.05 Q3.25 -3.9 2.15 -4.85 1.25 -5.65 -2.2 -8.0 L-2.25 -8.0 -1.85 -7.55 Q-2.15 -7.8 -2.4 -7.95 -2.15 -7.45 -1.2 -5.9 -0.4 -4.6 -0.15 -3.95 -0.3 -4.3 -1.35 -5.05 -2.55 -5.9 -2.8 -6.2 L-4.05 -7.45 Q-4.4 -7.8 -4.65 -7.95 -4.5 -7.4 -4.4 -6.75 -4.3 -6.5 -4.1 -5.25 -3.85 -3.9 -3.85 -3.45 L-3.9 -2.55 Q-3.9 -2.2 -3.9 -1.8 L-3.85 -1.3 Q-4.1 -1.85 -4.7 -2.9 -5.7 -4.8 -6.25 -5.25 -6.3 -5.35 -6.3 -5.15 -6.3 -4.7 -5.85 -3.75 -5.85 -3.3 -5.65 -2.5 -5.4 -1.65 -5.4 -0.9 L-5.4 -0.7 -5.45 -0.65 Q-5.7 -0.9 -5.8 -1.3 L-6.05 -1.9 Q-6.3 -2.55 -7.0 -2.9 L-7.05 -3.0 -7.35 -3.2 Q-7.9 -3.5 -8.45 -3.5 -8.9 -3.5 -9.4 -3.15 -9.55 -3.75 -9.8 -4.6 -10.3 -6.3 -10.3 -6.8 -10.3 -8.75 -9.2 -9.9 -9.25 -9.4 -9.1 -8.65 L-8.85 -7.7 -8.85 -7.45 -8.8 -6.7 -8.75 -6.7 Q-8.3 -8.8 -8.0 -9.75 -7.95 -10.25 -7.75 -10.95 L-7.1 -12.6 Q-6.75 -13.1 -6.45 -13.45 L-5.7 -14.35 -5.75 -14.05 Q-5.75 -13.85 -5.9 -13.3 -6.05 -12.75 -6.05 -12.5 L-6.1 -11.95 -6.15 -11.7 -6.25 -11.15 -6.25 -11.1 -6.15 -11.2 -6.1 -10.9 -6.05 -10.9 -5.7 -11.8 -5.65 -11.9 -4.65 -13.0 Q-2.35 -15.55 -2.2 -15.75 -2.2 -15.25 -2.45 -14.45 L-2.6 -14.05 Q-3.1 -13.2 -3.1 -12.9 -3.1 -12.8 -3.15 -12.7 L-3.25 -12.55 Q-3.0 -12.8 -2.25 -13.85 -1.65 -14.75 -1.05 -15.3 0.75 -17.0 4.5 -17.65 L4.45 -17.6 Q4.25 -17.2 3.2 -16.15 L2.2 -15.15 2.3 -15.05 2.2 -15.0 M-4.0 -3.2 Q-4.0 -3.25 -4.0 -3.35 L-4.0 -3.2" fill="#003366" fill-rule="evenodd" stroke="none"/>
  </g>
</svg>
