<?xml version="1.0" encoding="UTF-8" standalone="no"?>
<svg xmlns:ffdec="https://www.free-decompiler.com/flash" xmlns:xlink="http://www.w3.org/1999/xlink" ffdec:objectType="shape" height="24.3px" width="22.85px" xmlns="http://www.w3.org/2000/svg">
  <g transform="matrix(1.0, 0.0, 0.0, 1.0, 14.85, 16.85)">
    <path d="M3.55 -10.75 L3.65 -10.85 Q6.25 -9.15 7.15 -8.0 8.0 -6.85 8.0 -4.85 L8.0 -4.75 7.95 -4.7 7.8 -4.7 Q7.65 -4.7 7.3 -5.4 L6.75 -6.45 Q6.55 -6.7 5.7 -7.3 L5.65 -7.3 Q5.95 -6.85 6.15 -6.4 6.65 -5.35 6.65 -4.4 L6.6 -4.05 6.6 -3.9 Q6.6 -3.55 6.5 -2.8 L6.3 -1.75 6.1 -0.3 6.1 2.95 Q6.15 3.05 6.15 3.3 L6.15 3.35 Q6.1 3.4 6.0 3.4 5.7 3.4 5.35 1.8 L5.1 0.6 5.0 0.8 Q4.9 1.1 4.95 1.45 4.9 1.45 4.8 1.55 4.65 1.25 4.6 0.75 L4.6 0.7 4.45 -0.8 4.3 -0.5 Q3.95 0.05 3.25 0.65 1.45 1.85 0.1 3.0 L-1.15 4.8 -1.25 4.75 -1.3 4.6 Q-1.3 4.35 -0.5 1.6 L-0.1 0.25 Q-0.3 0.5 -0.45 0.65 -1.05 1.3 -1.95 1.7 L-3.35 2.55 Q-4.7 3.35 -5.25 3.75 -6.15 4.4 -6.45 5.05 L-6.6 5.05 -6.6 5.0 -6.65 4.85 Q-6.65 4.7 -5.75 2.95 -5.1 1.65 -4.7 1.05 -5.1 1.35 -5.55 1.65 L-7.55 2.8 Q-8.35 3.5 -8.95 3.65 -8.35 4.75 -8.35 6.0 -8.35 6.2 -8.7 6.6 -9.05 7.1 -9.4 7.1 L-9.75 7.05 -9.75 6.9 -9.4 5.8 -9.05 4.6 -10.05 5.9 Q-11.25 7.45 -11.3 7.45 -11.7 7.45 -11.85 5.3 -11.95 4.25 -11.95 3.15 -11.95 2.9 -11.85 2.35 -12.2 3.0 -12.4 3.7 -12.5 4.15 -12.55 4.8 L-12.55 6.0 -12.7 6.05 -13.1 5.1 -13.25 4.65 Q-13.3 4.3 -13.5 3.5 -13.75 2.5 -13.8 1.35 L-13.8 1.2 -13.85 0.75 Q-13.85 0.35 -13.7 -0.8 -14.15 0.0 -14.3 0.2 L-14.35 0.15 -14.35 0.0 Q-14.35 -0.15 -14.1 -0.95 L-13.75 -2.0 -13.75 -2.3 -13.9 -1.8 -14.0 -1.7 -14.0 -1.55 Q-14.35 -0.65 -14.65 -0.4 L-14.7 -0.45 Q-14.75 -1.55 -14.85 -2.55 L-14.85 -4.45 Q-14.9 -5.75 -14.2 -6.95 L-14.25 -7.2 Q-14.25 -9.2 -12.2 -10.95 -11.1 -11.9 -9.75 -12.4 L-10.85 -12.5 Q-12.0 -12.6 -12.2 -12.7 -12.3 -12.8 -12.3 -12.9 L-10.75 -13.35 Q-9.5 -13.7 -9.2 -13.9 L-8.1 -14.5 Q-7.35 -14.9 -6.85 -15.05 -6.25 -15.3 -5.8 -15.4 L-5.3 -15.5 Q-4.65 -15.6 -3.95 -15.5 -3.2 -15.3 -2.65 -15.1 L-2.45 -15.0 -2.75 -15.3 Q-3.65 -16.0 -5.05 -16.6 L-5.05 -16.7 Q-5.0 -16.8 -4.85 -16.85 L-4.4 -16.8 -4.0 -16.75 Q-0.25 -16.05 1.15 -14.1 1.6 -13.45 2.0 -12.45 L2.1 -12.1 2.1 -12.35 Q2.1 -13.05 2.4 -13.6 2.7 -14.2 2.9 -12.75 2.85 -12.45 3.0 -12.0 3.05 -11.75 3.15 -11.5 L3.55 -10.75 M2.35 -11.5 L2.6 -10.9 Q2.55 -10.85 2.45 -10.85 L2.35 -11.0 2.2 -11.2 2.2 -11.3 1.8 -12.1 1.75 -12.25 Q1.3 -13.2 0.95 -13.7 -0.25 -15.45 -3.05 -16.05 L-3.25 -16.05 Q-2.55 -15.65 -2.25 -15.15 L-2.1 -14.9 Q-1.85 -14.75 -1.6 -14.6 -1.15 -14.25 -0.2 -13.2 L-1.15 -13.95 -1.15 -13.9 -1.2 -13.9 -1.3 -14.0 -1.65 -14.3 -1.9 -14.4 -1.85 -14.35 -1.95 -14.4 -1.95 -14.45 -2.05 -14.5 Q-2.95 -14.95 -4.7 -15.1 L-5.3 -15.1 Q-6.35 -15.05 -7.85 -14.35 L-9.4 -13.55 Q-10.35 -13.1 -10.95 -12.9 L-9.85 -12.75 Q-9.3 -12.7 -9.0 -12.75 L-8.35 -12.8 Q-7.6 -12.95 -6.75 -12.95 -7.5 -12.65 -9.55 -11.8 -11.35 -11.0 -12.0 -10.45 -12.9 -9.75 -13.35 -8.55 L-13.6 -7.85 Q-12.45 -9.3 -10.45 -10.3 -12.4 -8.6 -13.35 -7.35 -14.55 -5.7 -14.45 -4.2 L-14.45 -1.6 Q-14.1 -2.1 -13.9 -2.7 -13.75 -3.15 -13.6 -3.75 L-13.6 -3.85 -13.55 -4.75 -13.55 -4.95 -13.5 -4.95 -13.5 -5.35 Q-13.45 -5.85 -13.25 -5.95 L-13.25 -5.7 -13.2 -5.0 -13.15 -4.9 Q-13.1 -4.9 -13.1 -4.75 L-13.2 -3.35 -13.25 -2.6 -13.25 -1.9 -13.1 -2.05 -13.1 -2.0 -12.9 -2.3 Q-12.4 -2.85 -11.75 -3.05 -11.1 -3.3 -10.4 -2.5 L-10.2 -2.2 -10.0 -1.95 -10.0 -2.0 -9.95 -2.55 -9.95 -3.8 Q-9.85 -4.95 -9.6 -5.35 L-9.65 -3.4 Q-9.5 -1.5 -9.45 -0.6 -9.3 -1.05 -9.25 -1.4 -9.15 -2.15 -8.9 -2.85 L-8.9 -3.0 -9.05 -2.35 Q-9.2 -2.35 -9.25 -2.8 L-9.3 -3.2 Q-9.3 -4.2 -8.75 -5.65 -8.25 -7.05 -7.6 -8.0 -7.05 -8.7 -6.2 -9.3 -5.35 -10.05 -4.25 -10.35 -5.45 -9.7 -6.3 -8.95 L-6.6 -8.6 Q-7.15 -8.05 -7.5 -7.15 L-7.55 -7.1 -7.6 -6.95 Q-8.2 -6.15 -8.2 -5.85 -8.2 -5.65 -8.4 -5.0 L-8.55 -4.55 -8.55 -4.45 -8.65 -3.4 Q-8.4 -4.05 -8.0 -4.65 -6.9 -6.45 -5.1 -7.75 -6.5 -6.55 -7.3 -5.1 -7.95 -4.0 -8.4 -2.4 L-9.15 0.3 Q-9.65 1.85 -10.35 2.95 L-8.0 0.75 Q-6.65 -0.65 -6.05 -1.6 -6.05 -1.65 -6.05 -1.6 L-5.7 -2.2 Q-6.0 -1.2 -6.8 0.15 L-8.1 2.45 Q-6.1 0.55 -4.4 -2.2 L-4.3 -2.35 Q-3.35 -3.95 -1.85 -6.8 L-1.75 -6.65 Q-2.25 -5.25 -3.0 -3.8 -3.8 -2.65 -4.4 -1.55 -4.75 -1.0 -5.05 -0.3 L-5.25 0.0 Q-6.3 1.5 -7.2 2.4 -5.35 1.35 -3.75 -0.4 L-2.95 -1.35 -2.85 -1.5 Q-1.95 -2.75 -1.5 -3.6 -1.45 -3.65 -1.45 -3.6 L-1.2 -4.15 Q-1.1 -3.95 -1.1 -3.8 -1.1 -3.55 -2.05 -2.15 -2.55 -1.3 -3.35 0.0 L-5.6 3.5 -5.65 3.55 Q-5.05 3.05 -3.95 2.45 L-2.45 1.7 -2.45 1.65 Q-1.05 0.65 -0.15 -0.5 L0.15 -0.85 0.25 -1.15 0.35 -1.35 0.4 -1.55 0.5 -1.75 Q0.85 -2.35 1.1 -3.05 1.25 -3.6 1.35 -4.25 1.6 -5.1 1.75 -5.8 L1.85 -5.3 1.75 -4.6 1.6 -4.0 1.6 -3.85 1.55 -3.6 1.5 -3.4 1.45 -3.15 Q1.3 -2.0 0.45 -0.75 0.2 0.2 0.2 0.45 0.2 0.7 -0.3 1.85 -0.8 3.0 -0.8 3.1 L-0.8 3.25 Q1.25 0.9 1.95 -0.6 2.7 -2.15 2.7 -4.25 L2.45 -5.6 Q2.2 -6.95 2.2 -7.35 2.5 -7.0 2.8 -5.7 3.05 -4.5 3.05 -4.25 3.05 -1.85 2.1 -0.15 1.8 0.5 1.0 1.6 1.45 1.25 2.45 0.55 3.3 -0.05 3.65 -0.5 4.2 -1.1 4.2 -1.95 4.25 -2.3 4.25 -2.65 4.25 -3.35 4.1 -4.05 L3.8 -5.4 Q4.05 -4.85 4.2 -4.55 4.5 -3.6 4.6 -3.25 4.7 -2.8 4.7 -2.15 4.7 -1.7 4.75 -1.25 L4.9 -0.35 5.0 -2.05 5.05 -3.2 Q5.05 -3.9 4.6 -4.9 3.95 -6.4 3.9 -6.6 L3.9 -6.65 Q4.8 -5.4 5.1 -4.05 5.3 -3.15 5.3 -1.65 5.4 -1.05 5.4 -0.35 5.4 0.0 5.5 0.65 L5.7 1.6 Q5.75 0.95 5.9 -1.35 6.05 -3.25 6.05 -4.3 6.05 -5.2 5.8 -6.15 L5.75 -6.25 5.3 -6.95 5.3 -7.0 5.35 -7.05 5.4 -7.0 4.75 -8.0 4.55 -8.2 4.55 -8.3 4.65 -8.2 4.8 -8.15 4.75 -8.3 4.8 -8.3 5.05 -8.05 Q6.1 -7.6 6.7 -6.9 6.95 -6.65 7.2 -6.2 L7.65 -5.45 7.7 -5.7 Q7.7 -7.0 7.0 -7.85 6.55 -8.45 5.5 -9.0 L3.85 -9.9 Q3.55 -10.15 3.3 -10.45 L3.2 -10.45 3.05 -10.75 Q2.9 -11.0 2.75 -11.25 2.6 -11.65 2.55 -12.05 2.45 -12.45 2.5 -12.85 2.45 -12.5 2.4 -12.05 L2.35 -11.85 2.35 -11.5 M-13.35 -5.1 L-13.35 -5.1 M-13.3 -1.45 L-13.3 -1.45 M-13.85 -0.45 L-13.8 -0.55 -13.85 -0.3 -13.85 -0.45 M-13.2 -0.5 L-13.25 -0.3 Q-13.35 0.6 -13.35 1.2 -13.35 1.55 -13.15 3.05 L-12.95 4.65 Q-12.75 3.15 -12.6 2.6 -12.35 1.55 -11.95 1.3 L-12.3 0.9 -12.7 0.4 Q-13.0 0.05 -13.2 -0.45 L-13.2 -0.5 M-12.85 -1.35 Q-12.85 -0.2 -11.45 0.75 L-10.45 1.3 -10.15 1.5 -10.05 1.2 -10.05 0.75 Q-9.9 0.35 -9.85 0.05 L-10.1 -1.2 -10.25 -1.65 -10.55 -2.0 Q-11.0 -2.55 -11.25 -2.55 -11.95 -2.55 -12.45 -2.0 -12.75 -1.7 -12.85 -1.35 M-8.6 1.95 Q-8.9 2.25 -9.45 2.9 L-9.25 3.15 -7.6 0.75 -8.6 1.95 M-11.3 1.65 L-11.45 2.75 -11.6 4.2 -11.55 4.8 Q-11.35 4.2 -10.6 2.55 L-10.35 2.0 -10.95 1.8 -11.3 1.6 -11.3 1.65 M-9.45 3.85 L-9.75 3.25 -10.3 3.95 -11.45 5.35 -11.5 5.35 -11.5 5.45 -11.35 6.7 -11.25 6.75 Q-10.85 6.15 -10.3 5.45 L-9.2 4.25 -9.45 3.85 M-9.35 6.6 Q-9.2 6.5 -9.0 6.3 -8.8 6.1 -8.8 6.0 -8.8 5.8 -9.0 5.5 -9.15 6.15 -9.35 6.6" fill="#111111" fill-rule="evenodd" stroke="none"/>
    <path d="M2.35 -11.5 L2.35 -11.85 2.4 -12.05 Q2.45 -12.5 2.5 -12.85 2.45 -12.45 2.55 -12.05 2.6 -11.65 2.75 -11.25 2.9 -11.0 3.05 -10.75 L3.2 -10.45 3.3 -10.45 Q3.55 -10.15 3.85 -9.9 L5.5 -9.0 Q6.55 -8.45 7.0 -7.85 7.7 -7.0 7.7 -5.7 L7.65 -5.45 7.2 -6.2 Q6.95 -6.65 6.7 -6.9 6.1 -7.6 5.05 -8.05 L4.8 -8.3 4.75 -8.3 4.8 -8.15 4.65 -8.2 4.55 -8.3 4.55 -8.2 4.75 -8.0 5.4 -7.0 5.35 -7.05 5.3 -7.0 5.3 -6.95 5.75 -6.25 5.8 -6.15 Q6.05 -5.2 6.05 -4.3 6.05 -3.25 5.9 -1.35 5.75 0.95 5.7 1.6 L5.5 0.65 Q5.4 0.0 5.4 -0.35 5.4 -1.05 5.3 -1.65 5.3 -3.15 5.1 -4.05 4.8 -5.4 3.9 -6.65 L3.9 -6.6 Q3.95 -6.4 4.6 -4.9 5.05 -3.9 5.05 -3.2 L5.0 -2.05 4.9 -0.35 4.75 -1.25 Q4.7 -1.7 4.7 -2.15 4.7 -2.8 4.6 -3.25 4.5 -3.6 4.2 -4.55 4.05 -4.85 3.8 -5.4 L4.1 -4.05 Q4.25 -3.35 4.25 -2.65 4.25 -2.3 4.2 -1.95 4.2 -1.1 3.65 -0.5 3.3 -0.05 2.45 0.55 1.45 1.25 1.0 1.6 1.8 0.5 2.1 -0.15 3.05 -1.85 3.05 -4.25 3.05 -4.5 2.8 -5.7 2.5 -7.0 2.2 -7.35 2.2 -6.95 2.45 -5.6 L2.7 -4.25 Q2.7 -2.15 1.95 -0.6 1.25 0.9 -0.8 3.25 L-0.8 3.1 Q-0.8 3.0 -0.3 1.85 0.2 0.7 0.2 0.45 0.2 0.2 0.45 -0.75 1.3 -2.0 1.45 -3.15 L1.5 -3.4 1.55 -3.6 1.6 -3.85 1.6 -4.0 1.75 -4.6 1.85 -5.3 1.75 -5.8 Q1.6 -5.1 1.35 -4.25 1.25 -3.6 1.1 -3.05 0.85 -2.35 0.5 -1.75 L0.4 -1.55 0.35 -1.35 0.25 -1.15 0.15 -0.85 -0.15 -0.5 Q-1.05 0.65 -2.45 1.65 L-2.45 1.7 -3.95 2.45 Q-5.05 3.05 -5.65 3.55 L-5.6 3.5 -3.35 0.0 Q-2.55 -1.3 -2.05 -2.15 -1.1 -3.55 -1.1 -3.8 -1.1 -3.95 -1.2 -4.15 L-1.45 -3.6 Q-1.45 -3.65 -1.5 -3.6 -1.95 -2.75 -2.85 -1.5 L-2.95 -1.35 -3.75 -0.4 Q-5.35 1.35 -7.2 2.4 -6.3 1.5 -5.25 0.0 L-5.05 -0.3 Q-4.75 -1.0 -4.4 -1.55 -3.8 -2.65 -3.0 -3.8 -2.25 -5.25 -1.75 -6.65 L-1.85 -6.8 Q-3.35 -3.95 -4.3 -2.35 L-4.4 -2.2 Q-6.1 0.55 -8.1 2.45 L-6.8 0.15 Q-6.0 -1.2 -5.7 -2.2 L-6.05 -1.6 Q-6.05 -1.65 -6.05 -1.6 -6.65 -0.65 -8.0 0.75 L-10.35 2.95 Q-9.65 1.85 -9.15 0.3 L-8.4 -2.4 Q-7.95 -4.0 -7.3 -5.1 -6.5 -6.55 -5.1 -7.75 -6.9 -6.45 -8.0 -4.65 -8.4 -4.05 -8.65 -3.4 L-8.55 -4.45 -8.55 -4.55 -8.4 -5.0 Q-8.2 -5.65 -8.2 -5.85 -8.2 -6.15 -7.6 -6.95 L-7.55 -7.1 -7.5 -7.15 Q-7.15 -8.05 -6.6 -8.6 L-6.3 -8.95 Q-5.45 -9.7 -4.25 -10.35 -5.35 -10.05 -6.2 -9.3 -7.05 -8.7 -7.6 -8.0 -8.25 -7.05 -8.75 -5.65 -9.3 -4.2 -9.3 -3.2 L-9.25 -2.8 Q-9.2 -2.35 -9.05 -2.35 L-8.9 -3.0 -8.9 -2.85 Q-9.15 -2.15 -9.25 -1.4 -9.3 -1.05 -9.45 -0.6 -9.5 -1.5 -9.65 -3.4 L-9.6 -5.35 Q-9.85 -4.95 -9.95 -3.8 L-9.95 -2.55 -10.0 -2.0 -10.0 -1.95 -10.2 -2.2 -10.4 -2.5 Q-11.1 -3.3 -11.75 -3.05 -12.4 -2.85 -12.9 -2.3 L-13.1 -2.0 -13.1 -2.05 -13.25 -1.9 -13.25 -2.6 -13.2 -3.35 -13.1 -4.75 Q-13.1 -4.9 -13.15 -4.9 L-13.2 -5.0 -13.25 -5.7 -13.25 -5.95 Q-13.45 -5.85 -13.5 -5.35 L-13.5 -4.95 -13.55 -4.95 -13.55 -4.75 -13.6 -3.85 -13.6 -3.75 Q-13.75 -3.15 -13.9 -2.7 -14.1 -2.1 -14.45 -1.6 L-14.45 -4.2 Q-14.55 -5.7 -13.35 -7.35 -12.4 -8.6 -10.45 -10.3 -12.45 -9.3 -13.6 -7.85 L-13.35 -8.55 Q-12.9 -9.75 -12.0 -10.45 -11.35 -11.0 -9.55 -11.8 -7.5 -12.65 -6.75 -12.95 -7.6 -12.95 -8.35 -12.8 L-9.0 -12.75 Q-9.3 -12.7 -9.85 -12.75 L-10.95 -12.9 Q-10.35 -13.1 -9.4 -13.55 L-7.85 -14.35 Q-6.35 -15.05 -5.3 -15.1 L-4.7 -15.1 Q-2.95 -14.95 -2.05 -14.5 L-1.95 -14.45 -1.95 -14.4 -1.85 -14.35 -1.9 -14.4 -1.65 -14.3 -1.3 -14.0 -1.2 -13.9 -1.15 -13.9 -1.15 -13.95 -0.2 -13.2 Q-1.15 -14.25 -1.6 -14.6 -1.85 -14.75 -2.1 -14.9 L-2.25 -15.15 Q-2.55 -15.65 -3.25 -16.05 L-3.05 -16.05 Q-0.25 -15.45 0.95 -13.7 1.3 -13.2 1.75 -12.25 L1.8 -12.1 2.2 -11.3 2.2 -11.2 2.35 -11.0 2.45 -10.85 Q2.55 -10.85 2.6 -10.9 L2.35 -11.5 M-13.35 -5.1 L-13.35 -5.1 M-13.2 -0.5 L-13.2 -0.45 Q-13.0 0.05 -12.7 0.4 L-12.3 0.9 -11.95 1.3 Q-12.35 1.55 -12.6 2.6 -12.75 3.15 -12.95 4.65 L-13.15 3.05 Q-13.35 1.55 -13.35 1.2 -13.35 0.6 -13.25 -0.3 L-13.2 -0.5 M-9.35 6.6 Q-9.15 6.15 -9.0 5.5 -8.8 5.8 -8.8 6.0 -8.8 6.1 -9.0 6.3 -9.2 6.5 -9.35 6.6 M-9.45 3.85 L-9.2 4.25 -10.3 5.45 Q-10.85 6.15 -11.25 6.75 L-11.35 6.7 -11.5 5.45 -11.5 5.35 -11.45 5.35 -10.3 3.95 -9.75 3.25 -9.45 3.85 M-11.3 1.65 L-11.3 1.6 -10.95 1.8 -10.35 2.0 -10.6 2.55 Q-11.35 4.2 -11.55 4.8 L-11.6 4.2 -11.45 2.75 -11.3 1.65" fill="#003366" fill-rule="evenodd" stroke="none"/>
  </g>
</svg>
