<?xml version="1.0" encoding="UTF-8" standalone="no"?>
<svg xmlns:ffdec="https://www.free-decompiler.com/flash" xmlns:xlink="http://www.w3.org/1999/xlink" ffdec:objectType="shape" height="15.35px" width="11.05px" xmlns="http://www.w3.org/2000/svg">
  <g transform="matrix(1.0, 0.0, 0.0, 1.0, 5.9, 9.7)">
    <path d="M0.85 -9.4 Q2.45 -8.2 3.35 -6.6 L3.5 -6.2 3.55 -6.15 3.55 -6.05 3.6 -6.0 3.55 -6.0 Q3.7 -5.55 3.6 -5.05 L3.8 -4.05 4.05 -2.35 4.3 -0.9 Q4.45 -0.15 4.45 0.5 L4.45 0.55 4.55 0.85 4.35 2.55 Q4.05 3.6 3.95 4.15 L3.85 4.35 Q3.6 4.95 3.6 5.2 3.45 5.2 3.4 5.1 2.2 4.55 0.75 4.6 -0.3 4.6 -1.3 4.3 -2.8 3.75 -3.8 2.55 -5.0 0.0 -5.55 -2.7 L-5.5 -2.75 Q-5.55 -3.0 -5.5 -3.35 L-5.0 -6.7 Q-4.75 -7.95 -4.35 -9.05 L-4.05 -9.35 -4.05 -9.4 Q-2.2 -9.8 -0.3 -9.65 L0.6 -9.65 Q0.75 -9.65 0.85 -9.6 L0.85 -9.4 M0.75 3.85 L0.8 3.8 0.75 3.8 0.75 3.85 M-0.05 -9.05 L-0.05 -9.05" fill="#c7a36d" fill-rule="evenodd" stroke="none"/>
    <path d="M3.65 -5.6 L3.55 -6.0 3.8 -6.0 Q3.9 -5.9 4.1 -5.9 L4.25 -5.55 4.2 -5.2 4.35 -4.9 Q4.4 -4.7 4.5 -4.0 4.5 -3.7 4.55 -3.1 L4.55 -2.65 4.6 -2.25 4.6 -2.2 4.65 -2.05 4.85 -1.3 5.05 -0.6 5.15 0.0 5.1 0.45 5.1 0.6 4.95 1.9 4.55 3.75 4.35 4.3 4.35 4.4 4.3 4.55 4.25 4.75 4.15 4.95 4.1 5.0 4.1 5.05 4.05 5.15 4.0 5.2 3.8 5.65 Q3.65 5.55 3.6 5.5 L3.6 5.2 Q3.6 4.95 3.85 4.35 L3.95 4.15 Q4.0 3.85 4.1 3.45 L4.2 2.9 4.45 1.5 4.5 0.75 4.5 0.65 4.45 -0.3 4.4 -0.8 Q4.25 -1.25 4.1 -2.05 L3.95 -2.8 3.95 -3.2 Q3.95 -3.95 3.8 -4.7 3.75 -5.25 3.65 -5.6" fill="#111111" fill-rule="evenodd" stroke="none"/>
    <path d="M4.5 0.75 L4.4 1.1 Q4.3 1.5 4.1 1.7 L3.65 1.75 3.75 1.0 Q3.9 0.55 3.9 0.2 3.9 -0.8 3.65 -1.55 3.45 -2.3 3.45 -3.75 3.45 -4.3 3.2 -4.9 L3.0 -5.5 Q3.0 -5.6 3.05 -5.6 L3.25 -5.65 3.65 -5.6 Q3.75 -5.25 3.8 -4.7 3.95 -3.95 3.95 -3.2 L3.95 -2.8 4.1 -2.05 Q4.25 -1.25 4.4 -0.8 L4.45 -0.3 4.5 0.65 4.5 0.75" fill="#c7a36d" fill-rule="evenodd" stroke="none"/>
    <path d="M2.05 -0.9 Q2.05 -0.85 2.1 -0.8 L1.8 -0.5 1.8 -0.55 1.95 -0.8 2.05 -0.9 M2.55 -1.3 L2.7 -1.3 2.5 -1.15 2.35 -1.05 Q2.35 -1.15 2.3 -1.2 2.45 -1.3 2.55 -1.3 M-3.6 -0.35 L-3.5 -0.4 -2.5 -0.35 -2.5 -0.2 -2.45 -0.15 -3.6 -0.35 M-1.95 -0.1 L-1.9 -0.15 -1.55 -0.1 -1.8 -0.05 -1.95 -0.1" fill="#ffffff" fill-rule="evenodd" stroke="none"/>
    <path d="M3.8 -3.0 Q3.65 -2.9 3.4 -2.8 2.75 -2.55 2.7 -2.5 2.3 -2.2 2.1 -1.8 L2.0 -1.5 1.8 -1.25 Q1.75 -1.15 1.65 -0.85 L1.55 -1.55 1.5 -1.55 Q1.45 -1.3 1.4 -0.95 1.4 -1.3 1.45 -1.55 L1.55 -2.75 Q1.55 -2.9 1.75 -3.1 L1.8 -3.1 Q2.05 -3.4 2.9 -3.7 3.0 -3.7 3.25 -3.5 L3.55 -3.25 3.55 -3.2 3.8 -3.0 M2.05 -0.2 L2.35 -0.2 2.8 -0.25 3.2 -0.3 3.25 -0.3 2.85 -0.05 Q2.4 0.15 1.95 0.15 L1.75 0.15 1.8 0.05 1.85 -0.05 2.05 -0.2 M2.4 3.85 L2.45 3.8 Q2.45 4.05 2.1 4.2 1.65 4.35 0.6 4.35 0.55 4.35 0.45 4.3 0.6 4.3 0.85 4.15 1.1 3.95 1.2 3.8 L0.9 3.85 0.85 3.85 0.75 3.9 0.6 3.9 1.4 3.7 Q1.95 3.55 2.25 3.6 L2.05 3.8 1.55 4.2 1.55 4.25 2.15 4.0 2.2 3.95 2.4 3.85 M-0.3 -2.8 L-0.3 -2.55 0.05 -1.35 0.4 -0.1 0.6 1.0 0.6 1.7 0.5 1.7 Q0.0 0.65 -0.25 0.4 L-0.4 0.15 -0.5 0.0 -0.55 -0.05 Q-0.65 -0.5 -1.15 -0.7 -1.5 -0.9 -2.05 -0.95 L-2.4 -1.0 -2.85 -1.0 -4.35 -1.35 -5.9 -1.6 -5.3 -1.9 -5.3 -1.8 -5.2 -1.75 -4.7 -1.75 -4.1 -1.9 -3.65 -2.0 -1.95 -2.4 -1.4 -2.4 Q-0.9 -2.45 -0.65 -2.55 L-0.55 -2.55 -0.3 -2.8 M-0.6 0.55 Q-0.85 0.65 -1.2 0.75 -1.9 0.95 -2.7 0.95 L-3.5 0.85 Q-3.0 0.8 -1.7 0.45 -1.25 0.35 -0.9 0.35 L-0.8 0.4 -0.6 0.55 M-5.25 -1.95 Q-4.9 -2.05 -4.6 -2.05 L-4.5 -2.05 -5.2 -1.95 -5.25 -1.95 M4.05 0.75 L4.0 0.6 Q4.0 0.4 4.25 0.45 L4.45 0.65 Q4.45 0.85 4.3 0.85 4.15 0.85 4.05 0.75 M3.35 0.45 Q3.65 0.4 3.65 0.7 3.65 1.05 3.35 1.05 3.15 1.05 3.05 0.9 L3.05 0.8 Q3.05 0.5 3.35 0.45 M3.85 1.65 L3.9 1.15 Q4.2 1.15 4.2 1.35 4.2 1.65 3.85 1.65 M2.7 0.85 Q2.7 1.1 2.45 1.1 2.0 1.1 2.0 0.7 2.0 0.35 2.35 0.5 2.7 0.65 2.7 0.85 M2.8 1.6 Q2.8 1.9 2.55 1.9 2.4 1.9 2.35 1.8 L2.35 1.7 Q2.35 1.45 2.6 1.4 2.8 1.35 2.8 1.6 M-1.45 1.45 Q-1.45 1.15 -1.15 1.2 -0.85 1.25 -0.85 1.45 -0.9 1.8 -1.1 1.8 -1.3 1.8 -1.4 1.65 L-1.45 1.45 M-1.75 1.75 L-2.0 1.85 Q-2.3 1.85 -2.3 1.55 -2.3 1.25 -2.0 1.3 L-1.75 1.75 M-2.75 2.55 Q-2.8 2.65 -2.95 2.65 -3.1 2.65 -3.2 2.55 L-3.25 2.45 Q-3.25 2.25 -2.95 2.2 -2.7 2.15 -2.7 2.45 -2.7 2.5 -2.75 2.55 M-1.75 2.7 L-1.5 2.25 Q-1.15 2.2 -1.15 2.45 -1.15 2.55 -1.25 2.65 -1.35 2.8 -1.45 2.8 L-1.75 2.7 M-0.3 2.25 Q-0.4 2.3 -0.55 2.3 -0.8 2.3 -0.85 2.15 L-0.9 2.0 Q-0.9 1.65 -0.55 1.7 -0.25 1.75 -0.25 2.1 -0.25 2.15 -0.3 2.25" fill="#a9854f" fill-rule="evenodd" stroke="none"/>
    <path d="M1.75 -3.1 L1.7 -3.1 Q1.7 -3.5 2.2 -3.8 2.6 -4.05 2.95 -3.95 L3.8 -3.55 Q4.3 -3.25 4.3 -3.0 L4.25 -2.85 Q4.2 -2.75 4.05 -2.75 L3.8 -3.0 3.55 -3.2 3.55 -3.25 3.25 -3.5 Q3.0 -3.7 2.9 -3.7 2.05 -3.4 1.8 -3.1 L1.75 -3.1 M2.0 -1.5 Q2.3 -1.85 2.4 -1.85 L2.9 -1.8 3.0 -1.9 Q3.35 -2.1 3.5 -2.5 L3.55 -2.4 3.6 -2.25 Q3.6 -2.05 3.55 -1.9 L3.7 -2.05 3.75 -2.2 3.75 -2.3 Q3.85 -2.55 3.95 -2.6 L4.0 -2.55 Q4.1 -2.5 4.1 -2.3 4.1 -1.5 3.55 -1.35 L3.25 -1.3 Q3.2 -1.0 2.85 -0.75 2.35 -0.45 2.05 -0.2 L1.85 -0.05 1.8 0.05 1.7 0.3 1.75 1.05 Q1.85 1.5 2.25 2.6 L2.55 3.4 Q2.7 3.5 2.7 3.65 L2.55 3.8 2.5 3.8 2.4 3.85 2.2 3.95 2.15 4.0 1.55 4.25 1.55 4.2 2.05 3.8 2.25 3.6 2.25 3.55 Q2.0 3.15 1.7 1.95 1.45 1.05 1.35 0.1 1.35 -0.45 1.4 -0.95 1.45 -1.3 1.5 -1.55 L1.55 -1.55 1.65 -0.85 Q1.75 -1.15 1.8 -1.25 L2.0 -1.5 M0.45 4.3 Q0.25 4.3 0.15 4.2 0.1 4.1 0.1 4.05 0.1 3.9 0.2 3.9 L0.6 3.9 0.75 3.9 0.85 3.85 0.9 3.85 1.2 3.8 Q1.1 3.95 0.85 4.15 0.6 4.3 0.45 4.3 M-0.4 0.15 Q-0.25 0.5 -0.25 0.6 L-0.25 0.7 -0.3 0.85 -0.4 0.6 -0.4 0.7 Q-0.45 0.65 -0.6 0.55 L-0.8 0.4 -0.9 0.35 -1.7 0.25 -3.0 0.1 -3.55 0.0 Q-3.75 -0.05 -3.8 -0.1 L-4.65 -0.05 Q-5.15 -0.05 -5.5 -0.4 -5.7 -0.6 -5.75 -0.8 L-5.9 -0.9 -5.85 -0.95 -5.4 -0.75 Q-4.95 -0.6 -4.55 -0.6 -4.75 -0.65 -4.9 -0.8 -5.1 -0.95 -5.35 -1.2 L-5.35 -1.2 Q-5.15 -0.9 -4.4 -0.9 L-4.3 -0.9 -3.75 -0.85 -3.0 -1.0 -2.85 -1.0 -2.4 -1.0 -2.05 -0.95 Q-1.5 -0.9 -1.15 -0.7 -0.65 -0.5 -0.55 -0.05 L-0.5 0.0 -0.4 0.15 M-5.3 -1.9 L-5.25 -1.95 -5.2 -1.95 -4.5 -2.05 -4.4 -2.1 Q-3.9 -2.2 -3.4 -2.35 L-2.05 -2.8 -1.65 -2.85 -0.55 -3.1 -0.45 -3.2 Q-0.3 -3.25 -0.15 -3.5 L0.0 -3.75 -0.15 -3.1 Q-0.15 -3.05 -0.25 -2.95 L-0.3 -2.8 -0.55 -2.55 -0.65 -2.55 Q-0.9 -2.45 -1.4 -2.4 L-1.95 -2.4 -3.65 -2.0 -4.1 -1.9 -4.7 -1.75 -5.2 -1.75 -5.3 -1.8 -5.3 -1.9 M2.55 -1.3 Q2.45 -1.3 2.3 -1.2 2.35 -1.15 2.35 -1.05 L2.5 -1.15 2.7 -1.3 2.55 -1.3 M2.05 -0.9 L1.95 -0.8 1.8 -0.55 1.8 -0.5 2.1 -0.8 Q2.05 -0.85 2.05 -0.9 M-3.6 -0.35 L-2.45 -0.15 -2.5 -0.2 -2.5 -0.35 -3.5 -0.4 -3.6 -0.35 M-1.95 -0.1 L-1.8 -0.05 -1.55 -0.1 -1.9 -0.15 -1.95 -0.1" fill="#111111" fill-rule="evenodd" stroke="none"/>
    <path d="M0.05 -4.0 Q-0.05 -4.25 -0.05 -4.5 -0.05 -4.9 0.15 -5.1 0.35 -5.3 0.65 -5.25 0.9 -5.2 1.15 -5.0 1.35 -4.7 1.35 -4.35 1.4 -3.95 1.35 -3.8 1.3 -3.65 1.15 -3.55 1.0 -1.7 1.0 -1.4 1.05 -0.4 1.2 0.8 1.4 1.95 1.7 3.05 1.35 2.15 0.75 -0.8 0.35 -2.9 0.25 -3.65 0.1 -3.8 0.05 -4.0 M2.75 -0.7 L2.85 -0.75 2.7 -0.5 Q2.7 0.25 3.45 0.75 L3.95 1.15 Q4.2 1.4 4.2 1.75 4.2 2.6 3.8 2.6 3.3 2.6 3.2 1.95 L3.15 1.1 Q3.05 0.65 2.65 0.25 2.35 -0.1 2.05 -0.2 L2.75 -0.7 M4.3 -0.8 Q4.55 -0.5 4.55 0.25 4.55 0.7 4.35 0.85 4.15 0.75 4.1 0.4 L4.05 -0.1 Q4.05 -1.1 4.3 -0.8 M-1.9 0.9 L-1.7 1.4 -1.6 1.8 Q-1.4 2.05 -1.4 2.9 -1.4 3.25 -1.45 3.35 -1.55 3.6 -1.9 3.6 -2.35 3.6 -2.5 3.2 L-2.55 2.8 Q-2.55 2.65 -2.45 2.4 -2.4 2.1 -2.2 1.7 L-2.15 1.55 -2.05 1.15 Q-2.1 0.95 -2.15 0.85 -2.2 0.6 -2.4 0.45 -2.5 0.35 -2.65 0.3 L-2.95 0.1 -3.0 0.1 -3.1 0.05 -3.0 0.05 -1.7 0.25 -1.25 0.3 -1.75 0.35 -1.8 0.5 -1.8 0.65 -1.9 0.9 M-3.65 1.0 Q-3.45 1.15 -3.45 1.5 -3.45 1.8 -3.5 1.95 -3.65 2.25 -4.15 2.25 -4.85 2.25 -4.85 1.55 -4.85 0.85 -4.15 0.85 -3.85 0.85 -3.65 1.0" fill="#506060" fill-rule="evenodd" stroke="none"/>
  </g>
</svg>
