<?xml version="1.0" encoding="UTF-8" standalone="no"?>
<svg xmlns:ffdec="https://www.free-decompiler.com/flash" xmlns:xlink="http://www.w3.org/1999/xlink" ffdec:objectType="shape" height="15.35px" width="12.25px" xmlns="http://www.w3.org/2000/svg">
  <g transform="matrix(1.0, 0.0, 0.0, 1.0, 7.1, 9.7)">
    <path d="M0.85 -9.4 Q2.45 -8.2 3.35 -6.6 L3.5 -6.2 3.55 -6.15 3.55 -6.05 3.6 -6.0 3.55 -6.0 Q3.7 -5.55 3.6 -5.05 L4.65 1.15 4.35 2.55 Q4.05 3.6 3.95 4.15 L3.85 4.35 Q3.6 4.95 3.6 5.2 3.45 5.2 3.4 5.1 2.2 4.55 0.75 4.6 -0.3 4.6 -1.3 4.3 -2.8 3.75 -3.8 2.55 -5.0 0.0 -5.55 -2.7 L-5.5 -2.75 Q-5.55 -3.0 -5.5 -3.35 L-5.0 -6.7 Q-4.75 -7.95 -4.35 -9.05 L-4.05 -9.35 -4.05 -9.4 Q-2.2 -9.8 -0.3 -9.65 L0.6 -9.65 Q0.75 -9.65 0.85 -9.6 L0.85 -9.4 M-0.05 -9.05 L-0.05 -9.05" fill="#c7a36d" fill-rule="evenodd" stroke="none"/>
    <path d="M3.65 -5.6 L3.55 -6.0 3.6 -6.0 Q3.7 -5.95 3.8 -6.0 3.9 -5.9 4.1 -5.9 L4.25 -5.55 4.2 -5.2 4.35 -4.9 Q4.4 -4.7 4.5 -4.0 4.5 -3.7 4.55 -3.1 L4.55 -2.65 4.6 -2.25 4.6 -2.2 4.65 -2.05 4.85 -1.3 5.05 -0.6 5.15 0.0 5.1 0.45 5.1 0.6 4.95 1.9 4.55 3.75 4.35 4.3 4.35 4.4 4.3 4.55 4.25 4.75 4.15 4.95 4.1 5.0 4.1 5.05 4.05 5.15 4.0 5.2 3.8 5.65 Q3.65 5.55 3.6 5.5 L3.6 5.2 Q3.6 5.0 3.75 4.7 L3.8 4.55 3.85 4.35 3.95 4.15 Q4.0 3.85 4.1 3.45 L4.2 2.9 4.45 1.5 4.5 0.75 4.5 0.65 4.4 0.45 4.45 -0.05 4.45 -0.3 4.4 -0.8 4.2 -1.5 4.2 -1.45 Q4.0 -1.35 3.85 -1.35 L3.7 -1.35 Q3.35 -1.4 3.2 -1.5 L3.05 -1.2 Q2.9 -0.95 2.8 -0.85 2.3 -0.25 2.1 -0.25 1.65 -0.25 1.4 -0.45 1.2 -0.55 1.15 -0.75 L1.15 -0.85 Q1.15 -1.15 1.2 -1.35 L1.15 -1.4 Q1.1 -1.45 1.1 -1.6 1.1 -1.7 1.2 -2.1 L1.3 -2.35 Q0.95 -2.1 0.55 -2.1 0.6 -1.45 0.9 -0.75 1.15 -0.2 1.6 0.45 L2.25 1.25 2.3 1.3 2.3 1.35 2.55 1.65 2.6 1.7 Q2.95 2.15 2.95 2.2 2.95 2.35 2.75 2.6 L2.75 2.65 2.7 2.8 2.65 2.75 2.6 2.8 Q2.25 3.25 2.25 3.3 2.25 3.5 1.9 3.65 L1.0 4.0 0.75 3.8 Q0.75 3.6 1.6 3.25 2.4 2.9 2.4 2.6 L2.35 2.2 Q1.75 1.5 1.45 1.1 1.05 0.5 0.9 -0.3 L0.75 -0.75 0.5 -1.55 0.25 -2.4 0.3 -2.45 0.4 -2.5 0.45 -2.6 Q0.45 -2.7 0.5 -2.8 0.55 -2.95 0.7 -3.1 L0.65 -2.8 0.95 -3.0 1.7 -3.65 Q1.85 -3.8 2.0 -4.3 2.2 -4.65 2.75 -4.45 L3.0 -4.4 Q3.2 -4.35 3.35 -4.25 L3.45 -4.25 Q3.7 -4.05 3.8 -3.85 L3.8 -3.5 3.75 -3.5 Q3.7 -3.6 3.4 -3.7 L3.35 -3.75 Q3.3 -4.15 2.5 -4.15 2.25 -3.6 2.0 -3.2 L2.4 -3.1 Q3.1 -2.75 3.1 -2.5 L3.05 -2.35 3.05 -2.25 2.7 -2.75 Q2.55 -2.8 2.1 -2.8 1.4 -2.8 1.3 -1.5 1.45 -1.8 2.1 -2.3 2.65 -2.3 2.95 -2.15 3.2 -2.15 3.2 -2.0 L3.5 -2.15 3.8 -2.4 4.0 -2.6 3.95 -2.8 3.95 -3.2 3.9 -4.15 Q3.95 -4.15 3.9 -4.2 L3.95 -4.35 3.85 -4.65 3.8 -4.7 3.8 -4.95 3.75 -5.05 3.65 -5.6 M-0.6 3.65 Q-0.85 3.6 -0.9 3.35 L-0.95 2.85 -1.05 2.95 -0.85 2.55 -0.6 2.45 Q-0.6 2.55 -0.6 2.65 L-0.65 2.9 -0.55 3.1 -0.55 3.15 -0.5 3.25 -0.2 3.05 -0.05 3.05 0.3 2.95 Q0.6 2.9 0.7 2.9 L0.75 2.95 -0.35 3.65 -0.6 3.65 M2.05 -1.85 L1.95 -1.7 2.1 -1.85 2.05 -1.85 M2.35 -1.75 L2.05 -1.7 1.95 -1.6 1.85 -1.6 1.45 -1.15 1.45 -0.7 1.6 -0.7 Q1.65 -0.65 1.75 -0.65 2.05 -0.65 2.35 -0.9 2.3 -0.95 2.25 -1.05 2.2 -1.15 2.25 -1.3 2.25 -1.55 2.35 -1.75 M0.05 -1.75 Q0.0 -1.6 -0.4 -1.55 L-0.45 -1.65 -0.35 -2.1 Q-0.25 -2.55 -0.25 -2.6 -0.25 -2.95 -0.25 -3.05 L-0.15 -2.8 Q0.1 -2.25 0.1 -2.0 L0.05 -1.75 M3.75 -1.8 L3.8 -1.8 Q3.9 -1.8 4.0 -1.85 L4.1 -1.9 4.1 -2.05 4.05 -2.2 Q3.95 -1.9 3.8 -1.8 L3.75 -1.8 M3.4 -1.25 L3.35 -1.2 3.35 -1.25 3.4 -1.25 M-6.25 -0.65 L-6.4 -0.7 -6.35 -0.7 -6.25 -0.65 M-7.1 -0.65 Q-6.4 -0.3 -6.3 -0.3 -5.55 -0.3 -5.05 -0.5 L-4.9 -0.55 Q-4.85 -0.65 -4.7 -0.75 L-4.45 -0.9 -4.15 -1.05 -3.9 -1.2 Q-3.5 -1.4 -2.85 -1.35 -2.3 -1.3 -1.75 -1.1 -1.65 -1.1 -1.5 -1.05 L-1.2 -0.85 Q-1.3 -1.05 -1.4 -1.2 -1.75 -1.75 -2.65 -1.75 L-3.85 -1.6 Q-4.4 -1.5 -4.8 -1.2 -4.2 -2.2 -3.35 -2.2 L-3.85 -2.35 Q-4.6 -2.55 -5.15 -2.25 -5.45 -2.1 -5.8 -1.85 L-5.7 -2.1 Q-5.7 -2.6 -4.4 -2.7 L-4.2 -2.7 Q-3.05 -2.75 -1.7 -2.5 L-1.6 -2.45 Q-0.8 -2.3 -0.65 -2.2 -0.5 -2.15 -0.5 -1.95 -0.5 -1.85 -0.95 -1.75 L-1.7 -1.75 -2.0 -1.8 Q-1.7 -1.6 -1.4 -1.35 -1.0 -0.95 -1.0 -0.75 L-1.0 -0.7 Q-0.9 -0.55 -0.9 -0.5 -0.9 -0.4 -0.95 -0.35 L-0.85 -0.35 Q-0.8 -0.35 -0.8 -0.25 -0.8 -0.05 -1.1 0.15 -1.4 0.3 -1.7 0.3 L-2.1 0.25 Q-2.65 0.2 -3.35 -0.1 L-3.7 -0.2 -3.85 -0.25 -3.95 -0.25 -4.5 -0.1 -4.65 0.25 Q-4.9 0.7 -5.3 0.7 L-6.1 0.55 -6.9 0.3 -6.5 0.35 -6.15 0.35 Q-5.75 0.35 -5.25 0.15 -4.8 0.0 -4.8 -0.05 L-5.25 0.0 Q-6.35 0.0 -6.65 -0.2 L-6.85 -0.45 Q-6.95 -0.55 -7.1 -0.65 M-3.15 -0.15 L-2.85 -0.1 -3.2 -0.15 -3.15 -0.15 M-3.95 -0.6 L-3.3 -0.4 -2.35 -0.05 -1.9 -0.15 -1.6 -0.25 Q-1.8 -0.3 -1.95 -0.4 -2.1 -0.5 -2.1 -0.65 L-2.05 -0.75 Q-2.05 -1.0 -1.95 -1.1 L-2.25 -1.15 Q-2.75 -1.15 -3.4 -0.85 L-3.6 -0.75 -3.95 -0.6 M-0.55 -3.5 L-0.35 -3.25 -0.6 -3.5 -0.55 -3.5" fill="#111111" fill-rule="evenodd" stroke="none"/>
    <path d="M3.35 -4.25 L3.3 -4.6 3.35 -4.55 3.55 -4.5 3.5 -4.65 Q3.25 -5.05 3.2 -5.3 L3.05 -5.3 3.0 -5.5 Q3.0 -5.6 3.05 -5.6 L3.25 -5.65 3.65 -5.6 3.75 -5.05 3.8 -4.95 3.8 -4.7 3.85 -4.65 3.95 -4.35 3.9 -4.2 Q3.95 -4.15 3.9 -4.15 L3.95 -3.2 3.95 -2.8 4.0 -2.6 3.8 -2.4 3.5 -2.15 Q3.4 -2.8 3.4 -3.7 3.7 -3.6 3.75 -3.5 L3.8 -3.5 3.8 -3.85 Q3.7 -4.05 3.45 -4.25 L3.35 -4.25 M4.5 0.75 L4.4 1.1 Q4.3 1.5 4.1 1.7 3.95 1.9 3.8 1.9 3.65 1.9 3.65 1.75 L3.65 1.6 Q3.65 1.5 3.75 1.0 L3.8 1.0 3.85 0.55 Q4.1 0.1 4.1 -0.35 3.95 -0.85 3.8 -1.1 L3.7 -1.35 3.85 -1.35 Q4.0 -1.35 4.2 -1.45 L4.2 -1.5 4.4 -0.8 4.45 -0.3 4.45 -0.05 4.4 0.45 4.5 0.65 4.5 0.75 M3.75 -1.8 L3.8 -1.8 Q3.95 -1.9 4.05 -2.2 L4.1 -2.05 4.1 -1.9 4.0 -1.85 Q3.9 -1.8 3.8 -1.8 L3.75 -1.8" fill="#c7a36d" fill-rule="evenodd" stroke="none"/>
    <path d="M2.35 -1.75 Q2.25 -1.55 2.25 -1.3 2.2 -1.15 2.25 -1.05 2.3 -0.95 2.35 -0.9 2.05 -0.65 1.75 -0.65 1.65 -0.65 1.6 -0.7 L1.45 -0.7 1.45 -1.15 1.85 -1.6 1.95 -1.6 2.05 -1.7 2.35 -1.75 M-3.95 -0.6 L-3.6 -0.75 -3.4 -0.85 Q-2.75 -1.15 -2.25 -1.15 L-1.95 -1.1 Q-2.05 -1.0 -2.05 -0.75 L-2.1 -0.65 Q-2.1 -0.5 -1.95 -0.4 -1.8 -0.3 -1.6 -0.25 L-1.9 -0.15 -2.35 -0.05 -3.3 -0.4 -3.95 -0.6" fill="#ffffff" fill-rule="evenodd" stroke="none"/>
    <path d="M1.9 3.65 Q1.9 3.85 1.65 4.0 1.35 4.25 0.9 4.25 -0.05 4.25 -0.5 3.8 L-0.6 3.65 -0.35 3.65 0.75 2.95 0.7 2.9 Q0.6 2.9 0.3 2.95 L-0.05 3.05 -0.2 3.05 -0.5 3.25 -0.55 3.15 -0.55 3.1 -0.5 3.0 Q-0.25 2.8 0.05 2.6 0.5 2.4 0.8 2.6 1.2 2.85 1.35 2.85 1.9 2.85 2.1 2.75 L2.35 2.6 2.4 2.6 Q2.4 2.9 1.6 3.25 0.75 3.6 0.75 3.8 L1.0 4.0 1.9 3.65 M2.1 0.0 Q2.55 0.15 2.75 0.2 2.7 0.25 2.55 0.3 L2.2 0.4 Q1.95 0.4 1.75 0.25 1.6 0.15 1.6 0.05 L1.6 -0.15 Q1.75 -0.15 2.1 0.0 M-1.0 0.8 Q-1.0 1.0 -1.55 1.2 -2.0 1.35 -2.2 1.35 L-2.65 1.3 Q-2.9 1.25 -2.95 1.25 -2.75 1.1 -2.3 0.95 -1.85 0.8 -1.75 0.7 -1.45 0.45 -1.2 0.5 -1.0 0.55 -1.0 0.8" fill="#a9854f" fill-rule="evenodd" stroke="none"/>
  </g>
</svg>
