<?xml version="1.0" encoding="UTF-8" standalone="no"?>
<svg xmlns:ffdec="https://www.free-decompiler.com/flash" xmlns:xlink="http://www.w3.org/1999/xlink" ffdec:objectType="shape" height="15.35px" width="11.5px" xmlns="http://www.w3.org/2000/svg">
  <g transform="matrix(1.0, 0.0, 0.0, 1.0, 6.35, 9.7)">
    <path d="M0.85 -9.4 Q2.45 -8.2 3.35 -6.6 L3.5 -6.2 3.55 -6.15 3.55 -6.05 3.6 -6.0 3.55 -6.0 Q3.7 -5.55 3.6 -5.05 L3.6 -4.95 4.3 -0.9 Q4.45 -0.15 4.45 0.5 L4.45 0.55 4.55 0.85 4.6 0.95 4.65 1.15 Q4.65 1.4 4.45 2.35 L4.35 2.55 Q4.05 3.6 3.95 4.15 L3.85 4.35 Q3.6 4.95 3.6 5.2 3.45 5.2 3.4 5.1 2.2 4.55 0.75 4.6 -0.3 4.6 -1.3 4.3 -2.8 3.75 -3.8 2.55 -5.0 0.0 -5.55 -2.7 L-5.5 -2.75 Q-5.55 -3.0 -5.5 -3.35 L-5.0 -6.7 Q-4.75 -7.95 -4.35 -9.05 L-4.05 -9.35 -4.05 -9.4 Q-2.2 -9.8 -0.3 -9.65 L0.6 -9.65 Q0.75 -9.65 0.85 -9.6 L0.85 -9.4 M-0.05 -9.05 L-0.05 -9.05" fill="#c7a36d" fill-rule="evenodd" stroke="none"/>
    <path d="M3.6 -6.0 L3.8 -6.0 Q3.9 -5.9 4.1 -5.9 L4.3 -5.45 4.3 -5.15 4.2 -5.05 4.15 -3.9 5.05 0.55 5.05 1.35 Q5.05 2.25 4.8 3.0 L4.35 4.4 4.25 4.65 4.25 4.75 4.2 4.75 4.2 4.85 4.1 5.0 4.1 5.05 4.05 5.15 4.0 5.2 3.8 5.65 Q3.65 5.55 3.6 5.5 L3.6 5.2 Q3.6 4.95 3.85 4.35 L3.95 4.15 Q4.05 3.6 4.35 2.55 L4.45 2.35 Q4.65 1.4 4.65 1.15 L4.6 0.95 4.55 0.85 Q4.5 0.6 4.35 0.3 4.15 -0.1 4.15 -0.55 L3.6 -5.05 Q3.7 -5.55 3.55 -6.0 L3.6 -6.0" fill="#111111" fill-rule="evenodd" stroke="none"/>
    <path d="M-4.95 -8.7 L-4.9 -8.7 -4.95 -8.65 -5.0 -8.65 -4.95 -8.7" fill="#c7a36d" fill-rule="evenodd" stroke="none"/>
    <path d="M2.5 4.15 L2.25 4.4 Q1.8 4.7 1.6 4.7 0.6 4.7 0.35 4.45 L0.25 4.35 0.35 4.3 1.3 3.95 1.4 3.9 0.8 3.85 0.55 3.9 0.35 3.95 0.35 3.85 Q0.6 3.5 1.45 3.45 L2.3 3.5 Q2.45 3.5 2.5 3.6 L2.35 3.75 1.9 4.1 2.0 4.15 2.0 4.2 2.25 4.2 2.45 4.15 2.5 4.15 M0.2 -4.3 Q0.9 -4.1 1.05 -3.9 1.15 -3.75 1.15 -3.3 1.15 -3.05 1.05 -2.7 0.95 -2.3 0.95 -1.95 L0.95 -1.9 Q0.65 -2.85 0.35 -3.35 0.2 -3.65 0.2 -4.3 0.2 -4.45 0.2 -4.3" fill="#a9854f" fill-rule="evenodd" stroke="none"/>
    <path d="M2.5 3.6 L2.55 3.45 Q2.55 3.35 2.3 2.95 2.05 2.55 2.05 2.4 L2.05 2.25 1.95 2.0 1.95 1.95 1.9 1.8 Q1.6 0.1 1.6 -0.25 L1.6 -0.85 Q1.6 -1.15 1.65 -1.45 L1.6 -2.15 1.65 -3.3 1.45 -3.8 Q1.7 -3.65 1.95 -2.75 L2.0 -2.7 2.0 -2.75 Q2.2 -3.25 2.6 -4.0 3.1 -4.85 3.6 -5.1 3.65 -5.35 3.75 -5.3 L3.85 -5.2 4.25 -5.15 4.3 -5.15 4.3 -4.95 Q4.3 -4.7 4.2 -4.55 L4.25 -4.3 Q5.0 -2.35 5.0 -1.45 L5.15 0.15 Q5.15 0.8 5.0 1.6 4.85 2.5 4.65 2.95 L4.55 2.9 4.55 2.75 4.6 2.15 4.7 1.55 Q4.7 0.7 4.55 -0.25 4.6 -0.45 4.6 -0.8 4.6 -1.25 4.45 -1.95 L4.4 -1.9 Q4.25 -1.75 4.1 -1.75 L3.85 -1.8 3.9 -1.35 Q3.9 -0.8 3.75 -0.65 3.6 -0.4 2.95 -0.4 2.55 -0.4 2.4 -0.45 L2.4 -0.55 2.55 -0.6 2.6 -0.6 Q2.9 -0.6 3.3 -1.05 L3.25 -1.05 Q3.0 -1.05 2.9 -1.35 L2.85 -1.5 2.3 -1.2 2.25 -1.2 2.2 -1.25 Q2.2 -1.05 2.2 -0.9 2.25 -0.7 2.35 -0.6 L2.4 -0.5 2.35 -0.5 2.5 -0.1 2.55 0.0 Q2.4 0.1 2.3 0.2 L2.45 1.15 2.6 1.8 2.6 2.0 2.7 2.5 2.7 2.55 Q3.0 3.1 3.0 3.5 3.0 3.65 2.8 3.85 2.7 4.05 2.5 4.15 L2.45 4.15 2.25 4.2 2.0 4.2 2.0 4.15 1.9 4.1 2.35 3.75 2.5 3.6 M0.35 4.3 L0.25 4.35 0.05 4.3 -0.1 3.9 Q-0.05 3.65 0.1 3.5 0.2 3.55 0.3 3.7 L0.35 3.85 0.35 3.95 0.55 3.9 0.8 3.85 1.4 3.9 1.3 3.95 0.35 4.3 M3.3 -4.3 Q3.2 -4.2 3.15 -3.95 L2.95 -3.6 Q2.7 -3.15 2.5 -2.75 L2.6 -2.75 3.2 -2.5 Q3.6 -2.3 3.8 -2.3 L4.3 -2.5 Q4.1 -3.3 3.85 -3.8 3.55 -4.45 3.3 -4.3 M2.4 -1.8 L2.4 -1.8 M-5.45 -2.5 L-5.8 -2.4 -5.85 -2.45 Q-5.35 -3.65 -3.4 -3.0 -1.05 -2.0 0.0 -1.8 L0.0 -2.3 Q0.0 -2.65 -0.05 -2.85 L0.45 -2.15 Q0.6 -1.85 0.6 -1.5 0.6 -1.25 0.4 -1.15 0.15 -1.0 -0.3 -1.0 -0.4 -0.95 -0.45 -0.95 -0.75 -0.95 -1.05 -1.2 -1.6 -1.4 -2.3 -1.85 -3.6 -2.7 -4.35 -2.7 L-4.75 -2.7 -5.05 -2.6 -5.45 -2.5 M-4.45 0.1 L-4.65 0.1 Q-4.9 0.05 -5.05 -0.1 L-5.0 -0.25 -4.95 -0.3 -4.9 -0.3 -4.2 -0.8 Q-4.05 -1.15 -3.5 -1.25 -2.75 -1.65 -2.3 -1.5 -1.75 -1.45 -1.25 -1.0 L-0.8 -0.5 -0.7 -0.45 Q-0.5 -0.35 -0.4 -0.25 L-0.3 -0.2 -0.25 -0.15 -0.25 0.0 Q-0.3 0.0 -0.35 0.05 L-0.65 0.05 -0.7 0.1 Q-1.0 0.05 -1.2 -0.1 L-1.3 -0.1 -1.35 0.0 Q-1.45 0.15 -1.65 0.2 L-2.0 0.25 -2.25 0.05 Q-2.35 0.0 -2.45 -0.15 -2.5 -0.3 -2.5 -0.45 L-2.5 -0.6 -2.75 -0.6 Q-3.2 -0.55 -3.7 -0.25 L-3.95 -0.05 -3.65 0.1 Q-3.55 0.15 -3.5 0.2 L-3.25 0.35 Q-3.15 0.4 -3.05 0.4 -3.0 0.45 -2.9 0.5 L-2.9 0.55 -3.0 0.6 -3.15 0.6 -3.25 0.65 Q-3.4 0.65 -3.5 0.6 L-3.45 0.6 -3.5 0.65 -3.85 0.5 -3.95 0.45 Q-4.1 0.4 -4.3 0.25 L-4.35 0.15 -4.35 0.1 -4.4 0.1 -4.45 0.1 M-1.3 -0.1 L-1.25 -0.1 -1.3 -0.15 -1.3 -0.1" fill="#111111" fill-rule="evenodd" stroke="none"/>
    <path d="M2.4 -1.8 L2.4 -1.8 M2.55 -0.6 Q2.4 -0.65 2.3 -0.95 L2.25 -1.2 2.3 -1.2 2.85 -1.5 2.9 -1.35 Q3.0 -1.05 3.25 -1.05 L3.3 -1.05 Q2.9 -0.6 2.6 -0.6 L2.55 -0.6 M-1.35 0.0 Q-1.4 0.1 -1.6 0.25 -1.9 0.5 -2.2 0.5 L-2.4 0.5 -2.45 0.5 -2.5 0.5 -2.55 0.55 -2.9 0.55 -2.9 0.5 Q-3.0 0.45 -3.05 0.4 -3.15 0.4 -3.25 0.35 L-3.5 0.2 Q-3.55 0.15 -3.65 0.1 L-3.95 -0.05 -3.7 -0.25 Q-3.2 -0.55 -2.75 -0.6 L-2.5 -0.6 -2.5 -0.45 Q-2.5 -0.3 -2.45 -0.15 -2.35 0.0 -2.25 0.05 L-2.0 0.25 -1.65 0.2 Q-1.45 0.15 -1.35 0.0 M-1.3 -0.1 L-1.3 -0.15 -1.25 -0.1 -1.3 -0.1" fill="#ffffff" fill-rule="evenodd" stroke="none"/>
    <path d="M4.55 -0.25 Q4.45 -0.05 4.3 0.05 L4.25 0.05 4.25 0.1 Q3.8 -0.2 3.6 -0.3 L3.5 -0.4 3.1 -0.3 2.8 -0.2 2.8 0.0 2.5 -0.1 2.6 0.0 2.55 0.0 2.5 -0.1 2.35 -0.5 2.4 -0.5 2.35 -0.6 Q2.25 -0.7 2.2 -0.9 2.2 -1.05 2.2 -1.25 L2.25 -1.2 2.3 -0.95 Q2.4 -0.65 2.55 -0.6 L2.4 -0.55 2.4 -0.45 Q2.55 -0.4 2.95 -0.4 3.6 -0.4 3.75 -0.65 3.9 -0.8 3.9 -1.35 L3.85 -1.8 4.1 -1.75 Q4.25 -1.75 4.4 -1.9 L4.45 -1.95 Q4.6 -1.25 4.6 -0.8 4.6 -0.45 4.55 -0.25 M3.3 -4.3 Q3.55 -4.45 3.85 -3.8 4.1 -3.3 4.3 -2.5 L3.8 -2.3 Q3.6 -2.3 3.2 -2.5 L2.6 -2.75 2.5 -2.75 Q2.7 -3.15 2.95 -3.6 L3.15 -3.95 Q3.2 -4.2 3.3 -4.3 M0.4 -1.15 Q0.45 -0.95 0.45 -0.6 L0.45 -0.45 0.7 0.45 0.9 1.3 Q0.9 1.5 0.9 1.4 L0.85 1.45 Q0.75 1.2 0.4 0.8 L-0.3 0.1 -0.35 0.1 -0.35 0.15 Q-0.35 0.4 -0.95 0.9 -1.55 1.45 -2.05 1.45 -3.65 1.45 -4.3 1.0 -4.95 1.2 -5.2 1.8 -5.4 2.3 -5.4 2.85 L-5.25 3.6 Q-5.85 3.0 -6.15 1.6 -6.35 0.55 -6.35 -0.55 -6.35 -2.05 -5.45 -2.5 L-5.05 -2.6 -4.75 -2.7 -4.35 -2.7 Q-3.6 -2.7 -2.3 -1.85 -1.6 -1.4 -1.05 -1.2 -0.75 -0.95 -0.45 -0.95 -0.4 -0.95 -0.3 -1.0 0.15 -1.0 0.4 -1.15 M-1.3 -0.1 L-1.2 -0.1 Q-1.0 0.05 -0.7 0.1 L-0.65 0.05 -0.35 0.05 Q-0.3 0.0 -0.25 0.0 L-0.25 -0.15 -0.3 -0.2 -0.4 -0.25 Q-0.5 -0.35 -0.7 -0.45 L-0.8 -0.5 -1.25 -1.0 Q-1.75 -1.45 -2.3 -1.5 -2.75 -1.65 -3.5 -1.25 -4.05 -1.15 -4.2 -0.8 L-4.9 -0.3 -4.95 -0.3 -5.0 -0.25 -5.05 -0.1 Q-4.9 0.05 -4.65 0.1 L-4.45 0.1 -4.4 0.15 -4.4 0.1 -4.35 0.1 -4.35 0.15 -4.3 0.25 Q-4.1 0.4 -3.95 0.45 L-3.85 0.5 -3.5 0.65 -3.45 0.6 -3.5 0.6 Q-3.4 0.65 -3.25 0.65 L-3.15 0.6 -3.0 0.6 -2.9 0.55 -2.55 0.55 -2.5 0.5 -2.45 0.5 -2.4 0.55 -2.4 0.5 -2.2 0.5 Q-1.9 0.5 -1.6 0.25 -1.4 0.1 -1.35 0.0 L-1.3 -0.1" fill="#506060" fill-rule="evenodd" stroke="none"/>
  </g>
</svg>
