<?xml version="1.0" encoding="UTF-8" standalone="no"?>
<svg xmlns:ffdec="https://www.free-decompiler.com/flash" xmlns:xlink="http://www.w3.org/1999/xlink" ffdec:objectType="shape" height="15.35px" width="10.6px" xmlns="http://www.w3.org/2000/svg">
  <g transform="matrix(1.0, 0.0, 0.0, 1.0, 5.55, 9.7)">
    <path d="M0.85 -9.4 Q2.45 -8.2 3.35 -6.6 L3.5 -6.2 3.55 -6.15 3.55 -6.05 3.6 -6.0 3.55 -6.0 Q3.7 -5.55 3.6 -5.05 L3.6 -4.95 3.8 -4.05 4.05 -2.35 4.45 0.5 4.45 0.55 4.55 0.85 4.6 0.95 4.65 1.15 Q4.65 1.4 4.45 2.35 L4.35 2.55 Q4.05 3.6 3.95 4.15 L3.85 4.35 Q3.6 4.95 3.6 5.2 3.45 5.2 3.4 5.1 2.2 4.55 0.75 4.6 -0.3 4.6 -1.3 4.3 -2.8 3.75 -3.8 2.55 -5.0 0.0 -5.55 -2.7 L-5.5 -2.75 Q-5.55 -3.0 -5.5 -3.35 L-5.0 -6.7 Q-4.75 -7.95 -4.35 -9.05 L-4.05 -9.35 -4.05 -9.4 Q-2.2 -9.8 -0.3 -9.65 L0.6 -9.65 Q0.75 -9.65 0.85 -9.6 L0.85 -9.4 M0.75 3.85 L0.8 3.8 0.75 3.8 0.75 3.85 M-0.05 -9.05 L-0.05 -9.05" fill="#c7a36d" fill-rule="evenodd" stroke="none"/>
    <path d="M-4.95 -8.65 L-5.0 -8.65 -4.95 -8.7 -4.9 -8.7 -4.95 -8.65" fill="#c7a36d" fill-rule="evenodd" stroke="none"/>
    <path d="M3.8 -3.55 L3.75 -3.4 Q3.7 -3.25 3.6 -3.15 L3.5 -3.15 3.8 -3.55 M3.8 -2.4 Q3.9 -2.2 3.9 -1.85 3.9 -1.7 3.85 -1.55 3.75 -1.3 3.6 -1.3 L3.5 -1.3 3.5 -1.35 Q3.7 -1.45 3.75 -1.75 3.8 -1.8 3.8 -2.2 L3.8 -2.4 M2.1 -0.95 Q2.05 -0.95 2.0 -1.3 L2.0 -1.6 2.3 -1.85 Q2.1 -1.35 2.1 -0.95 M1.45 -2.45 L1.4 -2.4 Q1.35 -2.3 1.2 -2.3 1.0 -2.3 1.0 -2.35 L0.95 -2.5 0.95 -2.8 Q0.95 -3.3 1.25 -3.55 1.4 -3.4 1.4 -3.1 1.45 -2.8 1.5 -2.7 L1.45 -2.45 M0.4 -0.85 L0.4 -0.25 Q0.35 -0.1 0.1 -0.05 L-0.25 -0.05 -0.25 -0.15 -0.35 -0.25 -0.65 -0.45 -0.8 -0.5 -1.25 -1.05 -0.95 -0.95 Q-0.3 -0.7 0.1 -0.75 L0.4 -0.85 M-2.45 0.6 Q-2.6 0.9 -3.2 0.95 -4.1 1.1 -4.4 0.65 -4.6 0.45 -4.65 0.1 L-4.55 0.15 -4.5 0.15 -4.3 0.15 -4.25 0.15 -4.25 0.2 -4.15 0.25 Q-4.0 0.45 -3.85 0.5 L-3.75 0.55 -3.4 0.7 -3.35 0.65 -3.4 0.65 Q-3.3 0.7 -3.2 0.7 L-3.05 0.7 -2.9 0.65 -2.85 0.6 -2.45 0.6 M-4.9 -0.25 Q-5.05 -0.5 -5.15 -1.1 L-5.15 -1.4 -4.65 -1.4 Q-4.5 -1.45 -4.15 -1.7 -3.5 -1.8 -2.7 -1.6 -3.0 -1.55 -3.4 -1.3 -3.9 -1.2 -4.1 -0.8 L-4.75 -0.35 -4.75 -0.3 -4.8 -0.35 -4.9 -0.25 M3.2 3.05 L3.2 3.15 Q3.2 3.3 2.9 3.75 2.55 4.2 2.35 4.2 1.9 4.2 1.6 4.1 1.35 4.0 1.25 3.85 L1.3 3.85 Q2.45 3.85 2.75 3.7 2.85 3.65 2.85 3.55 L2.9 3.55 3.05 3.25 3.2 3.05" fill="#a9854f" fill-rule="evenodd" stroke="none"/>
    <path d="M2.0 -1.6 L1.95 -1.55 1.7 -1.55 1.45 -1.7 1.45 -2.25 1.65 -2.35 1.8 -2.25 1.85 -2.15 Q2.0 -2.35 2.6 -3.2 L2.7 -3.35 Q3.2 -3.9 3.75 -4.05 L3.8 -3.55 3.5 -3.15 3.6 -3.15 3.85 -3.1 4.1 -2.8 3.75 -2.6 3.8 -2.45 3.8 -2.4 3.8 -2.2 Q3.8 -1.8 3.75 -1.75 3.7 -1.45 3.5 -1.35 3.45 -1.3 3.4 -1.3 L3.5 -1.55 3.55 -1.6 3.55 -1.8 3.5 -1.65 Q3.45 -1.5 3.35 -1.5 3.25 -1.4 3.1 -1.4 L3.0 -1.45 2.9 -1.6 2.9 -1.7 2.65 -1.4 2.65 -1.35 Q2.5 -1.2 2.45 -1.05 L2.35 -0.8 2.1 -0.75 2.1 -0.95 Q2.1 -1.35 2.3 -1.85 L2.0 -1.6 M-5.15 -1.4 L-5.2 -1.35 Q-5.25 -1.4 -5.25 -1.55 L-5.2 -1.7 Q-5.15 -1.85 -4.85 -2.05 -4.5 -2.25 -4.25 -2.3 -3.35 -2.85 -2.15 -2.2 L-1.45 -1.8 -1.15 -1.65 Q-0.4 -1.4 -0.05 -1.45 L0.05 -1.65 Q0.1 -1.8 0.2 -1.8 L0.25 -2.1 0.4 -2.15 0.6 -1.9 0.65 -1.85 0.65 -1.75 0.7 -1.6 Q0.7 -1.3 0.6 -1.2 L0.5 -0.9 0.4 -0.85 0.1 -0.75 Q-0.3 -0.7 -0.95 -0.95 L-1.25 -1.05 -0.8 -0.5 -0.65 -0.45 -0.35 -0.25 -0.25 -0.15 -0.25 -0.05 -0.25 0.0 Q-0.3 0.05 -0.4 0.1 L-0.7 0.1 Q-0.95 0.1 -1.2 -0.05 L-1.25 -0.1 -1.3 -0.05 -1.3 0.0 Q-1.4 0.2 -1.65 0.25 L-1.95 0.25 -2.15 0.05 Q-2.3 0.0 -2.35 -0.15 -2.45 -0.3 -2.4 -0.45 L-2.4 -0.65 -2.7 -0.6 Q-3.1 -0.55 -3.6 -0.25 L-3.85 -0.05 -3.55 0.1 -3.4 0.25 -3.15 0.35 -3.15 0.4 Q-3.05 0.4 -2.95 0.45 L-2.85 0.55 -2.85 0.6 -2.9 0.65 -3.05 0.7 -3.2 0.7 Q-3.3 0.7 -3.4 0.65 L-3.35 0.65 -3.4 0.7 -3.75 0.55 -3.85 0.5 Q-4.0 0.45 -4.15 0.25 L-4.25 0.2 -4.25 0.15 -4.3 0.15 -4.5 0.15 Q-4.8 0.1 -4.9 -0.1 L-4.9 -0.25 -4.8 -0.35 -4.75 -0.3 -4.75 -0.35 -4.1 -0.8 Q-3.9 -1.2 -3.4 -1.3 -3.0 -1.55 -2.7 -1.6 -3.5 -1.8 -4.15 -1.7 -4.5 -1.45 -4.65 -1.4 L-5.15 -1.4 M3.6 -2.15 L3.6 -2.55 3.5 -2.45 3.55 -2.35 3.55 -2.25 3.6 -2.1 3.6 -2.15 M1.25 3.85 L1.25 3.8 1.0 3.75 Q0.95 3.85 0.95 3.7 0.95 3.25 1.8 3.2 L2.4 3.25 2.7 3.3 2.85 3.05 3.1 2.75 3.1 2.7 Q3.1 2.6 3.15 2.55 L3.25 2.55 Q3.35 2.65 3.35 2.85 L3.2 3.05 3.05 3.25 2.9 3.55 2.85 3.55 Q2.85 3.65 2.75 3.7 2.45 3.85 1.3 3.85 L1.25 3.85 M3.5 3.95 L3.55 3.8 3.55 3.85 3.5 3.95" fill="#111111" fill-rule="evenodd" stroke="none"/>
    <path d="M3.5 -1.55 Q3.25 -1.1 2.65 -1.05 L2.45 -1.05 Q2.5 -1.2 2.65 -1.35 L2.7 -1.4 2.65 -1.4 2.9 -1.7 2.9 -1.6 3.0 -1.45 3.1 -1.4 Q3.25 -1.4 3.35 -1.5 3.45 -1.5 3.5 -1.65 L3.55 -1.8 3.55 -1.6 3.5 -1.55 M-1.25 -0.1 L-1.3 -0.05 -1.25 -0.1 M-1.3 0.0 Q-1.35 0.15 -1.55 0.3 -1.85 0.55 -2.15 0.55 L-2.4 0.6 -2.45 0.6 -2.85 0.6 -2.85 0.55 -2.95 0.45 Q-3.05 0.4 -3.15 0.4 L-3.15 0.35 -3.4 0.25 -3.55 0.1 -3.85 -0.05 -3.6 -0.25 Q-3.1 -0.55 -2.7 -0.6 L-2.4 -0.65 -2.4 -0.45 Q-2.45 -0.3 -2.35 -0.15 -2.3 0.0 -2.15 0.05 L-1.95 0.25 -1.65 0.25 Q-1.4 0.2 -1.3 0.0 M3.6 -2.15 L3.6 -2.1 3.55 -2.25 3.55 -2.35 3.5 -2.45 3.6 -2.55 3.6 -2.15" fill="#ffffff" fill-rule="evenodd" stroke="none"/>
    <path d="M3.6 -6.0 L3.8 -6.0 Q3.9 -5.9 4.1 -5.9 L4.3 -5.45 4.3 -5.15 4.2 -5.05 4.1 -4.8 Q4.1 -4.4 4.15 -3.9 4.45 -3.0 4.6 -1.95 L4.6 -1.9 Q4.85 -0.95 4.9 0.0 L4.95 0.2 Q5.0 0.3 5.05 0.55 L5.05 1.35 Q5.05 2.25 4.8 3.0 L4.35 4.4 4.25 4.65 4.25 4.75 4.2 4.75 4.2 4.85 4.1 5.0 4.1 5.05 4.05 5.15 4.0 5.2 3.8 5.65 Q3.65 5.55 3.6 5.5 L3.6 5.2 Q3.6 4.95 3.85 4.35 L3.95 4.15 Q4.05 3.6 4.35 2.55 L4.45 2.35 Q4.65 1.4 4.65 1.15 L4.6 0.95 4.55 0.85 Q4.5 0.6 4.35 0.3 4.15 -0.1 4.15 -0.55 L4.05 -1.35 Q4.0 -1.5 3.95 -1.65 L4.0 -1.7 3.85 -2.35 Q3.6 -3.35 3.55 -4.35 L3.55 -4.8 3.6 -5.05 Q3.7 -5.55 3.55 -6.0 L3.6 -6.0" fill="#111111" fill-rule="evenodd" stroke="none"/>
  </g>
</svg>
