<?xml version="1.0" encoding="UTF-8" standalone="no"?>
<svg xmlns:ffdec="https://www.free-decompiler.com/flash" xmlns:xlink="http://www.w3.org/1999/xlink" ffdec:objectType="shape" height="15.35px" width="13.5px" xmlns="http://www.w3.org/2000/svg">
  <g transform="matrix(1.0, 0.0, 0.0, 1.0, 6.05, 9.7)">
    <path d="M0.85 -9.4 Q2.45 -8.2 3.35 -6.6 L3.5 -6.2 3.55 -6.15 3.55 -6.05 3.6 -6.0 3.55 -6.0 Q3.7 -5.55 3.6 -5.05 L4.65 1.15 4.35 2.55 Q4.05 3.6 3.95 4.15 L3.85 4.35 Q3.6 4.95 3.6 5.2 3.45 5.2 3.4 5.1 2.2 4.55 0.75 4.6 -0.3 4.6 -1.3 4.3 -2.8 3.75 -3.8 2.55 -5.0 0.0 -5.55 -2.7 L-5.5 -2.75 Q-5.55 -3.0 -5.5 -3.35 L-5.0 -6.7 Q-4.75 -7.95 -4.35 -9.05 L-4.05 -9.35 -4.05 -9.4 Q-2.2 -9.8 -0.3 -9.65 L0.6 -9.65 Q0.75 -9.65 0.85 -9.6 L0.85 -9.4 M-0.05 -9.05 L-0.05 -9.05" fill="#c7a36d" fill-rule="evenodd" stroke="none"/>
    <path d="M3.5 -4.3 L3.4 -4.6 Q3.3 -4.85 3.3 -5.2 3.3 -5.65 3.45 -5.65 3.55 -5.65 3.65 -5.45 L3.8 -4.7 Q3.95 -3.95 3.95 -3.2 L3.95 -2.65 3.85 -2.7 3.85 -3.05 Q3.85 -3.8 3.65 -4.2 3.75 -4.2 3.8 -4.1 L3.9 -4.1 Q3.7 -4.3 3.5 -4.3 M4.4 1.9 Q4.2 2.4 3.9 2.8 L3.8 2.55 Q3.75 2.35 3.75 2.25 L3.8 0.75 Q3.9 -0.55 3.9 -1.25 3.9 -1.45 4.0 -1.55 L4.1 -1.5 4.2 -1.5 Q4.3 -1.1 4.4 -0.8 L4.45 -0.3 4.45 -0.05 4.4 0.45 4.5 0.65 4.5 0.75 4.45 1.5 4.4 1.9 M7.45 -0.15 L7.45 -0.1 7.35 -0.1 7.45 -0.15" fill="#c7a36d" fill-rule="evenodd" stroke="none"/>
    <path d="M3.75 -1.65 L3.75 -1.5 Q3.75 -1.15 3.45 -0.8 L3.35 -0.7 3.5 -0.9 3.45 -1.0 3.4 -1.0 Q3.45 -0.85 3.25 -0.75 3.0 -0.65 2.7 -0.65 2.5 -0.65 2.4 -0.85 L2.45 -1.05 Q2.55 -1.35 2.65 -1.55 L2.75 -1.6 2.9 -1.35 2.85 -1.3 Q2.85 -1.2 2.85 -1.15 2.9 -1.0 3.15 -1.0 3.15 -0.95 3.25 -0.95 L3.5 -1.15 3.5 -1.2 3.55 -1.35 3.55 -1.75 3.75 -1.65 M-3.2 0.75 Q-3.5 0.6 -3.85 0.35 L-3.8 0.3 Q-2.85 0.25 -2.05 -0.05 L-2.05 0.05 Q-2.05 0.15 -1.95 0.25 -1.85 0.45 -1.7 0.45 -1.35 0.45 -1.25 0.2 -1.2 0.15 -1.2 -0.2 -1.2 -0.35 -1.25 -0.45 L-1.1 -0.55 Q-1.0 -0.25 -0.85 -0.15 L-1.15 0.2 -1.4 0.5 -1.65 0.65 -2.55 0.7 -3.1 0.75 -3.2 0.75 M-1.9 -0.9 L-1.9 -0.85 -1.95 -0.85 -1.9 -0.9" fill="#ffffff" fill-rule="evenodd" stroke="none"/>
    <path d="M2.0 -1.5 L2.0 -1.55 Q1.95 -1.8 2.0 -2.1 L2.1 -1.7 2.0 -1.5 M2.1 -3.15 L2.15 -3.1 2.15 -3.05 2.1 -3.1 2.1 -3.15 M3.65 -4.2 Q3.85 -3.8 3.85 -3.05 L3.85 -2.7 Q3.7 -2.65 3.55 -2.5 3.35 -2.35 3.05 -2.35 2.9 -2.35 2.7 -2.45 L2.65 -2.5 Q3.1 -3.2 3.25 -3.2 3.4 -3.2 3.55 -3.05 L3.7 -2.9 3.7 -2.95 Q3.45 -3.7 3.05 -3.5 L3.15 -3.85 Q3.15 -3.95 3.3 -4.05 3.45 -4.2 3.65 -4.2 M0.7 -1.75 L0.75 -1.8 0.75 -1.7 Q0.75 -1.5 0.35 -0.85 L0.3 -0.75 0.35 -0.35 0.35 -0.25 Q0.55 0.45 0.55 1.0 L0.5 1.6 0.45 1.6 0.3 1.15 0.3 1.25 Q0.45 1.65 0.55 1.85 L0.45 1.85 Q0.35 1.45 -0.4 0.7 L-0.55 0.5 -0.55 0.25 -0.35 0.2 Q-0.2 0.2 -0.05 0.3 L0.1 0.45 0.3 0.75 0.35 0.7 0.35 0.55 Q0.35 0.3 0.2 -0.05 0.0 -0.5 -0.25 -0.8 -0.55 -1.1 -0.8 -1.2 L-0.95 -1.5 -1.1 -1.65 0.15 -1.6 0.45 -1.6 0.7 -1.75 M-2.6 -0.6 Q-2.95 -0.65 -3.2 -0.75 -3.6 -0.95 -3.7 -0.95 -4.7 -0.95 -5.2 -0.7 L-5.7 -0.4 -5.85 -0.45 -5.85 -0.6 Q-5.85 -1.15 -5.15 -1.5 L-5.05 -1.6 -5.55 -1.1 -4.7 -1.6 Q-4.2 -1.85 -3.9 -1.85 L-3.75 -1.8 Q-3.8 -1.75 -3.8 -1.65 -3.8 -1.5 -3.75 -1.55 L-3.7 -1.6 -3.25 -1.8 -2.3 -1.75 -1.7 -1.15 -1.75 -1.05 -1.9 -0.95 -1.85 -0.95 -1.9 -0.9 -1.95 -0.85 -2.0 -0.8 -2.5 -0.65 -2.6 -0.6 M3.2 3.65 L2.95 4.05 Q2.6 4.55 2.3 4.55 1.6 4.55 1.15 4.35 L0.9 4.25 1.5 3.85 1.6 3.85 Q1.7 3.85 1.95 3.65 2.2 3.45 2.2 3.35 L2.2 3.25 2.15 3.2 1.95 3.2 2.0 3.2 Q2.55 2.95 2.85 2.95 L2.85 3.0 Q2.85 3.05 2.5 3.4 2.05 3.8 2.0 3.95 L2.1 3.9 2.05 3.95 Q2.65 3.9 3.05 3.7 L3.2 3.65 M1.05 3.7 L1.1 3.65 Q1.3 3.55 1.45 3.45 1.35 3.5 1.2 3.65 L1.05 3.7" fill="#a9854f" fill-rule="evenodd" stroke="none"/>
    <path d="M3.65 -5.45 L3.65 -5.6 3.55 -6.0 3.8 -6.0 Q3.9 -5.9 4.1 -5.9 L4.25 -5.55 4.2 -5.2 4.35 -4.9 Q4.4 -4.7 4.5 -4.0 4.5 -3.7 4.55 -3.1 L4.55 -2.55 4.8 -2.6 5.2 -2.65 4.8 -2.25 4.8 -2.1 4.75 -2.0 Q5.15 -2.0 5.3 -2.1 L5.5 -2.05 4.95 -1.75 4.75 -1.65 5.05 -0.6 5.15 0.0 5.1 0.45 5.1 0.75 4.95 1.9 4.55 3.75 4.35 4.3 4.35 4.4 4.3 4.55 4.25 4.75 4.15 4.95 4.1 5.0 4.1 5.05 4.05 5.15 4.0 5.2 3.8 5.65 Q3.65 5.55 3.6 5.5 L3.6 5.2 Q3.6 4.95 3.85 4.35 L3.95 4.15 Q4.0 3.85 4.1 3.45 L4.2 2.9 4.4 1.9 4.45 1.5 4.5 0.75 4.5 0.65 4.4 0.45 4.45 -0.05 4.45 -0.3 4.4 -0.8 Q4.3 -1.1 4.2 -1.5 L4.1 -1.5 4.0 -1.55 3.75 -1.65 3.55 -1.75 3.55 -1.35 3.5 -1.2 3.5 -1.15 3.25 -0.95 Q3.15 -0.95 3.15 -1.0 2.9 -1.0 2.85 -1.15 2.85 -1.2 2.85 -1.3 L2.9 -1.35 2.75 -1.6 2.65 -1.55 Q2.55 -1.35 2.45 -1.05 L2.4 -0.85 Q2.5 -0.65 2.7 -0.65 3.0 -0.65 3.25 -0.75 3.45 -0.85 3.4 -1.0 L3.45 -1.0 3.5 -0.9 3.35 -0.7 Q3.2 -0.5 2.95 -0.3 L2.45 0.1 2.3 0.0 2.15 -0.3 2.0 -0.7 Q1.9 -1.05 1.9 -1.35 L2.0 -1.5 2.1 -1.7 2.0 -2.1 1.95 -2.35 1.7 -3.5 1.75 -3.7 1.85 -3.75 Q2.05 -3.5 2.1 -3.15 L2.1 -3.1 2.15 -3.05 2.2 -3.0 Q2.4 -3.5 2.8 -3.95 3.2 -4.35 3.5 -4.3 3.7 -4.3 3.9 -4.1 L3.8 -4.1 Q3.75 -4.2 3.65 -4.2 3.45 -4.2 3.3 -4.05 3.15 -3.95 3.15 -3.85 L3.05 -3.5 Q3.45 -3.7 3.7 -2.95 L3.7 -2.9 3.55 -3.05 Q3.4 -3.2 3.25 -3.2 3.1 -3.2 2.65 -2.5 L2.7 -2.45 Q2.9 -2.35 3.05 -2.35 3.35 -2.35 3.55 -2.5 3.7 -2.65 3.85 -2.7 L3.95 -2.65 3.95 -3.2 Q3.95 -3.95 3.8 -4.7 L3.65 -5.45 M-5.05 -1.6 L-4.85 -1.75 Q-4.1 -2.35 -3.7 -2.35 L-3.5 -2.35 -2.55 -2.25 -1.45 -2.2 -1.0 -2.2 0.0 -2.25 0.15 -2.25 Q0.4 -2.75 0.4 -3.65 L0.45 -3.65 Q0.45 -3.3 0.6 -2.75 0.75 -2.25 0.75 -1.9 L0.7 -1.75 0.45 -1.6 0.15 -1.6 -1.1 -1.65 -0.95 -1.5 -0.8 -1.2 Q-0.55 -1.1 -0.25 -0.8 0.0 -0.5 0.2 -0.05 0.35 0.3 0.35 0.55 L0.35 0.7 0.3 0.75 0.1 0.45 -0.05 0.3 Q-0.2 0.2 -0.35 0.2 L-0.55 0.25 -0.55 0.5 Q-0.65 0.6 -0.8 0.75 L-1.25 1.0 Q-1.3 1.1 -1.35 1.15 L-1.75 1.2 Q-2.35 1.2 -3.0 0.9 L-3.85 0.55 -3.9 0.5 Q-3.7 0.5 -3.5 0.6 -3.35 0.7 -3.2 0.75 L-3.1 0.75 -2.55 0.7 -1.65 0.65 -1.4 0.5 -1.15 0.2 -0.85 -0.15 Q-1.0 -0.25 -1.1 -0.55 L-1.25 -0.45 Q-1.2 -0.35 -1.2 -0.2 -1.2 0.15 -1.25 0.2 -1.35 0.45 -1.7 0.45 -1.85 0.45 -1.95 0.25 -2.05 0.15 -2.05 0.05 L-2.05 -0.05 Q-2.85 0.25 -3.8 0.3 L-4.2 0.55 Q-5.05 1.05 -5.5 1.2 -5.6 1.35 -5.6 1.15 -5.6 1.05 -5.4 0.9 L-4.85 0.35 Q-5.6 0.5 -5.95 0.7 -6.05 0.8 -6.05 0.65 -6.05 0.6 -5.75 0.45 L-5.8 0.45 Q-5.6 0.3 -5.45 0.1 L-5.25 -0.15 Q-5.05 -0.45 -4.4 -0.45 -3.4 -0.45 -2.6 -0.6 L-2.5 -0.65 -2.0 -0.8 -1.95 -0.85 -1.9 -0.85 -1.9 -0.9 -1.85 -0.95 -1.9 -0.95 -1.75 -1.05 -1.7 -1.15 -2.3 -1.75 -3.25 -1.8 -3.7 -1.6 -3.75 -1.55 Q-3.8 -1.5 -3.8 -1.65 -3.8 -1.75 -3.75 -1.8 L-3.9 -1.85 Q-4.2 -1.85 -4.7 -1.6 L-5.55 -1.1 -5.05 -1.6 M2.85 2.95 L2.55 1.25 2.6 1.25 3.1 2.35 3.35 2.8 Q3.55 3.0 3.55 3.25 3.55 3.45 3.2 3.65 L3.05 3.7 Q2.65 3.9 2.05 3.95 L2.1 3.9 2.0 3.95 Q2.05 3.8 2.5 3.4 2.85 3.05 2.85 3.0 L2.85 2.95 M0.9 4.25 Q0.6 4.25 0.5 4.0 L0.45 3.75 Q0.45 3.6 0.5 3.55 L0.6 3.4 0.95 3.7 1.05 3.7 1.2 3.65 Q1.35 3.5 1.45 3.45 L1.55 3.4 Q1.75 3.25 1.95 3.2 L2.15 3.2 2.2 3.25 2.2 3.35 Q2.2 3.45 1.95 3.65 1.7 3.85 1.6 3.85 L1.5 3.85 0.9 4.25 M-0.75 0.35 L-1.05 0.65 -1.1 0.65 -0.9 0.5 -0.75 0.35 M-1.2 0.8 L-1.2 0.8" fill="#111111" fill-rule="evenodd" stroke="none"/>
  </g>
</svg>
