<?xml version="1.0" encoding="UTF-8" standalone="no"?>
<svg xmlns:ffdec="https://www.free-decompiler.com/flash" xmlns:xlink="http://www.w3.org/1999/xlink" ffdec:objectType="shape" height="15.35px" width="11.4px" xmlns="http://www.w3.org/2000/svg">
  <g transform="matrix(1.0, 0.0, 0.0, 1.0, 6.25, 9.7)">
    <path d="M0.85 -9.4 Q2.45 -8.2 3.35 -6.6 L3.5 -6.2 3.55 -6.15 3.55 -6.05 3.6 -6.0 3.55 -6.0 Q3.7 -5.55 3.6 -5.05 L4.65 1.15 4.35 2.55 Q4.05 3.6 3.95 4.15 L3.85 4.35 Q3.6 4.95 3.6 5.2 3.45 5.2 3.4 5.1 2.2 4.55 0.75 4.6 -0.3 4.6 -1.3 4.3 -2.8 3.75 -3.8 2.55 -5.0 0.0 -5.55 -2.7 L-5.5 -2.75 Q-5.55 -3.0 -5.5 -3.35 L-5.0 -6.7 Q-4.75 -7.95 -4.35 -9.05 L-4.05 -9.35 -4.05 -9.4 Q-2.2 -9.8 -0.3 -9.65 L0.6 -9.65 Q0.75 -9.65 0.85 -9.6 L0.85 -9.4 M-0.05 -9.05 L-0.05 -9.05" fill="#c7a36d" fill-rule="evenodd" stroke="none"/>
    <path d="M3.65 -5.6 L3.55 -6.0 3.8 -6.0 Q3.9 -5.9 4.1 -5.9 L4.25 -5.55 4.2 -5.2 4.35 -4.9 Q4.4 -4.7 4.5 -4.0 4.5 -3.7 4.55 -3.1 L4.55 -2.65 4.6 -2.25 4.6 -2.2 4.65 -2.05 4.85 -1.3 5.05 -0.6 5.15 0.0 5.1 0.45 5.1 0.6 4.95 1.9 4.55 3.75 4.35 4.3 4.35 4.4 4.3 4.55 4.25 4.75 4.15 4.95 4.1 5.0 4.1 5.05 4.05 5.15 4.0 5.2 3.8 5.65 Q3.65 5.55 3.6 5.5 L3.6 5.2 Q3.6 4.95 3.85 4.35 L3.95 4.15 Q4.0 3.85 4.1 3.45 L4.2 2.9 4.45 1.5 4.5 0.75 4.5 0.65 4.4 0.45 4.45 -0.05 4.45 -0.3 4.4 -0.8 Q4.25 -1.25 4.1 -2.05 L4.1 -2.1 4.05 -2.0 Q3.95 -1.55 3.7 -1.4 L3.4 -1.4 Q3.55 -1.15 3.55 -0.7 3.55 -0.3 3.45 0.0 3.25 0.55 2.9 0.55 2.45 0.55 2.05 0.15 L1.7 -0.35 1.75 -0.4 1.8 -0.45 Q1.95 -0.35 2.15 -0.15 2.25 0.0 2.55 0.0 2.85 -0.05 3.05 -0.35 2.7 -0.35 2.6 -0.65 L2.55 -0.9 Q2.55 -1.25 2.7 -1.45 2.8 -1.6 2.95 -1.6 L2.75 -1.65 Q2.35 -1.65 2.05 -1.3 L2.0 -1.2 1.7 -0.85 1.6 -0.75 1.6 -0.85 1.6 -0.9 Q1.6 -1.15 1.65 -1.4 L1.6 -1.35 1.5 -1.35 1.55 -0.95 1.65 -0.5 1.8 0.8 Q1.95 1.95 2.4 2.6 L2.7 3.0 Q2.8 3.15 2.8 3.3 2.8 3.5 2.25 4.0 1.65 4.55 1.3 4.55 L1.1 4.5 0.95 4.45 Q1.0 4.35 1.7 3.95 2.35 3.6 2.35 3.4 L2.35 3.35 1.95 2.8 Q1.55 2.1 1.45 1.45 1.3 -0.15 1.3 -0.5 1.3 -0.7 1.35 -1.1 L1.4 -1.35 Q1.35 -1.4 1.35 -1.5 1.35 -1.65 1.55 -1.95 L1.55 -2.05 1.75 -2.3 Q2.1 -2.85 2.6 -3.3 3.1 -3.75 3.45 -3.9 L3.45 -3.95 Q3.85 -4.1 3.85 -3.65 L3.85 -3.45 3.8 -3.3 3.65 -3.45 Q3.55 -3.55 3.45 -3.55 L3.4 -3.55 Q3.1 -3.45 2.55 -2.45 L2.4 -2.25 2.65 -2.3 3.1 -2.25 3.25 -2.2 3.35 -2.15 3.5 -2.05 3.55 -2.05 3.55 -2.1 3.8 -2.4 3.9 -2.7 3.95 -2.75 3.95 -3.2 Q3.95 -3.95 3.8 -4.7 3.75 -5.25 3.65 -5.6 M0.4 4.5 L0.35 4.55 Q0.1 4.55 0.0 4.1 L-0.1 3.7 -0.05 3.45 0.1 3.3 Q0.15 3.35 0.15 3.55 0.15 3.9 0.3 4.05 0.95 3.7 1.2 3.65 L1.25 3.65 1.3 3.7 1.35 3.7 0.85 4.15 0.4 4.5 M-0.05 -0.7 L-0.15 -0.7 -0.35 -0.7 Q-0.6 -0.7 -1.15 -0.9 L-0.65 -0.35 -0.6 -0.25 -0.6 -0.1 -0.7 -0.05 -0.8 -0.05 -0.95 -0.1 Q-0.9 0.05 -0.9 0.15 L-0.95 0.4 Q-1.0 0.55 -1.15 0.55 L-1.2 0.6 Q-1.5 0.6 -1.7 0.5 L-1.9 0.3 Q-2.0 0.15 -2.0 0.0 -2.0 -0.3 -1.9 -0.45 L-2.7 -0.55 -3.25 -0.45 Q-3.6 -0.35 -3.9 -0.2 L-3.95 -0.15 Q-3.7 0.2 -3.2 0.5 -2.5 1.0 -1.9 0.95 L-1.75 0.95 -1.55 0.85 -1.5 0.85 -1.3 0.7 -1.15 0.65 -1.1 0.6 -1.4 1.15 Q-1.65 1.45 -2.2 1.45 -2.75 1.5 -3.7 0.65 -4.35 0.1 -4.45 -0.1 L-4.55 -0.05 Q-5.05 -0.05 -5.65 -0.55 L-5.65 -0.6 -5.35 -0.5 -5.05 -0.45 -4.15 -0.65 -4.0 -0.7 -3.8 -0.8 Q-3.15 -1.2 -2.4 -1.35 L-2.85 -1.5 -2.9 -1.5 -4.15 -1.55 -4.5 -1.55 -4.85 -1.45 -4.9 -1.45 -6.05 -1.2 -6.0 -1.2 -5.95 -1.25 Q-4.15 -2.25 -3.0 -1.95 L-2.55 -1.8 -2.05 -1.65 Q-1.45 -1.4 -1.0 -1.35 L-0.5 -1.35 -0.1 -1.4 -0.05 -1.4 0.2 -1.3 0.3 -1.2 0.35 -1.2 0.35 -0.85 0.3 -0.85 0.3 -0.8 0.25 -0.8 0.2 -0.75 -0.05 -0.7" fill="#111111" fill-rule="evenodd" stroke="none"/>
    <path d="M3.45 -3.9 Q3.4 -4.4 3.2 -4.9 L3.0 -5.5 Q3.0 -5.6 3.05 -5.6 L3.25 -5.65 3.65 -5.6 Q3.75 -5.25 3.8 -4.7 3.95 -3.95 3.95 -3.2 L3.95 -2.75 3.9 -2.7 3.8 -2.4 3.55 -2.1 3.55 -2.05 3.5 -2.55 Q3.7 -2.9 3.7 -3.0 L3.65 -3.45 3.8 -3.3 3.85 -3.45 3.85 -3.65 Q3.85 -4.1 3.45 -3.95 L3.45 -3.9 M4.5 0.75 L4.4 1.1 Q4.3 1.5 4.1 1.7 3.95 1.9 3.8 1.9 3.65 1.9 3.65 1.75 L3.65 1.6 Q3.65 1.5 3.75 1.0 3.9 0.55 3.9 0.2 3.9 -0.7 3.7 -1.4 3.95 -1.55 4.05 -2.0 L4.1 -2.1 4.1 -2.05 Q4.25 -1.25 4.4 -0.8 L4.45 -0.3 4.45 -0.05 4.4 0.45 4.5 0.65 4.5 0.75" fill="#c7a36d" fill-rule="evenodd" stroke="none"/>
    <path d="M1.6 -0.85 L1.55 -0.95 1.5 -1.35 1.6 -1.35 1.65 -1.4 Q1.6 -1.15 1.6 -0.9 L1.6 -0.85 M1.1 4.5 L0.85 4.55 0.4 4.5 0.85 4.15 1.35 3.7 1.3 3.7 2.15 3.35 2.35 3.35 2.35 3.4 Q2.35 3.6 1.7 3.95 1.0 4.35 0.95 4.45 L1.1 4.5 M1.55 -1.95 L1.55 -2.05 1.55 -1.95 M3.65 -3.45 L3.7 -3.0 Q3.7 -2.9 3.5 -2.55 L3.35 -2.35 3.25 -2.2 3.1 -2.25 2.65 -2.3 2.4 -2.25 2.55 -2.45 Q3.1 -3.45 3.4 -3.55 L3.45 -3.55 Q3.55 -3.55 3.65 -3.45 M0.3 -1.2 L0.4 -1.35 Q0.8 -2.15 0.8 -3.3 L0.9 -2.8 0.95 -2.4 Q0.9 -1.9 0.8 -1.45 0.6 -0.55 0.15 -0.55 -0.05 -0.55 -0.05 -0.7 L0.2 -0.75 0.25 -0.8 0.3 -0.8 0.3 -0.85 0.35 -0.85 0.35 -1.2 0.3 -1.2 M-0.15 -0.7 Q-0.4 -0.4 -0.65 -0.35 L-1.15 -0.9 Q-0.6 -0.7 -0.35 -0.7 L-0.15 -0.7 M-4.15 -0.65 L-5.1 -0.8 Q-6.25 -0.95 -6.25 -1.15 L-5.95 -1.25 -6.05 -1.2 -6.0 -1.2 -6.05 -1.2 -4.9 -1.45 -4.85 -1.45 -4.5 -1.55 -4.15 -1.55 -2.9 -1.5 -2.85 -1.5 -2.4 -1.35 Q-3.15 -1.2 -3.8 -0.8 L-4.0 -0.7 -4.15 -0.65" fill="#a9854f" fill-rule="evenodd" stroke="none"/>
    <path d="M1.75 -0.4 L1.6 -0.65 1.6 -0.75 1.7 -0.85 2.0 -1.2 2.05 -1.3 Q2.35 -1.65 2.75 -1.65 L2.95 -1.6 Q2.8 -1.6 2.7 -1.45 2.55 -1.25 2.55 -0.9 L2.6 -0.65 Q2.7 -0.35 3.05 -0.35 2.85 -0.05 2.55 0.0 2.25 0.0 2.15 -0.15 1.95 -0.35 1.8 -0.45 L1.75 -0.4 M-1.15 0.55 L-1.15 0.65 -1.3 0.7 -1.5 0.85 -1.55 0.85 -1.75 0.95 -1.9 0.95 Q-2.5 1.0 -3.2 0.5 -3.7 0.2 -3.95 -0.15 L-3.9 -0.2 Q-3.6 -0.35 -3.25 -0.45 L-2.7 -0.55 -1.9 -0.45 Q-2.0 -0.3 -2.0 0.0 -2.0 0.15 -1.9 0.3 L-1.7 0.5 Q-1.5 0.6 -1.2 0.6 L-1.15 0.55" fill="#ffffff" fill-rule="evenodd" stroke="none"/>
  </g>
</svg>
