<?xml version="1.0" encoding="UTF-8" standalone="no"?>
<svg xmlns:ffdec="https://www.free-decompiler.com/flash" xmlns:xlink="http://www.w3.org/1999/xlink" ffdec:objectType="shape" height="15.35px" width="10.6px" xmlns="http://www.w3.org/2000/svg">
  <g transform="matrix(1.0, 0.0, 0.0, 1.0, 5.55, 9.7)">
    <path d="M0.85 -9.4 Q2.45 -8.2 3.35 -6.6 L3.5 -6.2 3.55 -6.15 3.55 -6.05 3.6 -6.0 3.55 -6.0 Q3.7 -5.55 3.6 -5.05 L3.6 -4.95 Q3.7 -4.65 3.8 -4.05 L4.45 0.5 4.45 0.55 4.55 0.85 4.6 0.95 4.65 1.15 Q4.65 1.4 4.45 2.35 L4.35 2.55 Q4.05 3.6 3.95 4.15 L3.85 4.35 Q3.6 4.95 3.6 5.2 3.45 5.2 3.4 5.1 2.2 4.55 0.75 4.6 -0.3 4.6 -1.3 4.3 -2.8 3.75 -3.8 2.55 -5.0 0.0 -5.55 -2.7 L-5.5 -2.75 Q-5.55 -3.0 -5.5 -3.35 L-5.0 -6.7 Q-4.75 -7.95 -4.35 -9.05 L-4.05 -9.35 -4.05 -9.4 Q-2.2 -9.8 -0.3 -9.65 L0.6 -9.65 Q0.75 -9.65 0.85 -9.6 L0.85 -9.4 M0.75 3.85 L0.8 3.8 0.75 3.8 0.75 3.85 M-0.05 -9.05 L-0.05 -9.05" fill="#c7a36d" fill-rule="evenodd" stroke="none"/>
    <path d="M-4.95 -8.65 L-5.0 -8.65 -4.95 -8.7 -4.9 -8.7 -4.95 -8.65" fill="#c7a36d" fill-rule="evenodd" stroke="none"/>
    <path d="M3.6 -3.75 L3.6 -3.15 Q3.75 -2.9 3.75 -2.8 L3.75 -2.65 3.7 -2.65 3.45 -2.7 3.4 -2.7 Q2.95 -2.75 2.65 -2.35 2.4 -2.15 2.25 -1.8 2.1 -1.5 2.0 -1.25 1.95 -0.95 1.95 -0.65 L1.95 -0.6 Q1.9 -0.65 1.85 -0.7 1.7 -0.9 1.6 -2.05 1.55 -2.75 1.55 -3.45 1.55 -3.9 1.65 -4.15 L1.8 -4.4 1.9 -4.55 Q2.85 -4.7 3.2 -4.3 L3.35 -4.05 3.4 -3.95 3.45 -3.9 Q3.5 -3.8 3.6 -3.75 M3.65 -2.4 L3.7 -2.4 3.65 -2.4 M3.75 -2.3 L3.95 -2.05 4.1 -1.55 Q4.1 -1.35 4.0 -1.1 3.85 -0.8 3.6 -0.8 L3.35 -0.75 3.35 -0.95 3.3 -1.0 3.4 -1.0 Q3.55 -1.15 3.6 -1.35 L3.65 -1.8 3.65 -2.05 3.6 -2.2 3.75 -2.3 M-0.2 -2.25 Q-0.1 -2.1 0.0 -1.9 L0.15 -1.35 Q0.35 -1.2 0.35 -0.55 L0.3 -0.25 Q0.25 -0.05 0.0 -0.05 L-0.3 0.0 -0.3 -0.15 -0.4 -0.15 -0.45 -0.25 -0.75 -0.45 -0.9 -0.5 -1.35 -1.0 Q-1.8 -1.5 -2.35 -1.55 -2.8 -1.7 -3.5 -1.3 -4.05 -1.25 -4.2 -0.85 L-4.9 -0.4 -4.95 -0.4 Q-5.0 -0.4 -5.05 -0.35 -5.2 -0.6 -5.3 -1.15 L-5.35 -1.95 -5.25 -2.1 -5.2 -2.05 -5.1 -2.05 -4.7 -2.25 -4.55 -2.3 -4.35 -2.3 -3.05 -2.35 -2.85 -2.3 -1.95 -2.2 -1.9 -2.2 -1.2 -2.1 -0.35 -2.15 -0.2 -2.25 M-2.6 0.5 L-2.6 0.55 Q-2.7 0.8 -3.3 0.9 -4.2 0.95 -4.55 0.55 -4.75 0.3 -4.8 0.05 L-4.65 0.05 -4.45 0.05 -4.4 0.05 -4.3 0.15 Q-4.15 0.35 -3.95 0.4 -3.9 0.45 -3.85 0.5 L-3.55 0.65 -3.5 0.6 -3.5 0.55 Q-3.4 0.65 -3.3 0.6 L-3.15 0.6 -3.0 0.55 -2.95 0.5 -2.6 0.5 M-4.55 -2.8 L-4.45 -2.85 -4.35 -2.85 -4.55 -2.8 M3.2 3.05 L3.2 3.15 Q3.2 3.3 2.9 3.75 2.55 4.2 2.35 4.2 1.9 4.2 1.6 4.1 1.35 4.0 1.25 3.85 L1.3 3.85 Q2.45 3.85 2.75 3.7 2.85 3.65 2.85 3.55 L2.9 3.55 3.05 3.25 3.2 3.05" fill="#a9854f" fill-rule="evenodd" stroke="none"/>
    <path d="M3.6 -3.75 Q3.5 -3.8 3.45 -3.9 L3.4 -3.95 3.35 -4.05 3.2 -4.3 Q2.85 -4.7 1.9 -4.55 L1.8 -4.4 1.65 -4.15 1.45 -4.05 1.3 -4.05 1.3 -4.2 1.4 -4.35 1.35 -4.55 Q1.35 -5.1 1.95 -5.3 2.4 -5.4 2.8 -5.25 3.85 -4.9 3.85 -4.05 L3.75 -3.65 Q3.65 -3.65 3.6 -3.75 M1.95 -0.6 L1.95 -0.65 Q1.95 -0.95 2.0 -1.25 2.1 -1.5 2.25 -1.8 L2.4 -2.0 Q2.5 -2.2 2.65 -2.35 2.95 -2.75 3.4 -2.7 L3.45 -2.7 3.7 -2.65 3.75 -2.65 3.8 -2.6 3.8 -2.55 3.7 -2.55 3.6 -2.4 3.65 -2.4 3.7 -2.4 3.95 -2.4 3.95 -2.35 3.75 -2.3 3.6 -2.2 3.65 -2.05 3.65 -1.8 3.6 -1.35 Q3.55 -1.15 3.4 -1.0 L3.3 -1.0 3.25 -0.95 3.35 -1.2 3.4 -1.3 3.4 -1.45 3.35 -1.25 Q3.3 -1.15 3.15 -1.1 L2.95 -1.05 Q2.9 -1.05 2.8 -1.1 L2.7 -1.25 2.7 -1.35 2.5 -1.05 2.45 -1.0 2.3 -0.7 2.15 -0.45 1.95 -0.45 1.95 -0.6 M-0.3 0.0 L-0.35 0.0 Q-0.35 0.05 -0.45 0.1 L-0.8 0.1 Q-1.05 0.05 -1.3 -0.05 L-1.35 -0.1 -1.4 -0.05 -1.4 0.0 Q-1.5 0.2 -1.75 0.2 L-2.05 0.25 -2.3 0.05 Q-2.4 -0.05 -2.5 -0.2 -2.55 -0.35 -2.55 -0.5 L-2.55 -0.65 -2.8 -0.65 Q-3.25 -0.6 -3.75 -0.3 L-4.0 -0.15 -3.7 0.05 -3.5 0.15 -3.3 0.3 -3.25 0.35 -3.1 0.4 Q-3.0 0.45 -2.95 0.5 L-3.0 0.55 -3.15 0.6 -3.3 0.6 Q-3.4 0.65 -3.5 0.55 L-3.5 0.6 -3.55 0.65 -3.85 0.5 Q-3.9 0.45 -3.95 0.4 -4.15 0.35 -4.3 0.15 L-4.4 0.05 -4.45 0.05 -4.65 0.05 Q-4.95 0.0 -5.05 -0.2 L-5.05 -0.35 Q-5.0 -0.4 -4.95 -0.4 L-4.9 -0.4 -4.2 -0.85 Q-4.05 -1.25 -3.5 -1.3 -2.8 -1.7 -2.35 -1.55 -1.8 -1.5 -1.35 -1.0 L-0.9 -0.5 -0.75 -0.45 -0.45 -0.25 -0.4 -0.15 -0.3 -0.15 -0.3 0.0 M-5.25 -2.1 Q-5.2 -2.4 -4.85 -2.6 L-4.6 -2.75 -4.55 -2.8 -4.35 -2.85 Q-3.75 -3.15 -2.95 -3.05 L-1.8 -2.75 -1.25 -2.65 -0.7 -2.7 -0.35 -3.05 Q0.0 -2.95 0.0 -2.65 0.0 -2.4 -0.2 -2.25 L-0.35 -2.15 -1.2 -2.1 -1.9 -2.2 -1.95 -2.2 -2.85 -2.3 -3.05 -2.35 -4.35 -2.3 -4.55 -2.3 -4.7 -2.25 -5.1 -2.05 -5.2 -2.05 -5.25 -2.1 M3.35 -1.9 L3.4 -1.9 3.4 -1.75 3.45 -2.15 3.35 -2.1 3.3 -2.05 3.35 -1.95 3.35 -1.9 M1.25 3.85 L1.25 3.8 1.0 3.75 Q0.95 3.85 0.95 3.7 0.95 3.25 1.8 3.2 L2.4 3.25 2.7 3.3 2.85 3.05 3.1 2.75 3.1 2.7 Q3.1 2.6 3.15 2.55 L3.25 2.55 Q3.35 2.65 3.35 2.85 L3.2 3.05 3.05 3.25 2.9 3.55 2.85 3.55 Q2.85 3.65 2.75 3.7 2.45 3.85 1.3 3.85 L1.25 3.85 M3.5 3.95 L3.55 3.8 3.55 3.85 3.5 3.95" fill="#111111" fill-rule="evenodd" stroke="none"/>
    <path d="M3.35 -1.2 Q3.05 -0.75 2.5 -0.7 L2.3 -0.7 2.45 -1.0 2.5 -1.05 2.7 -1.35 2.7 -1.25 2.8 -1.1 Q2.9 -1.05 2.95 -1.05 L3.15 -1.1 Q3.3 -1.15 3.35 -1.25 L3.4 -1.45 3.4 -1.3 3.35 -1.2 M-1.35 -0.1 L-1.4 -0.05 -1.35 -0.1 M-1.4 0.0 Q-1.45 0.1 -1.65 0.25 -1.95 0.5 -2.25 0.5 L-2.6 0.5 -2.95 0.5 Q-3.0 0.45 -3.1 0.4 L-3.25 0.35 -3.3 0.3 -3.5 0.15 -3.7 0.05 -4.0 -0.15 -3.75 -0.3 Q-3.25 -0.6 -2.8 -0.65 L-2.55 -0.65 -2.55 -0.5 Q-2.55 -0.35 -2.5 -0.2 -2.4 -0.05 -2.3 0.05 L-2.05 0.25 -1.75 0.2 Q-1.5 0.2 -1.4 0.0 M3.35 -1.9 L3.35 -1.95 3.3 -2.05 3.35 -2.1 3.45 -2.15 3.4 -1.75 3.4 -1.9 3.35 -1.9 M-1.25 0.25 L-1.25 0.25" fill="#ffffff" fill-rule="evenodd" stroke="none"/>
    <path d="M3.6 -6.0 L3.8 -6.0 Q3.9 -5.9 4.1 -5.9 L4.3 -5.45 4.3 -5.15 4.2 -5.05 4.1 -4.8 Q4.1 -4.4 4.15 -3.9 4.45 -3.0 4.6 -1.95 L4.6 -1.9 Q4.85 -0.95 4.9 0.0 L4.95 0.2 Q5.0 0.3 5.05 0.55 L5.05 1.35 Q5.05 2.25 4.8 3.0 L4.35 4.4 4.25 4.65 4.25 4.75 4.2 4.75 4.2 4.85 4.1 5.0 4.1 5.05 4.05 5.15 4.0 5.2 3.8 5.65 Q3.65 5.55 3.6 5.5 L3.6 5.2 Q3.6 4.95 3.85 4.35 L3.95 4.15 Q4.05 3.6 4.35 2.55 L4.45 2.35 Q4.65 1.4 4.65 1.15 L4.6 0.95 4.55 0.85 Q4.5 0.6 4.35 0.3 4.15 -0.1 4.15 -0.55 L4.05 -1.35 Q4.0 -1.5 3.95 -1.65 L4.0 -1.7 3.85 -2.35 Q3.6 -3.35 3.55 -4.35 L3.55 -4.8 3.6 -5.05 Q3.7 -5.55 3.55 -6.0 L3.6 -6.0" fill="#111111" fill-rule="evenodd" stroke="none"/>
  </g>
</svg>
