<?xml version="1.0" encoding="UTF-8" standalone="no"?>
<svg xmlns:ffdec="https://www.free-decompiler.com/flash" xmlns:xlink="http://www.w3.org/1999/xlink" ffdec:objectType="shape" height="15.15px" width="13.75px" xmlns="http://www.w3.org/2000/svg">
  <g transform="matrix(1.0, 0.0, 0.0, 1.0, 3.75, 8.85)">
    <path d="M8.9 -4.55 L9.0 -4.25 Q9.1 -4.1 9.15 -3.35 L9.2 -3.15 9.15 -3.15 9.15 -3.1 9.2 -3.05 9.2 -2.9 9.25 -2.55 Q9.25 -2.1 9.2 -1.7 L9.2 -1.6 9.05 -1.5 9.1 -1.55 9.05 -1.1 8.8 0.15 8.5 1.2 8.2 2.2 8.25 2.2 8.25 2.45 Q8.25 3.35 8.0 4.15 7.7 5.3 7.05 6.3 L6.7 6.3 6.75 6.25 6.65 6.25 6.55 6.3 6.4 6.25 5.15 6.2 5.5 6.1 Q3.7 6.05 1.95 5.3 L1.95 5.35 1.9 5.25 Q1.2 4.95 0.5 4.55 -0.55 3.9 -1.25 3.25 -1.6 2.85 -1.75 2.55 L-2.3 2.15 Q-2.55 1.8 -2.8 1.4 L-2.85 1.25 Q-3.45 0.2 -3.65 -0.9 -3.7 -1.3 -3.75 -1.75 L-3.75 -2.35 Q-3.75 -4.65 -2.35 -6.25 -2.0 -6.7 -1.7 -6.9 1.25 -9.25 4.45 -8.8 7.8 -8.3 8.75 -4.85 L8.9 -4.55" fill="#c7a36d" fill-rule="evenodd" stroke="none"/>
    <path d="M8.9 -4.55 L9.55 -4.7 9.65 -4.8 9.65 -4.65 9.9 -4.15 9.85 -4.15 Q9.9 -4.0 9.95 -3.15 10.05 -2.75 10.0 -2.35 L9.95 -2.3 10.0 -1.85 Q9.8 -1.0 9.65 -0.5 L9.65 -0.45 9.5 -0.05 Q9.1 1.0 8.85 2.15 8.8 3.2 8.5 4.15 8.3 4.9 7.9 5.65 L7.7 6.1 7.05 6.3 Q7.7 5.3 8.0 4.15 8.25 3.35 8.25 2.45 L8.25 2.2 8.55 1.25 8.5 1.2 8.8 0.15 9.05 -1.1 9.1 -1.55 9.15 -1.55 9.2 -1.6 9.2 -1.7 Q9.25 -2.1 9.25 -2.55 L9.2 -2.9 9.2 -3.05 9.15 -3.1 9.15 -3.15 9.2 -3.15 9.15 -3.35 Q9.1 -4.1 9.0 -4.25 L8.9 -4.55" fill="#1a1a1a" fill-rule="evenodd" stroke="none"/>
    <path d="M8.5 1.2 L8.55 1.25 8.25 2.2 8.2 2.2 8.5 1.2" fill="#a9854f" fill-rule="evenodd" stroke="none"/>
    <path d="M0.4 -0.05 L1.3 -0.05 Q1.8 0.0 2.25 0.15 2.9 0.35 2.9 0.6 2.9 0.8 2.55 1.15 2.1 1.65 1.4 1.65 -0.05 1.65 -0.75 1.25 -1.2 1.0 -1.2 0.65 L-1.1 0.5 -0.95 0.35 -0.75 0.25 -0.6 0.2 -0.6 0.35 Q-0.7 0.45 -0.7 0.55 -0.7 0.7 -0.65 0.75 L-0.6 1.0 0.0 1.05 Q0.05 1.05 0.2 0.8 0.3 0.6 0.3 0.45 L0.3 0.1 -0.35 0.1 0.4 -0.05 M8.25 0.85 L8.3 0.7 8.3 0.6 8.25 0.6 8.2 0.4 Q8.5 0.5 8.5 0.65 8.5 0.85 8.3 1.05 7.95 1.35 7.25 1.35 5.9 1.35 5.9 0.8 5.9 0.3 7.2 0.3 L7.85 0.3 Q7.7 0.35 7.5 0.5 L7.5 1.0 7.6 1.0 7.9 1.05 Q8.15 1.05 8.2 0.9 L8.25 0.85" fill="#ffffff" fill-rule="evenodd" stroke="none"/>
    <path d="M0.4 -0.05 L-0.35 0.1 0.3 0.1 0.3 0.45 Q0.3 0.6 0.2 0.8 0.05 1.05 0.0 1.05 L-0.6 1.0 -0.65 0.75 Q-0.7 0.7 -0.7 0.55 -0.7 0.45 -0.6 0.35 L-0.6 0.2 -0.75 0.25 -0.95 0.35 -1.1 0.5 -1.2 0.65 Q-1.2 1.0 -0.75 1.25 -0.05 1.65 1.4 1.65 2.1 1.65 2.55 1.15 2.9 0.8 2.9 0.6 2.9 0.35 2.25 0.15 1.8 0.0 1.3 -0.05 L0.4 -0.05 M1.95 -0.3 L1.95 -0.35 Q2.65 -0.4 3.4 -0.35 L3.45 -0.3 3.45 -0.2 Q3.45 -0.05 3.15 0.1 3.3 0.25 3.3 0.5 3.3 1.0 3.0 1.45 2.6 2.1 1.7 2.1 L1.1 2.05 Q-0.35 1.85 -0.9 1.6 -1.25 1.4 -1.35 1.15 -1.5 0.95 -1.5 0.65 -1.5 0.1 -0.75 -0.2 -0.15 -0.45 0.85 -0.45 L1.95 -0.3 M4.45 -3.35 Q4.4 -3.85 4.6 -3.7 4.75 -3.6 4.8 -3.35 L4.8 -2.55 4.85 -2.05 4.85 -2.0 7.3 -1.8 Q8.65 -1.6 9.1 -1.45 9.2 -1.4 9.25 -1.35 L9.3 -1.25 9.3 -1.15 Q9.3 -0.95 9.25 -0.65 9.15 -0.35 9.05 -0.25 9.0 -0.25 8.95 -0.15 L8.75 -0.15 7.95 -0.3 7.55 -0.4 6.8 -0.45 5.95 -0.5 5.85 -0.55 5.8 -0.45 5.55 0.15 5.5 0.35 5.55 0.3 5.7 0.2 Q5.65 0.1 5.65 0.0 5.65 -0.2 5.8 -0.2 6.0 -0.25 6.5 0.0 L6.65 0.0 7.2 -0.1 Q7.85 -0.15 8.3 0.0 8.8 0.2 8.8 0.6 8.8 1.1 8.7 1.35 L8.4 1.6 Q8.1 1.8 7.6 1.85 6.35 1.85 5.75 1.45 5.5 1.25 5.4 1.05 L5.45 1.55 5.45 1.7 Q5.5 1.9 5.65 2.0 L5.9 2.65 6.95 4.6 7.0 4.6 7.05 4.65 Q7.1 4.7 7.1 4.8 7.1 5.0 6.4 5.4 5.65 5.8 5.0 5.8 L4.85 5.8 4.75 5.7 Q4.75 5.8 4.75 5.65 L4.05 5.5 Q3.7 5.4 3.5 5.55 L3.3 5.55 Q3.25 5.55 3.25 5.45 L3.25 5.3 Q3.25 5.05 4.1 5.1 4.65 5.15 5.0 5.35 L5.2 5.3 5.45 5.15 Q6.0 4.85 6.45 4.7 6.2 4.5 5.85 4.05 5.25 3.3 5.2 2.85 L4.95 1.85 Q4.8 1.25 4.8 0.8 L4.85 0.55 Q4.9 0.35 5.0 -0.25 5.0 -0.5 5.15 -0.65 L4.85 -0.65 4.6 -0.6 -0.65 -0.55 -0.75 -0.55 -1.2 -0.5 -1.25 -0.5 -2.0 -0.4 -2.05 -0.45 -2.15 -0.4 Q-2.25 -0.4 -2.35 -0.45 -2.5 -0.55 -2.55 -0.75 -2.65 -0.9 -2.65 -1.05 -2.65 -1.45 -1.1 -1.75 0.15 -1.95 1.95 -2.1 L3.3 -2.1 4.45 -2.05 4.45 -2.6 4.45 -3.35 M9.7 -1.85 L9.7 -1.6 Q9.7 -1.35 9.55 -1.1 L9.4 -0.9 9.65 -2.2 Q9.7 -2.1 9.7 -2.0 L9.7 -1.85 M8.25 0.85 L8.2 0.9 Q8.15 1.05 7.9 1.05 L7.6 1.0 7.5 1.0 7.5 0.5 Q7.7 0.35 7.85 0.3 L7.2 0.3 Q5.9 0.3 5.9 0.8 5.9 1.35 7.25 1.35 7.95 1.35 8.3 1.05 8.5 0.85 8.5 0.65 8.5 0.5 8.2 0.4 L8.25 0.6 8.3 0.6 8.3 0.7 8.25 0.85" fill="#1a1a1a" fill-rule="evenodd" stroke="none"/>
    <path d="M2.15 6.05 L2.2 6.1 2.2 6.2 2.15 6.05" fill="#c7a36d" fill-rule="evenodd" stroke="none"/>
    <path d="M1.95 -0.3 L0.85 -0.45 Q-0.15 -0.45 -0.75 -0.2 -1.5 0.1 -1.5 0.65 -1.5 0.95 -1.35 1.15 -1.25 1.4 -0.9 1.6 -0.35 1.85 1.1 2.05 L1.7 2.1 Q2.6 2.1 3.0 1.45 3.3 1.0 3.3 0.5 3.3 0.25 3.15 0.1 3.45 -0.05 3.45 -0.2 L3.45 -0.3 3.4 -0.35 Q2.65 -0.4 1.95 -0.35 L1.95 -0.3 M4.45 -2.6 L4.35 -2.65 3.0 -2.65 2.95 -2.6 2.85 -2.7 Q2.8 -2.75 2.8 -2.8 2.8 -3.05 2.9 -3.15 3.05 -3.4 3.45 -3.35 L4.45 -3.35 4.45 -2.6 M4.8 -3.35 L4.85 -3.35 5.35 -3.4 Q5.85 -3.4 6.0 -3.25 L6.1 -3.1 6.1 -2.95 6.0 -2.8 Q5.9 -2.7 5.85 -2.7 L5.85 -2.6 Q5.85 -2.55 5.8 -2.5 L5.7 -2.5 4.8 -2.55 4.8 -3.35 M8.75 -0.15 L8.9 -0.05 Q8.85 0.05 8.85 0.25 L8.85 0.5 8.9 0.6 8.8 0.6 Q8.8 0.2 8.3 0.0 7.85 -0.15 7.2 -0.1 L6.65 0.0 6.5 0.0 Q6.0 -0.25 5.8 -0.2 5.65 -0.2 5.65 0.0 5.65 0.1 5.7 0.2 L5.55 0.3 5.5 0.35 5.55 0.15 5.8 -0.45 5.95 -0.5 6.8 -0.45 7.55 -0.4 7.95 -0.3 8.75 -0.15 M8.4 1.6 Q8.25 1.8 8.25 2.05 7.9 2.2 7.45 2.2 L7.05 2.15 6.75 2.1 Q6.15 2.25 5.65 1.75 L5.45 1.55 5.4 1.05 Q5.5 1.25 5.75 1.45 6.35 1.85 7.6 1.85 8.1 1.8 8.4 1.6 M4.85 -0.65 L4.85 -0.6 4.5 0.0 Q4.25 0.35 4.2 0.55 L3.95 1.2 4.0 1.35 Q4.05 1.6 3.7 1.85 3.45 2.05 2.9 2.2 2.25 2.4 1.4 2.4 -0.65 2.4 -1.75 1.25 -2.45 0.45 -2.45 -0.2 -2.45 -0.35 -2.35 -0.45 -2.25 -0.4 -2.15 -0.4 L-2.05 -0.45 -2.0 -0.4 -1.25 -0.5 -0.85 -0.5 -0.75 -0.55 -0.65 -0.55 4.6 -0.6 4.85 -0.65 M3.8 3.3 Q4.2 3.35 4.2 3.85 L4.15 4.1 Q4.15 4.25 4.0 4.25 3.55 4.25 3.45 4.1 L3.35 4.1 3.3 4.05 3.3 3.85 Q3.3 3.7 3.35 3.65 L3.5 3.45 Q3.6 3.3 3.8 3.3 M1.55 2.7 L1.55 2.7" fill="#a9854f" fill-rule="evenodd" stroke="none"/>
  </g>
</svg>
