<?xml version="1.0" encoding="UTF-8" standalone="no"?>
<svg xmlns:ffdec="https://www.free-decompiler.com/flash" xmlns:xlink="http://www.w3.org/1999/xlink" ffdec:objectType="shape" height="15.4px" width="13.75px" xmlns="http://www.w3.org/2000/svg">
  <g transform="matrix(1.0, 0.0, 0.0, 1.0, 3.75, 8.85)">
    <path d="M8.9 -4.55 L9.0 -4.25 Q9.1 -4.1 9.15 -3.35 L9.2 -3.15 9.15 -3.15 9.15 -3.1 9.2 -3.05 9.2 -2.9 9.25 -2.55 Q9.25 -2.1 9.2 -1.7 L9.2 -1.6 9.05 -1.5 9.1 -1.55 9.05 -1.1 8.8 0.15 8.5 1.2 8.2 2.2 8.25 2.2 8.25 2.45 Q8.25 3.35 8.0 4.15 7.7 5.3 7.05 6.3 L6.7 6.3 6.75 6.25 6.65 6.25 6.55 6.3 6.4 6.25 5.15 6.2 5.5 6.1 Q3.7 6.05 1.95 5.3 L1.95 5.35 1.9 5.25 Q1.2 4.95 0.5 4.55 -0.55 3.9 -1.25 3.25 -1.6 2.85 -1.75 2.55 L-2.3 2.15 Q-2.55 1.8 -2.8 1.4 L-2.85 1.25 Q-3.45 0.2 -3.65 -0.9 -3.7 -1.3 -3.75 -1.75 L-3.75 -2.35 Q-3.75 -4.65 -2.35 -6.25 -2.0 -6.7 -1.7 -6.9 1.25 -9.25 4.45 -8.8 7.8 -8.3 8.75 -4.85 L8.9 -4.55 M5.95 5.6 L5.95 5.6" fill="#c7a36d" fill-rule="evenodd" stroke="none"/>
    <path d="M8.9 -4.55 L9.55 -4.7 9.65 -4.8 9.65 -4.65 9.9 -4.15 9.85 -4.15 Q9.9 -4.0 9.95 -3.15 10.05 -2.75 10.0 -2.35 L9.95 -2.3 10.0 -1.85 Q9.8 -1.0 9.65 -0.5 L9.65 -0.45 9.5 -0.05 Q9.1 1.0 8.85 2.15 8.8 3.2 8.5 4.15 8.3 4.9 7.9 5.65 L7.7 6.1 7.05 6.3 Q7.7 5.3 8.0 4.15 8.25 3.35 8.25 2.45 L8.25 2.2 8.55 1.25 8.5 1.2 8.8 0.15 9.05 -1.1 9.1 -1.55 9.15 -1.55 9.2 -1.6 9.2 -1.7 Q9.25 -2.1 9.25 -2.55 L9.2 -2.9 9.2 -3.05 9.15 -3.1 9.15 -3.15 9.2 -3.15 9.15 -3.35 Q9.1 -4.1 9.0 -4.25 L8.9 -4.55" fill="#1a1a1a" fill-rule="evenodd" stroke="none"/>
    <path d="M8.5 1.2 L8.55 1.25 8.25 2.2 8.2 2.2 8.5 1.2" fill="#a9854f" fill-rule="evenodd" stroke="none"/>
    <path d="M0.15 -0.4 Q0.5 -0.2 0.75 -0.1 L0.8 -0.1 1.5 0.3 1.75 0.35 1.95 0.5 Q2.1 0.65 2.1 0.95 L2.05 1.1 Q2.0 1.3 1.85 1.45 1.45 1.9 0.65 1.9 0.05 1.9 -0.3 1.4 -0.55 1.05 -0.55 0.75 -0.5 0.4 -0.35 0.15 -0.15 -0.25 0.15 -0.4 M7.05 0.1 L7.2 0.1 Q7.3 0.3 7.3 0.6 L7.2 1.2 Q6.95 1.8 6.45 1.8 5.6 1.8 5.45 1.15 L5.55 0.6 5.85 0.5 6.3 0.45 Q6.7 0.25 7.05 0.1" fill="#ffffff" fill-rule="evenodd" stroke="none"/>
    <path d="M3.95 -1.3 L3.75 -1.45 Q3.45 -1.65 3.45 -2.05 3.45 -2.2 3.3 -2.55 L3.1 -3.05 2.8 -4.05 Q2.55 -4.65 2.2 -5.1 3.05 -4.25 3.55 -2.95 3.75 -2.35 3.95 -1.95 L4.05 -1.75 4.3 -1.3 4.35 -1.25 4.45 -1.05 4.65 -0.85 4.4 -0.65 4.3 -0.55 3.95 0.1 Q3.5 0.75 3.35 0.75 L2.7 0.55 2.6 0.5 2.45 0.5 2.5 0.7 Q2.5 1.15 2.2 1.6 1.8 2.25 1.05 2.25 -0.05 2.25 -0.55 1.6 -0.85 1.2 -0.85 0.8 -0.85 0.3 -0.45 -0.15 L-0.25 -0.35 -0.1 -0.4 0.0 -0.45 -0.1 -0.5 -0.15 -0.55 -0.5 -0.75 -0.55 -0.8 -0.85 -0.8 Q-1.4 -0.95 -1.7 -0.95 L-1.85 -0.95 -2.45 -0.9 Q-2.65 -0.9 -2.85 -0.8 L-3.0 -0.7 -3.05 -0.7 -3.25 -0.7 Q-3.2 -0.9 -2.05 -1.4 L-1.3 -1.65 -1.05 -1.75 Q-0.7 -1.9 -0.5 -1.9 -0.3 -1.9 0.05 -1.6 L0.75 -1.0 Q1.45 -0.4 2.15 -0.2 L2.7 -0.15 2.8 -0.15 3.2 -0.2 Q3.55 -0.3 3.85 -0.55 L3.9 -0.65 Q4.05 -0.8 4.05 -1.1 L4.05 -1.15 3.95 -1.3 M5.4 -1.35 L5.75 -1.7 Q6.4 -2.45 6.4 -3.3 L6.45 -3.3 6.45 -2.95 6.1 -1.9 Q5.8 -1.05 5.7 -0.55 L5.75 -0.5 Q5.9 -0.3 6.25 -0.3 6.75 -0.3 7.4 -0.65 L7.45 -0.65 7.8 -0.9 7.9 -1.0 8.0 -1.0 8.35 -1.25 Q8.8 -1.5 9.0 -1.3 9.1 -1.15 9.2 -0.8 L9.25 -1.05 9.3 -0.8 Q9.5 -0.35 9.5 -0.1 L9.5 0.15 Q9.45 0.25 9.25 0.5 L9.25 0.4 Q9.15 0.25 9.0 0.25 L8.9 0.3 8.95 0.0 8.95 -0.1 8.85 -0.2 Q8.7 -0.55 8.45 -0.75 L8.25 -0.65 8.2 -0.55 8.0 -0.4 7.8 -0.3 7.8 -0.25 7.65 -0.15 7.75 0.05 Q7.85 0.3 7.8 0.55 7.8 1.05 7.55 1.55 7.15 2.3 6.45 2.3 5.95 2.3 5.65 2.0 L5.65 2.1 5.7 2.1 5.75 2.35 5.85 2.6 5.85 2.75 5.95 2.95 Q6.0 3.35 6.4 4.45 6.8 5.4 6.8 5.55 6.8 5.8 6.4 6.15 5.9 6.55 5.2 6.55 L5.05 6.55 4.95 6.5 4.9 6.45 4.7 6.35 4.85 6.25 Q4.95 6.05 5.35 5.95 L5.4 5.95 5.65 5.85 Q5.95 5.7 6.05 5.6 5.8 4.95 5.35 3.3 5.15 2.55 5.05 2.1 4.95 1.95 4.85 1.7 L4.75 1.2 4.8 0.9 Q4.85 0.55 5.05 0.1 L5.3 -0.5 5.1 -1.0 5.1 -1.05 5.4 -1.35 M4.75 3.7 Q4.8 3.45 4.75 3.25 L4.8 3.25 4.85 3.8 4.9 4.2 Q4.9 4.6 4.7 4.9 4.45 5.35 3.85 5.4 L3.8 5.5 3.7 5.9 4.0 5.85 4.1 5.75 Q4.3 5.65 4.5 5.65 L4.7 5.6 4.9 5.65 4.95 5.7 4.25 6.1 Q3.9 6.3 3.7 6.35 L3.45 6.55 Q3.25 6.55 3.25 6.4 L3.2 6.15 3.2 6.05 3.35 5.2 Q3.45 5.0 3.65 4.85 L4.15 4.6 Q4.5 4.3 4.75 3.7 M0.15 -0.4 Q-0.15 -0.25 -0.35 0.15 -0.5 0.4 -0.55 0.75 -0.55 1.05 -0.3 1.4 0.05 1.9 0.65 1.9 1.45 1.9 1.85 1.45 2.0 1.3 2.05 1.1 L2.1 0.95 Q2.1 0.65 1.95 0.5 L1.75 0.35 1.5 0.3 0.8 -0.1 0.75 -0.1 Q0.5 -0.2 0.15 -0.4 M7.05 0.1 Q6.7 0.25 6.3 0.45 L5.85 0.5 5.55 0.6 5.45 1.15 Q5.6 1.8 6.45 1.8 6.95 1.8 7.2 1.2 L7.3 0.6 Q7.3 0.3 7.2 0.1 L7.05 0.1 M-0.85 0.35 L-0.85 0.35" fill="#1a1a1a" fill-rule="evenodd" stroke="none"/>
    <path d="M3.95 -1.95 Q4.3 -1.95 4.95 -1.7 L5.55 -1.5 5.4 -1.35 5.1 -1.05 5.1 -1.0 4.8 -1.0 Q4.65 -1.0 4.45 -1.05 L4.35 -1.25 4.3 -1.3 4.05 -1.75 3.95 -1.95" fill="#c7a36d" fill-rule="evenodd" stroke="none"/>
    <path d="M7.9 -1.0 L8.0 -1.05 8.05 -1.05 8.0 -1.0 7.9 -1.0 M8.95 -0.1 L8.45 0.4 8.45 0.25 Q8.45 -0.35 8.25 -0.65 L8.45 -0.75 Q8.7 -0.55 8.85 -0.2 L8.95 -0.1 M4.8 0.9 L4.45 1.0 4.4 1.15 4.35 1.4 4.55 2.25 Q4.75 3.0 4.75 3.7 4.5 4.3 4.15 4.6 L3.65 4.85 Q3.45 5.0 3.35 5.2 L3.2 6.05 Q3.1 5.8 3.1 5.2 L3.2 2.5 Q3.2 1.95 3.25 1.55 L3.3 0.95 3.3 0.85 3.35 0.75 Q3.5 0.75 3.95 0.1 L4.3 -0.55 4.4 -0.65 4.65 -0.85 4.45 -1.05 Q4.65 -1.0 4.8 -1.0 L5.1 -1.0 5.3 -0.5 5.05 0.1 Q4.85 0.55 4.8 0.9 M-1.8 0.35 Q-2.45 -0.15 -3.05 -0.7 L-3.0 -0.7 -2.85 -0.8 Q-2.65 -0.9 -2.45 -0.9 L-1.85 -0.95 Q-1.8 -0.8 -1.5 -0.6 -1.75 -0.5 -1.8 -0.05 L-1.8 0.35 M4.05 -1.1 L3.95 -1.3 4.05 -1.15 4.05 -1.1" fill="#a9854f" fill-rule="evenodd" stroke="none"/>
    <path d="M8.45 0.4 L8.5 0.85 Q8.45 1.4 8.35 1.8 7.95 2.95 6.35 2.95 6.1 2.95 5.9 2.85 L5.85 2.75 5.85 2.6 5.75 2.35 5.7 2.1 5.65 2.1 5.65 2.0 Q5.95 2.3 6.45 2.3 7.15 2.3 7.55 1.55 7.8 1.05 7.8 0.55 7.85 0.3 7.75 0.05 L7.65 -0.15 7.8 -0.25 7.8 -0.3 8.0 -0.4 8.2 -0.55 8.25 -0.65 Q8.45 -0.35 8.45 0.25 L8.45 0.4 M3.25 1.55 Q2.8 2.95 0.85 2.95 -0.7 2.95 -1.4 1.85 -1.8 1.2 -1.8 0.55 L-1.8 0.35 -1.8 -0.05 Q-1.75 -0.5 -1.5 -0.6 -1.8 -0.8 -1.85 -0.95 L-1.7 -0.95 Q-1.4 -0.95 -0.85 -0.8 L-0.55 -0.8 -0.5 -0.75 -0.15 -0.55 -0.1 -0.5 -0.1 -0.4 -0.25 -0.35 -0.45 -0.15 Q-0.85 0.3 -0.85 0.8 -0.85 1.2 -0.55 1.6 -0.05 2.25 1.05 2.25 1.8 2.25 2.2 1.6 2.5 1.15 2.5 0.7 L2.45 0.5 2.6 0.5 2.7 0.55 3.35 0.75 3.3 0.85 3.3 0.95 3.25 1.55 M-0.85 0.35 L-0.85 0.35" fill="#794040" fill-rule="evenodd" stroke="none"/>
  </g>
</svg>
