<?xml version="1.0" encoding="UTF-8" standalone="no"?>
<svg xmlns:ffdec="https://www.free-decompiler.com/flash" xmlns:xlink="http://www.w3.org/1999/xlink" ffdec:objectType="shape" height="15.15px" width="13.75px" xmlns="http://www.w3.org/2000/svg">
  <g transform="matrix(1.0, 0.0, 0.0, 1.0, 3.75, 8.85)">
    <path d="M7.05 6.3 L6.7 6.3 6.75 6.25 6.65 6.25 6.55 6.3 6.4 6.25 5.15 6.2 5.5 6.1 Q3.7 6.05 1.95 5.3 L1.95 5.35 1.9 5.25 Q1.2 4.95 0.5 4.55 -0.55 3.9 -1.25 3.25 -1.6 2.85 -1.75 2.55 L-2.3 2.15 Q-2.55 1.8 -2.8 1.4 L-2.85 1.25 Q-3.45 0.2 -3.65 -0.9 -3.7 -1.3 -3.75 -1.75 L-3.75 -2.35 Q-3.75 -4.65 -2.35 -6.25 -2.0 -6.7 -1.7 -6.9 1.25 -9.25 4.45 -8.8 7.8 -8.3 8.75 -4.85 L8.9 -4.55 9.0 -4.25 Q9.1 -4.1 9.15 -3.35 L9.2 -3.15 9.15 -3.15 9.15 -3.1 9.2 -3.05 9.2 -2.9 9.25 -2.55 Q9.25 -2.1 9.2 -1.7 L9.2 -1.6 9.1 -1.55 8.8 0.15 8.5 1.2 8.2 2.2 8.25 2.2 8.25 2.45 Q8.25 3.35 8.0 4.15 7.7 5.3 7.05 6.3 M5.95 5.6 L5.95 5.6" fill="#c7a36d" fill-rule="evenodd" stroke="none"/>
    <path d="M8.9 -4.55 L9.55 -4.7 9.65 -4.8 9.65 -4.65 9.9 -4.15 9.85 -4.15 Q9.9 -4.0 9.95 -3.15 10.05 -2.75 10.0 -2.35 L9.95 -2.3 10.0 -1.85 Q9.8 -1.0 9.65 -0.5 L9.65 -0.45 9.5 -0.05 Q9.1 1.0 8.85 2.15 8.8 3.2 8.5 4.15 8.3 4.9 7.9 5.65 L7.7 6.1 7.05 6.3 Q7.7 5.3 8.0 4.15 8.25 3.35 8.25 2.45 L8.25 2.2 8.55 1.25 8.5 1.2 8.8 0.15 9.1 -1.55 9.2 -1.6 9.2 -1.7 Q9.25 -2.1 9.25 -2.55 L9.2 -2.9 9.2 -3.05 9.15 -3.1 9.15 -3.15 9.2 -3.15 9.15 -3.35 Q9.1 -4.1 9.0 -4.25 L8.9 -4.55" fill="#1a1a1a" fill-rule="evenodd" stroke="none"/>
    <path d="M8.5 1.2 L8.55 1.25 8.25 2.2 8.2 2.2 8.5 1.2" fill="#a9854f" fill-rule="evenodd" stroke="none"/>
    <path d="M-2.35 0.05 L-2.45 -0.05 -2.35 0.0 Q-2.3 0.0 -2.2 0.05 L-2.3 0.1 -2.35 0.05 M2.4 1.25 L2.5 1.25 2.45 1.3 2.4 1.25 M2.65 1.2 L2.65 1.2 M-1.4 0.25 L-1.4 0.25" fill="#a69375" fill-rule="evenodd" stroke="none"/>
    <path d="M5.9 3.05 L5.95 3.2 5.9 3.15 5.9 3.05 M-2.25 0.55 L-2.25 0.55" fill="#736551" fill-rule="evenodd" stroke="none"/>
    <path d="M6.4 1.25 L6.4 0.9 Q6.4 0.55 6.55 0.3 L7.2 0.1 7.2 0.15 Q7.15 0.25 7.15 0.5 7.15 0.6 7.2 0.75 7.3 0.95 7.5 0.95 L7.75 0.9 7.7 1.0 7.7 1.05 Q7.2 1.15 7.05 1.25 6.9 1.3 6.75 1.4 6.7 1.35 6.6 1.3 L6.4 1.3 6.4 1.25 M1.15 0.25 L1.15 0.4 1.2 0.75 1.25 0.85 1.2 0.9 1.25 1.05 1.5 1.1 1.7 1.1 Q1.8 1.1 1.95 0.8 L1.95 0.75 2.15 0.4 2.4 0.45 2.45 0.45 Q2.3 0.7 2.05 1.0 L1.65 1.4 Q1.1 1.8 0.35 1.85 -0.45 1.7 -0.7 0.85 L-0.8 0.35 -0.6 0.25 0.85 0.15 1.15 0.25" fill="#ffffff" fill-rule="evenodd" stroke="none"/>
    <path d="M5.9 3.05 L5.85 3.05 Q5.95 3.5 5.95 3.9 L6.0 4.4 5.95 5.1 Q5.9 5.6 5.7 5.65 L5.6 5.7 Q5.35 6.0 4.95 6.0 4.3 6.0 3.75 5.8 3.1 5.6 2.75 5.25 2.5 5.0 2.3 4.35 L2.4 4.25 Q2.45 4.2 2.6 4.2 2.65 4.2 3.5 4.8 4.45 5.35 4.8 5.35 5.15 5.35 5.3 4.65 L5.45 3.9 Q5.45 3.3 5.1 2.5 4.8 1.65 4.8 0.75 4.8 0.5 4.9 0.1 4.95 -0.25 5.05 -0.55 L5.2 -0.75 5.3 -0.2 Q5.4 -0.45 5.5 -0.55 L5.5 -0.6 Q5.85 -1.0 6.15 -1.15 6.55 -1.4 7.95 -1.8 8.55 -2.0 9.05 -1.85 9.45 -1.75 9.5 -1.55 L9.5 -1.15 Q9.55 -0.9 9.45 -0.65 9.3 -0.35 9.1 -0.25 L8.95 -0.1 8.9 -0.1 8.85 -0.05 8.8 0.15 8.55 1.0 8.5 1.2 8.45 1.15 8.4 1.1 8.35 1.1 8.45 0.75 8.5 0.7 8.6 0.15 8.8 -0.05 8.7 -0.05 8.6 -0.15 8.5 -0.1 8.35 -0.1 8.35 -0.05 8.5 -0.05 8.5 0.0 Q8.5 0.3 8.35 0.7 L8.2 1.05 8.1 1.25 Q7.75 1.85 7.2 1.9 L6.6 1.9 6.45 1.85 6.4 1.8 Q6.3 1.75 6.2 1.65 6.15 1.55 6.15 1.45 L6.15 1.3 Q6.2 1.15 6.35 1.25 L6.4 1.25 6.4 1.3 6.6 1.3 Q6.7 1.35 6.75 1.4 6.9 1.3 7.05 1.25 7.2 1.15 7.7 1.05 L7.7 1.0 7.75 0.9 7.5 0.95 Q7.3 0.95 7.2 0.75 7.15 0.6 7.15 0.5 7.15 0.25 7.2 0.15 L7.2 0.1 6.55 0.3 6.45 0.3 Q6.35 0.6 6.2 0.7 L6.15 0.65 6.1 0.55 6.05 0.5 5.85 0.55 Q5.65 0.65 5.5 0.8 L5.5 1.4 5.7 2.35 5.75 2.5 5.8 2.8 5.9 3.05 M-1.7 -1.65 Q-1.6 -1.95 -1.35 -2.05 L0.95 -2.05 Q2.9 -1.6 3.55 -1.3 4.5 -0.9 4.5 -0.3 L4.45 -0.05 4.35 0.3 4.3 0.4 Q4.15 0.7 4.0 0.75 L3.95 0.75 3.7 0.65 3.45 0.6 3.55 0.7 3.05 0.6 3.0 0.6 2.95 0.55 2.45 0.45 2.4 0.45 2.15 0.4 1.95 0.75 1.95 0.8 Q1.8 1.1 1.7 1.1 L1.5 1.1 1.25 1.05 1.2 0.9 1.25 0.85 1.2 0.75 1.15 0.4 1.15 0.25 1.2 0.25 1.0 0.15 0.85 0.15 -0.6 0.25 -0.8 0.35 -0.7 0.85 Q-0.45 1.7 0.35 1.85 L0.6 1.85 Q0.85 1.85 1.15 1.7 L1.55 1.5 1.65 1.6 1.75 1.7 1.75 1.75 Q1.7 1.85 1.35 2.05 L1.2 2.15 Q0.95 2.3 0.75 2.3 -0.3 2.3 -0.9 1.5 -1.25 1.1 -1.3 0.8 L-1.65 1.1 -1.75 1.05 -1.75 0.8 -1.65 0.6 -1.55 0.45 -1.5 0.4 -1.4 0.25 -1.3 0.15 -1.3 0.05 -1.2 0.05 -1.1 -0.1 -0.9 -0.1 Q-0.65 -0.25 -0.25 -0.3 L-1.0 -0.3 -1.35 -0.25 Q-1.5 -0.25 -1.65 -0.35 L-1.8 -0.65 Q-1.85 -0.9 -1.85 -1.1 L-1.85 -1.35 -1.8 -1.55 -1.7 -1.65 M6.25 0.85 L6.3 0.85 6.25 0.9 6.25 0.85" fill="#1a1a1a" fill-rule="evenodd" stroke="none"/>
    <path d="M8.35 1.1 L8.4 1.1 8.45 1.15 8.35 1.15 8.35 1.1 M2.2 6.1 L2.2 6.2 2.15 6.05 2.2 6.1" fill="#c7a36d" fill-rule="evenodd" stroke="none"/>
    <path d="M5.75 -1.95 Q5.75 -1.75 5.5 -1.35 5.3 -0.95 5.15 -0.95 4.75 -0.95 4.55 -1.5 4.4 -1.8 4.4 -2.1 4.4 -2.5 5.05 -2.45 5.75 -2.4 5.75 -1.95 M8.95 -0.1 L8.95 -0.05 8.9 -0.05 8.8 0.35 Q8.65 0.75 8.55 1.0 L8.8 0.15 8.85 -0.05 8.9 -0.1 8.95 -0.1 M8.45 1.15 Q8.35 1.4 8.2 1.7 7.75 2.3 6.95 2.3 6.65 2.3 6.55 2.15 6.45 2.1 6.45 2.0 L6.6 1.9 7.2 1.9 Q7.75 1.85 8.1 1.25 L8.2 1.05 8.35 0.7 Q8.5 0.3 8.5 0.0 L8.5 -0.05 8.35 -0.05 8.35 -0.1 8.5 -0.1 8.6 -0.15 8.7 -0.05 8.8 -0.05 8.6 0.15 8.5 0.7 8.45 0.75 8.35 1.1 8.35 1.15 8.45 1.15 M6.15 0.65 L6.15 0.7 6.05 0.95 6.05 1.05 Q6.05 1.1 5.75 1.4 L5.7 1.4 5.7 1.45 Q5.6 1.45 5.55 1.4 L5.5 1.4 5.5 0.8 Q5.65 0.65 5.85 0.55 L6.05 0.5 6.1 0.55 6.15 0.65 M4.45 -0.05 L4.6 -0.05 4.6 0.7 4.45 0.85 Q4.4 1.1 4.25 1.15 L2.95 1.25 2.75 1.3 2.3 1.4 2.15 1.65 Q2.1 1.8 1.9 1.8 1.8 1.8 1.75 1.75 L1.75 1.7 1.65 1.6 1.6 1.5 1.65 1.4 2.05 1.0 Q2.3 0.7 2.45 0.45 L2.95 0.55 3.0 0.6 3.05 0.6 3.55 0.7 3.45 0.6 3.7 0.65 3.95 0.75 4.0 0.75 Q4.15 0.7 4.3 0.4 L4.35 0.3 4.45 -0.05 M1.2 2.15 Q1.15 2.25 0.75 2.4 0.3 2.6 -0.05 2.6 -1.0 2.6 -1.85 0.95 -2.1 0.9 -2.25 0.55 L-2.3 0.4 -2.35 0.05 -2.3 0.1 -2.2 0.05 Q-2.3 0.0 -2.35 0.0 L-2.35 -0.15 Q-2.35 -0.55 -2.2 -1.0 L-2.2 -1.4 -2.05 -1.35 Q-1.9 -1.6 -1.7 -1.65 L-1.8 -1.55 -1.85 -1.35 -1.85 -1.1 Q-1.85 -0.9 -1.8 -0.65 L-1.65 -0.35 Q-1.5 -0.25 -1.35 -0.25 L-1.0 -0.3 -0.25 -0.3 Q-0.65 -0.25 -0.9 -0.1 L-1.1 -0.1 -1.2 0.05 -1.3 0.05 -1.3 0.15 -1.4 0.25 -1.5 0.4 -1.55 0.45 -1.65 0.6 -1.75 0.8 -1.75 1.05 -1.65 1.1 -1.3 0.8 Q-1.25 1.1 -0.9 1.5 -0.3 2.3 0.75 2.3 0.95 2.3 1.2 2.15 M3.2 3.35 L2.85 3.3 Q2.85 3.25 2.85 3.05 2.85 2.4 3.35 2.5 3.85 2.65 3.85 3.05 3.85 3.35 3.2 3.35 M2.65 1.2 L2.65 1.2 M2.4 1.25 L2.45 1.3 2.5 1.25 2.4 1.25 M0.85 0.15 L1.0 0.15 1.2 0.25 1.15 0.25 0.85 0.15 M-3.05 -0.65 Q-3.1 -0.7 -3.05 -0.8 L-3.0 -0.75 -3.05 -0.55 -3.05 -0.65 M-1.4 0.25 L-1.4 0.25" fill="#a9854f" fill-rule="evenodd" stroke="none"/>
  </g>
</svg>
