<?xml version="1.0" encoding="UTF-8" standalone="no"?>
<svg xmlns:ffdec="https://www.free-decompiler.com/flash" xmlns:xlink="http://www.w3.org/1999/xlink" ffdec:objectType="shape" height="15.15px" width="13.75px" xmlns="http://www.w3.org/2000/svg">
  <g transform="matrix(1.0, 0.0, 0.0, 1.0, 3.75, 8.85)">
    <path d="M8.9 -4.55 L9.0 -4.25 Q9.1 -4.1 9.15 -3.35 L9.2 -3.15 9.15 -3.15 9.15 -3.1 9.2 -3.05 9.2 -2.9 9.25 -2.55 Q9.25 -2.1 9.2 -1.7 L9.2 -1.6 9.1 -1.55 9.05 -1.1 8.8 0.15 8.5 1.2 8.2 2.2 8.25 2.2 8.25 2.45 Q8.25 3.35 8.0 4.15 7.7 5.3 7.05 6.3 L6.7 6.3 6.75 6.25 6.65 6.25 6.55 6.3 6.4 6.25 5.15 6.2 5.5 6.1 Q3.7 6.05 1.95 5.3 L1.95 5.35 1.9 5.25 Q1.2 4.95 0.5 4.55 -0.55 3.9 -1.25 3.25 -1.6 2.85 -1.75 2.55 L-2.3 2.15 Q-2.55 1.8 -2.8 1.4 L-2.85 1.25 Q-3.45 0.2 -3.65 -0.9 -3.7 -1.3 -3.75 -1.75 L-3.75 -2.35 Q-3.75 -4.65 -2.35 -6.25 -2.0 -6.7 -1.7 -6.9 1.25 -9.25 4.45 -8.8 7.8 -8.3 8.75 -4.85 L8.9 -4.55 M5.95 5.6 L5.95 5.6" fill="#c7a36d" fill-rule="evenodd" stroke="none"/>
    <path d="M8.9 -4.55 L9.55 -4.7 9.65 -4.8 9.65 -4.65 9.9 -4.15 9.85 -4.15 Q9.9 -4.0 9.95 -3.15 10.05 -2.75 10.0 -2.35 L9.95 -2.3 10.0 -1.85 Q9.8 -1.0 9.65 -0.5 L9.65 -0.45 9.5 -0.05 Q9.1 1.0 8.85 2.15 8.8 3.2 8.5 4.15 8.3 4.9 7.9 5.65 L7.7 6.1 7.05 6.3 Q7.7 5.3 8.0 4.15 8.25 3.35 8.25 2.45 L8.25 2.2 8.55 1.25 8.5 1.2 8.8 0.15 9.05 -1.1 9.1 -1.55 9.2 -1.6 9.2 -1.7 Q9.25 -2.1 9.25 -2.55 L9.2 -2.9 9.2 -3.05 9.15 -3.1 9.15 -3.15 9.2 -3.15 9.15 -3.35 Q9.1 -4.1 9.0 -4.25 L8.9 -4.55" fill="#1a1a1a" fill-rule="evenodd" stroke="none"/>
    <path d="M8.5 1.2 L8.55 1.25 8.25 2.2 8.2 2.2 8.5 1.2" fill="#a9854f" fill-rule="evenodd" stroke="none"/>
    <path d="M3.8 -0.3 Q4.25 -0.3 4.35 0.2 4.4 0.4 4.35 0.65 4.35 1.2 4.3 1.75 4.2 2.5 4.0 2.7 3.85 2.55 3.75 2.3 3.7 2.1 3.65 1.75 L3.55 1.7 Q3.5 1.7 2.4 2.3 1.35 2.9 0.45 2.9 L0.05 2.85 0.0 2.85 0.0 2.7 1.0 2.2 Q2.15 1.6 2.8 1.05 2.7 0.9 2.15 0.6 L-0.65 0.05 -2.9 -0.1 -2.95 -0.2 -0.05 -1.2 3.8 -0.3 M7.6 -1.0 Q9.0 -1.6 9.0 -0.8 L9.0 -0.5 8.9 -0.35 8.9 -0.05 8.6 -0.05 Q7.9 -0.1 7.3 0.45 L6.1 1.05 Q6.1 1.45 6.35 2.05 6.55 2.65 6.8 2.85 6.3 2.75 5.8 2.2 5.35 1.7 5.35 1.3 L5.95 0.1 7.6 -1.0 M8.35 -0.8 L8.35 -0.8 M4.55 5.9 Q4.25 5.9 3.65 5.6 L3.05 5.25 Q3.05 5.05 4.6 4.75 6.15 4.45 6.15 4.85 L5.7 5.45 Q5.2 5.9 4.55 5.9" fill="#a9854f" fill-rule="evenodd" stroke="none"/>
    <path d="M1.7 -0.95 Q2.2 -0.9 2.95 -0.6 3.4 -0.45 3.6 -0.45 3.9 -0.5 4.15 -0.75 L4.2 -0.8 4.15 -0.35 Q4.1 -0.1 3.8 -0.1 3.3 -0.05 1.5 -0.4 L-0.3 -0.8 Q-1.35 -0.7 -1.7 -0.55 -2.45 -0.25 -2.9 -0.1 L-3.1 -0.1 Q-1.4 -1.35 -0.6 -1.25 L-0.55 -1.25 Q0.05 -1.4 0.75 -1.25 L1.7 -0.95 M2.85 -0.05 Q3.6 0.1 3.6 0.55 3.6 0.75 3.5 0.8 3.3 0.9 3.0 1.05 L2.9 1.05 3.1 0.9 3.25 0.8 3.2 0.7 2.55 0.8 1.65 0.95 1.25 1.0 1.05 1.05 0.35 1.1 -0.85 0.95 -1.75 0.75 -2.3 0.95 -2.45 0.9 Q-1.7 0.4 -0.6 0.0 0.55 -0.45 0.95 -0.3 L2.85 -0.05 M5.65 -1.75 Q5.8 -1.6 5.8 -1.25 L5.75 -1.05 5.8 -0.75 5.8 -0.6 7.5 -1.35 Q9.35 -2.0 9.35 -1.45 L9.25 -1.05 Q9.15 -0.75 9.15 -0.6 L9.05 -0.5 8.85 -0.9 Q8.7 -1.25 8.55 -1.2 L8.0 -1.1 7.1 -0.6 6.75 -0.35 6.65 -0.3 Q6.35 0.0 6.05 0.1 L6.75 0.05 Q8.45 0.15 8.45 1.7 L8.45 1.85 8.4 1.9 Q8.3 1.8 8.05 1.35 L8.0 1.4 Q7.95 1.2 7.85 1.2 7.75 1.2 7.55 1.3 L7.5 1.3 Q7.3 1.25 6.55 1.3 L5.95 1.2 5.6 1.1 Q5.6 1.2 5.65 1.3 L5.6 1.3 Q5.7 1.55 5.9 1.9 L6.25 2.45 6.2 2.55 5.7 1.95 5.6 1.95 5.65 2.4 Q5.8 3.75 6.35 4.25 6.5 4.35 6.75 4.45 6.9 4.55 6.9 4.6 6.9 4.9 6.1 5.4 5.35 5.95 5.05 5.95 L4.8 5.9 4.55 5.8 5.55 5.2 Q5.95 4.85 6.0 4.6 5.4 4.45 5.2 3.3 L4.8 3.35 4.75 3.4 Q4.7 3.4 4.7 3.3 4.7 3.15 5.2 3.25 L5.15 3.25 Q5.05 2.55 5.05 1.25 5.05 0.35 5.15 -0.25 5.3 -0.85 5.65 -1.75 M6.45 -0.05 L6.45 -0.05 M7.7 0.95 Q7.6 0.85 7.45 0.8 L7.15 0.75 7.15 0.95 7.7 0.95 M6.3 0.75 L5.75 0.8 5.9 0.85 6.05 0.95 6.15 1.0 6.5 1.0 Q6.4 0.9 6.4 0.75 L6.3 0.75 M6.85 1.75 L7.5 1.8 7.85 1.85 Q8.0 1.85 8.05 1.9 7.8 2.05 7.5 2.05 6.75 2.05 6.15 1.7 5.6 1.35 5.65 1.15 L5.7 1.15 6.25 1.65 6.85 1.75 M2.5 0.5 L1.85 0.35 1.8 0.5 1.8 0.65 2.6 0.5 2.5 0.5 M0.95 0.25 L0.05 0.15 0.1 0.1 Q-0.55 0.2 -0.95 0.4 L-0.6 0.45 -0.5 0.45 Q0.55 0.75 0.85 0.75 L1.15 0.75 Q1.05 0.65 1.0 0.55 0.95 0.45 0.95 0.3 L0.95 0.25 M0.5 2.2 L-0.2 2.1 Q-0.7 2.0 -0.85 1.9 L-0.3 2.0 Q0.7 2.0 2.05 1.5 2.6 1.35 3.45 0.9 L2.4 1.6 Q1.4 2.2 0.5 2.2 M2.75 4.8 L2.95 4.95 Q3.25 5.2 3.45 5.2 L3.95 5.05 Q4.35 4.9 4.5 4.9 L4.8 4.95 4.85 5.0 4.9 5.1 Q4.7 5.3 4.05 5.6 3.45 5.85 3.35 5.85 3.0 5.85 2.7 5.3 2.5 5.0 2.4 4.55 L2.45 4.55 2.5 4.65 2.5 4.6 2.45 4.5 2.55 4.5 Q2.6 4.45 2.8 4.4 3.05 4.25 3.15 4.25 L3.2 4.2 3.95 3.85 3.9 3.85 4.45 3.4 Q4.2 3.75 3.7 4.15 L3.5 4.35 Q3.2 4.6 2.9 4.7 L2.75 4.75 2.75 4.8" fill="#1a1a1a" fill-rule="evenodd" stroke="none"/>
    <path d="M6.3 0.75 L6.4 0.75 Q6.4 0.9 6.5 1.0 L6.15 1.0 6.05 0.95 5.9 0.85 5.75 0.8 6.3 0.75 M7.7 0.95 L7.15 0.95 7.15 0.75 7.45 0.8 Q7.6 0.85 7.7 0.95 M0.95 0.25 L0.95 0.3 Q0.95 0.45 1.0 0.55 1.05 0.65 1.15 0.75 L0.85 0.75 Q0.55 0.75 -0.5 0.45 L-0.6 0.45 -0.95 0.4 Q-0.55 0.2 0.1 0.1 L0.05 0.15 0.95 0.25 M2.5 0.5 L2.6 0.5 1.8 0.65 1.8 0.5 1.85 0.35 2.5 0.5" fill="#ffffff" fill-rule="evenodd" stroke="none"/>
  </g>
</svg>
