<?xml version="1.0" encoding="UTF-8" standalone="no"?>
<svg xmlns:ffdec="https://www.free-decompiler.com/flash" xmlns:xlink="http://www.w3.org/1999/xlink" ffdec:objectType="frame" height="613.45px" width="484.75px" xmlns="http://www.w3.org/2000/svg">
  <g transform="matrix(1.0, 0.0, 0.0, 1.0, 252.0, 317.85)">
    <use ffdec:characterId="953" ffdec:characterName="a_BurlyArm3" height="54.6" transform="matrix(0.9667, -0.2467, 0.2467, 0.9667, 29.5651, -141.4204)" width="63.0" xlink:href="#sprite0"/>
    <use ffdec:characterId="951" ffdec:characterName="a_BurlyForearm" height="66.5" transform="matrix(0.8726, 0.4798, -0.4798, 0.8726, 43.7875, -138.6575)" width="60.55" xlink:href="#sprite1"/>
    <use ffdec:characterId="961" ffdec:characterName="a_BurlyLegs" height="84.35" id="boat" transform="matrix(-0.8876, -0.0668, -0.0239, 0.8911, 63.5111, -67.7982)" width="143.15" xlink:href="#sprite2"/>
    <use ffdec:characterId="959" ffdec:characterName="a_Belt04" height="61.25" transform="matrix(-1.0007, 0.0307, 0.0307, 1.0007, 36.4582, -77.98)" width="84.0" xlink:href="#sprite3"/>
    <use ffdec:characterId="949" ffdec:characterName="a_Torso06" height="107.1" transform="matrix(-0.9744, -0.2217, -0.2681, 0.9636, 63.3119, -143.1148)" width="97.65" xlink:href="#sprite4"/>
    <use ffdec:characterId="953" ffdec:characterName="a_BurlyArm3" height="54.6" transform="matrix(-0.8464, -0.526, -0.526, 0.8464, -5.9294, -145.837)" width="63.0" xlink:href="#sprite0"/>
    <use ffdec:characterId="986" ffdec:characterName="WholeHead2" height="159.0" transform="matrix(-0.5105, -0.1231, -0.123, 0.5104, 89.8905, -172.1469)" width="136.5" xlink:href="#sprite5"/>
    <use ffdec:characterId="947" ffdec:characterName="a_Tiller" height="400.4" transform="matrix(1.0, 0.0, 0.0, 1.0, -239.75, -115.45)" width="273.35" xlink:href="#sprite7"/>
    <use ffdec:characterId="945" ffdec:characterName="a_BurlyForearm2_Fink" height="64.75" transform="matrix(-0.7697, -0.6311, -0.6311, 0.7697, -18.952, -117.8816)" width="61.25" xlink:href="#sprite8"/>
  </g>
  <defs>
    <g id="sprite0" transform="matrix(1.0, 0.0, 0.0, 1.0, 31.5, 27.3)">
      <use ffdec:characterId="952" height="7.8" transform="matrix(7.0, 0.0, 0.0, 7.0, -31.5, -27.3)" width="9.0" xlink:href="#shape0"/>
    </g>
    <g id="shape0" transform="matrix(1.0, 0.0, 0.0, 1.0, 4.5, 3.9)">
      <path d="M-2.25 -3.85 L-2.35 -3.9 -1.85 -3.9 Q-1.05 -3.8 0.15 -3.15 1.35 -2.55 1.75 -2.05 L2.2 -2.05 Q2.8 -1.95 2.8 -1.4 L2.75 -1.15 3.05 -1.2 Q3.45 -1.2 3.45 -1.0 3.4 -0.75 3.4 -0.65 3.45 -0.45 3.6 -0.35 3.75 -0.25 3.75 -0.1 L3.55 0.05 3.7 0.4 Q4.05 0.75 4.25 1.4 4.5 2.25 4.5 3.1 4.5 3.25 4.4 3.5 L4.25 3.9 Q4.1 3.85 4.05 3.75 4.0 3.65 4.05 3.55 L4.1 3.1 Q4.1 2.45 3.8 1.6 L3.4 0.35 3.35 0.25 3.35 0.2 3.3 0.2 2.65 0.6 Q1.45 1.35 1.15 1.6 L-0.05 2.8 0.0 2.8 0.1 2.85 Q0.35 2.9 0.7 3.05 L0.65 3.05 0.85 3.15 1.25 3.3 1.45 3.4 1.75 3.4 1.8 3.45 1.75 3.55 1.55 3.6 1.3 3.6 Q0.7 3.6 0.15 3.35 -0.1 3.25 -0.25 3.15 L-0.3 3.1 -0.65 3.45 -1.25 3.15 Q-1.7 2.9 -1.8 2.85 -2.1 2.8 -2.1 2.5 L-2.1 2.45 Q-2.5 2.45 -2.55 2.25 L-2.55 2.1 -2.6 1.85 -2.6 1.75 -2.6 1.65 -2.65 1.65 Q-2.95 1.55 -3.25 1.1 -3.5 0.75 -3.7 0.3 L-3.6 0.2 -3.05 0.9 -2.55 1.45 -2.5 1.4 -2.3 0.95 -2.25 0.85 -2.2 0.8 Q-1.8 0.2 -1.0 -0.45 0.15 -1.45 1.15 -1.8 L1.5 -1.9 -0.25 -2.85 -2.25 -3.85 M0.1 -0.75 L0.3 -0.9 -0.1 -0.65 Q-1.6 0.35 -2.1 1.15 -2.25 1.4 -2.3 1.65 L-2.3 1.85 Q-2.3 1.95 -2.25 2.05 L-2.05 2.15 Q-1.85 1.2 -0.4 -0.25 L0.05 -0.7 0.15 -0.75 0.1 -0.75 M0.95 -1.1 L0.15 -0.35 -0.2 0.0 -0.35 0.2 Q-1.35 1.35 -1.8 2.5 L-1.7 2.55 -1.7 2.6 -1.65 2.55 Q-1.25 2.0 0.25 0.65 1.8 -0.7 2.55 -1.05 L2.5 -1.35 2.45 -1.45 Q2.35 -1.8 2.15 -1.8 L1.9 -1.75 1.9 -1.7 1.85 -1.75 1.7 -1.65 1.65 -1.7 0.95 -1.1 M-0.9 2.15 L-1.4 2.65 -1.45 2.65 Q-1.4 2.7 -1.05 2.9 L-0.65 3.15 -0.5 2.95 -0.4 2.9 -0.35 2.8 0.4 2.0 Q1.65 0.9 3.05 0.15 L3.25 0.05 3.25 0.0 3.3 0.0 3.3 -0.05 Q3.35 -0.1 3.4 -0.1 3.15 -0.25 3.15 -0.45 L3.15 -0.55 Q3.1 -0.7 3.15 -0.9 2.2 -0.65 0.8 0.6 L-0.9 2.15 M-4.25 1.0 L-4.1 1.1 -3.9 1.2 -3.85 1.25 Q-3.4 1.55 -2.65 1.65 L-2.75 1.75 -3.0 1.8 -3.3 1.75 -3.65 1.65 Q-3.85 1.55 -4.05 1.4 L-4.15 1.3 Q-4.4 1.05 -4.5 0.9 L-4.25 1.0" fill="#111111" fill-rule="evenodd" stroke="none"/>
      <path d="M0.1 -0.75 L0.15 -0.75 0.05 -0.7 -0.4 -0.25 Q-1.85 1.2 -2.05 2.15 L-2.25 2.05 Q-2.3 1.95 -2.3 1.85 L-2.3 1.65 Q-2.25 1.4 -2.1 1.15 -1.6 0.35 -0.1 -0.65 L-0.05 -0.65 0.1 -0.75 M0.95 -1.1 L0.45 -0.45 -0.55 0.7 -0.55 0.75 Q0.15 0.05 1.1 -0.55 1.85 -1.05 2.5 -1.35 L2.55 -1.05 Q1.8 -0.7 0.25 0.65 -1.25 2.0 -1.65 2.55 L-1.7 2.6 -1.7 2.55 -1.8 2.5 Q-1.35 1.35 -0.35 0.2 L-0.2 0.0 0.15 -0.35 0.95 -1.1 M3.15 -0.55 L3.15 -0.45 Q3.15 -0.25 3.4 -0.1 3.35 -0.1 3.3 -0.05 L3.3 0.0 3.25 0.0 3.25 0.05 3.05 0.15 Q1.65 0.9 0.4 2.0 L-0.35 2.8 -0.4 2.9 -0.5 2.95 -0.65 3.15 -1.05 2.9 Q-1.4 2.7 -1.45 2.65 L-1.4 2.65 -0.9 2.15 -0.1 1.7 0.55 1.1 Q1.0 0.75 1.3 0.6 L2.85 -0.4 3.15 -0.55" fill="#600000" fill-rule="evenodd" stroke="none"/>
      <path d="M-0.1 -0.65 L0.3 -0.9 0.1 -0.75 -0.05 -0.65 -0.1 -0.65 M2.5 -1.35 Q1.85 -1.05 1.1 -0.55 0.15 0.05 -0.55 0.75 L-0.55 0.7 0.45 -0.45 0.95 -1.1 1.65 -1.7 1.7 -1.65 1.85 -1.75 1.9 -1.7 1.9 -1.75 2.15 -1.8 Q2.35 -1.8 2.45 -1.45 L2.5 -1.35 M-1.7 2.55 L-1.7 2.6 -1.65 2.55 -1.7 2.6 -1.7 2.55 M-0.9 2.15 L0.8 0.6 Q2.2 -0.65 3.15 -0.9 3.1 -0.7 3.15 -0.55 L2.85 -0.4 1.3 0.6 Q1.0 0.75 0.55 1.1 L-0.1 1.7 -0.9 2.15" fill="#b00000" fill-rule="evenodd" stroke="none"/>
      <path d="M-2.25 -3.85 L-0.25 -2.85 1.5 -1.9 Q0.3 -1.8 -0.95 -0.95 -1.65 -0.45 -2.15 0.15 L-2.45 0.6 -2.6 0.45 Q-3.35 -0.25 -3.8 -0.35 L-3.8 0.15 -3.45 1.05 -3.8 0.95 -4.05 0.85 -4.15 0.9 -4.15 0.95 -4.1 1.1 -4.25 1.0 Q-4.35 0.7 -4.3 0.35 L-4.2 -0.4 Q-4.0 -1.15 -3.8 -1.85 -3.15 -3.6 -2.25 -3.85 M-2.65 1.65 L-2.6 1.65 -2.6 1.75 -3.0 1.85 -3.3 1.75 -3.0 1.8 -2.75 1.75 -2.65 1.65 M1.25 3.3 L0.85 3.15 Q0.95 3.1 1.0 3.0 L1.05 2.75 Q1.05 2.6 0.8 2.4 L0.9 2.45 1.1 2.3 1.8 1.55 Q2.2 1.25 3.15 0.65 L3.4 0.45 3.4 0.35 3.8 1.6 Q4.1 2.45 4.1 3.1 L4.05 3.55 Q4.0 3.65 4.05 3.75 4.0 3.8 3.9 3.8 L3.0 3.55 Q2.15 3.3 1.3 3.3 L1.25 3.3 M-4.15 1.3 L-4.05 1.4 Q-3.85 1.55 -3.65 1.65 -4.0 1.6 -4.15 1.3" fill="#c7a36d" fill-rule="evenodd" stroke="none"/>
      <path d="M1.5 -1.9 L1.15 -1.8 Q0.15 -1.45 -1.0 -0.45 -1.8 0.2 -2.2 0.8 L-2.25 0.85 -2.3 0.95 -2.5 1.4 -2.55 1.45 -3.05 0.9 -3.6 0.2 -3.7 0.3 Q-3.5 0.75 -3.25 1.1 -2.95 1.55 -2.65 1.65 -3.4 1.55 -3.85 1.25 L-3.9 1.2 -4.1 1.1 -4.15 0.95 -4.15 0.9 -4.05 0.85 -3.8 0.95 -3.45 1.05 -3.8 0.15 -3.8 -0.35 Q-3.35 -0.25 -2.6 0.45 L-2.45 0.6 -2.15 0.15 Q-1.65 -0.45 -0.95 -0.95 0.3 -1.8 1.5 -1.9 M0.85 3.15 L0.65 3.05 0.7 3.05 Q0.35 2.9 0.1 2.85 L0.0 2.8 -0.05 2.8 1.15 1.6 Q1.45 1.35 2.65 0.6 L3.3 0.2 3.35 0.25 3.4 0.35 3.4 0.45 3.15 0.65 Q2.2 1.25 1.8 1.55 L1.1 2.3 0.9 2.45 0.8 2.4 Q1.05 2.6 1.05 2.75 L1.0 3.0 Q0.95 3.1 0.85 3.15" fill="#a9854f" fill-rule="evenodd" stroke="none"/>
    </g>
    <g id="sprite1" transform="matrix(1.0, 0.0, 0.0, 1.0, 30.1, 33.25)">
      <use ffdec:characterId="950" height="9.5" transform="matrix(7.0, 0.0, 0.0, 7.0, -30.1, -33.25)" width="8.65" xlink:href="#shape1"/>
    </g>
    <g id="shape1" transform="matrix(1.0, 0.0, 0.0, 1.0, 4.3, 4.75)">
      <path d="M3.95 -3.35 L3.95 -3.85 Q3.95 -3.95 4.05 -4.15 L4.1 -4.05 4.1 -4.15 4.05 -4.35 Q4.05 -4.45 4.1 -4.4 L4.1 -4.35 4.15 -4.2 4.15 -4.75 Q4.3 -4.05 4.35 -2.95 L4.35 -2.9 Q4.35 -2.15 4.15 -1.45 L3.95 -0.8 3.95 -0.65 3.75 -0.2 3.7 -0.1 3.85 0.05 3.9 0.2 3.9 0.35 Q3.85 0.6 3.65 0.8 3.55 0.9 3.25 1.05 L3.25 1.2 Q3.25 1.4 3.1 1.55 L2.95 1.75 Q3.3 2.1 3.3 2.4 L3.3 2.45 3.2 2.35 Q3.1 2.45 2.7 2.55 2.1 2.7 2.05 2.9 L1.85 3.25 Q1.65 3.5 1.4 3.5 1.35 3.75 1.0 4.1 0.55 4.55 0.0 4.6 L-0.1 4.65 -0.2 4.6 -0.5 4.5 -0.6 4.55 -0.7 4.55 Q-0.95 4.75 -1.15 4.75 -1.45 4.75 -1.65 4.45 L-1.65 4.4 -1.75 4.45 Q-1.95 4.55 -2.1 4.55 -2.25 4.55 -2.7 4.1 -3.05 3.7 -3.05 3.6 L-3.0 3.45 -3.2 3.45 -3.5 3.5 Q-3.85 3.5 -4.1 2.85 L-4.2 2.6 -4.25 2.55 -4.3 2.3 -4.3 2.15 Q-4.3 1.85 -4.0 1.45 -3.65 0.95 -3.55 0.75 -3.25 0.15 -3.15 0.0 -2.8 -0.3 -2.25 -0.15 -2.05 -0.35 -2.0 -0.7 -1.9 -1.0 -1.6 -1.1 L-1.5 -1.55 -1.5 -1.7 Q-1.5 -1.9 -1.4 -1.95 L-0.8 -1.95 -0.85 -2.0 -0.65 -2.3 Q-0.35 -2.85 0.2 -3.45 1.25 -4.55 1.8 -4.5 1.25 -4.2 0.85 -3.8 L0.8 -3.8 0.45 -3.45 Q0.2 -3.15 -0.05 -2.85 L-0.1 -2.75 -0.2 -2.65 -0.2 -2.6 -0.4 -2.3 -0.45 -2.2 -0.4 -2.2 -0.6 -1.9 Q-0.6 -1.85 -0.6 -1.8 -0.3 -1.7 0.0 -1.5 L0.65 -1.0 Q1.15 -0.6 1.25 -0.55 L1.55 -0.5 1.8 -0.5 1.8 -0.45 2.15 -0.45 2.25 -0.45 2.25 -0.4 2.4 -0.4 2.65 -0.35 3.2 -0.2 3.3 -0.15 3.35 -0.1 3.4 -0.1 3.5 -0.05 3.65 -0.5 3.7 -0.85 3.8 -1.3 3.8 -1.4 3.8 -1.45 3.85 -1.8 3.85 -1.85 3.9 -2.35 3.9 -2.75 3.95 -3.35 M-1.2 -0.9 Q-0.7 -0.85 -0.15 -0.65 L-0.15 -0.65 -0.1 -0.7 0.8 -0.55 0.9 -0.55 1.1 -0.55 0.05 -1.15 Q-0.8 -1.7 -0.9 -1.7 L-1.1 -1.65 -1.2 -1.6 -1.15 -1.45 -1.15 -1.4 -1.15 -1.35 -1.2 -1.1 Q-1.2 -1.05 -1.3 -0.95 L-1.35 -0.95 -1.2 -0.9 M0.3 -0.4 L0.4 -0.4 Q1.15 -0.15 1.65 0.1 L1.9 0.15 2.25 0.3 2.5 0.4 2.55 0.4 2.7 0.5 2.75 0.5 3.0 0.85 3.1 0.85 3.35 0.7 3.35 0.65 3.45 0.55 3.65 0.2 Q3.5 0.1 2.9 -0.05 L2.05 -0.2 1.3 -0.35 0.3 -0.45 0.25 -0.45 0.3 -0.4 M1.2 -0.55 L1.2 -0.55 M2.9 1.3 L2.95 1.15 2.9 1.05 2.95 1.05 Q2.8 0.75 2.0 0.4 L1.3 0.1 1.2 0.05 1.05 0.0 1.55 0.5 2.65 1.45 2.75 1.55 2.85 1.45 2.9 1.3 M2.35 2.4 Q2.65 2.25 3.05 2.25 L3.1 2.25 3.1 2.2 2.9 2.05 2.75 1.85 2.7 1.85 2.65 1.8 2.65 1.75 Q1.95 1.05 1.4 0.6 0.8 0.1 0.05 -0.25 L-0.55 -0.45 -0.8 -0.45 -0.8 -0.5 -0.75 -0.5 -1.3 -0.7 -1.0 -0.7 -1.3 -0.8 -1.55 -0.85 -1.6 -0.85 1.2 2.15 1.15 2.15 0.95 2.0 Q0.4 1.55 -0.65 0.5 L-1.6 -0.45 -1.65 -0.35 Q-1.65 -0.25 -1.8 -0.2 L-1.95 0.0 Q-1.95 0.15 -1.3 0.9 L-0.6 1.7 0.2 2.6 Q0.65 3.0 1.15 3.3 L1.4 3.15 1.65 2.9 1.55 2.75 1.5 2.7 1.35 2.4 1.35 2.35 1.4 2.35 Q1.55 2.55 1.75 2.85 L1.75 2.8 2.0 2.55 2.05 2.55 2.1 2.5 2.35 2.4 M-0.9 4.05 L-0.75 4.1 -0.45 4.25 -0.4 4.3 -0.3 4.3 -0.3 4.35 -0.2 4.35 Q0.05 4.35 0.15 4.25 0.25 4.15 0.4 4.1 L0.35 4.2 0.8 3.85 1.2 3.5 1.15 3.5 1.0 3.4 1.05 3.4 0.75 3.25 Q0.1 2.9 -0.9 1.8 -2.0 0.55 -2.2 0.1 L-2.25 0.1 -2.3 0.1 Q-2.55 0.1 -2.75 0.25 -3.0 0.4 -3.15 0.6 L-3.3 0.85 -2.9 0.45 -2.9 0.5 -2.85 0.5 Q-2.85 0.7 -3.5 1.4 L-3.95 1.95 Q-4.1 2.15 -4.1 2.25 L-4.0 2.6 -3.95 2.6 -3.75 2.9 -3.7 3.1 Q-3.6 3.25 -3.5 3.3 L-3.2 3.3 -3.0 3.2 -3.1 3.1 -3.1 3.05 -3.15 3.0 -3.2 3.0 -3.2 2.9 -3.25 2.9 -3.45 2.5 -3.45 2.15 Q-3.4 2.0 -3.3 1.85 L-3.25 1.8 -3.25 2.2 Q-3.25 2.5 -3.0 2.8 -2.7 3.2 -2.45 3.5 L-2.3 3.7 -1.9 4.1 -1.8 4.05 -1.6 4.05 -1.35 3.95 -1.05 4.0 -0.95 4.0 -0.9 4.05 M-1.25 4.35 L-1.1 4.5 -0.9 4.45 -0.8 4.4 -0.75 4.35 -0.85 4.35 -1.2 4.3 -1.35 4.3 Q-1.35 4.35 -1.25 4.35 M-2.05 4.3 L-2.0 4.3 Q-2.25 4.2 -2.7 3.65 L-2.75 3.6 -2.65 3.8 -2.65 3.85 -2.45 4.0 -2.1 4.3 -2.05 4.3" fill="#111111" fill-rule="evenodd" stroke="none"/>
      <path d="M0.85 -3.8 L0.95 -3.85 0.65 -3.45 0.5 -3.5 0.35 -3.3 0.55 -3.25 0.45 -3.1 Q0.4 -3.1 0.35 -3.15 L0.25 -3.15 0.2 -3.1 0.25 -3.1 0.15 -3.05 Q0.1 -3.0 0.1 -2.95 L0.1 -2.9 0.05 -2.95 0.0 -2.9 0.15 -2.9 0.35 -2.8 0.3 -2.7 0.15 -2.75 0.1 -2.75 -0.05 -2.8 -0.1 -2.75 -0.05 -2.85 Q0.2 -3.15 0.45 -3.45 L0.8 -3.8 0.85 -3.8 M3.9 -2.35 L3.85 -1.85 3.75 -1.95 3.8 -2.1 3.9 -2.35 M3.85 -1.8 L3.8 -1.45 3.8 -1.4 3.7 -1.4 Q3.6 -1.4 3.6 -1.3 L3.6 -1.2 3.75 -1.15 Q3.7 -1.2 3.75 -1.35 L3.8 -1.3 3.7 -0.85 3.65 -0.5 3.5 -0.05 3.4 -0.1 3.55 -0.3 3.6 -0.45 3.65 -0.5 3.45 -0.6 Q3.3 -0.55 3.05 -0.4 L2.85 -0.5 2.5 -0.65 Q2.85 -0.75 3.2 -1.0 L3.1 -0.9 3.2 -1.05 3.6 -0.8 Q3.65 -0.75 3.7 -0.75 L3.7 -0.95 3.3 -1.2 3.45 -1.35 Q3.55 -1.5 3.65 -1.8 L3.7 -1.8 3.8 -1.7 3.85 -1.8 M3.3 -0.15 L3.2 -0.2 2.65 -0.35 2.4 -0.4 2.45 -0.5 Q2.7 -0.5 2.85 -0.35 L3.15 -0.2 3.15 -0.35 3.35 -0.45 3.5 -0.5 3.35 -0.3 3.3 -0.15 M2.25 -0.45 L2.15 -0.45 2.25 -0.5 2.25 -0.45 M1.55 -0.5 L1.25 -0.55 Q1.15 -0.6 0.65 -1.0 L0.0 -1.5 Q-0.3 -1.7 -0.6 -1.8 -0.6 -1.85 -0.6 -1.9 L-0.4 -2.2 -0.25 -1.95 -0.3 -1.95 -0.55 -1.8 -0.4 -1.75 -0.4 -1.7 -0.2 -1.8 -0.2 -1.75 Q-0.2 -1.7 -0.25 -1.65 L-0.05 -1.55 0.1 -1.45 0.25 -1.6 0.4 -1.55 0.55 -1.35 0.4 -1.25 0.5 -1.15 0.65 -1.25 0.7 -1.15 0.65 -1.05 0.9 -0.9 1.0 -0.9 0.95 -0.85 0.95 -0.8 1.1 -0.7 1.15 -0.8 1.2 -0.85 Q1.4 -0.75 1.65 -0.7 L1.7 -0.6 1.55 -0.5 M-0.4 -2.3 L-0.2 -2.6 0.0 -2.55 0.2 -2.45 Q0.15 -2.25 0.15 -2.1 L-0.15 -2.0 -0.2 -2.05 -0.2 -2.15 -0.3 -2.25 -0.4 -2.3 M0.35 -2.85 L0.25 -2.85 0.3 -2.9 0.35 -3.0 0.4 -3.0 0.35 -2.85 M0.25 -1.8 L0.15 -1.75 -0.05 -1.7 -0.05 -1.75 -0.1 -1.85 0.2 -1.95 Q0.2 -1.85 0.25 -1.8 M2.0 -0.65 L2.0 -0.65 M-0.15 -2.7 L-0.15 -2.7" fill="#a9854f" fill-rule="evenodd" stroke="none"/>
      <path d="M0.95 -3.85 Q1.55 -4.05 2.65 -3.8 3.25 -3.7 3.7 -3.5 L3.95 -3.35 3.9 -2.75 3.9 -2.35 3.8 -2.1 3.75 -1.95 3.2 -2.3 2.5 -2.75 Q1.5 -3.25 1.3 -3.25 L0.7 -3.45 0.65 -3.45 0.95 -3.85 M1.95 -2.45 L2.0 -2.3 Q1.85 -2.3 1.65 -2.4 1.45 -2.5 1.35 -2.6 1.35 -2.7 1.55 -2.7 L1.7 -2.6 1.65 -2.6 1.6 -2.55 1.6 -2.45 1.7 -2.45 1.8 -2.55 1.95 -2.45 M2.1 -2.35 Q2.1 -2.4 1.95 -2.55 L1.65 -2.7 Q1.55 -2.75 1.4 -2.8 1.15 -2.8 1.15 -2.6 L1.5 -2.35 Q1.9 -2.15 2.0 -2.15 2.1 -2.15 2.1 -2.35 M3.3 -1.2 L2.85 -1.45 Q2.4 -1.7 2.05 -1.9 L1.85 -2.0 0.3 -2.7 0.35 -2.8 0.65 -2.7 0.8 -2.9 0.5 -3.1 0.45 -3.1 0.55 -3.25 Q1.35 -3.1 2.55 -2.45 L3.65 -1.8 Q3.55 -1.5 3.45 -1.35 L3.3 -1.2 M2.75 -2.25 L2.8 -2.25 2.7 -2.3 2.75 -2.25 M2.7 -2.05 L2.65 -2.1 Q2.45 -2.0 2.45 -1.95 L2.85 -1.7 2.95 -1.6 3.25 -1.45 3.3 -1.45 Q3.35 -1.45 3.4 -1.55 L3.45 -1.65 3.35 -1.75 3.2 -1.85 Q3.35 -1.75 3.35 -1.7 3.35 -1.6 3.3 -1.55 L2.6 -1.95 2.7 -2.05 M2.7 -2.1 L2.75 -2.1 2.7 -2.0 2.75 -1.95 2.8 -2.05 3.05 -1.9 2.95 -1.8 3.0 -1.75 3.1 -1.9 2.75 -2.15 2.7 -2.1 M2.85 -2.5 L2.8 -2.5 Q3.2 -2.3 3.5 -2.1 L3.25 -2.25 2.85 -2.5 M0.35 -2.85 L0.4 -3.0 0.65 -2.9 0.6 -2.8 0.55 -2.8 0.35 -2.85 M0.2 -1.95 L0.4 -1.95 0.25 -1.8 Q0.2 -1.85 0.2 -1.95 M2.5 -0.65 L2.65 -0.95 2.65 -1.0 2.6 -1.05 2.6 -1.0 Q2.4 -1.0 1.95 -0.75 L1.9 -0.7 1.8 -0.8 Q1.6 -1.05 1.3 -1.1 L1.4 -1.3 1.6 -1.6 1.55 -1.65 1.3 -1.65 Q1.0 -1.6 0.75 -1.45 L0.7 -1.5 Q0.55 -1.65 0.35 -1.7 L0.55 -1.95 0.65 -2.05 0.4 -2.1 0.15 -2.1 Q0.15 -2.25 0.2 -2.45 L0.6 -2.3 Q0.85 -2.25 1.25 -2.05 L1.9 -1.7 Q2.7 -1.3 3.2 -1.05 L3.1 -0.9 3.2 -1.0 Q2.85 -0.75 2.5 -0.65 M1.35 -1.55 L1.25 -1.45 1.15 -1.2 1.1 -1.1 0.85 -1.1 0.9 -1.15 0.85 -1.3 0.9 -1.35 1.4 -1.55 1.35 -1.55 M1.2 -0.85 L1.2 -0.9 1.35 -0.85 Q1.65 -0.75 1.65 -0.7 1.4 -0.75 1.2 -0.85 M0.55 -1.35 L0.4 -1.55 0.55 -1.4 0.55 -1.35 M2.35 -1.65 L2.35 -1.7 2.4 -1.65 2.35 -1.65 M2.0 -0.65 L2.25 -0.8 2.4 -0.85 2.5 -0.9 2.35 -0.65 2.0 -0.65" fill="#c7a36d" fill-rule="evenodd" stroke="none"/>
      <path d="M0.9 -0.55 Q0.9 -0.6 -0.3 -1.1 -0.85 -1.3 -1.15 -1.4 L-1.15 -1.45 -1.2 -1.6 -1.1 -1.65 -0.9 -1.7 Q-0.8 -1.7 0.05 -1.15 L1.1 -0.55 0.9 -0.55 M-1.3 -0.95 L-1.2 -0.9 -1.35 -0.95 -1.3 -0.95 M0.3 -0.4 L0.25 -0.45 0.3 -0.45 1.3 -0.35 2.05 -0.2 2.9 -0.05 Q3.5 0.1 3.65 0.2 L3.45 0.55 Q3.2 0.3 2.45 0.1 L0.25 -0.45 0.3 -0.4 M2.5 0.4 L2.25 0.3 1.9 0.15 2.55 0.35 2.5 0.4 M2.0 0.4 Q2.8 0.75 2.95 1.05 L2.9 1.05 2.95 1.15 2.9 1.3 Q2.4 0.7 2.0 0.4 M2.9 2.05 L2.85 1.95 2.75 1.95 1.8 1.5 Q1.55 1.35 1.2 1.05 L0.65 0.5 -0.55 -0.45 0.05 -0.25 Q0.8 0.1 1.4 0.6 1.95 1.05 2.65 1.75 L2.65 1.8 2.7 1.85 2.75 1.85 2.9 2.05 M0.95 2.0 L1.25 2.35 1.4 2.6 Q0.85 2.6 0.0 1.9 -0.65 1.4 -0.9 1.1 L-0.85 1.1 Q-0.75 1.2 -0.3 1.5 L0.2 1.85 Q0.3 1.85 0.3 1.8 L-0.75 0.5 Q-1.3 -0.1 -1.65 -0.35 L-1.6 -0.45 -0.65 0.5 Q0.4 1.55 0.95 2.0 M2.05 2.55 L2.05 2.5 1.65 2.0 Q1.85 2.05 2.35 2.4 L2.1 2.5 2.05 2.55 M1.4 1.65 L1.35 1.65 1.25 1.55 1.3 1.55 1.4 1.65 M-1.6 0.25 L-1.6 0.25 M-1.2 0.75 L-1.35 0.55 -1.0 0.9 -1.2 0.75" fill="#b00000" fill-rule="evenodd" stroke="none"/>
      <path d="M0.35 3.45 L0.5 3.5 0.45 3.55 Q0.15 3.8 -0.45 4.2 L-0.35 4.15 -0.4 4.05 Q-0.55 3.95 -0.7 3.9 L-0.65 3.9 Q0.25 3.45 0.35 3.45 M-2.25 0.1 Q-2.15 0.65 -1.4 1.65 L-0.15 3.1 -0.75 3.35 -1.6 3.75 -1.65 3.75 Q-1.9 3.75 -2.45 2.8 -2.95 1.9 -2.95 1.75 L-2.95 1.45 Q-2.95 1.3 -3.0 1.2 L-3.1 1.45 Q-3.25 1.5 -3.35 1.7 L-3.45 2.0 -3.6 2.0 -3.95 1.95 -3.5 1.4 Q-2.85 0.7 -2.85 0.5 L-2.9 0.5 -2.9 0.45 -3.3 0.85 -3.15 0.6 Q-3.0 0.4 -2.75 0.25 -2.55 0.1 -2.3 0.1 L-2.25 0.1" fill="#9c9581" fill-rule="evenodd" stroke="none"/>
      <path d="M0.35 3.45 Q0.25 3.45 -0.65 3.9 L-0.7 3.9 Q-0.55 3.95 -0.4 4.05 L-0.35 4.15 -0.45 4.2 Q0.15 3.8 0.45 3.55 L0.5 3.5 0.35 3.45 M-2.25 0.1 L-2.2 0.1 Q-2.0 0.55 -0.9 1.8 0.1 2.9 0.75 3.25 L1.05 3.4 1.0 3.4 1.15 3.5 1.2 3.5 0.8 3.85 0.35 4.2 0.4 4.1 Q0.25 4.15 0.15 4.25 0.05 4.35 -0.2 4.35 L-0.3 4.35 -0.3 4.3 -0.4 4.3 -0.45 4.25 -0.75 4.1 -0.9 4.05 -0.9 4.0 -0.95 4.0 -1.05 4.0 -1.35 3.95 -1.6 4.05 -1.8 4.05 -1.9 4.1 -2.3 3.7 -2.45 3.5 Q-2.7 3.2 -3.0 2.8 -3.25 2.5 -3.25 2.2 L-3.25 1.8 -3.3 1.85 Q-3.4 2.0 -3.45 2.15 L-3.45 2.5 -3.25 2.9 -3.2 2.9 -3.2 3.0 -3.15 3.0 -3.1 3.05 -3.1 3.1 -3.0 3.2 -3.2 3.3 -3.5 3.3 Q-3.6 3.25 -3.7 3.1 L-3.75 2.9 -3.95 2.6 -4.0 2.6 -4.1 2.25 Q-4.1 2.15 -3.95 1.95 L-3.6 2.0 -3.45 2.0 -3.35 1.7 Q-3.25 1.5 -3.1 1.45 L-3.0 1.2 Q-2.95 1.3 -2.95 1.45 L-2.95 1.75 Q-2.95 1.9 -2.45 2.8 -1.9 3.75 -1.65 3.75 L-1.6 3.75 -0.75 3.35 -0.15 3.1 -1.4 1.65 Q-2.15 0.65 -2.25 0.1 M-2.05 4.3 L-2.1 4.3 -2.45 4.0 -2.65 3.85 -2.65 3.8 -2.75 3.6 -2.7 3.65 Q-2.25 4.2 -2.0 4.3 L-2.05 4.3 M-1.25 4.35 Q-1.35 4.35 -1.35 4.3 L-1.2 4.3 -0.85 4.35 -0.75 4.35 -0.8 4.4 -0.9 4.45 -1.1 4.5 -1.25 4.35" fill="#666154" fill-rule="evenodd" stroke="none"/>
      <path d="M-0.95 4.0 L-0.9 4.0 -0.9 4.05 -0.95 4.0" fill="#80c0f0" fill-rule="evenodd" stroke="none"/>
      <path d="M0.9 -0.55 L0.8 -0.55 -0.1 -0.7 -0.15 -0.65 -0.15 -0.65 Q-0.7 -0.85 -1.2 -0.9 L-1.3 -0.95 Q-1.2 -1.05 -1.2 -1.1 L-1.15 -1.35 -1.15 -1.4 Q-0.85 -1.3 -0.3 -1.1 0.9 -0.6 0.9 -0.55 M1.9 0.15 L1.65 0.1 Q1.15 -0.15 0.4 -0.4 L0.3 -0.4 0.25 -0.45 2.45 0.1 Q3.2 0.3 3.45 0.55 L3.35 0.65 3.35 0.7 3.1 0.85 3.0 0.85 2.75 0.5 2.7 0.5 2.55 0.4 2.5 0.4 2.55 0.35 1.9 0.15 M2.0 0.4 Q2.4 0.7 2.9 1.3 L2.85 1.45 2.75 1.55 2.65 1.45 1.55 0.5 1.05 0.0 1.2 0.05 1.3 0.1 2.0 0.4 M2.9 2.05 L3.1 2.2 3.1 2.25 3.05 2.25 Q2.65 2.25 2.35 2.4 1.85 2.05 1.65 2.0 L2.05 2.5 2.05 2.55 2.0 2.55 1.75 2.8 1.75 2.85 Q1.55 2.55 1.4 2.35 L1.35 2.35 1.35 2.4 1.5 2.7 1.55 2.75 1.65 2.9 1.4 3.15 1.15 3.3 Q0.65 3.0 0.2 2.6 L-0.6 1.7 -1.3 0.9 Q-1.95 0.15 -1.95 0.0 L-1.8 -0.2 Q-1.65 -0.25 -1.65 -0.35 -1.3 -0.1 -0.75 0.5 L0.3 1.8 Q0.3 1.85 0.2 1.85 L-0.3 1.5 Q-0.75 1.2 -0.85 1.1 L-0.9 1.1 Q-0.65 1.4 0.0 1.9 0.85 2.6 1.4 2.6 L1.25 2.35 0.95 2.0 1.15 2.15 1.2 2.15 -1.6 -0.85 -1.55 -0.85 -1.3 -0.8 -1.0 -0.7 -1.3 -0.7 -0.75 -0.5 -0.8 -0.5 -0.8 -0.45 -0.55 -0.45 0.65 0.5 1.2 1.05 Q1.55 1.35 1.8 1.5 L2.75 1.95 2.85 1.95 2.9 2.05 M1.4 1.65 L1.3 1.55 1.25 1.55 1.35 1.65 1.4 1.65 M-1.2 0.75 L-1.0 0.9 -1.35 0.55 -1.2 0.75 M-1.6 0.25 L-1.6 0.25" fill="#600000" fill-rule="evenodd" stroke="none"/>
      <path d="M3.85 -1.85 L3.85 -1.8 3.8 -1.7 3.7 -1.8 3.65 -1.8 2.55 -2.45 Q1.35 -3.1 0.55 -3.25 L0.35 -3.3 0.5 -3.5 0.65 -3.45 0.7 -3.45 1.3 -3.25 Q1.5 -3.25 2.5 -2.75 L3.2 -2.3 3.75 -1.95 3.85 -1.85 M3.8 -1.4 L3.8 -1.3 3.75 -1.35 Q3.7 -1.2 3.75 -1.15 L3.6 -1.2 3.6 -1.3 Q3.6 -1.4 3.7 -1.4 L3.8 -1.4 M3.4 -0.1 L3.35 -0.1 3.3 -0.15 3.35 -0.3 3.5 -0.5 3.35 -0.45 3.15 -0.35 3.15 -0.2 2.85 -0.35 Q2.7 -0.5 2.45 -0.5 L2.4 -0.4 2.25 -0.4 2.25 -0.45 2.25 -0.5 2.15 -0.45 1.8 -0.45 1.8 -0.5 1.55 -0.5 1.7 -0.6 1.65 -0.7 Q1.65 -0.75 1.35 -0.85 L1.2 -0.9 1.2 -0.85 1.15 -0.8 1.1 -0.7 0.95 -0.8 0.95 -0.85 1.0 -0.9 0.9 -0.9 0.65 -1.05 0.7 -1.15 0.65 -1.25 0.5 -1.15 0.4 -1.25 0.55 -1.35 0.55 -1.4 0.4 -1.55 0.25 -1.6 0.1 -1.45 -0.05 -1.55 -0.25 -1.65 Q-0.2 -1.7 -0.2 -1.75 L-0.2 -1.8 -0.4 -1.7 -0.4 -1.75 -0.55 -1.8 -0.3 -1.95 -0.25 -1.95 -0.4 -2.2 -0.45 -2.2 -0.4 -2.3 -0.3 -2.25 -0.2 -2.15 -0.2 -2.05 -0.15 -2.0 0.15 -2.1 0.4 -2.1 0.65 -2.05 0.55 -1.95 0.35 -1.7 Q0.55 -1.65 0.7 -1.5 L0.75 -1.45 Q1.0 -1.6 1.3 -1.65 L1.55 -1.65 1.6 -1.6 1.4 -1.3 1.3 -1.1 Q1.6 -1.05 1.8 -0.8 L1.9 -0.7 1.95 -0.75 Q2.4 -1.0 2.6 -1.0 L2.6 -1.05 2.65 -1.0 2.65 -0.95 2.5 -0.65 2.85 -0.5 3.05 -0.4 Q3.3 -0.55 3.45 -0.6 L3.65 -0.5 3.6 -0.45 3.55 -0.3 3.4 -0.1 M-0.2 -2.6 L-0.2 -2.65 -0.1 -2.75 -0.05 -2.8 0.1 -2.75 0.15 -2.75 0.3 -2.7 1.85 -2.0 2.05 -1.9 Q2.4 -1.7 2.85 -1.45 L3.3 -1.2 3.7 -0.95 3.7 -0.75 Q3.65 -0.75 3.6 -0.8 L3.2 -1.05 Q2.7 -1.3 1.9 -1.7 L1.25 -2.05 Q0.85 -2.25 0.6 -2.3 L0.2 -2.45 0.0 -2.55 -0.2 -2.6 M2.1 -2.35 Q2.1 -2.15 2.0 -2.15 1.9 -2.15 1.5 -2.35 L1.15 -2.6 Q1.15 -2.8 1.4 -2.8 1.55 -2.75 1.65 -2.7 L1.95 -2.55 Q2.1 -2.4 2.1 -2.35 M1.95 -2.45 L1.8 -2.55 1.7 -2.45 1.6 -2.45 1.6 -2.55 1.65 -2.6 1.7 -2.6 1.55 -2.7 Q1.35 -2.7 1.35 -2.6 1.45 -2.5 1.65 -2.4 1.85 -2.3 2.0 -2.3 L1.95 -2.45 M2.75 -2.25 L2.7 -2.3 2.8 -2.25 2.75 -2.25 M2.85 -2.5 L3.25 -2.25 3.5 -2.1 Q3.2 -2.3 2.8 -2.5 L2.85 -2.5 M2.7 -2.1 L2.75 -2.15 3.1 -1.9 3.0 -1.75 2.95 -1.8 3.05 -1.9 2.8 -2.05 2.75 -1.95 2.7 -2.0 2.75 -2.1 2.7 -2.1 M2.7 -2.05 L2.6 -1.95 3.3 -1.55 Q3.35 -1.6 3.35 -1.7 3.35 -1.75 3.2 -1.85 L3.35 -1.75 3.45 -1.65 3.4 -1.55 Q3.35 -1.45 3.3 -1.45 L3.25 -1.45 2.95 -1.6 2.85 -1.7 2.45 -1.95 Q2.45 -2.0 2.65 -2.1 L2.7 -2.05 M0.35 -2.8 L0.15 -2.9 0.0 -2.9 0.05 -2.95 0.1 -2.9 0.1 -2.95 Q0.1 -3.0 0.15 -3.05 L0.25 -3.1 0.2 -3.1 0.25 -3.15 0.35 -3.15 Q0.4 -3.1 0.45 -3.1 L0.5 -3.1 0.8 -2.9 0.65 -2.7 0.35 -2.8 M0.4 -3.0 L0.35 -3.0 0.3 -2.9 0.25 -2.85 0.35 -2.85 0.55 -2.8 0.6 -2.8 0.65 -2.9 0.4 -3.0 M0.25 -1.8 L0.4 -1.95 0.2 -1.95 -0.1 -1.85 -0.05 -1.75 -0.05 -1.7 0.15 -1.75 0.25 -1.8 M1.35 -1.55 L1.4 -1.55 0.9 -1.35 0.85 -1.3 0.9 -1.15 0.85 -1.1 1.1 -1.1 1.15 -1.2 1.25 -1.45 1.35 -1.55 M2.35 -1.65 L2.4 -1.65 2.35 -1.7 2.35 -1.65 M2.0 -0.65 L2.0 -0.65 2.35 -0.65 2.5 -0.9 2.4 -0.85 2.25 -0.8 2.0 -0.65 M-0.15 -2.7 L-0.15 -2.7" fill="#fff2e5" fill-rule="evenodd" stroke="none"/>
    </g>
    <g id="sprite2" transform="matrix(1.0, 0.0, 0.0, 1.0, 13.3, 63.0)">
      <use ffdec:characterId="960" height="12.05" transform="matrix(7.0, 0.0, 0.0, 7.0, -13.3, -63.0)" width="20.45" xlink:href="#shape2"/>
    </g>
    <g id="shape2" transform="matrix(1.0, 0.0, 0.0, 1.0, 1.9, 9.0)">
      <path d="M2.5 -4.65 L2.85 -5.85 3.2 -7.35 3.7 -7.85 4.0 -8.0 Q4.55 -8.2 5.5 -8.4 L6.9 -8.6 9.3 -8.8 9.95 -8.8 10.65 -8.75 11.35 -8.75 Q11.4 -8.7 12.5 -8.5 13.6 -8.25 13.85 -7.8 14.1 -7.45 14.15 -7.0 L14.2 -6.65 14.3 -6.8 14.3 -6.85 14.35 -6.7 14.3 -6.5 14.35 -6.0 14.35 -5.4 Q14.45 -4.3 14.65 -4.3 14.8 -4.3 15.0 -5.5 L15.45 -4.9 16.2 -4.0 Q16.15 -3.55 15.1 -2.5 L14.4 -1.9 14.15 -1.75 Q13.5 -1.35 13.0 -1.35 12.95 -1.35 12.65 -1.55 L12.7 -1.5 13.1 -1.75 13.4 -1.9 13.6 -2.05 Q14.5 -2.65 14.5 -2.8 14.5 -2.9 14.45 -2.9 L14.05 -3.0 12.3 -3.1 12.2 -3.1 12.2 -3.15 12.7 -3.35 13.9 -3.5 Q14.2 -3.55 14.2 -3.75 14.2 -3.95 13.8 -4.05 L12.95 -4.1 Q12.75 -4.1 11.8 -3.8 L11.05 -3.55 10.6 -3.35 Q8.5 -2.6 8.25 -2.6 7.55 -2.6 6.55 -3.35 6.0 -3.75 5.6 -4.1 5.55 -4.1 5.5 -4.05 5.45 -4.05 5.4 -4.05 5.3 -4.05 4.35 -4.4 L4.0 -4.5 Q3.4 -4.55 3.4 -4.1 3.4 -4.05 4.0 -3.75 L4.65 -3.4 Q4.85 -3.3 5.05 -3.2 4.9 -3.05 4.8 -2.8 L4.0 -2.85 3.6 -2.85 Q3.3 -2.8 3.25 -2.55 3.6 -2.35 4.0 -2.0 L4.45 -1.6 4.55 -1.5 4.55 -1.2 4.35 -0.9 4.05 -0.9 3.8 -1.05 Q3.3 -1.25 2.95 -1.55 L2.8 -1.65 2.35 -2.1 2.25 -2.25 2.2 -2.25 2.2 -2.3 1.75 -2.6 1.4 -3.05 0.95 -3.6 0.8 -3.9 0.7 -4.0 1.45 -4.95 1.55 -5.1 Q1.75 -3.6 1.95 -3.6 2.35 -3.6 2.45 -4.35 L2.5 -4.65 M14.7 -5.9 L14.75 -5.9 14.7 -5.85 14.7 -5.9" fill="#80c0f0" fill-rule="evenodd" stroke="none"/>
      <path d="M14.35 -6.7 L14.3 -6.85 14.3 -6.8 14.2 -6.65 14.15 -7.0 Q14.1 -7.45 13.85 -7.8 13.6 -8.25 12.5 -8.5 11.4 -8.7 11.35 -8.75 L10.65 -8.75 9.95 -8.8 9.3 -8.8 6.9 -8.6 5.5 -8.4 Q4.55 -8.2 4.0 -8.0 L3.7 -7.85 3.2 -7.35 2.85 -5.85 2.5 -4.65 2.45 -4.6 2.15 -3.75 2.15 -3.7 2.1 -3.7 Q2.15 -4.75 2.5 -5.9 L2.7 -6.55 2.75 -6.8 2.8 -6.9 Q2.3 -6.1 1.55 -5.1 L1.45 -4.95 0.7 -4.0 0.55 -3.85 0.5 -3.7 0.3 -3.5 Q0.3 -3.05 0.45 -2.85 L0.55 -2.75 Q1.15 -2.15 1.7 -1.65 L1.75 -1.65 1.85 -1.5 Q2.3 -1.4 2.7 -1.25 3.2 -1.0 3.55 -0.65 L3.8 -0.4 3.9 -0.35 4.0 -0.35 Q4.1 -0.35 4.2 -0.5 L4.15 -0.3 4.25 -0.3 5.5 -0.45 6.15 -0.6 6.55 -0.7 6.6 -0.7 7.45 -0.9 7.3 -0.85 7.85 -1.0 8.0 -1.5 8.05 -1.7 8.05 -2.0 7.65 -2.1 7.55 -2.1 7.55 -2.15 Q7.25 -2.3 6.55 -2.8 L6.25 -3.05 5.85 -3.35 5.75 -3.55 Q5.95 -3.5 6.15 -3.35 L6.55 -3.0 7.1 -2.6 8.15 -2.4 8.15 -2.45 8.2 -2.4 Q8.25 -2.4 8.3 -2.35 L8.35 -2.35 8.4 -2.3 Q8.8 -2.35 9.45 -2.6 L10.5 -3.0 10.6 -3.0 11.05 -3.35 Q11.5 -3.55 11.8 -3.45 L11.95 -3.4 11.85 -3.3 11.8 -3.3 11.05 -3.0 10.65 -2.85 Q10.05 -2.55 9.8 -2.3 L9.75 -2.3 10.1 -2.6 8.75 -2.15 9.1 -1.95 10.0 -1.4 9.95 -1.35 8.95 -1.75 Q8.65 -1.9 8.45 -2.05 L8.4 -2.05 8.45 -1.7 8.4 -0.95 Q8.4 -0.75 9.0 -0.55 L9.75 -0.4 9.9 -0.4 11.5 -0.3 12.2 -0.35 12.4 -0.5 12.85 -0.85 13.3 -1.25 Q13.8 -1.55 14.2 -1.75 L14.45 -1.8 14.55 -1.85 14.75 -1.9 15.05 -1.95 Q15.9 -2.55 16.5 -3.1 L16.6 -3.4 Q16.6 -3.55 16.25 -4.0 L16.2 -4.0 15.45 -4.9 15.0 -5.5 14.75 -5.9 14.7 -5.9 14.65 -6.0 14.4 -6.6 14.35 -6.7 M11.2 -9.0 Q12.9 -8.85 13.7 -8.4 14.4 -8.05 14.4 -7.55 L14.35 -7.35 14.5 -7.0 Q14.7 -6.55 15.1 -6.0 15.4 -5.55 15.8 -5.05 L16.95 -3.55 Q16.95 -3.25 16.6 -2.85 16.25 -2.45 15.8 -2.25 L15.8 -2.2 15.9 -2.3 15.85 -2.3 15.8 -2.2 15.1 -1.95 15.35 -2.0 15.7 -1.95 16.25 -1.9 Q16.6 -1.85 16.9 -1.75 17.55 -1.45 18.0 -0.75 18.55 0.1 18.55 1.15 18.55 1.35 18.4 1.7 18.2 2.15 18.0 2.15 17.55 2.35 16.65 2.55 15.25 2.85 14.1 2.85 13.0 2.85 12.1 2.6 L12.05 2.6 Q11.65 2.55 10.35 2.0 L9.5 1.55 9.45 1.6 9.3 1.45 9.1 1.35 Q9.1 1.25 9.15 1.25 L9.1 1.05 Q9.1 0.6 9.2 0.3 9.3 0.05 9.45 -0.15 8.65 -0.25 8.3 -0.45 8.05 -0.6 8.05 -0.95 L8.05 -0.9 8.1 -0.8 Q8.1 -0.55 6.95 -0.35 7.2 0.2 7.2 0.55 L7.2 1.1 Q7.1 1.5 6.9 1.5 L6.8 1.5 6.55 1.65 Q5.75 2.4 5.25 2.8 L5.2 2.8 5.2 2.85 5.15 2.9 5.15 2.85 5.05 2.9 4.9 3.0 4.85 2.95 3.5 3.05 Q1.35 3.05 -0.15 2.7 -1.1 2.45 -1.5 2.2 L-1.6 2.2 Q-1.7 2.2 -1.75 1.95 L-1.85 1.7 -1.9 1.2 Q-1.9 -0.2 -1.1 -0.95 -0.4 -1.6 0.7 -1.65 L1.4 -1.6 1.35 -1.65 1.1 -1.95 Q0.6 -2.1 0.3 -2.45 0.0 -2.8 0.0 -3.1 0.0 -3.6 1.55 -5.7 2.35 -6.75 3.2 -7.85 L3.3 -8.05 3.35 -8.0 3.35 -7.9 Q3.55 -8.1 4.0 -8.3 4.25 -8.4 4.6 -8.5 5.45 -8.7 6.55 -8.85 L9.85 -9.0 11.2 -9.0 M4.35 0.5 Q4.0 0.05 3.55 -0.35 L3.35 -0.55 3.25 -0.6 Q2.6 -1.05 1.8 -1.2 L1.8 -1.25 1.7 -1.25 1.05 -1.3 Q-0.6 -1.3 -1.25 -0.15 -1.5 0.3 -1.55 0.8 L-1.55 1.2 -1.5 1.55 -1.5 1.6 -1.5 1.7 -1.45 1.95 Q-1.0 2.0 0.0 2.3 1.55 2.75 2.55 2.75 L4.2 2.7 4.9 2.6 Q4.95 2.55 5.05 2.5 4.75 1.3 4.6 1.0 4.45 0.75 4.35 0.5 M7.0 -2.65 L7.0 -2.65 M6.55 -0.25 L4.35 0.0 Q4.55 0.25 4.75 0.55 5.25 1.4 5.3 2.25 5.65 1.95 6.05 1.65 L6.55 1.3 6.7 1.2 6.85 0.9 Q6.95 0.7 6.95 0.5 6.95 0.3 6.8 -0.05 L6.7 -0.3 6.55 -0.25 M9.8 -0.1 L9.65 0.25 Q9.45 0.8 9.45 1.05 9.45 1.2 9.5 1.35 L10.6 1.75 Q11.15 1.95 11.6 2.15 L11.85 2.15 11.8 2.05 Q11.65 1.9 11.65 1.7 11.65 0.85 12.05 0.15 L12.15 0.0 Q11.85 0.25 11.7 0.4 11.65 0.5 11.65 0.35 11.65 0.15 12.05 -0.15 L11.1 -0.05 9.8 -0.1 M17.8 -0.35 L17.75 -0.45 Q17.05 -1.7 15.7 -1.7 L14.9 -1.6 13.25 -0.7 13.15 -0.65 12.85 -0.3 12.65 -0.05 12.35 0.45 12.3 0.45 12.2 0.7 Q12.05 1.2 12.0 1.95 L12.05 2.2 12.05 2.25 12.2 2.35 Q12.75 2.55 14.3 2.55 15.8 2.55 17.05 2.15 L17.8 1.9 18.05 1.85 18.1 1.6 Q18.2 1.25 18.2 1.15 L18.2 1.1 18.15 0.6 Q18.1 0.35 18.0 0.05 L17.8 -0.35" fill="#111111" fill-rule="evenodd" stroke="none"/>
      <path d="M2.5 -4.65 L2.45 -4.35 Q2.35 -3.6 1.95 -3.6 1.75 -3.6 1.55 -5.1 2.3 -6.1 2.8 -6.9 L2.75 -6.8 2.7 -6.55 2.5 -5.9 Q2.15 -4.75 2.1 -3.7 L2.15 -3.7 2.15 -3.75 2.45 -4.6 2.5 -4.65 M0.7 -4.0 L0.8 -3.9 0.95 -3.6 1.4 -3.05 1.75 -2.6 2.2 -2.3 2.2 -2.25 2.25 -2.25 2.35 -2.1 2.8 -1.65 2.95 -1.55 Q3.3 -1.25 3.8 -1.05 L4.05 -0.9 4.35 -0.9 4.55 -1.2 4.55 -1.5 4.45 -1.6 4.0 -2.0 Q3.6 -2.35 3.25 -2.55 3.3 -2.8 3.6 -2.85 L4.0 -2.85 4.8 -2.8 Q4.9 -3.05 5.05 -3.2 4.85 -3.3 4.65 -3.4 L4.0 -3.75 Q3.4 -4.05 3.4 -4.1 3.4 -4.55 4.0 -4.5 L4.35 -4.4 Q5.3 -4.05 5.4 -4.05 5.45 -4.05 5.5 -4.05 5.55 -4.1 5.6 -4.1 6.0 -3.75 6.55 -3.35 7.55 -2.6 8.25 -2.6 8.5 -2.6 10.6 -3.35 L11.05 -3.55 11.8 -3.8 Q12.75 -4.1 12.95 -4.1 L13.8 -4.05 Q14.2 -3.95 14.2 -3.75 14.2 -3.55 13.9 -3.5 L12.7 -3.35 12.2 -3.15 12.2 -3.1 12.3 -3.1 14.05 -3.0 14.45 -2.9 Q14.5 -2.9 14.5 -2.8 14.5 -2.65 13.6 -2.05 L13.4 -1.9 13.1 -1.75 12.7 -1.5 12.65 -1.55 Q12.95 -1.35 13.0 -1.35 13.5 -1.35 14.15 -1.75 L14.4 -1.9 15.1 -2.5 Q16.15 -3.55 16.2 -4.0 L16.25 -4.0 Q16.6 -3.55 16.6 -3.4 L16.5 -3.1 Q15.9 -2.55 15.05 -1.95 L14.75 -1.9 14.55 -1.85 14.45 -1.8 14.2 -1.75 Q13.8 -1.55 13.3 -1.25 L12.85 -0.85 12.4 -0.5 12.2 -0.35 11.5 -0.3 9.9 -0.4 9.75 -0.4 9.0 -0.55 Q8.4 -0.75 8.4 -0.95 L8.45 -1.7 8.4 -2.05 8.45 -2.05 Q8.65 -1.9 8.95 -1.75 L9.95 -1.35 10.0 -1.4 9.1 -1.95 8.75 -2.15 10.1 -2.6 9.75 -2.3 9.8 -2.3 Q10.05 -2.55 10.65 -2.85 L11.05 -3.0 11.8 -3.3 11.85 -3.3 11.95 -3.4 11.8 -3.45 Q11.5 -3.55 11.05 -3.35 L10.6 -3.0 10.5 -3.0 9.45 -2.6 Q8.8 -2.35 8.4 -2.3 L8.35 -2.35 8.3 -2.35 Q8.25 -2.4 8.2 -2.4 L8.15 -2.45 8.15 -2.4 7.1 -2.6 6.55 -3.0 6.15 -3.35 Q5.95 -3.5 5.75 -3.55 L5.85 -3.35 6.25 -3.05 6.55 -2.8 Q7.25 -2.3 7.55 -2.15 L7.55 -2.1 7.65 -2.1 8.05 -2.0 8.05 -1.7 8.0 -1.5 7.85 -1.0 7.3 -0.85 7.45 -0.9 6.6 -0.7 6.55 -0.7 6.15 -0.6 5.5 -0.45 4.25 -0.3 4.15 -0.3 4.2 -0.5 Q4.1 -0.35 4.0 -0.35 L3.9 -0.35 3.8 -0.4 3.55 -0.65 Q3.2 -1.0 2.7 -1.25 2.3 -1.4 1.85 -1.5 L1.75 -1.65 1.7 -1.65 Q1.15 -2.15 0.55 -2.75 L0.45 -2.85 Q0.3 -3.05 0.3 -3.5 L0.5 -3.7 0.55 -3.85 0.7 -4.0 M15.0 -5.5 Q14.8 -4.3 14.65 -4.3 14.45 -4.3 14.35 -5.4 L14.35 -6.0 14.3 -6.5 14.35 -6.7 14.4 -6.6 14.65 -6.0 14.7 -5.9 14.7 -5.85 14.75 -5.9 15.0 -5.5" fill="#0070e0" fill-rule="evenodd" stroke="none"/>
      <path d="M-1.55 0.8 Q-1.5 0.3 -1.25 -0.15 -0.6 -1.3 1.05 -1.3 L1.7 -1.25 1.8 -1.25 1.8 -1.2 Q2.6 -1.05 3.25 -0.6 L3.35 -0.55 3.55 -0.35 Q4.0 0.05 4.35 0.5 L4.2 0.6 0.7 1.15 -0.85 1.15 Q-1.15 1.05 -1.45 0.85 L-1.55 0.8 M-1.5 1.7 L-1.5 1.6 -1.45 1.65 -1.5 1.7 M12.65 -0.05 L12.85 -0.3 13.15 -0.65 13.25 -0.7 14.9 -1.6 15.7 -1.7 Q17.05 -1.7 17.75 -0.45 L17.8 -0.35 17.0 0.2 Q15.3 1.35 14.3 1.35 13.35 1.35 12.85 0.4 L12.65 -0.05 M18.0 0.05 Q18.1 0.35 18.15 0.6 L18.1 0.45 17.45 0.9 Q16.65 1.35 15.6 1.35 L15.65 1.35 Q17.2 0.7 18.0 0.05 M1.2 1.75 L-0.2 1.65 2.0 1.45 3.45 1.2 Q3.25 1.35 2.85 1.5 2.1 1.75 1.2 1.75" fill="#9c9581" fill-rule="evenodd" stroke="none"/>
      <path d="M-1.55 0.8 L-1.45 0.85 Q-1.15 1.05 -0.85 1.15 L0.7 1.15 4.2 0.6 4.35 0.5 Q4.45 0.75 4.6 1.0 4.75 1.3 5.05 2.5 4.95 2.55 4.9 2.6 L4.2 2.7 2.55 2.75 Q1.55 2.75 0.0 2.3 -1.0 2.0 -1.45 1.95 L-1.5 1.7 -1.45 1.65 -1.5 1.6 -1.5 1.55 -1.55 1.2 -1.55 0.8 M9.8 -0.1 L11.1 -0.05 12.05 -0.15 Q11.65 0.15 11.65 0.35 11.65 0.5 11.7 0.4 11.85 0.25 12.15 0.0 L12.05 0.15 Q11.65 0.85 11.65 1.7 11.65 1.9 11.8 2.05 L11.85 2.15 11.6 2.15 Q11.15 1.95 10.6 1.75 L9.5 1.35 Q9.45 1.2 9.45 1.05 9.45 0.8 9.65 0.25 L9.8 -0.1 M6.55 -0.25 L6.7 -0.3 6.8 -0.05 Q6.95 0.3 6.95 0.5 6.95 0.7 6.85 0.9 L6.7 1.2 6.55 1.3 6.05 1.65 Q5.65 1.95 5.3 2.25 5.25 1.4 4.75 0.55 4.55 0.25 4.35 0.0 L6.55 -0.25 M12.65 -0.05 L12.85 0.4 Q13.35 1.35 14.3 1.35 15.3 1.35 17.0 0.2 L17.8 -0.35 18.0 0.05 Q17.2 0.7 15.65 1.35 L15.6 1.35 Q16.65 1.35 17.45 0.9 L18.1 0.45 18.15 0.6 18.2 1.1 18.2 1.15 Q18.2 1.25 18.1 1.6 L18.05 1.85 17.8 1.9 17.05 2.15 Q15.8 2.55 14.3 2.55 12.75 2.55 12.2 2.35 L12.05 2.25 12.05 2.2 12.0 1.95 Q12.05 1.2 12.2 0.7 L12.3 0.45 12.35 0.45 12.65 -0.05 M1.2 1.75 Q2.1 1.75 2.85 1.5 3.25 1.35 3.45 1.2 L2.0 1.45 -0.2 1.65 1.2 1.75" fill="#666154" fill-rule="evenodd" stroke="none"/>
    </g>
    <g id="sprite3" transform="matrix(1.0, 0.0, 0.0, 1.0, 0.0, 43.75)">
      <use ffdec:characterId="958" height="8.75" transform="matrix(7.0, 0.0, 0.0, 7.0, 0.0, -43.75)" width="12.0" xlink:href="#shape3"/>
    </g>
    <g id="shape3" transform="matrix(1.0, 0.0, 0.0, 1.0, 0.0, 6.25)">
      <path d="M2.95 -5.4 L2.25 -5.35 1.25 -5.2 Q1.1 -5.2 1.0 -5.1 2.75 -3.95 4.35 -3.2 5.5 -2.65 6.8 -2.2 L8.1 -2.8 9.45 -3.35 Q9.95 -3.55 10.7 -4.1 L11.5 -4.75 Q11.5 -4.9 11.55 -4.95 L11.5 -5.05 Q11.35 -5.25 11.2 -5.35 L11.15 -5.4 10.9 -5.45 8.8 -5.85 7.2 -5.85 4.1 -5.6 4.05 -5.6 2.95 -5.4 M2.85 -3.65 Q1.7 -4.35 0.95 -5.1 L0.8 -4.95 0.65 -4.75 0.6 -4.75 0.55 -4.7 0.5 -4.7 1.1 -4.1 1.4 -3.75 1.85 -3.3 Q2.5 -2.55 2.7 -2.4 L3.35 -1.9 3.35 -1.85 Q3.75 -1.6 4.2 -1.3 L4.25 -1.25 Q5.35 -0.6 6.15 -0.35 L7.15 -0.5 Q7.75 -0.65 8.35 -0.9 L8.85 -1.15 9.1 -1.3 8.45 -1.45 8.45 -1.4 8.25 -1.4 8.35 -1.45 7.35 -1.75 Q5.7 -2.25 4.25 -2.95 L4.2 -2.95 2.85 -3.65 M2.8 -1.95 L2.25 -2.4 2.05 -2.6 0.65 -4.25 0.45 -4.5 Q0.2 -4.1 0.2 -3.9 0.2 -3.7 0.3 -3.5 0.4 -3.3 0.55 -3.15 L0.55 -3.1 0.6 -3.0 Q0.95 -2.55 1.45 -2.05 2.05 -1.45 2.7 -1.05 L2.75 -1.05 Q3.95 -0.3 5.35 -0.3 L5.4 -0.3 5.5 -0.3 5.35 -0.35 5.15 -0.45 3.8 -1.25 3.75 -1.25 2.8 -1.95 M0.45 -4.5 L0.45 -4.5 M0.25 -4.8 Q0.45 -5.4 0.8 -5.35 1.35 -5.6 2.45 -5.7 L3.2 -5.8 Q4.75 -6.05 6.45 -6.15 L7.05 -6.25 7.4 -6.2 8.75 -6.2 Q10.75 -5.9 11.15 -5.75 11.6 -5.6 11.75 -5.3 L11.9 -5.15 Q12.0 -4.95 12.0 -4.45 L11.95 -4.05 Q11.95 -3.55 11.75 -3.3 11.65 -3.1 11.15 -2.65 L11.1 -1.5 Q11.05 -0.05 11.05 0.85 L11.0 1.3 Q10.9 1.65 10.5 1.65 L10.25 1.6 10.2 1.55 10.15 1.55 10.15 1.5 Q10.1 1.1 10.1 0.5 10.1 -0.2 10.2 -1.5 L10.2 -1.65 9.7 -1.3 9.25 -0.95 9.2 -0.8 9.2 -0.45 9.25 -0.35 9.2 -0.35 9.25 0.15 9.3 0.5 9.3 1.1 Q9.35 1.4 9.35 1.75 9.3 2.35 9.0 2.5 L8.65 2.5 Q8.5 2.3 8.4 1.4 L8.3 0.45 8.3 0.4 8.35 -0.55 7.55 -0.3 6.05 -0.05 5.4 0.0 5.25 0.0 Q2.95 -0.05 1.35 -1.75 0.65 -2.5 0.3 -3.2 0.2 -3.3 0.1 -3.45 0.0 -3.65 0.0 -3.9 0.0 -4.3 0.25 -4.8 M11.6 -4.25 L11.6 -4.3 11.55 -4.5 11.55 -4.55 11.2 -4.2 Q10.65 -3.75 9.95 -3.25 8.8 -2.55 7.9 -2.2 L7.8 -2.2 7.3 -2.05 7.25 -2.05 8.65 -1.65 9.1 -1.95 9.15 -1.95 Q9.7 -2.4 10.3 -2.9 L10.4 -3.0 10.7 -3.25 Q11.25 -3.8 11.6 -4.25 M8.85 -1.55 L9.1 -1.5 9.15 -1.5 9.3 -1.45 9.35 -1.45 Q9.8 -1.75 10.25 -2.15 L10.4 -2.3 11.1 -3.1 11.15 -3.25 11.2 -3.3 11.2 -3.05 11.25 -3.1 11.4 -3.3 Q11.55 -3.6 11.6 -3.85 L11.15 -3.35 11.1 -3.3 Q10.8 -3.0 10.4 -2.7 L10.4 -2.65 10.25 -2.55 Q9.65 -2.1 9.15 -1.75 L9.1 -1.75 9.0 -1.7 8.8 -1.6 8.85 -1.55 M10.4 -1.85 L10.35 -1.15 10.5 -1.4 Q10.7 -1.6 10.9 -1.75 L11.0 -2.4 11.0 -2.5 10.9 -2.45 10.85 -2.4 10.85 -2.35 10.4 -1.85 M9.0 -0.1 L8.9 -0.05 8.5 0.35 8.5 0.45 8.5 1.2 Q8.7 0.7 9.05 0.55 L9.05 0.0 9.05 -0.15 9.05 -0.2 9.0 -0.1 M9.05 -0.4 L9.1 -0.9 8.45 -0.6 8.45 0.1 8.7 -0.1 Q8.9 -0.35 9.05 -0.4 M10.9 -1.4 L10.9 -1.6 Q10.6 -1.3 10.35 -0.9 L10.35 -0.75 10.3 -0.5 10.65 -0.5 Q10.8 -0.45 10.9 -0.35 L10.9 -1.4 M10.9 0.1 L10.9 -0.15 10.85 -0.15 Q10.75 -0.15 10.3 -0.45 L10.3 -0.15 10.25 0.75 Q10.4 0.65 10.6 0.6 L10.85 0.65 10.9 0.25 10.9 0.1 M10.85 0.9 L10.85 0.75 Q10.75 0.85 10.45 0.85 L10.35 0.85 10.25 0.8 10.25 1.0 10.2 1.5 10.35 1.55 Q10.75 1.55 10.85 1.2 10.9 1.05 10.85 0.9 M9.05 1.05 L9.05 0.8 9.0 0.85 8.5 1.25 8.55 1.5 Q8.65 2.25 8.9 2.25 9.05 2.25 9.1 1.7 9.05 1.4 9.05 1.05" fill="#111111" fill-rule="evenodd" stroke="none"/>
      <path d="M0.65 -4.75 L0.8 -4.95 0.95 -5.1 Q1.7 -4.35 2.85 -3.65 L2.8 -3.7 2.25 -3.95 2.0 -4.05 Q1.2 -4.5 0.75 -4.7 L0.65 -4.75 M2.95 -5.4 L4.05 -5.6 4.1 -5.6 7.2 -5.85 8.8 -5.85 10.9 -5.45 11.15 -5.4 11.2 -5.35 Q11.35 -5.25 11.5 -5.05 L11.55 -4.95 Q11.5 -4.9 11.5 -4.75 L10.7 -4.1 Q9.95 -3.55 9.45 -3.35 L8.1 -2.8 6.8 -2.2 Q5.5 -2.65 4.35 -3.2 2.75 -3.95 1.0 -5.1 1.1 -5.2 1.25 -5.2 L2.25 -5.35 2.95 -5.4 M5.4 -0.3 L5.35 -0.35 5.5 -0.3 5.4 -0.3 M3.75 -1.25 L4.35 -0.8 Q3.05 -1.35 2.1 -2.05 1.2 -2.75 0.9 -3.4 L2.6 -2.1 2.8 -1.95 3.75 -1.25 M0.45 -4.5 L0.45 -4.5 M5.15 -1.75 L5.45 -1.6 Q5.95 -1.35 6.2 -1.2 L6.6 -0.95 6.45 -1.0 Q6.55 -0.95 6.65 -0.9 6.5 -0.9 6.15 -1.05 5.9 -1.05 5.55 -1.2 5.2 -1.35 4.8 -1.6 L4.55 -1.75 4.5 -1.75 Q3.55 -2.3 2.25 -3.45 L2.05 -3.6 3.2 -3.0 Q3.75 -2.65 4.75 -2.05 L4.75 -2.0 Q4.9 -1.9 5.15 -1.75 M7.9 -2.2 Q8.8 -2.55 9.95 -3.25 10.65 -3.75 11.2 -4.2 L11.55 -4.55 11.55 -4.5 11.6 -4.3 11.6 -4.25 Q11.15 -3.95 10.35 -3.35 L10.3 -3.35 10.1 -3.2 Q8.65 -2.1 8.45 -2.1 L7.9 -2.2 M9.0 -1.7 L8.85 -1.55 8.8 -1.6 9.0 -1.7 M8.5 0.45 L8.5 0.35 8.9 -0.05 9.0 -0.1 9.05 -0.15 9.05 0.0 8.5 0.45 M10.35 -0.75 L10.35 -0.9 Q10.6 -1.3 10.9 -1.6 L10.9 -1.4 10.75 -1.2 10.35 -0.75 M10.9 0.1 Q10.7 0.05 10.35 -0.1 L10.3 -0.15 10.3 -0.45 Q10.75 -0.15 10.85 -0.15 L10.9 -0.15 10.9 0.1 M10.35 0.85 L10.45 0.85 Q10.75 0.85 10.85 0.75 L10.85 0.9 10.3 1.0 10.25 1.0 10.25 0.8 10.35 0.85 M8.55 1.5 L8.5 1.25 9.0 0.85 9.05 0.8 9.05 1.05 8.95 1.15 8.55 1.5" fill="#b00000" fill-rule="evenodd" stroke="none"/>
      <path d="M0.65 -4.75 L0.75 -4.7 Q1.2 -4.5 2.0 -4.05 L2.25 -3.95 2.8 -3.7 2.85 -3.65 4.2 -2.95 4.25 -2.95 Q5.7 -2.25 7.35 -1.75 L8.35 -1.45 8.25 -1.4 8.45 -1.4 8.45 -1.45 9.1 -1.3 8.85 -1.15 8.35 -0.9 Q7.75 -0.65 7.15 -0.5 L6.15 -0.35 Q5.35 -0.6 4.25 -1.25 L4.2 -1.3 Q3.75 -1.6 3.35 -1.85 L3.35 -1.9 2.7 -2.4 Q2.5 -2.55 1.85 -3.3 L1.4 -3.75 1.1 -4.1 0.5 -4.7 0.55 -4.7 0.6 -4.75 0.65 -4.75 M0.45 -4.5 L0.65 -4.25 2.05 -2.6 2.25 -2.4 2.8 -1.95 2.6 -2.1 0.9 -3.4 Q1.2 -2.75 2.1 -2.05 3.05 -1.35 4.35 -0.8 L3.75 -1.25 3.8 -1.25 5.15 -0.45 5.35 -0.35 5.4 -0.3 5.35 -0.3 Q3.95 -0.3 2.75 -1.05 L2.7 -1.05 Q2.05 -1.45 1.45 -2.05 0.95 -2.55 0.6 -3.0 L0.55 -3.1 0.55 -3.15 Q0.4 -3.3 0.3 -3.5 0.2 -3.7 0.2 -3.9 0.2 -4.1 0.45 -4.5 M5.15 -1.75 Q4.9 -1.9 4.75 -2.0 L4.75 -2.05 Q3.75 -2.65 3.2 -3.0 L2.05 -3.6 2.25 -3.45 Q3.55 -2.3 4.5 -1.75 L4.55 -1.75 4.8 -1.6 Q5.2 -1.35 5.55 -1.2 5.9 -1.05 6.15 -1.05 6.5 -0.9 6.65 -0.9 6.55 -0.95 6.45 -1.0 L6.6 -0.95 6.2 -1.2 Q5.95 -1.35 5.45 -1.6 L5.15 -1.75 M7.9 -2.2 L8.45 -2.1 Q8.65 -2.1 10.1 -3.2 L10.3 -3.35 10.35 -3.35 Q11.15 -3.95 11.6 -4.25 11.25 -3.8 10.7 -3.25 L10.4 -3.0 10.3 -2.9 Q9.7 -2.4 9.15 -1.95 L9.1 -1.95 8.65 -1.65 7.25 -2.05 7.3 -2.05 7.8 -2.2 7.9 -2.2 M9.0 -1.7 L9.1 -1.75 9.15 -1.75 Q9.65 -2.1 10.25 -2.55 L10.4 -2.65 10.4 -2.7 Q10.8 -3.0 11.1 -3.3 L11.15 -3.35 11.6 -3.85 Q11.55 -3.6 11.4 -3.3 L11.25 -3.1 11.2 -3.05 11.2 -3.3 11.15 -3.25 11.1 -3.1 10.4 -2.3 10.25 -2.15 Q9.8 -1.75 9.35 -1.45 L9.3 -1.45 9.15 -1.5 9.1 -1.5 8.85 -1.55 9.0 -1.7 M10.4 -1.85 L10.85 -2.35 10.85 -2.4 10.9 -2.45 11.0 -2.5 11.0 -2.4 10.9 -1.75 Q10.7 -1.6 10.5 -1.4 L10.35 -1.15 10.4 -1.85 M8.5 0.45 L9.05 0.0 9.05 0.55 Q8.7 0.7 8.5 1.2 L8.5 0.45 M9.05 -0.15 L9.0 -0.1 9.05 -0.2 9.05 -0.15 M9.05 -0.4 Q8.9 -0.35 8.7 -0.1 L8.45 0.1 8.45 -0.6 9.1 -0.9 9.05 -0.4 M10.35 -0.75 L10.75 -1.2 10.9 -1.4 10.9 -0.35 Q10.8 -0.45 10.65 -0.5 L10.3 -0.5 10.35 -0.75 M10.3 -0.15 L10.35 -0.1 Q10.7 0.05 10.9 0.1 L10.9 0.25 10.85 0.65 10.6 0.6 Q10.4 0.65 10.25 0.75 L10.3 -0.15 M10.35 0.85 L10.25 0.8 10.35 0.85 M10.25 1.0 L10.3 1.0 10.85 0.9 Q10.9 1.05 10.85 1.2 10.75 1.55 10.35 1.55 L10.2 1.5 10.25 1.0 M8.55 1.5 L8.95 1.15 9.05 1.05 Q9.05 1.4 9.1 1.7 9.05 2.25 8.9 2.25 8.65 2.25 8.55 1.5" fill="#600000" fill-rule="evenodd" stroke="none"/>
    </g>
    <g id="sprite4" transform="matrix(1.0, 0.0, 0.0, 1.0, 48.65, 53.55)">
      <use ffdec:characterId="948" height="15.3" transform="matrix(7.0, 0.0, 0.0, 7.0, -48.65, -53.55)" width="13.95" xlink:href="#shape4"/>
    </g>
    <g id="shape4" transform="matrix(1.0, 0.0, 0.0, 1.0, 6.95, 7.65)">
      <path d="M-6.65 -1.65 Q-6.65 -2.5 -6.05 -3.7 L-5.8 -4.25 Q-5.45 -4.8 -5.2 -5.15 -4.9 -5.5 -4.3 -5.9 -3.55 -6.4 -2.9 -6.65 L-2.3 -6.9 Q-1.85 -7.1 -1.4 -7.2 L0.2 -7.4 0.3 -7.45 0.5 -7.4 Q3.65 -7.4 5.4 -5.55 6.05 -4.9 6.4 -4.15 L6.35 -4.05 Q6.2 -3.75 6.05 -3.55 L5.05 -2.65 Q4.4 -2.0 3.95 -1.75 2.7 -1.05 0.7 -1.05 -0.5 -1.05 -1.55 -1.75 L-2.45 -2.45 -2.55 -2.4 Q-2.45 -3.05 -2.3 -3.75 L-2.3 -3.8 Q-2.6 -3.25 -2.7 -2.65 -2.75 -2.3 -2.8 -1.85 -2.9 -1.6 -3.1 -1.4 -3.65 -0.8 -4.45 -0.8 -5.8 -0.8 -6.5 -1.5 L-6.65 -1.65 M-1.35 0.5 Q-1.35 0.7 -1.6 0.75 L-2.9 0.85 -3.95 0.95 Q-4.1 0.95 -4.15 0.9 L-4.25 0.8 Q-4.05 0.25 -2.7 0.15 -1.35 0.05 -1.35 0.5" fill="#c7a36d" fill-rule="evenodd" stroke="none"/>
      <path d="M3.7 -7.15 Q5.65 -6.0 6.3 -4.85 L6.5 -4.45 Q7.0 -3.55 7.0 -2.5 7.0 -1.45 6.65 -0.25 6.4 0.55 6.05 1.15 L5.85 1.6 5.95 1.6 5.95 1.65 5.9 1.65 Q6.1 1.75 6.2 1.9 6.35 2.1 6.35 2.4 6.35 2.75 6.1 3.0 L6.25 3.0 5.75 3.35 5.75 3.45 5.95 3.7 6.0 3.95 Q6.0 4.35 5.8 4.65 L5.85 4.7 5.85 4.8 Q5.85 5.05 5.25 5.55 4.6 6.05 3.65 6.5 1.25 7.65 -0.9 7.65 -2.35 7.65 -3.8 6.85 -4.95 6.15 -5.05 5.7 -5.6 5.4 -5.6 5.1 L-5.6 4.95 Q-6.25 4.65 -6.25 4.15 -6.25 3.85 -6.2 3.45 -6.1 3.1 -6.1 2.75 L-6.2 2.6 -6.25 2.55 -6.25 2.5 Q-6.45 2.25 -6.45 2.1 L-6.45 1.95 Q-6.4 1.8 -6.35 1.7 -6.3 1.65 -6.1 1.55 L-6.1 1.05 Q-6.3 0.25 -6.65 -0.25 -6.8 -0.5 -6.9 -0.8 -6.95 -1.05 -6.95 -1.3 L-6.95 -1.5 Q-6.95 -2.15 -6.7 -2.9 L-6.7 -3.0 Q-6.3 -4.25 -5.5 -5.25 -3.35 -8.0 1.05 -7.65 1.0 -7.6 0.9 -7.55 2.9 -7.45 4.25 -6.75 L3.7 -7.15 M6.4 -4.15 Q6.05 -4.9 5.4 -5.55 3.65 -7.4 0.5 -7.4 L0.3 -7.45 0.2 -7.4 -1.4 -7.2 Q-1.85 -7.1 -2.3 -6.9 L-2.9 -6.65 Q-3.55 -6.4 -4.3 -5.9 -4.9 -5.5 -5.2 -5.15 -5.45 -4.8 -5.8 -4.25 L-6.05 -3.7 Q-6.65 -2.5 -6.65 -1.65 L-6.65 -1.15 Q-6.55 -0.65 -6.25 -0.25 L-6.2 -0.15 -6.1 -0.15 Q-5.95 -0.05 -5.75 -0.05 L-4.75 -0.15 -4.3 -0.25 -3.95 -0.15 -3.7 -0.25 Q-4.25 0.25 -4.75 0.25 L-5.2 0.25 Q-5.65 0.25 -6.0 0.15 -5.8 0.45 -5.8 0.65 L-5.9 1.05 -5.9 1.45 -5.85 1.45 Q-5.45 1.2 -5.1 1.15 L-0.35 0.85 Q0.85 0.85 3.35 1.2 L5.5 1.55 5.45 1.5 5.6 1.55 6.3 -0.5 6.45 -0.9 Q6.65 -1.9 6.65 -3.0 6.65 -3.4 6.55 -3.75 L6.55 -3.8 6.45 -4.05 6.4 -4.1 6.4 -4.15 M-2.8 -1.85 Q-2.75 -2.3 -2.7 -2.65 -2.6 -3.25 -2.3 -3.8 L-2.3 -3.75 Q-2.45 -3.05 -2.55 -2.4 L-2.6 -2.2 -2.6 -1.6 -2.65 -1.55 Q-2.65 -1.1 -2.6 -0.75 L-2.7 -0.7 -2.75 -1.1 -2.8 -1.3 -2.8 -1.85 M5.75 -2.8 L5.8 -2.85 5.85 -2.95 5.9 -2.65 5.85 -2.05 Q5.85 -1.35 5.2 -0.45 4.25 0.95 2.35 0.95 1.8 0.95 0.35 0.55 -0.8 0.25 -1.9 -0.15 L-1.65 -0.3 -1.35 -0.35 Q-0.85 -0.35 0.4 0.05 1.65 0.5 2.35 0.5 4.35 0.5 5.1 -1.05 5.25 -1.4 5.5 -2.2 5.6 -2.6 5.75 -2.8 M-0.25 5.45 L-0.45 5.45 Q-0.75 5.4 -2.55 5.4 -4.25 5.4 -5.2 5.15 -4.7 5.45 -3.7 5.75 -2.0 6.3 -0.25 6.3 3.6 6.3 4.9 5.3 5.35 4.9 5.55 4.25 5.15 4.75 4.1 5.2 2.7 5.85 0.8 6.1 L0.75 6.1 0.7 6.05 2.4 5.5 4.25 4.85 Q4.75 4.6 5.15 4.05 L5.45 3.55 5.15 3.7 Q4.5 4.0 3.95 4.05 L0.5 4.1 -0.55 4.0 -0.8 3.9 -0.45 3.9 Q-0.55 3.9 -0.55 3.85 -0.55 3.7 -0.5 3.8 L0.7 3.9 1.2 3.9 1.65 3.85 3.5 3.8 Q4.25 3.7 4.9 3.45 L5.6 3.1 Q6.05 2.85 6.05 2.55 6.05 2.15 5.95 1.95 L5.75 1.75 5.65 1.85 5.65 1.7 5.55 1.8 5.55 1.65 4.6 1.55 3.4 1.4 -0.3 1.15 -1.6 1.2 -2.1 1.2 -3.7 1.3 -4.75 1.45 -4.8 1.45 Q-5.25 1.5 -5.75 1.7 L-6.05 1.85 -6.1 2.0 Q-6.1 2.1 -6.0 2.55 L-5.95 2.6 -4.75 2.95 Q-3.35 3.35 -2.55 3.65 L-2.65 3.65 -4.0 3.45 -4.75 3.3 -4.5 3.45 Q-3.6 3.85 -2.35 3.95 L-2.85 4.0 -3.3 4.05 -4.1 3.95 Q-4.45 3.95 -4.95 3.65 L-5.45 3.25 -5.45 3.1 -5.75 2.95 -5.85 2.85 -5.8 3.0 -6.0 2.8 -6.0 3.6 Q-6.0 4.1 -5.85 4.25 -5.7 4.55 -5.15 4.7 -4.1 5.05 0.05 5.4 L0.35 5.4 -0.05 5.45 -0.25 5.45 M-4.05 6.1 Q-2.9 6.85 -2.6 7.0 -1.95 7.35 -0.9 7.35 1.25 7.35 3.6 6.15 2.1 6.6 -0.2 6.6 -2.2 6.6 -3.9 6.15 L-4.05 6.1" fill="#111111" fill-rule="evenodd" stroke="none"/>
      <path d="M-1.6 1.2 L-0.3 1.15 3.4 1.4 4.6 1.55 5.55 1.65 5.55 1.8 5.65 1.7 5.65 1.85 5.75 1.75 5.95 1.95 Q6.05 2.15 6.05 2.55 6.05 2.85 5.6 3.1 L4.9 3.45 Q4.25 3.7 3.5 3.8 L1.65 3.85 1.2 3.9 0.7 3.9 -0.5 3.8 Q-0.55 3.7 -0.55 3.85 -0.55 3.9 -0.45 3.9 L-0.8 3.9 -0.55 4.0 0.5 4.1 3.95 4.05 Q4.5 4.0 5.15 3.7 L5.45 3.55 5.15 4.05 Q4.75 4.6 4.25 4.85 L2.4 5.5 0.7 6.05 0.75 6.1 0.8 6.1 Q2.7 5.85 4.1 5.2 5.15 4.75 5.55 4.25 5.35 4.9 4.9 5.3 3.6 6.3 -0.25 6.3 -2.0 6.3 -3.7 5.75 -4.7 5.45 -5.2 5.15 -4.25 5.4 -2.55 5.4 -0.75 5.4 -0.45 5.45 L-0.25 5.45 -0.4 5.5 -2.05 5.85 Q-2.05 5.95 -2.0 6.0 L-1.35 6.05 Q-0.05 6.05 1.75 5.5 3.4 4.95 3.4 4.65 L3.4 4.6 Q3.6 4.5 3.85 4.35 L3.15 4.3 -0.7 4.2 -3.8 4.1 -4.4 4.05 Q-4.7 4.0 -4.8 4.2 -4.15 4.55 -2.25 4.75 L-1.0 4.9 Q-0.9 4.95 -0.85 5.0 L0.1 5.05 1.2 5.1 0.05 5.4 Q-4.1 5.05 -5.15 4.7 -5.7 4.55 -5.85 4.25 -6.0 4.1 -6.0 3.6 L-6.0 2.8 -5.8 3.0 -5.85 2.85 -5.75 2.95 -5.45 3.1 -5.45 3.25 -4.95 3.65 Q-4.45 3.95 -4.1 3.95 L-3.3 4.05 -2.85 4.0 -2.35 3.95 Q-3.6 3.85 -4.5 3.45 L-4.75 3.3 -4.0 3.45 -2.65 3.65 -2.55 3.65 Q-3.35 3.35 -4.75 2.95 L-5.95 2.6 -6.0 2.55 Q-6.1 2.1 -6.1 2.0 L-6.05 1.85 -5.75 1.7 Q-5.25 1.5 -4.8 1.45 L-4.75 1.45 -3.7 1.3 -3.8 1.35 -3.95 1.35 Q-5.0 1.55 -5.0 1.85 -5.0 2.1 -4.0 2.45 -2.8 2.9 -1.05 2.9 L1.45 2.9 Q2.85 2.85 3.8 2.45 4.65 2.15 4.65 1.8 4.65 1.5 1.7 1.3 L-1.5 1.2 -1.6 1.2 M1.1 6.75 Q1.1 6.6 1.05 6.7 L-1.25 6.6 Q-2.05 6.5 -2.25 6.75 -2.05 6.85 -1.6 6.9 L-0.75 7.0 -0.35 7.0 0.2 6.95 Q1.1 6.85 1.1 6.75 M-4.05 6.1 L-3.9 6.15 Q-2.2 6.6 -0.2 6.6 2.1 6.6 3.6 6.15 1.25 7.35 -0.9 7.35 -1.95 7.35 -2.6 7.0 -2.9 6.85 -4.05 6.1" fill="#0070e0" fill-rule="evenodd" stroke="none"/>
      <path d="M-1.6 1.2 L-1.5 1.2 1.7 1.3 Q4.65 1.5 4.65 1.8 4.65 2.15 3.8 2.45 2.85 2.85 1.45 2.9 L-1.05 2.9 Q-2.8 2.9 -4.0 2.45 -5.0 2.1 -5.0 1.85 -5.0 1.55 -3.95 1.35 L-3.8 1.35 -3.7 1.3 -2.1 1.2 -1.6 1.2 M0.05 5.4 L1.2 5.1 0.1 5.05 -0.85 5.0 Q-0.9 4.95 -1.0 4.9 L-2.25 4.75 Q-4.15 4.55 -4.8 4.2 -4.7 4.0 -4.4 4.05 L-3.8 4.1 -0.7 4.2 3.15 4.3 3.85 4.35 Q3.6 4.5 3.4 4.6 L3.4 4.65 Q3.4 4.95 1.75 5.5 -0.05 6.05 -1.35 6.05 L-2.0 6.0 Q-2.05 5.95 -2.05 5.85 L-0.4 5.5 -0.25 5.45 -0.05 5.45 0.35 5.4 0.05 5.4 M1.1 6.75 Q1.1 6.85 0.2 6.95 L-0.35 7.0 -0.75 7.0 -1.6 6.9 Q-2.05 6.85 -2.25 6.75 -2.05 6.5 -1.25 6.6 L1.05 6.7 Q1.1 6.6 1.1 6.75" fill="#80c0f0" fill-rule="evenodd" stroke="none"/>
      <path d="M-6.65 -1.65 L-6.5 -1.5 Q-5.8 -0.8 -4.45 -0.8 -3.65 -0.8 -3.1 -1.4 -2.9 -1.6 -2.8 -1.85 L-2.8 -1.3 -2.75 -1.1 -2.7 -0.7 -2.6 -0.75 Q-2.65 -1.1 -2.65 -1.55 L-2.6 -1.6 -2.6 -2.2 -2.55 -2.4 -2.45 -2.45 -1.55 -1.75 Q-0.5 -1.05 0.7 -1.05 2.7 -1.05 3.95 -1.75 4.4 -2.0 5.05 -2.65 L6.05 -3.55 Q6.2 -3.75 6.35 -4.05 L6.4 -4.15 6.4 -4.1 6.45 -4.05 6.55 -3.8 6.55 -3.75 Q6.65 -3.4 6.65 -3.0 6.65 -1.9 6.45 -0.9 L6.3 -0.5 5.6 1.55 5.45 1.5 5.5 1.55 3.35 1.2 Q0.85 0.85 -0.35 0.85 L-5.1 1.15 Q-5.45 1.2 -5.85 1.45 L-5.9 1.45 -5.9 1.05 -5.8 0.65 Q-5.8 0.45 -6.0 0.15 -5.65 0.25 -5.2 0.25 L-4.75 0.25 Q-4.25 0.25 -3.7 -0.25 L-3.95 -0.15 -4.3 -0.25 -4.75 -0.15 -5.75 -0.05 Q-5.95 -0.05 -6.1 -0.15 L-6.2 -0.15 -6.25 -0.25 Q-6.55 -0.65 -6.65 -1.15 L-6.65 -1.65 M5.75 -2.8 Q5.6 -2.6 5.5 -2.2 5.25 -1.4 5.1 -1.05 4.35 0.5 2.35 0.5 1.65 0.5 0.4 0.05 -0.85 -0.35 -1.35 -0.35 L-1.65 -0.3 -1.9 -0.15 Q-0.8 0.25 0.35 0.55 1.8 0.95 2.35 0.95 4.25 0.95 5.2 -0.45 5.85 -1.35 5.85 -2.05 L5.9 -2.65 5.85 -2.95 5.8 -2.85 5.75 -2.8 M-1.35 0.5 Q-1.35 0.05 -2.7 0.15 -4.05 0.25 -4.25 0.8 L-4.15 0.9 Q-4.1 0.95 -3.95 0.95 L-2.9 0.85 -1.6 0.75 Q-1.35 0.7 -1.35 0.5" fill="#a9854f" fill-rule="evenodd" stroke="none"/>
    </g>
    <g id="sprite5" transform="matrix(1.0, 0.0, 0.0, 1.0, 96.65, 114.6)">
      <use ffdec:characterId="985" ffdec:characterName="a_Face2" height="158.2" transform="matrix(1.0052, 0.0, 0.0, 1.0052, -96.65, -114.6207)" width="135.8" xlink:href="#sprite6"/>
    </g>
    <g id="sprite6" transform="matrix(1.0, 0.0, 0.0, 1.0, 0.0, 158.2)">
      <use ffdec:characterId="984" height="22.6" transform="matrix(7.0, 0.0, 0.0, 7.0, 0.0, -158.2)" width="19.4" xlink:href="#shape5"/>
    </g>
    <g id="shape5" transform="matrix(1.0, 0.0, 0.0, 1.0, 0.0, 22.6)">
      <path d="M18.75 -20.0 L18.8 -20.0 Q18.95 -19.95 18.95 -19.7 L18.85 -19.25 18.85 -19.05 18.9 -19.05 18.9 -18.9 19.0 -18.65 Q19.15 -18.45 19.15 -18.3 19.15 -18.1 18.9 -17.75 L18.6 -17.35 Q18.6 -17.3 18.55 -17.2 L18.35 -17.2 18.35 -17.25 Q18.3 -17.35 18.15 -17.35 L18.15 -17.25 18.1 -16.55 18.15 -15.7 Q18.15 -15.05 18.3 -14.75 18.45 -14.5 18.45 -14.05 L18.4 -13.7 18.3 -13.55 18.55 -13.55 Q19.0 -13.55 19.25 -12.9 19.4 -12.5 19.4 -12.25 19.4 -11.65 19.15 -10.95 18.85 -10.2 18.45 -9.95 18.85 -9.1 18.85 -8.45 18.85 -7.4 18.75 -7.0 18.65 -6.5 18.45 -6.1 L18.25 -5.5 18.2 -5.5 Q18.15 -5.45 18.05 -5.45 L18.05 -5.6 18.0 -5.6 18.0 -5.65 18.05 -5.7 17.9 -6.5 Q17.75 -5.6 17.25 -4.65 16.55 -3.3 15.35 -2.35 L15.3 -2.35 15.3 -2.4 15.35 -2.5 15.3 -2.6 15.35 -2.8 15.1 -2.5 Q14.8 -2.05 13.7 -1.2 12.4 -0.25 12.1 0.0 L11.95 -0.05 11.95 -0.2 12.0 -0.3 10.45 -1.1 Q9.2 -1.85 8.85 -2.3 8.45 -2.8 8.15 -3.45 7.85 -4.05 7.75 -4.45 L7.75 -4.4 Q7.65 -3.65 7.75 -3.05 L7.7 -3.0 Q7.6 -3.05 7.55 -3.2 7.0 -3.45 6.65 -4.1 6.3 -4.75 6.3 -5.3 6.3 -6.5 6.55 -7.25 7.0 -8.2 7.35 -9.25 L7.1 -9.4 Q6.75 -9.55 6.6 -9.65 L6.65 -9.7 Q6.55 -9.75 6.6 -9.95 6.6 -10.35 6.75 -10.65 6.9 -11.1 7.25 -10.9 L7.3 -10.95 7.15 -11.15 6.95 -11.4 6.7 -11.45 Q6.15 -11.45 5.75 -10.5 L5.25 -8.75 Q5.0 -8.1 4.7 -7.8 L4.7 -7.8 4.65 -7.8 Q4.65 -7.5 4.55 -7.25 4.3 -6.65 3.75 -6.65 3.55 -6.65 3.45 -6.85 L3.4 -6.9 3.3 -7.15 3.15 -7.15 Q2.6 -7.15 2.35 -7.25 L2.25 -7.3 2.05 -7.3 Q1.7 -7.3 1.6 -7.45 1.45 -7.5 1.35 -7.7 1.25 -7.85 1.25 -7.95 L1.0 -8.0 0.95 -8.05 0.9 -8.05 Q0.4 -8.05 0.15 -8.65 0.0 -9.0 0.0 -9.3 0.0 -9.85 0.1 -10.7 0.15 -11.15 0.25 -11.4 L0.2 -11.4 0.2 -11.45 Q0.2 -11.65 0.6 -11.8 1.0 -11.9 1.5 -11.95 2.8 -11.95 3.15 -11.3 L3.2 -11.35 3.2 -11.3 3.25 -11.2 3.2 -11.0 3.15 -10.85 3.2 -10.35 3.25 -10.05 3.3 -9.55 Q3.3 -9.1 3.15 -8.85 L3.05 -8.7 3.1 -8.6 3.1 -8.55 3.3 -8.55 Q3.35 -8.7 3.45 -8.8 L3.55 -8.9 Q3.7 -9.1 4.05 -9.1 L4.1 -9.1 4.2 -9.05 4.3 -8.9 4.3 -9.0 4.55 -9.75 4.9 -10.75 Q4.95 -11.25 5.15 -11.6 5.55 -12.35 6.4 -12.35 7.2 -12.35 7.7 -11.75 8.0 -11.4 8.1 -11.05 L8.4 -11.1 8.05 -11.6 Q7.65 -12.1 7.65 -12.15 7.65 -12.45 7.85 -12.7 L8.25 -13.2 Q8.3 -13.4 8.4 -13.55 L8.5 -13.65 8.2 -14.1 Q7.85 -14.6 7.85 -14.65 7.85 -14.75 8.0 -14.8 L8.0 -14.9 7.95 -15.0 7.95 -15.15 Q7.95 -15.35 7.95 -15.45 L7.95 -15.8 7.85 -16.1 7.95 -16.1 Q8.0 -16.25 8.05 -16.35 L8.15 -16.45 Q8.3 -16.65 8.55 -16.8 9.05 -17.1 9.2 -17.65 L8.9 -17.65 Q8.6 -17.65 8.6 -17.85 8.6 -18.0 8.75 -18.15 L8.75 -18.2 8.8 -18.5 8.8 -18.8 Q8.8 -19.15 8.95 -19.25 9.05 -19.4 9.3 -19.4 L9.2 -19.45 9.75 -19.5 9.8 -19.65 9.75 -20.0 Q9.75 -20.85 11.0 -21.6 12.2 -22.25 13.8 -22.5 15.5 -22.75 16.6 -22.25 17.9 -21.75 17.9 -20.4 18.7 -20.5 18.95 -19.9 L18.8 -20.0 18.7 -20.05 18.6 -20.05 Q17.05 -20.05 15.35 -19.1 13.6 -17.9 12.9 -17.55 L12.45 -17.25 10.65 -16.1 Q9.7 -15.5 8.9 -15.1 L8.75 -15.05 8.5 -14.95 8.35 -14.8 8.15 -14.65 8.2 -14.6 8.4 -14.3 8.55 -14.45 Q9.1 -14.9 10.7 -15.75 11.9 -16.45 13.25 -17.15 14.4 -17.85 16.0 -18.3 L17.4 -18.65 17.6 -18.7 18.6 -18.95 18.65 -19.0 18.65 -19.05 18.6 -19.2 18.65 -19.5 18.65 -19.6 18.75 -20.0 M17.25 -21.45 Q16.7 -22.2 15.6 -22.2 L14.1 -22.15 Q11.65 -21.85 10.7 -21.05 10.1 -20.55 9.9 -19.5 L12.75 -19.8 15.7 -20.05 16.35 -20.0 16.45 -20.0 Q17.15 -20.3 17.65 -20.4 L17.6 -20.55 Q17.5 -20.95 17.35 -21.25 L17.25 -21.45 M14.35 -19.65 L13.9 -19.65 13.8 -19.6 13.7 -19.6 11.6 -19.4 11.5 -19.4 9.85 -19.35 9.8 -19.35 9.75 -19.3 9.75 -19.35 9.65 -19.35 Q9.25 -19.3 9.15 -19.1 9.1 -19.0 9.15 -18.8 L9.15 -18.7 9.2 -18.6 Q9.2 -18.45 9.1 -18.25 9.95 -18.6 11.9 -19.05 L14.05 -19.5 14.9 -19.7 14.35 -19.65 M8.45 -15.2 L10.05 -16.25 11.85 -17.4 12.5 -17.8 11.6 -17.75 10.25 -17.7 9.6 -17.7 9.4 -17.65 9.4 -17.3 Q9.35 -17.05 9.25 -16.9 9.15 -16.8 8.85 -16.6 8.5 -16.4 8.4 -16.0 L8.3 -15.65 8.3 -15.55 8.35 -15.2 8.35 -15.15 8.45 -15.2 M11.55 -18.65 L11.4 -18.6 9.5 -18.2 9.45 -18.15 9.2 -18.05 9.7 -18.05 10.2 -18.1 11.55 -18.15 12.05 -18.15 12.5 -18.2 13.1 -18.2 13.75 -18.6 Q14.5 -19.05 15.15 -19.4 L14.15 -19.2 11.55 -18.65 M11.45 -13.6 L11.5 -13.6 11.65 -13.75 11.95 -13.9 12.0 -13.9 Q12.45 -14.05 12.8 -13.8 12.6 -14.1 12.55 -14.4 12.55 -14.95 12.65 -15.2 L12.7 -15.3 10.95 -14.4 10.45 -14.05 10.35 -13.95 10.75 -14.0 10.7 -13.9 10.6 -13.85 10.45 -13.8 Q10.3 -13.75 10.05 -13.65 L9.25 -13.45 Q9.1 -13.4 8.9 -13.2 L8.85 -13.1 8.8 -13.1 Q8.65 -12.85 8.55 -12.8 L8.55 -12.75 8.75 -12.3 9.0 -11.85 9.2 -11.7 Q9.55 -11.5 10.05 -11.5 L11.0 -11.55 11.25 -11.6 11.2 -11.6 11.25 -11.65 11.4 -11.7 11.9 -11.9 12.3 -12.05 Q12.75 -12.1 13.05 -11.8 L13.1 -11.75 13.0 -11.6 12.4 -11.7 Q11.85 -11.7 11.3 -11.35 11.0 -11.2 10.7 -11.1 12.8 -11.0 13.7 -10.8 L13.7 -10.95 Q13.7 -11.0 13.75 -11.1 13.9 -11.5 14.75 -11.8 15.3 -11.95 15.5 -12.1 15.75 -12.2 15.8 -12.4 L15.85 -12.55 Q15.85 -12.75 15.7 -13.15 L15.65 -13.2 Q15.55 -13.5 15.5 -13.7 L15.5 -14.05 15.55 -14.05 15.6 -13.9 15.85 -13.25 Q16.0 -12.85 16.0 -12.55 16.0 -12.15 15.8 -11.95 15.65 -11.85 15.35 -11.75 L15.25 -11.7 15.2 -11.7 Q14.85 -11.6 14.6 -11.45 L14.2 -11.15 14.1 -11.0 13.9 -10.75 14.3 -10.6 Q14.55 -10.45 14.8 -10.25 L14.75 -10.2 Q14.7 -10.15 14.65 -10.15 L14.5 -10.15 14.4 -10.2 13.1 -10.4 Q11.5 -10.65 9.85 -10.65 L9.75 -10.65 8.45 -10.6 8.05 -10.55 7.65 -10.55 7.3 -10.6 Q7.1 -10.5 7.0 -10.35 L6.95 -10.1 6.85 -9.75 6.9 -9.75 Q7.55 -9.85 8.0 -9.25 L8.05 -9.25 8.1 -9.2 8.1 -9.15 Q8.25 -9.0 8.25 -8.9 L8.25 -8.85 Q8.45 -8.45 8.45 -8.1 L8.45 -7.9 8.4 -7.9 Q8.4 -8.3 8.2 -8.65 L8.2 -8.45 Q8.2 -8.15 8.3 -7.65 L8.4 -7.3 8.5 -7.0 Q8.5 -7.3 8.65 -7.75 8.9 -8.45 9.05 -8.6 L9.15 -8.55 9.15 -8.45 9.25 -8.5 Q9.25 -8.25 9.3 -8.0 L9.3 -7.95 9.4 -7.4 9.65 -6.65 Q9.65 -7.05 9.75 -7.5 9.9 -8.35 10.15 -8.35 L10.25 -8.35 10.25 -8.3 10.3 -8.35 10.3 -8.3 Q10.3 -8.1 10.35 -7.85 10.5 -7.55 10.8 -7.15 L10.9 -7.0 11.15 -6.65 Q11.1 -6.95 11.1 -7.15 11.1 -7.4 11.15 -7.45 L11.1 -7.5 11.2 -7.5 Q11.4 -7.4 11.65 -7.2 L11.85 -7.0 12.5 -6.45 12.4 -6.65 Q12.3 -6.9 12.25 -7.1 L12.25 -7.5 12.3 -7.6 12.35 -7.65 12.35 -7.6 Q12.7 -7.55 12.95 -7.2 L13.3 -6.75 13.75 -7.75 Q13.65 -7.95 13.65 -8.55 L13.7 -8.6 13.75 -8.6 13.8 -8.5 Q14.2 -8.4 14.45 -8.0 14.65 -7.7 14.65 -7.4 14.85 -7.9 14.8 -8.2 14.8 -8.7 14.85 -8.95 14.9 -9.2 15.05 -9.35 L15.2 -9.55 15.2 -9.6 Q15.2 -9.65 15.25 -9.7 L15.25 -9.65 15.3 -9.65 15.3 -9.6 15.55 -9.15 15.7 -8.8 15.9 -9.4 Q16.25 -10.4 16.35 -11.05 L16.4 -11.75 16.5 -12.7 Q16.65 -13.65 17.2 -14.2 17.15 -13.9 17.0 -13.65 16.95 -13.5 16.95 -13.25 L16.95 -13.15 Q17.05 -13.8 17.2 -14.1 17.25 -14.1 17.25 -14.0 L17.15 -13.0 Q17.15 -12.8 17.2 -12.55 17.2 -12.3 17.3 -12.05 L17.65 -12.3 17.75 -12.35 Q18.05 -12.55 18.25 -12.6 L18.4 -12.65 Q18.5 -12.65 18.5 -12.55 18.35 -12.3 17.8 -12.0 17.55 -11.9 17.4 -11.8 17.5 -11.55 17.65 -11.25 L17.9 -10.85 18.0 -10.7 18.35 -10.1 18.75 -10.8 Q19.2 -11.55 19.2 -12.2 19.2 -12.55 19.0 -12.8 L18.85 -12.95 Q18.65 -13.1 18.45 -13.15 L17.2 -13.2 Q17.5 -13.4 17.65 -13.45 L18.1 -13.5 Q18.1 -13.85 18.0 -14.35 17.8 -15.15 17.8 -15.35 L17.8 -16.1 17.75 -16.2 17.75 -16.5 Q17.75 -16.7 17.75 -16.8 L17.8 -16.9 Q17.85 -17.25 18.05 -17.35 17.0 -17.35 14.3 -16.05 L14.95 -16.05 Q15.3 -16.0 15.55 -15.65 15.7 -15.45 15.75 -15.15 L15.75 -14.9 15.65 -14.65 Q15.55 -14.45 15.4 -14.4 L15.55 -14.65 Q15.6 -14.8 15.6 -14.9 15.6 -15.2 15.4 -15.35 15.2 -15.45 14.95 -15.5 L15.0 -15.45 Q15.15 -15.2 15.15 -14.85 15.15 -14.55 14.9 -14.05 14.6 -13.45 14.05 -13.45 L13.75 -13.5 13.7 -13.5 13.7 -13.5 Q13.95 -13.35 14.3 -13.35 L15.1 -13.5 Q15.0 -13.25 14.95 -13.2 L14.95 -13.15 Q14.75 -12.95 14.2 -12.95 L13.7 -13.05 13.55 -13.1 13.15 -13.35 13.1 -13.4 13.2 -13.25 Q13.6 -13.1 13.8 -12.75 13.95 -12.5 13.95 -12.15 13.95 -11.8 13.85 -11.65 L13.65 -11.25 13.55 -11.1 13.55 -11.15 13.6 -11.35 13.65 -11.85 Q13.65 -12.2 13.5 -12.55 L13.35 -12.85 13.4 -12.6 13.5 -12.35 13.45 -12.25 Q13.35 -12.55 13.15 -12.85 L13.0 -13.0 Q12.9 -13.15 12.7 -13.2 L12.45 -13.3 12.35 -13.3 12.35 -13.35 12.3 -13.35 Q12.0 -13.35 11.8 -13.2 11.6 -13.05 11.5 -13.05 11.35 -13.05 11.3 -13.2 L11.3 -13.3 Q11.3 -13.45 11.45 -13.6 M13.25 -15.4 L13.3 -15.4 Q13.15 -15.35 13.05 -15.05 12.95 -14.8 12.95 -14.6 12.95 -14.3 13.25 -13.9 13.35 -13.7 13.55 -13.6 14.1 -13.55 14.45 -14.05 14.8 -14.5 14.8 -14.85 14.8 -14.95 14.65 -15.15 L14.4 -15.55 13.5 -15.45 13.25 -15.4 M13.7 -14.95 L13.75 -14.65 13.75 -14.4 13.7 -14.35 Q13.65 -14.3 13.55 -14.3 13.4 -14.3 13.3 -14.45 13.25 -14.6 13.25 -14.65 L13.35 -14.85 13.45 -14.95 13.55 -14.9 13.7 -14.95 M18.85 -18.1 L18.9 -18.25 18.75 -18.5 18.65 -18.7 Q18.65 -18.8 18.65 -18.85 L18.65 -18.9 18.55 -18.9 17.6 -18.5 Q15.95 -17.85 13.6 -16.65 L11.6 -15.65 10.15 -14.9 9.7 -14.7 8.8 -14.25 8.55 -14.15 8.7 -13.85 8.75 -13.8 8.75 -13.75 8.85 -13.8 10.0 -13.95 10.1 -14.05 Q10.1 -14.3 11.45 -15.05 12.7 -15.75 14.35 -16.45 16.15 -17.2 17.3 -17.45 18.15 -17.7 18.45 -17.55 18.5 -17.7 18.65 -17.85 L18.75 -18.0 18.85 -18.1 M8.75 -11.4 L8.75 -11.1 9.15 -11.1 Q8.85 -11.2 8.75 -11.4 M8.25 -12.9 L8.15 -12.65 Q7.95 -12.3 7.95 -12.15 7.95 -12.0 8.35 -11.8 8.6 -11.65 8.7 -11.5 L8.65 -11.6 Q8.45 -11.7 8.35 -12.0 8.25 -12.2 8.25 -12.45 L8.25 -12.9 M5.5 -10.4 Q5.6 -10.85 5.75 -11.1 5.85 -11.4 6.1 -11.5 L6.15 -11.6 6.25 -11.6 6.5 -11.65 Q6.55 -11.7 6.6 -11.7 L6.9 -11.75 Q7.1 -11.6 7.3 -11.35 L7.6 -11.0 7.75 -11.05 7.8 -11.05 7.7 -11.5 Q7.4 -12.05 6.5 -12.05 L6.1 -12.0 Q5.65 -11.9 5.4 -11.35 5.25 -11.05 5.2 -10.7 L5.15 -10.6 5.15 -10.55 Q5.05 -10.0 4.9 -9.75 4.85 -9.5 4.7 -9.3 L4.7 -9.25 4.45 -8.7 4.55 -8.55 4.55 -8.45 4.6 -8.4 4.6 -8.3 4.65 -8.25 4.65 -8.15 4.7 -8.2 4.95 -8.95 Q5.2 -9.6 5.35 -9.9 L5.4 -10.0 5.5 -10.4 M8.45 -6.45 L8.4 -6.45 Q8.15 -6.95 7.9 -8.4 L7.75 -9.05 7.65 -9.15 7.55 -9.2 7.6 -9.05 7.6 -9.0 7.55 -8.75 7.5 -8.45 7.15 -7.35 Q6.8 -6.3 6.8 -5.35 6.8 -4.8 7.1 -4.3 L7.5 -3.65 7.5 -4.4 Q7.6 -5.15 7.95 -5.6 L8.0 -5.7 8.05 -5.7 8.05 -5.65 8.0 -5.4 Q8.0 -4.9 8.35 -4.1 8.65 -3.4 9.1 -2.75 9.35 -2.4 10.85 -1.5 11.85 -0.95 12.1 -0.45 12.35 -0.7 13.0 -1.2 14.25 -2.1 14.65 -2.7 L16.45 -5.2 16.5 -5.2 16.55 -5.1 16.55 -5.05 Q16.5 -4.85 16.4 -4.6 L16.15 -4.05 15.9 -3.6 15.65 -3.2 15.6 -3.05 15.6 -3.0 15.5 -2.75 15.7 -3.0 16.55 -4.05 Q17.65 -5.65 17.75 -7.05 L17.75 -7.1 17.5 -8.05 17.45 -8.2 17.4 -8.45 17.4 -8.6 17.45 -8.6 17.65 -8.35 17.65 -8.4 17.7 -8.4 17.8 -8.05 Q17.95 -7.7 18.05 -7.25 18.2 -6.85 18.25 -6.45 L18.3 -6.65 Q18.45 -7.4 18.45 -7.75 18.45 -8.95 17.65 -10.3 L17.05 -11.25 Q16.85 -11.65 16.8 -12.0 L16.75 -11.6 16.45 -10.2 Q16.1 -8.75 15.75 -8.15 15.65 -7.8 15.5 -7.7 L15.5 -7.85 15.4 -7.75 15.35 -7.8 15.5 -8.1 15.35 -8.75 15.2 -9.3 Q15.1 -9.05 15.1 -8.95 15.1 -8.05 15.05 -7.75 14.95 -7.05 14.35 -6.65 L14.5 -6.95 14.25 -7.6 13.9 -8.1 13.9 -7.85 Q13.75 -6.75 13.45 -6.55 L13.3 -6.5 13.2 -6.5 13.25 -6.65 Q13.0 -6.75 12.8 -7.0 L12.4 -7.5 12.65 -6.75 12.9 -6.15 12.85 -6.05 12.8 -6.05 12.7 -6.2 12.65 -6.2 Q12.3 -6.2 11.65 -6.85 L11.25 -7.35 11.35 -6.8 11.4 -6.35 11.55 -6.1 11.55 -6.05 Q11.5 -6.0 11.4 -6.0 11.05 -6.0 10.7 -6.65 L10.5 -7.05 Q10.2 -7.6 10.2 -7.95 L10.05 -7.55 Q9.85 -6.85 9.8 -6.4 L9.75 -6.35 9.75 -6.25 Q9.75 -6.2 9.7 -6.2 9.45 -6.25 9.2 -6.95 9.05 -7.5 9.05 -7.85 L9.05 -7.9 8.9 -7.5 Q8.7 -6.8 8.55 -6.6 L8.45 -6.45 M9.85 -9.25 Q10.35 -9.1 10.75 -8.75 11.05 -8.55 11.2 -8.25 L11.35 -7.85 11.35 -7.7 10.9 -8.05 Q9.25 -9.15 9.25 -9.05 9.25 -9.4 9.85 -9.25 M2.2 -11.05 L2.25 -11.05 Q2.75 -11.0 2.95 -10.65 L2.95 -11.05 Q2.9 -11.05 2.85 -11.1 L2.6 -11.3 Q2.45 -11.4 2.2 -11.5 L2.0 -11.55 1.3 -11.6 1.2 -11.6 0.7 -11.55 0.4 -11.45 0.45 -11.4 Q0.5 -11.25 0.5 -10.95 L0.55 -10.95 Q0.75 -11.05 1.2 -11.15 L1.75 -11.2 1.85 -11.15 2.2 -11.05 M3.0 -10.15 L2.95 -10.2 Q2.8 -10.4 2.35 -10.65 L2.0 -10.85 1.75 -10.85 Q1.15 -10.85 0.8 -10.75 0.65 -10.7 0.5 -10.55 L0.45 -10.55 Q0.4 -9.95 0.4 -9.65 0.4 -9.05 0.5 -8.85 0.7 -8.35 1.5 -8.35 2.0 -8.35 2.35 -8.5 L2.4 -8.55 2.45 -8.55 2.75 -8.8 Q2.95 -9.0 3.05 -9.2 L3.1 -9.4 3.1 -9.55 3.0 -9.95 3.0 -10.15 M2.75 -8.0 L2.75 -8.1 2.85 -8.5 2.8 -8.5 Q2.7 -8.35 2.5 -8.25 2.2 -8.05 1.75 -8.05 L1.6 -8.0 1.5 -7.95 1.55 -7.95 Q1.6 -7.75 1.75 -7.7 1.8 -7.65 1.9 -7.65 L2.15 -7.6 2.35 -7.6 2.45 -7.65 Q2.65 -7.75 2.75 -8.0 M2.95 -7.85 L2.85 -7.7 Q2.7 -7.55 2.55 -7.4 L3.35 -7.35 3.55 -7.35 3.6 -7.45 3.65 -7.65 3.7 -7.95 Q3.7 -8.05 3.65 -8.25 L3.55 -8.25 3.45 -8.2 3.1 -8.25 Q3.1 -8.05 2.95 -7.85 M4.4 -8.3 L4.35 -8.45 Q4.3 -8.75 4.1 -8.8 L3.9 -8.8 3.7 -8.7 3.6 -8.6 3.7 -8.6 3.95 -8.25 4.0 -8.15 4.0 -7.95 Q4.0 -7.7 3.9 -7.5 L3.9 -7.4 3.8 -7.25 3.8 -7.2 3.75 -7.2 3.7 -7.1 3.65 -7.05 3.7 -7.0 3.85 -7.0 4.05 -7.1 Q4.2 -7.2 4.3 -7.45 L4.2 -7.4 4.25 -7.45 4.35 -7.75 4.4 -7.8 4.4 -8.3" fill="#111111" fill-rule="evenodd" stroke="none"/>
      <path d="M12.75 -19.8 L9.9 -19.5 Q10.1 -20.55 10.7 -21.05 11.65 -21.85 14.1 -22.15 L15.6 -22.2 Q16.7 -22.2 17.25 -21.45 16.9 -20.8 16.2 -20.5 15.65 -20.25 14.6 -20.2 L13.2 -20.05 Q12.9 -20.0 12.75 -19.8 M9.4 -17.3 L11.4 -17.35 10.9 -17.0 Q9.65 -16.0 8.5 -16.0 L8.4 -16.05 8.4 -16.0 Q8.5 -16.4 8.85 -16.6 9.15 -16.8 9.25 -16.9 9.35 -17.05 9.4 -17.3 M8.35 -15.2 L8.4 -15.15 8.45 -15.2 8.35 -15.15 8.35 -15.2 M10.45 -13.8 L10.5 -13.8 10.8 -13.7 11.2 -13.6 11.25 -13.55 11.25 -13.6 Q11.25 -13.7 11.35 -13.6 L11.4 -13.55 11.45 -13.6 Q11.3 -13.45 11.3 -13.3 L11.3 -13.2 Q11.35 -13.05 11.5 -13.05 11.6 -13.05 11.8 -13.2 12.0 -13.35 12.3 -13.35 L12.4 -13.3 12.45 -13.3 12.7 -13.2 Q12.9 -13.15 13.0 -13.0 L12.9 -12.95 Q12.95 -12.8 13.05 -12.75 L13.2 -12.65 13.1 -12.5 Q12.95 -12.4 12.8 -12.4 12.0 -12.4 11.2 -12.1 10.4 -11.85 10.05 -11.85 9.25 -11.85 9.0 -12.5 8.9 -12.85 8.9 -13.2 9.1 -13.4 9.25 -13.45 L10.05 -13.65 Q10.3 -13.75 10.45 -13.8 M13.7 -13.05 L14.2 -12.95 Q14.75 -12.95 14.95 -13.15 L14.9 -13.15 Q15.15 -13.25 15.3 -13.45 L15.4 -13.2 Q15.5 -12.85 15.5 -12.6 15.5 -12.4 15.35 -12.35 15.15 -12.2 14.65 -12.2 L13.85 -12.9 13.7 -13.05 M13.7 -13.5 L13.7 -13.5 13.75 -13.5 13.7 -13.5 M15.75 -14.9 L15.75 -15.15 Q15.9 -14.9 16.0 -14.6 L16.15 -13.9 Q16.2 -13.95 16.35 -14.15 16.45 -14.35 16.45 -14.4 16.45 -15.35 15.4 -16.05 L15.3 -16.1 15.8 -16.35 16.7 -16.6 Q17.45 -16.45 17.8 -16.1 L17.8 -15.35 Q17.8 -15.15 18.0 -14.35 18.1 -13.85 18.1 -13.5 L17.65 -13.45 Q17.5 -13.4 17.2 -13.2 L18.45 -13.15 18.1 -13.0 Q17.45 -12.75 17.2 -12.55 17.15 -12.8 17.15 -13.0 L17.25 -14.0 Q17.25 -14.1 17.2 -14.1 17.05 -13.8 16.95 -13.15 L16.95 -13.25 Q16.95 -13.5 17.0 -13.65 17.15 -13.9 17.2 -14.2 16.65 -13.65 16.5 -12.7 L16.4 -11.75 Q16.15 -11.15 15.7 -10.7 L15.0 -10.1 Q14.7 -10.05 14.25 -9.45 13.8 -8.75 13.15 -8.75 12.05 -8.75 11.55 -9.05 10.65 -9.55 10.05 -9.75 L7.75 -10.15 Q6.9 -10.25 6.9 -9.8 L6.9 -9.75 6.85 -9.75 6.95 -10.1 7.0 -10.35 Q7.1 -10.5 7.3 -10.6 L7.65 -10.55 8.05 -10.55 8.45 -10.6 9.75 -10.65 9.85 -10.65 Q11.5 -10.65 13.1 -10.4 L14.4 -10.2 14.35 -10.2 14.4 -10.15 14.5 -10.15 14.65 -10.15 Q14.7 -10.15 14.75 -10.2 L14.8 -10.25 Q14.55 -10.45 14.3 -10.6 L14.45 -10.5 Q14.5 -10.8 14.95 -11.25 L15.45 -11.75 15.35 -11.75 Q15.65 -11.85 15.8 -11.95 16.0 -12.15 16.0 -12.55 16.0 -12.85 15.85 -13.25 L15.6 -13.9 Q15.75 -14.25 15.75 -14.7 L15.75 -14.9 M17.8 -16.9 L17.75 -16.8 17.7 -16.85 17.8 -16.9 M19.0 -12.8 Q19.2 -12.55 19.2 -12.2 19.2 -11.55 18.75 -10.8 L18.35 -10.1 18.0 -10.7 17.9 -10.85 17.95 -10.85 Q18.15 -11.05 18.25 -11.2 L18.2 -11.15 18.2 -11.05 18.25 -10.95 Q18.7 -11.1 18.8 -11.4 L18.85 -11.85 Q18.85 -12.5 18.65 -12.7 L18.7 -12.65 19.0 -12.8 M15.2 -9.6 L15.2 -9.55 15.05 -9.35 Q15.05 -9.45 15.15 -9.55 L15.2 -9.6 M9.3 -7.95 L9.3 -8.0 9.3 -7.95 M8.1 -9.15 L8.1 -9.2 8.05 -9.25 8.15 -9.2 8.1 -9.15 M15.7 -13.15 Q15.85 -12.75 15.85 -12.55 L15.8 -12.4 Q15.8 -12.75 15.7 -13.15 M13.1 -11.75 L13.05 -11.8 Q13.3 -11.8 13.5 -12.1 L13.6 -12.2 13.6 -12.05 13.2 -11.75 13.1 -11.75 M15.5 -13.7 L15.5 -13.7 M11.6 -13.8 L11.6 -13.75 11.5 -13.8 11.6 -13.8" fill="#c7a36d" fill-rule="evenodd" stroke="none"/>
      <path d="M18.7 -20.05 L18.75 -20.0 18.65 -19.6 18.65 -19.5 Q18.15 -19.45 17.35 -19.2 L16.1 -18.8 16.95 -19.2 Q17.45 -19.45 17.55 -19.55 16.4 -19.2 12.45 -17.25 L12.9 -17.55 Q13.6 -17.9 15.35 -19.1 17.05 -20.05 18.6 -20.05 L18.7 -20.05 M11.5 -19.4 L11.1 -19.3 Q9.75 -18.95 9.15 -18.7 L9.15 -18.8 Q9.1 -19.0 9.15 -19.1 9.25 -19.3 9.65 -19.35 L9.75 -19.35 9.75 -19.3 9.8 -19.35 9.85 -19.35 11.5 -19.4 M14.05 -19.5 L14.35 -19.65 14.9 -19.7 14.05 -19.5 M13.75 -18.6 Q12.65 -18.7 11.55 -18.65 L14.15 -19.2 15.15 -19.4 Q14.5 -19.05 13.75 -18.6 M11.6 -15.65 L13.6 -16.65 Q15.95 -17.85 17.6 -18.5 L18.55 -18.9 18.65 -18.9 18.65 -18.85 Q18.65 -18.8 18.65 -18.7 L18.75 -18.5 18.9 -18.25 18.85 -18.1 Q16.65 -17.8 12.75 -16.15 L11.6 -15.65 M8.7 -13.85 L8.55 -14.15 8.8 -14.25 9.7 -14.7 10.15 -14.9 9.65 -14.65 Q8.95 -14.25 8.65 -13.95 L8.7 -13.85" fill="#b00000" fill-rule="evenodd" stroke="none"/>
      <path d="M8.45 -6.45 L8.55 -6.6 Q8.7 -6.8 8.9 -7.5 L9.05 -7.9 9.05 -7.85 Q9.05 -7.5 9.2 -6.95 9.45 -6.25 9.7 -6.2 9.75 -6.2 9.75 -6.25 L9.75 -6.35 9.8 -6.4 Q9.85 -6.85 10.05 -7.55 L10.2 -7.95 Q10.2 -7.6 10.5 -7.05 L10.7 -6.65 Q11.05 -6.0 11.4 -6.0 11.5 -6.0 11.55 -6.05 L11.55 -6.1 11.4 -6.35 11.35 -6.8 11.25 -7.35 11.65 -6.85 Q12.3 -6.2 12.65 -6.2 L12.7 -6.2 12.8 -6.05 12.85 -6.05 12.9 -6.15 12.65 -6.75 12.4 -7.5 12.8 -7.0 Q13.0 -6.75 13.25 -6.65 L13.2 -6.5 13.3 -6.5 13.45 -6.55 Q13.75 -6.75 13.9 -7.85 L13.9 -8.1 14.25 -7.6 14.5 -6.95 14.35 -6.65 Q14.95 -7.05 15.05 -7.75 15.1 -8.05 15.1 -8.95 15.1 -9.05 15.2 -9.3 L15.35 -8.75 15.5 -8.1 15.35 -7.8 15.4 -7.75 15.5 -7.85 15.5 -7.7 Q15.65 -7.8 15.75 -8.15 16.1 -8.75 16.45 -10.2 L16.75 -11.6 Q16.85 -11.15 17.15 -10.5 17.6 -9.35 17.65 -9.15 L17.6 -9.15 17.4 -9.5 Q17.25 -9.7 17.15 -9.75 L17.1 -9.7 17.1 -9.15 Q17.1 -8.95 17.35 -8.3 L17.35 -8.0 Q17.35 -7.1 17.15 -6.25 L17.15 -6.7 Q17.15 -7.2 17.05 -7.65 L16.7 -8.7 16.65 -8.7 Q16.5 -7.2 16.3 -6.4 15.95 -5.1 15.2 -4.2 L14.4 -3.35 Q15.0 -4.55 15.6 -6.25 15.6 -6.85 13.7 -3.85 L12.35 -1.75 Q12.55 -2.3 13.0 -3.3 13.75 -4.85 13.75 -5.5 13.75 -5.65 13.7 -5.75 L13.5 -5.95 13.2 -5.0 Q12.95 -4.3 12.7 -3.9 12.5 -3.6 11.75 -2.75 L11.75 -2.75 Q11.6 -3.15 11.25 -3.55 10.4 -4.5 10.1 -5.55 L10.05 -5.55 10.05 -5.5 10.0 -5.6 9.95 -5.75 Q9.85 -5.75 9.8 -5.65 L9.75 -5.8 9.65 -5.8 9.65 -5.7 Q9.65 -4.75 9.8 -4.35 9.9 -4.1 10.6 -2.85 L10.6 -2.8 9.6 -3.95 Q8.7 -5.0 8.45 -6.45 M15.9 -3.6 L16.15 -4.05 16.05 -3.85 15.95 -3.7 15.9 -3.6 M7.95 -5.6 Q7.6 -5.15 7.5 -4.4 7.3 -4.9 7.3 -5.4 7.3 -6.25 7.65 -7.6 L7.75 -8.0 7.8 -7.6 Q7.8 -7.2 7.9 -6.55 L7.95 -5.65 7.95 -5.6 M7.6 -9.05 L7.55 -9.2 7.65 -9.15 7.6 -9.1 7.6 -9.05" fill="#003060" fill-rule="evenodd" stroke="none"/>
      <path d="M13.7 -14.95 L13.55 -14.9 13.45 -14.95 13.35 -14.85 13.25 -14.65 Q13.25 -14.6 13.3 -14.45 13.4 -14.3 13.55 -14.3 13.65 -14.3 13.7 -14.35 L13.75 -14.4 13.75 -14.65 13.7 -14.95 M13.25 -15.4 L13.5 -15.45 14.4 -15.55 14.65 -15.15 Q14.8 -14.95 14.8 -14.85 14.8 -14.5 14.45 -14.05 14.1 -13.55 13.55 -13.6 13.35 -13.7 13.25 -13.9 12.95 -14.3 12.95 -14.6 12.95 -14.8 13.05 -15.05 13.15 -15.35 13.3 -15.4 L13.25 -15.4" fill="#ffffff" fill-rule="evenodd" stroke="none"/>
      <path d="M7.75 -11.05 L7.8 -11.05 7.65 -11.3 Q7.4 -11.65 7.05 -11.85 6.3 -12.2 5.75 -11.5 5.5 -11.25 5.2 -10.7 5.25 -11.05 5.4 -11.35 5.65 -11.9 6.1 -12.0 L6.5 -12.05 Q7.4 -12.05 7.7 -11.5 L7.8 -11.05 7.75 -11.05 M5.35 -9.9 L5.4 -10.25 5.5 -10.4 5.4 -10.0 5.35 -9.9 M2.35 -8.5 L2.45 -8.55 2.4 -8.55 2.35 -8.5 M3.1 -9.55 L3.05 -9.55 2.65 -9.35 Q2.5 -9.3 2.35 -9.25 2.1 -9.3 1.9 -9.55 1.65 -9.8 1.65 -10.0 L1.7 -10.15 Q1.75 -10.25 1.85 -10.25 2.05 -10.25 2.2 -10.0 2.4 -9.7 2.45 -9.7 2.5 -9.7 2.5 -9.75 L2.5 -9.9 Q2.4 -10.3 1.95 -10.65 1.45 -10.7 1.3 -10.45 1.25 -10.35 1.25 -10.05 L1.25 -9.7 Q1.25 -9.5 1.3 -9.35 1.35 -9.2 1.4 -9.15 1.0 -9.4 0.9 -9.6 0.85 -9.75 0.85 -10.05 L0.8 -10.65 0.9 -10.7 1.65 -10.8 Q2.2 -10.8 2.8 -10.35 L3.0 -10.15 3.0 -9.95 3.1 -9.55 M3.55 -8.25 L3.5 -8.2 3.6 -8.0 3.45 -8.0 3.0 -7.95 2.95 -7.85 Q3.1 -8.05 3.1 -8.25 L3.45 -8.2 3.55 -8.25" fill="#9c9581" fill-rule="evenodd" stroke="none"/>
      <path d="M2.2 -11.5 Q2.45 -11.4 2.6 -11.3 L2.85 -11.1 Q2.9 -11.05 2.95 -11.05 L2.95 -10.65 Q2.75 -11.0 2.25 -11.05 L2.2 -11.05 2.2 -11.5 M1.85 -11.15 L1.75 -11.2 1.2 -11.15 Q1.25 -11.3 1.3 -11.6 L2.0 -11.55 1.95 -11.4 1.85 -11.15 M2.5 -8.25 Q2.7 -8.35 2.8 -8.5 L2.85 -8.5 2.75 -8.1 2.75 -8.0 2.5 -8.25 M1.75 -7.7 Q1.6 -7.75 1.55 -7.95 L1.5 -7.95 1.6 -8.0 Q1.65 -7.85 1.75 -7.7 M4.0 -8.15 L3.95 -8.25 3.7 -8.6 3.6 -8.6 3.7 -8.7 3.9 -8.8 4.1 -8.8 Q4.3 -8.75 4.35 -8.45 L4.4 -8.3 4.0 -8.15 M4.25 -7.45 L4.2 -7.4 4.3 -7.45 Q4.2 -7.2 4.05 -7.1 L3.85 -7.0 3.7 -7.0 3.65 -7.05 3.7 -7.1 3.75 -7.2 3.8 -7.2 3.8 -7.25 3.9 -7.4 4.1 -7.4 Q4.15 -7.4 4.25 -7.45" fill="#fff4d4" fill-rule="evenodd" stroke="none"/>
      <path d="M12.75 -19.8 Q12.9 -20.0 13.2 -20.05 L14.6 -20.2 Q15.65 -20.25 16.2 -20.5 16.9 -20.8 17.25 -21.45 L17.35 -21.25 Q17.5 -20.95 17.6 -20.55 L17.65 -20.4 Q17.15 -20.3 16.45 -20.0 L16.35 -20.0 15.7 -20.05 12.75 -19.8 M9.4 -17.3 L9.4 -17.65 9.6 -17.7 10.25 -17.7 11.6 -17.75 12.5 -17.8 11.85 -17.4 10.05 -16.25 8.45 -15.2 8.4 -15.15 8.35 -15.2 8.3 -15.55 8.3 -15.65 8.4 -16.0 8.4 -16.05 8.5 -16.0 Q9.65 -16.0 10.9 -17.0 L11.4 -17.35 9.4 -17.3 M10.45 -13.8 L10.6 -13.85 10.7 -13.9 10.75 -14.0 10.35 -13.95 10.45 -14.05 10.95 -14.4 12.7 -15.3 12.65 -15.2 Q12.55 -14.95 12.55 -14.4 12.6 -14.1 12.8 -13.8 12.45 -14.05 12.0 -13.9 L11.95 -13.9 11.65 -13.75 11.5 -13.6 11.45 -13.6 11.4 -13.55 11.35 -13.6 Q11.25 -13.7 11.25 -13.6 L11.25 -13.55 11.2 -13.6 10.8 -13.7 10.5 -13.8 10.45 -13.8 M12.3 -13.35 L12.35 -13.35 12.35 -13.3 12.45 -13.3 12.4 -13.3 12.3 -13.35 M13.0 -13.0 L13.15 -12.85 Q13.35 -12.55 13.45 -12.25 L13.5 -12.35 13.4 -12.6 13.35 -12.85 13.5 -12.55 Q13.65 -12.2 13.65 -11.85 L13.6 -11.35 13.55 -11.15 13.55 -11.1 13.65 -11.25 13.85 -11.65 Q13.95 -11.8 13.95 -12.15 13.95 -12.5 13.8 -12.75 13.6 -13.1 13.2 -13.25 L13.1 -13.4 13.15 -13.35 13.55 -13.1 13.7 -13.05 13.85 -12.9 14.65 -12.2 Q15.15 -12.2 15.35 -12.35 15.5 -12.4 15.5 -12.6 15.5 -12.85 15.4 -13.2 L15.3 -13.45 Q15.15 -13.25 14.9 -13.15 L14.95 -13.15 14.95 -13.2 Q15.0 -13.25 15.1 -13.5 L14.3 -13.35 Q13.95 -13.35 13.7 -13.5 L13.75 -13.5 14.05 -13.45 Q14.6 -13.45 14.9 -14.05 15.15 -14.55 15.15 -14.85 15.15 -15.2 15.0 -15.45 L14.95 -15.5 Q15.2 -15.45 15.4 -15.35 15.6 -15.2 15.6 -14.9 15.6 -14.8 15.55 -14.65 L15.4 -14.4 Q15.55 -14.45 15.65 -14.65 L15.75 -14.9 15.75 -14.7 Q15.75 -14.25 15.6 -13.9 L15.55 -14.05 15.5 -14.05 15.5 -13.7 Q15.55 -13.5 15.65 -13.2 L15.7 -13.15 Q15.8 -12.75 15.8 -12.4 15.75 -12.2 15.5 -12.1 15.3 -11.95 14.75 -11.8 13.9 -11.5 13.75 -11.1 13.7 -11.0 13.7 -10.95 L13.7 -10.8 Q12.8 -11.0 10.7 -11.1 11.0 -11.2 11.3 -11.35 11.85 -11.7 12.4 -11.7 L13.0 -11.6 13.1 -11.75 13.2 -11.75 13.6 -12.05 13.6 -12.2 13.5 -12.1 Q13.3 -11.8 13.05 -11.8 12.75 -12.1 12.3 -12.05 L11.9 -11.9 11.4 -11.7 11.25 -11.65 11.2 -11.6 11.25 -11.6 11.0 -11.55 10.05 -11.5 Q9.55 -11.5 9.2 -11.7 L9.0 -11.85 8.75 -12.3 8.55 -12.75 8.55 -12.8 Q8.65 -12.85 8.8 -13.1 L8.85 -13.1 8.9 -13.2 Q8.9 -12.85 9.0 -12.5 9.25 -11.85 10.05 -11.85 10.4 -11.85 11.2 -12.1 12.0 -12.4 12.8 -12.4 12.95 -12.4 13.1 -12.5 L13.2 -12.65 13.05 -12.75 Q12.95 -12.8 12.9 -12.95 L13.0 -13.0 M15.75 -15.15 Q15.7 -15.45 15.55 -15.65 15.3 -16.0 14.95 -16.05 L14.3 -16.05 Q17.0 -17.35 18.05 -17.35 17.85 -17.25 17.8 -16.9 L17.7 -16.85 17.75 -16.8 Q17.75 -16.7 17.75 -16.5 L17.75 -16.2 17.8 -16.1 Q17.45 -16.45 16.7 -16.6 L15.8 -16.35 15.3 -16.1 15.4 -16.05 Q16.45 -15.35 16.45 -14.4 16.45 -14.35 16.35 -14.15 16.2 -13.95 16.15 -13.9 L16.0 -14.6 Q15.9 -14.9 15.75 -15.15 M18.45 -13.15 Q18.65 -13.1 18.85 -12.95 L19.0 -12.8 18.7 -12.65 18.65 -12.7 Q18.85 -12.5 18.85 -11.85 L18.8 -11.4 Q18.7 -11.1 18.25 -10.95 L18.2 -11.05 18.2 -11.15 18.25 -11.2 Q18.15 -11.05 17.95 -10.85 L17.9 -10.85 17.65 -11.25 Q17.5 -11.55 17.4 -11.8 17.55 -11.9 17.8 -12.0 18.35 -12.3 18.5 -12.55 18.5 -12.65 18.4 -12.65 L18.25 -12.6 Q18.05 -12.55 17.75 -12.35 L17.65 -12.3 17.3 -12.05 Q17.2 -12.3 17.2 -12.55 17.45 -12.75 18.1 -13.0 L18.45 -13.15 M16.4 -11.75 L16.35 -11.05 Q16.25 -10.4 15.9 -9.4 L15.7 -8.8 15.55 -9.15 15.3 -9.6 15.3 -9.65 15.25 -9.65 15.25 -9.7 Q15.2 -9.65 15.2 -9.6 L15.15 -9.55 Q15.05 -9.45 15.05 -9.35 14.9 -9.2 14.85 -8.95 14.8 -8.7 14.8 -8.2 14.85 -7.9 14.65 -7.4 14.65 -7.7 14.45 -8.0 14.2 -8.4 13.8 -8.5 L13.75 -8.6 13.7 -8.6 13.65 -8.55 Q13.65 -7.95 13.75 -7.75 L13.3 -6.75 12.95 -7.2 Q12.7 -7.55 12.35 -7.6 L12.35 -7.65 12.3 -7.6 12.25 -7.5 12.25 -7.1 Q12.3 -6.9 12.4 -6.65 L12.5 -6.45 11.85 -7.0 11.65 -7.2 Q11.4 -7.4 11.2 -7.5 L11.1 -7.5 11.15 -7.45 Q11.1 -7.4 11.1 -7.15 11.1 -6.95 11.15 -6.65 L10.9 -7.0 10.8 -7.15 Q10.5 -7.55 10.35 -7.85 10.3 -8.1 10.3 -8.3 L10.3 -8.35 10.25 -8.3 10.25 -8.35 10.15 -8.35 Q9.9 -8.35 9.75 -7.5 9.65 -7.05 9.65 -6.65 L9.4 -7.4 9.3 -7.95 9.3 -8.0 Q9.25 -8.25 9.25 -8.5 L9.15 -8.45 9.15 -8.55 9.05 -8.6 Q8.9 -8.45 8.65 -7.75 8.5 -7.3 8.5 -7.0 L8.4 -7.3 8.3 -7.65 Q8.2 -8.15 8.2 -8.45 L8.2 -8.65 Q8.4 -8.3 8.4 -7.9 L8.45 -7.9 8.45 -8.1 Q8.45 -8.45 8.25 -8.85 L8.25 -8.9 Q8.25 -9.0 8.1 -9.15 L8.15 -9.2 8.05 -9.25 8.0 -9.25 Q7.55 -9.85 6.9 -9.75 L6.9 -9.8 Q6.9 -10.25 7.75 -10.15 L10.05 -9.75 Q10.65 -9.55 11.55 -9.05 12.05 -8.75 13.15 -8.75 13.8 -8.75 14.25 -9.45 14.7 -10.05 15.0 -10.1 L15.7 -10.7 Q16.15 -11.15 16.4 -11.75 M14.4 -10.2 L14.5 -10.15 14.4 -10.15 14.35 -10.2 14.4 -10.2 M14.3 -10.6 L13.9 -10.75 14.1 -11.0 14.2 -11.15 14.6 -11.45 Q14.85 -11.6 15.2 -11.7 L15.25 -11.7 15.35 -11.75 15.45 -11.75 14.95 -11.25 Q14.5 -10.8 14.45 -10.5 L14.3 -10.6 M8.25 -12.9 L8.25 -12.45 Q8.25 -12.2 8.35 -12.0 8.45 -11.7 8.65 -11.6 L8.7 -11.5 Q8.6 -11.65 8.35 -11.8 7.95 -12.0 7.95 -12.15 7.95 -12.3 8.15 -12.65 L8.25 -12.9 M8.75 -11.4 Q8.85 -11.2 9.15 -11.1 L8.75 -11.1 8.75 -11.4 M9.85 -9.25 Q9.25 -9.4 9.25 -9.05 9.25 -9.15 10.9 -8.05 L11.35 -7.7 11.35 -7.85 11.2 -8.25 Q11.05 -8.55 10.75 -8.75 10.35 -9.1 9.85 -9.25 M15.5 -13.7 L15.5 -13.7 M11.6 -13.8 L11.5 -13.8 11.6 -13.75 11.6 -13.8" fill="#a9854f" fill-rule="evenodd" stroke="none"/>
      <path d="M18.65 -19.5 L18.6 -19.2 18.65 -19.05 18.6 -18.95 17.6 -18.7 17.6 -18.75 17.4 -18.65 16.0 -18.3 Q14.4 -17.85 13.25 -17.15 11.9 -16.45 10.7 -15.75 9.1 -14.9 8.55 -14.45 L8.4 -14.3 8.2 -14.6 8.15 -14.65 8.35 -14.8 8.5 -14.95 8.75 -15.05 8.9 -15.1 Q9.7 -15.5 10.65 -16.1 L12.45 -17.25 Q16.4 -19.2 17.55 -19.55 17.45 -19.45 16.95 -19.2 L16.1 -18.8 17.35 -19.2 Q18.15 -19.45 18.65 -19.5 M11.5 -19.4 L11.6 -19.4 13.7 -19.6 13.8 -19.6 13.9 -19.65 14.35 -19.65 14.05 -19.5 11.9 -19.05 Q9.95 -18.6 9.1 -18.25 9.2 -18.45 9.2 -18.6 L9.15 -18.7 Q9.75 -18.95 11.1 -19.3 L11.5 -19.4 M13.75 -18.6 L13.1 -18.2 12.5 -18.2 12.05 -18.15 11.55 -18.15 10.2 -18.1 9.7 -18.05 9.2 -18.05 9.45 -18.15 9.5 -18.2 11.4 -18.6 11.55 -18.65 Q12.65 -18.7 13.75 -18.6 M11.6 -15.65 L12.75 -16.15 Q16.65 -17.8 18.85 -18.1 L18.75 -18.0 18.65 -17.85 Q18.5 -17.7 18.45 -17.55 18.15 -17.7 17.3 -17.45 16.15 -17.2 14.35 -16.45 12.7 -15.75 11.45 -15.05 10.1 -14.3 10.1 -14.05 L10.0 -13.95 8.85 -13.8 8.75 -13.75 8.75 -13.8 8.7 -13.85 8.65 -13.95 Q8.95 -14.25 9.65 -14.65 L10.15 -14.9 11.6 -15.65" fill="#600000" fill-rule="evenodd" stroke="none"/>
      <path d="M7.75 -11.05 L7.6 -11.0 7.3 -11.35 Q7.1 -11.6 6.9 -11.75 L6.6 -11.7 Q6.55 -11.7 6.5 -11.65 L6.25 -11.6 6.15 -11.6 6.1 -11.5 Q5.85 -11.4 5.75 -11.1 5.6 -10.85 5.5 -10.4 L5.4 -10.25 5.35 -9.9 Q5.2 -9.6 4.95 -8.95 L4.7 -8.2 4.65 -8.15 4.65 -8.25 4.6 -8.3 4.6 -8.4 4.55 -8.45 4.55 -8.55 4.45 -8.7 4.7 -9.25 4.7 -9.3 Q4.85 -9.5 4.9 -9.75 5.05 -10.0 5.15 -10.55 L5.15 -10.6 5.2 -10.7 Q5.5 -11.25 5.75 -11.5 6.3 -12.2 7.05 -11.85 7.4 -11.65 7.65 -11.3 L7.8 -11.05 7.75 -11.05 M2.35 -8.5 Q2.0 -8.35 1.5 -8.35 0.7 -8.35 0.5 -8.85 0.4 -9.05 0.4 -9.65 0.4 -9.95 0.45 -10.55 L0.5 -10.55 Q0.65 -10.7 0.8 -10.75 1.15 -10.85 1.75 -10.85 L2.0 -10.85 2.35 -10.65 Q2.8 -10.4 2.95 -10.2 L3.0 -10.15 2.8 -10.35 Q2.2 -10.8 1.65 -10.8 L0.9 -10.7 0.8 -10.65 0.85 -10.05 Q0.85 -9.75 0.9 -9.6 1.0 -9.4 1.4 -9.15 1.35 -9.2 1.3 -9.35 1.25 -9.5 1.25 -9.7 L1.25 -10.05 Q1.25 -10.35 1.3 -10.45 1.45 -10.7 1.95 -10.65 2.4 -10.3 2.5 -9.9 L2.5 -9.75 Q2.5 -9.7 2.45 -9.7 2.4 -9.7 2.2 -10.0 2.05 -10.25 1.85 -10.25 1.75 -10.25 1.7 -10.15 L1.65 -10.0 Q1.65 -9.8 1.9 -9.55 2.1 -9.3 2.35 -9.25 2.5 -9.3 2.65 -9.35 L3.05 -9.55 3.1 -9.55 3.1 -9.4 3.05 -9.2 Q2.95 -9.0 2.75 -8.8 L2.45 -8.55 2.35 -8.5 M3.55 -8.25 L3.65 -8.25 Q3.7 -8.05 3.7 -7.95 L3.65 -7.65 3.6 -7.45 3.55 -7.35 3.35 -7.35 2.55 -7.4 Q2.7 -7.55 2.85 -7.7 L2.95 -7.85 3.0 -7.95 3.45 -8.0 3.6 -8.0 3.5 -8.2 3.55 -8.25" fill="#666154" fill-rule="evenodd" stroke="none"/>
      <path d="M2.2 -11.5 L2.2 -11.05 1.85 -11.15 1.95 -11.4 2.0 -11.55 2.2 -11.5 M1.2 -11.15 Q0.75 -11.05 0.55 -10.95 L0.5 -10.95 Q0.5 -11.25 0.45 -11.4 L0.4 -11.45 0.7 -11.55 1.2 -11.6 1.3 -11.6 Q1.25 -11.3 1.2 -11.15 M2.5 -8.25 L2.75 -8.0 Q2.65 -7.75 2.45 -7.65 L2.35 -7.6 2.15 -7.6 1.9 -7.65 Q1.8 -7.65 1.75 -7.7 1.65 -7.85 1.6 -8.0 L1.75 -8.05 Q2.2 -8.05 2.5 -8.25 M4.0 -8.15 L4.4 -8.3 4.4 -7.8 4.35 -7.75 4.25 -7.45 Q4.15 -7.4 4.1 -7.4 L3.9 -7.4 3.9 -7.5 Q4.0 -7.7 4.0 -7.95 L4.0 -8.15" fill="#bfb69e" fill-rule="evenodd" stroke="none"/>
      <path d="M7.65 -9.15 L7.75 -9.05 7.9 -8.4 Q8.15 -6.95 8.4 -6.45 L8.45 -6.45 Q8.7 -5.0 9.6 -3.95 L10.6 -2.8 10.6 -2.85 Q9.9 -4.1 9.8 -4.35 9.65 -4.75 9.65 -5.7 L9.65 -5.8 9.75 -5.8 9.8 -5.65 Q9.85 -5.75 9.95 -5.75 L10.0 -5.6 10.05 -5.5 10.05 -5.55 10.1 -5.55 Q10.4 -4.5 11.25 -3.55 11.6 -3.15 11.75 -2.75 L11.75 -2.75 Q12.5 -3.6 12.7 -3.9 12.95 -4.3 13.2 -5.0 L13.5 -5.95 13.7 -5.75 Q13.75 -5.65 13.75 -5.5 13.75 -4.85 13.0 -3.3 12.55 -2.3 12.35 -1.75 L13.7 -3.85 Q15.6 -6.85 15.6 -6.25 15.0 -4.55 14.4 -3.35 L15.2 -4.2 Q15.95 -5.1 16.3 -6.4 16.5 -7.2 16.65 -8.7 L16.7 -8.7 17.05 -7.65 Q17.15 -7.2 17.15 -6.7 L17.15 -6.25 Q17.35 -7.1 17.35 -8.0 L17.35 -8.3 Q17.1 -8.95 17.1 -9.15 L17.1 -9.7 17.15 -9.75 Q17.25 -9.7 17.4 -9.5 L17.6 -9.15 17.65 -9.15 Q17.6 -9.35 17.15 -10.5 16.85 -11.15 16.75 -11.6 L16.8 -12.0 Q16.85 -11.65 17.05 -11.25 L17.65 -10.3 Q18.45 -8.95 18.45 -7.75 18.45 -7.4 18.3 -6.65 L18.25 -6.45 Q18.2 -6.85 18.05 -7.25 17.95 -7.7 17.8 -8.05 L17.7 -8.4 17.65 -8.4 17.65 -8.35 17.45 -8.6 17.4 -8.6 17.4 -8.45 17.45 -8.2 17.5 -8.05 17.75 -7.1 17.75 -7.05 Q17.65 -5.65 16.55 -4.05 L15.7 -3.0 15.5 -2.75 15.6 -3.0 15.6 -3.05 15.65 -3.2 15.9 -3.6 15.95 -3.7 16.05 -3.85 16.15 -4.05 16.4 -4.6 Q16.5 -4.85 16.55 -5.05 L16.55 -5.1 16.5 -5.2 16.45 -5.2 14.65 -2.7 Q14.25 -2.1 13.0 -1.2 12.35 -0.7 12.1 -0.45 11.85 -0.95 10.85 -1.5 9.35 -2.4 9.1 -2.75 8.65 -3.4 8.35 -4.1 8.0 -4.9 8.0 -5.4 L8.05 -5.65 8.05 -5.7 8.0 -5.7 7.95 -5.6 7.95 -5.65 7.9 -6.55 Q7.8 -7.2 7.8 -7.6 L7.75 -8.0 7.65 -7.6 Q7.3 -6.25 7.3 -5.4 7.3 -4.9 7.5 -4.4 L7.5 -3.65 7.1 -4.3 Q6.8 -4.8 6.8 -5.35 6.8 -6.3 7.15 -7.35 L7.5 -8.45 7.55 -8.75 7.6 -9.0 7.6 -9.05 7.6 -9.1 7.65 -9.15" fill="#002040" fill-rule="evenodd" stroke="none"/>
    </g>
    <g id="sprite7" transform="matrix(1.0, 0.0, 0.0, 1.0, 136.85, 204.75)">
      <use ffdec:characterId="946" height="57.2" transform="matrix(7.0, 0.0, 0.0, 7.0, -136.85, -204.75)" width="39.05" xlink:href="#shape6"/>
    </g>
    <g id="shape6" transform="matrix(1.0, 0.0, 0.0, 1.0, 19.55, 29.25)">
      <path d="M19.35 -26.6 L19.3 -26.3 Q19.2 -26.05 18.95 -26.0 L18.8 -25.85 14.85 -25.3 9.55 -25.45 8.3 -25.65 Q8.1 -25.5 7.5 -25.5 L5.2 -25.7 2.95 -26.0 -5.6 -25.15 -8.75 -23.0 -1.05 9.15 Q-0.4 11.25 -0.4 11.45 -0.4 12.95 -2.4 15.8 -4.1 18.2 -5.8 19.75 L-8.25 22.05 Q-10.0 23.7 -11.2 24.75 -14.85 27.95 -16.1 27.95 -16.95 27.95 -17.25 27.5 -17.4 27.3 -17.4 26.85 L-14.45 13.2 -16.25 -0.5 -18.9 -24.15 Q-18.4 -27.0 -17.15 -27.6 L-13.3 -28.75 -9.75 -27.05 -8.65 -27.4 Q-6.4 -27.95 -0.95 -27.95 L3.75 -27.4 4.2 -27.5 8.35 -27.1 10.05 -26.9 18.6 -27.2 Q19.1 -27.3 19.2 -27.0 L19.35 -26.6 M18.25 -26.35 L18.25 -26.4 18.15 -26.4 18.25 -26.35" fill="#775d2b" fill-rule="evenodd" stroke="none"/>
      <path d="M18.25 -26.15 Q18.45 -25.95 18.9 -26.05 19.1 -26.1 19.3 -26.25 L19.4 -26.25 Q19.45 -26.25 19.45 -26.1 19.45 -26.0 19.15 -25.85 L12.8 -25.3 7.45 -25.55 7.5 -25.6 7.4 -25.6 5.75 -25.75 -1.65 -25.85 Q-5.45 -25.7 -7.4 -24.35 L-8.55 -23.2 -8.55 -22.0 -0.65 9.85 Q-0.85 10.0 -1.05 10.0 -2.65 10.0 -4.05 3.1 -4.8 -0.35 -5.15 -3.75 L-7.85 -14.85 Q-8.55 -17.45 -8.6 -19.05 L-8.85 -20.2 Q-9.05 -20.45 -9.4 -21.35 L-9.8 -22.6 Q-9.8 -23.05 -9.15 -23.5 L-7.7 -24.7 Q-5.65 -25.9 -3.3 -26.5 L-2.1 -26.5 -1.1 -26.55 -0.7 -26.6 2.45 -26.3 3.2 -26.25 Q3.45 -26.3 3.8 -26.25 5.3 -26.0 6.7 -25.95 L7.5 -25.95 8.1 -25.9 8.2 -25.9 8.3 -25.85 10.4 -25.75 Q12.55 -25.6 14.7 -25.65 16.4 -25.7 18.0 -26.0 L18.15 -26.05 18.25 -26.15 M-11.1 -23.75 Q-11.05 -23.75 -11.05 -23.4 -11.05 -23.1 -11.15 -22.8 L-11.45 -22.2 -11.6 -22.2 -11.7 -22.4 Q-11.75 -22.55 -11.75 -22.85 -11.75 -23.1 -11.65 -23.3 -11.5 -23.6 -11.2 -23.7 -11.15 -23.75 -11.1 -23.75 M-12.55 -25.4 Q-12.45 -25.5 -12.25 -25.5 -11.8 -24.95 -11.8 -24.35 -11.8 -24.05 -11.85 -23.95 L-11.85 -23.9 -11.9 -23.8 Q-12.0 -23.7 -12.15 -23.65 -12.4 -24.0 -12.5 -24.25 -12.65 -24.6 -12.65 -24.9 -12.65 -25.25 -12.55 -25.4 M-11.75 -26.05 L-11.95 -26.15 Q-11.85 -26.15 -11.85 -26.1 L-11.75 -26.05 M-13.75 -2.4 Q-13.7 -1.95 -13.7 -1.5 -13.7 -1.2 -13.8 -1.0 L-13.95 -0.65 -14.1 -0.65 Q-14.1 -0.85 -14.45 -1.9 -14.75 -3.0 -14.75 -3.15 L-14.75 -3.7 Q-14.65 -4.0 -14.35 -4.1 -14.0 -3.5 -13.85 -2.8 L-13.8 -2.55 -13.7 -2.35 -13.75 -2.4 M-10.45 -12.0 Q-10.05 -11.65 -9.75 -11.15 L-9.35 -10.3 Q-9.4 -10.15 -9.55 -10.0 -9.7 -9.85 -9.85 -9.8 -10.25 -9.95 -10.65 -10.5 -11.0 -10.95 -11.0 -11.3 -11.0 -11.55 -10.75 -11.75 L-10.45 -12.0" fill="#55420f" fill-rule="evenodd" stroke="none"/>
      <path d="M19.4 -27.35 L19.45 -27.2 19.5 -27.1 19.5 -26.55 Q19.5 -26.3 19.4 -26.1 19.3 -25.9 19.15 -25.8 L19.1 -25.75 Q18.95 -25.55 18.45 -25.45 16.8 -25.05 11.7 -25.05 L7.7 -25.3 7.25 -25.3 7.3 -25.35 5.4 -25.35 Q4.95 -25.6 4.25 -25.5 L2.45 -25.55 -3.3 -25.3 -4.5 -25.1 -4.95 -25.05 -5.0 -25.0 -5.05 -25.0 -5.35 -24.9 Q-5.85 -24.7 -6.35 -24.45 L-6.55 -24.4 Q-6.9 -24.25 -7.15 -24.05 L-7.4 -23.85 Q-8.1 -23.1 -8.55 -22.4 -7.65 -19.35 -6.35 -14.75 L-4.05 -6.65 Q-3.1 -3.45 -1.55 2.5 0.15 9.05 0.15 9.65 0.15 10.6 -0.3 10.6 -1.05 10.6 -2.1 5.85 L-2.95 1.8 Q-3.45 -0.6 -3.75 -1.65 -6.95 -13.1 -6.95 -13.95 L-7.9 -17.45 Q-8.9 -21.2 -8.9 -22.55 L-8.85 -22.75 -8.9 -22.85 -8.95 -22.8 Q-9.15 -22.7 -9.3 -22.7 L-9.7 -22.75 -9.75 -23.0 -9.45 -23.05 -8.9 -23.1 -8.85 -23.1 Q-8.7 -23.35 -7.95 -23.9 L-7.6 -24.25 -6.9 -24.7 -6.35 -25.1 Q-4.95 -25.8 -3.95 -25.95 L0.95 -26.2 1.0 -26.2 1.8 -26.15 1.95 -26.1 3.1 -25.95 3.15 -25.95 5.3 -25.85 Q5.65 -25.75 6.05 -25.75 L6.5 -25.65 7.5 -25.55 7.55 -25.6 8.1 -25.55 8.95 -25.55 Q13.45 -25.2 17.9 -25.8 L17.95 -25.9 Q18.05 -25.85 18.1 -25.95 L18.1 -26.0 18.0 -26.15 17.95 -26.15 17.95 -26.2 18.05 -26.2 18.0 -26.35 18.0 -26.45 18.1 -26.6 18.1 -26.75 18.2 -26.75 18.2 -26.8 18.25 -26.8 18.2 -26.75 18.15 -26.65 18.15 -26.55 18.2 -26.4 18.2 -26.3 18.25 -26.25 18.25 -26.1 18.4 -25.95 18.85 -25.95 18.85 -26.0 18.9 -26.0 18.95 -26.05 19.1 -26.15 19.15 -26.3 Q19.25 -26.45 19.2 -26.5 L19.25 -26.65 19.25 -26.8 Q19.25 -26.9 19.2 -26.95 L19.15 -27.0 19.1 -27.0 19.1 -27.05 19.05 -27.05 18.95 -27.1 18.75 -27.15 18.55 -27.1 Q18.35 -27.05 18.3 -26.9 L18.3 -27.0 18.2 -27.1 Q16.5 -26.8 14.75 -26.75 12.85 -26.7 10.9 -26.7 9.3 -26.7 7.75 -27.0 L4.3 -27.35 4.2 -27.35 4.2 -27.3 4.1 -27.3 0.95 -27.7 -2.25 -27.85 -3.15 -27.9 -3.6 -27.9 -4.8 -27.85 Q-5.7 -27.8 -6.5 -27.55 -7.3 -27.5 -8.3 -27.25 L-8.95 -27.1 Q-9.45 -26.9 -9.7 -26.8 L-10.15 -26.6 -10.55 -26.4 Q-10.4 -26.05 -10.4 -25.8 L-10.45 -25.8 Q-10.55 -25.75 -10.65 -25.7 L-10.75 -25.9 Q-10.85 -26.05 -10.85 -26.2 L-10.8 -26.3 -10.85 -26.3 -10.9 -26.35 -10.9 -26.5 Q-10.9 -26.85 -10.4 -27.0 L-10.35 -27.05 -10.45 -27.2 -11.3 -27.6 Q-12.55 -28.2 -13.5 -28.2 -15.95 -28.2 -17.4 -26.65 -17.8 -26.25 -18.15 -25.7 -18.25 -25.3 -18.4 -24.15 -18.6 -23.0 -18.6 -22.5 -18.6 -21.25 -17.8 -16.1 L-16.1 -5.35 Q-13.65 10.1 -13.65 13.5 -13.65 15.0 -14.1 16.9 -14.45 18.3 -15.15 20.4 L-16.2 24.4 Q-16.7 26.2 -16.95 26.85 L-16.95 27.15 Q-16.95 27.4 -16.95 27.35 L-16.95 27.45 Q-17.0 27.5 -17.15 27.5 -17.4 27.5 -17.5 27.05 L-17.5 27.0 Q-17.6 26.85 -17.7 26.55 L-17.75 25.9 Q-17.75 25.05 -17.3 23.4 L-16.25 20.2 Q-14.8 15.6 -14.8 13.55 -14.8 12.65 -15.1 9.45 L-15.4 6.1 Q-15.4 5.9 -16.0 3.0 -16.6 -0.1 -16.65 -0.75 L-17.1 -4.15 -17.55 -7.6 Q-17.6 -8.5 -18.6 -14.75 -19.55 -20.55 -19.55 -21.2 -19.55 -23.05 -19.4 -24.0 L-19.25 -25.0 Q-19.2 -25.35 -19.0 -25.75 L-18.9 -25.9 Q-18.85 -26.2 -18.6 -26.6 -18.25 -27.25 -17.6 -27.8 -15.8 -29.25 -12.95 -29.25 -11.85 -29.25 -10.8 -28.5 -10.05 -28.0 -9.85 -27.65 L-9.65 -27.5 -9.0 -27.7 -8.75 -27.7 -8.65 -27.75 -8.25 -27.85 -8.05 -27.85 -7.55 -27.95 Q-5.9 -28.2 -3.65 -28.2 L0.95 -28.1 0.95 -28.05 3.55 -27.7 4.0 -27.7 4.25 -27.6 9.25 -27.15 10.35 -27.15 Q13.45 -26.95 16.6 -27.2 L16.8 -27.2 17.05 -27.25 17.1 -27.3 18.9 -27.4 19.4 -27.35 M-10.35 -25.35 L-10.2 -25.35 Q-10.1 -25.15 -9.85 -24.25 L-9.55 -23.3 Q-9.55 -23.15 -9.6 -23.15 L-9.6 -23.1 Q-9.6 -23.05 -9.7 -23.05 L-9.8 -23.25 -10.1 -24.05 Q-10.4 -24.95 -10.4 -25.15 -10.4 -25.3 -10.35 -25.35" fill="#362612" fill-rule="evenodd" stroke="none"/>
      <path d="M-13.35 -28.35 Q-12.15 -28.35 -11.5 -27.5 -11.3 -27.25 -11.2 -26.9 L-11.05 -26.5 -11.05 -26.4 -11.1 -26.55 Q-11.35 -27.0 -11.7 -27.3 -12.8 -28.2 -14.25 -28.3 L-14.55 -28.2 -14.5 -28.25 -14.25 -28.3 -13.35 -28.35 M-1.1 -26.45 L-0.25 -26.35 -0.3 -26.3 Q-1.2 -26.35 -2.35 -26.3 L-4.1 -26.15 -4.25 -26.1 Q-4.35 -26.1 -4.4 -26.1 -6.55 -25.4 -7.25 -24.95 -7.75 -24.65 -8.35 -24.05 -8.85 -23.55 -9.15 -23.15 L-9.25 -23.15 -9.25 -23.1 -9.3 -23.3 Q-9.3 -23.6 -8.6 -24.15 L-7.7 -24.8 -7.55 -24.95 -6.75 -25.5 -7.25 -25.1 -6.9 -25.25 Q-4.5 -26.6 -3.3 -26.45 L-1.1 -26.45 M-10.55 -25.15 L-10.25 -24.35 -10.2 -24.5 -10.1 -24.5 -9.65 -22.8 -9.6 -22.8 Q-8.9 -20.5 -8.25 -17.35 L-8.05 -16.35 -7.95 -16.0 -7.95 -16.1 -7.85 -16.1 -7.85 -16.0 -7.8 -16.0 -7.85 -15.85 -7.8 -15.85 -7.8 -15.75 -7.75 -15.7 -7.75 -15.6 -7.7 -15.45 -7.7 -15.35 -7.65 -15.25 -7.65 -15.05 -7.6 -14.95 -7.55 -14.9 -7.55 -14.5 -7.5 -14.45 -7.45 -14.35 -7.45 -14.05 -7.35 -13.9 -7.35 -13.7 -7.3 -13.6 -7.25 -13.55 -7.25 -13.4 -7.2 -13.25 -7.2 -13.15 -7.05 -12.95 -4.65 -2.65 Q-2.9 4.7 -1.95 9.45 L-1.95 10.15 -2.05 10.15 -5.1 -2.25 Q-6.8 -9.2 -7.65 -14.0 L-7.75 -14.4 -6.95 -9.9 -7.05 -9.85 Q-7.65 -12.25 -8.45 -16.2 L-9.25 -20.55 Q-10.0 -23.2 -10.6 -25.15 L-10.55 -25.15 M-15.55 -18.0 Q-15.75 -13.8 -14.3 -7.55 -12.45 -0.6 -11.8 2.9 -11.25 6.15 -10.85 14.95 -10.6 21.15 -10.6 23.85 L-10.6 24.0 Q-10.65 23.95 -10.65 24.0 L-10.7 24.0 Q-10.95 21.55 -11.25 14.35 -11.55 8.2 -12.0 4.6 -12.25 2.7 -12.95 -0.05 -13.3 -1.65 -14.2 -4.9 -15.75 -11.05 -15.75 -14.6 -15.75 -17.25 -15.55 -18.0 M-10.4 -12.35 L-10.35 -12.35 Q-10.15 -10.7 -9.5 -8.6 -9.25 -7.65 -8.3 -4.9 -6.65 -0.05 -6.55 2.55 -6.3 11.7 -5.9 17.45 L-5.9 17.5 Q-5.95 17.55 -6.0 17.55 -6.4 14.8 -6.55 10.25 -6.7 4.4 -6.85 2.85 -7.1 -0.6 -8.8 -5.5 -9.75 -8.1 -9.95 -8.85 -10.45 -10.55 -10.45 -11.7 L-10.4 -12.35" fill="#362612" fill-rule="evenodd" stroke="none"/>
      <path d="M10.2 -26.95 Q10.25 -26.9 10.1 -26.9 L9.4 -27.0 9.2 -26.95 8.5 -27.0 Q8.5 -26.95 8.4 -26.95 L7.95 -27.0 7.9 -27.0 5.65 -27.15 Q4.5 -27.25 4.1 -27.4 L3.95 -27.4 3.9 -27.45 3.95 -27.45 Q3.9 -27.45 3.85 -27.5 L3.8 -27.55 3.7 -27.55 3.7 -27.65 5.15 -27.65 6.45 -27.55 7.85 -27.45 8.3 -27.35 9.0 -27.25 9.65 -27.2 Q10.05 -27.15 10.2 -27.0 L10.2 -26.95" fill="#362612" fill-rule="evenodd" stroke="none"/>
    </g>
    <g id="sprite8" transform="matrix(1.0, 0.0, 0.0, 1.0, 37.45, 36.4)">
      <use ffdec:characterId="944" height="9.25" transform="matrix(7.0, 0.0, 0.0, 7.0, -37.45, -36.4)" width="8.75" xlink:href="#shape7"/>
    </g>
    <g id="shape7" transform="matrix(1.0, 0.0, 0.0, 1.0, 5.35, 5.2)">
      <path d="M0.65 -4.65 L0.75 -4.7 0.75 -4.75 0.95 -4.95 1.5 -4.6 1.75 -4.4 1.95 -4.25 2.05 -4.25 2.25 -4.2 Q2.4 -4.1 2.5 -4.05 L2.0 -3.55 2.2 -3.35 2.25 -3.35 Q2.15 -3.2 2.15 -2.9 L2.35 -2.55 2.3 -2.55 Q1.65 -3.1 0.75 -3.45 0.9 -3.5 0.9 -3.65 L0.8 -4.05 0.7 -4.55 0.65 -4.65 M2.6 -2.35 L2.55 -2.35 2.55 -2.4 2.6 -2.4 2.6 -2.35" fill="#d6b37e" fill-rule="evenodd" stroke="none"/>
      <path d="M-2.3 -1.4 Q-2.2 -1.95 -2.0 -2.5 -1.85 -2.9 -1.65 -3.15 L-1.6 -3.25 -1.35 -3.5 -1.25 -3.5 Q-1.05 -3.6 -0.85 -3.6 L-0.4 -3.6 Q0.45 -3.45 1.1 -3.15 L1.95 -2.65 2.15 -2.45 2.25 -2.4 2.25 -2.35 2.35 -2.15 2.45 -1.9 2.55 -1.4 2.5 -1.4 Q2.5 -1.45 2.5 -1.3 L2.15 -1.05 1.45 -0.35 Q0.95 0.0 0.1 0.45 L-0.2 0.3 -0.15 0.25 -0.3 0.35 -0.3 0.25 Q-0.4 0.3 -0.45 0.35 L-0.5 0.3 Q-0.75 0.0 -0.9 -0.05 L-1.35 -0.5 -1.65 -0.9 Q-2.0 -1.35 -2.3 -1.4 M-0.2 0.65 L-0.25 0.65 -0.2 0.65 M-4.9 1.35 L-4.8 1.0 -4.8 1.05 -4.5 1.05 Q-4.0 0.95 -3.75 0.4 L-3.55 -0.05 -3.45 -0.25 Q-3.3 -0.4 -3.35 -0.5 L-3.35 -0.55 Q-3.35 -0.65 -3.35 -0.6 L-3.55 -0.8 -3.6 -0.9 Q-3.45 -0.95 -3.25 -1.05 -3.05 -1.15 -2.95 -1.2 L-2.85 -1.2 Q-2.7 -1.2 -2.5 -1.1 -2.5 -0.95 -2.1 -0.85 L-1.95 -0.85 -1.9 -0.75 -1.85 -0.75 Q-1.8 -0.6 -1.45 -0.45 L-1.3 -0.25 Q-0.8 0.2 -0.85 0.25 L-0.8 0.3 -0.75 0.45 Q-0.8 0.5 -0.8 0.55 -1.0 0.75 -1.05 0.95 L-1.05 1.0 -0.7 0.8 -0.65 0.9 -0.65 1.1 -0.8 1.3 Q-0.65 1.3 -0.55 1.25 L-0.65 1.3 -0.6 1.5 -0.6 1.6 -0.75 1.95 Q-0.95 2.45 -1.1 2.6 -1.45 2.9 -2.05 3.55 -2.5 3.15 -3.6 2.45 L-3.85 2.3 Q-4.0 2.2 -4.1 2.15 -4.85 1.65 -4.85 1.35 L-4.9 1.35 M-3.0 3.65 L-3.0 3.6 -3.0 3.65" fill="#875a32" fill-rule="evenodd" stroke="none"/>
      <path d="M2.5 -4.05 L2.55 -4.05 2.6 -3.95 2.55 -3.7 2.5 -3.55 2.4 -3.4 2.3 -3.3 Q2.2 -3.2 2.2 -3.15 L2.3 -3.05 2.45 -3.2 2.55 -3.2 2.95 -2.25 3.1 -1.75 Q2.9 -2.05 2.6 -2.35 L2.6 -2.4 2.55 -2.4 2.55 -2.35 2.35 -2.55 2.15 -2.9 Q2.15 -3.2 2.25 -3.35 L2.2 -3.35 2.0 -3.55 2.5 -4.05 M0.75 -3.45 L-0.35 -3.85 -0.1 -4.1 0.3 -4.4 0.45 -4.5 0.55 -4.6 0.65 -4.65 0.7 -4.55 0.8 -4.05 0.9 -3.65 Q0.9 -3.5 0.75 -3.45" fill="#c67137" fill-rule="evenodd" stroke="none"/>
      <path d="M-2.2 -1.3 L-2.3 -1.35 -2.3 -1.4 Q-2.0 -1.35 -1.65 -0.9 L-1.35 -0.5 -1.75 -0.85 -1.75 -0.95 -1.8 -1.0 Q-1.9 -1.15 -2.2 -1.3 M2.25 -2.4 Q2.6 -2.05 2.9 -1.55 3.0 -1.35 3.05 -1.15 L3.0 -1.1 3.05 -1.05 3.05 -0.8 Q3.05 -0.55 3.0 -0.3 L2.95 -0.25 Q2.7 0.35 1.8 0.65 1.65 0.75 1.35 0.75 0.8 0.8 0.3 1.0 L-0.05 1.0 -0.1 1.05 -0.3 1.05 -0.3 1.0 -0.25 0.95 Q-0.1 0.75 -0.1 0.6 L-0.1 0.55 -0.2 0.65 -0.25 0.65 -0.35 0.75 -0.4 0.8 -0.5 0.6 -0.45 0.6 -0.4 0.55 -0.3 0.35 -0.15 0.25 -0.2 0.3 0.1 0.45 Q0.95 0.0 1.45 -0.35 L2.15 -1.05 2.5 -1.3 Q2.5 -1.45 2.5 -1.4 L2.55 -1.4 2.45 -1.9 2.35 -2.15 2.25 -2.35 2.25 -2.4 M-0.45 0.35 L-0.5 0.35 -0.55 0.4 -0.6 0.3 -0.65 0.25 -0.7 0.1 -0.85 0.0 -0.9 -0.05 Q-0.75 0.0 -0.5 0.3 L-0.45 0.35 M-2.5 -1.1 L-2.45 -1.05 -2.4 -1.05 Q-2.2 -0.95 -2.0 -0.85 L-1.95 -0.85 -2.1 -0.85 Q-2.5 -0.95 -2.5 -1.1 M-1.85 -0.75 Q-1.75 -0.65 -1.8 -0.75 L-1.45 -0.45 Q-1.8 -0.6 -1.85 -0.75 M-0.8 0.3 L-0.7 0.5 -0.75 0.55 -0.8 0.55 Q-0.8 0.5 -0.75 0.45 L-0.8 0.3 M-0.7 0.8 L-0.6 0.7 -0.5 0.85 -0.5 0.9 -0.55 0.95 -0.55 1.0 -0.65 1.1 -0.65 0.9 -0.7 0.8 M-0.55 1.25 L-0.5 1.2 -0.45 1.25 -0.45 1.45 -0.5 1.75 -0.55 2.1 Q-0.55 2.45 -1.15 3.1 -1.8 3.75 -2.15 3.75 L-3.0 3.65 -3.0 3.6 Q-3.25 3.35 -3.8 2.9 L-5.0 1.9 -5.05 1.7 -5.05 1.65 -4.9 1.35 -4.85 1.35 Q-4.85 1.65 -4.1 2.15 L-4.05 2.15 -4.25 2.05 -4.65 1.8 -4.7 1.75 -3.95 2.3 Q-3.7 2.45 -2.55 3.55 L-2.45 3.45 Q-3.2 2.75 -3.6 2.45 -2.5 3.15 -2.05 3.55 -1.45 2.9 -1.1 2.6 -0.95 2.45 -0.75 1.95 L-0.6 1.6 -0.6 1.5 -0.65 1.3 -0.55 1.25" fill="#6d3227" fill-rule="evenodd" stroke="none"/>
      <path d="M2.5 -4.05 Q2.4 -4.1 2.25 -4.2 L2.05 -4.25 1.95 -4.25 1.75 -4.4 1.5 -4.6 0.95 -4.95 0.75 -4.75 0.75 -4.7 0.65 -4.65 0.55 -4.6 0.45 -4.5 0.3 -4.4 -0.1 -4.1 -0.35 -3.85 0.75 -3.45 Q1.65 -3.1 2.3 -2.55 L2.35 -2.55 2.55 -2.35 2.6 -2.35 Q2.9 -2.05 3.1 -1.75 L2.95 -2.25 2.55 -3.2 2.45 -3.2 2.3 -3.05 2.2 -3.15 Q2.2 -3.2 2.3 -3.3 L2.4 -3.4 2.5 -3.55 2.55 -3.7 2.6 -3.95 2.55 -4.05 2.5 -4.05 M-2.6 -1.45 L-2.5 -1.65 Q-2.4 -1.85 -2.4 -2.05 L-2.4 -2.1 -2.3 -2.35 -2.3 -2.6 -2.0 -3.25 -1.45 -3.75 -1.25 -3.8 -1.2 -3.85 Q-0.95 -3.95 -0.85 -3.9 L-0.65 -3.95 Q-0.55 -4.15 0.0 -4.55 L0.4 -4.8 Q0.9 -5.1 1.05 -5.2 L1.45 -4.95 1.9 -4.55 2.05 -4.5 2.4 -4.4 2.5 -4.35 2.7 -4.1 2.8 -4.0 2.8 -3.65 2.75 -3.2 Q3.25 -2.4 3.3 -2.2 3.35 -2.15 3.35 -2.05 L3.35 -0.95 3.4 -0.55 Q3.4 -0.3 3.2 0.1 3.0 0.35 2.9 0.4 2.75 0.6 2.25 0.8 L1.85 0.9 1.1 1.1 1.15 1.05 Q1.8 0.85 2.05 0.7 L2.05 0.65 1.15 0.85 0.5 0.95 0.3 1.0 Q0.8 0.8 1.35 0.75 1.65 0.75 1.8 0.65 2.7 0.35 2.95 -0.25 L3.0 -0.3 Q3.05 -0.55 3.05 -0.8 L3.05 -1.05 3.0 -1.1 3.05 -1.15 Q3.0 -1.35 2.9 -1.55 2.6 -2.05 2.25 -2.4 L2.15 -2.45 1.95 -2.65 1.1 -3.15 Q0.45 -3.45 -0.4 -3.6 L-0.85 -3.6 Q-1.05 -3.6 -1.25 -3.5 L-1.35 -3.5 -1.6 -3.25 -1.65 -3.15 Q-1.85 -2.9 -2.0 -2.5 -2.2 -1.95 -2.3 -1.4 L-2.3 -1.35 -2.2 -1.3 -2.25 -1.3 -2.45 -1.4 -2.6 -1.45 M2.6 -3.2 L2.6 -3.15 2.65 -3.1 Q2.6 -3.15 2.6 -3.2 M3.15 -1.15 L3.15 -1.15 M2.7 0.25 L2.8 0.2 2.65 0.3 2.7 0.25 M-1.75 -0.95 L-1.8 -1.0 -1.75 -0.95 M-2.4 -1.55 L-2.35 -1.6 -2.4 -1.6 -2.4 -1.55" fill="#101010" fill-rule="evenodd" stroke="none"/>
      <path d="M1.1 1.1 Q0.45 1.25 0.05 1.25 L-0.2 1.25 -0.15 1.4 Q0.0 1.65 0.0 1.8 0.0 1.95 -0.2 2.35 -0.4 2.7 -0.6 2.8 L-0.9 3.2 -1.45 3.95 Q-1.6 4.05 -2.3 4.05 L-2.75 4.0 Q-2.95 3.95 -3.0 3.85 L-3.5 3.5 -4.15 3.0 Q-4.6 2.9 -5.0 2.35 -5.35 1.9 -5.35 1.7 -5.35 1.6 -5.25 1.3 -5.1 0.95 -4.95 0.85 L-4.75 0.75 -4.55 0.9 Q-4.1 0.8 -3.85 0.4 L-3.65 0.0 -3.55 -0.3 -3.6 -0.25 -3.65 -0.25 -3.55 -0.35 -3.55 -0.4 -3.6 -0.4 -3.6 -0.45 -4.0 -0.95 -3.95 -1.05 Q-3.9 -1.15 -3.75 -1.15 L-3.3 -1.35 -2.8 -1.5 -2.75 -1.5 -2.6 -1.45 -2.45 -1.4 -2.25 -1.3 -2.2 -1.3 Q-1.9 -1.15 -1.8 -1.0 L-1.75 -0.95 -1.75 -0.85 -1.35 -0.5 -0.9 -0.05 -0.85 0.0 -0.7 0.1 -0.65 0.25 -0.6 0.3 -0.55 0.4 -0.5 0.35 -0.45 0.35 Q-0.4 0.3 -0.3 0.25 L-0.3 0.35 -0.4 0.55 -0.45 0.6 -0.5 0.6 -0.4 0.8 -0.35 0.75 -0.25 0.65 -0.2 0.65 -0.1 0.55 -0.1 0.6 Q-0.1 0.75 -0.25 0.95 L-0.3 1.0 -0.3 1.05 -0.1 1.05 -0.05 1.0 0.3 1.0 0.5 0.95 1.15 0.85 2.05 0.65 2.05 0.7 Q1.8 0.85 1.15 1.05 L1.1 1.1 M-2.5 -1.1 Q-2.7 -1.2 -2.85 -1.2 L-2.95 -1.2 Q-3.05 -1.15 -3.25 -1.05 -3.45 -0.95 -3.6 -0.9 L-3.55 -0.8 -3.35 -0.6 Q-3.35 -0.65 -3.35 -0.55 L-3.35 -0.5 Q-3.3 -0.4 -3.45 -0.25 L-3.55 -0.05 -3.75 0.4 Q-4.0 0.95 -4.5 1.05 L-4.8 1.05 -4.8 1.0 -4.9 1.35 -5.05 1.65 -5.05 1.7 -5.0 1.9 -3.8 2.9 Q-3.25 3.35 -3.0 3.6 L-3.0 3.65 -2.15 3.75 Q-1.8 3.75 -1.15 3.1 -0.55 2.45 -0.55 2.1 L-0.5 1.75 -0.45 1.45 -0.45 1.25 -0.5 1.2 -0.55 1.25 Q-0.65 1.3 -0.8 1.3 L-0.65 1.1 -0.55 1.0 -0.55 0.95 -0.5 0.9 -0.5 0.85 -0.6 0.7 -0.7 0.8 -1.05 1.0 -1.05 0.95 Q-1.0 0.75 -0.8 0.55 L-0.75 0.55 -0.7 0.5 -0.8 0.3 -0.85 0.25 Q-0.8 0.2 -1.3 -0.25 L-1.45 -0.45 -1.8 -0.75 Q-1.75 -0.65 -1.85 -0.75 L-1.9 -0.75 -1.95 -0.85 -2.0 -0.85 Q-2.2 -0.95 -2.4 -1.05 L-2.45 -1.05 -2.5 -1.1 M-4.1 2.15 Q-4.0 2.2 -3.85 2.3 L-3.6 2.45 Q-3.2 2.75 -2.45 3.45 L-2.55 3.55 Q-3.7 2.45 -3.95 2.3 L-4.7 1.75 -4.65 1.8 -4.25 2.05 -4.05 2.15 -4.1 2.15 M-0.25 1.85 L-0.25 1.85" fill="#000000" fill-rule="evenodd" stroke="none"/>
    </g>
  </defs>
</svg>
