<?xml version="1.0" encoding="UTF-8" standalone="no"?>
<svg xmlns:ffdec="https://www.free-decompiler.com/flash" xmlns:xlink="http://www.w3.org/1999/xlink" ffdec:objectType="frame" height="101.85px" width="138.6px" xmlns="http://www.w3.org/2000/svg">
  <g transform="matrix(1.0, 0.0, 0.0, 1.0, 16.8, 74.9)">
    <use ffdec:characterId="599" height="14.55" transform="matrix(7.0, 0.0, 0.0, 7.0, -16.8, -74.9)" width="19.8" xlink:href="#shape0"/>
  </g>
  <defs>
    <g id="shape0" transform="matrix(1.0, 0.0, 0.0, 1.0, 2.4, 10.7)">
      <path d="M2.4 -7.6 L2.4 -7.7 2.65 -8.05 2.8 -8.3 2.7 -8.15 2.45 -7.7 2.4 -7.6" fill="#ce9306" fill-rule="evenodd" stroke="none"/>
      <path d="M8.1 -7.25 L8.15 -7.25 8.15 -7.3 Q8.15 -7.55 7.5 -7.5 6.8 -7.4 6.05 -7.0 5.0 -6.35 4.5 -5.35 L4.55 -5.5 4.05 -5.15 Q3.15 -4.55 2.8 -4.15 L2.65 -4.55 Q2.35 -5.65 2.3 -6.6 2.4 -6.85 2.55 -7.2 L2.55 -7.25 3.05 -8.1 3.45 -8.8 3.7 -9.35 3.65 -9.25 3.95 -9.15 Q4.55 -9.0 5.5 -9.0 8.35 -9.0 11.05 -9.4 12.4 -9.6 13.1 -9.8 L13.0 -9.8 Q12.95 -9.55 13.0 -9.25 13.1 -8.85 13.05 -8.1 L13.0 -7.3 13.15 -4.8 12.7 -3.8 12.35 -3.1 12.3 -3.15 Q11.95 -3.15 11.15 -2.85 L10.8 -2.7 10.75 -2.8 10.5 -3.45 Q10.3 -3.95 10.1 -4.3 9.95 -4.65 9.3 -5.65 L9.25 -5.7 Q8.65 -6.85 8.3 -7.25 L8.1 -7.25 M3.85 -3.35 L4.0 -3.4 4.0 -3.35 4.1 -3.35 3.85 -3.35 M3.3 -9.1 L3.5 -9.35 3.3 -9.1 M14.1 -8.3 L14.15 -7.95 14.15 -7.85 14.15 -7.95 14.1 -8.3" fill="#ac8228" fill-rule="evenodd" stroke="none"/>
      <path d="M1.55 -2.3 L1.55 -1.0 Q1.4 -1.25 0.95 -1.8 L0.8 -2.05 0.3 -2.8 0.3 -3.05 1.55 -3.1 1.55 -2.3" fill="#613916" fill-rule="evenodd" stroke="none"/>
      <path d="M8.1 -7.25 L7.95 -7.25 7.85 -7.3 Q7.5 -7.15 6.6 -6.4 L6.3 -6.2 6.05 -5.9 5.15 -4.8 5.1 -4.8 5.1 -4.55 5.15 -4.4 5.2 -4.05 5.35 -3.5 5.2 -3.45 4.95 -3.4 4.3 -3.35 4.1 -3.35 4.0 -3.35 4.0 -3.4 3.85 -3.35 3.25 -3.35 3.05 -3.4 3.0 -3.4 2.8 -4.15 Q3.15 -4.55 4.05 -5.15 L4.55 -5.5 4.5 -5.35 Q5.0 -6.35 6.05 -7.0 6.8 -7.4 7.5 -7.5 8.15 -7.55 8.15 -7.3 L8.15 -7.25 8.1 -7.25 M12.35 -3.1 L12.7 -3.8 13.15 -4.8 13.0 -7.3 13.05 -8.1 Q13.1 -8.85 13.0 -9.25 12.95 -9.55 13.0 -9.8 L13.1 -9.8 Q12.4 -9.6 11.05 -9.4 8.35 -9.0 5.5 -9.0 4.55 -9.0 3.95 -9.15 L3.65 -9.25 3.7 -9.35 3.75 -9.45 3.75 -9.5 Q3.7 -9.6 3.5 -9.35 L3.5 -9.4 Q5.2 -10.75 8.55 -10.7 10.0 -10.7 10.1 -10.7 L12.2 -10.65 Q13.05 -10.6 13.55 -10.35 L13.65 -10.1 13.65 -9.95 Q13.65 -9.8 13.8 -9.25 L13.85 -9.15 14.0 -8.7 14.1 -8.3 14.15 -7.95 14.15 -7.85 14.15 -7.6 Q14.15 -6.85 14.05 -5.55 13.95 -4.7 13.9 -3.95 L13.8 -3.1 13.7 -3.1 13.55 -2.85 Q13.35 -2.55 13.35 -2.5 L13.45 -1.75 13.45 -1.5 13.4 -1.3 13.35 -0.95 Q13.3 -0.75 13.15 -0.4 L13.1 -0.45 13.05 -0.4 13.05 -0.5 Q13.05 -0.55 13.05 -0.6 L13.0 -0.7 13.0 -0.8 12.9 -1.15 12.85 -1.4 12.65 -2.0 12.5 -2.6 12.4 -3.05 12.35 -3.1" fill="#aa542b" fill-rule="evenodd" stroke="none"/>
      <path d="M2.85 0.0 L2.8 0.0 1.65 -0.7 1.6 -0.75 1.6 -0.8 1.8 -0.8 1.85 -0.95 1.9 -1.0 1.85 -1.0 1.85 -1.1 1.9 -1.2 Q1.85 -1.7 1.9 -2.4 L1.95 -3.3 2.2 -3.2 Q2.85 -3.0 4.3 -3.0 L4.55 -3.05 3.85 -2.7 Q2.5 -2.0 2.5 -1.7 L2.6 -1.0 Q2.6 -0.35 2.85 0.0 M-0.95 2.15 L-1.25 2.1 -1.4 2.05 Q-1.8 1.95 -1.9 1.9 -1.95 1.85 -2.0 1.8 L-2.0 1.75 Q-2.0 1.6 -1.9 1.5 -1.55 1.15 -1.25 0.9 -0.85 0.7 -0.15 0.45 0.6 0.25 1.4 0.1 L1.55 0.1 1.6 0.05 1.65 0.05 1.65 0.0 1.8 0.1 2.2 0.25 Q2.3 0.4 2.75 0.65 L3.0 0.8 3.15 0.9 2.8 0.9 2.0 1.0 Q1.25 1.1 0.5 1.3 -0.3 1.5 -0.7 1.7 L-0.8 1.75 -0.85 1.8 Q-0.95 1.9 -0.95 2.0 L-0.95 2.15 M2.15 0.1 L2.05 0.05 Q1.8 -0.1 1.65 -0.2 L1.65 -0.35 Q1.85 -0.25 2.05 -0.15 L2.25 -0.05 Q2.15 0.0 2.15 0.1 M15.25 3.5 L13.65 3.5 Q13.2 3.5 12.45 3.3 L11.7 3.05 11.5 3.0 11.0 2.7 10.85 2.65 10.85 2.45 Q10.85 2.05 10.75 1.75 L10.75 1.65 10.65 1.15 Q10.65 0.8 10.2 0.1 L10.15 0.05 Q10.05 -0.2 10.05 -0.3 L10.05 -0.55 10.15 -1.9 10.85 -2.3 10.9 -2.3 10.95 -2.35 11.45 -2.6 Q11.9 -2.75 12.3 -2.8 L12.3 -2.85 12.35 -2.7 Q12.35 -2.35 12.5 -1.75 L12.55 -1.6 12.75 -0.9 12.95 -0.25 Q11.45 0.2 11.45 1.3 L11.45 1.45 Q11.55 1.55 11.75 1.55 11.9 1.55 12.25 1.15 L12.45 0.9 12.8 0.75 Q13.2 0.45 13.8 0.35 13.75 0.4 13.75 0.5 L13.75 0.65 13.8 0.7 13.0 0.85 12.95 0.85 12.8 1.0 12.95 0.95 Q13.45 0.85 14.0 0.8 L14.35 0.8 Q14.35 0.9 14.7 1.15 15.1 1.5 15.55 1.5 L15.5 1.4 15.55 1.7 Q15.55 2.25 15.5 2.7 15.45 3.3 15.25 3.5 M14.9 -0.05 L14.8 0.05 14.85 0.05 14.9 -0.05 M15.65 3.5 L15.7 3.45 15.85 3.45 15.65 3.5 M16.7 3.25 L16.85 3.25 17.0 3.05 17.0 3.2 16.7 3.25" fill="#875a32" fill-rule="evenodd" stroke="none"/>
      <path d="M2.85 0.0 Q2.6 -0.35 2.6 -1.0 L2.5 -1.7 Q2.5 -2.0 3.85 -2.7 L4.55 -3.05 Q5.2 -3.05 5.85 -3.3 L5.95 -3.35 Q5.95 -3.25 6.0 -3.1 L6.05 -3.05 6.25 -2.1 Q6.5 -0.45 6.5 -0.15 L6.45 0.1 6.4 0.15 6.3 0.35 6.1 0.55 Q5.5 0.9 5.05 1.25 5.0 1.3 4.85 1.35 L4.55 1.5 4.55 1.6 4.7 1.6 Q4.85 1.6 5.1 1.5 L5.9 1.1 Q5.95 1.25 6.0 1.45 L6.05 1.85 6.05 2.05 6.0 2.05 5.2 2.25 4.5 2.4 3.7 2.45 3.65 2.45 2.9 2.5 1.15 2.5 0.85 2.45 -0.4 2.25 -0.75 2.2 -0.85 2.2 -0.9 2.15 -0.95 2.15 -0.95 2.0 Q-0.95 1.9 -0.85 1.8 L-0.8 1.75 -0.7 1.7 Q-0.3 1.5 0.5 1.3 1.25 1.1 2.0 1.0 L2.8 0.9 3.15 0.9 3.0 0.8 2.75 0.65 Q2.3 0.4 2.2 0.25 L2.3 0.3 2.45 0.4 2.55 0.4 2.5 0.35 2.15 0.1 Q2.15 0.0 2.25 -0.05 L2.55 0.1 2.9 0.25 Q3.0 0.3 3.45 0.6 L3.65 0.8 3.75 0.85 3.9 0.95 4.3 1.15 3.75 0.6 2.85 0.0 M15.25 3.5 Q15.45 3.3 15.5 2.7 15.55 2.25 15.55 1.7 L15.5 1.4 15.55 1.5 Q15.1 1.5 14.7 1.15 14.35 0.9 14.35 0.8 L14.0 0.8 14.85 0.8 14.9 0.9 14.95 0.85 15.2 0.9 15.35 1.0 15.5 1.15 Q16.05 1.45 16.4 1.9 L16.9 2.75 16.95 2.95 17.0 3.05 16.85 3.25 16.7 3.25 16.5 3.3 16.4 3.35 16.25 3.35 15.85 3.45 15.7 3.45 15.65 3.5 15.25 3.5 M13.8 0.7 L13.75 0.65 13.75 0.5 Q13.75 0.4 13.8 0.35 L14.75 0.25 Q14.85 0.45 14.85 0.6 L14.85 0.65 14.05 0.7 13.8 0.7 M12.45 0.9 L12.25 1.15 Q11.9 1.55 11.75 1.55 11.55 1.55 11.45 1.45 L11.45 1.3 Q11.45 0.2 12.95 -0.25 L13.0 0.05 13.35 -0.1 13.5 -0.35 13.6 -0.7 13.6 -0.85 13.7 -1.8 13.75 -1.95 13.7 -2.75 13.75 -2.75 Q14.4 -2.65 15.25 -2.15 L15.8 -1.8 Q15.8 -1.15 15.3 -0.5 L15.2 -0.4 14.9 -0.05 14.85 0.05 14.8 0.05 14.05 0.05 Q13.45 0.1 12.7 0.6 12.0 1.1 11.95 1.45 12.05 1.2 12.4 0.95 L12.45 0.9" fill="#6d3227" fill-rule="evenodd" stroke="none"/>
      <path d="M4.1 -3.35 L4.3 -3.35 4.95 -3.4 5.2 -3.45 5.35 -3.5 5.2 -4.05 5.15 -4.4 5.1 -4.55 5.1 -4.8 5.15 -4.8 6.05 -5.9 6.3 -6.2 6.6 -6.4 Q7.5 -7.15 7.85 -7.3 L7.95 -7.25 8.1 -7.25 8.3 -7.25 Q8.65 -6.85 9.25 -5.7 L9.3 -5.65 Q9.95 -4.65 10.1 -4.3 10.3 -3.95 10.5 -3.45 L10.75 -2.8 10.8 -2.7 11.15 -2.85 Q11.95 -3.15 12.3 -3.15 L12.35 -3.1 12.4 -3.05 12.5 -2.6 12.65 -2.0 12.85 -1.4 12.9 -1.15 13.0 -0.8 13.0 -0.7 13.05 -0.6 Q13.05 -0.55 13.05 -0.5 L13.05 -0.4 13.1 -0.45 13.15 -0.4 Q13.3 -0.75 13.35 -0.95 L13.4 -1.3 13.45 -1.5 13.45 -1.75 13.35 -2.5 Q13.35 -2.55 13.55 -2.85 L13.7 -3.1 13.8 -3.1 13.9 -3.95 Q13.95 -4.7 14.05 -5.55 14.15 -6.85 14.15 -7.6 L14.15 -7.85 14.15 -7.95 14.1 -8.3 14.0 -8.7 13.85 -9.15 13.8 -9.25 Q13.65 -9.8 13.65 -9.95 L13.65 -10.1 14.1 -9.2 14.3 -8.85 14.45 -8.35 14.45 -8.05 14.55 -7.35 Q14.55 -6.15 14.45 -5.0 14.4 -3.5 14.3 -3.0 L15.35 -2.4 16.2 -1.95 16.2 -1.9 16.15 -1.75 16.15 -1.65 15.95 -1.1 Q15.85 -0.75 15.5 -0.25 L15.2 0.25 15.15 0.25 15.15 0.3 15.2 0.35 15.15 0.35 15.2 0.45 15.25 0.6 15.25 0.65 15.4 0.7 Q15.75 0.9 16.2 1.25 17.35 2.2 17.4 3.2 L17.35 3.3 16.9 3.55 Q16.3 3.7 15.0 3.8 L14.35 3.85 13.7 3.85 Q13.1 3.8 11.8 3.4 10.45 2.95 10.45 2.8 L10.5 2.65 10.45 2.55 10.45 1.8 10.5 1.8 10.5 1.6 Q10.5 1.3 10.15 0.5 9.95 0.0 9.8 -0.2 L9.8 -0.6 Q9.8 -1.1 10.0 -2.25 L10.4 -2.5 Q10.25 -2.7 10.0 -3.35 L9.4 -4.85 Q9.15 -5.35 8.5 -6.35 L8.1 -6.95 7.9 -7.05 7.4 -6.65 6.6 -6.0 5.35 -4.85 Q5.6 -4.2 5.6 -3.6 L5.85 -3.65 5.95 -3.7 6.05 -3.7 6.15 -3.45 6.4 -2.85 6.55 -2.15 Q6.7 -1.4 6.7 -1.25 L6.85 -0.25 6.85 0.2 6.45 0.7 6.35 0.75 6.25 0.9 Q6.2 0.85 6.2 1.0 L6.2 1.3 6.25 1.9 6.25 2.1 6.15 2.3 6.0 2.4 6.0 2.35 5.05 2.6 Q3.5 2.9 2.6 2.9 1.5 2.9 -0.3 2.55 -2.15 2.25 -2.3 1.9 L-2.3 1.95 Q-2.35 2.0 -2.35 1.85 L-2.35 1.8 -2.4 1.7 Q-2.4 1.2 -1.25 0.55 -0.1 -0.05 1.15 -0.1 L1.25 -0.1 1.3 -0.2 1.3 -0.3 1.4 -0.4 1.45 -0.5 1.35 -0.65 1.3 -0.8 1.3 -0.9 1.35 -0.9 1.15 -1.15 0.75 -1.55 0.65 -1.7 Q0.0 -2.75 0.0 -2.8 0.0 -3.1 0.1 -3.25 L0.95 -3.25 1.5 -3.3 Q1.6 -3.35 1.6 -3.45 L1.6 -3.5 Q1.65 -3.6 1.75 -3.6 L2.1 -3.55 2.35 -3.55 Q2.45 -3.45 2.5 -3.45 L2.55 -3.45 2.6 -3.5 2.6 -3.55 Q2.6 -3.7 2.5 -3.8 2.45 -4.05 2.15 -5.15 L2.1 -5.8 Q2.0 -6.35 2.0 -6.7 2.0 -6.9 2.4 -7.6 L2.45 -7.7 2.7 -8.15 2.8 -8.3 3.3 -9.1 3.5 -9.35 Q3.7 -9.6 3.75 -9.5 L3.75 -9.45 3.7 -9.35 3.45 -8.8 3.05 -8.1 2.55 -7.25 2.55 -7.2 Q2.4 -6.85 2.3 -6.6 2.35 -5.65 2.65 -4.55 L2.8 -4.15 3.0 -3.4 3.05 -3.4 3.25 -3.35 3.85 -3.35 4.1 -3.35 M1.55 -2.3 L1.55 -3.1 0.3 -3.05 0.3 -2.8 0.8 -2.05 0.95 -1.8 Q1.4 -1.25 1.55 -1.0 L1.55 -2.3 M4.55 -3.05 L4.3 -3.0 Q2.85 -3.0 2.2 -3.2 L1.95 -3.3 1.9 -2.4 Q1.85 -1.7 1.9 -1.2 L1.85 -1.1 1.85 -1.0 1.9 -1.0 1.85 -0.95 1.8 -0.8 1.6 -0.8 1.6 -0.75 1.65 -0.7 2.8 0.0 2.85 0.0 3.75 0.6 4.3 1.15 3.9 0.95 3.75 0.85 3.65 0.8 3.45 0.6 Q3.0 0.3 2.9 0.25 L2.55 0.1 2.25 -0.05 2.05 -0.15 Q1.85 -0.25 1.65 -0.35 L1.65 -0.2 Q1.8 -0.1 2.05 0.05 L2.15 0.1 2.5 0.35 2.55 0.4 2.45 0.4 2.3 0.3 2.2 0.25 1.8 0.1 1.65 0.0 1.65 0.05 1.6 0.05 1.55 0.1 1.4 0.1 Q0.6 0.25 -0.15 0.45 -0.85 0.7 -1.25 0.9 -1.55 1.15 -1.9 1.5 -2.0 1.6 -2.0 1.75 L-2.0 1.8 Q-1.95 1.85 -1.9 1.9 -1.8 1.95 -1.4 2.05 L-1.25 2.1 -0.95 2.15 -0.9 2.15 -0.85 2.2 -0.75 2.2 -0.4 2.25 0.85 2.45 1.15 2.5 2.9 2.5 3.65 2.45 3.7 2.45 4.5 2.4 5.2 2.25 6.0 2.05 6.05 2.05 6.05 1.85 6.0 1.45 Q5.95 1.25 5.9 1.1 L5.1 1.5 Q4.85 1.6 4.7 1.6 L4.55 1.6 4.55 1.5 4.85 1.35 Q5.0 1.3 5.05 1.25 5.5 0.9 6.1 0.55 L6.3 0.35 6.4 0.15 6.45 0.1 6.5 -0.15 Q6.5 -0.45 6.25 -2.1 L6.05 -3.05 6.0 -3.1 Q5.95 -3.25 5.95 -3.35 L5.85 -3.3 Q5.2 -3.05 4.55 -3.05 M12.95 -0.25 L12.75 -0.9 12.55 -1.6 12.5 -1.75 Q12.35 -2.35 12.35 -2.7 L12.3 -2.85 12.3 -2.8 Q11.9 -2.75 11.45 -2.6 L10.95 -2.35 10.9 -2.3 10.85 -2.3 10.15 -1.9 10.05 -0.55 10.05 -0.3 Q10.05 -0.2 10.15 0.05 L10.2 0.1 Q10.65 0.8 10.65 1.15 L10.75 1.65 10.75 1.75 Q10.85 2.05 10.85 2.45 L10.85 2.65 11.0 2.7 11.5 3.0 11.7 3.05 12.45 3.3 Q13.2 3.5 13.65 3.5 L15.25 3.5 15.65 3.5 15.85 3.45 16.25 3.35 16.4 3.35 16.5 3.3 16.7 3.25 17.0 3.2 17.0 3.05 16.95 2.95 16.9 2.75 16.4 1.9 Q16.05 1.45 15.5 1.15 L15.35 1.0 15.2 0.9 14.95 0.85 14.9 0.9 14.85 0.8 14.0 0.8 Q13.45 0.85 12.95 0.95 L12.8 1.0 12.95 0.85 13.0 0.85 13.8 0.7 14.05 0.7 14.85 0.65 14.85 0.6 Q14.85 0.45 14.75 0.25 L13.8 0.35 Q13.2 0.45 12.8 0.75 L12.45 0.9 12.4 0.95 Q12.05 1.2 11.95 1.45 12.0 1.1 12.7 0.6 13.45 0.1 14.05 0.05 L14.8 0.05 14.9 -0.05 15.2 -0.4 15.3 -0.5 Q15.8 -1.15 15.8 -1.8 L15.25 -2.15 Q14.4 -2.65 13.75 -2.75 L13.7 -2.75 13.75 -1.95 13.7 -1.8 13.6 -0.85 13.6 -0.7 13.5 -0.35 13.35 -0.1 13.0 0.05 12.95 -0.25 M9.75 -1.95 L9.8 -2.05 9.8 -1.9 9.75 -1.95 M15.0 0.7 L14.95 0.65 14.95 0.7 15.0 0.7" fill="#101010" fill-rule="evenodd" stroke="none"/>
    </g>
  </defs>
</svg>
