<?xml version="1.0" encoding="UTF-8" standalone="no"?>
<svg xmlns:ffdec="https://www.free-decompiler.com/flash" xmlns:xlink="http://www.w3.org/1999/xlink" ffdec:objectType="frame" height="116.9px" width="181.3px" xmlns="http://www.w3.org/2000/svg">
  <g transform="matrix(1.0, 0.0, 0.0, 1.0, 59.15, 89.95)">
    <use ffdec:characterId="938" height="16.7" transform="matrix(7.0, 0.0, 0.0, 7.0, -59.15, -89.95)" width="25.9" xlink:href="#shape0"/>
  </g>
  <defs>
    <g id="shape0" transform="matrix(1.0, 0.0, 0.0, 1.0, 8.45, 12.85)">
      <path d="M2.65 -12.5 L2.7 -12.45 3.2 -11.8 Q3.5 -11.35 3.75 -11.2 L3.9 -11.1 Q3.95 -10.95 4.2 -10.75 L4.65 -10.4 Q4.95 -10.2 5.8 -10.0 6.55 -9.85 7.0 -9.85 L8.55 -9.95 9.35 -10.15 10.15 -10.3 10.6 -10.45 10.85 -10.55 Q12.05 -10.75 12.7 -10.95 12.7 -10.75 12.8 -10.4 12.9 -10.0 12.95 -9.25 L12.95 -8.45 13.35 -6.3 13.3 -6.3 13.25 -5.85 13.2 -4.25 13.05 -3.25 12.95 -3.1 12.9 -3.15 Q12.6 -3.15 11.75 -2.85 L11.35 -2.7 11.35 -2.8 11.15 -3.45 11.1 -3.55 11.05 -3.55 10.95 -3.95 10.75 -4.4 10.75 -4.45 Q10.45 -5.0 10.35 -5.35 10.2 -5.7 9.45 -6.7 L9.4 -6.7 8.85 -7.5 Q8.75 -7.6 8.65 -7.8 L8.65 -7.85 8.25 -8.3 8.2 -8.3 8.15 -8.35 8.1 -8.35 Q8.05 -8.5 7.9 -8.5 L7.95 -8.45 7.85 -8.5 7.6 -8.65 7.35 -8.75 Q7.1 -8.9 6.85 -8.9 L6.75 -9.0 6.3 -9.15 Q5.75 -9.3 5.5 -9.4 5.35 -9.5 4.55 -9.7 3.7 -9.95 3.6 -10.0 1.8 -10.45 1.6 -10.3 L1.1 -10.4 0.0 -10.45 -0.1 -10.45 -0.75 -10.4 -0.8 -10.35 -1.05 -10.3 Q-1.15 -10.25 -1.2 -10.15 L-1.2 -10.1 -0.95 -10.15 -0.95 -10.1 -0.9 -10.05 -0.85 -9.85 -0.85 -9.8 -0.8 -9.55 -0.8 -9.3 -0.85 -9.25 -0.8 -9.2 -1.0 -9.1 -1.15 -9.05 -1.8 -9.0 -2.25 -9.0 -2.65 -9.05 -3.1 -9.05 -3.1 -9.1 -3.3 -9.1 -3.3 -9.15 -3.45 -9.15 -3.75 -9.2 -3.8 -9.2 -3.8 -9.4 -3.85 -9.4 -3.9 -9.55 -4.0 -10.1 -4.05 -10.25 Q-4.1 -10.85 -4.2 -11.25 L-4.2 -11.35 -4.25 -11.6 -4.25 -11.7 -2.6 -12.1 -1.75 -12.25 -1.15 -12.3 -1.05 -12.35 -0.35 -12.35 0.75 -12.45 0.9 -12.45 1.35 -12.5 2.65 -12.5 M14.05 -9.05 L14.05 -9.15 13.95 -9.45 14.0 -9.45 14.05 -9.1 14.05 -9.05 M13.05 -4.8 L12.95 -4.6 13.05 -4.6 13.0 -4.65 13.05 -4.8" fill="#ac8228" fill-rule="evenodd" stroke="none"/>
      <path d="M-5.1 -7.4 L-5.8 -8.45 -5.8 -8.7 -4.55 -8.75 -4.55 -7.4 -4.5 -7.15 -4.55 -6.95 -4.55 -6.6 Q-4.7 -6.9 -5.1 -7.4" fill="#613916" fill-rule="evenodd" stroke="none"/>
      <path d="M6.35 -12.6 L6.65 -12.6 8.4 -12.35 8.9 -12.2 9.45 -12.05 9.85 -12.0 Q10.2 -11.95 10.4 -11.85 L10.45 -11.85 11.85 -11.8 Q12.45 -11.8 12.9 -11.65 L12.9 -11.75 Q12.9 -12.0 13.1 -12.0 13.25 -12.05 13.25 -11.9 L13.25 -11.55 13.2 -11.5 13.35 -11.3 13.3 -11.3 13.3 -11.15 Q13.35 -10.95 13.6 -10.4 L13.65 -10.3 13.85 -9.85 13.95 -9.45 14.05 -9.15 14.05 -9.05 14.1 -9.0 14.1 -8.85 14.15 -8.75 Q14.2 -8.0 14.2 -6.65 14.2 -5.8 14.3 -5.0 L14.25 -4.6 14.3 -4.6 Q14.25 -4.35 14.25 -3.85 L14.25 -3.55 Q14.3 -3.35 14.35 -3.1 L14.15 -2.85 Q13.9 -2.55 13.9 -2.5 L13.95 -1.75 13.95 -1.55 13.9 -1.5 13.85 -1.3 13.8 -0.95 Q13.7 -0.75 13.5 -0.4 L13.45 -0.45 13.45 -0.5 13.4 -0.6 13.4 -0.8 13.35 -1.15 13.3 -1.4 13.2 -2.0 13.05 -2.6 13.0 -3.05 12.95 -3.1 13.05 -3.25 13.2 -4.25 13.25 -5.85 13.3 -6.3 13.35 -6.3 12.95 -8.45 12.95 -9.25 Q12.9 -10.0 12.8 -10.4 12.7 -10.75 12.7 -10.95 12.05 -10.75 10.85 -10.55 L10.6 -10.45 10.15 -10.3 9.35 -10.15 8.55 -9.95 7.0 -9.85 Q6.55 -9.85 5.8 -10.0 4.95 -10.2 4.65 -10.4 L4.2 -10.75 Q3.95 -10.95 3.9 -11.1 L3.75 -11.2 Q3.5 -11.35 3.2 -11.8 L2.7 -12.45 2.65 -12.5 3.05 -12.5 4.6 -12.45 5.4 -12.35 5.8 -12.4 6.35 -12.45 6.65 -12.55 6.45 -12.6 6.35 -12.6 M7.95 -8.45 L7.9 -8.5 Q8.05 -8.5 8.1 -8.35 L7.95 -8.45 M13.05 -4.8 L13.0 -4.65 13.05 -4.6 12.95 -4.6 13.05 -4.8" fill="#aa542b" fill-rule="evenodd" stroke="none"/>
      <path d="M-1.55 -8.7 L-2.25 -8.35 Q-3.6 -7.65 -3.6 -7.35 L-3.55 -6.95 -3.5 -6.6 Q-3.5 -5.95 -3.25 -5.55 L-3.3 -5.6 -4.45 -6.3 -4.5 -6.35 -4.5 -6.4 -4.3 -6.4 -4.25 -6.55 -4.2 -6.6 -4.2 -6.65 -4.25 -6.7 -4.25 -6.75 -4.2 -6.8 Q-4.25 -7.35 -4.2 -8.05 L-4.15 -9.0 -4.1 -8.95 -3.9 -8.85 -3.7 -8.85 -3.15 -8.75 -1.8 -8.7 -1.55 -8.7 M-3.85 -5.65 Q-3.95 -5.6 -3.95 -5.45 L-4.05 -5.55 -4.45 -5.8 -4.4 -5.85 -4.45 -5.9 -4.4 -5.95 -4.05 -5.75 -3.85 -5.65 M-3.9 -5.3 Q-3.8 -5.2 -3.35 -4.9 L-3.1 -4.75 -2.95 -4.65 -3.25 -4.65 -4.1 -4.55 -5.6 -4.25 Q-6.4 -4.05 -6.75 -3.85 L-6.9 -3.75 -6.95 -3.7 Q-7.05 -3.65 -7.05 -3.55 L-7.05 -3.35 -7.35 -3.45 -7.45 -3.45 Q-7.9 -3.55 -8.0 -3.65 L-8.05 -3.75 -8.05 -3.8 Q-8.05 -3.95 -8.0 -4.05 -7.65 -4.45 -7.35 -4.65 -6.9 -4.9 -6.25 -5.1 L-4.7 -5.5 -4.5 -5.5 -4.45 -5.55 -4.4 -5.55 -4.45 -5.6 -4.3 -5.5 -3.9 -5.3 M15.25 3.5 L13.7 3.5 Q13.2 3.5 12.5 3.3 L11.6 3.0 11.1 2.7 10.95 2.65 10.95 2.45 Q11.0 2.05 10.95 1.75 L10.95 1.65 10.85 1.15 Q10.9 0.8 10.5 0.1 L10.5 0.05 Q10.4 -0.2 10.4 -0.3 L10.45 -0.55 10.65 -1.9 11.4 -2.3 11.45 -2.3 11.45 -2.35 12.05 -2.6 Q12.45 -2.75 12.9 -2.8 L12.85 -2.85 12.9 -2.85 12.9 -2.7 Q12.9 -2.35 12.95 -1.75 L13.0 -1.6 13.15 -0.9 13.3 -0.25 Q11.75 0.2 11.65 1.3 11.65 1.4 11.65 1.45 11.75 1.55 11.95 1.55 12.1 1.55 12.5 1.15 L12.7 0.9 Q12.9 0.8 13.05 0.75 13.45 0.45 14.1 0.35 14.05 0.4 14.0 0.5 L14.05 0.65 14.05 0.7 13.25 0.85 13.1 0.95 13.05 1.0 13.2 0.95 Q13.75 0.85 14.3 0.8 L14.65 0.8 Q14.6 0.9 14.9 1.15 15.3 1.5 15.75 1.5 L15.75 1.7 Q15.7 2.25 15.6 2.7 15.5 3.3 15.25 3.5 M15.85 3.45 L15.65 3.5 15.7 3.45 15.85 3.45 M16.75 3.25 L16.9 3.25 17.05 3.05 17.05 3.2 16.75 3.25" fill="#875a32" fill-rule="evenodd" stroke="none"/>
      <path d="M-1.55 -8.7 Q-0.9 -8.75 -0.25 -9.0 L-0.15 -9.0 -0.1 -8.8 -0.05 -8.7 0.15 -7.75 Q0.4 -6.05 0.4 -5.75 L0.35 -5.5 0.2 -5.2 0.0 -5.0 Q-0.6 -4.7 -1.05 -4.3 L-1.2 -4.2 -1.55 -4.05 -1.55 -3.95 -1.4 -3.95 Q-1.25 -3.95 -1.0 -4.05 L-0.9 -4.1 -0.15 -4.5 -0.1 -4.1 Q-0.05 -3.8 -0.05 -3.65 L-0.05 -3.5 -0.1 -3.45 -0.9 -3.25 -1.6 -3.1 -2.4 -3.05 -2.45 -3.05 -3.2 -3.0 -4.95 -3.0 -5.25 -3.05 -6.5 -3.25 -6.85 -3.35 -7.05 -3.35 -7.05 -3.55 Q-7.05 -3.65 -6.95 -3.7 L-6.9 -3.75 -6.75 -3.85 Q-6.4 -4.05 -5.6 -4.25 L-4.1 -4.55 -3.25 -4.65 -2.95 -4.65 -3.1 -4.75 -3.35 -4.9 Q-3.8 -5.2 -3.9 -5.3 L-3.8 -5.25 -3.65 -5.2 -3.6 -5.15 -3.55 -5.2 -3.6 -5.25 -3.95 -5.45 Q-3.95 -5.6 -3.85 -5.65 L-3.55 -5.5 -3.2 -5.35 -2.65 -4.95 -2.45 -4.75 -2.15 -4.6 -1.8 -4.4 -2.15 -4.75 -2.35 -5.0 -3.25 -5.55 Q-3.5 -5.95 -3.5 -6.6 L-3.55 -6.95 -3.6 -7.35 Q-3.6 -7.65 -2.25 -8.35 L-1.55 -8.7 M15.25 3.5 Q15.5 3.3 15.6 2.7 15.7 2.25 15.75 1.7 L15.75 1.5 Q15.3 1.5 14.9 1.15 14.6 0.9 14.65 0.8 L14.3 0.8 15.15 0.8 15.15 0.9 15.2 0.85 15.45 0.9 15.5 0.9 15.75 1.15 Q16.25 1.45 16.55 1.9 16.75 2.2 17.0 2.75 L17.0 2.95 17.05 2.95 17.05 3.05 16.9 3.25 16.75 3.25 16.55 3.3 16.45 3.35 16.3 3.35 15.9 3.45 15.85 3.45 15.7 3.45 15.65 3.5 15.25 3.5 M14.05 0.7 L14.05 0.65 14.0 0.5 Q14.05 0.4 14.1 0.35 L15.05 0.25 Q15.15 0.45 15.15 0.6 L15.15 0.65 14.35 0.7 14.05 0.7 M12.7 0.9 L12.5 1.15 Q12.1 1.55 11.95 1.55 11.75 1.55 11.65 1.45 11.65 1.4 11.65 1.3 11.75 0.2 13.3 -0.25 L13.35 0.05 13.7 -0.1 Q13.8 -0.15 13.85 -0.35 L14.0 -0.7 14.05 -0.85 14.2 -1.8 14.25 -1.95 14.25 -2.75 14.3 -2.75 Q15.0 -2.65 15.75 -2.15 L16.3 -1.8 Q16.25 -1.15 15.65 -0.5 L15.6 -0.4 15.15 0.05 14.35 0.05 Q13.8 0.1 13.0 0.6 12.2 1.1 12.2 1.45 12.3 1.2 12.65 0.95 L12.7 0.9" fill="#6d3227" fill-rule="evenodd" stroke="none"/>
      <path d="M13.35 -11.3 L13.9 -10.4 14.15 -10.0 14.3 -9.5 14.4 -9.25 14.5 -8.5 Q14.65 -7.3 14.7 -6.1 L14.8 -4.65 14.7 -4.65 14.85 -4.05 14.85 -3.85 Q14.8 -3.7 14.8 -3.25 14.8 -3.15 14.9 -3.1 L14.9 -3.0 15.9 -2.4 16.7 -1.95 16.7 -1.9 16.65 -1.75 16.65 -1.65 16.4 -1.1 Q16.25 -0.75 15.85 -0.25 L15.5 0.25 15.5 0.35 15.45 0.35 15.5 0.45 15.55 0.6 15.55 0.65 15.65 0.7 Q16.0 0.9 16.45 1.25 17.5 2.2 17.45 3.2 L17.4 3.3 Q17.05 3.5 16.9 3.55 16.3 3.7 15.05 3.8 L14.35 3.85 13.7 3.85 Q13.1 3.8 11.8 3.4 10.55 2.95 10.55 2.8 L10.6 2.65 10.55 2.55 10.6 2.15 10.6 1.8 10.65 1.8 10.65 1.6 Q10.7 1.3 10.45 0.5 L10.15 -0.2 10.15 -0.6 Q10.2 -1.1 10.55 -2.25 L10.95 -2.5 10.8 -2.9 10.65 -3.25 10.65 -3.35 10.6 -3.55 10.65 -3.55 10.4 -4.05 10.1 -4.95 10.15 -4.95 9.65 -5.85 Q9.3 -6.4 8.55 -7.4 L8.3 -7.75 8.0 -8.0 7.65 -8.15 Q7.55 -8.25 7.45 -8.3 L7.3 -8.4 7.25 -8.45 7.15 -8.45 6.9 -8.55 6.85 -8.55 6.1 -8.85 Q5.45 -9.1 5.4 -9.1 L3.5 -9.7 Q3.25 -9.7 2.2 -9.95 1.3 -10.15 -0.25 -10.2 L-0.25 -10.15 -0.65 -10.15 -0.65 -9.95 -0.6 -9.8 -0.6 -9.75 -0.5 -9.45 -0.45 -9.5 -0.45 -9.45 -0.5 -9.4 -0.5 -9.25 -0.25 -9.3 -0.15 -9.4 -0.05 -9.4 0.05 -9.1 0.3 -8.5 0.45 -7.75 Q0.6 -7.05 0.6 -6.9 L0.75 -5.85 0.75 -5.4 0.55 -5.15 0.35 -4.85 0.25 -4.8 0.15 -4.7 Q0.1 -4.7 0.1 -4.55 L0.1 -4.25 0.15 -3.6 0.15 -3.4 0.05 -3.2 -0.05 -3.15 Q-0.45 -3.05 -1.05 -2.9 -2.6 -2.6 -3.5 -2.6 -4.6 -2.6 -6.4 -2.95 -8.25 -3.3 -8.4 -3.6 -8.45 -3.55 -8.45 -3.65 L-8.4 -3.75 -8.45 -3.85 Q-8.45 -4.35 -7.3 -5.0 -6.2 -5.6 -4.95 -5.7 L-4.85 -5.7 -4.75 -5.8 -4.8 -5.9 -4.7 -6.0 -4.65 -6.1 -4.7 -6.25 -4.8 -6.4 -4.8 -6.55 -4.75 -6.55 -4.95 -6.75 -5.35 -7.2 -5.45 -7.3 Q-6.1 -8.4 -6.1 -8.45 -6.1 -8.8 -6.0 -8.95 L-5.15 -8.95 -4.55 -9.0 Q-4.5 -9.0 -4.5 -9.1 L-4.5 -9.2 Q-4.45 -9.25 -4.35 -9.3 L-4.3 -9.3 -4.2 -9.25 -4.2 -9.3 -4.3 -9.8 Q-4.4 -10.3 -4.4 -10.65 -4.5 -11.05 -4.45 -11.45 -4.45 -11.7 -4.4 -11.95 L-3.5 -12.2 -1.5 -12.6 -1.0 -12.6 -0.25 -12.7 0.7 -12.8 1.35 -12.8 Q2.25 -12.85 3.25 -12.85 L6.35 -12.6 6.45 -12.6 6.65 -12.55 6.35 -12.45 5.8 -12.4 5.4 -12.35 4.6 -12.45 3.05 -12.5 2.65 -12.5 1.35 -12.5 0.9 -12.45 0.75 -12.45 -0.35 -12.35 -1.05 -12.35 -1.15 -12.3 -1.75 -12.25 -2.6 -12.1 -4.25 -11.7 -4.25 -11.6 -4.2 -11.35 -4.2 -11.25 Q-4.1 -10.85 -4.05 -10.25 L-4.0 -10.1 -3.9 -9.55 -3.85 -9.4 -3.8 -9.4 -3.8 -9.2 -3.75 -9.2 -3.45 -9.15 -3.3 -9.15 -3.3 -9.1 -3.1 -9.1 -3.1 -9.05 -2.65 -9.05 -2.25 -9.0 -1.8 -9.0 -1.15 -9.05 -1.0 -9.1 -0.8 -9.2 -0.85 -9.25 -0.8 -9.3 -0.8 -9.55 -0.85 -9.8 -0.85 -9.85 -0.9 -10.05 -0.95 -10.1 -0.95 -10.15 -1.2 -10.1 -1.2 -10.15 Q-1.15 -10.25 -1.05 -10.3 L-0.8 -10.35 -0.75 -10.4 -0.1 -10.45 0.0 -10.45 1.1 -10.4 1.6 -10.3 Q1.8 -10.45 3.6 -10.0 3.7 -9.95 4.55 -9.7 5.35 -9.5 5.5 -9.4 5.75 -9.3 6.3 -9.15 L6.75 -9.0 6.85 -8.9 Q7.1 -8.9 7.35 -8.75 L7.6 -8.65 7.85 -8.5 7.95 -8.45 8.1 -8.35 8.15 -8.35 8.2 -8.3 8.25 -8.3 8.65 -7.85 8.65 -7.8 Q8.75 -7.6 8.85 -7.5 L9.4 -6.7 9.45 -6.7 Q10.2 -5.7 10.35 -5.35 10.45 -5.0 10.75 -4.45 L10.75 -4.4 10.95 -3.95 11.05 -3.55 11.1 -3.55 11.15 -3.45 11.35 -2.8 11.35 -2.7 11.75 -2.85 Q12.6 -3.15 12.9 -3.15 L12.95 -3.1 13.0 -3.05 13.05 -2.6 13.2 -2.0 13.3 -1.4 13.35 -1.15 13.4 -0.8 13.4 -0.6 13.45 -0.5 13.45 -0.45 13.5 -0.4 Q13.7 -0.75 13.8 -0.95 L13.85 -1.3 13.9 -1.5 13.95 -1.55 13.95 -1.75 13.9 -2.5 Q13.9 -2.55 14.15 -2.85 L14.35 -3.1 Q14.3 -3.35 14.25 -3.55 L14.25 -3.85 Q14.25 -4.35 14.3 -4.6 L14.25 -4.6 14.3 -5.0 Q14.2 -5.8 14.2 -6.65 14.2 -8.0 14.15 -8.75 L14.1 -8.85 14.1 -9.0 14.05 -9.05 14.05 -9.1 14.0 -9.45 13.95 -9.45 13.85 -9.85 13.65 -10.3 13.6 -10.4 Q13.35 -10.95 13.3 -11.15 L13.3 -11.3 13.35 -11.3 M-7.05 -3.35 L-6.85 -3.35 -6.5 -3.25 -5.25 -3.05 -4.95 -3.0 -3.2 -3.0 -2.45 -3.05 -2.4 -3.05 -1.6 -3.1 -0.9 -3.25 -0.1 -3.45 -0.05 -3.5 -0.05 -3.65 Q-0.05 -3.8 -0.1 -4.1 L-0.15 -4.5 -0.9 -4.1 -1.0 -4.05 Q-1.25 -3.95 -1.4 -3.95 L-1.55 -3.95 -1.55 -4.05 -1.2 -4.2 -1.05 -4.3 Q-0.6 -4.7 0.0 -5.0 L0.2 -5.2 0.35 -5.5 0.4 -5.75 Q0.4 -6.05 0.15 -7.75 L-0.05 -8.7 -0.1 -8.8 -0.15 -9.0 -0.25 -9.0 Q-0.9 -8.75 -1.55 -8.7 L-1.8 -8.7 -3.15 -8.75 -3.7 -8.85 -3.9 -8.85 -4.1 -8.95 -4.15 -9.0 -4.2 -8.05 Q-4.25 -7.35 -4.2 -6.8 L-4.25 -6.75 -4.25 -6.7 -4.2 -6.65 -4.2 -6.6 -4.25 -6.55 -4.3 -6.4 -4.5 -6.4 -4.5 -6.35 -4.45 -6.3 -3.3 -5.6 -3.25 -5.55 -2.35 -5.0 -2.15 -4.75 -1.8 -4.4 -2.15 -4.6 -2.45 -4.75 -2.65 -4.95 -3.2 -5.35 -3.55 -5.5 -3.85 -5.65 -4.05 -5.75 -4.4 -5.95 -4.45 -5.9 -4.4 -5.85 -4.45 -5.8 -4.05 -5.55 -3.95 -5.45 -3.6 -5.25 -3.55 -5.2 -3.6 -5.15 -3.65 -5.2 -3.8 -5.25 -3.9 -5.3 -4.3 -5.5 -4.45 -5.6 -4.4 -5.55 -4.45 -5.55 -4.5 -5.5 -4.7 -5.5 -6.25 -5.1 Q-6.9 -4.9 -7.35 -4.65 -7.65 -4.45 -8.0 -4.05 -8.05 -3.95 -8.05 -3.8 L-8.05 -3.75 -8.0 -3.65 Q-7.9 -3.55 -7.45 -3.45 L-7.35 -3.45 -7.05 -3.35 M10.3 -1.95 L10.3 -1.95 M13.3 -0.25 L13.15 -0.9 13.0 -1.6 12.95 -1.75 Q12.9 -2.35 12.9 -2.7 L12.9 -2.85 12.85 -2.85 12.9 -2.8 Q12.45 -2.75 12.05 -2.6 L11.45 -2.35 11.45 -2.3 11.4 -2.3 10.65 -1.9 10.45 -0.55 10.4 -0.3 Q10.4 -0.2 10.5 0.05 L10.5 0.1 Q10.9 0.8 10.85 1.15 L10.95 1.65 10.95 1.75 Q11.0 2.05 10.95 2.45 L10.95 2.65 11.1 2.7 11.6 3.0 12.5 3.3 Q13.2 3.5 13.7 3.5 L15.25 3.5 15.65 3.5 15.85 3.45 15.9 3.45 16.3 3.35 16.45 3.35 16.55 3.3 16.75 3.25 17.05 3.2 17.05 3.05 17.05 2.95 17.0 2.95 17.0 2.75 Q16.75 2.2 16.55 1.9 16.25 1.45 15.75 1.15 L15.5 0.9 15.45 0.9 15.2 0.85 15.15 0.9 15.15 0.8 14.3 0.8 Q13.75 0.85 13.2 0.95 L13.05 1.0 13.1 0.95 13.25 0.85 14.05 0.7 14.35 0.7 15.15 0.65 15.15 0.6 Q15.15 0.45 15.05 0.25 L14.1 0.35 Q13.45 0.45 13.05 0.75 12.9 0.8 12.7 0.9 L12.65 0.95 Q12.3 1.2 12.2 1.45 12.2 1.1 13.0 0.6 13.8 0.1 14.35 0.05 L15.15 0.05 15.6 -0.4 15.65 -0.5 Q16.25 -1.15 16.3 -1.8 L15.75 -2.15 Q15.0 -2.65 14.3 -2.75 L14.25 -2.75 14.25 -1.95 14.2 -1.8 14.05 -0.85 14.0 -0.7 13.85 -0.35 Q13.8 -0.15 13.7 -0.1 L13.35 0.05 13.3 -0.25 M15.25 0.65 L15.25 0.65 M-5.1 -7.4 Q-4.7 -6.9 -4.55 -6.6 L-4.55 -6.95 -4.5 -7.15 -4.55 -7.4 -4.55 -8.75 -5.8 -8.7 -5.8 -8.45 -5.1 -7.4" fill="#101010" fill-rule="evenodd" stroke="none"/>
    </g>
  </defs>
</svg>
