<?xml version="1.0" encoding="UTF-8" standalone="no"?>
<svg xmlns:ffdec="https://www.free-decompiler.com/flash" xmlns:xlink="http://www.w3.org/1999/xlink" ffdec:objectType="frame" height="70.0px" width="49.7px" xmlns="http://www.w3.org/2000/svg">
  <g transform="matrix(1.0, 0.0, 0.0, 1.0, 23.45, 46.9)">
    <use ffdec:characterId="940" height="10.0" transform="matrix(7.0, 0.0, 0.0, 7.0, -23.45, -46.9)" width="7.1" xlink:href="#shape0"/>
  </g>
  <defs>
    <g id="shape0" transform="matrix(1.0, 0.0, 0.0, 1.0, 3.35, 6.7)">
      <path d="M-1.35 -2.95 L-1.35 -3.05 -1.4 -3.25 -1.45 -3.3 -1.45 -3.4 -1.4 -3.45 -1.4 -4.15 -1.55 -4.9 -1.3 -4.75 -1.1 -4.65 Q-0.6 -4.35 -0.35 -4.1 L-0.15 -3.95 0.0 -3.8 Q0.1 -3.7 0.3 -3.35 L0.45 -3.1 0.55 -2.95 0.65 -2.65 0.8 -2.3 Q1.05 -1.75 1.35 -1.25 1.85 -0.45 2.15 -0.25 L2.05 -0.1 Q1.95 0.0 1.9 0.2 1.8 0.25 1.7 0.4 L1.65 0.5 1.55 0.65 Q1.4 0.9 1.3 1.2 L1.25 1.3 1.2 1.35 1.25 1.2 0.9 0.9 0.6 0.45 0.6 0.35 0.4 -0.35 0.95 -0.35 Q1.05 -0.35 1.1 -0.4 L1.1 -0.5 0.95 -0.7 0.5 -1.2 0.45 -1.25 0.2 -1.6 0.1 -1.7 0.05 -1.8 0.0 -1.85 -0.5 -2.4 -0.4 -2.25 -0.5 -2.45 -1.05 -2.85 Q-1.25 -3.0 -1.35 -2.95 M0.9 2.45 L0.9 2.45 0.9 2.45" fill="#d6b37e" fill-rule="evenodd" stroke="none"/>
      <path d="M2.1 0.25 L2.3 0.65 2.7 1.2 2.75 1.3 2.5 1.45 2.05 1.8 1.95 1.9 1.65 2.25 Q1.1 2.45 1.2 2.75 L1.15 2.75 1.3 2.1 1.35 2.05 1.65 1.2 1.65 1.15 2.1 0.25 M2.75 1.35 L2.95 1.85 Q3.05 2.1 3.15 2.25 L2.95 2.3 Q2.1 2.65 1.95 2.65 2.45 2.4 2.45 2.35 2.4 2.1 2.05 2.15 L2.5 1.55 2.75 1.35 M-2.0 -5.8 Q-1.9 -5.55 -1.9 -5.35 -1.75 -4.95 -1.75 -4.6 L-1.75 -4.45 -1.8 -4.45 Q-1.85 -4.35 -2.05 -4.3 L-2.5 -4.2 -2.7 -4.25 -2.75 -4.25 -2.8 -4.35 -2.8 -4.4 -2.85 -4.45 -2.85 -4.5 -2.95 -4.8 -3.05 -5.3 -3.05 -5.2 Q-2.9 -5.15 -2.7 -5.15 -2.5 -5.15 -2.2 -5.45 L-2.0 -5.8 M-1.7 -3.2 Q-1.8 -2.8 -2.2 -2.7 L-2.45 -2.65 Q-2.7 -2.65 -2.75 -3.0 L-2.8 -3.2 -2.85 -3.85 -2.8 -4.1 -2.75 -4.2 Q-2.6 -4.1 -2.4 -4.1 -2.25 -4.1 -2.0 -4.15 L-2.0 -3.95 -1.9 -3.55 Q-1.8 -3.2 -1.75 -3.1 L-1.7 -3.2 M-1.7 -4.3 L-1.65 -4.35 -1.65 -4.3 -1.7 -4.3 M-1.9 -0.95 L-2.0 -0.85 -2.05 -0.85 Q-2.2 -0.8 -2.35 -0.8 L-2.5 -0.8 -2.55 -1.0 -2.6 -1.15 -2.65 -1.5 -2.7 -2.0 -2.7 -2.5 -2.5 -2.5 Q-2.25 -2.5 -2.05 -2.65 -1.9 -2.75 -1.75 -3.0 L-1.65 -3.1 -1.65 -3.05 Q-1.95 -2.85 -1.95 -1.1 L-1.95 -0.95 -1.9 -0.95 M-2.45 -0.65 L-2.45 -0.6 -2.5 -0.6 -2.45 -0.65 M-2.25 0.5 L-2.3 0.4 -2.3 0.35 Q-2.25 0.35 -2.2 0.4 L-2.25 0.5" fill="#b34424" fill-rule="evenodd" stroke="none"/>
      <path d="M1.2 1.35 L0.95 2.25 0.9 2.3 0.9 2.45 0.85 2.4 0.65 2.25 0.6 2.2 0.5 2.05 0.35 1.95 0.15 1.75 0.15 1.7 0.05 1.4 -0.05 1.15 -0.15 1.0 Q-0.15 0.85 -0.25 0.75 -0.4 0.55 -0.95 0.35 L-1.35 0.25 -1.4 0.15 -1.4 0.05 Q-1.3 -0.25 -1.25 -0.75 L-1.2 -1.2 -1.15 -1.55 Q-1.15 -1.7 -1.2 -1.75 L-1.15 -1.95 -1.15 -2.0 -1.2 -2.05 -1.25 -2.4 -1.25 -2.45 -1.35 -2.75 -1.35 -2.95 Q-1.25 -3.0 -1.05 -2.85 L-0.5 -2.45 -0.4 -2.25 -0.5 -2.4 0.0 -1.85 0.05 -1.8 0.1 -1.7 0.2 -1.6 0.45 -1.25 0.5 -1.2 0.95 -0.7 1.1 -0.5 1.1 -0.4 Q1.05 -0.35 0.95 -0.35 L0.4 -0.35 0.6 0.35 0.6 0.45 0.9 0.9 1.25 1.2 1.2 1.35 M0.9 2.45 L0.9 2.45" fill="#c67137" fill-rule="evenodd" stroke="none"/>
      <path d="M2.1 0.25 L2.3 -0.25 2.35 -0.25 2.35 -0.2 Q2.7 0.2 2.9 0.5 L3.0 0.7 3.15 1.2 3.15 1.25 3.45 2.15 3.4 2.15 Q3.3 2.15 3.15 2.25 3.05 2.1 2.95 1.85 L2.75 1.35 2.8 1.35 3.0 1.15 3.05 1.15 Q2.9 1.2 2.75 1.3 L2.7 1.2 2.3 0.65 2.1 0.25 M1.95 2.65 L1.9 2.65 1.65 2.7 2.05 2.15 Q2.4 2.1 2.45 2.35 2.45 2.4 1.95 2.65 M-3.05 -5.3 L-3.05 -5.55 Q-3.05 -5.8 -2.95 -6.0 L-2.9 -6.05 -2.85 -6.15 -2.75 -6.2 -2.65 -6.3 -2.45 -6.4 -2.35 -6.35 Q-2.2 -6.25 -2.1 -6.05 L-2.05 -5.85 -2.0 -5.8 -2.2 -5.45 Q-2.5 -5.15 -2.7 -5.15 -2.9 -5.15 -3.05 -5.2 L-3.05 -5.3 M-1.7 -3.2 L-1.75 -3.1 Q-1.8 -3.2 -1.9 -3.55 L-2.0 -3.95 -2.0 -4.15 -1.8 -4.25 -1.75 -4.25 -1.75 -4.3 -1.7 -4.3 -1.65 -4.3 -1.65 -4.05 -1.6 -3.65 -1.65 -3.55 -1.65 -3.3 -1.7 -3.2 M-1.65 -3.05 L-1.6 -3.05 -1.5 -2.6 -1.45 -2.45 -1.45 -2.4 -1.4 -2.1 -1.4 -1.9 Q-1.4 -1.85 -1.4 -1.75 L-1.55 -1.5 -1.55 -1.45 -1.65 -1.35 -1.85 -1.05 -1.9 -0.95 -1.95 -0.95 -1.95 -1.1 Q-1.95 -2.85 -1.65 -3.05 M-2.45 -0.65 L-2.3 -0.65 Q-1.9 -0.65 -1.55 -1.25 L-1.4 -1.5 -1.4 -1.05 Q-1.45 -0.75 -1.65 -0.25 L-1.7 -0.05 -1.75 0.0 Q-1.8 0.1 -1.9 0.2 -1.95 0.25 -2.0 0.25 L-2.1 0.25 Q-2.25 0.25 -2.25 0.15 L-2.3 0.15 Q-2.45 -0.35 -2.45 -0.55 L-2.45 -0.6 -2.45 -0.65 M-2.2 0.4 L-2.15 0.45 -2.15 0.4 -2.05 0.45 -1.95 0.45 -1.9 0.4 -1.85 0.4 Q-1.8 0.35 -1.75 0.35 L-1.65 0.25 Q-1.65 0.2 -1.65 0.25 L-1.65 0.3 -1.55 0.25 Q-1.5 0.35 -1.5 0.5 -1.5 0.6 -1.55 0.7 L-1.7 0.8 -1.8 0.9 -1.85 0.85 -1.85 0.9 -1.95 0.9 Q-2.05 0.9 -2.15 0.7 L-2.2 0.65 -2.2 0.6 -2.25 0.55 -2.25 0.5 -2.2 0.4 M1.2 2.75 Q1.1 2.45 1.65 2.25 L1.3 2.65 1.2 2.75" fill="#763529" fill-rule="evenodd" stroke="none"/>
      <path d="M0.15 -4.25 L0.25 -4.15 0.3 -4.0 0.3 -3.9 0.35 -3.8 0.45 -3.7 Q0.65 -3.4 0.9 -2.85 L0.9 -2.8 1.05 -2.4 1.25 -2.0 1.3 -1.95 1.6 -1.35 2.1 -0.8 Q2.55 -0.75 3.0 0.05 3.45 0.8 3.6 1.35 L3.65 1.65 3.7 2.0 Q3.8 2.15 3.75 2.2 L3.75 2.4 3.7 2.45 Q3.4 2.65 2.9 2.85 2.5 3.05 1.75 3.3 L1.55 3.3 1.5 3.25 1.3 3.3 1.25 3.3 1.1 3.15 1.0 3.1 Q0.9 2.9 0.65 2.7 L0.6 2.65 0.6 2.6 Q0.4 2.5 0.25 2.3 L-0.1 1.8 -0.3 1.4 -0.5 1.1 Q-0.7 1.05 -0.95 0.9 L-1.25 0.85 -1.35 1.05 Q-1.5 1.25 -1.65 1.25 L-1.65 1.3 Q-2.05 1.25 -2.35 0.9 -2.55 0.65 -2.55 0.5 L-2.55 0.45 -2.65 0.25 -2.65 0.15 Q-2.65 0.1 -2.75 -0.15 -2.8 -0.4 -2.8 -0.55 L-2.8 -0.75 Q-2.9 -0.9 -2.95 -1.2 -3.0 -1.5 -3.0 -1.85 -2.95 -2.4 -2.9 -2.55 -3.0 -2.65 -3.1 -2.85 L-3.2 -3.2 Q-3.2 -3.5 -3.15 -3.9 L-3.1 -4.15 Q-3.2 -4.3 -3.3 -4.6 L-3.35 -5.15 -3.35 -5.85 Q-3.35 -6.0 -2.95 -6.3 -2.7 -6.55 -2.5 -6.6 -2.45 -6.8 -2.1 -6.4 -1.75 -6.05 -1.65 -5.8 L-1.7 -5.75 -1.55 -5.55 -1.55 -5.45 -1.45 -5.45 -1.2 -5.35 -1.15 -5.3 Q-0.55 -4.95 -0.4 -4.8 L0.15 -4.25 M1.2 1.35 L1.25 1.3 1.3 1.2 Q1.4 0.9 1.55 0.65 L1.65 0.5 1.7 0.4 Q1.8 0.25 1.9 0.2 1.95 0.0 2.05 -0.1 L2.15 -0.25 Q1.85 -0.45 1.35 -1.25 1.05 -1.75 0.8 -2.3 L0.65 -2.65 0.55 -2.95 0.45 -3.1 0.3 -3.35 Q0.1 -3.7 0.0 -3.8 L-0.15 -3.95 -0.35 -4.1 Q-0.6 -4.35 -1.1 -4.65 L-1.3 -4.75 -1.55 -4.9 -1.4 -4.15 -1.4 -3.45 -1.45 -3.4 -1.45 -3.3 -1.4 -3.25 -1.35 -3.05 -1.35 -2.95 -1.35 -2.75 -1.25 -2.45 -1.25 -2.4 -1.2 -2.05 -1.15 -2.0 -1.15 -1.95 -1.2 -1.75 Q-1.15 -1.7 -1.15 -1.55 L-1.2 -1.2 -1.25 -0.75 Q-1.3 -0.25 -1.4 0.05 L-1.4 0.15 -1.35 0.25 -0.95 0.35 Q-0.4 0.55 -0.25 0.75 -0.15 0.85 -0.15 1.0 L-0.05 1.15 0.05 1.4 0.15 1.7 0.15 1.75 0.35 1.95 0.5 2.05 0.6 2.2 0.65 2.25 0.85 2.4 0.9 2.45 0.9 2.3 0.95 2.25 1.2 1.35 M0.9 2.45 L0.9 2.45 M3.15 2.25 Q3.3 2.15 3.4 2.15 L3.45 2.15 3.15 1.25 3.15 1.2 3.0 0.7 2.9 0.5 Q2.7 0.2 2.35 -0.2 L2.35 -0.25 2.3 -0.25 2.1 0.25 1.65 1.15 1.65 1.2 1.35 2.05 1.3 2.1 1.15 2.75 1.2 2.75 1.3 2.65 1.65 2.25 1.95 1.9 2.05 1.8 2.5 1.45 2.75 1.3 Q2.9 1.2 3.05 1.15 L3.0 1.15 2.8 1.35 2.75 1.35 2.5 1.55 2.05 2.15 1.65 2.7 1.9 2.65 1.95 2.65 Q2.1 2.65 2.95 2.3 L3.15 2.25 M-2.0 -5.8 L-2.05 -5.85 -2.1 -6.05 Q-2.2 -6.25 -2.35 -6.35 L-2.45 -6.4 -2.65 -6.3 -2.75 -6.2 -2.85 -6.15 -2.9 -6.05 -2.95 -6.0 Q-3.05 -5.8 -3.05 -5.55 L-3.05 -5.3 -2.95 -4.8 -2.85 -4.5 -2.85 -4.45 -2.8 -4.4 -2.8 -4.35 -2.75 -4.25 -2.7 -4.25 -2.5 -4.2 -2.05 -4.3 Q-1.85 -4.35 -1.8 -4.45 L-1.75 -4.45 -1.75 -4.6 Q-1.75 -4.95 -1.9 -5.35 -1.9 -5.55 -2.0 -5.8 M-2.0 -4.15 Q-2.25 -4.1 -2.4 -4.1 -2.6 -4.1 -2.75 -4.2 L-2.8 -4.1 -2.85 -3.85 -2.8 -3.2 -2.75 -3.0 Q-2.7 -2.65 -2.45 -2.65 L-2.2 -2.7 Q-1.8 -2.8 -1.7 -3.2 L-1.65 -3.3 -1.65 -3.55 -1.6 -3.65 -1.65 -4.05 -1.65 -4.3 -1.65 -4.35 -1.7 -4.3 -1.75 -4.3 -1.75 -4.25 -1.8 -4.25 -2.0 -4.15 M-1.55 -1.45 L-1.55 -1.5 -1.4 -1.75 Q-1.4 -1.85 -1.4 -1.9 L-1.4 -2.1 -1.45 -2.4 -1.45 -2.45 -1.5 -2.6 -1.6 -3.05 -1.65 -3.05 -1.65 -3.1 -1.75 -3.0 Q-1.9 -2.75 -2.05 -2.65 -2.25 -2.5 -2.5 -2.5 L-2.7 -2.5 -2.7 -2.0 -2.65 -1.5 -2.6 -1.15 -2.55 -1.0 -2.5 -0.8 -2.35 -0.8 Q-2.2 -0.8 -2.05 -0.85 L-2.0 -0.85 -1.9 -0.95 -1.85 -1.05 -1.65 -1.35 -1.55 -1.45 M-2.45 -0.6 L-2.45 -0.55 Q-2.45 -0.35 -2.3 0.15 L-2.25 0.15 Q-2.25 0.25 -2.1 0.25 L-2.0 0.25 Q-1.95 0.25 -1.9 0.2 -1.8 0.1 -1.75 0.0 L-1.7 -0.05 -1.65 -0.25 Q-1.45 -0.75 -1.4 -1.05 L-1.4 -1.5 -1.55 -1.25 Q-1.9 -0.65 -2.3 -0.65 L-2.45 -0.65 -2.5 -0.6 -2.45 -0.6 M-1.7 0.8 L-1.55 0.7 Q-1.5 0.6 -1.5 0.5 -1.5 0.35 -1.55 0.25 L-1.65 0.3 -1.65 0.25 Q-1.65 0.2 -1.65 0.25 L-1.75 0.35 Q-1.8 0.35 -1.85 0.4 L-1.9 0.4 -1.95 0.45 -2.05 0.45 -2.15 0.4 -2.15 0.45 -2.2 0.4 Q-2.25 0.35 -2.3 0.35 L-2.3 0.4 -2.25 0.5 -2.25 0.55 -2.2 0.6 -2.2 0.65 -2.15 0.7 Q-2.05 0.9 -1.95 0.9 L-1.85 0.9 -1.85 0.85 -1.8 0.9 -1.7 0.8 -1.7 0.8 M1.35 2.8 L1.35 2.75 1.3 2.8 1.35 2.8 M1.15 2.8 L1.15 2.8" fill="#111111" fill-rule="evenodd" stroke="none"/>
    </g>
  </defs>
</svg>
