<?xml version="1.0" encoding="UTF-8" standalone="no"?>
<svg xmlns:ffdec="https://www.free-decompiler.com/flash" xmlns:xlink="http://www.w3.org/1999/xlink" ffdec:objectType="frame" height="64.75px" width="61.25px" xmlns="http://www.w3.org/2000/svg">
  <g transform="matrix(1.0, 0.0, 0.0, 1.0, 37.45, 36.4)">
    <use ffdec:characterId="944" height="9.25" transform="matrix(7.0, 0.0, 0.0, 7.0, -37.45, -36.4)" width="8.75" xlink:href="#shape0"/>
  </g>
  <defs>
    <g id="shape0" transform="matrix(1.0, 0.0, 0.0, 1.0, 5.35, 5.2)">
      <path d="M0.65 -4.65 L0.75 -4.7 0.75 -4.75 0.95 -4.95 1.5 -4.6 1.75 -4.4 1.95 -4.25 2.05 -4.25 2.25 -4.2 Q2.4 -4.1 2.5 -4.05 L2.0 -3.55 2.2 -3.35 2.25 -3.35 Q2.15 -3.2 2.15 -2.9 L2.35 -2.55 2.3 -2.55 Q1.65 -3.1 0.75 -3.45 0.9 -3.5 0.9 -3.65 L0.8 -4.05 0.7 -4.55 0.65 -4.65 M2.6 -2.35 L2.55 -2.35 2.55 -2.4 2.6 -2.4 2.6 -2.35" fill="#d6b37e" fill-rule="evenodd" stroke="none"/>
      <path d="M-2.3 -1.4 Q-2.2 -1.95 -2.0 -2.5 -1.85 -2.9 -1.65 -3.15 L-1.6 -3.25 -1.35 -3.5 -1.25 -3.5 Q-1.05 -3.6 -0.85 -3.6 L-0.4 -3.6 Q0.45 -3.45 1.1 -3.15 L1.95 -2.65 2.15 -2.45 2.25 -2.4 2.25 -2.35 2.35 -2.15 2.45 -1.9 2.55 -1.4 2.5 -1.4 Q2.5 -1.45 2.5 -1.3 L2.15 -1.05 1.45 -0.35 Q0.95 0.0 0.1 0.45 L-0.2 0.3 -0.15 0.25 -0.3 0.35 -0.3 0.25 Q-0.4 0.3 -0.45 0.35 L-0.5 0.3 Q-0.75 0.0 -0.9 -0.05 L-1.35 -0.5 -1.65 -0.9 Q-2.0 -1.35 -2.3 -1.4 M-0.2 0.65 L-0.25 0.65 -0.2 0.65 M-4.9 1.35 L-4.8 1.0 -4.8 1.05 -4.5 1.05 Q-4.0 0.95 -3.75 0.4 L-3.55 -0.05 -3.45 -0.25 Q-3.3 -0.4 -3.35 -0.5 L-3.35 -0.55 Q-3.35 -0.65 -3.35 -0.6 L-3.55 -0.8 -3.6 -0.9 Q-3.45 -0.95 -3.25 -1.05 -3.05 -1.15 -2.95 -1.2 L-2.85 -1.2 Q-2.7 -1.2 -2.5 -1.1 -2.5 -0.95 -2.1 -0.85 L-1.95 -0.85 -1.9 -0.75 -1.85 -0.75 Q-1.8 -0.6 -1.45 -0.45 L-1.3 -0.25 Q-0.8 0.2 -0.85 0.25 L-0.8 0.3 -0.75 0.45 Q-0.8 0.5 -0.8 0.55 -1.0 0.75 -1.05 0.95 L-1.05 1.0 -0.7 0.8 -0.65 0.9 -0.65 1.1 -0.8 1.3 Q-0.65 1.3 -0.55 1.25 L-0.65 1.3 -0.6 1.5 -0.6 1.6 -0.75 1.95 Q-0.95 2.45 -1.1 2.6 -1.45 2.9 -2.05 3.55 -2.5 3.15 -3.6 2.45 L-3.85 2.3 Q-4.0 2.2 -4.1 2.15 -4.85 1.65 -4.85 1.35 L-4.9 1.35 M-3.0 3.65 L-3.0 3.6 -3.0 3.65" fill="#875a32" fill-rule="evenodd" stroke="none"/>
      <path d="M2.5 -4.05 L2.55 -4.05 2.6 -3.95 2.55 -3.7 2.5 -3.55 2.4 -3.4 2.3 -3.3 Q2.2 -3.2 2.2 -3.15 L2.3 -3.05 2.45 -3.2 2.55 -3.2 2.95 -2.25 3.1 -1.75 Q2.9 -2.05 2.6 -2.35 L2.6 -2.4 2.55 -2.4 2.55 -2.35 2.35 -2.55 2.15 -2.9 Q2.15 -3.2 2.25 -3.35 L2.2 -3.35 2.0 -3.55 2.5 -4.05 M0.75 -3.45 L-0.35 -3.85 -0.1 -4.1 0.3 -4.4 0.45 -4.5 0.55 -4.6 0.65 -4.65 0.7 -4.55 0.8 -4.05 0.9 -3.65 Q0.9 -3.5 0.75 -3.45" fill="#c67137" fill-rule="evenodd" stroke="none"/>
      <path d="M-2.2 -1.3 L-2.3 -1.35 -2.3 -1.4 Q-2.0 -1.35 -1.65 -0.9 L-1.35 -0.5 -1.75 -0.85 -1.75 -0.95 -1.8 -1.0 Q-1.9 -1.15 -2.2 -1.3 M2.25 -2.4 Q2.6 -2.05 2.9 -1.55 3.0 -1.35 3.05 -1.15 L3.0 -1.1 3.05 -1.05 3.05 -0.8 Q3.05 -0.55 3.0 -0.3 L2.95 -0.25 Q2.7 0.35 1.8 0.65 1.65 0.75 1.35 0.75 0.8 0.8 0.3 1.0 L-0.05 1.0 -0.1 1.05 -0.3 1.05 -0.3 1.0 -0.25 0.95 Q-0.1 0.75 -0.1 0.6 L-0.1 0.55 -0.2 0.65 -0.25 0.65 -0.35 0.75 -0.4 0.8 -0.5 0.6 -0.45 0.6 -0.4 0.55 -0.3 0.35 -0.15 0.25 -0.2 0.3 0.1 0.45 Q0.95 0.0 1.45 -0.35 L2.15 -1.05 2.5 -1.3 Q2.5 -1.45 2.5 -1.4 L2.55 -1.4 2.45 -1.9 2.35 -2.15 2.25 -2.35 2.25 -2.4 M-0.45 0.35 L-0.5 0.35 -0.55 0.4 -0.6 0.3 -0.65 0.25 -0.7 0.1 -0.85 0.0 -0.9 -0.05 Q-0.75 0.0 -0.5 0.3 L-0.45 0.35 M-2.5 -1.1 L-2.45 -1.05 -2.4 -1.05 Q-2.2 -0.95 -2.0 -0.85 L-1.95 -0.85 -2.1 -0.85 Q-2.5 -0.95 -2.5 -1.1 M-1.85 -0.75 Q-1.75 -0.65 -1.8 -0.75 L-1.45 -0.45 Q-1.8 -0.6 -1.85 -0.75 M-0.8 0.3 L-0.7 0.5 -0.75 0.55 -0.8 0.55 Q-0.8 0.5 -0.75 0.45 L-0.8 0.3 M-0.7 0.8 L-0.6 0.7 -0.5 0.85 -0.5 0.9 -0.55 0.95 -0.55 1.0 -0.65 1.1 -0.65 0.9 -0.7 0.8 M-0.55 1.25 L-0.5 1.2 -0.45 1.25 -0.45 1.45 -0.5 1.75 -0.55 2.1 Q-0.55 2.45 -1.15 3.1 -1.8 3.75 -2.15 3.75 L-3.0 3.65 -3.0 3.6 Q-3.25 3.35 -3.8 2.9 L-5.0 1.9 -5.05 1.7 -5.05 1.65 -4.9 1.35 -4.85 1.35 Q-4.85 1.65 -4.1 2.15 L-4.05 2.15 -4.25 2.05 -4.65 1.8 -4.7 1.75 -3.95 2.3 Q-3.7 2.45 -2.55 3.55 L-2.45 3.45 Q-3.2 2.75 -3.6 2.45 -2.5 3.15 -2.05 3.55 -1.45 2.9 -1.1 2.6 -0.95 2.45 -0.75 1.95 L-0.6 1.6 -0.6 1.5 -0.65 1.3 -0.55 1.25" fill="#6d3227" fill-rule="evenodd" stroke="none"/>
      <path d="M2.5 -4.05 Q2.4 -4.1 2.25 -4.2 L2.05 -4.25 1.95 -4.25 1.75 -4.4 1.5 -4.6 0.95 -4.95 0.75 -4.75 0.75 -4.7 0.65 -4.65 0.55 -4.6 0.45 -4.5 0.3 -4.4 -0.1 -4.1 -0.35 -3.85 0.75 -3.45 Q1.65 -3.1 2.3 -2.55 L2.35 -2.55 2.55 -2.35 2.6 -2.35 Q2.9 -2.05 3.1 -1.75 L2.95 -2.25 2.55 -3.2 2.45 -3.2 2.3 -3.05 2.2 -3.15 Q2.2 -3.2 2.3 -3.3 L2.4 -3.4 2.5 -3.55 2.55 -3.7 2.6 -3.95 2.55 -4.05 2.5 -4.05 M-2.6 -1.45 L-2.5 -1.65 Q-2.4 -1.85 -2.4 -2.05 L-2.4 -2.1 -2.3 -2.35 -2.3 -2.6 -2.0 -3.25 -1.45 -3.75 -1.25 -3.8 -1.2 -3.85 Q-0.95 -3.95 -0.85 -3.9 L-0.65 -3.95 Q-0.55 -4.15 0.0 -4.55 L0.4 -4.8 Q0.9 -5.1 1.05 -5.2 L1.45 -4.95 1.9 -4.55 2.05 -4.5 2.4 -4.4 2.5 -4.35 2.7 -4.1 2.8 -4.0 2.8 -3.65 2.75 -3.2 Q3.25 -2.4 3.3 -2.2 3.35 -2.15 3.35 -2.05 L3.35 -0.95 3.4 -0.55 Q3.4 -0.3 3.2 0.1 3.0 0.35 2.9 0.4 2.75 0.6 2.25 0.8 L1.85 0.9 1.1 1.1 1.15 1.05 Q1.8 0.85 2.05 0.7 L2.05 0.65 1.15 0.85 0.5 0.95 0.3 1.0 Q0.8 0.8 1.35 0.75 1.65 0.75 1.8 0.65 2.7 0.35 2.95 -0.25 L3.0 -0.3 Q3.05 -0.55 3.05 -0.8 L3.05 -1.05 3.0 -1.1 3.05 -1.15 Q3.0 -1.35 2.9 -1.55 2.6 -2.05 2.25 -2.4 L2.15 -2.45 1.95 -2.65 1.1 -3.15 Q0.45 -3.45 -0.4 -3.6 L-0.85 -3.6 Q-1.05 -3.6 -1.25 -3.5 L-1.35 -3.5 -1.6 -3.25 -1.65 -3.15 Q-1.85 -2.9 -2.0 -2.5 -2.2 -1.95 -2.3 -1.4 L-2.3 -1.35 -2.2 -1.3 -2.25 -1.3 -2.45 -1.4 -2.6 -1.45 M2.6 -3.2 L2.6 -3.15 2.65 -3.1 Q2.6 -3.15 2.6 -3.2 M3.15 -1.15 L3.15 -1.15 M2.7 0.25 L2.8 0.2 2.65 0.3 2.7 0.25 M-1.75 -0.95 L-1.8 -1.0 -1.75 -0.95 M-2.4 -1.55 L-2.35 -1.6 -2.4 -1.6 -2.4 -1.55" fill="#101010" fill-rule="evenodd" stroke="none"/>
      <path d="M1.1 1.1 Q0.45 1.25 0.05 1.25 L-0.2 1.25 -0.15 1.4 Q0.0 1.65 0.0 1.8 0.0 1.95 -0.2 2.35 -0.4 2.7 -0.6 2.8 L-0.9 3.2 -1.45 3.95 Q-1.6 4.05 -2.3 4.05 L-2.75 4.0 Q-2.95 3.95 -3.0 3.85 L-3.5 3.5 -4.15 3.0 Q-4.6 2.9 -5.0 2.35 -5.35 1.9 -5.35 1.7 -5.35 1.6 -5.25 1.3 -5.1 0.95 -4.95 0.85 L-4.75 0.75 -4.55 0.9 Q-4.1 0.8 -3.85 0.4 L-3.65 0.0 -3.55 -0.3 -3.6 -0.25 -3.65 -0.25 -3.55 -0.35 -3.55 -0.4 -3.6 -0.4 -3.6 -0.45 -4.0 -0.95 -3.95 -1.05 Q-3.9 -1.15 -3.75 -1.15 L-3.3 -1.35 -2.8 -1.5 -2.75 -1.5 -2.6 -1.45 -2.45 -1.4 -2.25 -1.3 -2.2 -1.3 Q-1.9 -1.15 -1.8 -1.0 L-1.75 -0.95 -1.75 -0.85 -1.35 -0.5 -0.9 -0.05 -0.85 0.0 -0.7 0.1 -0.65 0.25 -0.6 0.3 -0.55 0.4 -0.5 0.35 -0.45 0.35 Q-0.4 0.3 -0.3 0.25 L-0.3 0.35 -0.4 0.55 -0.45 0.6 -0.5 0.6 -0.4 0.8 -0.35 0.75 -0.25 0.65 -0.2 0.65 -0.1 0.55 -0.1 0.6 Q-0.1 0.75 -0.25 0.95 L-0.3 1.0 -0.3 1.05 -0.1 1.05 -0.05 1.0 0.3 1.0 0.5 0.95 1.15 0.85 2.05 0.65 2.05 0.7 Q1.8 0.85 1.15 1.05 L1.1 1.1 M-2.5 -1.1 Q-2.7 -1.2 -2.85 -1.2 L-2.95 -1.2 Q-3.05 -1.15 -3.25 -1.05 -3.45 -0.95 -3.6 -0.9 L-3.55 -0.8 -3.35 -0.6 Q-3.35 -0.65 -3.35 -0.55 L-3.35 -0.5 Q-3.3 -0.4 -3.45 -0.25 L-3.55 -0.05 -3.75 0.4 Q-4.0 0.95 -4.5 1.05 L-4.8 1.05 -4.8 1.0 -4.9 1.35 -5.05 1.65 -5.05 1.7 -5.0 1.9 -3.8 2.9 Q-3.25 3.35 -3.0 3.6 L-3.0 3.65 -2.15 3.75 Q-1.8 3.75 -1.15 3.1 -0.55 2.45 -0.55 2.1 L-0.5 1.75 -0.45 1.45 -0.45 1.25 -0.5 1.2 -0.55 1.25 Q-0.65 1.3 -0.8 1.3 L-0.65 1.1 -0.55 1.0 -0.55 0.95 -0.5 0.9 -0.5 0.85 -0.6 0.7 -0.7 0.8 -1.05 1.0 -1.05 0.95 Q-1.0 0.75 -0.8 0.55 L-0.75 0.55 -0.7 0.5 -0.8 0.3 -0.85 0.25 Q-0.8 0.2 -1.3 -0.25 L-1.45 -0.45 -1.8 -0.75 Q-1.75 -0.65 -1.85 -0.75 L-1.9 -0.75 -1.95 -0.85 -2.0 -0.85 Q-2.2 -0.95 -2.4 -1.05 L-2.45 -1.05 -2.5 -1.1 M-4.1 2.15 Q-4.0 2.2 -3.85 2.3 L-3.6 2.45 Q-3.2 2.75 -2.45 3.45 L-2.55 3.55 Q-3.7 2.45 -3.95 2.3 L-4.7 1.75 -4.65 1.8 -4.25 2.05 -4.05 2.15 -4.1 2.15 M-0.25 1.85 L-0.25 1.85" fill="#000000" fill-rule="evenodd" stroke="none"/>
    </g>
  </defs>
</svg>
