<?xml version="1.0" encoding="UTF-8" standalone="no"?>
<svg xmlns:ffdec="https://www.free-decompiler.com/flash" xmlns:xlink="http://www.w3.org/1999/xlink" ffdec:objectType="shape" height="26.2px" width="8.05px" xmlns="http://www.w3.org/2000/svg">
  <g transform="matrix(1.0, 0.0, 0.0, 1.0, 3.8, 13.35)">
    <path d="M-2.6 -13.0 L-2.6 -13.0" fill="#696457" fill-rule="evenodd" stroke="none"/>
    <path d="M-2.4 -2.5 L-2.65 -3.45 -3.05 -4.75 Q-3.8 -8.1 -3.8 -9.2 -3.8 -10.3 -3.45 -11.8 L-3.25 -12.7 -3.25 -12.75 -3.05 -13.3 Q-1.85 -13.45 -0.7 -13.0 -0.15 -12.85 0.3 -12.55 1.9 -11.55 2.55 -9.8 L2.7 -9.45 Q5.25 -0.6 3.6 8.55 2.6 14.15 -1.35 12.5 -1.9 12.25 -2.15 11.5 -2.65 10.1 -2.45 8.7 -2.4 8.6 -2.35 8.6 -2.3 8.6 -2.2 8.4 L-2.05 8.45 Q-1.75 8.45 -1.6 6.7 L-1.5 4.95 Q-1.5 2.55 -1.85 0.2 L-1.85 0.0 Q-1.85 -0.6 -2.15 -1.8 L-2.25 -2.3 -2.4 -2.5 M-2.6 -13.0 L-2.7 -12.95 -2.8 -12.8 -2.85 -12.65 -2.7 -12.8 -2.7 -11.65 Q-2.7 -7.55 -2.1 -3.5 -1.8 -2.9 -1.65 -1.95 L-1.3 0.3 Q-1.15 1.25 -1.05 2.45 -0.95 3.85 -0.95 4.75 -0.95 5.1 -1.1 6.5 L-1.3 8.0 Q-1.3 8.2 -1.5 9.1 L-1.6 9.55 Q-1.5 10.85 -0.95 12.05 L-0.5 12.6 Q1.95 11.35 2.45 8.6 4.15 -0.8 1.9 -9.8 L1.7 -10.1 Q0.25 -12.4 -2.45 -12.95 L-2.6 -13.0" fill="#1a1a1a" fill-rule="evenodd" stroke="none"/>
    <path d="M-1.85 0.2 Q-2.05 -1.15 -2.4 -2.5 L-2.25 -2.3 -2.15 -1.8 Q-1.85 -0.6 -1.85 0.0 L-1.85 0.2 M-2.6 -13.0 L-2.45 -12.95 Q0.25 -12.4 1.7 -10.1 L1.9 -9.8 Q4.15 -0.8 2.45 8.6 1.95 11.35 -0.5 12.6 L-0.95 12.05 Q-1.5 10.85 -1.6 9.55 L-1.5 9.1 Q-1.3 8.2 -1.3 8.0 L-1.1 6.5 Q-0.95 5.1 -0.95 4.75 -0.95 3.85 -1.05 2.45 -1.15 1.25 -1.3 0.3 L-1.65 -1.95 Q-1.8 -2.9 -2.1 -3.5 -2.7 -7.55 -2.7 -11.65 L-2.7 -12.8 -2.85 -12.65 -2.8 -12.8 -2.7 -12.95 -2.6 -13.0 -2.6 -13.0 M-1.3 -10.15 Q-2.05 -7.35 -0.9 -4.7 0.0 -7.35 -1.15 -9.85 L-1.3 -10.15" fill="#304040" fill-rule="evenodd" stroke="none"/>
    <path d="M-1.3 -10.15 L-1.15 -9.85 Q0.0 -7.35 -0.9 -4.7 -2.05 -7.35 -1.3 -10.15" fill="#506060" fill-rule="evenodd" stroke="none"/>
  </g>
</svg>
