<?xml version="1.0" encoding="UTF-8" standalone="no"?>
<svg xmlns:ffdec="https://www.free-decompiler.com/flash" xmlns:xlink="http://www.w3.org/1999/xlink" ffdec:objectType="shape" height="26.2px" width="7.5px" xmlns="http://www.w3.org/2000/svg">
  <g transform="matrix(1.0, 0.0, 0.0, 1.0, 3.7, 13.4)">
    <path d="M3.6 -11.5 L3.65 -11.2 3.8 -10.7 3.75 -10.3 3.75 -10.05 Q3.75 -7.6 2.85 -4.65 L2.4 -3.15 2.35 -2.95 2.1 2.85 2.0 4.5 1.85 6.15 1.75 6.9 Q1.75 7.2 1.8 7.8 L2.0 7.6 Q3.85 11.5 0.25 12.65 -1.6 13.25 -2.3 11.9 L-2.35 11.95 Q-2.65 11.8 -2.85 10.75 L-2.9 10.8 Q-3.1 10.65 -3.15 10.3 L-3.15 9.85 Q-3.0 8.1 -3.0 7.25 L-3.1 6.05 -3.35 3.65 Q-3.65 1.25 -3.65 -0.6 L-3.55 -2.5 Q-3.55 -2.7 -3.55 -3.5 L-3.55 -3.65 -3.6 -4.0 -3.7 -4.9 Q-3.7 -8.4 -2.0 -10.95 -1.35 -11.9 -0.6 -12.5 0.1 -13.05 0.55 -13.05 L0.85 -13.05 1.8 -13.3 1.9 -13.35 2.05 -13.4 2.25 -13.4 2.3 -13.35 2.55 -13.4 3.0 -13.1 2.75 -13.05 Q3.2 -12.35 3.45 -11.65 L3.6 -11.5 M1.75 -3.1 L1.8 -3.3 2.2 -4.55 2.45 -5.35 2.85 -6.65 Q3.1 -8.35 2.95 -9.8 L2.55 -13.05 Q-3.3 -11.5 -2.65 -5.65 L-2.65 -5.25 Q-2.65 -3.85 -2.35 -2.1 L-2.7 -2.35 -2.6 -2.0 -2.6 -1.85 Q-2.65 -1.85 -2.75 -1.85 L-2.8 -1.85 -2.85 -1.6 -2.95 -1.8 -2.95 -1.2 -2.75 1.65 Q-2.6 4.1 -2.6 5.2 -2.6 5.65 -2.3 7.95 -2.05 8.7 -1.75 9.3 0.1 12.7 0.25 12.6 2.55 10.05 1.85 9.9 1.5 9.8 1.55 8.5 L1.45 8.75 1.3 8.95 1.2 9.2 1.1 9.2 1.05 9.05 1.0 8.85 1.15 7.6 1.25 6.75 1.3 6.1 1.35 5.35 1.4 4.05 1.5 2.4 1.6 1.55 Q1.55 1.55 1.55 1.45 L1.65 0.6 1.7 0.45 1.7 -0.4 1.75 -1.0 1.65 -0.55 1.65 -0.65 Q1.65 -1.2 1.3 0.15 L1.25 0.35 1.2 0.35 1.2 0.5 1.15 0.5 1.0 0.75 0.95 0.65 1.35 -1.05 1.65 -2.7 1.75 -3.1 M2.55 -3.5 L2.5 -3.5 2.6 -3.7 2.55 -3.5" fill="#1a1a1a" fill-rule="evenodd" stroke="none"/>
    <path d="M0.05 -7.15 Q-0.15 -8.5 1.1 -10.15 1.85 -7.4 0.85 -4.05 0.25 -5.8 0.05 -7.15" fill="#506060" fill-rule="evenodd" stroke="none"/>
    <path d="M0.05 -7.15 Q0.25 -5.8 0.85 -4.05 1.85 -7.4 1.1 -10.15 -0.15 -8.5 0.05 -7.15 M1.65 -2.7 L1.35 -1.05 0.95 0.65 1.0 0.75 1.15 0.5 1.2 0.5 1.2 0.35 1.25 0.35 1.3 0.15 Q1.65 -1.2 1.65 -0.65 L1.65 -0.55 1.75 -1.0 1.7 -0.4 1.7 0.45 1.65 0.6 1.55 1.45 Q1.55 1.55 1.6 1.55 L1.5 2.4 1.4 4.05 1.35 5.35 1.3 6.1 1.25 6.75 1.15 7.6 1.0 8.85 1.05 9.05 1.1 9.2 1.2 9.2 1.3 8.95 1.45 8.75 1.55 8.5 Q1.5 9.8 1.85 9.9 2.55 10.05 0.25 12.6 0.1 12.7 -1.75 9.3 -2.05 8.7 -2.3 7.95 -2.6 5.65 -2.6 5.2 -2.6 4.1 -2.75 1.65 L-2.95 -1.2 -2.95 -1.8 -2.85 -1.6 -2.8 -1.85 -2.75 -1.85 Q-2.65 -1.85 -2.6 -1.85 L-2.6 -2.0 -2.7 -2.35 -2.35 -2.1 Q-2.65 -3.85 -2.65 -5.25 L-2.65 -5.65 Q-3.3 -11.5 2.55 -13.05 L2.95 -9.8 Q3.1 -8.35 2.85 -6.65 L2.45 -5.35 2.2 -4.55 1.8 -3.3 1.75 -3.1 1.7 -2.95 1.65 -2.7" fill="#304040" fill-rule="evenodd" stroke="none"/>
  </g>
</svg>
