<?xml version="1.0" encoding="UTF-8" standalone="no"?>
<svg xmlns:ffdec="https://www.free-decompiler.com/flash" xmlns:xlink="http://www.w3.org/1999/xlink" ffdec:objectType="shape" height="26.35px" width="26.35px" xmlns="http://www.w3.org/2000/svg">
  <g transform="matrix(1.0, 0.0, 0.0, 1.0, 20.3, 16.6)">
    <path d="M-9.15 -14.75 Q-8.5 -14.75 -7.95 -14.45 L-7.8 -14.4 Q-7.4 -14.5 -7.05 -14.4 L-6.95 -14.3 Q-6.4 -14.1 -6.25 -13.45 L-14.1 -4.9 Q-14.55 -4.4 -16.35 -4.4 -17.95 -4.4 -19.15 -6.2 -19.65 -6.9 -19.9 -7.7 -20.15 -8.4 -20.15 -8.9 L-20.2 -9.35 -20.3 -9.85 -20.25 -10.3 -20.25 -10.45 Q-20.25 -11.25 -19.85 -12.15 -19.6 -12.7 -19.3 -13.2 -18.55 -14.4 -17.4 -15.0 L-16.9 -15.3 -16.9 -15.4 Q-15.5 -16.0 -14.15 -15.95 L-13.95 -15.95 -13.9 -16.0 -13.95 -16.0 Q-13.75 -16.3 -13.5 -16.35 L-13.45 -16.35 Q-12.85 -16.6 -11.7 -16.6 -10.75 -16.4 -10.1 -15.8 -9.55 -15.35 -9.4 -14.85 L-9.15 -14.75 M-11.0 -14.65 Q-10.5 -14.9 -10.0 -14.9 L-10.3 -15.35 Q-10.95 -16.15 -11.7 -16.15 L-13.15 -16.1 Q-13.2 -15.95 -13.35 -15.95 L-12.7 -15.9 Q-11.85 -15.75 -11.45 -15.35 -11.2 -15.35 -11.1 -15.15 -11.0 -15.0 -11.0 -14.75 L-11.0 -14.65 M-9.25 -14.4 Q-11.0 -14.4 -12.0 -13.1 -12.25 -12.75 -12.4 -12.4 -12.5 -12.2 -12.5 -12.0 -12.5 -11.85 -12.15 -11.1 L-12.1 -11.05 Q-11.85 -11.55 -11.45 -12.05 -10.6 -13.05 -9.45 -13.7 -9.05 -14.05 -8.65 -14.2 -9.0 -14.4 -9.25 -14.4 M-16.6 -14.3 L-16.6 -14.3 M-16.8 -14.95 Q-17.3 -14.6 -17.75 -14.15 -17.25 -14.5 -16.7 -14.6 L-16.3 -14.65 -16.05 -14.6 -15.6 -14.7 Q-14.1 -14.7 -13.1 -14.4 -12.35 -14.15 -12.1 -13.8 -11.8 -14.2 -11.4 -14.45 L-11.95 -14.9 Q-12.45 -15.3 -12.75 -15.45 L-13.1 -15.5 -13.15 -15.5 Q-15.2 -15.5 -16.75 -14.85 L-16.8 -14.95 M-12.5 -13.2 L-12.8 -13.6 Q-13.5 -14.2 -14.65 -14.2 L-16.5 -14.1 -16.55 -14.05 Q-17.6 -13.65 -18.25 -12.95 -18.5 -12.55 -18.7 -12.05 -19.05 -11.3 -19.25 -10.45 -19.4 -9.85 -19.4 -9.6 -19.4 -8.6 -19.05 -7.6 L-18.6 -6.65 -18.6 -6.7 Q-18.3 -6.15 -17.9 -5.75 L-17.9 -5.7 Q-18.25 -5.85 -18.55 -6.15 L-18.5 -6.05 -18.5 -6.0 -18.05 -5.4 Q-17.3 -4.85 -16.35 -4.85 -15.55 -4.85 -14.7 -5.25 L-14.2 -5.5 -14.2 -5.55 -14.25 -5.5 -14.3 -5.5 Q-14.4 -5.35 -15.5 -5.35 -16.7 -5.35 -17.35 -6.35 -17.7 -6.95 -17.7 -7.6 -18.0 -8.4 -18.0 -9.4 -18.0 -9.9 -17.65 -10.35 -17.2 -10.95 -16.35 -10.95 -16.05 -10.95 -15.7 -10.75 L-15.75 -10.85 Q-15.4 -10.7 -14.85 -10.25 L-14.25 -9.85 -14.0 -9.8 -13.3 -9.8 -12.95 -10.1 -12.95 -10.15 -13.1 -10.6 -13.15 -10.85 Q-13.15 -12.05 -12.65 -12.95 L-12.5 -13.2 M-14.55 -9.0 Q-14.75 -8.7 -14.75 -8.65 L-14.75 -8.35 Q-14.7 -8.2 -14.55 -8.05 -14.45 -8.0 -14.0 -7.75 L-13.5 -9.0 -14.5 -9.05 -14.55 -9.0 M-15.2 -8.85 L-15.3 -8.75 Q-15.45 -8.5 -15.55 -8.25 L-15.5 -7.95 -15.45 -7.55 Q-15.35 -7.4 -15.1 -7.15 L-15.05 -7.15 -14.8 -7.0 -14.3 -6.85 -14.2 -7.25 Q-14.45 -7.3 -14.65 -7.55 -15.05 -7.85 -15.05 -8.55 -15.05 -8.8 -15.0 -8.95 L-15.2 -8.85 M-15.45 -9.65 Q-15.65 -9.8 -15.8 -9.8 -16.7 -9.8 -17.1 -8.95 -17.3 -8.45 -17.3 -8.0 -17.3 -7.8 -17.35 -7.65 L-17.25 -7.35 -17.0 -6.85 -16.8 -6.6 Q-16.0 -5.8 -14.95 -5.8 -14.6 -5.8 -14.3 -6.1 L-14.3 -6.25 -14.65 -6.25 Q-15.45 -6.25 -15.95 -7.0 -16.3 -7.55 -16.3 -8.0 L-16.25 -8.35 -16.15 -8.7 -16.15 -8.85 Q-16.05 -9.3 -15.55 -9.6 L-15.45 -9.65 M-7.05 -12.9 L-8.05 -13.7 Q-9.85 -12.95 -10.7 -11.7 L-7.05 -12.9" fill="#111111" fill-rule="evenodd" stroke="none"/>
    <path d="M-11.0 -14.65 L-11.0 -14.75 Q-11.0 -15.0 -11.1 -15.15 -11.2 -15.35 -11.45 -15.35 -11.85 -15.75 -12.7 -15.9 L-13.35 -15.95 Q-13.2 -15.95 -13.15 -16.1 L-11.7 -16.15 Q-10.95 -16.15 -10.3 -15.35 L-10.0 -14.9 Q-10.5 -14.9 -11.0 -14.65 M-15.45 -9.65 L-15.55 -9.6 Q-16.05 -9.3 -16.15 -8.85 L-16.15 -8.7 -16.25 -8.35 -16.3 -8.0 Q-16.3 -7.55 -15.95 -7.0 -15.45 -6.25 -14.65 -6.25 L-14.3 -6.25 -14.3 -6.1 Q-14.6 -5.8 -14.95 -5.8 -16.0 -5.8 -16.8 -6.6 L-17.0 -6.85 -17.25 -7.35 -17.35 -7.65 Q-17.3 -7.8 -17.3 -8.0 -17.3 -8.45 -17.1 -8.95 -16.7 -9.8 -15.8 -9.8 -15.65 -9.8 -15.45 -9.65 M-15.2 -8.85 L-15.0 -8.95 Q-15.05 -8.8 -15.05 -8.55 -15.05 -7.85 -14.65 -7.55 -14.45 -7.3 -14.2 -7.25 L-14.3 -6.85 -14.8 -7.0 -15.05 -7.15 -15.1 -7.15 Q-15.35 -7.4 -15.45 -7.55 L-15.5 -7.95 -15.55 -8.25 Q-15.45 -8.5 -15.3 -8.75 L-15.2 -8.85 M-14.55 -9.0 L-14.5 -9.05 -13.5 -9.0 -14.0 -7.75 Q-14.45 -8.0 -14.55 -8.05 -14.7 -8.2 -14.75 -8.35 L-14.75 -8.65 Q-14.75 -8.7 -14.55 -9.0 M-12.5 -13.2 L-12.65 -12.95 Q-13.15 -12.05 -13.15 -10.85 L-13.1 -10.6 -12.95 -10.15 -12.95 -10.1 -13.3 -9.8 -14.0 -9.8 -14.25 -9.85 -14.85 -10.25 Q-15.4 -10.7 -15.75 -10.85 L-15.7 -10.75 Q-16.05 -10.95 -16.35 -10.95 -17.2 -10.95 -17.65 -10.35 -18.0 -9.9 -18.0 -9.4 -18.0 -8.4 -17.7 -7.6 -17.7 -6.95 -17.35 -6.35 -16.7 -5.35 -15.5 -5.35 -14.4 -5.35 -14.3 -5.5 L-14.25 -5.5 -14.2 -5.55 -14.2 -5.5 -14.7 -5.25 Q-15.55 -4.85 -16.35 -4.85 -17.3 -4.85 -18.05 -5.4 L-18.5 -6.0 -18.5 -6.05 -18.55 -6.15 Q-18.25 -5.85 -17.9 -5.7 L-17.9 -5.75 Q-18.3 -6.15 -18.6 -6.7 L-18.6 -6.65 -19.05 -7.6 Q-19.4 -8.6 -19.4 -9.6 -19.4 -9.85 -19.25 -10.45 -19.05 -11.3 -18.7 -12.05 -18.5 -12.55 -18.25 -12.95 -17.6 -13.65 -16.55 -14.05 L-16.5 -14.1 -14.65 -14.2 Q-13.5 -14.2 -12.8 -13.6 L-12.5 -13.2 M-16.8 -14.95 L-16.75 -14.85 Q-15.2 -15.5 -13.15 -15.5 L-13.1 -15.5 -12.75 -15.45 Q-12.45 -15.3 -11.95 -14.9 L-11.4 -14.45 Q-11.8 -14.2 -12.1 -13.8 -12.35 -14.15 -13.1 -14.4 -14.1 -14.7 -15.6 -14.7 L-16.05 -14.6 -16.3 -14.65 -16.7 -14.6 Q-17.25 -14.5 -17.75 -14.15 -17.3 -14.6 -16.8 -14.95" fill="#003366" fill-rule="evenodd" stroke="none"/>
    <path d="M-9.25 -14.4 Q-9.0 -14.4 -8.65 -14.2 -9.05 -14.05 -9.45 -13.7 -10.6 -13.05 -11.45 -12.05 -11.85 -11.55 -12.1 -11.05 L-12.15 -11.1 Q-12.5 -11.85 -12.5 -12.0 -12.5 -12.2 -12.4 -12.4 -12.25 -12.75 -12.0 -13.1 -11.0 -14.4 -9.25 -14.4 M-7.05 -12.9 L-10.7 -11.7 Q-9.85 -12.95 -8.05 -13.7 L-7.05 -12.9" fill="#506060" fill-rule="evenodd" stroke="none"/>
    <path d="M3.45 -9.5 L3.6 -9.05 3.3 -9.15 Q1.85 -9.85 0.35 -9.1 L0.1 -8.95 -0.35 -8.6 0.05 -8.8 Q3.1 -10.1 4.25 -6.95 L4.3 -6.75 Q4.05 -7.15 3.75 -7.5 2.4 -8.85 0.55 -8.25 L0.35 -8.2 0.15 -8.1 -0.95 -9.15 2.0 -10.5 3.45 -9.55 3.45 -9.5 M0.8 -12.1 L1.05 -12.0 Q1.95 -11.45 2.45 -10.55 L2.2 -10.6 1.25 -10.65 1.0 -10.6 Q-0.2 -10.35 -1.0 -9.3 L-1.9 -10.1 -1.7 -10.05 Q-3.0 -12.15 -4.75 -13.85 L-4.15 -13.95 Q-3.0 -13.4 -2.35 -12.35 L-3.2 -13.9 -2.9 -14.0 -2.4 -13.7 -2.2 -13.5 Q-1.45 -12.5 -1.75 -11.25 L-2.25 -12.1 -1.55 -10.05 -0.95 -12.95 -0.65 -12.95 Q0.0 -12.95 0.45 -12.45 L-1.35 -9.7 0.8 -12.1 M3.6 -9.95 L3.35 -10.1 Q3.45 -10.1 3.5 -10.05 3.6 -10.05 3.6 -9.95 M2.15 -8.25 L2.5 -8.05 Q3.55 -7.45 4.25 -6.5 L4.45 -5.75 4.5 -5.6 4.4 -5.75 4.05 -6.5 Q2.4 -7.65 0.35 -7.8 L2.15 -8.25 M0.25 -7.55 L0.7 -7.6 0.8 -7.4 Q2.25 -7.15 3.2 -6.5 L3.6 -5.75 Q3.95 -5.4 4.7 -3.1 5.45 -0.8 5.1 1.45 L4.55 4.75 Q5.1 -1.15 2.65 -5.05 L2.25 -5.75 1.75 -6.5 Q1.1 -6.85 0.35 -7.15 L0.25 -7.55 M-3.15 -14.3 L-3.15 -14.25 Q-3.05 -14.1 -3.3 -14.15 L-3.15 -14.3 M4.05 -8.65 Q4.0 -8.65 4.0 -8.7 3.95 -8.75 3.95 -8.8 L4.05 -8.65 M-6.45 6.95 L-6.7 6.4 Q-8.7 2.75 -8.35 -1.35 -8.1 -3.6 -7.55 -5.75 L-7.3 -6.3 -7.65 -6.05 -8.05 -5.75 Q-8.85 -5.25 -9.65 -4.8 -11.35 -3.95 -13.25 -3.5 L-12.45 -5.75 -12.45 -5.8 Q-10.1 -9.7 -5.4 -10.1 L-6.4 -10.1 Q-4.8 -10.4 -3.15 -10.1 L-4.35 -10.1 -3.55 -9.95 Q-2.3 -9.7 -1.25 -9.0 -1.9 -9.35 -2.55 -9.5 L-3.9 -9.55 -5.2 -8.1 Q-4.75 -8.3 -4.2 -8.4 L-2.2 -8.45 -2.65 -8.3 Q-4.0 -7.65 -4.9 -6.45 -4.45 -6.9 -3.85 -7.2 -2.2 -8.05 -0.35 -7.6 -1.75 -6.8 -2.9 -5.75 -5.05 -3.85 -6.05 -1.35 -7.2 2.05 -5.85 5.4 L-6.05 5.0 Q-7.45 1.95 -6.8 -1.35 -6.35 -3.6 -5.45 -5.75 L-5.45 -5.75 Q-5.65 -5.5 -5.75 -5.25 -6.6 -3.35 -7.15 -1.35 -8.4 2.8 -6.55 6.65 L-6.35 6.95 -6.45 6.95 M-13.7 -4.95 L-14.0 -5.25 -13.25 -8.7 Q-11.95 -9.8 -10.3 -10.25 L-12.25 -10.05 Q-8.15 -14.1 -3.4 -10.5 L-3.85 -10.5 Q-10.2 -10.9 -13.25 -5.75 L-13.7 -4.95 M-9.95 -3.8 L-8.45 -4.75 -8.55 -1.35 -8.5 0.9 -8.65 0.85 Q-10.9 0.85 -11.55 0.65 -12.25 0.45 -13.0 -0.45 L-13.05 -0.45 Q-13.1 0.0 -12.0 0.7 -10.7 1.5 -9.1 1.5 L-9.0 1.5 -9.05 1.55 -9.3 1.65 -9.3 1.6 -10.6 1.7 Q-12.25 1.7 -13.0 0.8 -13.4 0.25 -13.4 -0.3 -13.4 -0.7 -13.3 -0.8 -13.2 -0.9 -12.95 -0.8 -12.25 -0.5 -11.6 -0.25 L-11.7 -0.5 Q-11.2 -0.35 -10.7 -0.4 -10.2 -0.45 -9.75 -0.65 L-9.75 -0.4 -8.75 -1.75 -10.35 -1.0 -10.4 -1.3 -12.55 -1.35 -13.7 -2.65 -10.0 -3.8 -10.05 -3.75 -9.95 -3.8 M-2.45 -5.9 L-3.7 -4.1 -0.3 -7.45 0.0 -7.4 -1.4 -5.75 Q-2.75 -3.65 -3.8 -1.35 -5.1 1.45 -5.1 4.5 L-5.2 3.95 Q-5.75 1.3 -5.25 -1.35 -4.5 -3.85 -2.55 -5.75 L-2.45 -5.9 M-2.95 -11.1 L-2.6 -10.65 Q-5.5 -12.15 -8.8 -12.65 L-8.25 -13.5 -7.85 -13.6 Q-4.4 -14.35 -2.95 -11.1 M-1.25 -13.75 L-1.1 -13.3 -1.55 -12.1 -1.95 -13.95 -1.25 -13.75 M-11.5 0.1 L-11.6 0.1 -11.5 0.15 -11.5 0.1" fill="#003366" fill-rule="evenodd" stroke="none"/>
    <path d="M0.8 -12.1 L-1.35 -9.7 0.45 -12.45 Q0.0 -12.95 -0.65 -12.95 L-0.95 -12.95 -1.55 -10.05 -2.25 -12.1 -1.75 -11.25 Q-1.45 -12.5 -2.2 -13.5 L-2.4 -13.7 -2.9 -14.0 -3.2 -13.9 -2.35 -12.35 Q-3.0 -13.4 -4.15 -13.95 L-4.75 -13.85 Q-3.0 -12.15 -1.7 -10.05 L-1.9 -10.1 -1.0 -9.3 Q-0.2 -10.35 1.0 -10.6 L1.25 -10.65 2.2 -10.6 2.45 -10.55 Q1.95 -11.45 1.05 -12.0 L0.8 -12.1 M3.45 -9.55 L2.0 -10.5 -0.95 -9.15 0.15 -8.1 0.35 -8.2 0.55 -8.25 Q2.4 -8.85 3.75 -7.5 4.05 -7.15 4.3 -6.75 L4.25 -6.95 Q3.1 -10.1 0.05 -8.8 L-0.35 -8.6 0.1 -8.95 0.35 -9.1 Q1.85 -9.85 3.3 -9.15 L3.6 -9.05 3.45 -9.5 3.45 -9.55 M0.25 -7.55 L0.35 -7.15 Q1.1 -6.85 1.75 -6.5 L2.25 -5.75 2.65 -5.05 Q5.1 -1.15 4.55 4.75 L5.1 1.45 Q5.45 -0.8 4.7 -3.1 3.95 -5.4 3.6 -5.75 L3.2 -6.5 Q2.25 -7.15 0.8 -7.4 L0.7 -7.6 0.25 -7.55 M2.15 -8.25 L0.35 -7.8 Q2.4 -7.65 4.05 -6.5 L4.4 -5.75 4.5 -5.6 4.45 -5.75 4.25 -6.5 Q3.55 -7.45 2.5 -8.05 L2.15 -8.25 M3.35 -10.1 L3.6 -9.95 3.95 -8.8 Q3.95 -8.75 4.0 -8.7 4.0 -8.65 4.05 -8.65 4.95 -8.0 4.7 -6.9 L4.65 -6.8 4.8 -6.5 Q4.9 -6.15 5.05 -6.05 5.25 -6.0 5.8 -3.15 6.4 -0.25 5.45 3.65 4.45 7.55 4.3 8.35 L3.9 5.2 3.9 4.0 3.7 1.2 Q3.6 -0.5 3.2 -1.55 2.6 -4.2 1.3 -5.8 0.8 -6.45 0.45 -6.55 L0.25 -6.55 0.2 -6.6 -0.65 -5.75 Q-2.25 -3.7 -2.95 -1.35 -3.8 2.05 -2.35 5.3 L-2.1 5.8 Q-4.05 3.7 -4.1 0.8 L-4.15 -0.15 Q-4.85 4.85 -3.6 9.75 L-4.95 6.6 -4.45 8.75 -6.15 5.6 -6.25 8.15 -7.6 4.85 -7.65 4.9 -7.65 4.95 -7.7 4.95 -7.7 4.9 -8.45 1.65 -9.45 2.6 -9.45 2.5 Q-9.75 2.6 -10.05 2.6 -11.75 2.6 -12.95 1.35 -13.35 0.9 -13.65 0.4 -13.85 0.0 -13.85 -0.15 -13.85 -0.7 -13.65 -1.35 L-13.85 -2.05 Q-14.0 -2.8 -14.4 -3.45 L-14.05 -3.6 -14.25 -5.75 Q-14.2 -10.5 -9.3 -12.6 -7.7 -15.05 -4.95 -14.0 L-3.9 -14.4 -3.3 -14.15 Q-3.05 -14.1 -3.15 -14.25 L-3.15 -14.3 -2.55 -14.6 -1.15 -14.1 -0.8 -13.4 Q0.45 -12.85 1.6 -12.05 2.5 -11.45 2.85 -10.4 L3.35 -10.1 M-6.35 6.95 L-6.55 6.65 Q-8.4 2.8 -7.15 -1.35 -6.6 -3.35 -5.75 -5.25 -5.65 -5.5 -5.45 -5.75 L-5.45 -5.75 Q-6.35 -3.6 -6.8 -1.35 -7.45 1.95 -6.05 5.0 L-5.85 5.4 Q-7.2 2.05 -6.05 -1.35 -5.05 -3.85 -2.9 -5.75 -1.75 -6.8 -0.35 -7.6 -2.2 -8.05 -3.85 -7.2 -4.45 -6.9 -4.9 -6.45 -4.0 -7.65 -2.65 -8.3 L-2.2 -8.45 -4.2 -8.4 Q-4.75 -8.3 -5.2 -8.1 L-3.9 -9.55 -2.55 -9.5 Q-1.9 -9.35 -1.25 -9.0 -2.3 -9.7 -3.55 -9.95 L-4.35 -10.1 -3.15 -10.1 Q-4.8 -10.4 -6.4 -10.1 L-5.4 -10.1 Q-10.1 -9.7 -12.45 -5.8 L-12.45 -5.75 -13.25 -3.5 Q-11.35 -3.95 -9.65 -4.8 -8.85 -5.25 -8.05 -5.75 L-7.65 -6.05 -7.3 -6.3 -7.55 -5.75 Q-8.1 -3.6 -8.35 -1.35 -8.7 2.75 -6.7 6.4 L-6.45 6.95 -6.35 7.15 -6.35 6.95 M-13.7 -4.95 L-13.25 -5.75 Q-10.2 -10.9 -3.85 -10.5 L-3.4 -10.5 Q-8.15 -14.1 -12.25 -10.05 L-10.3 -10.25 Q-11.95 -9.8 -13.25 -8.7 L-14.0 -5.25 -13.7 -4.95 M-13.85 -3.35 L-13.9 -3.35 -13.9 -3.3 -13.85 -3.3 -13.85 -3.35 M-10.0 -3.8 L-13.7 -2.65 -12.55 -1.35 -10.4 -1.3 -10.35 -1.0 -8.75 -1.75 -9.75 -0.4 -9.75 -0.65 Q-10.2 -0.45 -10.7 -0.4 -11.2 -0.35 -11.7 -0.5 L-11.6 -0.25 Q-12.25 -0.5 -12.95 -0.8 -13.2 -0.9 -13.3 -0.8 -13.4 -0.7 -13.4 -0.3 -13.4 0.25 -13.0 0.8 -12.25 1.7 -10.6 1.7 L-9.3 1.6 -9.3 1.65 -9.05 1.55 -9.0 1.5 -9.1 1.5 Q-10.7 1.5 -12.0 0.7 -13.1 0.0 -13.05 -0.45 L-13.0 -0.45 Q-12.25 0.45 -11.55 0.65 -10.9 0.85 -8.65 0.85 L-8.5 0.9 -8.55 -1.35 -8.45 -4.75 -9.95 -3.8 -10.0 -3.8 M-1.25 -13.75 L-1.95 -13.95 -1.55 -12.1 -1.1 -13.3 -1.25 -13.75 M-2.95 -11.1 Q-4.4 -14.35 -7.85 -13.6 L-8.25 -13.5 -8.8 -12.65 Q-5.5 -12.15 -2.6 -10.65 L-2.95 -11.1 M-2.45 -5.9 L-2.55 -5.75 Q-4.5 -3.85 -5.25 -1.35 -5.75 1.3 -5.2 3.95 L-5.1 4.5 Q-5.1 1.45 -3.8 -1.35 -2.75 -3.65 -1.4 -5.75 L0.0 -7.4 -0.3 -7.45 -3.7 -4.1 -2.45 -5.9 M-11.5 0.1 L-11.5 0.15 -11.6 0.1 -11.5 0.1" fill="#121212" fill-rule="evenodd" stroke="none"/>
  </g>
</svg>
