<?xml version="1.0" encoding="UTF-8" standalone="no"?>
<svg xmlns:ffdec="https://www.free-decompiler.com/flash" xmlns:xlink="http://www.w3.org/1999/xlink" ffdec:objectType="shape" height="6.25px" width="19.95px" xmlns="http://www.w3.org/2000/svg">
  <g transform="matrix(1.0, 0.0, 0.0, 1.0, 8.75, 7.8)">
    <path d="M5.15 -6.25 L5.2 -6.25 5.9 -5.95 6.1 -5.8 6.55 -5.5 6.6 -5.45 7.15 -4.85 7.3 -4.65 7.3 -4.6 7.5 -4.2 7.5 -4.25 7.55 -4.3 Q7.8 -4.15 7.7 -3.9 L7.7 -3.85 7.6 -3.85 7.65 -3.8 7.65 -3.75 7.55 -3.8 7.5 -3.8 7.6 -3.7 6.85 -3.7 6.05 -3.65 5.0 -3.5 4.3 -3.35 4.35 -3.4 3.8 -3.25 3.75 -3.1 3.7 -3.1 Q3.35 -3.95 4.2 -4.6 L4.3 -4.65 4.2 -4.65 4.15 -4.7 Q3.65 -4.75 3.2 -5.05 L3.0 -5.2 2.9 -5.3 2.6 -5.3 2.65 -5.5 Q2.75 -5.55 2.85 -5.7 L3.3 -5.75 3.35 -5.8 3.9 -5.7 Q4.35 -5.7 4.75 -5.5 4.3 -5.85 4.2 -6.35 L4.3 -6.35 4.2 -6.4 4.25 -6.45 4.45 -6.4 4.4 -6.45 4.65 -6.4 5.15 -6.25 M4.75 -5.5 L4.75 -5.5 M4.65 -5.25 L4.15 -5.25 Q4.4 -5.1 4.55 -4.7 L4.55 -4.65 4.3 -4.65 4.3 -4.5 4.3 -4.45 4.25 -4.4 4.25 -4.25 Q4.95 -4.7 6.0 -4.65 L6.0 -4.7 6.6 -4.5 7.1 -4.35 7.05 -4.35 7.0 -4.4 7.0 -4.45 7.0 -4.5 6.95 -4.55 6.9 -4.55 6.8 -4.6 6.7 -4.7 6.45 -4.85 6.2 -5.1 5.3 -5.75 5.25 -5.75 5.1 -5.85 5.05 -5.9 4.95 -5.95 4.9 -5.95 4.85 -6.0 4.75 -6.05 4.9 -5.95 4.9 -5.9 5.05 -5.75 5.25 -5.45 Q5.4 -5.4 5.45 -5.25 L5.45 -5.1 5.3 -5.15 5.2 -5.15 5.25 -5.1 4.85 -5.25 4.65 -5.25 M3.9 -3.45 L3.95 -3.5 3.9 -3.4 3.95 -3.45 3.9 -3.45" fill="#111111" fill-rule="evenodd" stroke="none"/>
    <path d="M4.75 -5.5 L4.75 -5.5 M5.0 -3.5 L6.05 -3.65 6.0 -3.35 5.6 -3.55 5.55 -3.55 Q5.4 -3.3 5.3 -3.1 5.15 -3.3 5.0 -3.5 M6.55 -5.5 L6.6 -5.5 6.6 -5.45 6.55 -5.5" fill="#cccccc" fill-rule="evenodd" stroke="none"/>
    <path d="M6.0 -1.65 L6.1 -1.65 6.0 -1.55 6.0 -1.65 M4.9 -5.9 L4.9 -5.95 4.9 -5.9 M6.95 -4.55 L7.0 -4.5 7.0 -4.45 7.0 -4.5 6.95 -4.5 6.95 -4.55 M4.3 -4.45 L4.3 -4.5 4.3 -4.45 M3.9 -3.4 L3.95 -3.5 3.9 -3.45 3.9 -3.4" fill="#999999" fill-rule="evenodd" stroke="none"/>
    <path d="M6.1 -5.8 L5.9 -5.95 5.2 -6.25 5.15 -6.25 5.4 -6.6 5.35 -6.7 5.25 -6.95 Q6.1 -6.95 6.85 -6.95 8.05 -6.05 8.2 -5.0 8.25 -3.9 7.25 -2.6 L7.2 -2.6 6.45 -2.55 6.85 -3.7 7.6 -3.7 7.5 -3.8 7.55 -3.8 7.65 -3.75 7.65 -3.8 7.6 -3.85 7.7 -3.85 7.7 -3.9 Q7.8 -4.15 7.55 -4.3 L7.5 -4.25 7.5 -4.2 7.3 -4.6 7.3 -4.65 7.15 -4.85 7.35 -5.9 Q7.0 -6.15 6.6 -6.2 L6.65 -6.25 Q6.7 -6.55 6.55 -6.7 L6.45 -6.7 Q6.0 -6.15 6.1 -5.8 M3.3 -5.75 L2.85 -5.7 Q2.75 -5.55 2.65 -5.5 L2.6 -5.3 2.9 -5.3 3.0 -5.2 3.2 -5.05 Q3.05 -2.9 4.35 -2.55 L3.55 -2.6 Q2.4 -3.55 2.35 -4.6 2.4 -5.7 3.6 -6.9 L3.85 -6.95 Q3.4 -6.5 3.3 -5.75 M7.0 -4.45 L7.0 -4.4 7.05 -4.35 7.0 -4.45 M3.9 -3.45 L3.95 -3.45 3.9 -3.4 3.9 -3.45" fill="#80c0f0" fill-rule="evenodd" stroke="none"/>
    <path d="M-8.6 -5.75 L-8.65 -5.5 -8.75 -5.5 Q-8.75 -5.65 -8.6 -5.75 M-1.5 -5.7 Q-1.65 -5.15 -1.65 -4.65 L-1.65 -4.5 Q-1.65 -3.9 -1.4 -3.35 L-1.45 -3.35 Q-4.15 -3.85 -7.4 -4.75 L-7.8 -4.85 -7.8 -5.3 -7.75 -5.7 -7.1 -5.8 -6.8 -5.85 -6.7 -5.85 -5.8 -6.0 Q-3.7 -5.45 -1.5 -5.7 M-1.55 -6.5 L-1.15 -6.55 -1.25 -6.4 -1.55 -6.5" fill="#600000" fill-rule="evenodd" stroke="none"/>
    <path d="M-8.6 -5.75 L-8.6 -6.1 -8.25 -6.5 -6.85 -6.7 -2.95 -7.2 -0.45 -7.5 -0.35 -7.5 3.4 -7.75 3.45 -7.75 4.55 -7.8 4.65 -7.8 Q5.95 -7.85 7.0 -7.8 L7.05 -7.8 Q9.9 -7.6 11.0 -6.85 L11.2 -6.45 10.9 -3.0 10.65 -2.65 Q9.45 -2.0 7.55 -1.75 L7.3 -1.75 6.3 -1.7 6.1 -1.65 6.0 -1.65 5.95 -1.65 3.4 -1.75 3.35 -1.75 Q1.55 -1.9 -0.65 -2.3 L-0.7 -2.3 Q-4.1 -2.95 -8.4 -4.15 L-8.7 -4.55 -8.65 -5.35 -8.65 -5.5 -8.6 -5.75 M6.45 -2.55 L7.2 -2.6 7.25 -2.6 Q8.25 -3.9 8.2 -5.0 8.05 -6.05 6.85 -6.95 6.1 -6.95 5.25 -6.95 L3.85 -6.95 3.6 -6.9 Q2.4 -5.7 2.35 -4.6 2.4 -3.55 3.55 -2.6 L4.35 -2.55 6.45 -2.55 M-0.55 -5.85 L-0.65 -5.6 -0.65 -5.65 Q-1.1 -4.3 -0.35 -3.15 L2.2 -2.75 Q1.5 -3.65 1.5 -4.6 1.5 -5.7 2.4 -6.85 L-0.1 -6.65 -0.45 -6.0 -0.5 -6.0 -0.55 -5.85 M10.05 -3.3 L10.3 -6.25 Q9.6 -6.65 8.3 -6.8 9.0 -6.0 9.05 -5.1 9.15 -4.0 8.4 -2.75 9.35 -2.95 10.05 -3.3 M-5.8 -6.0 L-6.7 -5.85 -6.8 -5.85 -7.1 -5.8 -7.75 -5.7 -7.8 -5.3 -7.8 -4.85 -7.4 -4.75 Q-4.15 -3.85 -1.45 -3.35 L-1.4 -3.35 Q-1.65 -3.9 -1.65 -4.5 L-1.65 -4.65 Q-1.65 -5.15 -1.5 -5.7 L-1.45 -5.9 -1.25 -6.4 -1.15 -6.55 -1.55 -6.5 -2.85 -6.35 -5.8 -6.0" fill="#1a1a1a" fill-rule="evenodd" stroke="none"/>
    <path d="M6.1 -5.8 Q6.0 -6.15 6.45 -6.7 L6.55 -6.7 Q6.7 -6.55 6.65 -6.25 L6.6 -6.2 Q7.0 -6.15 7.35 -5.9 L7.15 -4.85 6.6 -5.45 6.6 -5.5 6.55 -5.5 6.1 -5.8 M6.85 -3.7 L6.45 -2.55 4.35 -2.55 Q3.05 -2.9 3.2 -5.05 3.65 -4.75 4.15 -4.7 L4.2 -4.65 4.3 -4.65 4.2 -4.6 Q3.35 -3.95 3.7 -3.1 L3.75 -3.1 3.8 -3.25 4.35 -3.4 4.3 -3.35 5.0 -3.5 Q5.15 -3.3 5.3 -3.1 5.4 -3.3 5.55 -3.55 L5.6 -3.55 6.0 -3.35 6.05 -3.65 6.85 -3.7 M5.25 -6.95 L5.35 -6.7 5.4 -6.6 5.15 -6.25 4.65 -6.4 4.4 -6.45 4.45 -6.4 4.25 -6.45 4.2 -6.4 4.3 -6.35 4.2 -6.35 Q4.3 -5.85 4.75 -5.5 4.35 -5.7 3.9 -5.7 L3.35 -5.8 3.3 -5.75 Q3.4 -6.5 3.85 -6.95 L5.25 -6.95" fill="#0070e0" fill-rule="evenodd" stroke="none"/>
    <path d="M4.3 -4.65 L4.55 -4.65 4.55 -4.7 Q4.4 -5.1 4.15 -5.25 L4.65 -5.25 4.85 -5.25 5.25 -5.1 5.2 -5.15 5.3 -5.15 5.45 -5.1 5.45 -5.25 Q5.4 -5.4 5.25 -5.45 L5.05 -5.75 4.9 -5.9 4.9 -5.95 4.75 -6.05 4.85 -6.0 4.9 -5.95 4.95 -5.95 5.05 -5.9 5.1 -5.85 5.25 -5.75 5.3 -5.75 6.2 -5.1 6.45 -4.85 6.7 -4.7 6.8 -4.6 6.9 -4.55 6.95 -4.55 6.95 -4.5 7.0 -4.5 7.0 -4.45 7.05 -4.35 7.1 -4.35 6.6 -4.5 6.0 -4.7 6.0 -4.65 Q4.95 -4.7 4.25 -4.25 L4.25 -4.4 4.3 -4.45 4.3 -4.5 4.3 -4.65 M-0.5 -6.0 L-0.45 -6.0 -0.1 -6.65 2.4 -6.85 Q1.5 -5.7 1.5 -4.6 1.5 -3.65 2.2 -2.75 L-0.35 -3.15 Q-1.1 -4.3 -0.65 -5.65 L-0.65 -5.6 -0.55 -5.85 -0.4 -5.9 -0.5 -6.0 M10.05 -3.3 Q9.35 -2.95 8.4 -2.75 9.15 -4.0 9.05 -5.1 9.0 -6.0 8.3 -6.8 9.6 -6.65 10.3 -6.25 L10.05 -3.3" fill="#f0f0a0" fill-rule="evenodd" stroke="none"/>
    <path d="M-0.55 -5.85 L-0.5 -6.0 -0.4 -5.9 -0.55 -5.85 M-5.8 -6.0 L-2.85 -6.35 -1.55 -6.5 -1.25 -6.4 -1.45 -5.9 -1.5 -5.7 Q-3.7 -5.45 -5.8 -6.0" fill="#b00000" fill-rule="evenodd" stroke="none"/>
  </g>
</svg>
