<?xml version="1.0" encoding="UTF-8" standalone="no"?>
<svg xmlns:ffdec="https://www.free-decompiler.com/flash" xmlns:xlink="http://www.w3.org/1999/xlink" ffdec:objectType="shape" height="18.35px" width="8.15px" xmlns="http://www.w3.org/2000/svg">
  <g transform="matrix(1.0, 0.0, 0.0, 1.0, -0.15, 10.45)">
    <path d="M2.7 -3.7 Q2.7 -3.8 2.85 -3.8 L2.75 -3.7 2.7 -3.7 M3.25 -2.75 L3.3 -2.7 3.25 -2.7 3.25 -2.75" fill="#262626" fill-rule="evenodd" stroke="none"/>
    <path d="M6.45 0.05 L6.6 0.5 6.35 0.15 Q5.5 -1.05 5.2 -2.55 5.15 -3.0 5.15 -3.55 5.1 -4.15 5.2 -4.75 L5.25 -5.1 5.35 -5.6 Q5.6 -6.7 4.75 -7.5 L4.2 -8.05 Q3.65 -8.6 3.25 -9.1 L3.1 -9.15 Q2.8 -9.25 2.7 -9.5 L2.5 -9.75 Q2.3 -9.9 2.2 -10.1 L2.15 -10.2 Q2.65 -10.4 3.15 -10.45 L3.25 -10.35 3.4 -9.85 3.45 -9.5 3.5 -9.3 3.7 -9.15 Q5.95 -7.35 6.5 -4.8 6.65 -4.25 6.7 -3.65 L6.7 -3.55 Q6.7 -3.05 6.7 -2.55 L6.45 0.05 M1.1 4.75 L1.15 5.05 Q1.3 5.35 1.45 5.7 L1.5 5.75 1.5 5.85 Q1.75 6.25 2.1 6.65 2.45 7.05 2.75 7.1 L3.0 7.1 3.1 7.15 3.5 7.2 Q6.2 7.65 7.15 5.35 7.35 4.75 7.5 4.05 L7.6 3.15 7.6 2.6 7.55 2.2 7.2 1.3 7.6 1.9 7.8 2.2 8.0 2.6 8.1 2.85 Q8.75 4.75 7.1 6.5 L6.2 7.25 Q4.9 8.3 3.7 7.75 L3.7 7.7 3.55 7.7 Q3.0 7.6 2.45 7.2 1.6 6.65 1.25 5.75 L1.2 5.55 Q1.05 5.4 1.0 5.15 0.95 4.9 1.1 4.75" fill="#000000" fill-rule="evenodd" stroke="none"/>
    <path d="M3.7 -9.15 L3.5 -9.3 3.45 -9.5 3.4 -9.85 3.7 -9.15" fill="#404040" fill-rule="evenodd" stroke="none"/>
    <path d="M1.4 -1.15 L1.45 -1.2 1.45 -1.15 1.4 -1.15" fill="#c7a36d" fill-rule="evenodd" stroke="none"/>
    <path d="M2.15 -10.2 L2.2 -10.1 Q2.3 -9.9 2.5 -9.75 L2.7 -9.5 Q2.8 -9.25 3.1 -9.15 L3.25 -9.1 Q3.65 -8.6 4.2 -8.05 L4.75 -7.5 Q5.6 -6.7 5.35 -5.6 L5.25 -5.1 5.2 -4.75 Q5.1 -4.15 5.15 -3.55 5.15 -3.0 5.2 -2.55 5.5 -1.05 6.35 0.15 L6.6 0.5 6.45 0.05 6.95 0.75 7.6 1.9 7.2 1.3 7.55 2.2 7.6 2.6 7.6 3.15 7.5 4.05 Q7.35 4.75 7.15 5.35 6.2 7.65 3.5 7.2 L3.1 7.15 3.0 7.1 2.75 7.1 Q2.45 7.05 2.1 6.65 1.75 6.25 1.5 5.85 L1.5 5.75 1.45 5.7 Q1.3 5.35 1.15 5.05 L1.1 4.75 Q0.95 4.2 0.95 3.55 0.9 0.4 0.75 -2.75 0.6 -5.1 1.0 -7.4 1.1 -8.2 1.1 -9.05 1.1 -9.7 1.55 -10.0 L1.65 -10.0 2.15 -10.2 M2.7 -3.7 L2.75 -3.7 2.85 -3.8 Q2.7 -3.8 2.7 -3.7 M1.4 -1.15 L1.45 -1.15 1.45 -1.2 1.4 -1.15 M3.25 -2.75 L3.25 -2.7 3.3 -2.7 3.25 -2.75" fill="#003366" fill-rule="evenodd" stroke="none"/>
    <path d="M0.15 -9.5 L0.15 -9.6 0.25 -9.65 0.3 -9.65 0.3 -9.6 0.15 -9.5" fill="#a9854f" fill-rule="evenodd" stroke="none"/>
  </g>
</svg>
