<?xml version="1.0" encoding="UTF-8" standalone="no"?>
<svg xmlns:ffdec="https://www.free-decompiler.com/flash" xmlns:xlink="http://www.w3.org/1999/xlink" ffdec:objectType="shape" height="15.7px" width="16.5px" xmlns="http://www.w3.org/2000/svg">
  <g transform="matrix(1.0, 0.0, 0.0, 1.0, 12.4, 7.0)">
    <path d="M3.8 3.8 Q3.85 3.75 4.0 3.75 L4.05 3.65 4.1 3.7 4.1 3.8 3.8 4.75 Q3.45 5.8 3.35 6.3 3.05 8.6 1.2 8.7 L1.0 8.7 0.85 8.65 0.3 8.65 -0.05 8.6 Q-1.3 8.45 -2.4 8.2 L-2.75 8.35 -3.3 8.5 Q-3.25 8.55 -3.2 8.55 L-3.9 8.6 -4.05 8.6 Q-5.8 8.65 -7.25 7.2 -8.15 6.35 -8.4 5.2 -8.7 3.55 -9.75 2.15 -9.9 1.95 -9.9 1.8 L-9.95 1.8 Q-10.3 1.8 -10.6 1.7 L-11.0 1.45 Q-11.4 1.2 -11.7 0.8 L-11.95 0.5 -12.0 0.4 -12.05 0.35 -12.2 0.0 -12.3 -0.3 Q-12.4 -0.7 -12.4 -1.1 -12.4 -1.45 -12.25 -1.75 L-12.0 -2.1 -11.55 -2.6 -11.3 -2.8 -11.3 -3.1 -11.35 -3.1 -11.7 -4.35 -11.8 -4.7 -11.85 -5.0 -11.85 -5.05 -11.9 -5.4 -11.9 -5.45 Q-11.9 -5.65 -12.0 -5.8 L-11.65 -5.95 -11.65 -6.1 Q-11.5 -6.1 -11.35 -6.05 L-11.1 -6.15 -11.1 -6.0 -11.1 -5.7 -11.05 -5.6 Q-10.85 -5.1 -10.9 -4.65 -10.8 -4.25 -10.5 -3.55 -10.3 -3.05 -10.25 -2.8 -10.05 -2.75 -9.85 -2.6 L-9.75 -2.55 -9.65 -2.45 Q-9.45 -2.35 -9.35 -2.1 -9.2 -1.85 -9.15 -1.5 L-9.25 -1.4 -9.35 -1.5 -9.6 -1.5 -9.7 -1.7 -9.9 -1.95 Q-10.15 -2.25 -10.5 -2.3 -11.0 -2.2 -11.35 -1.75 -11.65 -1.4 -11.65 -1.2 -11.65 -0.55 -11.3 0.1 -10.9 1.0 -10.3 1.05 L-9.65 1.05 -9.45 1.05 -9.3 1.05 -8.85 0.8 Q-8.65 0.65 -8.45 0.6 L-8.3 0.7 Q-8.25 0.75 -8.25 0.9 -8.25 1.0 -8.3 1.2 L-8.4 1.35 -8.45 1.35 Q-8.7 1.7 -9.1 1.7 L-9.15 1.7 -9.1 1.75 -9.0 1.75 -9.0 1.8 -8.85 1.9 -8.8 2.0 -8.75 2.05 -8.6 2.25 -8.55 2.25 Q-8.3 2.55 -7.95 3.05 L-7.6 3.5 -7.55 3.65 Q-7.05 4.3 -6.8 4.85 L-6.6 5.2 -6.0 5.9 Q-5.55 6.4 -4.9 6.75 -4.55 6.9 -4.0 7.1 -3.0 7.4 -1.4 7.7 L-1.0 7.75 0.1 7.9 1.1 8.05 1.2 8.05 Q2.4 7.85 2.75 7.25 L2.85 7.0 2.85 6.95 Q2.85 6.35 3.1 5.35 3.35 4.2 3.7 3.9 L3.8 3.8 M-10.35 0.5 L-10.45 0.3 Q-10.5 0.15 -10.5 -0.05 L-10.45 -0.3 Q-10.4 -0.45 -10.3 -0.6 L-10.2 -0.7 Q-10.3 -0.75 -10.45 -0.85 L-10.7 -1.0 Q-10.95 -1.2 -11.05 -1.3 L-10.95 -1.45 Q-10.65 -1.8 -10.2 -1.5 -9.75 -1.2 -9.65 -0.75 L-9.6 -0.75 -9.55 -0.7 -9.5 -0.6 -9.9 0.05 -9.9 0.35 Q-9.9 0.6 -9.9 0.55 L-9.9 0.6 Q-9.9 0.65 -10.0 0.65 -10.2 0.65 -10.35 0.5 M2.0 4.6 Q2.15 4.6 2.3 4.65 2.5 4.7 2.55 4.95 2.6 5.05 2.5 5.2 L2.5 5.25 Q2.5 5.3 2.4 5.4 L2.25 5.6 1.95 5.85 2.15 6.0 Q2.25 6.15 2.3 6.3 2.45 6.45 2.45 6.6 L2.4 6.8 2.35 6.9 2.4 6.95 2.35 7.0 Q2.0 7.4 1.2 7.4 0.5 7.4 0.0 7.1 L-0.2 7.0 -0.5 6.8 -0.6 6.7 -0.75 6.7 -0.65 6.65 -0.6 6.65 -0.7 6.6 -1.35 6.15 -1.25 6.15 -1.35 6.1 -1.4 6.1 -1.4 6.05 -1.35 6.0 Q-1.35 5.9 -1.2 5.8 -0.75 5.2 -0.4 5.05 L-0.4 5.0 Q-0.05 4.75 0.3 4.7 L0.35 4.7 0.35 4.75 0.5 4.75 1.25 4.8 Q1.6 4.75 1.75 4.7 1.85 4.65 2.0 4.6 M1.85 4.85 L1.45 4.9 Q1.1 4.95 0.8 4.9 L0.55 4.85 Q0.4 4.9 -0.05 5.05 L-0.65 5.5 Q-0.8 5.6 -0.8 5.65 L-1.05 5.85 -0.6 5.7 0.0 5.55 -0.1 5.55 0.0 5.5 0.1 5.5 Q0.35 5.4 0.45 5.35 0.65 5.3 0.9 5.45 L1.15 5.5 1.6 5.5 1.8 5.35 Q2.0 5.25 2.3 5.2 L2.3 5.15 Q2.35 5.15 2.3 5.15 L2.3 4.9 Q2.25 4.75 2.15 4.75 L1.85 4.85 M1.85 5.55 L1.8 5.55 1.8 5.55 Q1.7 5.55 1.6 5.65 L1.55 5.7 1.45 5.75 1.4 5.75 Q1.3 5.75 1.0 5.65 L0.95 5.6 0.85 5.6 0.45 5.65 0.15 5.75 -0.05 5.8 -0.15 5.85 -0.35 5.9 -0.4 5.9 -0.3 5.95 0.65 6.25 Q1.05 6.4 1.35 6.55 L1.4 6.6 1.4 6.55 1.55 6.45 1.65 6.25 1.6 6.05 1.75 5.85 1.75 5.8 1.85 6.25 1.9 6.3 Q1.9 6.4 1.8 6.5 L1.75 6.55 Q1.65 6.65 1.55 6.65 L1.55 6.7 1.7 6.8 1.5 6.8 1.25 6.7 1.15 6.7 Q0.55 6.6 0.0 6.35 -0.45 6.1 -0.6 5.9 L-0.95 6.0 -1.05 5.9 -1.1 5.95 -0.75 6.2 -0.7 6.2 -0.5 6.4 -0.45 6.4 0.35 7.0 Q0.8 7.2 1.35 7.2 2.05 7.2 2.15 6.75 L2.15 6.65 2.2 6.7 2.2 6.55 Q2.2 6.45 2.05 6.25 L1.95 6.15 2.0 6.15 1.85 5.9 1.8 5.9 1.75 5.85 2.1 5.45 1.95 5.5 1.9 5.55 1.85 5.55 M3.75 4.1 L3.75 4.1 M-7.5 5.55 L-7.45 5.6 -7.4 5.9 Q-7.25 6.45 -6.95 6.85 -6.2 7.7 -4.25 8.05 L-4.15 8.0 -3.4 7.9 Q-4.4 7.6 -5.2 7.2 -6.9 6.35 -7.2 5.5 L-7.55 5.0 Q-7.65 5.25 -7.5 5.55" fill="#111111" fill-rule="evenodd" stroke="none"/>
    <path d="M1.85 4.85 L2.15 4.75 Q2.25 4.75 2.3 4.9 L2.3 5.15 Q2.35 5.15 2.3 5.15 L2.3 5.2 Q2.0 5.25 1.8 5.35 L1.6 5.5 1.15 5.5 0.9 5.45 Q0.65 5.3 0.45 5.35 0.35 5.4 0.1 5.5 L0.0 5.5 -0.1 5.55 0.0 5.55 -0.6 5.7 -1.05 5.85 -0.8 5.65 Q-0.8 5.6 -0.65 5.5 L-0.05 5.05 Q0.4 4.9 0.55 4.85 L0.8 4.9 Q1.1 4.95 1.45 4.9 L1.85 4.85 M0.55 5.25 L0.65 5.3 0.75 5.3 1.1 5.25 Q1.2 5.25 1.2 5.2 L1.2 5.1 Q0.7 5.05 0.55 5.25 M1.85 5.55 L1.9 5.55 1.95 5.5 2.1 5.45 1.75 5.85 1.8 5.9 1.85 5.9 2.0 6.15 1.95 6.15 2.05 6.25 Q2.2 6.45 2.2 6.55 L2.2 6.7 2.15 6.65 2.15 6.75 Q2.05 7.2 1.35 7.2 0.8 7.2 0.35 7.0 L-0.45 6.4 -0.5 6.4 -0.7 6.2 -0.75 6.2 -1.1 5.95 -1.05 5.9 -0.95 6.0 -0.6 5.9 Q-0.45 6.1 0.0 6.35 0.55 6.6 1.15 6.7 L1.25 6.7 1.25 6.85 Q1.3 6.95 1.4 6.95 L1.5 6.9 Q1.55 6.85 1.5 6.8 L1.7 6.8 1.55 6.7 1.55 6.65 Q1.65 6.65 1.75 6.55 L1.8 6.5 Q1.9 6.4 1.9 6.3 L1.85 6.25 1.75 5.8 1.8 5.65 1.8 5.6 1.85 5.55" fill="#833838" fill-rule="evenodd" stroke="none"/>
    <path d="M0.55 5.25 Q0.7 5.05 1.2 5.1 L1.2 5.2 Q1.2 5.25 1.1 5.25 L0.75 5.3 0.65 5.3 0.55 5.25 M0.45 5.65 L0.85 5.6 0.95 5.6 1.0 5.65 Q1.3 5.75 1.4 5.75 L1.45 5.75 1.55 5.7 1.6 5.65 Q1.7 5.55 1.8 5.55 L1.8 5.55 1.85 5.55 1.8 5.6 1.8 5.65 1.75 5.8 1.75 5.85 1.6 6.05 1.55 6.05 1.25 6.1 0.7 6.1 0.4 6.05 0.45 6.0 Q0.35 5.9 0.4 5.85 L0.45 5.7 0.45 5.65 M1.25 6.7 L1.5 6.8 Q1.55 6.85 1.5 6.9 L1.4 6.95 Q1.3 6.95 1.25 6.85 L1.25 6.7 M-0.3 5.95 L-0.4 5.9 -0.35 5.9 -0.3 5.95 -0.25 5.95 -0.3 5.95 M0.0 5.95 L0.1 5.95 0.1 6.0 0.15 6.0 0.0 5.95" fill="#ffffff" fill-rule="evenodd" stroke="none"/>
    <path d="M-0.35 5.9 L-0.15 5.85 -0.05 5.8 0.15 5.75 0.45 5.65 0.45 5.7 0.4 5.85 Q0.35 5.9 0.45 6.0 L0.4 6.05 0.35 6.05 0.2 6.0 0.15 6.0 0.1 6.0 0.1 5.95 0.0 5.95 -0.25 5.95 -0.3 5.95 -0.35 5.9" fill="#cccccc" fill-rule="evenodd" stroke="none"/>
    <path d="M1.6 6.05 L1.65 6.25 1.55 6.45 1.4 6.55 1.4 6.6 1.35 6.55 Q1.05 6.4 0.65 6.25 L-0.3 5.95 -0.25 5.95 0.0 5.95 0.15 6.0 0.2 6.0 0.35 6.05 0.4 6.05 0.7 6.1 1.25 6.1 1.55 6.05 1.6 6.05" fill="#561818" fill-rule="evenodd" stroke="none"/>
    <path d="M-11.1 -6.0 Q-9.55 -6.4 -7.8 -6.45 -6.8 -6.45 -5.85 -6.7 -5.45 -6.85 -5.05 -6.95 L-4.9 -7.0 -4.9 -6.95 -4.55 -7.0 Q-2.65 -6.4 -2.0 -4.35 -1.55 -2.9 -0.8 -1.6 0.0 -0.3 0.9 0.9 L1.25 1.45 Q1.55 1.9 1.9 2.3 L1.85 2.35 2.65 2.9 3.8 3.8 3.7 3.9 Q3.35 4.2 3.1 5.35 2.85 6.35 2.85 6.95 L2.85 7.0 2.75 7.25 Q2.4 7.85 1.2 8.05 L1.1 8.05 0.1 7.9 -1.0 7.75 Q-2.9 7.2 -4.2 6.4 -4.9 5.95 -5.6 5.35 L-6.35 4.65 -6.55 4.35 Q-6.95 3.65 -7.85 1.9 L-7.95 1.6 Q-7.95 1.5 -8.0 1.4 L-8.15 1.25 -8.2 1.3 -8.3 1.2 Q-8.25 1.0 -8.25 0.9 -8.25 0.75 -8.3 0.7 L-8.45 0.6 Q-8.65 0.65 -8.85 0.8 L-9.3 1.05 -9.45 1.05 -9.65 1.05 -10.3 1.05 Q-10.9 1.0 -11.3 0.1 -11.65 -0.55 -11.65 -1.2 -11.65 -1.4 -11.35 -1.75 -11.0 -2.2 -10.5 -2.3 -10.15 -2.25 -9.9 -1.95 L-9.7 -1.7 -9.6 -1.5 -9.35 -1.5 -9.25 -1.4 -9.15 -1.5 Q-9.2 -1.85 -9.35 -2.1 -9.45 -2.35 -9.65 -2.45 L-9.75 -2.55 -9.85 -2.6 Q-10.05 -2.75 -10.25 -2.8 -10.3 -3.05 -10.5 -3.55 -10.8 -4.25 -10.9 -4.65 -10.85 -5.1 -11.05 -5.6 L-11.1 -5.7 -11.1 -6.0 M-10.35 0.5 Q-10.2 0.65 -10.0 0.65 -9.9 0.65 -9.9 0.6 L-9.9 0.55 Q-9.9 0.6 -9.9 0.35 L-9.9 0.05 -9.5 -0.6 -9.55 -0.7 -9.6 -0.75 -9.65 -0.75 Q-9.75 -1.2 -10.2 -1.5 -10.65 -1.8 -10.95 -1.45 L-11.05 -1.45 Q-11.15 -1.35 -11.15 -1.0 -11.1 -0.6 -11.0 -0.25 -10.75 0.5 -10.35 0.5 M2.0 4.6 Q1.85 4.65 1.75 4.7 1.6 4.75 1.25 4.8 L0.5 4.75 0.35 4.75 0.35 4.7 0.3 4.7 Q-0.05 4.75 -0.4 5.0 L-0.4 5.05 Q-0.75 5.2 -1.2 5.8 -1.35 5.9 -1.35 6.0 L-1.4 6.05 -1.4 6.1 -1.35 6.1 -1.25 6.15 -1.35 6.15 -0.7 6.6 -0.6 6.65 -0.65 6.65 -0.75 6.7 -0.6 6.7 -0.5 6.8 -0.2 7.0 0.0 7.1 Q0.5 7.4 1.2 7.4 2.0 7.4 2.35 7.0 L2.4 6.95 2.35 6.9 2.4 6.8 2.45 6.6 Q2.45 6.45 2.3 6.3 2.25 6.15 2.15 6.0 L1.95 5.85 2.25 5.6 2.4 5.4 Q2.5 5.3 2.5 5.25 L2.5 5.2 Q2.6 5.05 2.55 4.95 2.5 4.7 2.3 4.65 2.15 4.6 2.0 4.6 M3.3 3.8 L3.35 3.8 3.45 3.85 Q3.35 3.8 3.3 3.8 M-3.6 3.45 Q-4.55 3.05 -5.65 2.3 L-7.2 1.25 -7.3 1.15 -7.35 1.4 Q-7.35 1.85 -6.25 2.7 -5.05 3.65 -3.9 3.65 L-3.55 3.6 -3.55 3.5 -3.6 3.45" fill="#c7a36d" fill-rule="evenodd" stroke="none"/>
    <path d="M-1.0 7.75 L-1.4 7.7 Q-3.0 7.4 -4.0 7.1 -4.55 6.9 -4.9 6.75 -5.55 6.4 -6.0 5.9 L-6.6 5.2 -6.8 4.85 Q-7.05 4.3 -7.55 3.65 L-7.6 3.5 -7.95 3.05 Q-8.3 2.55 -8.55 2.25 L-8.6 2.25 -8.6 2.15 -8.7 2.05 -8.75 2.05 -8.8 2.0 -8.85 1.9 -9.0 1.8 -9.0 1.75 -9.1 1.75 -9.15 1.7 -9.1 1.7 Q-8.7 1.7 -8.45 1.35 L-8.4 1.35 -8.3 1.2 -8.2 1.3 -8.15 1.25 -8.0 1.4 Q-7.95 1.5 -7.95 1.6 L-7.85 1.9 Q-6.95 3.65 -6.55 4.35 L-6.35 4.65 -5.6 5.35 Q-4.9 5.95 -4.2 6.4 -2.9 7.2 -1.0 7.75 M-10.7 -1.0 L-10.45 -0.85 Q-10.3 -0.75 -10.2 -0.7 L-10.3 -0.6 Q-10.4 -0.45 -10.45 -0.3 L-10.5 -0.05 Q-10.5 0.15 -10.45 0.3 L-10.35 0.5 Q-10.75 0.5 -11.0 -0.25 -11.1 -0.6 -11.15 -1.0 -11.15 -1.35 -11.05 -1.45 L-10.95 -1.45 -11.05 -1.3 Q-10.95 -1.2 -10.7 -1.0 M-3.6 3.45 L-3.55 3.5 -3.55 3.6 -3.9 3.65 Q-5.05 3.65 -6.25 2.7 -7.35 1.85 -7.35 1.4 L-7.3 1.15 -7.2 1.25 -5.65 2.3 Q-4.55 3.05 -3.6 3.45 M-4.1 6.85 Q-4.05 6.85 -4.05 6.9 L-4.0 6.9 -4.1 6.85 M-7.5 5.55 Q-7.65 5.25 -7.55 5.0 L-7.2 5.5 Q-6.9 6.35 -5.2 7.2 -4.4 7.6 -3.4 7.9 L-4.15 8.0 -4.25 8.05 Q-6.2 7.7 -6.95 6.85 -7.25 6.45 -7.4 5.9 L-7.45 5.6 -7.5 5.55 M-7.2 6.0 L-7.25 5.95 -7.15 6.0 -7.2 6.0" fill="#a9854f" fill-rule="evenodd" stroke="none"/>
  </g>
</svg>
