<?xml version="1.0" encoding="UTF-8" standalone="no"?>
<svg xmlns:ffdec="https://www.free-decompiler.com/flash" xmlns:xlink="http://www.w3.org/1999/xlink" ffdec:objectType="shape" height="15.7px" width="16.55px" xmlns="http://www.w3.org/2000/svg">
  <g transform="matrix(1.0, 0.0, 0.0, 1.0, 12.4, 7.05)">
    <path d="M3.8 3.75 Q3.9 3.7 4.0 3.7 L4.05 3.6 4.1 3.65 4.15 3.75 3.8 4.7 Q3.45 5.75 3.4 6.25 3.05 8.55 1.2 8.65 L1.0 8.65 0.9 8.6 0.35 8.6 -0.05 8.55 Q-1.3 8.4 -2.4 8.15 L-2.75 8.3 -3.3 8.45 -3.2 8.5 -3.9 8.55 -4.0 8.55 Q-5.75 8.6 -7.25 7.15 -8.1 6.3 -8.35 5.15 -8.7 3.5 -9.75 2.1 -9.9 1.9 -9.9 1.75 L-9.95 1.75 Q-10.25 1.75 -10.6 1.65 -10.8 1.55 -11.0 1.4 -11.4 1.15 -11.7 0.75 L-11.95 0.45 -12.0 0.35 -12.05 0.3 -12.2 -0.05 -12.3 -0.35 Q-12.4 -0.75 -12.4 -1.15 -12.35 -1.5 -12.2 -1.8 L-12.0 -2.15 -11.5 -2.65 -11.25 -2.85 -11.3 -3.15 -11.7 -4.4 -11.8 -4.75 -11.85 -5.05 -11.85 -5.45 -11.9 -5.5 Q-11.9 -5.7 -11.95 -5.85 L-11.65 -6.0 -11.65 -6.15 Q-11.5 -6.15 -11.35 -6.1 L-11.1 -6.2 -11.1 -6.05 -11.1 -5.85 -11.05 -5.75 -11.05 -5.65 Q-10.85 -5.15 -10.85 -4.7 -10.8 -4.3 -10.5 -3.6 -10.25 -3.1 -10.25 -2.85 -10.05 -2.8 -9.85 -2.65 L-9.75 -2.6 -9.6 -2.5 Q-9.45 -2.4 -9.35 -2.15 -9.2 -1.9 -9.15 -1.55 -9.2 -1.55 -9.25 -1.45 L-9.35 -1.55 -9.6 -1.55 -9.7 -1.75 -9.85 -2.0 Q-10.1 -2.3 -10.45 -2.35 -11.0 -2.25 -11.35 -1.8 -11.6 -1.45 -11.6 -1.25 -11.6 -0.6 -11.3 0.05 -10.9 0.95 -10.3 1.0 L-9.6 1.0 -9.45 1.0 -9.3 1.0 -8.85 0.75 Q-8.65 0.6 -8.4 0.55 -8.3 0.6 -8.3 0.65 -8.2 0.7 -8.2 0.85 -8.2 0.95 -8.3 1.15 L-8.4 1.3 Q-8.7 1.65 -9.1 1.65 L-9.15 1.65 -9.1 1.7 -9.0 1.7 -9.0 1.75 -8.85 1.85 -8.8 1.85 -8.8 1.95 -8.7 2.0 -8.55 2.2 Q-8.3 2.5 -7.95 3.0 L-7.6 3.45 -7.5 3.6 Q-7.05 4.25 -6.8 4.8 L-6.6 5.15 -6.0 5.85 Q-5.55 6.35 -4.9 6.7 -4.55 6.85 -3.95 7.05 -3.0 7.35 -1.4 7.65 L-1.0 7.7 0.1 7.85 1.1 8.0 1.2 8.0 Q2.4 7.8 2.75 7.2 L2.9 6.95 2.9 6.9 Q2.9 6.3 3.1 5.3 3.4 4.15 3.7 3.85 L3.8 3.75 M-10.3 0.45 L-10.4 0.25 Q-10.5 0.1 -10.5 -0.1 L-10.45 -0.35 Q-10.4 -0.5 -10.3 -0.65 L-10.15 -0.75 -10.45 -0.9 -10.65 -1.05 -10.7 -1.05 -11.05 -1.35 -10.95 -1.5 Q-10.65 -1.85 -10.2 -1.55 -9.75 -1.25 -9.65 -0.8 L-9.6 -0.8 -9.55 -0.75 -9.5 -0.65 -9.85 0.0 -9.85 0.3 Q-9.85 0.55 -9.9 0.5 L-9.9 0.55 Q-9.9 0.6 -10.0 0.6 -10.2 0.6 -10.3 0.45 M2.35 4.85 L2.4 4.85 Q2.5 4.85 2.55 4.95 2.55 5.1 2.4 5.3 L2.3 5.4 2.15 5.65 2.3 5.8 2.5 6.05 Q2.65 6.2 2.7 6.35 2.75 6.45 2.65 6.6 L2.65 6.65 2.7 6.7 2.65 6.8 Q2.35 7.2 1.6 7.3 0.95 7.35 0.45 7.15 L0.2 7.1 0.05 7.0 -0.2 6.75 Q-0.35 6.65 -0.5 6.55 L-1.05 6.1 Q-1.1 6.0 -0.3 5.6 0.1 5.4 0.45 5.25 0.95 4.85 1.2 4.95 L1.4 5.05 1.85 5.05 Q2.15 4.9 2.35 4.85 M1.65 5.15 L1.65 5.15 M1.85 5.85 L1.9 5.65 1.9 5.6 1.95 5.6 1.95 5.35 1.9 5.3 1.9 5.35 Q1.85 5.4 1.75 5.45 L1.7 5.5 1.6 5.55 1.6 5.6 1.2 5.5 1.1 5.5 1.05 5.45 0.65 5.6 0.35 5.75 0.2 5.8 0.1 5.85 -0.05 5.9 -0.15 5.95 0.0 5.95 0.05 6.0 0.9 6.2 Q1.35 6.3 1.65 6.45 L1.7 6.45 1.8 6.25 1.9 6.1 1.85 5.85 M1.55 6.6 L1.5 6.6 Q0.9 6.6 0.3 6.35 -0.15 6.15 -0.3 6.0 L-0.65 6.1 -0.7 6.05 -0.75 6.1 -0.4 6.3 -0.15 6.45 Q0.4 6.8 0.75 7.0 L1.75 7.05 Q2.4 7.0 2.45 6.55 L2.45 6.45 2.5 6.5 2.5 6.35 Q2.45 6.25 2.3 6.05 L2.15 5.95 2.2 5.95 2.05 5.7 1.95 5.7 2.1 6.05 2.1 6.1 Q2.1 6.2 2.05 6.35 1.95 6.5 1.85 6.5 L1.85 6.55 2.0 6.65 1.8 6.65 1.55 6.6 M3.8 4.05 L3.8 4.05 M-7.45 5.5 L-7.45 5.55 -7.4 5.85 Q-7.25 6.4 -6.95 6.8 -6.2 7.65 -4.25 8.0 L-4.15 7.95 -3.4 7.85 Q-4.35 7.55 -5.2 7.15 -6.85 6.3 -7.2 5.45 L-7.55 4.95 Q-7.65 5.2 -7.45 5.5" fill="#111111" fill-rule="evenodd" stroke="none"/>
    <path d="M1.8 6.65 L2.0 6.65 1.85 6.55 1.85 6.5 Q1.95 6.5 2.05 6.35 2.1 6.2 2.1 6.1 L2.1 6.05 1.95 5.7 2.05 5.7 2.2 5.95 2.15 5.95 2.3 6.05 Q2.45 6.25 2.5 6.35 L2.5 6.5 2.45 6.45 2.45 6.55 Q2.4 7.0 1.75 7.05 L0.75 7.0 Q0.4 6.8 -0.15 6.45 L-0.4 6.3 -0.75 6.1 -0.7 6.05 -0.65 6.1 -0.3 6.0 Q-0.15 6.15 0.3 6.35 0.9 6.6 1.5 6.6 L1.55 6.6 1.6 6.7 Q1.65 6.8 1.75 6.8 L1.8 6.8 1.85 6.75 Q1.85 6.7 1.8 6.65" fill="#833838" fill-rule="evenodd" stroke="none"/>
    <path d="M1.85 5.85 L1.8 5.9 1.75 5.9 Q1.65 6.0 1.5 5.95 L1.3 6.0 0.65 6.0 0.7 5.95 Q0.6 5.85 0.6 5.8 L0.7 5.65 0.65 5.6 1.05 5.45 1.1 5.5 1.2 5.5 1.6 5.6 1.6 5.55 1.7 5.5 1.75 5.45 Q1.85 5.4 1.9 5.35 L1.9 5.3 1.95 5.35 1.95 5.6 1.9 5.6 1.9 5.65 1.85 5.85 M0.4 6.0 L0.3 5.95 0.4 5.95 0.4 6.0 M-0.05 5.9 L-0.05 5.95 0.0 5.95 -0.15 5.95 -0.05 5.9 M1.8 6.65 Q1.85 6.7 1.85 6.75 L1.8 6.8 1.75 6.8 Q1.65 6.8 1.6 6.7 L1.55 6.6 1.8 6.65" fill="#ffffff" fill-rule="evenodd" stroke="none"/>
    <path d="M0.65 5.6 L0.7 5.65 0.6 5.8 Q0.6 5.85 0.7 5.95 L0.65 6.0 0.4 6.0 0.4 5.95 0.3 5.95 0.1 5.95 0.05 6.0 0.0 5.95 -0.05 5.95 -0.05 5.9 0.1 5.85 0.2 5.8 0.35 5.75 0.65 5.6" fill="#cccccc" fill-rule="evenodd" stroke="none"/>
    <path d="M0.65 6.0 L1.3 6.0 1.5 5.95 Q1.65 6.0 1.75 5.9 L1.8 5.9 1.85 5.85 1.9 6.1 1.8 6.25 1.7 6.45 1.65 6.45 Q1.35 6.3 0.9 6.2 L0.05 6.0 0.0 5.95 0.05 6.0 0.1 5.95 0.3 5.95 0.4 6.0 0.65 6.0" fill="#561818" fill-rule="evenodd" stroke="none"/>
    <path d="M-11.1 -6.05 Q-9.55 -6.45 -7.8 -6.5 -6.8 -6.5 -5.85 -6.75 -5.45 -6.9 -5.05 -7.0 L-4.85 -7.05 -4.85 -7.0 -4.55 -7.05 Q-2.6 -6.45 -2.0 -4.4 -1.5 -2.95 -0.75 -1.65 0.0 -0.35 0.9 0.85 L1.3 1.4 Q1.55 1.85 1.9 2.25 L1.9 2.3 2.65 2.85 3.8 3.75 3.7 3.85 Q3.4 4.15 3.1 5.3 2.9 6.3 2.9 6.9 L2.9 6.95 2.75 7.2 Q2.4 7.8 1.2 8.0 L1.1 8.0 0.1 7.85 -1.0 7.7 Q-2.9 7.15 -4.15 6.35 -4.85 5.9 -5.6 5.3 L-6.35 4.6 -6.55 4.3 Q-6.95 3.6 -7.85 1.85 L-7.9 1.55 Q-7.95 1.45 -8.0 1.35 L-8.15 1.2 -8.25 1.25 -8.2 1.25 -8.3 1.15 Q-8.2 0.95 -8.2 0.85 -8.2 0.7 -8.3 0.65 -8.3 0.6 -8.4 0.55 -8.65 0.6 -8.85 0.75 L-9.3 1.0 -9.45 1.0 -9.6 1.0 -10.3 1.0 Q-10.9 0.95 -11.3 0.05 -11.6 -0.6 -11.6 -1.25 -11.6 -1.45 -11.35 -1.8 -11.0 -2.25 -10.45 -2.35 -10.1 -2.3 -9.85 -2.0 L-9.7 -1.75 -9.6 -1.55 -9.35 -1.55 -9.25 -1.45 Q-9.2 -1.55 -9.15 -1.55 -9.2 -1.9 -9.35 -2.15 -9.45 -2.4 -9.6 -2.5 L-9.75 -2.6 -9.85 -2.65 Q-10.05 -2.8 -10.25 -2.85 -10.25 -3.1 -10.5 -3.6 -10.8 -4.3 -10.85 -4.7 -10.85 -5.15 -11.05 -5.65 L-11.05 -5.75 -11.1 -5.85 -11.1 -6.05 M-10.65 -1.05 L-10.7 -1.05 -10.65 -1.05 M-10.95 -1.5 L-11.05 -1.5 Q-11.15 -1.4 -11.15 -1.05 -11.1 -0.65 -10.95 -0.3 -10.75 0.45 -10.35 0.45 L-10.3 0.45 Q-10.2 0.6 -10.0 0.6 -9.9 0.6 -9.9 0.55 L-9.9 0.5 Q-9.85 0.55 -9.85 0.3 L-9.85 0.0 -9.5 -0.65 -9.55 -0.75 -9.6 -0.8 -9.65 -0.8 Q-9.75 -1.25 -10.2 -1.55 -10.65 -1.85 -10.95 -1.5 M1.65 5.15 L1.65 5.15 M2.35 4.85 Q2.15 4.9 1.85 5.05 L1.4 5.05 1.2 4.95 Q0.95 4.85 0.45 5.25 0.1 5.4 -0.3 5.6 -1.1 6.0 -1.05 6.1 L-0.5 6.55 Q-0.35 6.65 -0.2 6.75 L0.05 7.0 0.2 7.1 0.45 7.15 Q0.95 7.35 1.6 7.3 2.35 7.2 2.65 6.8 L2.7 6.7 2.65 6.65 2.65 6.6 Q2.75 6.45 2.7 6.35 2.65 6.2 2.5 6.05 L2.3 5.8 2.15 5.65 2.3 5.4 2.4 5.3 Q2.55 5.1 2.55 4.95 2.5 4.85 2.4 4.85 L2.35 4.85 M3.3 3.75 L3.35 3.75 3.45 3.8 3.3 3.75 M-3.55 3.45 L-3.55 3.4 Q-4.55 3.0 -5.65 2.25 -6.25 1.85 -7.15 1.2 L-7.3 1.1 -7.35 1.35 Q-7.35 1.8 -6.25 2.65 -5.05 3.6 -3.9 3.6 L-3.55 3.55 -3.55 3.45" fill="#c7a36d" fill-rule="evenodd" stroke="none"/>
    <path d="M-1.0 7.7 L-1.4 7.65 Q-3.0 7.35 -3.95 7.05 -4.55 6.85 -4.9 6.7 -5.55 6.35 -6.0 5.85 L-6.6 5.15 -6.8 4.8 Q-7.05 4.25 -7.5 3.6 L-7.6 3.45 -7.95 3.0 Q-8.3 2.5 -8.55 2.2 L-8.65 2.0 -8.7 2.0 -8.8 1.95 -8.8 1.85 -8.85 1.85 -9.0 1.75 -9.0 1.7 -9.1 1.7 -9.15 1.65 -9.1 1.65 Q-8.7 1.65 -8.4 1.3 L-8.3 1.15 -8.2 1.25 -8.25 1.25 -8.15 1.2 -8.0 1.35 Q-7.95 1.45 -7.9 1.55 L-7.85 1.85 Q-6.95 3.6 -6.55 4.3 L-6.35 4.6 -5.6 5.3 Q-4.85 5.9 -4.15 6.35 -2.9 7.15 -1.0 7.7 M-10.65 -1.05 L-10.45 -0.9 -10.15 -0.75 -10.3 -0.65 Q-10.4 -0.5 -10.45 -0.35 L-10.5 -0.1 Q-10.5 0.1 -10.4 0.25 L-10.3 0.45 -10.35 0.45 Q-10.75 0.45 -10.95 -0.3 -11.1 -0.65 -11.15 -1.05 -11.15 -1.4 -11.05 -1.5 L-10.95 -1.5 -11.05 -1.35 -10.7 -1.05 -10.65 -1.05 M-3.55 3.45 L-3.55 3.55 -3.9 3.6 Q-5.05 3.6 -6.25 2.65 -7.35 1.8 -7.35 1.35 L-7.3 1.1 -7.15 1.2 Q-6.25 1.85 -5.65 2.25 -4.55 3.0 -3.55 3.4 L-3.55 3.45 M-4.0 6.85 L-3.95 6.85 -4.05 6.8 -4.0 6.85 M-7.45 5.5 Q-7.65 5.2 -7.55 4.95 L-7.2 5.45 Q-6.85 6.3 -5.2 7.15 -4.35 7.55 -3.4 7.85 L-4.15 7.95 -4.25 8.0 Q-6.2 7.65 -6.95 6.8 -7.25 6.4 -7.4 5.85 L-7.45 5.55 -7.45 5.5 M-7.2 5.95 L-7.2 5.9 -7.15 5.95 -7.2 5.95" fill="#a9854f" fill-rule="evenodd" stroke="none"/>
  </g>
</svg>
