<?xml version="1.0" encoding="UTF-8" standalone="no"?>
<svg xmlns:ffdec="https://www.free-decompiler.com/flash" xmlns:xlink="http://www.w3.org/1999/xlink" ffdec:objectType="shape" height="16.3px" width="16.25px" xmlns="http://www.w3.org/2000/svg">
  <g transform="matrix(1.0, 0.0, 0.0, 1.0, 12.4, 7.05)">
    <path d="M3.45 4.6 L3.45 4.5 Q3.6 4.05 3.7 4.05 L3.75 4.15 3.8 4.35 3.85 4.4 3.75 4.7 Q3.45 5.65 3.3 6.55 L3.1 7.0 Q2.55 8.2 2.0 8.7 1.7 9.0 1.35 9.15 0.8 9.35 0.15 9.2 -0.85 9.05 -1.7 8.75 -2.3 8.65 -2.85 8.4 -3.15 8.55 -3.9 8.55 L-4.0 8.55 Q-5.75 8.6 -7.25 7.15 -8.1 6.3 -8.35 5.15 -8.7 3.5 -9.75 2.1 -9.9 1.9 -9.9 1.75 L-9.95 1.75 Q-10.25 1.75 -10.6 1.65 -10.8 1.55 -11.0 1.4 -11.4 1.15 -11.7 0.75 L-11.95 0.45 -12.0 0.35 -12.05 0.3 -12.2 -0.05 -12.3 -0.35 Q-12.4 -0.75 -12.4 -1.15 -12.35 -1.5 -12.2 -1.8 L-12.0 -2.15 -11.5 -2.65 -11.25 -2.85 -11.3 -3.15 -11.7 -4.4 -11.8 -4.75 -11.85 -5.05 -11.85 -5.45 -11.9 -5.5 Q-11.9 -5.7 -11.95 -5.85 L-11.65 -6.0 -11.65 -6.15 Q-11.5 -6.15 -11.35 -6.1 L-11.1 -6.2 -11.1 -6.05 -11.1 -5.85 -11.05 -5.75 -11.05 -5.65 Q-10.85 -5.15 -10.85 -4.7 -10.8 -4.3 -10.5 -3.6 -10.25 -3.1 -10.25 -2.85 -10.05 -2.8 -9.85 -2.65 L-9.75 -2.6 -9.6 -2.5 Q-9.45 -2.4 -9.35 -2.15 -9.2 -1.9 -9.15 -1.55 -9.2 -1.55 -9.25 -1.45 L-9.35 -1.55 -9.6 -1.55 -9.7 -1.75 -9.85 -2.0 Q-10.1 -2.3 -10.45 -2.35 -11.0 -2.25 -11.35 -1.8 -11.6 -1.45 -11.6 -1.25 -11.6 -0.6 -11.3 0.05 -10.9 0.95 -10.3 1.0 L-9.6 1.0 -9.45 1.0 -9.3 1.0 -8.85 0.75 Q-8.65 0.6 -8.4 0.55 -8.3 0.6 -8.3 0.65 -8.2 0.7 -8.2 0.85 -8.2 1.0 -8.4 1.3 -8.7 1.65 -9.1 1.65 L-9.15 1.65 -9.35 1.7 Q-9.2 1.8 -9.0 1.9 L-9.0 1.95 Q-8.7 2.2 -8.45 2.55 L-8.4 2.6 -8.4 2.55 -8.3 2.7 -7.65 3.5 Q-6.7 4.7 -5.35 5.85 L-4.25 6.7 -4.05 6.85 -3.85 6.95 Q-2.4 7.95 -0.95 8.4 0.95 9.0 2.1 7.95 2.4 7.65 2.5 7.4 L2.7 6.45 3.3 5.0 3.4 4.65 3.45 4.65 3.45 4.6 M-10.95 -3.05 L-10.95 -2.85 -10.9 -2.85 -10.9 -2.9 -10.85 -2.9 -10.95 -3.05 M-10.7 -1.65 Q-10.5 -1.75 -10.2 -1.55 -9.75 -1.25 -9.65 -0.8 L-9.6 -0.8 -9.55 -0.75 -9.5 -0.65 -9.85 0.0 -9.85 0.3 Q-9.85 0.55 -9.9 0.5 L-9.9 0.55 Q-9.9 0.6 -10.0 0.6 -10.2 0.6 -10.3 0.45 L-10.4 0.25 Q-10.5 0.1 -10.5 -0.1 -10.5 -0.4 -10.3 -0.65 L-10.25 -0.7 -10.15 -0.75 -10.3 -0.85 -10.4 -0.85 -10.45 -0.9 Q-10.9 -1.2 -11.05 -1.35 L-11.0 -1.35 -10.75 -1.65 -10.7 -1.65 M-0.35 5.1 L-0.55 5.1 -0.9 5.15 -1.15 5.15 -1.45 5.05 -1.5 5.05 -1.3 5.25 Q-1.2 5.35 -1.0 5.5 -0.85 5.6 -0.65 5.65 L-0.55 5.65 -0.25 5.7 0.95 5.7 1.45 5.8 1.6 5.8 1.8 5.65 Q2.05 5.5 2.3 5.5 L2.3 5.45 Q2.35 5.45 2.3 5.4 L2.3 5.2 2.35 5.2 2.3 5.15 2.3 5.0 2.2 5.0 2.15 4.95 2.1 4.95 2.15 4.9 2.1 4.9 Q1.95 4.9 1.85 4.8 1.75 4.75 1.7 4.75 L0.7 4.8 0.75 4.9 0.7 4.9 Q0.6 4.9 0.15 5.1 L0.1 5.1 0.1 5.05 -0.35 5.1 M-1.55 4.85 L-0.8 4.9 -0.05 4.8 Q0.3 4.6 0.5 4.6 L0.6 4.65 1.1 4.5 Q1.7 4.4 2.15 4.6 2.5 4.8 2.5 4.95 L2.55 5.2 2.5 5.5 2.45 5.6 2.45 5.65 Q2.5 5.7 2.4 5.8 L2.25 5.85 2.2 5.9 2.0 5.85 1.95 5.85 2.0 5.95 Q2.3 6.3 2.3 6.55 2.3 6.65 2.25 6.85 L2.25 6.95 2.25 7.0 2.2 7.1 Q1.95 7.5 1.4 7.6 L1.15 7.6 Q0.55 7.6 0.05 7.25 L-0.1 7.15 Q-0.5 7.05 -1.0 6.3 -1.35 5.8 -1.55 5.4 -1.75 5.2 -1.75 5.05 L-1.75 5.0 Q-1.75 4.9 -1.7 4.9 L-1.7 4.85 -1.55 4.85 M1.2 6.7 L0.95 6.65 0.6 6.5 Q-0.05 6.2 -0.1 6.0 L-0.4 6.0 -0.45 5.9 -0.5 5.9 -0.95 5.8 Q-0.55 6.45 0.0 6.9 L0.0 6.85 Q0.6 7.35 1.3 7.35 1.95 7.35 2.05 6.75 L2.05 6.65 2.1 6.7 2.1 6.55 Q2.1 6.4 1.9 6.15 L1.8 5.95 1.75 5.95 1.7 6.0 1.75 6.15 Q1.75 6.3 1.7 6.45 L1.55 6.6 1.4 6.65 1.5 6.75 1.45 6.8 1.4 6.8 1.2 6.7 M-9.65 1.75 L-9.65 1.75 M-7.4 5.85 Q-7.25 6.4 -6.95 6.8 -6.1 7.8 -3.5 8.1 -4.9 7.3 -6.5 5.65 -7.15 4.95 -7.75 4.2 L-7.55 4.95 -7.4 5.85 M1.5 5.15 L1.5 5.15 M1.45 6.15 L1.2 5.9 1.15 5.9 0.6 5.95 0.5 5.95 0.3 6.0 0.1 6.0 0.3 6.2 0.35 6.2 0.35 6.25 0.45 6.3 0.65 6.4 1.1 6.55 1.3 6.6 1.4 6.55 Q1.5 6.45 1.55 6.25 L1.55 6.15 1.6 6.05 1.45 6.15" fill="#111111" fill-rule="evenodd" stroke="none"/>
    <path d="M3.45 4.6 L3.45 4.65 3.4 4.65 3.3 5.0 2.7 6.45 2.25 6.95 2.25 6.85 Q2.3 6.65 2.3 6.55 2.3 6.3 2.0 5.95 L1.95 5.85 2.0 5.85 2.2 5.9 2.25 5.85 2.4 5.8 Q2.5 5.7 2.45 5.65 L2.45 5.6 2.5 5.5 2.55 5.2 2.5 4.95 Q2.5 4.8 2.15 4.6 1.7 4.4 1.1 4.5 L0.6 4.65 0.5 4.6 Q0.3 4.6 -0.05 4.8 L-0.8 4.9 -1.55 4.85 Q-1.3 4.6 -1.3 4.55 -1.3 4.45 -1.35 4.45 -1.95 4.3 -2.2 4.6 -2.45 4.85 -2.45 5.2 L-2.4 5.4 -2.25 5.45 -1.75 5.05 Q-1.75 5.2 -1.55 5.4 -1.35 5.8 -1.0 6.3 -0.5 7.05 -0.1 7.15 L0.05 7.25 Q0.55 7.6 1.15 7.6 L1.4 7.6 1.15 7.75 Q0.55 8.15 0.1 8.2 -0.4 8.25 -0.95 8.4 -2.4 7.95 -3.85 6.95 L-4.05 6.85 -4.0 6.8 -4.0 6.75 -4.9 5.85 -5.7 4.95 -6.4 4.15 Q-7.05 3.35 -7.55 2.45 L-7.75 2.1 Q-7.85 1.85 -7.9 1.55 -7.95 1.45 -8.0 1.35 L-8.15 1.2 Q-8.25 1.3 -8.4 1.3 -8.2 1.0 -8.2 0.85 -8.2 0.7 -8.3 0.65 -8.3 0.6 -8.4 0.55 -8.65 0.6 -8.85 0.75 L-9.3 1.0 -9.45 1.0 -9.6 1.0 -10.3 1.0 Q-10.9 0.95 -11.3 0.05 -11.6 -0.6 -11.6 -1.25 -11.6 -1.45 -11.35 -1.8 -11.0 -2.25 -10.45 -2.35 -10.1 -2.3 -9.85 -2.0 L-9.7 -1.75 -9.6 -1.55 -9.35 -1.55 -9.25 -1.45 Q-9.2 -1.55 -9.15 -1.55 -9.2 -1.9 -9.35 -2.15 -9.45 -2.4 -9.6 -2.5 L-9.75 -2.6 -9.85 -2.65 Q-10.05 -2.8 -10.25 -2.85 -10.25 -3.1 -10.5 -3.6 -10.8 -4.3 -10.85 -4.7 -10.85 -5.15 -11.05 -5.65 L-11.05 -5.75 -11.1 -5.85 -11.1 -6.05 Q-9.55 -6.45 -7.8 -6.5 -6.8 -6.5 -5.85 -6.75 -5.45 -6.9 -5.05 -7.0 L-4.85 -7.05 -4.85 -7.0 -4.55 -7.05 Q-2.6 -6.45 -2.0 -4.4 -1.5 -2.95 -0.75 -1.65 0.0 -0.35 0.9 0.85 L1.3 1.4 Q1.75 2.15 2.35 2.7 L2.9 3.15 Q3.35 3.55 3.45 4.2 3.5 4.4 3.45 4.6 M-10.3 0.45 Q-10.2 0.6 -10.0 0.6 -9.9 0.6 -9.9 0.55 L-9.9 0.5 Q-9.85 0.55 -9.85 0.3 L-9.85 0.0 -9.5 -0.65 -9.55 -0.75 -9.6 -0.8 -9.65 -0.8 Q-9.75 -1.25 -10.2 -1.55 -10.5 -1.75 -10.7 -1.65 -11.05 -2.15 -11.05 -1.25 -11.0 -0.8 -10.85 -0.35 -10.6 0.35 -10.3 0.45 M-10.3 -0.85 L-10.15 -0.75 -10.25 -0.7 -10.3 -0.85" fill="#c7a36d" fill-rule="evenodd" stroke="none"/>
    <path d="M2.7 6.45 L2.5 7.4 Q2.4 7.65 2.1 7.95 0.95 9.0 -0.95 8.4 -0.4 8.25 0.1 8.2 0.55 8.15 1.15 7.75 L1.4 7.6 Q1.95 7.5 2.2 7.1 L2.25 7.0 2.25 6.95 2.7 6.45 M-4.05 6.85 L-4.25 6.7 -5.35 5.85 Q-6.7 4.7 -7.65 3.5 L-8.3 2.7 -8.4 2.55 -8.4 2.6 -8.45 2.55 Q-8.7 2.2 -9.0 1.95 L-9.0 1.9 Q-9.2 1.8 -9.35 1.7 L-9.15 1.65 -9.1 1.65 Q-8.7 1.65 -8.4 1.3 -8.25 1.3 -8.15 1.2 L-8.0 1.35 Q-7.95 1.45 -7.9 1.55 -7.85 1.85 -7.75 2.1 L-7.55 2.45 Q-7.05 3.35 -6.4 4.15 L-5.7 4.95 -4.9 5.85 -4.0 6.75 -4.0 6.8 -4.05 6.85 M-10.3 0.45 Q-10.6 0.35 -10.85 -0.35 -11.0 -0.8 -11.05 -1.25 -11.05 -2.15 -10.7 -1.65 L-10.75 -1.65 -11.0 -1.35 -11.05 -1.35 Q-10.9 -1.2 -10.45 -0.9 L-10.4 -0.85 -10.3 -0.85 -10.25 -0.7 -10.3 -0.65 Q-10.5 -0.4 -10.5 -0.1 -10.5 0.1 -10.4 0.25 L-10.3 0.45 M-1.75 5.05 L-2.25 5.45 -2.4 5.4 -2.45 5.2 Q-2.45 4.85 -2.2 4.6 -1.95 4.3 -1.35 4.45 -1.3 4.45 -1.3 4.55 -1.3 4.6 -1.55 4.85 L-1.7 4.85 -1.7 4.9 Q-1.75 4.9 -1.75 5.0 L-1.75 5.05 M-7.4 5.85 L-7.55 4.95 -7.75 4.2 Q-7.15 4.95 -6.5 5.65 -4.9 7.3 -3.5 8.1 -6.1 7.8 -6.95 6.8 -7.25 6.4 -7.4 5.85" fill="#a9854f" fill-rule="evenodd" stroke="none"/>
    <path d="M-0.35 5.1 L0.1 5.05 0.1 5.1 0.15 5.1 Q0.6 4.9 0.7 4.9 L0.75 4.9 0.7 4.8 1.7 4.75 Q1.75 4.75 1.85 4.8 1.95 4.9 2.1 4.9 L2.15 4.9 2.1 4.95 2.15 4.95 2.2 5.0 2.3 5.0 2.3 5.15 2.35 5.2 2.3 5.2 2.3 5.4 Q2.35 5.45 2.3 5.45 L2.3 5.5 Q2.05 5.5 1.8 5.65 L1.6 5.8 1.45 5.8 0.95 5.7 -0.25 5.7 -0.55 5.65 -0.65 5.65 Q-0.85 5.6 -1.0 5.5 -1.2 5.35 -1.3 5.25 L-1.5 5.05 -1.45 5.05 -1.15 5.15 -0.9 5.15 -0.55 5.1 -0.35 5.1 M1.4 6.8 L1.45 6.8 1.5 6.75 1.4 6.65 1.55 6.6 1.7 6.45 Q1.75 6.3 1.75 6.15 L1.7 6.0 1.75 5.95 1.8 5.95 1.9 6.15 Q2.1 6.4 2.1 6.55 L2.1 6.7 2.05 6.65 2.05 6.75 Q1.95 7.35 1.3 7.35 0.6 7.35 0.0 6.85 L0.0 6.9 Q-0.55 6.45 -0.95 5.8 L-0.5 5.9 -0.45 5.9 -0.4 6.0 -0.1 6.0 Q-0.05 6.2 0.6 6.5 L0.95 6.65 1.2 6.7 1.2 6.85 Q1.25 7.0 1.35 7.0 L1.4 7.0 1.45 6.95 Q1.45 6.9 1.4 6.8 M1.5 5.15 L1.5 5.15 M1.3 5.3 Q0.85 5.15 0.7 5.4 L0.75 5.45 0.85 5.5 1.2 5.5 Q1.3 5.45 1.3 5.4 L1.3 5.3" fill="#833838" fill-rule="evenodd" stroke="none"/>
    <path d="M1.2 6.7 L1.4 6.8 Q1.45 6.9 1.45 6.95 L1.4 7.0 1.35 7.0 Q1.25 7.0 1.2 6.85 L1.2 6.7 M1.3 5.3 L1.3 5.4 Q1.3 5.45 1.2 5.5 L0.85 5.5 0.75 5.45 0.7 5.4 Q0.85 5.15 1.3 5.3 M1.45 6.15 L1.4 6.15 Q1.45 6.25 1.55 6.25 1.5 6.45 1.4 6.55 L1.3 6.6 1.1 6.55 0.65 6.4 0.45 6.3 0.55 6.3 Q0.8 6.3 0.75 6.15 0.75 6.0 0.6 5.95 L1.15 5.9 1.2 5.9 1.45 6.15" fill="#ffffff" fill-rule="evenodd" stroke="none"/>
    <path d="M1.55 6.25 Q1.45 6.25 1.4 6.15 L1.45 6.15 1.6 6.05 1.55 6.15 1.55 6.25 M0.6 5.95 Q0.75 6.0 0.75 6.15 0.8 6.3 0.55 6.3 L0.45 6.3 0.35 6.25 0.35 6.2 0.3 6.2 0.1 6.0 0.3 6.0 0.5 5.95 0.6 5.95" fill="#cccccc" fill-rule="evenodd" stroke="none"/>
  </g>
</svg>
