<?xml version="1.0" encoding="UTF-8" standalone="no"?>
<svg xmlns:ffdec="https://www.free-decompiler.com/flash" xmlns:xlink="http://www.w3.org/1999/xlink" ffdec:objectType="shape" height="24.9px" width="17.95px" xmlns="http://www.w3.org/2000/svg">
  <g transform="matrix(1.0, 0.0, 0.0, 1.0, 10.05, 8.75)">
    <path d="M-6.55 -5.85 L-6.3 -5.95 -6.25 -5.95 -6.1 -6.1 Q-5.9 -6.3 -5.6 -6.35 L-5.55 -6.45 -5.5 -6.65 Q-5.0 -7.75 -4.5 -8.25 L-4.25 -8.6 Q-4.25 -8.7 -4.15 -8.75 L-3.15 -6.8 -1.65 -6.75 Q1.35 -6.8 2.0 -5.5 2.7 -4.15 3.05 -3.0 3.4 -1.85 3.6 -0.55 3.8 0.7 4.25 1.8 L4.35 2.15 4.85 3.2 5.2 3.8 5.35 3.95 Q6.05 4.5 6.6 4.8 7.2 5.1 7.25 5.05 L7.35 5.2 7.45 5.3 7.4 5.35 7.4 5.45 7.35 5.65 7.35 5.7 7.2 6.15 7.3 6.15 Q6.95 6.9 6.4 7.65 L5.8 8.35 5.7 8.45 5.55 8.65 Q4.75 9.35 4.4 10.4 L3.65 12.5 2.3 12.45 Q1.35 12.6 0.45 12.4 -0.35 11.05 -1.45 9.95 -2.95 8.4 -3.95 6.55 -4.95 4.8 -5.55 3.0 L-5.5 2.6 Q-5.7 2.35 -5.85 2.15 L-5.9 1.7 -5.9 1.85 -6.0 1.55 -5.85 1.45 -6.05 1.45 -6.05 1.3 -6.15 1.35 -6.3 1.25 -6.55 1.3 -6.6 1.25 -6.95 1.15 -7.0 1.1 -7.3 0.95 -7.1 0.95 -6.85 0.9 -7.0 0.25 -6.95 0.15 -6.55 0.55 -6.55 0.2 Q-6.5 0.25 -6.45 0.3 -6.45 0.0 -6.55 -0.3 L-6.6 -0.55 -6.9 -1.2 -6.95 -1.25 Q-7.45 -2.2 -8.35 -2.75 L-7.85 -2.75 Q-7.6 -2.6 -7.3 -2.5 L-6.8 -1.95 -6.8 -1.75 Q-6.65 -1.35 -6.5 -1.15 -6.3 -0.95 -6.05 -0.9 L-5.9 -1.35 -6.2 -2.35 -6.3 -2.7 -6.4 -2.55 -6.45 -2.6 -6.9 -3.1 -6.9 -3.15 -7.0 -3.3 -6.95 -3.45 -6.9 -3.35 Q-6.8 -3.6 -6.8 -3.9 L-6.8 -4.7 -6.75 -4.95 -6.5 -5.9 -6.6 -5.85 -6.55 -5.85 M4.6 12.15 L4.4 12.85 4.6 12.15 M-8.7 -1.95 L-8.8 -1.7 -8.8 -2.15 -8.75 -2.2 -8.7 -1.95 M3.25 6.85 L3.05 6.85 2.85 6.8 Q2.15 6.8 1.45 6.85 L0.75 6.95 -0.05 6.9 -0.85 6.9 -0.95 6.95 Q-1.15 6.95 -1.25 7.0 L-1.3 7.05 -1.5 6.85 -1.5 6.95 -1.55 7.0 -1.6 6.9 -1.65 7.0 Q-1.75 7.6 -1.3 8.25 -0.35 9.6 1.05 10.35 L1.0 10.3 1.1 10.35 1.25 10.4 1.9 10.5 Q2.25 10.5 2.6 10.35 3.0 10.35 3.3 10.25 3.5 10.35 3.8 10.1 4.2 9.8 4.4 9.35 L4.55 9.0 Q4.9 8.15 5.15 7.25 5.6 7.15 5.9 6.9 L5.85 6.9 5.3 6.8 4.65 6.9 Q4.1 6.9 3.55 6.9 L3.6 6.85 3.25 6.85 M1.4 13.45 L2.1 13.45 1.6 13.55 1.4 13.45 M-7.1 3.05 L-7.1 3.05 M-5.4 8.65 Q-6.0 8.15 -6.35 7.35 L-6.5 6.95 -6.7 5.75 Q-6.9 4.45 -6.8 3.1 L-6.75 2.85 -6.75 2.8 -6.65 2.3 -6.6 2.75 -6.6 2.85 Q-6.6 3.35 -6.5 3.85 L-6.3 5.65 Q-6.1 6.35 -5.8 6.95 -5.75 7.5 -5.6 8.1 L-5.4 8.65 M2.3 11.45 L1.0 10.9 0.9 10.9 0.75 11.0 Q0.7 11.0 0.7 11.05 L0.65 11.15 Q0.95 11.45 1.4 11.55 1.9 11.65 2.3 11.45" fill="#c7a36d" fill-rule="evenodd" stroke="none"/>
    <path d="M7.45 5.3 Q7.7 5.15 7.8 5.25 8.0 5.35 7.8 6.05 L7.9 6.05 7.75 6.4 7.8 6.35 Q7.3 7.8 6.1 9.35 5.8 9.7 5.55 10.1 L5.0 11.3 4.6 12.15 4.4 12.85 4.35 12.9 4.35 13.0 2.9 14.0 0.9 13.9 -3.9 9.9 Q-4.7 10.05 -5.45 9.5 L-5.95 9.15 Q-8.0 7.95 -8.0 4.4 -8.0 3.95 -7.9 3.55 -7.8 2.95 -7.55 2.45 L-7.5 2.1 Q-9.75 1.9 -10.05 -0.95 L-10.05 -1.55 Q-10.1 -3.55 -8.55 -4.5 L-7.8 -4.25 -7.65 -4.15 -7.6 -4.45 -7.55 -4.8 -7.55 -4.95 -7.5 -5.5 -7.5 -5.55 Q-7.6 -5.6 -7.55 -5.85 -7.5 -6.1 -7.4 -6.25 L-7.35 -6.35 Q-7.2 -6.45 -7.05 -6.45 L-7.0 -6.45 Q-6.75 -6.4 -6.6 -6.15 -6.55 -6.0 -6.55 -5.85 L-6.6 -5.85 -6.5 -5.9 -6.75 -4.95 -6.8 -4.7 -6.8 -3.9 Q-6.8 -3.6 -6.9 -3.35 L-6.95 -3.45 -7.0 -3.3 -6.9 -3.15 -6.9 -3.1 -6.45 -2.6 -6.4 -2.55 -6.3 -2.7 -6.2 -2.35 -5.9 -1.35 -6.05 -0.9 Q-6.3 -0.95 -6.5 -1.15 -6.65 -1.35 -6.8 -1.75 L-6.8 -1.95 -7.3 -2.5 Q-7.6 -2.6 -7.85 -2.75 L-8.35 -2.75 Q-7.45 -2.2 -6.95 -1.25 L-6.9 -1.2 -6.6 -0.55 -6.55 -0.3 Q-6.45 0.0 -6.45 0.3 -6.5 0.25 -6.55 0.2 L-6.9 0.0 -6.95 0.15 -7.0 0.25 -7.1 0.4 -7.15 0.4 Q-7.3 0.55 -7.5 0.6 L-7.75 0.6 -7.6 0.75 -7.3 0.95 -7.0 1.1 -6.95 1.15 -6.6 1.25 -6.55 1.3 -6.3 1.25 -6.15 1.35 -6.15 1.4 -6.05 1.45 -5.85 1.45 -6.0 1.55 -6.1 1.55 -6.15 1.65 -6.05 1.75 -6.05 1.8 -5.95 1.95 -5.85 2.15 Q-5.7 2.35 -5.5 2.6 L-5.55 3.0 Q-5.75 4.2 -5.6 5.3 -5.05 6.8 -3.95 8.05 L-3.95 8.2 -3.35 8.9 -3.35 8.95 Q-2.15 10.4 -0.7 11.7 0.35 12.65 1.4 13.45 L1.6 13.55 2.1 13.45 3.15 13.3 3.65 12.5 4.4 10.4 Q4.75 9.35 5.55 8.65 L5.7 8.45 5.8 8.35 6.4 7.65 Q6.95 6.9 7.3 6.15 L7.2 6.15 7.35 5.7 7.35 5.65 7.4 5.45 7.4 5.35 7.45 5.3 M-8.7 -1.95 L-8.75 -2.2 -8.8 -2.15 -8.8 -1.7 Q-8.75 -1.1 -8.5 -0.5 -8.3 0.05 -7.9 0.45 L-7.85 0.5 Q-7.95 0.15 -7.7 -0.1 -7.55 -0.25 -7.35 -0.35 L-7.55 -0.55 Q-7.95 -0.9 -8.3 -1.4 -8.55 -1.7 -8.7 -1.95 M3.55 6.9 Q4.1 6.9 4.65 6.9 L5.3 6.8 5.85 6.9 5.9 6.9 Q5.6 7.15 5.15 7.25 4.9 8.15 4.55 9.0 L4.4 9.35 Q4.2 9.8 3.8 10.1 3.5 10.35 3.3 10.25 3.0 10.35 2.6 10.35 2.25 10.5 1.9 10.5 L1.25 10.4 1.1 10.35 1.0 10.3 1.05 10.35 Q-0.35 9.6 -1.3 8.25 -1.75 7.6 -1.65 7.0 L-1.6 6.9 -1.55 7.0 -1.5 6.95 -1.5 6.85 -1.3 7.05 -1.25 7.0 Q-1.15 6.95 -0.95 6.95 L-0.85 6.9 -0.05 6.9 0.75 6.95 1.45 6.85 Q2.15 6.8 2.85 6.8 L3.05 6.85 3.25 6.85 3.55 6.9 M-7.1 3.05 L-7.1 3.05 M-5.8 6.95 Q-6.1 6.35 -6.3 5.65 L-6.5 3.85 Q-6.6 3.35 -6.6 2.85 L-6.6 2.75 -6.65 2.3 -6.75 2.8 -6.75 2.85 -6.8 3.1 Q-6.9 4.45 -6.7 5.75 L-6.5 6.95 -6.35 7.35 Q-6.0 8.15 -5.4 8.65 L-4.85 9.0 Q-4.5 9.1 -4.2 9.25 L-4.65 8.45 Q-5.35 7.8 -5.8 6.95 M-0.2 7.5 L-0.25 7.5 -1.2 7.35 -1.3 7.35 -1.25 7.45 Q-0.95 7.95 -0.55 8.4 L-0.05 8.9 0.2 9.2 0.5 9.5 0.5 9.55 0.55 9.6 0.9 9.8 1.05 9.8 1.1 9.85 1.45 9.9 1.5 9.9 Q1.9 9.9 2.35 9.9 L2.5 9.85 2.65 9.85 2.75 9.85 3.0 9.8 3.35 9.8 3.4 9.75 3.7 9.4 Q3.9 9.05 4.1 8.65 L4.15 8.45 4.25 8.2 4.4 7.8 Q4.5 7.6 4.6 7.45 L4.65 7.35 4.35 7.35 3.6 7.35 3.25 7.35 0.6 7.45 0.1 7.45 -0.1 7.5 -0.2 7.5" fill="#1a1a1a" fill-rule="evenodd" stroke="none"/>
    <path d="M4.15 8.45 L4.1 8.65 Q4.1 8.2 3.8 7.95 3.65 7.85 3.45 7.8 L3.4 7.8 3.4 7.7 3.65 7.65 3.8 7.7 3.95 7.85 Q4.1 8.15 4.15 8.45 M3.7 9.4 L3.4 9.75 3.35 9.8 3.0 9.8 2.75 9.85 2.65 9.85 2.7 9.55 Q2.75 9.15 2.4 9.1 2.2 9.15 2.2 9.4 L2.2 9.55 Q2.15 9.7 2.25 9.8 L2.35 9.9 Q1.9 9.9 1.5 9.9 L1.45 9.9 1.1 9.85 1.05 9.8 0.9 9.8 0.55 9.6 0.55 9.55 0.65 8.95 Q0.7 8.55 0.65 8.3 L0.6 8.1 0.5 8.05 0.45 8.1 Q0.2 8.35 0.2 8.75 0.15 9.0 0.2 9.2 L-0.05 8.9 -0.55 8.4 -0.55 8.3 Q-0.45 8.0 -0.2 7.95 L0.2 7.8 0.45 8.0 Q0.7 8.1 0.95 8.25 L1.35 8.4 1.7 8.4 1.9 8.45 2.75 8.45 2.85 8.45 2.9 8.4 Q3.05 8.45 3.2 8.35 L3.2 8.3 3.35 8.15 3.45 8.25 Q3.6 8.45 3.55 8.75 3.5 9.15 3.7 9.4" fill="#ffffff" fill-rule="evenodd" stroke="none"/>
    <path d="M4.35 12.9 L4.35 13.0 4.35 12.9 M-7.0 0.25 L-6.85 0.9 -7.1 0.95 -7.3 0.95 -7.6 0.75 -7.5 0.6 Q-7.3 0.55 -7.15 0.4 L-7.1 0.4 -7.0 0.25 M-6.15 1.35 L-6.05 1.3 -6.05 1.45 -6.15 1.4 -6.15 1.35 M-6.0 1.55 L-5.9 1.85 -5.9 1.7 -5.85 2.15 -5.95 1.95 -6.05 1.8 -6.05 1.75 -6.15 1.65 -6.1 1.55 -6.0 1.55 M-5.55 3.0 Q-4.95 4.8 -3.95 6.55 -2.95 8.4 -1.45 9.95 -0.35 11.05 0.45 12.4 1.35 12.6 2.3 12.45 L3.65 12.5 3.15 13.3 2.1 13.45 1.4 13.45 Q0.35 12.65 -0.7 11.7 -2.15 10.4 -3.35 8.95 L-3.35 8.9 -3.95 8.2 -3.95 8.05 Q-5.05 6.8 -5.6 5.3 -5.75 4.2 -5.55 3.0 M-8.8 -1.7 L-8.7 -1.95 Q-8.55 -1.7 -8.3 -1.4 -7.95 -0.9 -7.55 -0.55 -7.8 -0.3 -7.9 0.05 -7.95 0.25 -7.9 0.45 -8.3 0.05 -8.5 -0.5 -8.75 -1.1 -8.8 -1.7 M-5.4 8.65 L-5.6 8.1 Q-5.75 7.5 -5.8 6.95 -5.35 7.8 -4.65 8.45 L-4.2 9.25 Q-4.5 9.1 -4.85 9.0 L-5.4 8.65 M2.3 11.45 Q1.9 11.65 1.4 11.55 0.95 11.45 0.65 11.15 L0.7 11.05 Q0.7 11.0 0.75 11.0 L0.9 10.9 1.0 10.9 2.3 11.45" fill="#a9854f" fill-rule="evenodd" stroke="none"/>
    <path d="M-1.2 7.35 L-0.25 7.5 -0.2 7.5 0.15 7.75 0.2 7.8 -0.2 7.95 Q-0.45 8.0 -0.55 8.3 L-0.55 8.4 Q-0.95 7.95 -1.25 7.45 L-1.2 7.35 M3.6 7.35 L4.35 7.35 4.35 7.5 4.3 7.65 4.35 7.65 Q4.4 7.75 4.4 7.8 L4.25 8.2 4.15 8.45 Q4.1 8.15 3.95 7.85 L3.8 7.7 3.65 7.65 3.4 7.7 Q3.4 7.6 3.45 7.5 L3.6 7.35 M4.1 8.65 Q3.9 9.05 3.7 9.4 3.5 9.15 3.55 8.75 3.6 8.45 3.45 8.25 L3.35 8.15 3.2 8.3 3.2 8.35 Q3.05 8.45 2.9 8.4 L2.95 8.35 2.9 8.35 2.95 8.25 2.95 8.3 3.0 8.3 3.1 8.25 3.3 8.05 3.35 8.05 Q3.35 8.0 3.4 8.0 L3.4 7.8 3.45 7.8 Q3.65 7.85 3.8 7.95 4.1 8.2 4.1 8.65 M2.65 9.85 L2.5 9.85 2.35 9.9 2.25 9.8 Q2.15 9.7 2.2 9.55 L2.2 9.4 Q2.2 9.15 2.4 9.1 2.75 9.15 2.7 9.55 L2.65 9.85 M0.55 9.6 L0.5 9.55 0.5 9.5 0.2 9.2 Q0.15 9.0 0.2 8.75 0.2 8.35 0.45 8.1 L0.5 8.05 0.6 8.1 0.65 8.3 Q0.7 8.55 0.65 8.95 L0.55 9.55 0.55 9.6" fill="#cccccc" fill-rule="evenodd" stroke="none"/>
    <path d="M-0.2 7.5 L-0.1 7.5 0.1 7.45 0.6 7.45 3.25 7.35 3.6 7.35 3.45 7.5 Q3.4 7.6 3.4 7.7 L3.4 7.8 3.4 8.0 Q3.35 8.0 3.35 8.05 L3.3 8.05 3.1 8.25 3.0 8.3 2.95 8.3 2.95 8.25 2.9 8.35 2.95 8.35 2.9 8.4 2.75 8.45 1.9 8.45 1.7 8.4 1.35 8.4 0.95 8.25 Q0.7 8.1 0.45 8.0 L0.2 7.8 0.15 7.75 -0.2 7.5 M4.35 7.35 L4.65 7.35 4.6 7.45 Q4.5 7.6 4.4 7.8 4.4 7.75 4.35 7.65 L4.3 7.65 4.35 7.5 4.35 7.35" fill="#8c0000" fill-rule="evenodd" stroke="none"/>
    <path d="M3.25 6.85 L3.6 6.85 3.55 6.9 3.25 6.85" fill="#cacaca" fill-rule="evenodd" stroke="none"/>
    <path d="M-6.55 0.2 L-6.55 0.55 -6.95 0.15 -6.9 0.0 -6.55 0.2 M-7.9 0.45 Q-7.95 0.25 -7.9 0.05 -7.8 -0.3 -7.55 -0.55 L-7.35 -0.35 Q-7.55 -0.25 -7.7 -0.1 -7.95 0.15 -7.85 0.5 L-7.9 0.45 M-7.5 0.6 L-7.6 0.75 -7.75 0.6 -7.5 0.6" fill="#111111" fill-rule="evenodd" stroke="none"/>
    <path d="M-5.35 -2.0 Q-4.85 -1.05 -4.7 0.35 L-4.5 2.7 Q-4.45 3.1 -4.45 3.85 L-4.4 5.05 Q-4.4 5.25 -4.25 6.2 -4.05 7.1 -4.05 7.35 L-4.05 7.55 -3.85 8.1 -3.45 9.05 -3.55 9.05 -3.4 9.3 -3.15 9.6 -3.1 9.5 Q-2.65 9.05 -2.55 8.5 L-2.55 8.3 -2.5 8.25 -2.45 8.0 Q-2.3 7.45 -2.3 7.2 -2.3 7.1 -2.4 6.95 -2.5 6.8 -2.5 6.75 -2.5 6.4 -1.1 6.35 L1.4 6.15 1.5 6.15 1.55 6.2 Q1.0 6.35 0.25 6.65 -0.5 6.95 -0.7 7.0 L-1.2 6.95 Q-1.55 6.9 -1.85 6.95 -2.2 7.0 -2.25 7.55 L-2.25 8.25 -2.2 8.25 -2.2 8.5 -2.15 9.35 Q-2.15 9.95 -1.45 10.95 -0.7 12.0 -0.7 12.1 L-0.7 12.15 -0.1 12.85 0.45 13.35 1.0 13.7 1.2 13.75 Q1.7 13.8 2.15 13.75 2.15 13.65 2.15 13.45 L2.15 12.65 Q2.1 12.05 1.9 11.55 L1.85 11.5 Q1.45 11.15 1.2 11.0 L0.9 10.9 0.9 10.85 Q1.3 10.85 2.0 10.85 L2.75 10.9 Q2.85 10.9 3.05 10.8 3.25 10.65 3.35 10.65 3.25 10.95 3.1 11.05 L2.95 11.15 Q2.8 11.5 2.75 11.9 L2.8 12.3 Q2.85 12.7 3.05 12.95 L3.35 12.7 4.65 11.65 4.9 10.6 4.85 10.6 4.8 10.45 4.75 10.25 Q4.75 9.95 5.0 8.65 L5.25 7.4 5.25 7.1 Q4.8 7.05 4.4 6.8 3.95 6.5 3.4 6.4 L3.45 6.35 4.95 6.45 Q5.05 6.45 5.4 6.65 5.75 6.8 5.75 6.9 L5.8 7.5 Q5.8 8.15 5.75 8.7 5.65 10.2 5.0 10.55 L5.1 11.1 Q5.1 11.95 5.0 12.4 4.95 12.65 4.7 13.1 4.4 13.65 4.15 14.35 3.7 15.05 2.95 16.0 L2.8 16.15 2.2 15.7 Q1.5 15.3 0.4 14.25 L-0.3 13.55 Q-1.65 12.6 -3.2 10.85 -5.85 7.9 -5.85 6.35 -5.85 5.85 -5.45 6.2 L-5.5 5.95 Q-5.0 0.9 -5.0 0.05 L-5.4 -2.0 -5.35 -2.0 M-2.75 10.25 L-2.55 10.4 -2.6 10.2 -2.75 10.25 M-4.25 7.95 L-4.2 8.05 -4.2 7.9 -4.25 7.95 M2.5 13.5 L2.35 13.7 2.65 13.65 2.5 13.5 M4.25 12.8 L4.4 12.75 4.45 12.4 4.3 12.75 4.25 12.8" fill="#1a1a1a" fill-rule="evenodd" stroke="none"/>
  </g>
</svg>
