<?xml version="1.0" encoding="UTF-8" standalone="no"?>
<svg xmlns:ffdec="https://www.free-decompiler.com/flash" xmlns:xlink="http://www.w3.org/1999/xlink" ffdec:objectType="shape" height="21.75px" width="17.95px" xmlns="http://www.w3.org/2000/svg">
  <g transform="matrix(1.0, 0.0, 0.0, 1.0, 10.05, 8.85)">
    <path d="M7.45 5.3 Q7.65 5.2 7.75 5.2 L7.8 5.25 Q8.0 5.4 7.75 6.3 L7.7 6.5 7.65 6.65 7.65 6.7 Q7.4 7.45 7.0 8.1 6.6 8.8 6.65 9.7 6.75 10.6 6.35 11.0 5.95 11.35 5.45 11.65 4.75 12.0 4.0 12.25 L2.3 12.8 Q1.35 13.1 -0.6 12.7 -0.95 12.6 -1.2 12.4 -1.65 12.1 -2.1 11.55 L-3.0 10.4 -3.05 10.35 -3.4 9.9 -3.5 9.85 -3.65 9.85 -3.65 9.9 -3.7 9.85 -3.9 9.85 -3.9 9.9 Q-4.7 10.05 -5.45 9.5 L-5.95 9.15 Q-8.0 7.95 -8.0 4.4 -8.0 3.95 -7.9 3.55 -7.8 2.95 -7.55 2.45 L-7.5 2.1 Q-9.75 1.9 -10.05 -0.95 L-10.05 -1.55 Q-10.1 -3.55 -8.55 -4.5 L-7.8 -4.25 -7.65 -4.15 -7.6 -4.45 -7.55 -4.8 -7.55 -4.95 -7.5 -5.55 -7.5 -5.7 -7.45 -5.8 -7.35 -6.35 -7.0 -6.45 Q-6.55 -6.25 -6.6 -5.85 L-6.5 -5.9 -6.75 -4.95 -6.8 -4.7 -6.8 -3.9 Q-6.8 -3.6 -6.9 -3.35 L-6.95 -3.45 -7.0 -3.3 -6.9 -3.15 -6.9 -3.1 -6.45 -2.6 -6.4 -2.55 -6.3 -2.7 -6.2 -2.35 -5.9 -1.35 -6.05 -0.9 Q-6.3 -0.95 -6.5 -1.15 -6.65 -1.35 -6.8 -1.75 L-6.8 -1.95 -7.3 -2.5 Q-7.6 -2.6 -7.85 -2.75 L-8.35 -2.75 Q-7.45 -2.2 -6.95 -1.25 L-6.9 -1.2 -6.6 -0.55 -6.55 -0.3 Q-6.45 0.0 -6.45 0.3 -6.5 0.25 -6.55 0.2 L-6.9 0.0 -6.95 0.15 -7.0 0.25 -7.1 0.4 -7.15 0.4 Q-7.3 0.55 -7.5 0.6 L-7.75 0.6 -7.6 0.75 -7.3 0.95 -7.0 1.1 -6.95 1.15 -6.6 1.25 -6.55 1.3 -6.5 1.3 Q-6.05 1.5 -6.05 1.55 L-6.1 1.55 -6.15 1.65 -6.05 1.75 Q-6.0 2.2 -5.8 2.95 L-5.65 3.6 -5.65 3.95 -5.55 3.95 -5.6 4.25 -5.6 4.6 Q-5.6 5.25 -5.3 5.95 -5.1 6.5 -4.75 7.05 L-4.25 7.65 -4.05 8.05 -3.95 8.2 -1.1 11.45 -0.65 11.8 Q-0.05 12.25 0.7 12.35 1.5 12.4 4.4 11.4 L4.3 11.4 Q4.95 11.0 5.4 10.75 5.85 10.5 5.75 9.7 5.65 9.25 5.8 8.8 5.85 8.5 6.05 8.15 L6.2 7.85 6.8 6.6 Q7.05 6.0 7.4 5.35 L7.45 5.3 M-4.15 -8.75 L-4.15 -8.8 -4.15 -8.75 M-8.7 -1.95 L-8.75 -2.2 -8.8 -2.15 -8.8 -1.7 Q-8.75 -1.1 -8.5 -0.5 -8.3 0.05 -7.9 0.45 L-7.85 0.5 Q-7.95 0.15 -7.7 -0.1 -7.55 -0.25 -7.35 -0.35 L-7.55 -0.55 Q-7.95 -0.9 -8.3 -1.4 -8.55 -1.7 -8.7 -1.95 M-0.7 6.4 Q-0.1 6.65 0.5 6.75 L1.0 6.8 2.25 6.65 3.05 6.5 Q3.35 6.45 4.05 6.8 L4.4 6.85 4.8 6.75 4.95 6.65 5.45 6.65 5.9 6.85 6.0 6.85 5.95 7.0 5.85 7.15 5.8 7.3 5.65 7.45 5.3 7.9 5.0 8.3 4.8 8.55 4.55 8.8 4.5 8.95 4.5 8.9 4.4 8.95 4.55 8.95 4.55 9.0 4.85 8.95 4.45 9.25 Q4.15 9.45 3.75 9.5 L3.65 9.5 Q3.05 9.6 2.5 9.5 L2.1 9.5 1.8 9.45 1.85 9.55 1.3 9.15 Q0.95 8.95 0.65 8.7 -0.15 8.15 -0.75 7.15 -0.9 6.95 -0.95 6.75 L-1.0 6.7 -0.95 6.7 -0.95 6.6 -0.95 6.55 -0.95 6.5 -1.05 6.35 -1.0 6.4 -1.05 6.3 -1.0 6.25 -0.95 6.3 -0.9 6.2 -0.8 6.35 -0.7 6.4 M-6.5 4.25 L-6.45 4.2 -6.5 3.85 Q-6.6 3.35 -6.6 2.85 L-6.6 2.75 -6.65 2.3 -6.75 2.8 -6.75 2.85 -6.8 3.1 Q-6.9 4.45 -6.7 5.75 L-6.5 6.95 -6.35 7.35 Q-6.0 8.15 -5.4 8.65 L-4.85 9.0 Q-4.5 9.1 -4.2 9.25 L-4.1 9.3 -4.3 8.95 -4.35 8.95 -4.4 8.9 -4.45 8.7 -4.5 8.65 -4.55 8.65 -5.8 6.95 Q-6.2 5.85 -6.4 4.75 L-6.5 4.25 M-6.2 5.9 L-6.3 5.65 -6.35 5.3 -6.2 5.9 M-7.1 3.05 L-7.1 3.05 M4.5 8.1 L4.55 8.0 4.85 7.6 4.5 7.55 3.5 7.5 1.7 7.4 0.0 7.25 -0.25 7.2 -0.2 7.2 -0.1 7.3 0.05 7.45 Q0.8 8.25 1.85 8.75 2.35 9.0 2.95 8.95 L4.0 8.95 4.2 8.95 4.2 8.85 Q4.25 8.65 4.3 8.5 4.4 8.25 4.5 8.1 M4.35 7.2 L4.45 7.2 4.45 7.15 4.35 7.2 M2.45 7.1 L2.35 7.05 2.4 7.1 2.45 7.1" fill="#1a1a1a" fill-rule="evenodd" stroke="none"/>
    <path d="M-0.2 7.2 L-0.25 7.2 0.0 7.25 1.7 7.4 3.5 7.5 4.5 7.55 4.85 7.6 4.55 8.0 4.5 8.1 4.45 8.1 3.35 8.25 2.95 8.25 2.85 8.2 2.75 8.2 2.75 8.25 Q2.75 8.6 3.25 8.6 3.85 8.7 4.3 8.5 4.25 8.65 4.2 8.85 L4.0 8.95 4.0 8.95 2.95 8.95 Q2.35 9.0 1.85 8.75 0.8 8.25 0.05 7.45 L-0.1 7.3 -0.2 7.2" fill="#ffffff" fill-rule="evenodd" stroke="none"/>
    <path d="M4.3 8.5 Q3.85 8.7 3.25 8.6 2.75 8.6 2.75 8.25 L2.75 8.2 2.85 8.2 2.95 8.25 3.35 8.25 4.45 8.1 4.5 8.1 Q4.4 8.25 4.3 8.5" fill="#cccccc" fill-rule="evenodd" stroke="none"/>
    <path d="M-3.4 9.9 L-3.3 10.2 -3.5 9.85 -3.4 9.9 M-8.8 -1.7 L-8.7 -1.95 Q-8.55 -1.7 -8.3 -1.4 -7.95 -0.9 -7.55 -0.55 -7.8 -0.3 -7.9 0.05 -7.95 0.25 -7.9 0.45 -8.3 0.05 -8.5 -0.5 -8.75 -1.1 -8.8 -1.7 M-7.0 0.25 L-6.9 0.6 Q-6.6 0.6 -6.15 0.8 -5.55 1.0 -4.8 1.5 -4.0 2.15 -3.7 2.4 -3.25 2.85 -3.25 3.35 -3.25 3.5 -3.5 5.3 L-3.5 5.35 Q-3.5 6.15 -3.55 6.55 -3.65 7.1 -3.2 7.7 -2.7 8.35 -2.2 8.95 L-1.75 9.55 -1.2 10.15 Q-0.75 10.75 -0.2 11.3 L0.0 11.45 Q1.8 12.0 4.4 11.4 1.5 12.4 0.7 12.35 -0.05 12.25 -0.65 11.8 L-1.1 11.45 -3.95 8.2 -4.05 8.05 -4.25 7.65 -4.75 7.05 Q-5.1 6.5 -5.3 5.95 -5.6 5.25 -5.6 4.6 L-5.6 4.25 -5.55 3.95 -5.65 3.95 -5.65 3.6 -5.8 2.95 Q-6.0 2.2 -6.05 1.75 L-6.15 1.65 -6.1 1.55 -6.05 1.55 Q-6.05 1.5 -6.5 1.3 L-6.7 1.2 -7.05 1.1 -7.05 0.95 -7.3 0.95 -7.6 0.75 -7.5 0.6 Q-7.3 0.55 -7.15 0.4 L-7.1 0.4 -7.0 0.25 M-0.95 6.6 L-1.25 6.8 Q-1.45 6.8 -1.5 6.6 L-1.5 6.4 Q-1.5 6.0 -1.45 5.85 -1.3 5.65 -0.8 5.65 -0.45 5.65 -0.35 5.7 L-0.1 5.85 -0.1 5.95 Q-0.2 6.05 -0.7 6.4 L-0.8 6.35 -0.9 6.2 -0.95 6.3 -1.0 6.25 -1.05 6.3 -1.0 6.4 -1.05 6.35 -0.95 6.5 -0.95 6.55 -0.95 6.6 M5.9 6.85 L5.8 6.6 Q5.8 6.3 6.05 6.4 6.3 6.55 6.3 6.8 6.3 6.95 6.15 7.25 L5.85 7.2 5.85 7.15 5.95 7.0 6.0 6.85 5.9 6.85 M-5.4 8.65 L-5.6 8.1 Q-5.75 7.6 -5.75 7.2 -5.85 7.0 -6.0 6.9 L-6.2 5.9 -6.35 5.3 -6.5 4.65 Q-6.55 4.4 -6.6 4.25 L-6.7 4.3 -6.7 4.15 -6.6 4.25 -6.5 4.25 -6.4 4.75 Q-6.2 5.85 -5.8 6.95 L-4.55 8.65 -4.5 8.65 -4.45 8.7 -4.4 8.9 -4.35 8.95 -4.3 8.95 -4.1 9.3 -4.2 9.25 Q-4.5 9.1 -4.85 9.0 L-5.4 8.65 M4.2 9.7 Q4.5 9.55 4.8 9.55 5.2 10.0 4.35 10.4 3.9 10.6 3.55 10.45 3.7 9.95 4.2 9.7" fill="#a9854f" fill-rule="evenodd" stroke="none"/>
    <path d="M-4.15 -8.8 Q-3.7 -8.95 -1.1 -8.6 L0.05 -8.7 Q2.35 -8.45 2.75 -6.55 3.15 -4.65 3.25 -3.25 3.4 -1.85 3.6 -0.55 3.8 0.7 4.25 1.8 L4.35 2.15 4.85 3.2 5.2 3.8 5.5 4.1 5.75 4.1 5.95 4.35 6.15 4.45 6.55 4.75 6.6 4.8 Q7.2 5.1 7.25 5.05 L7.35 5.2 7.45 5.3 7.4 5.35 Q7.05 6.0 6.8 6.6 L6.2 7.85 6.05 8.15 Q5.85 8.5 5.8 8.8 5.65 9.25 5.75 9.7 5.85 10.5 5.4 10.75 4.95 11.0 4.3 11.4 L4.4 11.4 Q1.8 12.0 0.0 11.45 L-0.2 11.3 Q-0.75 10.75 -1.2 10.15 L-1.75 9.55 -2.2 8.95 Q-2.7 8.35 -3.2 7.7 -3.65 7.1 -3.55 6.55 -3.5 6.15 -3.5 5.35 L-3.5 5.3 Q-3.25 3.5 -3.25 3.35 -3.25 2.85 -3.7 2.4 -4.0 2.15 -4.8 1.5 -5.55 1.0 -6.15 0.8 -6.6 0.6 -6.9 0.6 L-7.0 0.25 -6.95 0.15 -6.55 0.55 -6.55 0.2 Q-6.5 0.25 -6.45 0.3 -6.45 0.0 -6.55 -0.3 L-6.6 -0.55 -6.9 -1.2 -6.95 -1.25 Q-7.45 -2.2 -8.35 -2.75 L-7.85 -2.75 Q-7.6 -2.6 -7.3 -2.5 L-6.8 -1.95 -6.8 -1.75 Q-6.65 -1.35 -6.5 -1.15 -6.3 -0.95 -6.05 -0.9 L-5.9 -1.35 -6.2 -2.35 -6.3 -2.7 -6.4 -2.55 -6.45 -2.6 -6.9 -3.1 -6.9 -3.15 -7.0 -3.3 -6.95 -3.45 -6.9 -3.35 Q-6.8 -3.6 -6.8 -3.9 L-6.8 -4.7 -6.75 -4.95 -6.5 -5.9 -6.6 -5.85 -6.3 -5.95 -6.1 -6.1 Q-5.9 -6.3 -5.6 -6.35 L-5.55 -6.45 -5.5 -6.65 Q-5.0 -7.75 -4.5 -8.25 L-4.25 -8.6 -4.25 -8.7 -4.2 -8.7 -4.15 -8.75 -4.15 -8.8 M-8.7 -1.95 L-8.8 -1.7 -8.8 -2.15 -8.75 -2.2 -8.7 -1.95 M-7.3 0.95 L-7.05 0.95 -7.05 1.1 -6.7 1.2 -6.5 1.3 -6.55 1.3 -6.6 1.25 -6.95 1.15 -7.0 1.1 -7.3 0.95 M-0.7 6.4 Q-0.2 6.05 -0.1 5.95 L-0.1 5.85 -0.35 5.7 Q-0.45 5.65 -0.8 5.65 -1.3 5.65 -1.45 5.85 -1.5 6.0 -1.5 6.4 L-1.5 6.6 Q-1.45 6.8 -1.25 6.8 L-0.95 6.6 -0.95 6.7 -1.0 6.7 -0.95 6.75 Q-0.9 6.95 -0.75 7.15 -0.15 8.15 0.65 8.7 0.95 8.95 1.3 9.15 L1.85 9.55 1.8 9.45 2.1 9.5 2.5 9.5 Q3.05 9.6 3.65 9.5 L3.75 9.5 Q4.15 9.45 4.45 9.25 L4.85 8.95 4.55 9.0 4.55 8.95 4.4 8.95 4.5 8.9 4.5 8.95 4.55 8.8 4.8 8.55 5.0 8.3 5.3 7.9 5.65 7.45 5.8 7.3 5.85 7.15 5.85 7.2 6.15 7.25 Q6.3 6.95 6.3 6.8 6.3 6.55 6.05 6.4 5.8 6.3 5.8 6.6 L5.9 6.85 5.45 6.65 4.95 6.65 4.8 6.75 4.4 6.85 4.05 6.8 Q3.35 6.45 3.05 6.5 L2.25 6.65 1.0 6.8 0.5 6.75 Q-0.1 6.65 -0.7 6.4 M-5.4 8.65 Q-6.0 8.15 -6.35 7.35 L-6.5 6.95 -6.7 5.75 Q-6.9 4.45 -6.8 3.1 L-6.75 2.85 -6.75 2.8 -6.65 2.3 -6.6 2.75 -6.6 2.85 Q-6.6 3.35 -6.5 3.85 L-6.45 4.2 -6.5 4.25 -6.6 4.25 -6.7 4.15 -6.7 4.3 -6.6 4.25 Q-6.55 4.4 -6.5 4.65 L-6.35 5.3 -6.3 5.65 -6.2 5.9 -6.0 6.9 Q-5.85 7.0 -5.75 7.2 -5.75 7.6 -5.6 8.1 L-5.4 8.65 M-7.1 3.05 L-7.1 3.05 M-0.2 7.2 L-0.1 7.3 -0.2 7.2 M4.0 8.95 L4.0 8.95 4.2 8.85 4.2 8.95 4.0 8.95 M4.35 7.2 L4.45 7.15 4.45 7.2 4.35 7.2 M4.2 9.7 Q3.7 9.95 3.55 10.45 3.9 10.6 4.35 10.4 5.2 10.0 4.8 9.55 4.5 9.55 4.2 9.7 M2.45 7.1 L2.4 7.1 2.35 7.05 2.45 7.1" fill="#c7a36d" fill-rule="evenodd" stroke="none"/>
    <path d="M-7.9 0.45 Q-7.95 0.25 -7.9 0.05 -7.8 -0.3 -7.55 -0.55 L-7.35 -0.35 Q-7.55 -0.25 -7.7 -0.1 -7.95 0.15 -7.85 0.5 L-7.9 0.45 M-7.5 0.6 L-7.6 0.75 -7.75 0.6 -7.5 0.6 M-6.95 0.15 L-6.9 0.0 -6.55 0.2 -6.55 0.55 -6.95 0.15" fill="#111111" fill-rule="evenodd" stroke="none"/>
    <path d="M-5.2 -1.1 L-5.2 -1.05 -5.15 -0.95 Q-5.15 -0.75 -5.2 -0.8 L-5.25 -0.75 -5.5 -0.75 Q-5.55 -0.8 -5.55 -0.95 L-5.55 -1.05 -5.5 -1.1 -5.2 -1.1 M-4.55 -0.1 Q-4.45 0.0 -4.45 0.1 L-4.65 0.3 Q-4.85 0.25 -4.9 0.15 -4.8 0.0 -4.75 -0.05 L-4.55 -0.1 M-4.25 1.45 L-4.4 1.5 -4.65 1.25 -4.65 1.15 Q-4.4 1.1 -4.2 1.35 L-4.25 1.45 M-3.9 1.55 L-3.9 1.7 Q-3.9 1.85 -3.95 1.9 L-4.1 1.95 -4.3 1.9 -4.35 1.85 -4.35 1.5 -3.95 1.5 -3.9 1.55 M-5.05 0.45 L-5.2 0.5 -5.4 0.3 Q-5.4 0.15 -5.35 0.15 L-5.2 0.1 Q-5.05 0.2 -5.0 0.25 L-5.05 0.45 M-5.1 1.25 Q-5.05 1.25 -5.0 1.35 L-4.95 1.4 -4.95 1.5 Q-5.05 1.65 -5.1 1.65 L-5.3 1.65 Q-5.35 1.6 -5.35 1.5 L-5.2 1.4 Q-5.15 1.35 -5.15 1.3 L-5.1 1.25 M-4.45 2.45 Q-4.4 2.35 -4.25 2.4 L-4.1 2.5 -4.05 2.6 -4.25 2.85 -4.5 2.6 -4.45 2.45 M-4.85 2.2 L-4.95 2.25 Q-5.05 2.15 -5.15 2.1 L-5.2 2.05 -5.15 1.9 Q-5.15 1.8 -4.95 1.85 -4.85 1.9 -4.75 2.05 L-4.85 2.2 M-5.6 2.55 L-5.75 2.55 Q-5.8 2.5 -5.8 2.35 -5.8 2.2 -5.65 2.2 -5.5 2.2 -5.35 2.35 L-5.4 2.5 -5.6 2.55 M-5.45 3.3 Q-5.45 3.0 -5.2 3.0 -5.0 3.05 -4.9 3.3 L-4.95 3.55 -5.0 3.55 -5.1 3.6 Q-5.3 3.6 -5.4 3.45 L-5.45 3.3 M-4.95 2.65 Q-4.4 3.0 -4.25 3.3 L-4.25 3.4 Q-4.3 3.45 -4.4 3.45 -4.75 3.45 -4.85 3.2 -4.95 3.0 -4.95 2.65 M-3.75 3.3 L-3.65 3.25 -3.4 3.4 -3.65 3.65 -3.8 3.65 -3.8 3.6 -3.85 3.45 Q-3.85 3.35 -3.75 3.3 M-3.85 4.2 L-3.95 4.3 -3.6 4.3 -3.55 4.55 -3.6 4.75 -3.65 4.75 -3.8 4.8 Q-4.1 4.8 -4.1 4.5 -4.1 4.4 -4.0 4.35 L-4.15 4.35 -4.3 4.3 -4.35 4.3 -4.35 4.15 Q-4.35 4.05 -4.25 4.0 -4.15 4.0 -3.95 4.0 L-3.85 4.2 M-4.0 5.25 L-4.25 5.2 Q-4.35 5.1 -4.4 5.05 L-4.0 4.75 -3.9 4.8 Q-3.85 4.85 -3.85 5.0 -3.85 5.2 -3.85 5.15 L-3.85 5.2 -4.0 5.25 M-3.1 5.05 Q-2.85 5.05 -2.85 5.35 -2.85 5.55 -2.85 5.5 L-2.9 5.55 Q-2.95 5.6 -3.1 5.6 L-3.25 5.6 -3.35 5.5 -3.35 5.45 -3.4 5.25 Q-3.4 5.05 -3.1 5.05 M-4.45 4.35 L-4.5 4.5 -4.55 4.55 -4.75 4.55 -5.05 4.5 -5.05 4.15 -4.5 4.15 -4.45 4.35 M-5.7 3.85 Q-5.7 3.7 -5.65 3.65 L-5.5 3.6 -5.25 3.9 -5.3 4.0 Q-5.35 4.05 -5.5 4.05 L-5.55 4.05 Q-5.65 4.05 -5.65 4.0 L-5.7 3.95 -5.7 3.85 M-5.6 4.3 L-5.45 4.35 -5.4 4.35 -5.4 4.5 Q-5.4 4.7 -5.45 4.65 L-5.5 4.65 -5.6 4.7 -5.65 4.7 -5.8 4.65 -5.85 4.6 -5.9 4.5 -5.75 4.35 -5.6 4.3 M-4.7 4.85 L-4.7 5.05 -4.75 5.2 Q-4.85 5.35 -4.95 5.45 -5.2 5.25 -5.2 5.2 -5.2 5.0 -5.05 4.9 L-4.7 4.85 M-4.95 6.05 Q-4.95 6.25 -4.95 6.2 L-5.1 6.3 -5.2 6.25 -5.4 6.05 Q-5.4 6.0 -5.35 5.95 L-5.0 5.9 Q-5.0 5.75 -4.85 5.75 -4.7 5.8 -4.55 5.9 L-4.6 6.05 -4.8 6.1 -4.95 6.0 -4.95 6.05 M-4.45 6.8 L-4.15 6.8 Q-4.0 6.85 -4.0 7.05 L-4.0 7.15 Q-4.05 7.25 -4.2 7.25 -4.35 7.25 -4.4 7.1 L-4.45 6.95 -4.45 6.8 M-4.65 6.35 Q-4.65 6.2 -4.6 6.15 L-4.25 6.15 -4.2 6.2 Q-4.2 6.25 -4.2 6.35 L-4.2 6.5 -4.3 6.6 -4.4 6.6 -4.65 6.35 M-3.45 6.0 Q-3.35 6.1 -3.35 6.15 L-3.45 6.3 -3.55 6.35 -3.75 6.15 Q-3.75 6.1 -3.65 6.05 -3.55 5.95 -3.55 5.9 L-3.5 5.9 -3.45 6.0 M-3.75 5.55 L-3.75 5.65 Q-3.75 5.85 -3.75 5.8 -3.8 5.8 -3.95 5.9 L-4.1 5.85 Q-4.15 5.8 -4.15 5.7 -4.15 5.55 -4.05 5.55 -3.95 5.5 -3.8 5.55 L-3.75 5.55 M-2.95 6.2 Q-2.9 6.15 -2.85 6.1 -2.7 6.2 -2.65 6.3 -2.65 6.35 -2.7 6.4 L-2.85 6.5 Q-3.0 6.45 -3.05 6.35 L-2.95 6.2 M-0.6 5.1 L-0.65 5.25 Q-0.65 5.3 -0.8 5.3 -1.0 5.3 -1.0 5.25 L-1.05 5.1 Q-1.05 5.0 -0.9 4.95 L-0.65 5.0 -0.6 5.1 M-1.8 5.65 Q-1.8 5.55 -1.7 5.5 -1.6 5.45 -1.4 5.6 -1.4 5.7 -1.55 5.85 L-1.75 5.85 -1.8 5.8 -1.8 5.65 M-1.8 6.15 L-1.7 6.2 Q-1.8 6.35 -1.95 6.4 L-2.1 6.4 Q-2.15 6.35 -2.15 6.2 L-2.15 6.15 Q-2.05 6.05 -1.8 6.1 L-1.8 6.15 M-2.4 6.75 L-2.4 6.55 -2.05 6.55 -2.0 6.6 -2.0 7.0 -2.05 7.05 -2.2 7.1 Q-2.4 7.1 -2.4 6.95 L-2.4 6.75 M-1.6 6.75 L-1.6 6.8 -1.55 7.1 -1.65 7.15 -1.8 7.1 Q-1.85 7.05 -1.85 6.95 -1.85 6.8 -1.75 6.75 L-1.6 6.75 M-0.55 5.75 L-0.65 5.8 -0.8 5.75 -0.9 5.7 Q-0.9 5.75 -0.9 5.6 -0.9 5.4 -0.65 5.4 -0.5 5.4 -0.4 5.5 -0.25 5.45 0.0 5.5 L0.05 5.65 0.0 5.8 Q-0.05 5.9 -0.2 5.9 -0.4 5.9 -0.35 5.85 L-0.4 5.8 -0.45 5.65 -0.55 5.75 M-0.4 6.0 L-0.2 6.0 Q-0.1 6.05 0.0 6.15 -0.05 6.25 -0.25 6.35 L-0.35 6.3 Q-0.4 6.25 -0.4 6.15 L-0.4 6.0 M-1.1 5.85 L-1.0 6.0 Q-1.05 6.1 -1.25 6.15 L-1.4 6.15 Q-1.45 6.1 -1.45 6.0 -1.45 5.85 -1.35 5.85 L-1.1 5.85 M-2.9 6.95 Q-2.85 6.95 -2.85 7.1 -2.85 7.2 -2.9 7.25 L-2.9 7.3 -2.95 7.35 -3.1 7.35 Q-3.2 7.35 -3.25 7.3 L-3.35 7.2 -3.35 7.1 Q-3.35 6.8 -2.9 6.95 M-1.6 7.45 Q-1.55 7.45 -1.55 7.55 L-1.5 7.55 -1.45 8.0 Q-1.65 7.85 -1.65 7.8 L-1.65 7.75 -1.8 7.85 -2.05 7.65 Q-2.05 7.55 -1.95 7.5 L-1.65 7.45 -1.6 7.45 M-2.3 7.55 L-2.35 7.75 -2.4 7.75 -2.5 7.8 Q-2.75 7.6 -2.75 7.55 -2.75 7.2 -2.35 7.3 L-2.3 7.55 M-2.85 8.2 L-2.85 8.25 Q-2.85 8.35 -3.1 8.35 -3.15 8.35 -3.35 8.2 L-3.55 7.9 Q-3.35 7.8 -3.15 7.85 L-3.05 7.9 Q-2.9 7.95 -2.8 8.1 L-2.85 8.2 M-2.6 8.15 L-2.6 8.1 Q-2.4 8.1 -2.25 8.2 -2.05 8.3 -2.05 8.45 L-2.1 8.65 -1.75 8.65 -1.65 8.85 -1.9 9.05 -2.15 8.85 -2.15 8.65 -2.3 8.7 -2.45 8.7 Q-2.55 8.65 -2.6 8.5 L-2.6 8.15 M-2.75 8.75 L-2.9 8.85 -3.05 8.8 Q-3.1 8.8 -3.1 8.65 L-3.1 8.6 Q-2.9 8.55 -2.9 8.5 L-2.7 8.65 -2.75 8.75 M-1.6 8.35 Q-1.65 8.4 -1.8 8.4 L-1.95 8.35 Q-2.0 8.3 -2.0 8.2 -2.0 8.0 -1.85 8.05 -1.7 8.05 -1.55 8.2 L-1.6 8.35 M-1.65 9.7 Q-1.45 9.8 -1.45 9.95 L-1.5 10.05 -1.5 10.1 -1.65 10.15 Q-1.95 10.15 -1.95 9.85 L-1.9 9.75 -1.9 9.7 -1.65 9.7 M-1.65 9.35 L-1.6 9.15 Q-1.5 9.15 -1.35 9.25 L-1.2 9.45 Q-1.2 9.65 -1.25 9.65 L-1.5 9.45 -1.65 9.35 M-2.25 9.2 L-2.3 9.4 -2.5 9.4 Q-2.7 9.4 -2.75 9.3 -2.8 9.15 -2.95 9.1 L-2.3 9.1 -2.3 9.15 -2.25 9.2 M-2.55 9.55 L-2.25 9.55 -2.25 9.75 Q-2.25 9.95 -2.25 9.9 L-2.35 9.95 -2.4 9.95 -2.45 10.0 Q-2.65 9.8 -2.65 9.75 L-2.65 9.7 Q-2.6 9.6 -2.55 9.55 M-1.9 10.4 L-1.85 10.25 -1.55 10.25 Q-1.4 10.35 -1.4 10.5 L-1.4 10.6 -1.45 10.65 -1.6 10.7 Q-1.75 10.7 -1.8 10.6 L-1.9 10.4 M-1.0 10.25 L-1.0 10.2 -1.05 10.1 Q-1.05 10.0 -0.95 9.95 L-0.65 10.0 -0.6 10.1 -0.65 10.25 -0.8 10.3 Q-1.0 10.3 -1.0 10.25 M-0.85 10.6 Q-0.7 10.6 -0.5 10.9 L-0.55 11.0 -0.6 11.05 -0.75 11.1 Q-0.95 11.1 -1.0 10.95 L-1.05 10.8 Q-1.05 10.6 -0.9 10.6 L-0.85 10.6 M-0.2 10.35 Q0.0 10.35 0.0 10.6 L-0.05 10.7 Q-0.05 10.75 -0.2 10.75 -0.35 10.75 -0.4 10.7 L-0.45 10.5 Q-0.35 10.35 -0.2 10.35 M-3.4 7.2 L-3.35 7.35 -3.4 7.4 Q-3.45 7.4 -3.55 7.45 L-3.35 7.6 Q-3.4 7.75 -3.55 7.85 L-3.75 7.75 -3.75 7.65 -3.7 7.55 Q-3.6 7.5 -3.55 7.45 L-3.75 7.3 -3.8 7.2 -3.75 7.05 -3.4 7.05 -3.4 7.2 M-3.7 8.4 L-3.55 8.4 -3.35 8.6 -3.4 8.75 -3.55 8.8 -3.75 8.6 Q-3.75 8.5 -3.7 8.45 L-3.7 8.4 M-3.4 9.9 L-3.3 10.2 -3.5 9.85 -3.4 9.9 M-1.05 11.4 L-1.05 11.35 Q-0.85 11.3 -0.6 11.35 L-0.55 11.55 -0.65 11.65 Q-0.65 11.7 -0.75 11.75 L-0.8 11.75 -1.0 11.7 -1.05 11.65 -1.1 11.55 -1.1 11.5 -1.05 11.4 M6.8 5.7 L6.85 5.65 7.0 5.85 Q7.0 5.95 6.85 6.0 L6.75 6.0 Q6.7 5.95 6.7 5.85 6.7 5.7 6.8 5.7 M5.9 5.7 L6.25 5.75 6.15 5.95 5.9 6.0 5.9 5.95 Q5.85 5.95 5.85 5.85 L5.85 5.7 5.9 5.7 M6.1 6.1 L6.2 6.1 6.45 6.3 6.4 6.4 6.15 6.35 6.1 6.35 6.1 6.1 M6.25 6.6 L6.35 6.55 6.5 6.55 Q6.6 6.65 6.6 6.7 6.55 6.85 6.45 6.9 L6.45 6.95 6.4 7.05 Q6.35 7.1 6.3 7.1 L6.15 7.0 Q6.25 6.9 6.3 6.85 L6.25 6.85 6.15 6.9 6.0 6.8 5.95 6.95 5.85 7.05 5.75 6.95 5.65 6.95 5.45 6.7 Q5.45 6.65 5.5 6.55 5.65 6.4 5.85 6.5 L5.9 6.55 5.9 6.65 5.95 6.7 6.0 6.7 Q6.05 6.55 6.25 6.55 L6.25 6.6 M7.15 6.85 L6.95 7.05 Q6.75 7.0 6.75 6.8 6.8 6.75 6.9 6.7 L7.05 6.7 7.15 6.85 M7.35 5.6 L7.2 5.5 Q7.25 5.3 7.4 5.25 L7.5 5.45 Q7.45 5.55 7.35 5.6 M1.1 5.65 Q1.1 5.8 0.95 5.85 L0.75 5.8 Q0.7 5.8 0.7 5.65 0.7 5.55 0.8 5.5 L0.95 5.5 Q1.05 5.55 1.1 5.65 M0.9 6.15 Q0.8 6.3 0.65 6.35 L0.4 6.15 0.4 6.05 0.45 6.0 0.6 5.95 Q0.7 5.95 0.85 6.05 L0.9 6.15 M1.3 5.9 L1.8 5.9 Q1.8 5.95 1.9 6.1 L1.75 6.2 1.65 6.25 1.3 6.2 1.25 6.1 1.3 5.95 1.3 5.9 M2.35 5.85 L2.45 5.8 2.7 5.85 Q2.7 5.9 2.75 6.05 L2.75 6.2 2.7 6.25 2.8 6.25 2.8 6.35 2.3 6.3 2.35 6.25 2.45 6.2 2.35 6.15 2.3 6.1 2.3 5.85 2.35 5.85 M3.55 5.95 Q3.7 6.0 3.75 6.1 L3.7 6.3 3.55 6.35 Q3.4 6.3 3.4 6.25 3.35 6.35 3.35 6.15 3.35 6.0 3.4 6.0 L3.55 5.95 M5.6 6.05 Q5.7 6.1 5.8 6.2 L5.7 6.35 5.6 6.4 5.45 6.4 Q5.4 6.35 5.4 6.2 5.4 6.1 5.5 6.1 L5.6 6.05 M4.7 6.4 L4.65 6.45 4.5 6.45 4.35 6.3 Q4.35 6.05 4.55 6.1 L4.8 6.3 4.7 6.4 M5.2 6.25 Q5.35 6.3 5.4 6.4 5.3 6.5 5.2 6.55 L5.1 6.55 Q5.05 6.5 5.05 6.4 5.05 6.25 5.1 6.25 L5.2 6.25 M5.75 7.9 Q5.75 7.7 6.05 7.75 L6.1 8.0 6.05 8.05 5.8 8.05 5.75 8.0 5.75 7.9 M5.75 7.15 L5.8 7.1 5.85 7.1 5.95 7.2 6.05 7.15 6.4 7.25 6.45 7.35 Q6.4 7.45 6.25 7.45 L6.35 7.6 Q6.25 7.75 6.15 7.75 L6.0 7.65 5.95 7.55 6.0 7.5 5.95 7.45 5.9 7.5 5.75 7.5 Q5.7 7.45 5.7 7.35 L5.7 7.3 5.75 7.15 M4.35 9.45 Q4.45 9.5 4.5 9.6 L4.45 9.75 4.35 9.8 4.2 9.8 4.15 9.65 4.15 9.6 Q4.15 9.5 4.2 9.45 L4.35 9.45 M3.9 9.6 L3.95 9.75 3.9 9.85 3.6 9.85 3.55 9.75 3.65 9.65 3.9 9.6 M3.25 9.7 L3.25 10.0 3.2 10.05 3.05 10.05 3.05 10.2 Q3.05 10.4 3.05 10.35 L2.85 10.4 2.65 10.25 2.5 10.4 2.3 10.2 2.3 10.05 2.35 10.0 2.7 10.0 2.7 9.95 2.95 9.7 Q3.0 9.65 3.15 9.7 L3.25 9.7 M3.55 10.05 L3.6 10.0 4.1 10.0 4.15 10.05 4.15 10.3 Q4.1 10.3 4.1 10.35 L3.85 10.4 3.65 10.4 3.6 10.35 3.55 10.2 3.55 10.05 M3.55 10.35 Q3.65 10.45 3.65 10.55 L3.6 10.65 Q3.5 10.7 3.45 10.7 3.25 10.6 3.25 10.4 3.4 10.3 3.55 10.35 M4.3 10.1 Q4.35 9.95 4.5 9.95 L4.65 10.1 4.6 10.25 4.5 10.3 4.35 10.2 4.3 10.1 M4.7 9.4 L4.85 9.35 4.9 9.45 Q4.85 9.6 4.75 9.65 L4.55 9.55 4.7 9.4 M5.1 10.3 L5.1 10.25 Q5.25 10.2 5.35 10.25 L5.65 10.45 5.6 10.65 5.55 10.65 5.45 10.7 5.4 10.7 Q5.1 10.7 5.1 10.4 L5.1 10.3 M5.7 10.35 Q5.8 10.35 5.9 10.45 L5.7 10.55 5.65 10.45 Q5.65 10.4 5.65 10.35 L5.7 10.35 M4.35 10.5 L4.4 10.7 4.4 10.9 4.2 10.95 Q3.95 10.75 3.95 10.7 3.95 10.55 4.0 10.5 4.1 10.45 4.35 10.5 M1.7 10.05 L1.7 10.0 1.65 10.0 1.65 9.75 1.8 9.75 Q1.95 9.75 2.15 9.85 L2.1 10.0 Q2.05 10.05 1.9 10.05 L1.7 10.05 M2.7 11.15 Q2.65 11.1 2.65 10.95 2.65 10.85 2.75 10.8 2.9 10.75 3.0 10.8 L3.05 11.0 Q3.05 11.1 2.85 11.15 L2.7 11.15 M1.55 11.8 L1.45 11.75 1.4 11.7 1.35 11.6 Q1.35 11.4 1.55 11.45 1.65 11.45 1.8 11.6 L1.75 11.7 1.75 11.75 1.55 11.8 M2.85 11.6 L2.85 11.5 2.9 11.45 3.05 11.4 3.35 11.45 Q3.35 11.5 3.35 11.6 L4.1 11.45 Q3.95 11.4 3.95 11.3 4.0 11.2 4.05 11.15 4.15 11.1 4.2 11.1 L4.25 11.15 4.3 11.25 Q4.3 11.45 4.25 11.35 L4.1 11.45 4.4 11.4 3.25 11.8 3.1 11.8 2.6 11.95 2.6 12.05 2.45 12.1 2.3 12.05 2.25 12.0 2.25 11.9 Q2.25 11.85 2.3 11.8 L2.35 11.8 2.25 11.7 Q2.25 11.55 2.3 11.5 L2.7 11.5 2.7 11.55 2.75 11.65 2.85 11.65 2.85 11.6 M0.65 11.35 L0.6 11.5 0.5 11.6 0.45 11.6 0.3 11.55 0.3 11.5 0.2 11.45 Q0.25 11.3 0.3 11.2 L0.65 11.2 0.65 11.35 M0.1 12.25 L0.1 12.2 0.05 12.15 0.05 12.05 Q0.05 11.95 0.2 11.9 0.35 11.85 0.6 11.9 L0.65 11.95 0.65 12.1 Q0.65 12.25 0.5 12.3 L0.35 12.3 0.1 12.25 M0.85 11.7 L1.25 11.7 1.25 11.95 Q1.2 12.05 1.1 12.1 L0.85 11.85 0.85 11.7 M5.2 10.9 L5.1 11.0 4.95 11.1 4.75 10.9 Q4.75 10.65 4.95 10.7 L5.15 10.9 5.2 10.9 M3.85 11.25 Q3.85 11.3 3.7 11.3 3.6 11.3 3.55 11.25 L3.45 11.15 3.45 10.9 3.85 10.9 3.9 11.2 3.85 11.25" fill="#003366" fill-rule="evenodd" stroke="none"/>
  </g>
</svg>
