<?xml version="1.0" encoding="UTF-8" standalone="no"?>
<svg xmlns:ffdec="https://www.free-decompiler.com/flash" xmlns:xlink="http://www.w3.org/1999/xlink" ffdec:objectType="shape" height="21.85px" width="18.9px" xmlns="http://www.w3.org/2000/svg">
  <g transform="matrix(1.0, 0.0, 0.0, 1.0, 10.1, 8.85)">
    <path d="M7.4 5.25 Q7.6 5.15 7.7 5.2 L7.75 5.2 Q7.95 5.35 7.7 6.25 L6.3 11.25 Q5.9 11.65 5.3 12.0 3.65 13.0 1.7 13.0 0.1 13.0 -0.9 12.65 L-1.15 12.55 -1.25 12.5 Q-1.95 12.15 -2.0 11.85 -2.55 11.25 -3.3 10.3 L-3.7 9.8 -3.75 9.8 -4.0 9.8 -4.0 9.85 Q-4.75 10.0 -5.5 9.45 L-6.0 9.1 Q-8.05 7.9 -8.05 4.35 -8.05 3.25 -7.6 2.4 L-7.6 2.15 Q-8.75 2.0 -9.35 1.15 L-9.75 0.55 -9.95 -0.15 Q-10.05 -0.5 -10.1 -0.95 L-10.1 -1.55 Q-10.2 -3.6 -8.6 -4.55 L-7.9 -4.25 Q-7.8 -4.25 -7.7 -4.15 L-7.65 -4.45 -7.65 -4.95 -7.55 -5.6 -7.6 -5.6 -7.55 -5.75 -7.55 -5.85 -7.5 -5.85 -7.4 -6.4 -7.1 -6.5 Q-6.8 -6.35 -6.7 -6.15 -6.65 -6.05 -6.65 -5.9 L-6.55 -5.85 -6.5 -5.85 -6.8 -4.9 -6.85 -4.7 -6.8 -4.4 -6.85 -4.0 -6.65 -4.2 Q-6.3 -4.5 -6.0 -4.6 L-5.65 -4.6 Q-5.65 -4.3 -6.1 -4.0 L-6.15 -3.95 -6.9 -3.5 -6.9 -3.35 -6.95 -3.4 -7.0 -3.3 -6.8 -3.15 -6.25 -3.6 -6.2 -3.65 Q-5.5 -4.2 -5.5 -3.65 -5.5 -3.6 -5.6 -3.5 L-5.6 -3.45 -5.5 -3.4 -5.5 -3.35 -5.45 -2.7 Q-5.4 -2.25 -5.4 -2.0 -5.45 -1.45 -5.3 -0.65 L-5.25 -0.3 -5.1 0.2 -4.95 0.75 -4.65 1.65 -4.6 1.85 Q-4.3 2.35 -4.1 2.85 L-4.05 3.1 -3.9 3.35 -3.4 4.15 -2.9 5.0 Q-2.45 5.8 -2.4 6.15 L-1.65 7.9 Q-1.3 8.95 -0.1 10.45 L0.65 11.3 0.85 11.3 Q1.55 11.3 2.25 10.9 L3.1 10.35 Q3.4 10.25 3.7 10.2 4.15 10.15 4.6 10.3 L4.7 10.3 5.1 10.45 5.5 10.55 Q5.75 10.25 5.65 9.65 5.6 9.2 5.7 8.75 5.8 8.45 5.95 8.15 L6.0 7.3 6.3 6.95 7.4 5.25 M-4.2 -8.8 L-4.2 -8.8 M5.9 7.2 L5.7 7.5 5.3 7.95 5.05 8.35 4.8 8.6 4.6 8.9 4.55 9.0 4.55 8.95 4.45 9.0 4.55 9.0 4.6 9.05 4.9 9.05 4.45 9.3 Q4.15 9.5 3.8 9.55 L3.7 9.55 Q3.1 9.65 2.55 9.55 L2.1 9.55 1.85 9.5 1.9 9.6 1.35 9.25 Q1.0 9.0 0.7 8.75 -0.1 8.2 -0.7 7.2 L-0.95 6.65 -0.65 6.45 3.1 6.55 Q3.4 6.5 4.05 6.9 L4.45 6.9 4.85 6.8 5.95 6.9 5.9 7.2 M-7.6 -0.5 L-7.6 -0.55 Q-8.0 -0.9 -8.35 -1.35 -8.6 -1.7 -8.7 -1.95 L-8.75 -2.0 -8.8 -2.15 -8.85 -2.1 -8.85 -1.7 Q-8.8 -1.1 -8.55 -0.5 L-8.45 -0.25 Q-8.25 0.15 -7.95 0.45 L-7.9 0.55 Q-8.0 0.2 -7.7 -0.1 -7.55 -0.25 -7.4 -0.35 L-7.45 -0.4 -7.6 -0.5 M-6.2 -2.85 L-6.25 -3.0 -6.3 -2.95 -6.45 -2.85 -6.45 -1.7 Q-6.3 -1.35 -6.2 -0.95 L-6.2 -0.9 Q-6.1 -0.55 -6.05 -0.15 L-6.05 1.2 -6.15 1.7 -6.2 1.9 -6.0 3.05 -5.95 3.2 Q-5.8 3.5 -5.7 3.95 L-5.65 4.2 Q-5.6 4.6 -5.5 5.05 L-5.3 6.05 -5.15 6.7 -4.6 7.65 Q-3.95 8.5 -2.65 10.05 L-2.6 10.1 -2.55 10.1 -1.95 10.85 Q-0.85 12.05 -0.55 12.05 -0.1 12.5 1.0 12.5 1.8 12.5 3.45 12.0 5.1 11.5 5.3 11.1 5.1 11.1 4.85 11.0 L4.7 10.9 4.3 10.65 Q3.85 10.75 2.5 11.35 L1.85 11.7 Q1.15 11.95 0.9 11.95 0.2 11.95 -0.3 11.25 L-0.45 11.05 -0.55 10.9 -0.6 10.9 -0.85 10.65 -0.85 10.6 -1.0 10.4 -1.4 9.75 Q-1.8 9.05 -1.95 8.45 L-3.15 7.35 Q-3.1 6.15 -3.15 5.8 L-3.15 5.7 -3.55 5.0 -3.7 4.65 -4.25 3.65 -4.35 3.35 -4.45 3.25 Q-4.95 2.35 -5.4 1.15 L-5.55 0.75 -5.6 0.6 -5.8 -0.05 Q-5.95 -0.6 -6.05 -1.05 L-6.05 -1.1 Q-6.1 -1.5 -6.1 -1.85 L-6.1 -2.45 -6.15 -2.6 -6.15 -2.65 -6.2 -2.8 -6.2 -2.85 M-6.5 0.65 L-6.5 -0.3 -6.55 -0.8 -6.75 -1.55 -6.8 -1.6 -6.8 -1.75 -6.85 -1.9 -6.85 -1.95 -6.9 -1.95 -7.35 -2.45 Q-7.65 -2.6 -7.9 -2.75 -8.15 -2.9 -8.35 -2.75 L-8.4 -2.75 Q-7.5 -2.2 -6.95 -1.25 L-6.8 -0.95 -6.75 -0.75 -6.55 -0.3 -6.6 -0.3 Q-6.5 0.0 -6.5 0.25 L-6.65 0.15 -6.95 -0.05 -7.0 0.1 -7.1 0.25 -7.15 0.3 -7.15 0.4 -7.2 0.45 Q-7.35 0.6 -7.55 0.6 L-7.6 0.65 -7.75 0.6 -7.8 0.6 -7.65 0.75 -7.35 0.95 -7.05 1.1 -7.1 1.05 -6.7 1.25 -6.55 1.25 -6.55 1.2 -6.5 0.7 -6.5 0.65 M-6.55 4.2 L-6.55 3.8 Q-6.65 3.3 -6.7 2.8 L-6.75 2.25 -6.8 2.75 -6.85 3.1 Q-6.95 4.4 -6.8 5.7 L-6.55 6.9 -6.4 7.3 Q-6.05 8.1 -5.45 8.6 -5.2 8.8 -4.95 8.95 -4.55 9.1 -4.25 9.25 L-4.15 9.25 -4.35 8.95 -4.4 8.95 -4.45 8.85 -4.55 8.7 -4.55 8.65 -4.65 8.6 -5.85 6.95 Q-6.25 5.85 -6.5 4.7 L-6.55 4.25 -6.55 4.2 M-6.25 5.9 L-6.35 5.6 -6.4 5.3 -6.25 5.9 M-0.15 7.25 L-0.1 7.35 0.05 7.55 Q0.85 8.3 1.9 8.8 2.4 9.05 3.0 9.0 L4.05 9.0 4.25 9.0 4.25 8.9 Q4.3 8.7 4.35 8.55 4.4 8.35 4.55 8.15 L4.6 8.05 Q4.7 7.85 4.85 7.65 L4.5 7.6 3.5 7.55 1.75 7.45 0.05 7.3 -0.15 7.25 M4.45 7.2 L4.4 7.25 4.5 7.25 4.45 7.2 M4.3 9.0 L4.3 9.0 M2.5 7.15 L2.5 7.15" fill="#1a1a1a" fill-rule="evenodd" stroke="none"/>
    <path d="M-0.1 7.35 L-0.15 7.25 0.05 7.3 1.75 7.45 3.5 7.55 4.5 7.6 4.85 7.65 Q4.7 7.85 4.6 8.05 L4.55 8.15 4.45 8.15 3.35 8.3 3.0 8.3 2.9 8.25 2.8 8.25 2.75 8.3 Q2.8 8.65 3.3 8.7 3.9 8.75 4.35 8.55 4.3 8.7 4.25 8.9 L4.05 9.0 4.05 9.0 3.0 9.0 Q2.4 9.05 1.9 8.8 0.85 8.3 0.05 7.55 L-0.1 7.35" fill="#ffffff" fill-rule="evenodd" stroke="none"/>
    <path d="M4.55 8.15 Q4.4 8.35 4.35 8.55 3.9 8.75 3.3 8.7 2.8 8.65 2.75 8.3 L2.8 8.25 2.9 8.25 3.0 8.3 3.35 8.3 4.45 8.15 4.55 8.15" fill="#cccccc" fill-rule="evenodd" stroke="none"/>
    <path d="M-4.65 1.65 Q-4.0 2.15 -3.8 2.4 -3.3 2.8 -3.3 3.3 L-3.4 4.15 -3.9 3.35 -4.05 3.1 -4.1 2.85 Q-4.3 2.35 -4.6 1.85 L-4.65 1.65 M3.7 10.2 Q3.9 9.95 4.2 9.8 4.55 9.6 4.85 9.6 5.15 9.95 4.7 10.3 L4.6 10.3 Q4.15 10.15 3.7 10.2 M6.0 7.3 L5.9 7.2 5.95 6.9 6.3 6.95 6.0 7.3 M-0.95 6.65 L-0.65 6.45 -0.95 6.65 M-7.95 0.45 Q-8.25 0.15 -8.45 -0.25 L-8.55 -0.5 Q-8.8 -1.1 -8.85 -1.7 L-8.85 -2.1 -8.8 -2.15 -8.75 -2.0 -8.7 -1.95 Q-8.6 -1.7 -8.35 -1.35 -8.0 -0.9 -7.6 -0.55 L-7.6 -0.5 Q-7.85 -0.3 -7.95 0.05 -8.0 0.25 -7.95 0.45 M-7.1 0.25 L-7.0 0.6 Q-6.75 0.55 -6.5 0.65 L-6.5 0.7 -6.55 1.2 -6.55 1.25 -6.7 1.25 -7.1 1.05 -7.05 1.1 -7.35 0.95 -7.65 0.75 -7.6 0.75 -7.55 0.6 Q-7.35 0.6 -7.2 0.45 L-7.15 0.4 -7.15 0.3 -7.1 0.25 M-5.45 8.6 L-5.65 8.1 Q-5.8 7.55 -5.85 7.15 -5.9 6.95 -6.05 6.85 L-6.25 5.9 -6.4 5.3 -6.55 4.6 Q-6.6 4.4 -6.7 4.25 L-6.75 4.25 -6.75 4.1 -6.7 4.25 -6.55 4.2 -6.55 4.25 -6.5 4.7 Q-6.25 5.85 -5.85 6.95 L-4.65 8.6 -4.55 8.65 -4.55 8.7 -4.45 8.85 -4.4 8.95 -4.35 8.95 -4.15 9.25 -4.25 9.25 Q-4.55 9.1 -4.95 8.95 -5.2 8.8 -5.45 8.6" fill="#a9854f" fill-rule="evenodd" stroke="none"/>
    <path d="M-4.2 -8.8 Q-3.75 -9.0 -1.2 -8.65 L0.0 -8.75 Q2.3 -8.5 2.7 -6.55 3.05 -4.65 3.2 -3.25 3.3 -1.85 3.55 -0.6 3.75 0.65 4.15 1.8 L4.3 2.1 Q4.5 2.65 4.8 3.15 L5.15 3.75 5.25 3.9 5.45 4.05 5.65 4.05 5.9 4.3 6.05 4.4 6.5 4.75 6.55 4.75 Q7.1 5.05 7.15 5.05 L7.4 5.25 6.3 6.95 5.95 6.9 4.85 6.8 4.45 6.9 4.05 6.9 Q3.4 6.5 3.1 6.55 L-0.65 6.45 -0.95 6.65 -0.7 7.2 Q-0.1 8.2 0.7 8.75 1.0 9.0 1.35 9.25 L1.9 9.6 1.85 9.5 2.1 9.55 2.55 9.55 Q3.1 9.65 3.7 9.55 L3.8 9.55 Q4.15 9.5 4.45 9.3 L4.9 9.05 4.6 9.05 4.55 9.0 4.45 9.0 4.55 8.95 4.55 9.0 4.6 8.9 4.8 8.6 5.05 8.35 5.3 7.95 5.7 7.5 5.9 7.2 6.0 7.3 5.95 8.15 Q5.8 8.45 5.7 8.75 5.6 9.2 5.65 9.65 5.75 10.25 5.5 10.55 L5.1 10.45 4.7 10.3 Q5.15 9.95 4.85 9.6 4.55 9.6 4.2 9.8 3.9 9.95 3.7 10.2 3.4 10.25 3.1 10.35 L2.25 10.9 Q1.55 11.3 0.85 11.3 L0.65 11.3 -0.1 10.45 Q-1.3 8.95 -1.65 7.9 L-2.4 6.15 Q-2.45 5.8 -2.9 5.0 L-3.4 4.15 -3.3 3.3 Q-3.3 2.8 -3.8 2.4 -4.0 2.15 -4.65 1.65 L-4.95 0.75 -5.1 0.2 -5.25 -0.3 -5.3 -0.65 Q-5.45 -1.45 -5.4 -2.0 -5.4 -2.25 -5.45 -2.7 L-5.5 -3.35 -5.5 -3.4 -5.6 -3.45 -5.6 -3.5 Q-5.5 -3.6 -5.5 -3.65 -5.5 -4.2 -6.2 -3.65 L-6.25 -3.6 -6.8 -3.15 -7.0 -3.3 -6.95 -3.4 -6.9 -3.35 -6.9 -3.5 -6.15 -3.95 -6.1 -4.0 Q-5.65 -4.3 -5.65 -4.6 L-6.0 -4.6 Q-6.3 -4.5 -6.65 -4.2 L-6.85 -4.0 -6.8 -4.4 -6.85 -4.7 -6.8 -4.9 -6.5 -5.85 -6.55 -5.85 -6.3 -5.9 -6.25 -6.0 -6.15 -6.1 Q-5.95 -6.3 -5.65 -6.35 L-5.6 -6.45 -5.5 -6.6 -5.1 -7.5 -5.0 -7.4 -5.0 -7.45 -4.7 -8.05 Q-4.45 -8.45 -4.3 -8.6 -4.3 -8.75 -4.2 -8.8 M-6.65 0.15 L-6.5 0.25 Q-6.5 0.0 -6.6 -0.3 L-6.55 -0.3 -6.75 -0.75 -6.8 -0.95 -6.95 -1.25 Q-7.5 -2.2 -8.4 -2.75 L-8.35 -2.75 Q-8.15 -2.9 -7.9 -2.75 -7.65 -2.6 -7.35 -2.45 L-6.9 -1.95 -6.85 -1.95 -6.85 -1.9 -6.8 -1.75 -6.8 -1.6 -6.75 -1.55 -6.55 -0.8 -6.5 -0.3 -6.5 0.65 Q-6.75 0.55 -7.0 0.6 L-7.1 0.25 -7.0 0.1 -6.6 0.5 -6.65 0.15 M-5.45 8.6 Q-6.05 8.1 -6.4 7.3 L-6.55 6.9 -6.8 5.7 Q-6.95 4.4 -6.85 3.1 L-6.8 2.75 -6.75 2.25 -6.7 2.8 Q-6.65 3.3 -6.55 3.8 L-6.55 4.2 -6.7 4.25 -6.75 4.1 -6.75 4.25 -6.7 4.25 Q-6.6 4.4 -6.55 4.6 L-6.4 5.3 -6.35 5.6 -6.25 5.9 -6.05 6.85 Q-5.9 6.95 -5.85 7.15 -5.8 7.55 -5.65 8.1 L-5.45 8.6 M-0.1 7.35 L-0.15 7.25 -0.1 7.35 M4.25 8.9 L4.25 9.0 4.05 9.0 4.05 9.0 4.25 8.9 M4.45 7.2 L4.5 7.25 4.4 7.25 4.45 7.2 M4.3 9.0 L4.3 9.0 M2.5 7.15 L2.5 7.15" fill="#c7a36d" fill-rule="evenodd" stroke="none"/>
    <path d="M-6.2 -2.85 L-6.2 -2.8 -6.15 -2.65 -6.15 -2.6 -6.1 -2.45 -6.1 -1.85 Q-6.1 -1.5 -6.05 -1.1 L-6.05 -1.05 Q-5.95 -0.6 -5.8 -0.05 L-5.6 0.6 -5.55 0.75 -5.4 1.15 Q-4.95 2.35 -4.45 3.25 L-4.35 3.35 -4.25 3.65 -3.7 4.65 -3.55 5.0 -3.15 5.7 -3.15 5.8 Q-3.1 6.15 -3.15 7.35 L-1.95 8.45 Q-1.8 9.05 -1.4 9.75 L-1.0 10.4 -0.85 10.6 -0.85 10.65 -0.6 10.9 -0.55 10.9 -0.45 11.05 -0.3 11.25 Q0.2 11.95 0.9 11.95 1.15 11.95 1.85 11.7 L2.5 11.35 Q3.85 10.75 4.3 10.65 L4.7 10.9 4.85 11.0 Q5.1 11.1 5.3 11.1 5.1 11.5 3.45 12.0 1.8 12.5 1.0 12.5 -0.1 12.5 -0.55 12.05 -0.85 12.05 -1.95 10.85 L-2.55 10.1 -2.6 10.1 -2.65 10.05 Q-3.95 8.5 -4.6 7.65 L-5.15 6.7 -5.3 6.05 -5.5 5.05 Q-5.6 4.6 -5.65 4.2 L-5.7 3.95 Q-5.8 3.5 -5.95 3.2 L-6.0 3.05 -6.2 1.9 -6.15 1.7 -6.05 1.2 -6.05 -0.15 Q-6.1 -0.55 -6.2 -0.9 L-6.2 -0.95 Q-6.3 -1.35 -6.45 -1.7 L-6.45 -2.85 -6.3 -2.95 -6.25 -3.0 -6.2 -2.85" fill="#003366" fill-rule="evenodd" stroke="none"/>
    <path d="M-7.95 0.45 Q-8.0 0.25 -7.95 0.05 -7.85 -0.3 -7.6 -0.5 L-7.45 -0.4 -7.4 -0.35 Q-7.55 -0.25 -7.7 -0.1 -8.0 0.2 -7.9 0.55 L-7.95 0.45 M-6.65 0.15 L-6.6 0.5 -7.0 0.1 -6.95 -0.05 -6.65 0.15 M-7.65 0.75 L-7.8 0.6 -7.75 0.6 -7.6 0.65 -7.55 0.6 -7.6 0.75 -7.65 0.75" fill="#111111" fill-rule="evenodd" stroke="none"/>
    <path d="M6.1 10.7 L5.7 10.9 Q5.9 10.8 6.15 9.8 6.4 8.8 6.4 8.35 6.4 7.9 6.15 7.3 L5.9 6.85 Q5.75 6.8 5.6 6.65 L5.55 6.55 4.75 6.55 4.7 6.55 4.65 6.55 4.65 5.9 Q4.8 6.0 5.05 6.0 L6.55 5.45 Q7.4 5.45 7.85 6.8 8.1 7.65 8.1 8.35 8.1 8.55 7.95 8.85 7.85 9.3 7.1 9.95 6.55 10.4 6.1 10.7 M-3.8 6.55 L-3.55 6.35 Q-3.0 6.0 -2.25 5.75 L-1.5 5.5 -1.4 5.45 Q0.0 4.55 1.05 4.65 L2.65 5.1 Q3.8 5.4 4.4 5.65 L4.4 5.7 4.65 5.9 4.65 6.55 Q4.35 6.5 4.1 6.3 2.7 6.2 0.45 6.95 -0.35 7.25 -0.9 7.5 L-1.35 8.15 -2.05 8.95 Q-2.3 9.25 -2.35 9.25 -3.0 9.2 -2.8 8.6 L-2.85 8.6 Q-3.1 8.6 -3.15 8.4 -3.3 8.1 -3.65 7.85 -3.85 7.75 -4.0 7.45 -4.15 7.2 -4.15 7.0 -4.15 6.8 -3.8 6.55" fill="#003366" fill-rule="evenodd" stroke="none"/>
    <path d="M4.65 5.9 L4.65 5.3 4.85 5.35 Q5.1 5.35 6.05 5.05 6.9 4.8 7.0 4.8 7.65 5.05 7.9 5.45 L8.5 7.4 Q8.8 8.2 8.8 8.65 8.8 8.9 7.6 10.25 6.3 11.7 5.8 11.7 5.5 11.7 5.4 11.55 L5.4 11.35 Q5.4 11.25 5.85 10.95 L6.1 10.7 Q6.55 10.4 7.1 9.95 7.85 9.3 7.95 8.85 8.1 8.55 8.1 8.35 8.1 7.65 7.85 6.8 7.4 5.45 6.55 5.45 L5.05 6.0 Q4.8 6.0 4.65 5.9 L4.4 5.7 4.4 5.65 Q3.8 5.4 2.65 5.1 L1.05 4.65 Q0.0 4.55 -1.4 5.45 L-1.5 5.5 -2.25 5.75 Q-3.0 6.0 -3.55 6.35 L-3.8 6.55 Q-3.6 6.05 -2.55 5.45 -1.6 4.85 -0.65 4.55 0.7 4.1 2.55 4.45 3.95 4.7 4.5 5.25 L4.6 5.25 4.65 5.3 4.65 5.9 M6.15 9.8 Q5.95 9.45 5.95 8.45 5.9 7.55 5.6 7.05 L4.95 7.05 Q4.7 6.85 4.7 6.65 L4.75 6.55 5.55 6.55 5.6 6.65 Q5.75 6.8 5.9 6.85 L6.15 7.3 Q6.4 7.9 6.4 8.35 6.4 8.8 6.15 9.8 M4.7 6.55 Q4.7 6.75 4.65 6.85 L4.65 6.55 4.65 6.85 Q4.55 6.95 4.35 6.95 L3.8 6.8 3.6 6.75 3.0 6.9 Q1.55 7.2 0.75 7.5 0.65 7.55 -0.4 8.4 -1.35 9.2 -1.65 9.2 -1.95 9.15 -2.05 8.95 L-1.35 8.15 -0.9 7.5 Q-0.35 7.25 0.45 6.95 2.7 6.2 4.1 6.3 4.35 6.5 4.65 6.55 L4.7 6.55" fill="#1a1a1a" fill-rule="evenodd" stroke="none"/>
  </g>
</svg>
