<?xml version="1.0" encoding="UTF-8" standalone="no"?>
<svg xmlns:ffdec="https://www.free-decompiler.com/flash" xmlns:xlink="http://www.w3.org/1999/xlink" ffdec:objectType="shape" height="21.85px" width="18.85px" xmlns="http://www.w3.org/2000/svg">
  <g transform="matrix(1.0, 0.0, 0.0, 1.0, 10.05, 8.85)">
    <path d="M7.45 5.3 Q7.65 5.2 7.75 5.2 L7.8 5.25 Q8.0 5.4 7.75 6.3 L6.35 11.25 Q5.95 11.65 5.35 12.0 3.7 13.0 1.7 13.0 0.15 13.0 -0.85 12.6 L-1.1 12.5 -1.2 12.45 Q-1.9 12.1 -1.95 11.8 -2.5 11.25 -3.25 10.3 L-3.6 9.85 -3.65 9.85 -3.65 9.9 -3.7 9.85 -3.9 9.85 -3.9 9.9 Q-4.7 10.05 -5.45 9.5 L-5.95 9.15 Q-8.0 7.95 -8.0 4.4 -7.95 3.25 -7.55 2.45 L-7.5 2.15 -7.5 2.1 Q-9.75 1.9 -10.05 -0.95 L-10.05 -1.55 Q-10.1 -3.55 -8.55 -4.5 L-7.8 -4.25 -7.65 -4.15 -7.6 -4.45 -7.55 -4.8 -7.55 -4.95 -7.5 -5.55 -7.5 -5.7 -7.45 -5.8 -7.35 -6.35 -7.0 -6.45 Q-6.55 -6.25 -6.6 -5.85 L-6.5 -5.9 -6.75 -4.95 -6.8 -4.7 -6.8 -4.0 -6.6 -4.2 Q-6.25 -4.55 -5.9 -4.6 L-5.65 -4.6 Q-5.6 -4.3 -6.05 -4.0 L-6.1 -4.0 -6.85 -3.5 -6.85 -3.35 -6.9 -3.35 -6.95 -3.45 -6.95 -3.35 -6.8 -3.15 -6.2 -3.65 -6.15 -3.7 Q-5.45 -4.2 -5.45 -3.65 -5.45 -3.6 -5.6 -3.5 L-5.6 -3.45 -5.45 -3.4 -5.45 -3.3 -5.4 -2.75 Q-5.35 -2.3 -5.35 -2.0 -5.4 -1.45 -5.25 -0.65 L-5.2 -0.3 -5.05 0.2 -4.95 0.7 -4.6 1.65 -4.55 1.85 Q-4.25 2.3 -4.05 2.85 L-4.0 3.1 -3.85 3.35 -3.35 4.2 -2.9 5.0 Q-2.4 5.8 -2.35 6.15 L-1.05 7.85 Q-1.3 8.75 -1.35 9.6 -1.05 9.9 -0.6 10.7 L-0.1 11.35 0.3 11.75 Q0.45 11.7 0.6 11.6 1.3 11.2 2.2 10.85 2.45 10.75 2.65 10.65 L2.75 10.6 3.15 10.35 Q3.55 10.2 3.9 10.2 4.3 10.15 4.65 10.25 L5.1 10.45 5.5 10.55 Q5.55 10.55 5.65 10.5 5.8 10.2 5.75 9.7 5.65 9.25 5.8 8.8 5.85 8.5 6.05 8.15 L7.45 5.3 M-4.15 -8.8 L-4.15 -8.8 M-8.7 -1.95 L-8.75 -2.2 -8.8 -2.15 -8.8 -1.7 Q-8.75 -1.1 -8.5 -0.5 -8.3 0.05 -7.9 0.45 L-7.85 0.5 Q-7.95 0.15 -7.7 -0.1 -7.55 -0.25 -7.35 -0.35 L-7.55 -0.55 Q-7.95 -0.9 -8.3 -1.4 -8.55 -1.7 -8.7 -1.95 M-1.15 10.5 L-1.4 10.05 -1.45 10.05 Q-1.65 10.05 -1.8 9.45 L-1.9 9.1 -3.1 7.35 Q-3.05 6.15 -3.1 5.75 L-3.1 5.7 -3.45 5.0 -3.65 4.65 -4.2 3.6 -4.35 3.35 -4.4 3.25 Q-4.9 2.35 -5.3 1.2 L-5.5 0.75 -5.55 0.55 -5.75 -0.05 Q-5.9 -0.6 -6.0 -1.05 -6.05 -1.5 -6.05 -1.85 L-6.05 -2.45 -6.1 -2.6 -6.1 -2.65 -6.15 -2.8 -6.15 -2.85 -6.2 -3.0 -6.25 -3.0 -6.4 -2.9 -6.4 -2.65 -6.5 -2.65 -6.4 -2.55 -6.45 -2.45 -6.45 -2.35 -6.4 -1.75 Q-6.25 -1.35 -6.15 -0.95 -6.05 -0.55 -6.05 -0.2 L-6.0 0.2 -6.0 1.0 -6.05 1.2 -6.05 1.55 -6.1 1.55 -6.1 1.7 -6.15 1.9 -5.95 3.05 -5.9 3.2 Q-5.7 3.65 -5.6 4.3 -5.5 4.65 -5.45 5.05 L-5.3 6.05 -5.1 6.65 -4.55 7.65 Q-3.9 8.5 -2.6 10.05 L-2.55 10.1 -2.5 10.1 -1.9 10.85 Q-0.8 12.05 -0.5 12.05 -0.05 12.45 1.05 12.45 1.85 12.45 3.5 12.0 5.15 11.5 5.35 11.1 L4.95 11.0 4.75 10.9 4.35 10.65 Q3.9 10.75 2.55 11.35 L2.05 11.6 Q1.95 11.65 1.85 11.7 1.05 12.15 0.7 12.2 L0.7 12.25 0.5 12.3 0.45 12.3 Q0.3 12.3 0.15 12.2 -0.3 11.95 -0.9 11.0 L-1.0 10.75 -1.15 10.5 M-6.8 -1.9 L-6.8 -1.95 -7.3 -2.5 Q-7.6 -2.6 -7.85 -2.75 L-8.35 -2.75 Q-7.45 -2.2 -6.95 -1.25 L-6.6 -0.55 -6.55 -0.3 Q-6.45 -0.05 -6.45 0.25 L-6.45 -0.3 -6.5 -0.8 -6.75 -1.6 -6.75 -1.7 -6.8 -1.75 -6.8 -1.9 M-6.45 0.7 L-6.45 0.3 Q-6.5 0.25 -6.55 0.2 L-6.9 0.0 -6.95 0.15 -7.0 0.25 -7.1 0.4 -7.15 0.4 Q-7.3 0.55 -7.5 0.6 L-7.75 0.6 -7.6 0.75 -7.3 0.95 -7.0 1.1 -6.95 1.15 -6.6 1.25 -6.55 1.3 -6.5 1.2 -6.45 0.7 M-6.5 4.25 L-6.45 4.2 -6.5 3.85 Q-6.6 3.35 -6.6 2.85 L-6.65 2.3 -6.75 2.8 -6.8 3.1 Q-6.9 4.45 -6.7 5.75 L-6.5 6.95 -6.35 7.35 Q-6.0 8.15 -5.4 8.65 L-4.85 9.0 Q-4.5 9.1 -4.2 9.25 L-4.1 9.3 -4.3 8.95 -4.35 8.95 -4.4 8.9 -4.45 8.7 -4.5 8.65 -4.55 8.65 -5.8 6.95 Q-6.2 5.85 -6.4 4.75 L-6.5 4.25 M-6.2 5.9 L-6.3 5.65 -6.35 5.3 -6.2 5.9 M-0.45 8.65 L-0.1 7.9 2.95 6.3 Q3.45 6.65 4.0 6.85 L4.3 6.9 4.5 6.85 4.75 6.6 5.95 7.25 5.3 7.5 4.8 9.0 5.3 9.1 Q5.05 9.45 4.6 9.55 L4.5 9.55 Q3.6 9.7 2.8 10.05 2.1 10.35 1.65 11.0 L1.65 11.05 1.35 11.15 Q0.95 11.2 0.6 10.95 L0.7 10.95 0.4 10.8 Q0.1 10.65 -0.1 10.4 -0.45 10.05 -0.6 9.55 -0.6 9.1 -0.45 8.65 M3.75 7.8 L3.8 7.8 3.2 7.6 Q3.0 7.55 2.8 7.45 2.2 7.15 1.55 7.05 L0.9 7.35 Q0.7 7.6 0.5 7.9 L0.5 7.95 Q0.5 8.0 0.6 8.0 L1.05 8.0 1.25 7.95 1.1 8.55 1.15 8.55 Q1.6 8.45 2.1 8.45 2.6 8.4 3.15 8.55 3.45 8.65 3.75 8.8 L4.0 9.0 4.25 8.95 4.25 8.7 Q4.25 8.3 4.35 7.95 L3.75 7.8 M1.25 7.95 L1.75 7.85 2.05 7.85 2.3 7.95 2.85 8.0 Q2.45 8.15 2.05 8.15 1.6 8.2 1.25 7.95 M0.6 8.6 Q0.5 8.55 0.4 8.45 L0.3 8.35 0.2 8.5 0.05 9.0 -0.05 9.25 0.05 9.2 Q0.1 9.15 0.2 9.1 0.4 8.9 0.6 8.8 0.75 8.7 0.9 8.65 L0.75 8.6 0.6 8.6 M1.2 10.5 L1.4 10.3 Q2.15 9.55 3.15 9.2 2.6 9.0 2.0 8.95 1.55 8.95 1.15 9.1 0.7 9.3 0.35 9.65 L1.2 10.5" fill="#1a1a1a" fill-rule="evenodd" stroke="none"/>
    <path d="M-8.8 -1.7 L-8.7 -1.95 Q-8.55 -1.7 -8.3 -1.4 -7.95 -0.9 -7.55 -0.55 -7.8 -0.3 -7.9 0.05 -7.95 0.25 -7.9 0.45 -8.3 0.05 -8.5 -0.5 -8.75 -1.1 -8.8 -1.7 M-1.0 10.75 Q-1.15 10.6 -1.15 10.5 L-1.0 10.75 M-4.6 1.65 L-3.7 2.4 Q-3.25 2.85 -3.25 3.35 L-3.35 4.2 -3.85 3.35 -4.0 3.1 -4.05 2.85 Q-4.25 2.3 -4.55 1.85 L-4.6 1.65 M-0.1 11.35 L0.0 11.45 0.6 11.6 Q0.45 11.7 0.3 11.75 L-0.1 11.35 M2.75 10.6 Q2.85 10.45 3.2 10.15 3.8 9.7 3.9 10.2 3.55 10.2 3.15 10.35 L2.75 10.6 M-7.0 0.25 L-6.9 0.6 -6.45 0.7 -6.5 1.2 -6.55 1.3 Q-6.6 1.25 -6.7 1.2 L-7.05 1.1 -7.05 0.95 -7.3 0.95 -7.6 0.75 -7.5 0.6 Q-7.3 0.55 -7.15 0.4 L-7.1 0.4 -7.0 0.25 M-5.4 8.65 L-5.6 8.1 Q-5.75 7.6 -5.75 7.2 -5.85 7.0 -6.0 6.9 L-6.2 5.9 -6.35 5.3 -6.5 4.65 Q-6.55 4.4 -6.6 4.25 L-6.7 4.3 -6.7 4.15 -6.6 4.25 -6.5 4.25 -6.4 4.75 Q-6.2 5.85 -5.8 6.95 L-4.55 8.65 -4.5 8.65 -4.45 8.7 -4.4 8.9 -4.35 8.95 -4.3 8.95 -4.1 9.3 -4.2 9.25 Q-4.5 9.1 -4.85 9.0 L-5.4 8.65" fill="#a9854f" fill-rule="evenodd" stroke="none"/>
    <path d="M1.25 7.95 L1.05 8.0 0.6 8.0 Q0.5 8.0 0.5 7.95 L0.5 7.9 Q0.7 7.6 0.9 7.35 L1.55 7.05 Q2.2 7.15 2.8 7.45 3.0 7.55 3.2 7.6 L3.8 7.8 3.75 7.8 2.85 8.0 2.3 7.95 2.05 7.85 1.75 7.85 1.25 7.95" fill="#ffffff" fill-rule="evenodd" stroke="none"/>
    <path d="M3.75 7.8 L4.35 7.95 Q4.25 8.3 4.25 8.7 L4.25 8.95 4.0 9.0 3.75 8.8 Q3.45 8.65 3.15 8.55 2.6 8.4 2.1 8.45 1.6 8.45 1.15 8.55 L1.1 8.55 1.25 7.95 Q1.6 8.2 2.05 8.15 2.45 8.15 2.85 8.0 L3.75 7.8 M0.6 8.6 L0.75 8.6 0.9 8.65 Q0.75 8.7 0.6 8.8 0.4 8.9 0.2 9.1 0.1 9.15 0.05 9.2 L-0.05 9.25 0.05 9.0 0.2 8.5 0.3 8.35 0.4 8.45 Q0.5 8.55 0.6 8.6" fill="#69221e" fill-rule="evenodd" stroke="none"/>
    <path d="M1.2 10.5 L0.35 9.65 Q0.7 9.3 1.15 9.1 1.55 8.95 2.0 8.95 2.6 9.0 3.15 9.2 2.15 9.55 1.4 10.3 L1.2 10.5" fill="#cc0000" fill-rule="evenodd" stroke="none"/>
    <path d="M-4.15 -8.8 Q-3.95 -8.9 -3.8 -8.85 L-1.1 -8.6 0.05 -8.7 Q2.35 -8.45 2.75 -6.55 3.15 -4.65 3.25 -3.25 3.4 -1.85 3.6 -0.55 3.8 0.7 4.25 1.8 L4.35 2.15 4.85 3.2 5.2 3.8 5.5 4.1 5.75 4.1 5.95 4.35 6.15 4.45 6.55 4.75 6.6 4.8 Q7.2 5.1 7.25 5.05 L7.45 5.3 6.05 8.15 Q5.85 8.5 5.8 8.8 5.65 9.25 5.75 9.7 5.8 10.2 5.65 10.5 5.55 10.55 5.5 10.55 L5.1 10.45 4.65 10.25 Q4.3 10.15 3.9 10.2 3.8 9.7 3.2 10.15 2.85 10.45 2.75 10.6 L2.65 10.65 Q2.45 10.75 2.2 10.85 1.3 11.2 0.6 11.6 L0.0 11.45 -0.1 11.35 -0.6 10.7 Q-1.05 9.9 -1.35 9.6 -1.3 8.75 -1.05 7.85 L-2.35 6.15 Q-2.4 5.8 -2.9 5.0 L-3.35 4.2 -3.25 3.35 Q-3.25 2.85 -3.7 2.4 L-4.6 1.65 -4.95 0.7 -5.05 0.2 -5.2 -0.3 -5.25 -0.65 Q-5.4 -1.45 -5.35 -2.0 -5.35 -2.3 -5.4 -2.75 L-5.45 -3.3 -5.45 -3.4 -5.6 -3.45 -5.6 -3.5 Q-5.45 -3.6 -5.45 -3.65 -5.45 -4.2 -6.15 -3.7 L-6.2 -3.65 -6.8 -3.15 -6.95 -3.35 -6.95 -3.45 -6.9 -3.35 -6.85 -3.35 -6.85 -3.5 -6.1 -4.0 -6.05 -4.0 Q-5.6 -4.3 -5.65 -4.6 L-5.9 -4.6 Q-6.25 -4.55 -6.6 -4.2 L-6.8 -4.0 -6.8 -4.7 -6.75 -4.95 -6.5 -5.9 -6.6 -5.85 -6.3 -5.95 -6.1 -6.1 Q-5.9 -6.3 -5.6 -6.35 L-5.55 -6.45 -5.5 -6.65 -5.3 -7.0 -5.35 -7.25 Q-5.35 -7.35 -5.05 -7.75 -4.8 -8.2 -4.5 -8.5 L-4.15 -8.8 M-8.7 -1.95 L-8.8 -1.7 -8.8 -2.15 -8.75 -2.2 -8.7 -1.95 M-6.4 -2.65 L-6.4 -2.55 -6.5 -2.65 -6.4 -2.65 M-6.8 -1.9 L-6.8 -1.75 -6.75 -1.7 -6.75 -1.6 -6.5 -0.8 -6.45 -0.3 -6.45 0.25 Q-6.45 -0.05 -6.55 -0.3 L-6.6 -0.55 -6.95 -1.25 Q-7.45 -2.2 -8.35 -2.75 L-7.85 -2.75 Q-7.6 -2.6 -7.3 -2.5 L-6.8 -1.95 -6.8 -1.9 M-6.55 0.2 Q-6.5 0.25 -6.45 0.3 L-6.45 0.7 -6.9 0.6 -7.0 0.25 -6.95 0.15 -6.55 0.55 -6.55 0.2 M-6.55 1.3 L-6.6 1.25 -6.95 1.15 -7.0 1.1 -7.3 0.95 -7.05 0.95 -7.05 1.1 -6.7 1.2 Q-6.6 1.25 -6.55 1.3 M-5.4 8.65 Q-6.0 8.15 -6.35 7.35 L-6.5 6.95 -6.7 5.75 Q-6.9 4.45 -6.8 3.1 L-6.75 2.8 -6.65 2.3 -6.6 2.85 Q-6.6 3.35 -6.5 3.85 L-6.45 4.2 -6.5 4.25 -6.6 4.25 -6.7 4.15 -6.7 4.3 -6.6 4.25 Q-6.55 4.4 -6.5 4.65 L-6.35 5.3 -6.3 5.65 -6.2 5.9 -6.0 6.9 Q-5.85 7.0 -5.75 7.2 -5.75 7.6 -5.6 8.1 L-5.4 8.65 M-0.45 8.65 Q-0.6 9.1 -0.6 9.55 -0.45 10.05 -0.1 10.4 0.1 10.65 0.4 10.8 L0.7 10.95 0.6 10.95 Q0.95 11.2 1.35 11.15 L1.65 11.05 1.65 11.0 Q2.1 10.35 2.8 10.05 3.6 9.7 4.5 9.55 L4.6 9.55 Q5.05 9.45 5.3 9.1 L4.8 9.0 5.3 7.5 5.95 7.25 4.75 6.6 4.5 6.85 4.3 6.9 4.0 6.85 Q3.45 6.65 2.95 6.3 L-0.1 7.9 -0.45 8.65" fill="#c7a36d" fill-rule="evenodd" stroke="none"/>
    <path d="M-6.4 -2.65 L-6.4 -2.9 -6.25 -3.0 -6.2 -3.0 -6.15 -2.85 -6.15 -2.8 -6.1 -2.65 -6.1 -2.6 -6.05 -2.45 -6.05 -1.85 Q-6.05 -1.5 -6.0 -1.05 -5.9 -0.6 -5.75 -0.05 L-5.55 0.55 -5.5 0.75 -5.3 1.2 Q-4.9 2.35 -4.4 3.25 L-4.35 3.35 -4.2 3.6 -3.65 4.65 -3.45 5.0 -3.1 5.7 -3.1 5.75 Q-3.05 6.15 -3.1 7.35 L-1.9 9.1 -1.8 9.45 Q-1.65 10.05 -1.45 10.05 L-1.4 10.05 -1.15 10.5 Q-1.15 10.6 -1.0 10.75 L-0.9 11.0 Q-0.3 11.95 0.15 12.2 0.3 12.3 0.45 12.3 L0.5 12.3 0.7 12.25 0.7 12.2 Q1.05 12.15 1.85 11.7 1.95 11.65 2.05 11.6 L2.55 11.35 Q3.9 10.75 4.35 10.65 L4.75 10.9 4.95 11.0 5.35 11.1 Q5.15 11.5 3.5 12.0 1.85 12.45 1.05 12.45 -0.05 12.45 -0.5 12.05 -0.8 12.05 -1.9 10.85 L-2.5 10.1 -2.55 10.1 -2.6 10.05 Q-3.9 8.5 -4.55 7.65 L-5.1 6.65 -5.3 6.05 -5.45 5.05 Q-5.5 4.65 -5.6 4.3 -5.7 3.65 -5.9 3.2 L-5.95 3.05 -6.15 1.9 -6.1 1.7 -6.1 1.55 -6.05 1.55 -6.05 1.2 -6.0 1.0 -6.0 0.2 -6.05 -0.2 Q-6.05 -0.55 -6.15 -0.95 -6.25 -1.35 -6.4 -1.75 L-6.45 -2.35 -6.45 -2.45 -6.4 -2.55 -6.4 -2.65" fill="#003366" fill-rule="evenodd" stroke="none"/>
    <path d="M-7.9 0.45 Q-7.95 0.25 -7.9 0.05 -7.8 -0.3 -7.55 -0.55 L-7.35 -0.35 Q-7.55 -0.25 -7.7 -0.1 -7.95 0.15 -7.85 0.5 L-7.9 0.45 M-6.55 0.2 L-6.55 0.55 -6.95 0.15 -6.9 0.0 -6.55 0.2 M-7.6 0.75 L-7.75 0.6 -7.5 0.6 -7.6 0.75" fill="#111111" fill-rule="evenodd" stroke="none"/>
    <path d="M6.1 10.7 Q6.55 10.4 7.1 9.95 7.85 9.3 7.95 8.85 8.1 8.55 8.1 8.35 8.1 7.65 7.85 6.8 7.4 5.45 6.55 5.45 L5.05 6.0 Q4.8 6.0 4.65 5.9 L4.65 5.3 4.85 5.35 Q5.1 5.35 6.05 5.05 6.9 4.8 7.0 4.8 7.65 5.05 7.9 5.45 L8.5 7.4 Q8.8 8.2 8.8 8.65 8.8 8.9 7.6 10.25 6.3 11.7 5.8 11.7 5.5 11.7 5.4 11.55 L5.4 11.35 Q5.4 11.25 5.85 10.95 L6.1 10.7 M4.65 6.55 L4.7 6.55 Q4.7 6.75 4.65 6.85 L4.65 6.55 4.65 6.85 Q4.55 6.95 4.35 6.95 L3.8 6.8 3.6 6.75 3.0 6.9 Q1.55 7.2 0.75 7.5 0.65 7.55 -0.4 8.4 -1.35 9.2 -1.65 9.2 -1.95 9.15 -2.05 8.95 L-1.35 8.15 -0.9 7.5 Q-0.35 7.25 0.45 6.95 2.7 6.2 4.1 6.3 4.35 6.5 4.65 6.55 M4.75 6.55 L5.55 6.55 5.6 6.65 Q5.75 6.8 5.9 6.85 L6.15 7.3 Q6.4 7.9 6.4 8.35 6.4 8.8 6.15 9.8 5.95 9.45 5.95 8.45 5.9 7.55 5.6 7.05 L4.95 7.05 Q4.7 6.85 4.7 6.65 L4.75 6.55 M4.65 5.9 L4.4 5.7 4.4 5.65 Q3.8 5.4 2.65 5.1 L1.05 4.65 Q0.0 4.55 -1.4 5.45 L-1.5 5.5 -2.25 5.75 Q-3.0 6.0 -3.55 6.35 L-3.8 6.55 Q-3.6 6.05 -2.55 5.45 -1.6 4.85 -0.65 4.55 0.7 4.1 2.55 4.45 3.95 4.7 4.5 5.25 L4.6 5.25 4.65 5.3 4.65 5.9" fill="#1a1a1a" fill-rule="evenodd" stroke="none"/>
    <path d="M4.65 5.9 Q4.8 6.0 5.05 6.0 L6.55 5.45 Q7.4 5.45 7.85 6.8 8.1 7.65 8.1 8.35 8.1 8.55 7.95 8.85 7.85 9.3 7.1 9.95 6.55 10.4 6.1 10.7 L5.7 10.9 Q5.9 10.8 6.15 9.8 6.4 8.8 6.4 8.35 6.4 7.9 6.15 7.3 L5.9 6.85 Q5.75 6.8 5.6 6.65 L5.55 6.55 4.75 6.55 4.7 6.55 4.65 6.55 4.65 5.9 4.65 6.55 Q4.35 6.5 4.1 6.3 2.7 6.2 0.45 6.95 -0.35 7.25 -0.9 7.5 L-1.35 8.15 -2.05 8.95 Q-2.3 9.25 -2.35 9.25 -3.0 9.2 -2.8 8.6 L-2.85 8.6 Q-3.1 8.6 -3.15 8.4 -3.3 8.1 -3.65 7.85 -3.85 7.75 -4.0 7.45 -4.15 7.2 -4.15 7.0 -4.15 6.8 -3.8 6.55 L-3.55 6.35 Q-3.0 6.0 -2.25 5.75 L-1.5 5.5 -1.4 5.45 Q0.0 4.55 1.05 4.65 L2.65 5.1 Q3.8 5.4 4.4 5.65 L4.4 5.7 4.65 5.9" fill="#003366" fill-rule="evenodd" stroke="none"/>
  </g>
</svg>
