<?xml version="1.0" encoding="UTF-8" standalone="no"?>
<svg xmlns:ffdec="https://www.free-decompiler.com/flash" xmlns:xlink="http://www.w3.org/1999/xlink" ffdec:objectType="shape" height="22.3px" width="17.95px" xmlns="http://www.w3.org/2000/svg">
  <g transform="matrix(1.0, 0.0, 0.0, 1.0, 10.05, 8.85)">
    <path d="M-4.15 -8.8 L-4.15 -8.75 -4.15 -8.8 M-6.6 -5.85 L-6.5 -5.9 -6.75 -4.95 -6.8 -4.7 -6.8 -4.0 -6.55 -4.3 Q-6.15 -4.65 -5.8 -4.9 -5.65 -5.0 -5.5 -5.05 L-5.4 -5.05 -5.4 -4.95 Q-5.4 -4.8 -6.0 -4.2 L-6.05 -4.15 -6.85 -3.45 -6.9 -3.35 -6.9 -3.4 -6.95 -3.35 -6.95 -3.3 -7.0 -3.3 -6.9 -3.15 -6.9 -3.1 -6.8 -3.0 -6.4 -3.55 -6.1 -3.9 -5.7 -4.3 Q-5.55 -4.45 -5.5 -4.35 L-5.4 -4.4 Q-5.25 -4.85 -5.1 -4.95 L-5.05 -4.85 -5.0 -4.7 -5.2 -3.85 -5.25 -3.75 Q-5.45 -2.75 -5.45 -1.8 L-5.4 -1.1 -5.35 -0.45 -5.15 0.45 -4.8 1.5 -4.8 1.55 -4.6 2.15 -3.85 4.15 Q-3.85 4.2 -4.5 4.85 -5.0 5.5 -5.25 6.15 L-5.15 6.3 Q-5.0 6.0 -4.65 5.65 -3.95 4.85 -3.5 4.95 L-3.45 4.95 -3.45 5.05 -3.5 5.1 -4.1 5.8 -4.9 6.8 -4.8 6.95 -4.6 6.7 Q-4.25 6.3 -4.0 6.4 L-3.95 6.4 -3.95 6.5 Q-3.95 6.6 -4.55 7.3 L-4.25 7.65 -4.05 8.05 -3.95 8.2 -1.1 11.45 -1.0 11.55 -0.6 11.45 Q-0.4 11.35 -0.2 11.25 0.7 10.85 1.7 10.6 L2.75 10.3 3.5 10.15 Q3.65 10.05 3.75 10.1 L3.95 10.05 4.1 9.95 5.05 9.95 Q5.5 10.0 5.75 10.1 L5.75 9.7 Q5.65 9.25 5.8 8.8 5.85 8.5 6.05 8.15 L6.2 7.85 6.8 6.6 Q7.05 6.0 7.4 5.35 L7.45 5.3 Q7.65 5.2 7.75 5.2 L7.8 5.25 Q8.0 5.4 7.75 6.3 L7.7 6.5 7.65 6.65 7.65 6.7 Q7.4 7.45 7.0 8.1 6.6 8.8 6.65 9.7 L6.65 10.15 Q6.65 10.45 6.55 10.7 6.25 11.65 5.9 11.85 5.65 12.35 5.15 12.35 L5.15 12.4 Q3.85 13.35 1.75 13.45 L0.35 13.4 -0.7 13.3 -1.25 12.85 Q-1.65 12.5 -1.8 12.3 L-1.85 11.95 -1.9 11.9 -2.0 11.85 -2.1 11.85 -2.15 11.7 -2.0 11.7 -2.4 11.3 -2.4 11.2 -3.0 10.4 -3.05 10.35 -3.4 9.9 -3.5 9.85 -3.65 9.85 -3.65 9.9 -3.7 9.85 -3.9 9.85 -3.9 9.9 Q-4.7 10.05 -5.45 9.5 L-5.95 9.15 Q-8.0 7.95 -8.0 4.4 -7.95 3.25 -7.55 2.45 L-7.5 2.1 Q-9.75 1.9 -10.05 -0.95 L-10.05 -1.55 Q-10.1 -3.55 -8.55 -4.5 L-7.8 -4.25 -7.65 -4.15 -7.6 -4.45 -7.55 -4.8 -7.55 -4.95 -7.5 -5.55 -7.5 -5.7 -7.45 -5.8 -7.35 -6.35 -7.0 -6.45 Q-6.55 -6.25 -6.6 -5.85 M-1.15 6.75 L-1.05 6.65 Q-0.45 6.1 0.45 5.9 L0.45 6.0 Q1.05 5.9 2.0 6.0 3.6 6.3 5.15 6.3 L5.7 6.35 Q5.85 6.4 5.85 6.65 L5.8 6.75 5.85 6.85 6.05 6.75 5.8 7.0 5.8 7.05 Q5.8 7.2 5.35 7.35 L5.15 7.45 5.1 7.45 4.95 7.85 4.7 8.65 4.65 8.85 Q4.65 9.1 4.5 9.3 4.15 9.9 3.0 9.9 0.9 9.9 -0.35 8.6 -0.65 8.3 -0.9 7.95 L-1.15 7.6 -1.15 7.55 -1.3 7.45 -1.35 7.3 -1.35 7.25 -1.35 7.2 -1.45 7.15 -1.45 7.1 -1.4 7.05 -1.45 7.0 Q-1.4 7.0 -1.4 7.05 L-1.15 6.75 M1.25 6.2 Q0.75 6.25 0.25 6.4 L0.05 6.45 0.65 6.45 0.7 6.5 0.8 6.5 0.95 6.55 1.35 6.65 2.25 6.9 Q3.35 7.2 4.35 7.25 4.45 7.15 4.55 7.15 L4.75 7.2 5.0 7.05 5.15 6.9 5.15 6.95 5.5 6.75 5.55 6.7 5.55 6.65 4.95 6.65 4.55 6.7 3.9 6.65 Q3.05 6.6 2.35 6.45 L1.8 6.3 1.35 6.2 1.25 6.2 M0.35 6.9 Q0.65 7.1 0.8 7.25 L1.1 7.25 Q1.6 7.65 1.7 7.7 2.2 7.95 2.9 7.95 L3.25 7.95 Q3.25 7.5 3.6 7.7 L3.9 7.7 3.9 7.95 Q4.1 8.2 4.1 8.5 L4.1 9.0 Q4.1 8.95 4.2 8.85 4.15 8.8 4.1 8.7 L4.1 8.35 Q4.1 7.9 4.15 7.65 L4.2 7.55 3.9 7.55 Q2.75 7.55 1.6 7.25 0.6 6.9 0.4 6.85 L0.25 6.85 0.35 6.9 M3.7 8.9 L3.8 8.55 Q3.8 8.45 3.75 8.25 L3.7 8.2 3.1 8.25 Q2.55 8.25 1.7 8.0 L1.15 7.75 1.0 7.7 0.9 7.7 0.85 7.75 Q0.75 7.85 0.6 8.05 L0.4 8.35 0.35 8.45 0.7 8.6 1.35 8.9 1.4 8.9 1.9 9.1 2.4 9.25 2.55 9.25 3.2 9.35 3.6 9.3 3.6 9.25 3.7 9.0 3.7 8.9 M3.9 10.45 Q3.95 10.75 3.75 11.2 L3.55 11.55 3.45 11.7 3.2 11.95 3.1 11.95 3.15 11.8 3.2 11.6 3.4 11.1 Q3.55 10.8 3.55 10.55 L3.4 10.6 2.95 11.25 2.55 11.7 Q2.3 11.9 2.1 11.95 L2.3 11.7 2.8 11.1 3.1 10.7 2.9 10.75 2.5 10.9 2.0 11.05 1.9 11.1 1.85 11.1 1.15 11.4 0.85 11.5 0.6 11.6 0.5 11.65 Q0.05 11.75 -0.6 11.85 L-1.45 11.9 -1.4 11.9 -1.15 12.1 -0.5 12.7 -0.4 12.75 -0.4 12.85 -0.35 12.85 -0.2 12.75 Q-0.05 12.65 0.4 12.55 1.2 12.3 1.45 12.45 1.35 12.55 1.05 12.7 L1.1 12.65 Q0.95 12.8 0.65 12.9 L0.25 13.0 0.8 13.0 Q3.05 12.95 4.25 12.45 L4.3 12.3 Q4.4 12.15 4.45 12.05 L4.6 12.0 4.65 12.0 4.75 12.05 4.7 12.25 4.8 12.2 Q4.9 12.1 5.1 11.95 L5.15 11.95 5.4 11.7 5.4 11.65 Q5.35 11.5 4.95 11.0 L4.85 10.85 4.55 10.45 4.45 10.45 4.45 10.65 Q4.5 10.95 4.45 11.1 L4.4 11.35 4.4 11.4 4.35 11.7 4.25 11.65 4.2 11.25 Q4.25 11.1 4.2 10.65 L4.2 10.45 3.9 10.45 M0.3 8.05 Q0.45 7.8 0.55 7.6 L0.35 7.45 Q0.0 7.25 -0.3 7.1 L-0.4 7.05 -0.55 7.2 -0.85 7.35 Q-0.4 7.8 0.05 8.2 L0.15 8.3 0.3 8.05 M-8.7 -1.95 L-8.75 -2.2 -8.8 -2.15 -8.8 -1.7 Q-8.75 -1.1 -8.5 -0.5 -8.3 0.05 -7.9 0.45 L-7.85 0.5 Q-7.95 0.15 -7.7 -0.1 -7.55 -0.25 -7.35 -0.35 L-7.55 -0.55 Q-7.95 -0.9 -8.3 -1.4 -8.55 -1.7 -8.7 -1.95 M-6.25 -3.0 L-6.55 -2.7 -6.5 -2.35 Q-6.2 -2.2 -6.05 -1.85 L-6.05 -2.2 Q-6.05 -2.85 -6.0 -3.25 L-6.25 -3.0 M-5.95 -2.4 L-6.0 -2.4 -6.0 -2.3 -5.85 -2.15 Q-5.95 -2.25 -5.95 -2.4 M-6.2 0.75 L-6.25 0.05 -6.35 -0.65 -6.5 -1.15 Q-6.65 -1.35 -6.8 -1.75 L-6.8 -1.95 -7.3 -2.5 Q-7.6 -2.6 -7.85 -2.75 L-8.35 -2.75 Q-7.45 -2.2 -6.95 -1.25 L-6.9 -1.2 -6.6 -0.55 -6.55 -0.3 Q-6.45 0.0 -6.45 0.3 -6.5 0.25 -6.55 0.2 L-6.9 0.0 -6.95 0.15 -7.0 0.25 -7.1 0.4 -7.15 0.4 Q-7.3 0.55 -7.5 0.6 L-7.75 0.6 -7.6 0.75 -7.3 0.95 -7.0 1.1 -6.95 1.15 -6.6 1.25 -6.55 1.3 -6.5 1.3 -6.35 1.35 -6.2 0.85 -6.2 0.75 M-5.65 0.5 L-5.75 0.95 -5.8 1.15 -5.85 1.3 -5.95 2.35 -5.95 2.45 -5.65 3.8 -5.6 3.95 -5.6 4.0 -5.55 4.1 -5.35 4.85 Q-5.1 4.5 -4.5 3.85 -4.5 3.75 -4.75 3.1 L-5.3 1.7 -5.5 1.1 -5.65 0.5 M-6.5 4.25 L-6.45 4.2 -6.5 3.85 -6.6 2.95 -6.7 2.5 -6.65 2.4 -6.65 2.3 -6.75 2.8 -6.8 3.1 Q-6.9 4.45 -6.7 5.75 L-6.5 6.95 -6.35 7.35 Q-6.0 8.15 -5.4 8.65 L-4.85 9.0 Q-4.5 9.1 -4.2 9.25 L-4.1 9.3 -4.3 8.95 -4.35 8.95 -4.4 8.9 -4.45 8.7 -4.5 8.65 -4.55 8.65 -5.8 6.95 Q-6.2 5.85 -6.4 4.75 L-6.5 4.25 M-6.2 5.9 L-6.3 5.65 -6.35 5.3 -6.2 5.9" fill="#1a1a1a" fill-rule="evenodd" stroke="none"/>
    <path d="M-4.8 1.5 Q-4.0 2.15 -3.7 2.4 -3.25 2.85 -3.25 3.35 -3.25 3.5 -3.45 4.95 L-3.5 4.95 Q-3.95 4.85 -4.65 5.65 -5.0 6.0 -5.15 6.3 L-5.25 6.15 Q-5.0 5.5 -4.5 4.85 -3.85 4.2 -3.85 4.15 L-4.6 2.15 -4.8 1.55 -4.8 1.5 M-3.5 5.1 L-3.5 5.35 Q-3.5 6.15 -3.55 6.55 -3.65 7.1 -3.2 7.7 -2.7 8.35 -2.2 8.95 L-1.75 9.55 -1.2 10.15 Q-0.75 10.75 -0.2 11.25 -0.4 11.35 -0.6 11.45 L-1.0 11.55 -1.1 11.45 -3.95 8.2 -4.05 8.05 -4.25 7.65 -4.55 7.3 Q-3.95 6.6 -3.95 6.5 L-3.95 6.4 -4.0 6.4 Q-4.25 6.3 -4.6 6.7 L-4.8 6.95 -4.9 6.8 -4.1 5.8 -3.5 5.1 M1.7 10.6 L1.65 10.5 Q1.9 10.4 2.45 10.35 L2.75 10.3 1.7 10.6 M-3.4 9.9 L-3.3 10.2 -3.5 9.85 -3.4 9.9 M-1.35 7.25 Q-1.45 7.55 -1.45 7.85 -1.45 8.2 -1.6 8.35 -1.7 8.3 -1.85 7.95 -2.0 7.6 -2.0 7.45 -2.0 7.05 -1.8 6.65 L-1.6 6.25 Q-1.1 5.55 -0.4 5.45 L-0.4 5.5 -0.35 5.65 Q-0.35 5.7 -0.9 6.35 L-1.1 6.65 -1.15 6.75 -1.4 7.05 Q-1.4 7.0 -1.45 7.0 L-1.4 7.05 -1.45 7.1 -1.45 7.15 -1.35 7.2 -1.35 7.25 M1.8 6.3 L2.35 6.45 Q3.05 6.6 3.9 6.65 L4.55 6.7 4.95 6.65 5.55 6.65 5.55 6.7 5.5 6.75 5.15 6.95 5.15 6.9 5.0 7.05 4.75 7.2 4.55 7.15 Q4.45 7.15 4.35 7.25 3.35 7.2 2.25 6.9 L1.35 6.65 0.95 6.55 0.8 6.5 0.7 6.5 0.65 6.45 0.05 6.45 0.25 6.4 Q0.75 6.25 1.25 6.2 L1.3 6.2 1.8 6.3 M-8.8 -1.7 L-8.7 -1.95 Q-8.55 -1.7 -8.3 -1.4 -7.95 -0.9 -7.55 -0.55 -7.8 -0.3 -7.9 0.05 -7.95 0.25 -7.9 0.45 -8.3 0.05 -8.5 -0.5 -8.75 -1.1 -8.8 -1.7 M-6.2 0.75 L-6.2 0.85 -6.35 1.35 -6.5 1.3 -6.7 1.2 -7.05 1.1 -7.05 0.95 -7.3 0.95 -7.6 0.75 -7.5 0.6 Q-7.3 0.55 -7.15 0.4 L-7.1 0.4 -7.0 0.25 -6.9 0.6 Q-6.6 0.6 -6.2 0.75 M-2.05 5.25 L-2.0 5.35 Q-2.0 5.4 -2.3 5.65 L-2.6 5.95 Q-2.85 5.8 -2.85 5.75 -2.85 5.55 -2.6 5.35 -2.35 5.15 -2.05 5.2 L-2.05 5.25 M-5.4 8.65 L-5.6 8.1 Q-5.75 7.6 -5.75 7.2 -5.85 7.0 -6.0 6.9 L-6.2 5.9 -6.35 5.3 -6.5 4.65 Q-6.55 4.4 -6.6 4.25 L-6.7 4.3 -6.7 4.15 -6.6 4.25 -6.5 4.25 -6.4 4.75 Q-6.2 5.85 -5.8 6.95 L-4.55 8.65 -4.5 8.65 -4.45 8.7 -4.4 8.9 -4.35 8.95 -4.3 8.95 -4.1 9.3 -4.2 9.25 Q-4.5 9.1 -4.85 9.0 L-5.4 8.65" fill="#a9854f" fill-rule="evenodd" stroke="none"/>
    <path d="M0.35 6.9 L0.25 6.85 0.4 6.85 Q0.6 6.9 1.6 7.25 2.75 7.55 3.9 7.55 L4.2 7.55 4.15 7.65 Q4.1 7.9 4.1 8.35 L4.1 8.7 Q4.15 8.8 4.2 8.85 4.1 8.95 4.1 9.0 L4.1 8.5 Q4.1 8.2 3.9 7.95 L3.9 7.7 3.6 7.7 Q3.25 7.5 3.25 7.95 L2.9 7.95 Q2.2 7.95 1.7 7.7 1.6 7.65 1.1 7.25 L0.8 7.25 Q0.65 7.1 0.35 6.9" fill="#69221e" fill-rule="evenodd" stroke="none"/>
    <path d="M1.15 7.75 L1.7 8.0 Q2.55 8.25 3.1 8.25 L3.7 8.2 3.75 8.25 Q3.8 8.45 3.8 8.55 L3.7 8.9 Q1.8 8.75 1.4 8.55 1.2 8.35 0.9 8.2 L1.15 7.75 M3.6 9.25 L3.6 9.3 3.2 9.35 2.55 9.25 3.6 9.25 M0.7 8.6 L0.35 8.45 0.4 8.35 0.7 8.6 M-0.3 7.1 Q0.0 7.25 0.35 7.45 L0.55 7.6 Q0.45 7.8 0.3 8.05 L0.05 7.8 Q-0.35 7.4 -0.35 7.25 L-0.3 7.1" fill="#ffffff" fill-rule="evenodd" stroke="none"/>
    <path d="M1.15 7.75 L0.9 8.2 Q1.2 8.35 1.4 8.55 1.8 8.75 3.7 8.9 L3.7 9.0 3.6 9.25 2.55 9.25 2.4 9.25 1.9 9.1 1.4 8.9 1.35 8.9 0.7 8.6 0.4 8.35 0.6 8.05 Q0.75 7.85 0.85 7.75 L0.9 7.7 1.0 7.7 1.15 7.75 M-0.3 7.1 L-0.35 7.25 Q-0.35 7.4 0.05 7.8 L0.3 8.05 0.15 8.3 0.05 8.2 Q-0.4 7.8 -0.85 7.35 L-0.55 7.2 -0.4 7.05 -0.3 7.1" fill="#cccccc" fill-rule="evenodd" stroke="none"/>
    <path d="M-4.15 -8.8 Q-3.7 -8.95 -1.1 -8.6 L0.05 -8.7 Q2.35 -8.45 2.75 -6.55 3.15 -4.65 3.25 -3.25 3.4 -1.85 3.6 -0.55 3.8 0.7 4.25 1.8 L4.35 2.15 4.85 3.2 5.2 3.8 5.5 4.1 5.75 4.1 5.95 4.35 6.15 4.45 6.55 4.75 6.6 4.8 Q7.2 5.1 7.25 5.05 L7.35 5.2 7.45 5.3 7.4 5.35 Q7.05 6.0 6.8 6.6 L6.2 7.85 6.05 8.15 Q5.85 8.5 5.8 8.8 5.65 9.25 5.75 9.7 L5.75 10.1 Q5.5 10.0 5.05 9.95 L4.1 9.95 3.95 10.05 3.75 10.1 Q3.65 10.05 3.5 10.15 L2.75 10.3 2.45 10.35 Q1.9 10.4 1.65 10.5 L1.7 10.6 Q0.7 10.85 -0.2 11.25 -0.75 10.75 -1.2 10.15 L-1.75 9.55 -2.2 8.95 Q-2.7 8.35 -3.2 7.7 -3.65 7.1 -3.55 6.55 -3.5 6.15 -3.5 5.35 L-3.5 5.1 -3.45 5.05 -3.45 4.95 Q-3.25 3.5 -3.25 3.35 -3.25 2.85 -3.7 2.4 -4.0 2.15 -4.8 1.5 L-5.15 0.45 -5.35 -0.45 -5.4 -1.1 -5.45 -1.8 Q-5.45 -2.75 -5.25 -3.75 L-5.2 -3.85 -5.0 -4.7 -5.05 -4.85 -5.1 -4.95 Q-5.25 -4.85 -5.4 -4.4 L-5.5 -4.35 Q-5.55 -4.45 -5.7 -4.3 L-6.1 -3.9 -6.4 -3.55 -6.8 -3.0 -6.9 -3.1 -6.9 -3.15 -7.0 -3.3 -6.95 -3.3 -6.95 -3.35 -6.9 -3.4 -6.9 -3.35 -6.85 -3.45 -6.05 -4.15 -6.0 -4.2 Q-5.4 -4.8 -5.4 -4.95 L-5.4 -5.05 -5.5 -5.05 Q-5.65 -5.0 -5.8 -4.9 -6.15 -4.65 -6.55 -4.3 L-6.8 -4.0 -6.8 -4.7 -6.75 -4.95 -6.5 -5.9 -6.6 -5.85 -6.3 -5.95 -6.1 -6.1 Q-5.9 -6.3 -5.6 -6.35 L-5.55 -6.45 -5.5 -6.65 Q-5.0 -7.75 -4.5 -8.25 L-4.25 -8.6 -4.25 -8.7 -4.2 -8.7 -4.15 -8.75 -4.15 -8.8 M-1.35 7.25 L-1.35 7.3 -1.3 7.45 -1.15 7.55 -1.15 7.6 -0.9 7.95 Q-0.65 8.3 -0.35 8.6 0.9 9.9 3.0 9.9 4.15 9.9 4.5 9.3 4.65 9.1 4.65 8.85 L4.7 8.65 4.95 7.85 5.1 7.45 5.15 7.45 5.35 7.35 Q5.8 7.2 5.8 7.05 L5.8 7.0 6.05 6.75 5.85 6.85 5.8 6.75 5.85 6.65 Q5.85 6.4 5.7 6.35 L5.15 6.3 Q3.6 6.3 2.0 6.0 1.05 5.9 0.45 6.0 L0.45 5.9 Q-0.45 6.1 -1.05 6.65 L-1.15 6.75 -1.1 6.65 -0.9 6.35 Q-0.35 5.7 -0.35 5.65 L-0.4 5.5 -0.4 5.45 Q-1.1 5.55 -1.6 6.25 L-1.8 6.65 Q-2.0 7.05 -2.0 7.45 -2.0 7.6 -1.85 7.95 -1.7 8.3 -1.6 8.35 -1.45 8.2 -1.45 7.85 -1.45 7.55 -1.35 7.25 M1.8 6.3 L1.3 6.2 1.25 6.2 1.35 6.2 1.8 6.3 M-8.7 -1.95 L-8.8 -1.7 -8.8 -2.15 -8.75 -2.2 -8.7 -1.95 M-6.55 0.2 Q-6.5 0.25 -6.45 0.3 -6.45 0.0 -6.55 -0.3 L-6.6 -0.55 -6.9 -1.2 -6.95 -1.25 Q-7.45 -2.2 -8.35 -2.75 L-7.85 -2.75 Q-7.6 -2.6 -7.3 -2.5 L-6.8 -1.95 -6.8 -1.75 Q-6.65 -1.35 -6.5 -1.15 L-6.35 -0.65 -6.25 0.05 -6.2 0.75 Q-6.6 0.6 -6.9 0.6 L-7.0 0.25 -6.95 0.15 -6.55 0.55 -6.55 0.2 M-6.5 1.3 L-6.55 1.3 -6.6 1.25 -6.95 1.15 -7.0 1.1 -7.3 0.95 -7.05 0.95 -7.05 1.1 -6.7 1.2 -6.5 1.3 M-2.05 5.25 L-2.05 5.2 Q-2.35 5.15 -2.6 5.35 -2.85 5.55 -2.85 5.75 -2.85 5.8 -2.6 5.95 L-2.3 5.65 Q-2.0 5.4 -2.0 5.35 L-2.05 5.25 M-5.4 8.65 Q-6.0 8.15 -6.35 7.35 L-6.5 6.95 -6.7 5.75 Q-6.9 4.45 -6.8 3.1 L-6.75 2.8 -6.65 2.3 -6.65 2.4 -6.7 2.5 -6.6 2.95 -6.5 3.85 -6.45 4.2 -6.5 4.25 -6.6 4.25 -6.7 4.15 -6.7 4.3 -6.6 4.25 Q-6.55 4.4 -6.5 4.65 L-6.35 5.3 -6.3 5.65 -6.2 5.9 -6.0 6.9 Q-5.85 7.0 -5.75 7.2 -5.75 7.6 -5.6 8.1 L-5.4 8.65" fill="#c7a36d" fill-rule="evenodd" stroke="none"/>
    <path d="M3.9 10.45 L4.2 10.45 4.2 10.65 Q4.25 11.1 4.2 11.25 L4.25 11.65 4.35 11.7 4.4 11.4 4.4 11.35 4.45 11.1 Q4.5 10.95 4.45 10.65 L4.45 10.45 4.55 10.45 4.85 10.85 4.95 11.0 Q5.35 11.5 5.4 11.65 L5.4 11.7 5.15 11.95 5.1 11.95 Q4.9 12.1 4.8 12.2 L4.7 12.25 4.75 12.05 4.65 12.0 4.6 12.0 4.45 12.05 Q4.4 12.15 4.3 12.3 L4.25 12.45 Q3.05 12.95 0.8 13.0 L0.25 13.0 0.65 12.9 Q0.95 12.8 1.1 12.65 L1.05 12.7 Q1.35 12.55 1.45 12.45 1.2 12.3 0.4 12.55 -0.05 12.65 -0.2 12.75 L-0.35 12.85 -0.4 12.85 -0.4 12.75 -0.5 12.7 -1.15 12.1 -1.4 11.9 -1.45 11.9 -0.6 11.85 Q0.05 11.75 0.5 11.65 L0.6 11.6 0.85 11.5 1.15 11.4 1.85 11.1 1.9 11.1 2.0 11.05 2.5 10.9 2.9 10.75 3.1 10.7 2.8 11.1 2.3 11.7 2.1 11.95 Q2.3 11.9 2.55 11.7 L2.95 11.25 3.4 10.6 3.55 10.55 Q3.55 10.8 3.4 11.1 L3.2 11.6 3.15 11.8 3.1 11.95 3.2 11.95 3.45 11.7 3.55 11.55 3.75 11.2 Q3.95 10.75 3.9 10.45 M-6.25 -3.0 L-6.0 -3.25 Q-6.05 -2.85 -6.05 -2.2 L-6.05 -1.85 Q-6.2 -2.2 -6.5 -2.35 L-6.55 -2.7 -6.25 -3.0 M-5.95 -2.4 Q-5.95 -2.25 -5.85 -2.15 L-6.0 -2.3 -6.0 -2.4 -5.95 -2.4 M-5.65 0.5 L-5.5 1.1 -5.3 1.7 -4.75 3.1 Q-4.5 3.75 -4.5 3.85 -5.1 4.5 -5.35 4.85 L-5.55 4.1 -5.6 4.0 -5.6 3.95 -5.65 3.8 -5.95 2.45 -5.95 2.35 -5.85 1.3 -5.8 1.15 -5.75 0.95 -5.65 0.5" fill="#003366" fill-rule="evenodd" stroke="none"/>
    <path d="M-7.9 0.45 Q-7.95 0.25 -7.9 0.05 -7.8 -0.3 -7.55 -0.55 L-7.35 -0.35 Q-7.55 -0.25 -7.7 -0.1 -7.95 0.15 -7.85 0.5 L-7.9 0.45 M-7.6 0.75 L-7.75 0.6 -7.5 0.6 -7.6 0.75 M-6.95 0.15 L-6.9 0.0 -6.55 0.2 -6.55 0.55 -6.95 0.15" fill="#111111" fill-rule="evenodd" stroke="none"/>
  </g>
</svg>
