<?xml version="1.0" encoding="UTF-8" standalone="no"?>
<svg xmlns:ffdec="https://www.free-decompiler.com/flash" xmlns:xlink="http://www.w3.org/1999/xlink" ffdec:objectType="shape" height="22.95px" width="17.95px" xmlns="http://www.w3.org/2000/svg">
  <g transform="matrix(1.0, 0.0, 0.0, 1.0, 10.05, 9.05)">
    <path d="M7.45 5.3 Q7.65 5.2 7.75 5.2 L7.8 5.25 Q8.0 5.4 7.75 6.3 L7.7 6.5 7.65 6.65 7.65 6.7 Q7.4 7.45 7.0 8.1 6.6 8.8 6.65 9.7 6.75 10.6 6.35 11.0 5.95 11.35 5.45 11.65 4.75 12.0 4.0 12.25 L2.3 12.8 Q1.35 13.1 -0.6 12.7 -0.95 12.6 -1.2 12.4 -1.65 12.1 -2.1 11.55 L-3.0 10.4 -3.05 10.35 -3.4 9.9 -3.5 9.85 -3.65 9.85 -3.65 9.9 -3.7 9.85 -3.9 9.85 -3.9 9.9 Q-4.7 10.05 -5.45 9.5 L-5.95 9.15 Q-8.0 7.95 -8.0 4.4 -8.0 3.95 -7.9 3.55 -7.8 2.95 -7.55 2.45 L-7.5 2.1 Q-9.75 1.9 -10.05 -0.95 L-10.05 -1.55 Q-10.1 -3.55 -8.55 -4.5 L-7.8 -4.25 -7.65 -4.15 -7.6 -4.45 -7.55 -4.8 -7.55 -4.95 -7.5 -5.55 -7.5 -5.7 -7.45 -5.8 -7.35 -6.35 -7.0 -6.45 Q-6.55 -6.25 -6.6 -5.85 L-6.5 -5.9 -6.75 -4.95 -6.8 -4.7 -6.8 -3.9 Q-6.8 -3.6 -6.9 -3.35 L-6.95 -3.45 -7.0 -3.3 -6.9 -3.15 -6.9 -3.1 -6.45 -2.6 -6.4 -2.55 -6.3 -2.7 -6.2 -2.35 -5.9 -1.35 -6.05 -0.9 Q-6.3 -0.95 -6.5 -1.15 -6.65 -1.35 -6.8 -1.75 L-6.8 -1.95 -7.3 -2.5 Q-7.6 -2.6 -7.85 -2.75 L-8.35 -2.75 Q-7.45 -2.2 -6.95 -1.25 L-6.9 -1.2 -6.6 -0.55 -6.55 -0.3 Q-6.45 0.0 -6.45 0.3 -6.5 0.25 -6.55 0.2 L-6.9 0.0 -6.95 0.15 -7.0 0.25 -7.1 0.4 -7.15 0.4 Q-7.3 0.55 -7.5 0.6 L-7.75 0.6 -7.6 0.75 -7.3 0.95 -7.0 1.1 -6.95 1.15 -6.6 1.25 -6.55 1.3 -6.5 1.3 Q-6.05 1.5 -6.05 1.55 L-6.1 1.55 -6.15 1.65 -6.05 1.75 Q-6.0 2.2 -5.8 2.95 L-5.65 3.6 -5.65 3.95 -5.55 3.95 -5.6 4.25 -5.6 4.6 Q-5.6 5.25 -5.3 5.95 -5.1 6.5 -4.75 7.05 L-4.25 7.65 -4.05 8.05 -3.95 8.2 -1.1 11.45 -0.65 11.8 Q-0.05 12.25 0.7 12.35 1.5 12.4 4.4 11.4 L4.3 11.4 Q4.95 11.0 5.4 10.75 5.85 10.5 5.75 9.7 5.65 9.25 5.8 8.8 5.85 8.5 6.05 8.15 L6.2 7.85 6.8 6.6 Q7.05 6.0 7.4 5.35 L7.45 5.3 M-4.15 -8.75 L-4.15 -8.8 -4.15 -8.75 M-8.7 -1.95 L-8.75 -2.2 -8.8 -2.15 -8.8 -1.7 Q-8.75 -1.1 -8.5 -0.5 -8.3 0.05 -7.9 0.45 L-7.85 0.5 Q-7.95 0.15 -7.7 -0.1 -7.55 -0.25 -7.35 -0.35 L-7.55 -0.55 Q-7.95 -0.9 -8.3 -1.4 -8.55 -1.7 -8.7 -1.95 M-7.1 3.05 L-7.1 3.05 M-6.5 4.25 L-6.45 4.2 -6.5 3.85 Q-6.6 3.35 -6.6 2.85 L-6.6 2.75 -6.65 2.3 -6.75 2.8 -6.75 2.85 -6.8 3.1 Q-6.9 4.45 -6.7 5.75 L-6.5 6.95 -6.35 7.35 Q-6.0 8.15 -5.4 8.65 L-4.85 9.0 Q-4.5 9.1 -4.2 9.25 L-4.1 9.3 -4.3 8.95 -4.35 8.95 -4.4 8.9 -4.45 8.7 -4.5 8.65 -4.55 8.65 -5.8 6.95 Q-6.2 5.85 -6.4 4.75 L-6.5 4.25 M-6.2 5.9 L-6.3 5.65 -6.35 5.3 -6.2 5.9 M-0.65 8.45 L-0.25 7.9 Q-0.15 7.85 -0.05 7.85 0.2 7.7 0.65 7.55 L1.4 7.25 1.95 7.15 2.75 7.15 3.65 7.1 4.1 7.3 4.3 7.45 4.55 7.4 Q4.65 7.3 4.75 7.25 L5.05 7.3 5.7 7.3 Q5.8 7.45 5.8 7.55 5.8 7.7 5.65 7.8 L5.6 7.85 5.45 8.3 Q5.25 8.65 5.0 8.85 L4.7 9.25 3.4 9.3 Q0.15 9.3 -0.5 8.55 L-0.65 8.45 M4.7 8.1 L4.8 8.0 4.7 7.95 Q4.2 7.8 3.65 7.8 2.95 7.8 2.3 7.95 L2.2 7.95 1.45 8.1 1.4 8.1 1.25 8.15 1.2 8.2 Q0.85 8.35 0.6 8.5 L0.65 8.5 1.35 8.65 1.8 8.75 Q3.4 9.1 4.45 8.9 4.45 8.8 4.5 8.7 4.55 8.4 4.7 8.1" fill="#1a1a1a" fill-rule="evenodd" stroke="none"/>
    <path d="M2.2 7.95 L2.3 7.95 Q2.95 7.8 3.65 7.8 4.2 7.8 4.7 7.95 L4.8 8.0 4.7 8.1 4.2 8.1 4.15 8.25 Q4.15 8.4 4.2 8.45 4.25 8.6 4.5 8.7 4.45 8.8 4.45 8.9 3.4 9.1 1.8 8.75 L1.35 8.65 1.6 8.5 Q2.05 8.2 2.35 8.2 L2.5 8.15 Q2.5 8.05 2.45 8.0 L2.35 7.95 2.2 7.95" fill="#ffffff" fill-rule="evenodd" stroke="none"/>
    <path d="M2.2 7.95 L2.35 7.95 2.45 8.0 Q2.5 8.05 2.5 8.15 L2.35 8.2 Q2.05 8.2 1.6 8.5 L1.35 8.65 0.65 8.5 0.6 8.5 Q0.85 8.35 1.2 8.2 L1.25 8.15 1.4 8.1 1.45 8.1 2.2 7.95 M4.5 8.7 Q4.25 8.6 4.2 8.45 4.15 8.4 4.15 8.25 L4.2 8.1 4.7 8.1 Q4.55 8.4 4.5 8.7" fill="#cccccc" fill-rule="evenodd" stroke="none"/>
    <path d="M-3.4 9.9 L-3.3 10.2 -3.5 9.85 -3.4 9.9 M-7.0 0.25 L-6.9 0.6 Q-6.6 0.6 -6.15 0.8 -5.55 1.0 -4.8 1.5 -4.0 2.15 -3.7 2.4 -3.25 2.85 -3.25 3.35 -3.25 3.5 -3.5 5.3 L-3.5 5.35 Q-3.5 6.15 -3.55 6.55 -3.65 7.1 -3.2 7.7 -2.7 8.35 -2.2 8.95 L-1.75 9.55 -1.2 10.15 Q-0.75 10.75 -0.2 11.3 L0.0 11.45 Q1.8 12.0 4.4 11.4 1.5 12.4 0.7 12.35 -0.05 12.25 -0.65 11.8 L-1.1 11.45 -3.95 8.2 -4.05 8.05 -4.25 7.65 -4.75 7.05 Q-5.1 6.5 -5.3 5.95 -5.6 5.25 -5.6 4.6 L-5.6 4.25 -5.55 3.95 -5.65 3.95 -5.65 3.6 -5.8 2.95 Q-6.0 2.2 -6.05 1.75 L-6.15 1.65 -6.1 1.55 -6.05 1.55 Q-6.05 1.5 -6.5 1.3 L-6.7 1.2 -7.05 1.1 -7.05 0.95 -7.3 0.95 -7.6 0.75 -7.5 0.6 Q-7.3 0.55 -7.15 0.4 L-7.1 0.4 -7.0 0.25 M-8.8 -1.7 L-8.7 -1.95 Q-8.55 -1.7 -8.3 -1.4 -7.95 -0.9 -7.55 -0.55 -7.8 -0.3 -7.9 0.05 -7.95 0.25 -7.9 0.45 -8.3 0.05 -8.5 -0.5 -8.75 -1.1 -8.8 -1.7 M-5.4 8.65 L-5.6 8.1 Q-5.75 7.6 -5.75 7.2 -5.85 7.0 -6.0 6.9 L-6.2 5.9 -6.35 5.3 -6.5 4.65 Q-6.55 4.4 -6.6 4.25 L-6.7 4.3 -6.7 4.15 -6.6 4.25 -6.5 4.25 -6.4 4.75 Q-6.2 5.85 -5.8 6.95 L-4.55 8.65 -4.5 8.65 -4.45 8.7 -4.4 8.9 -4.35 8.95 -4.3 8.95 -4.1 9.3 -4.2 9.25 Q-4.5 9.1 -4.85 9.0 L-5.4 8.65 M3.9 10.05 Q3.6 10.2 3.1 10.2 L2.7 9.95 Q2.85 9.75 3.5 9.55 4.2 9.4 4.2 9.8 4.2 9.95 3.9 10.05" fill="#a9854f" fill-rule="evenodd" stroke="none"/>
    <path d="M-4.15 -8.8 L-4.05 -8.8 Q-3.6 -9.25 -3.5 -8.85 L-1.25 -8.65 -1.1 -8.6 0.05 -8.7 Q2.35 -8.45 2.75 -6.55 3.15 -4.65 3.25 -3.25 3.4 -1.85 3.6 -0.55 3.8 0.7 4.25 1.8 L4.35 2.15 4.85 3.2 5.2 3.8 5.5 4.1 5.75 4.1 5.95 4.35 6.15 4.45 6.55 4.75 6.6 4.8 Q7.2 5.1 7.25 5.05 L7.35 5.2 7.45 5.3 7.4 5.35 Q7.05 6.0 6.8 6.6 L6.2 7.85 6.05 8.15 Q5.85 8.5 5.8 8.8 5.65 9.25 5.75 9.7 5.85 10.5 5.4 10.75 4.95 11.0 4.3 11.4 L4.4 11.4 Q1.8 12.0 0.0 11.45 L-0.2 11.3 Q-0.75 10.75 -1.2 10.15 L-1.75 9.55 -2.2 8.95 Q-2.7 8.35 -3.2 7.7 -3.65 7.1 -3.55 6.55 -3.5 6.15 -3.5 5.35 L-3.5 5.3 Q-3.25 3.5 -3.25 3.35 -3.25 2.85 -3.7 2.4 -4.0 2.15 -4.8 1.5 -5.55 1.0 -6.15 0.8 -6.6 0.6 -6.9 0.6 L-7.0 0.25 -6.95 0.15 -6.55 0.55 -6.55 0.2 Q-6.5 0.25 -6.45 0.3 -6.45 0.0 -6.55 -0.3 L-6.6 -0.55 -6.9 -1.2 -6.95 -1.25 Q-7.45 -2.2 -8.35 -2.75 L-7.85 -2.75 Q-7.6 -2.6 -7.3 -2.5 L-6.8 -1.95 -6.8 -1.75 Q-6.65 -1.35 -6.5 -1.15 -6.3 -0.95 -6.05 -0.9 L-5.9 -1.35 -6.2 -2.35 -6.3 -2.7 -6.4 -2.55 -6.45 -2.6 -6.9 -3.1 -6.9 -3.15 -7.0 -3.3 -6.95 -3.45 -6.9 -3.35 Q-6.8 -3.6 -6.8 -3.9 L-6.8 -4.7 -6.75 -4.95 -6.5 -5.9 -6.6 -5.85 -6.3 -5.95 -6.1 -6.1 Q-5.9 -6.3 -5.6 -6.35 L-5.55 -6.45 -5.5 -6.65 Q-5.0 -7.75 -4.5 -8.25 L-4.25 -8.6 -4.25 -8.65 -4.2 -8.75 -4.15 -8.75 -4.15 -8.8 M-8.7 -1.95 L-8.8 -1.7 -8.8 -2.15 -8.75 -2.2 -8.7 -1.95 M-6.5 1.3 L-6.55 1.3 -6.6 1.25 -6.95 1.15 -7.0 1.1 -7.3 0.95 -7.05 0.95 -7.05 1.1 -6.7 1.2 -6.5 1.3 M-7.1 3.05 L-7.1 3.05 M-5.4 8.65 Q-6.0 8.15 -6.35 7.35 L-6.5 6.95 -6.7 5.75 Q-6.9 4.45 -6.8 3.1 L-6.75 2.85 -6.75 2.8 -6.65 2.3 -6.6 2.75 -6.6 2.85 Q-6.6 3.35 -6.5 3.85 L-6.45 4.2 -6.5 4.25 -6.6 4.25 -6.7 4.15 -6.7 4.3 -6.6 4.25 Q-6.55 4.4 -6.5 4.65 L-6.35 5.3 -6.3 5.65 -6.2 5.9 -6.0 6.9 Q-5.85 7.0 -5.75 7.2 -5.75 7.6 -5.6 8.1 L-5.4 8.65 M-0.65 8.45 L-0.5 8.55 Q0.15 9.3 3.4 9.3 L4.7 9.25 5.0 8.85 Q5.25 8.65 5.45 8.3 L5.6 7.85 5.65 7.8 Q5.8 7.7 5.8 7.55 5.8 7.45 5.7 7.3 L5.05 7.3 4.75 7.25 Q4.65 7.3 4.55 7.4 L4.3 7.45 4.1 7.3 3.65 7.1 2.75 7.15 1.95 7.15 1.4 7.25 0.65 7.55 Q0.2 7.7 -0.05 7.85 -0.15 7.85 -0.25 7.9 L-0.65 8.45 M3.9 10.05 Q4.2 9.95 4.2 9.8 4.2 9.4 3.5 9.55 2.85 9.75 2.7 9.95 L3.1 10.2 Q3.6 10.2 3.9 10.05" fill="#c7a36d" fill-rule="evenodd" stroke="none"/>
    <path d="M-6.55 0.2 L-6.55 0.55 -6.95 0.15 -6.9 0.0 -6.55 0.2 M-7.9 0.45 Q-7.95 0.25 -7.9 0.05 -7.8 -0.3 -7.55 -0.55 L-7.35 -0.35 Q-7.55 -0.25 -7.7 -0.1 -7.95 0.15 -7.85 0.5 L-7.9 0.45 M-7.6 0.75 L-7.75 0.6 -7.5 0.6 -7.6 0.75" fill="#111111" fill-rule="evenodd" stroke="none"/>
    <path d="M-5.5 -1.8 Q-4.3 5.8 -4.3 7.75 -4.3 7.85 -4.4 7.95 -4.45 8.05 -4.55 8.05 -4.95 8.05 -5.25 7.5 L-5.45 7.0 -5.35 6.1 -5.25 5.25 -5.35 4.75 -5.5 4.3 -5.3 0.8 -5.35 0.0 -5.4 -0.4 -5.5 -0.35 Q-5.6 -0.6 -5.6 -0.95 L-5.65 -1.6 Q-5.75 -2.35 -6.45 -2.5 -5.75 -2.55 -5.55 -1.8 L-5.5 -1.8 M-5.45 -0.75 Q-5.45 -0.85 -5.5 -1.25 L-5.45 -0.75 M-0.8 7.75 Q-0.1 6.8 2.2 6.7 L2.25 6.7 Q0.8 7.2 0.3 7.55 0.0 7.7 -0.2 7.95 0.15 7.7 0.35 7.7 L0.35 7.85 0.2 7.95 0.15 7.95 Q-0.3 8.2 -0.5 8.65 L-0.55 8.85 -0.45 9.5 Q-0.4 9.9 -0.45 10.15 L-0.55 10.4 -0.5 10.55 Q-0.4 11.55 -0.4 11.75 -0.4 11.95 -0.5 12.05 -0.55 12.25 -0.65 12.35 -0.7 12.6 -0.8 12.75 L-1.65 13.85 -1.7 13.85 -1.75 13.9 -1.8 13.8 -1.8 13.6 -1.75 12.9 -1.65 12.2 Q-1.65 12.1 -1.75 11.85 L-1.8 11.5 -1.8 11.45 Q-2.05 11.4 -2.15 11.3 L-2.15 11.1 Q-2.15 10.95 -1.65 10.7 L-1.55 10.65 -1.35 10.35 Q-1.2 10.05 -1.2 9.75 -1.2 8.3 -0.8 7.75 M5.3 6.9 Q5.85 7.05 5.85 7.35 5.85 7.4 5.75 7.6 L5.5 7.85 Q5.3 7.75 4.5 6.8 4.9 6.8 5.3 6.9 M4.9 8.2 L5.1 8.95 5.15 9.55 Q5.15 9.75 5.3 10.2 L5.4 10.65 Q5.55 10.85 5.55 11.25 5.55 11.85 5.4 12.1 5.05 12.8 4.9 13.3 L4.75 12.1 4.75 11.85 Q4.55 11.8 4.55 11.6 L4.75 11.0 4.8 10.7 5.05 9.9 Q5.05 9.8 4.8 9.55 4.6 9.25 4.6 9.1 4.6 9.0 4.75 8.6 4.85 8.25 4.9 8.2 M3.1 10.5 Q2.85 10.7 2.85 10.85 L2.95 11.3 3.05 11.7 Q3.05 11.8 2.95 12.05 L2.95 12.25 Q2.95 12.55 2.6 13.1 2.2 13.6 1.95 13.75 L1.9 13.2 1.9 12.6 1.85 12.55 Q1.8 12.45 1.8 12.3 1.8 12.25 2.2 11.7 2.65 11.15 2.65 10.85 2.65 10.7 2.5 10.5 2.4 10.25 2.4 10.1 2.4 9.85 2.7 9.75 L3.35 9.7 3.35 10.1 Q3.35 10.25 3.1 10.5" fill="#1a1a1a" fill-rule="evenodd" stroke="none"/>
  </g>
</svg>
