<?xml version="1.0" encoding="UTF-8" standalone="no"?>
<svg xmlns:ffdec="https://www.free-decompiler.com/flash" xmlns:xlink="http://www.w3.org/1999/xlink" ffdec:objectType="shape" height="23.6px" width="17.95px" xmlns="http://www.w3.org/2000/svg">
  <g transform="matrix(1.0, 0.0, 0.0, 1.0, 10.05, 8.85)">
    <path d="M-4.15 -8.8 L-4.15 -8.75 -4.15 -8.8 M-6.6 -5.85 L-6.5 -5.9 -6.75 -4.95 -6.8 -4.7 -6.8 -3.9 Q-6.8 -3.6 -6.9 -3.35 L-6.95 -3.45 -7.0 -3.3 -6.9 -3.15 -6.9 -3.1 -6.45 -2.6 -6.4 -2.55 -6.3 -2.7 -6.2 -2.35 -5.9 -1.35 -6.05 -0.9 Q-6.3 -0.95 -6.5 -1.15 -6.65 -1.35 -6.8 -1.75 L-6.8 -1.95 -7.3 -2.5 Q-7.6 -2.6 -7.85 -2.75 L-8.35 -2.75 Q-7.45 -2.2 -6.95 -1.25 L-6.9 -1.2 -6.6 -0.55 -6.55 -0.3 Q-6.45 0.0 -6.45 0.3 -6.5 0.25 -6.55 0.2 L-6.9 0.0 -6.95 0.15 -7.0 0.25 -7.1 0.4 -7.15 0.4 Q-7.3 0.55 -7.5 0.6 L-7.75 0.6 -7.6 0.75 -7.3 0.95 -7.0 1.1 -6.95 1.15 -6.6 1.25 -6.55 1.3 -6.3 1.25 -6.15 1.35 -6.15 1.4 -6.05 1.45 -5.85 1.45 -6.0 1.55 -6.1 1.55 -6.15 1.65 -6.05 1.75 -6.05 1.8 -5.95 1.95 -5.85 2.15 Q-5.7 2.35 -5.5 2.6 L-5.55 3.0 Q-5.75 4.2 -5.6 5.3 -5.05 6.8 -3.95 8.05 L-3.95 8.2 -3.05 9.25 -3.1 8.95 Q-3.2 8.25 -3.25 7.75 L-3.25 7.4 Q-3.25 6.4 -3.2 6.1 -3.05 5.4 -2.6 5.2 -2.5 5.05 -2.15 5.15 -1.4 5.4 -0.85 5.55 L0.7 5.85 Q1.55 6.0 1.85 6.15 L2.3 6.1 2.4 6.2 2.35 6.3 2.25 6.3 2.15 6.35 2.2 6.35 1.95 6.45 1.8 6.5 Q1.75 6.55 1.55 6.6 L1.35 6.65 1.2 6.65 1.15 6.6 1.05 6.6 Q-0.75 6.6 -1.85 6.1 L-2.35 5.8 Q-1.9 8.35 -1.65 9.2 L-1.35 10.05 Q-0.9 11.25 -0.15 12.25 L-0.1 12.25 Q0.5 12.8 0.75 12.85 L1.55 12.85 Q1.75 12.8 1.95 12.5 L2.0 12.4 Q2.15 12.2 2.25 12.1 2.25 11.85 2.4 11.75 L2.8 11.75 Q3.25 11.95 3.4 12.4 L3.45 12.7 3.85 12.7 3.95 12.6 Q4.3 12.1 4.5 11.4 L4.5 10.95 4.45 9.9 Q4.4 9.65 4.45 9.45 L4.45 9.35 4.35 9.3 Q4.3 9.25 4.3 9.1 4.3 8.85 4.85 8.05 5.45 7.2 5.45 7.1 L4.9 6.95 4.55 6.85 4.15 6.75 4.15 6.7 Q4.25 6.4 5.1 6.6 5.55 6.45 6.25 6.55 L6.25 6.6 6.3 6.75 Q6.3 6.85 5.8 7.55 L5.75 7.6 5.75 7.7 5.6 7.95 5.7 7.95 Q5.5 8.4 5.4 8.8 L5.65 8.5 5.8 8.35 6.4 7.65 6.65 7.3 7.15 6.3 7.15 6.2 7.2 6.15 7.35 5.7 7.35 5.65 7.4 5.45 7.4 5.35 7.45 5.3 Q7.7 5.15 7.8 5.25 8.0 5.4 7.75 6.3 L7.7 6.5 7.45 7.25 Q6.95 8.25 6.1 9.35 5.55 10.05 5.2 10.85 5.2 11.2 5.15 11.5 L5.15 12.25 Q5.2 12.35 5.2 12.6 5.2 13.4 4.6 13.9 4.0 14.45 2.85 14.65 L2.65 14.75 2.5 14.7 2.45 14.7 1.3 14.75 0.95 14.75 Q0.4 14.75 -0.9 13.35 -1.75 12.4 -2.4 11.55 -2.5 11.35 -2.65 10.8 L-3.4 9.9 -3.55 9.75 -3.6 9.6 -3.7 9.55 -3.75 9.45 -3.75 9.5 -3.75 9.55 -3.75 9.6 -3.65 9.9 -3.7 9.85 -3.9 9.85 -3.9 9.9 Q-4.7 10.05 -5.45 9.5 L-5.95 9.15 Q-8.0 7.95 -8.0 4.4 -8.0 3.95 -7.9 3.55 -7.8 2.95 -7.55 2.45 L-7.5 2.1 Q-9.75 1.9 -10.05 -0.95 L-10.05 -1.55 Q-10.1 -3.55 -8.55 -4.5 L-7.8 -4.25 -7.65 -4.15 -7.6 -4.45 -7.55 -4.8 -7.55 -4.95 -7.5 -5.55 -7.5 -5.7 -7.45 -5.8 -7.35 -6.35 -7.0 -6.45 Q-6.55 -6.25 -6.6 -5.85 M2.9 7.05 L3.95 7.25 4.5 7.35 4.75 7.3 4.85 7.3 Q4.95 7.25 5.1 7.25 L5.15 7.25 Q5.05 7.45 4.9 7.65 L4.9 7.7 4.75 7.8 4.35 8.25 4.05 8.6 3.8 8.85 3.6 9.1 3.55 9.2 3.5 9.15 3.45 9.25 3.55 9.25 3.6 9.3 3.85 9.3 3.45 9.5 Q3.1 9.7 2.75 9.75 L2.65 9.75 1.5 9.7 1.35 9.7 1.35 9.65 1.05 9.65 Q0.9 9.65 0.8 9.6 L0.85 9.7 0.3 9.3 -0.3 8.75 Q-1.05 8.2 -1.6 7.15 L-1.75 6.75 -1.8 6.7 -1.8 6.5 -1.9 6.3 -1.8 6.35 -1.85 6.3 -1.85 6.25 -1.8 6.25 -1.75 6.3 -1.7 6.2 -1.6 6.35 Q-0.2 7.1 1.45 6.9 L2.8 7.0 2.9 7.05 M3.65 7.45 L3.5 7.45 3.65 7.5 3.65 7.45 M3.55 8.4 L3.6 8.3 Q3.75 8.1 3.95 7.9 L3.6 7.85 2.6 7.75 Q1.7 7.75 0.8 7.55 L-0.9 7.25 -1.1 7.2 -1.1 7.25 -1.0 7.35 -0.85 7.5 Q-0.1 8.35 0.9 8.9 1.35 9.15 1.95 9.15 L3.0 9.2 3.2 9.2 3.25 9.15 Q3.3 8.95 3.35 8.75 3.45 8.55 3.55 8.4 M3.25 9.2 L3.25 9.2 M4.9 9.15 L4.9 9.0 4.75 9.25 4.75 9.4 4.85 9.2 4.9 9.15 M1.6 7.25 L1.6 7.25 M0.25 13.05 L-0.05 12.95 Q-0.6 12.7 -1.15 11.55 L-1.3 11.3 -1.5 10.8 -1.8 10.3 Q-2.15 9.65 -2.35 8.95 -2.6 8.05 -2.6 7.1 L-2.65 6.35 -2.65 6.1 -2.75 6.5 -2.85 6.75 Q-2.85 7.6 -2.8 8.4 -2.7 9.2 -2.5 9.9 L-2.25 10.55 Q-2.0 11.3 -1.55 12.0 -0.7 13.25 0.65 14.25 L0.8 14.25 1.05 14.15 1.3 14.15 2.35 14.1 2.8 14.05 3.5 13.85 3.65 13.7 3.75 13.65 3.75 13.6 Q3.75 13.5 3.9 13.35 L4.05 13.15 3.7 13.2 3.3 13.2 Q2.9 13.15 2.85 12.95 2.8 12.65 2.5 12.45 L2.35 12.7 Q2.05 13.15 1.85 13.25 L0.65 13.05 0.4 13.0 Q0.35 13.05 0.25 13.05 M-8.7 -1.95 L-8.75 -2.2 -8.8 -2.15 -8.8 -1.7 Q-8.75 -1.1 -8.5 -0.5 -8.3 0.05 -7.9 0.45 L-7.85 0.5 Q-7.95 0.15 -7.7 -0.1 -7.55 -0.25 -7.35 -0.35 L-7.55 -0.55 Q-7.95 -0.9 -8.3 -1.4 -8.55 -1.7 -8.7 -1.95 M-5.8 6.95 Q-6.1 6.35 -6.3 5.65 L-6.5 3.85 Q-6.6 3.35 -6.6 2.85 L-6.6 2.75 -6.65 2.3 -6.75 2.8 -6.75 2.85 -6.8 3.1 Q-6.9 4.45 -6.7 5.75 L-6.5 6.95 -6.35 7.35 Q-6.0 8.15 -5.4 8.65 L-4.85 9.0 Q-4.5 9.1 -4.2 9.25 L-4.1 9.3 -4.65 8.45 Q-5.35 7.8 -5.8 6.95 M-7.1 3.05 L-7.1 3.05" fill="#1a1a1a" fill-rule="evenodd" stroke="none"/>
    <path d="M-1.1 7.25 L-1.1 7.2 -0.9 7.25 0.8 7.55 Q1.7 7.75 2.6 7.75 L3.6 7.85 3.95 7.9 Q3.75 8.1 3.6 8.3 L3.55 8.4 3.5 8.4 2.4 8.5 2.0 8.45 1.95 8.4 1.8 8.4 1.8 8.45 Q1.8 8.75 2.3 8.85 2.9 8.95 3.35 8.75 3.3 8.95 3.25 9.15 L3.05 9.2 3.05 9.15 3.0 9.2 1.95 9.15 Q1.35 9.15 0.9 8.9 -0.1 8.35 -0.85 7.5 L-1.0 7.35 -1.0 7.3 -1.1 7.25" fill="#ffffff" fill-rule="evenodd" stroke="none"/>
    <path d="M3.35 8.75 Q2.9 8.95 2.3 8.85 1.8 8.75 1.8 8.45 L1.8 8.4 1.95 8.4 2.0 8.45 2.4 8.5 3.5 8.4 3.55 8.4 Q3.45 8.55 3.35 8.75" fill="#cccccc" fill-rule="evenodd" stroke="none"/>
    <path d="M-7.0 0.25 L-6.85 0.9 -7.1 0.95 -7.3 0.95 -7.6 0.75 -7.5 0.6 Q-7.3 0.55 -7.15 0.4 L-7.1 0.4 -7.0 0.25 M-6.15 1.35 L-6.05 1.3 -6.05 1.45 -6.15 1.4 -6.15 1.35 M-6.0 1.55 L-5.9 1.85 -5.9 1.7 -5.85 2.15 -5.95 1.95 -6.05 1.8 -6.05 1.75 -6.15 1.65 -6.1 1.55 -6.0 1.55 M-5.55 3.0 Q-4.95 4.8 -3.95 6.55 -3.65 7.2 -3.25 7.75 -3.2 8.25 -3.1 8.95 L-3.05 9.25 -3.95 8.2 -3.95 8.05 Q-5.05 6.8 -5.6 5.3 -5.75 4.2 -5.55 3.0 M-1.35 10.05 Q-0.35 11.1 0.45 12.4 1.15 12.55 1.95 12.5 1.75 12.8 1.55 12.85 L0.75 12.85 Q0.5 12.8 -0.1 12.25 L-0.15 12.25 Q-0.9 11.25 -1.35 10.05 M3.4 12.4 Q3.7 12.5 3.95 12.6 L3.85 12.7 3.45 12.7 3.4 12.4 M-3.4 9.9 L-3.3 10.2 -3.6 9.75 -3.7 9.55 -3.6 9.6 -3.55 9.75 -3.4 9.9 M1.8 10.95 Q2.0 10.5 2.5 10.3 2.8 10.15 3.15 10.15 3.5 10.6 2.65 10.95 2.2 11.15 1.8 10.95 M-8.8 -1.7 L-8.7 -1.95 Q-8.55 -1.7 -8.3 -1.4 -7.95 -0.9 -7.55 -0.55 -7.8 -0.3 -7.9 0.05 -7.95 0.25 -7.9 0.45 -8.3 0.05 -8.5 -0.5 -8.75 -1.1 -8.8 -1.7 M-5.4 8.65 L-5.6 8.1 Q-5.75 7.5 -5.8 6.95 -5.35 7.8 -4.65 8.45 L-4.1 9.3 -4.2 9.25 Q-4.5 9.1 -4.85 9.0 L-5.4 8.65 M-3.75 9.5 L-3.75 9.45 -3.7 9.55 -3.75 9.5" fill="#a9854f" fill-rule="evenodd" stroke="none"/>
    <path d="M-4.15 -8.8 Q-3.7 -8.95 -1.1 -8.6 L0.05 -8.7 Q2.35 -8.45 2.75 -6.55 3.15 -4.65 3.25 -3.25 3.4 -1.85 3.6 -0.55 3.8 0.7 4.25 1.8 L4.35 2.15 4.85 3.2 5.2 3.8 5.35 3.95 Q6.05 4.5 6.6 4.8 7.2 5.1 7.25 5.05 L7.35 5.2 7.45 5.3 7.4 5.35 7.4 5.45 7.35 5.65 7.35 5.7 7.2 6.15 7.15 6.2 7.15 6.3 6.65 7.3 6.4 7.65 5.8 8.35 5.65 8.5 5.4 8.8 Q5.5 8.4 5.7 7.95 L5.6 7.95 5.75 7.7 5.75 7.6 5.8 7.55 Q6.3 6.85 6.3 6.75 L6.25 6.6 6.25 6.55 Q5.55 6.45 5.1 6.6 4.25 6.4 4.15 6.7 L4.15 6.75 4.55 6.85 4.9 6.95 5.45 7.1 Q5.45 7.2 4.85 8.05 4.3 8.85 4.3 9.1 4.3 9.25 4.35 9.3 L4.45 9.35 4.45 9.45 Q4.4 9.65 4.45 9.9 L4.5 10.95 4.5 11.4 Q4.3 12.1 3.95 12.6 3.7 12.5 3.4 12.4 3.25 11.95 2.8 11.75 L2.4 11.75 Q2.25 11.85 2.25 12.1 2.15 12.2 2.0 12.4 L1.95 12.5 Q1.15 12.55 0.45 12.4 -0.35 11.1 -1.35 10.05 L-1.65 9.2 Q-1.9 8.35 -2.35 5.8 L-1.85 6.1 Q-0.75 6.6 1.05 6.6 L1.15 6.6 1.2 6.65 1.35 6.65 1.55 6.6 Q1.75 6.55 1.8 6.5 L1.95 6.45 2.2 6.35 2.15 6.35 2.25 6.3 2.35 6.3 2.4 6.2 2.3 6.1 1.85 6.15 Q1.55 6.0 0.7 5.85 L-0.85 5.55 Q-1.4 5.4 -2.15 5.15 -2.5 5.05 -2.6 5.2 -3.05 5.4 -3.2 6.1 -3.25 6.4 -3.25 7.4 L-3.25 7.75 Q-3.65 7.2 -3.95 6.55 -4.95 4.8 -5.55 3.0 L-5.5 2.6 Q-5.7 2.35 -5.85 2.15 L-5.9 1.7 -5.9 1.85 -6.0 1.55 -5.85 1.45 -6.05 1.45 -6.05 1.3 -6.15 1.35 -6.3 1.25 -6.55 1.3 -6.6 1.25 -6.95 1.15 -7.0 1.1 -7.3 0.95 -7.1 0.95 -6.85 0.9 -7.0 0.25 -6.95 0.15 -6.55 0.55 -6.55 0.2 Q-6.5 0.25 -6.45 0.3 -6.45 0.0 -6.55 -0.3 L-6.6 -0.55 -6.9 -1.2 -6.95 -1.25 Q-7.45 -2.2 -8.35 -2.75 L-7.85 -2.75 Q-7.6 -2.6 -7.3 -2.5 L-6.8 -1.95 -6.8 -1.75 Q-6.65 -1.35 -6.5 -1.15 -6.3 -0.95 -6.05 -0.9 L-5.9 -1.35 -6.2 -2.35 -6.3 -2.7 -6.4 -2.55 -6.45 -2.6 -6.9 -3.1 -6.9 -3.15 -7.0 -3.3 -6.95 -3.45 -6.9 -3.35 Q-6.8 -3.6 -6.8 -3.9 L-6.8 -4.7 -6.75 -4.95 -6.5 -5.9 -6.6 -5.85 -6.3 -5.95 -6.1 -6.1 Q-5.9 -6.3 -5.6 -6.35 L-5.55 -6.45 -5.5 -6.65 Q-5.0 -7.75 -4.5 -8.25 L-4.25 -8.6 -4.25 -8.7 -4.2 -8.7 -4.15 -8.75 -4.15 -8.8 M-3.7 9.55 L-3.75 9.55 -3.75 9.5 -3.7 9.55 M2.9 7.05 L2.8 7.0 1.45 6.9 Q-0.2 7.1 -1.6 6.35 L-1.7 6.2 -1.75 6.3 -1.8 6.25 -1.85 6.25 -1.85 6.3 -1.8 6.35 -1.9 6.3 -1.8 6.5 -1.8 6.7 -1.75 6.75 -1.6 7.15 Q-1.05 8.2 -0.3 8.75 L0.3 9.3 0.85 9.7 0.8 9.6 Q0.9 9.65 1.05 9.65 L1.35 9.65 1.35 9.7 1.5 9.7 2.65 9.75 2.75 9.75 Q3.1 9.7 3.45 9.5 L3.85 9.3 3.6 9.3 3.55 9.25 3.45 9.25 3.5 9.15 3.55 9.2 3.6 9.1 3.8 8.85 4.05 8.6 4.35 8.25 4.75 7.8 4.9 7.7 4.9 7.65 Q5.05 7.45 5.15 7.25 L5.1 7.25 Q4.95 7.25 4.85 7.3 L4.75 7.3 4.5 7.35 3.95 7.25 2.9 7.05 M3.65 7.45 L3.65 7.5 3.5 7.45 3.65 7.45 M-1.1 7.25 L-1.0 7.3 -1.0 7.35 -1.1 7.25 M3.0 9.2 L3.05 9.15 3.05 9.2 3.25 9.15 3.2 9.2 3.0 9.2 M1.6 7.25 L1.6 7.25 M4.9 9.15 L4.85 9.2 4.75 9.4 4.75 9.25 4.9 9.0 4.9 9.15 M3.25 9.2 L3.25 9.2 M1.8 10.95 Q2.2 11.15 2.65 10.95 3.5 10.6 3.15 10.15 2.8 10.15 2.5 10.3 2.0 10.5 1.8 10.95 M-8.8 -1.7 L-8.8 -2.15 -8.75 -2.2 -8.7 -1.95 -8.8 -1.7 M-5.4 8.65 Q-6.0 8.15 -6.35 7.35 L-6.5 6.95 -6.7 5.75 Q-6.9 4.45 -6.8 3.1 L-6.75 2.85 -6.75 2.8 -6.65 2.3 -6.6 2.75 -6.6 2.85 Q-6.6 3.35 -6.5 3.85 L-6.3 5.65 Q-6.1 6.35 -5.8 6.95 -5.75 7.5 -5.6 8.1 L-5.4 8.65 M-7.1 3.05 L-7.1 3.05" fill="#c7a36d" fill-rule="evenodd" stroke="none"/>
    <path d="M0.25 13.05 Q0.35 13.05 0.4 13.0 L0.65 13.05 1.85 13.25 Q2.05 13.15 2.35 12.7 L2.5 12.45 Q2.8 12.65 2.85 12.95 2.9 13.15 3.3 13.2 L3.7 13.2 4.05 13.15 3.9 13.35 Q3.75 13.5 3.75 13.6 L3.75 13.65 3.65 13.7 3.5 13.85 2.8 14.05 2.35 14.1 1.3 14.15 1.05 14.15 0.8 14.25 0.65 14.25 Q-0.7 13.25 -1.55 12.0 -2.0 11.3 -2.25 10.55 L-2.5 9.9 Q-2.7 9.2 -2.8 8.4 -2.85 7.6 -2.85 6.75 L-2.75 6.5 -2.65 6.1 -2.65 6.35 -2.6 7.1 Q-2.6 8.05 -2.35 8.95 -2.15 9.65 -1.8 10.3 L-1.5 10.8 -1.3 11.3 -1.15 11.55 Q-0.6 12.7 -0.05 12.95 L0.25 13.05" fill="#003366" fill-rule="evenodd" stroke="none"/>
    <path d="M-6.55 0.2 L-6.55 0.55 -6.95 0.15 -6.9 0.0 -6.55 0.2 M-7.55 -0.55 L-7.35 -0.35 Q-7.55 -0.25 -7.7 -0.1 -7.95 0.15 -7.85 0.5 L-7.9 0.45 Q-7.95 0.25 -7.9 0.05 -7.8 -0.3 -7.55 -0.55 M-7.6 0.75 L-7.75 0.6 -7.5 0.6 -7.6 0.75" fill="#111111" fill-rule="evenodd" stroke="none"/>
    <path d="M2.8 7.0 L2.9 7.05 2.8 7.0" fill="#8c7c63" fill-rule="evenodd" stroke="none"/>
  </g>
</svg>
