<?xml version="1.0" encoding="UTF-8" standalone="no"?>
<svg xmlns:ffdec="https://www.free-decompiler.com/flash" xmlns:xlink="http://www.w3.org/1999/xlink" ffdec:objectType="shape" height="22.7px" width="17.95px" xmlns="http://www.w3.org/2000/svg">
  <g transform="matrix(1.0, 0.0, 0.0, 1.0, 10.05, 8.85)">
    <path d="M7.45 5.3 Q7.65 5.2 7.75 5.2 L7.8 5.25 Q8.0 5.4 7.75 6.3 L7.7 6.5 7.65 6.65 7.65 6.7 Q7.4 7.45 7.0 8.1 6.6 8.8 6.65 9.7 6.75 10.6 6.35 11.0 5.95 11.35 5.45 11.65 4.75 12.0 4.0 12.25 L2.3 12.8 Q1.35 13.1 -0.6 12.7 -0.95 12.6 -1.2 12.4 -1.65 12.1 -2.1 11.55 L-3.0 10.4 -3.05 10.35 -3.4 9.9 -3.5 9.85 -3.9 9.9 Q-4.7 10.05 -5.45 9.5 L-5.95 9.15 Q-8.0 7.95 -8.0 4.4 -8.0 3.95 -7.9 3.55 -7.8 2.95 -7.55 2.45 L-7.5 2.1 Q-9.75 1.9 -10.05 -0.95 L-10.05 -1.55 Q-10.1 -3.55 -8.55 -4.5 L-7.8 -4.25 -7.65 -4.15 -7.6 -4.45 -7.55 -4.8 -7.55 -4.95 -7.5 -5.55 -7.5 -5.7 -7.45 -5.8 -7.35 -6.35 -7.0 -6.45 Q-6.55 -6.25 -6.6 -5.85 L-6.5 -5.9 -6.75 -4.95 -6.8 -4.7 -6.8 -3.9 Q-6.8 -3.6 -6.9 -3.35 L-6.95 -3.45 -7.0 -3.3 -6.9 -3.15 -6.9 -3.1 -6.45 -2.6 -6.4 -2.55 -6.3 -2.7 -6.2 -2.35 -5.9 -1.35 -6.05 -0.9 Q-6.3 -0.95 -6.5 -1.15 -6.65 -1.35 -6.8 -1.75 L-6.8 -1.95 -7.3 -2.5 Q-7.6 -2.6 -7.85 -2.75 L-8.35 -2.75 Q-7.45 -2.2 -6.95 -1.25 L-6.9 -1.2 -6.6 -0.55 -6.55 -0.3 Q-6.45 0.0 -6.45 0.3 -6.5 0.25 -6.55 0.2 L-6.9 0.0 -6.95 0.15 -7.0 0.25 -7.1 0.4 -7.15 0.4 Q-7.3 0.55 -7.5 0.6 L-7.75 0.6 -7.6 0.75 -7.3 0.95 -7.0 1.1 -6.95 1.15 -6.6 1.25 -6.55 1.3 -6.5 1.3 Q-6.05 1.5 -6.05 1.55 L-6.1 1.55 -6.15 1.65 -6.05 1.75 Q-6.0 2.2 -5.8 2.95 L-5.65 3.6 -5.65 3.95 -5.55 3.95 -5.6 4.25 -5.6 4.6 Q-5.6 5.25 -5.3 5.95 -5.1 6.5 -4.75 7.05 L-4.25 7.65 -4.05 8.05 -3.95 8.2 -1.1 11.45 -0.65 11.8 Q-0.05 12.25 0.7 12.35 1.5 12.4 4.4 11.4 L4.3 11.4 Q4.95 11.0 5.4 10.75 5.85 10.5 5.75 9.7 5.65 9.25 5.8 8.8 5.85 8.5 6.05 8.15 L6.2 7.85 6.8 6.6 Q7.05 6.0 7.4 5.35 L7.45 5.3 M-4.15 -8.75 L-4.15 -8.8 -4.15 -8.75 M-8.7 -1.95 L-8.75 -2.2 -8.8 -2.15 -8.8 -1.7 Q-8.75 -1.1 -8.5 -0.5 -8.3 0.05 -7.9 0.45 L-7.85 0.5 Q-7.95 0.15 -7.7 -0.1 -7.55 -0.25 -7.35 -0.35 L-7.55 -0.55 Q-7.95 -0.9 -8.3 -1.4 -8.55 -1.7 -8.7 -1.95 M-1.15 6.9 Q-0.55 6.25 0.45 6.0 L0.45 6.1 Q1.05 6.0 2.0 6.1 3.6 6.4 5.15 6.45 L5.7 6.5 Q5.85 6.55 5.85 6.8 L5.8 7.2 Q5.8 7.3 5.35 7.5 L5.15 7.55 5.1 7.55 4.95 7.95 4.7 8.75 4.65 9.0 Q4.65 9.2 4.5 9.4 4.15 10.0 3.0 10.0 0.9 10.0 -0.35 8.7 -0.65 8.4 -0.9 8.05 L-1.15 7.75 -1.15 7.7 -1.3 7.55 -1.35 7.45 -1.35 7.35 -1.35 7.3 -1.45 7.3 -1.45 7.25 -1.4 7.2 -1.45 7.15 -1.4 7.15 -1.15 6.9 M-7.1 3.05 L-7.1 3.05 M-6.5 4.25 L-6.45 4.2 -6.5 3.85 Q-6.6 3.35 -6.6 2.85 L-6.6 2.75 -6.65 2.3 -6.75 2.8 -6.75 2.85 -6.8 3.1 Q-6.9 4.45 -6.7 5.75 L-6.5 6.95 -6.35 7.35 Q-6.0 8.15 -5.4 8.65 L-4.85 9.0 Q-4.5 9.1 -4.2 9.25 L-4.1 9.3 -4.3 8.95 -4.35 8.95 -4.4 8.9 -4.45 8.7 -4.5 8.65 -4.55 8.65 -5.8 6.95 Q-6.2 5.85 -6.4 4.75 L-6.5 4.25 M-6.2 5.9 L-6.3 5.65 -6.35 5.3 -6.2 5.9 M0.3 8.2 Q0.45 7.9 0.55 7.7 L0.35 7.55 Q0.0 7.35 -0.3 7.2 L-0.4 7.15 -0.55 7.3 -0.85 7.45 Q-0.4 7.9 0.05 8.3 L0.15 8.4 0.3 8.2 M1.25 6.3 Q0.75 6.35 0.25 6.5 L0.05 6.55 0.15 6.55 0.65 6.6 0.7 6.6 0.8 6.65 0.95 6.65 2.25 7.05 Q3.35 7.35 4.35 7.35 4.45 7.25 4.55 7.25 L4.75 7.3 5.0 7.15 5.1 7.1 5.15 7.05 5.5 6.85 5.55 6.8 5.1 6.75 4.55 6.8 Q3.25 6.8 2.35 6.6 L1.8 6.4 1.35 6.3 1.25 6.3 M0.35 7.0 Q0.65 7.2 0.8 7.4 L1.1 7.4 Q1.6 7.75 1.7 7.8 2.2 8.1 2.9 8.1 L3.25 8.05 Q3.25 7.6 3.6 7.85 L3.6 7.8 3.75 7.8 3.9 7.85 3.9 8.05 Q4.1 8.3 4.1 8.6 L4.1 9.15 Q4.1 9.05 4.2 9.0 4.15 8.9 4.1 8.8 L4.1 8.5 Q4.1 8.0 4.15 7.8 L4.2 7.7 3.9 7.7 Q2.75 7.7 1.6 7.35 0.6 7.0 0.4 6.95 L0.25 6.95 0.35 7.0 M3.7 9.0 L3.8 8.65 Q3.8 8.55 3.75 8.35 L3.7 8.3 3.1 8.4 Q2.55 8.4 1.7 8.1 L1.15 7.85 1.0 7.8 0.9 7.85 0.85 7.85 Q0.75 7.95 0.6 8.15 L0.4 8.45 0.35 8.55 0.7 8.7 1.35 9.0 1.4 9.0 1.9 9.2 2.4 9.35 2.5 9.4 2.55 9.4 3.2 9.45 3.6 9.4 3.6 9.35 3.7 9.1 3.7 9.0" fill="#1a1a1a" fill-rule="evenodd" stroke="none"/>
    <path d="M-3.4 9.9 L-3.5 9.85 -3.4 9.9 M-7.0 0.25 L-6.9 0.6 Q-6.6 0.6 -6.15 0.8 -5.55 1.0 -4.8 1.5 -4.0 2.15 -3.7 2.4 -3.25 2.85 -3.25 3.35 -3.25 3.5 -3.5 5.3 L-3.5 5.35 Q-3.5 6.15 -3.55 6.55 -3.65 7.1 -3.2 7.7 -2.7 8.35 -2.2 8.95 L-1.75 9.55 -1.2 10.15 Q-0.75 10.75 -0.2 11.3 L0.0 11.45 Q1.8 12.0 4.4 11.4 1.5 12.4 0.7 12.35 -0.05 12.25 -0.65 11.8 L-1.1 11.45 -3.95 8.2 -4.05 8.05 -4.25 7.65 -4.75 7.05 Q-5.1 6.5 -5.3 5.95 -5.6 5.25 -5.6 4.6 L-5.6 4.25 -5.55 3.95 -5.65 3.95 -5.65 3.6 -5.8 2.95 Q-6.0 2.2 -6.05 1.75 L-6.15 1.65 -6.1 1.55 -6.05 1.55 Q-6.05 1.5 -6.5 1.3 L-6.7 1.2 -7.05 1.1 -7.05 0.95 -7.3 0.95 -7.6 0.75 -7.5 0.6 Q-7.3 0.55 -7.15 0.4 L-7.1 0.4 -7.0 0.25 M-8.8 -1.7 L-8.7 -1.95 Q-8.55 -1.7 -8.3 -1.4 -7.95 -0.9 -7.55 -0.55 -7.8 -0.3 -7.9 0.05 -7.95 0.25 -7.9 0.45 -8.3 0.05 -8.5 -0.5 -8.75 -1.1 -8.8 -1.7 M-2.85 5.85 Q-2.85 5.7 -2.6 5.5 -2.35 5.25 -2.05 5.3 L-2.05 5.35 -2.0 5.45 Q-2.0 5.55 -2.3 5.75 L-2.6 6.05 Q-2.85 5.9 -2.85 5.85 M-1.35 7.35 Q-1.45 7.65 -1.45 7.95 -1.45 8.3 -1.6 8.45 -1.7 8.4 -1.85 8.05 L-2.0 7.55 Q-2.0 7.0 -1.6 6.4 -1.1 5.65 -0.4 5.55 L-0.4 5.6 -0.35 5.75 Q-0.35 5.8 -0.9 6.45 L-1.15 6.9 -1.4 7.15 -1.45 7.15 -1.4 7.2 -1.45 7.25 -1.45 7.3 -1.35 7.3 -1.35 7.35 M-5.4 8.65 L-5.6 8.1 Q-5.75 7.6 -5.75 7.2 -5.85 7.0 -6.0 6.9 L-6.2 5.9 -6.35 5.3 -6.5 4.65 Q-6.55 4.4 -6.6 4.25 L-6.7 4.3 -6.7 4.15 -6.6 4.25 -6.5 4.25 -6.4 4.75 Q-6.2 5.85 -5.8 6.95 L-4.55 8.65 -4.5 8.65 -4.45 8.7 -4.4 8.9 -4.35 8.95 -4.3 8.95 -4.1 9.3 -4.2 9.25 Q-4.5 9.1 -4.85 9.0 L-5.4 8.65 M1.8 6.4 L2.35 6.6 Q3.25 6.8 4.55 6.8 L5.1 6.75 5.55 6.8 5.5 6.85 5.15 7.05 5.1 7.1 5.0 7.15 4.75 7.3 4.55 7.25 Q4.45 7.25 4.35 7.35 3.35 7.35 2.25 7.05 L0.95 6.65 0.8 6.65 0.7 6.6 0.65 6.6 0.15 6.55 0.05 6.55 0.25 6.5 Q0.75 6.35 1.25 6.3 L1.3 6.3 1.8 6.4 M3.4 10.45 L3.45 10.6 Q3.4 10.75 3.0 11.05 2.65 11.3 2.4 11.3 1.9 11.3 1.75 11.0 L1.65 10.65 Q1.9 10.55 2.45 10.45 L3.05 10.4 3.4 10.45" fill="#a9854f" fill-rule="evenodd" stroke="none"/>
    <path d="M0.35 7.0 L0.25 6.95 0.4 6.95 Q0.6 7.0 1.6 7.35 2.75 7.7 3.9 7.7 L4.2 7.7 4.15 7.8 Q4.1 8.0 4.1 8.5 L4.1 8.8 Q4.15 8.9 4.2 9.0 4.1 9.05 4.1 9.15 L4.1 8.6 Q4.1 8.3 3.9 8.05 L3.9 7.85 3.75 7.8 3.6 7.8 3.6 7.85 Q3.25 7.6 3.25 8.05 L2.9 8.1 Q2.2 8.1 1.7 7.8 1.6 7.75 1.1 7.4 L0.8 7.4 Q0.65 7.2 0.35 7.0" fill="#69221e" fill-rule="evenodd" stroke="none"/>
    <path d="M0.3 8.2 L0.05 7.9 Q-0.35 7.5 -0.35 7.35 L-0.3 7.2 Q0.0 7.35 0.35 7.55 L0.55 7.7 Q0.45 7.9 0.3 8.2 M1.15 7.85 L1.7 8.1 Q2.55 8.4 3.1 8.4 L3.7 8.3 3.75 8.35 Q3.8 8.55 3.8 8.65 L3.7 9.0 Q1.8 8.85 1.4 8.65 1.2 8.45 0.9 8.35 L1.15 7.85 M3.6 9.35 L3.6 9.4 3.2 9.45 2.55 9.4 2.6 9.4 3.6 9.35 M0.7 8.7 L0.35 8.55 0.4 8.45 0.7 8.7" fill="#ffffff" fill-rule="evenodd" stroke="none"/>
    <path d="M-0.3 7.2 L-0.35 7.35 Q-0.35 7.5 0.05 7.9 L0.3 8.2 0.15 8.4 0.05 8.3 Q-0.4 7.9 -0.85 7.45 L-0.55 7.3 -0.4 7.15 -0.3 7.2 M1.15 7.85 L0.9 8.35 Q1.2 8.45 1.4 8.65 1.8 8.85 3.7 9.0 L3.7 9.1 3.6 9.35 2.6 9.4 2.55 9.4 2.5 9.4 2.4 9.35 1.9 9.2 1.4 9.0 1.35 9.0 0.7 8.7 0.4 8.45 0.6 8.15 Q0.75 7.95 0.85 7.85 L0.9 7.85 1.0 7.8 1.15 7.85" fill="#cccccc" fill-rule="evenodd" stroke="none"/>
    <path d="M-4.15 -8.8 Q-3.7 -8.95 -1.1 -8.6 L0.05 -8.7 Q2.35 -8.45 2.75 -6.55 3.15 -4.65 3.25 -3.25 3.4 -1.85 3.6 -0.55 3.8 0.7 4.25 1.8 L4.35 2.15 4.85 3.2 5.2 3.8 5.5 4.1 5.75 4.1 5.95 4.35 6.15 4.45 6.55 4.75 6.6 4.8 Q7.2 5.1 7.25 5.05 L7.35 5.2 7.45 5.3 7.4 5.35 Q7.05 6.0 6.8 6.6 L6.2 7.85 6.05 8.15 Q5.85 8.5 5.8 8.8 5.65 9.25 5.75 9.7 5.85 10.5 5.4 10.75 4.95 11.0 4.3 11.4 L4.4 11.4 Q1.8 12.0 0.0 11.45 L-0.2 11.3 Q-0.75 10.75 -1.2 10.15 L-1.75 9.55 -2.2 8.95 Q-2.7 8.35 -3.2 7.7 -3.65 7.1 -3.55 6.55 -3.5 6.15 -3.5 5.35 L-3.5 5.3 Q-3.25 3.5 -3.25 3.35 -3.25 2.85 -3.7 2.4 -4.0 2.15 -4.8 1.5 -5.55 1.0 -6.15 0.8 -6.6 0.6 -6.9 0.6 L-7.0 0.25 -6.95 0.15 -6.55 0.55 -6.55 0.2 Q-6.5 0.25 -6.45 0.3 -6.45 0.0 -6.55 -0.3 L-6.6 -0.55 -6.9 -1.2 -6.95 -1.25 Q-7.45 -2.2 -8.35 -2.75 L-7.85 -2.75 Q-7.6 -2.6 -7.3 -2.5 L-6.8 -1.95 -6.8 -1.75 Q-6.65 -1.35 -6.5 -1.15 -6.3 -0.95 -6.05 -0.9 L-5.9 -1.35 -6.2 -2.35 -6.3 -2.7 -6.4 -2.55 -6.45 -2.6 -6.9 -3.1 -6.9 -3.15 -7.0 -3.3 -6.95 -3.45 -6.9 -3.35 Q-6.8 -3.6 -6.8 -3.9 L-6.8 -4.7 -6.75 -4.95 -6.5 -5.9 -6.6 -5.85 -6.3 -5.95 -6.1 -6.1 Q-5.9 -6.3 -5.6 -6.35 L-5.55 -6.45 -5.5 -6.65 Q-5.0 -7.75 -4.5 -8.25 L-4.25 -8.6 -4.25 -8.7 -4.2 -8.7 -4.15 -8.75 -4.15 -8.8 M-8.7 -1.95 L-8.8 -1.7 -8.8 -2.15 -8.75 -2.2 -8.7 -1.95 M-6.5 1.3 L-6.55 1.3 -6.6 1.25 -6.95 1.15 -7.0 1.1 -7.3 0.95 -7.05 0.95 -7.05 1.1 -6.7 1.2 -6.5 1.3 M-1.15 6.9 L-0.9 6.45 Q-0.35 5.8 -0.35 5.75 L-0.4 5.6 -0.4 5.55 Q-1.1 5.65 -1.6 6.4 -2.0 7.0 -2.0 7.55 L-1.85 8.05 Q-1.7 8.4 -1.6 8.45 -1.45 8.3 -1.45 7.95 -1.45 7.65 -1.35 7.35 L-1.35 7.45 -1.3 7.55 -1.15 7.7 -1.15 7.75 -0.9 8.05 Q-0.65 8.4 -0.35 8.7 0.9 10.0 3.0 10.0 4.15 10.0 4.5 9.4 4.65 9.2 4.65 9.0 L4.7 8.75 4.95 7.95 5.1 7.55 5.15 7.55 5.35 7.5 Q5.8 7.3 5.8 7.2 L5.85 6.8 Q5.85 6.55 5.7 6.5 L5.15 6.45 Q3.6 6.4 2.0 6.1 1.05 6.0 0.45 6.1 L0.45 6.0 Q-0.55 6.25 -1.15 6.9 M-2.85 5.85 Q-2.85 5.9 -2.6 6.05 L-2.3 5.75 Q-2.0 5.55 -2.0 5.45 L-2.05 5.35 -2.05 5.3 Q-2.35 5.25 -2.6 5.5 -2.85 5.7 -2.85 5.85 M-5.4 8.65 Q-6.0 8.15 -6.35 7.35 L-6.5 6.95 -6.7 5.75 Q-6.9 4.45 -6.8 3.1 L-6.75 2.85 -6.75 2.8 -6.65 2.3 -6.6 2.75 -6.6 2.85 Q-6.6 3.35 -6.5 3.85 L-6.45 4.2 -6.5 4.25 -6.6 4.25 -6.7 4.15 -6.7 4.3 -6.6 4.25 Q-6.55 4.4 -6.5 4.65 L-6.35 5.3 -6.3 5.65 -6.2 5.9 -6.0 6.9 Q-5.85 7.0 -5.75 7.2 -5.75 7.6 -5.6 8.1 L-5.4 8.65 M-7.1 3.05 L-7.1 3.05 M1.8 6.4 L1.3 6.3 1.25 6.3 1.35 6.3 1.8 6.4 M3.4 10.45 L3.05 10.4 2.45 10.45 Q1.9 10.55 1.65 10.65 L1.75 11.0 Q1.9 11.3 2.4 11.3 2.65 11.3 3.0 11.05 3.4 10.75 3.45 10.6 L3.4 10.45" fill="#c7a36d" fill-rule="evenodd" stroke="none"/>
    <path d="M-6.55 0.2 L-6.55 0.55 -6.95 0.15 -6.9 0.0 -6.55 0.2 M-7.9 0.45 Q-7.95 0.25 -7.9 0.05 -7.8 -0.3 -7.55 -0.55 L-7.35 -0.35 Q-7.55 -0.25 -7.7 -0.1 -7.95 0.15 -7.85 0.5 L-7.9 0.45 M-7.6 0.75 L-7.75 0.6 -7.5 0.6 -7.6 0.75" fill="#111111" fill-rule="evenodd" stroke="none"/>
    <path d="M5.95 6.65 Q6.0 6.55 6.1 6.55 6.35 6.55 6.75 7.1 7.1 7.65 7.35 8.45 7.65 9.3 7.65 10.0 7.65 10.35 7.4 11.65 L7.1 13.15 7.0 13.15 7.0 13.2 6.9 13.2 6.9 13.15 7.05 12.45 7.15 11.9 Q7.15 11.3 7.05 10.7 L7.0 10.55 6.65 9.35 Q6.5 8.85 6.0 8.2 5.6 7.65 5.6 7.15 5.6 6.5 5.9 6.6 L5.95 6.65 M-2.0 6.5 Q-1.8 6.4 -1.75 6.7 -1.5 6.95 -1.5 7.35 -1.5 7.55 -2.7 9.6 -3.3 10.8 -3.6 11.85 -3.85 13.05 -3.95 13.75 L-4.05 13.85 -4.15 12.9 -4.2 12.2 Q-4.2 11.8 -4.1 11.4 L-4.15 10.85 Q-4.15 9.5 -2.95 7.85 L-2.95 7.8 Q-2.55 6.95 -2.2 6.7 -2.15 6.5 -2.0 6.5" fill="#1a1a1a" fill-rule="evenodd" stroke="none"/>
  </g>
</svg>
