<?xml version="1.0" encoding="UTF-8" standalone="no"?>
<svg xmlns:ffdec="https://www.free-decompiler.com/flash" xmlns:xlink="http://www.w3.org/1999/xlink" ffdec:objectType="shape" height="22.55px" width="17.95px" xmlns="http://www.w3.org/2000/svg">
  <g transform="matrix(1.0, 0.0, 0.0, 1.0, 10.05, 8.75)">
    <path d="M-6.55 -5.85 L-6.3 -5.95 -6.25 -5.95 -6.1 -6.1 Q-5.9 -6.3 -5.6 -6.35 L-5.55 -6.45 -5.5 -6.65 Q-5.0 -7.75 -4.5 -8.25 L-4.25 -8.6 Q-4.25 -8.7 -4.15 -8.75 L-3.15 -6.8 -1.95 -6.95 Q1.5 -7.05 2.2 -5.7 2.95 -4.35 3.15 -3.1 L3.6 -0.55 Q3.8 0.7 4.25 1.8 L4.35 2.15 4.85 3.2 5.2 3.8 5.35 3.95 Q6.05 4.5 6.6 4.8 7.2 5.1 7.25 5.05 L7.35 5.2 7.45 5.3 7.4 5.35 7.4 5.45 7.35 5.65 7.35 5.7 7.2 6.15 7.2 6.2 Q7.2 6.4 7.1 6.5 L7.15 6.45 Q6.8 7.05 6.4 7.65 L5.8 8.35 5.65 8.5 5.3 8.95 Q5.15 8.8 4.95 8.65 4.6 8.6 4.3 8.45 3.95 8.25 2.45 8.15 L1.6 8.1 0.95 8.1 0.55 8.15 Q-0.7 8.1 -1.75 8.7 L-2.0 8.8 -2.1 8.9 Q-2.2 9.0 -2.15 9.15 -3.2 7.95 -3.95 6.55 -4.95 4.8 -5.55 3.0 L-5.5 2.6 Q-5.7 2.35 -5.85 2.15 L-5.9 1.7 -5.9 1.85 -6.0 1.55 -5.85 1.45 -6.05 1.45 -6.05 1.3 -6.15 1.35 -6.3 1.25 -6.55 1.3 -6.6 1.25 -6.95 1.15 -7.0 1.1 -7.3 0.95 -7.1 0.95 -6.85 0.9 -7.0 0.25 -6.95 0.15 -6.55 0.55 -6.55 0.2 Q-6.5 0.25 -6.45 0.3 -6.45 0.0 -6.55 -0.3 L-6.6 -0.55 -6.9 -1.2 -6.95 -1.25 Q-7.45 -2.2 -8.35 -2.75 L-7.85 -2.75 Q-7.6 -2.6 -7.3 -2.5 L-6.8 -1.95 -6.8 -1.75 Q-6.65 -1.35 -6.5 -1.15 -6.3 -0.95 -6.05 -0.9 L-5.9 -1.35 -6.2 -2.35 -6.3 -2.7 -6.4 -2.55 -6.45 -2.6 -6.9 -3.1 -6.9 -3.15 -7.0 -3.3 -6.95 -3.45 -6.9 -3.35 Q-6.8 -3.6 -6.8 -3.9 L-6.8 -4.7 -6.75 -4.95 -6.5 -5.9 -6.6 -5.85 -6.55 -5.85 M-8.8 -1.7 L-8.8 -2.15 -8.75 -2.2 -8.7 -1.95 -8.8 -1.7 M0.2 12.85 L0.2 12.75 0.4 12.95 0.2 12.85 M0.6 13.0 Q0.5 12.65 0.35 12.35 L0.4 12.3 0.2 11.95 0.2 11.85 0.35 11.9 Q1.45 11.95 2.4 11.75 2.85 11.65 3.25 11.5 L3.05 11.45 Q3.65 11.2 3.85 10.8 4.55 10.1 4.55 9.0 L5.0 9.0 Q4.9 9.1 4.85 9.2 4.75 9.35 4.75 9.6 L4.75 9.65 4.7 9.75 4.45 10.1 Q4.15 10.6 3.95 11.05 3.65 11.65 3.6 12.2 3.25 12.6 2.85 12.95 L2.1 12.9 0.65 12.9 0.6 13.0 M-0.15 11.35 L-0.2 11.3 -0.15 11.35 M-2.45 6.9 L-2.45 6.85 -2.5 6.9 -2.45 6.9 M-5.4 8.65 Q-6.0 8.15 -6.35 7.35 L-6.5 6.95 -6.7 5.75 Q-6.9 4.45 -6.8 3.1 L-6.75 2.85 -6.75 2.8 -6.65 2.3 -6.6 2.75 -6.6 2.85 Q-6.6 3.35 -6.5 3.85 L-6.3 5.65 Q-6.1 6.35 -5.8 6.95 -5.75 7.5 -5.6 8.1 L-5.4 8.65 M-7.1 3.05 L-7.1 3.05 M0.25 10.85 L0.35 10.9 0.3 10.9 0.25 10.85 M1.75 10.95 Q2.4 10.85 3.0 10.4 L3.0 10.5 Q2.5 10.85 1.9 11.05 L1.7 11.0 1.75 11.0 1.75 10.95 M0.3 9.25 L-0.05 9.1 -0.1 9.05 -0.05 9.05 -0.1 8.95 Q0.1 9.15 0.35 9.25 L0.3 9.25 M4.0 9.3 L4.05 9.3 4.0 9.35 4.0 9.3 M3.4 10.05 L3.65 9.8 3.7 9.85 3.4 10.2 3.4 10.05 M5.25 9.05 L5.1 9.25 5.1 9.0 5.25 9.05" fill="#c7a36d" fill-rule="evenodd" stroke="none"/>
    <path d="M7.45 5.3 Q7.7 5.15 7.8 5.25 7.95 5.35 7.85 5.95 7.85 6.2 7.75 6.4 L7.8 6.35 Q7.3 7.8 6.1 9.35 5.8 9.75 5.55 10.2 5.35 10.35 5.25 10.6 L5.15 10.75 4.7 11.6 3.7 13.4 3.65 13.25 3.3 13.5 3.15 13.6 Q3.0 13.75 2.75 13.8 L1.0 13.7 0.9 13.7 0.45 13.6 Q0.05 13.6 -0.4 13.3 L-0.55 13.2 -0.6 13.15 -0.8 13.0 -0.9 12.9 Q-1.25 12.65 -1.55 12.2 -2.1 11.65 -2.6 11.0 L-2.6 10.95 Q-3.1 10.55 -3.5 10.0 L-3.7 9.75 -3.65 9.9 -3.7 9.85 -3.9 9.85 -3.9 9.9 Q-4.7 10.05 -5.45 9.5 L-5.95 9.15 Q-8.0 7.95 -8.0 4.4 -8.0 3.95 -7.9 3.55 -7.8 2.95 -7.55 2.45 L-7.5 2.1 Q-9.75 1.9 -10.05 -0.95 L-10.05 -1.55 Q-10.1 -3.55 -8.55 -4.5 L-7.8 -4.25 -7.65 -4.15 -7.6 -4.45 -7.55 -4.8 -7.55 -4.95 -7.5 -5.5 -7.5 -5.55 Q-7.6 -5.6 -7.55 -5.85 -7.5 -6.1 -7.4 -6.25 L-7.35 -6.35 Q-7.2 -6.45 -7.05 -6.45 L-7.0 -6.45 Q-6.75 -6.4 -6.6 -6.15 -6.55 -6.0 -6.55 -5.85 L-6.6 -5.85 -6.5 -5.9 -6.75 -4.95 -6.8 -4.7 -6.8 -3.9 Q-6.8 -3.6 -6.9 -3.35 L-6.95 -3.45 -7.0 -3.3 -6.9 -3.15 -6.9 -3.1 -6.45 -2.6 -6.4 -2.55 -6.3 -2.7 -6.2 -2.35 -5.9 -1.35 -6.05 -0.9 Q-6.3 -0.95 -6.5 -1.15 -6.65 -1.35 -6.8 -1.75 L-6.8 -1.95 -7.3 -2.5 Q-7.6 -2.6 -7.85 -2.75 L-8.35 -2.75 Q-7.45 -2.2 -6.95 -1.25 L-6.9 -1.2 -6.6 -0.55 -6.55 -0.3 Q-6.45 0.0 -6.45 0.3 -6.5 0.25 -6.55 0.2 L-6.9 0.0 -6.95 0.15 -7.0 0.25 -7.1 0.4 -7.15 0.4 Q-7.3 0.55 -7.5 0.6 L-7.75 0.6 -7.6 0.75 -7.3 0.95 -7.0 1.1 -6.95 1.15 -6.6 1.25 -6.55 1.3 -6.3 1.25 -6.15 1.35 -6.15 1.4 -6.05 1.45 -5.85 1.45 -6.0 1.55 -6.1 1.55 -6.15 1.65 -6.05 1.75 -6.05 1.8 -5.95 1.95 -5.85 2.15 Q-5.7 2.35 -5.5 2.6 L-5.55 3.0 Q-5.75 4.2 -5.6 5.3 -5.05 6.8 -3.95 8.05 L-3.95 8.2 -2.8 9.5 -2.8 9.55 -2.35 10.1 -1.45 11.15 Q-1.15 11.5 -0.95 11.9 L-0.6 12.25 0.15 12.9 0.2 12.85 0.4 12.95 0.6 13.0 0.65 12.9 2.1 12.9 2.85 12.95 Q3.25 12.6 3.6 12.2 3.65 11.65 3.95 11.05 4.15 10.6 4.45 10.1 L4.7 9.75 4.75 9.65 4.75 9.6 Q4.75 9.35 4.85 9.2 4.9 9.1 5.0 9.0 L4.55 9.0 Q4.55 10.1 3.85 10.8 3.65 11.2 3.05 11.45 L3.0 11.5 Q2.65 11.6 2.3 11.6 L1.2 11.65 1.05 11.6 Q0.45 11.65 -0.15 11.35 L-0.2 11.3 -0.25 11.3 Q-0.95 11.05 -1.55 10.35 -1.85 10.1 -1.95 9.8 L-2.0 9.8 -2.05 9.7 -2.1 9.65 -2.1 9.55 -2.15 9.35 -2.15 9.15 Q-2.2 9.0 -2.1 8.9 L-2.0 8.8 -1.75 8.7 Q-0.7 8.1 0.55 8.15 L0.95 8.1 1.6 8.1 2.45 8.15 Q3.95 8.25 4.3 8.45 4.6 8.6 4.95 8.65 5.15 8.8 5.3 8.95 L5.65 8.5 5.8 8.35 6.4 7.65 Q6.8 7.05 7.15 6.45 L7.25 6.2 7.2 6.2 7.2 6.15 7.35 5.7 7.35 5.65 7.4 5.45 7.4 5.35 7.45 5.3 M-8.7 -1.95 L-8.75 -2.2 -8.8 -2.15 -8.8 -1.7 Q-8.75 -1.1 -8.5 -0.5 -8.3 0.05 -7.9 0.45 L-7.85 0.5 Q-7.95 0.15 -7.7 -0.1 -7.55 -0.25 -7.35 -0.35 L-7.55 -0.55 Q-7.95 -0.9 -8.3 -1.4 -8.55 -1.7 -8.7 -1.95 M-2.45 6.9 L-2.5 6.9 -2.45 6.85 -2.45 6.9 M-5.8 6.95 Q-6.1 6.35 -6.3 5.65 L-6.5 3.85 Q-6.6 3.35 -6.6 2.85 L-6.6 2.75 -6.65 2.3 -6.75 2.8 -6.75 2.85 -6.8 3.1 Q-6.9 4.45 -6.7 5.75 L-6.5 6.95 -6.35 7.35 Q-6.0 8.15 -5.4 8.65 L-4.85 9.0 Q-4.5 9.1 -4.2 9.25 L-4.1 9.3 -4.65 8.45 Q-5.35 7.8 -5.8 6.95 M-7.1 3.05 L-7.1 3.05 M-0.75 10.1 L-0.25 10.5 0.1 10.75 0.2 10.8 0.25 10.85 0.3 10.9 0.35 10.9 0.4 10.85 1.05 10.95 1.4 10.95 1.55 11.0 1.7 11.0 1.9 11.05 Q2.5 10.85 3.0 10.5 L3.25 10.3 3.4 10.2 3.7 9.85 4.0 9.35 4.05 9.3 4.15 9.05 4.15 8.95 2.75 8.9 2.4 8.85 1.55 8.8 0.95 8.8 -0.2 8.9 -1.1 9.05 Q-1.35 9.15 -1.55 9.35 L-0.75 10.1 M5.25 9.05 L5.1 9.0 5.1 9.25 5.25 9.05 M0.95 11.15 L0.85 11.2 0.9 11.2 0.95 11.15" fill="#1a1a1a" fill-rule="evenodd" stroke="none"/>
    <path d="M-0.75 10.1 Q-0.8 9.85 -0.7 9.6 L-0.55 9.3 -0.5 9.3 -0.15 9.35 0.0 9.35 Q0.35 9.25 -0.05 9.2 -0.05 9.15 -0.05 9.1 L0.3 9.25 1.2 9.6 1.6 9.7 Q2.05 9.75 2.45 9.6 L2.45 9.7 2.7 9.7 2.85 9.65 3.0 10.1 3.0 10.4 Q2.4 10.85 1.75 10.95 L1.85 10.8 1.85 10.65 1.8 10.6 1.65 10.5 1.5 10.55 1.4 10.65 Q1.4 10.75 1.4 10.9 L1.4 10.95 1.05 10.95 0.4 10.85 0.35 10.9 0.25 10.85 0.2 10.8 Q0.2 10.6 0.15 10.4 0.05 10.0 -0.05 9.7 -0.4 9.9 -0.3 10.3 L-0.25 10.5 -0.75 10.1 M3.4 10.05 L3.4 10.0 Q3.45 9.7 3.3 9.45 L3.4 9.4 3.65 9.4 3.65 9.5 3.6 9.65 Q3.6 9.75 3.65 9.8 L3.4 10.05" fill="#ffffff" fill-rule="evenodd" stroke="none"/>
    <path d="M-7.0 0.25 L-6.85 0.9 -7.1 0.95 -7.3 0.95 -7.6 0.75 -7.5 0.6 Q-7.3 0.55 -7.15 0.4 L-7.1 0.4 -7.0 0.25 M-6.15 1.35 L-6.05 1.3 -6.05 1.45 -6.15 1.4 -6.15 1.35 M-6.0 1.55 L-5.9 1.85 -5.9 1.7 -5.85 2.15 -5.95 1.95 -6.05 1.8 -6.05 1.75 -6.15 1.65 -6.1 1.55 -6.0 1.55 M-5.55 3.0 Q-4.95 4.8 -3.95 6.55 -3.2 7.95 -2.15 9.15 L-2.15 9.35 -2.1 9.55 -2.1 9.65 -2.05 9.7 -2.0 9.8 -1.95 9.8 Q-1.85 10.1 -1.55 10.35 -0.95 11.05 -0.25 11.3 L-0.2 11.3 -0.15 11.35 Q0.45 11.65 1.05 11.6 L1.2 11.65 2.3 11.6 Q2.65 11.6 3.0 11.5 L3.05 11.45 3.25 11.5 Q2.85 11.65 2.4 11.75 1.45 11.95 0.35 11.9 L0.2 11.85 0.2 11.95 0.4 12.3 0.35 12.35 Q0.5 12.65 0.6 13.0 L0.4 12.95 0.2 12.75 0.2 12.85 0.15 12.9 -0.6 12.25 -0.95 11.9 Q-1.15 11.5 -1.45 11.15 L-2.35 10.1 -2.8 9.55 -2.8 9.5 -3.95 8.2 -3.95 8.05 Q-5.05 6.8 -5.6 5.3 -5.75 4.2 -5.55 3.0 M-8.8 -1.7 L-8.7 -1.95 Q-8.55 -1.7 -8.3 -1.4 -7.95 -0.9 -7.55 -0.55 -7.8 -0.3 -7.9 0.05 -7.95 0.25 -7.9 0.45 -8.3 0.05 -8.5 -0.5 -8.75 -1.1 -8.8 -1.7 M-5.4 8.65 L-5.6 8.1 Q-5.75 7.5 -5.8 6.95 -5.35 7.8 -4.65 8.45 L-4.1 9.3 -4.2 9.25 Q-4.5 9.1 -4.85 9.0 L-5.4 8.65 M0.95 11.15 L0.9 11.2 0.85 11.2 0.95 11.15" fill="#a9854f" fill-rule="evenodd" stroke="none"/>
    <path d="M-0.05 9.1 Q-0.05 9.15 -0.05 9.2 0.35 9.25 0.0 9.35 L-0.15 9.35 -0.5 9.3 -0.55 9.3 -0.7 9.6 Q-0.8 9.85 -0.75 10.1 L-1.55 9.35 Q-1.35 9.15 -1.1 9.05 L-0.2 8.9 -0.1 8.95 -0.05 9.05 -0.1 9.05 -0.05 9.1 M-0.25 10.5 L-0.3 10.3 Q-0.4 9.9 -0.05 9.7 0.05 10.0 0.15 10.4 0.2 10.6 0.2 10.8 L0.1 10.75 -0.25 10.5 M1.4 10.95 L1.4 10.9 Q1.4 10.75 1.4 10.65 L1.5 10.55 1.65 10.5 1.8 10.6 1.85 10.65 1.85 10.8 1.75 10.95 1.75 11.0 1.7 11.0 1.55 11.0 1.4 10.95 M3.0 10.4 L3.0 10.1 2.85 9.65 2.7 9.7 2.45 9.7 2.45 9.6 Q2.5 9.45 2.65 9.3 2.7 9.3 2.8 9.25 L2.95 9.2 3.1 9.1 Q3.15 9.05 3.2 9.05 L3.35 9.0 3.7 9.05 Q3.8 9.05 3.95 9.15 L4.0 9.3 4.0 9.35 3.7 9.85 3.65 9.8 Q3.6 9.75 3.6 9.65 L3.65 9.5 3.65 9.4 3.4 9.4 3.3 9.45 Q3.45 9.7 3.4 10.0 L3.4 10.05 3.4 10.2 3.25 10.3 3.0 10.5 3.0 10.4" fill="#cccccc" fill-rule="evenodd" stroke="none"/>
    <path d="M2.45 9.6 Q2.05 9.75 1.6 9.7 L1.2 9.6 0.3 9.25 0.35 9.25 Q0.1 9.15 -0.1 8.95 L-0.2 8.9 0.95 8.8 1.55 8.8 2.4 8.85 2.75 8.9 4.15 8.95 4.15 9.05 4.05 9.3 4.0 9.3 3.95 9.15 Q3.8 9.05 3.7 9.05 L3.35 9.0 3.2 9.05 Q3.15 9.05 3.1 9.1 L2.95 9.2 2.8 9.25 Q2.7 9.3 2.65 9.3 2.5 9.45 2.45 9.6" fill="#8c0000" fill-rule="evenodd" stroke="none"/>
    <path d="M-6.55 0.2 L-6.55 0.55 -6.95 0.15 -6.9 0.0 -6.55 0.2 M-7.55 -0.55 L-7.35 -0.35 Q-7.55 -0.25 -7.7 -0.1 -7.95 0.15 -7.85 0.5 L-7.9 0.45 Q-7.95 0.25 -7.9 0.05 -7.8 -0.3 -7.55 -0.55 M-7.5 0.6 L-7.6 0.75 -7.75 0.6 -7.5 0.6" fill="#111111" fill-rule="evenodd" stroke="none"/>
    <path d="M-6.15 -0.15 Q-5.95 0.0 -5.9 0.15 L-6.1 0.3 Q-6.35 0.1 -6.35 0.05 -6.35 -0.1 -6.25 -0.1 L-6.15 -0.15 M-6.0 -1.05 L-5.7 -1.0 -5.7 -0.95 -5.85 -0.85 Q-6.0 -0.9 -6.0 -1.05 M-5.4 -1.5 L-5.2 -1.4 -5.15 -1.3 Q-5.2 -1.15 -5.35 -1.1 L-5.5 -1.2 Q-5.55 -1.3 -5.55 -1.35 L-5.4 -1.5 M-5.15 -0.55 L-5.05 -0.6 -4.85 -0.55 -4.8 -0.45 -4.9 -0.35 -5.05 -0.3 -5.2 -0.4 -5.15 -0.55 M-4.4 -0.15 L-4.35 -0.1 -4.35 0.05 -4.5 0.1 -4.65 0.0 -4.5 -0.1 -4.4 -0.15 M-4.25 1.2 L-4.3 1.2 -4.4 1.3 -4.6 1.2 Q-4.6 1.3 -4.6 1.15 -4.6 1.0 -4.5 1.0 L-4.3 1.0 -4.25 1.05 -4.25 1.2 M-5.35 0.3 L-5.5 0.35 -5.75 0.35 -5.8 0.2 Q-5.8 0.05 -5.65 0.0 L-5.4 0.0 -5.35 0.05 -5.35 0.3 M-5.25 1.3 Q-5.35 1.3 -5.45 1.35 L-5.55 1.3 -5.6 1.1 -5.6 1.0 -5.4 1.0 Q-5.3 1.05 -5.2 1.1 L-5.25 1.3 M-5.6 1.5 L-5.45 1.5 Q-5.4 1.55 -5.4 1.65 L-5.4 1.8 -5.5 1.85 Q-5.55 1.9 -5.6 1.9 L-5.75 1.85 Q-5.8 1.8 -5.8 1.7 -5.8 1.55 -5.75 1.55 L-5.6 1.5 M-4.7 1.6 L-4.6 1.75 Q-4.8 2.0 -4.95 2.0 L-5.0 1.9 Q-5.05 1.85 -5.05 1.75 -5.05 1.6 -5.0 1.6 L-4.7 1.6 M-4.55 2.0 L-4.55 1.85 -4.3 1.9 -4.25 2.0 -4.35 2.1 -4.5 2.1 -4.55 2.0 M-4.85 2.35 L-4.85 2.4 -4.8 2.5 -4.85 2.55 -4.95 2.6 -5.15 2.5 -5.0 2.4 -4.85 2.35 M-5.2 3.5 L-4.6 3.5 -4.55 3.65 -4.65 3.75 -5.15 3.8 -5.2 3.75 -5.2 3.5 M-5.15 3.0 Q-5.15 3.05 -5.2 3.1 -5.3 3.15 -5.35 3.15 L-5.55 3.05 -5.4 2.9 -5.2 2.9 -5.15 3.0 M-4.5 2.65 Q-4.4 2.7 -4.3 2.8 L-4.35 2.95 -4.55 3.1 -4.6 3.05 -4.65 2.85 Q-4.65 2.75 -4.55 2.7 L-4.5 2.65 M-4.1 3.25 L-4.25 3.15 -4.1 3.0 -3.9 2.95 -3.85 3.1 -3.95 3.2 Q-4.05 3.25 -4.1 3.25 M-3.6 3.9 L-3.75 3.95 Q-3.8 3.9 -3.8 3.8 -3.65 3.8 -3.55 3.9 L-3.6 3.9 M-4.2 4.5 Q-4.15 4.55 -4.15 4.65 -4.15 4.8 -4.2 4.85 L-4.3 4.95 -4.4 4.85 Q-4.5 4.8 -4.5 4.65 -4.5 4.55 -4.45 4.5 L-4.35 4.45 -4.2 4.5 M-3.7 4.8 Q-3.55 4.85 -3.55 5.05 L-3.6 5.1 Q-3.75 5.05 -3.8 5.0 -3.8 4.85 -3.7 4.8 M-4.1 4.45 Q-4.1 4.0 -3.9 4.2 -3.75 4.3 -3.5 4.65 L-3.85 4.7 -4.05 4.55 -4.1 4.45 M-3.05 4.65 L-2.9 5.05 Q-3.0 5.05 -3.25 4.85 L-3.05 4.65 M-4.55 4.3 Q-4.6 4.25 -4.6 4.15 -4.6 4.0 -4.55 3.95 L-4.4 3.9 Q-4.2 4.0 -4.2 4.25 -4.25 4.25 -4.4 4.35 L-4.55 4.3 M-5.35 3.95 Q-5.35 4.05 -5.4 4.15 L-5.4 4.2 Q-5.55 4.1 -5.65 3.9 L-5.55 3.8 -5.4 3.8 Q-5.35 3.85 -5.35 3.95 M-5.15 4.3 Q-5.0 4.35 -4.95 4.45 L-5.05 4.65 -5.25 4.65 -5.25 4.6 -5.3 4.5 Q-5.3 4.35 -5.25 4.35 L-5.15 4.3 M-5.6 4.6 Q-5.45 4.65 -5.45 4.8 L-5.5 4.9 -5.45 4.9 -5.6 4.95 -5.75 4.9 Q-5.7 4.85 -5.75 4.85 -5.75 4.6 -5.6 4.6 M-5.2 5.2 Q-5.15 5.2 -5.15 5.35 -5.15 5.5 -5.2 5.4 -5.25 5.5 -5.35 5.55 L-5.5 5.45 Q-5.55 5.35 -5.55 5.25 -5.45 5.15 -5.2 5.2 M-4.8 5.1 Q-4.75 5.0 -4.55 5.0 L-4.5 5.05 -4.5 5.15 -4.55 5.2 Q-4.6 5.25 -4.65 5.25 L-4.85 5.2 -4.8 5.1 M-4.5 5.75 L-4.7 5.65 Q-4.6 5.4 -4.5 5.3 -4.3 5.4 -4.3 5.65 L-4.35 5.7 -4.5 5.75 M-4.85 6.05 L-4.9 6.25 -4.95 6.25 -5.05 6.35 -5.2 6.25 Q-5.25 6.2 -5.25 6.05 -5.25 5.95 -5.2 5.9 L-5.05 5.85 Q-5.0 5.85 -4.9 5.95 L-4.85 6.05 M-4.35 6.35 L-4.15 6.35 -4.1 6.45 -4.15 6.55 -4.45 6.55 -4.5 6.45 -4.55 6.4 Q-4.45 6.35 -4.35 6.35 M-4.4 6.55 L-4.35 6.7 -4.4 6.8 -4.6 6.8 -4.6 6.55 -4.4 6.55 M-4.4 7.0 Q-4.4 6.9 -4.35 6.8 -4.25 6.7 -4.0 6.75 -4.0 6.7 -3.95 6.65 L-3.85 6.65 Q-3.65 6.7 -3.65 6.9 -3.7 7.0 -3.85 7.05 L-3.9 7.05 Q-3.9 7.15 -3.95 7.15 L-4.15 7.2 -4.35 7.05 -4.4 7.0 M-3.55 5.65 L-3.8 5.6 -3.65 5.4 Q-3.5 5.3 -3.35 5.3 L-3.25 5.4 -3.3 5.6 Q-3.35 5.6 -3.55 5.65 M-3.75 6.05 L-3.75 6.1 -3.9 6.15 Q-3.95 6.1 -3.95 5.95 -3.8 5.95 -3.75 6.05 M-3.65 6.0 L-3.35 6.0 -3.35 6.35 -3.5 6.35 -3.75 6.15 -3.65 6.0 M-2.95 6.7 Q-2.85 6.75 -2.85 6.8 -2.75 6.85 -2.75 6.95 L-2.75 7.1 -2.8 7.2 Q-2.85 7.2 -2.95 7.25 L-3.1 7.05 -3.15 6.95 Q-3.15 6.85 -3.1 6.8 L-2.95 6.7 M-2.55 5.85 L-2.75 5.9 Q-2.95 5.7 -2.95 5.65 -2.95 5.5 -2.8 5.5 L-2.65 5.45 -2.55 5.65 -2.55 5.85 M-2.45 6.6 Q-2.5 6.65 -2.65 6.7 L-2.8 6.6 -2.85 6.45 Q-2.7 6.35 -2.5 6.35 L-2.45 6.35 Q-2.45 6.4 -2.45 6.5 -2.45 6.7 -2.45 6.6 M-2.35 6.55 L-2.35 6.65 -2.4 6.6 -2.35 6.55 M-0.5 7.5 L-0.4 7.35 -0.2 7.45 Q-0.25 7.5 -0.5 7.5 M-0.2 7.9 Q-0.3 8.05 -0.5 8.05 -0.7 8.05 -0.65 8.05 L-0.7 8.0 -0.7 7.9 Q-0.7 7.75 -0.6 7.75 -0.5 7.7 -0.3 7.75 L-0.2 7.9 M-0.95 7.5 L-1.0 7.6 Q-1.05 7.7 -1.2 7.7 -1.35 7.7 -1.5 7.5 -1.55 7.6 -1.55 7.4 -1.55 7.2 -1.35 7.2 -1.15 7.2 -1.0 7.4 L-0.95 7.5 M-1.05 8.2 L-1.15 8.2 -1.25 8.3 -1.45 8.3 -1.45 8.25 -1.5 8.15 Q-1.5 8.0 -1.4 8.0 L-1.25 7.95 Q-1.15 8.0 -1.1 8.1 -1.05 8.05 -0.9 8.05 L-0.9 8.15 -1.05 8.2 M-1.4 8.3 L-1.4 8.45 Q-1.5 8.5 -1.55 8.55 L-1.65 8.65 -1.75 8.55 Q-1.8 8.45 -1.8 8.4 -1.7 8.3 -1.45 8.3 L-1.4 8.3 M-1.65 7.5 L-1.6 7.55 -1.45 7.65 -1.5 7.7 -1.6 7.65 Q-1.65 7.6 -1.65 7.5 M-1.95 7.2 L-2.2 7.4 -2.3 7.35 Q-2.3 7.15 -2.0 7.1 L-1.95 7.2 M-1.95 7.3 Q-1.8 7.4 -1.7 7.55 L-1.95 7.75 -2.15 7.5 -2.05 7.5 Q-1.95 7.45 -1.95 7.3 M-2.55 7.5 L-2.55 7.7 -2.75 7.7 Q-2.85 7.7 -2.95 7.6 L-2.95 7.3 Q-2.85 7.3 -2.7 7.35 -2.6 7.4 -2.55 7.5 M-2.8 8.3 L-3.05 8.3 -2.95 8.5 Q-3.0 8.7 -3.2 8.7 -3.35 8.7 -3.5 8.4 -3.5 8.15 -3.25 8.2 L-3.15 8.2 Q-3.2 8.15 -3.2 7.95 L-3.2 7.8 -3.15 7.7 Q-2.75 7.8 -2.75 8.05 L-2.8 8.3 M-2.35 7.95 Q-2.2 8.0 -2.15 8.15 L-2.25 8.3 -2.45 8.3 -2.5 8.15 Q-2.5 8.0 -2.45 8.0 L-2.35 7.95 M-1.9 8.7 L-1.9 8.8 Q-1.95 8.85 -2.1 8.9 -2.3 8.85 -2.3 8.6 -2.15 8.5 -1.95 8.55 L-1.9 8.55 -1.9 8.7 M-1.8 8.95 L-1.85 9.0 -1.95 9.0 -2.0 8.9 Q-1.95 8.85 -1.9 8.85 -1.85 8.85 -1.8 8.9 L-1.8 8.95 M-1.95 9.45 L-1.8 9.45 -1.8 9.7 -1.9 9.7 -1.95 9.55 -1.95 9.45 M-2.5 9.0 Q-2.35 9.1 -2.3 9.25 L-2.35 9.35 Q-2.4 9.4 -2.55 9.4 -2.7 9.4 -2.8 9.25 -2.85 9.1 -2.8 8.95 -2.65 8.95 -2.5 9.0 M-2.2 10.05 L-2.1 9.95 -1.95 10.1 Q-1.9 10.15 -1.9 10.3 L-1.9 10.4 -1.95 10.45 Q-1.95 10.4 -2.05 10.35 L-2.25 10.25 -2.2 10.05 M-1.8 9.75 L-1.8 9.9 -1.7 10.2 -1.75 10.2 -1.95 10.0 -2.0 9.85 -2.0 9.75 -1.8 9.75 M-3.5 7.65 L-3.5 7.75 Q-3.55 7.85 -3.7 7.9 -3.9 7.8 -3.9 7.6 -3.75 7.5 -3.55 7.55 L-3.5 7.55 -3.5 7.65 M-4.7 7.2 L-4.7 7.0 Q-4.5 7.0 -4.35 7.2 L-4.2 7.55 -4.4 7.45 -4.7 7.2 M-0.25 11.25 L-0.1 11.25 -0.3 11.35 -0.25 11.25 M-0.55 11.4 L-0.85 11.45 -0.75 11.55 Q-0.75 11.6 -0.8 11.7 L-0.95 11.8 -1.1 11.7 -1.15 11.6 -1.05 11.5 Q-1.0 11.45 -0.95 11.4 L-0.95 11.15 Q-0.8 11.1 -0.6 11.15 L-0.55 11.25 -0.55 11.4 M-1.3 11.0 L-1.5 10.8 -1.3 10.7 -1.1 10.85 -1.3 11.0 M-0.25 11.85 Q-0.3 11.75 -0.3 11.65 -0.15 11.55 0.1 11.6 L0.1 11.75 Q0.1 11.9 0.1 11.8 L-0.05 11.9 -0.05 11.95 -0.2 11.85 -0.25 11.85 M-0.45 11.65 Q-0.35 11.7 -0.25 11.8 -0.3 11.9 -0.45 12.05 L-0.65 11.95 -0.65 11.8 -0.6 11.7 Q-0.55 11.65 -0.45 11.65 M-0.1 12.15 L0.0 12.15 Q0.1 12.2 0.15 12.3 L0.1 12.45 0.0 12.5 -0.15 12.45 -0.15 12.3 Q-0.15 12.2 -0.1 12.15 M6.75 5.15 L6.8 5.35 6.75 5.4 6.6 5.45 Q6.6 5.35 6.65 5.25 6.7 5.15 6.75 5.15 M6.55 6.05 L6.5 6.2 6.4 6.25 6.25 6.2 Q6.2 6.2 6.2 6.05 6.2 5.95 6.35 5.9 L6.55 5.95 6.55 6.05 M6.8 5.95 Q6.8 5.85 6.95 5.8 L7.05 5.75 Q7.2 5.8 7.2 5.9 L7.1 6.1 6.85 6.1 Q6.8 6.1 6.8 5.95 M6.3 5.65 Q6.45 5.65 6.5 5.75 6.5 5.8 6.35 5.85 6.3 5.75 6.3 5.65 M6.5 6.4 Q6.55 6.35 6.8 6.35 L6.9 6.5 6.8 6.6 Q6.7 6.7 6.65 6.7 L6.5 6.65 Q6.45 6.6 6.45 6.5 6.45 6.35 6.45 6.4 L6.5 6.4 M6.0 6.85 L5.8 6.9 5.8 6.85 6.0 6.55 Q6.05 6.6 6.05 6.75 L6.0 6.85 M7.15 6.4 L7.25 6.65 Q7.2 6.75 7.1 6.8 L7.0 6.8 7.0 6.65 Q7.0 6.55 7.05 6.45 7.1 6.4 7.15 6.4 M6.8 6.9 L6.85 7.05 Q6.85 7.25 6.8 7.15 L6.65 7.25 6.5 7.15 Q6.45 7.05 6.45 7.0 6.55 6.85 6.8 6.9 M2.15 6.75 L2.2 6.9 2.15 7.0 1.85 7.0 Q1.8 7.0 1.8 6.85 L1.85 6.75 2.15 6.75 M2.7 7.0 L2.8 7.1 2.7 7.25 2.6 7.15 Q2.55 7.1 2.55 7.0 L2.7 7.0 M3.1 7.0 L3.2 7.1 3.25 7.25 Q3.2 7.4 3.1 7.45 L2.9 7.2 Q2.9 7.1 2.95 7.05 L3.1 7.0 M5.55 6.85 L5.4 6.85 5.45 6.8 5.45 6.7 5.65 6.7 5.8 6.8 5.75 6.85 5.55 6.85 M5.6 7.15 Q5.6 7.25 5.5 7.3 L5.45 7.35 5.5 7.25 5.6 7.15 M5.5 7.3 L5.7 7.55 5.75 7.65 Q5.85 7.55 5.95 7.6 L6.0 7.55 Q6.05 7.55 6.05 7.7 6.05 7.75 5.9 7.85 5.8 8.0 5.7 8.0 L5.5 7.9 5.55 7.85 5.3 7.75 5.3 7.55 5.4 7.5 Q5.5 7.45 5.5 7.3 M5.0 7.25 L5.0 7.7 4.9 7.5 4.8 7.25 Q4.8 7.2 4.95 7.2 L5.0 7.25 M4.35 7.9 L4.35 7.85 4.1 7.85 Q4.05 7.95 4.05 7.75 L4.05 7.6 4.25 7.6 4.5 7.7 4.55 7.7 4.8 7.9 4.75 8.0 4.75 8.05 4.7 8.1 Q4.65 8.25 4.5 8.25 4.3 8.2 4.3 7.95 L4.4 7.9 4.35 7.9 M4.65 8.5 Q4.85 8.45 5.1 8.6 L5.05 8.75 Q5.0 8.8 4.85 8.8 L4.8 8.8 4.6 8.5 4.65 8.45 4.65 8.5 M5.4 8.05 L5.5 8.1 5.4 8.1 5.35 8.15 Q5.25 8.15 5.2 8.1 L5.1 8.1 5.1 8.05 5.2 8.05 5.15 7.95 Q5.35 7.95 5.4 8.0 L5.4 8.05 M5.7 8.45 L5.6 8.55 Q5.5 8.6 5.45 8.6 L5.3 8.5 5.3 8.35 5.5 8.35 5.7 8.4 5.7 8.45 M3.85 7.8 L3.8 7.9 3.65 8.0 Q3.5 7.95 3.4 7.85 L3.5 7.8 3.45 7.8 3.4 7.55 3.5 7.55 3.6 7.65 3.65 7.6 Q3.75 7.65 3.85 7.8 M3.0 7.8 Q3.05 7.85 2.85 7.85 L2.7 7.85 2.65 7.75 2.65 7.65 Q2.65 7.6 2.7 7.55 2.8 7.5 2.85 7.45 2.95 7.5 3.05 7.6 L3.0 7.8 M4.3 10.2 L4.3 10.3 4.1 10.3 Q4.05 10.3 4.05 10.2 4.05 10.05 4.1 10.05 L4.2 10.0 4.3 10.2 M4.8 9.25 Q4.75 9.35 4.65 9.4 L4.5 9.35 Q4.45 9.45 4.45 9.25 L4.45 9.1 4.75 9.1 4.8 9.25 M4.8 9.55 Q4.9 9.4 4.9 9.2 5.0 9.25 5.05 9.4 5.0 9.55 4.9 9.55 L4.8 9.55 M4.75 9.9 Q4.85 9.95 4.65 9.95 L4.6 9.95 4.6 10.15 4.5 10.2 Q4.5 10.0 4.6 9.8 L4.75 9.85 4.75 9.9 M4.5 10.55 L4.5 10.7 Q4.5 10.9 4.5 10.8 L4.3 10.9 4.25 10.9 Q4.4 10.75 4.45 10.55 L4.5 10.55 M1.85 7.35 L1.95 7.3 2.1 7.45 Q2.15 7.5 2.15 7.6 L1.95 7.75 1.8 7.7 Q1.75 7.8 1.6 7.8 L1.45 7.8 1.45 7.75 1.4 7.7 Q1.35 7.7 1.35 7.55 L1.35 7.45 1.4 7.4 1.8 7.4 1.85 7.35 M1.35 7.3 L1.2 7.25 Q1.3 7.05 1.45 7.1 L1.5 7.2 1.4 7.3 1.35 7.3 M0.8 7.55 Q0.85 7.5 1.1 7.5 L1.2 7.65 1.1 7.75 0.95 7.85 0.8 7.8 Q0.75 7.75 0.75 7.65 L0.8 7.55 M0.7 7.6 Q0.65 7.7 0.55 7.75 L0.35 7.7 Q0.35 7.8 0.35 7.6 0.35 7.45 0.4 7.45 L0.55 7.4 Q0.7 7.5 0.7 7.6 M1.9 11.5 L2.3 11.5 2.1 11.7 1.9 11.7 1.8 11.55 Q1.85 11.5 1.9 11.5 M1.85 11.8 L2.05 11.8 2.15 11.95 1.95 12.05 1.85 12.05 Q1.8 12.05 1.8 11.95 L1.85 11.8 M1.6 12.15 L1.5 12.3 1.75 12.3 1.8 12.45 1.65 12.6 1.5 12.7 1.25 12.45 1.3 12.35 1.3 12.3 1.35 12.3 1.3 12.25 1.3 12.1 Q1.3 12.05 1.35 12.0 L1.3 11.9 Q1.4 11.8 1.7 11.8 1.7 11.85 1.75 12.0 L1.6 12.1 1.6 12.15 M2.85 11.6 L2.7 11.55 2.7 11.45 3.05 11.4 Q3.05 11.55 2.9 11.6 L3.1 11.6 3.15 11.65 3.15 11.9 3.1 11.95 2.9 12.05 Q2.7 11.85 2.7 11.8 2.7 11.65 2.85 11.6 M2.7 11.8 L2.5 11.9 2.65 11.75 2.7 11.8 M2.5 12.2 L2.35 12.3 2.25 12.2 2.35 12.1 2.45 12.05 2.5 12.2 M2.85 12.15 L3.15 12.15 3.2 12.2 3.2 12.5 3.15 12.55 Q3.2 12.6 3.0 12.6 2.8 12.6 2.8 12.5 L2.8 12.35 Q2.8 12.2 2.85 12.15 M1.15 11.45 L1.3 11.45 1.45 11.6 1.4 11.75 1.25 11.8 1.1 11.75 Q1.1 11.7 1.1 11.6 1.1 11.45 1.15 11.45 M0.3 11.35 L0.65 11.4 0.6 11.45 0.5 11.5 0.3 11.45 0.3 11.35 M0.25 11.75 Q0.4 11.7 0.65 11.75 0.65 11.9 0.75 12.05 L0.25 12.05 Q0.2 12.0 0.2 11.9 L0.25 11.75 M0.95 12.2 Q1.05 12.25 1.1 12.4 L1.05 12.55 0.8 12.55 Q0.75 12.5 0.75 12.4 0.75 12.25 0.8 12.25 L0.95 12.2 M1.0 12.75 L1.25 12.75 Q1.35 12.85 1.35 12.95 L1.2 13.05 1.05 13.0 Q1.0 13.0 1.0 12.85 L1.0 12.75 M0.4 12.4 Q0.5 12.45 0.55 12.55 L0.45 12.65 Q0.35 12.7 0.3 12.7 L0.15 12.6 Q0.3 12.4 0.4 12.4 M2.2 12.6 Q2.3 12.5 2.35 12.45 L2.45 12.45 2.5 12.55 Q2.5 12.65 2.35 12.7 L2.2 12.6 M2.0 12.65 L1.95 12.85 1.8 12.9 Q1.7 12.85 1.65 12.8 L1.6 12.7 1.7 12.6 Q1.75 12.55 1.8 12.5 L2.0 12.65 M4.45 11.25 L4.2 11.3 Q4.3 11.2 4.5 11.15 L4.45 11.25 M3.8 11.05 L3.85 11.15 3.7 11.25 Q3.6 11.35 3.6 11.15 3.6 11.05 3.65 11.05 L3.8 11.05 M3.35 11.7 L3.25 11.65 Q3.35 11.55 3.45 11.55 L3.65 11.55 3.7 11.6 3.65 11.7 Q3.7 11.75 3.5 11.75 L3.35 11.7 M3.35 12.05 Q3.45 11.9 3.6 11.9 L3.6 11.95 3.65 12.0 Q3.6 12.1 3.45 12.15 3.4 12.1 3.35 12.05 M3.25 12.8 L3.0 13.05 2.85 12.95 Q2.95 12.7 3.1 12.65 3.2 12.7 3.25 12.8 M6.35 7.35 L6.5 7.35 6.55 7.45 6.4 7.6 Q6.25 7.55 6.2 7.5 6.2 7.4 6.35 7.35 M5.85 7.35 Q5.8 7.3 5.8 7.2 5.8 7.05 5.85 7.1 5.9 7.05 6.1 7.05 L6.2 7.2 Q6.2 7.3 6.0 7.4 L5.85 7.35 M6.4 7.9 L6.3 7.95 6.15 8.0 Q6.05 7.95 6.0 7.9 6.1 7.7 6.25 7.6 L6.35 7.65 Q6.4 7.65 6.4 7.8 6.4 8.0 6.4 7.9 M5.8 8.4 Q5.75 8.35 5.75 8.2 5.75 8.1 5.85 8.05 L6.0 8.05 6.2 8.2 Q6.15 8.35 6.0 8.4 L5.8 8.4" fill="#003366" fill-rule="evenodd" stroke="none"/>
  </g>
</svg>
