<?xml version="1.0" encoding="UTF-8" standalone="no"?>
<svg xmlns:ffdec="https://www.free-decompiler.com/flash" xmlns:xlink="http://www.w3.org/1999/xlink" ffdec:objectType="shape" height="23.4px" width="17.95px" xmlns="http://www.w3.org/2000/svg">
  <g transform="matrix(1.0, 0.0, 0.0, 1.0, 10.05, 8.75)">
    <path d="M7.45 5.3 Q7.7 5.15 7.8 5.25 7.95 5.35 7.85 5.95 7.85 6.2 7.75 6.4 L7.8 6.35 Q7.3 7.8 6.1 9.35 5.8 9.75 5.55 10.2 5.35 10.35 5.25 10.6 L5.15 10.75 4.7 11.6 4.75 11.6 4.75 12.15 Q4.8 12.2 4.8 12.45 4.8 13.25 4.25 13.8 3.65 14.35 2.5 14.55 L2.25 14.6 2.1 14.6 0.9 14.65 0.55 14.65 Q0.0 14.65 -1.25 13.25 L-2.15 12.2 Q-2.45 11.8 -2.8 10.8 L-3.5 10.0 -3.7 9.75 -3.65 9.9 -3.7 9.85 -3.9 9.85 -3.9 9.9 Q-4.7 10.05 -5.45 9.5 L-5.95 9.15 Q-8.0 7.95 -8.0 4.4 -8.0 3.95 -7.9 3.55 -7.8 2.95 -7.55 2.45 L-7.5 2.1 Q-9.75 1.9 -10.05 -0.95 L-10.05 -1.55 Q-10.1 -3.55 -8.55 -4.5 L-7.8 -4.25 -7.65 -4.15 -7.6 -4.45 -7.55 -4.8 -7.55 -4.95 -7.5 -5.5 -7.5 -5.55 Q-7.6 -5.6 -7.55 -5.85 -7.5 -6.1 -7.4 -6.25 L-7.35 -6.35 Q-7.2 -6.45 -7.05 -6.45 L-7.0 -6.45 Q-6.75 -6.4 -6.6 -6.15 -6.55 -6.0 -6.55 -5.85 L-6.6 -5.85 -6.5 -5.9 -6.75 -4.95 -6.8 -4.7 -6.8 -3.9 Q-6.8 -3.6 -6.9 -3.35 L-6.95 -3.45 -7.0 -3.3 -6.9 -3.15 -6.9 -3.1 -6.45 -2.6 -6.4 -2.55 -6.3 -2.7 -6.2 -2.35 -5.9 -1.35 -6.05 -0.9 Q-6.3 -0.95 -6.5 -1.15 -6.65 -1.35 -6.8 -1.75 L-6.8 -1.95 -7.3 -2.5 Q-7.6 -2.6 -7.85 -2.75 L-8.35 -2.75 Q-7.45 -2.2 -6.95 -1.25 L-6.9 -1.2 -6.6 -0.55 -6.55 -0.3 Q-6.45 0.0 -6.45 0.3 -6.5 0.25 -6.55 0.2 L-6.9 0.0 -6.95 0.15 -7.0 0.25 -7.1 0.4 -7.15 0.4 Q-7.3 0.55 -7.5 0.6 L-7.75 0.6 -7.6 0.75 -7.3 0.95 -7.0 1.1 -6.95 1.15 -6.6 1.25 -6.55 1.3 -6.3 1.25 -6.15 1.35 -6.15 1.4 -6.05 1.45 -5.85 1.45 -6.0 1.55 -6.1 1.55 -6.15 1.65 -6.05 1.75 -6.05 1.8 -5.95 1.95 -5.85 2.15 Q-5.7 2.35 -5.5 2.6 L-5.55 3.0 Q-5.75 4.2 -5.6 5.3 -5.05 6.8 -3.95 8.05 L-3.95 8.2 -3.6 8.6 Q-3.6 8.2 -3.15 7.9 -2.9 7.75 -2.55 7.55 -1.55 7.1 0.05 6.95 L0.2 7.1 0.0 7.15 Q-0.25 7.4 -0.95 7.7 L-1.85 8.05 Q-2.2 8.2 -2.3 8.55 -2.15 8.65 -2.1 8.9 L-2.0 8.8 -1.75 8.7 Q-0.7 8.1 0.55 8.15 L0.95 8.1 1.6 8.1 2.45 8.15 Q3.95 8.25 4.3 8.45 4.6 8.6 4.95 8.65 L5.2 8.85 5.3 8.8 Q5.3 8.7 5.05 8.45 4.8 8.2 4.8 8.1 L4.85 7.95 Q5.1 7.95 5.6 8.25 L5.75 8.4 5.8 8.35 6.4 7.65 Q6.8 7.05 7.15 6.45 L7.25 6.2 7.2 6.2 7.2 6.15 7.35 5.7 7.35 5.65 7.4 5.45 7.4 5.35 7.45 5.3 M-8.7 -1.95 L-8.75 -2.2 -8.8 -2.15 -8.8 -1.7 Q-8.75 -1.1 -8.5 -0.5 -8.3 0.05 -7.9 0.45 L-7.85 0.5 Q-7.95 0.15 -7.7 -0.1 -7.55 -0.25 -7.35 -0.35 L-7.55 -0.55 Q-7.95 -0.9 -8.3 -1.4 -8.55 -1.7 -8.7 -1.95 M-2.5 6.9 L-2.45 6.85 -2.45 6.9 -2.5 6.9 M-5.8 6.95 Q-6.1 6.35 -6.3 5.65 L-6.5 3.85 Q-6.6 3.35 -6.6 2.85 L-6.6 2.75 -6.65 2.3 -6.75 2.8 -6.75 2.85 -6.8 3.1 Q-6.9 4.45 -6.7 5.75 L-6.5 6.95 -6.35 7.35 Q-6.0 8.15 -5.4 8.65 L-4.85 9.0 Q-4.5 9.1 -4.2 9.25 L-4.1 9.3 -4.65 8.45 Q-5.35 7.8 -5.8 6.95 M-7.1 3.05 L-7.1 3.05 M-2.85 8.25 L-3.0 8.35 Q-3.1 8.45 -3.1 8.6 L-3.1 8.7 -2.75 9.6 -2.35 10.5 Q-1.9 11.45 -1.7 11.9 L-1.75 11.9 -1.8 11.95 -1.8 12.0 -1.65 12.25 -1.55 12.35 Q-0.8 13.35 0.25 14.15 L0.45 14.1 Q0.5 14.05 0.65 14.05 L2.4 13.95 3.1 13.75 3.4 13.45 Q3.4 13.35 3.55 13.2 L3.7 13.05 3.35 13.1 Q2.7 13.1 2.5 12.9 L2.5 12.8 Q2.45 12.5 2.15 12.35 L1.95 12.6 1.75 12.9 1.5 13.15 0.0 12.85 Q0.0 12.9 -0.1 12.9 L-0.45 12.85 Q-0.7 12.7 -0.95 12.4 L-1.3 11.9 -1.4 11.7 -1.45 11.75 Q-1.85 11.35 -2.2 10.45 L-2.25 10.2 -2.55 9.3 -2.6 9.1 Q-2.7 8.95 -2.7 8.7 L-2.7 8.5 -2.55 8.15 -2.6 8.15 -2.8 8.25 -2.85 8.25 M-0.2 11.3 L-0.25 11.3 Q-0.95 11.05 -1.55 10.35 -1.8 10.15 -1.9 9.9 L-1.85 10.05 -1.25 11.0 Q-0.8 11.65 -0.6 11.95 L-0.6 12.0 -0.5 12.15 Q0.15 12.65 0.35 12.75 L0.5 12.75 1.15 12.75 Q1.4 12.65 1.65 12.25 1.75 12.1 1.85 12.0 L1.9 11.85 Q1.9 11.75 2.0 11.65 1.6 11.7 1.2 11.65 L1.05 11.6 Q0.45 11.65 -0.15 11.35 L-0.2 11.3 M-0.75 10.1 L-0.25 10.5 0.1 10.75 0.2 10.8 0.25 10.85 0.3 10.9 0.35 10.9 0.4 10.85 1.05 10.95 1.4 10.95 1.55 11.0 1.7 11.0 1.9 11.05 Q2.5 10.85 3.0 10.5 L3.25 10.3 3.4 10.2 3.7 9.85 4.0 9.35 4.05 9.3 4.15 9.05 4.15 8.95 2.75 8.9 2.4 8.85 1.55 8.8 0.95 8.8 -0.2 8.9 -1.1 9.05 Q-1.35 9.15 -1.55 9.35 L-0.75 10.1 M2.6 11.7 Q3.0 12.0 3.1 12.6 L3.25 12.6 3.6 12.2 Q3.65 11.65 3.95 11.05 4.15 10.6 4.45 10.1 L4.7 9.75 4.75 9.65 4.75 9.6 Q4.75 9.35 4.85 9.2 4.9 9.1 5.0 9.0 L4.55 9.0 Q4.55 10.1 3.85 10.8 3.65 11.2 3.05 11.45 L3.0 11.5 Q2.7 11.6 2.4 11.6 L2.45 11.6 2.6 11.7 M0.95 11.15 L0.85 11.2 0.9 11.2 0.95 11.15" fill="#1a1a1a" fill-rule="evenodd" stroke="none"/>
    <path d="M-6.45 -5.9 L-6.25 -5.95 -6.3 -5.95 -6.45 -5.9 M-2.85 8.25 L-2.8 8.25 -2.6 8.15 -2.55 8.15 -2.7 8.5 -2.7 8.7 Q-2.7 8.95 -2.6 9.1 L-2.55 9.3 -2.25 10.2 -2.2 10.45 Q-1.85 11.35 -1.45 11.75 L-1.4 11.7 -1.3 11.9 -0.95 12.4 Q-0.7 12.7 -0.45 12.85 L-0.1 12.9 Q0.0 12.9 0.0 12.85 L1.5 13.15 1.75 12.9 1.95 12.6 2.15 12.35 Q2.45 12.5 2.5 12.8 L2.5 12.9 Q2.7 13.1 3.35 13.1 L3.7 13.05 3.55 13.2 Q3.4 13.35 3.4 13.45 L3.1 13.75 2.4 13.95 0.65 14.05 Q0.5 14.05 0.45 14.1 L0.25 14.15 Q-0.8 13.35 -1.55 12.35 L-1.65 12.25 -1.8 12.0 -1.8 11.95 -1.75 11.9 -1.7 11.9 Q-1.9 11.45 -2.35 10.5 L-2.75 9.6 -3.1 8.7 -3.1 8.6 Q-3.1 8.45 -3.0 8.35 L-2.85 8.25" fill="#003366" fill-rule="evenodd" stroke="none"/>
    <path d="M-6.25 -5.95 L-6.1 -6.1 Q-5.9 -6.3 -5.6 -6.35 L-5.55 -6.45 -5.5 -6.65 Q-5.0 -7.75 -4.5 -8.25 L-4.25 -8.6 Q-4.25 -8.7 -4.15 -8.75 L-3.15 -6.8 -1.95 -6.95 Q1.5 -7.05 2.2 -5.7 2.95 -4.35 3.15 -3.1 L3.6 -0.55 Q3.8 0.7 4.25 1.8 L4.35 2.15 4.85 3.2 5.2 3.8 5.35 3.95 Q6.05 4.5 6.6 4.8 7.2 5.1 7.25 5.05 L7.35 5.2 7.45 5.3 7.4 5.35 7.4 5.45 7.35 5.65 7.35 5.7 7.2 6.15 7.2 6.2 Q7.2 6.4 7.1 6.5 L7.15 6.45 Q6.8 7.05 6.4 7.65 L5.8 8.35 5.75 8.4 5.6 8.25 Q5.1 7.95 4.85 7.95 L4.8 8.1 Q4.8 8.2 5.05 8.45 5.3 8.7 5.3 8.8 L5.2 8.85 4.95 8.65 Q4.6 8.6 4.3 8.45 3.95 8.25 2.45 8.15 L1.6 8.1 0.95 8.1 0.55 8.15 Q-0.7 8.1 -1.75 8.7 L-2.0 8.8 -2.1 8.9 Q-2.15 8.65 -2.3 8.55 -2.2 8.2 -1.85 8.05 L-0.95 7.7 Q-0.25 7.4 0.0 7.15 L0.2 7.1 0.05 6.95 Q-1.55 7.1 -2.55 7.55 -2.9 7.75 -3.15 7.9 L-3.95 6.55 Q-4.95 4.8 -5.55 3.0 L-5.5 2.6 Q-5.7 2.35 -5.85 2.15 L-5.9 1.7 -5.9 1.85 -6.0 1.55 -5.85 1.45 -6.05 1.45 -6.05 1.3 -6.15 1.35 -6.3 1.25 -6.55 1.3 -6.6 1.25 -6.95 1.15 -7.0 1.1 -7.3 0.95 -7.1 0.95 -6.85 0.9 -7.0 0.25 -6.95 0.15 -6.55 0.55 -6.55 0.2 Q-6.5 0.25 -6.45 0.3 -6.45 0.0 -6.55 -0.3 L-6.6 -0.55 -6.9 -1.2 -6.95 -1.25 Q-7.45 -2.2 -8.35 -2.75 L-7.85 -2.75 Q-7.6 -2.6 -7.3 -2.5 L-6.8 -1.95 -6.8 -1.75 Q-6.65 -1.35 -6.5 -1.15 -6.3 -0.95 -6.05 -0.9 L-5.9 -1.35 -6.2 -2.35 -6.3 -2.7 -6.4 -2.55 -6.45 -2.6 -6.9 -3.1 -6.9 -3.15 -7.0 -3.3 -6.95 -3.45 -6.9 -3.35 Q-6.8 -3.6 -6.8 -3.9 L-6.8 -4.7 -6.75 -4.95 -6.5 -5.9 -6.6 -5.85 -6.55 -5.85 -6.45 -5.9 -6.3 -5.95 -6.25 -5.95 M-8.8 -1.7 L-8.8 -2.15 -8.75 -2.2 -8.7 -1.95 -8.8 -1.7 M-2.5 6.9 L-2.45 6.9 -2.45 6.85 -2.5 6.9 M-5.4 8.65 Q-6.0 8.15 -6.35 7.35 L-6.5 6.95 -6.7 5.75 Q-6.9 4.45 -6.8 3.1 L-6.75 2.85 -6.75 2.8 -6.65 2.3 -6.6 2.75 -6.6 2.85 Q-6.6 3.35 -6.5 3.85 L-6.3 5.65 Q-6.1 6.35 -5.8 6.95 -5.75 7.5 -5.6 8.1 L-5.4 8.65 M-7.1 3.05 L-7.1 3.05 M0.5 12.75 L0.35 12.35 0.4 12.3 0.2 11.95 0.2 11.85 0.35 11.9 1.9 11.85 1.85 12.0 Q1.75 12.1 1.65 12.25 1.4 12.65 1.15 12.75 L0.5 12.75 M-0.15 11.35 L-0.2 11.3 -0.15 11.35 M0.25 10.85 L0.35 10.9 0.3 10.9 0.25 10.85 M1.75 10.95 Q2.4 10.85 3.0 10.4 L3.0 10.5 Q2.5 10.85 1.9 11.05 L1.7 11.0 1.75 11.0 1.75 10.95 M0.3 9.25 L-0.05 9.1 -0.1 9.05 -0.05 9.05 -0.1 8.95 Q0.1 9.15 0.35 9.25 L0.3 9.25 M4.0 9.35 L4.0 9.3 4.05 9.3 4.0 9.35 M3.65 9.8 L3.7 9.85 3.4 10.2 3.4 10.05 3.65 9.8 M3.05 11.45 Q3.65 11.2 3.85 10.8 4.55 10.1 4.55 9.0 L5.0 9.0 Q4.9 9.1 4.85 9.2 4.75 9.35 4.75 9.6 L4.75 9.65 4.7 9.75 4.45 10.1 Q4.15 10.6 3.95 11.05 3.65 11.65 3.6 12.2 L3.25 12.6 3.1 12.6 Q3.0 12.0 2.6 11.7 2.95 11.65 3.25 11.5 L3.05 11.45" fill="#c7a36d" fill-rule="evenodd" stroke="none"/>
    <path d="M-8.8 -1.7 L-8.7 -1.95 Q-8.55 -1.7 -8.3 -1.4 -7.95 -0.9 -7.55 -0.55 -7.8 -0.3 -7.9 0.05 -7.95 0.25 -7.9 0.45 -8.3 0.05 -8.5 -0.5 -8.75 -1.1 -8.8 -1.7 M-5.55 3.0 Q-4.95 4.8 -3.95 6.55 L-3.15 7.9 Q-3.6 8.2 -3.6 8.6 L-3.95 8.2 -3.95 8.05 Q-5.05 6.8 -5.6 5.3 -5.75 4.2 -5.55 3.0 M-5.85 2.15 L-5.95 1.95 -6.05 1.8 -6.05 1.75 -6.15 1.65 -6.1 1.55 -6.0 1.55 -5.9 1.85 -5.9 1.7 -5.85 2.15 M-6.05 1.45 L-6.15 1.4 -6.15 1.35 -6.05 1.3 -6.05 1.45 M-7.3 0.95 L-7.6 0.75 -7.5 0.6 Q-7.3 0.55 -7.15 0.4 L-7.1 0.4 -7.0 0.25 -6.85 0.9 -7.1 0.95 -7.3 0.95 M-5.4 8.65 L-5.6 8.1 Q-5.75 7.5 -5.8 6.95 -5.35 7.8 -4.65 8.45 L-4.1 9.3 -4.2 9.25 Q-4.5 9.1 -4.85 9.0 L-5.4 8.65 M0.5 12.75 L0.35 12.75 Q0.15 12.65 -0.5 12.15 L-0.6 12.0 -0.6 11.95 Q-0.8 11.65 -1.25 11.0 L-1.85 10.05 -1.9 9.9 Q-1.8 10.15 -1.55 10.35 -0.95 11.05 -0.25 11.3 L-0.2 11.3 -0.15 11.35 Q0.45 11.65 1.05 11.6 L1.2 11.65 Q1.6 11.7 2.0 11.65 1.9 11.75 1.9 11.85 L0.35 11.9 0.2 11.85 0.2 11.95 0.4 12.3 0.35 12.35 0.5 12.75 M2.6 11.7 L2.45 11.6 2.4 11.6 Q2.7 11.6 3.0 11.5 L3.05 11.45 3.25 11.5 Q2.95 11.65 2.6 11.7 M0.95 11.15 L0.9 11.2 0.85 11.2 0.95 11.15" fill="#a9854f" fill-rule="evenodd" stroke="none"/>
    <path d="M-7.55 -0.55 L-7.35 -0.35 Q-7.55 -0.25 -7.7 -0.1 -7.95 0.15 -7.85 0.5 L-7.9 0.45 Q-7.95 0.25 -7.9 0.05 -7.8 -0.3 -7.55 -0.55 M-7.6 0.75 L-7.75 0.6 -7.5 0.6 -7.6 0.75 M-6.95 0.15 L-6.9 0.0 -6.55 0.2 -6.55 0.55 -6.95 0.15" fill="#111111" fill-rule="evenodd" stroke="none"/>
    <path d="M-0.75 10.1 Q-0.8 9.85 -0.7 9.6 L-0.55 9.3 -0.5 9.3 -0.15 9.35 0.0 9.35 Q0.35 9.25 -0.05 9.2 -0.05 9.15 -0.05 9.1 L0.3 9.25 1.2 9.6 1.6 9.7 Q2.05 9.75 2.45 9.6 L2.45 9.7 2.7 9.7 2.85 9.65 3.0 10.1 3.0 10.4 Q2.4 10.85 1.75 10.95 L1.85 10.8 1.85 10.65 1.8 10.6 1.65 10.5 1.5 10.55 1.4 10.65 Q1.4 10.75 1.4 10.9 L1.4 10.95 1.05 10.95 0.4 10.85 0.35 10.9 0.25 10.85 0.2 10.8 Q0.2 10.6 0.15 10.4 0.05 10.0 -0.05 9.7 -0.4 9.9 -0.3 10.3 L-0.25 10.5 -0.75 10.1 M3.4 10.05 L3.4 10.0 Q3.45 9.7 3.3 9.45 L3.4 9.4 3.65 9.4 3.65 9.5 3.6 9.65 Q3.6 9.75 3.65 9.8 L3.4 10.05" fill="#ffffff" fill-rule="evenodd" stroke="none"/>
    <path d="M-0.05 9.1 Q-0.05 9.15 -0.05 9.2 0.35 9.25 0.0 9.35 L-0.15 9.35 -0.5 9.3 -0.55 9.3 -0.7 9.6 Q-0.8 9.85 -0.75 10.1 L-1.55 9.35 Q-1.35 9.15 -1.1 9.05 L-0.2 8.9 -0.1 8.95 -0.05 9.05 -0.1 9.05 -0.05 9.1 M-0.25 10.5 L-0.3 10.3 Q-0.4 9.9 -0.05 9.7 0.05 10.0 0.15 10.4 0.2 10.6 0.2 10.8 L0.1 10.75 -0.25 10.5 M1.4 10.95 L1.4 10.9 Q1.4 10.75 1.4 10.65 L1.5 10.55 1.65 10.5 1.8 10.6 1.85 10.65 1.85 10.8 1.75 10.95 1.75 11.0 1.7 11.0 1.55 11.0 1.4 10.95 M3.0 10.4 L3.0 10.1 2.85 9.65 2.7 9.7 2.45 9.7 2.45 9.6 Q2.5 9.45 2.65 9.3 2.7 9.3 2.8 9.25 L2.95 9.2 3.1 9.1 Q3.15 9.05 3.2 9.05 L3.35 9.0 3.7 9.05 Q3.8 9.05 3.95 9.15 L4.0 9.3 4.0 9.35 3.7 9.85 3.65 9.8 Q3.6 9.75 3.6 9.65 L3.65 9.5 3.65 9.4 3.4 9.4 3.3 9.45 Q3.45 9.7 3.4 10.0 L3.4 10.05 3.4 10.2 3.25 10.3 3.0 10.5 3.0 10.4" fill="#cccccc" fill-rule="evenodd" stroke="none"/>
    <path d="M2.45 9.6 Q2.05 9.75 1.6 9.7 L1.2 9.6 0.3 9.25 0.35 9.25 Q0.1 9.15 -0.1 8.95 L-0.2 8.9 0.95 8.8 1.55 8.8 2.4 8.85 2.75 8.9 4.15 8.95 4.15 9.05 4.05 9.3 4.0 9.3 3.95 9.15 Q3.8 9.05 3.7 9.05 L3.35 9.0 3.2 9.05 Q3.15 9.05 3.1 9.1 L2.95 9.2 2.8 9.25 Q2.7 9.3 2.65 9.3 2.5 9.45 2.45 9.6" fill="#8c0000" fill-rule="evenodd" stroke="none"/>
  </g>
</svg>
