<?xml version="1.0" encoding="UTF-8" standalone="no"?>
<svg xmlns:ffdec="https://www.free-decompiler.com/flash" xmlns:xlink="http://www.w3.org/1999/xlink" ffdec:objectType="shape" height="22.4px" width="17.95px" xmlns="http://www.w3.org/2000/svg">
  <g transform="matrix(1.0, 0.0, 0.0, 1.0, 10.05, 8.75)">
    <path d="M7.45 5.3 Q7.7 5.15 7.8 5.25 8.0 5.35 7.8 6.1 7.8 6.3 7.75 6.4 L7.8 6.35 Q7.3 7.8 6.1 9.35 L5.95 9.5 5.9 9.5 5.5 10.25 5.4 10.55 5.4 10.65 Q5.45 10.7 5.45 10.95 5.45 11.75 4.85 12.25 4.3 12.8 3.15 13.0 L2.9 13.1 2.75 13.05 1.55 13.15 1.25 13.1 1.2 13.15 Q0.8 13.15 0.15 12.5 -1.05 12.0 -2.1 11.15 L-2.25 11.25 -2.35 11.1 -2.95 10.55 -3.0 10.6 -3.4 10.15 -3.7 9.8 -3.65 9.9 -3.7 9.85 -3.9 9.85 -3.9 9.9 Q-4.7 10.05 -5.45 9.5 L-5.95 9.15 Q-8.0 7.95 -8.0 4.4 -8.0 3.95 -7.9 3.55 -7.8 2.95 -7.55 2.45 L-7.5 2.1 Q-9.75 1.9 -10.05 -0.95 L-10.05 -1.55 Q-10.1 -3.55 -8.55 -4.5 L-7.8 -4.25 -7.65 -4.15 -7.6 -4.45 -7.55 -4.8 -7.55 -5.35 -7.5 -5.55 Q-7.6 -5.6 -7.55 -5.8 -7.5 -6.05 -7.4 -6.25 L-7.35 -6.35 Q-7.2 -6.45 -7.05 -6.45 L-7.0 -6.45 Q-6.75 -6.4 -6.6 -6.15 -6.55 -6.0 -6.55 -5.85 L-6.6 -5.85 -6.5 -5.9 -6.75 -4.95 -6.8 -4.7 -6.8 -3.9 Q-6.8 -3.6 -6.9 -3.35 L-6.95 -3.45 -7.0 -3.3 -6.9 -3.15 -6.9 -3.1 -6.45 -2.6 -6.4 -2.55 -6.3 -2.7 -6.2 -2.35 -5.9 -1.35 -6.05 -0.9 Q-6.3 -0.95 -6.5 -1.15 -6.65 -1.35 -6.8 -1.75 L-6.8 -1.95 -7.3 -2.5 Q-7.6 -2.6 -7.85 -2.75 L-8.35 -2.75 Q-7.45 -2.2 -6.95 -1.25 L-6.9 -1.2 -6.6 -0.55 -6.55 -0.3 Q-6.45 0.0 -6.45 0.3 -6.5 0.25 -6.55 0.2 L-6.9 0.0 -6.95 0.15 -7.0 0.25 -7.1 0.4 -7.15 0.4 Q-7.3 0.55 -7.5 0.6 L-7.75 0.6 -7.6 0.75 -7.3 0.95 -7.0 1.1 -6.95 1.15 -6.6 1.25 -6.55 1.3 -6.3 1.25 -6.15 1.35 -6.15 1.4 -6.05 1.45 -5.85 1.45 -6.0 1.55 -6.1 1.55 -6.15 1.65 -6.05 1.75 -6.05 1.8 -5.95 1.95 -5.85 2.15 Q-5.7 2.35 -5.5 2.6 L-5.55 3.0 Q-5.75 4.2 -5.6 5.3 -5.05 6.8 -3.95 8.05 L-3.95 8.2 -3.35 8.9 -3.35 8.95 -3.25 9.05 -2.1 10.15 -2.2 10.0 Q-2.65 9.2 -2.65 8.55 -2.65 8.35 -2.6 8.2 -2.5 8.0 -2.5 7.8 -2.5 7.55 -1.1 7.1 0.3 6.6 1.15 6.6 L1.15 6.55 1.25 6.6 Q1.3 6.65 1.3 6.75 1.3 7.0 -0.05 7.4 -0.55 7.7 -0.8 7.9 -0.85 8.05 -0.85 8.15 -0.85 8.65 -0.5 9.45 L-0.15 10.2 0.15 10.6 Q0.75 11.15 1.0 11.2 L1.8 11.2 Q2.05 11.15 2.3 10.75 2.4 10.55 2.5 10.5 2.5 10.2 2.7 10.1 L3.05 10.1 Q3.55 10.3 3.7 10.9 L3.7 11.05 4.2 11.05 Q4.25 10.95 4.35 10.75 4.5 10.6 4.65 10.5 4.65 10.3 4.7 10.15 L4.75 9.8 4.75 9.75 4.65 9.75 4.75 9.6 4.75 9.5 4.8 9.5 4.85 9.45 4.85 9.4 Q5.0 8.7 5.2 8.65 L5.25 8.7 5.3 8.8 5.3 8.9 5.4 8.75 5.45 8.65 5.7 8.05 Q6.0 7.3 6.1 6.95 6.05 6.8 6.05 6.6 L6.05 6.45 Q6.4 6.4 6.55 6.85 L6.7 7.25 Q7.05 6.7 7.3 6.15 L7.25 6.15 7.25 6.05 7.4 5.45 7.4 5.35 7.45 5.3 M-8.7 -1.95 L-8.75 -2.2 -8.8 -2.15 -8.8 -1.7 Q-8.75 -1.1 -8.5 -0.5 -8.3 0.05 -7.9 0.45 L-7.85 0.5 Q-7.95 0.15 -7.7 -0.1 -7.55 -0.25 -7.35 -0.35 L-7.55 -0.55 Q-7.95 -0.9 -8.3 -1.4 -8.55 -1.7 -8.7 -1.95 M-5.8 6.95 Q-6.1 6.35 -6.3 5.65 L-6.5 3.85 Q-6.6 3.35 -6.6 2.85 L-6.6 2.75 -6.65 2.3 -6.75 2.8 -6.75 2.85 -6.8 3.1 Q-6.9 4.45 -6.7 5.75 L-6.5 6.95 -6.35 7.35 Q-6.0 8.15 -5.4 8.65 L-4.85 9.0 Q-4.5 9.1 -4.2 9.25 L-4.1 9.3 -4.65 8.45 Q-5.35 7.8 -5.8 6.95 M-7.1 3.05 L-7.1 3.05 M-1.2 7.75 Q-1.1 7.6 -0.95 7.45 L-1.85 7.65 Q-2.05 7.8 -2.15 8.0 L-2.1 8.05 -2.05 8.35 -1.9 9.0 Q-1.85 9.25 -1.7 9.55 L-1.7 9.6 -1.35 10.25 Q-0.85 11.0 -0.15 11.7 0.3 12.2 0.9 12.65 L1.1 12.6 Q1.15 12.55 1.3 12.55 L3.05 12.4 3.75 12.25 4.0 12.0 4.0 11.95 Q4.0 11.85 4.15 11.7 L4.35 11.5 3.95 11.6 3.6 11.55 Q3.15 11.5 3.1 11.3 L3.05 11.1 Q2.95 10.95 2.8 10.8 L2.6 11.05 2.5 11.25 2.1 11.65 1.7 11.55 0.65 11.35 Q0.6 11.4 0.5 11.4 L0.2 11.35 Q-0.2 11.15 -0.6 10.45 L-0.8 10.1 -0.9 9.9 -1.05 9.55 -1.1 9.55 -1.15 9.4 -1.3 8.4 Q-1.3 7.95 -1.2 7.75 M-0.4 8.4 L-0.4 8.25 Q-0.2 7.8 0.9 7.55 L1.15 7.5 Q1.8 7.2 2.5 7.05 L3.15 6.85 4.9 6.45 5.7 6.7 5.7 6.75 5.75 6.75 6.05 7.05 4.6 7.15 Q3.15 7.45 1.75 8.05 L1.25 8.35 Q0.85 8.55 0.5 8.6 0.3 8.75 -0.05 8.85 L-0.1 8.85 -0.2 8.95 Q-0.35 8.75 -0.4 8.55 L-0.45 8.55 -0.45 8.5 -0.4 8.4" fill="#1a1a1a" fill-rule="evenodd" stroke="none"/>
    <path d="M-1.2 7.75 Q-1.3 7.95 -1.3 8.4 L-1.15 9.4 -1.1 9.55 -1.05 9.55 -0.9 9.9 -0.8 10.1 -0.6 10.45 Q-0.2 11.15 0.2 11.35 L0.5 11.4 Q0.6 11.4 0.65 11.35 L1.7 11.55 2.1 11.65 2.5 11.25 2.6 11.05 2.8 10.8 Q2.95 10.95 3.05 11.1 L3.1 11.3 Q3.15 11.5 3.6 11.55 L3.95 11.6 4.35 11.5 4.15 11.7 Q4.0 11.85 4.0 11.95 L4.0 12.0 3.75 12.25 3.05 12.4 1.3 12.55 Q1.15 12.55 1.1 12.6 L0.9 12.65 Q0.3 12.2 -0.15 11.7 -0.85 11.0 -1.35 10.25 L-1.7 9.6 -1.7 9.55 Q-1.85 9.25 -1.9 9.0 L-2.05 8.35 -2.1 8.05 -2.15 8.0 Q-2.05 7.8 -1.85 7.65 L-0.95 7.45 Q-1.1 7.6 -1.2 7.75" fill="#003366" fill-rule="evenodd" stroke="none"/>
    <path d="M-6.55 -5.85 L-6.3 -5.95 -6.25 -5.95 -6.1 -6.1 Q-5.9 -6.3 -5.6 -6.35 L-5.55 -6.45 -5.5 -6.65 Q-5.0 -7.75 -4.5 -8.25 L-4.25 -8.6 Q-4.25 -8.7 -4.15 -8.75 L-3.85 -8.15 Q-1.55 -9.05 -0.15 -8.05 1.3 -7.05 2.0 -5.6 2.65 -4.15 3.05 -3.0 3.4 -1.85 3.6 -0.55 3.8 0.7 4.25 1.8 L4.35 2.15 4.85 3.2 5.2 3.8 5.35 3.95 Q6.05 4.5 6.6 4.8 7.2 5.1 7.25 5.05 L7.35 5.2 7.45 5.3 7.4 5.35 7.4 5.45 7.25 6.05 7.25 6.15 7.3 6.15 Q7.05 6.7 6.7 7.25 L6.55 6.85 Q6.4 6.4 6.05 6.45 L6.05 6.6 Q6.05 6.8 6.1 6.95 6.0 7.3 5.7 8.05 L5.45 8.65 5.45 8.5 5.4 8.05 5.35 7.95 Q5.25 7.95 5.2 8.05 4.9 8.8 4.8 9.5 L4.75 9.5 4.75 9.6 4.65 9.75 4.75 9.75 4.75 9.8 4.7 10.15 Q4.2 10.55 3.7 10.9 3.55 10.3 3.05 10.1 L2.7 10.1 Q2.5 10.2 2.5 10.5 2.4 10.55 2.3 10.75 2.05 11.15 1.8 11.2 L1.0 11.2 Q0.75 11.15 0.15 10.6 L-0.15 10.2 -0.5 9.45 Q-0.85 8.65 -0.85 8.15 -0.85 8.05 -0.8 7.9 -0.55 7.7 -0.05 7.4 1.3 7.0 1.3 6.75 1.3 6.65 1.25 6.6 L1.15 6.55 1.15 6.6 Q0.3 6.6 -1.1 7.1 -2.5 7.55 -2.5 7.8 -2.5 8.0 -2.6 8.2 -2.65 8.35 -2.65 8.55 -3.4 7.6 -3.95 6.55 -4.95 4.8 -5.55 3.0 L-5.5 2.6 Q-5.7 2.35 -5.85 2.15 L-5.9 1.7 -5.9 1.85 -6.0 1.55 -5.85 1.45 -6.05 1.45 -6.05 1.3 -6.15 1.35 -6.3 1.25 -6.55 1.3 -6.6 1.25 -6.95 1.15 -7.0 1.1 -7.3 0.95 -7.1 0.95 -6.85 0.9 -7.0 0.25 -6.95 0.15 -6.55 0.55 -6.55 0.2 Q-6.5 0.25 -6.45 0.3 -6.45 0.0 -6.55 -0.3 L-6.6 -0.55 -6.9 -1.2 -6.95 -1.25 Q-7.45 -2.2 -8.35 -2.75 L-7.85 -2.75 Q-7.6 -2.6 -7.3 -2.5 L-6.8 -1.95 -6.8 -1.75 Q-6.65 -1.35 -6.5 -1.15 -6.3 -0.95 -6.05 -0.9 L-5.9 -1.35 -6.2 -2.35 -6.3 -2.7 -6.4 -2.55 -6.45 -2.6 -6.9 -3.1 -6.9 -3.15 -7.0 -3.3 -6.95 -3.45 -6.9 -3.35 Q-6.8 -3.6 -6.8 -3.9 L-6.8 -4.7 -6.75 -4.95 -6.5 -5.9 -6.6 -5.85 -6.55 -5.85 M-8.8 -1.7 L-8.8 -2.15 -8.75 -2.2 -8.7 -1.95 -8.8 -1.7 M-5.4 8.65 Q-6.0 8.15 -6.35 7.35 L-6.5 6.95 -6.7 5.75 Q-6.9 4.45 -6.8 3.1 L-6.75 2.85 -6.75 2.8 -6.65 2.3 -6.6 2.75 -6.6 2.85 Q-6.6 3.35 -6.5 3.85 L-6.3 5.65 Q-6.1 6.35 -5.8 6.95 -5.75 7.5 -5.6 8.1 L-5.4 8.65 M-7.1 3.05 L-7.1 3.05 M-0.4 8.4 L-0.45 8.5 -0.45 8.55 -0.4 8.55 Q-0.35 8.75 -0.2 8.95 L-0.1 8.85 -0.05 8.85 Q0.3 8.75 0.5 8.6 0.85 8.55 1.25 8.35 L1.75 8.05 Q3.15 7.45 4.6 7.15 L6.05 7.05 5.75 6.75 5.7 6.75 5.7 6.7 4.9 6.45 3.15 6.85 2.5 7.05 Q1.8 7.2 1.15 7.5 L0.9 7.55 Q-0.2 7.8 -0.4 8.25 L-0.4 8.4 M3.65 5.75 Q3.85 5.95 3.95 6.15 L4.05 6.15 4.0 6.05 3.65 5.75 M4.6 8.1 L4.45 7.95 Q4.35 7.85 4.15 7.85 L3.95 7.9 Q3.25 8.2 2.85 8.8 L2.75 9.0 2.5 9.25 2.4 9.4 2.2 9.65 2.25 9.65 Q2.8 9.55 3.1 9.3 L3.45 9.15 Q3.8 9.0 3.9 8.8 4.3 8.5 4.6 8.1 M0.5 9.4 L0.5 9.35 0.4 9.3 0.5 9.4" fill="#c7a36d" fill-rule="evenodd" stroke="none"/>
    <path d="M-7.0 0.25 L-6.85 0.9 -7.1 0.95 -7.3 0.95 -7.6 0.75 -7.5 0.6 Q-7.3 0.55 -7.15 0.4 L-7.1 0.4 -7.0 0.25 M-6.15 1.35 L-6.05 1.3 -6.05 1.45 -6.15 1.4 -6.15 1.35 M-6.0 1.55 L-5.9 1.85 -5.9 1.7 -5.85 2.15 -5.95 1.95 -6.05 1.8 -6.05 1.75 -6.15 1.65 -6.1 1.55 -6.0 1.55 M-5.55 3.0 Q-4.95 4.8 -3.95 6.55 -3.4 7.6 -2.65 8.55 -2.65 9.2 -2.2 10.0 L-2.1 10.15 -3.25 9.05 -3.35 8.95 -3.35 8.9 -3.95 8.2 -3.95 8.05 Q-5.05 6.8 -5.6 5.3 -5.75 4.2 -5.55 3.0 M3.7 10.9 Q4.2 10.55 4.7 10.15 4.65 10.3 4.65 10.5 4.5 10.6 4.35 10.75 4.25 10.95 4.2 11.05 L3.7 11.05 3.7 10.9 M4.75 9.8 L4.75 9.75 4.75 9.8 M4.8 9.5 Q4.9 8.8 5.2 8.05 5.25 7.95 5.35 7.95 L5.4 8.05 5.45 8.5 5.45 8.65 5.4 8.75 5.3 8.9 5.3 8.8 5.25 8.7 5.2 8.65 Q5.0 8.7 4.85 9.4 L4.85 9.45 4.8 9.5 M-8.8 -1.7 L-8.7 -1.95 Q-8.55 -1.7 -8.3 -1.4 -7.95 -0.9 -7.55 -0.55 -7.8 -0.3 -7.9 0.05 -7.95 0.25 -7.9 0.45 -8.3 0.05 -8.5 -0.5 -8.75 -1.1 -8.8 -1.7 M-5.4 8.65 L-5.6 8.1 Q-5.75 7.5 -5.8 6.95 -5.35 7.8 -4.65 8.45 L-4.1 9.3 -4.2 9.25 Q-4.5 9.1 -4.85 9.0 L-5.4 8.65 M4.6 8.1 Q4.3 8.5 3.9 8.8 3.8 9.0 3.45 9.15 L3.1 9.3 Q2.8 9.55 2.25 9.65 L2.2 9.65 2.4 9.4 2.5 9.25 2.75 9.0 2.85 8.8 Q3.25 8.2 3.95 7.9 L4.15 7.85 Q4.35 7.85 4.45 7.95 L4.6 8.1" fill="#a9854f" fill-rule="evenodd" stroke="none"/>
    <path d="M-6.55 0.2 L-6.55 0.55 -6.95 0.15 -6.9 0.0 -6.55 0.2 M-7.55 -0.55 L-7.35 -0.35 Q-7.55 -0.25 -7.7 -0.1 -7.95 0.15 -7.85 0.5 L-7.9 0.45 Q-7.95 0.25 -7.9 0.05 -7.8 -0.3 -7.55 -0.55 M-7.5 0.6 L-7.6 0.75 -7.75 0.6 -7.5 0.6" fill="#111111" fill-rule="evenodd" stroke="none"/>
    <path d="M0.5 9.4 L0.4 9.3 0.5 9.35 0.5 9.4" fill="#8c7c63" fill-rule="evenodd" stroke="none"/>
    <path d="M0.35 13.6 L0.5 13.6 0.4 13.65 0.35 13.6" fill="#a69375" fill-rule="evenodd" stroke="none"/>
  </g>
</svg>
