<?xml version="1.0" encoding="UTF-8" standalone="no"?>
<svg xmlns:ffdec="https://www.free-decompiler.com/flash" xmlns:xlink="http://www.w3.org/1999/xlink" ffdec:objectType="shape" height="23.2px" width="17.95px" xmlns="http://www.w3.org/2000/svg">
  <g transform="matrix(1.0, 0.0, 0.0, 1.0, 10.05, 9.05)">
    <path d="M-3.85 -8.7 Q-3.45 -9.0 -3.45 -8.4 -3.45 -8.15 -3.5 -7.75 -3.15 -8.15 -2.9 -8.55 L-1.95 -6.15 -2.85 1.0 -3.15 1.55 Q-4.6 4.75 -3.85 9.8 -8.25 9.1 -7.1 3.05 L-6.8 1.85 Q-9.25 2.35 -9.7 -1.15 -9.5 -4.0 -7.35 -3.55 L-7.2 -4.95 -7.05 -5.75 -5.7 -6.05 -5.5 -6.65 Q-4.8 -8.2 -4.1 -8.5 L-3.85 -8.7" fill="#c7a36d" fill-rule="evenodd" stroke="none"/>
    <path d="M-3.65 -1.4 L4.3 6.7 6.4 6.3 7.75 6.05 5.2 9.95 4.45 12.75 Q2.65 14.55 0.5 13.75 L-3.35 9.55 -4.35 9.55 Q-5.85 4.1 -4.75 0.75 L-4.5 0.1 Q-4.3 -0.4 -4.0 -0.85 L-3.65 -1.4" fill="#c7a36d" fill-rule="evenodd" stroke="none"/>
    <path d="M3.8 8.6 L3.65 8.75 Q3.4 9.15 3.05 9.2 L3.05 9.15 2.95 9.35 2.8 9.2 2.2 9.2 Q1.15 9.35 0.25 8.55 L-0.3 8.1 Q-0.75 7.75 -1.0 7.3 L-1.1 7.2 -1.05 7.05 Q-0.5 7.35 0.15 7.45 0.2 7.4 0.25 7.4 L4.15 7.9 3.8 8.55 3.75 8.55 Q3.8 8.35 3.5 8.4 L2.4 8.5 2.0 8.45 1.95 8.4 1.8 8.4 1.8 8.45 Q1.8 8.75 2.3 8.85 2.95 8.95 3.45 8.7 L3.8 8.6" fill="#ffffff" fill-rule="evenodd" stroke="none"/>
    <path d="M3.8 8.55 L3.8 8.6 3.45 8.7 Q2.95 8.95 2.3 8.85 1.8 8.75 1.8 8.45 L1.8 8.4 1.95 8.4 2.0 8.45 2.4 8.5 3.5 8.4 Q3.8 8.35 3.75 8.55 L3.8 8.55" fill="#cccccc" fill-rule="evenodd" stroke="none"/>
    <path d="M-7.6 -1.4 L-7.1 -0.05 -6.85 0.9 Q-8.35 1.2 -8.8 -0.55 -9.05 -1.6 -8.55 -2.15 L-7.6 -1.4 M-5.6 5.55 L-6.6 2.4 Q-6.75 1.55 -6.05 1.3 L-5.9 1.85 -5.9 1.7 -5.85 2.15 -5.8 2.25 Q-5.15 4.45 -3.95 6.55 -2.95 8.4 -1.45 9.95 -0.35 11.05 0.45 12.4 1.35 12.6 2.3 12.45 3.65 12.2 4.45 12.95 1.6 14.05 -0.65 12.75 L-3.45 9.7 -3.3 10.2 -3.6 9.75 -3.8 9.35 Q-5.15 9.8 -5.6 8.1 -5.85 7.05 -5.75 6.35 -5.35 7.1 -4.75 7.7 L-5.6 5.55 M-0.5 12.0 Q-1.6 11.1 -2.6 9.95 L-1.9 10.8 Q-1.25 11.55 -0.5 12.0 M1.8 10.95 Q2.0 10.5 2.5 10.3 2.8 10.15 3.15 10.15 3.5 10.6 2.65 10.95 2.2 11.15 1.8 10.95" fill="#a9854f" fill-rule="evenodd" stroke="none"/>
    <path d="M-7.2 -4.95 L-7.05 -5.75 -5.7 -6.05 -5.95 -3.1 -6.25 -2.0 -6.6 -2.3 Q-7.15 -3.1 -7.2 -4.15 L-7.2 -4.95" fill="#c7a36d" fill-rule="evenodd" stroke="none"/>
    <path d="M7.45 5.3 Q7.7 5.15 7.8 5.25 8.0 5.4 7.75 6.3 L7.7 6.5 7.45 7.25 Q6.95 8.25 6.1 9.35 5.55 10.05 5.2 10.85 5.15 12.15 4.35 13.25 4.2 13.45 3.9 13.6 3.1 14.05 2.35 14.1 L0.9 14.15 Q0.7 14.1 0.65 13.95 0.15 13.85 -0.3 13.2 L-0.5 12.95 Q-2.15 11.5 -3.55 9.75 L-3.6 9.6 -3.7 9.55 -4.25 8.8 Q-5.8 7.55 -6.3 5.65 L-6.4 4.75 Q-6.5 4.0 -6.55 3.2 L-5.9 4.95 -4.4 7.8 -4.35 7.7 -1.65 10.9 -1.05 11.55 Q0.0 12.6 1.15 13.45 L1.55 13.45 1.7 13.5 Q2.2 13.4 2.75 13.45 4.05 13.05 4.5 11.4 L4.55 11.15 Q4.45 10.3 4.75 9.65 L4.75 9.6 Q4.75 9.35 4.85 9.2 4.95 9.05 5.05 8.95 L5.1 9.25 Q5.35 8.85 5.65 8.5 L5.8 8.35 6.4 7.65 6.65 7.3 7.15 6.3 7.15 6.25 7.15 6.2 7.35 5.7 7.35 5.65 7.4 5.45 7.4 5.35 7.45 5.3 M4.5 7.35 L4.75 7.3 4.85 7.3 Q4.95 7.25 5.1 7.25 L5.15 7.25 Q5.05 7.45 4.9 7.65 L4.9 7.7 4.75 7.8 4.35 8.25 4.05 8.6 3.8 8.85 3.6 9.1 3.55 9.2 3.5 9.15 3.45 9.25 3.55 9.25 3.6 9.3 3.85 9.3 3.45 9.5 Q3.1 9.7 2.75 9.75 L2.65 9.75 1.5 9.7 1.35 9.7 1.35 9.65 1.05 9.65 Q0.9 9.65 0.8 9.6 L0.85 9.7 0.3 9.3 -0.3 8.75 Q-1.05 8.2 -1.6 7.15 L-1.75 6.75 -1.8 6.7 -1.8 6.5 -1.9 6.3 -1.8 6.35 -1.85 6.3 -1.85 6.25 -1.8 6.25 -1.75 6.3 -1.7 6.2 -1.6 6.35 Q-0.2 7.1 1.45 6.9 1.8 6.85 2.9 7.05 3.8 7.25 4.5 7.35 M-4.3 -6.85 L-5.75 -2.45 Q-5.8 -1.65 -6.05 -0.9 -6.3 -0.95 -6.5 -1.15 -6.65 -1.35 -6.8 -1.75 -6.9 -2.1 -6.75 -2.45 -6.4 -2.4 -6.25 -2.8 L-4.25 -8.55 -4.3 -6.85 M-4.15 -8.75 L-4.15 -8.8 -4.15 -8.75 M-6.65 -5.7 L-6.9 -5.5 -7.5 -5.55 -7.35 -6.35 -7.0 -6.45 Q-6.5 -6.25 -6.65 -5.7 M-0.85 7.5 Q-0.1 8.35 0.9 8.9 1.35 9.15 1.95 9.15 L3.2 9.2 Q3.3 8.75 3.6 8.3 3.75 8.1 3.95 7.9 L3.6 7.85 2.6 7.75 Q1.7 7.75 0.8 7.55 L-0.9 7.25 -1.1 7.2 -1.05 7.3 -0.85 7.5 M3.6 7.45 L3.5 7.45 3.65 7.5 3.65 7.45 3.6 7.45 M3.25 9.2 L3.25 9.2 M1.5 7.25 L1.5 7.25" fill="#1a1a1a" fill-rule="evenodd" stroke="none"/>
    <path d="M-4.15 -8.8 Q-3.7 -8.95 -1.2 -8.6 L-1.1 -8.6 0.05 -8.7 Q2.35 -8.45 2.75 -6.55 3.15 -4.65 3.25 -3.25 3.4 -1.85 3.6 -0.55 3.8 0.7 4.25 1.8 L4.35 2.15 4.85 3.2 5.2 3.8 5.35 3.95 Q6.05 4.5 6.6 4.8 7.2 5.1 7.25 5.05 L7.35 5.2 7.45 5.3 7.4 5.35 7.4 5.45 7.35 5.65 7.35 5.7 7.15 6.2 7.15 6.25 7.1 6.3 Q6.8 6.6 6.65 6.3 L6.4 6.5 6.2 6.45 Q6.25 6.7 6.05 6.9 5.6 7.35 5.0 6.8 L4.65 6.55 4.65 6.95 Q4.6 7.2 4.5 7.35 3.8 7.25 2.9 7.05 L2.6 6.95 2.4 6.9 2.75 6.95 Q1.7 6.6 0.75 5.75 -0.7 4.45 -1.6 3.45 L-2.55 2.4 -2.75 2.15 Q-3.1 1.75 -3.15 1.3 L-3.15 1.15 Q-3.15 0.9 -3.1 0.7 L-3.2 0.5 -3.65 -0.2 -4.15 -0.9 -4.2 -1.0 Q-4.4 -1.3 -4.45 -1.6 -4.55 -1.95 -4.4 -2.25 L-4.6 -2.65 Q-4.75 -3.05 -4.4 -3.25 L-4.35 -3.3 Q-4.05 -3.45 -3.75 -3.7 -3.75 -3.85 -3.7 -4.0 -3.65 -4.25 -3.4 -4.4 L-3.15 -4.5 Q-2.9 -4.55 -2.8 -4.65 L-2.8 -4.7 Q-3.0 -4.75 -3.0 -4.85 L-3.0 -4.95 -2.8 -5.85 -2.95 -6.0 -2.9 -6.2 Q-3.95 -6.4 -4.3 -6.85 L-4.25 -8.55 Q-4.25 -8.7 -4.15 -8.75 L-4.15 -8.8 M-2.85 -6.2 L-2.8 -6.15 Q-2.55 -6.0 -2.3 -6.1 L-2.85 -6.2" fill="#c7a36d" fill-rule="evenodd" stroke="none"/>
    <path d="M-8.45 -2.35 L-6.95 -0.85 Q-6.55 -0.2 -6.55 0.55 -6.9 0.2 -7.3 -0.25 L-7.4 0.15 Q-7.4 0.65 -7.7 0.8 -8.0 0.55 -7.9 0.05 -7.8 -0.3 -7.55 -0.55 L-8.45 -2.35" fill="#111111" fill-rule="evenodd" stroke="none"/>
    <path d="M-6.5 -5.9 L-6.75 -4.95 -6.8 -4.7 -6.8 -3.9 Q-6.8 -3.6 -6.9 -3.35 L-6.95 -3.45 -7.0 -3.3 -6.9 -3.15 -6.9 -3.1 -6.45 -2.6 Q-6.0 -2.05 -5.95 -1.35 -6.6 -1.6 -7.3 -2.5 -7.6 -2.6 -7.85 -2.75 L-8.35 -2.75 Q-7.45 -2.2 -6.95 -1.25 -6.5 -0.5 -6.45 0.3 L-6.9 0.0 Q-6.95 0.2 -7.15 0.4 -7.4 0.7 -7.75 0.6 -7.4 0.9 -6.95 1.15 L-6.6 1.25 -6.55 1.3 -6.3 1.25 Q-6.2 1.35 -6.15 1.4 L-5.85 1.45 -6.1 1.55 -6.15 1.65 -6.05 1.75 -6.05 1.8 -5.75 2.25 -5.5 2.6 Q-5.8 4.0 -5.6 5.3 -5.05 6.8 -3.95 8.05 L-3.95 8.25 -3.75 9.4 -3.75 9.6 -3.65 9.9 -3.7 9.85 -3.9 9.85 -3.9 9.9 Q-4.7 10.05 -5.45 9.5 L-5.95 9.15 Q-8.0 7.95 -8.0 4.4 -8.0 3.95 -7.9 3.55 -7.8 2.95 -7.55 2.45 L-7.5 2.1 Q-9.75 1.9 -10.05 -0.95 L-10.05 -1.55 Q-10.1 -3.55 -8.55 -4.5 L-7.8 -4.25 -7.65 -4.15 -7.6 -4.45 -7.55 -4.8 -7.55 -4.95 -7.45 -5.8 -7.3 -5.75 -7.25 -5.55 -7.05 -5.75 -6.5 -5.9 M-8.8 -2.15 Q-8.85 -1.35 -8.5 -0.5 -8.25 0.1 -7.85 0.5 -7.95 0.15 -7.7 -0.1 -7.55 -0.25 -7.35 -0.35 -7.85 -0.8 -8.3 -1.4 -8.7 -1.85 -8.75 -2.2 L-8.8 -2.15 M-6.65 2.3 L-6.75 2.8 -6.75 2.85 -6.8 3.1 Q-6.9 4.45 -6.7 5.75 L-6.5 6.95 -6.35 7.35 Q-5.9 8.5 -4.85 9.0 -4.5 9.1 -4.2 9.25 L-4.1 9.3 Q-5.1 7.85 -5.8 6.1 L-5.95 5.75 -6.35 4.6 Q-6.55 3.75 -6.6 2.85 L-6.6 2.75 -6.65 2.3" fill="#1a1a1a" fill-rule="evenodd" stroke="none"/>
    <path d="M-3.45 -8.4 L-3.6 -6.9 Q-3.6 -6.75 -3.75 -6.35 -3.9 -5.95 -3.9 -5.75 -3.9 -5.0 -4.5 -3.95 -4.8 -3.4 -5.15 -3.0 -5.15 -2.85 -5.0 -2.4 -4.85 -1.95 -4.85 -1.8 -4.85 -1.6 -4.95 -1.2 -5.1 -0.85 -5.05 -0.7 L-5.2 -0.5 Q-5.3 -0.3 -5.45 -0.3 -5.7 -0.3 -6.2 -2.35 L-6.5 -3.0 -6.45 -3.2 -6.35 -3.2 -6.25 -4.2 Q-6.15 -5.05 -6.15 -5.25 L-6.3 -5.4 Q-6.4 -5.55 -6.4 -5.65 -6.4 -5.9 -6.1 -6.1 -5.9 -6.3 -5.6 -6.35 -5.2 -7.15 -4.8 -7.8 -3.45 -9.95 -3.45 -8.4" fill="#c7a36d" fill-rule="evenodd" stroke="none"/>
  </g>
</svg>
