<?xml version="1.0" encoding="UTF-8" standalone="no"?>
<svg xmlns:ffdec="https://www.free-decompiler.com/flash" xmlns:xlink="http://www.w3.org/1999/xlink" ffdec:objectType="shape" height="13.7px" width="18.7px" xmlns="http://www.w3.org/2000/svg">
  <g transform="matrix(1.0, 0.0, 0.0, 1.0, 8.85, 13.65)">
    <path d="M-6.05 -1.45 L-6.15 -1.4 -6.8 -2.45 -7.0 -2.65 Q-7.2 -2.85 -7.4 -2.95 -7.6 -3.05 -7.85 -3.05 -7.95 -2.95 -8.05 -2.95 -8.25 -2.95 -8.3 -3.15 -8.45 -3.5 -8.5 -3.7 -8.6 -4.05 -8.7 -4.7 L-8.75 -5.05 -8.8 -5.35 -8.8 -6.4 -8.85 -6.6 -8.8 -6.75 -8.5 -7.55 Q-8.1 -8.7 -7.4 -9.7 L-7.3 -9.85 Q-6.5 -11.0 -5.5 -11.85 L-4.5 -12.35 Q-2.75 -13.2 -0.7 -13.65 1.8 -13.3 3.45 -12.55 L3.7 -12.4 4.1 -12.15 Q4.45 -11.95 4.8 -11.75 5.75 -11.05 6.6 -10.15 7.25 -9.45 7.8 -8.7 L8.35 -7.95 8.6 -7.55 Q8.95 -6.95 9.2 -6.4 L9.45 -5.8 9.5 -5.8 Q9.8 -4.65 9.85 -3.35 L9.85 -2.4 Q9.85 -1.75 9.7 -1.2 9.5 -0.6 9.05 0.05 8.9 0.0 8.9 -0.1 L8.85 -0.25 9.1 -1.8 9.2 -2.45 9.2 -3.0 Q9.15 -3.6 9.0 -4.55 L8.95 -4.8 8.7 -5.8 8.4 -6.4 7.85 -7.55 7.35 -8.35 Q6.9 -9.1 6.35 -9.75 4.75 -11.45 1.9 -12.5 0.75 -12.85 -0.3 -12.85 L-0.9 -12.8 Q-4.2 -12.2 -6.25 -9.55 -6.95 -8.7 -7.4 -7.7 L-7.45 -7.55 -7.7 -6.9 -7.9 -6.4 -8.05 -5.8 -8.0 -5.8 -8.1 -5.5 -8.1 -5.45 -8.05 -4.95 -7.95 -4.6 -7.85 -4.2 -7.6 -4.05 -7.4 -3.85 -6.7 -3.2 -6.6 -3.1 -6.35 -2.65 -6.25 -2.35 -6.0 -1.5 -6.05 -1.45" fill="#1a1a1a" fill-rule="evenodd" stroke="none"/>
    <path d="M9.2 -3.0 Q8.9 -3.6 8.35 -4.15 7.1 -5.55 5.05 -5.8 L4.0 -5.85 2.55 -5.8 Q0.25 -5.6 -1.5 -4.7 -2.4 -4.3 -3.5 -3.35 L-4.0 -2.65 -4.65 -1.75 -5.55 -0.35 Q-5.7 -0.35 -5.9 -0.9 L-6.05 -1.45 -6.0 -1.5 -6.25 -2.35 -6.35 -2.65 -6.6 -3.1 -6.7 -3.2 -7.4 -3.85 -7.6 -4.05 -7.85 -4.2 -7.95 -4.6 -8.05 -4.95 -8.1 -5.45 -8.1 -5.5 -8.0 -5.8 -8.05 -5.8 -7.9 -6.4 -7.7 -6.9 -7.45 -7.55 -7.4 -7.7 Q-6.95 -8.7 -6.25 -9.55 -4.2 -12.2 -0.9 -12.8 L-0.3 -12.85 Q0.75 -12.85 1.9 -12.5 4.75 -11.45 6.35 -9.75 6.9 -9.1 7.35 -8.35 L7.85 -7.55 8.4 -6.4 8.7 -5.8 8.95 -4.8 9.0 -4.55 Q9.15 -3.6 9.2 -3.0" fill="#c7a36d" fill-rule="evenodd" stroke="none"/>
  </g>
</svg>
