<?xml version="1.0" encoding="UTF-8" standalone="no"?>
<svg xmlns:ffdec="https://www.free-decompiler.com/flash" xmlns:xlink="http://www.w3.org/1999/xlink" ffdec:objectType="shape" height="28.3px" width="28.15px" xmlns="http://www.w3.org/2000/svg">
  <g transform="matrix(1.0, 0.0, 0.0, 1.0, 15.75, 15.8)">
    <path d="M-12.45 3.8 L-12.5 3.9 -12.45 3.8 M-10.2 9.45 L-9.95 9.5 -9.7 9.75 -9.8 9.7 -10.0 9.55 -10.2 9.45 M-3.65 -0.3 L-3.55 -0.35 -3.65 -0.2 -3.65 -0.3 M11.7 -0.5 L11.5 -0.45 11.55 -0.45 11.7 -0.5 M10.7 -0.35 Q10.6 -0.35 10.5 -0.4 L10.55 -0.45 Q10.6 -0.4 10.7 -0.35 M9.7 -4.75 L9.95 -4.75 9.95 -4.7 9.7 -4.75 M-9.9 6.45 L-9.9 6.45 M-4.4 2.75 L-4.4 2.65 -4.35 2.7 -4.35 2.75 -4.4 2.75 M-5.3 7.55 L-5.4 7.55 -5.25 7.45 -5.3 7.55" fill="#444444" fill-rule="evenodd" stroke="none"/>
    <path d="M-3.15 9.85 L-3.05 10.0 -2.9 10.1 Q-3.0 10.05 -3.05 10.0 L-3.15 9.9 -3.15 9.85 M-2.8 10.55 L-2.8 10.55" fill="#333333" fill-rule="evenodd" stroke="none"/>
    <path d="M-8.6 -8.15 Q-8.35 -8.7 -7.85 -9.15 -7.2 -9.8 -6.4 -9.9 -5.1 -8.95 -4.95 -7.2 L-4.95 -7.3 Q-4.85 -5.2 -4.5 -2.9 L-4.3 -1.85 -4.1 -1.35 Q-3.85 -1.7 -3.45 -2.05 -2.5 -2.8 -1.55 -3.45 -1.45 -2.4 -2.3 -1.2 L-2.75 -0.5 -3.2 0.7 Q-3.45 1.4 -3.55 2.1 -3.25 1.8 -3.0 1.45 -2.75 0.9 -2.4 0.4 -2.0 -0.25 -1.45 -0.7 -2.1 0.15 -2.65 1.45 -2.8 1.8 -4.0 5.4 L-4.25 6.15 -4.4 6.65 -4.55 7.0 -4.55 7.05 -4.7 7.65 -4.75 7.95 -4.85 8.4 -4.85 8.5 -4.9 8.65 -4.9 8.75 -6.2 8.65 Q-7.2 8.6 -8.2 8.05 -9.1 7.6 -9.85 7.05 -10.05 7.05 -10.2 7.15 L-10.2 7.4 Q-10.1 7.6 -10.05 7.8 L-10.05 7.85 -9.7 8.4 Q-8.8 9.6 -7.9 10.75 L-8.35 10.5 Q-9.0 10.2 -9.7 9.75 L-9.95 9.5 -10.2 9.45 Q-11.45 8.6 -13.0 7.4 -13.45 6.55 -12.95 5.25 L-12.95 4.9 Q-12.9 4.5 -12.75 4.2 L-12.5 3.9 -12.45 3.8 -12.4 3.7 Q-12.25 3.4 -12.1 3.1 L-12.05 3.3 -12.15 3.55 Q-12.3 4.0 -12.3 4.5 -12.3 5.5 -11.95 6.15 L-11.95 6.3 -11.85 6.25 Q-11.45 6.85 -10.75 7.05 L-10.9 6.8 -10.8 6.85 -11.05 6.65 -11.35 6.05 Q-11.3 5.45 -11.25 3.4 -11.2 1.1 -10.15 -3.05 -9.4 -6.3 -8.6 -8.15 M11.0 -1.2 L11.35 -1.4 Q11.5 -1.6 11.6 -1.85 11.65 -2.05 11.8 -2.2 L11.8 -1.45 11.75 -1.2 11.65 -0.85 11.45 -0.45 11.55 -0.45 11.5 -0.45 11.4 -0.3 11.2 -0.35 10.7 -0.35 Q10.6 -0.4 10.55 -0.45 L10.65 -0.5 Q10.95 -0.7 11.0 -1.0 L11.0 -1.2 M5.05 -4.75 L3.2 -4.65 Q2.7 -4.6 2.2 -4.65 1.15 -4.55 0.2 -4.65 1.0 -5.15 2.0 -5.4 3.85 -5.9 5.75 -5.9 L8.3 -5.7 Q9.3 -5.6 9.85 -5.05 L9.95 -4.75 9.7 -4.75 Q6.95 -5.35 5.05 -4.75 M-3.65 -0.3 L-3.65 -0.2 -3.55 -0.35 -3.65 -0.3 M-4.4 2.75 L-4.35 2.75 -4.35 2.7 -4.4 2.65 -4.4 2.75 M-9.9 6.45 L-9.9 6.45 M-5.3 7.55 L-5.25 7.45 -5.4 7.55 -5.3 7.55 M-4.25 9.7 L-4.0 10.0 Q-3.6 10.4 -3.3 10.75 -3.5 10.95 -3.75 11.05 L-3.9 10.9 -4.0 10.7 Q-4.25 10.3 -4.25 9.7" fill="#262626" fill-rule="evenodd" stroke="none"/>
    <path d="M-1.45 -0.7 Q-1.1 -1.2 -0.7 -1.55 0.7 -2.7 2.95 -2.7 4.25 -2.7 5.8 -2.3 6.9 -2.0 8.15 -1.7 L8.8 -1.5 Q9.45 -1.65 10.35 -1.6 L10.5 -1.6 10.75 -1.55 11.0 -1.45 11.0 -1.2 11.0 -1.0 Q10.95 -0.7 10.65 -0.5 L10.55 -0.45 10.5 -0.4 Q10.05 -0.2 9.85 -0.45 L9.55 -0.5 9.45 -0.5 Q8.9 -0.65 8.4 -0.85 7.95 -1.35 4.95 -1.9 1.9 -2.4 0.45 -1.6 -1.05 -0.75 -1.6 0.4 -2.1 1.5 -2.6 3.0 L-3.7 6.5 -3.95 7.35 -3.85 7.5 -3.95 7.4 -4.1 8.3 Q-3.9 8.6 -3.75 8.95 L-3.6 9.25 -3.6 9.3 Q-3.35 9.55 -3.15 9.85 L-3.15 9.9 -3.05 10.0 Q-3.0 10.05 -2.9 10.1 -2.7 10.35 -2.7 10.7 -2.6 10.95 -2.95 11.3 L-3.0 11.35 Q-3.15 11.65 -3.55 11.9 L-3.55 11.95 Q-3.85 12.1 -4.1 12.05 -5.2 12.5 -6.4 12.5 -6.55 12.5 -10.55 9.85 -10.75 9.7 -11.65 9.55 -12.55 9.35 -12.8 9.2 -14.65 8.2 -15.15 7.8 -15.75 7.25 -15.75 6.4 -15.75 5.7 -15.45 5.25 -15.3 5.0 -14.65 4.45 -13.1 3.1 -12.1 0.95 -12.0 0.7 -11.65 -0.65 L-11.0 -3.6 Q-9.95 -7.95 -8.95 -9.5 -5.75 -14.35 -3.5 -15.1 -1.3 -15.85 0.35 -15.75 L0.65 -15.7 0.6 -15.8 1.3 -15.75 Q2.75 -15.55 4.05 -14.75 4.9 -14.25 5.4 -13.45 7.65 -11.4 9.15 -8.7 10.3 -6.6 11.1 -4.4 11.65 -3.95 11.95 -3.4 12.35 -2.65 12.4 -1.5 12.45 -1.05 12.35 -0.7 L11.7 -0.5 11.55 -0.45 11.45 -0.45 11.65 -0.85 11.75 -1.2 11.8 -1.45 11.8 -2.2 11.8 -2.25 Q11.8 -2.45 11.4 -3.35 11.0 -4.3 4.85 -4.7 L5.05 -4.75 Q6.95 -5.35 9.7 -4.75 L9.95 -4.7 9.95 -4.75 9.85 -5.05 9.8 -5.2 5.5 -11.75 4.75 -12.65 Q3.6 -13.7 2.45 -14.2 1.05 -14.85 -0.8 -14.85 -2.6 -14.85 -4.55 -13.45 -6.8 -11.85 -8.2 -9.1 L-8.6 -8.15 Q-9.4 -6.3 -10.15 -3.05 -11.2 1.1 -11.25 3.4 -11.3 5.45 -11.35 6.05 L-11.05 6.65 -10.8 6.85 -10.9 6.8 -10.75 7.05 Q-11.45 6.85 -11.85 6.25 L-11.95 6.3 -11.95 6.15 Q-12.3 5.5 -12.3 4.5 -12.3 4.0 -12.15 3.55 L-12.05 3.3 -12.1 3.1 Q-12.25 3.4 -12.4 3.7 L-12.45 3.8 -12.5 3.9 -12.75 4.2 Q-13.4 5.1 -14.3 5.7 -14.3 5.9 -14.3 6.15 L-14.3 6.4 -13.0 7.4 Q-11.45 8.6 -10.2 9.45 L-10.0 9.55 -9.8 9.7 -9.7 9.75 Q-9.0 10.2 -8.35 10.5 L-7.9 10.75 Q-5.9 11.65 -4.45 11.65 -4.85 11.3 -4.95 10.5 L-4.95 8.95 -4.9 8.75 -4.9 8.65 -4.85 8.5 -4.85 8.4 -4.75 7.95 -4.7 7.65 -4.55 7.05 -4.55 7.0 -4.4 6.65 -4.25 6.15 -4.0 5.4 Q-2.8 1.8 -2.65 1.45 -2.1 0.15 -1.45 -0.7 M-2.8 10.55 L-2.8 10.55 M-4.25 9.7 Q-4.25 10.3 -4.0 10.7 L-3.9 10.9 -3.75 11.05 Q-3.5 10.95 -3.3 10.75 -3.6 10.4 -4.0 10.0 L-4.25 9.7" fill="#1a1a1a" fill-rule="evenodd" stroke="none"/>
    <path d="M-1.45 -0.7 Q-2.0 -0.25 -2.4 0.4 -2.75 0.9 -3.0 1.45 -3.25 1.8 -3.55 2.1 -3.45 1.4 -3.2 0.7 L-2.75 -0.5 -2.3 -1.2 Q-1.45 -2.4 -1.55 -3.45 -2.5 -2.8 -3.45 -2.05 -3.85 -1.7 -4.1 -1.35 L-4.3 -1.85 -4.5 -2.9 Q-4.85 -5.2 -4.95 -7.3 L-4.95 -7.2 Q-5.1 -8.95 -6.4 -9.9 -7.2 -9.8 -7.85 -9.15 -8.35 -8.7 -8.6 -8.15 L-8.2 -9.1 Q-6.8 -11.85 -4.55 -13.45 -2.6 -14.85 -0.8 -14.85 1.05 -14.85 2.45 -14.2 3.6 -13.7 4.75 -12.65 L5.5 -11.75 9.8 -5.2 9.85 -5.05 Q9.3 -5.6 8.3 -5.7 L5.75 -5.9 Q3.85 -5.9 2.0 -5.4 1.0 -5.15 0.2 -4.65 1.15 -4.55 2.2 -4.65 2.7 -4.6 3.2 -4.65 L5.05 -4.75 4.85 -4.7 Q11.0 -4.3 11.4 -3.35 11.8 -2.45 11.8 -2.25 L11.8 -2.2 Q11.65 -2.05 11.6 -1.85 11.5 -1.6 11.35 -1.4 L11.0 -1.2 11.0 -1.45 10.75 -1.55 10.5 -1.6 10.35 -1.6 Q9.45 -1.65 8.8 -1.5 L8.15 -1.7 Q6.9 -2.0 5.8 -2.3 4.25 -2.7 2.95 -2.7 0.7 -2.7 -0.7 -1.55 -1.1 -1.2 -1.45 -0.7 M-12.75 4.2 Q-12.9 4.5 -12.95 4.9 L-12.95 5.25 Q-13.45 6.55 -13.0 7.4 L-14.3 6.4 -14.3 6.15 Q-14.3 5.9 -14.3 5.7 -13.4 5.1 -12.75 4.2 M-7.9 10.75 Q-8.8 9.6 -9.7 8.4 L-10.05 7.85 -10.05 7.8 Q-10.1 7.6 -10.2 7.4 L-10.2 7.15 Q-10.05 7.05 -9.85 7.05 -9.1 7.6 -8.2 8.05 -7.2 8.6 -6.2 8.65 L-4.9 8.75 -4.95 8.95 -4.95 10.5 Q-4.85 11.3 -4.45 11.65 -5.9 11.65 -7.9 10.75" fill="#363636" fill-rule="evenodd" stroke="none"/>
  </g>
</svg>
