<?xml version="1.0" encoding="UTF-8" standalone="no"?>
<svg xmlns:ffdec="https://www.free-decompiler.com/flash" xmlns:xlink="http://www.w3.org/1999/xlink" ffdec:objectType="frame" height="183.4px" width="59.85px" xmlns="http://www.w3.org/2000/svg">
  <g transform="matrix(1.0, 0.0, 0.0, 1.0, 30.1, 93.45)">
    <use ffdec:characterId="666" height="26.2" transform="matrix(7.0, 0.0, 0.0, 7.0, -30.1, -93.45)" width="8.55" xlink:href="#shape0"/>
  </g>
  <defs>
    <g id="shape0" transform="matrix(1.0, 0.0, 0.0, 1.0, 4.3, 13.35)">
      <path d="M-2.6 -13.0 L-2.6 -13.0" fill="#696457" fill-rule="evenodd" stroke="none"/>
      <path d="M-0.5 -12.25 Q0.85 -11.5 1.7 -10.1 L1.9 -9.8 Q4.15 -0.8 2.45 8.6 1.95 11.35 -0.5 12.6 L-0.95 12.05 Q-1.3 11.3 -1.45 10.5 L-1.0 9.95 Q0.2 8.45 0.2 8.3 0.2 8.15 -0.4 5.6 -1.0 3.05 -1.0 1.1 L-0.85 -0.95 -0.85 -1.3 Q-0.35 -0.7 0.25 -0.35 L0.35 -0.4 Q0.2 -0.9 -0.3 -2.45 -0.65 -3.35 -0.65 -4.45 L-0.35 -8.75 Q-0.35 -10.4 -0.5 -12.25 M-1.65 8.2 L-1.65 8.0 -1.45 7.8 -1.4 7.9 -1.65 8.2" fill="#304040" fill-rule="evenodd" stroke="none"/>
      <path d="M-1.45 10.5 Q-1.65 9.6 -1.65 8.65 L-1.65 8.2 -1.4 7.9 -1.45 7.8 Q-1.15 7.4 -1.15 6.9 -1.3 6.0 -1.3 5.4 -1.3 5.1 -1.45 4.6 L-1.8 3.6 Q-2.3 2.05 -2.3 0.3 -2.3 -1.35 -2.1 -2.15 L-2.05 -2.25 Q-1.6 -1.8 -1.05 -1.4 L-0.95 -1.45 Q-1.6 -2.85 -2.05 -4.15 L-2.05 -4.25 -2.15 -4.45 -2.5 -5.45 -2.55 -5.55 Q-3.0 -7.2 -3.0 -8.25 -3.0 -9.35 -2.7 -10.45 L-2.7 -12.8 -2.85 -12.65 -2.8 -12.8 -2.7 -12.95 -2.6 -13.0 -2.45 -12.95 Q-1.4 -12.75 -0.5 -12.25 -0.35 -10.4 -0.35 -8.75 L-0.65 -4.45 Q-0.65 -3.35 -0.3 -2.45 0.2 -0.9 0.35 -0.4 L0.25 -0.35 Q-0.35 -0.7 -0.85 -1.3 L-0.85 -0.95 -1.0 1.1 Q-1.0 3.05 -0.4 5.6 0.2 8.15 0.2 8.3 0.2 8.45 -1.0 9.95 L-1.45 10.5 M-2.6 -13.0 L-2.6 -13.0" fill="#506060" fill-rule="evenodd" stroke="none"/>
      <path d="M-1.45 10.5 Q-1.3 11.3 -0.95 12.05 L-0.5 12.6 Q1.95 11.35 2.45 8.6 4.15 -0.8 1.9 -9.8 L1.7 -10.1 Q0.85 -11.5 -0.5 -12.25 -1.4 -12.75 -2.45 -12.95 L-2.6 -13.0 -2.7 -12.95 -2.8 -12.8 -2.85 -12.65 -2.7 -12.8 -2.7 -10.45 Q-3.0 -9.35 -3.0 -8.25 -3.0 -7.2 -2.55 -5.55 L-2.5 -5.45 -2.15 -4.45 -2.05 -4.25 -2.05 -4.15 Q-1.6 -2.85 -0.95 -1.45 L-1.05 -1.4 Q-1.6 -1.8 -2.05 -2.25 L-2.1 -2.15 Q-2.3 -1.35 -2.3 0.3 -2.3 2.05 -1.8 3.6 L-1.45 4.6 Q-1.3 5.1 -1.3 5.4 -1.3 6.0 -1.15 6.9 -1.15 7.4 -1.45 7.8 L-1.65 8.0 -1.65 8.2 -1.65 8.65 Q-1.65 9.6 -1.45 10.5 M2.7 -9.45 Q5.25 -0.6 3.6 8.55 2.6 14.15 -1.35 12.5 -1.9 12.25 -2.15 11.5 -2.85 9.5 -2.15 7.45 L-2.35 7.1 Q-2.25 6.95 -2.15 6.7 L-2.0 5.9 Q-2.0 5.8 -2.75 3.05 -3.25 1.3 -3.45 0.15 L-3.35 -0.7 -2.9 -3.05 -2.95 -3.1 -2.85 -3.4 Q-3.9 -5.9 -4.25 -8.55 -4.55 -11.15 -3.1 -13.3 -1.9 -13.45 -0.7 -13.0 -0.15 -12.85 0.3 -12.55 1.9 -11.55 2.55 -9.8 L2.7 -9.45" fill="#111111" fill-rule="evenodd" stroke="none"/>
    </g>
  </defs>
</svg>
