<?xml version="1.0" encoding="UTF-8" standalone="no"?>
<svg xmlns:ffdec="https://www.free-decompiler.com/flash" xmlns:xlink="http://www.w3.org/1999/xlink" ffdec:objectType="shape" height="64.4px" width="58.2px" xmlns="http://www.w3.org/2000/svg">
  <g transform="matrix(1.0, 0.0, 0.0, 1.0, 15.45, 15.45)">
    <path d="M-10.95 40.85 L-11.0 40.85 Q-11.4 41.05 -11.7 41.25 L-11.75 41.25 -11.8 41.3 -11.9 41.35 -12.2 41.65 -12.25 41.55 -12.55 39.2 Q-13.15 34.05 -13.4 32.4 L-13.45 32.4 Q-13.65 29.65 -13.65 26.95 -13.65 25.25 -13.5 22.35 L-13.3 18.85 Q-12.9 16.1 -12.0 13.2 L-11.85 12.65 Q-11.1 9.55 -9.95 6.45 L-9.55 5.4 -9.55 5.35 Q-8.3 2.05 -6.6 -0.8 L-6.4 -1.15 Q-5.35 -2.85 -4.15 -4.4 -3.15 -5.6 -2.1 -6.75 L-1.35 -7.5 -1.05 -7.85 -0.2 -8.6 0.1 -8.85 Q3.6 -11.95 8.15 -14.1 L8.4 -14.15 9.5 -14.3 Q12.65 -14.3 14.85 -13.4 L15.0 -13.35 15.35 -13.15 Q16.6 -12.35 17.65 -11.2 18.4 -10.75 18.85 -10.25 19.7 -9.4 20.5 -8.2 21.25 -7.15 21.65 -6.35 L21.85 -5.85 Q22.9 -3.05 23.6 -1.25 24.6 1.25 25.65 3.45 26.6 5.5 30.55 12.7 31.4 14.3 32.1 15.7 33.05 17.25 34.2 19.3 35.8 22.05 37.1 24.65 38.35 27.05 38.35 27.3 L38.35 27.5 38.7 28.25 38.4 28.15 38.2 28.15 37.9 28.3 37.75 28.3 37.55 28.35 Q37.0 28.6 36.85 29.2 L36.85 29.3 36.75 29.5 Q35.9 27.15 34.8 24.9 31.15 17.65 27.2 10.7 28.3 13.55 29.65 16.55 30.85 18.8 32.1 21.45 32.65 22.7 34.8 27.75 L36.3 31.05 Q36.45 31.25 36.6 31.65 36.8 32.2 36.9 32.75 L37.1 33.05 36.8 34.0 36.8 34.05 36.5 34.3 36.45 34.35 36.4 34.1 36.25 33.55 Q35.95 33.1 34.65 29.95 L33.85 27.85 33.15 26.4 Q31.1 22.6 28.9 18.9 L28.8 18.55 28.85 18.65 28.75 18.5 27.95 17.25 Q28.0 18.0 28.15 18.8 28.15 21.8 29.35 24.95 30.35 27.65 31.25 30.45 31.95 33.0 32.55 35.55 L32.55 35.8 Q32.55 35.9 32.65 36.0 31.85 36.05 30.95 36.0 29.75 35.95 28.9 35.3 27.8 34.45 26.65 33.8 L26.15 33.45 26.1 33.1 Q25.4 32.2 24.3 29.55 23.85 28.5 22.0 23.6 L21.65 22.55 Q21.1 21.1 20.5 19.2 L19.45 17.45 Q20.1 20.8 21.65 24.5 L21.85 25.0 25.2 32.7 Q24.55 32.15 23.8 31.75 22.75 31.15 21.65 30.8 20.25 30.3 18.8 30.2 18.2 30.4 17.55 30.45 L17.05 30.5 17.0 30.3 16.95 30.2 Q15.75 28.85 14.2 22.15 13.1 17.55 12.75 14.4 L12.35 12.1 Q12.15 10.55 11.95 9.05 11.9 13.7 12.6 18.55 L12.75 19.45 12.8 19.85 12.9 20.6 12.8 20.25 Q12.55 19.0 12.15 18.1 11.45 15.35 11.15 12.55 L11.15 12.1 11.1 12.15 11.05 11.7 11.0 12.3 Q10.6 13.05 10.45 13.9 8.7 17.7 9.1 22.1 9.4 25.4 9.5 28.65 L9.45 31.9 Q9.35 34.25 9.3 36.15 8.7 36.2 8.05 36.15 L4.4 35.85 4.25 35.85 Q2.6 35.8 1.2 35.3 L1.05 35.25 1.0 35.2 0.95 35.2 0.25 34.85 0.1 34.8 Q-1.1 34.55 -2.35 34.35 L-2.65 34.35 -2.75 34.3 Q-3.45 34.15 -4.15 34.05 -4.9 34.3 -5.7 34.35 L-5.75 34.4 -6.25 34.65 Q-7.8 35.05 -8.6 36.05 L-8.15 30.45 Q-7.55 23.05 -5.35 16.1 -6.1 17.5 -6.7 18.95 -6.3 17.85 -5.9 16.75 -5.05 15.15 -4.35 13.55 L-4.5 13.7 -4.45 13.55 -4.6 13.75 Q-4.95 14.05 -5.3 14.4 L-5.3 14.25 -5.65 14.8 Q-6.3 15.55 -6.75 16.45 -7.45 17.65 -7.75 18.95 L-7.85 19.2 Q-9.2 22.35 -9.65 25.9 -10.15 29.65 -10.35 33.35 -10.6 35.8 -10.8 38.2 L-10.75 38.95 Q-10.75 39.35 -10.85 40.45 L-10.85 40.8 -10.95 40.85 M30.9 11.7 L30.75 11.45 30.8 11.55 30.9 11.6 30.9 11.7 M36.35 18.35 L37.5 19.9 Q40.55 24.05 41.55 28.5 41.75 29.7 41.8 31.0 41.55 27.3 39.7 23.9 38.15 21.05 36.35 18.35 M41.8 34.55 L41.8 34.5 41.8 34.55 M38.65 25.3 Q37.95 23.8 37.05 22.3 L35.3 19.3 Q37.3 22.15 38.65 25.3" fill="#262626" fill-rule="evenodd" stroke="none"/>
    <path d="M11.05 -15.45 Q15.0 -14.85 17.8 -12.9 20.0 -11.35 21.45 -8.95 L21.65 -8.55 Q22.05 -7.65 22.5 -6.9 23.85 -2.7 25.7 1.3 L25.85 1.55 Q26.85 3.75 28.35 6.35 28.7 7.0 29.65 8.2 L29.85 8.55 Q31.85 10.95 33.75 13.45 34.05 13.7 34.35 13.95 L34.4 14.0 Q39.0 20.4 40.1 22.4 40.95 24.1 41.65 26.2 L42.2 28.1 42.35 29.25 Q42.75 33.05 42.75 34.05 L42.7 35.4 42.5 36.2 Q42.5 36.55 42.3 37.2 42.05 38.2 41.55 39.1 L41.5 38.85 41.5 38.9 41.35 37.15 40.95 34.95 40.6 32.85 Q40.55 32.45 40.25 31.75 L39.85 30.8 Q39.6 30.3 39.3 30.1 L39.3 29.95 39.25 30.0 Q38.75 29.4 38.2 29.45 37.85 29.45 37.6 29.85 37.35 30.25 37.35 30.8 37.35 31.3 38.1 33.55 L37.75 35.0 Q36.3 37.3 32.85 37.3 30.15 37.3 28.35 36.7 27.45 36.05 26.1 34.85 24.3 33.2 23.05 32.55 22.4 32.2 21.65 31.95 20.3 31.5 18.8 31.5 18.35 31.5 18.05 31.7 17.7 31.55 17.15 31.65 L17.1 31.85 17.1 32.15 Q17.1 32.55 16.55 33.35 15.9 34.3 14.85 35.15 11.85 37.45 7.3 37.45 L4.9 37.3 3.85 37.25 Q2.5 37.0 1.1 36.6 L-1.7 35.75 Q-2.95 35.4 -3.5 35.4 -7.0 35.4 -8.0 37.15 -8.35 37.75 -8.4 38.65 L-8.4 40.15 -8.65 40.6 Q-9.3 42.2 -11.3 42.8 L-11.55 42.75 -11.65 43.85 -11.65 43.9 -11.6 44.6 Q-11.35 46.0 -11.15 47.85 -11.15 48.15 -11.15 48.3 -11.2 48.4 -11.3 48.55 L-11.35 48.5 -11.25 48.95 -11.35 48.9 -11.35 48.85 Q-11.8 48.55 -12.2 48.15 L-12.3 48.1 Q-14.2 46.2 -14.65 42.55 -15.05 39.6 -15.2 36.7 -15.45 34.2 -15.45 31.05 -15.45 29.15 -15.2 27.0 L-15.2 26.45 -14.9 24.15 -14.85 23.05 Q-14.25 18.65 -13.2 14.3 -12.75 12.45 -11.8 9.0 -11.1 7.05 -10.65 5.5 L-10.05 3.95 Q-9.15 1.5 -7.95 -0.75 -6.9 -2.3 -5.15 -4.7 L-3.75 -6.75 -3.2 -7.25 Q-1.3 -9.1 -0.25 -10.3 3.1 -13.25 7.35 -15.05 L7.6 -15.15 9.1 -15.45 11.05 -15.45 M10.05 -14.95 L10.05 -14.95 M36.45 34.35 L36.5 34.3 36.8 34.05 36.8 34.0 37.1 33.05 36.9 32.75 Q36.8 32.2 36.6 31.65 36.45 31.25 36.3 31.05 L34.8 27.75 Q32.65 22.7 32.1 21.45 30.85 18.8 29.65 16.55 28.3 13.55 27.2 10.7 31.15 17.65 34.8 24.9 35.9 27.15 36.75 29.5 L36.85 29.3 36.85 29.2 Q37.0 28.6 37.55 28.35 L37.75 28.3 37.9 28.3 38.2 28.15 38.4 28.15 38.7 28.25 38.35 27.5 38.35 27.3 Q38.35 27.05 37.1 24.65 35.8 22.05 34.2 19.3 33.05 17.25 32.1 15.7 31.4 14.3 30.55 12.7 26.6 5.5 25.65 3.45 24.6 1.25 23.6 -1.25 22.9 -3.05 21.85 -5.85 L21.65 -6.35 Q21.25 -7.15 20.5 -8.2 19.7 -9.4 18.85 -10.25 18.4 -10.75 17.65 -11.2 16.6 -12.35 15.35 -13.15 L15.0 -13.35 14.85 -13.4 Q12.65 -14.3 9.5 -14.3 L8.4 -14.15 8.15 -14.1 Q3.6 -11.95 0.1 -8.85 L-0.2 -8.6 -1.05 -7.85 -1.35 -7.5 -2.1 -6.75 Q-3.15 -5.6 -4.15 -4.4 -5.35 -2.85 -6.4 -1.15 L-6.6 -0.8 Q-8.3 2.05 -9.55 5.35 L-9.55 5.4 -9.95 6.45 Q-11.1 9.55 -11.85 12.65 L-12.0 13.2 Q-12.9 16.1 -13.3 18.85 L-13.5 22.35 Q-13.65 25.25 -13.65 26.95 -13.65 29.65 -13.45 32.4 L-13.4 32.4 Q-13.15 34.05 -12.55 39.2 L-12.25 41.55 -12.2 41.65 -11.9 41.35 -11.8 41.3 -11.75 41.25 -11.7 41.25 Q-11.4 41.05 -11.0 40.85 L-10.95 40.85 -10.75 40.8 -10.1 40.25 -9.6 39.8 -9.45 39.5 -9.45 39.35 Q-9.05 38.7 -9.15 37.25 L-9.2 36.45 Q-9.4 31.35 -8.6 26.0 -8.0 22.3 -6.7 19.0 L-6.7 18.95 Q-6.1 17.5 -5.35 16.1 -7.55 23.05 -8.15 30.45 L-8.6 36.05 Q-7.8 35.05 -6.25 34.65 L-5.75 34.4 -5.7 34.35 Q-4.9 34.3 -4.15 34.05 -3.45 34.15 -2.75 34.3 L-2.65 34.35 -2.35 34.35 Q-1.1 34.55 0.1 34.8 L0.25 34.85 0.95 35.2 1.0 35.2 1.05 35.25 1.2 35.3 Q2.6 35.8 4.25 35.85 L4.4 35.85 8.05 36.15 Q8.7 36.2 9.3 36.15 L9.75 36.1 9.8 36.1 9.85 36.05 10.45 35.9 Q10.9 35.85 11.5 35.65 12.5 35.35 13.45 34.75 L13.8 34.55 14.4 34.2 Q16.05 33.15 16.05 32.25 16.05 31.65 14.45 26.45 L13.3 22.85 Q13.05 21.75 12.9 20.6 L12.8 19.85 12.75 19.45 12.6 18.55 Q11.9 13.7 11.95 9.05 12.15 10.55 12.35 12.1 L12.75 14.4 Q13.1 17.55 14.2 22.15 15.75 28.85 16.95 30.2 L17.0 30.3 17.05 30.5 17.55 30.45 Q18.2 30.4 18.8 30.2 20.25 30.3 21.65 30.8 22.75 31.15 23.8 31.75 24.55 32.15 25.2 32.7 L21.85 25.0 21.65 24.5 Q20.1 20.8 19.45 17.45 L20.5 19.2 Q21.1 21.1 21.65 22.55 L22.0 23.6 Q23.85 28.5 24.3 29.55 25.4 32.2 26.1 33.1 L26.15 33.45 26.65 33.8 Q27.8 34.45 28.9 35.3 29.75 35.95 30.95 36.0 31.85 36.05 32.65 36.0 33.6 35.95 34.5 35.7 35.5 35.15 36.45 34.35 M30.9 11.6 L30.8 11.55 30.75 11.45 30.9 11.7 35.3 19.3 37.05 22.3 Q37.95 23.8 38.65 25.3 40.9 29.9 41.8 34.5 L41.8 34.55 Q41.85 32.35 41.8 31.0 41.75 29.7 41.55 28.5 40.55 24.05 37.5 19.9 L36.35 18.35 Q34.3 15.6 32.15 12.85 L32.3 13.2 31.75 12.6 31.85 12.75 31.45 12.25 30.9 11.6 M-14.0 24.7 Q-14.3 26.55 -14.45 28.0 -14.65 29.85 -14.65 31.05 L-14.5 34.5 -14.35 38.0 Q-14.35 38.25 -14.25 39.15 L-14.1 40.3 Q-13.6 42.6 -12.3 46.45 L-12.15 46.3 -12.1 46.2 -12.25 45.85 -12.85 42.45 Q-12.9 41.45 -13.1 38.8 L-13.45 34.65 -14.0 28.2 -14.0 24.7" fill="#111111" fill-rule="evenodd" stroke="none"/>
    <path d="M10.05 -14.95 L10.05 -14.95 M11.25 16.3 L11.3 16.45 11.25 16.35 11.25 16.3 M9.85 36.05 L9.8 36.1 9.75 36.1 9.8 35.95 9.85 36.05" fill="#9eb66d" fill-rule="evenodd" stroke="none"/>
    <path d="M-10.95 40.85 L-10.85 40.8 -10.85 40.45 Q-10.75 39.35 -10.75 38.95 L-10.8 38.2 Q-10.6 35.8 -10.35 33.35 -10.15 29.65 -9.65 25.9 -9.2 22.35 -7.85 19.2 L-7.75 18.95 Q-7.45 17.65 -6.75 16.45 -6.3 15.55 -5.65 14.8 L-5.3 14.25 -5.3 14.4 Q-4.95 14.05 -4.6 13.75 L-4.45 13.55 -4.5 13.7 -4.35 13.55 Q-5.05 15.15 -5.9 16.75 -6.3 17.85 -6.7 18.95 L-6.7 19.0 Q-8.0 22.3 -8.6 26.0 -9.4 31.35 -9.2 36.45 L-9.15 37.25 Q-9.05 38.7 -9.45 39.35 L-9.45 39.5 -9.6 39.8 -10.1 40.25 -10.75 40.8 -10.95 40.85 M9.3 36.15 Q9.35 34.25 9.45 31.9 L9.5 28.65 Q9.4 25.4 9.1 22.1 8.7 17.7 10.45 13.9 10.6 13.05 11.0 12.3 L11.05 11.7 11.1 12.15 11.15 12.1 11.15 12.55 Q11.45 15.35 12.15 18.1 12.55 19.0 12.8 20.25 L12.9 20.6 Q13.05 21.75 13.3 22.85 L14.45 26.45 Q16.05 31.65 16.05 32.25 16.05 33.15 14.4 34.2 L13.8 34.55 13.45 34.75 Q12.5 35.35 11.5 35.65 10.9 35.85 10.45 35.9 L9.85 36.05 9.8 35.95 9.75 36.1 9.3 36.15 M32.65 36.0 Q32.55 35.9 32.55 35.8 L32.55 35.55 Q31.95 33.0 31.25 30.45 30.35 27.65 29.35 24.95 28.15 21.8 28.15 18.8 28.0 18.0 27.95 17.25 L28.75 18.5 28.85 18.65 28.8 18.55 28.9 18.9 Q31.1 22.6 33.15 26.4 L33.85 27.85 34.65 29.95 Q35.95 33.1 36.25 33.55 L36.4 34.1 36.45 34.35 Q35.5 35.15 34.5 35.7 33.6 35.95 32.65 36.0 M30.9 11.7 L30.9 11.6 31.45 12.25 31.85 12.75 31.75 12.6 32.3 13.2 32.15 12.85 Q34.3 15.6 36.35 18.35 38.15 21.05 39.7 23.9 41.55 27.3 41.8 31.0 41.85 32.35 41.8 34.55 L41.8 34.5 Q40.9 29.9 38.65 25.3 37.3 22.15 35.3 19.3 L30.9 11.7 M11.25 16.3 L11.25 16.35 11.3 16.45 11.25 16.3 M-14.0 24.7 L-14.0 28.2 -13.45 34.65 -13.1 38.8 Q-12.9 41.45 -12.85 42.45 L-12.25 45.85 -12.1 46.2 -12.15 46.3 -12.3 46.45 Q-13.6 42.6 -14.1 40.3 L-14.25 39.15 Q-14.35 38.25 -14.35 38.0 L-14.5 34.5 -14.65 31.05 Q-14.65 29.85 -14.45 28.0 -14.3 26.55 -14.0 24.7" fill="#363636" fill-rule="evenodd" stroke="none"/>
  </g>
</svg>
