<?xml version="1.0" encoding="UTF-8" standalone="no"?>
<svg xmlns:ffdec="https://www.free-decompiler.com/flash" xmlns:xlink="http://www.w3.org/1999/xlink" ffdec:objectType="shape" height="64.85px" width="64.25px" xmlns="http://www.w3.org/2000/svg">
  <g transform="matrix(1.0, 0.0, 0.0, 1.0, 13.95, 16.15)">
    <path d="M9.7 -15.65 Q9.85 -15.8 10.1 -15.9 10.75 -16.05 13.65 -16.15 19.2 -14.6 22.05 -10.45 23.05 -9.0 23.95 -6.85 L25.4 -3.4 Q26.65 -0.65 29.75 3.3 L33.75 8.15 Q41.9 13.75 45.85 19.45 50.1 25.55 50.1 32.75 50.1 33.65 50.3 35.85 50.3 37.4 49.8 38.2 49.7 38.5 49.4 38.7 L46.95 31.75 Q45.9 28.8 45.0 26.55 L44.25 26.45 43.2 26.25 Q41.05 26.25 39.9 27.7 39.5 28.2 39.3 28.8 39.1 29.3 39.1 29.55 L39.1 29.6 Q40.0 31.45 40.0 33.15 40.0 33.6 39.9 34.05 39.8 34.5 39.65 34.7 L39.55 34.95 Q39.1 36.2 38.25 37.25 35.95 40.15 31.9 40.15 28.55 40.15 27.3 37.95 26.95 37.35 26.75 36.6 26.2 35.05 25.9 32.65 L25.5 31.8 Q24.4 30.0 22.5 30.0 20.4 30.0 19.65 30.9 19.55 31.1 19.4 31.35 19.45 31.75 19.45 32.0 L19.45 32.15 19.5 32.75 Q19.5 34.35 18.3 35.8 16.75 37.6 13.7 38.2 L10.3 38.2 Q8.25 38.25 6.1 37.45 4.55 36.9 2.45 35.7 L-0.75 33.95 Q-2.4 33.1 -3.55 33.1 -4.55 33.1 -5.55 34.2 L-6.35 35.15 -6.3 36.15 -6.3 36.45 Q-6.25 36.95 -6.25 37.4 -6.25 39.55 -8.45 41.85 L-10.1 43.55 Q-10.9 44.3 -11.15 44.8 -10.5 48.1 -10.5 48.4 L-10.5 48.6 Q-10.5 48.7 -10.55 48.7 -10.8 48.25 -11.35 46.35 -12.25 44.45 -12.9 40.9 -13.8 36.25 -13.8 32.45 L-13.8 32.05 Q-13.95 29.75 -13.95 28.7 -13.95 27.5 -13.75 25.95 L-13.75 25.3 Q-13.35 18.5 -12.7 14.2 -11.75 8.05 -9.85 2.9 -8.5 -0.7 -5.6 -4.45 -2.9 -8.0 0.55 -10.8 4.0 -13.65 7.15 -14.9 8.5 -15.45 9.65 -15.6 L9.7 -15.65 M38.65 30.95 Q38.4 30.3 38.1 29.85 L36.35 27.45 Q35.25 26.0 34.65 24.95 33.0 22.15 31.95 20.15 30.6 17.45 29.85 15.3 L29.95 15.3 Q31.4 18.85 35.5 24.3 37.5 27.0 38.4 28.3 38.5 28.05 38.65 27.75 39.25 26.75 40.05 26.0 42.0 24.1 44.2 24.7 40.6 16.8 34.65 10.9 26.3 2.65 24.4 -2.9 24.05 -4.15 23.65 -5.35 22.8 -7.65 21.5 -9.45 17.85 -14.55 11.15 -15.0 -3.1 -10.75 -8.95 3.75 -12.4 12.15 -12.85 24.3 L-12.85 24.55 -12.9 25.55 -12.95 28.35 -12.95 31.6 Q-12.85 32.6 -12.75 33.75 L-12.65 35.05 Q-12.55 36.0 -12.55 36.5 L-12.55 36.6 Q-12.45 38.1 -12.35 38.7 L-12.3 39.05 -12.2 39.4 -12.15 39.7 -12.1 39.95 -11.4 43.5 Q-11.25 43.0 -10.8 42.45 L-9.25 40.85 -8.75 40.2 -8.6 40.05 -7.4 37.65 -7.4 37.55 -7.35 37.4 -7.2 36.8 Q-7.3 36.25 -7.35 35.55 -7.4 34.9 -7.4 33.7 -7.4 26.8 -7.15 24.15 -6.95 21.95 -6.4 19.6 -5.85 17.0 -4.95 14.2 -5.1 14.75 -5.85 19.9 -6.7 25.5 -6.7 26.8 -6.7 29.7 -6.5 33.0 L-6.45 33.5 -5.95 33.0 Q-4.6 31.7 -3.6 31.7 -2.15 31.7 -0.55 32.5 0.4 33.0 2.45 34.25 4.45 35.45 6.3 36.0 8.85 36.8 11.95 36.8 L12.0 36.8 13.5 36.75 Q16.3 36.45 17.6 35.05 L17.75 34.9 18.15 34.35 18.2 34.25 Q18.5 33.7 18.7 32.95 18.25 30.9 17.45 28.4 L15.65 23.15 15.2 21.65 Q14.5 19.55 14.15 17.95 13.55 15.1 13.55 12.55 13.55 11.75 13.6 10.95 L13.8 10.95 Q14.0 16.75 16.05 21.5 16.8 23.3 17.85 26.25 18.7 28.55 19.1 30.05 19.25 29.75 19.55 29.55 20.7 28.55 23.1 28.5 24.55 28.85 25.55 29.9 25.4 28.6 25.1 27.65 24.45 25.35 23.15 22.65 21.9 20.0 20.4 17.8 L20.5 17.8 Q21.75 18.7 23.1 21.1 24.35 23.3 25.4 26.35 26.4 29.2 27.0 32.05 27.5 34.35 27.6 36.05 27.75 36.35 27.9 36.65 29.2 38.65 31.9 38.65 33.5 38.65 35.0 37.95 35.7 37.6 36.35 37.15 L36.45 37.1 Q37.1 36.6 37.65 36.05 38.05 35.65 38.15 35.45 L38.2 35.4 Q39.0 33.85 39.1 33.35 L39.05 33.05 Q38.85 32.6 38.85 31.8 L38.8 31.75 38.65 30.95 M49.25 32.75 Q49.25 29.15 48.1 25.95 47.05 23.0 44.85 19.95 42.9 17.3 39.75 14.1 L38.1 12.5 Q37.5 12.3 36.95 12.05 40.05 15.85 41.0 17.1 43.9 21.1 44.8 24.05 44.95 24.4 45.2 25.1 45.4 25.25 45.5 25.5 L45.6 25.95 Q46.3 27.65 47.6 30.55 48.65 32.95 49.2 34.7 L49.25 32.75" fill="#111111" fill-rule="evenodd" stroke="none"/>
    <path d="M-8.75 40.2 L-8.85 39.25 Q-9.05 37.5 -9.1 35.35 L-9.15 33.5 Q-9.15 29.0 -8.4 24.7 -7.65 20.05 -6.1 16.5 L-6.25 17.5 -6.3 18.3 Q-6.3 18.5 -6.4 19.4 L-6.4 19.6 Q-6.95 21.95 -7.15 24.15 -7.4 26.8 -7.4 33.7 -7.4 34.9 -7.35 35.55 -7.3 36.25 -7.2 36.8 L-7.35 37.4 -7.4 37.55 -7.4 37.65 -8.6 40.05 -8.75 40.2 M11.95 36.8 L11.95 35.45 Q11.75 33.85 10.85 28.75 10.2 25.4 10.2 22.7 10.2 18.65 10.65 15.9 11.2 12.5 12.5 10.25 12.75 9.65 13.05 9.35 L13.0 10.75 12.95 11.75 13.05 12.9 Q13.1 13.9 13.1 14.4 13.05 15.15 13.25 15.8 13.45 16.5 13.45 16.95 13.45 18.05 14.35 20.0 L15.2 21.65 15.65 23.15 17.45 28.4 Q18.25 30.9 18.7 32.95 18.5 33.7 18.2 34.25 L18.15 34.35 17.75 34.9 17.6 35.05 Q16.3 36.45 13.5 36.75 L12.0 36.8 11.95 36.8 M35.0 37.95 Q34.4 34.35 33.9 33.05 33.7 32.4 32.9 30.75 L31.55 27.7 Q29.85 23.75 29.85 21.9 L29.9 20.9 Q30.0 20.2 30.05 19.65 L30.2 19.65 Q31.1 22.15 33.25 24.8 34.4 26.2 37.75 29.6 38.2 30.05 38.6 30.9 L38.65 30.95 38.8 31.75 38.85 31.8 Q38.85 32.6 39.05 33.05 L39.1 33.35 Q39.0 33.85 38.2 35.4 L38.15 35.45 Q38.05 35.65 37.65 36.05 37.1 36.6 36.45 37.1 L36.35 37.15 Q35.7 37.6 35.0 37.95 M49.25 32.75 L49.2 34.7 Q48.65 32.95 47.6 30.55 46.3 27.65 45.6 25.95 L45.5 25.5 Q45.4 25.25 45.2 25.1 44.95 24.4 44.8 24.05 43.9 21.1 41.0 17.1 40.05 15.85 36.95 12.05 37.5 12.3 38.1 12.5 L39.75 14.1 Q42.9 17.3 44.85 19.95 47.05 23.0 48.1 25.95 49.25 29.15 49.25 32.75" fill="#363636" fill-rule="evenodd" stroke="none"/>
    <path d="M-8.75 40.2 L-9.25 40.85 -10.8 42.45 Q-11.25 43.0 -11.4 43.5 L-12.1 39.95 -12.15 39.7 -12.2 39.4 -12.3 39.05 -12.35 38.7 Q-12.45 38.1 -12.55 36.6 L-12.55 36.5 Q-12.55 36.0 -12.65 35.05 L-12.75 33.75 Q-12.85 32.6 -12.95 31.6 L-12.95 28.35 -12.9 25.55 -12.85 24.55 -12.85 24.3 Q-12.4 12.15 -8.95 3.75 -3.1 -10.75 11.15 -15.0 17.85 -14.55 21.5 -9.45 22.8 -7.65 23.65 -5.35 24.05 -4.15 24.4 -2.9 26.3 2.65 34.65 10.9 40.6 16.8 44.2 24.7 42.0 24.1 40.05 26.0 39.25 26.75 38.65 27.75 38.5 28.05 38.4 28.3 37.5 27.0 35.5 24.3 31.4 18.85 29.95 15.3 L29.85 15.3 Q30.6 17.45 31.95 20.15 33.0 22.15 34.65 24.95 35.25 26.0 36.35 27.45 L38.1 29.85 Q38.4 30.3 38.65 30.95 L38.6 30.9 Q38.2 30.05 37.75 29.6 34.4 26.2 33.25 24.8 31.1 22.15 30.2 19.65 L30.05 19.65 Q30.0 20.2 29.9 20.9 L29.85 21.9 Q29.85 23.75 31.55 27.7 L32.9 30.75 Q33.7 32.4 33.9 33.05 34.4 34.35 35.0 37.95 33.5 38.65 31.9 38.65 29.2 38.65 27.9 36.65 27.75 36.35 27.6 36.05 27.5 34.35 27.0 32.05 26.4 29.2 25.4 26.35 24.35 23.3 23.1 21.1 21.75 18.7 20.5 17.8 L20.4 17.8 Q21.9 20.0 23.15 22.65 24.45 25.35 25.1 27.65 25.4 28.6 25.55 29.9 24.55 28.85 23.1 28.5 20.7 28.55 19.55 29.55 19.25 29.75 19.1 30.05 18.7 28.55 17.85 26.25 16.8 23.3 16.05 21.5 14.0 16.75 13.8 10.95 L13.6 10.95 Q13.55 11.75 13.55 12.55 13.55 15.1 14.15 17.95 14.5 19.55 15.2 21.65 L14.35 20.0 Q13.45 18.05 13.45 16.95 13.45 16.5 13.25 15.8 13.05 15.15 13.1 14.4 13.1 13.9 13.05 12.9 L12.95 11.75 13.0 10.75 13.05 9.35 Q12.75 9.65 12.5 10.25 11.2 12.5 10.65 15.9 10.2 18.65 10.2 22.7 10.2 25.4 10.85 28.75 11.75 33.85 11.95 35.45 L11.95 36.8 Q8.85 36.8 6.3 36.0 4.45 35.45 2.45 34.25 0.4 33.0 -0.55 32.5 -2.15 31.7 -3.6 31.7 -4.6 31.7 -5.95 33.0 L-6.45 33.5 -6.5 33.0 Q-6.7 29.7 -6.7 26.8 -6.7 25.5 -5.85 19.9 -5.1 14.75 -4.95 14.2 -5.85 17.0 -6.4 19.6 L-6.4 19.4 Q-6.3 18.5 -6.3 18.3 L-6.25 17.5 -6.1 16.5 Q-7.65 20.05 -8.4 24.7 -9.15 29.0 -9.15 33.5 L-9.1 35.35 Q-9.05 37.5 -8.85 39.25 L-8.75 40.2" fill="#262626" fill-rule="evenodd" stroke="none"/>
  </g>
</svg>
