<?xml version="1.0" encoding="UTF-8" standalone="no"?>
<svg xmlns:ffdec="https://www.free-decompiler.com/flash" xmlns:xlink="http://www.w3.org/1999/xlink" ffdec:objectType="shape" height="65.2px" width="64.3px" xmlns="http://www.w3.org/2000/svg">
  <g transform="matrix(1.0, 0.0, 0.0, 1.0, 13.25, 16.55)">
    <path d="M16.85 -14.6 Q20.05 -12.3 23.65 -7.2 25.25 -4.6 27.9 0.3 30.4 4.6 33.35 7.7 L33.8 8.15 Q37.15 10.9 39.0 12.5 42.9 15.95 45.35 18.8 48.15 22.1 49.55 25.35 51.05 28.9 51.05 32.7 51.05 37.55 49.7 37.5 L49.5 37.55 Q48.85 35.05 48.05 32.05 46.65 26.85 45.7 24.35 L44.55 24.25 Q42.8 24.25 41.7 25.3 41.1 26.0 40.8 26.95 L40.3 28.8 40.05 29.5 Q41.0 31.3 41.35 32.7 41.55 32.95 41.6 33.35 41.65 33.65 41.65 34.4 41.65 35.1 41.2 36.0 40.65 37.05 39.65 37.9 37.1 40.15 33.0 40.15 30.1 40.15 28.6 39.35 27.3 38.6 26.75 37.0 26.4 35.95 26.2 33.45 L25.95 31.0 25.85 30.85 25.35 29.9 Q24.5 28.6 22.9 28.6 21.4 28.6 20.35 30.1 20.1 30.5 19.75 31.3 L19.7 31.35 Q19.85 32.2 19.85 33.1 L19.85 33.35 Q19.85 33.55 19.75 33.8 L19.55 34.5 Q19.15 35.5 18.45 36.35 16.4 38.7 12.55 38.7 10.4 38.7 8.1 37.65 6.6 37.0 4.1 35.4 1.45 33.7 0.3 33.15 -1.8 32.1 -3.6 32.1 -4.45 32.1 -5.05 32.95 -5.25 33.2 -5.4 33.5 L-5.3 34.3 Q-5.1 35.35 -5.1 35.65 -5.1 36.8 -5.55 38.4 -5.95 39.7 -6.5 41.0 -6.65 41.35 -7.45 42.25 -8.15 43.1 -8.55 43.35 -9.45 44.1 -9.65 44.75 L-9.75 45.3 -9.8 45.5 -9.15 48.25 Q-9.15 48.45 -9.2 48.5 L-9.25 48.6 -9.35 48.65 -9.75 48.0 Q-11.05 46.6 -12.2 40.1 -13.25 33.85 -13.25 29.45 -13.25 28.6 -13.2 28.25 L-13.2 22.6 Q-12.65 15.95 -11.95 12.05 -10.85 5.7 -8.65 0.85 -3.45 -10.6 8.7 -15.5 9.95 -16.3 11.25 -16.45 L11.6 -16.55 11.65 -16.45 Q14.1 -16.55 16.85 -14.6 M39.1 30.35 Q37.65 27.4 35.3 23.75 L31.5 18.0 Q29.25 14.65 28.1 12.5 L28.2 12.45 Q28.75 13.4 31.25 16.6 34.25 20.45 35.75 22.55 37.95 25.65 39.3 28.1 39.5 26.7 39.95 25.8 40.7 24.4 42.1 23.85 43.3 23.05 45.0 22.8 43.55 19.7 41.2 17.05 40.15 15.85 38.5 14.25 L35.25 11.2 Q31.9 8.15 29.25 4.45 26.7 1.0 25.05 -2.5 23.35 -6.15 20.75 -9.3 15.8 -15.3 10.45 -15.3 10.2 -15.2 9.9 -15.1 L9.8 -15.05 7.15 -13.55 Q2.2 -10.75 -0.95 -8.0 -3.15 -6.15 -5.2 -3.15 -7.05 -0.45 -8.1 2.0 -11.95 11.3 -12.35 22.7 L-12.35 28.05 -12.2 30.25 Q-11.95 34.35 -11.75 36.3 -11.55 38.6 -10.35 43.4 L-9.95 42.95 -8.95 42.0 -8.35 41.45 Q-7.3 40.4 -6.75 39.3 -6.05 37.8 -6.05 35.8 L-6.55 32.2 Q-7.05 28.35 -7.05 27.15 -7.05 22.55 -6.65 19.5 -6.25 16.0 -5.3 13.75 -5.0 13.05 -4.65 12.45 -5.5 16.15 -5.85 18.8 -6.25 21.8 -6.25 24.95 -6.25 28.1 -5.65 31.9 L-5.65 31.95 Q-5.5 31.65 -5.2 31.4 -4.55 30.85 -3.4 30.8 -0.8 30.65 2.55 32.85 4.25 34.2 6.35 35.35 9.85 37.25 12.5 37.25 L12.65 37.25 13.95 37.2 Q16.9 36.8 18.25 34.85 18.7 34.15 19.05 33.15 18.4 30.8 17.55 28.5 L16.5 25.8 15.8 24.05 Q14.9 21.75 14.55 20.25 14.05 18.25 14.05 16.2 L14.05 16.15 14.0 15.9 13.9 14.85 13.75 13.55 13.9 10.75 13.95 10.75 Q14.15 14.95 15.1 18.5 15.75 20.9 17.1 23.9 18.65 27.45 19.0 28.4 19.2 29.0 19.35 29.55 19.65 29.0 20.15 28.55 21.25 27.55 22.85 27.3 24.35 27.1 25.4 27.75 24.8 25.35 23.65 23.0 22.0 19.7 19.65 17.45 22.15 18.65 24.15 21.85 25.85 24.6 26.5 27.65 26.75 29.1 27.2 33.1 27.5 35.5 27.85 36.45 28.3 37.65 29.45 38.15 30.55 38.6 33.0 38.6 34.65 38.6 36.05 38.2 L36.1 38.2 Q36.9 37.95 37.6 37.6 38.75 36.95 39.6 35.95 L39.8 35.65 39.85 35.6 Q40.35 34.95 40.65 34.2 40.1 32.45 39.1 30.35 M50.1 32.7 Q50.1 27.85 47.55 23.5 45.8 20.5 42.45 17.3 44.0 19.35 45.2 21.4 45.9 22.75 47.8 28.2 49.35 32.65 49.8 34.85 50.1 33.15 50.1 32.7" fill="#111111" fill-rule="evenodd" stroke="none"/>
    <path d="M-8.95 42.0 L-8.95 40.85 Q-8.95 40.0 -8.65 33.85 L-8.25 26.0 Q-8.05 21.6 -7.4 18.6 -6.5 14.5 -4.55 11.55 -4.55 11.6 -4.8 12.15 -5.1 12.7 -5.1 12.8 -5.1 13.0 -5.2 13.3 -5.3 13.6 -5.3 13.75 -6.25 16.0 -6.65 19.5 -7.05 22.55 -7.05 27.15 -7.05 28.35 -6.55 32.2 L-6.05 35.8 Q-6.05 37.8 -6.75 39.3 -7.3 40.4 -8.35 41.45 L-8.95 42.0 M12.5 37.25 Q12.2 33.0 12.1 32.15 L11.2 27.1 Q10.45 23.05 10.45 21.35 10.45 18.5 11.05 15.9 12.0 12.5 12.6 9.95 12.75 9.5 12.85 9.35 12.9 11.35 14.0 15.9 L14.05 16.15 14.05 16.2 Q14.05 18.25 14.55 20.25 14.9 21.75 15.8 24.05 L16.5 25.8 17.55 28.5 Q18.4 30.8 19.05 33.15 18.7 34.15 18.25 34.85 16.9 36.8 13.95 37.2 L12.65 37.25 12.5 37.25 M36.05 38.2 L36.0 38.15 Q34.7 33.7 34.1 32.3 32.5 29.05 31.75 27.4 30.45 24.45 30.4 22.45 L30.4 20.3 30.5 20.3 Q30.7 23.35 34.15 26.45 35.15 27.35 36.85 28.6 38.45 29.75 38.8 30.05 L39.1 30.35 Q40.1 32.45 40.65 34.2 40.35 34.95 39.85 35.6 L39.8 35.65 39.6 35.95 Q38.75 36.95 37.6 37.6 36.9 37.95 36.1 38.2 L36.05 38.2 M50.1 32.7 Q50.1 33.15 49.8 34.85 49.35 32.65 47.8 28.2 45.9 22.75 45.2 21.4 44.0 19.35 42.45 17.3 45.8 20.5 47.55 23.5 50.1 27.85 50.1 32.7" fill="#363636" fill-rule="evenodd" stroke="none"/>
    <path d="M-8.95 42.0 L-9.95 42.95 -10.35 43.4 Q-11.55 38.6 -11.75 36.3 -11.95 34.35 -12.2 30.25 L-12.35 28.05 -12.35 22.7 Q-11.95 11.3 -8.1 2.0 -7.05 -0.45 -5.2 -3.15 -3.15 -6.15 -0.95 -8.0 2.2 -10.75 7.15 -13.55 L9.8 -15.05 9.9 -15.1 Q10.2 -15.2 10.45 -15.3 15.8 -15.3 20.75 -9.3 23.35 -6.15 25.05 -2.5 26.7 1.0 29.25 4.45 31.9 8.15 35.25 11.2 L38.5 14.25 Q40.15 15.85 41.2 17.05 43.55 19.7 45.0 22.8 43.3 23.05 42.1 23.85 40.7 24.4 39.95 25.8 39.5 26.7 39.3 28.1 37.95 25.65 35.75 22.55 34.25 20.45 31.25 16.6 28.75 13.4 28.2 12.45 L28.1 12.5 Q29.25 14.65 31.5 18.0 L35.3 23.75 Q37.65 27.4 39.1 30.35 L38.8 30.05 Q38.45 29.75 36.85 28.6 35.15 27.35 34.15 26.45 30.7 23.35 30.5 20.3 L30.4 20.3 30.4 22.45 Q30.45 24.45 31.75 27.4 32.5 29.05 34.1 32.3 34.7 33.7 36.0 38.15 L36.05 38.2 Q34.65 38.6 33.0 38.6 30.55 38.6 29.45 38.15 28.3 37.65 27.85 36.45 27.5 35.5 27.2 33.1 26.75 29.1 26.5 27.65 25.85 24.6 24.15 21.85 22.15 18.65 19.65 17.45 22.0 19.7 23.65 23.0 24.8 25.35 25.4 27.75 24.35 27.1 22.85 27.3 21.25 27.55 20.15 28.55 19.65 29.0 19.35 29.55 19.2 29.0 19.0 28.4 18.65 27.45 17.1 23.9 15.75 20.9 15.1 18.5 14.15 14.95 13.95 10.75 L13.9 10.75 13.75 13.55 13.9 14.85 14.0 15.9 Q12.9 11.35 12.85 9.35 12.75 9.5 12.6 9.95 12.0 12.5 11.05 15.9 10.45 18.5 10.45 21.35 10.45 23.05 11.2 27.1 L12.1 32.15 Q12.2 33.0 12.5 37.25 9.85 37.25 6.35 35.35 4.25 34.2 2.55 32.85 -0.8 30.65 -3.4 30.8 -4.55 30.85 -5.2 31.4 -5.5 31.65 -5.65 31.95 L-5.65 31.9 Q-6.25 28.1 -6.25 24.95 -6.25 21.8 -5.85 18.8 -5.5 16.15 -4.65 12.45 -5.0 13.05 -5.3 13.75 -5.3 13.6 -5.2 13.3 -5.1 13.0 -5.1 12.8 -5.1 12.7 -4.8 12.15 -4.55 11.6 -4.55 11.55 -6.5 14.5 -7.4 18.6 -8.05 21.6 -8.25 26.0 L-8.65 33.85 Q-8.95 40.0 -8.95 40.85 L-8.95 42.0" fill="#262626" fill-rule="evenodd" stroke="none"/>
  </g>
</svg>
