<?xml version="1.0" encoding="UTF-8" standalone="no"?>
<svg xmlns:ffdec="https://www.free-decompiler.com/flash" xmlns:xlink="http://www.w3.org/1999/xlink" ffdec:objectType="shape" height="63.55px" width="63.85px" xmlns="http://www.w3.org/2000/svg">
  <g transform="matrix(1.0, 0.0, 0.0, 1.0, 12.9, 15.45)">
    <path d="M3.65 -12.85 Q7.0 -15.2 9.85 -15.2 L11.6 -15.45 Q15.55 -14.9 18.1 -13.45 20.25 -12.3 21.75 -10.3 22.5 -9.35 24.0 -6.7 25.3 -4.45 26.35 -3.35 L28.35 -0.05 Q29.65 2.2 30.5 3.5 31.6 5.15 32.65 6.55 L38.45 11.0 Q43.1 14.6 44.65 16.1 48.5 20.5 49.7 22.95 50.95 25.45 50.95 29.1 50.95 32.45 50.85 33.5 50.6 35.25 49.65 38.3 L49.45 38.35 49.4 38.45 49.4 38.5 49.2 38.5 Q49.0 38.5 47.75 33.15 46.15 26.55 45.65 24.95 45.4 23.95 44.85 22.85 L44.7 22.85 Q42.15 22.85 40.85 25.2 40.2 26.4 40.1 27.6 40.1 27.8 40.25 28.25 L40.4 28.75 Q41.65 31.55 41.65 34.35 L41.65 34.85 Q41.6 35.0 41.5 35.1 41.4 35.6 41.15 36.3 40.6 37.6 39.65 38.7 37.1 41.7 32.95 41.7 28.5 41.7 27.2 37.1 26.8 35.6 26.65 33.25 L26.5 30.2 Q26.35 29.55 26.25 29.35 25.55 27.6 23.55 27.6 21.65 27.6 20.7 28.85 20.55 29.05 20.05 29.85 L19.85 30.15 Q19.95 30.9 19.95 31.6 L19.9 32.9 Q19.8 33.45 19.5 33.8 19.1 35.1 18.45 36.2 16.35 39.65 12.75 39.65 10.0 39.65 7.9 38.3 6.6 37.45 4.85 35.35 2.95 33.15 1.95 32.4 0.15 31.05 -2.25 31.05 -3.0 31.05 -3.6 31.5 -4.0 31.75 -4.2 32.0 -4.0 33.15 -4.0 33.65 -4.0 37.65 -6.75 41.15 -7.45 42.0 -8.65 43.35 -9.55 44.4 -9.55 44.95 L-9.5 45.25 -9.45 45.4 Q-8.6 47.35 -8.6 47.4 -8.6 47.75 -8.8 47.95 -8.95 48.1 -9.1 48.1 -10.9 48.1 -12.1 38.1 -12.45 34.95 -12.75 31.2 L-12.9 28.05 Q-12.9 22.75 -12.0 15.7 -11.0 7.6 -9.55 4.25 -7.85 0.35 -6.8 -1.55 -4.9 -4.95 -2.4 -7.4 L0.4 -10.15 Q2.15 -11.8 3.65 -12.85 M40.5 34.6 L40.7 33.7 Q40.55 33.2 40.4 32.5 39.95 30.55 39.35 29.5 L37.75 26.55 Q36.65 24.65 35.8 23.75 33.35 21.15 31.5 17.8 29.65 14.05 28.5 12.15 L28.55 12.15 Q30.1 14.9 32.7 18.2 34.15 20.05 36.95 23.45 38.4 25.25 39.35 26.85 39.6 25.75 40.25 24.65 41.25 23.15 42.65 22.25 43.45 21.7 44.1 21.55 43.2 20.1 41.9 18.45 39.9 15.95 35.7 11.7 31.9 7.85 28.4 2.55 27.25 0.85 25.65 -1.8 L23.2 -5.75 Q20.5 -10.0 18.4 -11.8 15.65 -14.1 12.25 -14.1 9.2 -14.1 7.3 -13.5 5.95 -12.6 4.05 -11.15 -0.8 -7.45 -2.05 -6.1 -4.4 -3.6 -6.25 -0.35 -7.6 2.05 -8.85 5.25 -10.1 8.3 -11.1 16.1 -12.05 23.35 -12.05 28.1 -12.05 28.7 -11.7 32.65 -11.4 36.3 -11.2 37.55 L-10.55 40.65 -10.0 43.4 Q-9.8 43.0 -9.4 42.5 L-7.85 40.8 -7.55 40.45 Q-4.95 37.35 -4.95 33.75 -4.95 33.35 -5.1 32.2 L-5.5 29.6 Q-6.0 25.5 -6.0 21.6 -6.0 18.7 -5.95 17.4 L-5.9 16.8 Q-5.65 14.25 -4.65 11.85 -5.1 14.9 -5.25 18.2 L-5.3 24.2 Q-5.3 25.9 -4.65 29.3 L-4.4 30.7 Q-4.15 30.3 -3.6 30.05 -2.6 29.55 -1.1 29.7 0.4 29.85 1.8 30.6 3.35 31.4 4.2 32.65 L5.1 33.9 Q5.95 34.95 6.8 35.75 9.5 38.15 12.8 38.15 L13.65 38.1 Q14.5 38.0 15.25 37.65 16.9 36.85 18.05 34.85 18.6 33.85 19.05 32.55 L18.3 28.85 Q17.75 26.2 17.1 24.4 L16.8 23.6 Q14.95 19.35 14.6 18.25 L14.55 18.2 14.55 18.05 14.35 17.35 14.2 16.7 14.15 16.5 Q13.85 14.95 13.85 13.3 L13.9 12.4 14.0 11.2 14.05 11.2 Q14.1 13.35 15.05 16.2 15.55 17.8 17.05 21.35 18.5 24.75 19.05 26.55 19.4 27.65 19.6 28.7 20.15 27.95 20.75 27.25 22.75 25.2 24.15 25.9 25.1 26.15 26.05 27.45 25.3 24.6 23.4 21.6 22.65 20.4 21.6 19.05 L20.8 18.0 Q20.8 17.8 20.8 17.85 L20.85 17.95 20.85 17.9 Q23.8 20.3 25.6 23.3 27.45 26.45 27.45 29.2 L27.45 29.95 Q27.6 30.35 27.6 30.65 27.6 31.05 27.5 31.25 L27.5 31.35 Q27.5 32.7 27.55 33.45 27.7 35.6 28.15 36.95 29.2 40.2 32.9 40.2 36.45 40.2 38.5 38.15 39.1 37.55 39.55 36.75 L39.6 36.7 39.6 36.65 39.65 36.65 40.5 34.6 M48.2 22.45 Q47.0 20.65 44.65 17.95 43.35 16.45 41.0 14.75 L37.1 12.0 37.9 12.85 41.25 16.3 Q43.0 18.1 43.35 18.6 44.5 20.1 45.45 21.75 45.95 22.1 46.05 22.9 L46.15 23.15 46.4 23.95 48.15 30.2 Q49.05 33.65 49.4 35.65 L49.5 35.15 Q50.0 33.15 50.0 32.25 L50.1 28.55 Q50.1 26.8 49.75 25.6 49.35 24.15 48.2 22.45" fill="#111111" fill-rule="evenodd" stroke="none"/>
    <path d="M-7.85 40.8 L-7.55 39.35 Q-6.9 36.35 -6.9 34.95 -7.25 27.45 -7.25 26.45 -7.25 25.15 -6.45 20.45 L-5.95 17.4 Q-6.0 18.7 -6.0 21.6 -6.0 25.5 -5.5 29.6 L-5.1 32.2 Q-4.95 33.35 -4.95 33.75 -4.95 37.35 -7.55 40.45 L-7.85 40.8 M13.65 38.1 Q13.3 33.55 13.1 32.65 13.0 32.25 11.7 28.05 10.6 24.5 10.6 23.1 10.6 19.95 10.95 17.75 11.35 15.6 12.4 12.3 L12.25 12.95 Q12.2 13.35 12.15 13.55 12.35 12.75 12.6 11.85 12.55 12.2 12.75 13.75 L12.8 14.15 13.15 14.8 14.15 16.5 14.2 16.7 14.35 17.35 14.55 18.05 14.55 18.2 14.6 18.25 Q14.95 19.35 16.8 23.6 L17.1 24.4 Q17.75 26.2 18.3 28.85 L19.05 32.55 Q18.6 33.85 18.05 34.85 16.9 36.85 15.25 37.65 14.5 38.0 13.65 38.1 M38.5 38.15 L38.55 38.1 Q37.85 38.85 36.95 39.3 L36.75 38.5 Q35.45 34.0 34.65 32.45 L33.1 29.5 Q32.3 28.05 31.9 27.15 30.9 24.85 30.9 22.25 L31.0 21.65 Q31.05 21.2 31.0 20.9 L31.1 20.9 Q30.8 23.0 33.8 25.75 34.5 26.4 36.35 27.95 37.85 29.2 38.45 29.85 39.4 30.9 40.45 34.35 L40.5 34.55 40.5 34.6 39.65 36.65 39.6 36.65 39.6 36.7 39.55 36.75 Q39.1 37.55 38.5 38.15 M48.2 22.45 Q49.35 24.15 49.75 25.6 50.1 26.8 50.1 28.55 L50.0 32.25 Q50.0 33.15 49.5 35.15 L49.4 35.65 Q49.05 33.65 48.15 30.2 L46.4 23.95 46.15 23.15 46.05 22.9 Q45.95 22.1 45.45 21.75 44.5 20.1 43.35 18.6 43.0 18.1 41.25 16.3 L37.9 12.85 37.1 12.0 41.0 14.75 Q43.35 16.45 44.65 17.95 47.0 20.65 48.2 22.45" fill="#363636" fill-rule="evenodd" stroke="none"/>
    <path d="M-7.85 40.8 L-9.4 42.5 Q-9.8 43.0 -10.0 43.4 L-10.55 40.65 -11.2 37.55 Q-11.4 36.3 -11.7 32.65 -12.05 28.7 -12.05 28.1 -12.05 23.35 -11.1 16.1 -10.1 8.3 -8.85 5.25 -7.6 2.05 -6.25 -0.35 -4.4 -3.6 -2.05 -6.1 -0.8 -7.45 4.05 -11.15 5.95 -12.6 7.3 -13.5 9.2 -14.1 12.25 -14.1 15.65 -14.1 18.4 -11.8 20.5 -10.0 23.2 -5.75 L25.65 -1.8 Q27.25 0.85 28.4 2.55 31.9 7.85 35.7 11.7 39.9 15.95 41.9 18.45 43.2 20.1 44.1 21.55 43.45 21.7 42.65 22.25 41.25 23.15 40.25 24.65 39.6 25.75 39.35 26.85 38.4 25.25 36.95 23.45 34.15 20.05 32.7 18.2 30.1 14.9 28.55 12.15 L28.5 12.15 Q29.65 14.05 31.5 17.8 33.35 21.15 35.8 23.75 36.65 24.65 37.75 26.55 L39.35 29.5 Q39.95 30.55 40.4 32.5 40.55 33.2 40.7 33.7 L40.5 34.6 40.5 34.55 40.45 34.35 Q39.4 30.9 38.45 29.85 37.85 29.2 36.35 27.95 34.5 26.4 33.8 25.75 30.8 23.0 31.1 20.9 L31.0 20.9 Q31.05 21.2 31.0 21.65 L30.9 22.25 Q30.9 24.85 31.9 27.15 32.3 28.05 33.1 29.5 L34.65 32.45 Q35.45 34.0 36.75 38.5 L36.95 39.3 Q37.85 38.85 38.55 38.1 L38.5 38.15 Q36.45 40.2 32.9 40.2 29.2 40.2 28.15 36.95 27.7 35.6 27.55 33.45 27.5 32.7 27.5 31.35 L27.5 31.25 Q27.6 31.05 27.6 30.65 27.6 30.35 27.45 29.95 L27.45 29.2 Q27.45 26.45 25.6 23.3 23.8 20.3 20.85 17.9 L20.85 17.95 20.8 17.85 Q20.8 17.8 20.8 18.0 L21.6 19.05 Q22.65 20.4 23.4 21.6 25.3 24.6 26.05 27.45 25.1 26.15 24.15 25.9 22.75 25.2 20.75 27.25 20.15 27.95 19.6 28.7 19.4 27.65 19.05 26.55 18.5 24.75 17.05 21.35 15.55 17.8 15.05 16.2 14.1 13.35 14.05 11.2 L14.0 11.2 13.9 12.4 13.85 13.3 Q13.85 14.95 14.15 16.5 L13.15 14.8 12.8 14.15 12.75 13.75 Q12.55 12.2 12.6 11.85 12.35 12.75 12.15 13.55 12.2 13.35 12.25 12.95 L12.4 12.3 Q11.35 15.6 10.95 17.75 10.6 19.95 10.6 23.1 10.6 24.5 11.7 28.05 13.0 32.25 13.1 32.65 13.3 33.55 13.65 38.1 L12.8 38.15 Q9.5 38.15 6.8 35.75 5.95 34.95 5.1 33.9 L4.2 32.65 Q3.35 31.4 1.8 30.6 0.4 29.85 -1.1 29.7 -2.6 29.55 -3.6 30.05 -4.15 30.3 -4.4 30.7 L-4.65 29.3 Q-5.3 25.9 -5.3 24.2 L-5.25 18.2 Q-5.1 14.9 -4.65 11.85 -5.65 14.25 -5.9 16.8 L-5.95 17.4 -6.45 20.45 Q-7.25 25.15 -7.25 26.45 -7.25 27.45 -6.9 34.95 -6.9 36.35 -7.55 39.35 L-7.85 40.8" fill="#262626" fill-rule="evenodd" stroke="none"/>
  </g>
</svg>
