<?xml version="1.0" encoding="UTF-8" standalone="no"?>
<svg xmlns:ffdec="https://www.free-decompiler.com/flash" xmlns:xlink="http://www.w3.org/1999/xlink" ffdec:objectType="shape" height="64.1px" width="62.6px" xmlns="http://www.w3.org/2000/svg">
  <g transform="matrix(1.0, 0.0, 0.0, 1.0, 11.65, 16.05)">
    <path d="M13.9 -15.5 Q15.5 -15.05 17.1 -14.15 18.55 -13.35 19.25 -12.65 22.85 -9.1 25.1 -5.75 26.55 -3.6 29.3 1.1 30.35 2.8 31.5 4.25 32.2 4.95 33.05 5.7 34.35 6.85 37.3 9.05 40.3 11.3 41.75 12.55 44.15 14.6 45.7 16.5 48.85 20.3 50.05 24.45 50.95 27.7 50.95 32.25 50.95 32.9 50.75 33.95 50.5 35.25 50.2 35.7 50.1 35.95 49.9 36.1 48.25 28.15 45.65 22.9 45.2 21.95 44.65 21.05 L44.6 21.0 Q44.25 20.9 44.1 20.9 41.3 20.9 40.55 24.85 40.3 26.15 40.25 27.85 L40.25 28.2 Q40.75 29.15 40.75 29.55 L40.75 29.9 40.85 30.6 Q40.95 31.15 40.95 32.4 40.95 33.1 40.55 34.3 40.05 35.85 39.2 37.15 36.8 40.8 32.6 40.8 28.2 40.8 27.0 36.6 26.6 35.15 26.45 32.85 26.35 30.3 26.2 29.25 26.1 28.0 25.6 26.55 25.3 26.45 24.7 26.0 23.95 25.45 23.5 25.45 21.85 25.45 20.95 27.15 20.65 27.7 20.45 28.25 20.75 29.2 20.75 29.8 L20.7 30.3 20.7 30.6 Q20.7 34.4 18.25 37.3 17.1 38.65 15.75 39.4 14.35 40.15 13.0 40.15 11.0 40.15 9.15 38.55 8.05 37.65 6.0 35.05 4.0 32.5 2.8 31.5 0.9 29.9 -1.25 29.9 -1.75 29.9 -2.65 30.45 -3.2 30.8 -3.45 30.9 -3.3 31.7 -3.3 31.9 -3.3 34.1 -3.55 35.25 -3.75 36.5 -4.65 38.95 -4.85 39.5 -5.8 40.45 L-7.65 42.2 Q-8.75 43.25 -9.2 43.95 -9.75 44.9 -9.4 45.5 L-9.45 45.55 Q-9.15 47.1 -8.8 48.0 L-8.85 48.05 Q-10.6 45.35 -11.25 37.15 -11.65 32.25 -11.65 24.85 -11.65 17.75 -11.15 14.05 -10.5 8.7 -8.35 2.7 -7.4 -0.05 -5.6 -2.85 -3.7 -5.8 -1.1 -8.45 2.8 -12.45 7.55 -14.85 9.6 -15.85 10.85 -16.05 11.6 -16.15 11.95 -15.9 12.8 -15.85 13.9 -15.5 M39.5 30.0 Q38.7 28.5 37.6 26.75 36.75 25.35 34.45 21.95 30.25 15.75 28.95 12.65 L29.05 12.55 Q29.75 13.6 35.45 21.05 38.05 24.6 39.4 26.7 39.45 25.9 39.5 25.25 39.65 23.7 40.1 22.7 40.35 22.2 40.9 21.5 41.6 20.6 42.3 20.05 43.1 19.5 43.7 19.45 40.5 14.3 35.55 10.25 32.5 7.7 29.8 3.65 29.1 2.6 27.7 0.35 26.45 -1.7 25.8 -2.7 22.85 -6.9 21.35 -8.8 19.45 -11.2 18.05 -12.4 16.55 -13.55 14.9 -14.0 13.45 -14.4 11.05 -14.4 L10.85 -14.3 7.7 -12.8 Q2.4 -10.2 -0.2 -7.5 -2.35 -5.25 -4.15 -2.55 -5.45 -0.55 -6.95 2.35 -9.05 6.45 -9.85 12.1 -10.1 13.95 -10.35 17.0 -10.65 20.7 -10.75 21.95 L-10.75 28.4 Q-10.8 29.7 -10.8 31.3 -10.8 34.8 -10.25 40.1 -10.0 42.1 -9.8 43.65 -9.65 43.15 -8.95 42.35 L-7.1 40.05 -7.05 40.0 Q-4.3 36.3 -4.3 31.9 -4.3 31.6 -4.5 30.45 L-5.0 27.85 -5.05 27.45 Q-5.55 24.4 -5.65 21.65 L-5.65 21.6 -5.65 20.15 Q-5.65 17.4 -5.6 16.85 -5.45 15.35 -4.65 13.2 -4.5 13.35 -4.5 13.45 -4.45 13.55 -4.45 13.75 -4.45 14.1 -4.65 16.5 -4.85 18.85 -4.85 20.1 -4.85 23.15 -4.05 27.55 L-3.65 29.9 Q-3.45 29.5 -3.0 29.2 -2.1 28.55 -0.15 28.55 1.55 28.55 3.3 30.1 4.4 31.05 6.4 33.55 8.4 36.1 9.5 37.05 11.3 38.6 13.0 38.6 13.95 38.6 15.05 38.0 L16.3 37.15 16.45 37.0 17.0 36.55 Q18.6 34.95 19.2 33.65 19.35 33.35 19.45 32.85 L19.45 32.8 19.7 31.25 19.7 30.95 19.75 30.75 Q19.55 29.1 19.0 27.35 18.5 25.9 17.15 22.8 L17.15 22.75 16.25 20.7 16.2 20.55 Q15.6 19.15 15.3 18.15 14.45 15.5 14.45 13.05 L14.45 12.3 14.55 12.3 Q14.8 14.2 15.85 17.0 16.5 18.8 17.95 22.0 19.45 25.35 19.9 26.5 L20.05 26.9 Q20.3 26.15 20.85 25.55 21.75 24.6 23.2 24.35 L24.65 24.3 24.15 23.35 Q22.85 21.05 20.35 17.55 22.5 19.1 24.45 22.05 25.45 23.5 26.05 24.8 L26.15 24.9 26.55 25.95 26.6 26.1 26.6 26.2 Q26.85 27.05 26.95 27.85 27.05 29.35 27.25 32.2 27.4 34.5 27.8 35.8 28.3 37.45 29.35 38.25 30.5 39.2 32.55 39.2 35.55 39.2 37.35 37.5 38.55 36.3 39.2 34.35 39.75 32.8 39.85 30.9 L39.9 30.7 39.5 30.0 M49.1 25.4 Q47.85 20.9 44.75 17.1 43.45 15.5 40.45 13.05 L39.05 12.0 Q40.25 13.2 41.2 14.3 44.65 18.2 46.0 21.25 46.9 23.2 48.4 27.6 49.55 31.05 50.0 33.1 49.95 28.7 49.1 25.4" fill="#111111" fill-rule="evenodd" stroke="none"/>
    <path d="M-7.1 40.05 L-6.95 38.8 Q-6.55 34.95 -6.55 33.95 L-6.85 25.95 Q-6.85 24.6 -6.55 21.75 -6.3 18.85 -6.1 18.1 L-6.0 18.1 Q-6.0 19.4 -5.65 21.6 L-5.65 21.65 Q-5.55 24.4 -5.05 27.45 L-5.0 27.85 -4.5 30.45 Q-4.3 31.6 -4.3 31.9 -4.3 36.3 -7.05 40.0 L-7.1 40.05 M15.05 38.0 Q15.0 35.65 14.5 33.4 14.1 31.65 13.25 29.3 12.25 26.5 12.0 25.75 11.45 23.75 11.45 22.05 11.45 18.9 12.3 14.1 12.4 13.4 12.45 13.05 12.5 14.05 12.95 16.05 13.5 17.15 14.65 18.65 L16.2 20.55 16.25 20.7 17.15 22.75 17.15 22.8 Q18.5 25.9 19.0 27.35 19.55 29.1 19.75 30.75 L19.7 30.95 19.7 31.25 19.45 32.8 19.45 32.85 Q19.35 33.35 19.2 33.65 18.6 34.95 17.0 36.55 L16.45 37.0 16.3 37.15 15.05 38.0 M37.35 37.5 Q36.2 34.15 35.6 33.25 34.6 31.85 33.25 29.05 31.6 25.6 31.6 24.2 L31.6 23.1 31.65 23.1 Q31.9 24.45 33.4 25.75 34.3 26.5 36.6 27.95 38.65 29.2 39.5 30.0 L39.9 30.7 39.85 30.9 Q39.75 32.8 39.2 34.35 38.55 36.3 37.35 37.5 M49.1 25.4 Q49.95 28.7 50.0 33.1 49.55 31.05 48.4 27.6 46.9 23.2 46.0 21.25 44.65 18.2 41.2 14.3 40.25 13.2 39.05 12.0 L40.45 13.05 Q43.45 15.5 44.75 17.1 47.85 20.9 49.1 25.4" fill="#363636" fill-rule="evenodd" stroke="none"/>
    <path d="M-7.1 40.05 L-8.95 42.35 Q-9.65 43.15 -9.8 43.65 -10.0 42.1 -10.25 40.1 -10.8 34.8 -10.8 31.3 -10.8 29.7 -10.75 28.4 L-10.75 21.95 Q-10.65 20.7 -10.35 17.0 -10.1 13.95 -9.85 12.1 -9.05 6.45 -6.95 2.35 -5.45 -0.55 -4.15 -2.55 -2.35 -5.25 -0.2 -7.5 2.4 -10.2 7.7 -12.8 L10.85 -14.3 11.05 -14.4 Q13.45 -14.4 14.9 -14.0 16.55 -13.55 18.05 -12.4 19.45 -11.2 21.35 -8.8 22.85 -6.9 25.8 -2.7 26.45 -1.7 27.7 0.35 29.1 2.6 29.8 3.65 32.5 7.7 35.55 10.25 40.5 14.3 43.7 19.45 43.1 19.5 42.3 20.05 41.6 20.6 40.9 21.5 40.35 22.2 40.1 22.7 39.65 23.7 39.5 25.25 39.45 25.9 39.4 26.7 38.05 24.6 35.45 21.05 29.75 13.6 29.05 12.55 L28.95 12.65 Q30.25 15.75 34.45 21.95 36.75 25.35 37.6 26.75 38.7 28.5 39.5 30.0 38.65 29.2 36.6 27.95 34.3 26.5 33.4 25.75 31.9 24.45 31.65 23.1 L31.6 23.1 31.6 24.2 Q31.6 25.6 33.25 29.05 34.6 31.85 35.6 33.25 36.2 34.15 37.35 37.5 35.55 39.2 32.55 39.2 30.5 39.2 29.35 38.25 28.3 37.45 27.8 35.8 27.4 34.5 27.25 32.2 27.05 29.35 26.95 27.85 26.85 27.05 26.6 26.2 L26.6 26.1 26.55 25.95 26.15 24.9 26.05 24.8 Q25.45 23.5 24.45 22.05 22.5 19.1 20.35 17.55 22.85 21.05 24.15 23.35 L24.65 24.3 23.2 24.35 Q21.75 24.6 20.85 25.55 20.3 26.15 20.05 26.9 L19.9 26.5 Q19.45 25.35 17.95 22.0 16.5 18.8 15.85 17.0 14.8 14.2 14.55 12.3 L14.45 12.3 14.45 13.05 Q14.45 15.5 15.3 18.15 15.6 19.15 16.2 20.55 L14.65 18.65 Q13.5 17.15 12.95 16.05 12.5 14.05 12.45 13.05 12.4 13.4 12.3 14.1 11.45 18.9 11.45 22.05 11.45 23.75 12.0 25.75 12.25 26.5 13.25 29.3 14.1 31.65 14.5 33.4 15.0 35.65 15.05 38.0 13.95 38.6 13.0 38.6 11.3 38.6 9.5 37.05 8.4 36.1 6.4 33.55 4.4 31.05 3.3 30.1 1.55 28.55 -0.15 28.55 -2.1 28.55 -3.0 29.2 -3.45 29.5 -3.65 29.9 L-4.05 27.55 Q-4.85 23.15 -4.85 20.1 -4.85 18.85 -4.65 16.5 -4.45 14.1 -4.45 13.75 -4.45 13.55 -4.5 13.45 -4.5 13.35 -4.65 13.2 -5.45 15.35 -5.6 16.85 -5.65 17.4 -5.65 20.15 L-5.65 21.6 Q-6.0 19.4 -6.0 18.1 L-6.1 18.1 Q-6.3 18.85 -6.55 21.75 -6.85 24.6 -6.85 25.95 L-6.55 33.95 Q-6.55 34.95 -6.95 38.8 L-7.1 40.05" fill="#262626" fill-rule="evenodd" stroke="none"/>
  </g>
</svg>
