<?xml version="1.0" encoding="UTF-8" standalone="no"?>
<svg xmlns:ffdec="https://www.free-decompiler.com/flash" xmlns:xlink="http://www.w3.org/1999/xlink" ffdec:objectType="shape" height="63.8px" width="58.05px" xmlns="http://www.w3.org/2000/svg">
  <g transform="matrix(1.0, 0.0, 0.0, 1.0, 8.8, 15.8)">
    <path d="M17.2 -14.65 Q18.1 -14.2 18.85 -13.5 20.3 -12.1 21.6 -10.4 22.55 -9.05 23.55 -7.35 24.05 -6.6 24.65 -5.3 L25.35 -4.05 Q26.75 -1.5 28.2 0.05 30.25 2.2 32.5 3.6 34.35 4.8 38.45 6.7 43.65 9.05 46.65 14.2 47.95 16.35 48.6 18.7 49.25 20.9 49.25 22.85 49.25 24.9 49.0 26.35 48.75 27.8 48.25 28.75 L48.2 29.3 Q48.1 29.65 47.85 30.4 47.0 23.6 44.8 18.9 44.3 18.7 43.65 18.7 42.0 18.7 41.15 20.9 40.7 22.05 40.55 23.2 40.55 24.05 41.0 25.6 L41.45 27.3 41.85 27.65 Q42.8 28.75 42.8 30.1 L42.75 30.5 Q42.85 31.1 42.85 32.05 42.85 33.4 42.1 34.85 40.8 37.35 37.9 37.35 36.55 37.35 36.0 37.15 35.45 36.95 34.95 36.95 34.4 36.95 32.7 37.55 30.95 38.15 29.95 38.15 26.95 38.15 25.9 34.9 25.45 33.5 25.45 31.3 L25.6 29.4 25.75 27.55 25.7 26.6 25.5 26.35 25.2 25.75 Q24.8 25.0 23.85 25.0 22.55 25.0 21.95 26.3 21.8 26.65 21.65 27.25 L21.6 27.4 21.65 27.75 Q21.9 28.25 21.9 28.3 21.9 29.65 21.8 30.45 21.7 30.85 21.6 31.15 21.15 34.0 19.05 35.05 L16.3 36.3 Q15.25 36.8 14.6 37.3 11.65 38.95 10.5 38.95 7.1 38.95 5.2 36.05 3.7 33.65 3.6 30.3 3.6 29.35 3.55 28.5 L3.45 28.2 Q3.25 27.7 1.95 27.7 -0.4 27.7 -1.4 28.9 L-1.45 29.0 -1.6 29.95 -1.75 30.65 Q-1.5 32.15 -1.5 32.9 L-1.5 33.05 Q-1.5 33.2 -1.5 33.35 -1.5 33.4 -1.6 33.55 -1.85 34.6 -2.9 35.6 L-4.0 36.6 Q-4.15 36.7 -4.25 36.8 -5.5 38.7 -5.8 40.6 -6.1 42.5 -6.6 44.35 -7.15 46.5 -7.9 48.0 L-8.25 47.55 -8.05 43.15 Q-7.9 39.8 -7.85 37.55 L-8.0 34.7 Q-8.8 20.2 -8.8 16.9 -8.8 13.5 -7.6 7.55 -6.45 1.7 -5.35 -0.85 -4.1 -3.65 -1.8 -6.6 0.4 -9.3 3.05 -11.5 5.7 -13.7 8.1 -14.75 10.35 -15.75 11.9 -15.5 L12.1 -15.55 Q14.4 -15.9 15.0 -15.75 L17.2 -14.65 M36.35 26.1 Q35.6 25.65 34.85 25.1 33.45 24.05 32.65 23.1 31.05 21.25 30.2 18.35 29.95 17.4 29.6 15.85 L29.1 13.4 29.15 13.4 Q29.45 14.15 29.9 15.7 30.4 17.3 30.7 18.1 31.8 20.95 33.7 22.55 34.7 23.4 36.45 24.35 37.45 24.85 39.45 25.9 L39.85 26.15 Q39.75 25.65 39.75 25.1 L39.7 24.4 Q39.7 21.65 40.65 19.85 41.4 18.3 42.7 17.7 43.4 17.35 44.0 17.35 40.3 10.6 32.75 6.45 28.95 4.35 26.65 0.6 26.0 -0.4 24.9 -2.6 23.85 -4.7 23.2 -5.7 22.05 -7.65 21.35 -8.75 20.05 -10.7 18.8 -11.95 15.5 -15.2 10.95 -15.0 1.0 -11.25 -4.0 -1.0 -6.05 3.3 -7.1 8.4 -7.95 12.7 -7.95 16.9 -7.95 17.8 -7.35 27.05 L-7.25 28.7 -7.3 28.8 Q-7.3 29.25 -7.2 29.95 -6.9 34.7 -6.85 37.45 L-6.9 38.25 -6.95 38.7 Q-6.85 40.8 -7.15 42.55 L-7.15 43.35 -7.1 43.4 -6.45 40.6 Q-6.05 38.85 -5.85 37.7 -5.75 37.05 -5.15 36.3 -4.85 35.9 -4.0 35.05 L-3.95 34.95 Q-3.1 34.05 -2.75 33.6 -2.6 33.35 -2.45 33.15 -2.35 32.6 -2.35 32.1 -2.35 31.0 -2.8 28.9 L-3.85 24.55 Q-4.4 22.1 -4.75 19.9 -5.35 16.2 -5.35 13.15 -5.3 11.85 -5.3 11.4 L-5.2 11.4 Q-5.05 16.9 -3.6 22.2 -3.15 23.85 -2.45 27.05 L-2.15 28.6 Q-1.95 27.8 -1.15 27.15 -0.25 26.4 1.1 26.15 2.4 25.95 3.3 26.4 L3.2 25.8 Q2.8 23.2 2.1 21.7 L2.15 21.7 Q3.1 23.5 3.75 25.65 3.95 26.4 4.15 27.1 4.35 27.5 4.35 28.05 L4.35 28.15 Q4.5 29.0 4.55 29.75 L4.6 31.4 Q4.65 32.85 5.05 33.95 6.25 37.4 10.1 37.4 11.4 37.4 12.5 36.95 12.85 36.8 13.25 36.55 L13.3 36.55 13.55 36.35 Q14.0 36.05 14.5 35.6 L15.1 35.05 15.3 34.9 15.35 34.9 Q15.9 34.6 17.4 34.05 L17.6 33.95 Q18.55 33.6 19.15 33.25 19.6 33.0 19.8 32.75 20.2 32.4 20.45 31.9 20.45 31.5 20.7 30.7 20.95 29.9 20.95 29.25 20.95 29.0 19.2 24.6 L18.6 23.15 Q17.2 19.65 16.9 18.25 L16.95 18.25 Q17.55 20.0 19.8 24.25 L21.05 26.5 Q21.1 25.3 21.85 24.5 22.6 23.7 23.65 23.6 24.45 23.5 25.1 23.8 24.8 22.95 24.45 22.0 23.1 18.45 21.5 17.1 L21.5 17.0 21.55 16.95 Q23.8 18.35 25.3 21.9 26.65 25.0 26.65 27.55 L26.35 31.25 Q26.35 33.15 26.7 34.15 27.5 36.55 29.95 36.55 L30.85 36.45 Q31.6 36.35 32.7 35.95 34.0 35.55 34.6 35.45 L34.95 35.4 Q36.2 35.4 36.4 35.6 36.5 35.7 37.1 35.75 L37.85 35.8 37.9 35.8 38.7 35.7 Q40.6 35.4 41.45 33.55 42.1 32.05 41.95 30.25 L41.4 29.6 41.05 29.25 40.8 28.95 40.7 28.85 Q39.35 27.35 38.0 26.85 37.2 26.55 36.35 26.1 M48.4 22.65 Q48.4 20.75 47.6 18.55 46.8 16.3 45.35 14.15 42.0 9.2 37.05 7.25 36.05 6.8 35.1 6.35 40.55 10.15 44.2 15.95 44.7 16.85 45.2 17.7 45.65 18.05 45.7 18.7 46.6 20.55 47.2 22.4 47.8 24.25 48.05 25.95 48.4 23.45 48.4 22.65 M27.7 0.5 Q28.9 2.1 30.4 3.3 28.9 2.0 27.7 0.5" fill="#111111" fill-rule="evenodd" stroke="none"/>
    <path d="M-4.0 35.05 L-4.1 34.6 Q-4.25 33.55 -4.35 32.0 L-4.5 29.9 -4.85 26.25 Q-5.1 23.15 -5.1 22.05 -5.15 21.55 -5.1 21.0 -5.0 20.25 -4.75 19.9 -4.4 22.1 -3.85 24.55 L-2.8 28.9 Q-2.35 31.0 -2.35 32.1 -2.35 32.6 -2.45 33.15 -2.6 33.35 -2.75 33.6 -3.1 34.05 -3.95 34.95 L-4.0 35.05 M12.5 36.95 L12.45 36.6 12.45 34.8 Q12.45 33.2 12.5 32.75 12.6 31.65 13.05 31.1 13.85 31.9 14.55 33.1 15.15 34.15 15.35 34.9 L15.3 34.9 15.1 35.05 14.5 35.6 Q14.0 36.05 13.55 36.35 L13.3 36.55 13.25 36.55 Q12.85 36.8 12.5 36.95 M17.6 33.95 Q16.85 30.9 16.45 30.1 14.8 27.0 14.35 26.0 13.3 23.6 13.3 21.9 L13.35 21.05 13.4 20.0 13.45 20.0 13.5 20.1 13.5 19.85 13.55 19.85 Q13.5 20.75 14.25 21.05 L15.25 21.35 Q16.0 21.55 16.55 21.8 17.65 22.25 18.6 23.15 L19.2 24.6 Q20.95 29.0 20.95 29.25 20.95 29.9 20.7 30.7 20.45 31.5 20.45 31.9 20.2 32.4 19.8 32.75 19.6 33.0 19.15 33.25 18.55 33.6 17.6 33.95 M30.85 36.45 Q30.9 32.7 31.95 29.9 32.6 31.15 33.9 33.85 L34.6 35.45 Q34.0 35.55 32.7 35.95 31.6 36.35 30.85 36.45 M37.1 35.75 L36.95 35.75 Q36.55 33.05 36.3 32.45 35.95 31.75 35.35 30.85 L34.35 29.35 Q33.25 27.6 33.25 26.3 L33.25 26.0 33.35 25.9 33.5 25.85 Q33.5 25.9 33.7 26.1 33.85 26.25 33.9 26.25 L36.1 26.1 36.35 26.1 Q37.2 26.55 38.0 26.85 39.35 27.35 40.7 28.85 L40.8 28.95 41.05 29.25 41.4 29.6 41.95 30.25 Q42.1 32.05 41.45 33.55 40.6 35.4 38.7 35.7 L37.9 35.8 37.85 35.8 37.1 35.75 M48.4 22.65 Q48.4 23.45 48.05 25.95 47.8 24.25 47.2 22.4 46.6 20.55 45.7 18.7 45.65 18.05 45.2 17.7 44.7 16.85 44.2 15.95 40.55 10.15 35.1 6.35 36.05 6.8 37.05 7.25 42.0 9.2 45.35 14.15 46.8 16.3 47.6 18.55 48.4 20.75 48.4 22.65" fill="#363636" fill-rule="evenodd" stroke="none"/>
    <path d="M-4.0 35.05 Q-4.85 35.9 -5.15 36.3 -5.75 37.05 -5.85 37.7 -6.05 38.85 -6.45 40.6 L-7.1 43.4 -7.15 43.35 -7.15 42.55 Q-6.85 40.8 -6.95 38.7 L-6.9 38.25 -6.85 37.45 Q-6.9 34.7 -7.2 29.95 -7.3 29.25 -7.3 28.8 L-7.25 28.7 -7.35 27.05 Q-7.95 17.8 -7.95 16.9 -7.95 12.7 -7.1 8.4 -6.05 3.3 -4.0 -1.0 1.0 -11.25 10.95 -15.0 15.5 -15.2 18.8 -11.95 20.05 -10.7 21.35 -8.75 22.05 -7.65 23.2 -5.7 23.85 -4.7 24.9 -2.6 26.0 -0.4 26.65 0.6 28.95 4.35 32.75 6.45 40.3 10.6 44.0 17.35 43.4 17.35 42.7 17.7 41.4 18.3 40.65 19.85 39.7 21.65 39.7 24.4 L39.75 25.1 Q39.75 25.65 39.85 26.15 L39.45 25.9 Q37.45 24.85 36.45 24.35 34.7 23.4 33.7 22.55 31.8 20.95 30.7 18.1 30.4 17.3 29.9 15.7 29.45 14.15 29.15 13.4 L29.1 13.4 29.6 15.85 Q29.95 17.4 30.2 18.35 31.05 21.25 32.65 23.1 33.45 24.05 34.85 25.1 35.6 25.65 36.35 26.1 L36.1 26.1 33.9 26.25 Q33.85 26.25 33.7 26.1 33.5 25.9 33.5 25.85 L33.35 25.9 33.25 26.0 33.25 26.3 Q33.25 27.6 34.35 29.35 L35.35 30.85 Q35.95 31.75 36.3 32.45 36.55 33.05 36.95 35.75 L37.1 35.75 Q36.5 35.7 36.4 35.6 36.2 35.4 34.95 35.4 L34.6 35.45 33.9 33.85 Q32.6 31.15 31.95 29.9 30.9 32.7 30.85 36.45 L29.95 36.55 Q27.5 36.55 26.7 34.15 26.35 33.15 26.35 31.25 L26.65 27.55 Q26.65 25.0 25.3 21.9 23.8 18.35 21.55 16.95 L21.5 17.0 21.5 17.1 Q23.1 18.45 24.45 22.0 24.8 22.95 25.1 23.8 24.45 23.5 23.65 23.6 22.6 23.7 21.85 24.5 21.1 25.3 21.05 26.5 L19.8 24.25 Q17.55 20.0 16.95 18.25 L16.9 18.25 Q17.2 19.65 18.6 23.15 17.65 22.25 16.55 21.8 16.0 21.55 15.25 21.35 L14.25 21.05 Q13.5 20.75 13.55 19.85 L13.5 19.85 13.5 20.1 13.45 20.0 13.4 20.0 13.35 21.05 13.3 21.9 Q13.3 23.6 14.35 26.0 14.8 27.0 16.45 30.1 16.85 30.9 17.6 33.95 L17.4 34.05 Q15.9 34.6 15.35 34.9 15.15 34.15 14.55 33.1 13.85 31.9 13.05 31.1 12.6 31.65 12.5 32.75 12.45 33.2 12.45 34.8 L12.45 36.6 12.5 36.95 Q11.4 37.4 10.1 37.4 6.25 37.4 5.05 33.95 4.65 32.85 4.6 31.4 L4.55 29.75 Q4.5 29.0 4.35 28.15 L4.35 28.05 Q4.35 27.5 4.15 27.1 3.95 26.4 3.75 25.65 3.1 23.5 2.15 21.7 L2.1 21.7 Q2.8 23.2 3.2 25.8 L3.3 26.4 Q2.4 25.95 1.1 26.15 -0.25 26.4 -1.15 27.15 -1.95 27.8 -2.15 28.6 L-2.45 27.05 Q-3.15 23.85 -3.6 22.2 -5.05 16.9 -5.2 11.4 L-5.3 11.4 Q-5.3 11.85 -5.35 13.15 -5.35 16.2 -4.75 19.9 -5.0 20.25 -5.1 21.0 -5.15 21.55 -5.1 22.05 -5.1 23.15 -4.85 26.25 L-4.5 29.9 -4.35 32.0 Q-4.25 33.55 -4.1 34.6 L-4.0 35.05" fill="#262626" fill-rule="evenodd" stroke="none"/>
  </g>
</svg>
