<?xml version="1.0" encoding="UTF-8" standalone="no"?>
<svg xmlns:ffdec="https://www.free-decompiler.com/flash" xmlns:xlink="http://www.w3.org/1999/xlink" ffdec:objectType="shape" height="63.9px" width="57.5px" xmlns="http://www.w3.org/2000/svg">
  <g transform="matrix(1.0, 0.0, 0.0, 1.0, 7.75, 16.25)">
    <path d="M16.7 -14.75 Q18.05 -14.05 18.6 -13.5 20.7 -12.25 21.85 -10.3 L21.9 -10.25 Q22.4 -9.6 22.9 -8.8 L24.5 -6.25 Q26.6 -2.8 28.75 -0.7 30.55 1.1 34.8 4.05 39.35 7.15 41.1 8.8 46.45 13.65 48.35 19.3 49.15 21.7 49.5 24.55 49.75 26.75 49.75 29.85 49.75 31.05 49.7 31.35 49.55 32.3 49.0 32.8 L48.9 32.85 48.9 32.35 47.25 26.4 Q46.25 22.75 45.15 20.25 44.75 19.4 44.3 18.55 L43.65 18.95 Q42.15 19.95 41.4 21.05 41.15 21.45 40.9 21.95 L40.8 22.7 Q40.65 23.6 40.65 24.4 40.65 25.1 40.8 25.95 L41.0 26.85 Q43.15 28.45 43.15 29.95 43.15 30.15 43.05 30.35 L43.05 30.55 Q43.05 30.9 42.8 31.65 42.5 35.1 40.35 36.1 39.4 36.55 37.9 36.6 L35.3 36.6 Q33.15 36.6 32.25 37.1 31.8 37.35 31.45 37.8 L30.0 37.8 Q27.0 37.25 26.0 35.55 25.35 34.5 25.45 32.55 L25.45 27.15 Q25.4 26.85 25.35 25.75 25.2 25.7 25.1 25.55 24.95 25.3 24.7 25.3 23.05 25.3 22.25 26.4 21.9 26.8 21.75 27.35 L22.0 27.95 Q22.0 28.3 21.9 28.6 L21.9 29.05 Q21.9 30.4 20.9 31.9 L20.65 32.2 20.45 32.45 Q19.4 33.75 17.75 34.55 17.6 34.65 16.9 35.4 16.05 36.35 15.35 36.9 12.95 39.0 10.4 39.0 5.65 39.0 4.05 35.0 3.55 33.7 3.45 32.05 L3.35 30.3 Q3.35 29.8 2.9 27.3 2.75 27.25 2.65 27.15 2.5 26.95 2.3 26.9 L1.3 26.9 Q0.8 27.1 0.25 27.6 L-0.3 28.15 Q0.0 29.75 0.0 31.2 0.0 31.9 -0.05 32.15 -0.2 32.8 -0.65 33.0 L-0.7 33.0 Q-0.9 33.2 -1.25 33.4 L-2.35 34.15 Q-3.05 34.65 -3.5 35.3 -4.1 36.15 -4.55 37.25 -5.05 38.4 -5.2 39.4 -5.6 42.25 -5.85 43.55 -6.25 45.85 -6.8 47.65 L-6.8 47.45 -6.7 43.4 -6.8 41.7 -6.7 38.7 Q-6.65 37.85 -6.65 37.3 L-6.65 36.15 Q-6.95 33.9 -7.35 27.6 -7.75 21.15 -7.75 17.9 L-7.75 12.9 Q-7.7 11.05 -7.5 9.75 -7.3 8.4 -6.7 6.1 L-4.95 -0.4 Q-4.3 -2.8 -3.0 -5.1 -1.65 -7.45 0.3 -9.6 3.6 -13.2 7.25 -15.0 L8.1 -15.4 Q10.1 -16.8 13.6 -15.95 15.2 -15.55 16.7 -14.75 M37.05 25.8 Q35.6 25.1 34.8 24.7 32.55 23.5 32.15 22.85 30.65 20.6 29.85 18.1 29.15 15.9 29.0 13.4 L29.05 13.4 29.65 15.65 Q30.05 17.05 30.4 18.05 31.5 20.9 33.45 22.4 34.2 22.95 36.05 23.95 38.6 25.3 39.25 25.65 L39.65 25.9 39.65 25.75 Q39.65 23.45 40.4 21.3 41.05 19.55 42.05 18.3 42.8 17.35 43.45 17.1 40.3 12.0 34.8 8.25 31.4 5.95 28.45 2.55 25.85 -0.4 24.0 -3.65 23.35 -4.8 22.4 -6.7 L20.9 -9.75 Q19.8 -11.1 18.05 -12.4 14.55 -15.0 11.1 -15.0 L9.9 -14.9 9.8 -14.85 9.75 -14.85 Q8.6 -14.35 7.2 -13.5 3.25 -11.15 0.85 -8.45 -3.0 -4.05 -4.2 0.35 L-5.85 6.55 Q-6.45 8.8 -6.65 10.1 -6.85 11.4 -6.85 13.15 L-6.85 17.9 Q-6.85 21.5 -6.35 28.55 -5.85 34.85 -5.8 38.1 L-6.1 40.25 -6.1 40.3 -5.45 37.75 Q-5.05 36.15 -4.45 35.1 -4.05 34.35 -3.55 33.8 -2.9 33.0 -2.4 32.7 L-2.25 32.65 Q-1.7 32.45 -1.25 31.55 L-0.95 31.0 Q-1.05 28.1 -2.55 23.65 L-3.05 22.15 -3.65 20.4 Q-4.15 18.75 -4.15 17.8 -4.65 14.55 -4.65 13.9 -4.55 11.55 -4.6 10.3 L-4.45 10.3 Q-4.55 12.85 -3.85 15.75 -3.45 17.6 -2.35 20.9 -1.15 24.45 -0.75 26.0 L-0.5 26.9 Q-0.4 26.65 -0.15 26.4 0.75 25.35 2.5 25.4 L2.55 25.45 Q1.95 21.85 1.95 20.8 L1.95 20.6 2.1 20.7 2.1 20.65 Q3.35 23.1 3.85 26.6 4.15 28.55 4.5 32.05 4.85 34.8 5.95 36.05 6.9 37.05 8.55 37.4 L9.25 37.5 9.55 37.55 10.4 37.55 Q13.0 37.55 15.3 35.35 L15.8 34.85 16.75 33.75 16.9 33.55 17.05 33.4 17.5 32.9 Q19.3 31.85 20.05 31.25 L20.3 31.05 Q20.75 30.35 20.85 30.0 L20.95 29.55 20.9 29.25 Q20.7 28.4 20.7 27.85 L20.7 27.75 20.65 27.7 20.65 27.6 19.95 26.1 19.9 26.0 18.65 23.15 Q16.3 17.7 16.3 15.9 L16.3 15.1 16.4 15.1 Q17.05 17.4 19.6 22.8 L21.35 26.45 Q21.5 25.85 21.95 25.3 22.6 24.5 23.6 24.1 24.55 23.7 25.2 23.9 L25.25 23.9 Q25.15 23.15 25.0 22.6 24.65 21.65 23.7 19.9 L22.85 18.3 Q22.85 18.1 22.85 18.15 L22.9 18.25 22.9 18.2 Q24.8 19.8 25.7 22.4 26.45 24.55 26.35 26.85 L26.35 32.5 26.4 33.5 Q26.5 34.2 26.75 34.7 27.5 36.05 29.85 36.25 L30.3 36.1 30.95 35.85 Q32.0 35.5 32.65 35.5 33.7 35.1 35.3 35.1 L35.45 35.1 36.2 35.2 37.0 35.35 37.2 35.35 39.25 35.35 Q41.0 34.1 41.55 32.15 41.8 31.2 41.85 29.8 L41.8 29.75 40.9 28.55 Q39.65 27.05 38.35 26.45 L37.05 25.8 M27.4 -0.65 Q30.15 2.95 33.6 5.8 38.45 9.75 40.75 12.05 44.35 15.65 45.5 18.5 46.75 21.6 47.7 24.85 48.35 27.15 48.75 29.35 L48.7 27.35 Q48.5 24.15 47.9 21.75 46.4 15.4 41.3 10.5 39.25 8.5 34.6 5.2 30.0 1.95 28.2 0.15 27.6 -0.45 27.0 -1.15 L27.4 -0.65" fill="#111111" fill-rule="evenodd" stroke="none"/>
    <path d="M-2.4 32.7 L-2.4 29.5 -2.75 25.85 Q-3.05 22.75 -3.05 22.25 L-3.05 22.15 -2.55 23.65 Q-1.05 28.1 -0.95 31.0 L-1.25 31.55 Q-1.7 32.45 -2.25 32.65 L-2.4 32.7 M8.55 37.4 L8.55 37.2 8.3 35.2 Q8.3 33.3 8.35 32.75 8.4 31.75 8.65 31.0 9.05 29.7 11.25 26.25 11.7 26.9 12.25 28.65 12.8 30.45 13.2 31.2 13.3 31.45 14.85 33.45 15.45 34.3 15.8 34.85 L15.3 35.35 Q13.0 37.55 10.4 37.55 L9.55 37.55 9.25 37.5 8.55 37.4 M16.9 33.55 L16.95 32.8 Q16.95 29.75 16.0 26.6 15.0 23.95 15.0 23.6 15.0 23.4 15.0 23.35 L15.05 23.35 Q15.95 23.4 17.1 24.0 18.25 24.55 19.3 25.45 L19.9 26.0 19.95 26.1 20.65 27.6 20.65 27.7 20.7 27.75 20.7 27.85 Q20.7 28.4 20.9 29.25 L20.95 29.55 20.85 30.0 Q20.75 30.35 20.3 31.05 L20.05 31.25 Q19.3 31.85 17.5 32.9 L17.05 33.4 16.9 33.55 M30.3 36.1 Q30.1 35.4 29.9 34.45 29.75 33.45 29.65 32.25 L29.6 31.2 Q29.6 29.35 29.7 28.85 29.9 27.9 30.85 26.25 31.45 28.0 34.0 32.3 L35.6 35.15 35.45 35.1 35.3 35.1 Q33.7 35.1 32.65 35.5 32.0 35.5 30.95 35.85 L30.3 36.1 M37.2 35.35 Q37.15 33.05 36.55 30.9 36.0 29.0 35.2 27.85 L35.1 27.75 35.1 27.7 Q34.85 27.4 34.65 27.15 L34.65 27.05 Q34.45 26.75 34.45 26.6 34.5 26.55 34.55 26.65 L34.6 26.8 Q35.45 26.5 36.15 26.4 36.6 26.05 37.05 25.8 L38.35 26.45 Q39.65 27.05 40.9 28.55 L41.8 29.75 41.85 29.8 Q41.8 31.2 41.55 32.15 41.0 34.1 39.25 35.35 L37.2 35.35 M27.4 -0.65 L27.0 -1.15 Q27.6 -0.45 28.2 0.15 30.0 1.95 34.6 5.2 39.25 8.5 41.3 10.5 46.4 15.4 47.9 21.75 48.5 24.15 48.7 27.35 L48.75 29.35 Q48.35 27.15 47.7 24.85 46.75 21.6 45.5 18.5 44.35 15.65 40.75 12.05 38.45 9.75 33.6 5.8 30.15 2.95 27.4 -0.65" fill="#363636" fill-rule="evenodd" stroke="none"/>
    <path d="M-2.4 32.7 Q-2.9 33.0 -3.55 33.8 -4.05 34.35 -4.45 35.1 -5.05 36.15 -5.45 37.75 L-6.1 40.3 -6.1 40.25 -5.8 38.1 Q-5.85 34.85 -6.35 28.55 -6.85 21.5 -6.85 17.9 L-6.85 13.15 Q-6.85 11.4 -6.65 10.1 -6.45 8.8 -5.85 6.55 L-4.2 0.35 Q-3.0 -4.05 0.85 -8.45 3.25 -11.15 7.2 -13.5 8.6 -14.35 9.75 -14.85 L9.8 -14.85 9.9 -14.9 11.1 -15.0 Q14.55 -15.0 18.05 -12.4 19.8 -11.1 20.9 -9.75 L22.4 -6.7 Q23.35 -4.8 24.0 -3.65 25.85 -0.4 28.45 2.55 31.4 5.95 34.8 8.25 40.3 12.0 43.45 17.1 42.8 17.35 42.05 18.3 41.05 19.55 40.4 21.3 39.65 23.45 39.65 25.75 L39.65 25.9 39.25 25.65 Q38.6 25.3 36.05 23.95 34.2 22.95 33.45 22.4 31.5 20.9 30.4 18.05 30.05 17.05 29.65 15.65 L29.05 13.4 29.0 13.4 Q29.15 15.9 29.85 18.1 30.65 20.6 32.15 22.85 32.55 23.5 34.8 24.7 35.6 25.1 37.05 25.8 36.6 26.05 36.15 26.4 35.45 26.5 34.6 26.8 L34.55 26.65 Q34.5 26.55 34.45 26.6 34.45 26.75 34.65 27.05 L34.65 27.15 Q34.85 27.4 35.1 27.7 L35.1 27.75 35.2 27.85 Q36.0 29.0 36.55 30.9 37.15 33.05 37.2 35.35 L37.0 35.35 36.2 35.2 35.45 35.1 35.6 35.15 34.0 32.3 Q31.45 28.0 30.85 26.25 29.9 27.9 29.7 28.85 29.6 29.35 29.6 31.2 L29.65 32.25 Q29.75 33.45 29.9 34.45 30.1 35.4 30.3 36.1 L29.85 36.25 Q27.5 36.05 26.75 34.7 26.5 34.2 26.4 33.5 L26.35 32.5 26.35 26.85 Q26.45 24.55 25.7 22.4 24.8 19.8 22.9 18.2 L22.9 18.25 22.85 18.15 Q22.85 18.1 22.85 18.3 L23.7 19.9 Q24.65 21.65 25.0 22.6 25.15 23.15 25.25 23.9 L25.2 23.9 Q24.55 23.7 23.6 24.1 22.6 24.5 21.95 25.3 21.5 25.85 21.35 26.45 L19.6 22.8 Q17.05 17.4 16.4 15.1 L16.3 15.1 16.3 15.9 Q16.3 17.7 18.65 23.15 L19.9 26.0 19.3 25.45 Q18.25 24.55 17.1 24.0 15.95 23.4 15.05 23.35 L15.0 23.35 Q15.0 23.4 15.0 23.6 15.0 23.95 16.0 26.6 16.95 29.75 16.95 32.8 L16.9 33.55 16.75 33.75 15.8 34.85 Q15.45 34.3 14.85 33.45 13.3 31.45 13.2 31.2 12.8 30.45 12.25 28.65 11.7 26.9 11.25 26.25 9.05 29.7 8.65 31.0 8.4 31.75 8.35 32.75 8.3 33.3 8.3 35.2 L8.55 37.2 8.55 37.4 Q6.9 37.05 5.95 36.05 4.85 34.8 4.5 32.05 4.15 28.55 3.85 26.6 3.35 23.1 2.1 20.65 L2.1 20.7 1.95 20.6 1.95 20.8 Q1.95 21.85 2.55 25.45 L2.5 25.4 Q0.75 25.35 -0.15 26.4 -0.4 26.65 -0.5 26.9 L-0.75 26.0 Q-1.15 24.45 -2.35 20.9 -3.45 17.6 -3.85 15.75 -4.55 12.85 -4.45 10.3 L-4.6 10.3 Q-4.55 11.55 -4.65 13.9 -4.65 14.55 -4.15 17.8 -4.15 18.75 -3.65 20.4 L-3.05 22.15 -3.05 22.25 Q-3.05 22.75 -2.75 25.85 L-2.4 29.5 -2.4 32.7" fill="#262626" fill-rule="evenodd" stroke="none"/>
  </g>
</svg>
