<?xml version="1.0" encoding="UTF-8" standalone="no"?>
<svg xmlns:ffdec="https://www.free-decompiler.com/flash" xmlns:xlink="http://www.w3.org/1999/xlink" ffdec:objectType="shape" height="60.65px" width="57.7px" xmlns="http://www.w3.org/2000/svg">
  <g transform="matrix(1.0, 0.0, 0.0, 1.0, 6.85, 15.45)">
    <path d="M5.95 -13.85 Q6.35 -14.3 6.7 -14.5 7.85 -15.15 12.2 -15.45 17.95 -14.5 21.0 -11.15 22.1 -9.9 23.0 -8.2 L23.7 -6.7 24.65 -5.25 Q26.5 -2.6 28.2 -0.6 32.85 4.75 38.6 7.65 40.8 8.75 43.15 11.1 45.25 13.25 47.1 16.05 48.25 17.8 49.1 19.55 L49.55 20.75 Q50.75 24.4 50.85 28.0 L50.8 28.15 50.65 28.0 50.2 27.65 50.15 27.4 Q49.95 27.25 49.3 26.05 L47.65 22.85 Q45.7 19.25 44.5 17.4 41.55 16.8 40.45 19.65 40.1 21.5 40.1 22.2 L40.15 23.4 40.15 25.2 40.3 25.55 Q40.8 26.45 40.8 26.9 L40.8 26.95 Q41.75 27.8 42.2 28.6 42.65 29.1 42.8 29.55 42.9 29.85 42.9 30.45 42.9 31.85 42.35 32.8 41.8 33.7 40.0 35.25 39.75 35.5 38.0 35.8 35.8 36.2 35.05 36.45 34.45 36.95 33.75 37.4 32.35 38.25 30.85 38.25 27.4 38.25 26.5 33.8 26.3 32.55 26.15 30.3 26.05 28.35 25.9 27.9 25.8 27.6 25.65 26.95 L25.5 26.85 Q25.05 26.55 24.25 26.55 22.85 26.55 22.0 27.55 L21.75 27.95 Q21.8 28.3 21.8 28.7 21.8 29.15 21.75 29.5 L21.75 29.55 Q21.55 30.7 20.8 31.55 20.05 32.4 18.5 33.15 L16.0 34.3 15.75 34.45 Q15.65 34.8 15.45 35.2 15.1 35.95 14.5 36.6 12.9 38.3 10.75 38.3 4.0 38.3 2.8 31.75 2.45 29.7 2.65 27.0 L2.7 26.4 2.1 26.4 Q1.75 26.4 1.0 27.05 0.6 27.4 0.35 27.7 0.45 28.45 0.45 29.3 0.45 31.15 -0.35 33.2 -1.05 35.1 -2.4 37.05 -3.4 38.45 -4.15 40.8 -4.9 43.05 -5.25 44.05 -5.35 45.0 -5.55 45.2 -6.0 44.2 -5.95 42.45 -5.85 40.35 -6.0 39.6 L-6.0 34.2 -6.5 25.1 Q-6.85 18.6 -6.85 15.4 -6.85 10.35 -6.35 7.05 -5.85 3.85 -4.15 -2.0 -3.6 -4.05 -2.25 -6.25 -0.75 -8.7 1.25 -10.6 3.5 -12.75 5.95 -13.85 M36.6 25.9 L34.75 24.8 Q32.95 23.65 31.95 22.65 30.7 21.45 29.6 18.15 28.55 15.1 28.55 13.1 L28.65 12.25 28.7 11.2 28.75 11.2 Q29.05 17.1 32.55 21.4 32.8 21.75 34.5 22.7 37.0 24.2 37.9 24.75 L39.2 25.7 Q39.05 25.1 39.05 24.95 39.05 22.7 39.05 22.25 39.15 20.55 39.5 19.7 41.0 16.2 43.2 16.1 L43.5 16.1 Q41.75 14.05 38.05 11.2 L34.95 8.9 Q33.15 7.55 32.1 6.6 29.35 4.25 27.1 1.25 24.9 -1.65 23.6 -4.5 L23.55 -4.6 Q22.65 -6.1 22.05 -7.5 21.4 -8.5 20.6 -9.5 16.8 -14.2 12.2 -14.2 10.0 -14.2 8.6 -14.15 1.2 -11.6 -2.65 -2.55 -4.45 1.7 -5.3 7.05 -6.0 11.25 -6.0 15.4 -6.0 20.05 -5.65 23.65 -5.25 27.7 -5.15 34.15 L-5.15 39.05 -5.1 39.2 Q-5.1 39.3 -5.1 39.45 L-5.1 41.35 Q-4.95 40.75 -4.75 40.15 -4.2 38.6 -3.0 36.2 -2.15 34.5 -1.65 33.5 L-1.25 32.55 Q-0.45 30.65 -0.45 29.25 -0.45 28.35 -0.65 27.3 L-1.25 25.55 -2.55 21.7 -2.85 20.8 Q-4.15 16.5 -4.15 14.2 -4.15 12.85 -4.05 11.7 -3.9 10.1 -3.6 9.65 -3.75 11.0 -3.75 11.45 -3.75 16.25 -1.8 21.35 L-0.45 24.8 -0.25 25.55 Q-0.05 25.9 0.1 26.4 0.25 26.2 0.4 26.0 0.9 25.4 1.6 25.1 2.35 24.8 2.85 24.95 L2.9 25.0 2.95 24.35 Q2.95 23.45 2.45 21.25 1.95 18.85 1.9 18.25 L1.95 18.25 Q3.4 20.65 3.6 24.45 3.7 26.6 3.55 30.95 3.55 31.6 3.85 32.45 4.25 33.45 5.0 34.3 6.1 35.55 7.65 36.15 8.25 36.4 9.0 36.5 L10.75 36.65 Q12.7 36.65 14.05 35.2 L14.6 34.5 Q14.85 33.7 15.45 33.25 15.85 32.9 17.6 32.25 19.05 31.65 19.75 30.85 20.55 29.85 20.7 28.1 L20.0 26.4 19.6 25.45 19.55 25.4 18.95 24.0 18.35 22.7 18.2 22.35 Q17.15 19.95 16.7 18.3 16.05 16.15 16.2 14.4 L16.3 14.35 Q16.6 16.75 17.55 19.1 18.15 20.65 19.4 22.85 20.7 25.25 21.05 26.05 L21.4 26.95 Q21.6 26.5 21.9 26.15 22.95 24.7 24.25 25.05 L25.25 25.1 Q24.85 23.35 24.45 22.5 L23.0 19.25 22.15 17.35 Q22.15 17.15 22.2 17.2 L22.2 17.25 Q24.05 19.3 25.2 22.15 26.05 24.3 26.65 27.25 26.9 28.5 27.1 30.75 27.3 32.95 27.45 33.8 27.8 35.25 28.5 35.95 29.0 36.4 29.7 36.6 L29.8 36.6 29.8 36.65 29.95 36.65 30.8 36.75 30.9 36.75 Q32.1 36.75 33.4 35.95 L34.25 35.35 Q34.65 35.05 34.8 35.0 35.7 34.75 37.7 34.3 39.4 33.9 39.85 33.5 41.05 32.55 41.45 31.0 L41.65 30.0 Q41.25 29.35 40.6 28.7 L39.9 28.1 Q39.1 27.45 37.9 26.7 L37.85 26.65 36.6 25.9 M49.45 23.25 Q48.55 20.5 47.35 18.25 44.25 12.65 38.15 8.9 33.0 5.8 29.0 1.9 30.75 4.1 32.75 5.8 33.75 6.7 35.6 8.1 L38.85 10.55 Q42.8 13.6 44.35 15.6 45.2 16.7 47.8 21.25 49.4 24.1 50.1 25.55 49.75 24.25 49.45 23.25" fill="#111111" fill-rule="evenodd" stroke="none"/>
    <path d="M-1.65 33.5 Q-1.55 32.15 -1.55 30.85 -1.55 28.65 -2.25 24.9 -2.95 21.6 -2.95 21.25 -2.95 21.1 -2.9 20.95 L-2.85 20.8 -2.55 21.7 -1.25 25.55 -0.65 27.3 Q-0.45 28.35 -0.45 29.25 -0.45 30.65 -1.25 32.55 L-1.65 33.5 M7.65 36.15 L7.55 34.9 Q7.55 32.2 7.95 28.85 8.55 23.35 9.9 23.35 L11.1 26.6 Q12.5 30.05 13.55 30.75 L14.85 30.75 Q15.15 30.6 15.45 29.5 15.65 28.5 15.65 28.0 15.65 27.3 15.1 25.05 14.55 22.8 14.55 23.1 14.55 22.65 15.35 22.4 16.2 22.2 17.2 22.35 17.85 22.45 18.35 22.7 L18.95 24.0 19.55 25.4 19.6 25.45 20.0 26.4 20.7 28.1 Q20.55 29.85 19.75 30.85 19.05 31.65 17.6 32.25 15.85 32.9 15.45 33.25 14.85 33.7 14.6 34.5 L14.05 35.2 Q12.7 36.65 10.75 36.65 L9.0 36.5 Q8.25 36.4 7.65 36.15 M29.7 36.6 L29.6 35.55 29.4 32.6 Q29.4 32.05 29.65 29.95 29.9 27.8 29.9 27.05 L29.95 26.25 30.0 26.2 30.15 26.1 Q30.35 26.55 30.7 27.75 31.0 28.95 31.35 29.6 32.4 31.75 35.55 32.2 35.75 32.0 36.25 31.55 36.65 31.15 36.65 30.8 36.65 30.1 36.05 28.5 L35.1 26.25 35.15 25.9 Q35.65 25.85 36.6 25.9 L37.85 26.65 37.9 26.7 Q39.1 27.45 39.9 28.1 L40.6 28.7 Q41.25 29.35 41.65 30.0 L41.45 31.0 Q41.05 32.55 39.85 33.5 39.4 33.9 37.7 34.3 35.7 34.75 34.8 35.0 34.65 35.05 34.25 35.35 L33.4 35.95 Q32.1 36.75 30.9 36.75 L30.8 36.75 29.95 36.65 29.8 36.65 29.8 36.6 29.7 36.6 M49.45 23.25 Q49.75 24.25 50.1 25.55 49.4 24.1 47.8 21.25 45.2 16.7 44.35 15.6 42.8 13.6 38.85 10.55 L35.6 8.1 Q33.75 6.7 32.75 5.8 30.75 4.1 29.0 1.9 33.0 5.8 38.15 8.9 44.25 12.65 47.35 18.25 48.55 20.5 49.45 23.25" fill="#363636" fill-rule="evenodd" stroke="none"/>
    <path d="M-1.65 33.5 Q-2.15 34.5 -3.0 36.2 -4.2 38.6 -4.75 40.15 -4.95 40.75 -5.1 41.35 L-5.1 39.45 Q-5.1 39.3 -5.1 39.2 L-5.15 39.05 -5.15 34.15 Q-5.25 27.7 -5.65 23.65 -6.0 20.05 -6.0 15.4 -6.0 11.25 -5.3 7.05 -4.45 1.7 -2.65 -2.55 1.2 -11.6 8.6 -14.15 10.0 -14.2 12.2 -14.2 16.8 -14.2 20.6 -9.5 21.4 -8.5 22.05 -7.5 22.65 -6.1 23.55 -4.6 L23.6 -4.5 Q24.9 -1.65 27.1 1.25 29.35 4.25 32.1 6.6 33.15 7.55 34.95 8.9 L38.05 11.2 Q41.75 14.05 43.5 16.1 L43.2 16.1 Q41.0 16.2 39.5 19.7 39.15 20.55 39.05 22.25 39.05 22.7 39.05 24.95 39.05 25.1 39.2 25.7 L37.9 24.75 Q37.0 24.2 34.5 22.7 32.8 21.75 32.55 21.4 29.05 17.1 28.75 11.2 L28.7 11.2 28.65 12.25 28.55 13.1 Q28.55 15.1 29.6 18.15 30.7 21.45 31.95 22.65 32.95 23.65 34.75 24.8 L36.6 25.9 Q35.65 25.85 35.15 25.9 L35.1 26.25 36.05 28.5 Q36.65 30.1 36.65 30.8 36.65 31.15 36.25 31.55 35.75 32.0 35.55 32.2 32.4 31.75 31.35 29.6 31.0 28.95 30.7 27.75 30.35 26.55 30.15 26.1 L30.0 26.2 29.95 26.25 29.9 27.05 Q29.9 27.8 29.65 29.95 29.4 32.05 29.4 32.6 L29.6 35.55 29.7 36.6 Q29.0 36.4 28.5 35.95 27.8 35.25 27.45 33.8 27.3 32.95 27.1 30.75 26.9 28.5 26.65 27.25 26.05 24.3 25.2 22.15 24.05 19.3 22.2 17.25 L22.2 17.2 Q22.15 17.15 22.15 17.35 L23.0 19.25 24.45 22.5 Q24.85 23.35 25.25 25.1 L24.25 25.05 Q22.95 24.7 21.9 26.15 21.6 26.5 21.4 26.95 L21.05 26.05 Q20.7 25.25 19.4 22.85 18.15 20.65 17.55 19.1 16.6 16.75 16.3 14.35 L16.2 14.4 Q16.05 16.15 16.7 18.3 17.15 19.95 18.2 22.35 L18.35 22.7 Q17.85 22.45 17.2 22.35 16.2 22.2 15.35 22.4 14.55 22.65 14.55 23.1 14.55 22.8 15.1 25.05 15.65 27.3 15.65 28.0 15.65 28.5 15.45 29.5 15.15 30.6 14.85 30.75 L13.55 30.75 Q12.5 30.05 11.1 26.6 L9.9 23.35 Q8.55 23.35 7.95 28.85 7.55 32.2 7.55 34.9 L7.65 36.15 Q6.1 35.55 5.0 34.3 4.25 33.45 3.85 32.45 3.55 31.6 3.55 30.95 3.7 26.6 3.6 24.45 3.4 20.65 1.95 18.25 L1.9 18.25 Q1.95 18.85 2.45 21.25 2.95 23.45 2.95 24.35 L2.9 25.0 2.85 24.95 Q2.35 24.8 1.6 25.1 0.9 25.4 0.4 26.0 0.25 26.2 0.1 26.4 -0.05 25.9 -0.25 25.55 L-0.45 24.8 -1.8 21.35 Q-3.75 16.25 -3.75 11.45 -3.75 11.0 -3.6 9.65 -3.9 10.1 -4.05 11.7 -4.15 12.85 -4.15 14.2 -4.15 16.5 -2.85 20.8 L-2.9 20.95 Q-2.95 21.1 -2.95 21.25 -2.95 21.6 -2.25 24.9 -1.55 28.65 -1.55 30.85 -1.55 32.15 -1.65 33.5" fill="#262626" fill-rule="evenodd" stroke="none"/>
  </g>
</svg>
