<?xml version="1.0" encoding="UTF-8" standalone="no"?>
<svg xmlns:ffdec="https://www.free-decompiler.com/flash" xmlns:xlink="http://www.w3.org/1999/xlink" ffdec:objectType="shape" height="60.9px" width="55.3px" xmlns="http://www.w3.org/2000/svg">
  <g transform="matrix(1.0, 0.0, 0.0, 1.0, 5.5, 16.05)">
    <path d="M10.3 -15.5 Q12.55 -16.35 14.9 -15.85 18.3 -15.05 21.7 -11.45 24.4 -8.55 26.5 -4.5 28.3 -1.0 28.5 0.75 28.75 1.35 29.55 3.55 30.2 5.35 30.85 6.4 32.65 9.7 36.65 11.5 L40.75 13.3 Q43.2 14.4 44.65 15.2 48.9 17.5 49.8 19.95 L49.8 20.05 Q47.85 18.45 44.65 16.75 L43.25 16.0 Q40.7 16.25 39.7 18.1 39.05 19.2 39.05 20.85 39.05 22.25 39.75 23.75 L40.35 24.95 Q41.65 25.7 42.2 26.35 42.65 26.45 42.8 27.2 42.85 27.6 42.85 28.05 42.85 29.25 42.35 30.4 41.75 31.8 40.65 32.7 39.6 33.5 36.05 34.7 32.55 35.9 31.25 35.9 27.85 35.9 26.55 32.4 L26.3 31.6 Q25.7 31.05 24.95 30.55 23.0 29.15 21.3 29.15 21.15 29.15 20.7 29.25 L20.25 29.4 20.35 29.85 Q20.35 31.6 15.75 33.9 15.7 33.95 15.1 34.45 14.35 35.1 13.7 35.55 11.5 37.05 9.5 37.05 5.85 37.05 3.9 34.4 3.0 33.15 2.4 30.95 2.3 30.5 2.35 27.55 L2.35 27.1 Q2.25 27.1 2.15 27.0 2.05 26.8 1.9 26.8 1.4 26.8 1.15 26.95 1.1 27.0 1.0 27.05 1.4 29.25 1.4 30.8 1.4 31.6 0.2 34.25 -0.95 36.65 -1.55 37.55 -2.15 38.45 -3.05 40.95 -3.65 42.6 -4.15 43.45 -4.4 44.2 -4.65 44.85 L-4.9 44.75 Q-4.95 44.65 -4.95 44.4 -4.65 42.25 -4.3 39.7 -3.65 34.55 -3.65 30.6 -3.65 27.55 -3.9 25.2 -4.05 23.9 -4.45 21.55 L-4.85 18.85 Q-5.3 16.5 -5.4 15.6 -5.5 14.8 -5.5 11.65 -5.5 6.8 -4.9 3.5 -4.5 0.9 -3.65 -1.05 -3.2 -2.65 -2.6 -4.0 -1.65 -6.15 0.3 -8.45 2.15 -10.65 4.4 -12.45 6.7 -14.25 8.55 -15.0 9.55 -15.4 10.3 -15.5 M38.35 25.9 L36.85 25.2 Q34.7 24.3 33.85 23.9 32.3 23.15 31.5 22.45 29.85 21.0 29.1 18.55 28.9 17.8 28.6 16.5 L28.2 14.6 28.2 14.05 28.3 14.05 Q28.45 14.5 28.8 15.85 29.1 17.1 29.4 17.8 30.35 20.2 32.45 21.55 33.1 21.95 34.95 22.65 L38.35 24.0 38.45 24.05 38.4 23.85 Q38.25 23.2 38.15 22.45 L38.05 21.75 Q38.05 18.3 39.05 16.85 40.05 15.4 41.95 15.4 39.8 14.35 37.3 13.35 34.15 12.1 31.55 9.05 29.45 6.5 28.5 3.9 26.6 -1.55 24.95 -5.0 23.2 -8.6 21.35 -10.75 19.45 -12.85 17.15 -13.8 14.9 -14.75 11.85 -14.75 10.65 -14.75 9.5 -14.5 6.7 -13.2 3.8 -10.55 -0.1 -7.1 -1.9 -3.3 -3.3 -0.35 -3.95 4.1 -4.5 7.55 -4.5 11.55 -4.5 14.4 -4.2 16.85 -4.05 18.25 -3.65 20.85 -2.85 26.0 -2.85 30.65 -2.85 35.4 -3.05 37.7 L-2.85 37.2 Q-2.6 36.65 -1.55 35.5 -1.05 34.9 -0.75 34.45 -0.5 34.05 -0.4 33.8 L0.1 32.25 Q0.5 30.9 0.5 30.35 0.5 28.95 -0.1 26.2 L-1.4 20.75 -1.45 20.7 -1.45 20.55 Q-3.35 12.9 -3.35 8.8 L-3.4 8.45 Q-3.4 8.15 -3.2 7.95 -3.35 9.75 -2.65 12.9 -2.25 14.85 -1.05 18.95 0.2 23.3 0.65 25.25 L0.8 25.9 0.85 25.85 Q1.2 25.5 1.65 25.4 2.1 25.3 2.4 25.45 L2.4 24.05 Q2.4 23.0 1.8 19.8 1.3 16.95 1.1 16.35 L1.2 16.35 Q2.9 19.55 3.2 23.05 3.35 25.15 3.15 29.6 3.15 30.15 3.5 31.05 3.9 32.1 4.6 33.0 5.65 34.35 7.05 35.0 7.4 35.15 7.85 35.25 L8.1 35.3 9.5 35.45 Q11.55 35.45 13.8 33.9 15.85 32.3 16.35 32.1 17.8 31.65 18.7 30.2 L19.1 29.5 Q18.85 28.7 18.6 27.6 L18.5 27.05 18.0 24.5 17.75 23.5 Q17.4 21.95 17.0 20.35 16.25 17.1 16.25 16.3 L16.35 15.2 16.4 13.75 16.5 13.7 Q16.5 16.75 18.35 22.1 19.35 25.1 19.55 25.8 19.95 27.1 20.1 28.0 20.35 27.8 20.85 27.75 21.85 27.65 23.4 28.2 24.85 28.75 25.9 29.6 25.75 28.2 25.65 27.9 25.3 26.45 24.6 23.8 23.75 20.65 23.45 19.5 L23.5 19.5 Q24.45 21.05 25.2 23.45 L26.35 27.35 26.6 28.7 Q26.9 30.05 27.3 31.1 27.65 32.0 28.15 32.65 L28.15 32.7 28.2 32.75 Q29.05 33.9 30.15 34.25 30.7 34.4 31.25 34.4 32.45 34.4 33.9 33.75 35.6 33.0 36.2 32.95 38.4 32.6 39.25 32.15 39.75 31.85 40.3 31.25 41.3 30.45 41.7 29.2 L41.85 28.55 Q41.9 28.15 41.85 27.85 40.8 27.0 38.35 25.9" fill="#111111" fill-rule="evenodd" stroke="none"/>
    <path d="M-0.75 34.45 L-0.65 33.8 Q-0.5 32.55 -0.5 32.4 -0.5 29.75 -1.0 25.05 L-1.5 20.85 -1.45 20.55 -1.45 20.7 -1.4 20.75 -0.1 26.2 Q0.5 28.95 0.5 30.35 0.5 30.9 0.1 32.25 L-0.4 33.8 Q-0.5 34.05 -0.75 34.45 M7.05 35.0 L6.95 34.95 7.0 34.6 Q7.25 31.8 7.25 30.8 7.25 29.15 6.95 27.45 6.65 25.8 6.65 23.0 6.65 22.1 7.1 19.9 7.45 17.9 7.85 17.15 L7.8 17.25 Q7.9 16.85 8.1 16.7 8.15 17.75 9.35 19.3 L10.35 20.65 Q10.95 21.4 11.25 22.0 L11.85 23.25 Q12.25 24.1 12.6 24.65 13.75 26.4 15.85 27.05 L17.3 27.05 Q17.7 26.6 17.75 25.85 17.8 24.9 17.95 24.6 17.9 24.55 17.95 24.55 L18.0 24.5 18.5 27.05 18.6 27.6 Q18.85 28.7 19.1 29.5 L18.7 30.2 Q17.8 31.65 16.35 32.1 15.85 32.3 13.8 33.9 11.55 35.45 9.5 35.45 L8.1 35.3 7.85 35.25 Q7.4 35.15 7.05 35.0 M28.15 32.65 L27.95 31.5 27.65 29.2 Q27.45 27.95 26.55 24.0 25.65 20.3 25.65 20.1 L25.65 19.85 25.7 19.6 25.85 19.6 25.9 19.8 Q26.5 19.8 27.4 20.65 27.75 21.05 29.5 23.2 31.0 25.05 32.1 25.9 33.6 27.15 35.0 27.15 35.65 27.15 36.2 26.9 L37.05 26.45 Q37.65 26.05 38.35 25.9 40.8 27.0 41.85 27.85 41.9 28.15 41.85 28.55 L41.7 29.2 Q41.3 30.45 40.3 31.25 39.75 31.85 39.25 32.15 38.4 32.6 36.2 32.95 35.6 33.0 33.9 33.75 32.45 34.4 31.25 34.4 30.7 34.4 30.15 34.25 29.05 33.9 28.2 32.75 L28.15 32.7 28.15 32.65" fill="#363636" fill-rule="evenodd" stroke="none"/>
    <path d="M-0.75 34.45 Q-1.05 34.9 -1.55 35.5 -2.6 36.65 -2.85 37.2 L-3.05 37.7 Q-2.85 35.4 -2.85 30.65 -2.85 26.0 -3.65 20.85 -4.05 18.25 -4.2 16.85 -4.5 14.4 -4.5 11.55 -4.5 7.55 -3.95 4.1 -3.3 -0.35 -1.9 -3.3 -0.1 -7.1 3.8 -10.55 6.7 -13.2 9.5 -14.5 10.65 -14.75 11.85 -14.75 14.9 -14.75 17.15 -13.8 19.45 -12.85 21.35 -10.75 23.2 -8.6 24.95 -5.0 26.6 -1.55 28.5 3.9 29.45 6.5 31.55 9.05 34.15 12.1 37.3 13.35 39.8 14.35 41.95 15.4 40.05 15.4 39.05 16.85 38.05 18.3 38.05 21.75 L38.15 22.45 Q38.25 23.2 38.4 23.85 L38.45 24.05 38.35 24.0 34.95 22.65 Q33.1 21.95 32.45 21.55 30.35 20.2 29.4 17.8 29.1 17.1 28.8 15.85 28.45 14.5 28.3 14.05 L28.2 14.05 28.2 14.6 28.6 16.5 Q28.9 17.8 29.1 18.55 29.85 21.0 31.5 22.45 32.3 23.15 33.85 23.9 34.7 24.3 36.85 25.2 L38.35 25.9 Q37.65 26.05 37.05 26.45 L36.2 26.9 Q35.65 27.15 35.0 27.15 33.6 27.15 32.1 25.9 31.0 25.05 29.5 23.2 27.75 21.05 27.4 20.65 26.5 19.8 25.9 19.8 L25.85 19.6 25.7 19.6 25.65 19.85 25.65 20.1 Q25.65 20.3 26.55 24.0 27.45 27.95 27.65 29.2 L27.95 31.5 28.15 32.65 Q27.65 32.0 27.3 31.1 26.9 30.05 26.6 28.7 L26.35 27.35 25.2 23.45 Q24.45 21.05 23.5 19.5 L23.45 19.5 Q23.75 20.65 24.6 23.8 25.3 26.45 25.65 27.9 25.75 28.2 25.9 29.6 24.85 28.75 23.4 28.2 21.85 27.65 20.85 27.75 20.35 27.8 20.1 28.0 19.95 27.1 19.55 25.8 19.35 25.1 18.35 22.1 16.5 16.75 16.5 13.7 L16.4 13.75 16.35 15.2 16.25 16.3 Q16.25 17.1 17.0 20.35 17.4 21.95 17.75 23.5 L18.0 24.5 17.95 24.55 Q17.9 24.55 17.95 24.6 17.8 24.9 17.75 25.85 17.7 26.6 17.3 27.05 L15.85 27.05 Q13.75 26.4 12.6 24.65 12.25 24.1 11.85 23.25 L11.25 22.0 Q10.95 21.4 10.35 20.65 L9.35 19.3 Q8.15 17.75 8.1 16.7 7.9 16.85 7.8 17.25 L7.85 17.15 Q7.45 17.9 7.1 19.9 6.65 22.1 6.65 23.0 6.65 25.8 6.95 27.45 7.25 29.15 7.25 30.8 7.25 31.8 7.0 34.6 L6.95 34.95 7.05 35.0 Q5.65 34.35 4.6 33.0 3.9 32.1 3.5 31.05 3.15 30.15 3.15 29.6 3.35 25.15 3.2 23.05 2.9 19.55 1.2 16.35 L1.1 16.35 Q1.3 16.95 1.8 19.8 2.4 23.0 2.4 24.05 L2.4 25.45 Q2.1 25.3 1.65 25.4 1.2 25.5 0.85 25.85 L0.8 25.9 0.65 25.25 Q0.2 23.3 -1.05 18.95 -2.25 14.85 -2.65 12.9 -3.35 9.75 -3.2 7.95 -3.4 8.15 -3.4 8.45 L-3.35 8.8 Q-3.35 12.9 -1.45 20.55 L-1.5 20.85 -1.0 25.05 Q-0.5 29.75 -0.5 32.4 -0.5 32.55 -0.65 33.8 L-0.75 34.45" fill="#262626" fill-rule="evenodd" stroke="none"/>
  </g>
</svg>
