<?xml version="1.0" encoding="UTF-8" standalone="no"?>
<svg xmlns:ffdec="https://www.free-decompiler.com/flash" xmlns:xlink="http://www.w3.org/1999/xlink" ffdec:objectType="shape" height="60.35px" width="56.55px" xmlns="http://www.w3.org/2000/svg">
  <g transform="matrix(1.0, 0.0, 0.0, 1.0, 7.6, 16.2)">
    <path d="M40.75 26.4 Q40.3 25.85 39.8 25.6 37.7 24.75 34.55 24.1 33.15 23.8 32.6 23.65 31.65 23.4 31.15 23.0 30.3 22.4 29.9 21.15 L29.6 20.1 Q29.4 19.5 29.25 19.1 29.1 18.85 28.7 17.35 28.3 15.75 28.3 15.3 L28.3 15.0 28.4 15.0 Q28.7 16.8 30.0 19.3 31.4 21.9 32.25 22.05 35.75 22.75 38.05 23.6 37.95 23.2 37.85 22.75 37.7 22.05 37.6 21.25 L37.55 20.55 Q37.55 18.8 38.45 17.35 39.15 16.15 40.3 15.6 37.9 15.1 36.6 14.45 35.9 14.1 35.15 13.55 L33.7 12.4 Q31.6 10.75 30.15 7.8 29.7 6.85 29.05 5.3 28.3 3.45 28.05 2.9 L26.1 -1.9 Q24.8 -4.9 23.6 -6.7 23.5 -6.85 22.25 -9.1 21.4 -10.55 20.5 -11.45 17.85 -14.05 11.55 -15.0 L9.85 -15.0 8.0 -14.65 Q6.85 -14.1 5.5 -13.25 4.05 -12.35 2.7 -11.35 1.6 -10.5 1.35 -10.2 L0.8 -9.55 Q-2.0 -5.6 -4.0 -1.7 -5.25 0.65 -5.9 3.7 -6.1 4.7 -6.4 6.75 -6.5 8.5 -6.5 11.1 -6.5 13.45 -6.25 15.15 -6.2 16.45 -6.0 18.2 L-5.3 23.3 Q-4.35 30.5 -4.35 34.6 -4.35 37.65 -4.45 39.35 L-4.5 40.4 Q-4.2 39.7 -3.8 38.95 -3.4 38.25 -2.55 36.9 L-1.15 34.65 -0.95 34.25 Q-0.3 32.9 -0.1 31.0 L0.0 30.4 Q0.05 29.1 0.15 28.4 -0.1 26.55 -0.55 24.8 -1.0 22.9 -1.95 20.4 L-1.95 20.35 -2.0 20.3 -2.05 20.15 -2.8 18.0 -3.25 16.7 Q-3.85 14.7 -3.85 12.75 L-3.75 11.1 Q-3.7 9.55 -3.6 8.7 L-3.5 8.65 -3.3 8.7 Q-3.45 9.1 -3.45 10.15 -3.45 12.55 -2.75 15.2 -2.25 16.95 -1.2 19.8 0.05 22.9 0.4 24.05 0.7 25.05 0.85 25.95 1.25 25.7 1.75 25.65 L1.9 25.65 Q1.9 24.9 1.9 24.1 L2.0 21.3 1.9 20.65 Q1.8 20.15 1.8 19.95 1.8 19.75 1.55 18.45 L1.25 17.1 1.4 17.1 Q2.4 19.75 2.9 23.6 L3.25 26.65 Q3.45 28.3 3.65 29.3 4.2 32.05 5.45 33.3 6.5 34.4 8.3 34.7 L8.4 34.7 9.6 34.85 10.0 34.85 Q12.25 34.85 13.95 33.55 L15.05 32.65 Q15.65 32.2 16.05 32.1 18.15 31.75 18.95 31.15 19.1 30.85 19.1 30.5 L19.1 30.4 19.15 30.15 19.1 29.95 Q18.95 29.35 18.85 28.6 L18.8 28.45 Q18.3 25.65 17.95 24.5 17.6 23.55 16.9 20.6 16.1 17.45 16.1 16.9 16.05 16.15 16.1 15.35 16.15 13.8 16.7 13.4 16.45 13.9 16.45 14.45 16.45 16.6 18.4 22.7 L19.75 26.9 20.2 28.6 Q20.5 28.35 21.0 28.2 22.15 27.9 23.7 28.25 24.85 28.55 25.7 29.1 25.35 27.7 25.2 26.05 L25.05 24.3 Q25.05 24.1 24.75 23.05 L24.35 21.85 24.4 21.75 Q25.35 22.2 25.85 24.15 26.1 25.3 26.5 28.1 26.8 29.55 27.2 30.6 27.3 30.85 27.45 31.05 27.65 31.5 27.9 31.8 28.65 32.85 29.8 33.2 30.5 33.4 31.3 33.45 L31.35 33.45 Q32.4 33.45 33.55 32.75 34.75 32.05 35.15 32.05 37.55 32.0 38.45 31.6 39.0 31.35 39.5 30.85 40.55 30.2 41.2 29.15 L41.25 29.05 Q41.6 28.45 41.65 27.9 L41.35 27.25 Q41.05 26.75 40.75 26.4 M22.35 -10.85 Q24.0 -8.4 25.5 -5.55 26.6 -3.3 27.85 -0.25 29.7 4.25 30.05 5.0 31.45 8.0 33.1 10.3 34.4 12.1 37.25 13.2 38.85 13.85 42.5 14.7 L44.25 15.1 44.35 15.1 44.4 15.15 Q46.2 15.65 47.0 16.05 48.95 17.0 48.95 18.6 L48.9 19.05 48.85 19.6 48.75 19.6 Q47.9 18.25 45.65 17.1 44.5 16.55 43.45 16.25 40.1 16.25 38.95 18.25 38.45 19.15 38.45 20.65 38.45 21.65 39.05 22.7 39.65 23.75 39.65 24.0 L39.65 24.2 39.85 24.4 40.25 24.6 Q42.7 26.05 42.7 28.1 42.7 28.75 42.6 28.95 L42.5 29.15 Q42.3 29.9 41.65 30.75 40.8 31.85 39.65 32.55 39.45 32.65 39.1 32.9 38.85 33.15 38.6 33.25 37.85 33.55 35.15 33.6 34.9 33.65 34.55 33.85 L33.8 34.3 Q32.6 35.0 31.35 35.0 28.75 35.0 27.15 32.6 26.85 32.55 26.6 32.15 26.3 31.45 26.0 31.05 24.85 29.5 21.9 29.5 21.15 29.5 20.6 29.8 L20.4 29.9 20.4 30.1 Q20.4 30.5 20.3 31.0 20.15 31.65 19.95 32.05 L19.8 32.1 Q19.05 33.5 18.1 33.6 16.25 33.7 15.15 34.2 14.5 34.5 13.7 35.15 12.95 35.8 12.45 36.0 11.55 36.4 10.0 36.4 3.85 36.4 2.35 29.25 2.15 28.3 2.05 27.25 1.85 27.15 1.65 27.15 L1.1 27.25 1.05 27.3 1.1 28.15 Q1.1 29.3 1.05 29.55 L1.0 29.8 Q1.0 31.65 0.45 33.25 0.05 34.6 -0.95 36.25 L-2.85 39.4 Q-4.0 41.35 -4.85 43.25 L-5.0 44.1 -5.1 44.15 Q-5.45 42.05 -5.35 40.5 L-5.2 37.3 Q-5.2 31.95 -6.15 24.1 L-6.85 18.6 -6.9 17.75 Q-7.6 13.95 -7.6 11.6 -7.6 7.85 -6.8 3.95 -6.2 1.0 -5.35 -0.75 -4.95 -1.85 -4.5 -2.9 -2.75 -7.05 -0.1 -10.1 0.4 -10.85 0.9 -11.4 4.35 -15.4 9.55 -15.8 13.05 -16.75 16.2 -15.5 18.0 -14.95 19.85 -13.45 21.4 -12.2 22.35 -10.85" fill="#111111" fill-rule="evenodd" stroke="none"/>
    <path d="M-0.95 34.25 Q-0.7 31.5 -0.7 31.05 -0.7 30.3 -0.95 27.6 -1.15 25.25 -1.2 24.75 L-1.2 25.2 -1.3 25.2 Q-1.4 24.1 -2.15 21.15 L-2.85 18.25 -2.8 18.0 -2.05 20.15 -2.0 20.3 -1.95 20.35 -1.95 20.4 Q-1.0 22.9 -0.55 24.8 -0.1 26.55 0.15 28.4 0.05 29.1 0.0 30.4 L-0.1 31.0 Q-0.3 32.9 -0.95 34.25 M8.3 34.7 Q8.65 33.4 8.65 32.1 8.65 29.1 7.95 26.2 L7.5 24.2 Q7.25 23.15 7.25 22.35 7.25 21.35 7.55 19.45 7.85 17.05 8.3 16.6 L8.4 16.75 8.45 16.8 8.5 16.8 Q10.65 20.0 13.15 23.4 L14.4 25.0 Q15.2 26.05 15.7 26.8 16.2 27.5 16.95 27.9 17.35 28.1 18.15 28.3 18.55 28.4 18.8 28.5 L18.85 28.6 Q18.95 29.35 19.1 29.95 L19.15 30.15 19.1 30.4 19.1 30.5 Q19.1 30.85 18.95 31.15 18.15 31.75 16.05 32.1 15.65 32.2 15.05 32.65 L13.95 33.55 Q12.25 34.85 10.0 34.85 L9.6 34.85 8.4 34.7 8.3 34.7 M29.8 33.2 L29.7 32.8 Q28.65 29.15 28.1 28.05 26.9 25.55 26.4 23.95 25.65 21.8 25.65 19.95 25.65 19.3 25.9 19.05 L25.9 19.15 26.0 19.1 Q26.4 20.85 29.4 22.9 32.35 24.85 34.55 25.0 38.05 25.3 40.5 26.25 L40.75 26.4 Q41.05 26.75 41.35 27.25 L41.65 27.9 Q41.6 28.45 41.25 29.05 L41.2 29.15 Q40.55 30.2 39.5 30.85 39.0 31.35 38.45 31.6 37.55 32.0 35.15 32.05 34.75 32.05 33.55 32.75 32.4 33.45 31.35 33.45 L31.3 33.45 Q30.5 33.4 29.8 33.2" fill="#363636" fill-rule="evenodd" stroke="none"/>
    <path d="M-0.95 34.25 L-1.15 34.65 -2.55 36.9 Q-3.4 38.25 -3.8 38.95 -4.2 39.7 -4.5 40.4 L-4.45 39.35 Q-4.35 37.65 -4.35 34.6 -4.35 30.5 -5.3 23.3 L-6.0 18.2 Q-6.2 16.45 -6.25 15.15 -6.5 13.45 -6.5 11.1 -6.5 8.5 -6.4 6.75 -6.1 4.7 -5.9 3.7 -5.25 0.65 -4.0 -1.7 -2.0 -5.6 0.8 -9.55 L1.35 -10.2 Q1.6 -10.5 2.7 -11.35 4.05 -12.35 5.5 -13.25 6.85 -14.1 8.0 -14.65 L9.85 -15.0 11.55 -15.0 Q17.85 -14.05 20.5 -11.45 21.4 -10.55 22.25 -9.1 23.5 -6.85 23.6 -6.7 24.8 -4.9 26.1 -1.9 L28.05 2.9 Q28.3 3.45 29.05 5.3 29.7 6.85 30.15 7.8 31.6 10.75 33.7 12.4 L35.15 13.55 Q35.9 14.1 36.6 14.45 37.9 15.1 40.3 15.6 39.15 16.15 38.45 17.35 37.55 18.8 37.55 20.55 L37.6 21.25 Q37.7 22.05 37.85 22.75 37.95 23.2 38.05 23.6 35.75 22.75 32.25 22.05 31.4 21.9 30.0 19.3 28.7 16.8 28.4 15.0 L28.3 15.0 28.3 15.3 Q28.3 15.75 28.7 17.35 29.1 18.85 29.25 19.1 29.4 19.5 29.6 20.1 L29.9 21.15 Q30.3 22.4 31.15 23.0 31.65 23.4 32.6 23.65 33.15 23.8 34.55 24.1 37.7 24.75 39.8 25.6 40.3 25.85 40.75 26.4 L40.5 26.25 Q38.05 25.3 34.55 25.0 32.35 24.85 29.4 22.9 26.4 20.85 26.0 19.1 L25.9 19.15 25.9 19.05 Q25.65 19.3 25.65 19.95 25.65 21.8 26.4 23.95 26.9 25.55 28.1 28.05 28.65 29.15 29.7 32.8 L29.8 33.2 Q28.65 32.85 27.9 31.8 27.65 31.5 27.45 31.05 27.3 30.85 27.2 30.6 26.8 29.55 26.5 28.1 26.1 25.3 25.85 24.15 25.35 22.2 24.4 21.75 L24.35 21.85 24.75 23.05 Q25.05 24.1 25.05 24.3 L25.2 26.05 Q25.35 27.7 25.7 29.1 24.85 28.55 23.7 28.25 22.15 27.9 21.0 28.2 20.5 28.35 20.2 28.6 L19.75 26.9 18.4 22.7 Q16.45 16.6 16.45 14.45 16.45 13.9 16.7 13.4 16.15 13.8 16.1 15.35 16.05 16.15 16.1 16.9 16.1 17.45 16.9 20.6 17.6 23.55 17.95 24.5 18.3 25.65 18.8 28.45 L18.85 28.6 18.8 28.5 Q18.55 28.4 18.15 28.3 17.35 28.1 16.95 27.9 16.2 27.5 15.7 26.8 15.2 26.05 14.4 25.0 L13.15 23.4 Q10.65 20.0 8.5 16.8 L8.45 16.8 8.4 16.75 8.3 16.6 Q7.85 17.05 7.55 19.45 7.25 21.35 7.25 22.35 7.25 23.15 7.5 24.2 L7.95 26.2 Q8.65 29.1 8.65 32.1 8.65 33.4 8.3 34.7 6.5 34.4 5.45 33.3 4.2 32.05 3.65 29.3 3.45 28.3 3.25 26.65 L2.9 23.6 Q2.4 19.75 1.4 17.1 L1.25 17.1 1.55 18.45 Q1.8 19.75 1.8 19.95 1.8 20.15 1.9 20.65 L2.0 21.3 1.9 24.1 Q1.9 24.9 1.9 25.65 L1.75 25.65 Q1.25 25.7 0.85 25.95 0.7 25.05 0.4 24.05 0.05 22.9 -1.2 19.8 -2.25 16.95 -2.75 15.2 -3.45 12.55 -3.45 10.15 -3.45 9.1 -3.3 8.7 L-3.5 8.65 -3.6 8.7 Q-3.7 9.55 -3.75 11.1 L-3.85 12.75 Q-3.85 14.7 -3.25 16.7 L-2.8 18.0 -2.85 18.25 -2.15 21.15 Q-1.4 24.1 -1.3 25.2 L-1.2 25.2 -1.2 24.75 Q-1.15 25.25 -0.95 27.6 -0.7 30.3 -0.7 31.05 -0.7 31.5 -0.95 34.25" fill="#262626" fill-rule="evenodd" stroke="none"/>
  </g>
</svg>
