<?xml version="1.0" encoding="UTF-8" standalone="no"?>
<svg xmlns:ffdec="https://www.free-decompiler.com/flash" xmlns:xlink="http://www.w3.org/1999/xlink" ffdec:objectType="shape" height="59.85px" width="62.35px" xmlns="http://www.w3.org/2000/svg">
  <g transform="matrix(1.0, 0.0, 0.0, 1.0, 14.8, 16.35)">
    <path d="M18.7 -15.9 Q20.1 -15.9 22.9 -11.75 23.85 -10.35 24.8 -8.8 25.55 -7.5 25.65 -7.15 26.5 -5.0 27.15 -2.4 27.6 -0.4 28.1 2.35 29.75 11.85 32.75 16.05 34.4 18.35 36.75 19.4 38.7 20.6 41.9 20.95 L43.8 20.85 45.6 20.8 47.3 20.5 47.55 20.45 Q47.5 20.95 47.0 21.6 46.45 22.3 45.55 22.95 43.45 24.45 41.55 24.45 L39.55 24.25 Q40.65 25.1 40.65 26.9 40.65 27.75 39.85 28.8 39.35 29.5 38.8 29.75 L38.2 30.4 Q35.8 32.7 32.0 32.7 30.55 32.7 29.2 32.1 28.3 31.7 27.0 30.8 25.55 29.8 25.05 29.5 24.0 28.95 23.0 28.95 L22.25 29.05 Q21.6 29.1 21.0 29.05 20.8 29.05 20.5 29.1 L20.4 29.15 20.35 29.45 Q20.2 29.95 19.75 29.95 19.7 29.95 19.45 29.8 18.4 30.6 15.7 32.1 L15.65 32.2 Q15.1 32.8 14.3 33.3 12.25 34.65 9.9 34.65 7.15 34.65 5.6 32.25 5.1 31.45 4.7 30.45 L4.65 30.3 4.5 30.05 3.65 28.65 2.9 27.4 Q1.95 26.1 0.45 25.3 L0.55 26.65 Q0.55 27.55 0.45 28.2 0.2 29.55 -0.8 30.3 -1.35 31.15 -2.4 32.2 -3.7 33.5 -4.15 34.3 -4.95 35.75 -4.95 38.0 -4.95 39.5 -4.2 41.0 L-3.75 42.05 Q-3.5 42.5 -3.5 42.85 -3.5 43.15 -3.6 43.35 L-3.6 43.45 Q-3.7 43.5 -3.85 43.5 -4.05 43.5 -4.35 43.2 L-4.5 43.2 Q-5.9 43.2 -8.95 38.2 -11.2 34.55 -12.3 31.95 -12.95 30.45 -13.85 26.4 -14.8 22.15 -14.8 20.15 -14.8 14.85 -13.6 9.55 -12.2 3.3 -9.6 -0.05 -7.9 -2.3 -5.15 -4.75 -2.9 -6.8 0.45 -9.2 L3.1 -11.3 Q4.65 -12.45 5.75 -13.2 8.9 -15.25 13.25 -16.35 L17.65 -16.05 17.9 -16.05 Q18.4 -15.9 18.7 -15.9 M29.05 20.7 Q29.95 21.8 31.4 22.35 32.65 22.85 35.55 23.15 L37.15 23.35 38.4 23.4 Q42.4 23.4 45.2 21.65 43.5 21.9 40.3 21.9 33.9 21.9 30.2 13.85 29.0 11.15 28.1 7.6 L27.15 3.3 26.15 -1.6 Q25.45 -4.55 24.65 -6.65 22.6 -11.9 18.2 -15.05 L15.8 -15.2 Q10.05 -15.2 1.0 -8.3 -2.15 -5.9 -5.2 -3.05 -7.55 -0.85 -8.7 0.45 -11.6 3.85 -12.9 9.95 -13.85 14.5 -13.85 20.15 -13.85 22.0 -12.85 26.15 -11.95 30.1 -11.2 31.65 -10.3 33.65 -8.05 37.45 -7.35 38.6 -5.5 40.65 L-4.85 41.35 Q-5.25 39.9 -5.4 38.7 -5.65 37.05 -5.65 35.6 -5.65 34.35 -4.9 33.2 -4.7 32.85 -4.05 32.15 L-3.25 31.25 -2.75 30.7 Q-1.95 29.75 -1.55 29.0 -0.8 27.6 -0.8 25.85 -0.8 25.5 -1.0 24.7 L-1.05 24.45 -1.45 23.0 Q-2.1 20.3 -2.1 17.6 L-2.1 16.85 -2.0 16.85 -1.5 19.95 -1.3 21.4 Q-1.25 21.6 -0.5 23.5 L-0.25 24.15 Q-0.1 23.8 0.35 23.85 1.1 23.95 2.4 25.1 L3.35 26.6 Q3.95 27.5 4.35 28.05 4.45 28.15 4.95 29.15 5.45 30.1 6.0 30.75 7.75 32.95 10.65 32.95 L11.7 32.8 12.05 32.7 12.1 32.7 12.2 32.65 13.05 32.3 13.1 32.25 14.0 31.7 Q15.2 30.9 15.55 30.35 15.95 29.8 17.3 29.05 L17.6 28.9 17.6 28.85 18.65 28.3 19.3 27.85 18.6 25.3 Q17.8 22.35 17.3 20.75 L17.35 20.75 18.95 24.3 Q19.85 26.35 20.2 27.55 20.65 27.35 21.45 27.35 23.45 27.35 24.95 27.9 25.95 28.3 27.25 29.2 28.6 30.15 29.25 30.45 30.15 30.9 31.2 31.0 L32.1 31.05 32.15 31.05 33.15 31.0 Q36.7 30.75 38.35 28.5 38.95 27.75 39.25 26.7 L39.3 26.6 38.8 26.0 Q38.15 25.25 37.75 25.1 L35.15 24.65 35.05 24.6 34.75 24.55 34.65 24.55 Q31.9 24.1 31.5 23.75 30.1 22.6 29.35 21.8 28.05 20.4 28.2 19.5 L28.3 19.5 28.3 19.55 Q28.6 20.2 29.05 20.7" fill="#111111" fill-rule="evenodd" stroke="none"/>
    <path d="M-4.05 32.15 Q-3.85 30.3 -3.85 29.1 -3.85 27.75 -4.4 24.3 -4.95 20.9 -4.95 19.95 -4.95 18.25 -4.85 17.45 -4.75 16.4 -4.45 15.55 -4.1 14.6 -2.5 11.95 L-1.45 9.2 -1.75 11.05 -1.8 16.35 Q-1.8 17.3 -1.5 19.95 L-2.0 16.85 -2.1 16.85 -2.1 17.6 Q-2.1 20.3 -1.45 23.0 L-1.05 24.45 -1.0 24.7 Q-0.8 25.5 -0.8 25.85 -0.8 27.6 -1.55 29.0 -1.95 29.75 -2.75 30.7 L-3.25 31.25 -4.05 32.15 M11.7 32.8 Q11.15 29.9 10.8 28.75 10.5 27.95 9.85 26.6 L8.65 24.2 Q7.15 21.1 7.15 19.5 7.15 14.5 8.9 11.9 L8.9 11.85 Q8.9 11.65 9.0 11.55 L9.15 11.5 9.25 11.4 9.15 11.65 9.2 11.6 Q9.65 12.65 9.85 14.3 10.0 15.3 10.15 17.3 10.4 19.05 10.9 20.25 11.6 21.75 13.0 22.85 16.95 25.95 18.7 28.25 L18.65 28.3 17.6 28.85 17.6 28.9 17.3 29.05 Q15.95 29.8 15.55 30.35 15.2 30.9 14.0 31.7 L13.1 32.25 13.05 32.3 12.2 32.65 12.1 32.7 12.05 32.7 11.7 32.8 M31.2 31.0 Q30.2 28.9 29.2 27.1 L26.4 22.25 Q25.25 20.3 24.9 18.8 24.45 16.95 24.45 13.55 24.45 12.6 24.5 12.15 24.6 11.45 24.85 11.05 L24.8 11.3 Q24.95 12.6 25.85 14.5 26.5 15.8 27.9 18.25 L28.7 20.0 29.15 20.85 29.05 20.7 Q28.6 20.2 28.3 19.55 L28.3 19.5 28.2 19.5 Q28.05 20.4 29.35 21.8 30.1 22.6 31.5 23.75 31.9 24.1 34.65 24.55 L34.75 24.55 35.05 24.6 35.15 24.65 37.75 25.1 Q38.15 25.25 38.8 26.0 L39.3 26.6 39.25 26.7 Q38.95 27.75 38.35 28.5 36.7 30.75 33.15 31.0 L32.15 31.05 32.1 31.05 31.2 31.0 M24.8 11.15 Q24.7 11.35 24.6 11.55 L24.6 11.4 Q24.6 11.0 24.65 10.75 L24.8 10.75 24.8 11.15" fill="#363636" fill-rule="evenodd" stroke="none"/>
    <path d="M-4.05 32.15 Q-4.7 32.85 -4.9 33.2 -5.65 34.35 -5.65 35.6 -5.65 37.05 -5.4 38.7 -5.25 39.9 -4.85 41.35 L-5.5 40.65 Q-7.35 38.6 -8.05 37.45 -10.3 33.65 -11.2 31.65 -11.95 30.1 -12.85 26.15 -13.85 22.0 -13.85 20.15 -13.85 14.5 -12.9 9.95 -11.6 3.85 -8.7 0.45 -7.55 -0.85 -5.2 -3.05 -2.15 -5.9 1.0 -8.3 10.05 -15.2 15.8 -15.2 L18.2 -15.05 Q22.6 -11.9 24.65 -6.65 25.45 -4.55 26.15 -1.6 L27.15 3.3 28.1 7.6 Q29.0 11.15 30.2 13.85 33.9 21.9 40.3 21.9 43.5 21.9 45.2 21.65 42.4 23.4 38.4 23.4 L37.15 23.35 35.55 23.15 Q32.65 22.85 31.4 22.35 29.95 21.8 29.05 20.7 L29.15 20.85 28.7 20.0 27.9 18.25 Q26.5 15.8 25.85 14.5 24.95 12.6 24.8 11.3 L24.85 11.05 Q24.6 11.45 24.5 12.15 24.45 12.6 24.45 13.55 24.45 16.95 24.9 18.8 25.25 20.3 26.4 22.25 L29.2 27.1 Q30.2 28.9 31.2 31.0 30.15 30.9 29.25 30.45 28.6 30.15 27.25 29.2 25.95 28.3 24.95 27.9 23.45 27.35 21.45 27.35 20.65 27.35 20.2 27.55 19.85 26.35 18.95 24.3 L17.35 20.75 17.3 20.75 Q17.8 22.35 18.6 25.3 L19.3 27.85 18.65 28.3 18.7 28.25 Q16.95 25.95 13.0 22.85 11.6 21.75 10.9 20.25 10.4 19.05 10.15 17.3 10.0 15.3 9.85 14.3 9.65 12.65 9.2 11.6 L9.15 11.65 9.25 11.4 9.15 11.5 9.0 11.55 Q8.9 11.65 8.9 11.85 L8.9 11.9 Q7.15 14.5 7.15 19.5 7.15 21.1 8.65 24.2 L9.85 26.6 Q10.5 27.95 10.8 28.75 11.15 29.9 11.7 32.8 L10.65 32.95 Q7.75 32.95 6.0 30.75 5.45 30.1 4.95 29.15 4.45 28.15 4.35 28.05 3.95 27.5 3.35 26.6 L2.4 25.1 Q1.1 23.95 0.35 23.85 -0.1 23.8 -0.25 24.15 L-0.5 23.5 Q-1.25 21.6 -1.3 21.4 L-1.5 19.95 Q-1.8 17.3 -1.8 16.35 L-1.75 11.05 -1.45 9.2 -2.5 11.95 Q-4.1 14.6 -4.45 15.55 -4.75 16.4 -4.85 17.45 -4.95 18.25 -4.95 19.95 -4.95 20.9 -4.4 24.3 -3.85 27.75 -3.85 29.1 -3.85 30.3 -4.05 32.15 M24.8 11.15 L24.8 10.75 24.65 10.75 Q24.6 11.0 24.6 11.4 L24.6 11.55 Q24.7 11.35 24.8 11.15" fill="#262626" fill-rule="evenodd" stroke="none"/>
  </g>
</svg>
