<?xml version="1.0" encoding="UTF-8" standalone="no"?>
<svg xmlns:ffdec="https://www.free-decompiler.com/flash" xmlns:xlink="http://www.w3.org/1999/xlink" ffdec:objectType="shape" height="59.5px" width="61.15px" xmlns="http://www.w3.org/2000/svg">
  <g transform="matrix(1.0, 0.0, 0.0, 1.0, 14.95, 15.65)">
    <path d="M8.25 -13.85 Q11.45 -15.55 15.2 -15.3 17.9 -16.35 20.55 -14.1 21.8 -13.05 22.85 -11.45 23.75 -10.15 24.3 -8.85 25.6 -6.35 26.3 -3.6 26.95 -1.1 27.2 1.65 27.55 5.25 27.85 7.0 28.35 9.95 29.35 12.25 29.7 13.0 30.3 14.75 30.9 16.4 31.75 17.45 34.15 20.6 40.35 21.75 L43.85 21.75 44.4 21.55 Q45.1 21.5 45.75 21.2 L46.1 21.2 46.15 21.3 46.2 21.6 Q46.2 21.95 45.25 22.6 44.35 23.25 43.95 23.2 43.55 23.35 43.0 23.5 41.0 24.0 38.1 24.05 38.7 24.35 39.05 24.6 39.8 25.25 40.05 26.35 L40.1 26.25 Q40.2 26.75 40.2 27.4 40.2 27.9 39.8 28.55 39.35 29.25 38.65 29.8 36.8 31.2 34.15 31.2 31.7 31.2 30.0 30.8 28.75 30.5 27.55 29.9 25.95 29.1 25.65 29.0 24.55 28.6 23.2 28.6 20.65 28.6 20.4 28.75 20.35 28.8 20.35 28.9 L20.3 28.9 Q20.2 29.15 19.8 29.85 19.45 30.45 18.95 30.6 L18.05 30.7 Q17.35 30.65 17.1 30.7 16.55 30.85 16.15 31.3 16.05 31.4 15.8 31.9 15.45 32.4 14.95 32.75 13.5 33.95 10.75 33.95 8.45 33.95 6.7 32.65 5.4 31.7 4.25 29.85 3.1 27.8 2.65 27.0 1.8 25.75 1.05 25.75 L0.2 25.8 Q0.1 25.95 -0.25 26.1 L-0.2 26.25 Q-0.2 28.0 -1.05 29.6 -1.6 30.65 -2.85 32.15 -4.25 33.8 -4.65 34.45 -5.5 35.75 -5.5 37.0 -5.5 37.5 -4.7 40.35 -4.5 41.0 -3.9 42.2 -3.45 43.15 -3.35 43.4 L-3.2 43.55 -3.35 43.6 Q-3.35 43.75 -3.4 43.75 L-3.4 43.8 Q-3.4 43.85 -3.6 43.85 -3.9 43.85 -4.15 43.65 -5.8 43.45 -8.95 38.5 -11.35 34.75 -12.8 31.6 -14.1 28.75 -14.6 25.25 -14.95 22.75 -14.95 19.0 -14.95 15.75 -14.75 13.8 -14.55 11.2 -13.9 9.0 -12.45 4.05 -7.85 -1.15 -6.2 -3.05 -3.5 -5.1 -0.6 -7.95 1.3 -9.45 3.95 -11.55 6.45 -12.7 7.4 -13.4 8.25 -13.85 M29.55 21.0 Q30.85 21.8 32.45 22.35 32.9 22.5 35.45 23.2 35.9 22.95 36.7 22.75 35.05 22.2 33.6 21.0 31.15 18.95 29.4 15.15 28.0 12.15 27.2 8.45 26.55 5.55 26.5 3.45 26.05 -1.5 24.4 -6.05 21.65 -13.65 16.9 -14.9 12.25 -14.1 8.7 -12.55 L8.4 -12.45 Q7.35 -11.85 5.95 -11.2 4.35 -10.25 2.85 -9.05 1.4 -7.9 -1.8 -4.85 -4.8 -2.05 -6.9 -0.45 -9.05 1.1 -10.55 4.1 -11.0 4.95 -11.75 6.7 -12.5 8.45 -12.95 9.25 -13.1 9.6 -13.6 13.6 -14.1 17.7 -14.1 19.0 -14.1 22.5 -13.65 25.2 -13.15 28.15 -11.95 30.85 -10.1 35.15 -5.65 40.7 L-5.65 40.6 Q-6.0 39.5 -6.2 38.25 -6.4 37.25 -6.4 37.0 -6.4 35.3 -5.6 33.75 -5.05 32.7 -3.8 31.2 L-3.7 31.15 -2.65 29.8 -2.55 29.7 -2.15 29.2 -2.15 29.15 -2.0 28.9 -1.95 28.85 -1.85 28.7 -1.75 28.35 -1.7 28.1 -1.65 28.05 -1.15 26.35 -1.15 26.25 -1.55 24.3 Q-1.95 22.25 -1.95 21.1 L-1.9 20.05 Q-1.85 19.35 -1.75 19.0 L-1.75 19.05 -1.8 19.15 -1.8 19.4 Q-1.8 19.95 -1.55 21.05 -1.35 21.9 -1.0 23.05 L-0.5 24.9 0.1 24.35 Q2.6 24.5 3.5 25.75 3.8 26.15 4.1 26.95 4.5 27.85 4.7 28.25 L5.1 29.1 Q5.45 29.9 6.0 30.5 7.6 32.3 10.8 32.3 L11.8 32.25 Q12.55 32.15 13.15 32.0 13.55 31.85 13.95 31.65 14.65 31.2 15.4 30.25 16.15 29.25 16.6 29.0 16.8 28.9 17.05 28.85 17.8 28.65 18.85 28.85 19.1 28.7 19.55 28.15 19.5 27.65 18.65 25.1 17.8 22.45 17.3 21.4 L17.35 21.4 Q18.1 22.4 19.35 25.05 20.4 27.25 20.5 27.65 L21.5 27.15 24.85 27.15 25.7 27.7 Q26.55 28.2 27.4 28.55 28.95 29.25 30.5 29.55 L30.55 29.55 30.6 29.6 30.85 29.6 31.65 29.7 32.25 29.75 33.0 29.8 Q37.2 29.8 38.8 28.3 39.05 28.05 39.3 27.7 L38.95 27.05 Q38.6 26.35 38.2 26.0 36.95 24.85 32.65 24.15 L32.65 24.1 Q30.7 23.8 29.8 22.55 L29.05 21.4 Q28.6 20.6 28.2 20.15 L28.3 20.15 Q28.9 20.6 29.55 21.0" fill="#111111" fill-rule="evenodd" stroke="none"/>
    <path d="M-3.7 31.15 Q-3.5 27.95 -3.55 26.95 -3.55 26.25 -4.1 23.05 -4.65 19.85 -4.65 19.55 -4.65 17.75 -4.0 15.55 -3.7 14.5 -3.3 13.7 -2.95 12.65 -2.15 11.4 -1.85 12.65 -1.9 13.2 L-1.95 14.75 Q-1.95 17.1 -1.75 19.0 -1.85 19.35 -1.9 20.05 L-1.95 21.1 Q-1.95 22.25 -1.55 24.3 L-1.15 26.25 -1.15 26.35 -1.65 28.05 -1.7 28.1 -1.75 28.35 -1.85 28.7 -1.95 28.85 -2.0 28.9 -2.15 29.15 -2.15 29.2 -2.55 29.7 -2.65 29.8 -3.7 31.15 M-1.8 19.15 L-1.75 19.1 Q-1.7 20.15 -1.55 21.05 -1.8 19.95 -1.8 19.4 L-1.8 19.15 M11.8 32.25 Q11.25 29.45 10.8 28.2 10.55 27.6 9.9 26.25 L8.7 23.75 Q7.25 20.5 7.25 18.8 7.25 17.0 7.75 15.0 8.2 12.95 9.0 11.85 L9.0 11.7 Q9.0 11.45 9.05 11.4 9.1 11.35 9.25 11.3 L9.35 11.55 9.35 11.5 9.4 11.6 9.45 11.75 Q9.75 12.65 10.0 13.75 L10.45 16.35 Q11.0 19.7 12.25 21.7 12.9 22.8 14.5 24.3 15.8 25.5 17.55 26.8 18.15 27.2 18.9 28.85 L18.85 28.85 Q17.8 28.65 17.05 28.85 16.8 28.9 16.6 29.0 16.15 29.25 15.4 30.25 14.65 31.2 13.95 31.65 13.55 31.85 13.15 32.0 12.55 32.15 11.8 32.25 M30.5 29.55 Q29.35 26.3 28.4 25.2 26.0 22.5 25.1 20.5 24.2 18.5 24.2 15.95 24.2 14.4 24.25 13.55 24.35 12.15 24.6 11.2 L24.65 11.2 24.7 11.75 Q24.75 11.5 24.85 11.45 25.05 11.9 25.05 12.45 25.05 13.1 26.3 15.55 L27.7 18.2 Q27.95 18.7 28.6 19.7 L29.55 21.0 Q28.9 20.6 28.3 20.15 L28.2 20.15 Q28.6 20.6 29.05 21.4 L29.8 22.55 Q30.7 23.8 32.65 24.1 L32.65 24.15 Q36.95 24.85 38.2 26.0 38.6 26.35 38.95 27.05 L39.3 27.7 Q39.05 28.05 38.8 28.3 37.2 29.8 33.0 29.8 L32.25 29.75 31.65 29.7 30.85 29.6 30.6 29.6 30.55 29.55 30.5 29.55" fill="#363636" fill-rule="evenodd" stroke="none"/>
    <path d="M-3.7 31.15 L-3.8 31.2 Q-5.05 32.7 -5.6 33.75 -6.4 35.3 -6.4 37.0 -6.4 37.25 -6.2 38.25 -6.0 39.5 -5.65 40.6 L-5.65 40.7 Q-10.1 35.15 -11.95 30.85 -13.15 28.15 -13.65 25.2 -14.1 22.5 -14.1 19.0 -14.1 17.7 -13.6 13.6 -13.1 9.6 -12.95 9.25 -12.5 8.45 -11.75 6.7 -11.0 4.95 -10.55 4.1 -9.05 1.1 -6.9 -0.45 -4.8 -2.05 -1.8 -4.85 1.4 -7.9 2.85 -9.05 4.35 -10.25 5.95 -11.2 7.35 -11.85 8.4 -12.45 L8.7 -12.55 Q12.25 -14.1 16.9 -14.9 21.65 -13.65 24.4 -6.05 26.05 -1.5 26.5 3.45 26.55 5.55 27.2 8.45 28.0 12.15 29.4 15.15 31.15 18.95 33.6 21.0 35.05 22.2 36.7 22.75 35.9 22.95 35.45 23.2 32.9 22.5 32.45 22.35 30.85 21.8 29.55 21.0 L28.6 19.7 Q27.95 18.7 27.7 18.2 L26.3 15.55 Q25.05 13.1 25.05 12.45 25.05 11.9 24.85 11.45 24.75 11.5 24.7 11.75 L24.65 11.2 24.6 11.2 Q24.35 12.15 24.25 13.55 24.2 14.4 24.2 15.95 24.2 18.5 25.1 20.5 26.0 22.5 28.4 25.2 29.35 26.3 30.5 29.55 28.95 29.25 27.4 28.55 26.55 28.2 25.7 27.7 L24.85 27.15 21.5 27.15 20.5 27.65 Q20.4 27.25 19.35 25.05 18.1 22.4 17.35 21.4 L17.3 21.4 Q17.8 22.45 18.65 25.1 19.5 27.65 19.55 28.15 19.1 28.7 18.85 28.85 L18.9 28.85 Q18.15 27.2 17.55 26.8 15.8 25.5 14.5 24.3 12.9 22.8 12.25 21.7 11.0 19.7 10.45 16.35 L10.0 13.75 Q9.75 12.65 9.45 11.75 L9.4 11.6 9.35 11.5 9.35 11.55 9.25 11.3 Q9.1 11.35 9.05 11.4 9.0 11.45 9.0 11.7 L9.0 11.85 Q8.2 12.95 7.75 15.0 7.25 17.0 7.25 18.8 7.25 20.5 8.7 23.75 L9.9 26.25 Q10.55 27.6 10.8 28.2 11.25 29.45 11.8 32.25 L10.8 32.3 Q7.6 32.3 6.0 30.5 5.45 29.9 5.1 29.1 L4.7 28.25 Q4.5 27.85 4.1 26.95 3.8 26.15 3.5 25.75 2.6 24.5 0.1 24.35 L-0.5 24.9 -1.0 23.05 Q-1.35 21.9 -1.55 21.05 -1.7 20.15 -1.75 19.1 L-1.8 19.15 -1.75 19.05 -1.75 19.0 Q-1.95 17.1 -1.95 14.75 L-1.9 13.2 Q-1.85 12.65 -2.15 11.4 -2.95 12.65 -3.3 13.7 -3.7 14.5 -4.0 15.55 -4.65 17.75 -4.65 19.55 -4.65 19.85 -4.1 23.05 -3.55 26.25 -3.55 26.95 -3.5 27.95 -3.7 31.15" fill="#262626" fill-rule="evenodd" stroke="none"/>
  </g>
</svg>
