<?xml version="1.0" encoding="UTF-8" standalone="no"?>
<svg xmlns:ffdec="https://www.free-decompiler.com/flash" xmlns:xlink="http://www.w3.org/1999/xlink" ffdec:objectType="shape" height="60.2px" width="57.95px" xmlns="http://www.w3.org/2000/svg">
  <g transform="matrix(1.0, 0.0, 0.0, 1.0, 15.05, 16.3)">
    <path d="M28.95 19.35 L29.75 20.3 Q31.05 21.75 32.5 22.6 33.05 22.9 33.75 23.2 28.15 18.85 26.5 4.55 25.8 -1.65 24.95 -6.25 24.8 -7.0 24.25 -8.2 23.45 -9.85 22.3 -11.15 19.0 -15.1 13.95 -15.1 L13.25 -15.05 Q12.35 -14.65 11.05 -13.6 9.35 -12.3 8.75 -11.55 6.05 -8.25 4.05 -6.8 0.3 -4.15 -1.75 -2.55 -4.8 -0.1 -6.45 1.85 -9.25 5.25 -11.05 9.05 -11.7 10.35 -12.2 11.65 L-12.25 11.85 -12.55 12.55 -12.55 12.7 Q-14.15 17.25 -14.15 21.75 -14.15 26.4 -10.8 32.9 -9.55 35.3 -8.1 37.45 -7.25 38.7 -6.4 39.85 L-5.0 41.6 -5.35 40.85 Q-6.4 38.7 -6.55 37.0 L-6.6 36.5 Q-6.6 35.25 -6.05 34.0 -5.5 32.7 -4.45 31.55 -3.7 30.75 -3.0 29.65 L-2.7 29.1 Q-1.5 26.95 -1.3 26.65 L-1.2 26.45 -1.15 26.4 -1.1 26.4 -1.1 26.35 -1.05 26.3 -1.05 26.25 -1.0 26.25 -1.0 26.2 Q-0.6 25.75 -0.25 25.45 L-0.2 25.4 Q0.15 25.1 0.55 24.95 1.15 24.75 1.75 24.85 3.0 25.1 4.85 26.9 L6.4 28.5 Q7.4 29.5 8.05 30.05 9.95 31.7 11.4 31.7 12.25 31.7 13.05 31.45 13.65 31.3 14.2 31.0 L14.55 30.85 Q15.35 30.4 16.6 29.5 L17.65 28.8 17.8 28.65 17.85 28.65 18.95 28.0 19.05 27.95 Q20.5 27.25 22.0 27.25 22.4 27.25 26.05 28.05 28.5 28.6 30.1 28.8 L31.5 28.85 32.25 28.85 Q34.2 28.75 35.55 28.25 36.85 27.75 37.9 26.8 36.9 26.3 34.75 25.35 32.15 24.15 31.3 23.2 L31.05 22.95 31.05 22.9 Q30.3 22.05 29.5 20.9 L29.25 20.55 29.15 20.4 Q27.75 18.25 27.45 17.8 L27.5 17.8 Q28.05 18.3 28.7 19.05 L28.95 19.35 M14.35 -16.3 Q17.8 -16.5 19.95 -14.65 22.05 -13.85 23.35 -12.2 23.85 -11.55 24.95 -9.4 26.15 -7.05 26.65 -3.75 26.95 -1.9 27.4 1.85 28.2 7.3 28.75 9.85 29.65 14.1 30.75 16.8 33.3 22.95 38.2 23.55 39.6 24.0 42.0 24.0 L42.9 23.9 Q42.6 24.3 42.1 24.75 40.8 25.9 39.25 25.9 L39.1 25.9 Q39.2 26.15 39.2 26.45 39.2 26.6 39.1 26.8 L39.0 26.9 Q38.75 27.9 37.65 28.8 36.0 30.2 33.1 30.5 L29.8 30.5 26.55 29.55 Q23.65 28.8 22.05 28.8 20.7 28.8 19.3 29.5 18.45 29.9 16.85 31.05 15.3 32.15 14.35 32.6 12.9 33.3 11.4 33.3 9.6 33.3 7.55 31.6 6.9 31.05 6.3 30.4 L5.85 29.85 Q5.3 29.1 4.3 28.15 3.1 27.1 2.1 26.7 L0.65 26.7 Q0.05 27.2 -2.75 31.25 -5.7 35.6 -5.7 36.55 -5.7 38.0 -4.5 40.75 -3.9 42.1 -3.3 43.2 L-3.3 43.45 -3.4 43.8 -3.6 43.85 -3.9 43.9 Q-5.75 43.9 -8.5 39.55 -10.15 36.9 -12.0 32.85 -13.75 28.95 -14.3 27.15 -15.05 24.6 -15.05 21.75 -15.05 16.45 -13.15 11.2 -11.15 5.85 -7.25 0.95 -5.6 -1.2 -2.25 -3.8 -0.3 -5.3 4.05 -8.45 4.9 -9.1 6.25 -10.85 7.95 -13.2 8.5 -13.75 9.85 -15.3 11.15 -15.7 11.65 -15.85 12.15 -15.85 13.1 -16.2 14.35 -16.3" fill="#111111" fill-rule="evenodd" stroke="none"/>
    <path d="M-11.05 9.05 L-11.15 9.35 Q-11.6 11.55 -11.6 12.4 -11.6 16.65 -11.15 20.8 -10.6 25.8 -9.6 28.9 L-8.25 32.95 Q-7.45 35.25 -6.55 37.0 -6.4 38.7 -5.35 40.85 L-5.0 41.6 -6.4 39.85 Q-7.25 38.7 -8.1 37.45 -9.55 35.3 -10.8 32.9 -14.15 26.4 -14.15 21.75 -14.15 17.25 -12.55 12.7 L-12.55 12.55 -12.25 11.85 -12.2 11.65 Q-11.7 10.35 -11.05 9.05 M-3.0 29.65 L-3.1 28.7 Q-3.1 26.05 -3.2 25.35 -3.45 24.1 -3.65 22.7 -3.9 20.75 -3.9 19.75 -4.05 17.5 -4.05 16.35 -4.0 14.25 -3.2 13.35 -2.95 14.35 -2.65 16.7 -2.25 18.85 -1.55 20.1 -0.8 21.45 0.0 23.4 L0.55 24.95 Q0.15 25.1 -0.2 25.4 L-0.25 25.45 Q-0.6 25.75 -1.0 26.2 L-1.0 26.25 -1.05 26.25 -1.05 26.3 -1.1 26.35 -1.1 26.4 -1.15 26.4 -1.2 26.45 -1.3 26.65 Q-1.5 26.95 -2.7 29.1 L-3.0 29.65 M13.05 31.45 Q12.45 29.35 12.15 28.75 11.0 26.5 10.25 24.85 8.8 21.8 8.8 20.6 8.8 19.65 9.15 17.3 9.35 15.8 9.5 15.1 L9.55 14.55 9.65 14.55 9.7 14.55 Q9.9 20.0 15.95 24.3 17.15 25.2 18.15 26.5 18.75 27.25 19.05 27.95 19.0 28.0 18.95 28.0 L17.85 28.65 17.8 28.65 17.65 28.8 16.6 29.5 Q15.35 30.4 14.55 30.85 L14.2 31.0 Q13.65 31.3 13.05 31.45 M30.1 28.8 Q28.95 27.0 27.45 24.45 26.95 23.65 26.2 20.45 25.4 17.25 25.4 15.9 25.4 15.15 25.5 14.55 L25.65 13.75 25.65 13.85 25.6 13.5 Q25.6 13.35 25.65 13.1 L25.7 12.7 25.85 12.7 Q26.55 15.15 28.95 19.35 L28.7 19.05 Q28.05 18.3 27.5 17.8 L27.45 17.8 Q27.75 18.25 29.15 20.4 L29.25 20.55 29.5 20.9 Q30.3 22.05 31.05 22.9 L31.05 22.95 31.3 23.2 Q32.15 24.15 34.75 25.35 36.9 26.3 37.9 26.8 36.85 27.75 35.55 28.25 34.2 28.75 32.25 28.85 L31.5 28.85 30.1 28.8" fill="#363636" fill-rule="evenodd" stroke="none"/>
    <path d="M-11.05 9.05 Q-9.25 5.25 -6.45 1.85 -4.8 -0.1 -1.75 -2.55 0.3 -4.15 4.05 -6.8 6.05 -8.25 8.75 -11.55 9.35 -12.3 11.05 -13.6 12.35 -14.65 13.25 -15.05 L13.95 -15.1 Q19.0 -15.1 22.3 -11.15 23.45 -9.85 24.25 -8.2 24.8 -7.0 24.95 -6.25 25.8 -1.65 26.5 4.55 28.15 18.85 33.75 23.2 33.05 22.9 32.5 22.6 31.05 21.75 29.75 20.3 L28.95 19.35 Q26.55 15.15 25.85 12.7 L25.7 12.7 25.65 13.1 Q25.6 13.35 25.6 13.5 L25.65 13.85 25.65 13.75 25.5 14.55 Q25.4 15.15 25.4 15.9 25.4 17.25 26.2 20.45 26.95 23.65 27.45 24.45 28.95 27.0 30.1 28.8 28.5 28.6 26.05 28.05 22.4 27.25 22.0 27.25 20.5 27.25 19.05 27.95 L18.95 28.0 Q19.0 28.0 19.05 27.95 18.75 27.25 18.15 26.5 17.15 25.2 15.95 24.3 9.9 20.0 9.7 14.55 L9.65 14.55 9.55 14.55 9.5 15.1 Q9.35 15.8 9.15 17.3 8.8 19.65 8.8 20.6 8.8 21.8 10.25 24.85 11.0 26.5 12.15 28.75 12.45 29.35 13.05 31.45 12.25 31.7 11.4 31.7 9.95 31.7 8.05 30.05 7.4 29.5 6.4 28.5 L4.85 26.9 Q3.0 25.1 1.75 24.85 1.15 24.75 0.55 24.95 L0.0 23.4 Q-0.8 21.45 -1.55 20.1 -2.25 18.85 -2.65 16.7 -2.95 14.35 -3.2 13.35 -4.0 14.25 -4.05 16.35 -4.05 17.5 -3.9 19.75 -3.9 20.75 -3.65 22.7 -3.45 24.1 -3.2 25.35 -3.1 26.05 -3.1 28.7 L-3.0 29.65 Q-3.7 30.75 -4.45 31.55 -5.5 32.7 -6.05 34.0 -6.6 35.25 -6.6 36.5 L-6.55 37.0 Q-7.45 35.25 -8.25 32.95 L-9.6 28.9 Q-10.6 25.8 -11.15 20.8 -11.6 16.65 -11.6 12.4 -11.6 11.55 -11.15 9.35 L-11.05 9.05" fill="#262626" fill-rule="evenodd" stroke="none"/>
  </g>
</svg>
