<?xml version="1.0" encoding="UTF-8" standalone="no"?>
<svg xmlns:ffdec="https://www.free-decompiler.com/flash" xmlns:xlink="http://www.w3.org/1999/xlink" ffdec:objectType="shape" height="59.0px" width="56.5px" xmlns="http://www.w3.org/2000/svg">
  <g transform="matrix(1.0, 0.0, 0.0, 1.0, 14.2, 15.45)">
    <path d="M14.25 -15.45 Q16.35 -15.6 18.7 -14.25 20.65 -13.1 22.3 -11.25 23.75 -9.6 24.1 -8.5 25.8 -5.9 26.7 -2.6 27.45 -0.05 27.8 3.25 28.2 7.2 28.45 9.0 29.05 13.35 29.9 16.6 32.35 26.1 36.7 26.1 39.55 26.1 40.35 25.85 L40.5 25.7 Q41.1 25.6 42.2 24.95 L42.3 24.9 41.85 25.75 41.65 25.95 Q41.5 26.45 40.95 26.75 L40.25 27.3 37.95 28.7 Q37.8 28.8 37.25 29.35 36.7 29.85 36.25 30.15 34.65 31.2 31.9 31.2 30.1 31.2 26.45 29.85 24.4 29.05 23.9 28.9 22.6 28.5 21.9 28.5 20.35 28.5 18.95 29.05 18.0 29.4 16.6 30.25 15.1 31.15 14.45 31.45 13.2 32.0 11.9 32.0 8.35 32.0 4.65 28.45 4.1 27.9 2.35 26.0 1.3 24.9 1.0 24.9 0.1 24.9 -0.35 26.1 L-0.75 27.05 Q-0.95 27.6 -1.15 27.8 L-2.65 29.05 Q-3.7 29.95 -4.0 30.4 -4.95 31.6 -5.65 33.4 -6.35 35.2 -6.35 36.45 -6.35 38.4 -5.3 40.5 L-4.6 41.85 Q-4.25 42.5 -4.25 42.75 L-4.25 42.85 Q-4.25 43.55 -4.85 43.55 -7.3 43.55 -10.1 38.85 -11.05 37.25 -11.9 35.3 -12.6 33.8 -12.8 33.05 -13.75 29.45 -14.0 27.15 -14.2 25.5 -14.2 21.8 -14.2 18.8 -13.9 16.55 -13.55 14.05 -12.7 11.85 -11.1 7.45 -6.4 1.4 -5.55 0.3 -3.95 -0.8 -3.0 -1.5 -0.9 -2.7 1.2 -3.9 2.15 -4.55 3.75 -5.6 4.65 -6.7 5.25 -7.4 6.35 -9.25 7.3 -10.9 8.25 -11.9 9.95 -13.7 11.4 -14.75 12.9 -15.75 13.3 -15.25 13.75 -15.4 14.25 -15.45 M30.4 21.65 Q29.65 19.85 29.05 17.25 28.0 12.95 27.8 11.9 27.15 8.75 27.2 6.55 27.25 3.0 26.25 -0.75 25.3 -4.3 23.6 -7.35 21.85 -10.35 19.75 -12.1 17.5 -13.95 15.3 -13.95 13.3 -13.95 11.65 -13.45 L11.5 -13.35 Q9.7 -11.8 8.55 -10.6 7.65 -9.7 6.85 -8.15 5.95 -6.4 5.35 -5.65 4.5 -4.55 3.0 -3.55 2.05 -2.9 0.1 -1.8 -2.0 -0.65 -2.9 0.0 -4.5 1.05 -5.45 2.15 -10.15 7.5 -11.85 12.2 -13.25 16.1 -13.25 21.8 -13.25 25.9 -13.15 27.0 -12.9 29.1 -11.8 32.75 L-11.7 33.0 Q-9.95 38.6 -6.95 41.05 L-6.85 41.1 Q-6.2 41.6 -5.35 42.1 L-5.15 42.2 -5.25 42.05 -5.35 41.9 Q-6.15 40.75 -6.55 39.4 -7.1 37.65 -7.1 35.5 L-7.1 35.25 Q-7.0 34.2 -6.15 32.3 -5.35 30.45 -4.5 29.2 -4.05 28.55 -3.0 27.7 -1.9 26.8 -1.5 26.4 L-1.4 26.3 Q-1.2 26.05 -1.05 25.55 -0.9 24.85 -0.8 24.65 -0.45 23.8 0.65 23.5 L1.45 23.4 Q2.65 24.0 3.65 25.35 L4.5 26.5 Q5.0 27.15 5.4 27.6 6.45 28.6 7.35 29.15 9.45 30.5 11.95 30.5 12.75 30.5 13.55 30.25 L14.45 29.95 15.25 29.55 16.6 28.75 Q17.85 27.95 18.8 27.6 L18.9 27.55 18.95 27.5 19.05 27.5 20.85 27.05 20.9 27.05 21.9 27.0 Q22.6 27.0 23.95 27.4 L26.6 28.35 Q29.95 29.6 31.6 29.7 L31.9 29.7 Q34.7 29.7 36.05 28.75 36.45 28.5 36.85 28.0 37.25 27.55 37.4 27.45 L37.5 27.4 36.55 27.4 Q33.15 27.4 30.95 22.95 L30.95 22.9 Q30.7 22.4 30.45 21.85 L30.4 21.65" fill="#111111" fill-rule="evenodd" stroke="none"/>
    <path d="M-11.7 33.0 Q-12.6 29.3 -12.6 24.35 -12.6 22.3 -12.3 18.85 -12.0 15.25 -11.65 14.05 -11.75 14.95 -11.75 15.95 -11.75 18.95 -11.45 22.35 -11.05 26.45 -10.45 28.1 -10.05 29.1 -9.55 31.1 -8.95 32.9 -7.85 34.1 -7.55 34.45 -7.1 35.25 L-7.1 35.5 Q-7.1 37.65 -6.55 39.4 -6.15 40.75 -5.35 41.9 L-5.25 42.05 -5.25 42.15 -5.35 42.1 Q-6.2 41.6 -6.85 41.1 L-6.95 41.05 Q-9.95 38.6 -11.7 33.0 M-1.5 26.4 Q-2.05 25.4 -2.6 23.45 -3.0 22.2 -3.3 20.7 L-3.6 19.35 Q-3.6 17.75 -3.55 17.3 -3.45 16.75 -3.25 16.95 -3.0 17.15 -2.45 18.25 L-1.0 21.15 Q-0.6 21.8 0.65 23.5 -0.45 23.8 -0.8 24.65 -0.9 24.85 -1.05 25.55 -1.2 26.05 -1.4 26.3 L-1.5 26.4 M13.55 30.25 Q13.15 29.25 12.75 27.9 12.1 25.95 11.5 23.6 11.05 21.75 11.05 21.6 11.05 21.3 11.1 20.8 L11.05 20.95 Q10.85 20.3 10.85 20.05 10.85 19.75 11.1 19.65 12.4 21.15 14.8 22.85 16.2 23.8 18.95 25.6 20.05 26.4 20.9 27.05 L20.85 27.05 19.05 27.5 18.95 27.5 18.9 27.55 18.8 27.6 Q17.85 27.95 16.6 28.75 L15.25 29.55 14.45 29.95 13.55 30.25 M31.6 29.7 L30.95 28.85 Q29.55 26.75 28.3 23.95 27.7 22.5 26.95 19.85 26.05 16.75 26.05 15.3 26.05 15.1 26.15 14.95 26.2 14.8 26.3 14.8 27.95 18.65 30.25 21.5 L30.4 21.65 30.45 21.85 Q30.7 22.4 30.95 22.9 L30.95 22.95 Q33.15 27.4 36.55 27.4 L37.5 27.4 37.4 27.45 Q37.25 27.55 36.85 28.0 36.45 28.5 36.05 28.75 34.7 29.7 31.9 29.7 L31.6 29.7" fill="#363636" fill-rule="evenodd" stroke="none"/>
    <path d="M-11.7 33.0 L-11.8 32.75 Q-12.9 29.1 -13.15 27.0 -13.25 25.9 -13.25 21.8 -13.25 16.1 -11.85 12.2 -10.15 7.5 -5.45 2.15 -4.5 1.05 -2.9 0.0 -2.0 -0.65 0.1 -1.8 2.05 -2.9 3.0 -3.55 4.5 -4.55 5.35 -5.65 5.95 -6.4 6.85 -8.15 7.65 -9.7 8.55 -10.6 9.7 -11.8 11.5 -13.35 L11.65 -13.45 Q13.3 -13.95 15.3 -13.95 17.5 -13.95 19.75 -12.1 21.85 -10.35 23.6 -7.35 25.3 -4.3 26.25 -0.75 27.25 3.0 27.2 6.55 27.15 8.75 27.8 11.9 28.0 12.95 29.05 17.25 29.65 19.85 30.4 21.65 L30.25 21.5 Q27.95 18.65 26.3 14.8 26.2 14.8 26.15 14.95 26.05 15.1 26.05 15.3 26.05 16.75 26.95 19.85 27.7 22.5 28.3 23.95 29.55 26.75 30.95 28.85 L31.6 29.7 Q29.95 29.6 26.6 28.35 L23.95 27.4 Q22.6 27.0 21.9 27.0 L20.9 27.05 Q20.05 26.4 18.95 25.6 16.2 23.8 14.8 22.85 12.4 21.15 11.1 19.65 10.85 19.75 10.85 20.05 10.85 20.3 11.05 20.95 L11.1 20.8 Q11.05 21.3 11.05 21.6 11.05 21.75 11.5 23.6 12.1 25.95 12.75 27.9 13.15 29.25 13.55 30.25 12.75 30.5 11.95 30.5 9.45 30.5 7.35 29.15 6.45 28.6 5.4 27.6 5.0 27.15 4.5 26.5 L3.65 25.35 Q2.65 24.0 1.45 23.4 L0.65 23.5 Q-0.6 21.8 -1.0 21.15 L-2.45 18.25 Q-3.0 17.15 -3.25 16.95 -3.45 16.75 -3.55 17.3 -3.6 17.75 -3.6 19.35 L-3.3 20.7 Q-3.0 22.2 -2.6 23.45 -2.05 25.4 -1.5 26.4 -1.9 26.8 -3.0 27.7 -4.05 28.55 -4.5 29.2 -5.35 30.45 -6.15 32.3 -7.0 34.2 -7.1 35.25 -7.55 34.45 -7.85 34.1 -8.95 32.9 -9.55 31.1 -10.05 29.1 -10.45 28.1 -11.05 26.45 -11.45 22.35 -11.75 18.95 -11.75 15.95 -11.75 14.95 -11.65 14.05 -12.0 15.25 -12.3 18.85 -12.6 22.3 -12.6 24.35 -12.6 29.3 -11.7 33.0" fill="#262626" fill-rule="evenodd" stroke="none"/>
  </g>
</svg>
