<?xml version="1.0" encoding="UTF-8" standalone="no"?>
<svg xmlns:ffdec="https://www.free-decompiler.com/flash" xmlns:xlink="http://www.w3.org/1999/xlink" ffdec:objectType="shape" height="57.15px" width="52.6px" xmlns="http://www.w3.org/2000/svg">
  <g transform="matrix(1.0, 0.0, 0.0, 1.0, 12.25, 15.1)">
    <path d="M9.1 -12.6 Q11.6 -14.95 14.3 -14.85 17.7 -15.85 20.65 -13.3 23.05 -11.25 24.75 -7.2 26.1 -4.6 26.9 -1.0 27.25 0.65 28.0 5.25 L28.9 11.45 Q29.4 15.0 29.6 17.7 29.75 18.95 30.4 20.95 31.1 22.95 32.05 24.85 33.1 26.9 34.15 28.1 35.3 29.5 36.2 29.5 L38.8 29.3 Q39.0 29.2 39.15 29.15 39.3 29.05 39.45 29.05 40.2 28.8 40.35 28.95 L40.05 29.2 40.1 29.45 Q39.7 30.15 39.55 30.25 39.45 30.3 39.05 30.3 L38.4 30.85 Q37.4 31.6 35.9 32.1 L34.85 32.45 32.45 32.55 Q32.35 32.5 32.35 32.4 L32.35 32.35 Q30.85 32.3 29.4 31.75 28.4 31.4 26.7 30.45 24.95 29.45 24.05 29.1 22.45 28.5 20.85 28.5 19.1 28.5 17.85 29.05 17.1 29.35 16.0 30.2 14.9 31.05 14.25 31.35 13.1 31.9 11.5 31.9 10.55 31.9 9.3 30.9 8.6 30.3 7.0 28.65 5.45 27.05 4.65 26.4 3.3 25.4 2.25 25.4 -0.15 25.4 -3.15 29.2 -4.15 30.45 -5.05 31.95 -5.7 33.0 -5.9 33.45 -6.65 35.15 -7.05 37.75 -7.25 38.95 -7.5 41.0 -7.45 41.2 -7.45 41.25 -7.45 41.6 -7.5 41.7 L-7.55 41.8 -7.6 41.85 -7.6 42.0 -7.7 42.05 -7.8 41.9 Q-8.8 41.85 -9.85 38.7 -10.65 36.3 -11.15 33.45 L-11.8 29.6 Q-12.25 26.55 -12.25 25.2 -12.25 19.6 -10.9 13.7 -9.2 6.55 -6.25 2.95 -5.3 1.8 -3.7 0.45 L-0.7 -1.9 Q3.3 -5.0 4.9 -7.2 L6.7 -9.8 Q8.0 -11.55 9.1 -12.6 M21.75 27.0 Q22.95 27.1 24.05 27.55 24.95 27.9 26.7 28.85 28.45 29.85 29.45 30.2 31.1 30.8 32.8 30.8 33.85 30.8 34.9 30.6 33.0 29.75 31.3 26.05 29.8 22.95 29.05 19.65 28.45 17.15 28.05 13.85 27.85 12.3 27.45 8.05 26.6 -1.1 23.7 -7.0 20.25 -14.15 14.85 -14.15 14.55 -14.15 14.05 -13.95 13.6 -13.7 13.25 -13.7 L13.0 -13.75 Q11.25 -12.95 9.6 -11.35 7.95 -9.75 5.4 -6.05 4.4 -4.55 3.05 -3.3 2.05 -2.4 0.45 -1.2 -1.85 0.45 -2.3 0.8 -3.85 2.05 -5.05 3.3 -8.1 6.6 -9.9 13.75 -11.4 19.65 -11.4 24.85 -11.4 28.25 -10.55 31.9 -10.1 33.85 -9.4 35.85 -8.95 37.1 -8.05 39.4 L-7.95 39.7 Q-7.6 36.1 -7.05 34.15 L-6.7 33.0 Q-5.6 30.0 -3.4 27.75 L-2.05 26.2 Q-1.15 25.15 -0.4 24.65 L-0.25 24.55 0.15 24.3 0.25 24.3 0.3 24.25 Q1.45 23.75 2.8 24.0 3.75 24.2 4.8 24.8 L5.8 25.8 Q6.85 26.95 7.6 27.7 10.25 30.35 11.7 30.35 L13.45 30.3 14.25 29.6 Q15.0 28.9 15.7 28.45 16.05 28.2 16.5 28.0 17.2 27.6 18.0 27.35 19.35 26.95 20.85 26.95 L21.75 27.0" fill="#111111" fill-rule="evenodd" stroke="none"/>
    <path d="M-10.55 31.9 Q-10.75 30.05 -10.9 28.0 L-11.1 25.5 Q-11.1 24.0 -10.9 22.0 -10.7 19.4 -10.35 19.15 -10.25 19.6 -9.6 23.4 -9.15 26.1 -8.65 27.7 -8.3 28.85 -6.85 32.65 L-6.7 33.0 -7.05 34.15 Q-7.6 36.1 -7.95 39.7 L-8.05 39.4 Q-8.95 37.1 -9.4 35.85 -10.1 33.85 -10.55 31.9 M-0.25 24.55 L-0.3 24.6 -0.5 23.7 -0.7 22.55 Q-1.25 21.5 -1.25 20.95 L-1.2 20.7 -1.15 20.75 -1.05 20.75 Q-0.6 21.35 1.4 22.85 2.2 23.45 2.8 24.0 1.45 23.75 0.3 24.25 L0.2 24.05 0.25 24.3 0.15 24.3 -0.25 24.55 M16.5 28.0 Q16.0 26.65 15.9 26.5 L14.15 24.45 Q13.2 23.3 13.2 22.65 L13.2 22.5 13.05 22.2 Q13.75 22.15 15.3 22.75 16.95 23.4 18.55 24.35 20.75 25.7 21.75 27.0 L20.85 26.95 Q19.35 26.95 18.0 27.35 17.2 27.6 16.5 28.0 M13.25 22.65 L13.25 22.6 13.2 22.55 13.25 22.65" fill="#363636" fill-rule="evenodd" stroke="none"/>
    <path d="M-10.55 31.9 Q-11.4 28.25 -11.4 24.85 -11.4 19.65 -9.9 13.75 -8.1 6.6 -5.05 3.3 -3.85 2.05 -2.3 0.8 -1.85 0.45 0.45 -1.2 2.05 -2.4 3.05 -3.3 4.4 -4.55 5.4 -6.05 7.95 -9.75 9.6 -11.35 11.25 -12.95 13.0 -13.75 L13.25 -13.7 Q13.6 -13.7 14.05 -13.95 14.55 -14.15 14.85 -14.15 20.25 -14.15 23.7 -7.0 26.6 -1.1 27.45 8.05 27.85 12.3 28.05 13.85 28.45 17.15 29.05 19.65 29.8 22.95 31.3 26.05 33.0 29.75 34.9 30.6 33.85 30.8 32.8 30.8 31.1 30.8 29.45 30.2 28.45 29.85 26.7 28.85 24.95 27.9 24.05 27.55 22.95 27.1 21.75 27.0 20.75 25.7 18.55 24.35 16.95 23.4 15.3 22.75 13.75 22.15 13.05 22.2 L13.2 22.5 13.2 22.65 Q13.2 23.3 14.15 24.45 L15.9 26.5 Q16.0 26.65 16.5 28.0 16.05 28.2 15.7 28.45 15.0 28.9 14.25 29.6 L13.45 30.3 11.7 30.35 Q10.25 30.35 7.6 27.7 6.85 26.95 5.8 25.8 L4.8 24.8 Q3.75 24.2 2.8 24.0 2.2 23.45 1.4 22.85 -0.6 21.35 -1.05 20.75 L-1.15 20.75 -1.2 20.7 -1.25 20.95 Q-1.25 21.5 -0.7 22.55 L-0.5 23.7 -0.3 24.6 -0.25 24.55 -0.4 24.65 Q-1.15 25.15 -2.05 26.2 L-3.4 27.75 Q-5.6 30.0 -6.7 33.0 L-6.85 32.65 Q-8.3 28.85 -8.65 27.7 -9.15 26.1 -9.6 23.4 -10.25 19.6 -10.35 19.15 -10.7 19.4 -10.9 22.0 -11.1 24.0 -11.1 25.5 L-10.9 28.0 Q-10.75 30.05 -10.55 31.9" fill="#262626" fill-rule="evenodd" stroke="none"/>
  </g>
</svg>
