<?xml version="1.0" encoding="UTF-8" standalone="no"?>
<svg xmlns:ffdec="https://www.free-decompiler.com/flash" xmlns:xlink="http://www.w3.org/1999/xlink" ffdec:objectType="shape" height="55.9px" width="52.6px" xmlns="http://www.w3.org/2000/svg">
  <g transform="matrix(1.0, 0.0, 0.0, 1.0, 12.8, 15.1)">
    <path d="M21.55 27.45 L22.05 27.45 Q23.4 27.45 24.9 28.2 25.75 28.65 27.75 29.85 29.7 30.95 31.65 31.5 33.0 31.9 34.55 32.1 32.9 30.65 31.45 27.75 30.5 25.95 29.75 23.65 L29.05 21.4 Q28.25 18.85 27.8 15.05 27.35 10.85 27.05 8.7 26.45 4.45 26.15 2.3 25.55 -1.4 24.65 -3.95 23.15 -8.2 21.45 -10.35 18.85 -13.75 14.85 -14.05 12.35 -12.9 10.0 -10.5 L7.55 -7.85 Q6.05 -6.2 5.0 -5.25 2.6 -3.2 -0.5 -0.05 -3.2 2.65 -5.45 5.2 -8.55 8.6 -10.4 15.6 -11.95 21.45 -11.95 26.65 -11.95 29.6 -11.05 32.7 L-10.55 34.2 Q-9.7 36.6 -8.15 39.45 -8.05 37.3 -7.45 35.3 -7.25 34.55 -6.95 33.8 -5.5 30.0 -2.6 27.65 -2.3 27.4 -1.3 26.2 -0.4 25.15 0.35 24.65 1.25 24.05 2.3 23.9 L2.35 23.9 Q3.4 23.8 4.65 24.15 L4.7 24.2 Q5.5 24.45 6.4 24.9 L7.25 25.85 Q8.2 26.85 9.1 27.6 12.05 30.05 15.15 30.05 16.1 30.05 16.95 29.65 17.35 29.45 18.3 28.75 18.95 28.3 19.45 28.05 L19.6 27.95 19.75 27.9 19.95 27.8 20.05 27.8 20.05 27.75 20.2 27.75 20.3 27.7 20.45 27.65 Q20.95 27.5 21.55 27.45 M10.8 -12.85 Q13.85 -15.5 15.55 -14.95 18.45 -15.7 21.5 -12.0 22.85 -10.35 24.0 -8.1 24.85 -6.45 25.2 -5.4 26.9 0.4 27.8 7.75 L28.65 14.3 Q29.2 18.15 29.95 20.85 30.5 22.9 30.9 24.05 31.6 25.95 32.45 27.45 32.7 27.8 33.05 28.25 35.05 31.95 38.15 32.2 L38.25 32.25 38.65 32.2 39.8 32.15 Q39.4 32.35 39.2 32.55 39.1 32.65 38.85 33.05 L38.8 33.2 Q38.6 33.45 38.2 33.55 37.7 33.7 36.4 33.7 33.75 33.7 31.35 32.95 29.65 32.4 27.65 31.3 25.65 30.1 24.75 29.65 23.25 28.95 22.05 28.95 20.85 28.95 19.9 29.35 19.3 29.6 18.45 30.2 17.55 30.9 17.05 31.1 16.2 31.5 15.15 31.5 13.0 31.5 11.15 30.5 9.9 29.85 8.35 28.35 6.45 26.5 6.0 26.15 4.7 25.2 3.4 25.2 1.3 25.2 -2.1 28.7 -3.2 29.85 -4.25 31.2 -5.1 32.25 -5.2 32.45 -6.4 34.9 -6.9 36.35 -7.65 38.55 -7.7 40.3 L-7.65 40.35 -7.75 40.7 -7.7 40.75 -7.9 40.8 Q-8.4 40.8 -9.95 37.8 -11.4 35.05 -11.75 33.9 -12.8 27.75 -12.8 26.7 -12.8 21.0 -11.3 15.0 -9.4 7.75 -6.0 4.0 -4.35 2.1 -0.7 -1.4 L4.75 -6.7 7.6 -9.75 Q9.5 -11.75 10.8 -12.85" fill="#111111" fill-rule="evenodd" stroke="none"/>
    <path d="M-11.05 32.7 Q-11.65 29.6 -11.65 26.7 L-11.5 25.45 Q-11.4 24.2 -11.35 23.55 L-11.2 23.55 Q-10.75 27.4 -8.45 33.0 L-7.45 35.3 Q-8.05 37.3 -8.15 39.45 -9.7 36.6 -10.55 34.2 L-11.05 32.7 M2.3 23.9 L2.3 23.7 Q2.3 22.15 2.7 21.1 3.15 19.9 4.3 18.5 L4.25 18.9 Q4.2 19.2 4.2 19.35 4.2 20.45 4.7 24.2 L4.65 24.15 Q3.4 23.8 2.35 23.9 L2.3 23.9 M19.45 28.05 L19.0 26.65 Q18.2 23.9 18.2 22.4 L18.2 22.1 18.35 22.1 Q20.35 25.0 21.55 27.45 20.95 27.5 20.45 27.65 L20.3 27.7 20.2 27.75 20.05 27.75 20.05 27.8 19.95 27.8 19.75 27.9 19.6 27.95 19.45 28.05" fill="#363636" fill-rule="evenodd" stroke="none"/>
    <path d="M-11.05 32.7 Q-11.95 29.6 -11.95 26.65 -11.95 21.45 -10.4 15.6 -8.55 8.6 -5.45 5.2 -3.2 2.65 -0.5 -0.05 2.6 -3.2 5.0 -5.25 6.05 -6.2 7.55 -7.85 L10.0 -10.5 Q12.35 -12.9 14.85 -14.05 18.85 -13.75 21.45 -10.35 23.15 -8.2 24.65 -3.95 25.55 -1.4 26.15 2.3 26.45 4.45 27.05 8.7 27.35 10.85 27.8 15.05 28.25 18.85 29.05 21.4 L29.75 23.65 Q30.5 25.95 31.45 27.75 32.9 30.65 34.55 32.1 33.0 31.9 31.65 31.5 29.7 30.95 27.75 29.85 25.75 28.65 24.9 28.2 23.4 27.45 22.05 27.45 L21.55 27.45 Q20.35 25.0 18.35 22.1 L18.2 22.1 18.2 22.4 Q18.2 23.9 19.0 26.65 L19.45 28.05 Q18.95 28.3 18.3 28.75 17.35 29.45 16.95 29.65 16.1 30.05 15.15 30.05 12.05 30.05 9.1 27.6 8.2 26.85 7.25 25.85 L6.4 24.9 Q5.5 24.45 4.7 24.2 4.2 20.45 4.2 19.35 4.2 19.2 4.25 18.9 L4.3 18.5 Q3.15 19.9 2.7 21.1 2.3 22.15 2.3 23.7 L2.3 23.9 Q1.25 24.05 0.35 24.65 -0.4 25.15 -1.3 26.2 -2.3 27.4 -2.6 27.65 -5.5 30.0 -6.95 33.8 -7.25 34.55 -7.45 35.3 L-8.45 33.0 Q-10.75 27.4 -11.2 23.55 L-11.35 23.55 Q-11.4 24.2 -11.5 25.45 L-11.65 26.7 Q-11.65 29.6 -11.05 32.7" fill="#262626" fill-rule="evenodd" stroke="none"/>
  </g>
</svg>
