<?xml version="1.0" encoding="UTF-8" standalone="no"?>
<svg xmlns:ffdec="https://www.free-decompiler.com/flash" xmlns:xlink="http://www.w3.org/1999/xlink" ffdec:objectType="shape" height="57.3px" width="49.05px" xmlns="http://www.w3.org/2000/svg">
  <g transform="matrix(1.0, 0.0, 0.0, 1.0, 12.05, 14.85)">
    <path d="M15.2 -14.7 Q18.5 -15.5 21.3 -11.25 22.4 -9.55 23.6 -6.8 24.8 -4.0 24.95 -3.8 26.05 -0.85 26.85 2.95 27.4 5.75 27.9 9.8 28.2 12.0 28.55 16.55 28.95 20.65 29.85 23.4 L30.8 26.8 Q31.4 28.95 31.95 30.25 L32.25 30.85 32.65 32.0 Q34.35 36.05 37.0 37.5 L36.85 37.75 Q36.65 37.95 36.45 37.95 35.85 37.95 33.85 36.6 L31.5 34.85 Q30.05 35.1 28.4 34.45 27.25 34.05 25.65 32.95 L23.1 31.3 Q21.75 30.5 20.8 30.5 19.9 30.5 19.0 30.9 18.6 31.05 17.5 31.7 16.5 32.3 15.75 32.55 14.65 32.95 13.35 32.95 11.15 32.95 8.3 30.95 6.95 30.0 6.4 29.6 5.5 29.0 5.15 29.0 -2.4 29.0 -6.75 35.3 -8.15 37.25 -9.1 39.75 L-9.6 41.25 Q-9.55 41.6 -9.55 41.75 -9.55 42.05 -9.6 42.3 L-9.7 42.35 -9.85 42.45 Q-10.8 41.1 -11.2 39.1 -11.45 37.85 -11.55 35.7 L-11.85 32.3 Q-12.05 30.1 -12.05 28.9 -12.05 25.55 -11.45 21.65 -11.25 20.55 -10.9 18.9 L-10.9 18.8 -10.6 17.45 -10.3 16.2 Q-8.9 10.7 -7.1 7.4 L-7.05 7.25 Q-6.6 6.45 -6.2 5.9 L-5.55 5.1 Q-2.35 1.2 -0.8 -0.45 2.15 -3.7 4.7 -5.7 5.85 -6.6 7.15 -8.5 8.75 -10.8 9.45 -11.5 L10.85 -13.0 Q11.75 -13.85 12.6 -14.25 13.85 -14.85 15.2 -14.7 M-7.5 34.65 Q-6.15 32.65 -4.2 31.0 -1.8 29.0 0.75 28.05 3.35 27.1 5.15 27.6 5.45 27.7 6.4 28.35 L8.25 29.65 Q11.05 31.45 13.3 31.45 15.15 31.45 17.4 30.2 18.6 29.55 19.05 29.4 19.95 29.0 20.75 29.0 22.15 29.0 24.85 30.65 25.7 31.2 26.8 31.95 L28.1 32.9 Q28.65 33.25 29.15 33.3 L30.05 33.2 Q31.2 33.05 32.35 33.85 L32.8 34.15 Q32.05 32.8 31.25 31.1 30.65 29.8 30.05 27.85 L29.1 24.5 Q28.3 21.75 27.8 17.95 27.55 16.0 27.1 11.25 26.75 7.35 25.95 3.35 24.95 -1.45 23.5 -5.1 20.6 -12.55 16.45 -13.7 L15.4 -13.75 Q13.1 -13.75 10.85 -11.65 9.85 -10.7 8.7 -9.05 7.55 -7.2 6.9 -6.3 5.75 -4.75 4.2 -3.55 1.5 -1.5 -1.2 1.4 -3.85 4.25 -5.5 6.7 -7.25 9.4 -8.35 11.8 -8.7 12.95 -9.05 14.15 L-9.2 14.6 Q-9.7 16.6 -10.3 19.55 L-10.4 20.2 -10.9 23.75 Q-11.15 26.05 -11.15 28.9 -11.15 33.2 -10.35 37.55 L-9.8 40.25 Q-9.5 38.05 -8.25 35.85 -7.9 35.25 -7.5 34.65" fill="#111111" fill-rule="evenodd" stroke="none"/>
    <path d="M-9.05 14.15 L-9.3 15.7 Q-9.65 18.15 -9.65 20.75 -9.65 21.55 -9.3 23.15 L-8.55 26.5 Q-7.7 30.4 -7.5 34.65 -7.9 35.25 -8.25 35.85 -9.5 38.05 -9.8 40.25 L-10.35 37.55 Q-11.15 33.2 -11.15 28.9 -11.15 26.05 -10.9 23.75 L-10.4 20.2 -10.3 19.55 Q-9.7 16.6 -9.2 14.6 L-9.05 14.15" fill="#363636" fill-rule="evenodd" stroke="none"/>
    <path d="M-9.05 14.15 Q-8.7 12.95 -8.35 11.8 -7.25 9.4 -5.5 6.7 -3.85 4.25 -1.2 1.4 1.5 -1.5 4.2 -3.55 5.75 -4.75 6.9 -6.3 7.55 -7.2 8.7 -9.05 9.85 -10.7 10.85 -11.65 13.1 -13.75 15.4 -13.75 L16.45 -13.7 Q20.6 -12.55 23.5 -5.1 24.95 -1.45 25.95 3.35 26.75 7.35 27.1 11.25 27.55 16.0 27.8 17.95 28.3 21.75 29.1 24.5 L30.05 27.85 Q30.65 29.8 31.25 31.1 32.05 32.8 32.8 34.15 L32.35 33.85 Q31.2 33.05 30.05 33.2 L29.15 33.3 Q28.65 33.25 28.1 32.9 L26.8 31.95 Q25.7 31.2 24.85 30.65 22.15 29.0 20.75 29.0 19.95 29.0 19.05 29.4 18.6 29.55 17.4 30.2 15.15 31.45 13.3 31.45 11.05 31.45 8.25 29.65 L6.4 28.35 Q5.45 27.7 5.15 27.6 3.35 27.1 0.75 28.05 -1.8 29.0 -4.2 31.0 -6.15 32.65 -7.5 34.65 -7.7 30.4 -8.55 26.5 L-9.3 23.15 Q-9.65 21.55 -9.65 20.75 -9.65 18.15 -9.3 15.7 L-9.05 14.15" fill="#262626" fill-rule="evenodd" stroke="none"/>
  </g>
</svg>
