<?xml version="1.0" encoding="UTF-8" standalone="no"?>
<svg xmlns:ffdec="https://www.free-decompiler.com/flash" xmlns:xlink="http://www.w3.org/1999/xlink" ffdec:objectType="shape" height="57.2px" width="46.9px" xmlns="http://www.w3.org/2000/svg">
  <g transform="matrix(1.0, 0.0, 0.0, 1.0, 12.95, 14.25)">
    <path d="M15.85 23.7 L15.9 22.8 16.0 22.8 Q16.05 24.15 16.85 27.8 L17.4 30.2 Q17.5 30.05 17.65 29.9 18.1 29.25 18.9 29.05 19.65 28.9 20.45 29.25 21.35 29.65 22.05 30.55 22.1 30.65 22.6 31.65 23.1 32.7 23.65 33.4 25.45 35.75 28.9 35.75 30.8 35.75 31.4 35.35 31.6 35.15 31.75 35.05 32.0 34.9 32.55 34.9 L32.85 35.0 32.65 33.3 31.7 26.4 Q30.55 17.9 29.05 12.6 28.7 11.3 28.2 9.1 L27.35 5.55 Q26.3 1.3 24.85 -1.25 24.3 -2.25 23.55 -4.7 22.75 -7.15 22.1 -8.3 21.0 -10.25 19.1 -11.35 17.05 -12.5 13.9 -12.85 10.35 -11.6 7.65 -8.6 6.5 -7.35 4.75 -4.9 2.95 -2.3 2.05 -1.3 -0.95 2.2 -3.3 6.0 -5.5 9.7 -6.95 13.5 -9.15 19.25 -10.4 28.15 -10.7 30.6 -11.3 35.5 -11.75 39.05 -12.2 41.65 -10.25 40.85 -8.5 39.1 -7.95 38.55 -7.2 37.7 -6.55 36.9 -5.8 35.9 -4.85 34.65 -4.2 33.9 L-3.5 33.15 Q-2.25 32.0 -0.95 32.0 0.1 32.0 1.4 32.9 1.8 33.15 3.8 34.9 5.4 36.3 6.65 36.95 8.4 37.85 10.2 37.85 13.15 37.85 15.1 34.95 L15.15 34.85 15.25 34.75 15.65 34.1 16.05 33.3 16.2 32.95 Q16.2 32.55 16.5 31.95 16.8 31.35 16.8 31.15 L16.25 28.3 Q15.7 25.4 15.7 24.8 15.7 24.7 15.8 23.95 L15.85 23.7 M9.05 -11.1 Q13.8 -15.4 16.35 -13.8 18.8 -13.6 21.2 -10.7 22.55 -9.05 23.7 -6.7 24.6 -4.95 25.0 -3.6 26.4 -0.75 27.55 3.1 28.05 4.75 29.4 10.0 31.6 18.7 32.5 23.6 33.95 31.25 33.95 37.2 33.95 37.5 33.8 38.75 L33.65 40.05 Q33.4 38.7 33.15 37.0 32.65 36.8 32.5 36.65 32.45 36.55 32.3 36.55 L31.9 36.75 Q30.5 37.4 28.85 37.4 26.55 37.4 24.95 36.2 23.75 35.35 22.75 33.65 21.8 31.75 21.35 31.05 20.55 29.85 19.65 29.85 18.5 29.85 17.75 30.7 L17.6 30.95 17.7 31.35 17.7 31.55 Q17.7 32.05 17.15 33.3 16.5 34.65 15.6 35.9 13.1 39.35 10.2 39.35 8.35 39.35 6.55 38.45 5.2 37.75 3.55 36.4 1.8 34.95 1.05 34.4 -0.15 33.45 -1.0 33.45 -1.7 33.45 -3.15 34.75 -3.95 35.45 -6.05 37.7 -8.15 39.85 -9.3 40.9 -11.1 42.45 -12.4 42.95 L-12.6 42.95 Q-12.85 42.95 -12.95 42.65 L-12.95 42.3 Q-12.95 39.3 -11.0 28.0 -8.95 16.1 -7.55 12.5 -6.35 9.35 -3.65 5.1 -2.0 2.6 1.6 -2.4 5.75 -8.1 9.05 -11.1" fill="#111111" fill-rule="evenodd" stroke="none"/>
    <path d="M-7.2 37.7 L-7.2 36.2 Q-7.2 33.8 -7.1 32.2 -6.95 29.7 -6.55 28.35 -5.8 25.75 -5.4 24.4 -4.6 21.95 -3.85 21.05 L-4.15 25.7 Q-4.35 28.65 -4.35 30.25 -4.35 31.1 -4.2 33.9 -4.85 34.65 -5.8 35.9 -6.55 36.9 -7.2 37.7 M15.1 34.95 L14.85 32.55 Q14.4 27.85 14.4 26.65 14.4 25.35 14.45 24.95 14.5 24.45 14.65 24.15 L14.75 23.35 Q14.95 21.95 15.4 21.1 L15.85 23.7 15.8 23.95 Q15.7 24.7 15.7 24.8 15.7 25.4 16.25 28.3 L16.8 31.15 Q16.8 31.35 16.5 31.95 16.2 32.55 16.2 32.95 L16.05 33.3 15.65 34.1 15.25 34.75 15.15 34.85 15.1 34.95" fill="#363636" fill-rule="evenodd" stroke="none"/>
    <path d="M-7.2 37.7 Q-7.95 38.55 -8.5 39.1 -10.25 40.85 -12.2 41.65 -11.75 39.05 -11.3 35.5 -10.7 30.6 -10.4 28.15 -9.15 19.25 -6.95 13.5 -5.5 9.7 -3.3 6.0 -0.95 2.2 2.05 -1.3 2.95 -2.3 4.75 -4.9 6.5 -7.35 7.65 -8.6 10.35 -11.6 13.9 -12.85 17.05 -12.5 19.1 -11.35 21.0 -10.25 22.1 -8.3 22.75 -7.15 23.55 -4.7 24.3 -2.25 24.85 -1.25 26.3 1.3 27.35 5.55 L28.2 9.1 Q28.7 11.3 29.05 12.6 30.55 17.9 31.7 26.4 L32.65 33.3 32.85 35.0 32.55 34.9 Q32.0 34.9 31.75 35.05 31.6 35.15 31.4 35.35 30.8 35.75 28.9 35.75 25.45 35.75 23.65 33.4 23.1 32.7 22.6 31.65 22.1 30.65 22.05 30.55 21.35 29.65 20.45 29.25 19.65 28.9 18.9 29.05 18.1 29.25 17.65 29.9 17.5 30.05 17.4 30.2 L16.85 27.8 Q16.05 24.15 16.0 22.8 L15.9 22.8 15.85 23.7 15.4 21.1 Q14.95 21.95 14.75 23.35 L14.65 24.15 Q14.5 24.45 14.45 24.95 14.4 25.35 14.4 26.65 14.4 27.85 14.85 32.55 L15.1 34.95 Q13.15 37.85 10.2 37.85 8.4 37.85 6.65 36.95 5.4 36.3 3.8 34.9 1.8 33.15 1.4 32.9 0.1 32.0 -0.95 32.0 -2.25 32.0 -3.5 33.15 L-4.2 33.9 Q-4.35 31.1 -4.35 30.25 -4.35 28.65 -4.15 25.7 L-3.85 21.05 Q-4.6 21.95 -5.4 24.4 -5.8 25.75 -6.55 28.35 -6.95 29.7 -7.1 32.2 -7.2 33.8 -7.2 36.2 L-7.2 37.7" fill="#262626" fill-rule="evenodd" stroke="none"/>
  </g>
</svg>
