<?xml version="1.0" encoding="UTF-8" standalone="no"?>
<svg xmlns:ffdec="https://www.free-decompiler.com/flash" xmlns:xlink="http://www.w3.org/1999/xlink" ffdec:objectType="shape" height="59.45px" width="48.65px" xmlns="http://www.w3.org/2000/svg">
  <g transform="matrix(1.0, 0.0, 0.0, 1.0, 12.85, 14.15)">
    <path d="M11.15 -13.25 Q13.9 -14.55 15.9 -13.95 L16.2 -14.0 Q19.8 -14.0 22.8 -8.6 23.75 -6.8 24.65 -4.5 L25.55 -1.95 Q27.5 3.55 29.35 10.1 L30.15 12.2 Q31.1 14.55 32.9 18.85 34.3 22.45 35.0 25.25 35.8 28.8 35.8 32.45 L35.65 36.8 Q35.55 37.25 35.55 37.75 L35.45 37.85 35.4 38.0 Q35.25 39.6 35.05 40.05 L34.9 40.1 34.95 39.85 Q34.95 38.35 34.8 36.6 L34.6 36.9 Q33.75 37.8 32.25 37.8 27.0 37.8 23.15 34.45 22.0 33.4 20.9 32.05 20.05 30.8 19.85 30.65 L18.95 30.7 Q18.55 30.95 17.9 31.25 L17.95 31.4 Q17.95 31.95 17.7 33.0 17.35 34.45 16.75 35.65 14.9 39.2 11.2 39.2 9.3 39.2 7.45 38.45 6.15 37.85 4.4 36.7 2.15 35.15 1.85 34.95 0.5 34.2 -0.6 34.2 -2.4 34.2 -3.85 35.9 -4.75 36.95 -5.85 39.2 -6.3 40.65 -6.7 40.95 -7.7 42.9 -8.15 43.6 -9.35 45.3 -10.75 45.3 -11.95 45.3 -12.45 45.0 -12.85 44.8 -12.85 44.55 -12.85 44.15 -12.3 42.7 L-12.2 42.45 -12.0 41.6 Q-11.55 39.05 -11.55 38.55 -11.55 31.85 -10.65 23.6 -9.55 13.65 -7.8 10.3 -6.2 7.25 -3.55 3.25 -2.25 1.2 1.2 -3.7 3.2 -6.55 3.8 -7.3 5.35 -9.35 6.85 -10.45 9.65 -12.5 11.15 -13.25 M16.25 22.55 L16.3 21.7 16.4 21.7 Q16.55 23.7 17.2 26.95 17.5 28.7 17.65 30.2 17.9 29.9 18.25 29.7 19.5 29.05 20.75 29.75 21.0 30.1 21.75 30.95 L22.95 32.3 23.65 33.15 Q24.4 33.95 25.3 34.5 26.0 34.95 26.85 35.3 26.5 34.8 26.2 34.05 25.85 33.15 25.5 31.9 L25.05 30.45 25.15 30.45 Q26.55 33.3 28.1 34.9 L28.95 35.65 Q29.1 35.85 29.2 36.0 30.6 36.3 32.2 36.3 33.85 36.3 34.35 35.65 L34.55 35.15 34.65 35.0 Q34.15 30.95 32.8 26.0 32.35 24.3 30.9 19.15 29.65 14.9 29.05 12.4 27.5 5.95 24.8 -1.3 L23.6 -4.65 Q22.75 -6.7 21.8 -8.15 19.5 -11.65 15.5 -13.25 10.15 -12.1 6.3 -8.45 4.7 -6.9 3.05 -4.7 2.3 -3.65 0.45 -0.8 L-2.0 2.8 Q-3.6 5.1 -4.5 6.6 -7.35 11.1 -8.2 14.25 -9.05 17.7 -9.5 22.25 -9.75 24.7 -10.05 30.35 -10.3 35.4 -10.6 38.0 -11.05 41.5 -11.85 44.05 L-10.95 44.15 Q-9.8 44.15 -8.65 42.35 L-8.35 41.85 -8.25 41.65 -7.05 39.4 -7.0 39.35 -6.85 39.1 -6.45 37.2 Q-5.65 33.55 -5.6 31.6 L-5.5 29.3 Q-5.45 27.9 -5.35 27.0 -5.2 25.35 -5.1 24.55 L-5.1 24.35 -4.95 23.65 -4.8 23.35 -4.8 23.25 Q-4.65 22.95 -4.45 22.8 -4.65 23.9 -4.75 28.15 -4.9 31.75 -4.9 34.15 -4.9 34.7 -5.15 36.05 -4.55 35.15 -4.0 34.55 -2.3 32.75 -0.2 32.75 0.6 32.75 1.95 33.55 L4.6 35.2 Q6.35 36.35 7.7 36.9 9.55 37.65 11.25 37.65 13.35 37.65 14.8 36.3 L15.15 35.95 Q15.9 35.15 16.35 34.05 16.55 33.7 16.85 32.55 L16.9 31.85 Q16.9 30.2 16.5 28.4 16.1 26.55 16.1 25.1 L16.2 23.7 16.25 22.55 M31.0 16.9 L31.1 17.2 Q32.05 21.6 32.65 23.6 L34.4 29.8 34.75 31.35 34.65 29.45 Q34.2 24.35 32.7 21.0 31.8 19.05 31.0 16.9" fill="#111111" fill-rule="evenodd" stroke="none"/>
    <path d="M-8.35 41.85 L-8.25 41.15 Q-7.55 36.0 -7.35 33.95 -7.3 31.35 -6.6 28.15 -6.15 25.95 -4.95 22.0 L-4.9 22.0 -4.75 22.85 -4.8 23.25 -4.8 23.35 -4.95 23.65 -5.1 24.35 -5.1 24.55 Q-5.2 25.35 -5.35 27.0 -5.45 27.9 -5.5 29.3 L-5.6 31.6 Q-5.65 33.55 -6.45 37.2 L-6.85 39.1 -7.0 39.35 -7.05 39.4 -8.25 41.65 -8.35 41.85 M14.8 36.3 Q14.6 35.3 14.45 33.85 14.25 32.3 14.15 30.5 L14.05 29.0 Q14.05 26.05 14.4 23.6 14.65 21.65 15.5 17.85 L15.6 17.85 Q15.7 18.85 16.25 22.55 L16.2 23.7 16.1 25.1 Q16.1 26.55 16.5 28.4 16.9 30.2 16.9 31.85 L16.85 32.55 Q16.55 33.7 16.35 34.05 15.9 35.15 15.15 35.95 L14.8 36.3 M31.0 16.9 Q31.8 19.05 32.7 21.0 34.2 24.35 34.65 29.45 L34.75 31.35 34.4 29.8 32.65 23.6 Q32.05 21.6 31.1 17.2 L31.0 16.9" fill="#363636" fill-rule="evenodd" stroke="none"/>
    <path d="M-8.35 41.85 L-8.65 42.35 Q-9.8 44.15 -10.95 44.15 L-11.85 44.05 Q-11.05 41.5 -10.6 38.0 -10.3 35.4 -10.05 30.35 -9.75 24.7 -9.5 22.25 -9.05 17.7 -8.2 14.25 -7.35 11.1 -4.5 6.6 -3.6 5.1 -2.0 2.8 L0.45 -0.8 Q2.3 -3.65 3.05 -4.7 4.7 -6.9 6.3 -8.45 10.15 -12.1 15.5 -13.25 19.5 -11.65 21.8 -8.15 22.75 -6.7 23.6 -4.65 L24.8 -1.3 Q27.5 5.95 29.05 12.4 29.65 14.9 30.9 19.15 32.35 24.3 32.8 26.0 34.15 30.95 34.65 35.0 L34.55 35.15 34.35 35.65 Q33.85 36.3 32.2 36.3 30.6 36.3 29.2 36.0 29.1 35.85 28.95 35.65 L28.1 34.9 Q26.55 33.3 25.15 30.45 L25.05 30.45 25.5 31.9 Q25.85 33.15 26.2 34.05 26.5 34.8 26.85 35.3 26.0 34.95 25.3 34.5 24.4 33.95 23.65 33.15 L22.95 32.3 21.75 30.95 Q21.0 30.1 20.75 29.75 19.5 29.05 18.25 29.7 17.9 29.9 17.65 30.2 17.5 28.7 17.2 26.95 16.55 23.7 16.4 21.7 L16.3 21.7 16.25 22.55 Q15.7 18.85 15.6 17.85 L15.5 17.85 Q14.65 21.65 14.4 23.6 14.05 26.05 14.05 29.0 L14.15 30.5 Q14.25 32.3 14.45 33.85 14.6 35.3 14.8 36.3 13.35 37.65 11.25 37.65 9.55 37.65 7.7 36.9 6.35 36.35 4.6 35.2 L1.95 33.55 Q0.6 32.75 -0.2 32.75 -2.3 32.75 -4.0 34.55 -4.55 35.15 -5.15 36.05 -4.9 34.7 -4.9 34.15 -4.9 31.75 -4.75 28.15 -4.65 23.9 -4.45 22.8 -4.65 22.95 -4.8 23.25 L-4.75 22.85 -4.9 22.0 -4.95 22.0 Q-6.15 25.95 -6.6 28.15 -7.3 31.35 -7.35 33.95 -7.55 36.0 -8.25 41.15 L-8.35 41.85" fill="#262626" fill-rule="evenodd" stroke="none"/>
  </g>
</svg>
