<?xml version="1.0" encoding="UTF-8" standalone="no"?>
<svg xmlns:ffdec="https://www.free-decompiler.com/flash" xmlns:xlink="http://www.w3.org/1999/xlink" ffdec:objectType="shape" height="60.35px" width="49.75px" xmlns="http://www.w3.org/2000/svg">
  <g transform="matrix(1.0, 0.0, 0.0, 1.0, 12.65, 13.85)">
    <path d="M35.25 32.4 L35.25 32.15 Q35.25 30.35 34.55 26.75 L33.5 21.75 Q32.4 16.6 30.55 12.7 29.75 10.5 27.75 6.25 25.5 1.55 24.65 -0.85 23.0 -5.7 19.05 -9.65 17.3 -11.4 15.6 -12.4 14.4 -13.1 13.4 -13.3 10.55 -12.75 6.8 -9.7 5.2 -8.45 3.7 -6.95 2.65 -5.9 2.2 -5.3 -2.5 0.4 -5.15 4.5 -7.6 8.3 -8.8 10.55 -10.15 13.05 -10.8 15.0 -11.4 16.85 -11.55 19.15 -11.7 20.85 -11.7 24.3 -11.7 26.55 -11.45 28.85 L-10.85 34.05 Q-10.4 38.55 -10.5 39.75 L-10.6 41.0 Q-10.7 41.9 -10.7 43.3 L-10.7 43.95 -10.65 44.75 Q-7.75 43.0 -6.75 41.5 L-6.7 41.4 Q-5.8 40.05 -5.8 37.65 -5.8 36.9 -6.0 35.05 -6.2 33.2 -6.2 31.75 L-6.2 31.2 Q-6.15 29.35 -5.75 27.25 -5.5 25.75 -5.05 24.1 -3.85 19.75 -2.2 17.65 -2.45 18.95 -3.25 21.25 L-4.45 24.8 Q-4.75 25.8 -5.1 28.1 -5.5 30.55 -5.5 31.75 -5.5 32.35 -5.25 34.6 -5.0 34.15 -4.55 33.8 -3.2 32.7 -0.05 32.7 1.1 32.7 2.65 33.45 3.55 33.9 5.5 35.1 7.4 36.25 8.35 36.7 9.95 37.45 11.1 37.45 L12.35 37.35 Q13.9 37.1 15.1 36.15 L15.25 36.05 15.45 35.85 Q15.85 35.45 16.25 35.0 16.7 34.45 17.1 33.75 17.45 32.8 17.45 32.55 17.05 31.05 16.6 29.25 15.8 25.7 15.8 23.15 L15.8 23.1 15.85 22.55 Q15.85 22.1 15.85 21.85 L15.9 21.85 Q16.2 23.25 17.35 28.1 L17.85 30.1 Q18.45 29.8 20.2 30.45 21.25 30.9 22.3 31.5 23.35 32.1 23.75 32.55 24.55 33.3 25.5 33.95 25.15 33.2 24.85 32.2 L23.95 29.2 Q23.5 27.55 23.1 27.0 24.2 27.7 25.75 31.3 26.35 32.55 27.0 33.6 27.6 34.65 28.1 35.3 30.0 36.05 31.85 36.05 32.8 36.05 33.7 35.75 L33.95 35.7 34.35 35.5 34.4 35.45 Q34.85 35.25 35.25 34.95 L35.15 33.65 35.25 33.3 35.25 32.4 M7.2 -11.75 Q10.2 -13.85 13.05 -13.8 14.15 -13.95 15.3 -13.65 17.4 -13.1 19.4 -11.3 21.15 -9.75 22.45 -7.7 23.65 -5.85 24.0 -4.5 24.4 -3.65 27.25 2.25 29.25 6.4 30.3 9.0 31.1 11.15 31.85 13.25 L32.7 15.1 34.95 20.1 Q36.05 22.7 36.5 24.85 37.1 27.45 37.1 30.5 37.1 33.8 36.8 35.75 36.45 37.6 35.8 39.4 L35.6 41.0 35.5 41.0 35.5 40.1 35.4 39.5 35.5 39.15 35.35 36.25 35.0 36.6 Q33.8 37.7 31.85 37.7 29.5 37.7 27.5 36.75 26.2 36.1 24.35 34.6 22.3 32.9 21.35 32.35 19.8 31.45 18.1 31.25 L18.4 32.55 Q18.4 33.45 18.2 33.85 L17.95 34.2 17.7 34.75 Q17.2 35.8 16.35 36.7 14.2 39.1 11.15 39.1 9.65 39.1 8.1 38.35 7.55 38.05 5.4 36.65 3.6 35.5 2.15 34.95 0.1 34.2 -2.25 34.2 -3.6 34.2 -4.5 35.3 -4.8 35.75 -5.05 36.25 -4.95 37.35 -4.95 37.75 -4.95 40.6 -6.85 43.3 -7.75 44.55 -8.8 45.25 -9.85 46.0 -10.8 46.05 -10.95 46.35 -11.1 46.5 -11.6 43.2 -12.15 33.85 -12.65 25.9 -12.65 24.3 -12.65 20.7 -12.5 18.9 -12.25 16.55 -11.65 14.55 -10.95 12.5 -9.55 9.9 -8.3 7.6 -5.75 3.6 -4.15 1.1 -2.0 -1.7 -0.5 -3.7 2.0 -6.7 4.75 -10.05 7.2 -11.75 M34.5 22.45 Q35.95 28.95 36.05 35.15 36.35 32.55 36.35 30.7 36.35 27.55 35.3 23.95 34.75 22.1 33.85 19.85 L34.5 22.45" fill="#111111" fill-rule="evenodd" stroke="none"/>
    <path d="M-6.75 41.5 L-6.7 40.9 -6.85 38.45 -6.95 36.0 Q-6.95 33.65 -6.6 30.8 -6.25 28.0 -5.75 27.25 -6.15 29.35 -6.2 31.2 L-6.2 31.75 Q-6.2 33.2 -6.0 35.05 -5.8 36.9 -5.8 37.65 -5.8 40.05 -6.7 41.4 L-6.75 41.5 M12.35 37.35 L12.8 34.05 Q13.4 29.85 13.45 29.0 13.5 27.95 13.65 26.65 13.8 25.3 13.95 24.3 14.2 22.8 14.35 21.95 14.6 20.45 15.05 19.75 L15.8 23.1 15.8 23.15 Q15.8 25.7 16.6 29.25 17.05 31.05 17.45 32.55 17.45 32.8 17.1 33.75 16.7 34.45 16.25 35.0 15.85 35.45 15.45 35.85 L15.25 36.05 15.1 36.15 Q13.9 37.1 12.35 37.35 M33.7 35.75 L33.65 35.65 Q33.15 32.95 32.85 31.8 L31.8 28.05 Q31.1 25.55 31.1 25.3 31.1 24.85 31.45 24.6 33.55 27.05 34.7 30.55 35.05 31.45 35.25 32.4 L35.25 33.3 35.15 33.65 35.25 34.95 Q34.85 35.25 34.4 35.45 L34.35 35.5 33.95 35.7 33.7 35.75 M34.5 22.45 L33.85 19.85 Q34.75 22.1 35.3 23.95 36.35 27.55 36.35 30.7 36.35 32.55 36.05 35.15 35.95 28.95 34.5 22.45" fill="#363636" fill-rule="evenodd" stroke="none"/>
    <path d="M-6.75 41.5 Q-7.75 43.0 -10.65 44.75 L-10.7 43.95 -10.7 43.3 Q-10.7 41.9 -10.6 41.0 L-10.5 39.75 Q-10.4 38.55 -10.85 34.05 L-11.45 28.85 Q-11.7 26.55 -11.7 24.3 -11.7 20.85 -11.55 19.15 -11.4 16.85 -10.8 15.0 -10.15 13.05 -8.8 10.55 -7.6 8.3 -5.15 4.5 -2.5 0.4 2.2 -5.3 2.65 -5.9 3.7 -6.95 5.2 -8.45 6.8 -9.7 10.55 -12.75 13.4 -13.3 14.4 -13.1 15.6 -12.4 17.3 -11.4 19.05 -9.65 23.0 -5.7 24.65 -0.85 25.5 1.55 27.75 6.25 29.75 10.5 30.55 12.7 32.4 16.6 33.5 21.75 L34.55 26.75 Q35.25 30.35 35.25 32.15 L35.25 32.4 Q35.05 31.45 34.7 30.55 33.55 27.05 31.45 24.6 31.1 24.85 31.1 25.3 31.1 25.55 31.8 28.05 L32.85 31.8 Q33.15 32.95 33.65 35.65 L33.7 35.75 Q32.8 36.05 31.85 36.05 30.0 36.05 28.1 35.3 27.6 34.65 27.0 33.6 26.35 32.55 25.75 31.3 24.2 27.7 23.1 27.0 23.5 27.55 23.95 29.2 L24.85 32.2 Q25.15 33.2 25.5 33.95 24.55 33.3 23.75 32.55 23.35 32.1 22.3 31.5 21.25 30.9 20.2 30.45 18.45 29.8 17.85 30.1 L17.35 28.1 Q16.2 23.25 15.9 21.85 L15.85 21.85 Q15.85 22.1 15.85 22.55 L15.8 23.1 15.05 19.75 Q14.6 20.45 14.35 21.95 14.2 22.8 13.95 24.3 13.8 25.3 13.65 26.65 13.5 27.95 13.45 29.0 13.4 29.85 12.8 34.05 L12.35 37.35 11.1 37.45 Q9.95 37.45 8.35 36.7 7.4 36.25 5.5 35.1 3.55 33.9 2.65 33.45 1.1 32.7 -0.05 32.7 -3.2 32.7 -4.55 33.8 -5.0 34.15 -5.25 34.6 -5.5 32.35 -5.5 31.75 -5.5 30.55 -5.1 28.1 -4.75 25.8 -4.45 24.8 L-3.25 21.25 Q-2.45 18.95 -2.2 17.65 -3.85 19.75 -5.05 24.1 -5.5 25.75 -5.75 27.25 -6.25 28.0 -6.6 30.8 -6.95 33.65 -6.95 36.0 L-6.85 38.45 -6.7 40.9 -6.75 41.5" fill="#262626" fill-rule="evenodd" stroke="none"/>
  </g>
</svg>
