<?xml version="1.0" encoding="UTF-8" standalone="no"?>
<svg xmlns:ffdec="https://www.free-decompiler.com/flash" xmlns:xlink="http://www.w3.org/1999/xlink" ffdec:objectType="shape" height="63.35px" width="53.55px" xmlns="http://www.w3.org/2000/svg">
  <g transform="matrix(1.0, 0.0, 0.0, 1.0, 13.5, 14.15)">
    <path d="M10.15 -13.9 Q11.2 -14.15 12.3 -14.15 14.3 -14.15 16.75 -13.3 17.4 -13.05 17.8 -12.9 L18.15 -12.55 Q19.05 -12.0 19.95 -10.9 20.35 -10.4 21.15 -9.2 22.5 -7.2 23.35 -5.65 24.4 -3.8 25.05 -2.15 26.15 0.55 28.1 4.75 L29.05 6.85 31.05 10.4 Q33.85 15.2 35.3 18.15 40.05 27.5 40.05 33.45 40.05 35.9 40.0 36.8 39.8 39.3 39.2 40.35 L39.15 40.55 38.9 41.25 38.85 41.25 38.8 41.1 38.8 40.85 Q38.8 38.35 37.9 34.3 L37.85 34.75 37.85 34.8 Q37.85 35.95 37.05 37.15 35.95 38.9 33.8 38.9 31.05 38.9 28.8 37.7 28.35 37.5 27.9 37.2 27.6 37.15 27.3 36.75 26.35 36.1 25.35 35.1 23.55 33.2 22.75 32.5 21.35 31.3 20.05 31.3 19.7 31.3 19.05 31.8 18.5 32.2 18.15 32.25 L18.15 32.75 Q18.15 34.55 16.65 36.1 14.65 38.15 10.85 38.15 7.65 38.15 3.35 37.05 1.35 36.5 0.45 36.3 -1.0 35.95 -1.8 35.95 -5.35 35.95 -6.15 36.7 -6.3 36.85 -6.4 37.05 -6.3 38.5 -6.3 38.9 -6.3 40.2 -6.85 41.1 -7.05 41.4 -8.0 42.5 -8.75 43.3 -9.05 44.15 -9.2 44.7 -9.25 45.4 L-8.45 48.6 -8.5 49.05 -8.55 49.1 Q-8.6 49.2 -8.8 49.2 -9.8 49.2 -10.6 46.45 -10.9 45.3 -11.05 44.15 -12.15 40.8 -12.75 36.8 -13.5 32.0 -13.5 26.65 -13.5 20.15 -12.65 15.5 -11.65 9.6 -9.0 4.15 -5.95 -2.25 -1.3 -7.1 -0.75 -7.7 1.75 -9.35 4.55 -11.1 7.2 -12.5 8.85 -13.35 10.15 -13.9 M37.15 33.65 L37.1 33.15 37.15 33.15 Q36.9 31.85 36.35 30.4 35.65 28.35 33.85 24.95 31.75 20.9 31.15 19.5 29.8 16.45 29.55 14.2 L29.65 14.2 Q30.95 17.95 32.65 21.2 33.35 22.65 35.3 25.85 L36.0 27.1 35.6 25.85 Q34.35 21.75 32.95 18.0 31.6 14.4 30.7 12.65 29.55 10.35 27.5 5.55 25.5 0.85 24.35 -1.45 L22.7 -5.0 Q21.6 -7.2 20.5 -8.65 17.9 -12.0 13.35 -13.15 L13.05 -13.2 11.85 -13.1 11.4 -13.05 Q8.95 -12.3 5.7 -10.55 3.65 -9.45 2.3 -8.5 0.35 -7.25 -0.8 -6.0 -3.35 -3.45 -5.25 -0.65 -7.15 2.1 -8.3 4.9 -9.35 7.4 -10.1 9.6 L-10.85 13.0 Q-11.95 18.3 -11.95 20.3 -11.95 27.6 -11.15 34.35 -10.65 38.6 -9.8 42.75 -9.7 42.5 -9.55 42.25 L-8.65 41.4 Q-8.3 41.0 -8.05 40.5 L-7.3 37.65 -7.3 36.8 Q-7.2 32.2 -7.1 29.85 -6.55 25.8 -5.8 22.9 -5.25 20.8 -4.5 19.1 L-4.05 18.05 Q-4.25 18.6 -4.45 19.25 L-4.9 20.8 -4.9 20.9 -5.15 21.95 -5.15 21.9 -5.2 22.05 -5.4 23.1 -5.4 23.15 -5.55 23.85 Q-6.15 27.0 -6.45 29.45 -6.55 30.65 -6.6 31.65 L-6.65 32.8 Q-6.65 33.55 -6.5 35.75 L-6.2 35.45 Q-5.15 34.75 -2.4 34.75 -1.0 34.75 0.65 35.1 1.35 35.25 3.6 35.8 7.7 36.85 10.9 36.85 L11.0 36.85 12.5 36.75 Q15.5 36.3 16.65 34.25 17.0 33.6 17.25 32.6 L17.3 32.15 Q17.3 31.75 16.75 30.1 L15.55 26.3 Q14.25 21.8 13.9 17.65 13.75 16.2 13.75 14.75 13.75 14.35 13.8 14.0 13.85 13.45 13.95 13.25 13.9 16.75 16.0 24.55 16.5 26.3 17.45 29.65 L17.8 30.9 Q18.4 29.8 21.1 30.9 22.25 31.35 23.55 32.1 24.6 32.7 24.9 32.95 L25.5 33.4 Q25.1 32.35 24.65 31.0 22.35 23.5 21.35 21.05 L21.45 21.05 Q22.9 24.0 24.95 28.9 L27.8 35.65 27.9 35.75 Q29.65 37.2 33.05 37.35 L33.8 37.35 34.7 37.25 Q35.95 37.05 36.6 36.1 36.8 35.8 36.9 35.4 37.15 34.8 37.15 34.0 L37.15 33.65 M32.4 14.2 Q34.75 19.75 36.5 25.35 38.6 32.25 39.1 37.1 L39.25 33.5 Q39.25 30.0 37.95 25.65 36.65 21.5 34.7 18.3 33.6 16.5 32.4 14.2 M-12.2 18.2 Q-12.65 21.65 -12.65 26.65 -12.65 33.35 -11.25 39.85 -11.0 41.0 -10.3 43.8 -10.05 44.85 -9.95 45.45 L-9.9 45.5 Q-10.8 39.9 -11.45 35.05 -12.45 27.3 -12.45 23.5 -12.45 20.95 -12.2 18.2" fill="#111111" fill-rule="evenodd" stroke="none"/>
    <path d="M-8.05 40.5 L-8.1 40.6 -8.15 39.8 -8.25 37.05 Q-8.25 31.1 -7.8 27.7 -6.95 21.65 -4.55 19.05 L-4.5 19.1 Q-5.25 20.8 -5.8 22.9 -6.55 25.8 -7.1 29.85 -7.2 32.2 -7.3 36.8 L-7.3 37.65 -8.05 40.5 M-4.45 19.25 L-4.4 19.15 Q-4.35 19.25 -4.35 19.45 -4.35 19.55 -4.75 20.5 L-4.9 20.9 -4.9 20.8 -4.45 19.25 M-5.15 21.95 L-5.15 22.05 -5.4 23.1 -5.2 22.05 -5.15 21.9 -5.15 21.95 M-6.45 29.45 L-6.45 29.75 -6.6 31.65 Q-6.55 30.65 -6.45 29.45 M11.0 36.85 L11.55 32.5 11.55 25.8 Q11.65 24.8 11.65 23.1 11.65 20.9 11.7 20.3 11.8 17.0 12.75 14.95 L12.8 14.2 12.9 14.2 13.9 17.65 Q14.25 21.8 15.55 26.3 L16.75 30.1 Q17.3 31.75 17.3 32.15 L17.25 32.6 Q17.0 33.6 16.65 34.25 15.5 36.3 12.5 36.75 L11.0 36.85 M33.05 37.35 Q32.5 35.5 31.85 31.95 L30.65 24.65 30.1 23.0 30.15 22.75 30.15 22.65 30.2 22.65 Q30.7 23.8 32.1 25.8 L34.7 29.5 Q36.3 31.85 37.15 33.65 L37.15 34.0 Q37.15 34.8 36.9 35.4 36.8 35.8 36.6 36.1 35.95 37.05 34.7 37.25 L33.8 37.35 33.05 37.35 M-12.2 18.2 Q-12.45 20.95 -12.45 23.5 -12.45 27.3 -11.45 35.05 -10.8 39.9 -9.9 45.5 L-9.95 45.45 Q-10.05 44.85 -10.3 43.8 -11.0 41.0 -11.25 39.85 -12.65 33.35 -12.65 26.65 -12.65 21.65 -12.2 18.2 M32.4 14.2 Q33.6 16.5 34.7 18.3 36.65 21.5 37.95 25.65 39.25 30.0 39.25 33.5 L39.1 37.1 Q38.6 32.25 36.5 25.35 34.75 19.75 32.4 14.2" fill="#363636" fill-rule="evenodd" stroke="none"/>
    <path d="M-8.05 40.5 Q-8.3 41.0 -8.65 41.4 L-9.55 42.25 Q-9.7 42.5 -9.8 42.75 -10.65 38.6 -11.15 34.35 -11.95 27.6 -11.95 20.3 -11.95 18.3 -10.85 13.0 L-10.1 9.6 Q-9.35 7.4 -8.3 4.9 -7.15 2.1 -5.25 -0.65 -3.35 -3.45 -0.8 -6.0 0.35 -7.25 2.3 -8.5 3.65 -9.45 5.7 -10.55 8.95 -12.3 11.4 -13.05 L11.85 -13.1 13.05 -13.2 13.35 -13.15 Q17.9 -12.0 20.5 -8.65 21.6 -7.2 22.7 -5.0 L24.35 -1.45 Q25.5 0.85 27.5 5.55 29.55 10.35 30.7 12.65 31.6 14.4 32.95 18.0 34.35 21.75 35.6 25.85 L36.0 27.1 35.3 25.85 Q33.35 22.65 32.65 21.2 30.95 17.95 29.65 14.2 L29.55 14.2 Q29.8 16.45 31.15 19.5 31.75 20.9 33.85 24.95 35.65 28.35 36.35 30.4 36.9 31.85 37.15 33.15 L37.1 33.15 37.15 33.65 Q36.3 31.85 34.7 29.5 L32.1 25.8 Q30.7 23.8 30.2 22.65 L30.15 22.65 30.15 22.75 30.1 23.0 30.65 24.65 31.85 31.95 Q32.5 35.5 33.05 37.35 29.65 37.2 27.9 35.75 L27.8 35.65 24.95 28.9 Q22.9 24.0 21.45 21.05 L21.35 21.05 Q22.35 23.5 24.65 31.0 25.1 32.35 25.5 33.4 L24.9 32.95 Q24.6 32.7 23.55 32.1 22.25 31.35 21.1 30.9 18.4 29.8 17.8 30.9 L17.45 29.65 Q16.5 26.3 16.0 24.55 13.9 16.75 13.95 13.25 13.85 13.45 13.8 14.0 13.75 14.35 13.75 14.75 13.75 16.2 13.9 17.65 L12.9 14.2 12.8 14.2 12.75 14.95 Q11.8 17.0 11.7 20.3 11.65 20.9 11.65 23.1 11.65 24.8 11.55 25.8 L11.55 32.5 11.0 36.85 10.9 36.85 Q7.7 36.85 3.6 35.8 1.35 35.25 0.65 35.1 -1.0 34.75 -2.4 34.75 -5.15 34.75 -6.2 35.45 L-6.5 35.75 Q-6.65 33.55 -6.65 32.8 L-6.6 31.65 -6.45 29.75 -6.45 29.45 Q-6.15 27.0 -5.55 23.85 L-5.4 23.15 -5.4 23.1 -5.15 22.05 -5.15 21.95 -4.9 20.9 -4.75 20.5 Q-4.35 19.55 -4.35 19.45 -4.35 19.25 -4.4 19.15 L-4.45 19.25 Q-4.25 18.6 -4.05 18.05 L-4.5 19.1 -4.55 19.05 Q-6.95 21.65 -7.8 27.7 -8.25 31.1 -8.25 37.05 L-8.15 39.8 -8.1 40.6 -8.05 40.5" fill="#262626" fill-rule="evenodd" stroke="none"/>
  </g>
</svg>
