<?xml version="1.0" encoding="UTF-8" standalone="no"?>
<svg xmlns:ffdec="https://www.free-decompiler.com/flash" xmlns:xlink="http://www.w3.org/1999/xlink" ffdec:objectType="shape" height="20.8px" width="36.8px" xmlns="http://www.w3.org/2000/svg">
  <g transform="matrix(1.0, 0.0, 0.0, 1.0, 22.6, 20.8)">
    <path d="M11.0 -16.1 Q12.15 -14.4 12.45 -12.35 12.7 -10.3 12.05 -8.2 10.7 -3.6 5.85 -0.3 4.95 0.65 2.05 -1.55 5.5 -4.35 7.05 -7.85 8.7 -11.5 7.55 -14.3 6.25 -17.4 1.75 -18.55 -3.4 -19.85 -12.1 -18.3 -3.5 -21.5 2.85 -20.6 8.45 -19.8 11.0 -16.1" fill="url(#gradient0)" fill-rule="evenodd" stroke="none"/>
    <path d="M3.15 -4.6 Q-1.9 -2.35 -8.5 -1.5 -15.2 -0.6 -22.6 -1.25 -22.35 -1.8 -21.45 -2.2 -20.8 -2.5 -19.35 -2.9 L-16.6 -3.7 Q-14.85 -4.2 -13.45 -4.85 -0.3 -5.75 6.6 -9.05 13.5 -12.35 14.2 -18.0 14.1 -13.7 11.15 -10.2 8.3 -6.85 3.15 -4.6" fill="url(#gradient1)" fill-rule="evenodd" stroke="none"/>
  </g>
  <defs>
    <linearGradient gradientTransform="matrix(0.0052, 0.0136, -0.0146, 0.0056, 0.05, -11.5)" gradientUnits="userSpaceOnUse" id="gradient0" spreadMethod="pad" x1="-819.2" x2="819.2">
      <stop offset="0.0196078431372549" stop-color="#ffffff" stop-opacity="0.101960786"/>
      <stop offset="0.8156862745098039" stop-color="#ffffff" stop-opacity="0.7529412"/>
      <stop offset="1.0" stop-color="#ffffff" stop-opacity="0.101960786"/>
    </linearGradient>
    <linearGradient gradientTransform="matrix(0.0207, -0.0098, 0.0044, 0.0094, -1.9, -7.65)" gradientUnits="userSpaceOnUse" id="gradient1" spreadMethod="pad" x1="-819.2" x2="819.2">
      <stop offset="0.0" stop-color="#ffffff" stop-opacity="0.0"/>
      <stop offset="0.00784313725490196" stop-color="#ffffff" stop-opacity="0.0"/>
      <stop offset="0.7843137254901961" stop-color="#ffffff" stop-opacity="0.7490196"/>
      <stop offset="0.984313725490196" stop-color="#ffffff" stop-opacity="0.101960786"/>
    </linearGradient>
  </defs>
</svg>
