<?xml version="1.0" encoding="UTF-8" standalone="no"?>
<svg xmlns:ffdec="https://www.free-decompiler.com/flash" xmlns:xlink="http://www.w3.org/1999/xlink" ffdec:objectType="shape" height="16.85px" width="15.15px" xmlns="http://www.w3.org/2000/svg">
  <g transform="matrix(1.0, 0.0, 0.0, 1.0, 9.9, 6.8)">
    <path d="M-8.95 1.05 L-9.3 0.85 -9.15 0.7 Q-8.75 0.5 -8.05 0.05 -6.95 -0.75 -6.95 -1.0 L-6.95 -1.05 Q-6.85 -1.2 -6.85 -1.5 -6.15 -1.55 -6.0 -1.9 -5.95 -2.35 -5.8 -2.6 L-5.4 -3.3 -5.25 -3.6 -5.15 -3.6 -4.7 -4.65 Q-3.55 -5.85 -1.9 -5.7 L-1.55 -5.7 -1.3 -5.6 -1.3 -5.55 -1.6 -5.05 Q-1.9 -4.45 -1.9 -3.9 -1.9 -3.5 -2.2 -3.05 -2.55 -2.65 -3.0 -2.45 -3.55 -2.25 -4.1 -1.85 -4.6 -1.5 -5.2 -1.3 -5.95 -1.1 -6.3 -0.75 L-6.85 -0.05 -7.7 0.5 Q-8.4 1.0 -8.95 1.05 M-2.15 2.75 L-1.65 1.65 -1.2 1.8 -1.6 3.2 -2.1 5.05 -2.65 7.25 Q-3.05 8.65 -3.05 8.75 -3.05 8.9 -2.85 9.05 -2.7 9.2 -2.5 9.2 L-1.55 9.15 -1.4 9.15 -1.4 9.35 Q-2.05 9.5 -2.55 9.5 L-3.55 9.35 -3.7 9.2 -3.65 9.05 -3.65 9.0 -3.6 8.85 -3.6 8.8 -3.55 8.55 -3.45 8.2 -3.4 7.85 -3.3 7.1 -3.25 6.55 -3.1 5.9 -3.1 5.85 -3.0 5.5 -3.0 5.45 -2.4 3.3 -2.2 2.8 -2.15 2.75 M-6.65 7.85 L-6.95 7.55 -6.85 7.05 -6.8 6.65 -6.75 6.4 -6.65 6.05 -6.5 5.7 -6.5 5.6 -5.85 3.8 -5.6 3.15 -5.3 2.35 -5.3 2.3 -5.2 2.05 -4.95 1.35 -4.8 1.2 Q-4.45 0.85 -4.3 0.5 L-4.2 0.2 -4.2 0.25 -3.9 0.5 -4.35 1.6 Q-4.8 2.75 -4.8 2.85 -4.8 3.05 -4.9 3.35 L-4.95 3.65 Q-4.95 3.95 -5.1 4.25 -5.25 4.6 -5.25 4.65 L-5.1 4.85 -5.1 4.95 Q-5.15 5.05 -5.3 5.05 -5.7 5.05 -5.95 5.45 -6.2 5.75 -6.2 6.05 L-6.4 6.75 Q-6.6 7.45 -6.6 7.6 -6.6 7.75 -6.65 7.85 M-0.55 7.7 L-0.55 7.45 Q-0.5 7.15 -0.25 7.15 L-0.15 6.9 Q0.05 6.5 0.15 6.2 L0.15 6.25 Q0.05 7.0 0.05 7.35 0.05 7.95 0.4 7.95 0.8 7.95 1.05 7.75 L1.25 7.55 Q1.45 7.55 1.5 7.65 L1.45 7.95 1.35 8.1 1.15 8.2 1.1 8.25 Q0.75 8.4 -0.5 8.55 L-0.6 8.45 -0.4 7.9 Q-0.4 7.75 -0.45 7.6 L-0.45 7.65 -0.5 7.65 -0.55 7.7 M1.8 6.95 Q1.8 6.85 1.9 6.65 L1.95 6.45 2.0 6.15 Q2.05 5.95 2.25 5.85 2.45 5.95 2.5 6.3 2.6 6.65 2.75 6.75 L2.95 6.6 Q3.05 6.5 3.2 6.5 L3.3 6.5 3.3 6.55 3.3 6.75 Q3.3 6.85 2.85 7.15 2.3 7.5 1.95 7.55 L1.85 7.35 1.85 7.1 1.8 6.95 M1.75 5.1 L1.7 5.15 Q1.45 5.25 1.0 5.15 0.6 5.05 0.45 4.85 L0.5 4.8 Q0.55 4.7 0.65 4.7 0.8 4.7 1.05 4.8 1.5 4.9 1.75 5.1 M2.85 4.4 Q2.75 4.35 2.75 4.25 L2.8 4.15 2.85 4.15 Q3.1 4.15 3.35 4.0 3.6 3.8 3.75 3.75 3.7 3.9 3.5 4.15 3.25 4.45 3.05 4.45 L2.85 4.4" fill="#660066" fill-rule="evenodd" stroke="none"/>
    <path d="M-1.3 -5.6 Q-1.0 -5.5 -0.8 -5.25 0.7 -3.65 2.35 -3.95 L1.7 -4.5 Q1.95 -4.5 2.25 -4.6 L2.35 -4.65 Q3.7 -4.25 4.15 -2.9 4.45 -1.95 4.2 -1.1 L4.1 -1.15 Q3.7 -1.7 2.95 -1.9 L1.9 -2.2 1.2 -2.35 1.3 -2.45 Q1.7 -2.8 1.35 -3.05 0.95 -2.85 0.55 -2.6 0.35 -2.35 0.15 -2.25 L-0.05 -2.1 -0.65 -1.75 -0.9 -1.55 -0.9 -1.6 -0.95 -1.6 Q-1.15 -1.55 -2.0 -1.05 -2.9 -0.7 -3.6 -0.7 L-4.2 -0.65 -4.65 -0.55 -4.6 -0.5 -4.65 -0.5 -4.6 -0.45 -4.6 -0.4 Q-4.65 -0.4 -4.7 -0.5 L-4.95 -0.3 -5.3 0.0 -5.85 0.55 -6.65 0.95 Q-7.45 1.35 -7.8 1.35 -8.35 1.35 -8.95 1.05 -8.4 1.0 -7.7 0.5 L-6.85 -0.05 -6.3 -0.75 Q-5.95 -1.1 -5.2 -1.3 -4.6 -1.5 -4.1 -1.85 -3.55 -2.25 -3.0 -2.45 -2.55 -2.65 -2.2 -3.05 -1.9 -3.5 -1.9 -3.9 -1.9 -4.45 -1.6 -5.05 L-1.3 -5.55 -1.3 -5.6 M-9.3 0.85 L-9.35 0.8 -9.25 0.7 -9.15 0.7 -9.3 0.85 M-1.15 -3.25 L-1.15 -3.25 M-1.65 1.65 L-2.15 2.75 -1.75 1.65 -1.65 1.65 M-3.1 5.85 L-3.1 5.9 -3.25 6.55 -3.3 7.1 -3.4 7.85 -3.45 8.2 -3.55 8.55 -3.6 8.8 Q-3.6 7.85 -3.1 5.85 M-3.65 9.05 L-3.7 9.2 -3.65 9.05 M-1.4 9.35 L-1.4 9.15 -1.55 9.15 -2.5 9.2 Q-2.7 9.2 -2.85 9.05 -3.05 8.9 -3.05 8.75 -3.05 8.65 -2.65 7.25 L-2.1 5.05 -1.6 3.2 -1.2 1.8 Q-0.5 2.0 0.2 2.0 L0.6 1.95 0.5 2.35 Q0.2 3.35 0.2 3.8 0.2 3.95 0.3 4.0 L0.5 3.5 0.6 3.1 0.8 2.4 0.9 2.0 0.9 1.95 1.35 1.9 2.65 1.8 2.6 1.9 Q2.45 2.3 2.45 2.4 L2.35 2.95 2.2 3.65 2.25 3.7 Q2.5 3.5 2.7 2.7 2.85 2.0 2.9 1.75 L3.7 1.55 4.1 1.4 4.2 1.4 4.15 2.05 3.95 4.0 Q3.9 4.45 3.55 5.8 L3.35 6.5 Q3.3 6.5 3.3 6.55 L3.3 6.5 3.2 6.5 Q3.05 6.5 2.95 6.6 L2.75 6.75 Q2.6 6.65 2.5 6.3 2.45 5.95 2.25 5.85 2.05 5.95 2.0 6.15 L1.95 6.45 1.9 6.65 Q1.8 6.85 1.8 6.95 L1.7 6.9 Q1.6 6.9 1.55 7.15 L1.55 7.45 1.5 7.65 Q1.45 7.55 1.25 7.55 L1.05 7.75 Q0.8 7.95 0.4 7.95 0.05 7.95 0.05 7.35 0.05 7.0 0.15 6.25 L0.15 6.2 Q0.05 6.5 -0.15 6.9 L-0.25 7.15 Q-0.5 7.15 -0.55 7.45 L-0.55 7.7 Q-0.75 8.0 -1.1 8.75 L-1.35 9.35 -1.4 9.35 M-3.9 0.5 Q-3.55 0.8 -2.9 1.1 L-2.4 1.35 Q-2.65 1.6 -3.1 2.65 -3.6 3.75 -3.95 4.8 L-4.05 4.75 Q-4.65 4.5 -5.1 4.5 L-5.2 4.55 -5.2 4.65 Q-5.2 4.75 -4.35 5.1 L-4.1 5.2 -4.6 6.45 Q-5.05 7.7 -5.15 8.25 L-5.35 8.3 -5.65 8.35 Q-6.0 8.35 -6.65 7.85 -6.6 7.75 -6.6 7.6 -6.6 7.45 -6.4 6.75 L-6.2 6.05 Q-6.2 5.75 -5.95 5.45 -5.7 5.05 -5.3 5.05 -5.15 5.05 -5.1 4.95 L-5.1 4.85 -5.25 4.65 Q-5.25 4.6 -5.1 4.25 -4.95 3.95 -4.95 3.65 L-4.9 3.35 Q-4.8 3.05 -4.8 2.85 -4.8 2.75 -4.35 1.6 L-3.9 0.5 M-6.95 7.55 L-7.0 7.5 -6.9 6.9 -6.75 6.4 -6.8 6.65 -6.85 7.05 -6.95 7.55 M-5.6 3.15 L-5.3 2.3 -5.3 2.35 -5.6 3.15 M-0.6 8.45 L-0.5 8.55 -0.6 8.55 -0.6 8.45 M2.85 4.4 L3.05 4.45 Q3.25 4.45 3.5 4.15 3.7 3.9 3.75 3.75 3.6 3.8 3.35 4.0 3.1 4.15 2.85 4.15 L2.8 4.15 2.75 4.25 Q2.75 4.35 2.85 4.4 M1.75 5.1 Q1.5 4.9 1.05 4.8 0.8 4.7 0.65 4.7 0.55 4.7 0.5 4.8 L0.45 4.85 Q0.6 5.05 1.0 5.15 1.45 5.25 1.7 5.15 L1.75 5.1 M1.95 7.55 L1.8 7.55 1.85 7.35 1.95 7.55" fill="#4a0048" fill-rule="evenodd" stroke="none"/>
    <path d="M1.0 -5.0 L1.2 -5.1 Q1.55 -5.2 1.9 -5.25 2.15 -5.15 2.5 -5.15 L2.65 -5.1 3.05 -5.05 Q5.1 -4.15 5.15 -1.85 5.15 -1.2 4.95 -0.65 L5.0 -0.55 5.15 -0.35 Q5.25 -0.15 5.25 0.05 5.25 0.4 4.75 1.0 L4.6 1.2 4.6 1.6 4.5 2.5 Q4.5 2.75 4.35 3.95 L4.3 4.25 4.15 5.3 4.0 6.1 Q3.8 6.85 3.5 7.2 3.3 7.45 3.25 7.3 L2.8 7.6 Q2.35 8.0 2.2 8.0 2.05 7.95 1.85 7.9 L1.75 7.8 1.7 8.0 Q1.7 8.8 0.45 8.95 L-0.4 8.9 -0.7 8.8 Q-1.05 9.8 -1.25 9.8 L-1.35 9.8 -1.55 9.9 Q-1.95 10.05 -2.45 10.05 -3.2 10.05 -3.85 9.6 L-4.0 9.5 Q-4.1 9.4 -4.1 9.25 L-4.0 8.7 -3.8 7.5 Q-3.7 7.05 -3.7 6.85 L-3.65 6.65 -3.6 6.4 -3.4 5.5 -3.2 4.7 -3.55 5.05 -3.5 5.1 Q-3.5 5.25 -3.75 5.25 L-4.45 7.1 -4.95 8.45 -5.0 8.5 -5.0 8.6 -5.1 8.6 -5.15 8.65 -5.2 8.65 -5.65 8.7 Q-6.25 8.7 -6.9 8.25 L-7.4 7.85 -7.45 7.85 Q-7.5 7.85 -7.5 7.75 -7.5 7.4 -7.35 6.85 L-7.25 6.3 Q-6.4 3.05 -5.8 1.95 -6.35 2.15 -6.95 2.15 -8.3 2.15 -9.25 1.45 -9.6 1.2 -9.8 0.95 -9.9 0.95 -9.9 0.8 L-9.9 0.75 Q-9.9 0.7 -9.75 0.6 L-9.7 0.65 Q-7.95 -0.85 -7.35 -1.2 L-7.4 -1.5 Q-7.4 -1.75 -7.25 -1.95 -7.05 -2.2 -6.65 -2.25 L-6.45 -2.55 Q-6.4 -2.9 -6.2 -3.25 L-6.0 -3.55 Q-5.75 -4.6 -4.35 -5.5 L-4.05 -5.8 Q-2.95 -6.75 -1.55 -6.8 L0.0 -5.75 1.0 -5.0 M-8.95 1.05 Q-8.35 1.35 -7.8 1.35 -7.45 1.35 -6.65 0.95 L-5.85 0.55 -5.3 0.0 -4.95 -0.3 -4.7 -0.5 Q-4.65 -0.4 -4.6 -0.4 L-4.6 -0.45 -4.65 -0.5 -4.6 -0.5 -4.65 -0.55 -4.2 -0.65 -3.6 -0.7 Q-2.9 -0.7 -2.0 -1.05 -1.15 -1.55 -0.95 -1.6 L-0.9 -1.6 -0.9 -1.55 -0.65 -1.75 -0.05 -2.1 0.15 -2.25 Q0.35 -2.35 0.55 -2.6 0.95 -2.85 1.35 -3.05 1.7 -2.8 1.3 -2.45 L1.2 -2.35 1.9 -2.2 2.95 -1.9 Q3.7 -1.7 4.1 -1.15 L4.2 -1.1 Q4.45 -1.95 4.15 -2.9 3.7 -4.25 2.35 -4.65 L2.25 -4.6 Q1.95 -4.5 1.7 -4.5 L2.35 -3.95 Q0.7 -3.65 -0.8 -5.25 -1.0 -5.5 -1.3 -5.6 L-1.55 -5.7 -1.9 -5.7 Q-3.55 -5.85 -4.7 -4.65 L-5.15 -3.6 -5.25 -3.6 -5.4 -3.3 -5.8 -2.6 Q-5.95 -2.35 -6.0 -1.9 -6.15 -1.55 -6.85 -1.5 -6.85 -1.2 -6.95 -1.05 L-6.95 -1.0 Q-6.95 -0.75 -8.05 0.05 -8.75 0.5 -9.15 0.7 L-9.25 0.7 -9.35 0.8 -9.3 0.85 -8.95 1.05 M0.45 -1.8 Q0.05 -1.45 -0.6 -1.05 -2.15 -0.05 -3.25 -0.05 L-3.7 -0.1 -3.6 -0.05 -3.6 0.0 Q-3.55 -0.1 -3.55 0.0 L-1.9 0.55 Q-0.25 1.1 0.2 1.1 L1.35 1.2 3.15 1.05 3.6 0.95 4.1 0.7 4.35 0.55 4.3 0.45 3.75 0.45 2.15 0.3 Q0.65 0.1 0.15 -0.35 0.4 -0.35 1.1 -0.15 1.75 0.05 2.75 0.05 L3.55 -0.05 Q4.05 -0.05 4.3 0.1 L4.4 -0.05 Q3.65 -0.65 2.9 -1.05 L2.5 -1.25 2.35 -1.3 Q1.45 -1.55 0.9 -1.7 0.65 -1.7 0.45 -1.8 M-1.15 -3.25 L-1.15 -3.25 M-2.15 2.75 L-2.2 2.8 -2.4 3.3 -3.0 5.45 -3.0 5.5 -3.1 5.85 Q-3.6 7.85 -3.6 8.8 L-3.6 8.85 -3.65 9.0 -3.65 9.05 -3.7 9.2 -3.55 9.35 -2.55 9.5 Q-2.05 9.5 -1.4 9.35 L-1.35 9.35 -1.1 8.75 Q-0.75 8.0 -0.55 7.7 L-0.5 7.65 -0.45 7.65 -0.45 7.6 Q-0.4 7.75 -0.4 7.9 L-0.6 8.45 -0.6 8.55 -0.5 8.55 Q0.75 8.4 1.1 8.25 L1.15 8.2 1.35 8.1 1.45 7.95 1.5 7.65 1.55 7.45 1.55 7.15 Q1.6 6.9 1.7 6.9 L1.8 6.95 1.85 7.1 1.85 7.35 1.8 7.55 1.95 7.55 Q2.3 7.5 2.85 7.15 3.3 6.85 3.3 6.75 L3.3 6.55 Q3.3 6.5 3.35 6.5 L3.55 5.8 Q3.9 4.45 3.95 4.0 L4.15 2.05 4.2 1.4 4.1 1.4 3.7 1.55 2.9 1.75 Q2.85 2.0 2.7 2.7 2.5 3.5 2.25 3.7 L2.2 3.65 2.35 2.95 2.45 2.4 Q2.45 2.3 2.6 1.9 L2.65 1.8 1.35 1.9 0.9 1.95 0.9 2.0 0.8 2.4 0.6 3.1 0.5 3.5 0.3 4.0 Q0.2 3.95 0.2 3.8 0.2 3.35 0.5 2.35 L0.6 1.95 0.2 2.0 Q-0.5 2.0 -1.2 1.8 L-1.65 1.65 -1.75 1.65 -2.15 2.75 M-6.65 7.85 Q-6.0 8.35 -5.65 8.35 L-5.35 8.3 -5.15 8.25 Q-5.05 7.7 -4.6 6.45 L-4.1 5.2 -4.35 5.1 Q-5.2 4.75 -5.2 4.65 L-5.2 4.55 -5.1 4.5 Q-4.65 4.5 -4.05 4.75 L-3.95 4.8 Q-3.6 3.75 -3.1 2.65 -2.65 1.6 -2.4 1.35 L-2.9 1.1 Q-3.55 0.8 -3.9 0.5 L-4.2 0.25 -4.2 0.2 -4.3 0.5 Q-4.45 0.85 -4.8 1.2 L-4.95 1.35 -5.2 2.05 -5.3 2.3 -5.6 3.15 -5.85 3.8 -6.5 5.6 -6.5 5.7 -6.65 6.05 -6.75 6.4 -6.9 6.9 -7.0 7.5 -6.95 7.55 -6.65 7.85" fill="#1a1a1a" fill-rule="evenodd" stroke="none"/>
    <path d="M0.45 -1.8 Q0.65 -1.7 0.9 -1.7 1.45 -1.55 2.35 -1.3 L2.5 -1.25 2.9 -1.05 Q3.65 -0.65 4.4 -0.05 L4.3 0.1 Q4.05 -0.05 3.55 -0.05 L2.75 0.05 Q1.75 0.05 1.1 -0.15 0.4 -0.35 0.15 -0.35 0.65 0.1 2.15 0.3 L3.75 0.45 4.3 0.45 4.35 0.55 4.1 0.7 3.6 0.95 3.15 1.05 1.35 1.2 0.2 1.1 Q-0.25 1.1 -1.9 0.55 L-3.55 0.0 Q-3.55 -0.1 -3.6 0.0 L-3.6 -0.05 -3.7 -0.1 -3.25 -0.05 Q-2.15 -0.05 -0.6 -1.05 0.05 -1.45 0.45 -1.8" fill="#444444" fill-rule="evenodd" stroke="none"/>
  </g>
</svg>
