<?xml version="1.0" encoding="UTF-8" standalone="no"?>
<svg xmlns:ffdec="https://www.free-decompiler.com/flash" xmlns:xlink="http://www.w3.org/1999/xlink" ffdec:objectType="shape" height="6.05px" width="14.95px" xmlns="http://www.w3.org/2000/svg">
  <g transform="matrix(1.0, 0.0, 0.0, 1.0, 14.95, 6.05)">
    <path d="M-11.7 -5.1 L-11.5 -5.2 -11.35 -5.25 -11.25 -5.25 -11.0 -5.3 -10.8 -5.35 -9.95 -5.65 -9.85 -5.65 -9.8 -5.6 -9.2 -5.75 -9.05 -5.75 -8.95 -5.8 -8.45 -5.85 -8.35 -5.9 -7.9 -6.0 -7.4 -6.0 Q-4.65 -6.25 -1.8 -5.7 L-1.75 -5.65 -1.65 -5.6 -2.45 -5.75 -2.55 -5.8 -3.75 -5.9 -3.95 -5.95 -4.4 -5.9 Q-2.95 -5.8 -1.6 -5.45 L-1.4 -5.35 -1.25 -5.3 -1.25 -5.25 -1.2 -5.25 -0.85 -5.15 -0.7 -4.95 -0.2 -4.45 -0.15 -4.35 -0.1 -4.3 -0.1 -4.25 -0.05 -4.2 -0.05 -4.1 Q0.05 -3.85 -0.05 -3.6 L-0.25 -3.0 -0.4 -2.8 -0.55 -2.55 -1.05 -2.1 -1.4 -1.9 Q-1.95 -1.65 -2.5 -1.5 L-2.65 -1.45 -2.8 -1.45 Q-3.15 -1.3 -3.55 -1.2 -4.15 -0.95 -4.8 -0.95 L-5.3 -0.85 -5.5 -0.85 -5.8 -0.75 -5.85 -0.75 -5.95 -0.8 -6.2 -0.75 -6.1 -0.7 Q-9.4 -0.3 -12.75 -0.35 L-12.25 -0.4 -12.6 -0.45 -12.75 -0.45 -14.8 -0.6 -14.9 -0.6 -14.95 -0.65 -13.85 -0.75 Q-14.3 -0.85 -14.65 -1.05 L-9.85 -1.25 -9.45 -1.25 -9.35 -1.3 -9.2 -1.35 -8.9 -1.35 -7.65 -1.5 Q-6.8 -1.5 -5.9 -1.7 L-5.4 -1.75 Q-3.7 -1.85 -2.15 -2.5 L-2.05 -2.55 -2.0 -2.55 -1.9 -2.65 -1.85 -2.75 -1.7 -2.85 -1.7 -2.9 -1.65 -2.9 -1.6 -2.95 -1.5 -3.0 Q-1.3 -3.15 -1.2 -3.3 -1.15 -3.4 -1.15 -3.5 L-1.1 -3.6 -1.05 -3.65 -1.05 -4.3 -1.1 -4.4 -1.1 -4.5 -1.15 -4.5 -1.25 -4.65 -1.35 -4.75 -1.4 -4.75 Q-1.6 -4.95 -1.95 -5.05 -2.25 -5.2 -2.5 -5.3 -3.25 -5.55 -4.0 -5.65 L-4.15 -5.6 -4.3 -5.6 -6.4 -5.7 Q-8.4 -5.65 -10.4 -5.2 -11.25 -4.95 -12.05 -4.7 L-12.35 -4.65 -12.45 -4.6 -12.5 -4.55 -12.5 -4.5 -12.65 -4.5 -12.85 -4.4 -12.95 -4.4 -13.1 -4.35 -13.0 -4.4 -12.9 -4.5 -12.55 -4.6 -12.45 -4.7 -12.4 -4.7 -12.3 -4.75 -12.25 -4.75 -12.15 -4.8 -12.1 -4.85 -11.35 -5.05 -11.7 -5.0 -11.7 -4.95 -11.75 -4.95 -12.25 -4.8 -12.55 -4.8 -12.6 -4.75 -12.65 -4.75 -12.75 -4.8 -12.7 -4.8 -12.45 -4.9 -12.25 -5.0 Q-12.1 -5.0 -12.0 -5.05 L-11.75 -5.1 -11.7 -5.1 M-12.35 -0.05 L-12.25 -0.05 -11.9 0.0 -12.35 0.0 -12.35 -0.05" fill="#f2f2f2" fill-opacity="0.8980392" fill-rule="evenodd" stroke="none"/>
  </g>
</svg>
