<?xml version="1.0" encoding="UTF-8" standalone="no"?>
<svg xmlns:ffdec="https://www.free-decompiler.com/flash" xmlns:xlink="http://www.w3.org/1999/xlink" ffdec:objectType="shape" height="6.3px" width="16.85px" xmlns="http://www.w3.org/2000/svg">
  <g transform="matrix(1.0, 0.0, 0.0, 1.0, 16.85, 6.3)">
    <path d="M-11.85 -5.4 L-11.65 -5.45 -9.35 -5.95 -9.2 -6.0 -9.15 -6.0 -8.35 -6.1 -7.7 -6.15 -6.55 -6.3 -6.2 -6.25 -4.55 -6.2 -4.45 -6.15 -4.4 -6.2 -3.9 -6.05 Q-2.3 -5.9 -0.8 -5.15 L-0.8 -5.05 -0.7 -4.95 -0.6 -4.9 -0.45 -4.8 -0.4 -4.75 -0.35 -4.65 Q-0.1 -4.4 -0.05 -4.05 L-0.05 -4.0 0.0 -3.95 0.0 -3.9 Q0.0 -3.65 -0.1 -3.4 -0.2 -3.2 -0.35 -2.95 L-0.35 -2.85 -0.65 -2.45 -0.85 -2.15 -0.9 -2.1 Q-1.0 -1.9 -1.1 -1.8 -1.2 -1.65 -1.35 -1.6 L-1.4 -1.6 -1.45 -1.55 -1.6 -1.5 Q-1.8 -1.4 -2.0 -1.3 -3.8 -0.55 -5.8 -0.35 L-8.4 -0.2 -11.4 0.0 Q-12.9 0.0 -14.35 -0.1 L-14.55 -0.15 -14.55 -0.2 -14.6 -0.2 -14.6 -0.35 Q-15.3 -0.35 -16.05 -0.65 L-16.1 -0.7 -16.1 -0.75 -16.15 -0.75 -16.15 -0.8 -16.4 -0.8 -16.8 -1.0 -16.85 -1.1 -16.8 -1.2 -16.7 -1.3 -16.6 -1.35 -16.45 -1.4 -15.95 -1.4 Q-15.65 -1.55 -15.3 -1.55 -14.5 -1.45 -13.7 -1.55 -13.15 -1.55 -12.7 -1.55 -11.8 -1.75 -10.8 -1.75 L-9.0 -1.8 Q-6.35 -1.9 -3.75 -2.55 L-3.3 -2.65 -3.1 -2.75 -2.85 -2.8 Q-2.75 -2.85 -2.6 -2.9 L-2.5 -2.95 Q-2.1 -3.05 -1.9 -3.4 -1.65 -3.8 -1.75 -4.3 L-1.9 -4.45 -1.9 -4.5 -2.15 -4.75 -2.25 -4.8 -2.4 -4.85 -2.45 -4.9 -4.2 -5.35 Q-5.8 -5.75 -7.5 -5.55 L-8.25 -5.45 Q-9.85 -5.3 -11.45 -5.0 L-11.8 -5.0 -12.0 -4.95 Q-12.75 -4.65 -13.55 -4.5 L-13.75 -4.4 -13.75 -4.45 -13.6 -4.5 -13.55 -4.6 -13.45 -4.6 Q-13.3 -4.65 -13.2 -4.7 L-12.85 -4.8 -12.65 -4.85 -12.55 -4.95 -12.6 -5.0 -12.65 -5.0 -12.85 -5.05 -11.85 -5.4 M-12.8 -0.95 Q-11.85 -0.95 -11.0 -0.7 -7.5 -0.8 -4.0 -1.65 L-3.95 -1.65 -3.9 -1.7 -3.75 -1.65 -3.55 -1.65 Q-2.55 -1.85 -1.6 -2.15 L-1.4 -2.4 -1.35 -2.45 -1.15 -2.6 -1.0 -2.7 -1.0 -2.75 -0.95 -2.8 -0.95 -2.85 -0.9 -2.9 -0.9 -2.95 -0.8 -3.05 -0.8 -3.1 Q-0.7 -3.15 -0.65 -3.25 -0.6 -3.35 -0.6 -3.5 L-0.55 -3.75 -0.6 -3.75 -0.7 -3.85 -0.7 -3.9 -0.75 -3.95 -0.75 -4.1 -0.85 -4.25 -0.85 -4.2 -0.95 -4.15 -1.3 -4.25 Q-1.25 -4.0 -1.25 -3.8 -1.25 -3.6 -1.3 -3.4 L-1.35 -3.35 -1.4 -3.35 -1.4 -3.25 -1.45 -3.2 -1.4 -3.1 -1.4 -3.05 Q-1.65 -2.4 -2.4 -2.25 L-2.5 -2.25 -2.65 -2.15 Q-3.05 -1.95 -3.45 -1.9 -6.1 -1.25 -8.85 -1.2 L-10.2 -1.15 -12.6 -1.0 -12.7 -0.95 -12.8 -0.95" fill="#f2f2f2" fill-opacity="0.6" fill-rule="evenodd" stroke="none"/>
  </g>
</svg>
