<?xml version="1.0" encoding="UTF-8" standalone="no"?>
<svg xmlns:ffdec="https://www.free-decompiler.com/flash" xmlns:xlink="http://www.w3.org/1999/xlink" ffdec:objectType="shape" height="3.4px" width="9.35px" xmlns="http://www.w3.org/2000/svg">
  <g transform="matrix(1.0, 0.0, 0.0, 1.0, 4.7, 3.3)">
    <path d="M2.0 -2.85 Q1.8 -2.9 1.8 -2.75 1.8 -2.7 1.85 -2.7 L1.95 -2.6 2.15 -2.6 2.2 -2.65 2.2 -2.75 2.15 -2.85 2.7 -2.45 2.15 -2.4 1.35 -2.3 1.1 -2.25 0.8 -2.2 0.9 -2.25 0.45 -2.15 -0.35 -2.05 Q-1.0 -1.85 -1.1 -1.65 L-1.1 -1.6 -0.7 -1.8 Q-0.45 -1.9 -0.2 -1.95 L0.15 -2.0 0.85 -1.9 1.55 -1.9 1.55 -1.85 Q1.2 -1.85 1.2 -1.7 1.2 -1.55 1.45 -1.55 1.75 -1.55 1.75 -1.7 L1.85 -1.7 Q1.95 -1.7 2.05 -1.75 L2.35 -1.75 2.45 -1.65 Q2.6 -1.55 2.7 -1.55 L2.65 -1.6 2.7 -1.55 Q2.8 -1.45 2.9 -1.45 L3.05 -1.55 3.05 -1.6 3.55 -1.05 3.3 -1.0 3.05 -1.0 3.05 -0.9 3.1 -0.85 Q3.1 -0.8 3.15 -0.8 L3.65 -0.8 3.75 -0.85 4.0 -0.8 4.25 -0.7 4.35 -0.7 4.35 -0.75 4.4 -0.6 3.6 -0.6 3.4 -0.55 3.35 -0.6 3.3 -0.55 3.2 -0.65 3.15 -0.65 Q3.1 -0.8 2.75 -0.9 L2.7 -0.9 Q2.95 -1.05 3.1 -1.05 3.2 -1.15 3.2 -1.2 L3.2 -1.3 2.85 -1.35 2.35 -1.4 2.0 -1.4 2.0 -1.45 1.65 -1.4 1.65 -1.45 0.5 -1.3 0.05 -1.25 0.1 -1.3 Q0.1 -1.5 -0.15 -1.35 -0.3 -1.25 -0.35 -1.2 L-0.45 -1.2 -0.85 -1.1 -1.1 -1.15 -1.85 -1.35 -2.45 -1.35 -2.5 -1.4 -2.65 -1.4 -2.65 -1.55 Q-3.05 -1.65 -3.05 -1.45 L-2.95 -1.0 -3.05 -0.95 -3.5 -0.85 -3.55 -0.85 -3.55 -0.9 -3.6 -0.9 -3.65 -0.85 -3.65 -0.8 Q-3.75 -0.75 -3.8 -0.75 -3.8 -0.7 -3.9 -0.7 L-4.15 -0.75 -4.1 -0.7 -4.3 -0.7 -4.3 -0.75 -4.2 -0.8 -4.45 -0.6 -4.45 -0.5 -3.85 -0.4 -4.45 -0.45 -4.6 -0.65 -3.55 -1.25 -3.85 -1.1 -3.8 -1.0 -3.65 -1.0 Q-3.45 -1.05 -3.45 -1.2 L-3.45 -1.25 -3.25 -1.2 -3.1 -1.45 -1.85 -2.5 -1.85 -2.35 -1.7 -2.35 Q-1.5 -2.25 -0.95 -2.25 L-0.9 -2.25 -0.6 -2.3 -0.5 -2.3 -0.55 -2.35 Q-0.55 -2.55 -0.3 -2.5 -0.1 -2.45 -0.05 -2.4 L0.05 -2.4 0.05 -2.35 0.15 -2.35 0.5 -2.4 Q0.65 -2.45 0.8 -2.5 0.9 -2.45 1.15 -2.45 L1.55 -2.45 Q1.65 -2.5 1.65 -2.65 L1.55 -2.8 1.35 -2.8 Q1.4 -2.8 1.4 -2.85 L1.35 -2.95 1.2 -3.0 2.0 -2.85 M0.85 -3.0 L0.15 -2.85 -0.3 -2.8 -0.45 -2.75 -0.55 -2.75 -0.95 -2.65 -1.3 -2.65 0.85 -3.0 M0.5 -0.6 L0.75 -0.6 0.6 -0.5 Q0.5 -0.5 0.5 -0.6 M0.5 -1.55 Q0.45 -1.5 0.45 -1.45 L0.45 -1.4 0.5 -1.4 Q0.6 -1.4 0.65 -1.45 L0.6 -1.5 0.5 -1.55 M2.4 -0.65 L2.85 -0.65 3.0 -0.6 3.1 -0.6 3.2 -0.55 3.2 -0.6 3.3 -0.55 3.1 -0.35 2.7 -0.3 2.45 -0.3 2.35 -0.45 2.4 -0.65 M3.2 -0.15 L3.25 -0.15 3.2 -0.15 M3.45 -0.15 L4.35 -0.35 3.45 -0.15 M0.4 -0.6 L-0.95 -0.4 0.4 -0.6 M-1.6 -0.45 L-1.8 -0.55 -2.0 -0.7 -2.05 -0.8 -1.95 -0.85 Q-1.7 -0.9 -1.7 -0.75 -1.7 -0.65 -1.75 -0.65 L-1.6 -0.45 M-2.05 -0.65 L-2.5 -0.55 -2.05 -0.65 M-2.85 -0.45 L-3.85 -0.4 -2.85 -0.45 M-4.0 -1.0 L-4.0 -0.9 -3.85 -0.9 -3.8 -0.95 -3.85 -1.0 -4.0 -1.0 M-1.65 -1.6 L-1.5 -1.65 -1.95 -1.7 -2.3 -1.75 -2.05 -1.65 -1.65 -1.6 M-2.2 -2.2 L-2.2 -2.1 Q-2.2 -2.0 -2.15 -2.0 L-1.85 -2.0 -1.85 -2.25 -2.2 -2.2 M-1.25 -2.1 L-1.4 -2.15 -1.4 -2.1 -1.55 -2.0 Q-1.4 -2.0 -1.25 -2.1 M-1.55 -1.35 L-1.5 -1.4 -1.5 -1.45 -1.7 -1.5 -1.75 -1.45 -1.7 -1.4 -1.55 -1.35 M-0.45 -0.9 L-0.45 -0.9" fill="#aba687" fill-rule="evenodd" stroke="none"/>
    <path d="M-3.85 -0.4 L-4.45 -0.5 -4.45 -0.6 -4.2 -0.8 -4.3 -0.75 -4.3 -0.7 -4.1 -0.7 -4.15 -0.75 -3.9 -0.7 Q-3.8 -0.7 -3.8 -0.75 -3.75 -0.75 -3.65 -0.8 L-3.65 -0.85 -3.6 -0.9 -3.55 -0.9 -3.55 -0.85 -3.5 -0.85 -3.05 -0.95 -2.95 -1.0 -3.05 -1.45 Q-3.05 -1.65 -2.65 -1.55 L-2.65 -1.4 -2.5 -1.4 -2.45 -1.35 -1.85 -1.35 -1.1 -1.15 -0.85 -1.1 -0.45 -1.2 -0.35 -1.2 Q-0.3 -1.25 -0.15 -1.35 0.1 -1.5 0.1 -1.3 L0.05 -1.25 0.5 -1.3 1.65 -1.45 1.65 -1.4 2.0 -1.45 2.0 -1.4 2.35 -1.4 2.85 -1.35 3.2 -1.3 3.2 -1.2 Q3.2 -1.15 3.1 -1.05 2.95 -1.05 2.7 -0.9 L2.75 -0.9 Q3.1 -0.8 3.15 -0.65 L3.2 -0.65 3.3 -0.55 3.35 -0.6 3.4 -0.55 3.6 -0.6 4.4 -0.6 4.35 -0.35 3.45 -0.15 3.25 -0.15 3.2 -0.15 3.1 -0.1 2.65 -0.2 2.45 -0.3 2.7 -0.3 3.1 -0.35 3.3 -0.55 3.2 -0.6 3.2 -0.55 3.1 -0.6 3.0 -0.6 2.85 -0.65 2.4 -0.65 2.35 -0.65 Q2.25 -0.65 2.05 -0.85 L1.75 -0.65 1.25 -0.65 0.75 -0.6 0.5 -0.6 0.4 -0.6 -0.95 -0.4 -1.6 -0.45 -1.75 -0.65 Q-1.7 -0.65 -1.7 -0.75 -1.7 -0.9 -1.95 -0.85 L-2.05 -0.8 -2.0 -0.7 -1.8 -0.55 -2.05 -0.65 -2.5 -0.55 -2.85 -0.45 -3.85 -0.4 M3.05 -1.6 L3.05 -1.55 2.9 -1.45 Q2.8 -1.45 2.7 -1.55 L2.65 -1.6 2.6 -1.75 2.5 -1.8 2.5 -1.85 2.45 -1.9 2.15 -2.0 2.1 -2.05 1.8 -2.05 1.65 -2.1 0.6 -2.1 0.35 -2.0 0.15 -2.0 -0.2 -1.95 Q-0.45 -1.9 -0.7 -1.8 L-1.1 -1.6 -1.1 -1.65 Q-1.0 -1.85 -0.35 -2.05 L0.45 -2.15 0.8 -2.2 1.1 -2.25 1.35 -2.3 2.15 -2.4 2.7 -2.45 3.05 -1.6 M0.5 -1.55 L0.6 -1.5 0.65 -1.45 Q0.6 -1.4 0.5 -1.4 L0.45 -1.4 0.45 -1.45 Q0.45 -1.5 0.5 -1.55 M-1.55 -1.35 L-1.7 -1.4 -1.75 -1.45 -1.7 -1.5 -1.5 -1.45 -1.5 -1.4 -1.55 -1.35 M-0.45 -0.9 L-0.45 -0.9" fill="#8e8b71" fill-rule="evenodd" stroke="none"/>
    <path d="M2.15 -2.85 L2.2 -2.75 2.2 -2.65 2.15 -2.6 1.95 -2.6 1.85 -2.7 Q1.8 -2.7 1.8 -2.75 1.8 -2.9 2.0 -2.85 L2.15 -2.85 M1.2 -3.0 L1.35 -2.95 1.4 -2.85 Q1.4 -2.8 1.35 -2.8 L1.55 -2.8 1.65 -2.65 Q1.65 -2.5 1.55 -2.45 L1.15 -2.45 Q0.9 -2.45 0.8 -2.5 0.65 -2.45 0.5 -2.4 L0.15 -2.35 0.05 -2.35 0.05 -2.4 -0.05 -2.4 Q-0.1 -2.45 -0.3 -2.5 -0.55 -2.55 -0.55 -2.35 L-0.5 -2.3 -0.6 -2.3 -0.9 -2.25 -0.95 -2.25 Q-1.5 -2.25 -1.7 -2.35 L-1.85 -2.35 -1.85 -2.5 -1.3 -2.65 -0.95 -2.65 -0.55 -2.75 -0.45 -2.75 -0.3 -2.8 0.15 -2.85 0.85 -3.0 1.2 -3.0 M-3.45 -1.25 L-3.45 -1.2 Q-3.45 -1.05 -3.65 -1.0 L-3.8 -1.0 -3.85 -1.1 -3.55 -1.25 -3.45 -1.25 M4.35 -0.75 L4.35 -0.7 4.25 -0.7 4.0 -0.8 3.75 -0.85 3.65 -0.8 3.15 -0.8 Q3.1 -0.8 3.1 -0.85 L3.05 -0.9 3.05 -1.0 3.3 -1.0 3.55 -1.05 3.9 -1.05 4.35 -0.75 M2.65 -1.6 L2.7 -1.55 Q2.6 -1.55 2.45 -1.65 L2.35 -1.75 2.05 -1.75 Q1.95 -1.7 1.85 -1.7 L1.75 -1.7 Q1.75 -1.55 1.45 -1.55 1.2 -1.55 1.2 -1.7 1.2 -1.85 1.55 -1.85 L1.55 -1.9 0.85 -1.9 0.15 -2.0 0.35 -2.0 0.6 -2.1 1.65 -2.1 1.8 -2.05 2.1 -2.05 2.15 -2.0 2.45 -1.9 2.5 -1.85 2.5 -1.8 2.6 -1.75 2.65 -1.6 M0.45 -2.15 L0.9 -2.25 0.8 -2.2 0.45 -2.15 M-4.0 -1.0 L-3.85 -1.0 -3.8 -0.95 -3.85 -0.9 -4.0 -0.9 -4.0 -1.0 M-1.25 -2.1 Q-1.4 -2.0 -1.55 -2.0 L-1.4 -2.1 -1.4 -2.15 -1.25 -2.1 M-2.2 -2.2 L-1.85 -2.25 -1.85 -2.0 -2.15 -2.0 Q-2.2 -2.0 -2.2 -2.1 L-2.2 -2.2 M-1.65 -1.6 L-2.05 -1.65 -2.3 -1.75 -1.95 -1.7 -1.5 -1.65 -1.65 -1.6" fill="#b6b494" fill-rule="evenodd" stroke="none"/>
    <path d="M1.55 -2.9 L1.4 -2.95 1.4 -2.9 1.05 -2.95 -0.45 -2.75 Q-1.25 -2.6 -1.75 -2.4 -1.95 -2.35 -2.35 -2.0 L-2.75 -1.75 -2.8 -1.65 Q-2.95 -1.55 -3.0 -1.55 -2.9 -1.55 -2.85 -1.4 L-2.7 -1.05 -2.4 -0.8 -2.3 -0.8 -2.25 -0.75 -1.95 -0.7 -1.1 -0.5 -1.05 -0.5 -0.15 -0.6 0.6 -0.6 0.6 -0.45 -0.3 -0.4 -0.85 -0.3 -1.25 -0.3 -1.35 -0.35 -1.65 -0.35 Q-1.95 -0.4 -2.25 -0.5 L-2.3 -0.5 -2.4 -0.55 -2.45 -0.5 Q-2.5 -0.4 -2.55 -0.4 L-2.6 -0.4 Q-2.7 -0.35 -2.75 -0.35 L-2.9 -0.35 -3.85 -0.3 -4.5 -0.35 -4.55 -0.35 -4.6 -0.4 -4.6 -0.35 -4.7 -0.4 -4.7 -0.45 Q-4.7 -0.65 -4.5 -0.85 -4.25 -1.0 -4.1 -1.0 L-3.85 -1.25 Q-3.65 -1.5 -3.2 -1.35 L-3.25 -1.55 Q-3.25 -1.65 -3.15 -1.75 L-3.1 -1.8 Q-3.05 -1.9 -2.55 -2.3 L-1.95 -2.7 -0.95 -3.0 Q-0.4 -3.2 0.65 -3.25 1.25 -3.4 1.75 -3.2 2.1 -3.05 2.15 -2.95 2.3 -2.9 2.5 -2.8 2.9 -2.55 2.95 -2.4 L3.1 -1.95 Q3.25 -1.7 3.25 -1.55 L3.2 -1.45 Q3.35 -1.4 3.35 -1.35 L3.4 -1.2 4.0 -1.2 4.45 -0.95 Q4.65 -0.75 4.65 -0.65 4.65 -0.5 4.6 -0.45 L4.45 -0.35 4.25 -0.15 3.4 0.1 3.35 0.05 3.25 0.05 3.2 0.0 3.15 0.0 2.55 -0.05 2.45 -0.1 Q2.2 -0.2 2.2 -0.25 L2.25 -0.45 2.5 -0.95 2.45 -0.95 Q2.55 -1.05 3.0 -1.15 L3.25 -1.2 3.2 -1.25 Q2.55 -1.3 2.5 -1.35 L2.5 -1.4 3.0 -1.4 Q2.95 -1.45 2.85 -1.65 2.75 -1.9 2.7 -2.15 L2.65 -2.35 Q2.5 -2.5 2.2 -2.65 1.8 -2.9 1.7 -2.85 L1.55 -2.9 M2.45 -0.35 Q2.45 -0.3 2.6 -0.2 L3.2 -0.15 3.4 -0.2 3.8 -0.25 4.2 -0.35 4.2 -0.4 4.3 -0.5 4.35 -0.6 4.1 -0.85 Q3.85 -1.0 3.45 -1.0 L2.55 -0.95 2.55 -0.85 2.5 -0.6 2.4 -0.35 2.45 -0.35 M-4.45 -0.55 L-4.15 -0.5 -2.9 -0.5 -2.7 -0.6 -2.65 -0.65 -3.0 -0.95 Q-3.3 -1.2 -3.5 -1.2 -3.7 -1.2 -3.85 -1.05 -4.0 -0.9 -4.15 -0.9 L-4.35 -0.65 -4.45 -0.55" fill="#6f6951" fill-rule="evenodd" stroke="none"/>
    <path d="M0.6 -0.3 Q0.55 -0.3 0.55 -0.4 L0.55 -0.45 Q0.55 -0.5 0.6 -0.6 0.65 -0.7 0.75 -0.85 1.0 -1.1 1.3 -1.1 L1.35 -1.0 1.3 -0.75 1.35 -0.7 1.55 -1.15 Q1.65 -1.35 1.75 -1.1 L1.85 -0.75 1.9 -1.0 1.95 -1.1 1.9 -1.25 Q1.9 -1.4 2.0 -1.45 2.3 -1.0 2.4 -0.75 L2.35 -0.65 2.3 -0.6 Q2.25 -0.8 2.15 -1.0 L2.0 -1.15 2.05 -1.05 2.05 -0.9 Q2.05 -0.8 2.0 -0.6 L1.9 -0.6 1.9 -0.55 1.95 -0.3 1.95 -0.25 1.9 -0.25 1.85 -0.25 1.8 -0.5 1.7 -0.7 1.7 -0.75 1.65 -0.9 1.6 -0.75 1.5 -0.6 1.45 -0.6 1.45 -0.55 1.4 -0.5 1.4 -0.45 1.35 -0.4 Q1.25 -0.45 1.2 -0.65 L1.15 -0.85 1.0 -0.8 0.85 -0.6 0.6 -0.35 0.6 -0.3" fill="#779724" fill-rule="evenodd" stroke="none"/>
    <path d="M2.3 -0.6 L2.2 -0.4 2.0 -0.35 1.95 -0.3 1.9 -0.55 1.9 -0.6 2.0 -0.6 Q2.05 -0.8 2.05 -0.9 L2.05 -1.05 2.0 -1.15 2.15 -1.0 Q2.25 -0.8 2.3 -0.6 M1.9 -0.25 L1.75 -0.15 Q1.7 -0.15 1.7 -0.2 1.55 -0.2 1.55 -0.3 L1.55 -0.35 1.5 -0.35 1.45 -0.25 1.35 -0.1 1.1 -0.35 0.95 -0.35 0.9 -0.3 Q0.8 -0.25 0.7 -0.25 L0.6 -0.25 0.6 -0.3 0.6 -0.35 0.85 -0.6 1.0 -0.8 1.15 -0.85 1.2 -0.65 Q1.25 -0.45 1.35 -0.4 L1.4 -0.45 1.4 -0.5 1.45 -0.55 1.45 -0.6 1.5 -0.6 1.6 -0.75 1.65 -0.9 1.7 -0.75 1.7 -0.7 1.8 -0.5 1.85 -0.25 1.9 -0.25 M1.15 -0.65 L1.15 -0.65" fill="#aec53f" fill-rule="evenodd" stroke="none"/>
    <path d="M-0.85 -1.95 L-0.6 -2.0 -0.3 -2.0 -0.3 -1.9 -0.5 -1.9 -0.95 -1.8 Q-0.95 -1.75 -1.0 -1.7 L-1.0 -1.65 -1.05 -1.6 -1.2 -1.65 Q-1.25 -1.75 -1.4 -1.8 -1.6 -1.9 -2.0 -2.0 L-2.3 -2.0 -2.25 -2.05 -2.25 -2.1 -2.2 -2.15 -2.1 -2.2 -1.95 -2.3 -1.9 -2.3 -1.5 -2.15 Q-1.25 -2.05 -1.0 -2.0 L-0.85 -1.95" fill="#8e8b71" fill-rule="evenodd" stroke="none"/>
  </g>
</svg>
