<?xml version="1.0" encoding="UTF-8" standalone="no"?>
<svg xmlns:ffdec="https://www.free-decompiler.com/flash" xmlns:xlink="http://www.w3.org/1999/xlink" ffdec:objectType="shape" height="1.1px" width="1.1px" xmlns="http://www.w3.org/2000/svg">
  <g transform="matrix(1.0, 0.0, 0.0, 1.0, 0.65, 3.65)">
    <path d="M0.2 -3.35 L0.3 -3.3 0.25 -3.25 0.2 -3.25 0.2 -3.2 0.3 -3.15 0.35 -3.15 0.35 -3.05 0.2 -3.05 0.3 -2.95 0.4 -2.9 0.4 -2.7 0.45 -2.7 0.45 -2.65 0.3 -2.65 0.25 -2.7 0.25 -2.6 0.2 -2.55 0.2 -2.6 0.15 -2.6 0.05 -2.7 -0.05 -2.75 -0.05 -2.7 0.0 -2.7 0.0 -2.6 -0.05 -2.6 -0.05 -2.65 -0.1 -2.7 -0.1 -2.75 -0.15 -2.75 -0.2 -2.8 -0.2 -2.85 -0.25 -2.8 -0.25 -2.7 -0.3 -2.7 -0.35 -2.75 -0.35 -2.8 -0.45 -2.8 -0.5 -2.8 -0.5 -3.0 -0.55 -3.0 -0.55 -3.05 -0.6 -3.05 -0.65 -3.1 -0.65 -3.15 -0.45 -3.15 -0.5 -3.2 -0.45 -3.2 -0.5 -3.3 -0.55 -3.35 -0.55 -3.45 -0.5 -3.45 -0.5 -3.4 -0.45 -3.35 -0.45 -3.4 -0.5 -3.45 -0.45 -3.45 -0.4 -3.4 -0.35 -3.4 -0.35 -3.5 -0.4 -3.55 -0.4 -3.65 -0.35 -3.65 -0.35 -3.6 -0.3 -3.55 -0.3 -3.5 -0.25 -3.5 -0.2 -3.45 -0.2 -3.5 -0.15 -3.45 -0.15 -3.55 -0.1 -3.55 -0.05 -3.55 -0.05 -3.45 0.0 -3.4 0.05 -3.45 0.1 -3.45 0.1 -3.35 0.2 -3.35 M-0.4 -2.8 L-0.4 -2.8" fill="#ffffff" fill-opacity="0.8" fill-rule="evenodd" stroke="none"/>
  </g>
</svg>
