<?xml version="1.0" encoding="UTF-8" standalone="no"?>
<svg xmlns:ffdec="https://www.free-decompiler.com/flash" xmlns:xlink="http://www.w3.org/1999/xlink" ffdec:objectType="shape" height="2.15px" width="2.3px" xmlns="http://www.w3.org/2000/svg">
  <g transform="matrix(1.0, 0.0, 0.0, 1.0, 0.3, 3.25)">
    <path d="M1.05 -2.95 L1.1 -2.95 1.15 -2.9 1.25 -2.9 1.25 -2.8 1.2 -2.8 Q1.1 -2.85 0.95 -2.9 L0.75 -2.95 0.7 -3.0 0.65 -3.0 0.6 -3.05 0.6 -3.1 0.75 -3.1 0.75 -3.05 0.8 -3.05 0.85 -3.0 1.0 -3.0 1.0 -2.95 1.05 -2.95 M0.9 -2.75 L0.95 -2.75 1.1 -2.6 1.0 -2.6 1.05 -2.55 1.1 -2.55 Q1.15 -2.5 1.25 -2.45 L1.3 -2.4 1.3 -2.35 1.2 -2.35 1.25 -2.3 1.35 -2.25 1.4 -2.2 1.3 -2.2 1.3 -2.25 1.25 -2.25 1.15 -2.3 1.1 -2.35 1.05 -2.35 1.05 -2.4 1.0 -2.4 1.1 -2.3 1.05 -2.3 0.9 -2.45 0.9 -2.3 0.95 -2.3 1.1 -2.1 1.35 -1.85 1.4 -1.85 1.4 -1.8 1.35 -1.8 1.35 -1.75 1.6 -1.5 1.6 -1.45 1.7 -1.4 1.7 -1.35 1.65 -1.35 1.6 -1.4 1.55 -1.4 1.55 -1.45 1.5 -1.45 1.5 -1.5 1.4 -1.55 1.35 -1.65 1.3 -1.65 1.15 -1.85 1.05 -1.85 0.95 -1.95 0.95 -1.9 1.0 -1.85 0.95 -1.85 0.95 -1.8 1.0 -1.75 1.0 -1.7 1.05 -1.7 1.05 -1.65 1.1 -1.6 1.05 -1.6 0.9 -1.75 0.9 -1.8 0.8 -1.8 0.75 -1.85 0.7 -1.95 0.7 -2.0 0.65 -2.0 0.65 -2.05 0.55 -2.1 0.55 -2.05 0.65 -1.95 0.65 -1.85 0.7 -1.85 0.7 -1.75 0.6 -1.75 0.6 -1.8 0.5 -1.9 0.5 -1.95 0.45 -2.0 0.45 -1.85 0.5 -1.8 0.5 -1.75 0.55 -1.75 0.55 -1.7 0.6 -1.65 0.6 -1.6 0.65 -1.55 0.65 -1.45 0.7 -1.45 0.75 -1.4 0.75 -1.3 0.65 -1.3 0.65 -1.35 0.6 -1.4 0.6 -1.55 0.55 -1.55 0.55 -1.6 0.45 -1.65 0.45 -1.7 0.4 -1.75 0.4 -1.8 0.25 -1.95 0.2 -1.95 0.2 -2.05 0.15 -2.05 0.15 -2.1 0.1 -2.1 0.15 -2.05 0.1 -2.05 0.1 -2.0 0.05 -2.0 0.0 -2.05 0.0 -2.1 -0.05 -2.1 -0.05 -2.15 -0.1 -2.2 -0.15 -2.3 -0.2 -2.35 -0.2 -2.4 -0.25 -2.4 -0.25 -2.45 -0.3 -2.5 -0.3 -2.55 -0.2 -2.55 -0.2 -2.5 -0.1 -2.4 -0.05 -2.45 -0.1 -2.5 -0.05 -2.55 0.0 -2.5 0.0 -2.45 0.15 -2.4 0.15 -2.55 0.1 -2.55 0.1 -2.6 0.15 -2.6 0.2 -2.55 0.2 -2.65 0.15 -2.65 0.15 -2.7 0.1 -2.75 0.15 -2.75 0.15 -2.8 0.2 -2.75 0.15 -2.75 0.15 -2.8 0.1 -2.8 0.1 -2.85 0.0 -2.9 -0.1 -3.0 -0.1 -3.05 -0.05 -3.05 -0.05 -3.1 0.05 -3.05 0.1 -2.95 0.2 -2.85 0.25 -2.85 0.35 -2.85 0.35 -2.9 0.2 -3.05 0.2 -3.15 0.15 -3.15 0.15 -3.2 0.1 -3.25 0.2 -3.25 0.25 -3.2 0.25 -3.15 0.3 -3.15 0.35 -3.15 0.4 -3.1 0.5 -3.1 0.5 -3.05 0.55 -3.05 0.55 -3.0 0.6 -2.95 0.65 -2.95 0.65 -2.9 0.7 -2.9 0.75 -2.85 0.8 -2.85 0.8 -2.8 0.9 -2.8 0.9 -2.75 M0.35 -3.1 L0.35 -3.1 M0.15 -2.95 L0.15 -2.95 M0.6 -2.45 L0.6 -2.45 M0.0 -1.95 L0.05 -1.95 0.1 -1.9 0.1 -1.85 0.15 -1.75 0.1 -1.75 0.0 -1.85 0.0 -1.9 -0.05 -1.95 -0.05 -2.0 0.0 -2.0 0.0 -1.95 M0.75 -2.45 L0.8 -2.4 0.8 -2.45 0.75 -2.45 M1.85 -1.25 L1.85 -1.2 1.9 -1.2 1.9 -1.15 1.95 -1.15 2.0 -1.1 1.9 -1.1 1.85 -1.15 1.8 -1.25 1.85 -1.25" fill="#ffffff" fill-opacity="0.8" fill-rule="evenodd" stroke="none"/>
  </g>
</svg>
