<?xml version="1.0" encoding="UTF-8" standalone="no"?>
<svg xmlns:ffdec="https://www.free-decompiler.com/flash" xmlns:xlink="http://www.w3.org/1999/xlink" ffdec:objectType="shape" height="2.85px" width="3.55px" xmlns="http://www.w3.org/2000/svg">
  <g transform="matrix(1.0, 0.0, 0.0, 1.0, -0.4, 2.0)">
    <path d="M2.55 -1.9 L2.55 -1.9 M2.5 -1.95 L2.8 -1.75 Q2.9 -1.7 3.05 -1.65 L3.1 -1.6 3.1 -1.55 3.15 -1.55 3.15 -1.5 3.2 -1.5 3.2 -1.45 3.15 -1.45 3.1 -1.5 3.0 -1.5 3.0 -1.55 2.95 -1.55 2.8 -1.65 2.6 -1.85 2.5 -1.9 2.5 -1.95 M2.7 -2.0 L2.75 -2.0 2.95 -1.9 2.9 -1.85 2.9 -1.9 2.85 -1.9 2.8 -1.95 2.75 -1.95 2.7 -2.0 M1.05 -1.1 L1.15 -1.0 1.15 -1.05 Q1.1 -1.05 1.15 -1.1 L1.1 -1.1 1.1 -1.15 1.15 -1.15 1.25 -1.0 1.25 -0.9 1.3 -0.9 1.3 -0.85 1.45 -0.7 1.45 -0.65 1.5 -0.6 1.5 -0.55 1.55 -0.55 1.65 -0.4 1.7 -0.25 1.7 -0.2 1.65 -0.2 1.65 -0.25 1.6 -0.25 1.6 -0.3 1.55 -0.4 Q1.5 -0.45 1.5 -0.4 L1.45 -0.45 1.5 -0.35 1.4 -0.35 1.4 -0.45 1.35 -0.45 1.3 -0.5 1.3 -0.55 1.25 -0.6 1.2 -0.7 1.2 -0.75 1.15 -0.75 1.15 -0.8 1.15 -0.7 1.2 -0.7 1.2 -0.65 1.1 -0.65 1.1 -0.7 1.0 -0.8 1.0 -0.85 0.95 -0.9 0.95 -0.95 0.9 -0.95 0.9 -1.0 0.85 -1.05 0.85 -1.1 0.75 -1.2 0.75 -1.25 0.7 -1.25 0.7 -1.35 0.75 -1.3 0.75 -1.25 0.85 -1.25 0.85 -1.2 0.9 -1.15 0.9 -1.1 1.05 -0.95 1.05 -1.0 1.0 -1.0 1.0 -1.05 0.95 -1.1 0.95 -1.15 1.05 -1.15 1.05 -1.1 M1.0 -1.0 L1.0 -0.95 1.05 -0.95 1.0 -1.0 M0.45 -1.5 L0.45 -1.4 0.5 -1.35 0.55 -1.35 0.55 -1.25 0.5 -1.25 0.4 -1.35 0.4 -1.5 0.45 -1.5 M1.1 -0.85 L1.1 -0.85 M2.55 -1.4 L2.6 -1.4 2.6 -1.35 2.7 -1.3 2.8 -1.2 2.9 -1.15 2.9 -1.1 2.95 -1.1 2.9 -1.05 2.9 -1.1 2.85 -1.1 2.8 -1.15 2.7 -1.2 2.6 -1.2 2.8 -1.1 2.85 -1.05 2.9 -1.05 2.95 -1.0 2.95 -0.95 3.0 -0.95 3.0 -0.9 3.15 -0.75 3.05 -0.75 3.05 -0.8 3.0 -0.8 2.95 -0.85 2.9 -0.85 2.9 -0.9 2.85 -0.9 2.7 -1.0 Q2.6 -1.05 2.55 -1.1 L2.5 -1.2 2.4 -1.25 2.35 -1.25 2.25 -1.35 2.25 -1.4 2.3 -1.4 2.25 -1.45 Q2.1 -1.6 1.9 -1.65 L1.9 -1.7 1.85 -1.75 1.9 -1.75 2.2 -1.55 2.2 -1.6 2.3 -1.6 2.35 -1.55 2.45 -1.5 2.5 -1.45 2.55 -1.45 2.55 -1.4 M2.35 -1.1 L2.4 -1.1 2.45 -1.05 2.45 -1.0 2.5 -1.0 2.6 -0.8 2.55 -0.75 2.6 -0.75 2.65 -0.7 2.7 -0.7 2.7 -0.65 2.8 -0.55 2.7 -0.55 2.7 -0.6 2.55 -0.7 2.5 -0.75 2.45 -0.75 Q2.4 -0.75 2.45 -0.8 L2.35 -0.8 2.45 -0.75 2.6 -0.6 2.6 -0.55 2.65 -0.5 2.6 -0.45 2.6 -0.5 2.5 -0.5 2.5 -0.55 2.3 -0.75 2.3 -0.7 2.45 -0.55 2.5 -0.45 2.5 -0.4 2.55 -0.4 2.55 -0.3 2.6 -0.3 2.6 -0.25 2.65 -0.25 2.65 -0.2 2.6 -0.25 2.6 -0.2 2.65 -0.2 2.7 -0.15 2.7 -0.1 2.65 -0.05 2.6 -0.15 2.5 -0.2 2.5 -0.25 2.4 -0.25 2.15 -0.5 2.15 -0.55 2.1 -0.6 2.1 -0.55 2.15 -0.5 2.15 -0.45 2.2 -0.35 2.25 -0.3 2.25 -0.25 2.3 -0.25 2.5 0.0 2.55 0.1 2.6 0.1 2.6 0.15 2.65 0.2 2.65 0.25 2.95 0.55 3.15 0.8 3.25 0.85 3.15 0.85 3.0 0.7 2.9 0.55 2.85 0.55 2.85 0.5 2.7 0.35 2.7 0.3 2.65 0.35 2.65 0.3 2.55 0.25 2.5 0.2 2.5 0.15 2.45 0.15 2.4 0.05 2.35 0.0 2.3 0.0 2.3 -0.05 2.25 -0.05 2.2 -0.1 2.2 -0.05 2.25 -0.05 2.25 0.0 2.3 0.05 2.2 0.05 2.2 0.0 2.15 0.0 2.1 -0.1 1.9 -0.3 1.8 -0.45 1.75 -0.5 1.75 -0.55 1.8 -0.55 1.8 -0.5 1.85 -0.5 1.85 -0.45 1.9 -0.45 1.85 -0.5 1.85 -0.55 1.8 -0.55 1.8 -0.6 1.75 -0.6 1.75 -0.65 1.7 -0.7 1.7 -0.75 1.75 -0.75 1.75 -0.7 1.85 -0.65 1.95 -0.45 1.95 -0.6 1.9 -0.65 1.95 -0.65 1.85 -0.8 1.7 -0.95 1.7 -1.0 1.65 -1.05 1.65 -1.1 2.0 -0.75 2.0 -0.8 1.9 -0.9 1.9 -0.95 1.65 -1.2 1.65 -1.25 1.6 -1.3 1.55 -1.4 Q1.45 -1.5 1.5 -1.55 L1.5 -1.5 1.6 -1.5 1.6 -1.45 1.65 -1.45 1.65 -1.35 1.7 -1.35 1.75 -1.3 1.75 -1.25 1.9 -1.15 1.9 -1.1 2.0 -1.1 2.0 -1.05 2.05 -1.05 2.05 -1.0 2.1 -1.0 2.1 -0.9 2.15 -0.9 2.2 -0.95 2.05 -1.1 2.15 -1.05 2.2 -1.0 2.25 -0.9 2.3 -0.9 2.2 -1.0 2.3 -1.0 2.35 -0.95 2.35 -0.9 2.4 -0.9 2.3 -1.0 2.35 -1.05 2.3 -1.1 2.3 -1.15 2.35 -1.15 2.35 -1.1 M2.45 -1.0 L2.45 -1.0 M2.75 -0.95 L2.8 -0.95 2.85 -0.9 Q2.95 -0.8 3.1 -0.65 L3.25 -0.55 3.2 -0.5 3.1 -0.6 3.0 -0.65 2.9 -0.75 2.85 -0.75 2.85 -0.8 2.8 -0.8 2.8 -0.85 2.75 -0.85 2.75 -0.9 2.8 -0.9 2.8 -0.95 2.75 -0.95 M1.8 -1.4 L1.8 -1.4 M2.1 -0.6 L2.05 -0.65 2.05 -0.6 2.1 -0.6 M2.15 -0.15 L2.2 -0.15 2.15 -0.2 2.15 -0.15 M2.3 -0.85 L2.3 -0.85 M2.3 -0.45 L2.3 -0.45 M2.35 -0.35 L2.35 -0.35 M2.45 -0.3 L2.45 -0.3 M2.25 -0.1 L2.25 -0.1 M2.75 -0.15 L2.8 -0.2 2.9 -0.15 Q2.9 -0.1 2.95 -0.05 L3.05 0.05 3.0 0.05 2.8 -0.15 2.75 -0.15 M3.85 -1.15 L3.9 -1.15 3.95 -1.1 3.85 -1.1 3.65 -1.2 3.4 -1.3 3.4 -1.35 3.3 -1.4 3.25 -1.45 3.3 -1.45 3.5 -1.3 3.55 -1.25 3.6 -1.25 3.6 -1.3 3.65 -1.3 3.7 -1.25 3.75 -1.25 3.8 -1.2 3.85 -1.2 3.85 -1.15 M3.15 -0.7 L3.15 -0.7 M3.25 -0.65 L3.25 -0.65 M3.4 0.35 L3.4 0.45 3.35 0.4 3.3 0.4 3.3 0.35 3.25 0.35 3.25 0.3 3.2 0.3 3.2 0.25 3.15 0.25 3.15 0.2 3.1 0.15 3.15 0.1 3.3 0.25 3.35 0.25 3.35 0.3 3.4 0.35 M3.15 0.65 L3.15 0.65 M3.1 0.8 L3.15 0.85 3.15 0.8 3.1 0.8" fill="#ffffff" fill-opacity="0.8" fill-rule="evenodd" stroke="none"/>
  </g>
</svg>
