<?xml version="1.0" encoding="UTF-8" standalone="no"?>
<svg xmlns:ffdec="https://www.free-decompiler.com/flash" xmlns:xlink="http://www.w3.org/1999/xlink" ffdec:objectType="shape" height="3.4px" width="4.15px" xmlns="http://www.w3.org/2000/svg">
  <g transform="matrix(1.0, 0.0, 0.0, 1.0, -2.1, 0.6)">
    <path d="M4.8 -0.55 L4.9 -0.55 4.95 -0.5 4.95 -0.45 5.05 -0.45 5.05 -0.4 5.1 -0.4 5.2 -0.35 5.3 -0.35 5.45 -0.25 5.5 -0.25 5.45 -0.3 5.4 -0.3 5.4 -0.35 5.45 -0.35 5.5 -0.3 5.5 -0.25 5.55 -0.25 5.6 -0.2 5.6 -0.15 5.65 -0.15 5.65 -0.1 5.55 -0.15 5.45 -0.15 Q5.4 -0.2 5.35 -0.25 L5.3 -0.25 5.1 -0.35 5.05 -0.35 4.95 -0.45 4.85 -0.45 4.7 -0.6 4.75 -0.6 4.8 -0.55 M4.45 -0.1 L4.55 -0.05 4.6 -0.05 4.7 0.05 4.85 0.05 4.9 0.1 4.95 0.1 5.05 0.2 5.15 0.2 5.25 0.3 5.3 0.3 5.3 0.35 5.35 0.35 5.3 0.4 5.4 0.4 5.4 0.45 5.5 0.5 5.45 0.5 5.5 0.55 5.55 0.55 5.65 0.65 5.6 0.65 5.55 0.6 5.5 0.6 5.35 0.5 5.25 0.5 5.15 0.45 5.05 0.35 4.95 0.35 Q4.9 0.3 4.85 0.25 L4.8 0.25 4.8 0.2 4.85 0.2 4.8 0.15 4.6 0.05 4.5 0.05 4.5 0.0 4.45 -0.05 4.45 -0.1 M5.4 -0.3 L5.4 -0.3 M6.0 -0.05 L6.0 -0.1 6.15 -0.1 6.15 -0.05 6.25 -0.05 6.25 0.05 6.15 0.05 6.1 0.0 6.05 0.0 6.05 -0.05 6.0 -0.05 M5.55 0.3 L5.6 0.35 Q5.6 0.4 5.55 0.35 L5.4 0.35 5.4 0.3 5.3 0.3 5.25 0.25 5.15 0.2 5.1 0.2 5.05 0.15 5.0 0.15 4.95 0.1 4.9 0.1 4.9 0.05 4.8 0.05 4.8 0.0 4.85 0.0 4.9 0.05 4.95 0.05 4.95 0.1 5.05 0.1 5.1 0.15 5.15 0.15 5.1 0.1 5.05 0.1 5.0 0.05 5.05 0.05 5.2 0.1 5.45 0.2 5.45 0.25 5.5 0.25 5.55 0.3 Q5.5 0.25 5.35 0.25 L5.45 0.25 5.45 0.3 5.55 0.3 M5.2 0.15 L5.15 0.15 5.2 0.2 5.2 0.15 M4.85 1.2 L4.9 1.2 4.9 1.25 5.0 1.35 5.1 1.5 5.05 1.5 5.1 1.55 5.1 1.6 5.15 1.6 5.2 1.7 5.3 1.75 5.3 1.8 5.35 1.8 5.35 1.85 5.25 1.85 5.25 1.8 5.2 1.8 5.2 1.75 5.15 1.75 5.05 1.65 5.05 1.6 5.0 1.6 5.0 1.55 4.95 1.55 4.9 1.5 4.9 1.45 4.85 1.45 4.85 1.35 4.75 1.2 4.7 1.15 4.7 1.2 4.75 1.2 4.65 1.15 4.6 1.1 4.6 1.0 4.55 1.0 4.55 0.95 4.6 0.95 4.65 1.05 4.65 1.0 4.7 1.05 4.75 1.05 4.8 1.15 4.85 1.15 4.85 1.2 M4.45 1.15 L4.5 1.15 4.5 1.2 4.6 1.3 4.6 1.35 4.7 1.4 4.7 1.35 4.75 1.35 4.75 1.4 4.8 1.4 4.8 1.45 4.95 1.6 4.95 1.65 5.0 1.65 5.2 1.85 5.2 1.9 5.25 1.95 5.3 1.95 5.3 2.0 5.35 2.05 5.35 2.15 5.3 2.15 5.3 2.1 5.25 2.1 5.25 2.05 5.2 2.05 5.2 2.0 5.15 2.0 5.15 1.95 5.05 1.95 5.05 1.9 4.95 1.9 4.95 1.95 5.0 1.95 5.0 2.0 4.95 2.0 4.95 1.95 4.9 1.95 4.8 1.85 4.8 1.8 4.75 1.75 4.75 1.7 4.7 1.7 4.7 1.65 4.65 1.65 4.65 1.6 4.55 1.55 4.55 1.5 4.6 1.5 4.65 1.55 4.7 1.55 4.65 1.5 4.65 1.45 4.6 1.4 4.55 1.4 4.55 1.35 4.5 1.35 4.5 1.3 4.4 1.2 4.4 1.15 4.35 1.15 4.35 1.1 4.3 1.1 4.25 1.05 4.25 1.0 4.3 1.0 4.3 1.05 4.35 1.05 4.35 1.1 4.45 1.1 4.45 1.15 M4.35 1.5 L4.4 1.5 4.55 1.65 4.55 1.7 4.6 1.7 4.8 1.95 5.0 2.15 5.0 2.2 5.05 2.25 5.1 2.35 5.1 2.4 5.15 2.4 5.2 2.45 5.2 2.5 5.25 2.5 5.25 2.55 5.3 2.55 5.3 2.6 5.35 2.65 5.35 2.7 5.4 2.7 5.4 2.75 5.35 2.8 5.25 2.65 5.1 2.5 5.1 2.45 5.05 2.4 5.0 2.35 5.0 2.3 4.95 2.25 4.9 2.25 4.9 2.2 4.85 2.15 4.85 2.1 4.7 1.95 4.65 1.95 4.65 2.0 4.7 2.05 4.7 2.1 4.65 2.1 4.65 2.05 4.55 1.95 4.5 1.95 4.5 1.9 4.35 1.8 4.25 1.75 4.3 1.75 4.3 1.85 4.35 1.85 4.35 1.9 4.4 1.9 4.45 1.95 4.45 2.0 4.5 2.0 4.5 2.05 4.55 2.05 4.6 2.1 4.55 2.1 4.5 2.05 4.5 2.1 4.55 2.1 4.65 2.2 4.6 2.2 4.55 2.25 4.5 2.25 4.5 2.2 4.45 2.2 4.45 2.1 4.4 2.1 4.4 2.05 4.25 1.9 4.2 1.9 4.2 1.85 4.15 1.85 4.15 1.8 4.1 1.75 4.1 1.7 4.05 1.65 4.15 1.65 4.15 1.7 4.2 1.7 4.2 1.65 4.3 1.7 4.35 1.75 4.4 1.75 4.3 1.6 4.3 1.55 4.25 1.55 4.25 1.5 4.2 1.45 4.25 1.45 4.35 1.5 4.45 1.6 4.4 1.6 4.4 1.5 4.35 1.5 M4.45 1.75 L4.45 1.75 M4.8 1.65 L4.85 1.7 4.85 1.65 4.8 1.65 M4.75 1.6 L4.75 1.6 M5.1 1.75 L5.15 1.75 5.1 1.7 5.1 1.75 M2.95 1.5 L3.05 1.6 3.05 1.65 3.1 1.65 3.2 1.85 3.25 1.85 3.25 1.9 3.3 1.9 3.4 2.05 3.45 2.15 3.5 2.2 3.5 2.25 3.55 2.25 3.55 2.35 3.6 2.4 3.55 2.45 3.5 2.45 3.5 2.4 3.35 2.25 3.3 2.15 3.2 2.05 3.2 2.0 3.15 2.0 3.15 1.95 3.1 1.95 3.1 1.9 3.05 1.9 3.1 1.95 3.1 2.0 3.15 2.0 3.15 2.05 3.25 2.15 3.15 2.15 3.15 2.1 3.1 2.05 3.1 2.1 3.05 2.1 3.05 2.05 3.0 2.0 3.0 1.95 2.95 1.95 2.95 1.9 2.85 1.8 2.85 1.75 2.8 1.7 2.85 1.7 2.9 1.65 2.95 1.7 2.95 1.75 3.05 1.8 3.05 1.85 3.1 1.85 3.05 1.8 3.0 1.7 3.0 1.65 2.95 1.65 2.95 1.5 M3.45 2.3 L3.45 2.3 M2.1 1.35 L2.15 1.4 2.15 1.45 2.2 1.5 2.2 1.55 2.25 1.6 2.3 1.7 2.3 1.75 2.25 1.7 2.2 1.6 2.15 1.55 2.15 1.45 2.1 1.4 2.1 1.35" fill="#ffffff" fill-opacity="0.8" fill-rule="evenodd" stroke="none"/>
  </g>
</svg>
