<?xml version="1.0" encoding="UTF-8" standalone="no"?>
<svg xmlns:ffdec="https://www.free-decompiler.com/flash" xmlns:xlink="http://www.w3.org/1999/xlink" ffdec:objectType="shape" height="20.55px" width="21.85px" xmlns="http://www.w3.org/2000/svg">
  <g transform="matrix(1.0, 0.0, 0.0, 1.0, 0.0, 0.0)">
    <path d="M19.95 10.2 Q19.95 6.6 17.3 4.0 14.6 1.45 10.85 1.45 7.1 1.45 4.4 4.0 1.75 6.6 1.75 10.2 1.75 13.85 4.4 16.4 7.1 19.0 10.85 19.0 14.6 19.0 17.3 16.4 19.95 13.85 19.95 10.2 M21.85 10.3 Q21.85 14.55 18.65 17.55 15.45 20.55 10.9 20.55 6.4 20.55 3.2 17.55 0.0 14.55 0.0 10.3 0.0 6.05 3.2 3.0 6.4 0.0 10.9 0.0 15.45 0.0 18.65 3.0 21.85 6.05 21.85 10.3" fill="#ffffff" fill-opacity="0.20392157" fill-rule="evenodd" stroke="none"/>
  </g>
</svg>
