<?xml version="1.0" encoding="UTF-8" standalone="no"?>
<svg xmlns:ffdec="https://www.free-decompiler.com/flash" xmlns:xlink="http://www.w3.org/1999/xlink" ffdec:objectType="shape" height="30.2px" width="22.55px" xmlns="http://www.w3.org/2000/svg">
  <g transform="matrix(1.0, 0.0, 0.0, 1.0, 9.6, 13.45)">
    <path d="M8.55 -7.8 L9.1 -8.05 10.15 -8.4 10.2 -8.4 Q10.35 -7.95 9.85 -7.75 L9.65 -7.7 8.35 -7.7 8.55 -7.8 M3.6 -11.65 L1.2 -10.45 Q-2.0 -8.8 -4.2 -6.6 L-4.05 -6.55 -4.6 -6.1 -3.95 -6.5 Q-3.35 -6.35 -2.65 -6.8 L-1.55 -7.55 -0.85 -7.85 Q0.55 -8.45 1.7 -9.4 1.8 -9.45 1.9 -9.45 1.1 -8.75 0.25 -8.1 L0.35 -8.1 0.65 -7.95 0.75 -7.8 Q1.45 -8.1 2.15 -8.3 L1.3 -7.55 Q2.4 -7.25 3.45 -7.05 2.15 -6.35 0.75 -5.6 L1.25 -5.65 2.4 -5.8 2.7 -5.9 4.15 -6.35 4.25 -6.35 4.2 -6.2 Q4.7 -6.4 5.25 -6.65 L5.55 -6.75 6.05 -6.7 6.35 -6.45 Q6.1 -6.1 5.75 -5.85 L3.95 -5.55 Q1.6 -5.2 -0.25 -4.15 -0.3 -3.7 0.15 -3.75 L6.7 -4.2 Q8.95 -4.15 11.3 -3.85 10.35 -3.4 9.35 -3.05 L6.95 -2.65 Q3.65 -2.1 1.15 -0.8 2.55 0.05 4.65 -0.3 3.5 -0.05 2.3 -0.05 1.1 -0.05 0.55 0.6 0.55 0.9 0.85 0.9 L12.95 0.95 8.95 1.25 7.3 1.15 Q6.0 1.4 4.55 1.45 3.7 1.45 2.9 1.6 4.05 1.65 5.25 1.6 3.4 1.85 1.8 2.35 L1.65 2.3 1.65 2.4 0.55 2.75 Q0.65 3.2 1.2 3.35 L2.3 3.55 2.0 3.6 1.5 3.65 1.4 3.75 Q1.3 3.9 1.1 3.9 L0.65 3.9 Q2.7 4.05 4.75 4.0 L4.5 4.0 Q3.0 4.15 1.55 4.45 L1.4 4.55 1.3 4.65 1.3 4.85 Q0.3 4.9 -0.75 4.85 L-0.2 5.1 0.05 5.1 0.5 5.15 Q-0.55 5.1 -1.15 6.0 L-1.15 6.15 Q-1.2 6.35 -1.05 6.5 -0.7 6.85 -0.3 7.05 -0.05 7.2 0.2 7.4 L0.1 7.5 0.1 7.65 0.05 7.75 0.05 8.0 0.15 8.1 Q1.25 9.2 2.55 10.05 L5.2 11.7 5.35 11.8 Q4.0 11.5 2.65 10.6 2.15 10.2 1.55 9.85 L2.8 10.7 Q4.1 11.6 5.3 12.65 4.05 12.1 2.8 11.6 2.1 11.15 1.4 10.65 -0.5 9.25 -2.5 8.0 -3.2 7.55 -3.7 7.05 -3.9 7.0 -4.05 6.9 -3.25 7.95 -2.35 8.95 L-1.65 9.5 Q-0.85 10.05 -0.35 10.75 L-2.15 10.6 Q-2.55 10.3 -2.95 9.9 -4.0 8.8 -5.1 7.75 L-4.05 9.1 Q-3.45 9.9 -2.75 10.65 L-3.3 10.65 Q-3.4 11.0 -3.2 11.3 -2.65 12.15 -1.9 12.9 L-0.8 13.85 Q-0.75 14.2 -0.8 14.6 L-1.35 14.6 -1.7 14.25 -2.0 13.9 Q-2.1 13.85 -2.2 13.8 -2.0 14.1 -1.95 14.5 -1.85 14.85 -1.6 15.1 L-2.8 15.05 Q-4.15 12.4 -5.6 9.8 -7.0 7.3 -8.65 5.2 L-8.65 4.8 Q-8.85 4.45 -8.8 4.05 L-8.75 3.95 -8.75 3.9 -8.9 2.15 Q-9.05 0.95 -9.1 -0.25 L-9.4 -0.3 Q-9.45 -0.3 -9.5 -0.4 L-9.1 -0.5 -9.15 -1.75 Q-9.15 -3.65 -9.6 -5.45 L-9.55 -5.6 -9.35 -5.8 -9.3 -5.8 -9.15 -6.2 -9.4 -6.0 Q-8.8 -7.45 -7.75 -8.8 -6.75 -10.05 -5.85 -11.4 -5.1 -12.55 -4.1 -13.45 -4.4 -12.6 -4.85 -11.85 L-4.25 -12.45 -4.1 -12.5 Q-4.2 -12.15 -4.35 -11.75 -5.6 -10.45 -5.65 -8.95 -3.9 -9.95 -2.2 -11.5 -2.45 -11.25 -2.7 -11.0 L-2.75 -10.9 Q-4.55 -9.45 -5.45 -7.65 L-4.9 -7.65 -5.95 -6.75 -6.2 -6.5 -6.45 -6.3 -4.45 -7.7 Q-3.45 -7.85 -2.45 -8.6 -1.3 -9.5 -0.1 -10.3 L1.25 -10.95 Q2.4 -11.5 3.55 -11.7 L3.6 -11.65 M3.85 -8.45 Q4.35 -8.6 4.75 -8.7 L5.0 -8.6 2.7 -7.9 3.5 -8.3 3.85 -8.45 M8.15 -0.05 L5.95 0.1 7.85 -0.15 Q8.0 -0.1 8.15 -0.05 M9.1 -2.15 Q9.3 -2.1 9.55 -1.95 L9.65 -1.9 9.65 -1.85 4.45 -1.2 Q6.6 -1.75 8.8 -2.2 L9.1 -2.15 M10.35 3.5 L6.55 3.15 7.05 3.2 7.45 3.05 8.05 2.95 8.45 2.8 Q8.35 3.05 8.1 3.25 L10.0 3.4 Q10.2 3.4 10.35 3.5 M6.95 2.45 Q9.9 2.05 12.85 1.8 11.55 2.25 9.85 2.35 L6.95 2.45 M4.65 7.6 L2.25 7.35 2.25 7.45 Q1.05 6.95 -0.1 6.3 1.8 6.25 3.65 6.4 4.75 6.75 5.6 7.45 5.2 7.65 4.65 7.6 M0.45 13.85 Q0.5 13.8 0.6 13.75 L0.75 13.7 Q1.15 13.8 1.25 14.15 1.3 14.3 1.25 14.5 L0.75 14.15 0.4 13.9 0.45 13.85 M9.45 7.25 Q9.2 7.25 9.0 7.15 L9.45 7.25 M8.65 11.5 L8.6 11.6 8.6 11.7 8.55 11.8 8.45 11.95 8.25 12.15 7.4 11.85 6.7 11.9 6.3 11.6 Q4.65 10.55 3.15 9.35 4.7 9.65 6.2 10.15 7.6 10.6 8.95 11.3 L8.6 11.45 8.65 11.5 M0.1 14.55 L0.8 15.1 0.75 15.15 0.6 15.2 0.25 15.0 Q0.1 14.85 0.1 14.65 L0.1 14.55 M-3.35 -9.05 L-3.6 -8.9 -3.45 -9.05 -3.35 -9.05 M-1.7 -10.25 L-1.55 -10.2 -2.8 -9.4 Q-2.8 -9.55 -2.7 -9.7 L-2.25 -10.05 -2.1 -10.1 -1.7 -10.25 M-2.75 -3.6 L-2.65 -3.5 -2.35 -3.65 -2.75 -3.65 -2.75 -3.6 M-0.25 -1.0 L0.25 -1.15 -0.3 -1.1 -0.25 -1.0 M-0.45 1.35 L-1.9 1.3 -0.25 1.45 -0.25 1.35 -0.45 1.35 M-2.05 11.4 Q-1.65 11.8 -1.4 12.2 L-2.1 11.35 -2.05 11.4 M-1.05 16.45 Q-1.4 16.9 -1.9 16.7 L-2.35 15.9 Q-1.65 15.9 -1.0 16.05 -0.95 16.25 -1.05 16.45" fill="#ffffff" fill-rule="evenodd" stroke="none"/>
  </g>
</svg>
