<?xml version="1.0" encoding="UTF-8" standalone="no"?>
<svg xmlns:ffdec="https://www.free-decompiler.com/flash" xmlns:xlink="http://www.w3.org/1999/xlink" ffdec:objectType="shape" height="41.5px" width="38.5px" xmlns="http://www.w3.org/2000/svg">
  <g transform="matrix(1.0, 0.0, 0.0, 1.0, 10.9, 16.55)">
    <path d="M18.95 -14.25 L19.3 -14.2 Q19.45 -14.15 19.6 -14.05 L19.65 -14.0 18.1 -13.25 16.75 -12.9 Q14.4 -12.3 12.0 -11.8 13.3 -12.25 14.55 -12.8 L17.3 -13.85 Q17.6 -14.0 17.9 -14.15 L18.65 -14.3 18.95 -14.25 M11.1 -10.75 L10.5 -10.65 13.4 -11.3 12.6 -11.0 12.85 -11.0 12.65 -10.95 Q11.85 -10.8 11.1 -10.75 M9.3 -13.3 L9.55 -13.4 7.6 -12.0 Q3.85 -10.75 1.2 -8.6 1.65 -8.25 2.2 -8.55 L3.65 -9.3 4.15 -9.55 3.3 -8.95 4.75 -9.55 Q4.7 -9.45 4.7 -9.3 5.3 -8.75 6.2 -9.2 7.9 -10.05 9.75 -10.5 L10.2 -10.6 Q9.3 -10.35 8.85 -9.65 11.6 -9.2 14.25 -9.7 13.85 -9.5 13.4 -9.4 12.7 -9.25 12.0 -9.25 11.1 -9.2 10.7 -8.8 L9.2 -8.5 Q9.15 -8.25 9.0 -8.0 9.75 -8.15 10.45 -8.4 L10.4 -8.35 Q10.55 -8.15 10.75 -8.15 L11.65 -8.0 Q10.65 -7.7 9.75 -7.35 L11.45 -7.35 Q10.9 -7.2 10.85 -6.7 L19.95 -6.3 19.75 -6.3 Q18.2 -6.35 16.75 -6.25 L17.15 -6.3 Q14.95 -6.2 12.75 -6.25 L12.3 -5.9 13.75 -5.85 13.9 -5.8 14.5 -5.9 Q13.05 -5.6 11.8 -5.1 11.8 -4.85 12.0 -4.75 12.4 -4.6 12.75 -4.45 L12.35 -4.4 10.8 -4.35 Q10.4 -4.35 10.4 -4.0 10.45 -3.7 10.75 -3.65 L12.5 -3.25 11.5 -3.15 11.55 -3.05 11.55 -3.0 Q12.75 -3.0 13.95 -3.0 L14.7 -2.95 13.55 -2.85 Q11.3 -2.7 9.45 -2.2 9.45 -1.95 9.65 -1.95 L12.2 -1.55 11.1 -1.3 Q10.05 -1.0 9.0 -1.0 L8.7 -0.95 8.7 -0.75 8.65 -0.6 10.55 -0.5 Q8.65 -0.2 6.85 0.45 10.25 1.15 13.65 1.2 10.6 1.35 7.9 2.0 4.8 2.05 1.65 1.8 0.5 1.75 -0.65 1.8 L-1.2 1.85 Q0.85 2.4 3.05 2.55 L7.1 2.9 Q9.3 3.15 11.4 3.55 L10.05 3.75 Q8.05 3.8 6.0 3.45 L1.65 2.75 Q0.4 2.6 -0.85 2.2 -1.5 2.05 -1.4 1.85 L-1.9 1.85 Q-1.35 2.2 -0.95 3.15 -0.35 4.5 0.55 5.7 1.25 6.65 1.7 7.7 L-0.45 4.85 -0.6 4.9 -0.75 4.55 Q-1.05 3.65 -1.65 3.25 L-1.5 3.55 Q-1.1 4.25 -0.6 4.9 -0.75 4.95 -0.7 5.2 L-0.6 5.45 Q-1.45 4.9 -2.05 4.05 L-2.0 4.25 -2.0 4.45 -2.05 4.6 -1.65 5.1 Q-0.35 6.7 -0.25 8.55 L-2.6 5.55 -2.65 5.6 -2.7 5.7 -2.5 6.2 -2.1 6.75 -2.45 6.8 Q-2.65 7.35 -2.4 8.0 L-2.1 8.65 -2.15 8.65 -1.6 9.9 -1.6 10.0 -1.65 10.15 -1.65 10.25 -1.75 10.35 Q-1.65 10.75 -1.4 11.1 -1.1 11.45 -0.95 11.85 -0.8 12.2 -0.55 12.4 -0.6 12.15 -0.75 11.9 -0.95 11.65 -1.0 11.3 L-1.1 10.8 -0.55 12.1 -0.15 12.95 -0.1 13.15 Q-0.55 12.95 -0.9 12.2 -1.2 11.6 -1.65 11.1 -1.95 10.75 -2.4 10.65 L-2.8 9.5 -2.95 9.05 Q-3.6 8.95 -3.85 8.1 -4.05 7.25 -4.45 6.4 L-5.15 4.95 -5.15 4.9 -5.25 4.95 -5.4 4.95 -5.65 4.9 -5.7 4.8 -6.0 4.3 -6.2 4.1 Q-6.25 3.1 -6.45 2.2 -6.55 1.6 -6.75 1.05 L-7.0 0.9 -7.0 1.25 -6.9 2.7 Q-6.7 3.5 -6.6 4.35 L-6.3 7.2 Q-6.15 8.65 -6.6 9.75 L-6.6 9.8 -6.55 10.1 Q-6.5 10.35 -6.6 10.6 L-6.6 12.35 -6.75 12.55 -6.9 12.8 -6.95 13.0 -7.1 13.1 Q-7.45 12.0 -7.4 10.6 -7.35 9.15 -7.4 7.7 L-7.4 7.45 Q-7.55 7.0 -7.65 6.55 -8.05 5.25 -7.7 4.25 -7.8 4.1 -7.85 3.9 L-7.9 3.45 -7.95 3.2 -7.8 3.35 Q-7.75 3.5 -7.7 3.65 L-7.65 4.0 -7.55 4.2 Q-7.55 2.95 -7.85 1.6 -8.15 0.1 -8.5 -1.3 -8.65 -1.85 -8.7 -2.3 -9.0 -2.45 -9.25 -2.95 -9.7 -3.8 -9.05 -4.4 -9.5 -5.45 -9.55 -6.75 -9.55 -7.45 -9.7 -8.15 -9.85 -8.5 -10.05 -8.85 -10.5 -9.7 -10.45 -10.5 -10.6 -11.15 -10.6 -11.75 L-10.3 -11.2 -10.3 -11.3 -10.25 -11.1 -10.2 -10.95 -10.3 -11.3 Q-10.7 -12.75 -10.9 -13.9 -9.7 -12.5 -9.35 -10.6 -9.0 -8.75 -8.5 -6.95 -8.4 -6.4 -8.3 -5.9 -8.05 -5.45 -7.9 -5.0 -7.8 -5.55 -7.5 -6.05 -6.85 -7.3 -6.55 -8.7 -6.3 -10.15 -5.45 -11.15 L-5.45 -10.6 -5.1 -11.4 -5.0 -11.15 Q-5.35 -10.45 -5.6 -9.65 -5.5 -9.6 -5.45 -9.55 L-5.45 -9.25 Q-5.25 -9.35 -5.0 -9.45 L-4.95 -9.5 -4.65 -9.7 -4.6 -9.35 Q-4.85 -9.0 -4.8 -8.6 L-4.5 -8.6 -4.45 -8.65 Q-3.75 -8.1 -4.3 -7.25 L-4.9 -6.25 Q-3.35 -7.05 -1.5 -7.5 L-1.2 -7.6 -0.7 -7.85 Q0.15 -8.35 1.05 -8.65 3.1 -10.2 5.2 -11.65 L9.3 -13.3 M11.55 -14.95 Q10.5 -14.55 9.45 -14.2 10.5 -14.65 11.6 -15.0 L11.55 -14.95 M7.5 -8.1 L7.9 -8.2 7.5 -8.15 7.5 -8.1 M21.9 -7.1 L17.55 -7.35 16.7 -7.4 20.45 -7.55 Q21.4 -7.6 21.9 -7.1 M17.55 -11.75 L18.5 -12.05 20.4 -12.0 16.25 -11.35 17.55 -11.75 M14.55 -8.8 L13.85 -8.8 Q15.15 -9.3 16.5 -9.6 L17.2 -9.7 17.05 -9.65 Q15.8 -9.2 14.55 -8.8 M21.25 -4.75 L19.75 -5.0 Q20.7 -5.25 21.65 -5.3 L21.75 -5.2 22.05 -5.1 22.1 -5.05 21.25 -4.75 M19.55 -2.2 Q19.45 -1.85 19.25 -1.7 L14.5 -2.1 18.75 -2.45 19.55 -2.2 M16.75 0.35 L15.15 0.05 18.2 0.2 16.75 0.35 M0.15 0.6 L-1.5 0.7 2.8 0.85 1.25 0.7 0.15 0.6 M-6.75 -4.7 L-6.75 -4.7 M-3.75 2.05 L-4.0 1.8 -3.65 2.3 -3.65 2.25 Q-3.6 2.2 -3.65 2.15 L-3.75 2.05 M-7.5 4.8 L-7.5 4.7 Q-7.55 4.5 -7.65 4.35 L-7.5 5.1 -7.5 4.8" fill="#ffffff" fill-rule="evenodd" stroke="none"/>
    <path d="M10.25 -11.8 L11.65 -12.5 Q12.8 -12.9 13.95 -13.2 L15.0 -13.45 Q14.65 -12.95 13.45 -12.4 L12.3 -11.9 11.8 -11.75 Q8.9 -11.0 6.75 -9.35 L5.9 -9.0 5.1 -8.6 6.25 -8.95 5.8 -8.55 Q6.35 -8.35 7.0 -8.3 L4.75 -7.5 5.1 -7.45 7.1 -8.05 7.9 -8.3 Q8.4 -8.4 8.9 -8.55 10.45 -9.0 12.05 -9.4 13.25 -9.7 14.4 -9.9 14.35 -9.7 14.0 -9.45 L13.85 -9.4 10.15 -8.8 Q8.25 -8.45 7.15 -7.45 L7.2 -7.3 Q11.15 -7.25 15.25 -7.75 L16.3 -7.9 Q14.55 -7.5 12.7 -7.15 L12.55 -7.05 13.0 -7.1 12.3 -6.85 12.05 -6.7 13.45 -7.1 Q12.55 -6.75 11.6 -6.45 L12.7 -6.55 12.1 -6.1 Q14.85 -6.0 17.7 -6.0 17.0 -5.65 16.25 -5.4 14.55 -5.15 13.0 -4.8 12.35 -4.75 11.7 -4.8 L10.4 -4.75 12.1 -4.6 10.8 -4.25 5.25 -3.6 5.45 -3.35 5.55 -3.35 7.95 -3.8 Q8.8 -3.9 9.45 -3.8 L6.6 -3.3 10.3 -3.15 11.95 -3.4 Q12.85 -3.05 13.9 -2.9 L11.4 -2.65 Q10.65 -1.65 9.05 -1.9 L7.35 -2.1 5.55 -1.8 Q5.9 -1.55 6.95 -1.5 L7.1 -1.55 Q10.65 -1.9 13.65 -1.3 L10.85 -1.1 Q11.65 0.1 13.35 0.25 12.7 0.3 12.0 0.3 L11.85 0.3 11.35 0.45 6.4 0.25 Q6.4 0.4 6.45 0.4 7.45 0.8 8.45 1.15 L8.4 1.25 9.85 1.6 10.75 1.8 Q10.85 1.9 11.0 2.0 L8.8 2.15 Q10.75 2.6 12.45 3.2 10.05 2.95 7.75 2.95 6.8 2.6 5.85 2.35 L2.85 2.5 1.75 2.6 1.85 2.65 Q2.95 2.75 3.85 3.05 L3.6 3.1 Q5.6 4.5 8.5 5.0 L8.55 5.0 Q9.1 5.45 9.6 6.05 L9.55 6.05 8.05 6.0 Q7.75 5.9 7.4 5.7 6.4 5.1 5.25 4.8 L3.65 4.35 3.45 4.3 3.6 4.55 3.8 4.8 4.25 5.25 Q4.5 5.45 4.4 5.7 2.7 5.45 0.8 4.1 L0.2 3.7 -0.35 3.65 -0.4 3.75 -0.55 4.0 -0.75 4.2 -0.8 4.2 Q1.05 5.35 3.05 6.1 L0.65 6.25 Q-0.6 5.65 -1.85 4.95 -2.9 4.3 -3.9 3.55 -4.3 3.4 -4.7 3.15 -4.9 3.05 -5.15 3.0 -4.95 3.4 -4.65 3.8 -3.55 4.75 -2.35 5.6 -0.9 6.65 0.4 7.8 0.8 8.0 1.3 8.15 L1.4 8.25 1.45 8.35 1.5 8.5 1.5 8.6 1.55 8.7 Q2.1 9.0 2.5 9.4 3.0 9.85 3.5 10.25 3.75 10.45 3.6 10.65 L3.45 10.65 Q4.35 11.45 5.3 12.1 5.55 12.35 5.7 12.7 5.8 13.0 6.05 13.2 6.5 13.5 6.7 13.95 6.7 14.05 6.7 14.2 5.0 13.9 3.35 12.1 2.25 10.95 1.05 9.85 -0.15 9.25 -1.25 8.2 -2.7 6.9 -4.0 5.55 -5.3 4.2 -6.55 3.15 L-6.65 3.15 Q-6.9 3.05 -7.2 2.95 L-6.6 4.45 Q-6.3 5.35 -6.05 6.3 L-5.9 6.9 -5.95 6.9 Q-6.15 6.95 -6.3 7.05 L-6.4 6.8 -6.4 7.15 -6.45 7.3 Q-6.6 7.3 -6.6 7.05 -6.55 6.8 -6.65 6.55 -6.75 6.35 -6.75 6.15 L-6.75 5.8 -6.85 5.65 -6.95 5.55 Q-6.85 6.1 -6.9 6.65 L-6.95 6.65 Q-6.75 6.95 -6.6 7.25 L-6.7 7.35 Q-6.9 7.55 -6.95 7.8 L-7.0 8.05 Q-7.35 8.2 -7.55 8.4 L-7.65 7.9 -7.75 6.9 -7.8 6.95 Q-7.9 6.15 -8.0 5.3 L-8.1 5.0 Q-8.2 4.45 -8.2 3.95 L-8.25 3.65 -8.3 3.65 -8.35 3.6 -8.45 3.35 Q-8.55 3.2 -8.5 3.0 -8.5 2.85 -8.55 2.65 L-8.55 2.55 -8.5 2.45 -8.45 2.4 -8.5 2.3 -8.65 1.15 -8.8 0.25 Q-8.85 -0.05 -8.65 -0.25 L-8.65 -1.45 -8.85 -1.4 -8.9 -1.65 -8.95 -1.75 -9.25 -2.15 -8.7 -2.35 -8.7 -2.45 Q-8.7 -3.05 -8.75 -3.65 -8.9 -3.3 -9.05 -3.05 -9.5 -4.35 -9.55 -5.8 L-9.55 -6.0 -9.5 -5.95 Q-9.35 -5.9 -9.25 -5.85 -9.45 -6.4 -9.55 -7.0 -9.65 -7.7 -9.1 -7.9 L-9.0 -7.95 Q-8.6 -7.55 -8.45 -6.95 L-8.35 -6.45 -8.2 -6.8 -8.2 -6.75 Q-8.0 -5.45 -8.3 -4.4 L-4.2 -7.65 Q-1.9 -9.45 0.3 -11.35 2.05 -12.85 4.1 -13.9 3.15 -12.55 1.35 -11.25 -0.35 -10.05 -1.9 -8.7 L-2.3 -8.35 -2.15 -8.35 1.45 -10.95 Q2.3 -11.6 3.2 -12.2 2.4 -11.5 1.75 -10.7 1.9 -10.45 2.1 -10.4 L1.5 -10.0 0.5 -9.25 -0.05 -8.75 Q1.0 -9.25 2.0 -9.8 2.1 -9.4 1.95 -9.05 L2.8 -9.6 Q4.5 -9.5 6.55 -10.5 8.25 -11.3 10.05 -11.95 L10.2 -11.9 10.25 -11.8 M9.9 -10.05 L17.1 -12.15 Q17.55 -11.95 17.2 -11.6 16.95 -11.35 16.6 -11.15 16.25 -11.0 16.05 -10.65 L15.75 -10.6 Q13.5 -10.6 11.35 -9.9 L8.0 -9.3 Q8.45 -9.55 8.95 -9.75 L9.9 -10.05 M2.15 -7.95 Q4.65 -9.1 7.15 -10.3 5.05 -9.55 2.95 -8.65 1.7 -8.1 0.5 -7.5 L-0.6 -6.8 0.35 -7.1 2.15 -7.95 M0.7 -9.55 Q-0.4 -8.95 -1.45 -8.25 L-1.3 -8.15 -0.7 -8.45 Q-0.1 -8.9 0.45 -9.4 L0.7 -9.55 M2.7 -3.85 L-0.3 -3.35 1.7 -3.6 2.7 -3.85 M2.55 -6.6 L3.95 -7.1 3.1 -6.9 Q2.6 -6.7 2.1 -6.5 L2.55 -6.6 M1.1 -6.15 L1.4 -6.3 1.25 -6.25 Q1.05 -6.15 1.0 -6.1 L1.1 -6.15 M2.55 -3.0 L2.65 -3.25 0.75 -3.0 0.35 -2.9 Q1.45 -2.9 2.55 -2.9 L2.55 -3.0 M2.25 -2.65 L2.0 -2.65 0.4 -2.6 1.1 -2.55 1.25 -2.55 2.0 -2.6 2.25 -2.65 M0.75 -1.5 Q0.15 -1.35 -0.45 -1.25 L-1.85 -1.15 -2.15 -1.1 -2.3 -1.05 -1.35 -0.9 -0.9 -1.05 Q-0.25 -1.25 0.45 -1.3 L1.15 -1.45 0.75 -1.5 M9.45 -6.6 L9.2 -6.55 9.4 -6.55 9.45 -6.6 M5.85 -4.3 L5.15 -4.15 6.5 -4.4 5.85 -4.3 M19.7 -9.05 L12.9 -8.45 Q14.75 -8.95 16.6 -9.3 L17.5 -9.5 Q18.7 -9.5 19.7 -9.05 M15.8 -4.0 Q18.25 -4.35 20.65 -4.55 L21.4 -4.5 21.95 -4.45 Q22.25 -4.35 22.3 -4.1 20.8 -3.8 19.25 -3.55 L14.95 -3.85 15.8 -4.0 M21.15 -4.0 L21.15 -4.0 M19.55 -3.85 L18.05 -3.9 18.05 -3.85 Q18.75 -3.85 19.5 -3.85 L19.55 -3.85 M26.55 -15.7 L25.05 -15.25 Q24.2 -14.95 23.35 -14.75 23.7 -15.15 24.2 -15.4 L26.1 -16.1 Q26.8 -16.4 27.55 -16.55 27.8 -16.05 26.55 -15.7 M17.0 9.9 L17.05 9.85 17.25 9.8 17.55 9.75 17.85 9.75 17.85 9.7 Q18.2 9.65 18.5 9.85 18.7 10.0 18.95 10.05 19.2 10.15 19.45 10.3 L19.5 10.35 Q19.6 10.65 18.8 10.55 L17.85 10.4 Q17.35 10.35 17.0 10.0 16.95 9.95 17.0 9.9 M7.55 1.05 L7.6 1.0 7.1 1.0 7.4 1.1 7.55 1.05 M4.25 2.05 L4.3 2.0 4.45 2.0 3.7 1.85 2.6 1.6 Q0.95 1.7 -0.6 1.6 L0.15 1.95 1.4 2.45 2.05 2.35 Q2.8 2.2 3.55 2.1 3.2 2.1 2.85 2.1 1.9 2.1 1.4 1.65 L1.45 1.65 Q1.95 1.8 2.5 1.85 L3.55 1.95 4.25 2.05 M4.45 0.4 L2.7 0.35 3.45 0.45 4.45 0.4 M7.6 8.1 L8.95 8.5 Q9.85 9.25 10.45 10.35 8.8 10.1 6.75 8.9 5.8 8.35 4.75 8.0 2.95 7.35 1.25 6.55 4.4 7.25 7.6 8.1 M4.7 21.25 Q4.7 21.2 4.8 21.25 L6.0 22.4 Q6.65 23.0 7.05 23.7 7.45 24.3 7.9 24.95 7.3 24.65 6.65 23.95 L5.45 22.65 Q4.95 22.05 4.7 21.25 M-9.25 -9.05 Q-8.9 -9.0 -8.9 -8.65 -8.9 -8.35 -9.1 -8.2 -9.5 -8.05 -9.65 -8.45 L-9.65 -8.75 Q-9.6 -8.9 -9.45 -8.95 L-9.25 -9.05 M-8.45 -3.45 L-8.5 -3.8 -8.6 -3.5 -8.45 -3.45 M-8.3 -2.75 L-8.3 -2.75 M-7.55 2.85 L-7.4 3.45 -7.35 3.55 -7.4 2.9 -7.55 2.85 M-6.9 5.3 L-7.15 4.45 -7.15 4.4 -7.0 5.05 -6.95 5.35 -6.95 5.3 -6.9 5.3 M-6.25 7.9 Q-6.15 7.95 -6.1 8.0 L-6.0 8.15 -5.95 8.25 Q-5.95 8.45 -6.0 8.6 -6.15 8.9 -6.4 9.15 -6.7 9.4 -7.05 9.25 -7.35 9.1 -7.35 8.8 -7.35 8.45 -7.15 8.2 -6.85 7.85 -6.5 7.85 L-6.45 7.8 Q-6.35 7.85 -6.25 7.9" fill="#ffffff" fill-opacity="0.4" fill-rule="evenodd" stroke="none"/>
  </g>
</svg>
