<?xml version="1.0" encoding="UTF-8" standalone="no"?>
<svg xmlns:ffdec="https://www.free-decompiler.com/flash" xmlns:xlink="http://www.w3.org/1999/xlink" ffdec:objectType="shape" height="31.55px" width="40.25px" xmlns="http://www.w3.org/2000/svg">
  <g transform="matrix(1.0, 0.0, 0.0, 1.0, 12.65, 17.75)">
    <path d="M6.15 -7.3 Q6.5 -7.05 5.75 -6.65 5.25 -6.4 4.65 -6.35 4.1 -6.25 3.6 -5.95 3.65 -5.55 3.45 -5.25 3.2 -4.95 2.9 -4.75 2.4 -4.45 1.85 -4.45 1.3 -4.45 0.95 -4.8 -0.15 -4.35 -1.4 -3.95 L-4.1 -3.05 -4.15 -3.0 -4.25 -2.75 -4.25 -2.6 -4.3 -2.6 Q-3.25 -2.6 -2.0 -2.4 L-1.7 -2.4 Q-0.85 -2.45 0.0 -2.6 L1.25 -2.8 2.4 -3.0 Q3.65 -3.2 4.85 -3.45 L4.85 -3.7 Q4.85 -3.9 4.95 -4.05 5.15 -4.4 5.5 -4.55 5.8 -4.65 6.0 -4.7 6.95 -4.6 7.05 -3.65 7.15 -2.7 6.2 -2.5 5.25 -2.3 4.9 -3.2 L0.45 -2.55 Q-0.65 -2.2 -1.85 -2.0 L-3.35 -1.85 -3.5 -1.85 -3.45 -1.7 -3.85 -1.3 -0.15 -1.5 Q0.9 -1.6 1.7 -1.85 L1.85 -1.8 3.0 -1.75 Q3.35 -1.75 3.6 -1.65 1.0 -0.95 -1.85 -0.75 L-4.35 -0.6 -3.35 -0.2 Q-2.6 0.05 -2.4 0.7 -3.6 1.15 -4.25 1.95 -4.45 2.0 -4.55 2.25 -4.6 2.45 -4.5 2.6 L-4.1 3.3 -4.3 3.35 -4.4 3.4 -4.45 3.45 -4.55 3.6 -4.55 3.7 Q-4.55 3.95 -4.5 4.15 L-4.2 4.85 -4.1 5.0 -4.85 4.3 -4.85 4.35 -5.15 3.95 -5.3 3.8 -5.3 3.65 Q-5.55 3.35 -5.8 3.0 L-5.85 3.05 -6.05 2.75 Q-6.55 1.9 -7.15 2.5 -7.15 2.95 -6.85 3.3 L-6.55 3.65 Q-6.55 3.8 -6.65 3.95 -6.7 4.05 -6.7 4.25 L-6.55 4.45 -6.15 4.95 -5.95 5.15 -6.0 5.25 -6.15 5.35 -6.35 5.55 -6.4 5.65 -6.4 5.8 -6.35 5.9 Q-6.2 6.05 -6.1 6.25 -6.0 6.5 -5.75 6.65 L-5.6 6.8 Q-5.55 7.5 -5.2 8.1 -5.05 9.05 -5.3 9.8 L-5.45 9.6 -5.25 9.95 Q-4.75 11.05 -4.7 12.25 -5.2 11.55 -5.65 10.05 L-6.05 8.5 -6.45 7.05 -6.75 7.05 Q-6.55 8.1 -6.3 9.15 -5.7 11.45 -5.55 13.8 -6.1 13.2 -6.3 11.8 -6.4 10.65 -6.65 9.6 -6.85 8.6 -7.35 7.65 -7.25 7.4 -7.2 7.1 L-7.25 7.1 -7.4 7.7 -7.55 7.3 Q-7.9 8.45 -7.8 9.85 L-7.95 9.75 -7.95 9.55 -8.1 9.65 Q-8.2 9.5 -8.15 9.35 -8.05 9.05 -8.25 8.8 -8.4 8.6 -8.4 8.3 L-8.35 8.05 -8.5 8.3 -8.65 9.1 Q-8.65 9.75 -8.7 10.35 L-8.8 11.65 Q-8.85 12.1 -8.95 12.5 -9.05 12.1 -9.05 11.65 -9.05 10.95 -9.0 10.25 -9.2 10.75 -9.45 11.15 -9.2 9.65 -8.85 8.15 -8.45 6.2 -8.55 4.45 L-8.4 4.3 -8.45 4.3 Q-8.6 3.95 -8.3 3.7 L-8.15 3.55 -8.1 3.1 -8.15 3.1 -8.3 2.85 Q-8.4 2.7 -8.35 2.5 -8.35 2.3 -8.2 2.1 L-8.25 2.0 Q-8.5 0.85 -8.7 -0.35 L-9.5 -0.4 Q-9.15 -0.6 -8.75 -0.75 L-8.9 -1.9 -9.3 -1.9 -8.9 -2.0 -8.95 -2.5 Q-9.0 -2.95 -8.95 -3.35 L-9.3 -3.75 Q-9.3 -4.65 -9.35 -5.5 L-9.4 -5.8 Q-9.8 -5.6 -10.05 -6.1 -10.25 -6.45 -10.4 -6.8 -10.5 -7.15 -10.7 -7.45 L-10.7 -7.65 -10.55 -7.75 Q-10.5 -7.8 -10.45 -7.85 L-10.4 -7.95 Q-10.05 -7.6 -9.75 -7.15 -9.55 -6.85 -9.45 -6.6 L-9.5 -7.25 Q-9.6 -8.2 -10.2 -8.8 -10.35 -9.55 -10.6 -10.25 -10.85 -11.05 -11.0 -11.85 -11.15 -12.6 -10.8 -13.15 L-10.75 -13.15 Q-10.15 -11.1 -9.55 -9.0 -9.55 -9.2 -9.4 -9.4 -9.55 -9.65 -9.5 -10.0 -9.5 -10.4 -9.55 -10.8 -9.65 -11.15 -9.65 -11.55 -9.65 -11.6 -9.5 -11.6 L-9.35 -10.8 Q-9.3 -10.45 -9.25 -10.0 L-9.25 -9.45 Q-9.0 -9.45 -8.85 -9.2 L-8.6 -8.65 Q-8.5 -8.45 -8.35 -8.25 L-8.4 -7.85 Q-8.1 -7.7 -7.85 -7.9 -7.65 -8.15 -7.5 -8.4 -7.4 -8.6 -7.2 -8.65 L-7.15 -8.55 Q-7.1 -8.25 -6.8 -8.25 -6.55 -8.3 -6.4 -8.45 L-6.1 -8.7 -6.1 -8.65 -6.0 -8.55 Q-5.8 -8.3 -6.15 -8.05 L-6.4 -7.8 Q-6.55 -7.6 -6.55 -7.4 L-6.55 -7.3 Q-6.4 -6.65 -5.85 -6.5 L-5.45 -6.35 -5.5 -6.35 -5.55 -6.15 Q-5.4 -6.2 -5.3 -6.3 L-4.95 -6.1 Q-4.65 -5.95 -4.5 -5.9 L-4.6 -5.8 Q-4.95 -5.35 -5.55 -5.15 -5.9 -5.1 -6.05 -4.75 -6.1 -4.6 -6.05 -4.45 L-5.65 -4.4 Q-4.8 -4.85 -4.0 -5.35 -2.75 -6.1 -1.35 -6.5 -2.3 -5.65 -3.5 -5.0 L-3.9 -4.75 Q-3.95 -4.5 -4.2 -4.4 -4.65 -4.2 -4.95 -3.8 L-5.05 -3.6 Q-4.85 -3.5 -4.65 -3.55 L-4.15 -3.6 -1.75 -4.45 0.7 -5.3 Q0.65 -5.65 0.75 -5.95 0.85 -6.25 1.1 -6.45 1.95 -7.15 2.95 -6.8 3.2 -6.75 3.4 -6.55 L4.7 -6.6 Q5.3 -6.7 5.75 -7.0 L6.1 -7.25 6.15 -7.3 M10.0 -11.85 L9.6 -11.85 Q9.4 -12.15 9.75 -12.3 L9.95 -12.35 Q10.15 -12.1 10.0 -11.85 M0.6 -5.1 L-0.2 -4.8 0.15 -4.9 0.5 -5.05 0.6 -5.1 M22.4 -13.0 Q22.05 -12.55 21.9 -13.1 21.8 -13.5 22.2 -13.6 22.7 -13.4 22.4 -13.0 M16.0 -7.15 Q16.1 -6.75 15.7 -6.7 15.3 -6.65 15.15 -7.0 L15.15 -7.1 15.2 -7.25 15.3 -7.35 15.55 -7.45 Q15.95 -7.5 16.0 -7.15 M15.6 -0.2 L15.65 -0.4 15.8 -0.65 15.95 -0.75 16.1 -0.8 16.35 -0.85 16.35 -0.9 16.5 -0.85 16.8 -0.8 16.95 -0.7 17.05 -0.6 17.15 -0.45 17.2 -0.35 17.2 -0.25 17.1 0.25 17.0 0.35 Q16.85 0.45 16.7 0.5 L16.2 0.55 Q15.75 0.5 15.55 0.15 L15.55 -0.05 15.6 -0.2 M26.95 -5.95 Q27.15 -5.85 27.35 -5.7 27.5 -5.55 27.6 -5.3 L27.6 -5.1 27.45 -4.85 27.25 -4.7 26.35 -4.7 26.2 -4.8 26.05 -5.0 26.0 -5.1 26.0 -5.35 Q25.95 -5.55 26.05 -5.7 L26.15 -5.8 26.45 -6.0 26.65 -6.05 26.95 -5.95 M-11.55 -17.2 Q-11.65 -17.45 -11.6 -17.75 L-11.5 -17.75 -11.5 -17.6 -11.2 -16.75 -10.9 -16.0 Q-10.75 -15.6 -10.95 -15.2 L-11.15 -16.0 -11.2 -16.1 Q-11.2 -15.95 -11.25 -15.85 -11.45 -16.1 -11.45 -16.5 -11.45 -16.65 -11.45 -16.85 L-11.55 -17.15 -11.55 -17.2 M-10.2 -14.15 Q-10.15 -13.85 -10.35 -14.15 -10.55 -14.4 -10.3 -14.5 L-10.2 -14.15 M-9.6 -14.5 Q-9.55 -14.05 -9.5 -13.65 -9.4 -13.25 -9.55 -12.9 L-9.6 -13.1 -9.7 -12.95 -9.85 -12.65 -10.0 -12.3 -10.1 -12.25 Q-10.15 -12.4 -10.1 -12.6 L-10.0 -12.95 Q-9.95 -13.15 -9.8 -13.25 L-9.7 -13.3 -9.75 -13.65 Q-9.8 -14.05 -9.8 -14.5 L-9.8 -15.25 Q-9.8 -15.3 -9.65 -15.3 -9.6 -14.9 -9.6 -14.5 M-12.3 -9.4 L-12.1 -8.6 -12.15 -8.55 -12.2 -8.4 Q-12.45 -8.85 -12.6 -9.35 -12.7 -9.6 -12.4 -9.55 L-12.3 -9.45 -12.3 -9.4 M-9.45 -8.6 L-8.55 -5.0 -8.5 -5.15 Q-8.35 -5.6 -8.6 -5.8 L-8.7 -5.95 Q-8.6 -6.35 -8.45 -6.75 -8.55 -7.15 -8.75 -7.5 L-9.35 -8.45 -9.45 -8.6 M-7.65 -6.15 L-7.75 -6.15 -7.8 -6.0 -7.65 -6.15 M-8.2 -3.85 L-8.05 -3.5 -7.85 -3.7 -7.9 -3.75 -8.2 -3.85 M-6.7 -5.0 L-6.7 -4.95 -6.55 -4.9 -6.7 -5.0 M-10.5 -6.05 Q-10.4 -6.25 -10.4 -6.45 L-10.2 -6.15 Q-10.15 -6.1 -10.15 -5.95 L-10.5 -6.0 -10.5 -6.05 M-7.25 -0.25 L-7.25 0.0 -6.65 -0.05 Q-6.65 -0.1 -7.25 -0.25 M-3.75 1.15 Q-4.65 0.75 -5.05 0.95 L-3.5 1.25 -3.75 1.15 M-6.85 5.65 L-6.95 5.9 -6.95 5.95 -6.85 6.35 Q-6.7 6.45 -6.7 6.25 L-6.85 5.75 -6.85 5.65 M-6.35 6.95 L-6.15 7.65 Q-5.95 8.4 -5.65 9.1 L-5.75 8.75 Q-5.8 8.2 -6.0 7.75 -6.2 7.3 -6.15 6.8 L-6.35 6.95 M-10.7 9.6 L-10.85 10.4 Q-11.0 10.4 -11.05 10.3 -11.15 10.05 -11.0 9.85 -10.9 9.7 -10.7 9.6" fill="#ffffff" fill-rule="evenodd" stroke="none"/>
    <path d="M18.95 -14.25 L19.3 -14.2 Q19.45 -14.15 19.6 -14.05 L19.65 -14.0 18.1 -13.25 16.75 -12.9 Q14.4 -12.3 12.0 -11.8 13.3 -12.25 14.55 -12.8 L17.3 -13.85 Q17.6 -14.0 17.9 -14.15 L18.65 -14.3 18.95 -14.25 M9.3 -13.3 L9.55 -13.4 7.6 -12.0 Q3.85 -10.75 1.2 -8.6 1.65 -8.25 2.2 -8.55 L3.65 -9.3 4.15 -9.55 3.3 -8.95 4.75 -9.55 Q4.7 -9.45 4.7 -9.3 5.3 -8.75 6.2 -9.2 7.9 -10.05 9.75 -10.5 L10.2 -10.6 Q9.3 -10.35 8.85 -9.65 11.6 -9.2 14.25 -9.7 13.85 -9.5 13.4 -9.4 12.7 -9.25 12.0 -9.25 11.1 -9.2 10.7 -8.8 L9.2 -8.5 Q9.15 -8.25 9.0 -8.0 9.75 -8.15 10.45 -8.4 L10.4 -8.35 Q10.55 -8.15 10.75 -8.15 L11.65 -8.0 Q10.65 -7.7 9.75 -7.35 L11.45 -7.35 Q10.9 -7.2 10.85 -6.7 L19.95 -6.3 19.75 -6.3 Q18.2 -6.35 16.75 -6.25 L17.15 -6.3 Q14.95 -6.2 12.75 -6.25 L12.3 -5.9 13.75 -5.85 13.9 -5.8 14.5 -5.9 Q13.05 -5.6 11.8 -5.1 11.8 -4.85 12.0 -4.75 12.4 -4.6 12.75 -4.45 L12.35 -4.4 10.8 -4.35 Q10.4 -4.35 10.4 -4.0 10.45 -3.7 10.75 -3.65 L12.5 -3.25 11.5 -3.15 11.55 -3.05 11.55 -3.0 Q12.75 -3.0 13.95 -3.0 L14.7 -2.95 13.55 -2.85 Q11.3 -2.7 9.45 -2.2 9.45 -1.95 9.65 -1.95 L12.2 -1.55 11.1 -1.3 Q10.05 -1.0 9.0 -1.0 L8.7 -0.95 8.7 -0.75 8.65 -0.6 10.55 -0.5 Q8.65 -0.2 6.85 0.45 10.25 1.15 13.65 1.2 10.6 1.35 7.9 2.0 4.8 2.05 1.65 1.8 0.5 1.75 -0.65 1.8 L-1.2 1.85 Q0.85 2.4 3.05 2.55 L7.1 2.9 Q9.3 3.15 11.4 3.55 L10.05 3.75 Q8.05 3.8 6.0 3.45 L1.65 2.75 Q0.4 2.6 -0.85 2.2 -1.5 2.05 -1.4 1.85 L-1.9 1.85 Q-1.35 2.2 -0.95 3.15 -0.35 4.5 0.55 5.7 1.25 6.65 1.7 7.7 L-0.45 4.85 -0.6 4.9 -0.75 4.55 Q-1.05 3.65 -1.65 3.25 L-1.5 3.55 Q-1.1 4.25 -0.6 4.9 -0.75 4.95 -0.7 5.2 L-0.6 5.45 Q-1.45 4.9 -2.05 4.05 L-2.0 4.25 -2.0 4.45 -2.05 4.6 -1.65 5.1 Q-0.35 6.7 -0.25 8.55 L-2.6 5.55 -2.65 5.6 -2.7 5.7 -2.5 6.2 -2.1 6.75 -2.45 6.8 Q-2.65 7.35 -2.4 8.0 L-2.1 8.65 -2.15 8.65 -1.6 9.9 -1.6 10.0 -1.65 10.15 -1.65 10.25 -1.75 10.35 Q-1.65 10.75 -1.4 11.1 -1.1 11.45 -0.95 11.85 -0.8 12.2 -0.55 12.4 -0.6 12.15 -0.75 11.9 -0.95 11.65 -1.0 11.3 L-1.1 10.8 -0.55 12.1 -0.15 12.95 -0.1 13.15 Q-0.55 12.95 -0.9 12.2 -1.2 11.6 -1.65 11.1 -1.95 10.75 -2.4 10.65 L-2.8 9.5 -2.95 9.05 Q-3.6 8.95 -3.85 8.1 -4.05 7.25 -4.45 6.4 L-5.15 4.95 -5.15 4.9 -5.25 4.95 -5.4 4.95 -5.65 4.9 -5.7 4.8 -6.0 4.3 -6.2 4.1 Q-6.25 3.1 -6.45 2.2 -6.55 1.6 -6.75 1.05 L-7.0 0.9 -7.0 1.25 -6.9 2.7 Q-6.7 3.5 -6.6 4.35 L-6.3 7.2 Q-6.15 8.65 -6.6 9.75 L-6.6 9.8 -6.55 10.1 Q-6.5 10.35 -6.6 10.6 L-6.6 12.35 -6.75 12.55 -6.9 12.8 -6.95 13.0 -7.1 13.1 Q-7.45 12.0 -7.4 10.6 -7.35 9.15 -7.4 7.7 L-7.4 7.45 Q-7.55 7.0 -7.65 6.55 -8.05 5.25 -7.7 4.25 -7.8 4.1 -7.85 3.9 L-7.9 3.45 -7.95 3.2 -7.8 3.35 Q-7.75 3.5 -7.7 3.65 L-7.65 4.0 -7.55 4.2 Q-7.55 2.95 -7.85 1.6 -8.15 0.1 -8.5 -1.3 -8.65 -1.85 -8.7 -2.3 -9.0 -2.45 -9.25 -2.95 -9.7 -3.8 -9.05 -4.4 -9.5 -5.45 -9.55 -6.75 -9.55 -7.45 -9.7 -8.15 -9.85 -8.5 -10.05 -8.85 -10.5 -9.7 -10.45 -10.5 -10.6 -11.15 -10.6 -11.75 L-10.3 -11.2 -10.3 -11.3 -10.25 -11.1 -10.2 -10.95 -10.3 -11.3 Q-10.7 -12.75 -10.9 -13.9 -9.7 -12.5 -9.35 -10.6 -9.0 -8.75 -8.5 -6.95 -8.4 -6.4 -8.3 -5.9 -8.05 -5.45 -7.9 -5.0 -7.8 -5.55 -7.5 -6.05 -6.85 -7.3 -6.55 -8.7 -6.3 -10.15 -5.45 -11.15 L-5.45 -10.6 -5.1 -11.4 -5.0 -11.15 Q-5.35 -10.45 -5.6 -9.65 -5.5 -9.6 -5.45 -9.55 L-5.45 -9.25 Q-5.25 -9.35 -5.0 -9.45 L-4.95 -9.5 -4.65 -9.7 -4.6 -9.35 Q-4.85 -9.0 -4.8 -8.6 L-4.5 -8.6 -4.45 -8.65 Q-3.75 -8.1 -4.3 -7.25 L-4.9 -6.25 Q-3.35 -7.05 -1.5 -7.5 L-1.2 -7.6 -0.7 -7.85 Q0.15 -8.35 1.05 -8.65 3.1 -10.2 5.2 -11.65 L9.3 -13.3 M11.1 -10.75 L10.5 -10.65 13.4 -11.3 12.6 -11.0 12.85 -11.0 12.65 -10.95 Q11.85 -10.8 11.1 -10.75 M11.55 -14.95 Q10.5 -14.55 9.45 -14.2 10.5 -14.65 11.6 -15.0 L11.55 -14.95 M7.5 -8.1 L7.9 -8.2 7.5 -8.15 7.5 -8.1 M17.55 -11.75 L18.5 -12.05 20.4 -12.0 16.25 -11.35 17.55 -11.75 M21.9 -7.1 L17.55 -7.35 16.7 -7.4 20.45 -7.55 Q21.4 -7.6 21.9 -7.1 M14.55 -8.8 L13.85 -8.8 Q15.15 -9.3 16.5 -9.6 L17.2 -9.7 17.05 -9.65 Q15.8 -9.2 14.55 -8.8 M21.75 -5.2 L22.05 -5.1 22.1 -5.05 21.25 -4.75 19.75 -5.0 Q20.7 -5.25 21.65 -5.3 L21.75 -5.2 M19.25 -1.7 L14.5 -2.1 18.75 -2.45 19.55 -2.2 Q19.45 -1.85 19.25 -1.7 M16.75 0.35 L15.15 0.05 18.2 0.2 16.75 0.35 M0.15 0.6 L-1.5 0.7 2.8 0.85 1.25 0.7 0.15 0.6 M-6.75 -4.7 L-6.75 -4.7 M-3.75 2.05 L-4.0 1.8 -3.65 2.3 -3.65 2.25 Q-3.6 2.2 -3.65 2.15 L-3.75 2.05 M-7.5 4.8 L-7.5 4.7 Q-7.55 4.5 -7.65 4.35 L-7.5 5.1 -7.5 4.8" fill="#ffffff" fill-opacity="0.4" fill-rule="evenodd" stroke="none"/>
  </g>
</svg>
