<?xml version="1.0" encoding="UTF-8" standalone="no"?>
<svg xmlns:ffdec="https://www.free-decompiler.com/flash" xmlns:xlink="http://www.w3.org/1999/xlink" ffdec:objectType="shape" height="34.6px" width="45.0px" xmlns="http://www.w3.org/2000/svg">
  <g transform="matrix(1.0, 0.0, 0.0, 1.0, 15.5, 18.7)">
    <path d="M15.65 -16.9 Q15.4 -16.7 15.35 -17.05 15.3 -17.35 15.65 -17.3 15.9 -17.1 15.65 -16.9 M2.85 -5.5 Q2.95 -5.25 2.7 -5.05 2.35 -4.85 2.05 -5.05 L1.9 -5.1 1.85 -5.25 Q1.85 -5.35 1.85 -5.45 1.9 -5.65 2.05 -5.75 L2.3 -5.85 Q2.7 -5.85 2.85 -5.5 M6.7 -3.75 Q6.35 -3.4 6.4 -3.8 6.4 -4.1 6.6 -4.15 7.0 -4.05 6.7 -3.75 M21.5 -9.4 Q21.5 -9.05 21.1 -9.0 20.8 -9.0 20.7 -9.3 L20.7 -9.4 Q20.7 -9.5 20.8 -9.6 L21.1 -9.8 Q21.5 -9.75 21.5 -9.4 M28.6 -18.45 Q28.45 -18.35 28.4 -18.5 28.25 -18.65 28.5 -18.7 L28.6 -18.7 Q28.8 -18.55 28.6 -18.45 M29.45 -5.1 Q29.3 -4.85 29.1 -5.05 28.9 -5.25 29.15 -5.45 L29.25 -5.5 Q29.6 -5.4 29.45 -5.1 M22.0 0.9 Q21.75 1.35 21.5 0.9 21.25 0.45 21.7 0.4 22.2 0.5 22.0 0.9 M3.0 1.35 L2.95 1.45 2.6 1.55 2.2 1.45 Q2.0 1.35 1.95 1.15 L1.95 1.05 2.0 0.95 2.05 0.8 2.3 0.65 2.45 0.6 2.85 0.7 Q3.05 0.75 3.1 1.0 3.1 1.2 3.0 1.35 M-14.75 -16.6 Q-14.75 -16.35 -14.95 -16.25 -15.25 -16.15 -15.4 -16.35 L-15.5 -16.5 -15.5 -16.6 -15.45 -16.7 Q-15.4 -16.85 -15.3 -16.9 -15.2 -17.0 -15.1 -17.0 -14.75 -16.95 -14.75 -16.6 M-12.4 -12.15 Q-12.0 -11.3 -11.75 -10.4 -11.55 -9.5 -11.1 -8.7 L-10.2 -7.3 Q-10.4 -7.35 -10.55 -7.4 L-10.45 -7.25 Q-10.4 -7.15 -10.4 -7.05 -10.55 -6.95 -10.9 -7.7 L-10.9 -7.75 Q-11.3 -8.1 -11.65 -8.8 L-11.9 -9.35 -12.2 -9.8 -12.05 -9.8 -12.4 -10.7 Q-12.65 -11.65 -12.4 -12.15 M-15.1 -13.35 Q-14.8 -13.25 -14.75 -12.95 -14.65 -12.7 -14.85 -12.65 -15.1 -12.55 -15.3 -12.8 L-15.5 -13.0 -15.5 -13.1 -15.45 -13.2 -15.35 -13.3 -15.25 -13.3 -15.1 -13.35 M-9.55 -8.25 Q-9.2 -8.25 -9.1 -7.9 -9.0 -7.55 -9.4 -7.5 L-9.6 -7.45 Q-9.55 -7.2 -9.55 -6.9 L-9.8 -7.55 -9.95 -7.8 -9.95 -7.9 -10.55 -9.45 Q-11.05 -10.7 -11.55 -12.0 -12.0 -13.3 -12.0 -14.25 -11.25 -13.05 -10.9 -11.7 -10.55 -10.4 -10.05 -9.2 -9.85 -8.7 -9.7 -8.15 L-9.55 -8.2 -9.55 -8.25 M-6.1 -7.1 Q-6.3 -6.95 -6.55 -6.75 L-6.1 -7.3 Q-6.05 -7.25 -6.1 -7.1 M-8.0 -6.7 Q-7.75 -6.75 -7.7 -7.0 -7.65 -7.3 -7.4 -7.15 L-7.85 -6.6 Q-7.15 -6.15 -7.7 -5.15 -8.05 -4.55 -8.4 -4.5 -8.2 -4.35 -7.9 -4.45 L-6.7 -4.9 -6.65 -4.9 -6.6 -4.85 Q-6.55 -4.8 -6.55 -4.7 -6.5 -4.7 -6.55 -4.65 L-6.6 -4.6 -6.95 -4.4 -7.05 -4.25 -7.15 -4.15 -7.1 -4.25 Q-7.05 -4.35 -7.05 -4.45 -7.15 -4.3 -7.25 -4.2 L-7.4 -3.9 -8.2 -3.05 -8.15 -3.05 Q-8.6 -2.6 -8.95 -2.1 L-9.05 -3.05 -9.1 -3.85 -8.65 -4.35 Q-8.8 -4.3 -8.95 -4.3 -9.25 -4.3 -9.3 -4.6 L-9.3 -4.7 -9.1 -4.9 -9.15 -5.0 -9.25 -5.25 Q-9.55 -5.85 -9.4 -6.25 -9.45 -6.55 -9.4 -6.8 L-9.35 -6.8 -9.25 -6.5 Q-9.0 -6.75 -8.5 -6.85 L-8.0 -6.7 M-8.25 -4.35 L-8.35 -4.3 -8.3 -4.2 -8.25 -4.25 -8.25 -4.35 M-4.65 -0.1 L-4.95 0.0 -5.1 0.0 -4.65 -0.1 M-8.85 -1.7 L-8.75 -1.65 -8.4 -1.65 -7.5 -2.0 Q-7.65 -2.05 -7.8 -2.2 L-7.85 -2.45 Q-7.85 -2.6 -7.8 -2.75 -7.75 -2.9 -7.6 -3.0 L-7.4 -3.05 Q-7.05 -3.0 -6.95 -2.6 -6.9 -2.4 -7.0 -2.3 -6.7 -2.3 -6.35 -2.5 -5.8 -2.8 -6.55 -2.3 L-6.4 -2.25 Q-6.15 -2.1 -5.85 -2.0 L-5.65 -1.9 -6.45 -1.4 -7.1 -1.3 -7.05 -1.05 -8.1 -0.55 Q-7.8 -0.05 -7.2 -0.25 -6.4 -0.5 -5.65 -0.85 -5.6 -0.45 -6.45 -0.3 -7.0 -0.2 -7.15 0.25 L-7.15 0.4 -7.0 0.6 Q-6.9 0.8 -7.1 1.0 -7.15 1.1 -7.15 1.2 L-7.1 1.2 Q-7.7 1.45 -8.1 1.95 -7.35 2.5 -6.2 2.05 L-5.7 1.9 Q-6.4 2.15 -7.0 2.55 L-5.8 2.65 Q-6.55 2.95 -7.15 3.4 -6.65 4.0 -5.7 4.1 -6.55 4.3 -7.3 4.6 L-7.3 4.85 -7.4 4.75 -7.5 4.7 -7.65 4.55 -7.7 5.65 Q-7.85 7.4 -8.3 9.0 -8.6 7.15 -8.2 5.2 L-8.1 4.7 Q-8.3 4.8 -8.3 5.0 -8.3 5.1 -8.4 5.15 L-8.45 4.95 -8.45 4.7 -8.4 4.45 -8.4 4.25 -8.3 4.15 -8.1 4.05 Q-8.25 2.75 -8.25 1.35 -8.4 1.15 -8.55 0.95 -8.65 0.75 -8.65 0.5 -8.55 0.35 -8.45 0.25 -8.7 -0.7 -8.85 -1.7 M-7.15 -4.1 L-7.2 -4.05 -7.15 -4.15 -7.15 -4.1 M-1.5 -0.7 Q-1.7 -0.35 -1.9 -0.75 -2.05 -1.15 -1.7 -1.2 -1.3 -1.05 -1.5 -0.7 M-4.0 4.75 L-3.65 4.7 Q-3.3 5.25 -3.3 5.85 -3.95 5.65 -4.35 4.9 L-4.15 4.8 -4.0 4.75 M-5.2 4.7 Q-5.0 4.5 -4.8 4.5 L-4.8 4.45 Q-4.4 4.55 -4.6 4.85 L-4.85 5.35 Q-5.0 5.6 -5.3 5.45 -5.4 5.3 -5.4 5.1 L-5.4 5.0 -5.55 5.0 -5.35 4.95 Q-5.35 4.8 -5.2 4.7 M-5.35 6.85 Q-5.6 6.8 -5.8 6.65 L-5.7 7.35 Q-5.6 7.8 -5.6 8.15 L-5.65 8.3 Q-6.05 8.2 -6.1 7.6 -6.1 7.0 -6.4 6.55 -6.8 6.05 -6.4 5.9 L-5.45 6.5 -5.35 6.85 M-5.3 5.65 L-6.35 5.1 -6.0 5.05 -5.85 5.1 Q-5.6 5.25 -5.4 5.5 L-5.3 5.6 -5.3 5.65 M-7.05 1.4 Q-7.1 1.15 -6.95 0.9 -6.85 0.7 -6.6 0.6 L-6.45 0.55 Q-6.1 0.6 -6.1 0.9 -6.05 1.2 -6.2 1.45 -6.3 1.8 -6.65 1.75 L-6.9 1.75 Q-7.05 1.6 -7.05 1.4 M-5.95 8.95 Q-5.75 9.4 -5.85 9.85 -6.45 9.8 -6.55 9.0 -6.6 8.45 -6.8 7.95 -7.0 7.4 -6.6 7.2 L-6.55 7.2 Q-6.3 7.55 -6.2 8.0 -6.1 8.5 -5.95 8.95 M-10.0 9.55 Q-9.6 10.3 -10.3 11.3 -10.9 12.1 -11.35 12.95 -11.9 13.85 -12.4 14.5 -12.05 13.65 -11.8 12.8 -11.5 11.9 -11.1 11.0 -10.7 10.1 -10.05 9.6 L-10.0 9.55 M-7.05 13.6 Q-6.95 13.65 -6.85 13.75 L-6.95 13.85 -7.55 14.05 -7.6 14.15 -7.6 14.95 Q-7.6 15.25 -7.5 15.5 -7.4 15.85 -7.65 15.9 -7.75 15.75 -7.75 15.55 -7.8 15.35 -7.8 15.1 -7.8 14.65 -7.9 14.2 -8.0 13.65 -7.55 13.5 -7.3 13.5 -7.05 13.6" fill="#d7d7d7" fill-opacity="0.4" fill-rule="evenodd" stroke="none"/>
  </g>
</svg>
