<?xml version="1.0" encoding="UTF-8" standalone="no"?>
<svg xmlns:ffdec="https://www.free-decompiler.com/flash" xmlns:xlink="http://www.w3.org/1999/xlink" ffdec:objectType="shape" height="29.15px" width="21.9px" xmlns="http://www.w3.org/2000/svg">
  <g transform="matrix(1.0, 0.0, 0.0, 1.0, 11.65, 10.75)">
    <path d="M6.8 -7.6 L6.8 -7.9 6.75 -7.9 6.75 -7.7 6.4 -8.05 Q5.75 -8.65 5.25 -8.7 3.45 -9.6 0.85 -9.6 -0.4 -9.6 -1.5 -9.4 L-2.3 -9.0 Q-2.95 -8.65 -3.55 -8.3 L-3.5 -8.2 Q-3.5 -8.1 -3.5 -7.85 -3.5 -7.45 -3.25 -6.8 -2.95 -6.15 -2.95 -5.6 -2.95 -5.15 -2.85 -4.3 L-2.75 -3.3 Q-2.6 -0.6 -2.6 -0.3 L-2.5 0.4 -2.4 1.2 Q-1.85 1.1 -1.3 1.2 L-1.05 1.25 Q-0.05 1.3 1.1 2.2 L1.6 2.55 Q1.8 2.7 1.95 2.8 L2.05 2.6 2.25 2.1 Q2.5 1.25 2.75 1.05 L2.9 1.2 Q2.95 1.25 2.95 1.45 2.95 2.1 2.7 2.85 L3.05 2.7 3.45 2.65 3.7 2.1 Q4.05 1.25 4.5 0.9 4.85 0.6 5.6 -0.45 5.9 -0.75 6.15 -0.9 6.4 -1.7 6.5 -2.65 6.65 -3.7 6.65 -4.45 6.6 -5.25 6.8 -6.25 6.8 -6.4 6.7 -7.1 6.65 -7.45 6.8 -7.6 M7.75 -8.35 Q8.4 -7.85 8.9 -6.6 9.35 -5.45 9.35 -4.65 L9.25 -3.8 Q9.1 -3.1 9.1 -2.95 9.1 -2.75 9.25 -1.95 L9.5 -1.3 9.95 -0.2 Q10.25 0.55 10.25 0.7 10.25 2.05 8.95 3.75 8.25 4.7 7.4 5.25 L7.55 5.9 Q7.55 6.65 7.35 7.75 L7.3 8.2 Q7.3 8.35 7.1 8.95 L7.05 9.25 7.0 9.5 7.0 9.55 Q7.0 9.95 6.45 11.5 L6.1 12.35 5.95 12.7 Q5.5 13.85 5.3 14.25 5.15 14.55 4.8 15.0 L4.35 15.6 4.35 15.55 Q3.6 16.35 3.15 16.6 L1.7 17.45 Q0.4 18.15 0.15 18.15 L-0.2 18.1 Q-1.0 18.4 -1.55 18.4 -2.4 18.4 -3.9 17.95 -5.7 17.35 -6.1 16.5 L-6.7 16.05 Q-7.05 15.7 -7.35 15.2 L-7.4 15.05 -7.55 14.9 -7.5 14.85 -7.55 14.75 -7.55 14.7 Q-7.55 14.0 -7.25 12.85 -6.95 11.65 -6.95 10.95 L-6.95 10.85 -7.05 10.1 Q-7.2 9.45 -7.6 8.85 L-8.05 8.2 Q-8.65 7.5 -9.0 7.15 -9.3 6.95 -9.55 6.7 -10.0 6.65 -10.65 5.4 -11.25 4.25 -11.25 4.05 -11.25 3.9 -11.4 3.6 -11.55 3.3 -11.55 3.15 -11.55 2.95 -11.45 2.7 L-11.45 2.1 Q-11.45 0.1 -10.45 -2.0 -10.05 -2.85 -9.5 -3.65 -9.0 -4.55 -8.4 -5.4 -7.15 -7.1 -5.7 -8.1 -4.9 -8.6 -4.15 -8.85 -3.55 -9.25 -2.95 -9.6 L-2.7 -9.6 Q-2.35 -9.85 -1.8 -10.05 0.05 -10.75 2.75 -10.75 4.25 -10.75 6.1 -9.6 7.05 -9.0 7.75 -8.35 M6.4 8.4 L6.4 8.25 Q6.45 8.05 6.4 7.55 6.35 6.75 6.35 5.95 L6.4 5.8 6.35 5.8 Q5.9 6.0 5.45 6.1 L5.2 6.05 Q5.15 6.05 5.15 5.95 L4.65 6.05 4.4 6.0 4.1 6.55 3.95 6.85 Q4.1 6.5 4.3 6.1 L4.4 5.9 4.1 6.0 3.75 5.65 3.8 5.3 4.4 5.3 4.8 5.25 5.35 4.15 4.8 5.2 5.35 5.05 5.85 4.85 6.55 4.5 Q7.0 4.05 7.65 3.3 8.1 2.75 8.6 1.9 L8.9 1.5 9.0 1.15 9.1 0.75 8.9 0.4 Q8.6 0.0 8.6 -0.05 L8.25 -0.55 Q7.9 -1.0 7.85 -1.1 L7.85 -1.5 7.9 -1.45 8.0 -1.4 Q8.05 -1.4 8.05 -1.6 8.05 -1.95 8.25 -2.35 8.5 -2.8 8.5 -3.45 8.5 -4.8 7.9 -5.95 L7.9 -5.85 7.7 -6.3 Q7.85 -5.35 7.85 -4.8 7.85 -4.55 7.55 -2.75 L7.15 -0.8 Q7.2 -0.75 7.2 -0.55 L7.05 -0.35 7.0 -0.25 Q6.95 -0.2 6.85 -0.15 L6.45 0.2 Q5.45 1.1 4.8 2.05 L4.45 2.65 Q4.15 3.1 3.95 3.3 3.8 3.45 3.25 3.55 L2.35 3.7 Q2.2 4.25 1.25 5.45 0.45 6.5 -0.2 6.85 L-0.35 7.1 Q-2.1 8.2 -3.85 8.2 L-5.85 7.9 Q-5.85 7.85 -6.4 7.3 -6.9 6.75 -6.9 6.55 L-6.85 6.35 -6.85 6.0 -6.95 5.85 -6.85 5.8 -6.85 5.7 -6.8 5.65 -6.9 5.5 -6.45 5.15 Q-6.2 5.15 -6.0 5.65 -5.75 6.2 -5.35 6.35 -5.0 6.55 -3.6 6.9 -2.4 6.75 -1.15 6.15 L-0.35 5.6 0.8 4.7 1.35 4.1 1.55 3.75 Q1.4 3.55 1.25 3.45 L0.4 2.85 -1.8 2.55 -3.25 2.3 Q-3.35 2.5 -3.5 2.6 L-3.6 2.25 -3.7 2.25 -3.6 2.2 Q-3.7 1.8 -3.7 1.2 L-3.65 -0.05 Q-3.65 -0.55 -3.95 -1.95 -4.0 -2.3 -3.9 -3.0 L-3.8 -3.85 Q-3.8 -4.15 -4.0 -7.0 L-4.2 -7.55 -4.3 -7.85 -4.8 -7.55 -4.8 -7.4 -4.9 -7.3 Q-5.75 -6.75 -6.4 -6.05 -7.0 -5.4 -7.65 -4.45 L-8.6 -2.95 Q-9.5 -1.7 -9.9 -0.15 -10.15 0.8 -10.25 1.75 -10.0 2.45 -9.5 3.4 L-8.05 5.9 Q-7.3 7.25 -6.4 8.55 -5.85 9.45 -5.85 10.9 L-6.0 12.5 -6.05 13.25 -5.85 13.05 Q-6.0 13.6 -6.0 13.85 -6.0 14.15 -5.75 14.6 L-5.4 15.55 Q-5.3 15.75 -4.95 16.05 -3.9 16.75 -3.25 16.9 L-2.95 16.7 -3.1 16.85 -2.7 16.9 -1.45 16.9 -1.2 16.85 Q-0.1 16.8 0.45 16.6 0.75 16.5 1.25 16.25 L1.4 16.2 1.45 16.1 Q2.2 15.7 2.6 15.5 3.25 14.9 3.7 14.35 4.2 13.7 4.8 12.55 L5.25 11.65 5.7 11.05 5.7 10.8 5.6 10.9 5.65 10.85 5.9 9.9 6.4 8.4 M0.85 11.9 L0.85 11.9 M2.8 6.65 Q2.8 6.75 2.8 6.95 2.8 7.6 2.3 8.45 1.85 9.1 1.2 9.8 1.5 9.0 1.95 8.05 2.45 7.0 2.7 6.55 L2.8 6.65 M-0.25 -9.75 Q0.0 -9.8 0.3 -9.9 L-0.25 -9.85 -0.45 -9.8 -0.25 -9.75 M-8.55 -3.9 L-7.95 -4.8 -8.35 -4.25 -8.45 -4.05 -8.55 -3.9 M-11.45 -1.1 L-11.4 -1.2 -11.45 -1.0 -11.65 -0.35 -11.5 -0.95 -11.45 -1.1 M-3.1 1.85 L-3.05 1.85 -3.05 1.8 -3.1 1.85" fill="#1a1a1a" fill-rule="evenodd" stroke="none"/>
    <path d="M-1.45 16.9 L-2.7 16.9 -3.1 16.85 -2.95 16.7 -3.25 16.9 Q-3.9 16.75 -4.95 16.05 -5.3 15.75 -5.4 15.55 L-5.75 14.6 Q-6.0 14.15 -6.0 13.85 -6.0 13.6 -5.85 13.05 L-6.05 13.25 -6.0 12.5 -5.85 10.9 Q-5.85 9.45 -6.4 8.55 -7.3 7.25 -8.05 5.9 L-9.5 3.4 Q-10.0 2.45 -10.25 1.75 -10.15 0.8 -9.9 -0.15 -9.5 -1.7 -8.6 -2.95 L-7.65 -4.45 Q-7.0 -5.4 -6.4 -6.05 -5.75 -6.75 -4.9 -7.3 L-4.8 -7.4 -4.8 -7.55 -4.3 -7.85 -4.2 -7.55 -4.0 -7.0 Q-3.8 -4.15 -3.8 -3.85 L-3.9 -3.0 Q-4.0 -2.3 -3.95 -1.95 -3.65 -0.55 -3.65 -0.05 L-3.7 1.2 Q-3.7 1.8 -3.6 2.2 L-3.7 2.25 -3.6 2.25 -3.5 2.6 Q-3.35 2.5 -3.25 2.3 L-1.8 2.55 0.4 2.85 1.25 3.45 Q1.4 3.55 1.55 3.75 L1.35 4.1 0.8 4.7 -0.35 5.6 -1.15 6.15 Q-2.4 6.75 -3.6 6.9 -5.0 6.55 -5.35 6.35 -5.75 6.2 -6.0 5.65 -6.2 5.15 -6.45 5.15 L-6.9 5.5 -6.8 5.65 -6.85 5.7 -6.85 5.8 -6.95 5.85 -6.85 6.0 -6.85 6.35 -6.9 6.55 Q-6.9 6.75 -6.4 7.3 -5.85 7.85 -5.85 7.9 L-3.85 8.2 Q-2.1 8.2 -0.35 7.1 L-0.2 6.85 Q0.45 6.5 1.25 5.45 2.2 4.25 2.35 3.7 L3.25 3.55 Q3.8 3.45 3.95 3.3 4.15 3.1 4.45 2.65 L4.8 2.05 Q5.45 1.1 6.45 0.2 L6.85 -0.15 Q6.95 -0.2 7.0 -0.25 L7.05 -0.35 7.2 -0.55 Q7.2 -0.75 7.15 -0.8 L7.55 -2.75 Q7.85 -4.55 7.85 -4.8 7.85 -5.35 7.7 -6.3 L7.9 -5.85 7.9 -5.95 Q8.5 -4.8 8.5 -3.45 8.5 -2.8 8.25 -2.35 8.05 -1.95 8.05 -1.6 8.05 -1.4 8.0 -1.4 L7.9 -1.45 7.85 -1.5 7.85 -1.1 Q7.9 -1.0 8.25 -0.55 L8.6 -0.05 Q8.6 0.0 8.9 0.4 L9.1 0.75 9.0 1.15 8.9 1.5 8.6 1.9 Q8.1 2.75 7.65 3.3 7.0 4.05 6.55 4.5 L5.85 4.85 5.35 5.05 4.8 5.2 5.35 4.15 4.8 5.25 4.4 5.3 3.8 5.3 3.75 5.65 4.1 6.0 4.4 5.9 4.3 6.1 Q4.1 6.5 3.95 6.85 L4.1 6.55 4.4 6.0 4.65 6.05 5.15 5.95 Q5.15 6.05 5.2 6.05 L5.45 6.1 Q5.9 6.0 6.35 5.8 L6.4 5.8 6.35 5.95 Q6.35 6.75 6.4 7.55 6.45 8.05 6.4 8.25 L6.4 8.4 6.25 8.5 Q6.0 8.7 5.5 9.25 L4.5 9.85 Q3.95 10.2 3.8 10.55 4.85 10.55 5.9 9.9 L5.65 10.85 5.6 10.9 Q4.55 12.15 2.95 12.25 1.85 12.35 0.85 11.9 L0.65 11.8 4.8 9.25 4.3 9.1 Q2.45 9.8 0.55 10.15 -2.55 10.7 -5.6 10.75 L-5.55 10.85 3.0 13.15 Q2.15 13.55 1.25 13.4 -1.9 12.9 -5.05 12.45 L-5.0 12.8 Q-2.5 14.45 0.35 15.4 L1.1 15.7 Q0.15 16.05 -0.85 16.0 -2.15 16.0 -3.3 15.45 L-1.45 16.9 M1.25 16.25 Q0.75 16.5 0.45 16.6 -0.1 16.8 -1.2 16.85 -0.2 16.7 0.85 16.35 L1.25 16.25 M0.85 11.9 L0.85 11.9 M2.8 6.65 L2.7 6.55 Q2.45 7.0 1.95 8.05 1.5 9.0 1.2 9.8 1.85 9.1 2.3 8.45 2.8 7.6 2.8 6.95 2.8 6.75 2.8 6.65 M-3.1 1.85 L-3.05 1.8 -3.05 1.85 -3.1 1.85" fill="#304040" fill-rule="evenodd" stroke="none"/>
    <path d="M6.4 8.4 L5.9 9.9 Q4.85 10.55 3.8 10.55 3.95 10.2 4.5 9.85 L5.5 9.25 Q6.0 8.7 6.25 8.5 L6.4 8.4 M5.6 10.9 L5.7 10.8 5.7 11.05 5.25 11.65 4.8 12.55 Q4.2 13.7 3.7 14.35 3.25 14.9 2.6 15.5 2.2 15.7 1.45 16.1 L1.4 16.2 1.25 16.25 0.85 16.35 Q-0.2 16.7 -1.2 16.85 L-1.45 16.9 -3.3 15.45 Q-2.15 16.0 -0.85 16.0 0.15 16.05 1.1 15.7 L0.35 15.4 Q-2.5 14.45 -5.0 12.8 L-5.05 12.45 Q-1.9 12.9 1.25 13.4 2.15 13.55 3.0 13.15 L-5.55 10.85 -5.6 10.75 Q-2.55 10.7 0.55 10.15 2.45 9.8 4.3 9.1 L4.8 9.25 0.65 11.8 0.85 11.9 Q1.85 12.35 2.95 12.25 4.55 12.15 5.6 10.9" fill="#506060" fill-rule="evenodd" stroke="none"/>
    <path d="M4.0 -0.4 Q4.0 -0.6 4.15 -0.9 L4.45 -1.4 Q4.65 -1.6 4.9 -1.65 L5.55 -1.7 5.6 -1.3 5.55 -1.15 5.45 -1.0 5.0 -0.5 Q4.75 -0.25 4.35 -0.15 L4.1 -0.2 Q4.0 -0.2 4.0 -0.4 M1.7 1.25 Q1.6 1.45 1.15 1.4 0.75 1.4 -0.35 0.7 -1.6 0.0 -1.6 -0.4 -1.6 -0.95 -1.25 -1.0 L0.3 -0.75 Q1.2 -0.2 1.4 0.05 1.75 0.35 1.75 0.85 L1.7 1.25" fill="#c7a36d" fill-rule="evenodd" stroke="none"/>
    <path d="M6.8 -7.6 Q6.65 -7.45 6.7 -7.1 6.8 -6.4 6.8 -6.25 6.6 -5.25 6.65 -4.45 6.65 -3.7 6.5 -2.65 6.4 -1.7 6.15 -0.9 5.9 -0.75 5.6 -0.45 4.85 0.6 4.5 0.9 4.05 1.25 3.7 2.1 L3.45 2.65 3.05 2.7 2.7 2.85 Q2.95 2.1 2.95 1.45 2.95 1.25 2.9 1.2 L2.75 1.05 Q2.5 1.25 2.25 2.1 L2.05 2.6 1.95 2.8 Q1.8 2.7 1.6 2.55 L1.1 2.2 Q-0.05 1.3 -1.05 1.25 L-1.3 1.2 Q-1.85 1.1 -2.4 1.2 L-2.5 0.4 -2.6 -0.3 Q-2.6 -0.6 -2.75 -3.3 L-2.85 -4.3 Q-2.95 -5.15 -2.95 -5.6 -2.95 -6.15 -3.25 -6.8 -3.5 -7.45 -3.5 -7.85 -3.5 -8.1 -3.5 -8.2 L-3.55 -8.3 Q-2.95 -8.65 -2.3 -9.0 L-1.5 -9.4 Q-0.4 -9.6 0.85 -9.6 3.45 -9.6 5.25 -8.7 5.75 -8.65 6.4 -8.05 L6.75 -7.7 6.75 -7.9 6.8 -7.9 6.8 -7.6 M4.0 -0.4 Q4.0 -0.2 4.1 -0.2 L4.35 -0.15 Q4.75 -0.25 5.0 -0.5 L5.45 -1.0 5.55 -1.15 5.6 -1.3 5.55 -1.7 4.9 -1.65 Q4.65 -1.6 4.45 -1.4 L4.15 -0.9 Q4.0 -0.6 4.0 -0.4 M1.7 1.25 L1.75 0.85 Q1.75 0.35 1.4 0.05 1.2 -0.2 0.3 -0.75 L-1.25 -1.0 Q-1.6 -0.95 -1.6 -0.4 -1.6 0.0 -0.35 0.7 0.75 1.4 1.15 1.4 1.6 1.45 1.7 1.25" fill="#a9854f" fill-rule="evenodd" stroke="none"/>
  </g>
</svg>
