<?xml version="1.0" encoding="UTF-8" standalone="no"?>
<svg xmlns:ffdec="https://www.free-decompiler.com/flash" xmlns:xlink="http://www.w3.org/1999/xlink" ffdec:objectType="shape" height="18.95px" width="12.45px" xmlns="http://www.w3.org/2000/svg">
  <g transform="matrix(1.0, 0.0, 0.0, 1.0, 10.2, 17.3)">
    <path d="M-0.85 -14.05 L-0.9 -14.05 -0.85 -14.1 -0.85 -14.05 M1.65 -8.35 L1.75 -8.35 1.65 -8.35 M1.8 -8.15 L1.95 -8.25 1.95 -8.2 1.9 -8.2 1.8 -8.15 M-2.55 -2.45 L-2.05 -2.45 -2.55 -2.45 M-9.3 0.2 L-9.4 0.05 Q-9.35 0.15 -9.3 0.2" fill="#466130" fill-rule="evenodd" stroke="none"/>
    <path d="M0.1 -11.65 L0.1 -11.8 Q-0.05 -12.05 -0.15 -12.0 -0.2 -11.95 -0.2 -11.75 L-0.2 -11.65 -0.15 -11.65 -0.05 -11.6 Q0.05 -11.6 0.1 -11.65 M-1.85 -15.3 Q-2.15 -15.15 -2.15 -14.85 L-2.15 -14.8 -2.1 -14.75 -2.0 -14.75 -1.9 -14.9 Q-1.85 -15.0 -1.55 -15.0 L-1.5 -14.95 Q-1.55 -14.75 -1.25 -14.65 -0.95 -14.55 -0.95 -14.4 -0.95 -14.3 -1.05 -14.15 L-1.2 -13.95 Q-1.2 -13.9 -1.2 -13.85 L-1.1 -13.85 -1.05 -13.9 Q-1.05 -13.8 -1.05 -13.75 L-1.05 -13.7 Q-0.9 -13.65 -0.8 -13.35 L-0.55 -12.85 Q-0.3 -12.5 0.15 -12.25 0.45 -12.1 0.45 -11.9 0.45 -11.75 0.25 -11.2 L0.0 -10.7 Q0.0 -10.6 0.1 -10.55 L0.1 -10.4 Q0.1 -9.8 0.55 -9.35 0.95 -8.9 0.95 -8.45 0.95 -8.1 1.1 -7.75 1.25 -7.45 1.25 -7.3 1.25 -7.1 1.0 -6.65 0.7 -6.15 0.7 -6.1 L0.2 -6.1 Q0.3 -6.0 0.45 -5.65 0.6 -5.35 0.6 -5.25 L0.55 -5.05 Q0.5 -4.95 0.6 -4.8 L0.55 -4.75 0.8 -4.1 0.8 -4.15 0.2 -4.75 Q-0.05 -4.65 -0.15 -4.35 L-0.2 -4.05 -0.2 -3.95 -0.15 -4.0 Q0.25 -4.05 0.5 -3.75 0.65 -3.5 0.65 -3.2 0.65 -2.75 0.25 -2.3 -0.15 -1.95 -0.15 -1.9 L-0.15 -1.8 0.05 -1.8 Q0.2 -1.8 0.3 -1.85 0.5 -1.5 -0.1 -0.95 -0.85 -0.25 -1.55 -1.0 -1.7 -1.15 -1.7 -1.35 -2.1 -1.4 -2.55 -1.65 L-2.65 -1.7 Q-2.85 -1.6 -3.05 -1.55 L-3.25 -1.45 -3.55 -1.25 -3.75 -0.95 Q-3.75 -1.05 -3.75 -1.1 L-4.0 -1.1 -4.05 -0.95 -4.0 -0.8 -3.9 -0.8 Q-3.85 -0.8 -3.8 -0.85 L-3.75 -0.85 Q-3.4 0.3 -4.65 0.3 L-5.05 0.35 -5.15 0.4 Q-5.35 0.45 -5.55 0.55 L-5.5 0.75 -5.6 0.35 Q-5.6 0.3 -5.55 0.2 L-5.5 0.1 Q-5.2 0.05 -4.95 0.0 -4.7 -0.25 -4.5 -0.55 -4.35 -0.75 -4.25 -1.05 -4.0 -1.75 -3.5 -2.1 L-3.4 -2.15 Q-3.05 -2.25 -2.9 -2.25 L-2.15 -2.2 -2.05 -2.15 -1.9 -2.15 Q-1.85 -2.2 -1.85 -2.25 L-1.6 -2.45 -1.3 -2.7 -1.3 -2.8 -1.35 -2.8 Q-1.45 -2.8 -1.6 -2.65 -1.75 -2.45 -1.95 -2.45 L-2.05 -2.45 -1.8 -2.7 -1.7 -2.85 -1.6 -2.95 Q-1.75 -3.25 -1.6 -3.75 -1.55 -4.0 -1.4 -4.2 -1.15 -4.35 -0.8 -4.35 -0.75 -4.35 -0.65 -4.25 -0.55 -4.2 -0.5 -4.2 L-0.45 -4.25 Q-0.35 -4.25 -0.35 -4.3 -0.35 -4.45 -0.4 -4.5 0.0 -4.9 -0.3 -5.4 L-0.3 -5.5 -0.45 -5.65 -0.45 -5.7 -0.5 -5.75 -0.5 -5.8 Q-0.75 -6.05 -0.6 -6.55 L-0.55 -6.75 Q-0.5 -7.15 -0.1 -7.25 L0.0 -7.4 0.15 -7.65 0.2 -7.7 0.25 -7.8 0.25 -7.85 0.3 -8.0 0.4 -8.2 Q0.55 -9.05 -0.2 -9.85 -0.7 -10.45 -0.65 -11.0 L-0.75 -11.3 Q-0.8 -11.4 -0.8 -11.55 L-0.75 -11.95 -0.75 -12.2 -0.85 -12.25 Q-1.4 -12.5 -1.45 -13.1 -1.45 -13.3 -1.4 -13.5 L-1.35 -13.5 -1.4 -13.55 Q-1.2 -14.25 -1.75 -14.6 L-2.1 -14.55 -2.15 -14.6 Q-2.2 -14.7 -2.2 -14.8 L-2.25 -14.8 -2.3 -14.75 -2.25 -14.9 Q-2.15 -15.2 -1.85 -15.3 M1.55 -7.45 L1.4 -7.8 1.3 -7.95 1.2 -8.05 1.45 -7.75 1.5 -7.85 1.6 -7.95 1.75 -7.95 Q2.0 -7.95 2.0 -7.8 L2.05 -7.5 1.55 -7.5 1.55 -7.45 M1.5 -9.15 L1.75 -8.95 Q1.8 -8.9 1.8 -8.8 L1.8 -8.6 1.55 -8.4 Q1.3 -8.55 1.35 -8.9 1.4 -9.05 1.5 -9.15 M0.35 -7.4 Q0.35 -7.25 0.55 -7.25 0.6 -7.25 0.65 -7.3 L0.7 -7.4 Q0.7 -7.6 0.55 -7.55 0.35 -7.55 0.35 -7.4 M0.45 -6.9 Q0.25 -7.0 0.25 -6.75 0.35 -6.45 0.45 -6.45 0.65 -6.45 0.65 -6.6 0.65 -6.85 0.45 -6.9 M0.05 -6.6 Q0.05 -6.7 0.0 -6.7 -0.35 -6.8 -0.35 -6.55 L-0.35 -6.4 Q-0.3 -6.3 -0.15 -6.3 -0.05 -6.35 0.05 -6.6 M-3.7 -17.1 Q-3.7 -16.95 -3.75 -16.85 -4.05 -16.85 -3.95 -17.2 -3.9 -17.3 -3.75 -17.3 -3.7 -17.2 -3.7 -17.1 M-3.0 -16.15 L-3.05 -16.05 -3.25 -16.05 Q-3.4 -16.1 -3.55 -16.2 L-3.55 -16.3 -4.0 -16.7 -3.55 -16.35 -3.55 -16.4 -4.3 -17.05 -3.55 -16.6 -3.55 -16.65 -3.4 -16.8 -3.35 -16.8 Q-3.35 -16.65 -3.25 -16.45 -3.1 -16.25 -3.0 -16.15 M-2.4 -16.5 L-2.35 -16.55 Q-1.75 -16.35 -2.15 -15.8 -2.35 -15.5 -2.7 -15.85 -2.7 -16.0 -2.65 -16.2 -2.6 -16.35 -2.5 -16.45 -2.35 -16.3 -2.15 -15.95 L-2.15 -15.8 Q-1.75 -16.35 -2.35 -16.55 L-2.4 -16.5 M-2.35 -14.95 Q-2.5 -14.75 -2.75 -14.8 -2.95 -15.0 -2.85 -15.25 -2.75 -15.5 -2.55 -15.6 L-2.4 -15.5 Q-2.55 -15.45 -2.55 -15.3 -2.55 -14.95 -2.35 -14.95 M-1.7 -14.3 Q-1.45 -14.25 -1.6 -14.0 -1.7 -13.9 -1.8 -14.05 L-1.8 -14.2 -1.7 -14.3 M-0.85 -12.9 Q-0.8 -12.95 -0.8 -13.0 -0.8 -13.2 -1.0 -13.2 -1.2 -13.15 -1.2 -13.0 L-1.15 -12.9 -1.0 -12.85 -0.9 -12.85 Q-1.1 -12.9 -1.1 -12.65 L-1.05 -12.5 -0.9 -12.5 Q-0.8 -12.5 -0.75 -12.55 -0.7 -12.6 -0.7 -12.65 -0.7 -12.85 -0.9 -12.85 L-0.85 -12.9 M-0.4 -11.4 Q-0.45 -11.25 -0.2 -11.25 L-0.1 -11.25 Q-0.05 -11.35 -0.05 -11.45 -0.05 -11.65 -0.2 -11.6 -0.4 -11.55 -0.4 -11.4 M-9.3 0.25 L-9.1 0.25 Q-9.2 0.0 -9.1 -0.4 L-9.1 -0.5 Q-8.95 -0.45 -8.75 -0.75 -8.5 -1.15 -8.0 -1.15 -7.7 -1.15 -7.25 -0.8 -6.8 -0.5 -6.8 -0.25 -6.85 -0.05 -6.85 0.05 L-6.8 0.05 Q-6.95 0.2 -6.95 0.35 L-6.9 0.35 -6.85 0.4 -6.65 0.3 -6.55 0.2 -6.65 0.15 -6.6 0.1 -6.25 0.05 -6.0 0.1 -5.85 0.15 -5.95 0.35 -6.05 0.5 Q-6.05 0.55 -5.9 0.7 -5.8 0.8 -5.8 0.85 -5.8 1.05 -6.1 1.4 L-6.25 1.55 Q-7.0 1.85 -7.35 1.05 L-7.35 1.0 Q-7.35 0.85 -7.45 0.75 L-7.4 0.6 -7.6 0.45 -7.7 0.45 Q-8.4 1.0 -8.9 0.55 L-9.1 0.85 Q-9.2 0.5 -9.3 0.25 M-9.95 0.05 L-9.95 0.3 -9.9 0.35 -9.7 0.15 -9.5 0.15 -9.5 0.3 Q-9.5 0.4 -9.6 0.65 -9.3 0.7 -9.3 0.95 L-9.3 1.0 Q-9.55 1.15 -9.95 1.15 -10.35 0.8 -10.1 0.25 L-9.95 0.05 M-0.75 -3.8 Q-0.8 -3.7 -0.8 -3.6 -0.8 -3.45 -0.6 -3.45 -0.55 -3.45 -0.5 -3.5 -0.45 -3.6 -0.45 -3.7 L-0.45 -3.9 Q-0.65 -3.95 -0.75 -3.8 M-7.8 -0.2 Q-7.95 -0.3 -7.95 -0.05 L-7.9 0.0 -7.7 0.05 -7.6 0.0 Q-7.65 -0.15 -7.8 -0.2 M-8.4 -0.25 L-8.4 -0.4 Q-8.55 -0.45 -8.65 -0.35 -8.75 -0.25 -8.75 -0.1 -8.75 0.05 -8.55 0.05 -8.45 0.05 -8.4 -0.05 -8.4 -0.15 -8.4 -0.25 M-3.55 -1.45 L-3.55 -1.65 -3.6 -1.65 -3.75 -1.6 -3.75 -1.4 -3.6 -1.4 -3.55 -1.45 M-3.0 -1.9 Q-3.0 -2.1 -3.2 -2.1 -3.4 -2.05 -3.4 -1.85 L-3.4 -1.75 -3.3 -1.7 Q-3.2 -1.7 -3.1 -1.75 -3.0 -1.85 -3.0 -1.9 M-0.9 -3.15 Q-0.85 -3.2 -0.85 -3.3 -0.85 -3.55 -1.05 -3.5 -1.25 -3.5 -1.25 -3.15 L-1.25 -3.1 Q-1.25 -3.0 -1.1 -3.0 -0.95 -3.0 -0.9 -3.15 M-0.6 -2.65 Q-0.5 -2.65 -0.4 -2.75 -0.25 -2.85 -0.25 -3.0 -0.25 -3.2 -0.5 -3.15 -0.75 -3.05 -0.75 -2.85 L-0.75 -2.75 Q-0.7 -2.65 -0.6 -2.65 M-1.35 -2.05 L-0.7 -1.75 Q-0.5 -1.65 -0.5 -1.5 -0.5 -1.45 -0.6 -1.4 L-0.8 -1.3 -0.75 -1.2 -0.6 -1.15 Q-0.4 -1.15 -0.25 -1.4 -0.2 -1.6 -0.2 -1.75 -0.2 -2.0 -0.6 -2.15 -1.05 -2.3 -1.35 -2.05 M-6.35 0.65 L-6.2 0.75 Q-6.1 0.65 -6.1 0.6 L-6.1 0.45 -6.2 0.45 Q-6.35 0.55 -6.35 0.65 M-7.15 0.2 L-7.15 0.15 -7.2 0.3 -7.15 0.2 M-6.95 0.7 L-6.95 1.15 -7.0 1.25 -7.0 1.45 -6.9 1.5 Q-6.75 1.5 -6.6 1.35 -6.45 1.25 -6.45 1.05 -6.45 0.7 -6.7 0.9 L-6.7 0.7 -6.95 0.7 M-8.0 0.75 L-8.0 0.85 -7.95 0.9 Q-7.7 0.95 -7.6 1.0 -7.55 1.05 -7.55 1.15 -7.55 1.2 -7.9 1.6 L-8.1 1.55 Q-8.6 1.4 -8.25 0.95 L-8.15 0.9 -8.0 0.75 M-8.25 0.3 Q-8.25 0.15 -8.3 0.05 -8.45 0.1 -8.5 0.2 L-8.5 0.35 -8.45 0.45 Q-8.35 0.45 -8.25 0.4 L-8.25 0.3 M-8.55 0.45 L-8.6 0.45 -8.6 0.5 -8.55 0.45 M-7.9 1.5 L-7.8 1.5 -7.75 1.45 -7.75 1.35 Q-7.75 1.1 -7.9 1.15 -8.1 1.2 -8.1 1.35 -8.15 1.5 -7.9 1.5 M-8.75 0.45 L-8.75 0.45" fill="#443059" fill-rule="evenodd" stroke="none"/>
    <path d="M0.1 -11.65 Q0.05 -11.6 -0.05 -11.6 L-0.15 -11.65 -0.2 -11.65 -0.2 -11.75 Q-0.2 -11.95 -0.15 -12.0 -0.05 -12.05 0.1 -11.8 L0.1 -11.65 M-3.75 -0.85 L-3.8 -0.85 Q-3.85 -0.8 -3.9 -0.8 L-4.0 -0.8 -4.05 -0.95 -4.0 -1.1 -3.75 -1.1 Q-3.75 -1.05 -3.75 -0.95 L-3.75 -0.85 M0.35 -7.4 Q0.35 -7.55 0.55 -7.55 0.7 -7.6 0.7 -7.4 L0.65 -7.3 Q0.6 -7.25 0.55 -7.25 0.35 -7.25 0.35 -7.4 M0.05 -6.6 Q-0.05 -6.35 -0.15 -6.3 -0.3 -6.3 -0.35 -6.4 L-0.35 -6.55 Q-0.35 -6.8 0.0 -6.7 0.05 -6.7 0.05 -6.6 M0.45 -6.9 Q0.65 -6.85 0.65 -6.6 0.65 -6.45 0.45 -6.45 0.35 -6.45 0.25 -6.75 0.25 -7.0 0.45 -6.9 M-0.85 -12.9 L-0.9 -12.85 Q-0.7 -12.85 -0.7 -12.65 -0.7 -12.6 -0.75 -12.55 -0.8 -12.5 -0.9 -12.5 L-1.05 -12.5 -1.1 -12.65 Q-1.1 -12.9 -0.9 -12.85 L-1.0 -12.85 -1.15 -12.9 -1.2 -13.0 Q-1.2 -13.15 -1.0 -13.2 -0.8 -13.2 -0.8 -13.0 -0.8 -12.95 -0.85 -12.9 M-0.4 -11.4 Q-0.4 -11.55 -0.2 -11.6 -0.05 -11.65 -0.05 -11.45 -0.05 -11.35 -0.1 -11.25 L-0.2 -11.25 Q-0.45 -11.25 -0.4 -11.4 M-8.4 -0.25 Q-8.4 -0.15 -8.4 -0.05 -8.45 0.05 -8.55 0.05 -8.75 0.05 -8.75 -0.1 -8.75 -0.25 -8.65 -0.35 -8.55 -0.45 -8.4 -0.4 L-8.4 -0.25 M-7.8 -0.2 Q-7.65 -0.15 -7.6 0.0 L-7.7 0.05 -7.9 0.0 -7.95 -0.05 Q-7.95 -0.3 -7.8 -0.2 M-0.75 -3.8 Q-0.65 -3.95 -0.45 -3.9 L-0.45 -3.7 Q-0.45 -3.6 -0.5 -3.5 -0.55 -3.45 -0.6 -3.45 -0.8 -3.45 -0.8 -3.6 -0.8 -3.7 -0.75 -3.8 M-3.0 -1.9 Q-3.0 -1.85 -3.1 -1.75 -3.2 -1.7 -3.3 -1.7 L-3.4 -1.75 -3.4 -1.85 Q-3.4 -2.05 -3.2 -2.1 -3.0 -2.1 -3.0 -1.9 M-3.55 -1.45 L-3.6 -1.4 -3.75 -1.4 -3.75 -1.6 -3.6 -1.65 -3.55 -1.65 -3.55 -1.45 M-0.6 -2.65 Q-0.7 -2.65 -0.75 -2.75 L-0.75 -2.85 Q-0.75 -3.05 -0.5 -3.15 -0.25 -3.2 -0.25 -3.0 -0.25 -2.85 -0.4 -2.75 -0.5 -2.65 -0.6 -2.65 M-0.9 -3.15 Q-0.95 -3.0 -1.1 -3.0 -1.25 -3.0 -1.25 -3.1 L-1.25 -3.15 Q-1.25 -3.5 -1.05 -3.5 -0.85 -3.55 -0.85 -3.3 -0.85 -3.2 -0.9 -3.15 M-6.35 0.65 Q-6.35 0.55 -6.2 0.45 L-6.1 0.45 -6.1 0.6 Q-6.1 0.65 -6.2 0.75 L-6.35 0.65 M-6.95 0.7 L-6.7 0.7 -6.7 0.9 Q-6.45 0.7 -6.45 1.05 -6.45 1.25 -6.6 1.35 -6.75 1.5 -6.9 1.5 L-7.0 1.45 -7.0 1.25 -6.95 1.15 -6.95 0.7 M-8.25 0.3 L-8.25 0.4 Q-8.35 0.45 -8.45 0.45 L-8.5 0.35 -8.5 0.2 Q-8.45 0.1 -8.3 0.05 -8.25 0.15 -8.25 0.3 M-7.9 1.5 Q-8.15 1.5 -8.1 1.35 -8.1 1.2 -7.9 1.15 -7.75 1.1 -7.75 1.35 L-7.75 1.45 -7.8 1.5 -7.9 1.5" fill="#201535" fill-rule="evenodd" stroke="none"/>
    <path d="M0.6 -4.8 Q0.5 -4.95 0.55 -5.05 L0.6 -5.25 Q0.6 -5.35 0.45 -5.65 0.3 -6.0 0.2 -6.1 L0.7 -6.1 Q0.7 -6.15 1.0 -6.65 1.25 -7.1 1.25 -7.3 1.25 -7.45 1.1 -7.75 0.95 -8.1 0.95 -8.45 0.95 -8.9 0.55 -9.35 0.1 -9.8 0.1 -10.4 L0.1 -10.55 Q0.0 -10.6 0.0 -10.7 L0.25 -11.2 Q0.45 -11.75 0.45 -11.9 0.45 -12.1 0.15 -12.25 -0.3 -12.5 -0.55 -12.85 L-0.8 -13.35 Q-0.9 -13.65 -1.05 -13.7 L-1.05 -13.75 Q-1.05 -13.8 -1.05 -13.9 L-1.1 -13.85 -1.2 -13.85 Q-1.2 -13.9 -1.2 -13.95 L-1.05 -14.15 Q-0.95 -14.3 -0.95 -14.4 -0.95 -14.55 -1.25 -14.65 -1.55 -14.75 -1.5 -14.95 L-1.55 -15.0 Q-1.85 -15.0 -1.9 -14.9 L-2.0 -14.75 -2.1 -14.75 -2.15 -14.8 -2.15 -14.85 Q-2.15 -15.15 -1.85 -15.3 L-1.8 -15.3 Q-1.45 -15.2 -1.4 -14.95 -0.65 -14.8 -0.85 -14.1 L-0.9 -14.05 -0.85 -14.05 -0.9 -14.0 -0.9 -13.95 -0.5 -13.25 -0.4 -13.05 -0.2 -12.7 -0.1 -12.8 Q1.1 -12.55 0.85 -11.5 0.7 -10.9 0.25 -10.5 0.25 -10.2 0.35 -9.85 L0.2 -10.05 0.2 -10.0 0.45 -9.75 Q0.9 -9.3 1.0 -8.8 1.25 -8.5 1.1 -8.1 L1.15 -8.1 1.2 -8.05 1.3 -7.95 1.4 -7.8 1.55 -7.45 Q1.6 -7.1 1.35 -6.65 1.05 -6.2 0.7 -6.05 0.9 -5.8 0.85 -5.35 0.85 -5.0 0.6 -4.8 M-0.4 -4.5 Q-0.35 -4.45 -0.35 -4.3 -0.35 -4.25 -0.45 -4.25 L-0.5 -4.2 Q-0.55 -4.2 -0.65 -4.25 -0.75 -4.35 -0.8 -4.35 -1.15 -4.35 -1.4 -4.2 -1.15 -4.5 -0.8 -4.6 -0.6 -4.5 -0.5 -4.4 L-0.4 -4.5 M-2.05 -2.45 L-1.95 -2.45 Q-1.75 -2.45 -1.6 -2.65 -1.45 -2.8 -1.35 -2.8 L-1.3 -2.8 -1.3 -2.7 -1.6 -2.45 -1.85 -2.25 Q-1.85 -2.2 -1.9 -2.15 L-2.05 -2.15 -2.15 -2.2 -2.9 -2.25 Q-3.05 -2.25 -3.4 -2.15 L-3.5 -2.1 -3.45 -2.15 -3.4 -2.15 -3.35 -2.2 Q-3.3 -2.2 -3.25 -2.25 L-3.2 -2.25 -2.55 -2.45 -2.05 -2.45 M-5.5 0.1 L-5.55 0.2 Q-5.6 0.3 -5.6 0.35 L-5.5 0.75 Q-5.5 1.15 -6.0 1.45 L-6.05 1.45 -6.2 1.5 -6.25 1.55 -6.1 1.4 Q-5.8 1.05 -5.8 0.85 -5.8 0.8 -5.9 0.7 -6.05 0.55 -6.05 0.5 L-5.95 0.35 -5.85 0.15 -6.0 0.1 -6.25 0.05 -6.6 0.1 -6.65 0.15 -6.55 0.2 -6.65 0.3 -6.85 0.4 -6.9 0.35 -6.95 0.35 Q-6.95 0.2 -6.8 0.05 L-6.85 0.05 Q-6.85 -0.05 -6.8 -0.25 -6.8 -0.5 -7.25 -0.8 -7.7 -1.15 -8.0 -1.15 -8.5 -1.15 -8.75 -0.75 -8.95 -0.45 -9.1 -0.5 -8.9 -1.3 -7.95 -1.35 -7.2 -1.4 -6.8 -0.75 -6.65 -0.45 -6.65 -0.15 L-6.6 -0.15 -6.6 -0.2 Q-6.45 -0.35 -6.3 -0.4 -6.05 -0.4 -5.75 -0.2 -5.65 -0.1 -5.65 0.0 L-5.55 0.1 -5.5 0.1 M0.3 -1.85 Q0.2 -1.8 0.05 -1.8 L-0.15 -1.8 -0.15 -1.9 Q-0.15 -1.95 0.25 -2.3 0.65 -2.75 0.65 -3.2 0.65 -3.5 0.5 -3.75 0.25 -4.05 -0.15 -4.0 L-0.2 -3.95 -0.2 -4.05 -0.15 -4.35 Q-0.05 -4.65 0.2 -4.75 L0.8 -4.15 0.8 -4.1 0.8 -4.05 0.85 -3.95 Q1.15 -2.75 0.2 -1.95 L0.3 -1.85 M1.5 -9.15 L1.65 -9.2 Q2.0 -9.1 1.95 -8.7 1.95 -8.45 1.75 -8.35 L1.65 -8.35 1.55 -8.4 1.8 -8.6 1.8 -8.8 Q1.8 -8.9 1.75 -8.95 L1.5 -9.15 M1.6 -7.95 L1.65 -8.05 1.8 -8.15 1.9 -8.2 1.95 -8.2 Q2.45 -7.55 2.05 -7.5 L2.0 -7.8 Q2.0 -7.95 1.75 -7.95 L1.6 -7.95 M-3.35 -16.8 Q-3.05 -16.8 -2.95 -16.45 -2.9 -16.3 -3.0 -16.15 -3.1 -16.25 -3.25 -16.45 -3.35 -16.65 -3.35 -16.8 M-2.5 -16.45 L-2.45 -16.5 -2.4 -16.5 -2.35 -16.55 Q-1.75 -16.35 -2.15 -15.8 L-2.15 -15.95 Q-2.35 -16.3 -2.5 -16.45 M-2.35 -14.95 Q-2.55 -14.95 -2.55 -15.3 -2.55 -15.45 -2.4 -15.5 -2.15 -15.35 -2.35 -15.0 L-2.35 -14.95 M-9.3 0.25 Q-9.2 0.5 -9.1 0.85 L-9.15 0.85 -9.2 0.95 -9.3 1.0 -9.3 0.95 Q-9.3 0.7 -9.6 0.65 -9.5 0.4 -9.5 0.3 L-9.5 0.15 -9.7 0.15 -9.9 0.35 -9.95 0.3 -9.95 0.05 Q-9.85 -0.05 -9.7 -0.05 L-9.65 -0.1 Q-9.5 -0.05 -9.4 0.05 L-9.3 0.2 -9.3 0.25 M-7.45 0.75 Q-7.35 0.85 -7.35 1.0 L-7.35 1.05 -7.4 0.95 Q-7.4 1.35 -7.55 1.45 -7.65 1.65 -7.9 1.6 -7.55 1.2 -7.55 1.15 -7.55 1.05 -7.6 1.0 -7.7 0.95 -7.95 0.9 L-8.0 0.85 -8.0 0.75 Q-7.9 0.7 -7.85 0.7 -7.7 0.65 -7.6 0.75 L-7.45 0.85 -7.45 0.75 M-1.35 -2.05 Q-1.05 -2.3 -0.6 -2.15 -0.2 -2.0 -0.2 -1.75 -0.2 -1.6 -0.25 -1.4 -0.4 -1.15 -0.6 -1.15 L-0.75 -1.2 -0.8 -1.3 -0.6 -1.4 Q-0.5 -1.45 -0.5 -1.5 -0.5 -1.65 -0.7 -1.75 L-1.35 -2.05" fill="#7e59a6" fill-rule="evenodd" stroke="none"/>
  </g>
</svg>
