<?xml version="1.0" encoding="UTF-8" standalone="no"?>
<svg xmlns:ffdec="https://www.free-decompiler.com/flash" xmlns:xlink="http://www.w3.org/1999/xlink" ffdec:objectType="shape" height="19.95px" width="13.65px" xmlns="http://www.w3.org/2000/svg">
  <g transform="matrix(1.0, 0.0, 0.0, 1.0, 10.85, 17.25)">
    <path d="M2.15 -6.95 Q2.1 -6.75 1.95 -6.55 L2.15 -6.95 M-6.35 -0.4 L-6.3 -0.45 -6.15 -0.4 -6.35 -0.4 M-10.5 0.1 L-10.6 0.1 -10.55 0.05 -10.5 0.1" fill="#466130" fill-rule="evenodd" stroke="none"/>
    <path d="M-6.0 2.25 L-6.15 2.4 -6.25 2.45 -6.1 2.35 -6.0 2.25" fill="#7d946e" fill-rule="evenodd" stroke="none"/>
    <path d="M0.65 -10.5 L0.45 -10.5 Q0.45 -10.2 0.3 -9.9 L0.25 -9.7 0.3 -9.55 0.5 -9.45 0.6 -9.45 0.5 -9.4 Q1.55 -9.25 1.55 -8.35 1.55 -8.25 1.45 -8.1 L1.35 -7.95 1.4 -7.85 1.5 -7.85 1.7 -8.25 Q1.6 -7.9 1.4 -7.75 L1.6 -7.7 1.05 -7.75 0.95 -7.65 0.95 -7.55 Q1.5 -7.5 1.6 -7.4 1.65 -7.4 1.65 -7.25 1.65 -7.1 1.45 -6.8 1.25 -6.55 0.95 -6.25 L1.15 -6.15 1.3 -6.1 0.9 -6.15 Q1.0 -6.0 1.05 -5.8 1.4 -5.4 0.9 -4.65 0.7 -4.35 0.45 -4.15 L0.45 -4.1 0.4 -4.25 Q0.25 -4.7 0.1 -4.8 0.25 -5.0 0.55 -5.2 L0.6 -5.2 0.65 -5.35 Q0.7 -5.65 0.65 -6.0 L0.65 -6.05 Q0.55 -6.1 0.5 -6.1 L0.25 -6.05 Q0.1 -5.75 -0.15 -5.7 -0.2 -5.65 -0.3 -5.6 -0.55 -5.7 -0.6 -5.9 -0.9 -6.15 -0.7 -6.5 -0.6 -6.75 -0.35 -6.9 L-0.3 -6.9 -0.55 -6.75 Q-0.7 -6.55 -0.7 -6.3 -0.7 -6.15 -0.65 -6.05 L-0.55 -6.15 Q-0.6 -6.3 -0.5 -6.5 -0.35 -6.75 0.0 -6.75 L0.15 -6.75 0.15 -6.85 0.05 -6.85 Q0.6 -7.15 0.7 -7.65 L1.0 -7.85 Q1.15 -8.25 1.0 -8.55 0.85 -8.85 0.45 -9.15 L0.35 -9.2 Q0.2 -9.25 0.0 -9.35 L-0.2 -9.5 -0.2 -9.7 Q-0.7 -10.2 0.0 -11.2 0.35 -11.7 0.3 -12.0 L0.25 -12.1 0.15 -12.35 0.1 -12.4 0.05 -12.25 -0.05 -12.15 Q-0.25 -11.8 -0.4 -11.8 -1.0 -11.8 -1.2 -12.2 -1.3 -12.4 -1.25 -12.6 -1.25 -12.85 -1.0 -13.35 L-0.85 -13.8 Q-0.85 -14.0 -0.85 -14.1 L-0.8 -14.1 -0.8 -14.15 -0.75 -14.15 -0.75 -14.1 -0.7 -13.95 -0.65 -13.85 Q-0.75 -13.55 -0.75 -12.85 -0.6 -12.45 -0.45 -12.45 -0.3 -12.45 -0.1 -12.55 L-0.1 -12.55 Q-0.05 -12.55 0.1 -12.7 0.3 -12.8 0.4 -12.8 L0.5 -12.75 0.5 -12.6 Q0.45 -12.55 0.45 -12.5 L0.45 -12.4 0.5 -12.4 0.8 -12.5 Q1.5 -12.5 1.5 -11.8 1.5 -11.5 1.25 -11.15 L0.95 -10.75 0.65 -10.5 M0.4 -1.05 Q0.4 -0.6 0.3 -0.25 -0.1 -1.05 -0.65 -0.85 -0.5 -1.4 -1.05 -1.5 -1.3 -1.55 -1.45 -1.45 -1.65 -1.3 -1.65 -1.05 L-1.55 -0.95 -1.1 -1.05 -0.9 -0.85 -0.9 -0.55 -0.75 -0.55 Q-0.55 -0.7 -0.4 -0.5 L-0.3 -0.3 Q-0.3 -0.15 -0.5 0.15 L-0.75 0.55 -0.7 0.55 -1.0 0.55 Q-1.7 0.75 -1.9 0.15 -2.0 0.05 -2.0 -0.15 -2.0 -0.5 -1.95 -0.75 -2.15 -0.65 -2.45 -1.0 -2.95 -1.4 -2.85 -1.9 L-3.25 -2.2 -3.5 -2.15 Q-3.7 -1.95 -3.85 -1.65 -3.95 -1.35 -4.0 -1.05 -4.0 -0.65 -3.7 -0.2 L-3.6 -0.05 -3.6 0.15 Q-3.55 1.0 -4.0 1.1 -4.3 1.3 -4.6 1.0 L-4.6 0.65 Q-4.85 0.5 -5.05 0.55 L-5.15 0.6 -5.25 0.6 -5.3 0.7 -5.4 0.8 -5.4 0.85 -5.45 0.75 Q-5.55 0.55 -5.65 0.45 L-5.5 0.3 Q-5.3 0.15 -5.1 0.1 L-5.0 0.05 Q-4.8 0.1 -4.7 0.2 L-4.6 0.3 -4.45 0.35 Q-4.4 0.1 -4.45 -0.25 L-4.55 -0.55 Q-4.95 -1.6 -4.1 -2.2 -3.95 -2.35 -3.65 -2.45 L-2.85 -2.45 -2.65 -2.55 Q-2.9 -2.4 -2.9 -2.2 -2.9 -2.05 -2.85 -2.0 L-2.5 -2.25 Q-2.2 -2.45 -1.8 -2.45 -1.55 -2.45 -1.2 -2.15 L-0.9 -1.8 -0.85 -1.8 -0.85 -1.85 Q-0.95 -2.45 -1.35 -2.7 -1.2 -2.85 -1.05 -3.0 L-0.95 -3.2 -0.95 -3.45 Q-1.05 -3.9 -0.9 -4.2 -0.9 -4.15 -0.85 -4.1 L-0.75 -4.1 -0.45 -4.3 Q-0.4 -4.4 -0.3 -4.4 L-0.1 -4.3 -0.2 -4.1 -0.05 -4.0 Q0.1 -3.85 0.3 -3.1 0.3 -2.95 0.65 -2.6 0.95 -2.25 0.95 -2.05 0.95 -1.9 0.85 -1.65 0.7 -1.3 0.45 -1.3 L0.15 -1.3 Q0.1 -1.35 0.1 -1.2 0.15 -1.1 0.2 -1.1 0.3 -1.05 0.4 -1.05 M-6.15 2.4 Q-7.0 3.15 -7.45 2.05 -8.15 2.05 -7.9 1.25 L-7.8 1.05 -7.95 0.75 -7.8 0.55 Q-7.65 0.4 -7.45 0.35 L-7.35 0.55 Q-7.3 0.65 -7.3 0.7 L-7.4 1.0 -7.35 1.1 -7.3 1.15 -7.0 0.8 Q-6.6 0.45 -6.1 0.45 -5.9 0.45 -5.75 0.8 -5.6 1.1 -5.6 1.3 -5.6 1.5 -5.95 2.15 L-6.0 2.25 -6.1 2.35 -6.25 2.45 -6.15 2.4 M-8.05 0.75 L-8.25 0.7 -8.45 0.75 Q-10.25 1.0 -9.95 -0.55 -9.9 -0.95 -9.6 -1.2 L-9.65 -1.1 -9.65 -0.95 -9.55 -0.95 -9.5 -0.9 Q-9.4 -0.9 -9.2 -1.05 -9.0 -1.2 -8.7 -1.2 -8.45 -1.2 -8.2 -0.9 -8.05 -0.65 -8.05 -0.5 L-8.1 -0.3 Q-8.1 -0.2 -7.95 -0.1 -7.85 -0.1 -7.8 -0.15 -7.75 0.0 -7.7 0.15 L-7.9 0.35 -8.05 0.6 -8.15 0.65 -8.05 0.65 -8.1 0.65 -8.05 0.75 M-7.6 0.1 L-7.65 0.1 Q-7.7 -0.1 -7.65 -0.25 -7.55 -0.5 -7.3 -0.6 L-7.2 -0.55 Q-7.3 -0.55 -7.45 -0.4 L-7.45 -0.35 -7.35 -0.35 Q-7.3 -0.35 -7.2 -0.35 L-7.1 -0.4 -7.15 -0.35 -7.15 -0.2 Q-7.1 -0.1 -7.0 -0.1 L-6.95 -0.1 -7.1 0.1 -7.2 0.2 -6.75 0.25 -7.05 0.4 Q-7.15 0.25 -7.55 0.1 L-7.6 0.1 M-6.55 0.2 L-6.6 0.05 Q-6.65 -0.15 -6.6 -0.3 L-6.55 -0.35 -6.55 -0.25 Q-6.55 -0.15 -6.5 -0.15 L-6.15 -0.15 Q-6.05 0.0 -5.95 0.05 L-6.0 0.2 -6.35 0.15 -6.55 0.2 M0.15 -12.4 L0.15 -12.4 M0.35 -11.1 L0.5 -11.1 Q0.7 -11.15 0.7 -11.35 L0.7 -11.45 0.65 -11.45 Q0.6 -11.45 0.45 -11.35 0.35 -11.2 0.35 -11.15 L0.35 -11.1 M1.05 -12.15 L0.95 -12.15 Q0.7 -11.95 0.7 -11.8 0.65 -11.65 0.9 -11.65 1.05 -11.65 1.05 -12.05 L1.05 -12.15 M2.15 -9.0 Q2.45 -8.95 2.4 -8.6 2.35 -8.4 2.1 -8.4 2.0 -8.4 2.0 -8.5 L2.0 -8.85 2.05 -8.85 2.1 -8.95 2.15 -9.0 M0.8 -9.15 L0.8 -9.15 M1.05 -7.35 Q1.0 -7.35 0.9 -7.3 L0.9 -7.2 0.95 -7.2 Q0.95 -7.15 1.0 -7.15 1.1 -7.15 1.1 -7.2 L1.1 -7.3 1.05 -7.35 M2.75 -7.6 Q2.6 -7.45 2.4 -7.55 2.35 -7.6 2.3 -7.65 2.3 -7.8 2.4 -7.9 L2.65 -8.0 Q2.85 -8.0 2.8 -7.8 L2.75 -7.6 M0.85 -6.55 L0.95 -6.75 0.95 -6.85 Q0.8 -6.9 0.65 -6.8 0.5 -6.7 0.5 -6.6 L0.5 -6.5 0.55 -6.5 0.55 -6.45 0.65 -6.45 Q0.75 -6.45 0.85 -6.55 M0.1 -6.25 L0.15 -6.35 0.1 -6.45 0.0 -6.45 Q-0.05 -6.45 -0.05 -6.3 L-0.05 -6.2 0.1 -6.25 M0.1 -2.7 L0.1 -2.8 Q-0.1 -2.9 -0.25 -2.75 L-0.3 -2.55 Q-0.35 -2.35 -0.15 -2.35 -0.05 -2.35 0.0 -2.45 0.1 -2.6 0.1 -2.7 M-3.55 -16.9 L-3.65 -17.0 -3.65 -17.1 Q-3.65 -17.25 -3.65 -17.2 L-3.4 -17.2 -3.35 -17.1 -3.4 -17.0 -3.45 -16.95 Q-3.45 -16.9 -3.55 -16.9 M-3.05 -16.3 Q-3.05 -16.55 -2.85 -16.6 -2.6 -16.65 -2.6 -16.4 -2.6 -16.3 -2.7 -16.2 -2.75 -16.15 -2.85 -16.15 -3.0 -16.15 -3.0 -16.2 L-3.05 -16.2 -3.05 -16.3 M-1.6 -15.95 Q-1.6 -15.75 -1.7 -15.6 -1.75 -15.45 -1.9 -15.45 -2.05 -15.45 -2.1 -15.6 L-2.1 -15.75 Q-2.1 -16.1 -1.85 -16.15 -1.6 -16.2 -1.6 -15.95 M-2.1 -15.05 L-2.15 -14.9 Q-2.25 -14.8 -2.3 -14.75 L-2.5 -14.8 -2.55 -15.0 Q-2.55 -15.15 -2.5 -15.2 L-2.1 -15.2 -2.1 -15.05 M-1.5 -14.65 Q-1.5 -14.5 -1.6 -14.4 -1.65 -14.3 -1.8 -14.3 L-1.95 -14.3 Q-2.0 -14.35 -2.0 -14.55 L-1.95 -14.75 Q-1.85 -14.95 -1.5 -14.85 L-1.5 -14.65 M-0.55 -12.1 Q-0.4 -12.1 -0.4 -12.15 L-0.35 -12.25 Q-0.45 -12.35 -0.6 -12.35 -0.75 -12.4 -0.75 -12.25 L-0.75 -12.2 Q-0.65 -12.1 -0.55 -12.1 M-0.05 -10.25 L-0.05 -10.25 M-8.55 -0.2 L-8.35 -0.25 -8.35 -0.35 Q-8.4 -0.55 -8.5 -0.5 -8.55 -0.4 -8.55 -0.3 L-8.55 -0.2 M-9.65 -0.3 Q-9.65 -0.1 -9.45 -0.1 -9.35 -0.1 -9.25 -0.3 -9.1 -0.45 -9.1 -0.6 -9.1 -0.65 -9.15 -0.65 L-9.15 -0.7 Q-9.25 -0.7 -9.45 -0.55 -9.65 -0.4 -9.65 -0.3 M-0.9 -2.6 Q-0.9 -2.45 -0.75 -2.45 -0.65 -2.45 -0.6 -2.5 -0.55 -2.55 -0.55 -2.6 -0.55 -2.8 -0.75 -2.8 -0.9 -2.8 -0.9 -2.6 M-4.1 -1.7 L-4.25 -1.7 Q-4.25 -1.65 -4.3 -1.45 L-4.35 -1.3 -4.35 -1.2 -4.25 -1.2 Q-4.05 -1.4 -4.05 -1.6 L-4.1 -1.7 M-0.4 -3.95 Q-0.6 -3.95 -0.6 -3.6 -0.55 -3.25 -0.4 -3.25 -0.3 -3.25 -0.25 -3.3 L-0.2 -3.65 Q-0.2 -3.9 -0.4 -3.95 M-6.3 0.85 Q-6.35 0.8 -6.4 0.75 L-6.45 0.8 Q-6.5 0.8 -6.5 0.9 L-6.5 1.0 -6.35 0.95 -6.3 0.85 M-6.0 1.05 L-6.0 1.0 -6.1 0.9 -6.2 1.0 -6.25 1.15 -6.25 1.2 -6.15 1.25 Q-6.05 1.2 -6.0 1.15 L-6.0 1.05 M-6.6 1.6 Q-6.6 1.4 -6.85 1.45 -7.05 1.55 -7.05 1.75 L-7.05 1.9 -6.9 1.9 Q-6.8 1.9 -6.7 1.85 -6.6 1.75 -6.6 1.6 M-8.5 1.15 L-8.5 1.25 Q-8.5 1.35 -8.5 1.3 -8.45 1.3 -8.3 1.4 L-8.35 1.55 Q-8.35 1.65 -8.25 1.7 L-8.35 1.9 Q-8.8 1.95 -8.7 1.5 -8.7 1.25 -8.5 1.15 M-8.25 0.8 Q-7.9 0.9 -8.25 0.9 -8.5 0.9 -8.25 0.8 M-9.0 0.35 L-8.95 0.3 -8.9 0.3 -8.9 0.15 Q-8.9 -0.1 -9.05 0.0 -9.15 0.1 -9.2 0.25 -9.1 0.35 -9.0 0.35 M-9.8 0.7 L-9.7 0.65 Q-9.45 0.7 -9.55 1.0 -9.65 1.2 -9.85 1.1 -9.9 1.05 -9.9 0.95 L-9.9 0.8 -9.8 0.7 M-10.85 0.5 L-10.7 0.4 Q-10.6 0.3 -10.5 0.3 -10.2 0.3 -10.2 0.6 -10.2 0.9 -10.15 1.0 -10.35 1.3 -10.75 1.05 L-10.85 0.85 Q-10.85 0.65 -10.85 0.5" fill="#443059" fill-rule="evenodd" stroke="none"/>
    <path d="M-0.65 -13.85 Q-0.5 -13.65 -0.5 -13.55 L-0.5 -13.5 -0.65 -13.2 -0.6 -12.85 Q-0.55 -12.6 -0.4 -12.6 L-0.15 -12.65 Q-0.15 -12.8 0.0 -12.85 L0.05 -12.9 Q0.25 -13.05 0.5 -13.0 0.6 -13.0 0.65 -12.9 L0.65 -12.75 Q2.05 -12.75 1.6 -11.4 1.55 -11.2 1.45 -11.05 1.15 -10.5 0.75 -10.55 L0.65 -10.5 0.95 -10.75 1.25 -11.15 Q1.5 -11.5 1.5 -11.8 1.5 -12.5 0.8 -12.5 L0.5 -12.4 0.45 -12.4 0.45 -12.5 Q0.45 -12.55 0.5 -12.6 L0.5 -12.75 0.4 -12.8 Q0.3 -12.8 0.1 -12.7 -0.05 -12.55 -0.1 -12.55 L-0.1 -12.55 Q-0.3 -12.45 -0.45 -12.45 -0.6 -12.45 -0.75 -12.85 -0.75 -13.55 -0.65 -13.85 M0.6 -9.45 L0.6 -9.4 0.65 -9.4 0.65 -9.45 Q1.85 -9.45 1.7 -8.4 L1.7 -8.25 1.5 -7.85 1.4 -7.85 1.35 -7.95 1.45 -8.1 Q1.55 -8.25 1.55 -8.35 1.55 -9.25 0.5 -9.4 L0.6 -9.45 M1.6 -7.7 Q2.0 -7.55 2.15 -7.3 L2.15 -6.95 1.95 -6.55 1.75 -6.35 Q1.55 -6.15 1.3 -6.1 L1.15 -6.15 0.95 -6.25 Q1.25 -6.55 1.45 -6.8 1.65 -7.1 1.65 -7.25 1.65 -7.4 1.6 -7.4 1.5 -7.5 0.95 -7.55 L0.95 -7.65 1.05 -7.75 1.6 -7.7 M0.45 -4.1 Q0.45 -3.8 0.5 -3.45 0.55 -3.0 0.85 -2.65 1.5 -1.9 0.95 -1.4 0.8 -1.15 0.4 -1.05 0.3 -1.05 0.2 -1.1 0.15 -1.1 0.1 -1.2 0.1 -1.35 0.15 -1.3 L0.45 -1.3 Q0.7 -1.3 0.85 -1.65 0.95 -1.9 0.95 -2.05 0.95 -2.25 0.65 -2.6 0.3 -2.95 0.3 -3.1 0.1 -3.85 -0.05 -4.0 L-0.2 -4.1 -0.1 -4.3 -0.3 -4.4 Q-0.4 -4.4 -0.45 -4.3 L-0.75 -4.1 -0.85 -4.1 Q-0.9 -4.15 -0.9 -4.2 -0.75 -4.45 -0.45 -4.65 L-0.35 -4.7 -0.25 -4.7 -0.15 -4.8 0.1 -4.8 Q0.25 -4.7 0.4 -4.25 L0.45 -4.1 M0.3 -0.25 L-0.7 0.55 -0.75 0.55 -0.5 0.15 Q-0.3 -0.15 -0.3 -0.3 L-0.4 -0.5 Q-0.55 -0.7 -0.75 -0.55 L-0.9 -0.55 -0.9 -0.85 -1.1 -1.05 -1.55 -0.95 -1.65 -1.05 Q-1.65 -1.3 -1.45 -1.45 -1.3 -1.55 -1.05 -1.5 -0.5 -1.4 -0.65 -0.85 -0.1 -1.05 0.3 -0.25 M-5.4 0.85 L-5.45 0.95 Q-5.4 1.45 -5.8 2.0 L-5.95 2.2 -6.0 2.25 -5.95 2.15 Q-5.6 1.5 -5.6 1.3 -5.6 1.1 -5.75 0.8 -5.9 0.45 -6.1 0.45 -6.6 0.45 -7.0 0.8 L-7.3 1.15 -7.35 1.1 -7.4 1.0 -7.3 0.7 Q-7.3 0.65 -7.35 0.55 L-7.45 0.35 Q-7.65 0.4 -7.8 0.55 L-7.95 0.75 -8.0 0.7 -8.05 0.75 -8.1 0.65 -8.05 0.65 -8.05 0.6 -7.9 0.35 -7.7 0.15 -7.65 0.2 -7.5 0.2 -7.6 0.1 -7.55 0.1 Q-7.15 0.25 -7.05 0.4 L-6.75 0.25 -6.45 0.3 -6.55 0.2 -6.35 0.15 -6.0 0.2 -6.1 0.35 -5.7 0.4 -5.65 0.45 Q-5.55 0.55 -5.45 0.75 L-5.4 0.85 M-9.6 -1.2 Q-9.4 -1.4 -9.1 -1.5 -7.75 -1.35 -7.8 -0.35 L-7.8 -0.15 Q-7.85 -0.1 -7.95 -0.1 -8.1 -0.2 -8.1 -0.3 L-8.05 -0.5 Q-8.05 -0.65 -8.2 -0.9 -8.45 -1.2 -8.7 -1.2 -9.0 -1.2 -9.2 -1.05 -9.4 -0.9 -9.5 -0.9 L-9.55 -0.95 -9.65 -0.95 -9.65 -1.1 -9.6 -1.2 M-7.2 -0.55 Q-6.8 -0.45 -6.95 -0.1 L-7.0 -0.1 Q-7.1 -0.1 -7.15 -0.2 L-7.15 -0.35 -7.1 -0.4 -7.2 -0.35 Q-7.3 -0.35 -7.35 -0.35 L-7.45 -0.35 -7.45 -0.4 Q-7.3 -0.55 -7.2 -0.55 M-6.55 -0.35 L-6.5 -0.35 -6.4 -0.4 -6.35 -0.4 -6.15 -0.4 -6.05 -0.3 Q-5.95 -0.25 -5.95 -0.1 L-5.95 0.05 Q-6.05 0.0 -6.15 -0.15 L-6.5 -0.15 Q-6.55 -0.15 -6.55 -0.25 L-6.55 -0.35 M-2.65 -2.55 L-2.6 -2.6 -2.05 -2.75 -1.45 -2.7 -1.4 -2.65 -1.35 -2.7 Q-0.95 -2.45 -0.85 -1.85 L-0.85 -1.8 -0.9 -1.8 -1.2 -2.15 Q-1.55 -2.45 -1.8 -2.45 -2.2 -2.45 -2.5 -2.25 L-2.85 -2.0 Q-2.9 -2.05 -2.9 -2.2 -2.9 -2.4 -2.65 -2.55 M-0.3 -6.9 L0.05 -6.85 0.15 -6.85 0.15 -6.75 0.0 -6.75 Q-0.35 -6.75 -0.5 -6.5 -0.6 -6.3 -0.55 -6.15 L-0.65 -6.05 Q-0.7 -6.15 -0.7 -6.3 -0.7 -6.55 -0.55 -6.75 L-0.3 -6.9 M-1.75 -2.5 L-1.7 -2.5 -1.6 -2.55 -1.75 -2.5 M-8.5 1.15 L-8.45 1.15 Q-8.1 1.15 -8.2 1.5 L-8.25 1.7 Q-8.35 1.65 -8.35 1.55 L-8.3 1.4 Q-8.45 1.3 -8.5 1.3 -8.5 1.35 -8.5 1.25 L-8.5 1.15 M-10.85 0.5 L-10.85 0.25 -10.8 0.2 -10.6 0.1 -10.5 0.1 Q-9.85 0.2 -10.1 0.85 L-10.15 1.0 Q-10.2 0.9 -10.2 0.6 -10.2 0.3 -10.5 0.3 -10.6 0.3 -10.7 0.4 L-10.85 0.5" fill="#7e59a6" fill-rule="evenodd" stroke="none"/>
    <path d="M1.05 -12.15 L1.05 -12.05 Q1.05 -11.65 0.9 -11.65 0.65 -11.65 0.7 -11.8 0.7 -11.95 0.95 -12.15 L1.05 -12.15 M0.35 -11.1 L0.35 -11.15 Q0.35 -11.2 0.45 -11.35 0.6 -11.45 0.65 -11.45 L0.7 -11.45 0.7 -11.35 Q0.7 -11.15 0.5 -11.1 L0.35 -11.1 M1.05 -7.35 L1.1 -7.3 1.1 -7.2 Q1.1 -7.15 1.0 -7.15 0.95 -7.15 0.95 -7.2 L0.9 -7.2 0.9 -7.3 Q1.0 -7.35 1.05 -7.35 M0.85 -6.55 Q0.75 -6.45 0.65 -6.45 L0.55 -6.45 0.55 -6.5 0.5 -6.5 0.5 -6.6 Q0.5 -6.7 0.65 -6.8 0.8 -6.9 0.95 -6.85 L0.95 -6.75 0.85 -6.55 M0.1 -6.25 L-0.05 -6.2 -0.05 -6.3 Q-0.05 -6.45 0.0 -6.45 L0.1 -6.45 0.15 -6.35 0.1 -6.25 M0.1 -2.7 Q0.1 -2.6 0.0 -2.45 -0.05 -2.35 -0.15 -2.35 -0.35 -2.35 -0.3 -2.55 L-0.25 -2.75 Q-0.1 -2.9 0.1 -2.8 L0.1 -2.7 M-0.55 -12.1 Q-0.65 -12.1 -0.75 -12.2 L-0.75 -12.25 Q-0.75 -12.4 -0.6 -12.35 -0.45 -12.35 -0.35 -12.25 L-0.4 -12.15 Q-0.4 -12.1 -0.55 -12.1 M-9.65 -0.3 Q-9.65 -0.4 -9.45 -0.55 -9.25 -0.7 -9.15 -0.7 L-9.15 -0.65 Q-9.1 -0.65 -9.1 -0.6 -9.1 -0.45 -9.25 -0.3 -9.35 -0.1 -9.45 -0.1 -9.65 -0.1 -9.65 -0.3 M-8.55 -0.2 L-8.55 -0.3 Q-8.55 -0.4 -8.5 -0.5 -8.4 -0.55 -8.35 -0.35 L-8.35 -0.25 -8.55 -0.2 M-0.4 -3.95 Q-0.2 -3.9 -0.2 -3.65 L-0.25 -3.3 Q-0.3 -3.25 -0.4 -3.25 -0.55 -3.25 -0.6 -3.6 -0.6 -3.95 -0.4 -3.95 M-4.1 -1.7 L-4.05 -1.6 Q-4.05 -1.4 -4.25 -1.2 L-4.35 -1.2 -4.35 -1.3 -4.3 -1.45 Q-4.25 -1.65 -4.25 -1.7 L-4.1 -1.7 M-0.9 -2.6 Q-0.9 -2.8 -0.75 -2.8 -0.55 -2.8 -0.55 -2.6 -0.55 -2.55 -0.6 -2.5 -0.65 -2.45 -0.75 -2.45 -0.9 -2.45 -0.9 -2.6 M-6.3 0.85 L-6.35 0.95 -6.5 1.0 -6.5 0.9 Q-6.5 0.8 -6.45 0.8 L-6.4 0.75 Q-6.35 0.8 -6.3 0.85 M-6.6 1.6 Q-6.6 1.75 -6.7 1.85 -6.8 1.9 -6.9 1.9 L-7.05 1.9 -7.05 1.75 Q-7.05 1.55 -6.85 1.45 -6.6 1.4 -6.6 1.6 M-6.0 1.05 L-6.0 1.15 Q-6.05 1.2 -6.15 1.25 L-6.25 1.2 -6.25 1.15 -6.2 1.0 -6.1 0.9 -6.0 1.0 -6.0 1.05 M-9.0 0.35 Q-9.1 0.35 -9.2 0.25 -9.15 0.1 -9.05 0.0 -8.9 -0.1 -8.9 0.15 L-8.9 0.3 -8.95 0.3 -9.0 0.35" fill="#201535" fill-rule="evenodd" stroke="none"/>
  </g>
</svg>
