<?xml version="1.0" encoding="UTF-8" standalone="no"?>
<svg xmlns:ffdec="https://www.free-decompiler.com/flash" xmlns:xlink="http://www.w3.org/1999/xlink" ffdec:objectType="shape" height="23.2px" width="19.9px" xmlns="http://www.w3.org/2000/svg">
  <g transform="matrix(1.0, 0.0, 0.0, 1.0, 10.05, 9.05)">
    <path d="M7.45 5.3 Q7.7 5.15 7.8 5.25 8.0 5.4 7.75 6.3 L7.7 6.5 7.45 7.25 Q6.95 8.25 6.1 9.35 5.55 10.05 5.2 10.85 5.15 12.15 4.35 13.25 4.2 13.45 3.9 13.6 3.1 14.05 2.35 14.1 L0.9 14.15 Q0.7 14.1 0.65 13.95 0.15 13.85 -0.3 13.2 L-0.5 12.95 Q-2.1 11.55 -3.4 9.9 L-3.55 9.75 -3.6 9.6 -3.7 9.55 -3.75 9.45 -3.75 9.5 -3.75 9.55 -3.75 9.6 -3.65 9.9 -3.7 9.85 -3.9 9.85 -3.9 9.9 Q-4.7 10.05 -5.45 9.5 L-5.95 9.15 Q-8.0 7.95 -8.0 4.4 -8.0 3.95 -7.9 3.55 -7.8 2.95 -7.55 2.45 L-7.5 2.1 Q-9.75 1.9 -10.05 -0.95 L-10.05 -1.55 Q-10.1 -3.55 -8.55 -4.5 L-7.8 -4.25 -7.65 -4.15 -7.6 -4.45 -7.55 -4.8 -7.55 -4.95 -7.5 -5.55 -7.5 -5.7 -7.45 -5.8 -7.35 -6.35 -7.0 -6.45 Q-6.55 -6.25 -6.6 -5.85 L-6.5 -5.9 -6.75 -4.95 -6.8 -4.7 -6.8 -3.9 Q-6.8 -3.6 -6.9 -3.35 L-6.95 -3.45 -7.0 -3.3 -6.9 -3.15 -6.9 -3.1 -6.45 -2.6 -6.4 -2.55 -6.3 -2.7 -6.2 -2.35 -5.9 -1.35 -6.05 -0.9 Q-6.3 -0.95 -6.5 -1.15 -6.65 -1.35 -6.8 -1.75 L-6.8 -1.95 -7.3 -2.5 Q-7.6 -2.6 -7.85 -2.75 L-8.35 -2.75 Q-7.45 -2.2 -6.95 -1.25 -6.5 -0.5 -6.45 0.3 -6.5 0.25 -6.55 0.2 L-6.9 0.0 -6.95 0.15 -7.0 0.25 -7.15 0.4 Q-7.3 0.55 -7.5 0.6 L-7.75 0.6 -7.6 0.75 -7.3 0.95 Q-7.15 1.05 -6.95 1.15 L-6.6 1.25 -6.55 1.3 -6.3 1.25 -6.15 1.35 -6.15 1.4 -6.05 1.45 -5.85 1.45 -6.0 1.55 -6.1 1.55 -6.15 1.65 -6.05 1.75 -6.05 1.8 -5.95 1.95 -5.85 2.15 -5.75 2.25 -5.5 2.6 -5.55 3.0 Q-5.75 4.2 -5.6 5.3 -5.05 6.8 -3.95 8.05 L-3.95 8.2 -1.65 10.9 -1.15 11.45 -1.05 11.55 -0.7 11.85 Q0.15 12.7 1.1 13.4 L1.15 13.45 1.55 13.45 1.6 13.45 1.7 13.5 1.9 13.45 2.45 13.45 2.75 13.45 3.05 13.35 Q3.55 13.1 3.95 12.6 4.3 12.1 4.5 11.4 L4.55 11.15 Q4.45 10.3 4.75 9.65 L4.75 9.6 Q4.75 9.35 4.85 9.2 4.95 9.05 5.05 8.95 L5.1 9.25 Q5.35 8.85 5.65 8.5 L5.8 8.35 6.4 7.65 6.65 7.3 7.15 6.3 7.15 6.2 7.2 6.15 7.35 5.7 7.35 5.65 7.4 5.45 7.4 5.35 7.45 5.3 M-4.15 -8.75 L-4.15 -8.8 -4.15 -8.75 M-8.7 -1.95 L-8.75 -2.2 -8.8 -2.15 -8.8 -1.7 Q-8.75 -1.1 -8.5 -0.5 -8.3 0.05 -7.9 0.45 L-7.85 0.5 Q-7.95 0.15 -7.7 -0.1 -7.55 -0.25 -7.35 -0.35 L-7.55 -0.55 Q-7.95 -0.9 -8.3 -1.4 -8.55 -1.7 -8.7 -1.95 M2.9 7.05 L3.95 7.25 4.5 7.35 4.75 7.3 4.85 7.3 Q4.95 7.25 5.1 7.25 L5.15 7.25 Q5.05 7.45 4.9 7.65 L4.9 7.7 4.75 7.8 4.35 8.25 4.05 8.6 3.8 8.85 3.6 9.1 3.55 9.2 3.5 9.15 3.45 9.25 3.55 9.25 3.6 9.3 3.85 9.3 3.45 9.5 Q3.1 9.7 2.75 9.75 L2.65 9.75 1.5 9.7 1.35 9.7 1.35 9.65 1.05 9.65 Q0.9 9.65 0.8 9.6 L0.85 9.7 0.3 9.3 -0.3 8.75 Q-1.05 8.2 -1.6 7.15 L-1.75 6.75 -1.8 6.7 -1.6 6.35 Q-0.2 7.1 1.45 6.9 L2.8 7.0 2.9 7.05 M-5.8 6.95 Q-6.1 6.35 -6.3 5.65 L-6.5 3.85 Q-6.6 3.35 -6.6 2.85 L-6.6 2.75 -6.65 2.3 -6.75 2.8 -6.75 2.85 -6.8 3.1 Q-6.9 4.45 -6.7 5.75 L-6.5 6.95 -6.35 7.35 Q-6.0 8.15 -5.4 8.65 L-4.85 9.0 Q-4.5 9.1 -4.2 9.25 L-4.1 9.3 -4.65 8.45 Q-5.35 7.8 -5.8 6.95 M-7.1 3.05 L-7.1 3.05 M3.55 8.4 L3.6 8.3 Q3.75 8.1 3.95 7.9 L3.6 7.85 2.6 7.75 Q1.7 7.75 0.8 7.55 L-0.9 7.25 -1.1 7.2 -1.1 7.25 -1.0 7.35 -0.85 7.5 Q-0.1 8.35 0.9 8.9 1.35 9.15 1.95 9.15 L3.0 9.2 3.2 9.2 3.25 9.15 Q3.3 8.95 3.35 8.75 3.45 8.55 3.55 8.4 M3.65 7.45 L3.5 7.45 3.65 7.5 3.65 7.45 M3.25 9.2 L3.25 9.2 M1.6 7.25 L1.6 7.25" fill="#1a1a1a" fill-rule="evenodd" stroke="none"/>
    <path d="M-1.1 7.25 L-1.1 7.2 -0.9 7.25 0.8 7.55 Q1.7 7.75 2.6 7.75 L3.6 7.85 3.95 7.9 Q3.75 8.1 3.6 8.3 L3.55 8.4 3.5 8.4 2.4 8.5 2.0 8.45 1.95 8.4 1.8 8.4 1.8 8.45 Q1.8 8.75 2.3 8.85 2.9 8.95 3.35 8.75 3.3 8.95 3.25 9.15 L3.05 9.2 3.05 9.15 3.0 9.2 1.95 9.15 Q1.35 9.15 0.9 8.9 -0.1 8.35 -0.85 7.5 L-1.0 7.35 -1.0 7.3 -1.1 7.25" fill="#ffffff" fill-rule="evenodd" stroke="none"/>
    <path d="M3.35 8.75 Q2.9 8.95 2.3 8.85 1.8 8.75 1.8 8.45 L1.8 8.4 1.95 8.4 2.0 8.45 2.4 8.5 3.5 8.4 3.55 8.4 Q3.45 8.55 3.35 8.75" fill="#cccccc" fill-rule="evenodd" stroke="none"/>
    <path d="M-3.4 9.9 L-3.3 10.2 -3.6 9.75 -3.7 9.55 -3.75 9.5 -3.75 9.45 -3.7 9.55 -3.6 9.6 -3.55 9.75 -3.4 9.9 M-7.0 0.25 L-6.85 0.9 -7.3 0.95 -7.6 0.75 -7.5 0.6 Q-7.3 0.55 -7.15 0.4 L-7.0 0.25 M-6.15 1.35 L-6.05 1.3 -6.05 1.45 -6.15 1.4 -6.15 1.35 M-6.0 1.55 L-5.9 1.85 -5.9 1.7 -5.85 2.15 -5.95 1.95 -6.05 1.8 -6.05 1.75 -6.15 1.65 -6.1 1.55 -6.0 1.55 M-5.55 3.0 Q-4.95 4.8 -3.95 6.55 -2.95 8.4 -1.45 9.95 -0.35 11.05 0.45 12.4 1.35 12.6 2.3 12.45 3.25 12.25 3.95 12.6 3.55 13.1 3.05 13.35 L2.45 13.45 1.9 13.45 1.6 13.45 1.55 13.45 1.1 13.4 Q0.15 12.7 -0.7 11.85 L-0.5 12.0 -1.15 11.45 -1.65 10.9 -3.95 8.2 -3.95 8.05 Q-5.05 6.8 -5.6 5.3 -5.75 4.2 -5.55 3.0 M-8.8 -1.7 L-8.7 -1.95 Q-8.55 -1.7 -8.3 -1.4 -7.95 -0.9 -7.55 -0.55 -7.8 -0.3 -7.9 0.05 -7.95 0.25 -7.9 0.45 -8.3 0.05 -8.5 -0.5 -8.75 -1.1 -8.8 -1.7 M-5.4 8.65 L-5.6 8.1 Q-5.75 7.5 -5.8 6.95 -5.35 7.8 -4.65 8.45 L-4.1 9.3 -4.2 9.25 Q-4.5 9.1 -4.85 9.0 L-5.4 8.65 M1.8 10.95 Q2.0 10.5 2.5 10.3 2.8 10.15 3.15 10.15 3.5 10.6 2.65 10.95 2.2 11.15 1.8 10.95" fill="#a9854f" fill-rule="evenodd" stroke="none"/>
    <path d="M-4.15 -8.8 L-4.05 -8.8 Q-3.6 -9.25 -3.5 -8.85 L-1.25 -8.65 -1.1 -8.6 0.05 -8.7 Q2.35 -8.45 2.75 -6.55 3.15 -4.65 3.25 -3.25 3.4 -1.85 3.6 -0.55 3.8 0.7 4.25 1.8 L4.35 2.15 4.85 3.2 5.2 3.8 5.35 3.95 Q6.05 4.5 6.6 4.8 7.2 5.1 7.25 5.05 L7.35 5.2 7.45 5.3 7.4 5.35 7.4 5.45 7.35 5.65 7.35 5.7 7.2 6.15 7.15 6.2 7.15 6.3 6.65 7.3 6.4 7.65 5.8 8.35 5.65 8.5 Q5.35 8.85 5.1 9.25 L5.05 8.95 Q4.95 9.05 4.85 9.2 4.75 9.35 4.75 9.6 L4.75 9.65 Q4.45 10.3 4.55 11.15 L4.5 11.4 Q4.3 12.1 3.95 12.6 3.25 12.25 2.3 12.45 1.35 12.6 0.45 12.4 -0.35 11.05 -1.45 9.95 -2.95 8.4 -3.95 6.55 -4.95 4.8 -5.55 3.0 L-5.5 2.6 -5.75 2.25 -5.85 2.15 -5.9 1.7 -5.9 1.85 -6.0 1.55 -5.85 1.45 -6.05 1.45 -6.05 1.3 -6.15 1.35 -6.3 1.25 -6.55 1.3 -6.6 1.25 -6.95 1.15 Q-7.15 1.05 -7.3 0.95 L-6.85 0.9 -7.0 0.25 -6.95 0.15 -6.55 0.55 -6.55 0.2 Q-6.5 0.25 -6.45 0.3 -6.5 -0.5 -6.95 -1.25 -7.45 -2.2 -8.35 -2.75 L-7.85 -2.75 Q-7.6 -2.6 -7.3 -2.5 L-6.8 -1.95 -6.8 -1.75 Q-6.65 -1.35 -6.5 -1.15 -6.3 -0.95 -6.05 -0.9 L-5.9 -1.35 -6.2 -2.35 -6.3 -2.7 -6.4 -2.55 -6.45 -2.6 -6.9 -3.1 -6.9 -3.15 -7.0 -3.3 -6.95 -3.45 -6.9 -3.35 Q-6.8 -3.6 -6.8 -3.9 L-6.8 -4.7 -6.75 -4.95 -6.5 -5.9 -6.6 -5.85 -6.3 -5.95 -6.1 -6.1 Q-5.9 -6.3 -5.6 -6.35 L-5.55 -6.45 -5.5 -6.65 Q-5.0 -7.75 -4.5 -8.25 L-4.25 -8.6 -4.25 -8.7 -4.2 -8.75 -4.15 -8.75 -4.15 -8.8 M-3.7 9.55 L-3.75 9.55 -3.75 9.5 -3.7 9.55 M-8.7 -1.95 L-8.8 -1.7 -8.8 -2.15 -8.75 -2.2 -8.7 -1.95 M2.8 7.0 L1.45 6.9 Q-0.2 7.1 -1.6 6.35 L-1.8 6.7 -1.75 6.75 -1.6 7.15 Q-1.05 8.2 -0.3 8.75 L0.3 9.3 0.85 9.7 0.8 9.6 Q0.9 9.65 1.05 9.65 L1.35 9.65 1.35 9.7 1.5 9.7 2.65 9.75 2.75 9.75 Q3.1 9.7 3.45 9.5 L3.85 9.3 3.6 9.3 3.55 9.25 3.45 9.25 3.5 9.15 3.55 9.2 3.6 9.1 3.8 8.85 4.05 8.6 4.35 8.25 4.75 7.8 4.9 7.7 4.9 7.65 Q5.05 7.45 5.15 7.25 L5.1 7.25 Q4.95 7.25 4.85 7.3 L4.75 7.3 4.5 7.35 3.95 7.25 2.9 7.05 2.8 7.0 M-1.15 11.45 L-0.5 12.0 -0.7 11.85 -1.05 11.55 -1.15 11.45 M1.1 13.4 L1.55 13.45 1.15 13.45 1.1 13.4 M1.6 13.45 L1.9 13.45 1.7 13.5 1.6 13.45 M2.45 13.45 L3.05 13.35 2.75 13.45 2.45 13.45 M-5.4 8.65 Q-6.0 8.15 -6.35 7.35 L-6.5 6.95 -6.7 5.75 Q-6.9 4.45 -6.8 3.1 L-6.75 2.85 -6.75 2.8 -6.65 2.3 -6.6 2.75 -6.6 2.85 Q-6.6 3.35 -6.5 3.85 L-6.3 5.65 Q-6.1 6.35 -5.8 6.95 -5.75 7.5 -5.6 8.1 L-5.4 8.65 M-7.1 3.05 L-7.1 3.05 M-1.1 7.25 L-1.0 7.3 -1.0 7.35 -1.1 7.25 M3.0 9.2 L3.05 9.15 3.05 9.2 3.25 9.15 3.2 9.2 3.0 9.2 M1.6 7.25 L1.6 7.25 M3.25 9.2 L3.25 9.2 M3.65 7.45 L3.65 7.5 3.5 7.45 3.65 7.45 M1.8 10.95 Q2.2 11.15 2.65 10.95 3.5 10.6 3.15 10.15 2.8 10.15 2.5 10.3 2.0 10.5 1.8 10.95" fill="#c7a36d" fill-rule="evenodd" stroke="none"/>
    <path d="M-6.55 0.2 L-6.55 0.55 -6.95 0.15 -6.9 0.0 -6.55 0.2 M-7.9 0.45 Q-7.95 0.25 -7.9 0.05 -7.8 -0.3 -7.55 -0.55 L-7.35 -0.35 Q-7.55 -0.25 -7.7 -0.1 -7.95 0.15 -7.85 0.5 L-7.9 0.45 M-7.5 0.6 L-7.6 0.75 -7.75 0.6 -7.5 0.6" fill="#111111" fill-rule="evenodd" stroke="none"/>
    <path d="M2.8 7.0 L2.9 7.05 2.8 7.0" fill="#8c7c63" fill-rule="evenodd" stroke="none"/>
    <path d="M9.75 6.15 Q9.85 6.45 9.85 6.75 9.85 7.35 9.65 7.85 9.3 8.8 8.35 8.8 7.55 8.8 6.65 8.2 L5.85 7.5 Q5.45 7.3 4.35 7.05 3.7 6.95 3.7 6.5 3.7 6.35 3.8 6.2 3.85 6.05 4.05 6.05 5.4 6.05 6.7 7.05 L7.55 7.7 Q8.0 8.05 8.4 8.05 9.25 8.05 9.6 6.8 9.6 6.45 9.4 6.25 L8.9 5.6 9.15 5.55 Q9.6 5.55 9.75 6.15 M1.25 6.5 L-0.9 6.4 Q-1.35 6.4 -1.6 6.6 -1.85 6.85 -2.3 6.85 -3.6 6.85 -4.05 6.0 -4.25 5.6 -4.2 5.15 -4.2 4.6 -4.15 4.35 -3.95 3.8 -3.4 3.55 L-2.7 3.55 Q-2.5 3.75 -2.45 3.8 L-2.5 3.95 Q-3.05 3.9 -3.35 4.15 -3.6 4.4 -3.6 4.7 -3.6 5.1 -3.45 5.45 -3.15 6.0 -2.5 6.0 -2.1 6.0 -1.35 5.7 -0.55 5.4 0.3 5.4 1.6 5.4 2.25 5.7 2.75 5.95 2.75 6.2 2.75 6.4 2.65 6.5 2.55 6.6 2.35 6.6 L1.25 6.5" fill="#1a1a1a" fill-rule="evenodd" stroke="none"/>
  </g>
</svg>
