<?xml version="1.0" encoding="UTF-8" standalone="no"?>
<svg xmlns:ffdec="https://www.free-decompiler.com/flash" xmlns:xlink="http://www.w3.org/1999/xlink" ffdec:objectType="shape" height="22.4px" width="17.95px" xmlns="http://www.w3.org/2000/svg">
  <g transform="matrix(1.0, 0.0, 0.0, 1.0, 10.05, 8.85)">
    <path d="M7.45 5.3 Q7.65 5.2 7.75 5.2 L7.8 5.25 Q8.0 5.4 7.75 6.3 L7.7 6.5 7.65 6.65 7.65 6.7 Q7.4 7.45 7.0 8.1 6.6 8.8 6.65 9.7 6.7 10.3 6.55 10.65 L6.55 11.15 Q6.45 11.25 6.2 11.85 5.85 12.45 5.35 12.45 3.85 13.55 1.75 13.55 L0.4 13.45 -0.65 13.3 -1.15 12.8 Q-1.5 12.4 -1.6 12.2 L-1.6 12.1 -2.1 11.55 -3.0 10.4 -3.05 10.35 -3.4 9.9 -3.5 9.85 -3.65 9.85 -3.65 9.9 -3.7 9.85 -3.9 9.85 -3.9 9.9 Q-4.7 10.05 -5.45 9.5 L-5.95 9.15 Q-8.0 7.95 -8.0 4.4 -8.0 3.95 -7.9 3.55 -7.8 2.95 -7.55 2.45 L-7.5 2.1 Q-9.75 1.9 -10.05 -0.95 L-10.05 -1.55 Q-10.1 -3.55 -8.55 -4.5 L-7.8 -4.25 -7.65 -4.15 -7.6 -4.45 -7.55 -4.8 -7.55 -4.95 -7.5 -5.55 -7.5 -5.7 -7.45 -5.8 -7.35 -6.35 -7.0 -6.45 Q-6.55 -6.25 -6.6 -5.85 L-6.5 -5.9 -6.75 -4.95 -6.8 -4.7 -6.8 -4.0 -6.55 -4.3 Q-6.0 -4.85 -5.5 -5.05 L-5.4 -5.05 -5.4 -4.95 Q-5.4 -4.8 -6.0 -4.2 -6.45 -3.8 -6.85 -3.45 L-6.9 -3.35 -6.9 -3.4 -7.0 -3.3 -6.9 -3.15 -6.9 -3.1 -6.8 -3.0 -6.4 -3.55 Q-6.0 -4.05 -5.75 -4.25 L-5.7 -4.3 Q-5.55 -4.45 -5.5 -4.35 L-5.4 -4.4 Q-5.25 -4.85 -5.1 -4.95 L-5.05 -4.85 -5.0 -4.7 -5.25 -3.75 Q-5.45 -2.75 -5.45 -1.8 L-5.4 -1.1 -5.35 -0.45 -5.15 0.45 -4.8 1.5 -4.8 1.55 -4.6 2.15 -3.85 4.15 Q-3.85 4.2 -4.5 4.85 -5.0 5.5 -5.25 6.15 L-5.15 6.3 Q-5.0 6.0 -4.65 5.65 -3.95 4.85 -3.5 4.95 L-3.45 4.95 -3.45 5.05 -3.5 5.1 -4.1 5.8 -4.9 6.8 -4.8 6.95 -4.6 6.7 Q-4.25 6.3 -4.0 6.4 L-3.95 6.4 -3.95 6.5 Q-3.95 6.6 -4.55 7.3 L-4.25 7.65 -4.05 8.05 -3.95 8.2 -1.55 11.0 -1.4 11.1 -1.15 11.4 -0.25 11.25 Q1.85 10.25 4.1 9.95 L4.1 9.9 Q4.25 9.8 4.35 9.85 4.45 9.75 4.75 9.8 5.0 9.8 5.2 9.9 L5.65 10.0 5.75 10.05 5.75 9.7 Q5.65 9.25 5.8 8.8 5.85 8.5 6.05 8.15 L6.2 7.85 6.8 6.6 Q7.05 6.0 7.4 5.35 L7.45 5.3 M-4.15 -8.75 L-4.15 -8.8 -4.15 -8.75 M-8.7 -1.95 L-8.75 -2.2 -8.8 -2.15 -8.8 -1.7 Q-8.75 -1.1 -8.5 -0.5 -8.3 0.05 -7.9 0.45 L-7.85 0.5 Q-7.95 0.15 -7.7 -0.1 -7.55 -0.25 -7.35 -0.35 L-7.55 -0.55 Q-7.95 -0.9 -8.3 -1.4 -8.55 -1.7 -8.7 -1.95 M-6.55 -2.7 L-6.5 -2.35 Q-6.2 -2.2 -6.05 -1.85 L-6.05 -2.2 Q-6.05 -2.85 -6.0 -3.25 L-6.55 -2.7 M-6.2 0.75 L-6.25 0.05 -6.35 -0.65 -6.5 -1.15 Q-6.65 -1.35 -6.8 -1.75 L-6.8 -1.95 -7.3 -2.5 Q-7.6 -2.6 -7.85 -2.75 L-8.35 -2.75 Q-7.45 -2.2 -6.95 -1.25 L-6.9 -1.2 -6.6 -0.55 -6.55 -0.3 Q-6.45 0.0 -6.45 0.3 -6.5 0.25 -6.55 0.2 L-6.9 0.0 -6.95 0.15 -7.0 0.25 -7.1 0.4 -7.15 0.4 Q-7.3 0.55 -7.5 0.6 L-7.75 0.6 -7.6 0.75 -7.3 0.95 -7.0 1.1 -6.95 1.15 -6.6 1.25 -6.55 1.3 -6.5 1.3 -6.35 1.35 -6.2 0.85 -6.2 0.75 M-5.65 0.5 L-5.75 0.95 -5.8 1.15 -5.85 1.3 -5.95 2.35 -5.95 2.45 -5.65 3.8 -5.6 3.95 -5.6 4.0 -5.55 4.1 -5.35 4.85 Q-5.1 4.5 -4.5 3.85 -4.5 3.75 -4.75 3.1 L-5.3 1.7 -5.5 1.1 -5.65 0.5 M-6.5 4.25 L-6.45 4.2 -6.5 3.85 -6.6 2.95 -6.7 2.5 -6.65 2.4 -6.65 2.3 -6.75 2.8 -6.75 2.85 -6.8 3.1 Q-6.9 4.45 -6.7 5.75 L-6.5 6.95 -6.35 7.35 Q-6.0 8.15 -5.4 8.65 L-4.85 9.0 Q-4.5 9.1 -4.2 9.25 L-4.1 9.3 -4.3 8.95 -4.35 8.95 -4.4 8.9 -4.45 8.7 -4.5 8.65 -4.55 8.65 -5.8 6.95 Q-6.2 5.85 -6.4 4.75 L-6.5 4.25 M-6.2 5.9 L-6.3 5.65 -6.35 5.3 -6.2 5.9 M-7.1 3.05 L-7.1 3.05 M-1.15 11.7 L-1.15 11.75 -0.9 12.0 -0.25 12.75 -0.3 12.8 -0.25 12.85 -0.15 12.75 Q0.05 12.65 0.55 12.5 1.4 12.25 1.6 12.45 1.55 12.55 1.15 12.65 L1.25 12.65 Q1.1 12.8 0.75 12.9 L0.3 13.0 0.9 13.05 Q3.15 13.05 4.45 12.55 L4.55 12.35 Q4.7 12.05 4.85 12.0 L4.9 12.05 5.0 12.1 4.9 12.35 5.05 12.25 Q5.1 12.15 5.35 12.0 L5.45 11.95 5.7 11.7 5.7 11.5 Q5.6 11.25 5.35 10.8 L5.3 10.7 5.05 10.3 4.95 10.3 4.95 10.5 Q4.95 10.85 4.9 11.0 L4.85 11.05 4.65 11.65 4.6 11.65 4.6 11.2 Q4.7 11.0 4.7 10.5 L4.7 10.3 4.45 10.25 Q4.4 10.65 4.15 11.1 L3.9 11.5 3.45 11.95 3.4 11.95 Q3.4 11.85 3.45 11.7 L3.55 11.55 3.8 11.0 Q4.0 10.65 4.05 10.4 L3.9 10.45 3.35 11.1 Q3.05 11.45 2.75 11.65 2.55 11.85 2.35 11.9 L2.55 11.7 3.55 10.55 2.95 10.75 2.4 10.9 2.25 10.95 Q1.9 11.05 1.5 11.25 L1.2 11.35 0.85 11.5 -0.75 11.7 -1.15 11.7 M4.4 8.4 Q4.2 8.55 4.15 8.55 L4.05 8.55 Q4.0 8.6 3.9 8.6 3.55 8.5 3.35 8.35 L0.8 8.7 0.5 8.75 0.1 8.75 0.05 8.65 0.0 8.6 Q0.05 8.55 0.1 8.5 0.55 8.0 1.5 7.6 2.4 7.25 3.4 7.15 4.35 7.0 5.0 7.2 5.7 7.45 5.7 8.0 5.7 8.15 5.65 8.25 L5.5 8.4 5.4 8.55 5.2 8.45 5.15 8.4 Q4.95 8.3 4.75 8.3 4.55 8.3 4.4 8.4 M5.3 7.95 Q5.3 7.9 5.15 7.75 4.85 7.55 4.45 7.55 L3.2 7.6 Q2.75 7.65 1.6 8.15 L1.75 8.15 3.5 8.0 Q3.65 8.1 3.85 8.2 L3.9 8.25 Q3.95 7.95 4.6 8.0 5.0 8.0 5.25 8.15 5.3 8.05 5.3 7.95" fill="#1a1a1a" fill-rule="evenodd" stroke="none"/>
    <path d="M-3.4 9.9 L-3.3 10.2 -3.5 9.85 -3.4 9.9 M-4.8 1.5 Q-4.0 2.15 -3.7 2.4 -3.25 2.85 -3.25 3.35 -3.25 3.5 -3.45 4.95 L-3.5 4.95 Q-3.95 4.85 -4.65 5.65 -5.0 6.0 -5.15 6.3 L-5.25 6.15 Q-5.0 5.5 -4.5 4.85 -3.85 4.2 -3.85 4.15 L-4.6 2.15 -4.8 1.55 -4.8 1.5 M-3.5 5.1 L-3.5 5.35 Q-3.5 6.15 -3.55 6.55 -3.65 7.1 -3.2 7.7 -2.7 8.35 -2.2 8.95 L-1.75 9.55 -1.2 10.15 Q-0.75 10.75 -0.25 11.25 L-1.15 11.4 -1.4 11.1 -1.55 11.0 -3.95 8.2 -4.05 8.05 -4.25 7.65 -4.55 7.3 Q-3.95 6.6 -3.95 6.5 L-3.95 6.4 -4.0 6.4 Q-4.25 6.3 -4.6 6.7 L-4.8 6.95 -4.9 6.8 -4.1 5.8 -3.5 5.1 M-8.8 -1.7 L-8.7 -1.95 Q-8.55 -1.7 -8.3 -1.4 -7.95 -0.9 -7.55 -0.55 -7.8 -0.3 -7.9 0.05 -7.95 0.25 -7.9 0.45 -8.3 0.05 -8.5 -0.5 -8.75 -1.1 -8.8 -1.7 M-6.2 0.75 L-6.2 0.85 -6.35 1.35 -6.5 1.3 -6.7 1.2 -7.05 1.1 -7.05 0.95 -7.3 0.95 -7.6 0.75 -7.5 0.6 Q-7.3 0.55 -7.15 0.4 L-7.1 0.4 -7.0 0.25 -6.9 0.6 Q-6.6 0.6 -6.2 0.75 M-5.4 8.65 L-5.6 8.1 Q-5.75 7.6 -5.75 7.2 -5.85 7.0 -6.0 6.9 L-6.2 5.9 -6.35 5.3 -6.5 4.65 Q-6.55 4.4 -6.6 4.25 L-6.7 4.3 -6.7 4.15 -6.6 4.25 -6.5 4.25 -6.4 4.75 Q-6.2 5.85 -5.8 6.95 L-4.55 8.65 -4.5 8.65 -4.45 8.7 -4.4 8.9 -4.35 8.95 -4.3 8.95 -4.1 9.3 -4.2 9.25 Q-4.5 9.1 -4.85 9.0 L-5.4 8.65 M5.3 7.95 Q5.3 8.05 5.25 8.15 5.0 8.0 4.6 8.0 3.95 7.95 3.9 8.25 L3.85 8.2 Q3.65 8.1 3.5 8.0 L1.75 8.15 1.6 8.15 Q2.75 7.65 3.2 7.6 L4.45 7.55 Q4.85 7.55 5.15 7.75 5.3 7.9 5.3 7.95 M3.35 9.75 L3.2 9.7 3.2 9.55 Q3.35 9.3 4.0 9.15 4.7 8.95 4.7 9.35 4.7 9.5 4.4 9.65 4.1 9.75 3.6 9.75 L3.35 9.75" fill="#a9854f" fill-rule="evenodd" stroke="none"/>
    <path d="M-4.15 -8.8 Q-3.7 -8.95 -1.1 -8.6 L0.05 -8.7 Q2.35 -8.45 2.75 -6.55 3.15 -4.65 3.25 -3.25 3.4 -1.85 3.6 -0.55 3.8 0.7 4.25 1.8 L4.35 2.15 4.85 3.2 5.2 3.8 5.5 4.1 5.75 4.1 5.95 4.35 6.15 4.45 6.55 4.75 6.6 4.8 Q7.2 5.1 7.25 5.05 L7.35 5.2 7.45 5.3 7.4 5.35 Q7.05 6.0 6.8 6.6 L6.2 7.85 6.05 8.15 Q5.85 8.5 5.8 8.8 5.65 9.25 5.75 9.7 L5.75 10.05 5.65 10.0 5.2 9.9 Q5.0 9.8 4.75 9.8 4.45 9.75 4.35 9.85 4.25 9.8 4.1 9.9 L4.1 9.95 Q1.85 10.25 -0.25 11.25 -0.75 10.75 -1.2 10.15 L-1.75 9.55 -2.2 8.95 Q-2.7 8.35 -3.2 7.7 -3.65 7.1 -3.55 6.55 -3.5 6.15 -3.5 5.35 L-3.5 5.1 -3.45 5.05 -3.45 4.95 Q-3.25 3.5 -3.25 3.35 -3.25 2.85 -3.7 2.4 -4.0 2.15 -4.8 1.5 L-5.15 0.45 -5.35 -0.45 -5.4 -1.1 -5.45 -1.8 Q-5.45 -2.75 -5.25 -3.75 L-5.0 -4.7 -5.05 -4.85 -5.1 -4.95 Q-5.25 -4.85 -5.4 -4.4 L-5.5 -4.35 Q-5.55 -4.45 -5.7 -4.3 L-5.75 -4.25 Q-6.0 -4.05 -6.4 -3.55 L-6.8 -3.0 -6.9 -3.1 -6.9 -3.15 -7.0 -3.3 -6.9 -3.4 -6.9 -3.35 -6.85 -3.45 Q-6.45 -3.8 -6.0 -4.2 -5.4 -4.8 -5.4 -4.95 L-5.4 -5.05 -5.5 -5.05 Q-6.0 -4.85 -6.55 -4.3 L-6.8 -4.0 -6.8 -4.7 -6.75 -4.95 -6.5 -5.9 -6.6 -5.85 -6.3 -5.95 -6.1 -6.1 Q-5.9 -6.3 -5.6 -6.35 L-5.55 -6.45 -5.5 -6.65 Q-5.0 -7.75 -4.5 -8.25 L-4.25 -8.6 -4.25 -8.7 -4.2 -8.7 -4.15 -8.75 -4.15 -8.8 M-8.8 -1.7 L-8.8 -2.15 -8.75 -2.2 -8.7 -1.95 -8.8 -1.7 M-6.55 0.2 Q-6.5 0.25 -6.45 0.3 -6.45 0.0 -6.55 -0.3 L-6.6 -0.55 -6.9 -1.2 -6.95 -1.25 Q-7.45 -2.2 -8.35 -2.75 L-7.85 -2.75 Q-7.6 -2.6 -7.3 -2.5 L-6.8 -1.95 -6.8 -1.75 Q-6.65 -1.35 -6.5 -1.15 L-6.35 -0.65 -6.25 0.05 -6.2 0.75 Q-6.6 0.6 -6.9 0.6 L-7.0 0.25 -6.95 0.15 -6.55 0.55 -6.55 0.2 M-6.5 1.3 L-6.55 1.3 -6.6 1.25 -6.95 1.15 -7.0 1.1 -7.3 0.95 -7.05 0.95 -7.05 1.1 -6.7 1.2 -6.5 1.3 M-5.4 8.65 Q-6.0 8.15 -6.35 7.35 L-6.5 6.95 -6.7 5.75 Q-6.9 4.45 -6.8 3.1 L-6.75 2.85 -6.75 2.8 -6.65 2.3 -6.65 2.4 -6.7 2.5 -6.6 2.95 -6.5 3.85 -6.45 4.2 -6.5 4.25 -6.6 4.25 -6.7 4.15 -6.7 4.3 -6.6 4.25 Q-6.55 4.4 -6.5 4.65 L-6.35 5.3 -6.3 5.65 -6.2 5.9 -6.0 6.9 Q-5.85 7.0 -5.75 7.2 -5.75 7.6 -5.6 8.1 L-5.4 8.65 M-7.1 3.05 L-7.1 3.05 M4.4 8.4 Q4.55 8.3 4.75 8.3 4.95 8.3 5.15 8.4 L5.2 8.45 5.4 8.55 5.5 8.4 5.65 8.25 Q5.7 8.15 5.7 8.0 5.7 7.45 5.0 7.2 4.35 7.0 3.4 7.15 2.4 7.25 1.5 7.6 0.55 8.0 0.1 8.5 0.05 8.55 0.0 8.6 L0.05 8.65 0.1 8.75 0.5 8.75 0.8 8.7 3.35 8.35 Q3.55 8.5 3.9 8.6 4.0 8.6 4.05 8.55 L4.15 8.55 Q4.2 8.55 4.4 8.4 M3.35 9.75 L3.6 9.75 Q4.1 9.75 4.4 9.65 4.7 9.5 4.7 9.35 4.7 8.95 4.0 9.15 3.35 9.3 3.2 9.55 L3.2 9.7 3.35 9.75" fill="#c7a36d" fill-rule="evenodd" stroke="none"/>
    <path d="M-7.55 -0.55 L-7.35 -0.35 Q-7.55 -0.25 -7.7 -0.1 -7.95 0.15 -7.85 0.5 L-7.9 0.45 Q-7.95 0.25 -7.9 0.05 -7.8 -0.3 -7.55 -0.55 M-7.6 0.75 L-7.75 0.6 -7.5 0.6 -7.6 0.75 M-6.95 0.15 L-6.9 0.0 -6.55 0.2 -6.55 0.55 -6.95 0.15" fill="#111111" fill-rule="evenodd" stroke="none"/>
    <path d="M-6.55 -2.7 L-6.0 -3.25 Q-6.05 -2.85 -6.05 -2.2 L-6.05 -1.85 Q-6.2 -2.2 -6.5 -2.35 L-6.55 -2.7 M-5.65 0.5 L-5.5 1.1 -5.3 1.7 -4.75 3.1 Q-4.5 3.75 -4.5 3.85 -5.1 4.5 -5.35 4.85 L-5.55 4.1 -5.6 4.0 -5.6 3.95 -5.65 3.8 -5.95 2.45 -5.95 2.35 -5.85 1.3 -5.8 1.15 -5.75 0.95 -5.65 0.5 M-1.15 11.7 L-0.75 11.7 0.85 11.5 1.2 11.35 1.5 11.25 Q1.9 11.05 2.25 10.95 L2.4 10.9 2.95 10.75 3.55 10.55 2.55 11.7 2.35 11.9 Q2.55 11.85 2.75 11.65 3.05 11.45 3.35 11.1 L3.9 10.45 4.05 10.4 Q4.0 10.65 3.8 11.0 L3.55 11.55 3.45 11.7 Q3.4 11.85 3.4 11.95 L3.45 11.95 3.9 11.5 4.15 11.1 Q4.4 10.65 4.45 10.25 L4.7 10.3 4.7 10.5 Q4.7 11.0 4.6 11.2 L4.6 11.65 4.65 11.65 4.85 11.05 4.9 11.0 Q4.95 10.85 4.95 10.5 L4.95 10.3 5.05 10.3 5.3 10.7 5.35 10.8 Q5.6 11.25 5.7 11.5 L5.7 11.7 5.45 11.95 5.35 12.0 Q5.1 12.15 5.05 12.25 L4.9 12.35 5.0 12.1 4.9 12.05 4.85 12.0 Q4.7 12.05 4.55 12.35 L4.45 12.55 Q3.15 13.05 0.9 13.05 L0.3 13.0 0.75 12.9 Q1.1 12.8 1.25 12.65 L1.15 12.65 Q1.55 12.55 1.6 12.45 1.4 12.25 0.55 12.5 0.05 12.65 -0.15 12.75 L-0.25 12.85 -0.3 12.8 -0.25 12.75 -0.9 12.0 -1.15 11.75 -1.15 11.7" fill="#003366" fill-rule="evenodd" stroke="none"/>
  </g>
</svg>
