<?xml version="1.0" encoding="UTF-8" standalone="no"?>
<svg xmlns:ffdec="https://www.free-decompiler.com/flash" xmlns:xlink="http://www.w3.org/1999/xlink" ffdec:objectType="shape" height="16.3px" width="16.25px" xmlns="http://www.w3.org/2000/svg">
  <g transform="matrix(1.0, 0.0, 0.0, 1.0, 12.4, 7.05)">
    <path d="M3.45 4.6 L3.45 4.65 3.4 4.65 3.3 5.0 2.7 6.45 Q2.3 6.9 1.85 7.3 L1.15 7.75 Q0.55 8.15 0.1 8.2 -0.4 8.25 -0.95 8.4 -2.4 7.95 -3.85 6.95 L-4.05 6.85 -4.0 6.8 -4.0 6.75 -4.9 5.85 -5.7 4.95 -6.4 4.15 Q-7.05 3.35 -7.55 2.45 L-7.75 2.1 Q-7.85 1.85 -7.9 1.55 -7.95 1.45 -8.0 1.35 L-8.15 1.2 Q-8.25 1.3 -8.4 1.3 -8.2 1.0 -8.2 0.85 -8.2 0.7 -8.3 0.65 -8.3 0.6 -8.4 0.55 -8.65 0.6 -8.85 0.75 L-9.3 1.0 -9.45 1.0 -9.6 1.0 -10.3 1.0 Q-10.9 0.95 -11.3 0.05 -11.6 -0.6 -11.6 -1.25 -11.6 -1.45 -11.35 -1.8 -11.0 -2.25 -10.45 -2.35 -10.1 -2.3 -9.85 -2.0 L-9.7 -1.75 -9.6 -1.55 -9.35 -1.55 -9.25 -1.45 Q-9.2 -1.55 -9.15 -1.55 -9.2 -1.9 -9.35 -2.15 -9.45 -2.4 -9.6 -2.5 L-9.75 -2.6 -9.85 -2.65 Q-10.05 -2.8 -10.25 -2.85 -10.25 -3.1 -10.5 -3.6 -10.8 -4.3 -10.85 -4.7 -10.85 -5.15 -11.05 -5.65 L-11.05 -5.75 -11.1 -5.85 -11.1 -6.05 Q-9.55 -6.45 -7.8 -6.5 -6.8 -6.5 -5.85 -6.75 -5.45 -6.9 -5.05 -7.0 L-4.85 -7.05 -4.85 -7.0 -4.55 -7.05 Q-2.6 -6.45 -2.0 -4.4 -1.5 -2.95 -0.75 -1.65 0.0 -0.35 0.9 0.85 L1.3 1.4 Q1.75 2.15 2.35 2.7 L2.9 3.15 Q3.35 3.55 3.45 4.2 3.5 4.4 3.45 4.6 M-10.95 -3.05 L-10.85 -2.9 -10.9 -2.9 -10.9 -2.85 -10.95 -2.85 -10.95 -3.05 M-10.3 0.45 Q-10.2 0.6 -10.0 0.6 -9.9 0.6 -9.9 0.55 L-9.9 0.5 Q-9.85 0.55 -9.85 0.3 L-9.85 0.0 -9.5 -0.65 -9.55 -0.75 -9.6 -0.8 -9.65 -0.8 Q-9.75 -1.25 -10.2 -1.55 -10.5 -1.75 -10.7 -1.65 -11.05 -2.15 -11.05 -1.25 -11.0 -0.8 -10.85 -0.35 -10.6 0.35 -10.3 0.45 M-10.3 -0.85 L-10.15 -0.75 -10.25 -0.7 -10.3 -0.85 M-0.65 5.95 Q-0.5 6.05 -0.25 6.05 L-0.05 6.05 0.0 6.15 Q0.1 6.35 0.2 6.5 L0.35 6.65 Q0.65 7.0 1.1 7.0 1.65 7.0 1.9 6.45 L2.05 6.1 2.1 5.8 2.1 5.75 2.05 5.55 2.15 5.45 2.2 5.3 2.15 5.25 Q2.1 4.85 1.95 5.1 1.65 5.5 1.55 5.5 1.5 5.5 1.4 5.4 1.35 5.3 1.2 5.3 0.9 5.3 0.25 5.55 -0.25 5.75 -0.4 5.85 L-0.7 5.9 -0.75 5.9 -0.65 5.95" fill="#c7a36d" fill-rule="evenodd" stroke="none"/>
    <path d="M2.7 6.45 L2.5 7.4 Q2.4 7.65 2.1 7.95 0.95 9.0 -0.95 8.4 -0.4 8.25 0.1 8.2 0.55 8.15 1.15 7.75 L1.85 7.3 Q2.3 6.9 2.7 6.45 M-4.05 6.85 L-4.25 6.7 -5.35 5.85 Q-6.7 4.7 -7.65 3.5 L-8.3 2.7 -8.4 2.55 -8.4 2.6 -8.45 2.55 Q-8.7 2.2 -9.0 1.95 L-9.0 1.9 Q-9.2 1.8 -9.35 1.7 L-9.15 1.65 -9.1 1.65 Q-8.7 1.65 -8.4 1.3 -8.25 1.3 -8.15 1.2 L-8.0 1.35 Q-7.95 1.45 -7.9 1.55 -7.85 1.85 -7.75 2.1 L-7.55 2.45 Q-7.05 3.35 -6.4 4.15 L-5.7 4.95 -4.9 5.85 -4.0 6.75 -4.0 6.8 -4.05 6.85 M-9.45 1.0 L-9.6 1.0 -9.45 1.0 M-10.3 0.45 Q-10.6 0.35 -10.85 -0.35 -11.0 -0.8 -11.05 -1.25 -11.05 -2.15 -10.7 -1.65 L-10.75 -1.65 -11.0 -1.35 -11.05 -1.35 Q-10.9 -1.2 -10.45 -0.9 L-10.4 -0.85 -10.3 -0.85 -10.25 -0.7 -10.3 -0.65 Q-10.5 -0.4 -10.5 -0.1 -10.5 0.1 -10.4 0.25 L-10.3 0.45 M-9.65 1.75 L-9.65 1.75 M-7.4 5.85 L-7.55 4.95 -7.75 4.2 Q-7.15 4.95 -6.5 5.65 -4.9 7.3 -3.5 8.1 -6.1 7.8 -6.95 6.8 -7.25 6.4 -7.4 5.85" fill="#a9854f" fill-rule="evenodd" stroke="none"/>
    <path d="M3.45 4.6 L3.45 4.5 Q3.6 4.05 3.7 4.05 L3.75 4.15 3.8 4.35 3.85 4.4 3.75 4.7 Q3.45 5.65 3.3 6.55 L3.1 7.0 Q2.55 8.2 2.0 8.7 1.7 9.0 1.35 9.15 0.8 9.35 0.15 9.2 -0.85 9.05 -1.7 8.75 -2.3 8.65 -2.85 8.4 -3.15 8.55 -3.9 8.55 L-4.0 8.55 Q-5.75 8.6 -7.25 7.15 -8.1 6.3 -8.35 5.15 -8.7 3.5 -9.75 2.1 -9.9 1.9 -9.9 1.75 L-9.95 1.75 Q-10.25 1.75 -10.6 1.65 -10.8 1.55 -11.0 1.4 -11.4 1.15 -11.7 0.75 L-11.95 0.45 -12.0 0.35 -12.05 0.3 -12.2 -0.05 -12.3 -0.35 Q-12.4 -0.75 -12.4 -1.15 -12.35 -1.5 -12.2 -1.8 L-12.0 -2.15 -11.5 -2.65 -11.25 -2.85 -11.3 -3.15 -11.7 -4.4 -11.8 -4.75 -11.85 -5.05 -11.85 -5.45 -11.9 -5.5 Q-11.9 -5.7 -11.95 -5.85 L-11.65 -6.0 -11.65 -6.15 Q-11.5 -6.15 -11.35 -6.1 L-11.1 -6.2 -11.1 -6.05 -11.1 -5.85 -11.05 -5.75 -11.05 -5.65 Q-10.85 -5.15 -10.85 -4.7 -10.8 -4.3 -10.5 -3.6 -10.25 -3.1 -10.25 -2.85 -10.05 -2.8 -9.85 -2.65 L-9.75 -2.6 -9.6 -2.5 Q-9.45 -2.4 -9.35 -2.15 -9.2 -1.9 -9.15 -1.55 -9.2 -1.55 -9.25 -1.45 L-9.35 -1.55 -9.6 -1.55 -9.7 -1.75 -9.85 -2.0 Q-10.1 -2.3 -10.45 -2.35 -11.0 -2.25 -11.35 -1.8 -11.6 -1.45 -11.6 -1.25 -11.6 -0.6 -11.3 0.05 -10.9 0.95 -10.3 1.0 L-9.6 1.0 -9.45 1.0 -9.3 1.0 -8.85 0.75 Q-8.65 0.6 -8.4 0.55 -8.3 0.6 -8.3 0.65 -8.2 0.7 -8.2 0.85 -8.2 1.0 -8.4 1.3 -8.7 1.65 -9.1 1.65 L-9.15 1.65 -9.35 1.7 Q-9.2 1.8 -9.0 1.9 L-9.0 1.95 Q-8.7 2.2 -8.45 2.55 L-8.4 2.6 -8.4 2.55 -8.3 2.7 -7.65 3.5 Q-6.7 4.7 -5.35 5.85 L-4.25 6.7 -4.05 6.85 -3.85 6.95 Q-2.4 7.95 -0.95 8.4 0.95 9.0 2.1 7.95 2.4 7.65 2.5 7.4 L2.7 6.45 3.3 5.0 3.4 4.65 3.45 4.65 3.45 4.6 M-10.95 -3.05 L-10.95 -2.85 -10.9 -2.85 -10.9 -2.9 -10.85 -2.9 -10.95 -3.05 M-10.7 -1.65 Q-10.5 -1.75 -10.2 -1.55 -9.75 -1.25 -9.65 -0.8 L-9.6 -0.8 -9.55 -0.75 -9.5 -0.65 -9.85 0.0 -9.85 0.3 Q-9.85 0.55 -9.9 0.5 L-9.9 0.55 Q-9.9 0.6 -10.0 0.6 -10.2 0.6 -10.3 0.45 L-10.4 0.25 Q-10.5 0.1 -10.5 -0.1 -10.5 -0.4 -10.3 -0.65 L-10.25 -0.7 -10.15 -0.75 -10.3 -0.85 -10.4 -0.85 -10.45 -0.9 Q-10.9 -1.2 -11.05 -1.35 L-11.0 -1.35 -10.75 -1.65 -10.7 -1.65 M-0.65 5.95 L-0.75 5.9 -0.7 5.9 -0.4 5.85 Q-0.25 5.75 0.25 5.55 0.9 5.3 1.2 5.3 1.35 5.3 1.4 5.4 1.5 5.5 1.55 5.5 1.65 5.5 1.95 5.1 2.1 4.85 2.15 5.25 L2.2 5.3 2.15 5.45 2.05 5.55 2.1 5.75 2.1 5.8 2.05 6.1 1.9 6.45 Q1.65 7.0 1.1 7.0 0.65 7.0 0.35 6.65 L0.2 6.5 Q0.1 6.35 0.0 6.15 L-0.05 6.05 -0.25 6.05 Q-0.5 6.05 -0.65 5.95 M-9.65 1.75 L-9.65 1.75 M-7.4 5.85 Q-7.25 6.4 -6.95 6.8 -6.1 7.8 -3.5 8.1 -4.9 7.3 -6.5 5.65 -7.15 4.95 -7.75 4.2 L-7.55 4.95 -7.4 5.85 M1.3 5.7 L1.25 5.7 1.1 5.75 0.85 5.85 0.8 5.85 0.65 5.9 0.2 6.0 0.3 6.2 Q0.7 6.7 1.25 6.7 1.7 6.7 1.8 6.05 L1.85 5.6 1.8 5.6 1.7 5.7 Q1.55 5.9 1.45 5.9 L1.35 5.85 1.3 5.75 1.3 5.7" fill="#111111" fill-rule="evenodd" stroke="none"/>
    <path d="M1.2 6.0 L1.25 6.0 1.35 6.1 1.35 6.35 1.3 6.35 Q1.25 6.35 1.2 6.2 L1.2 6.0" fill="#ffffff" fill-rule="evenodd" stroke="none"/>
    <path d="M1.3 5.7 L1.3 5.75 1.35 5.85 1.45 5.9 Q1.55 5.9 1.7 5.7 L1.8 5.6 1.85 5.6 1.8 6.05 Q1.7 6.7 1.25 6.7 0.7 6.7 0.3 6.2 L0.2 6.0 0.65 5.9 0.8 5.85 0.85 5.85 1.1 5.75 1.25 5.7 1.3 5.7 M1.2 6.0 L1.2 6.2 Q1.25 6.35 1.3 6.35 L1.35 6.35 1.35 6.1 1.25 6.0 1.2 6.0" fill="#833838" fill-rule="evenodd" stroke="none"/>
  </g>
</svg>
