<?xml version="1.0" encoding="UTF-8" standalone="no"?>
<svg xmlns:ffdec="https://www.free-decompiler.com/flash" xmlns:xlink="http://www.w3.org/1999/xlink" ffdec:objectType="shape" height="22.9px" width="24.4px" xmlns="http://www.w3.org/2000/svg">
  <g transform="matrix(1.0, 0.0, 0.0, 1.0, 13.6, 17.3)">
    <path d="M6.9 -11.1 Q7.65 -10.75 8.15 -10.4 8.65 -10.05 9.0 -9.65 9.9 -8.6 9.9 -7.05 L9.9 -6.85 9.85 -6.45 9.85 -6.4 Q9.75 -5.9 9.5 -5.4 L9.0 -4.85 8.4 -4.25 8.15 -4.05 Q7.35 -3.3 6.55 -2.85 L6.75 -3.3 Q7.3 -4.25 7.3 -4.75 L7.25 -4.85 Q7.5 -5.6 7.5 -6.15 L7.45 -6.75 Q7.4 -8.25 6.45 -9.85 5.75 -11.05 4.7 -12.0 5.35 -11.7 6.9 -11.1 M2.8 -4.1 L2.45 -4.3 2.05 -4.5 Q-0.7 -5.25 -3.55 -5.55 L-4.6 -5.65 Q-5.25 -6.45 -6.25 -6.35 L-6.25 -6.3 Q-5.1 -6.15 -4.55 -4.7 -4.25 -3.8 -4.25 -2.7 -4.25 -2.35 -4.4 -1.65 -4.5 -2.2 -4.7 -2.75 L-4.95 -3.45 -5.7 -4.35 -5.4 -3.6 Q-4.65 -1.75 -4.65 -0.8 -4.65 -0.5 -4.65 -0.4 -4.95 -1.2 -5.65 -2.0 -5.85 -2.3 -6.15 -2.45 L-6.15 -2.4 -6.1 -2.4 -6.15 -2.35 -6.05 -2.2 Q-5.6 -1.15 -5.5 -0.75 -5.35 -0.15 -5.35 0.7 -5.35 1.05 -5.35 1.2 -5.65 0.65 -5.85 -0.1 L-6.05 -1.35 Q-6.25 -2.15 -6.8 -2.65 L-6.8 -2.75 Q-7.25 -3.35 -7.35 -3.45 -7.8 -3.75 -8.55 -3.7 L-8.6 -3.7 -8.85 -3.65 -8.9 -3.65 Q-9.0 -4.65 -9.5 -5.75 -9.6 -6.05 -9.75 -6.4 -10.0 -6.85 -10.7 -7.85 -11.2 -8.45 -11.45 -8.95 L-11.1 -8.5 Q-10.0 -7.25 -8.55 -7.25 L-8.15 -7.2 -7.75 -7.25 -7.55 -7.25 Q-5.95 -7.25 -5.05 -7.5 -4.1 -7.75 -3.25 -7.75 0.85 -7.75 3.25 -5.4 3.85 -4.8 4.35 -4.1 L4.35 -4.05 4.45 -3.8 Q1.9 -6.5 -0.75 -6.5 L-2.3 -6.6 -4.05 -6.8 -4.05 -6.75 Q-0.6 -6.5 1.6 -5.1 2.2 -4.7 2.8 -4.1 M0.05 -13.6 Q3.3 -12.8 4.9 -11.1 6.95 -8.95 7.0 -5.05 L6.85 -4.6 Q6.75 -4.3 6.5 -3.85 L5.8 -3.05 5.55 -2.75 5.55 -3.8 5.15 -5.4 Q5.15 -6.0 4.7 -6.85 L3.85 -8.25 Q3.3 -9.2 2.6 -9.65 1.75 -10.25 0.1 -10.55 -3.85 -11.3 -6.6 -13.05 -7.55 -13.65 -8.6 -14.55 L-9.8 -15.55 Q-9.3 -15.4 -8.65 -15.2 L-8.25 -15.1 Q-7.2 -14.75 -5.6 -14.5 L-2.8 -14.1 Q-1.1 -13.85 0.05 -13.6 M-4.0 -8.1 L-5.15 -7.9 -5.4 -7.9 Q-7.65 -8.55 -9.25 -10.2 L-10.75 -11.95 Q-11.7 -13.05 -12.45 -13.65 L-12.15 -13.65 Q-9.9 -13.0 -7.9 -11.55 L-6.85 -10.75 -6.35 -10.25 -8.3 -11.45 Q-9.75 -12.35 -10.4 -12.6 -9.9 -12.25 -8.4 -11.0 -6.95 -9.75 -5.9 -9.1 -5.0 -8.5 -4.0 -8.1 M9.6 -4.4 L9.45 -4.85 9.65 -5.1 Q9.95 -5.45 10.1 -5.85 10.35 -5.45 10.35 -5.0 10.35 -4.6 10.25 -4.35 10.15 -4.1 9.75 -3.45 9.75 -3.8 9.6 -4.4 M-9.4 -8.65 Q-9.95 -9.25 -10.45 -10.25 -11.05 -11.5 -11.25 -11.85 L-10.05 -10.5 Q-9.3 -9.7 -8.4 -8.95 -7.35 -8.1 -6.55 -7.7 L-7.55 -7.65 -8.15 -7.7 Q-8.9 -8.1 -9.4 -8.65 M-8.1 1.9 L-8.1 1.85 -7.7 2.25 Q-7.45 2.5 -7.45 2.55 -7.45 3.2 -7.65 4.45 L-8.1 1.9" fill="#003366" fill-rule="evenodd" stroke="none"/>
    <path d="M8.8 -10.35 Q10.35 -8.8 10.35 -7.05 L10.35 -6.55 10.55 -6.1 Q10.8 -5.6 10.8 -5.05 10.8 -4.7 10.2 -3.2 9.65 -1.65 9.45 -1.3 9.2 -1.35 9.2 -1.75 L9.4 -2.75 9.3 -3.4 9.15 -4.2 Q9.1 -4.05 8.45 -3.6 L8.15 -3.35 7.95 -3.2 7.8 -3.05 7.75 -3.05 Q6.45 -1.9 5.3 -1.9 L5.2 -1.95 5.15 -1.95 5.15 -2.0 Q4.95 -2.1 4.35 -2.6 L4.3 -2.6 3.85 -2.9 2.45 -3.85 Q1.9 -4.1 1.25 -4.3 L0.35 -4.6 Q-1.35 -4.9 -4.1 -5.25 L-4.15 -5.25 -4.35 -5.2 -4.2 -4.95 Q-3.8 -3.95 -3.8 -2.8 -3.8 -2.0 -3.9 -1.8 L-4.3 -0.6 -4.3 -0.45 -4.35 0.1 Q-4.4 0.55 -4.45 0.65 L-4.55 0.7 -5.2 -0.6 Q-5.0 0.5 -5.0 1.65 L-5.0 1.85 -5.05 1.9 Q-5.15 1.95 -5.25 1.95 -6.5 0.15 -6.6 -0.7 L-6.65 -0.9 -6.75 -1.35 Q-7.0 -2.1 -7.45 -2.65 L-7.9 -3.05 -8.45 -3.25 Q-8.75 -3.2 -8.9 -3.1 L-9.15 -2.95 -9.45 -3.85 -9.6 -4.5 -9.9 -5.45 Q-10.3 -6.45 -11.05 -7.45 L-11.85 -8.7 Q-12.25 -9.35 -12.25 -9.95 L-12.2 -10.45 -12.15 -11.0 -12.1 -11.0 Q-12.1 -10.7 -12.0 -10.35 L-12.0 -10.85 Q-12.1 -9.95 -11.0 -8.95 -10.4 -8.4 -9.65 -8.05 L-10.15 -8.65 Q-10.65 -9.4 -11.0 -10.2 -11.25 -10.75 -11.65 -11.85 -12.05 -12.75 -12.9 -13.4 L-12.85 -13.45 Q-13.25 -13.8 -13.6 -14.05 -10.8 -13.9 -8.75 -12.6 -9.4 -13.25 -10.0 -14.15 L-10.9 -15.7 Q-11.4 -16.55 -11.75 -17.05 L-11.75 -17.1 -11.65 -17.0 -11.9 -17.3 -11.85 -17.25 Q-11.2 -16.65 -10.1 -16.1 -8.35 -15.25 -6.35 -15.2 L-4.85 -14.85 -3.85 -14.7 -3.8 -14.7 0.75 -14.2 Q2.0 -14.0 3.35 -13.1 L3.3 -13.15 Q6.35 -12.35 8.15 -10.9 L8.8 -10.35 M6.9 -11.1 Q5.35 -11.7 4.7 -12.0 5.75 -11.05 6.45 -9.85 7.4 -8.25 7.45 -6.75 L7.5 -6.15 Q7.5 -5.6 7.25 -4.85 L7.3 -4.75 Q7.3 -4.25 6.75 -3.3 L6.55 -2.85 Q7.35 -3.3 8.15 -4.05 L8.4 -4.25 9.0 -4.85 9.5 -5.4 Q9.75 -5.9 9.85 -6.4 L9.85 -6.45 9.9 -6.85 9.9 -7.05 Q9.9 -8.6 9.0 -9.65 8.65 -10.05 8.15 -10.4 7.65 -10.75 6.9 -11.1 M0.25 -10.05 L0.0 -10.1 Q-2.6 -10.85 -4.15 -11.4 -4.9 -11.7 -5.6 -12.0 L-5.65 -12.0 Q-6.25 -12.3 -6.8 -12.6 -8.55 -13.55 -9.65 -14.5 L-9.55 -14.45 -7.8 -12.1 Q-7.0 -11.3 -6.1 -10.6 -5.4 -10.05 -4.4 -9.5 -3.85 -9.2 -2.5 -8.55 -2.05 -8.3 -1.2 -8.05 L-1.05 -8.0 Q0.8 -7.75 1.95 -6.95 3.0 -6.2 4.15 -4.35 4.85 -3.55 5.15 -3.0 L5.15 -3.15 5.2 -4.25 5.0 -5.0 Q4.75 -6.2 4.4 -6.95 3.3 -9.25 0.45 -10.0 L0.25 -10.05 M0.05 -13.6 Q-1.1 -13.85 -2.8 -14.1 L-5.6 -14.5 Q-7.2 -14.75 -8.25 -15.1 L-8.65 -15.2 Q-9.3 -15.4 -9.8 -15.55 L-8.6 -14.55 Q-7.55 -13.65 -6.6 -13.05 -3.85 -11.3 0.1 -10.55 1.75 -10.25 2.6 -9.65 3.3 -9.2 3.85 -8.25 L4.7 -6.85 Q5.15 -6.0 5.15 -5.4 L5.55 -3.8 5.55 -2.75 5.8 -3.05 6.5 -3.85 Q6.75 -4.3 6.85 -4.6 L7.0 -5.05 Q6.95 -8.95 4.9 -11.1 3.3 -12.8 0.05 -13.6 M4.45 -3.8 L4.35 -4.05 4.35 -4.1 Q3.85 -4.8 3.25 -5.4 0.85 -7.75 -3.25 -7.75 -4.1 -7.75 -5.05 -7.5 -5.95 -7.25 -7.55 -7.25 L-7.75 -7.25 -8.15 -7.2 -8.55 -7.25 Q-10.0 -7.25 -11.1 -8.5 L-11.45 -8.95 Q-11.2 -8.45 -10.7 -7.85 -10.0 -6.85 -9.75 -6.4 -9.6 -6.05 -9.5 -5.75 -9.0 -4.65 -8.9 -3.65 L-8.85 -3.65 -8.6 -3.7 -8.55 -3.7 Q-7.8 -3.75 -7.35 -3.45 -7.25 -3.35 -6.8 -2.75 L-6.8 -2.65 Q-6.25 -2.15 -6.05 -1.35 L-5.85 -0.1 Q-5.65 0.65 -5.35 1.2 -5.35 1.05 -5.35 0.7 -5.35 -0.15 -5.5 -0.75 -5.6 -1.15 -6.05 -2.2 L-6.15 -2.35 -6.1 -2.4 -6.15 -2.4 -6.15 -2.45 Q-5.85 -2.3 -5.65 -2.0 -4.95 -1.2 -4.65 -0.4 -4.65 -0.5 -4.65 -0.8 -4.65 -1.75 -5.4 -3.6 L-5.7 -4.35 -4.95 -3.45 -4.7 -2.75 Q-4.5 -2.2 -4.4 -1.65 -4.25 -2.35 -4.25 -2.7 -4.25 -3.8 -4.55 -4.7 -5.1 -6.15 -6.25 -6.3 L-6.25 -6.35 Q-5.25 -6.45 -4.6 -5.65 L-3.55 -5.55 Q-0.7 -5.25 2.05 -4.5 L2.45 -4.3 2.8 -4.1 3.45 -3.7 3.85 -3.35 5.1 -2.5 Q4.95 -2.75 4.85 -3.05 L4.8 -3.1 4.45 -3.8 M9.6 -4.4 Q9.75 -3.8 9.75 -3.45 10.15 -4.1 10.25 -4.35 10.35 -4.6 10.35 -5.0 10.35 -5.45 10.1 -5.85 9.95 -5.45 9.65 -5.1 L9.45 -4.85 9.6 -4.4 M-6.35 -10.25 L-6.85 -10.75 -7.9 -11.55 Q-9.9 -13.0 -12.15 -13.65 L-12.45 -13.65 Q-11.7 -13.05 -10.75 -11.95 L-9.25 -10.2 Q-7.65 -8.55 -5.4 -7.9 L-5.15 -7.9 -4.0 -8.1 -3.25 -8.15 -1.55 -8.1 -2.35 -8.4 -2.55 -8.45 -2.6 -8.45 -2.8 -8.55 -3.15 -8.65 -6.15 -10.1 -6.35 -10.25 M-9.4 -8.65 Q-8.9 -8.1 -8.15 -7.7 L-7.55 -7.65 -6.55 -7.7 Q-7.35 -8.1 -8.4 -8.95 -9.3 -9.7 -10.05 -10.5 L-11.25 -11.85 Q-11.05 -11.5 -10.45 -10.25 -9.95 -9.25 -9.4 -8.65 M-4.5 -5.55 L-4.6 -5.6 -4.55 -5.55 -4.5 -5.55 M-7.1 3.3 Q-7.3 4.2 -7.3 4.4 -7.3 4.55 -7.45 5.0 -7.6 5.5 -7.7 5.6 -7.95 5.1 -8.35 3.45 -8.75 1.75 -8.75 1.05 L-8.75 0.9 Q-8.2 0.9 -7.45 1.65 L-6.85 2.4 -7.1 3.3 M-8.1 1.9 L-7.65 4.45 Q-7.45 3.2 -7.45 2.55 -7.45 2.5 -7.7 2.25 L-8.1 1.85 -8.1 1.9" fill="#111111" fill-rule="evenodd" stroke="none"/>
    <path d="M0.25 -10.05 L0.45 -10.0 Q3.3 -9.25 4.4 -6.95 4.75 -6.2 5.0 -5.0 L5.2 -4.25 5.15 -3.15 5.15 -3.0 Q4.85 -3.55 4.15 -4.35 3.0 -6.2 1.95 -6.95 0.8 -7.75 -1.05 -8.0 L-1.2 -8.05 Q-2.05 -8.3 -2.5 -8.55 -3.85 -9.2 -4.4 -9.5 -5.4 -10.05 -6.1 -10.6 -7.0 -11.3 -7.8 -12.1 L-9.55 -14.45 -9.65 -14.5 Q-8.55 -13.55 -6.8 -12.6 -6.25 -12.3 -5.65 -12.0 L-5.6 -12.0 Q-4.9 -11.7 -4.15 -11.4 -2.6 -10.85 0.0 -10.1 L0.25 -10.05 M2.8 -4.1 Q2.2 -4.7 1.6 -5.1 -0.6 -6.5 -4.05 -6.75 L-4.05 -6.8 -2.3 -6.6 -0.75 -6.5 Q1.9 -6.5 4.45 -3.8 L4.8 -3.1 4.85 -3.05 Q4.95 -2.75 5.1 -2.5 L3.85 -3.35 3.45 -3.7 2.8 -4.1 M-4.0 -8.1 Q-5.0 -8.5 -5.9 -9.1 -6.95 -9.75 -8.4 -11.0 -9.9 -12.25 -10.4 -12.6 -9.75 -12.35 -8.3 -11.45 L-6.35 -10.25 -6.15 -10.1 -3.15 -8.65 -2.8 -8.55 -2.6 -8.45 -2.55 -8.45 -2.35 -8.4 -1.55 -8.1 -3.25 -8.15 -4.0 -8.1" fill="#fcfcfc" fill-rule="evenodd" stroke="none"/>
    <path d="M2.85 -13.15 Q3.7 -12.65 3.9 -12.2 3.5 -12.55 2.25 -13.1 L2.05 -13.15 1.6 -13.2 Q0.45 -13.2 -1.45 -14.1 L-1.8 -14.05 -2.15 -13.95 Q-3.15 -13.95 -4.3 -15.1 -5.35 -16.1 -5.35 -16.6 -5.35 -16.7 -5.25 -16.75 L-5.2 -16.75 -4.05 -15.95 -3.65 -15.7 -2.6 -15.3 0.05 -14.4 Q1.4 -13.9 2.3 -13.45 L3.05 -13.2 2.85 -13.15 M-3.3 -14.85 Q-2.75 -14.55 -1.65 -14.2 L-2.5 -14.65 Q-3.55 -15.25 -4.55 -15.85 L-4.55 -15.9 Q-3.8 -15.15 -3.3 -14.85" fill="#111111" fill-rule="evenodd" stroke="none"/>
    <path d="M-3.3 -14.85 Q-3.8 -15.15 -4.55 -15.9 L-4.55 -15.85 Q-3.55 -15.25 -2.5 -14.65 L-1.65 -14.2 Q-2.75 -14.55 -3.3 -14.85" fill="#003366" fill-rule="evenodd" stroke="none"/>
  </g>
</svg>
