<?xml version="1.0" encoding="UTF-8" standalone="no"?>
<svg xmlns:ffdec="https://www.free-decompiler.com/flash" xmlns:xlink="http://www.w3.org/1999/xlink" ffdec:objectType="shape" height="21.7px" width="21.7px" xmlns="http://www.w3.org/2000/svg">
  <g transform="matrix(1.0, 0.0, 0.0, 1.0, 10.6, 15.2)">
    <path d="M1.15 -15.15 Q1.8 -14.95 2.85 -14.15 4.45 -12.9 6.0 -11.1 L5.95 -11.65 Q5.95 -12.4 6.2 -12.3 6.4 -12.2 6.85 -11.55 L7.6 -10.3 Q8.05 -9.5 8.3 -9.25 9.25 -8.15 9.9 -7.35 11.1 -5.8 11.1 -5.25 11.1 -4.85 10.05 -2.6 9.5 -1.4 9.15 -0.7 L8.8 -0.05 8.75 -0.05 8.7 0.0 8.65 0.0 Q8.65 -0.05 8.65 -0.15 L8.8 -0.6 9.05 -1.4 Q9.25 -2.15 9.25 -2.7 L9.2 -4.05 9.1 -4.05 9.05 -3.65 Q8.95 -3.3 8.75 -3.3 L8.6 -3.35 8.55 -3.35 Q8.65 -3.95 8.25 -4.75 7.95 -5.3 7.3 -6.2 L7.25 -5.95 7.2 -5.9 7.0 -5.2 Q6.8 -4.45 6.65 -4.25 6.3 -3.85 5.45 -3.05 L4.6 -2.4 Q4.55 -2.4 4.45 -2.45 L4.45 -2.2 4.25 -2.75 4.15 -2.85 Q3.9 -3.3 3.9 -3.35 2.8 -5.0 0.1 -5.95 -0.9 -6.25 -2.55 -6.65 -3.9 -6.95 -4.2 -7.1 L-4.0 -6.6 -3.35 -5.35 Q-3.25 -4.95 -3.25 -3.45 -3.25 -3.05 -3.25 -2.8 L-3.3 -2.75 -3.45 -2.75 Q-3.8 -2.75 -4.55 -3.55 -4.35 -3.2 -4.3 -2.9 L-4.0 -2.15 Q-4.05 -1.95 -4.3 -1.95 -4.45 -1.95 -4.7 -2.2 L-5.05 -2.5 -4.75 -2.0 -4.55 -1.65 Q-4.4 -1.45 -4.4 -1.4 L-4.65 0.0 Q-4.9 1.35 -4.8 1.8 -4.85 1.9 -4.95 1.9 -5.05 1.75 -5.6 1.3 -6.05 0.9 -6.0 0.55 -6.0 0.3 -6.05 -0.15 L-6.15 -0.85 Q-6.2 -1.4 -6.25 -1.6 -6.35 -1.9 -6.7 -2.25 L-7.3 -2.65 Q-7.4 -2.65 -7.6 -2.8 -7.85 -2.95 -8.25 -2.9 L-8.55 -2.85 -8.6 -2.8 Q-8.65 -2.75 -8.7 -2.75 -9.05 -2.75 -9.45 -3.7 -9.75 -4.45 -9.85 -5.3 -10.1 -6.5 -10.15 -7.85 L-10.1 -7.8 Q-10.5 -8.75 -10.5 -9.45 -10.5 -10.05 -9.2 -9.45 L-8.7 -9.2 -9.1 -9.55 Q-10.25 -10.65 -10.6 -11.3 L-10.6 -11.6 -10.55 -11.65 -10.45 -11.7 -9.7 -11.4 -8.65 -10.95 -8.95 -11.35 -9.2 -11.7 -9.15 -11.7 Q-9.75 -12.0 -9.75 -12.35 L-9.7 -12.5 Q-6.35 -12.55 -4.9 -12.25 L-5.15 -12.35 Q-6.55 -13.0 -8.55 -12.9 L-8.75 -12.95 Q-8.8 -12.95 -8.8 -13.05 L-8.8 -13.1 Q-8.8 -13.25 -8.55 -13.35 -7.95 -13.9 -7.05 -14.2 -6.5 -14.4 -4.55 -14.85 -0.2 -14.35 1.2 -13.6 L1.3 -13.55 1.1 -13.8 Q0.5 -14.75 0.5 -14.85 0.5 -15.35 1.15 -15.15 M1.25 -14.55 L1.8 -13.6 Q2.1 -13.05 2.25 -12.7 L3.0 -11.7 2.95 -11.55 2.85 -11.65 2.7 -11.9 2.4 -12.15 2.3 -12.25 Q1.95 -12.55 1.65 -12.75 L1.25 -13.05 Q-0.9 -14.35 -3.95 -14.35 -5.25 -14.35 -6.9 -13.8 L-7.95 -13.4 -7.25 -13.3 Q-5.95 -13.15 -5.3 -12.85 -4.4 -12.55 -3.95 -12.05 L-3.8 -11.85 -3.55 -11.65 -2.9 -11.1 Q-3.5 -11.4 -3.8 -11.45 L-4.4 -11.6 Q-5.45 -11.85 -8.85 -12.15 L-8.9 -12.15 Q-8.45 -11.8 -7.4 -11.45 -6.2 -11.0 -5.7 -10.75 L-5.7 -10.7 Q-6.1 -10.8 -8.0 -11.25 L-8.5 -11.4 -8.15 -11.05 -7.15 -9.95 -7.2 -9.75 -7.25 -9.75 -7.45 -9.7 Q-7.8 -9.7 -8.7 -10.3 -9.75 -10.95 -10.05 -11.1 -9.9 -10.9 -8.8 -9.9 -7.8 -9.05 -7.7 -8.6 L-7.7 -8.55 Q-7.75 -8.5 -7.8 -8.5 L-7.8 -8.45 Q-7.9 -8.4 -8.05 -8.4 -8.25 -8.4 -9.1 -8.85 -10.0 -9.25 -10.1 -9.3 -10.0 -8.7 -9.1 -6.8 -8.25 -5.0 -8.25 -4.9 -8.25 -4.8 -8.2 -4.65 L-8.1 -4.45 -8.1 -4.4 Q-8.9 -5.25 -9.65 -6.8 L-9.7 -6.8 Q-9.5 -6.3 -9.35 -5.65 L-8.8 -3.75 -8.45 -3.85 -8.05 -3.85 Q-6.85 -3.85 -6.25 -2.55 -5.85 -2.1 -5.7 -1.55 L-5.55 -0.2 Q-5.45 0.6 -5.15 1.1 L-5.15 1.0 -5.1 0.55 -5.05 0.0 Q-5.0 -0.2 -5.0 -0.5 L-5.05 -0.95 Q-5.05 -1.0 -4.95 -1.15 -4.85 -1.3 -4.85 -1.4 L-4.9 -1.5 -4.9 -1.6 Q-4.9 -2.1 -5.75 -3.3 L-5.7 -3.3 Q-5.6 -3.3 -5.0 -2.9 L-4.7 -2.7 -5.15 -3.95 -5.3 -4.2 -5.3 -4.3 Q-5.3 -4.6 -5.75 -5.35 L-5.85 -5.5 Q-5.55 -5.45 -4.7 -4.55 L-3.65 -3.4 Q-3.6 -3.8 -3.6 -4.4 L-3.65 -4.6 -4.2 -5.95 Q-4.75 -7.25 -4.75 -7.5 L-4.75 -7.65 -4.55 -7.65 -4.6 -7.75 -4.55 -7.75 -4.5 -7.6 Q-3.8 -7.5 -1.6 -6.8 1.0 -6.0 1.65 -5.7 2.0 -5.55 3.2 -4.35 4.1 -3.45 4.35 -3.05 L4.5 -2.9 Q5.7 -3.65 6.3 -4.7 6.75 -5.55 6.9 -6.65 L6.95 -6.65 Q7.1 -7.45 7.85 -6.3 8.15 -5.8 8.45 -5.05 L8.75 -4.3 8.8 -4.3 Q8.9 -4.85 8.8 -5.5 L8.85 -5.55 Q8.9 -5.6 9.0 -5.6 9.35 -5.6 9.5 -4.15 9.6 -3.4 9.6 -2.65 L9.6 -2.6 Q10.6 -5.1 10.6 -5.4 10.6 -5.65 9.7 -6.95 8.9 -8.2 8.65 -8.4 7.8 -9.1 7.2 -9.9 6.7 -10.55 6.3 -11.45 6.3 -11.1 6.55 -10.45 L7.75 -8.85 7.55 -9.0 7.1 -9.25 6.95 -9.4 6.15 -10.25 5.1 -11.6 Q3.6 -13.35 1.45 -14.5 L1.25 -14.55 M-8.45 2.2 Q-8.45 2.05 -8.75 1.45 -9.0 0.8 -9.0 0.75 -9.0 0.05 -7.95 1.0 L-6.85 2.1 Q-6.85 2.2 -7.1 2.5 -7.3 2.85 -7.35 2.95 -7.35 3.2 -7.3 3.75 -7.3 4.05 -7.45 5.15 -7.6 6.35 -7.7 6.5 -7.9 6.0 -8.0 5.1 -8.1 4.05 -8.25 3.6 -8.35 3.35 -8.4 2.9 L-8.45 2.2 M-8.0 1.9 L-8.0 2.3 Q-8.0 2.75 -7.8 3.8 -7.6 3.65 -7.5 3.25 L-7.4 2.85 Q-7.4 2.8 -7.65 2.4 -7.85 2.0 -8.0 1.9" fill="#111111" fill-rule="evenodd" stroke="none"/>
    <path d="M1.25 -14.55 L1.45 -14.5 Q3.6 -13.35 5.1 -11.6 L6.15 -10.25 6.95 -9.4 7.1 -9.25 7.55 -9.0 7.75 -8.85 6.55 -10.45 Q6.3 -11.1 6.3 -11.45 6.7 -10.55 7.2 -9.9 7.8 -9.1 8.65 -8.4 8.9 -8.2 9.7 -6.95 10.6 -5.65 10.6 -5.4 10.6 -5.1 9.6 -2.6 L9.6 -2.65 Q9.6 -3.4 9.5 -4.15 9.35 -5.6 9.0 -5.6 8.9 -5.6 8.85 -5.55 L8.8 -5.5 Q8.9 -4.85 8.8 -4.3 L8.75 -4.3 8.45 -5.05 Q8.15 -5.8 7.85 -6.3 7.1 -7.45 6.95 -6.65 L6.9 -6.65 Q6.75 -5.55 6.3 -4.7 5.7 -3.65 4.5 -2.9 L4.35 -3.05 Q4.1 -3.45 3.2 -4.35 2.0 -5.55 1.65 -5.7 1.0 -6.0 -1.6 -6.8 -3.8 -7.5 -4.5 -7.6 L-4.55 -7.75 -4.6 -7.75 -4.55 -7.65 -4.75 -7.65 -4.75 -7.5 Q-4.75 -7.25 -4.2 -5.95 L-3.65 -4.6 -3.6 -4.4 Q-3.6 -3.8 -3.65 -3.4 L-4.7 -4.55 Q-5.55 -5.45 -5.85 -5.5 L-5.75 -5.35 Q-5.3 -4.6 -5.3 -4.3 L-5.3 -4.2 -5.15 -3.95 -4.7 -2.7 -5.0 -2.9 Q-5.6 -3.3 -5.7 -3.3 L-5.75 -3.3 Q-4.9 -2.1 -4.9 -1.6 L-4.9 -1.5 -4.85 -1.4 Q-4.85 -1.3 -4.95 -1.15 -5.05 -1.0 -5.05 -0.95 L-5.0 -0.5 Q-5.0 -0.2 -5.05 0.0 L-5.1 0.55 -5.15 1.0 -5.15 1.1 Q-5.45 0.6 -5.55 -0.2 L-5.7 -1.55 Q-5.85 -2.1 -6.25 -2.55 -6.85 -3.85 -8.05 -3.85 L-8.45 -3.85 -8.8 -3.75 -9.35 -5.65 Q-9.5 -6.3 -9.7 -6.8 L-9.65 -6.8 Q-8.9 -5.25 -8.1 -4.4 L-8.1 -4.45 -8.2 -4.65 Q-8.25 -4.8 -8.25 -4.9 -8.25 -5.0 -9.1 -6.8 -10.0 -8.7 -10.1 -9.3 -10.0 -9.25 -9.1 -8.85 -8.25 -8.4 -8.05 -8.4 -7.9 -8.4 -7.8 -8.45 L-7.8 -8.5 Q-7.75 -8.5 -7.7 -8.55 L-7.7 -8.6 Q-7.8 -9.05 -8.8 -9.9 -9.9 -10.9 -10.05 -11.1 -9.75 -10.95 -8.7 -10.3 -7.8 -9.7 -7.45 -9.7 L-7.25 -9.75 -7.2 -9.75 -7.15 -9.95 -8.15 -11.05 -8.5 -11.4 -8.0 -11.25 Q-6.1 -10.8 -5.7 -10.7 L-5.7 -10.75 Q-6.2 -11.0 -7.4 -11.45 -8.45 -11.8 -8.9 -12.15 L-8.85 -12.15 Q-5.45 -11.85 -4.4 -11.6 L-3.8 -11.45 Q-3.5 -11.4 -2.9 -11.1 L-3.55 -11.65 -3.8 -11.85 -3.95 -12.05 Q-4.4 -12.55 -5.3 -12.85 -5.95 -13.15 -7.25 -13.3 L-7.95 -13.4 -6.9 -13.8 Q-5.25 -14.35 -3.95 -14.35 -0.9 -14.35 1.25 -13.05 L1.65 -12.75 Q1.95 -12.55 2.3 -12.25 L2.4 -12.15 2.7 -11.9 2.85 -11.65 2.95 -11.55 3.0 -11.7 2.25 -12.7 Q2.1 -13.05 1.8 -13.6 L1.25 -14.55 M-8.0 1.9 Q-7.85 2.0 -7.65 2.4 -7.4 2.8 -7.4 2.85 L-7.5 3.25 Q-7.6 3.65 -7.8 3.8 -8.0 2.75 -8.0 2.3 L-8.0 1.9" fill="#003366" fill-rule="evenodd" stroke="none"/>
  </g>
</svg>
