<?xml version="1.0" encoding="UTF-8" standalone="no"?>
<svg xmlns:ffdec="https://www.free-decompiler.com/flash" xmlns:xlink="http://www.w3.org/1999/xlink" ffdec:objectType="shape" height="21.15px" width="25.2px" xmlns="http://www.w3.org/2000/svg">
  <g transform="matrix(1.0, 0.0, 0.0, 1.0, 11.8, 14.9)">
    <path d="M10.05 -8.15 L10.1 -8.1 10.6 -6.7 Q11.2 -5.6 11.4 -3.75 11.55 -2.3 11.65 -1.55 L11.65 -1.25 Q11.7 -0.2 11.55 0.5 11.45 1.4 10.95 2.55 11.2 1.2 11.2 0.5 11.2 -1.3 10.45 -3.05 9.6 -5.05 8.0 -6.45 L7.95 -6.45 Q9.35 -4.15 9.9 -2.9 10.65 -1.15 10.65 0.5 10.65 1.25 10.45 2.35 L10.15 4.15 10.1 1.8 Q10.1 0.85 9.9 0.1 9.75 -1.2 8.85 -2.7 8.3 -3.65 6.45 -6.1 L6.4 -6.1 Q7.15 -4.65 8.45 -2.6 9.35 -1.0 9.35 0.45 9.05 -0.9 7.9 -2.25 6.5 -3.95 3.35 -5.95 L2.55 -6.65 2.55 -6.6 Q2.95 -6.2 3.4 -5.45 L3.7 -5.05 4.9 -3.95 Q5.7 -3.2 6.15 -2.7 5.65 -3.2 4.75 -3.9 4.25 -4.25 3.85 -4.55 1.55 -5.6 0.8 -7.05 0.1 -7.55 -0.05 -6.6 L-0.15 -5.75 Q-0.45 -5.15 -0.75 -4.55 -1.5 -3.25 -2.5 -2.05 -2.75 -1.8 -3.7 0.25 L-4.0 0.95 -3.5 -0.9 Q-2.8 -3.4 -2.8 -3.6 -2.8 -4.25 -3.4 -2.7 -4.4 -0.3 -4.7 0.25 L-5.65 1.9 -5.95 2.25 -7.8 4.25 Q-7.2 3.3 -7.0 1.8 L-6.85 0.3 Q-6.7 -0.55 -6.5 -1.15 -6.1 -2.35 -4.95 -4.8 -3.95 -6.95 -3.95 -7.05 L-4.0 -7.3 -3.95 -7.5 Q-4.9 -6.35 -5.7 -4.6 -6.2 -3.6 -6.6 -2.6 L-6.75 -2.85 Q-7.0 -3.25 -7.3 -3.6 -7.9 -4.15 -8.35 -4.05 L-8.3 -4.1 Q-9.0 -3.55 -9.25 -3.15 L-9.15 -3.75 -9.0 -3.9 -9.15 -3.8 -9.1 -4.0 -8.6 -5.9 Q-8.25 -7.0 -7.75 -7.8 L-7.6 -8.1 Q-6.85 -9.95 -5.1 -11.35 -4.75 -11.65 -3.65 -11.9 L-3.4 -11.9 Q-2.4 -11.9 -1.65 -12.25 L-1.3 -12.25 Q-1.3 -12.35 -1.4 -12.35 -1.05 -12.55 -0.4 -13.1 0.35 -13.7 1.0 -13.95 2.0 -14.3 3.35 -14.3 4.3 -14.3 5.2 -13.95 L6.1 -13.5 Q5.05 -13.4 4.65 -13.25 4.45 -13.15 4.3 -13.05 3.2 -13.2 1.95 -13.0 6.95 -12.25 8.9 -10.05 9.55 -9.3 10.05 -8.15 M-9.7 -0.2 L-9.55 -1.3 Q-9.4 -0.45 -9.1 0.4 L-8.9 0.9 Q-9.1 1.2 -9.2 1.7 L-9.4 2.35 -10.1 2.95 Q-10.55 3.45 -11.15 3.65 L-11.15 3.6 Q-10.15 2.1 -9.7 -0.2 M11.9 1.05 L12.0 0.2 Q12.4 1.85 12.75 2.3 L12.75 2.25 11.9 1.05 M-7.95 2.05 L-8.45 3.05 Q-8.95 4.2 -9.3 4.7 L-9.3 3.9 Q-9.3 3.25 -9.0 2.2 L-8.7 1.25 Q-8.35 1.85 -7.95 2.05" fill="#003366" fill-rule="evenodd" stroke="none"/>
    <path d="M2.8 -14.75 Q4.45 -15.2 6.15 -14.1 6.75 -13.75 7.2 -13.25 7.6 -12.8 7.6 -12.65 L7.65 -12.45 7.2 -12.65 Q7.0 -12.75 6.75 -12.75 6.65 -12.85 6.55 -12.85 L5.25 -13.0 4.75 -13.0 Q8.1 -12.35 10.4 -8.5 L10.65 -8.1 Q11.35 -6.7 11.75 -4.95 11.95 -3.85 12.0 -2.9 L12.05 -2.35 12.2 -1.4 12.2 -1.35 Q12.2 -1.05 12.6 0.8 13.0 2.55 13.1 2.9 L13.4 3.75 Q12.8 3.45 12.25 2.95 11.9 2.55 11.65 2.15 L11.65 2.1 11.55 2.25 Q11.25 3.1 10.65 3.9 10.15 6.1 9.85 6.25 9.7 5.75 9.65 5.05 L9.65 5.1 9.6 5.1 9.65 5.0 Q9.65 4.7 9.65 4.3 L9.7 1.95 Q9.4 2.85 8.85 2.6 L9.2 1.65 Q9.1 0.25 8.45 -0.85 7.85 -1.85 6.65 -2.85 L6.5 -2.95 Q6.9 -2.3 6.95 -1.75 7.1 -1.45 7.15 -1.2 7.1 -1.15 7.0 -1.15 6.9 -1.15 6.35 -1.9 L6.1 -2.3 Q5.5 -2.9 4.45 -3.65 3.7 -3.95 2.6 -4.75 1.05 -5.9 0.55 -6.55 L0.25 -5.75 0.15 -5.5 Q-0.05 -5.0 -0.35 -4.4 -0.75 -3.7 -1.9 -2.0 -3.0 -0.35 -3.45 0.5 L-3.6 0.85 Q-4.1 1.65 -4.55 2.8 L-4.65 3.05 -4.7 2.95 -4.65 2.65 -4.7 2.05 -4.35 0.55 Q-4.85 1.2 -5.6 2.7 -6.15 3.6 -7.0 4.2 -7.95 5.25 -8.45 5.25 L-8.6 5.2 -8.65 5.15 -8.65 5.05 Q-8.65 4.95 -8.3 4.25 L-8.1 3.9 -8.0 3.15 -8.45 4.05 Q-9.45 6.05 -9.5 6.05 -9.7 6.05 -9.7 5.55 L-9.7 5.05 Q-9.7 3.85 -9.65 3.25 L-9.85 3.45 Q-10.65 4.2 -11.5 4.2 L-11.75 4.2 -11.75 4.1 -11.8 3.95 -11.05 2.4 Q-10.35 0.75 -10.2 -0.1 L-9.95 -2.15 Q-9.8 -3.3 -9.6 -4.1 L-9.1 -6.1 Q-8.75 -7.25 -8.3 -8.1 L-8.2 -8.25 Q-7.45 -10.45 -5.55 -11.6 -5.15 -12.05 -4.65 -12.25 -4.0 -12.55 -3.1 -12.5 L-2.7 -12.65 Q-1.55 -13.1 -1.1 -13.4 L0.15 -14.3 Q1.2 -14.8 2.8 -14.75 M10.05 -8.15 Q9.55 -9.3 8.9 -10.05 6.95 -12.25 1.95 -13.0 3.2 -13.2 4.3 -13.05 4.45 -13.15 4.65 -13.25 5.05 -13.4 6.1 -13.5 L5.2 -13.95 Q4.3 -14.3 3.35 -14.3 2.0 -14.3 1.0 -13.95 0.35 -13.7 -0.4 -13.1 -1.05 -12.55 -1.4 -12.35 -1.3 -12.35 -1.3 -12.25 L-1.65 -12.25 Q-2.4 -11.9 -3.4 -11.9 L-3.65 -11.9 Q-4.75 -11.65 -5.1 -11.35 -6.85 -9.95 -7.6 -8.1 L-7.75 -7.8 Q-8.25 -7.0 -8.6 -5.9 L-9.1 -4.0 -9.15 -3.8 -9.0 -3.9 -9.15 -3.75 -9.25 -3.15 Q-9.0 -3.55 -8.3 -4.1 L-8.35 -4.05 Q-7.9 -4.15 -7.3 -3.6 -7.0 -3.25 -6.75 -2.85 L-6.6 -2.6 Q-6.2 -3.6 -5.7 -4.6 -4.9 -6.35 -3.95 -7.5 L-4.0 -7.3 -3.95 -7.05 Q-3.95 -6.95 -4.95 -4.8 -6.1 -2.35 -6.5 -1.15 -6.7 -0.55 -6.85 0.3 L-7.0 1.8 Q-7.2 3.3 -7.8 4.25 L-5.95 2.25 -5.65 1.9 -4.7 0.25 Q-4.4 -0.3 -3.4 -2.7 -2.8 -4.25 -2.8 -3.6 -2.8 -3.4 -3.5 -0.9 L-4.0 0.95 -3.7 0.25 Q-2.75 -1.8 -2.5 -2.05 -1.5 -3.25 -0.75 -4.55 -0.45 -5.15 -0.15 -5.75 L-0.05 -6.6 Q0.1 -7.55 0.8 -7.05 1.55 -5.6 3.85 -4.55 4.25 -4.25 4.75 -3.9 5.65 -3.2 6.15 -2.7 5.7 -3.2 4.9 -3.95 L3.7 -5.05 3.4 -5.45 Q2.95 -6.2 2.55 -6.6 L2.55 -6.65 3.35 -5.95 Q6.5 -3.95 7.9 -2.25 9.05 -0.9 9.35 0.45 9.35 -1.0 8.45 -2.6 7.15 -4.65 6.4 -6.1 L6.45 -6.1 Q8.3 -3.65 8.85 -2.7 9.75 -1.2 9.9 0.1 10.1 0.85 10.1 1.8 L10.15 4.15 10.45 2.35 Q10.65 1.25 10.65 0.5 10.65 -1.15 9.9 -2.9 9.35 -4.15 7.95 -6.45 L8.0 -6.45 Q9.6 -5.05 10.45 -3.05 11.2 -1.3 11.2 0.5 11.2 1.2 10.95 2.55 11.45 1.4 11.55 0.5 11.7 -0.2 11.65 -1.25 L11.65 -1.55 Q11.55 -2.3 11.4 -3.75 11.2 -5.6 10.6 -6.7 L10.1 -8.1 10.05 -8.15 M11.9 1.3 L11.85 1.25 11.85 1.3 11.9 1.3 M11.9 1.05 L12.75 2.25 12.75 2.3 Q12.4 1.85 12.0 0.2 L11.9 1.05 M-9.7 -0.2 Q-10.15 2.1 -11.15 3.6 L-11.15 3.65 Q-10.55 3.45 -10.1 2.95 L-9.4 2.35 -9.2 1.7 Q-9.1 1.2 -8.9 0.9 L-9.1 0.4 Q-9.4 -0.45 -9.55 -1.3 L-9.7 -0.2 M-9.0 -1.35 Q-9.0 -0.35 -8.15 0.7 L-7.6 1.25 Q-7.25 -0.6 -7.0 -1.5 -7.05 -2.1 -7.15 -2.4 -7.4 -3.0 -8.2 -3.5 -8.6 -3.2 -8.85 -2.5 -9.0 -1.9 -9.0 -1.35 M-7.95 2.05 Q-8.35 1.85 -8.7 1.25 L-9.0 2.2 Q-9.3 3.25 -9.3 3.9 L-9.3 4.7 Q-8.95 4.2 -8.45 3.05 L-7.95 2.05" fill="#1a1a1a" fill-rule="evenodd" stroke="none"/>
  </g>
</svg>
