<?xml version="1.0" encoding="UTF-8" standalone="no"?>
<svg xmlns:ffdec="https://www.free-decompiler.com/flash" xmlns:xlink="http://www.w3.org/1999/xlink" ffdec:objectType="shape" height="23.0px" width="20.4px" xmlns="http://www.w3.org/2000/svg">
  <g transform="matrix(1.0, 0.0, 0.0, 1.0, 14.1, 12.7)">
    <path d="M0.05 -10.65 Q-0.2 -10.6 -0.3 -10.5 L-0.35 -10.45 Q-0.4 -10.45 -0.4 -10.55 -0.4 -10.8 0.55 -10.75 1.35 -10.7 1.8 -10.6 2.3 -10.3 2.7 -10.0 3.1 -9.65 3.3 -9.4 3.55 -9.05 4.1 -8.5 3.7 -9.15 3.3 -9.55 1.9 -11.05 -1.2 -11.35 -1.35 -11.3 -1.55 -11.2 -1.9 -11.05 -2.05 -11.05 -2.2 -11.05 -2.2 -11.1 L-2.2 -11.3 Q-2.2 -11.5 -1.75 -11.6 L-1.2 -11.65 -0.4 -11.7 -0.5 -11.75 Q-2.25 -12.55 -3.3 -12.55 -3.5 -12.55 -4.45 -12.3 L-4.9 -12.2 Q-4.4 -12.05 -3.9 -11.85 -3.85 -11.95 -3.85 -11.75 -3.85 -11.65 -4.0 -11.6 L-4.5 -11.55 Q-4.6 -11.55 -5.1 -11.75 -5.6 -11.95 -6.75 -11.95 -7.8 -11.95 -9.7 -10.85 -11.4 -9.9 -12.0 -9.25 -12.7 -8.45 -13.1 -7.7 -13.4 -7.1 -13.5 -6.55 L-13.5 -5.95 -13.4 -4.85 -13.25 -3.85 Q-12.85 -5.45 -12.1 -6.8 -9.9 -10.65 -5.6 -11.0 -9.95 -10.05 -11.9 -6.3 -12.9 -4.35 -13.15 -2.15 L-13.05 -0.85 Q-13.05 -0.75 -13.1 -0.65 L-13.2 -0.55 -13.05 -0.05 Q-12.9 0.95 -12.8 1.15 L-12.15 2.1 -12.0 2.35 Q-11.45 3.7 -10.8 4.35 L-10.75 4.35 Q-11.15 2.95 -11.15 2.65 L-11.1 1.65 Q-11.2 1.2 -11.2 0.85 -11.2 -0.35 -10.45 -2.35 -9.9 -3.8 -9.1 -5.3 L-10.0 -2.6 Q-10.8 0.1 -10.8 0.75 -10.8 2.4 -9.75 4.55 -9.0 6.1 -8.05 7.1 -8.6 6.1 -8.85 5.15 -9.15 3.9 -9.2 3.2 -9.25 2.8 -9.25 1.6 -9.25 -5.2 -3.95 -8.15 -6.8 -5.95 -7.95 -3.25 -8.85 -1.15 -8.85 1.6 -8.85 3.4 -8.6 4.55 -8.25 6.25 -7.2 7.5 L-7.65 5.6 Q-8.0 3.95 -8.0 3.45 L-7.95 2.45 -7.9 1.95 -7.9 1.45 Q-7.9 -1.5 -6.65 -3.85 -5.3 -6.3 -1.9 -9.25 -5.5 -5.35 -6.55 -3.1 -7.1 -1.85 -7.35 -0.5 -7.55 0.65 -7.55 2.45 -7.55 4.3 -6.95 5.9 -7.15 5.15 -7.15 4.2 -7.15 0.8 -6.5 -1.2 -5.65 -3.85 -3.1 -6.6 -5.45 -3.85 -6.2 -0.85 -6.75 1.25 -6.75 4.95 -6.75 5.4 -6.15 7.0 L-5.8 7.95 Q-5.2 8.75 -4.4 9.4 -4.8 8.6 -5.15 7.35 L-5.5 6.45 Q-5.9 5.2 -5.9 3.3 -5.9 0.1 -4.85 -2.15 -3.7 -4.45 -0.45 -7.8 L-0.4 -7.7 Q-0.4 -7.65 -0.4 -7.55 L-0.85 -6.95 -0.85 -6.85 -2.1 -5.05 Q-3.4 -3.05 -3.85 -1.75 -4.05 -1.05 -4.25 0.15 -3.65 -1.2 -2.6 -3.05 L-0.8 -6.0 Q0.05 -7.4 0.1 -7.6 L0.15 -7.65 Q0.15 -8.15 0.0 -8.5 -0.2 -9.1 -0.7 -9.2 L-0.65 -9.25 Q0.0 -9.3 0.3 -8.6 0.55 -8.1 0.55 -7.7 L0.55 -7.45 Q0.75 -7.6 1.2 -7.55 2.05 -7.4 2.55 -6.75 2.85 -6.45 3.1 -6.0 L3.55 -5.25 Q3.95 -4.65 4.25 -3.75 4.55 -2.8 4.55 -2.2 4.55 -2.1 4.65 -1.65 4.75 -1.15 4.75 -0.95 L4.85 -0.65 4.9 -0.85 Q5.1 -1.9 5.1 -2.65 5.1 -3.0 4.2 -5.75 3.75 -6.95 3.4 -7.35 2.55 -8.25 0.5 -8.5 L0.45 -8.55 Q2.05 -9.45 3.4 -7.9 4.25 -6.9 4.65 -5.6 L5.25 -3.55 Q5.5 -2.75 5.5 -1.8 L5.55 -1.6 5.55 1.3 Q5.5 1.45 5.5 1.85 5.65 1.35 5.85 0.2 6.15 -1.25 6.15 -1.8 6.15 -4.75 4.3 -7.7 3.45 -9.05 2.45 -9.85 1.4 -10.7 0.45 -10.7 L0.05 -10.65 M0.6 -11.55 Q1.8 -11.25 2.9 -10.25 3.75 -9.5 4.3 -8.55 4.6 -8.1 4.75 -7.75 L5.15 -7.15 Q6.0 -5.85 6.2 -4.75 6.3 -4.25 6.3 -2.5 6.3 -1.15 6.05 0.3 5.8 1.8 5.35 3.0 5.25 2.9 5.2 2.6 L5.2 2.15 Q5.2 1.55 5.3 1.25 L5.3 -0.5 4.95 0.6 4.7 0.85 4.7 0.8 4.75 0.65 4.7 0.65 Q4.65 0.6 4.65 0.5 L4.7 0.2 4.35 -1.1 Q3.95 -2.9 3.85 -3.45 3.7 -4.8 3.2 -5.55 2.35 -6.8 0.4 -7.05 L0.4 -7.0 Q0.25 -6.8 -0.25 -6.05 -1.25 -4.75 -1.9 -3.65 -4.35 0.3 -4.9 4.15 L-4.95 4.15 Q-5.1 3.4 -5.1 3.0 -5.1 2.65 -5.0 2.15 L-5.0 2.05 Q-5.0 0.05 -3.85 -2.8 L-3.45 -3.75 Q-4.1 -2.8 -4.4 -2.05 -5.15 -0.2 -5.35 0.8 -5.55 1.65 -5.55 3.3 -5.55 4.95 -5.1 6.55 -4.75 7.75 -4.1 9.25 L-3.5 10.15 -3.55 10.25 Q-3.55 10.3 -3.7 10.3 -5.1 10.3 -6.9 6.5 L-6.8 6.9 Q-6.4 8.05 -6.4 8.45 -6.4 8.65 -6.45 8.6 L-6.45 8.65 -6.55 8.65 Q-7.0 8.65 -7.55 7.95 -7.95 7.7 -8.75 6.8 -9.75 5.6 -10.15 4.7 -9.95 5.25 -9.95 5.35 L-9.95 5.5 -10.0 5.55 -10.15 5.6 Q-10.55 5.6 -11.35 4.4 L-11.8 3.75 -12.55 2.5 -13.4 0.6 -13.45 0.5 -13.65 -0.95 -13.65 -1.15 -13.6 -1.7 Q-13.75 -2.1 -13.9 -3.1 L-14.1 -4.8 Q-14.1 -5.3 -14.0 -6.05 L-13.9 -6.45 -13.9 -6.5 Q-13.9 -7.2 -13.05 -8.35 -12.15 -9.6 -10.8 -10.6 -9.2 -11.75 -7.6 -12.15 -6.6 -12.35 -5.6 -12.3 -5.45 -12.7 -3.8 -12.7 -2.05 -12.7 -1.55 -12.4 L0.15 -11.75 0.6 -11.55 M-1.2 -9.65 L-1.6 -10.05 Q-1.9 -10.4 -1.9 -10.6 L-2.55 -10.6 Q-4.75 -10.6 -6.9 -8.4 -8.05 -7.3 -8.8 -6.05 L-8.9 -6.0 -7.95 -7.3 Q-7.3 -8.15 -6.7 -8.75 -4.9 -10.4 -1.95 -10.95 -1.7 -10.75 -1.7 -10.55 L-1.45 -10.25 Q-1.2 -9.95 -1.2 -9.75 L-1.2 -9.65" fill="#121212" fill-rule="evenodd" stroke="none"/>
    <path d="M0.05 -10.65 L0.45 -10.7 Q1.4 -10.7 2.45 -9.85 3.45 -9.05 4.3 -7.7 6.15 -4.75 6.15 -1.8 6.15 -1.25 5.85 0.2 5.65 1.35 5.5 1.85 5.5 1.45 5.55 1.3 L5.55 -1.6 5.5 -1.8 Q5.5 -2.75 5.25 -3.55 L4.65 -5.6 Q4.25 -6.9 3.4 -7.9 2.05 -9.45 0.45 -8.55 L0.5 -8.5 Q2.55 -8.25 3.4 -7.35 3.75 -6.95 4.2 -5.75 5.1 -3.0 5.1 -2.65 5.1 -1.9 4.9 -0.85 L4.85 -0.65 4.75 -0.95 Q4.75 -1.15 4.65 -1.65 4.55 -2.1 4.55 -2.2 4.55 -2.8 4.25 -3.75 3.95 -4.65 3.55 -5.25 L3.1 -6.0 Q2.85 -6.45 2.55 -6.75 2.05 -7.4 1.2 -7.55 0.75 -7.6 0.55 -7.45 L0.55 -7.7 Q0.55 -8.1 0.3 -8.6 0.0 -9.3 -0.65 -9.25 L-0.7 -9.2 Q-0.2 -9.1 0.0 -8.5 0.15 -8.15 0.15 -7.65 L0.1 -7.6 Q0.05 -7.4 -0.8 -6.0 L-2.6 -3.05 Q-3.65 -1.2 -4.25 0.15 -4.05 -1.05 -3.85 -1.75 -3.4 -3.05 -2.1 -5.05 L-0.85 -6.85 -0.85 -6.95 -0.4 -7.55 Q-0.4 -7.65 -0.4 -7.7 L-0.45 -7.8 Q-3.7 -4.45 -4.85 -2.15 -5.9 0.1 -5.9 3.3 -5.9 5.2 -5.5 6.45 L-5.15 7.35 Q-4.8 8.6 -4.4 9.4 -5.2 8.75 -5.8 7.95 L-6.15 7.0 Q-6.75 5.4 -6.75 4.95 -6.75 1.25 -6.2 -0.85 -5.45 -3.85 -3.1 -6.6 -5.65 -3.85 -6.5 -1.2 -7.15 0.8 -7.15 4.2 -7.15 5.15 -6.95 5.9 -7.55 4.3 -7.55 2.45 -7.55 0.65 -7.35 -0.5 -7.1 -1.85 -6.55 -3.1 -5.5 -5.35 -1.9 -9.25 -5.3 -6.3 -6.65 -3.85 -7.9 -1.5 -7.9 1.45 L-7.9 1.95 -7.95 2.45 -8.0 3.45 Q-8.0 3.95 -7.65 5.6 L-7.2 7.5 Q-8.25 6.25 -8.6 4.55 -8.85 3.4 -8.85 1.6 -8.85 -1.15 -7.95 -3.25 -6.8 -5.95 -3.95 -8.15 -9.25 -5.2 -9.25 1.6 -9.25 2.8 -9.2 3.2 -9.15 3.9 -8.85 5.15 -8.6 6.1 -8.05 7.1 -9.0 6.1 -9.75 4.55 -10.8 2.4 -10.8 0.75 -10.8 0.1 -10.0 -2.6 L-9.1 -5.3 Q-9.9 -3.8 -10.45 -2.35 -11.2 -0.35 -11.2 0.85 -11.2 1.2 -11.1 1.65 L-11.15 2.65 Q-11.15 2.95 -10.75 4.35 L-10.8 4.35 Q-11.45 3.7 -12.0 2.35 L-12.15 2.1 -12.8 1.15 Q-12.9 0.95 -13.05 -0.05 L-13.2 -0.55 -13.1 -0.65 Q-13.05 -0.75 -13.05 -0.85 L-13.15 -2.15 Q-12.9 -4.35 -11.9 -6.3 -9.95 -10.05 -5.6 -11.0 -9.9 -10.65 -12.1 -6.8 -12.85 -5.45 -13.25 -3.85 L-13.4 -4.85 -13.5 -5.95 -13.5 -6.55 Q-13.4 -7.1 -13.1 -7.7 -12.7 -8.45 -12.0 -9.25 -11.4 -9.9 -9.7 -10.85 -7.8 -11.95 -6.75 -11.95 -5.6 -11.95 -5.1 -11.75 -4.6 -11.55 -4.5 -11.55 L-4.0 -11.6 Q-3.85 -11.65 -3.85 -11.75 -3.85 -11.95 -3.9 -11.85 -4.4 -12.05 -4.9 -12.2 L-4.45 -12.3 Q-3.5 -12.55 -3.3 -12.55 -2.25 -12.55 -0.5 -11.75 L-0.4 -11.7 -1.2 -11.65 -1.75 -11.6 Q-2.2 -11.5 -2.2 -11.3 L-2.2 -11.1 Q-2.2 -11.05 -2.05 -11.05 -1.9 -11.05 -1.55 -11.2 -1.35 -11.3 -1.2 -11.35 1.9 -11.05 3.3 -9.55 3.7 -9.15 4.1 -8.5 3.55 -9.05 3.3 -9.4 3.1 -9.65 2.7 -10.0 2.3 -10.3 1.8 -10.6 1.35 -10.7 0.55 -10.75 -0.4 -10.8 -0.4 -10.55 -0.4 -10.45 -0.35 -10.45 L-0.3 -10.5 Q-0.2 -10.6 0.05 -10.65 M-1.2 -9.65 L-1.2 -9.75 Q-1.2 -9.95 -1.45 -10.25 L-1.7 -10.55 Q-1.7 -10.75 -1.95 -10.95 -4.9 -10.4 -6.7 -8.75 -7.3 -8.15 -7.95 -7.3 L-8.9 -6.0 -8.8 -6.05 Q-8.05 -7.3 -6.9 -8.4 -4.75 -10.6 -2.55 -10.6 L-1.9 -10.6 Q-1.9 -10.4 -1.6 -10.05 L-1.2 -9.65" fill="#003366" fill-rule="evenodd" stroke="none"/>
  </g>
</svg>
