<?xml version="1.0" encoding="UTF-8" standalone="no"?>
<svg xmlns:ffdec="https://www.free-decompiler.com/flash" xmlns:xlink="http://www.w3.org/1999/xlink" ffdec:objectType="shape" height="21.95px" width="21.55px" xmlns="http://www.w3.org/2000/svg">
  <g transform="matrix(1.0, 0.0, 0.0, 1.0, 14.45, 13.7)">
    <path d="M1.8 -11.85 L2.7 -11.3 Q3.5 -10.8 4.2 -10.05 4.55 -9.75 5.6 -7.65 6.6 -5.7 6.7 -5.1 L7.0 -4.4 Q7.1 -4.1 7.1 -2.85 L7.0 -1.4 Q6.95 -0.8 6.8 -0.35 L6.8 0.35 Q6.8 1.45 6.55 2.75 6.25 4.25 5.9 4.95 L5.75 4.75 5.75 4.6 Q5.75 4.2 5.9 3.4 6.0 2.6 6.05 2.1 L6.05 0.75 Q5.95 1.95 5.45 3.0 L4.55 5.2 Q4.4 5.7 4.3 6.15 L4.25 6.15 4.25 6.0 4.15 6.05 4.15 5.55 Q4.15 5.4 4.3 5.0 4.35 4.4 4.55 3.95 4.65 3.75 4.85 2.85 L5.0 1.75 Q5.0 1.25 4.8 0.1 L4.6 -0.9 4.55 -0.9 Q3.75 -3.25 3.5 -3.85 3.05 -4.75 2.5 -5.45 1.45 -6.6 0.1 -6.65 0.0 -6.6 0.0 -6.55 0.0 -6.2 0.1 -5.3 0.2 -4.4 0.2 -3.95 0.2 -3.45 0.25 -2.6 0.35 -1.8 0.35 -1.4 0.15 2.45 0.0 4.4 L-0.05 4.45 -0.15 4.45 Q-0.65 4.45 -0.95 2.3 -1.1 1.2 -1.15 0.1 -1.15 -1.0 -1.0 -2.5 -0.85 -3.85 -0.8 -5.8 L-0.95 -5.55 -2.1 -3.7 Q-2.4 -3.1 -2.6 -2.1 -2.75 -1.3 -2.85 -0.8 -2.9 0.0 -3.3 0.95 L-4.2 2.8 Q-4.5 3.55 -4.9 4.65 L-5.5 6.4 Q-5.55 6.25 -5.6 5.95 L-5.55 5.35 -5.35 2.4 -5.35 2.25 -5.45 2.45 Q-6.0 4.0 -7.1 5.1 L-7.7 5.8 Q-9.45 7.8 -9.55 8.15 -9.6 8.15 -9.75 8.25 L-9.85 8.1 -9.9 7.95 -9.65 6.95 Q-9.65 5.3 -10.1 2.75 -9.65 6.0 -9.7 6.65 L-9.7 6.85 -9.75 6.85 Q-9.8 6.9 -9.85 6.9 L-10.6 5.35 -10.6 5.55 -10.65 5.6 -10.75 5.65 Q-11.9 4.5 -13.2 1.45 -14.5 -1.6 -14.45 -3.25 -14.4 -5.1 -13.65 -7.35 -12.85 -9.7 -11.75 -10.75 L-11.3 -11.4 Q-10.8 -11.8 -10.4 -12.25 -9.75 -13.0 -8.6 -13.1 L-8.6 -13.2 -6.65 -13.2 Q-5.8 -13.2 -5.15 -13.35 L-4.25 -13.6 Q-3.35 -13.85 -2.05 -13.35 L-1.85 -13.3 -0.9 -13.25 Q0.35 -13.0 1.8 -11.9 L1.8 -11.85 M0.65 -10.45 Q0.35 -10.45 -0.35 -10.25 L-1.35 -9.95 Q-0.25 -11.15 1.4 -10.45 L1.8 -10.2 Q1.25 -10.45 0.65 -10.45 M3.55 -8.9 L4.3 -8.2 Q4.65 -7.9 4.85 -7.55 L5.2 -6.75 5.5 -5.95 Q6.0 -4.4 6.35 -2.85 L6.65 -1.45 6.65 -1.7 Q6.7 -3.35 6.65 -3.85 6.6 -4.3 6.35 -5.5 L5.7 -7.0 Q5.1 -8.5 4.35 -9.4 3.55 -10.35 1.8 -11.45 0.45 -12.35 -0.9 -12.8 L-2.0 -12.9 Q-3.1 -12.9 -3.4 -12.6 -3.55 -12.3 -3.85 -12.15 L-3.9 -12.15 Q-3.25 -12.9 -2.5 -13.15 L-3.7 -13.25 -4.65 -13.1 -5.35 -12.95 -5.45 -12.65 -5.5 -12.6 Q-5.15 -12.45 -4.9 -12.2 -3.85 -11.25 -2.5 -10.3 -1.45 -9.65 -1.45 -9.55 -1.45 -9.25 -1.15 -8.95 -0.9 -8.6 -0.9 -8.45 L-0.9 -8.3 -0.95 -8.3 -0.95 -8.2 Q-1.5 -7.35 -2.2 -5.95 -3.5 -3.3 -4.25 -0.8 L-4.25 -0.7 Q-4.25 -0.6 -4.55 0.45 L-5.0 1.9 Q-5.1 2.25 -5.1 3.2 -5.15 4.1 -5.3 4.5 L-5.3 4.9 Q-5.2 4.6 -4.15 2.2 -3.55 0.5 -3.2 -0.65 L-2.85 -2.3 Q-2.65 -3.25 -2.25 -3.95 -0.55 -7.1 -0.55 -7.15 L-0.75 -8.05 -0.7 -8.05 Q-0.6 -7.95 -0.4 -7.4 L-0.25 -7.0 -0.2 -7.0 Q0.0 -7.1 0.3 -7.15 1.1 -7.25 1.5 -6.7 L1.5 -6.65 Q2.35 -6.45 3.3 -4.9 4.2 -3.45 4.35 -2.5 4.7 -1.6 5.0 -0.7 5.4 0.75 5.4 1.7 5.35 2.3 5.3 2.8 5.8 1.45 5.85 0.45 L5.75 -0.75 Q5.75 -1.1 4.95 -2.85 L4.0 -4.75 Q3.35 -6.2 2.85 -6.75 1.85 -7.9 -0.15 -8.7 2.25 -8.7 4.3 -4.9 5.1 -3.45 5.6 -1.85 L5.85 -0.95 5.9 -0.95 Q6.45 0.7 6.3 2.35 L6.45 1.2 6.5 0.4 Q6.5 -0.05 6.25 -1.5 5.9 -3.5 5.35 -5.2 4.55 -7.7 3.4 -9.0 L3.55 -8.9 M-12.2 -9.65 Q-12.6 -9.15 -12.9 -8.45 -13.5 -7.2 -13.55 -6.0 L-13.65 -5.6 -13.65 -5.85 -13.9 -4.15 -14.05 -2.6 Q-14.1 -1.3 -12.9 1.3 -11.85 3.55 -11.1 4.35 L-11.3 3.95 Q-12.0 2.6 -12.2 2.05 -12.75 0.8 -12.8 -1.1 L-12.9 -1.6 -12.85 -2.0 Q-12.6 -3.45 -12.6 -4.25 L-12.55 -4.5 Q-12.35 -6.1 -11.85 -7.4 -10.65 -10.4 -7.9 -12.3 -10.25 -10.15 -11.4 -7.25 -12.4 -4.8 -12.5 -2.1 -12.6 1.15 -10.15 5.8 L-10.1 5.8 -10.4 3.8 Q-10.45 3.3 -10.4 2.15 L-10.45 0.75 -10.5 0.6 -10.9 -1.8 Q-10.9 -2.9 -10.6 -4.5 -10.35 -5.9 -9.95 -7.15 -9.35 -9.3 -7.65 -10.9 -5.8 -12.65 -4.65 -11.65 -7.35 -11.9 -9.15 -8.3 -9.75 -7.0 -10.15 -5.45 -10.5 -4.2 -10.5 -3.55 -10.55 -1.5 -9.95 1.8 -9.5 4.45 -9.45 6.15 L-8.9 4.1 -8.85 4.0 -8.85 3.95 -8.8 2.85 -8.65 -1.35 Q-8.85 -4.05 -8.05 -6.35 -7.05 -9.15 -4.7 -10.95 L-4.65 -10.9 Q-6.8 -8.8 -7.7 -6.15 -8.35 -4.1 -8.4 -1.25 L-8.5 2.75 Q-7.8 0.0 -7.7 -1.05 -7.3 -4.05 -5.85 -6.9 -4.2 -10.15 -2.5 -9.8 -5.3 -8.0 -6.35 -5.6 -6.75 -4.7 -7.05 -3.45 -7.35 -2.05 -7.5 -1.3 L-8.45 2.9 -8.65 3.6 -8.65 3.9 Q-8.75 4.6 -9.0 5.1 L-9.45 6.8 -9.45 7.15 -8.8 6.65 Q-7.4 5.1 -6.35 3.25 L-5.85 2.3 Q-5.0 0.15 -4.85 -1.6 -4.75 -2.25 -4.4 -3.3 L-3.75 -5.05 Q-3.55 -5.6 -3.2 -7.05 -2.85 -8.25 -2.6 -8.4 L-3.65 -4.95 Q-4.3 -2.9 -4.6 -1.5 L-4.85 -0.05 -4.6 -0.7 -3.1 -4.55 Q-2.2 -6.8 -1.05 -8.4 -2.45 -10.25 -4.4 -11.7 -5.15 -12.2 -5.75 -12.55 L-6.8 -12.7 -7.35 -12.8 -8.4 -12.75 -8.95 -12.65 Q-9.65 -12.3 -10.4 -11.6 -11.9 -10.3 -12.15 -9.7 L-12.2 -9.65 M-0.6 -3.65 L-0.85 -1.05 Q-0.9 0.5 -0.85 1.0 -0.8 1.45 -0.3 3.55 L-0.25 3.55 -0.1 1.15 Q0.0 -1.3 -0.05 -2.65 -0.05 -4.8 -0.35 -6.3 L-0.6 -3.65" fill="#121212" fill-rule="evenodd" stroke="none"/>
    <path d="M-0.6 -3.65 L-0.35 -6.3 Q-0.05 -4.8 -0.05 -2.65 0.0 -1.3 -0.1 1.15 L-0.25 3.55 -0.3 3.55 Q-0.8 1.45 -0.85 1.0 -0.9 0.5 -0.85 -1.05 L-0.6 -3.65 M-12.2 -9.65 L-12.15 -9.7 Q-11.9 -10.3 -10.4 -11.6 -9.65 -12.3 -8.95 -12.65 L-8.4 -12.75 -7.35 -12.8 -6.8 -12.7 -5.75 -12.55 Q-5.15 -12.2 -4.4 -11.7 -2.45 -10.25 -1.05 -8.4 -2.2 -6.8 -3.1 -4.55 L-4.6 -0.7 -4.85 -0.05 -4.6 -1.5 Q-4.3 -2.9 -3.65 -4.95 L-2.6 -8.4 Q-2.85 -8.25 -3.2 -7.05 -3.55 -5.6 -3.75 -5.05 L-4.4 -3.3 Q-4.75 -2.25 -4.85 -1.6 -5.0 0.15 -5.85 2.3 L-6.35 3.25 Q-7.4 5.1 -8.8 6.65 L-9.45 7.15 -9.45 6.8 -9.0 5.1 Q-8.75 4.6 -8.65 3.9 L-8.65 3.6 -8.45 2.9 -7.5 -1.3 Q-7.35 -2.05 -7.05 -3.45 -6.75 -4.7 -6.35 -5.6 -5.3 -8.0 -2.5 -9.8 -4.2 -10.15 -5.85 -6.9 -7.3 -4.05 -7.7 -1.05 -7.8 0.0 -8.5 2.75 L-8.4 -1.25 Q-8.35 -4.1 -7.7 -6.15 -6.8 -8.8 -4.65 -10.9 L-4.7 -10.95 Q-7.05 -9.15 -8.05 -6.35 -8.85 -4.05 -8.65 -1.35 L-8.8 2.85 -8.85 3.95 -8.85 4.0 -8.9 4.1 -9.45 6.15 Q-9.5 4.45 -9.95 1.8 -10.55 -1.5 -10.5 -3.55 -10.5 -4.2 -10.15 -5.45 -9.75 -7.0 -9.15 -8.3 -7.35 -11.9 -4.65 -11.65 -5.8 -12.65 -7.65 -10.9 -9.35 -9.3 -9.95 -7.15 -10.35 -5.9 -10.6 -4.5 -10.9 -2.9 -10.9 -1.8 L-10.5 0.6 -10.45 0.75 -10.4 2.15 Q-10.45 3.3 -10.4 3.8 L-10.1 5.8 -10.15 5.8 Q-12.6 1.15 -12.5 -2.1 -12.4 -4.8 -11.4 -7.25 -10.25 -10.15 -7.9 -12.3 -10.65 -10.4 -11.85 -7.4 -12.35 -6.1 -12.55 -4.5 L-12.6 -4.25 Q-12.6 -3.45 -12.85 -2.0 L-12.9 -1.6 -12.8 -1.1 Q-12.75 0.8 -12.2 2.05 -12.0 2.6 -11.3 3.95 L-11.1 4.35 Q-11.85 3.55 -12.9 1.3 -14.1 -1.3 -14.05 -2.6 L-13.9 -4.15 -13.65 -5.85 -13.65 -5.6 -13.55 -6.0 Q-13.5 -7.2 -12.9 -8.45 -12.6 -9.15 -12.2 -9.65 M3.55 -8.9 L3.4 -9.0 Q4.55 -7.7 5.35 -5.2 5.9 -3.5 6.25 -1.5 6.5 -0.05 6.5 0.4 L6.45 1.2 6.3 2.35 Q6.45 0.7 5.9 -0.95 L5.85 -0.95 5.6 -1.85 Q5.1 -3.45 4.3 -4.9 2.25 -8.7 -0.15 -8.7 1.85 -7.9 2.85 -6.75 3.35 -6.2 4.0 -4.75 L4.95 -2.85 Q5.75 -1.1 5.75 -0.75 L5.85 0.45 Q5.8 1.45 5.3 2.8 5.35 2.3 5.4 1.7 5.4 0.75 5.0 -0.7 4.7 -1.6 4.35 -2.5 4.2 -3.45 3.3 -4.9 2.35 -6.45 1.5 -6.65 L1.5 -6.7 Q1.1 -7.25 0.3 -7.15 0.0 -7.1 -0.2 -7.0 L-0.25 -7.0 -0.4 -7.4 Q-0.6 -7.95 -0.7 -8.05 L-0.75 -8.05 -0.55 -7.15 Q-0.55 -7.1 -2.25 -3.95 -2.65 -3.25 -2.85 -2.3 L-3.2 -0.65 Q-3.55 0.5 -4.15 2.2 -5.2 4.6 -5.3 4.9 L-5.3 4.5 Q-5.15 4.1 -5.1 3.2 -5.1 2.25 -5.0 1.9 L-4.55 0.45 Q-4.25 -0.6 -4.25 -0.7 L-4.25 -0.8 Q-3.5 -3.3 -2.2 -5.95 -1.5 -7.35 -0.95 -8.2 L-0.95 -8.3 -0.9 -8.3 -0.9 -8.45 Q-0.9 -8.6 -1.15 -8.95 -1.45 -9.25 -1.45 -9.55 -1.45 -9.65 -2.5 -10.3 -3.85 -11.25 -4.9 -12.2 -5.15 -12.45 -5.5 -12.6 L-5.45 -12.65 -5.35 -12.95 -4.65 -13.1 -3.7 -13.25 -2.5 -13.15 Q-3.25 -12.9 -3.9 -12.15 L-3.85 -12.15 Q-3.55 -12.3 -3.4 -12.6 -3.1 -12.9 -2.0 -12.9 L-0.9 -12.8 Q0.45 -12.35 1.8 -11.45 3.55 -10.35 4.35 -9.4 5.1 -8.5 5.7 -7.0 L6.35 -5.5 Q6.6 -4.3 6.65 -3.85 6.7 -3.35 6.65 -1.7 L6.65 -1.45 6.35 -2.85 Q6.0 -4.4 5.5 -5.95 L5.2 -6.75 4.85 -7.55 Q4.65 -7.9 4.3 -8.2 L3.55 -8.9 M0.65 -10.45 Q1.25 -10.45 1.8 -10.2 L1.4 -10.45 Q-0.25 -11.15 -1.35 -9.95 L-0.35 -10.25 Q0.35 -10.45 0.65 -10.45" fill="#003366" fill-rule="evenodd" stroke="none"/>
  </g>
</svg>
