<?xml version="1.0" encoding="UTF-8" standalone="no"?>
<svg xmlns:ffdec="https://www.free-decompiler.com/flash" xmlns:xlink="http://www.w3.org/1999/xlink" ffdec:objectType="shape" height="15.15px" width="13.9px" xmlns="http://www.w3.org/2000/svg">
  <g transform="matrix(1.0, 0.0, 0.0, 1.0, 3.75, 8.85)">
    <path d="M7.05 6.3 L6.7 6.3 6.75 6.25 6.65 6.25 6.55 6.3 6.4 6.25 5.15 6.2 5.5 6.1 Q3.7 6.05 1.95 5.3 L1.95 5.35 1.9 5.25 Q1.2 4.95 0.5 4.55 -0.55 3.9 -1.25 3.25 -1.6 2.85 -1.75 2.55 L-2.3 2.15 Q-2.55 1.8 -2.8 1.4 L-2.85 1.25 Q-3.45 0.2 -3.65 -0.9 -3.7 -1.3 -3.75 -1.75 L-3.75 -2.35 Q-3.75 -4.65 -2.35 -6.25 -2.0 -6.7 -1.7 -6.9 1.25 -9.25 4.45 -8.8 7.8 -8.3 8.75 -4.85 L8.9 -4.55 9.0 -4.25 Q9.1 -4.1 9.15 -3.35 L9.2 -3.15 9.15 -3.15 9.15 -3.1 9.2 -3.05 9.2 -2.9 9.25 -2.55 Q9.25 -2.1 9.2 -1.7 L9.2 -1.6 9.1 -1.55 8.5 1.2 8.2 2.2 8.25 2.2 8.25 2.45 Q8.25 3.35 8.0 4.15 7.7 5.3 7.05 6.3 M5.95 5.6 L5.95 5.6" fill="#c7a36d" fill-rule="evenodd" stroke="none"/>
    <path d="M7.05 6.3 Q7.7 5.3 8.0 4.15 8.25 3.35 8.25 2.45 L8.25 2.2 8.55 1.25 8.5 1.2 9.1 -1.55 9.2 -1.6 9.2 -1.7 Q9.25 -2.1 9.25 -2.55 L9.2 -2.9 9.2 -3.05 9.15 -3.1 9.15 -3.15 9.2 -3.15 9.15 -3.35 Q9.1 -4.1 9.0 -4.25 L8.9 -4.55 9.55 -4.7 9.65 -4.8 9.65 -4.65 9.9 -4.15 9.85 -4.15 Q9.9 -4.0 9.95 -3.15 10.05 -2.75 10.0 -2.35 L9.95 -2.3 10.0 -1.85 Q9.8 -1.0 9.65 -0.5 L9.65 -0.45 9.5 -0.05 Q9.1 1.0 8.85 2.15 8.8 3.2 8.5 4.15 8.3 4.9 7.9 5.65 L7.7 6.1 7.05 6.3" fill="#1a1a1a" fill-rule="evenodd" stroke="none"/>
    <path d="M8.25 2.2 L8.2 2.2 8.5 1.2 8.55 1.25 8.25 2.2" fill="#a9854f" fill-rule="evenodd" stroke="none"/>
    <path d="M5.9 3.05 L5.95 3.2 5.9 3.15 5.9 3.05" fill="#736551" fill-rule="evenodd" stroke="none"/>
    <path d="M7.4 0.65 Q7.4 0.8 7.35 0.95 7.2 1.15 6.9 1.15 6.75 1.15 6.65 1.0 6.6 0.9 6.6 0.75 L6.6 0.5 Q6.65 0.35 6.9 0.2 7.0 0.3 7.25 0.4 7.4 0.5 7.4 0.65 M1.35 0.5 Q1.2 0.85 0.75 0.85 0.6 0.85 0.5 0.7 L0.4 0.6 Q0.3 0.35 0.3 0.25 0.3 -0.15 0.85 -0.2 1.4 -0.25 1.4 0.2 1.4 0.35 1.35 0.45 L1.35 0.5" fill="#ffffff" fill-rule="evenodd" stroke="none"/>
    <path d="M-0.05 0.0 Q0.0 -0.2 0.2 -0.35 0.45 -0.6 0.85 -0.6 L1.3 -0.55 1.5 -0.5 1.55 -0.4 Q1.75 -0.2 1.75 0.2 1.75 0.55 1.55 0.85 1.25 1.2 0.65 1.2 0.2 1.2 0.0 0.7 -0.1 0.45 -0.1 0.2 L-0.1 0.1 -0.05 0.0 M0.6 -1.35 L-0.2 -1.15 -0.7 -1.05 Q-1.4 -0.8 -1.7 -0.6 L-1.75 -0.55 -1.9 -0.45 -2.15 -0.45 -2.5 -0.45 -2.6 -0.55 -2.8 -0.7 -2.8 -0.75 Q-2.95 -0.9 -3.05 -1.1 -3.05 -1.2 -3.1 -1.35 L-3.1 -1.7 Q-3.1 -2.0 -2.9 -2.15 L-0.75 -3.0 Q1.2 -3.3 1.95 -3.3 2.95 -3.3 3.15 -2.75 L3.25 -2.45 3.25 -2.0 Q3.2 -1.75 3.15 -1.6 L3.1 -1.6 2.95 -1.6 2.65 -1.55 2.2 -1.6 2.0 -1.6 1.85 -1.65 Q1.65 -1.55 1.55 -1.55 L0.6 -1.35 M5.75 -1.65 L5.7 -1.7 5.55 -1.8 5.55 -1.85 5.6 -1.95 5.6 -2.05 Q5.6 -2.15 5.7 -2.25 L5.8 -2.4 5.85 -2.4 5.85 -2.45 6.15 -2.7 6.05 -2.5 Q6.25 -2.65 6.4 -2.65 L6.45 -2.65 7.3 -2.7 Q7.75 -2.6 9.1 -2.0 9.7 -1.85 9.95 -1.4 10.2 -1.05 10.1 -0.85 L10.0 -0.75 9.85 -0.55 Q9.75 -0.3 9.5 -0.2 9.35 -0.1 9.2 -0.1 9.05 0.1 8.95 0.15 L8.85 0.2 Q8.6 0.2 8.1 -0.3 7.45 -0.85 7.2 -0.95 L6.45 -1.3 6.4 -1.3 Q6.25 -1.35 6.15 -1.4 L6.15 -1.45 6.0 -1.55 5.85 -1.55 5.75 -1.65 M5.25 0.1 L5.35 0.6 Q5.35 1.0 5.5 1.4 L5.7 2.35 5.75 2.5 5.8 2.8 5.9 3.05 5.85 3.05 Q5.95 3.5 5.95 3.9 L6.0 4.4 5.95 5.1 Q5.9 5.6 5.7 5.65 L5.6 5.7 Q5.35 6.0 4.95 6.0 4.3 6.0 3.75 5.8 3.1 5.6 2.75 5.25 2.5 5.0 2.3 4.35 L2.4 4.25 Q2.45 4.2 2.6 4.2 2.65 4.2 3.5 4.8 4.45 5.35 4.8 5.35 5.15 5.35 5.3 4.65 L5.45 3.9 Q5.45 3.3 5.1 2.5 4.8 1.65 4.8 0.75 4.8 0.5 4.9 0.1 4.95 -0.25 5.05 -0.55 L5.15 -0.7 5.2 -0.75 5.25 -0.5 5.25 -0.4 5.2 -0.15 5.2 0.0 5.25 0.1 M7.4 0.65 Q7.4 0.5 7.25 0.4 7.0 0.3 6.9 0.2 6.65 0.35 6.6 0.5 L6.6 0.75 Q6.6 0.9 6.65 1.0 6.75 1.15 6.9 1.15 7.2 1.15 7.35 0.95 7.4 0.8 7.4 0.65 M7.65 1.1 Q7.5 1.4 7.25 1.5 L6.7 1.5 Q6.4 1.4 6.3 1.15 6.2 0.95 6.2 0.7 6.2 0.25 6.45 0.0 6.65 -0.2 7.0 -0.2 7.35 -0.2 7.55 0.0 7.8 0.25 7.8 0.6 7.8 0.8 7.65 1.1 M1.35 0.5 L1.35 0.45 Q1.4 0.35 1.4 0.2 1.4 -0.25 0.85 -0.2 0.3 -0.15 0.3 0.25 0.3 0.35 0.4 0.6 L0.5 0.7 Q0.6 0.85 0.75 0.85 1.2 0.85 1.35 0.5" fill="#1a1a1a" fill-rule="evenodd" stroke="none"/>
    <path d="M2.2 6.1 L2.2 6.2 2.15 6.05 2.2 6.1" fill="#c7a36d" fill-rule="evenodd" stroke="none"/>
    <path d="M1.3 -0.55 L0.85 -0.6 Q0.45 -0.6 0.2 -0.35 0.0 -0.2 -0.05 0.0 L-0.1 0.0 -0.1 0.1 -0.1 0.2 Q-0.1 0.45 0.0 0.7 0.2 1.2 0.65 1.2 1.25 1.2 1.55 0.85 1.75 0.55 1.75 0.2 1.75 -0.2 1.55 -0.4 1.45 -0.55 1.3 -0.55 M-0.2 -1.15 L-0.15 -1.15 0.4 -1.3 0.6 -1.3 0.6 -1.35 1.55 -1.55 Q1.65 -1.55 1.85 -1.65 L2.0 -1.6 2.2 -1.6 2.65 -1.55 2.95 -1.6 3.1 -1.6 3.2 -1.45 Q3.8 -0.75 3.8 -0.55 3.8 0.2 3.25 0.25 2.8 0.7 1.05 1.55 0.15 1.55 -0.6 1.05 -1.0 0.8 -1.25 0.45 -1.35 0.3 -1.8 0.0 -2.05 -0.2 -2.15 -0.45 L-1.9 -0.45 -1.75 -0.55 -1.7 -0.6 Q-1.4 -0.8 -0.7 -1.05 L-0.2 -1.15 M8.95 0.15 Q8.95 0.7 8.65 1.05 8.2 1.7 6.95 1.7 5.8 1.7 5.45 0.75 5.35 0.55 5.3 0.25 L5.25 0.1 5.2 -0.15 5.25 -0.4 5.25 -0.5 5.2 -0.75 5.15 -0.7 Q5.15 -0.95 5.4 -1.3 5.6 -1.6 5.75 -1.65 L5.85 -1.55 6.0 -1.55 6.15 -1.45 6.15 -1.4 Q6.25 -1.35 6.4 -1.3 L6.45 -1.3 7.2 -0.95 Q7.45 -0.85 8.1 -0.3 8.6 0.2 8.85 0.2 L8.95 0.15 M9.3 -2.45 L9.25 -2.45 9.2 -2.35 9.15 -2.35 9.2 -2.45 9.25 -2.45 9.25 -2.5 9.3 -2.45 M-3.05 -0.55 L-3.05 -0.65 Q-3.1 -0.7 -3.05 -0.8 L-3.05 -0.55 M7.65 1.1 Q7.8 0.8 7.8 0.6 7.8 0.25 7.55 0.0 7.35 -0.2 7.0 -0.2 6.65 -0.2 6.45 0.0 6.2 0.25 6.2 0.7 6.2 0.95 6.3 1.15 6.4 1.4 6.7 1.5 L7.25 1.5 Q7.5 1.4 7.65 1.1 M4.6 0.4 L4.6 0.4 M3.2 3.35 L2.85 3.3 Q2.85 3.25 2.85 3.05 2.85 2.4 3.35 2.5 3.85 2.65 3.85 3.05 3.85 3.35 3.2 3.35" fill="#a9854f" fill-rule="evenodd" stroke="none"/>
  </g>
</svg>
