<?xml version="1.0" encoding="UTF-8" standalone="no"?>
<svg xmlns:ffdec="https://www.free-decompiler.com/flash" xmlns:xlink="http://www.w3.org/1999/xlink" ffdec:objectType="shape" height="15.15px" width="13.75px" xmlns="http://www.w3.org/2000/svg">
  <g transform="matrix(1.0, 0.0, 0.0, 1.0, 3.75, 8.85)">
    <path d="M8.9 -4.55 L9.0 -4.25 Q9.1 -4.1 9.15 -3.35 L9.2 -3.15 9.15 -3.15 9.15 -3.1 9.2 -3.05 9.2 -2.9 9.25 -2.55 Q9.25 -2.1 9.2 -1.7 L9.2 -1.6 9.05 -1.5 9.1 -1.55 9.05 -1.1 8.8 0.15 8.5 1.2 8.2 2.2 8.25 2.2 8.25 2.45 Q8.25 3.35 8.0 4.15 7.7 5.3 7.05 6.3 L6.7 6.3 6.75 6.25 6.65 6.25 6.55 6.3 6.4 6.25 5.15 6.2 5.5 6.1 Q3.7 6.05 1.95 5.3 L1.9 5.25 Q1.2 4.95 0.5 4.55 -0.55 3.9 -1.25 3.25 -1.6 2.85 -1.75 2.55 L-2.3 2.15 Q-2.55 1.8 -2.8 1.4 L-2.85 1.25 Q-3.45 0.2 -3.65 -0.9 -3.7 -1.3 -3.75 -1.75 L-3.75 -2.35 Q-3.75 -4.65 -2.35 -6.25 -2.0 -6.7 -1.7 -6.9 1.25 -9.25 4.45 -8.8 7.8 -8.3 8.75 -4.85 L8.9 -4.55" fill="#c7a36d" fill-rule="evenodd" stroke="none"/>
    <path d="M9.2 -1.6 L9.2 -1.7 Q9.25 -2.1 9.25 -2.55 L9.2 -2.9 9.2 -3.05 9.15 -3.1 9.15 -3.15 9.2 -3.15 9.15 -3.35 Q9.1 -4.1 9.0 -4.25 L8.9 -4.55 9.55 -4.7 9.65 -4.8 9.65 -4.65 9.9 -4.15 9.85 -4.15 Q9.9 -4.0 9.95 -3.15 10.05 -2.75 10.0 -2.35 9.85 -2.1 9.8 -1.65 9.65 -1.0 9.65 -0.45 L9.5 -0.05 Q9.1 1.0 8.85 2.15 8.8 3.2 8.5 4.15 8.3 4.9 7.9 5.65 L7.7 6.1 7.05 6.3 Q7.7 5.3 8.0 4.15 8.25 3.35 8.25 2.45 L8.25 2.2 8.55 1.25 8.5 1.2 8.8 0.15 9.05 -1.1 9.1 -1.55 9.15 -1.55 9.2 -1.6" fill="#1a1a1a" fill-rule="evenodd" stroke="none"/>
    <path d="M8.25 2.2 L8.2 2.2 8.5 1.2 8.55 1.25 8.25 2.2" fill="#a9854f" fill-rule="evenodd" stroke="none"/>
    <path d="M2.7 1.2 L2.7 1.2 M-2.45 -0.05 L-2.2 0.05 -2.3 0.1 -2.45 -0.05 M-1.15 0.3 L-1.45 0.25 -1.25 0.25 -1.15 0.3" fill="#a69375" fill-rule="evenodd" stroke="none"/>
    <path d="M-2.25 0.55 L-2.25 0.55" fill="#736551" fill-rule="evenodd" stroke="none"/>
    <path d="M1.8 0.95 Q1.7 1.2 1.55 1.5 1.25 2.05 0.8 2.05 -0.05 2.05 -0.5 1.6 -0.85 1.3 -0.85 0.95 -0.85 0.45 -0.45 0.2 -0.3 0.15 -0.1 0.1 -0.2 0.2 -0.2 0.35 L-0.25 0.5 -0.25 0.55 Q-0.25 0.65 -0.2 0.75 -0.1 1.05 0.4 1.05 0.5 1.05 0.6 0.85 0.75 0.7 0.75 0.5 0.75 0.2 0.45 0.05 L0.45 0.05 Q1.0 0.1 1.4 0.3 1.8 0.6 1.8 0.95" fill="#ffffff" fill-rule="evenodd" stroke="none"/>
    <path d="M-1.2 0.5 Q-1.05 0.05 -0.7 -0.2 -0.2 -0.55 0.5 -0.45 1.2 -0.4 1.7 -0.05 2.05 0.25 2.15 0.6 L2.25 0.9 2.25 0.95 Q2.25 1.4 2.0 1.8 L1.95 1.85 Q1.5 2.5 0.55 2.5 -0.55 2.5 -1.0 1.8 -1.25 1.4 -1.25 0.95 -1.25 0.7 -1.2 0.5 M3.4 0.7 Q3.0 0.65 2.7 0.3 L2.25 -0.35 2.05 -0.5 1.65 -0.75 0.95 -0.8 Q0.55 -0.8 0.4 -0.95 -0.6 -1.1 -1.3 -0.6 -1.6 -0.35 -1.85 -0.1 L-1.95 -0.1 Q-2.2 -0.15 -2.2 -0.4 -2.2 -0.65 -2.1 -0.85 L-2.0 -1.05 Q-1.75 -1.35 -1.3 -1.55 -0.4 -2.0 0.75 -2.0 2.0 -2.0 2.8 -1.5 3.65 -1.0 3.7 -0.05 L3.9 -0.25 4.2 -0.45 4.35 -0.3 4.4 -0.2 Q4.2 0.15 4.05 0.35 3.75 0.7 3.5 0.7 L3.4 0.7 M4.9 1.6 L4.9 1.45 Q4.9 1.3 4.95 1.25 L4.95 1.2 Q4.95 1.1 5.0 1.05 L5.0 1.0 5.05 0.9 5.05 0.6 5.0 0.55 5.0 0.5 5.1 0.4 5.15 0.4 Q5.2 0.1 5.3 -0.1 5.6 -0.45 5.8 0.4 L6.55 0.3 7.8 0.2 Q8.75 0.2 8.95 0.5 9.1 0.65 9.0 0.8 9.0 0.95 8.9 1.15 8.8 1.35 8.65 1.35 L8.3 1.3 7.05 1.2 Q7.85 1.4 7.85 1.55 L7.65 1.75 7.15 1.75 6.0 1.5 Q6.3 1.75 6.35 1.95 L6.2 2.1 5.6 1.7 5.55 1.7 5.35 1.55 5.3 1.5 5.25 1.95 5.3 2.0 5.3 2.3 5.3 2.35 5.35 2.7 5.35 2.75 5.4 2.85 5.4 3.2 5.65 3.85 5.8 4.15 Q6.25 5.25 6.25 5.45 6.25 5.75 6.15 5.8 5.8 6.25 5.4 6.25 L5.2 6.3 5.15 6.2 4.85 6.25 Q4.4 6.25 3.35 5.75 L2.45 5.2 2.1 5.2 2.1 5.4 2.45 5.5 2.45 5.55 Q2.45 5.65 2.3 5.7 L2.0 5.7 Q1.8 5.7 1.75 5.6 L1.6 5.45 Q1.5 5.3 1.5 5.15 1.5 4.15 2.9 4.75 3.15 4.9 3.95 5.3 4.5 5.6 4.65 5.6 L5.0 5.5 Q5.3 5.4 5.4 5.4 L5.5 5.4 5.6 5.3 5.55 5.2 5.55 5.15 Q5.2 4.5 5.05 3.8 L5.05 3.7 Q5.0 3.45 4.95 3.15 L4.95 2.95 4.9 2.4 4.9 1.6 M1.8 0.95 Q1.8 0.6 1.4 0.3 1.0 0.1 0.45 0.05 L0.45 0.05 Q0.75 0.2 0.75 0.5 0.75 0.7 0.6 0.85 0.5 1.05 0.4 1.05 -0.1 1.05 -0.2 0.75 -0.25 0.65 -0.25 0.55 L-0.25 0.5 -0.2 0.35 Q-0.2 0.2 -0.1 0.1 -0.3 0.15 -0.45 0.2 -0.85 0.45 -0.85 0.95 -0.85 1.3 -0.5 1.6 -0.05 2.05 0.8 2.05 1.25 2.05 1.55 1.5 1.7 1.2 1.8 0.95" fill="#1a1a1a" fill-rule="evenodd" stroke="none"/>
    <path d="M-1.0 1.8 Q-0.55 2.5 0.55 2.5 1.5 2.5 1.95 1.85 L2.0 1.8 Q2.25 1.4 2.25 0.95 L2.25 0.9 2.15 0.6 Q2.05 0.25 1.7 -0.05 1.2 -0.4 0.5 -0.45 -0.2 -0.55 -0.7 -0.2 -1.05 0.05 -1.2 0.5 -1.25 0.65 -1.35 0.65 -1.3 0.8 -1.3 1.0 -1.15 1.55 -1.1 1.65 L-1.0 1.8 M-1.95 -0.1 L-1.85 -0.1 Q-1.6 -0.35 -1.3 -0.6 -0.6 -1.1 0.4 -0.95 0.55 -0.8 0.95 -0.8 L1.65 -0.75 2.05 -0.5 2.25 -0.35 2.7 0.3 Q3.0 0.65 3.4 0.7 3.35 0.85 3.2 1.0 3.05 1.25 2.85 1.25 L2.7 1.2 2.7 1.25 Q2.6 1.6 2.25 2.0 1.55 2.7 0.4 2.7 -1.1 2.7 -1.6 1.65 -1.8 1.15 -1.75 0.65 L-1.75 0.55 -1.85 0.4 -1.95 0.1 -1.95 -0.1 M4.8 -0.85 Q4.75 -1.05 4.75 -1.3 4.75 -1.8 5.5 -1.8 5.85 -1.8 6.0 -1.7 6.05 -1.6 6.05 -1.45 6.05 -1.3 5.8 -0.9 5.5 -0.4 5.35 -0.4 4.95 -0.4 4.8 -0.85 M8.3 1.3 Q8.4 1.4 8.4 1.6 8.4 1.9 8.2 2.0 7.8 2.15 6.5 2.15 L6.0 2.15 Q6.65 3.0 6.95 3.2 6.8 3.55 6.55 3.55 L6.5 3.5 6.35 3.55 Q6.25 3.55 6.05 3.3 L6.2 3.65 Q6.5 4.0 6.5 4.2 6.4 4.3 6.3 4.35 L6.05 4.05 Q5.8 4.0 5.65 3.85 L5.4 3.2 5.4 2.85 5.35 2.75 5.35 2.7 5.3 2.35 5.35 2.4 5.3 2.3 5.3 2.0 5.25 1.95 5.3 1.5 5.35 1.55 5.55 1.7 5.6 1.7 6.2 2.1 6.35 1.95 Q6.3 1.75 6.0 1.5 L7.15 1.75 7.65 1.75 7.85 1.55 Q7.85 1.4 7.05 1.2 L8.3 1.3 M5.05 3.8 L4.95 3.8 4.3 3.7 3.5 3.85 3.15 3.9 2.95 3.8 2.9 3.8 Q2.85 3.4 2.7 2.95 L2.75 3.0 2.8 2.75 Q2.9 2.45 3.3 2.05 3.9 1.55 4.75 1.55 L4.8 1.6 Q4.8 1.55 4.85 1.6 L4.9 1.6 4.9 2.4 4.95 2.95 4.95 3.15 Q5.0 3.45 5.05 3.7 L5.05 3.8 M4.3 3.5 L4.5 3.55 4.35 3.5 4.3 3.5 M3.35 2.75 L3.35 2.75 M4.55 1.9 L4.55 1.85 4.5 1.9 4.55 1.9 M2.7 1.2 L2.7 1.2 M2.05 3.15 L2.05 3.25 1.7 3.5 1.55 3.75 Q1.35 4.2 1.35 4.4 1.35 4.5 1.15 4.55 0.9 4.55 0.75 4.35 0.45 4.05 0.25 3.9 0.4 3.15 1.4 3.1 1.7 2.9 2.05 3.1 L2.05 3.15 M2.95 3.6 L2.95 3.65 3.05 3.6 2.95 3.6 M-1.15 0.3 L-1.25 0.25 -1.45 0.25 -1.15 0.3" fill="#a9854f" fill-rule="evenodd" stroke="none"/>
  </g>
</svg>
