<?xml version="1.0" encoding="UTF-8" standalone="no"?>
<svg xmlns:ffdec="https://www.free-decompiler.com/flash" xmlns:xlink="http://www.w3.org/1999/xlink" ffdec:objectType="shape" height="15.15px" width="14.25px" xmlns="http://www.w3.org/2000/svg">
  <g transform="matrix(1.0, 0.0, 0.0, 1.0, 4.25, 8.85)">
    <path d="M7.05 6.3 L6.7 6.3 6.75 6.25 6.65 6.25 6.55 6.3 6.4 6.25 5.15 6.2 5.5 6.1 Q3.7 6.05 1.95 5.3 L1.95 5.35 1.9 5.25 Q1.2 4.95 0.5 4.55 -0.55 3.9 -1.25 3.25 -1.6 2.85 -1.75 2.55 L-2.3 2.15 Q-2.55 1.8 -2.8 1.4 L-2.85 1.25 Q-3.45 0.2 -3.65 -0.9 -3.7 -1.3 -3.75 -1.75 L-3.75 -2.35 Q-3.75 -4.65 -2.35 -6.25 -2.0 -6.7 -1.7 -6.9 1.25 -9.25 4.45 -8.8 7.8 -8.3 8.75 -4.85 L8.9 -4.55 9.0 -4.25 Q9.1 -4.1 9.15 -3.35 L9.2 -3.15 9.15 -3.15 9.15 -3.1 9.2 -3.05 9.2 -2.9 9.25 -2.55 Q9.25 -2.1 9.2 -1.7 L9.2 -1.6 9.1 -1.55 9.05 -1.1 8.8 0.15 8.5 1.2 8.2 2.2 8.25 2.2 8.25 2.45 Q8.25 3.35 8.0 4.15 7.7 5.3 7.05 6.3 M5.95 5.6 L5.95 5.6" fill="#c7a36d" fill-rule="evenodd" stroke="none"/>
    <path d="M8.9 -4.55 L9.55 -4.7 9.65 -4.8 9.65 -4.65 9.9 -4.15 9.85 -4.15 Q9.9 -4.0 9.95 -3.15 10.05 -2.75 10.0 -2.35 L9.95 -2.3 10.0 -1.85 Q9.8 -1.0 9.65 -0.5 L9.65 -0.45 9.5 -0.05 Q9.1 1.0 8.85 2.15 8.8 3.2 8.5 4.15 8.3 4.9 7.9 5.65 L7.7 6.1 7.05 6.3 Q7.7 5.3 8.0 4.15 8.25 3.35 8.25 2.45 L8.25 2.2 8.55 1.25 8.5 1.2 8.8 0.15 9.05 -1.1 9.1 -1.55 9.2 -1.6 9.2 -1.7 Q9.25 -2.1 9.25 -2.55 L9.2 -2.9 9.2 -3.05 9.15 -3.1 9.15 -3.15 9.2 -3.15 9.15 -3.35 Q9.1 -4.1 9.0 -4.25 L8.9 -4.55" fill="#1a1a1a" fill-rule="evenodd" stroke="none"/>
    <path d="M8.5 1.2 L8.55 1.25 8.25 2.2 8.2 2.2 8.5 1.2" fill="#a9854f" fill-rule="evenodd" stroke="none"/>
    <path d="M2.4 1.25 L2.5 1.25 2.45 1.3 2.4 1.25 M2.7 1.2 L2.7 1.2 M-1.4 0.25 L-1.4 0.25 M-2.35 0.05 L-2.45 -0.05 -2.2 0.05 -2.3 0.1 -2.35 0.05" fill="#a69375" fill-rule="evenodd" stroke="none"/>
    <path d="M-2.25 0.6 L-2.25 0.6" fill="#736551" fill-rule="evenodd" stroke="none"/>
    <path d="M2.55 0.05 Q2.55 0.45 2.05 1.0 L1.65 1.4 1.6 1.4 1.6 1.15 1.55 1.15 0.7 1.1 -0.6 1.15 -0.7 0.85 -0.8 0.35 -0.4 0.05 1.5 -0.45 Q1.15 -0.2 1.15 0.4 L1.2 0.75 1.25 0.85 1.2 0.9 1.25 1.05 1.5 1.1 1.7 1.1 Q1.8 1.1 1.95 0.8 L1.95 0.75 Q2.2 0.4 2.2 0.2 L2.2 -0.2 2.4 -0.05 2.55 0.05 M6.75 -0.05 L6.8 -0.05 7.15 -0.25 7.45 -0.3 Q7.35 -0.15 7.2 0.1 L7.2 0.15 Q7.15 0.25 7.15 0.5 7.15 0.6 7.2 0.75 7.3 0.95 7.5 0.95 L7.75 0.9 7.7 1.0 6.7 0.95 Q6.45 0.95 6.4 1.15 L6.4 0.9 Q6.4 0.35 6.75 -0.05" fill="#ffffff" fill-rule="evenodd" stroke="none"/>
    <path d="M-2.2 -0.7 L-2.3 -0.8 Q-2.45 -0.95 -2.55 -1.15 -2.6 -1.35 -2.6 -1.6 -2.65 -2.0 -2.4 -2.2 L-0.3 -3.1 Q1.65 -3.45 2.4 -3.45 3.4 -3.45 3.65 -2.9 L3.7 -2.65 3.7 -2.3 Q3.7 -1.85 3.55 -1.75 L3.25 -1.7 3.05 -1.65 3.15 -1.6 2.9 -1.55 2.3 -1.45 1.25 -1.3 -1.4 -0.75 -1.75 -0.6 -2.05 -0.55 -2.2 -0.7 M3.2 0.35 L3.15 0.45 3.0 0.6 2.9 0.5 2.8 0.35 2.75 0.35 2.55 0.05 2.4 -0.05 2.2 -0.2 2.2 0.2 Q2.2 0.4 1.95 0.75 L1.95 0.8 Q1.8 1.1 1.7 1.1 L1.5 1.1 1.25 1.05 1.2 0.9 1.25 0.85 1.2 0.75 1.15 0.4 Q1.15 -0.2 1.5 -0.45 L-0.4 0.05 -0.8 0.35 -0.7 0.85 -0.6 1.15 0.7 1.1 1.55 1.15 1.6 1.15 1.6 1.4 1.55 1.45 -0.05 1.55 -0.95 1.55 -1.15 1.3 Q-1.2 1.2 -1.2 1.1 L-1.65 1.1 -1.75 1.05 -1.75 0.85 Q-1.75 0.75 -1.65 0.6 -1.6 0.4 -1.4 0.25 L-1.3 0.15 -1.3 0.05 -1.2 0.05 Q-1.05 -0.2 -0.55 -0.45 L-0.4 -0.55 0.0 -0.7 Q0.4 -0.85 0.8 -0.95 L1.0 -0.95 1.15 -1.0 2.2 -0.7 3.0 -0.5 3.05 -0.45 3.2 -0.15 3.2 -0.1 3.25 0.25 3.2 0.35 M6.35 -1.3 L5.8 -1.35 5.75 -1.15 5.7 -0.55 5.65 -0.5 Q5.55 -0.2 5.55 0.25 L5.55 0.4 Q5.5 0.6 5.5 1.05 L5.5 1.4 5.7 2.35 5.75 2.5 5.8 2.8 5.9 3.05 5.85 3.05 Q5.95 3.5 5.95 3.9 L6.0 4.4 5.95 5.1 Q5.9 5.6 5.7 5.65 L5.6 5.7 Q5.35 6.0 4.95 6.0 4.3 6.0 3.75 5.8 3.1 5.6 2.75 5.25 2.5 5.0 2.3 4.35 L2.4 4.25 Q2.45 4.2 2.6 4.2 2.65 4.2 3.5 4.8 4.45 5.35 4.8 5.35 5.15 5.35 5.3 4.65 L5.45 3.9 Q5.45 3.3 5.1 2.5 4.8 1.65 4.8 0.75 4.8 0.5 4.9 0.1 4.95 -0.25 5.05 -0.55 L5.25 -0.85 5.3 -1.0 5.55 -1.4 5.5 -1.5 5.5 -1.55 Q5.9 -2.25 6.3 -2.65 L6.35 -2.7 6.85 -2.7 Q7.35 -2.65 8.75 -2.2 9.35 -2.1 9.65 -1.7 9.95 -1.35 9.85 -1.2 L9.75 -1.05 9.65 -0.8 Q9.55 -0.6 9.3 -0.45 9.1 -0.3 8.95 -0.3 L8.9 -0.3 8.85 -0.35 8.85 -0.45 8.55 -0.45 8.55 -0.5 8.5 -0.55 8.45 -0.55 8.5 -0.15 8.4 0.25 Q8.25 0.65 8.25 0.85 L8.25 0.9 8.2 1.05 8.1 1.2 8.1 1.25 8.05 1.3 7.9 1.55 7.9 1.5 7.85 1.45 7.8 1.45 6.45 1.35 6.4 1.3 6.4 1.15 Q6.45 0.95 6.7 0.95 L7.7 1.0 7.75 0.9 7.5 0.95 Q7.3 0.95 7.2 0.75 7.15 0.6 7.15 0.5 7.15 0.25 7.2 0.15 L7.2 0.1 Q7.35 -0.15 7.45 -0.3 L7.15 -0.25 6.8 -0.05 6.75 -0.05 6.5 0.1 Q6.35 0.6 6.2 0.7 L6.15 0.65 6.05 0.45 Q6.05 0.15 6.15 -0.1 L6.3 -0.3 6.35 -0.35 6.4 -0.5 6.8 -0.65 Q7.25 -0.8 7.8 -0.8 L7.95 -0.85 Q7.15 -1.2 6.35 -1.3 M8.5 1.1 L8.5 1.2 8.45 1.15 8.35 1.1 8.5 1.1 M6.25 0.85 L6.3 0.85 6.25 0.9 6.25 0.85 M-0.4 1.95 L-0.4 2.0 -0.45 1.95 -0.4 1.95" fill="#1a1a1a" fill-rule="evenodd" stroke="none"/>
    <path d="M8.35 1.1 L8.45 1.15 8.35 1.1 M2.2 6.1 L2.2 6.2 2.15 6.05 2.2 6.1" fill="#c7a36d" fill-rule="evenodd" stroke="none"/>
    <path d="M-3.05 -0.55 L-3.05 -0.65 Q-3.1 -0.7 -3.05 -0.8 L-3.0 -0.75 -3.05 -0.55 M3.7 -2.65 L3.8 -2.7 4.0 -2.3 4.15 -1.95 Q3.65 -1.75 3.15 -1.6 L3.05 -1.65 3.25 -1.7 3.55 -1.75 Q3.7 -1.85 3.7 -2.3 L3.7 -2.65 M2.9 -1.55 L3.3 -1.2 3.6 -0.85 3.8 -0.45 4.05 -0.45 3.95 -0.1 Q3.8 0.45 3.45 0.45 3.3 0.45 3.2 0.35 L3.25 0.25 3.2 -0.1 3.2 -0.15 3.05 -0.45 3.0 -0.5 2.2 -0.7 1.15 -1.0 1.0 -0.95 0.8 -0.95 Q0.4 -0.85 0.0 -0.7 L-0.4 -0.55 -0.55 -0.45 Q-1.05 -0.2 -1.2 0.05 L-1.3 0.05 -1.3 0.15 -1.4 0.25 -1.4 0.25 Q-1.6 0.4 -1.65 0.6 -2.0 0.4 -2.1 -0.1 -2.2 -0.4 -2.2 -0.7 L-2.05 -0.55 -1.75 -0.6 -1.4 -0.75 1.25 -1.3 2.3 -1.45 2.9 -1.55 M5.75 -1.15 L6.25 -1.3 6.35 -1.3 Q7.15 -1.2 7.95 -0.85 L7.8 -0.8 Q7.2 -0.85 6.8 -0.65 L6.4 -0.5 6.35 -0.35 6.3 -0.3 6.15 -0.1 Q6.05 0.15 6.05 0.45 L6.15 0.65 6.15 0.7 6.05 0.95 6.05 1.05 Q6.05 1.1 5.75 1.4 L5.5 1.4 5.5 1.05 Q5.5 0.6 5.55 0.4 L5.55 0.25 Q5.55 -0.2 5.65 -0.5 L5.7 -0.55 5.75 -1.15 M8.1 1.25 L8.1 1.2 8.2 1.05 8.25 0.9 8.25 0.85 Q8.25 0.65 8.4 0.25 L8.5 -0.15 8.45 -0.55 8.5 -0.55 8.55 -0.5 8.55 -0.45 8.85 -0.45 8.85 -0.35 8.9 -0.3 8.95 -0.3 8.9 -0.1 8.85 0.45 8.5 1.1 8.35 1.1 8.45 1.15 Q8.35 1.25 8.3 1.25 L8.1 1.25 M6.3 1.9 Q6.3 1.75 6.4 1.7 6.65 1.55 7.6 1.6 L7.8 2.05 7.75 2.1 6.4 2.1 6.3 1.9 M3.2 3.35 L2.85 3.3 Q2.85 3.25 2.85 3.05 2.85 2.4 3.35 2.5 3.85 2.65 3.85 3.05 3.85 3.35 3.2 3.35 M-0.4 1.95 Q-0.35 1.8 -0.1 1.65 0.2 1.55 0.55 1.55 1.5 1.55 1.5 2.1 1.5 2.2 1.45 2.25 L1.35 2.3 0.55 2.35 Q-0.1 2.35 -0.3 2.2 -0.4 2.15 -0.4 2.0 L-0.4 1.95" fill="#a9854f" fill-rule="evenodd" stroke="none"/>
    <path d="M2.25 -1.8 Q2.1 -1.6 1.05 -1.2 L-0.15 -0.75 Q-0.35 -0.65 -0.5 -0.4 0.15 -0.7 0.85 -0.9 2.8 -1.45 2.8 -0.7 2.8 -0.25 2.0 -0.2 1.0 -0.3 0.65 -0.2 L-0.15 0.1 Q-0.65 0.25 -0.85 0.3 -0.95 0.4 -1.1 0.45 L-1.15 0.3 -1.15 0.2 -1.2 0.2 -1.2 0.1 Q-1.15 -0.05 -1.05 -0.25 -0.9 -0.55 -0.85 -0.7 L-1.4 -0.5 -1.35 -0.6 -1.5 -0.6 -1.95 -0.65 -1.95 -0.9 -1.9 -1.1 Q-1.9 -1.2 -1.7 -1.25 L-1.6 -1.0 Q-1.4 -1.05 -0.85 -1.25 L-0.05 -1.65 Q0.45 -1.85 0.75 -1.85 L0.95 -1.85 2.05 -2.0 2.25 -1.8 M9.1 -0.1 L9.2 0.0 9.0 0.15 8.8 0.2 8.6 0.2 8.6 0.15 8.55 0.05 8.8 -0.1 9.1 -0.1 M8.35 -1.15 L7.7 -1.25 Q7.2 -1.25 6.85 -1.1 6.5 -0.85 6.2 -0.7 6.65 -1.6 7.65 -2.0 8.7 -2.45 8.7 -1.5 8.7 -1.1 8.35 -1.15 M9.05 0.4 L9.05 0.5 Q9.05 0.7 8.9 0.9 8.75 1.15 8.5 1.2 L8.3 1.15 Q8.25 1.25 8.25 1.05 8.25 1.0 8.5 0.7 8.75 0.35 8.95 0.35 L9.05 0.4 M7.85 1.7 L7.95 1.6 8.1 1.75 8.1 1.95 Q8.1 2.25 7.75 2.55 7.7 2.75 7.2 3.05 6.65 3.45 6.2 3.45 6.0 3.45 5.8 3.3 5.65 3.2 5.6 3.05 L5.6 2.7 5.65 2.65 5.8 2.6 Q5.8 2.35 5.75 2.2 L5.75 1.85 5.8 1.8 5.9 2.4 Q6.05 2.85 6.6 2.85 L6.65 2.85 6.95 2.6 7.75 2.0 7.75 1.95 7.55 2.0 Q7.35 2.0 6.8 1.8 6.15 1.6 6.05 1.45 L6.5 1.6 Q6.85 1.7 7.15 1.7 7.3 1.7 7.7 1.6 L7.85 1.65 7.85 1.7 M7.9 4.7 Q7.8 4.8 7.65 4.8 7.45 4.8 7.15 4.5 6.75 4.1 6.5 3.95 L6.45 3.9 7.3 4.0 Q8.0 4.1 8.0 4.5 8.0 4.6 7.9 4.7 M3.05 1.15 Q3.05 1.35 2.75 1.65 2.45 1.95 2.45 2.2 2.45 2.85 2.0 3.25 1.4 3.75 0.25 3.75 -0.05 3.75 -0.45 3.15 -0.8 2.65 -0.95 2.2 L-0.95 2.1 -0.35 2.75 Q0.2 3.2 0.45 3.2 1.5 3.2 1.85 2.8 2.1 2.5 2.05 1.95 2.0 1.8 2.15 1.7 2.25 1.65 2.6 1.4 2.75 1.3 2.8 1.05 2.8 0.8 2.95 0.75 3.05 0.9 3.05 1.15 M3.8 3.4 L4.0 3.7 4.25 4.0 Q4.3 4.05 4.1 4.05 3.9 4.05 3.65 3.75 3.4 3.45 3.15 3.45 2.75 3.45 2.55 3.8 2.3 4.2 2.2 4.25 1.35 4.35 1.0 4.55 L0.55 4.85 Q0.75 4.4 1.4 4.05 L2.45 3.5 Q3.45 2.75 3.7 2.8 3.8 2.85 3.8 3.4 M-4.25 -0.2 Q-3.65 -0.45 -3.15 0.15 L-2.7 0.75 Q-2.5 0.75 -2.15 0.55 L-1.8 0.35 -1.6 0.45 -1.55 0.5 -1.55 0.6 Q-1.55 0.8 -2.55 1.05 -2.95 1.05 -3.65 0.5 -4.25 -0.05 -4.25 -0.15 L-4.25 -0.2 M-1.05 0.65 Q-1.0 0.8 -1.0 0.95 -1.0 1.15 -1.55 1.55 -2.1 1.95 -2.55 1.95 -2.8 1.95 -3.15 1.8 L-3.5 1.55 -3.55 1.5 -3.1 1.55 Q-2.4 1.55 -1.9 1.25 -1.4 0.95 -1.4 0.6 -1.2 0.45 -1.05 0.65" fill="#1a1a1a" fill-rule="evenodd" stroke="none"/>
  </g>
</svg>
