<?xml version="1.0" encoding="UTF-8" standalone="no"?>
<svg xmlns:ffdec="https://www.free-decompiler.com/flash" xmlns:xlink="http://www.w3.org/1999/xlink" ffdec:objectType="shape" height="15.9px" width="13.75px" xmlns="http://www.w3.org/2000/svg">
  <g transform="matrix(1.0, 0.0, 0.0, 1.0, 3.75, 8.85)">
    <path d="M8.9 -4.55 L9.0 -4.25 Q9.1 -4.1 9.15 -3.35 L9.2 -3.05 9.2 -2.9 9.25 -2.55 Q9.25 -2.1 9.2 -1.7 L9.2 -1.6 9.05 -1.5 9.1 -1.55 9.05 -1.1 8.8 0.15 8.5 1.2 8.2 2.2 8.25 2.2 8.25 2.45 Q8.25 3.35 8.0 4.15 L7.05 6.3 6.7 6.3 6.75 6.25 6.65 6.25 6.55 6.3 5.5 6.1 Q3.7 6.05 1.95 5.3 L1.95 5.35 1.9 5.25 Q1.2 4.95 0.5 4.55 -0.55 3.9 -1.25 3.25 -1.6 2.85 -1.75 2.55 L-2.3 2.15 Q-2.55 1.8 -2.8 1.4 L-2.85 1.25 Q-3.45 0.2 -3.65 -0.9 -3.7 -1.3 -3.75 -1.75 L-3.75 -2.35 Q-3.75 -4.65 -2.35 -6.25 -2.0 -6.7 -1.7 -6.9 1.25 -9.25 4.45 -8.8 7.8 -8.3 8.75 -4.85 L8.9 -4.55" fill="#c7a36d" fill-rule="evenodd" stroke="none"/>
    <path d="M8.9 -4.55 L9.55 -4.7 9.65 -4.8 9.65 -4.65 9.9 -4.15 9.85 -4.15 Q9.9 -4.0 9.95 -3.15 10.05 -2.75 10.0 -2.35 L9.95 -2.3 10.0 -1.85 Q9.8 -1.0 9.65 -0.5 L9.65 -0.45 9.5 -0.05 Q9.1 1.0 8.85 2.15 8.8 3.2 8.5 4.15 8.3 4.9 7.9 5.65 L7.7 6.1 7.05 6.3 8.0 4.15 Q8.25 3.35 8.25 2.45 L8.25 2.2 8.55 1.25 8.5 1.2 8.8 0.15 9.05 -1.1 9.1 -1.55 9.15 -1.55 9.2 -1.6 9.2 -1.7 Q9.25 -2.1 9.25 -2.55 L9.2 -2.9 9.2 -3.05 9.15 -3.35 Q9.1 -4.1 9.0 -4.25 L8.9 -4.55" fill="#1a1a1a" fill-rule="evenodd" stroke="none"/>
    <path d="M8.5 1.2 L8.55 1.25 8.25 2.2 8.2 2.2 8.5 1.2" fill="#a9854f" fill-rule="evenodd" stroke="none"/>
    <path d="M0.55 -1.35 L0.75 -1.35 Q2.15 -1.25 2.65 -0.4 2.8 -0.1 2.95 0.45 3.05 0.9 3.15 1.15 L3.2 1.25 2.7 1.15 2.6 1.2 Q2.3 1.4 1.65 1.4 L1.1 1.3 0.95 1.35 0.9 1.35 Q-1.0 0.0 -0.9 -1.0 L-0.75 -1.15 Q-0.45 -1.3 -0.1 -1.4 L0.55 -1.35 M2.25 -0.6 Q1.95 -0.9 1.55 -0.95 1.1 -0.95 0.85 -0.65 0.5 -0.3 0.5 0.3 0.5 0.55 0.9 0.75 1.3 0.95 2.05 1.0 L2.4 0.7 Q2.6 0.6 2.6 0.4 2.6 -0.2 2.25 -0.6 M8.25 -1.15 Q8.3 -0.65 8.3 -0.1 8.3 0.1 8.05 0.7 L8.05 0.4 Q8.05 0.05 7.85 -0.2 7.65 -0.4 7.35 -0.45 7.1 -0.5 6.9 -0.3 6.7 -0.05 6.7 0.4 6.7 0.7 6.75 0.8 6.95 0.95 7.7 1.05 L8.0 0.8 7.95 0.8 Q7.55 1.6 7.2 1.6 L6.9 1.55 Q6.65 1.55 6.5 1.4 6.35 1.3 6.25 1.3 L6.1 1.3 Q6.6 -0.95 7.6 -0.95 L7.75 -0.95 8.05 -1.2 8.25 -1.15" fill="#ffffff" fill-rule="evenodd" stroke="none"/>
    <path d="M2.45 -2.3 L2.7 -2.2 Q3.25 -2.05 3.55 -1.85 L3.65 -1.85 Q3.9 -1.85 4.0 -2.2 4.05 -2.35 4.05 -2.55 4.05 -2.65 4.0 -2.75 L3.9 -2.85 3.95 -2.85 Q4.3 -2.65 4.4 -2.45 4.45 -2.35 4.45 -2.0 4.45 -1.85 4.35 -1.65 4.25 -1.4 4.05 -1.4 3.9 -1.4 3.7 -1.5 L3.2 -1.65 Q3.3 -1.6 3.15 -1.6 L2.85 -1.65 2.4 -1.6 1.7 -1.75 Q2.0 -1.6 2.2 -1.4 2.5 -1.3 2.8 -0.8 3.25 -0.45 3.5 0.35 3.65 0.8 3.8 1.5 3.85 1.6 3.9 1.85 L3.9 2.05 Q3.9 2.75 3.8 3.5 L3.75 3.5 Q3.7 3.15 3.4 2.45 L3.15 1.85 Q3.1 1.75 3.05 1.65 2.95 1.4 2.75 1.4 L2.55 1.45 2.25 1.6 Q1.85 1.8 1.35 1.8 L0.9 1.75 0.7 1.85 Q0.25 1.85 -0.7 0.55 L-1.4 -0.45 -1.45 -0.5 Q-1.5 -0.65 -1.7 -0.7 L-1.75 -0.7 -2.1 -0.65 -1.65 -1.2 -1.5 -1.25 Q-0.85 -1.75 0.3 -1.85 L0.8 -1.9 0.1 -2.0 0.05 -2.0 -0.4 -2.05 -1.1 -2.5 -1.2 -2.7 Q-1.5 -3.05 -1.6 -3.45 L-1.6 -3.85 -1.55 -3.85 Q-1.5 -3.3 -0.8 -2.95 -0.3 -2.75 0.9 -2.55 L1.25 -2.5 2.0 -2.4 2.45 -2.3 M0.55 -1.35 L-0.1 -1.4 Q-0.45 -1.3 -0.75 -1.15 L-0.9 -1.0 Q-1.0 0.0 0.9 1.35 L0.95 1.35 1.1 1.3 1.65 1.4 Q2.3 1.4 2.6 1.2 L2.7 1.15 3.2 1.25 3.15 1.15 Q3.05 0.9 2.95 0.45 2.8 -0.1 2.65 -0.4 2.15 -1.25 0.75 -1.35 L0.55 -1.35 M1.4 -0.2 L1.5 -0.15 1.6 -0.2 Q1.7 -0.3 1.85 0.0 L1.85 0.2 Q1.8 0.25 1.7 0.25 L1.4 0.25 1.35 0.2 1.35 0.15 1.3 0.05 Q1.35 -0.05 1.35 -0.1 L1.4 -0.2 M2.25 -0.6 Q2.6 -0.2 2.6 0.4 2.6 0.6 2.4 0.7 L2.05 1.0 Q1.3 0.95 0.9 0.75 0.5 0.55 0.5 0.3 0.5 -0.3 0.85 -0.65 1.1 -0.95 1.55 -0.95 1.95 -0.9 2.25 -0.6 M1.5 -0.75 Q1.15 -0.75 0.9 -0.6 0.6 -0.35 0.6 0.0 0.6 0.25 0.75 0.5 1.0 0.85 1.5 0.85 L2.05 0.8 2.35 0.45 Q2.45 0.3 2.45 0.1 2.45 -0.25 2.15 -0.5 1.9 -0.7 1.5 -0.75 M5.85 3.65 L5.8 3.1 5.75 2.5 Q5.6 1.9 5.5 1.6 L5.45 1.45 Q5.4 1.1 5.4 0.65 L5.4 0.35 5.75 -0.5 6.0 -1.1 Q5.95 -0.3 5.85 0.1 L5.85 0.2 6.0 -0.05 6.0 0.15 Q6.3 -0.5 7.15 -1.1 7.7 -1.45 8.15 -1.5 8.45 -1.55 8.6 -1.45 L8.65 -1.5 8.3 -1.6 8.95 -1.7 9.1 -1.7 8.95 -1.3 8.9 -1.3 8.9 -1.25 Q8.9 -1.1 8.75 -0.85 L8.7 -0.75 8.7 -0.65 8.75 -0.25 Q8.75 0.4 8.55 0.95 8.2 1.95 7.25 1.95 L6.7 1.9 6.65 1.9 6.35 1.9 Q6.45 2.35 6.45 2.75 L6.45 3.0 6.45 3.65 Q6.6 4.95 6.6 6.25 L6.6 6.55 Q6.55 6.8 6.35 6.85 L6.25 6.95 Q6.05 7.05 5.95 7.05 L5.6 7.0 5.3 6.95 5.2 7.0 5.2 6.9 5.25 6.9 Q5.3 6.85 5.4 6.8 L5.5 6.75 5.7 6.4 5.7 6.15 5.75 5.65 5.85 5.0 5.9 4.3 5.85 3.65 M3.55 6.4 L3.55 6.5 3.45 6.5 Q3.4 6.4 3.15 6.15 2.95 6.05 2.95 5.85 2.95 5.75 3.25 5.55 L3.85 5.1 Q4.7 4.3 4.7 2.7 L4.75 3.05 Q4.75 3.95 4.15 5.05 L3.95 5.4 3.65 6.05 3.65 6.1 3.6 6.1 3.6 6.25 3.55 6.25 3.55 6.4 M8.25 -1.15 L8.05 -1.2 7.75 -0.95 7.6 -0.95 Q6.6 -0.95 6.1 1.3 L6.25 1.3 Q6.35 1.3 6.5 1.4 6.65 1.55 6.9 1.55 L7.2 1.6 Q7.55 1.6 7.95 0.8 L8.0 0.8 7.7 1.05 Q6.95 0.95 6.75 0.8 6.7 0.7 6.7 0.4 6.7 -0.05 6.9 -0.3 7.1 -0.5 7.35 -0.45 7.65 -0.4 7.85 -0.2 8.05 0.05 8.05 0.4 L8.05 0.7 Q8.3 0.1 8.3 -0.1 8.3 -0.65 8.25 -1.15 M7.35 -0.3 Q6.75 -0.3 6.75 0.4 6.75 0.6 6.8 0.65 6.85 0.75 7.2 0.95 L7.65 0.9 Q7.8 0.8 7.9 0.6 7.95 0.4 7.95 0.3 7.95 0.05 7.75 -0.15 7.6 -0.3 7.35 -0.3 M6.4 -1.75 Q7.4 -2.95 8.25 -3.6 9.8 -4.8 9.8 -3.2 L9.75 -2.95 Q9.7 -2.8 9.55 -2.8 9.35 -2.8 9.15 -3.0 8.9 -3.2 8.8 -3.2 8.45 -3.2 7.5 -2.55 6.55 -1.85 6.4 -1.75 M7.3 0.5 L7.2 0.45 7.15 0.4 Q7.1 0.4 7.1 0.25 7.1 0.2 7.15 0.15 7.2 0.05 7.35 0.05 7.55 0.05 7.55 0.3 7.55 0.45 7.5 0.45 L7.3 0.5 M8.6 4.05 L8.45 4.2 Q8.05 4.55 7.85 5.05 7.65 5.3 7.6 5.45 7.55 5.6 7.4 6.1 7.3 6.55 7.0 6.8 L6.85 6.75 Q6.85 6.7 6.85 6.6 6.85 6.55 7.05 5.85 L7.35 5.05 Q7.4 4.55 7.5 4.3 7.7 3.85 8.6 3.85 L8.6 4.05 M3.95 6.3 L4.05 6.25 4.55 6.2 Q4.9 6.25 4.9 6.5 L4.9 6.55 4.85 6.65 4.9 6.7 Q4.45 6.65 4.05 6.5 L3.75 6.35 4.05 6.3 3.95 6.3 M-1.0 -0.65 L-1.0 -0.9 Q-1.05 -0.85 -1.05 -0.75 L-1.0 -0.65 M-0.7 0.1 L-0.8 0.0 -0.7 0.15 -0.7 0.1" fill="#1a1a1a" fill-rule="evenodd" stroke="none"/>
    <path d="M6.65 1.9 L7.2 2.4 Q7.55 2.7 7.7 2.75 L7.75 2.8 7.5 2.9 7.2 3.0 Q6.9 3.0 6.55 2.85 L6.6 2.9 6.5 3.0 6.45 3.0 6.45 2.75 Q6.45 2.35 6.35 1.9 L6.65 1.9 M5.25 6.9 L5.05 6.9 Q4.25 6.9 3.6 6.45 L3.55 6.4 3.55 6.25 3.6 6.25 3.6 6.1 3.65 6.1 3.65 6.05 4.75 6.0 Q5.25 6.05 5.7 6.15 L5.7 6.4 5.5 6.75 5.4 6.8 Q5.3 6.85 5.25 6.9 M0.1 3.1 Q0.5 2.95 1.55 2.7 L2.8 2.4 2.35 3.0 Q2.0 3.35 1.6 3.35 L0.8 3.25 0.1 3.1 M3.95 6.3 L4.05 6.3 3.75 6.35 4.05 6.5 Q4.45 6.65 4.9 6.7 L4.85 6.65 4.9 6.55 4.9 6.5 Q4.9 6.25 4.55 6.2 L4.05 6.25 3.95 6.3" fill="#a9854f" fill-rule="evenodd" stroke="none"/>
    <path d="M1.4 -0.2 L1.35 -0.1 Q1.35 -0.05 1.3 0.05 L1.35 0.15 1.35 0.2 1.4 0.25 1.7 0.25 Q1.8 0.25 1.85 0.2 L1.85 0.0 Q1.7 -0.3 1.6 -0.2 L1.5 -0.15 1.4 -0.2 M1.5 -0.75 Q1.9 -0.7 2.15 -0.5 2.45 -0.25 2.45 0.1 2.45 0.3 2.35 0.45 L2.05 0.8 1.5 0.85 Q1.0 0.85 0.75 0.5 0.6 0.25 0.6 0.0 0.6 -0.35 0.9 -0.6 1.15 -0.75 1.5 -0.75 M7.35 -0.3 Q7.6 -0.3 7.75 -0.15 7.95 0.05 7.95 0.3 7.95 0.4 7.9 0.6 7.8 0.8 7.65 0.9 L7.2 0.95 Q6.85 0.75 6.8 0.65 6.75 0.6 6.75 0.4 6.75 -0.3 7.35 -0.3 M7.3 0.5 L7.5 0.45 Q7.55 0.45 7.55 0.3 7.55 0.05 7.35 0.05 7.2 0.05 7.15 0.15 7.1 0.2 7.1 0.25 7.1 0.4 7.15 0.4 L7.2 0.45 7.3 0.5" fill="#c6cbce" fill-rule="evenodd" stroke="none"/>
    <path d="M3.95 5.4 L4.05 5.25 Q4.4 4.8 4.8 4.4 5.5 3.7 5.85 3.65 L5.9 4.3 5.85 5.0 5.75 5.65 5.7 6.15 Q5.25 6.05 4.75 6.0 L3.65 6.05 3.95 5.4" fill="#c7a36d" fill-rule="evenodd" stroke="none"/>
  </g>
</svg>
