<?xml version="1.0" encoding="UTF-8" standalone="no"?>
<svg xmlns:ffdec="https://www.free-decompiler.com/flash" xmlns:xlink="http://www.w3.org/1999/xlink" ffdec:objectType="shape" height="15.15px" width="13.75px" xmlns="http://www.w3.org/2000/svg">
  <g transform="matrix(1.0, 0.0, 0.0, 1.0, 3.75, 8.85)">
    <path d="M7.05 6.3 L6.7 6.3 6.75 6.25 6.65 6.25 6.55 6.3 6.4 6.25 5.15 6.2 5.5 6.1 Q3.7 6.05 1.95 5.3 L1.95 5.35 1.9 5.25 Q1.2 4.95 0.5 4.55 -0.55 3.9 -1.25 3.25 -1.6 2.85 -1.75 2.55 L-2.3 2.15 Q-2.55 1.8 -2.8 1.4 L-2.85 1.25 Q-3.45 0.2 -3.65 -0.9 -3.7 -1.3 -3.75 -1.75 L-3.75 -2.35 Q-3.75 -4.65 -2.35 -6.25 -2.0 -6.7 -1.7 -6.9 1.25 -9.25 4.45 -8.8 7.8 -8.3 8.75 -4.85 L8.9 -4.55 9.0 -4.25 Q9.1 -4.1 9.15 -3.35 L9.2 -3.15 9.15 -3.15 9.15 -3.1 9.2 -3.05 9.2 -2.9 9.25 -2.55 Q9.25 -2.1 9.2 -1.7 L9.2 -1.6 9.05 -1.5 9.1 -1.55 9.05 -1.1 8.8 0.15 8.5 1.2 8.2 2.2 8.25 2.2 8.25 2.45 Q8.25 3.35 8.0 4.15 7.7 5.3 7.05 6.3" fill="#c7a36d" fill-rule="evenodd" stroke="none"/>
    <path d="M7.05 6.3 Q7.7 5.3 8.0 4.15 8.25 3.35 8.25 2.45 L8.25 2.2 8.55 1.25 8.5 1.2 8.8 0.15 9.05 -1.1 9.1 -1.55 9.15 -1.55 9.2 -1.6 9.2 -1.7 Q9.25 -2.1 9.25 -2.55 L9.2 -2.9 9.2 -3.05 9.15 -3.1 9.15 -3.15 9.2 -3.15 9.15 -3.35 Q9.1 -4.1 9.0 -4.25 L8.9 -4.55 9.55 -4.7 9.65 -4.8 9.65 -4.65 9.9 -4.15 9.85 -4.15 Q9.9 -4.0 9.95 -3.15 10.05 -2.75 10.0 -2.35 L9.95 -2.3 10.0 -1.85 Q9.8 -1.0 9.65 -0.5 L9.65 -0.45 9.5 -0.05 Q9.1 1.0 8.85 2.15 8.8 3.2 8.5 4.15 8.3 4.9 7.9 5.65 L7.7 6.1 7.05 6.3" fill="#1a1a1a" fill-rule="evenodd" stroke="none"/>
    <path d="M8.25 2.2 L8.2 2.2 8.5 1.2 8.55 1.25 8.25 2.2" fill="#a9854f" fill-rule="evenodd" stroke="none"/>
    <path d="M-0.05 0.0 L0.5 0.0 1.05 0.05 1.05 0.1 Q1.0 0.2 1.0 0.35 L0.95 0.5 Q0.95 0.75 1.0 0.8 1.15 1.05 1.65 1.05 1.85 1.05 2.0 0.85 2.15 0.65 2.15 0.45 L2.15 0.35 2.6 0.6 3.05 0.95 2.7 1.05 Q2.3 1.2 1.4 1.2 0.35 1.2 -0.55 0.65 L-1.05 0.35 -1.15 0.25 Q-1.1 0.2 -0.95 0.15 L-0.7 0.05 -0.05 0.0 M6.2 0.2 L6.5 0.15 6.85 0.15 Q6.7 0.3 6.7 0.5 6.7 0.6 6.75 0.7 6.8 0.8 6.9 0.85 L5.7 0.8 5.65 0.85 5.5 0.85 5.45 0.7 5.4 0.3 5.45 0.25 Q5.45 0.4 5.5 0.3 L6.2 0.2 M7.55 0.3 L7.55 0.25 Q7.8 0.3 7.9 0.4 7.85 0.4 7.85 0.45 L7.55 0.65 Q7.45 0.75 7.3 0.8 L7.4 0.7 Q7.55 0.5 7.55 0.3" fill="#ffffff" fill-rule="evenodd" stroke="none"/>
    <path d="M4.4 -0.85 L4.3 -0.7 4.15 -0.55 3.95 -0.45 Q2.95 -0.7 1.9 -0.75 L-2.4 -0.75 -2.45 -0.8 -2.55 -0.9 -2.6 -1.0 Q-2.6 -1.25 -1.9 -1.6 -1.1 -2.0 -0.35 -2.0 0.75 -2.0 1.7 -1.75 L2.55 -1.55 3.5 -1.55 Q4.2 -2.25 4.4 -2.0 L4.4 -1.95 4.45 -1.85 4.45 -1.15 4.4 -0.9 4.4 -0.85 M-2.8 0.0 L-2.85 0.0 -2.8 0.0 M0.5 0.0 L1.1 0.0 0.35 -0.05 -0.05 0.0 -0.7 0.05 -0.95 0.15 Q-1.1 0.2 -1.15 0.25 L-1.05 0.35 -0.55 0.65 Q0.35 1.2 1.4 1.2 2.3 1.2 2.7 1.05 L3.05 0.95 2.6 0.6 2.15 0.35 2.15 0.45 Q2.15 0.65 2.0 0.85 1.85 1.05 1.65 1.05 1.15 1.05 1.0 0.8 0.95 0.75 0.95 0.5 L1.0 0.35 Q1.0 0.2 1.05 0.1 L1.05 0.05 0.5 0.0 M1.6 -0.4 L2.8 -0.25 Q3.65 -0.15 3.65 0.05 L3.6 0.2 Q3.6 0.25 3.55 0.25 3.4 0.25 3.4 0.15 L3.4 0.1 2.85 0.05 3.15 0.35 3.2 0.35 Q3.45 0.6 3.45 0.85 L3.45 1.1 3.3 1.1 3.2 1.25 3.0 1.3 Q2.55 1.5 1.4 1.5 -0.35 1.5 -1.0 1.0 -1.2 0.85 -1.35 0.65 L-1.5 0.6 Q-1.85 0.4 -1.85 0.3 L-1.85 0.2 Q-1.75 0.05 -1.6 0.0 L-1.5 0.0 Q-1.15 -0.45 1.0 -0.4 L1.15 -0.4 1.6 -0.4 M5.0 -0.3 L5.0 -0.35 5.05 -0.5 5.1 -0.7 5.1 -0.75 5.05 -1.05 Q5.05 -1.3 5.15 -1.5 L5.25 -1.75 5.3 -1.85 5.25 -1.6 5.3 -1.7 5.35 -1.9 5.45 -1.9 Q5.7 -2.25 5.75 -2.0 L5.85 -2.0 5.9 -1.8 5.85 -1.7 6.6 -1.8 7.9 -1.85 Q8.4 -1.85 8.75 -1.7 L8.9 -1.55 8.95 -1.55 9.1 -1.4 9.1 -1.3 9.3 -1.05 Q9.15 -0.55 9.05 -0.45 L9.05 -0.4 8.7 -0.4 8.4 -0.45 8.2 -0.45 6.85 -0.6 6.5 -0.55 5.45 -0.45 5.25 -0.45 Q5.25 -0.3 5.3 -0.1 L5.35 -0.1 5.45 -0.15 Q5.85 -0.3 6.2 -0.3 7.2 -0.3 7.75 -0.15 7.95 -0.05 8.1 0.05 L8.2 0.1 8.15 0.1 Q8.4 0.2 8.45 0.4 L8.5 0.55 8.45 0.75 8.3 0.8 Q8.2 0.8 8.15 0.7 L8.15 0.75 7.8 0.95 Q7.4 1.2 6.9 1.2 L5.55 1.1 5.5 1.1 5.5 1.4 5.55 1.65 5.55 1.7 5.6 1.85 5.55 1.85 Q5.7 2.2 5.9 2.65 L6.95 4.6 7.0 4.6 7.05 4.65 Q7.1 4.7 7.1 4.8 7.1 5.0 6.4 5.4 5.65 5.8 5.0 5.8 L4.85 5.8 4.75 5.7 Q4.75 5.8 4.75 5.65 L4.05 5.5 Q3.7 5.4 3.5 5.55 L3.3 5.55 Q3.25 5.55 3.25 5.45 L3.25 5.3 Q3.25 5.05 4.1 5.1 4.65 5.15 5.0 5.35 L5.2 5.3 5.45 5.15 Q6.0 4.85 6.45 4.7 6.2 4.5 5.85 4.05 5.25 3.3 5.2 2.85 L4.95 1.85 Q4.8 1.25 4.8 0.8 4.8 0.4 4.85 0.15 L4.85 0.1 4.9 -0.1 Q4.95 -0.2 5.0 -0.3 M9.7 -1.85 L9.7 -1.6 Q9.7 -1.35 9.55 -1.1 L9.4 -0.9 9.65 -2.2 Q9.7 -2.1 9.7 -2.0 L9.7 -1.85 M7.55 0.3 Q7.55 0.5 7.4 0.7 L7.3 0.8 Q7.45 0.75 7.55 0.65 L7.85 0.45 Q7.85 0.4 7.9 0.4 7.8 0.3 7.55 0.25 L7.55 0.3 M6.2 0.2 L5.5 0.3 Q5.45 0.4 5.45 0.25 L5.4 0.3 5.45 0.7 5.5 0.85 5.65 0.85 5.7 0.8 6.9 0.85 Q6.8 0.8 6.75 0.7 6.7 0.6 6.7 0.5 6.7 0.3 6.85 0.15 L6.5 0.15 6.2 0.2" fill="#1a1a1a" fill-rule="evenodd" stroke="none"/>
    <path d="M2.2 6.1 L2.2 6.2 2.15 6.05 2.2 6.1" fill="#c7a36d" fill-rule="evenodd" stroke="none"/>
    <path d="M-2.45 -0.8 L-2.4 -0.75 1.9 -0.75 Q2.95 -0.7 3.95 -0.45 L4.15 -0.55 4.3 -0.7 4.4 -0.85 4.4 -0.9 4.45 -1.15 4.45 -1.85 4.4 -1.95 Q4.45 -2.0 4.55 -2.0 4.7 -2.0 4.75 -1.95 L4.75 -1.25 4.7 -1.2 4.75 -1.15 4.75 -0.8 4.8 -0.65 Q4.9 -0.5 4.9 -0.45 4.9 -0.35 4.7 -0.15 4.45 0.1 4.4 0.2 L4.2 0.7 4.2 0.75 Q4.2 1.25 3.05 2.15 1.9 3.0 1.4 3.0 1.15 3.0 0.7 2.85 L0.7 2.75 Q1.05 2.65 1.45 2.3 L0.4 2.3 Q-0.35 2.15 -0.95 1.95 L-0.65 2.25 -0.65 2.3 Q-0.65 2.35 -0.75 2.35 -1.25 2.35 -1.75 1.9 L-2.15 1.55 Q-2.6 1.05 -2.65 0.7 -2.85 0.35 -2.85 0.0 L-2.8 0.0 Q-2.75 -0.55 -2.45 -0.8 M1.15 -0.4 L1.0 -0.4 Q-1.15 -0.45 -1.5 0.0 L-1.6 0.0 Q-1.75 0.05 -1.85 0.2 L-1.85 0.3 Q-1.85 0.4 -1.5 0.6 L-1.35 0.65 Q-1.2 0.85 -1.0 1.0 -0.35 1.5 1.4 1.5 2.55 1.5 3.0 1.3 L3.2 1.25 3.3 1.1 3.45 1.1 3.45 0.85 Q3.45 0.6 3.2 0.35 L3.15 0.35 2.85 0.05 3.4 0.1 3.4 0.15 Q3.4 0.25 3.55 0.25 3.6 0.25 3.6 0.2 L3.65 0.05 Q3.65 -0.15 2.8 -0.25 L1.6 -0.4 1.5 -0.4 Q1.2 -0.45 1.15 -0.4 M5.75 -2.95 Q5.75 -2.9 5.05 -1.7 4.9 -1.7 4.9 -1.95 L4.95 -2.35 4.8 -2.75 Q4.75 -2.8 4.75 -3.0 4.75 -3.15 4.8 -3.2 L5.15 -3.25 Q5.15 -3.3 5.45 -3.15 L5.75 -2.95 M9.05 -0.45 L9.1 -0.35 8.65 0.7 Q8.4 1.3 8.35 1.7 7.85 2.15 7.6 2.2 L7.5 2.15 Q7.45 2.1 7.45 2.0 L7.75 1.65 6.75 1.7 6.45 1.75 Q6.7 1.95 6.95 2.5 6.95 2.6 6.85 2.6 6.45 2.6 6.0 2.15 5.65 1.85 5.55 1.7 L5.55 1.65 5.5 1.4 5.5 1.1 5.55 1.1 6.9 1.2 Q7.4 1.2 7.8 0.95 L8.15 0.75 8.15 0.7 Q8.2 0.8 8.3 0.8 L8.45 0.75 8.5 0.55 8.45 0.4 Q8.4 0.2 8.15 0.1 L8.2 0.1 8.1 0.05 Q7.95 -0.05 7.75 -0.15 7.2 -0.3 6.2 -0.3 5.85 -0.3 5.45 -0.15 L5.35 -0.1 5.3 -0.1 Q5.25 -0.3 5.25 -0.45 L5.45 -0.45 6.5 -0.55 6.85 -0.6 8.2 -0.45 8.4 -0.45 8.7 -0.4 9.05 -0.4 9.05 -0.45 M4.85 0.15 L4.85 0.1 4.85 0.15 M4.9 -0.1 L4.9 -0.15 Q4.9 -0.25 5.0 -0.3 4.95 -0.2 4.9 -0.1 M-2.5 -1.3 L-2.5 -1.3 M3.8 3.3 Q4.2 3.35 4.2 3.85 L4.15 4.1 Q4.15 4.25 4.0 4.25 3.55 4.25 3.45 4.1 L3.35 4.1 3.3 4.05 3.3 3.85 Q3.3 3.7 3.35 3.65 L3.5 3.45 Q3.6 3.3 3.8 3.3" fill="#a9854f" fill-rule="evenodd" stroke="none"/>
  </g>
</svg>
