<?xml version="1.0" encoding="UTF-8" standalone="no"?>
<svg xmlns:ffdec="https://www.free-decompiler.com/flash" xmlns:xlink="http://www.w3.org/1999/xlink" ffdec:objectType="shape" height="15.55px" width="13.75px" xmlns="http://www.w3.org/2000/svg">
  <g transform="matrix(1.0, 0.0, 0.0, 1.0, 3.75, 8.85)">
    <path d="M7.05 6.3 L6.7 6.3 6.75 6.25 6.65 6.25 6.55 6.3 6.4 6.25 5.15 6.2 5.5 6.1 Q3.7 6.05 1.95 5.3 L1.95 5.35 1.9 5.25 Q1.2 4.95 0.5 4.55 -0.55 3.9 -1.25 3.25 -1.6 2.85 -1.75 2.55 L-2.3 2.15 Q-2.55 1.8 -2.8 1.4 L-2.85 1.25 Q-3.45 0.2 -3.65 -0.9 -3.7 -1.3 -3.75 -1.75 L-3.75 -2.35 Q-3.75 -4.65 -2.35 -6.25 -2.0 -6.7 -1.7 -6.9 1.25 -9.25 4.45 -8.8 7.8 -8.3 8.75 -4.85 L8.9 -4.55 9.0 -4.25 Q9.1 -4.1 9.15 -3.35 L9.2 -3.15 9.15 -3.15 9.15 -3.1 9.2 -3.05 9.2 -2.9 9.25 -2.55 Q9.25 -2.1 9.2 -1.7 L9.2 -1.6 9.05 -1.5 9.1 -1.55 9.05 -1.1 8.8 0.15 8.5 1.2 8.2 2.2 8.25 2.2 8.25 2.45 Q8.25 3.35 8.0 4.15 7.7 5.3 7.05 6.3 M5.95 5.6 L5.95 5.6" fill="#c7a36d" fill-rule="evenodd" stroke="none"/>
    <path d="M7.05 6.3 Q7.7 5.3 8.0 4.15 8.25 3.35 8.25 2.45 L8.25 2.2 8.55 1.25 8.5 1.2 8.8 0.15 9.05 -1.1 9.1 -1.55 9.15 -1.55 9.2 -1.6 9.2 -1.7 Q9.25 -2.1 9.25 -2.55 L9.2 -2.9 9.2 -3.05 9.15 -3.1 9.15 -3.15 9.2 -3.15 9.15 -3.35 Q9.1 -4.1 9.0 -4.25 L8.9 -4.55 9.55 -4.7 9.65 -4.8 9.65 -4.65 9.9 -4.15 9.85 -4.15 Q9.9 -4.0 9.95 -3.15 10.05 -2.75 10.0 -2.35 9.85 -2.1 9.8 -1.65 9.65 -1.0 9.65 -0.45 L9.5 -0.05 Q9.1 1.0 8.85 2.15 8.8 3.2 8.5 4.15 8.3 4.9 7.9 5.65 L7.7 6.1 7.05 6.3" fill="#1a1a1a" fill-rule="evenodd" stroke="none"/>
    <path d="M8.25 2.2 L8.2 2.2 8.5 1.2 8.55 1.25 8.25 2.2" fill="#a9854f" fill-rule="evenodd" stroke="none"/>
    <path d="M-2.25 -0.35 L-2.2 -0.35 -2.3 -0.3 -2.25 -0.35 M2.75 6.3 L2.65 6.25 2.65 6.15 2.75 6.25 2.75 6.3" fill="#a69375" fill-rule="evenodd" stroke="none"/>
    <path d="M4.65 6.6 L4.65 6.65 4.45 6.65 4.3 6.7 4.45 6.65 4.65 6.6 M3.4 6.6 L3.3 6.6 3.15 6.5 3.05 6.35 3.15 6.5 3.25 6.5 3.4 6.6 M2.8 6.3 L2.75 6.3 2.75 6.25 2.8 6.3 M4.6 4.85 L4.6 4.85" fill="#8c7c63" fill-rule="evenodd" stroke="none"/>
    <path d="M8.6 0.75 L8.55 0.7 8.6 0.7 8.6 0.75 M-1.05 2.75 L-1.05 2.75 M4.8 5.9 L4.8 5.85 4.75 5.8 Q4.9 5.9 5.05 5.9 L5.05 5.95 4.8 5.9" fill="#736551" fill-rule="evenodd" stroke="none"/>
    <path d="M2.65 1.45 Q2.3 2.05 1.8 2.5 L1.35 2.85 1.35 2.8 1.25 2.75 1.3 2.7 Q1.05 2.85 0.75 2.9 0.15 2.65 -0.45 2.2 L-0.6 2.05 Q-1.3 1.5 -1.75 0.7 L-1.55 0.85 -1.4 0.9 Q-0.3 1.25 0.8 1.2 L0.8 1.5 Q0.8 1.65 0.9 1.7 0.8 2.1 1.6 2.0 L1.75 2.0 Q1.9 1.7 2.0 1.4 2.05 1.15 2.0 1.0 L2.4 0.9 2.45 0.95 2.5 0.9 2.65 0.85 2.65 0.8 2.7 0.8 2.8 0.85 2.8 0.95 Q2.7 1.2 2.7 1.4 L2.65 1.45 M6.2 2.25 L5.85 2.3 5.75 2.25 Q5.65 2.2 5.6 2.2 5.55 2.2 5.5 2.25 L5.5 2.05 5.4 1.25 5.4 1.1 5.5 1.15 5.5 1.05 5.55 1.05 6.2 1.0 6.15 1.05 Q6.1 1.2 6.1 1.35 6.15 1.45 6.25 1.5 6.35 1.6 6.6 1.6 6.85 1.6 7.0 1.45 L7.1 1.35 7.25 1.15 Q7.25 1.0 7.15 0.9 L7.5 0.85 7.5 0.9 Q7.35 1.0 7.35 1.2 L7.25 1.45 7.2 1.55 Q7.05 1.65 6.6 1.9 6.2 2.1 6.2 2.2 L6.2 2.25" fill="#ffffff" fill-rule="evenodd" stroke="none"/>
    <path d="M1.1 0.35 L1.15 0.35 Q2.15 0.45 3.25 0.4 L3.4 0.4 3.45 0.3 3.45 0.5 3.4 0.65 3.3 1.0 3.2 1.6 3.2 1.7 3.1 1.85 Q2.85 1.95 2.7 1.65 L2.65 1.45 2.7 1.4 Q2.7 1.2 2.8 0.95 L2.8 0.85 2.7 0.8 2.65 0.75 2.6 0.8 2.65 0.8 2.65 0.85 2.5 0.9 2.4 0.9 2.0 1.0 Q2.05 1.15 2.0 1.4 1.9 1.7 1.75 2.0 L1.6 2.0 Q0.8 2.1 0.9 1.7 0.8 1.65 0.8 1.5 L0.8 1.2 Q-0.3 1.25 -1.4 0.9 L-1.55 0.85 -1.75 0.7 Q-1.3 1.5 -0.6 2.05 L-0.45 2.2 Q0.15 2.65 0.75 2.9 L0.8 2.9 Q0.25 2.95 -0.2 2.8 -1.2 2.65 -1.9 1.45 -2.2 0.95 -2.25 0.55 L-2.25 0.45 -2.35 0.4 -2.45 0.2 -2.45 0.0 -2.35 -0.15 -2.3 -0.2 -2.2 -0.25 -2.15 -0.3 -1.85 -0.2 -1.75 -0.15 -1.45 -0.1 -1.35 -0.05 -0.95 0.05 -0.15 0.2 0.0 0.3 0.05 0.3 0.3 0.25 1.1 0.35 M-3.05 -1.05 L-3.15 -1.1 -3.2 -1.1 Q-3.3 -1.05 -3.2 -1.15 L-3.2 -1.2 -3.15 -1.25 -2.95 -1.25 Q-1.35 -1.95 0.35 -2.15 L0.95 -2.2 Q2.35 -2.3 3.7 -2.8 3.75 -2.85 3.8 -2.85 4.0 -2.85 4.15 -2.55 4.25 -2.35 4.25 -2.25 L4.1 -1.75 4.1 -1.7 4.05 -1.4 3.95 -0.95 3.95 -0.9 3.8 -0.9 3.7 -0.95 3.65 -0.95 Q3.5 -1.3 3.5 -1.6 3.45 -1.65 3.3 -1.7 L3.1 -1.7 2.5 -1.45 Q1.2 -0.9 -0.15 -0.75 L-0.5 -0.75 Q-1.2 -0.75 -1.95 -0.8 L-2.6 -0.9 -2.65 -0.95 -2.75 -0.95 -3.0 -1.0 -3.05 -1.05 M5.1 1.0 L5.05 0.95 Q5.0 0.65 5.1 0.35 L5.05 0.35 Q4.95 0.2 4.95 0.1 4.95 -0.05 5.15 -0.55 5.35 -1.1 5.4 -1.1 L5.45 -1.1 Q5.8 -1.95 5.8 -1.3 L5.75 -1.05 5.7 -0.85 Q5.7 -0.6 5.8 -0.55 L5.85 -0.5 6.05 -0.7 6.4 -0.9 Q7.3 -1.4 8.3 -1.8 L8.6 -1.6 Q8.85 -1.45 8.95 -1.4 9.0 -1.4 9.1 -1.35 L8.8 0.15 8.6 0.85 8.55 0.85 8.6 0.75 8.6 0.7 8.55 0.7 8.5 0.7 8.1 0.75 8.1 0.8 8.05 0.75 7.8 0.8 Q7.8 1.2 7.45 1.7 7.05 2.35 6.45 2.35 L6.2 2.35 6.2 2.25 6.2 2.2 Q6.2 2.1 6.6 1.9 7.05 1.65 7.2 1.55 L7.25 1.45 7.35 1.2 Q7.35 1.0 7.5 0.9 L7.5 0.85 7.15 0.9 Q7.25 1.0 7.25 1.15 L7.1 1.35 7.0 1.45 Q6.85 1.6 6.6 1.6 6.35 1.6 6.25 1.5 6.15 1.45 6.1 1.35 6.1 1.2 6.15 1.05 L6.2 1.0 5.55 1.05 5.5 1.05 5.5 1.15 5.4 1.1 5.35 1.1 5.35 1.0 Q5.25 1.0 5.15 1.05 L5.1 1.0 M7.15 0.35 L7.3 0.35 7.55 0.3 8.5 0.3 Q8.6 0.3 8.65 0.35 L8.65 0.25 8.5 0.15 8.6 -0.35 8.5 -0.45 8.45 -0.55 Q8.25 -0.35 8.05 -0.2 7.6 -0.1 7.3 0.05 7.0 0.2 7.0 0.25 L7.05 0.35 7.1 0.35 Q7.0 0.4 6.95 0.45 L7.0 0.45 7.15 0.35 M5.3 0.9 L5.3 0.9 M2.65 6.15 L2.6 6.05 Q2.6 5.9 2.65 5.8 2.65 5.75 2.7 5.75 L3.9 5.9 4.8 5.95 4.8 5.9 5.05 5.95 5.1 5.95 Q5.2 5.95 5.25 6.0 5.15 6.2 5.0 6.3 L4.95 6.35 4.95 6.5 4.9 6.4 4.65 6.6 4.45 6.65 4.3 6.7 4.05 6.6 3.4 6.6 3.25 6.5 3.15 6.5 3.05 6.35 2.8 6.3 2.75 6.25 2.65 6.15" fill="#1a1a1a" fill-rule="evenodd" stroke="none"/>
    <path d="M-1.7 -0.25 L-1.7 -0.25" fill="#c7a36d" fill-rule="evenodd" stroke="none"/>
    <path d="M-0.15 -0.75 Q0.0 -0.7 0.05 -0.6 L0.05 -0.55 1.1 0.35 0.3 0.25 0.05 0.3 0.0 0.3 -0.15 0.2 -0.95 0.05 -1.35 -0.05 -1.45 -0.1 -1.75 -0.15 -1.85 -0.2 -2.15 -0.3 -2.2 -0.25 -2.3 -0.2 -2.35 -0.15 -2.45 0.0 -2.55 0.0 -2.9 -0.6 -3.0 -0.85 Q-3.05 -0.95 -3.05 -1.0 L-3.05 -1.05 -3.0 -1.0 -2.75 -0.95 -2.65 -0.95 -2.6 -0.9 -1.95 -0.8 Q-1.2 -0.75 -0.5 -0.75 L-0.15 -0.75 M4.1 -1.75 L4.15 -1.55 Q4.15 -1.2 4.1 -0.85 3.95 -0.2 3.65 -0.2 3.55 -0.2 3.4 -0.95 L3.3 -1.7 Q3.45 -1.65 3.5 -1.6 3.5 -1.3 3.65 -0.95 L3.7 -0.95 3.8 -0.9 3.95 -0.9 3.95 -0.95 4.05 -1.4 4.1 -1.7 4.1 -1.75 M5.35 -2.05 Q5.25 -1.75 5.1 -1.75 L4.85 -1.8 4.8 -1.85 4.75 -1.85 4.75 -2.05 Q4.75 -2.6 5.1 -2.85 5.45 -3.05 5.45 -2.5 5.45 -2.3 5.35 -2.05 M5.5 2.25 Q5.4 2.35 5.4 2.65 L5.35 2.65 Q5.3 2.7 5.3 2.8 5.3 2.9 5.35 3.05 5.3 3.2 5.35 3.35 L5.35 4.05 5.1 4.35 5.05 4.05 Q4.85 3.35 4.6 2.75 L4.55 2.25 Q4.75 1.55 5.1 1.0 L5.15 1.05 Q5.25 1.0 5.35 1.0 L5.35 1.1 5.4 1.1 5.4 1.25 5.5 2.05 5.5 2.25 M7.1 0.35 L7.05 0.35 7.0 0.25 Q7.0 0.2 7.3 0.05 7.6 -0.1 8.05 -0.2 8.25 -0.35 8.45 -0.55 L8.5 -0.45 8.6 -0.35 8.5 0.15 8.65 0.25 8.65 0.35 Q8.6 0.3 8.5 0.3 L7.55 0.3 7.3 0.35 7.15 0.35 7.1 0.35 M-2.25 -0.35 L-2.3 -0.3 -2.2 -0.35 -2.25 -0.35 M-1.7 -0.25 L-1.7 -0.25 M8.0 0.1 L8.0 0.1 M5.05 2.35 L5.05 2.35" fill="#a9854f" fill-rule="evenodd" stroke="none"/>
  </g>
</svg>
