<?xml version="1.0" encoding="UTF-8" standalone="no"?>
<svg xmlns:ffdec="https://www.free-decompiler.com/flash" xmlns:xlink="http://www.w3.org/1999/xlink" ffdec:objectType="shape" height="15.35px" width="10.6px" xmlns="http://www.w3.org/2000/svg">
  <g transform="matrix(1.0, 0.0, 0.0, 1.0, 5.55, 9.7)">
    <path d="M0.85 -9.4 Q2.45 -8.2 3.35 -6.6 L3.5 -6.2 3.55 -6.15 3.55 -6.05 3.6 -6.0 3.55 -6.0 Q3.7 -5.55 3.6 -5.05 L3.6 -4.95 Q3.7 -4.65 3.8 -4.05 L4.05 -2.35 4.3 -0.9 4.45 0.5 4.45 0.55 4.55 0.85 4.6 0.95 4.65 1.15 Q4.65 1.4 4.45 2.35 L4.35 2.55 Q4.05 3.6 3.95 4.15 L3.85 4.35 Q3.6 4.95 3.6 5.2 3.45 5.2 3.4 5.1 2.2 4.55 0.75 4.6 -0.3 4.6 -1.3 4.3 -2.8 3.75 -3.8 2.55 -5.0 0.0 -5.55 -2.7 L-5.5 -2.75 Q-5.55 -3.0 -5.5 -3.35 L-5.0 -6.7 Q-4.75 -7.95 -4.35 -9.05 L-4.05 -9.35 -4.05 -9.4 Q-2.2 -9.8 -0.3 -9.65 L0.6 -9.65 Q0.75 -9.65 0.85 -9.6 L0.85 -9.4 M0.75 3.85 L0.8 3.8 0.75 3.8 0.75 3.85 M-0.05 -9.05 L-0.05 -9.05" fill="#c7a36d" fill-rule="evenodd" stroke="none"/>
    <path d="M-4.95 -8.65 L-5.0 -8.65 -4.95 -8.7 -4.9 -8.7 -4.95 -8.65" fill="#c7a36d" fill-rule="evenodd" stroke="none"/>
    <path d="M3.8 -3.65 L3.85 -3.2 Q3.65 -3.35 3.5 -3.35 L3.45 -3.35 3.8 -3.65 M3.15 -1.35 Q3.3 -1.25 3.3 -1.1 L3.3 -0.85 Q3.25 -0.8 3.15 -0.8 L2.9 -0.8 2.85 -0.8 Q2.65 -0.85 2.55 -0.95 L2.55 -0.55 2.5 -0.65 2.45 -0.55 2.45 -0.75 Q2.25 -1.05 2.2 -1.55 L2.1 -1.55 1.95 -2.15 1.9 -2.65 1.9 -2.7 Q2.0 -2.65 2.15 -2.65 L2.5 -2.75 2.35 -2.65 2.5 -2.65 Q2.4 -2.45 2.35 -2.25 L2.35 -1.75 2.4 -1.7 Q2.45 -1.5 2.6 -1.5 L2.6 -1.45 2.75 -1.45 2.8 -1.45 2.75 -1.4 3.05 -1.3 3.15 -1.35 M1.35 -3.8 Q1.35 -3.6 1.2 -3.35 1.0 -3.1 0.9 -3.1 0.65 -3.05 0.6 -3.25 0.6 -3.35 0.6 -3.45 0.6 -3.75 0.7 -3.85 0.8 -3.95 1.3 -4.0 L1.35 -3.95 1.35 -3.8 M0.1 -2.1 L0.05 -1.7 0.0 -1.65 Q-0.1 -1.6 -0.2 -1.6 -0.4 -1.6 -0.75 -1.75 L-0.25 -2.0 -0.25 -1.95 -0.2 -1.95 -0.2 -2.0 0.1 -2.1 M-0.25 -0.85 L-0.45 -0.4 -0.75 -0.4 Q-0.75 -0.55 -0.8 -0.65 L-0.7 -0.65 Q-0.5 -0.65 -0.25 -0.85 M-0.9 0.2 Q-0.8 0.2 -0.8 0.3 -0.8 0.4 -1.0 0.75 -1.15 1.0 -1.25 1.1 L-1.5 1.15 Q-1.25 0.9 -1.15 0.8 L-1.2 0.65 -1.35 0.65 -1.65 0.9 -1.65 0.7 Q-1.6 0.5 -1.55 0.45 L-1.45 0.35 -0.95 0.25 -0.9 0.2 M-3.75 0.3 Q-3.95 0.2 -4.1 -0.35 -4.2 -0.7 -4.25 -1.05 L-4.25 -1.2 -3.8 -1.25 -3.15 -1.35 -3.45 -0.75 Q-3.75 -0.3 -3.75 0.3 M1.25 3.85 L1.3 3.85 Q2.45 3.85 2.75 3.7 2.85 3.65 2.85 3.55 L2.9 3.55 3.05 3.25 3.2 3.0 3.2 3.15 Q3.2 3.3 2.9 3.75 2.55 4.2 2.35 4.2 1.9 4.2 1.6 4.1 1.35 4.0 1.25 3.85 M1.25 3.75 L1.25 3.8 1.25 3.75" fill="#a9854f" fill-rule="evenodd" stroke="none"/>
    <path d="M1.9 -2.7 L1.9 -2.75 1.75 -2.85 Q1.95 -3.15 2.7 -3.6 3.5 -4.1 3.95 -4.1 L3.8 -3.65 3.45 -3.35 3.5 -3.35 Q3.65 -3.35 3.85 -3.2 L4.15 -3.0 Q4.3 -3.0 4.55 -3.2 L4.8 -3.45 4.95 -3.45 4.95 -3.3 Q4.95 -3.15 4.55 -2.6 4.15 -2.0 3.95 -2.0 L3.9 -2.05 3.9 -1.9 Q3.95 -1.85 3.95 -1.8 L3.9 -1.7 3.85 -1.65 3.8 -1.65 3.6 -1.55 3.15 -1.35 3.05 -1.3 2.75 -1.4 2.8 -1.45 Q3.0 -1.6 3.2 -1.7 L3.15 -1.8 3.05 -1.9 Q2.95 -2.0 2.95 -2.15 L3.0 -2.35 2.9 -2.35 2.85 -2.15 2.75 -1.8 2.75 -1.6 2.7 -1.55 2.6 -1.5 Q2.45 -1.5 2.4 -1.7 L2.35 -1.75 2.35 -2.25 Q2.4 -2.45 2.5 -2.65 L2.35 -2.65 2.5 -2.75 2.15 -2.65 Q2.0 -2.65 1.9 -2.7 M2.9 -0.8 L3.8 -0.35 Q3.75 -0.3 3.3 -0.5 3.0 -0.65 2.8 -0.75 L2.85 -0.8 2.9 -0.8 M-4.25 -1.2 L-4.3 -1.2 -4.3 -1.25 -4.35 -1.4 Q-4.35 -1.55 -3.7 -1.8 -3.1 -2.0 -1.9 -2.25 L-0.8 -2.45 Q0.5 -2.65 0.5 -2.3 0.5 -2.2 0.3 -2.15 L0.1 -2.1 -0.2 -2.0 -0.25 -2.0 -0.75 -1.75 Q-0.4 -1.6 -0.2 -1.6 -0.1 -1.6 0.0 -1.65 L0.05 -1.7 Q0.15 -1.75 0.2 -1.75 0.45 -1.75 0.4 -1.45 0.05 -1.05 -0.25 -0.85 -0.5 -0.65 -0.7 -0.65 L-0.8 -0.65 -0.8 -0.4 Q-0.85 -0.4 -0.95 -0.35 L-1.1 -0.5 Q-1.1 -0.35 -1.15 -0.3 L-1.2 -0.2 -1.4 0.05 -1.05 0.0 -0.95 -0.25 -0.9 -0.25 -0.85 -0.15 Q-0.9 -0.05 -0.9 0.0 -0.9 0.05 -0.9 0.1 L-0.9 0.2 -0.95 0.25 -1.45 0.35 -1.65 0.35 Q-2.6 0.5 -2.6 0.55 -3.2 0.65 -3.45 0.75 L-3.6 0.75 -3.6 0.65 -3.65 0.65 -3.7 0.6 -3.7 0.55 -3.75 0.35 -3.75 0.3 Q-3.75 -0.3 -3.45 -0.75 L-3.15 -1.35 -3.8 -1.25 -4.25 -1.2 M-1.5 1.15 L-2.55 1.9 -2.7 1.85 -1.9 1.15 -1.65 0.9 -1.35 0.65 -1.2 0.65 -1.15 0.8 Q-1.25 0.9 -1.5 1.15 M3.2 3.0 L3.05 3.25 2.9 3.55 2.85 3.55 Q2.85 3.65 2.75 3.7 2.45 3.85 1.3 3.85 L1.25 3.85 1.25 3.8 1.25 3.75 1.25 3.7 Q1.25 3.35 1.7 3.25 2.05 3.15 2.45 3.25 L2.5 3.25 2.6 3.05 Q2.8 2.7 2.8 2.55 L2.7 2.2 Q2.6 1.9 2.6 1.75 2.6 1.35 2.95 1.85 3.3 2.35 3.3 2.75 3.3 2.85 3.2 3.0 M3.5 3.95 L3.55 3.8 3.55 3.85 3.5 3.95 M-3.15 -0.35 L-3.3 0.4 -3.25 0.4 -3.1 0.35 Q-2.7 0.2 -2.05 0.15 -2.2 0.1 -2.25 -0.05 L-2.25 -0.1 Q-2.3 -0.25 -2.3 -0.4 -2.3 -0.65 -2.25 -0.8 -2.75 -0.7 -3.1 -0.45 L-3.15 -0.35" fill="#111111" fill-rule="evenodd" stroke="none"/>
    <path d="M2.7 -1.55 L2.75 -1.6 2.75 -1.8 2.85 -2.15 2.9 -2.35 3.0 -2.35 2.95 -2.15 Q2.95 -2.0 3.05 -1.9 L3.15 -1.8 3.2 -1.7 Q3.0 -1.6 2.8 -1.45 L2.75 -1.45 2.7 -1.55 M-0.95 -0.35 L-0.95 -0.25 -1.05 0.0 -1.4 0.05 -1.2 -0.2 -1.15 -0.3 Q-1.1 -0.35 -1.1 -0.5 L-0.95 -0.35 M-3.15 -0.35 L-3.1 -0.45 Q-2.75 -0.7 -2.25 -0.8 -2.3 -0.65 -2.3 -0.4 -2.3 -0.25 -2.25 -0.1 L-2.25 -0.05 Q-2.2 0.1 -2.05 0.15 -2.7 0.2 -3.1 0.35 L-3.25 0.4 -3.3 0.4 -3.15 -0.35" fill="#ffffff" fill-rule="evenodd" stroke="none"/>
    <path d="M3.6 -6.0 L3.8 -6.0 Q3.9 -5.9 4.1 -5.9 L4.3 -5.45 4.3 -5.15 4.2 -5.05 4.1 -4.8 Q4.1 -4.4 4.15 -3.9 4.45 -3.0 4.6 -1.95 L4.6 -1.9 Q4.85 -0.95 4.9 0.0 L4.95 0.2 Q5.0 0.3 5.05 0.55 L5.05 1.35 Q5.05 2.25 4.8 3.0 L4.35 4.4 4.25 4.65 4.25 4.75 4.2 4.75 4.2 4.85 4.1 5.0 4.1 5.05 4.05 5.15 4.0 5.2 3.8 5.65 Q3.65 5.55 3.6 5.5 L3.6 5.2 Q3.6 4.95 3.85 4.35 L3.95 4.15 Q4.05 3.6 4.35 2.55 L4.45 2.35 Q4.65 1.4 4.65 1.15 L4.6 0.95 4.55 0.85 Q4.5 0.6 4.35 0.3 4.15 -0.1 4.15 -0.55 L4.05 -1.35 Q4.0 -1.5 3.95 -1.65 L4.0 -1.7 3.85 -2.35 Q3.6 -3.35 3.55 -4.35 L3.55 -4.8 3.6 -5.05 Q3.7 -5.55 3.55 -6.0 L3.6 -6.0" fill="#111111" fill-rule="evenodd" stroke="none"/>
  </g>
</svg>
