<?xml version="1.0" encoding="UTF-8" standalone="no"?>
<svg xmlns:ffdec="https://www.free-decompiler.com/flash" xmlns:xlink="http://www.w3.org/1999/xlink" ffdec:objectType="shape" height="15.2px" width="13.75px" xmlns="http://www.w3.org/2000/svg">
  <g transform="matrix(1.0, 0.0, 0.0, 1.0, 3.75, 8.85)">
    <path d="M8.9 -4.55 L9.0 -4.25 Q9.1 -4.1 9.15 -3.35 L9.2 -3.15 9.15 -3.15 9.15 -3.1 9.2 -3.05 9.2 -2.9 9.25 -2.55 Q9.25 -2.1 9.2 -1.7 L9.2 -1.6 9.05 -1.5 9.1 -1.55 9.05 -1.1 8.8 0.15 8.5 1.2 8.2 2.2 8.25 2.2 8.25 2.45 Q8.25 3.35 8.0 4.15 7.7 5.3 7.05 6.3 L6.7 6.3 6.75 6.25 6.65 6.25 6.55 6.3 6.4 6.25 5.15 6.2 5.5 6.1 Q3.7 6.05 1.95 5.3 L1.95 5.35 1.9 5.25 Q1.2 4.95 0.5 4.55 -0.55 3.9 -1.25 3.25 -1.6 2.85 -1.75 2.55 L-2.3 2.15 Q-2.55 1.8 -2.8 1.4 L-2.85 1.25 Q-3.45 0.2 -3.65 -0.9 -3.7 -1.3 -3.75 -1.75 L-3.75 -2.35 Q-3.75 -4.65 -2.35 -6.25 -2.0 -6.7 -1.7 -6.9 1.25 -9.25 4.45 -8.8 7.8 -8.3 8.75 -4.85 L8.9 -4.55" fill="#c7a36d" fill-rule="evenodd" stroke="none"/>
    <path d="M9.2 -1.6 L9.2 -1.7 Q9.25 -2.1 9.25 -2.55 L9.2 -2.9 9.2 -3.05 9.15 -3.1 9.15 -3.15 9.2 -3.15 9.15 -3.35 Q9.1 -4.1 9.0 -4.25 L8.9 -4.55 9.55 -4.7 9.65 -4.8 9.65 -4.65 9.9 -4.15 9.85 -4.15 Q9.9 -4.0 9.95 -3.15 10.05 -2.75 10.0 -2.35 L9.95 -2.3 10.0 -1.85 Q9.8 -1.0 9.65 -0.5 L9.65 -0.45 9.5 -0.05 Q9.1 1.0 8.85 2.15 8.8 3.2 8.5 4.15 8.3 4.9 7.9 5.65 L7.7 6.1 7.05 6.3 Q7.7 5.3 8.0 4.15 8.25 3.35 8.25 2.45 L8.25 2.2 8.55 1.25 8.5 1.2 8.8 0.15 9.05 -1.1 9.1 -1.55 9.15 -1.55 9.2 -1.6" fill="#1a1a1a" fill-rule="evenodd" stroke="none"/>
    <path d="M8.25 2.2 L8.2 2.2 8.5 1.2 8.55 1.25 8.25 2.2" fill="#a9854f" fill-rule="evenodd" stroke="none"/>
    <path d="M5.5 0.85 L5.55 0.6 5.65 0.25 6.2 0.2 6.5 0.15 6.7 0.15 6.7 0.2 7.55 0.2 7.6 0.25 7.65 0.25 Q7.8 0.3 7.9 0.4 7.85 0.4 7.85 0.45 L7.65 0.6 7.65 0.7 7.5 0.85 Q7.25 1.05 6.5 1.1 L6.0 1.0 Q5.75 0.9 5.6 0.85 L5.55 0.85 5.5 0.9 5.5 0.85 M2.95 0.85 L3.05 0.95 2.7 1.05 Q2.3 1.2 1.4 1.2 0.6 1.2 -0.1 0.85 L-0.55 0.65 -1.05 0.35 -1.15 0.25 Q-1.1 0.15 -0.8 0.05 -0.7 0.05 -0.65 0.0 L-0.1 -0.1 1.05 0.05 1.05 0.1 1.45 0.15 Q1.9 0.25 2.15 0.4 L2.15 0.35 2.6 0.6 2.95 0.85 M5.45 0.15 L5.4 0.3 5.4 0.25 5.45 0.15" fill="#ffffff" fill-rule="evenodd" stroke="none"/>
    <path d="M-2.85 0.0 L-2.95 0.0 -3.1 -0.15 -3.15 -0.25 Q-3.15 -0.5 -2.4 -0.85 -1.65 -1.25 -0.9 -1.25 0.2 -1.25 1.15 -1.05 1.65 -0.9 2.0 -0.8 L2.95 -0.8 Q3.65 -1.5 3.85 -1.25 3.95 -1.15 3.95 -0.65 L3.95 -0.6 Q3.95 -0.35 3.85 -0.15 L3.85 -0.1 3.75 0.05 Q3.6 0.25 3.15 0.35 3.45 0.55 3.45 0.85 L3.45 1.1 3.3 1.1 3.2 1.25 3.0 1.3 2.6 1.45 Q2.45 1.4 2.3 1.45 2.3 1.35 2.25 1.35 L2.15 1.35 Q1.75 1.5 0.95 1.4 L-0.1 1.3 -0.15 1.35 Q-0.7 1.25 -1.0 1.0 L-1.35 0.65 -1.5 0.6 Q-1.85 0.4 -1.85 0.3 -1.85 0.1 -1.55 -0.05 L-2.3 0.0 -2.85 0.0 M5.55 5.25 Q5.65 4.9 5.65 4.6 5.65 4.4 5.45 3.45 5.25 3.1 5.2 2.85 L4.95 1.85 Q4.85 1.3 4.8 0.85 L4.8 0.8 Q4.8 0.05 5.0 -0.35 L5.05 -0.5 Q5.1 -0.9 5.2 -1.1 L5.2 -1.25 Q5.2 -1.3 5.45 -1.85 5.7 -2.45 5.7 -3.0 L5.75 -3.0 Q5.75 -2.8 5.85 -2.3 L5.9 -1.75 5.85 -1.45 5.9 -1.25 5.85 -1.15 6.6 -1.25 7.9 -1.3 Q8.9 -1.3 9.1 -0.75 9.25 -0.5 9.15 -0.2 L9.05 0.0 8.95 0.05 8.85 0.05 8.8 0.05 8.15 0.1 Q8.5 0.25 8.5 0.55 L8.45 0.75 8.3 0.8 8.25 0.8 8.1 0.9 7.65 1.15 7.4 1.25 Q7.1 1.4 6.8 1.45 L6.35 1.45 5.9 1.3 Q5.6 1.25 5.5 1.15 L5.5 1.4 5.55 1.65 5.55 1.7 5.6 1.85 Q5.65 2.2 5.8 2.6 6.2 3.8 6.2 4.55 6.2 5.15 6.0 5.6 5.75 6.25 5.1 6.35 L5.05 6.35 4.9 6.3 Q4.9 6.4 4.85 6.25 L4.85 6.2 Q4.85 6.05 5.05 5.85 L5.35 5.7 5.45 5.4 5.55 5.25 M2.9 5.45 L2.85 5.45 Q2.45 5.1 2.45 4.9 2.75 4.65 3.1 4.25 3.75 3.4 3.9 2.2 L3.95 2.2 3.95 2.35 Q3.95 2.55 3.6 3.6 3.2 4.75 2.95 4.95 L2.95 5.0 Q2.95 5.05 3.15 5.25 L3.5 5.55 3.45 5.7 Q3.4 5.7 3.4 5.75 L3.3 5.8 2.9 5.45 M9.7 -1.9 L9.7 -1.6 Q9.7 -1.35 9.55 -1.1 L9.4 -0.9 9.65 -2.2 Q9.7 -2.1 9.7 -2.0 L9.7 -1.9 M5.5 0.9 L5.55 0.85 5.6 0.85 Q5.75 0.9 6.0 1.0 L6.5 1.1 Q7.25 1.05 7.5 0.85 L7.65 0.7 7.65 0.6 7.85 0.45 Q7.85 0.4 7.9 0.4 7.8 0.3 7.65 0.25 L7.6 0.25 7.55 0.2 6.7 0.2 6.7 0.15 6.5 0.15 6.2 0.2 5.65 0.25 5.55 0.6 5.5 0.85 5.5 0.9 M7.85 0.8 L8.05 0.6 Q7.9 0.65 7.7 0.75 L7.7 0.85 Q7.8 0.85 7.85 0.8 M5.9 2.65 L6.1 3.0 6.05 3.0 Q6.0 3.05 5.9 2.65 M5.45 0.15 L5.4 0.25 5.4 0.3 5.45 0.15 M2.95 0.85 L2.6 0.6 2.15 0.35 2.15 0.4 Q1.9 0.25 1.45 0.15 L1.05 0.1 1.05 0.05 -0.1 -0.1 -0.65 0.0 Q-0.7 0.05 -0.8 0.05 -1.1 0.15 -1.15 0.25 L-1.05 0.35 -0.55 0.65 -0.1 0.85 Q0.6 1.2 1.4 1.2 2.3 1.2 2.7 1.05 L3.05 0.95 2.95 0.85 M4.3 5.5 Q4.65 5.7 4.8 6.0 L3.75 5.6 Q3.9 5.3 4.3 5.5" fill="#1a1a1a" fill-rule="evenodd" stroke="none"/>
    <path d="M2.15 6.05 L2.2 6.1 2.2 6.2 2.15 6.05" fill="#c7a36d" fill-rule="evenodd" stroke="none"/>
    <path d="M3.95 -0.65 Q4.15 -0.6 4.25 -0.25 4.3 -0.05 4.3 0.2 L4.2 0.7 4.2 0.85 Q4.05 1.35 3.05 2.15 2.0 2.95 1.5 3.0 L1.45 2.7 Q1.35 2.65 1.3 2.5 L1.25 2.2 Q1.25 2.05 1.75 1.7 2.05 1.5 2.3 1.45 2.45 1.4 2.6 1.45 L3.0 1.3 3.2 1.25 3.3 1.1 3.45 1.1 3.45 0.85 Q3.45 0.55 3.15 0.35 3.6 0.25 3.75 0.05 L3.85 -0.1 3.9 -0.15 3.85 -0.15 Q3.95 -0.35 3.95 -0.6 L3.95 -0.65 M0.65 2.3 L0.4 2.3 Q-0.35 2.15 -0.95 1.95 L-0.65 2.25 -0.65 2.3 Q-0.65 2.35 -0.75 2.35 -1.25 2.35 -1.75 1.9 L-2.15 1.55 Q-2.5 1.15 -2.6 0.85 L-2.65 0.7 Q-2.85 0.35 -2.85 0.0 L-2.3 0.0 -1.55 -0.05 Q-1.85 0.1 -1.85 0.3 -1.85 0.4 -1.5 0.6 L-1.35 0.65 -1.0 1.0 Q-0.7 1.25 -0.15 1.35 L-0.15 1.4 -0.35 1.35 0.0 1.65 Q0.55 1.95 0.6 2.15 L0.6 2.2 0.65 2.3 M8.85 0.05 L8.9 0.1 8.85 0.4 8.7 0.65 8.6 0.85 Q8.4 1.35 8.4 1.65 L7.9 2.05 8.0 2.2 8.0 2.3 Q7.95 2.35 7.95 2.4 L7.95 2.45 7.8 2.45 7.5 2.4 Q7.4 2.35 7.35 2.2 7.3 2.1 7.3 1.9 L7.3 1.7 7.25 1.7 Q7.3 1.65 7.35 1.6 L7.4 1.5 7.45 1.5 7.75 1.3 Q8.0 1.1 8.1 0.9 L8.25 0.8 8.3 0.8 8.45 0.75 8.5 0.55 Q8.5 0.25 8.15 0.1 L8.8 0.05 8.85 0.05 M6.7 2.6 Q6.4 2.55 6.0 2.15 5.65 1.85 5.55 1.7 L5.55 1.65 5.5 1.4 5.5 1.15 Q5.6 1.25 5.9 1.3 L6.35 1.45 6.4 1.55 6.5 1.6 Q6.95 1.8 6.95 2.15 L6.9 2.4 6.85 2.45 6.75 2.5 6.7 2.6 M4.85 6.25 L4.85 6.3 4.8 6.3 Q3.85 6.3 3.2 5.7 L2.9 5.45 3.3 5.8 3.4 5.75 Q3.4 5.7 3.45 5.7 L3.5 5.55 3.15 5.25 Q2.95 5.05 2.95 5.0 L3.2 5.1 Q3.65 5.35 3.95 5.35 4.1 5.35 4.45 5.2 4.8 5.0 5.15 5.0 5.4 5.0 5.55 5.25 L5.45 5.4 5.35 5.7 5.05 5.85 Q4.85 6.05 4.85 6.2 L4.85 6.25 M4.25 -1.5 Q4.25 -1.7 4.3 -1.75 4.4 -1.9 4.75 -1.85 L4.75 -1.25 4.6 -1.15 Q4.35 -1.15 4.3 -1.3 4.25 -1.35 4.25 -1.5 M5.5 0.85 L5.5 0.9 5.5 0.85 M4.3 5.5 Q3.9 5.3 3.75 5.6 L4.8 6.0 Q4.65 5.7 4.3 5.5 M-3.05 -0.55 L-3.05 -0.65 Q-3.1 -0.7 -3.05 -0.8 L-3.0 -0.75 -3.05 -0.55" fill="#a9854f" fill-rule="evenodd" stroke="none"/>
    <path d="M7.85 0.8 Q7.8 0.85 7.7 0.85 L7.7 0.75 Q7.9 0.65 8.05 0.6 L7.85 0.8" fill="#444444" fill-rule="evenodd" stroke="none"/>
    <path d="M1.0 -1.45 Q0.55 -1.45 0.4 -1.7 0.35 -1.8 0.35 -1.95 0.35 -2.55 0.95 -2.6 1.25 -2.65 1.4 -2.5 1.6 -2.4 1.6 -2.2 1.6 -1.85 1.55 -1.7 1.4 -1.45 1.0 -1.45 M1.5 3.0 L1.5 3.05 1.65 3.35 Q2.0 4.05 2.0 4.2 2.0 4.8 1.7 5.05 1.55 5.3 1.35 5.3 L0.8 5.3 Q0.35 5.2 0.25 4.9 L0.2 4.75 0.2 4.35 Q0.2 3.7 0.5 3.15 L0.55 3.05 0.75 2.5 0.65 2.3 0.6 2.2 0.6 2.15 Q0.55 1.95 0.0 1.65 L-0.35 1.35 -0.15 1.4 -0.15 1.35 -0.1 1.3 0.95 1.4 Q1.75 1.5 2.15 1.35 L2.25 1.35 Q2.3 1.35 2.3 1.45 2.05 1.5 1.75 1.7 1.25 2.05 1.25 2.2 L1.3 2.5 Q1.35 2.65 1.45 2.7 L1.5 3.0 M7.5 2.4 L7.6 2.55 Q7.9 3.25 7.9 3.9 7.9 5.2 7.2 5.2 6.6 5.2 6.4 4.45 L6.35 3.75 Q6.35 3.35 6.55 2.85 L6.7 2.6 6.75 2.5 6.85 2.45 6.9 2.4 6.95 2.15 Q6.95 1.8 6.5 1.6 L6.4 1.55 6.35 1.45 6.8 1.45 Q7.1 1.4 7.4 1.25 L7.65 1.15 8.1 0.9 Q8.0 1.1 7.75 1.3 L7.45 1.5 7.4 1.5 7.35 1.6 Q7.3 1.65 7.25 1.7 L7.25 1.75 7.3 1.9 Q7.3 2.1 7.35 2.2 7.4 2.35 7.5 2.4 M7.2 -2.55 Q7.75 -2.55 7.75 -2.05 7.75 -1.8 7.7 -1.75 7.6 -1.6 7.25 -1.6 6.75 -1.6 6.65 -1.85 L6.6 -2.1 Q6.6 -2.55 7.2 -2.55" fill="#506060" fill-rule="evenodd" stroke="none"/>
  </g>
</svg>
