<?xml version="1.0" encoding="UTF-8" standalone="no"?>
<svg xmlns:ffdec="https://www.free-decompiler.com/flash" xmlns:xlink="http://www.w3.org/1999/xlink" ffdec:objectType="shape" height="15.2px" width="13.75px" xmlns="http://www.w3.org/2000/svg">
  <g transform="matrix(1.0, 0.0, 0.0, 1.0, 3.75, 8.85)">
    <path d="M8.9 -4.55 L9.0 -4.25 Q9.1 -4.1 9.15 -3.35 L9.2 -3.15 9.15 -3.15 9.15 -3.1 9.2 -3.05 9.2 -2.9 9.25 -2.55 Q9.25 -2.1 9.2 -1.7 L9.2 -1.6 9.05 -1.5 9.1 -1.55 9.05 -1.1 8.8 0.15 8.5 1.2 8.2 2.2 8.25 2.2 8.25 2.45 Q8.25 3.35 8.0 4.15 7.7 5.3 7.05 6.3 L6.7 6.3 6.75 6.25 6.65 6.25 6.55 6.3 6.4 6.25 5.15 6.2 5.5 6.1 Q3.7 6.05 1.95 5.3 L1.95 5.35 1.9 5.25 Q1.2 4.95 0.5 4.55 -0.55 3.9 -1.25 3.25 -1.6 2.85 -1.75 2.55 L-2.3 2.15 Q-2.55 1.8 -2.8 1.4 L-2.85 1.25 Q-3.45 0.2 -3.65 -0.9 -3.7 -1.3 -3.75 -1.75 L-3.75 -2.35 Q-3.75 -4.65 -2.35 -6.25 -2.0 -6.7 -1.7 -6.9 1.25 -9.25 4.45 -8.8 7.8 -8.3 8.75 -4.85 L8.9 -4.55" fill="#c7a36d" fill-rule="evenodd" stroke="none"/>
    <path d="M9.2 -1.6 L9.2 -1.7 Q9.25 -2.1 9.25 -2.55 L9.2 -2.9 9.2 -3.05 9.15 -3.1 9.15 -3.15 9.2 -3.15 9.15 -3.35 Q9.1 -4.1 9.0 -4.25 L8.9 -4.55 9.55 -4.7 9.65 -4.8 9.65 -4.65 9.9 -4.15 9.85 -4.15 Q9.9 -4.0 9.95 -3.15 10.05 -2.75 10.0 -2.35 9.85 -2.1 9.8 -1.65 9.65 -1.0 9.65 -0.45 L9.5 -0.05 Q9.1 1.0 8.85 2.15 8.8 3.2 8.5 4.15 8.3 4.9 7.9 5.65 L7.7 6.1 7.05 6.3 Q7.7 5.3 8.0 4.15 8.25 3.35 8.25 2.45 L8.25 2.2 8.55 1.25 8.5 1.2 8.8 0.15 9.05 -1.1 9.1 -1.55 9.15 -1.55 9.2 -1.6" fill="#1a1a1a" fill-rule="evenodd" stroke="none"/>
    <path d="M8.25 2.2 L8.2 2.2 8.5 1.2 8.55 1.25 8.25 2.2" fill="#a9854f" fill-rule="evenodd" stroke="none"/>
    <path d="M-1.25 0.25 L-1.15 0.3 -1.45 0.25 -1.25 0.25 M-2.35 0.05 L-2.45 -0.05 -2.2 0.05 -2.3 0.1 -2.35 0.05" fill="#a69375" fill-rule="evenodd" stroke="none"/>
    <path d="M-2.25 0.6 L-2.25 0.6" fill="#736551" fill-rule="evenodd" stroke="none"/>
    <path d="M4.8 -0.2 Q4.4 0.1 4.0 0.2 L3.55 0.2 3.05 0.15 Q2.8 0.1 2.55 0.0 L2.7 0.05 Q2.25 -0.15 2.1 -0.2 L1.9 -0.3 2.05 -0.25 2.0 -0.3 Q1.55 -0.55 1.05 -0.75 L0.9 -0.8 0.85 -0.8 -2.6 -0.5 -2.65 -0.5 -2.8 -0.4 -2.9 -0.35 -2.95 -0.35 Q-3.05 -0.3 -3.05 -0.45 L-3.05 -0.55 -3.0 -0.75 Q-2.8 -1.35 -1.9 -1.7 -1.6 -1.8 -1.35 -2.0 L-1.15 -2.1 Q0.3 -1.75 1.8 -1.25 3.25 -0.75 4.75 -0.4 4.85 -0.35 4.85 -0.25 L4.8 -0.2 M0.2 0.65 L1.2 0.7 Q3.55 0.85 3.55 1.5 3.55 1.6 3.45 1.7 3.35 1.8 3.2 1.8 L2.95 1.8 2.4 1.75 2.3 1.8 Q2.0 2.05 1.85 2.05 L1.4 2.0 Q1.2 1.9 1.05 1.8 0.9 1.6 0.9 1.45 L0.85 1.45 Q-1.1 1.0 -1.1 0.85 -1.1 0.7 -0.4 0.65 L0.2 0.65 M5.8 1.65 Q5.7 0.45 5.65 0.05 L5.6 0.0 5.5 -0.15 Q5.45 -0.15 5.45 -0.2 L5.5 -0.25 5.55 -0.35 5.6 -0.4 5.7 -0.4 5.75 -0.45 Q5.95 -0.55 6.3 -0.35 7.2 -0.4 7.9 -0.8 8.75 -1.25 9.1 -1.55 L9.05 -1.1 8.9 -0.4 8.95 -0.2 Q8.95 -0.05 8.8 0.35 L8.65 0.6 8.65 0.65 8.65 0.5 Q8.65 0.35 8.55 0.3 L8.65 -0.05 8.7 -0.2 8.75 -0.25 8.65 -0.2 8.25 -0.05 7.75 0.05 6.95 0.25 6.25 0.35 6.2 1.05 Q6.45 0.9 7.0 0.95 8.05 0.8 8.3 0.7 8.1 0.95 7.55 1.25 7.25 1.45 7.0 1.5 L6.9 1.6 6.9 1.7 Q6.9 1.85 6.8 2.0 6.75 2.15 6.55 2.2 6.45 2.3 6.3 2.3 L6.25 2.3 6.25 2.4 Q6.25 2.45 6.3 2.5 L6.3 2.7 6.45 3.7 Q6.45 4.1 6.55 4.85 6.7 5.6 6.7 5.95 L6.6 6.1 Q6.5 6.25 6.35 6.25 L6.25 6.25 Q6.1 6.35 6.0 6.35 5.8 6.35 5.7 6.25 L5.7 6.2 5.6 6.2 5.6 6.05 Q5.6 5.75 5.9 5.5 L5.85 5.35 5.85 5.15 5.95 4.45 6.0 3.75 5.85 2.15 5.85 1.8 5.8 1.65 M4.1 6.05 L3.75 6.05 3.75 6.0 3.7 5.9 Q3.7 5.6 4.5 5.45 L5.35 5.4 5.45 5.5 Q5.35 5.6 4.75 5.85 L4.45 5.95 4.1 6.05 M3.2 5.75 L3.15 5.75 3.1 5.65 3.05 5.6 3.0 5.6 Q2.75 5.6 2.6 5.3 2.55 5.1 2.55 4.95 2.55 4.55 3.3 3.7 4.0 2.95 4.2 2.9 L4.25 2.9 4.45 2.7 3.65 4.15 Q3.4 4.7 3.3 5.1 3.25 5.35 3.3 5.6 L3.3 5.7 3.2 5.75 M8.45 1.15 L8.55 0.9 8.5 1.2 8.45 1.15" fill="#1a1a1a" fill-rule="evenodd" stroke="none"/>
    <path d="M8.65 -0.2 L8.75 -0.25 8.7 -0.2 8.65 -0.2" fill="#c7a36d" fill-rule="evenodd" stroke="none"/>
    <path d="M-2.65 -0.5 L-2.6 -0.5 0.85 -0.8 0.9 -0.8 1.05 -0.75 Q1.55 -0.55 2.0 -0.3 L2.05 -0.25 1.9 -0.3 2.1 -0.2 Q2.25 -0.15 2.7 0.05 L2.55 0.0 Q2.8 0.1 3.05 0.15 L3.55 0.2 4.0 0.2 Q4.4 0.1 4.8 -0.2 L4.85 0.0 Q4.75 1.3 4.75 1.5 4.75 1.6 4.0 1.7 L3.75 1.75 3.8 1.95 Q3.8 2.35 3.2 2.6 2.7 2.8 2.05 2.8 0.2 2.8 -0.4 2.5 L0.65 2.25 1.15 2.05 1.4 2.0 1.85 2.05 Q2.0 2.05 2.3 1.8 L2.4 1.75 2.95 1.8 3.2 1.8 Q3.35 1.8 3.45 1.7 3.55 1.6 3.55 1.5 3.55 0.85 1.2 0.7 L0.2 0.65 0.05 0.65 -0.05 0.6 -2.65 -0.5 M-3.0 -0.75 L-3.05 -0.55 -3.05 -0.65 Q-3.1 -0.7 -3.05 -0.8 L-3.0 -0.75 M8.65 0.65 L8.5 0.85 Q8.35 1.05 7.8 1.25 L7.5 1.7 Q7.25 2.05 7.05 2.2 L7.05 2.25 Q7.25 2.4 7.25 2.5 L7.75 3.05 7.75 3.1 Q6.9 3.0 6.3 2.7 L6.3 2.5 Q6.25 2.45 6.25 2.4 L6.25 2.3 6.3 2.3 Q6.45 2.3 6.55 2.2 6.75 2.15 6.8 2.0 6.9 1.85 6.9 1.7 L6.9 1.6 7.0 1.5 Q7.25 1.45 7.55 1.25 8.1 0.95 8.3 0.7 8.05 0.8 7.0 0.95 6.45 0.9 6.2 1.05 L6.25 0.35 6.95 0.25 7.75 0.05 8.25 -0.05 8.65 -0.2 8.7 -0.2 8.65 -0.05 8.55 0.3 Q8.65 0.35 8.65 0.5 L8.65 0.65 M5.6 6.05 L4.95 6.1 4.1 6.05 4.45 5.95 4.75 5.85 Q5.35 5.6 5.45 5.5 L5.35 5.4 4.5 5.45 Q3.7 5.6 3.7 5.9 L3.75 6.0 Q3.4 5.9 3.2 5.75 L3.3 5.7 3.3 5.6 Q3.25 5.35 3.3 5.1 5.4 5.0 5.85 5.35 L5.9 5.5 Q5.6 5.75 5.6 6.05 M3.1 5.65 L3.0 5.6 3.05 5.6 3.1 5.65 M5.85 2.15 L5.85 2.3 Q5.75 2.15 5.75 1.95 5.75 1.8 5.8 1.65 L5.85 1.8 5.85 2.15" fill="#a9854f" fill-rule="evenodd" stroke="none"/>
  </g>
</svg>
