<?xml version="1.0" encoding="UTF-8" standalone="no"?>
<svg xmlns:ffdec="https://www.free-decompiler.com/flash" xmlns:xlink="http://www.w3.org/1999/xlink" ffdec:objectType="shape" height="15.15px" width="13.75px" xmlns="http://www.w3.org/2000/svg">
  <g transform="matrix(1.0, 0.0, 0.0, 1.0, 3.75, 8.85)">
    <path d="M8.9 -4.55 L9.0 -4.25 Q9.1 -4.1 9.15 -3.35 L9.2 -3.15 9.15 -3.15 9.15 -3.1 9.2 -3.05 9.2 -2.9 9.25 -2.55 Q9.25 -2.1 9.2 -1.7 L9.2 -1.6 9.05 -1.5 9.1 -1.55 9.05 -1.1 8.8 0.15 8.5 1.2 8.2 2.2 8.25 2.2 8.25 2.45 Q8.25 3.35 8.0 4.15 7.7 5.3 7.05 6.3 L6.7 6.3 6.75 6.25 6.65 6.25 6.55 6.3 6.4 6.25 5.15 6.2 5.5 6.1 Q3.7 6.05 1.95 5.3 L1.95 5.35 1.9 5.25 Q1.2 4.95 0.5 4.55 -0.55 3.9 -1.25 3.25 -1.6 2.85 -1.75 2.55 L-2.3 2.15 Q-2.55 1.8 -2.8 1.4 L-2.85 1.25 Q-3.45 0.2 -3.65 -0.9 -3.7 -1.3 -3.75 -1.75 L-3.75 -2.35 Q-3.75 -4.65 -2.35 -6.25 -2.0 -6.7 -1.7 -6.9 1.25 -9.25 4.45 -8.8 7.8 -8.3 8.75 -4.85 L8.9 -4.55 M5.95 5.6 L5.95 5.6" fill="#c7a36d" fill-rule="evenodd" stroke="none"/>
    <path d="M9.2 -1.6 L9.2 -1.7 Q9.25 -2.1 9.25 -2.55 L9.2 -2.9 9.2 -3.05 9.15 -3.1 9.15 -3.15 9.2 -3.15 9.15 -3.35 Q9.1 -4.1 9.0 -4.25 L8.9 -4.55 9.55 -4.7 9.65 -4.8 9.65 -4.65 9.9 -4.15 9.85 -4.15 Q9.9 -4.0 9.95 -3.15 10.05 -2.75 10.0 -2.35 L9.95 -2.3 10.0 -1.85 Q9.8 -1.0 9.65 -0.5 L9.65 -0.45 9.5 -0.05 Q9.1 1.0 8.85 2.15 8.8 3.2 8.5 4.15 8.3 4.9 7.9 5.65 L7.7 6.1 7.05 6.3 Q7.7 5.3 8.0 4.15 8.25 3.35 8.25 2.45 L8.25 2.2 8.55 1.25 8.5 1.2 8.8 0.15 9.05 -1.1 9.1 -1.55 9.15 -1.55 9.2 -1.6" fill="#1a1a1a" fill-rule="evenodd" stroke="none"/>
    <path d="M8.25 2.2 L8.2 2.2 8.5 1.2 8.55 1.25 8.25 2.2" fill="#a9854f" fill-rule="evenodd" stroke="none"/>
    <path d="M0.05 -0.35 Q0.5 -0.45 0.85 -0.45 1.45 -0.3 1.9 0.15 L1.9 0.2 2.35 0.8 2.55 1.1 Q2.45 1.2 1.95 1.3 L1.4 1.45 Q0.5 1.45 -0.25 1.0 -0.9 0.6 -0.9 0.25 -0.9 -0.1 0.05 -0.35 M6.85 0.65 Q6.9 0.75 7.15 0.75 7.45 0.75 7.45 0.5 7.45 0.2 7.15 0.25 6.85 0.25 6.85 0.5 6.85 0.6 6.85 0.65 M7.85 0.15 Q7.8 0.9 7.7 1.15 L7.5 1.35 6.8 1.4 Q6.65 1.4 6.25 1.25 L6.0 1.15 6.0 1.1 5.95 0.8 Q6.05 0.5 6.3 0.25 6.85 -0.3 7.85 -0.1 L7.85 0.15 M1.25 0.0 Q0.9 0.0 0.9 0.4 0.85 0.5 0.9 0.6 0.95 0.8 1.25 0.8 1.6 0.8 1.6 0.4 1.6 0.05 1.25 0.0" fill="#ffffff" fill-rule="evenodd" stroke="none"/>
    <path d="M2.1 -0.25 L2.2 -0.05 2.55 0.4 2.6 0.55 Q2.85 0.9 2.85 1.15 2.85 1.25 2.8 1.3 L2.5 1.35 2.45 1.4 2.2 1.55 Q1.7 1.8 1.0 1.8 0.05 1.8 -0.35 1.35 L-0.5 1.1 -0.85 0.6 Q-1.05 0.4 -1.2 0.4 -1.3 0.4 -1.4 0.55 L-1.6 0.75 -1.65 0.75 -1.7 0.65 Q-1.7 0.55 -1.45 0.25 -1.2 -0.15 -0.85 -0.45 L-0.65 -0.55 Q-0.3 -0.95 0.4 -1.05 1.65 -0.9 2.1 -0.25 M0.05 -0.35 Q-0.9 -0.1 -0.9 0.25 -0.9 0.6 -0.25 1.0 0.5 1.45 1.4 1.45 L1.95 1.3 Q2.45 1.2 2.55 1.1 L2.35 0.8 1.9 0.2 1.9 0.15 Q1.45 -0.3 0.85 -0.45 0.5 -0.45 0.05 -0.35 M2.4 -1.6 L0.85 -1.85 Q-0.75 -2.15 -1.4 -2.15 -1.6 -2.15 -2.2 -1.8 -1.7 -2.15 -1.5 -2.2 -0.85 -2.45 0.1 -2.45 L1.85 -2.1 Q2.65 -1.95 2.95 -1.75 L3.55 -1.7 2.4 -1.6 M5.6 2.35 L5.55 2.1 Q5.4 1.55 5.4 0.65 L5.4 0.35 5.75 -0.5 6.0 -1.1 Q5.95 -0.3 5.85 0.1 L5.85 0.2 Q6.1 -0.25 6.5 -0.55 7.6 -1.4 8.7 0.45 L8.7 0.5 8.65 0.5 8.1 -0.05 8.1 0.0 8.15 0.2 8.1 0.65 8.1 0.9 Q8.1 1.1 7.95 1.4 7.7 1.7 7.45 1.7 L7.4 1.7 Q7.1 1.9 6.8 1.9 6.35 1.9 6.05 1.65 L6.05 1.75 6.15 2.3 6.2 2.95 6.2 3.05 6.15 3.45 6.05 4.4 Q5.85 5.95 5.5 5.95 5.2 5.95 4.95 5.85 L4.75 5.85 4.6 5.8 4.4 5.8 4.3 5.7 4.3 5.65 Q4.3 5.5 4.4 5.5 L4.75 5.5 4.8 5.45 5.2 5.45 5.3 5.2 5.4 5.05 5.5 4.85 5.55 4.65 5.6 4.35 5.7 3.0 Q5.7 2.75 5.65 2.45 L5.6 2.35 M8.1 -2.05 L8.5 -1.9 Q9.0 -1.75 9.35 -1.45 L9.45 -1.3 9.4 -1.25 9.05 -1.35 8.75 -1.45 8.1 -1.65 7.95 -1.7 7.35 -1.7 7.15 -1.65 6.8 -1.6 6.45 -1.5 6.4 -1.45 6.4 -1.5 6.3 -1.5 6.4 -1.55 6.5 -1.65 Q7.0 -2.0 8.1 -2.05 M7.85 0.15 L7.85 -0.1 Q6.85 -0.3 6.3 0.25 6.05 0.5 5.95 0.8 L6.0 1.1 6.0 1.15 6.25 1.25 Q6.65 1.4 6.8 1.4 L7.5 1.35 7.7 1.15 Q7.8 0.9 7.85 0.15 M6.85 0.65 Q6.85 0.6 6.85 0.5 6.85 0.25 7.15 0.25 7.45 0.2 7.45 0.5 7.45 0.75 7.15 0.75 6.9 0.75 6.85 0.65 M1.25 0.0 Q1.6 0.05 1.6 0.4 1.6 0.8 1.25 0.8 0.95 0.8 0.9 0.6 0.85 0.5 0.9 0.4 0.9 0.0 1.25 0.0 M3.3 4.7 L3.3 4.75 3.35 5.0 Q3.4 5.2 3.5 5.2 L3.9 5.15 4.25 5.05 4.3 5.05 4.4 5.0 4.55 5.05 4.15 5.4 Q3.85 5.65 3.55 5.65 L3.5 5.65 3.35 5.6 Q3.1 5.6 3.0 5.2 2.95 5.05 2.9 4.85 L2.85 4.7 Q2.85 4.45 3.2 4.25 3.35 4.15 3.45 4.25 L3.55 4.2 3.5 4.35 3.5 4.4 3.4 4.5 3.3 4.7" fill="#1a1a1a" fill-rule="evenodd" stroke="none"/>
    <path d="M5.6 2.35 L5.65 2.45 5.6 2.35 M5.4 5.05 L5.3 5.2 5.2 5.45 4.8 5.45 4.75 5.5 4.4 5.5 Q4.3 5.5 4.3 5.65 L4.3 5.7 4.4 5.8 4.6 5.8 4.75 5.85 Q3.9 5.85 3.55 5.65 3.85 5.65 4.15 5.4 L4.55 5.05 4.4 5.0 4.3 5.05 4.25 5.05 3.9 5.15 3.5 5.2 Q3.4 5.2 3.35 5.0 L3.3 4.75 3.3 4.7 3.35 4.7 Q3.8 5.05 4.05 5.05 L4.2 5.0 Q4.35 4.9 4.45 4.9 4.65 4.9 4.8 5.05 5.0 5.15 5.1 5.15 L5.25 5.1 Q5.3 5.05 5.35 5.05 L5.4 5.05 M6.2 2.95 L6.15 2.3 6.6 2.9 6.5 3.0 6.2 2.95 M0.8 2.85 Q0.95 2.7 1.7 2.5 L2.5 2.4 2.55 2.4 2.2 2.8 Q1.85 3.1 1.45 3.1 1.15 3.1 1.0 3.0 L0.8 2.85" fill="#a9854f" fill-rule="evenodd" stroke="none"/>
  </g>
</svg>
