<?xml version="1.0" encoding="UTF-8" standalone="no"?>
<svg xmlns:ffdec="https://www.free-decompiler.com/flash" xmlns:xlink="http://www.w3.org/1999/xlink" ffdec:objectType="shape" height="15.4px" width="13.75px" xmlns="http://www.w3.org/2000/svg">
  <g transform="matrix(1.0, 0.0, 0.0, 1.0, 3.75, 8.85)">
    <path d="M8.9 -4.55 L9.0 -4.25 Q9.1 -4.1 9.15 -3.35 L9.2 -3.15 9.15 -3.15 9.15 -3.1 9.2 -3.05 9.2 -2.9 9.25 -2.55 Q9.25 -2.1 9.2 -1.7 L9.2 -1.6 9.05 -1.5 9.1 -1.55 9.05 -1.1 8.8 0.15 8.5 1.2 8.2 2.2 8.25 2.2 8.25 2.45 Q8.25 3.35 8.0 4.15 7.7 5.3 7.05 6.3 L6.7 6.3 6.75 6.25 6.65 6.25 6.55 6.3 6.4 6.25 5.15 6.2 5.5 6.1 Q3.7 6.05 1.95 5.3 L1.95 5.35 1.9 5.25 Q1.2 4.95 0.5 4.55 -0.55 3.9 -1.25 3.25 -1.6 2.85 -1.75 2.55 L-2.3 2.15 Q-2.55 1.8 -2.8 1.4 L-2.85 1.25 Q-3.45 0.2 -3.65 -0.9 -3.7 -1.3 -3.75 -1.75 L-3.75 -2.35 Q-3.75 -4.65 -2.35 -6.25 -2.0 -6.7 -1.7 -6.9 1.25 -9.25 4.45 -8.8 7.8 -8.3 8.75 -4.85 L8.9 -4.55 M5.95 5.6 L5.95 5.6" fill="#c7a36d" fill-rule="evenodd" stroke="none"/>
    <path d="M9.2 -1.6 L9.2 -1.7 Q9.25 -2.1 9.25 -2.55 L9.2 -2.9 9.2 -3.05 9.15 -3.1 9.15 -3.15 9.2 -3.15 9.15 -3.35 Q9.1 -4.1 9.0 -4.25 L8.9 -4.55 9.55 -4.7 9.65 -4.8 9.65 -4.65 9.9 -4.15 9.85 -4.15 Q9.9 -4.0 9.95 -3.15 10.05 -2.75 10.0 -2.35 L9.95 -2.3 10.0 -1.85 Q9.8 -1.0 9.65 -0.5 L9.65 -0.45 9.5 -0.05 Q9.1 1.0 8.85 2.15 8.8 3.2 8.5 4.15 8.3 4.9 7.9 5.65 L7.7 6.1 7.05 6.3 Q7.7 5.3 8.0 4.15 8.25 3.35 8.25 2.45 L8.25 2.2 8.55 1.25 8.5 1.2 8.8 0.15 9.05 -1.1 9.1 -1.55 9.15 -1.55 9.2 -1.6" fill="#1a1a1a" fill-rule="evenodd" stroke="none"/>
    <path d="M8.25 2.2 L8.2 2.2 8.5 1.2 8.55 1.25 8.25 2.2" fill="#a9854f" fill-rule="evenodd" stroke="none"/>
    <path d="M1.6 -0.4 Q1.9 -0.15 2.0 0.2 2.1 0.45 2.1 0.7 L2.1 0.9 2.05 1.05 2.05 1.1 Q2.0 1.3 1.85 1.45 1.45 1.9 0.65 1.9 0.05 1.9 -0.3 1.4 -0.5 1.1 -0.55 0.85 L-0.5 0.85 -0.55 0.55 Q-0.55 0.35 -0.4 0.2 -0.35 -0.1 -0.05 -0.3 0.3 -0.6 0.8 -0.6 1.3 -0.65 1.6 -0.4 M6.0 -0.25 Q6.25 -0.4 6.6 -0.35 7.0 -0.4 7.2 -0.15 7.65 0.1 7.65 0.7 7.65 1.05 7.55 1.25 7.4 1.7 6.95 1.75 6.75 1.85 6.45 1.85 5.95 1.85 5.75 1.65 L5.7 1.6 5.65 1.5 Q5.45 1.45 5.45 1.2 L5.4 0.9 5.45 0.7 5.45 0.6 Q5.45 0.35 5.6 0.2 L5.6 0.15 Q5.65 -0.1 5.9 -0.2 L5.95 -0.25 6.0 -0.25" fill="#ffffff" fill-rule="evenodd" stroke="none"/>
    <path d="M2.1 -0.35 Q2.3 -0.1 2.35 0.1 L2.35 0.15 2.3 0.3 2.35 0.3 2.35 0.55 Q2.4 0.9 2.35 1.05 2.35 1.2 2.1 1.55 1.95 1.85 1.85 2.0 1.5 2.25 1.05 2.25 -0.05 2.25 -0.55 1.6 -0.85 1.2 -0.85 0.8 -0.85 0.6 -0.8 0.45 L-0.8 0.3 Q-0.8 -0.25 -0.6 -0.45 -0.5 -0.55 -0.3 -0.65 L-0.45 -0.7 -0.25 -0.65 -0.2 -0.7 Q0.25 -0.95 0.8 -0.9 L1.1 -0.85 1.45 -0.85 Q1.9 -0.55 2.1 -0.35 M3.3 0.7 L3.45 0.7 3.35 0.75 3.3 0.75 3.3 0.7 M3.2 6.05 L3.35 5.2 Q3.45 5.0 3.65 4.85 L4.15 4.6 Q4.5 4.3 4.75 3.7 4.8 3.45 4.75 3.25 L4.8 3.25 4.85 3.8 4.9 4.2 Q4.9 4.6 4.7 4.9 4.45 5.35 3.85 5.4 L3.8 5.5 3.7 5.9 4.0 5.85 4.1 5.75 Q4.3 5.65 4.5 5.65 L4.7 5.6 4.9 5.65 4.95 5.7 4.25 6.1 Q3.9 6.3 3.7 6.35 L3.45 6.55 Q3.25 6.55 3.25 6.4 L3.2 6.15 3.2 6.05 M4.8 0.9 Q4.8 0.65 4.95 0.35 L5.2 0.35 5.65 -0.25 Q6.0 -0.65 6.55 -0.75 7.05 -0.85 7.4 -0.6 7.65 -0.45 7.75 -0.25 L8.0 -0.4 7.8 -0.3 7.8 -0.25 7.75 -0.25 Q7.85 -0.05 7.85 0.25 L7.85 0.45 7.8 0.55 Q7.8 1.05 7.55 1.55 7.15 2.3 6.45 2.3 5.95 2.3 5.65 2.0 L5.65 2.1 5.7 2.1 5.75 2.35 5.85 2.6 5.85 2.75 5.95 2.95 Q6.0 3.35 6.4 4.45 6.8 5.4 6.8 5.55 6.8 5.8 6.4 6.15 5.9 6.55 5.2 6.55 L5.05 6.55 4.95 6.5 4.9 6.45 4.7 6.35 4.85 6.25 Q4.95 6.05 5.35 5.95 L5.4 5.95 5.65 5.85 Q5.95 5.7 6.05 5.6 5.8 4.95 5.35 3.3 5.15 2.55 5.05 2.1 4.95 1.95 4.85 1.7 L4.75 1.2 4.8 0.9 M1.6 -0.4 Q1.3 -0.65 0.8 -0.6 0.3 -0.6 -0.05 -0.3 -0.35 -0.1 -0.4 0.2 -0.55 0.35 -0.55 0.55 L-0.5 0.85 -0.55 0.85 Q-0.5 1.1 -0.3 1.4 0.05 1.9 0.65 1.9 1.45 1.9 1.85 1.45 2.0 1.3 2.05 1.1 L2.05 1.05 2.1 0.9 2.1 0.7 Q2.1 0.45 2.0 0.2 1.9 -0.15 1.6 -0.4 M6.0 -0.25 L5.95 -0.25 5.9 -0.2 Q5.65 -0.1 5.6 0.15 L5.6 0.2 Q5.45 0.35 5.45 0.6 L5.45 0.7 5.4 0.9 5.45 1.2 Q5.45 1.45 5.65 1.5 L5.7 1.6 5.75 1.65 Q5.95 1.85 6.45 1.85 6.75 1.85 6.95 1.75 7.4 1.7 7.55 1.25 7.65 1.05 7.65 0.7 7.65 0.1 7.2 -0.15 7.0 -0.4 6.6 -0.35 6.25 -0.4 6.0 -0.25 M-0.85 0.35 L-0.85 0.35" fill="#1a1a1a" fill-rule="evenodd" stroke="none"/>
    <path d="M3.3 0.7 L3.3 0.5 3.25 0.3 3.25 0.25 Q3.2 -0.45 2.5 -0.95 L2.35 -1.1 4.15 -0.5 Q4.55 -0.2 4.65 -0.2 L5.3 -0.3 5.2 0.35 4.95 0.35 Q4.8 0.65 4.8 0.9 L4.45 1.0 4.4 1.15 4.35 1.4 4.4 1.55 4.55 2.25 Q4.75 3.0 4.75 3.7 4.5 4.3 4.15 4.6 L3.65 4.85 Q3.45 5.0 3.35 5.2 L3.2 6.05 Q3.1 5.8 3.1 5.2 L3.2 2.5 Q3.2 1.95 3.25 1.55 L3.25 1.25 3.3 1.0 3.3 0.75 3.35 0.75 3.45 0.7 3.3 0.7 M-0.85 -1.4 Q-1.1 -1.25 -1.25 -1.05 L-1.3 -0.95 -1.55 -0.65 -1.7 -0.5 -1.7 -0.45 Q-1.75 -0.3 -1.8 -0.05 L-1.8 0.35 -2.95 -0.6 -3.5 -1.05 Q-3.25 -1.75 -1.6 -1.55 L-0.85 -1.4 M7.8 -1.25 L8.85 -0.75 8.55 -0.65 Q8.75 -0.5 8.85 -0.2 L8.95 -0.1 8.95 0.0 8.75 0.7 Q8.65 0.8 8.5 0.85 L8.45 0.4 8.45 -0.15 Q8.4 -0.4 8.3 -0.55 L8.4 -0.6 Q8.25 -0.95 7.95 -1.2 L7.8 -1.25" fill="#a9854f" fill-rule="evenodd" stroke="none"/>
    <path d="M2.1 -0.35 Q1.9 -0.55 1.45 -0.85 L1.1 -0.85 0.8 -0.9 Q0.25 -0.95 -0.2 -0.7 L-0.25 -0.65 -0.45 -0.7 -0.3 -0.65 Q-0.5 -0.55 -0.6 -0.45 -0.8 -0.25 -0.8 0.3 L-0.8 0.45 Q-0.85 0.6 -0.85 0.8 -0.85 1.2 -0.55 1.6 -0.05 2.25 1.05 2.25 1.5 2.25 1.85 2.0 1.95 1.85 2.1 1.55 2.35 1.2 2.35 1.05 2.4 0.9 2.35 0.55 L2.35 0.3 2.3 0.3 2.35 0.15 2.35 0.1 Q2.3 -0.1 2.1 -0.35 M2.35 -1.1 L2.5 -0.95 Q3.2 -0.45 3.25 0.25 L3.25 0.3 3.3 0.5 3.3 0.7 3.3 0.75 3.3 1.0 3.25 1.25 3.25 1.55 Q2.8 2.95 0.85 2.95 -0.7 2.95 -1.4 1.85 -1.8 1.2 -1.8 0.55 L-1.8 0.35 -1.8 -0.05 Q-1.75 -0.3 -1.7 -0.45 L-1.7 -0.5 -1.55 -0.65 -1.3 -0.95 -1.25 -1.05 Q-1.1 -1.25 -0.85 -1.4 L-0.7 -1.5 0.9 -1.6 2.35 -1.1 M5.2 0.35 L5.3 -0.3 6.85 -1.45 7.8 -1.25 7.95 -1.2 Q8.25 -0.95 8.4 -0.6 L8.3 -0.55 Q8.4 -0.4 8.45 -0.15 L8.45 0.4 8.5 0.85 Q8.45 1.4 8.35 1.8 7.95 2.95 6.35 2.95 6.1 2.95 5.9 2.85 L5.85 2.75 5.85 2.6 5.75 2.35 5.7 2.1 5.65 2.1 5.65 2.0 Q5.95 2.3 6.45 2.3 7.15 2.3 7.55 1.55 7.8 1.05 7.8 0.55 L7.85 0.45 7.85 0.25 Q7.85 -0.05 7.75 -0.25 L7.8 -0.25 7.8 -0.3 8.0 -0.4 7.75 -0.25 Q7.65 -0.45 7.4 -0.6 7.05 -0.85 6.55 -0.75 6.0 -0.65 5.65 -0.25 L5.2 0.35 M-0.85 0.35 L-0.85 0.35" fill="#794040" fill-rule="evenodd" stroke="none"/>
    <path d="M5.5 -3.6 L5.9 -2.45 Q6.05 -2.0 6.1 -1.5 L6.35 -1.55 Q7.75 -1.8 8.2 -2.1 8.65 -2.4 9.0 -1.7 9.35 -1.1 9.35 -0.65 9.35 -0.5 9.25 -0.45 9.15 -0.3 9.0 -0.3 8.95 -0.3 8.5 -0.7 8.1 -1.1 7.75 -1.1 L6.35 -1.0 6.05 -0.75 5.8 -0.5 5.7 -0.35 Q5.3 0.7 5.25 1.0 5.3 1.05 5.15 1.05 5.0 1.05 4.95 0.7 L4.9 0.35 Q4.9 0.05 5.3 -0.95 5.7 -2.0 5.7 -2.4 5.7 -2.7 5.45 -3.55 L5.5 -3.6 M1.15 -1.95 L1.55 -1.85 Q2.55 -1.55 3.4 -1.55 3.75 -1.55 4.15 -2.5 L4.25 -2.8 4.3 -2.8 4.3 -2.7 4.35 -2.75 Q4.45 -2.45 4.45 -2.1 L4.4 -1.6 4.35 -1.05 Q4.35 -0.95 4.2 -0.6 4.05 -0.2 3.95 -0.2 3.85 -0.2 3.3 -0.6 L2.95 -0.8 2.75 -0.9 1.2 -1.3 1.0 -1.35 0.85 -1.4 -0.55 -1.45 -0.7 -1.45 -0.7 -1.4 Q-1.1 -1.4 -2.1 -1.4 -2.5 -1.4 -2.95 -1.25 L-3.1 -1.25 -2.1 -2.0 -2.05 -2.05 -1.95 -2.1 Q-1.4 -2.5 -0.75 -2.75 0.25 -2.3 1.05 -2.0 L1.15 -1.95 M6.1 -0.95 L5.95 -0.95 5.9 -0.9 5.9 -0.8 6.0 -0.9 6.1 -0.95" fill="#1a1a1a" fill-rule="evenodd" stroke="none"/>
  </g>
</svg>
