<?xml version="1.0" encoding="UTF-8" standalone="no"?>
<svg xmlns:ffdec="https://www.free-decompiler.com/flash" xmlns:xlink="http://www.w3.org/1999/xlink" ffdec:objectType="shape" height="15.55px" width="13.75px" xmlns="http://www.w3.org/2000/svg">
  <g transform="matrix(1.0, 0.0, 0.0, 1.0, 3.75, 8.85)">
    <path d="M8.9 -4.55 L9.0 -4.25 Q9.1 -4.1 9.15 -3.35 L9.2 -3.15 9.15 -3.15 9.15 -3.1 9.2 -3.05 9.2 -2.9 9.25 -2.55 Q9.25 -2.1 9.2 -1.7 L9.2 -1.6 9.05 -1.5 9.1 -1.55 9.05 -1.1 8.8 0.15 8.5 1.2 8.2 2.2 8.25 2.2 8.25 2.45 Q8.25 3.35 8.0 4.15 7.7 5.3 7.05 6.3 L6.7 6.3 6.75 6.25 1.9 5.25 Q1.2 4.95 0.5 4.55 -0.55 3.9 -1.25 3.25 -1.6 2.85 -1.75 2.55 L-2.3 2.15 Q-2.55 1.8 -2.8 1.4 L-2.85 1.25 Q-3.45 0.2 -3.65 -0.9 -3.7 -1.3 -3.75 -1.75 L-3.75 -2.35 Q-3.75 -4.65 -2.35 -6.25 -2.0 -6.7 -1.7 -6.9 1.25 -9.25 4.45 -8.8 7.8 -8.3 8.75 -4.85 L8.9 -4.55" fill="#c7a36d" fill-rule="evenodd" stroke="none"/>
    <path d="M9.2 -1.6 L9.2 -1.7 Q9.25 -2.1 9.25 -2.55 L9.2 -2.9 9.2 -3.05 9.15 -3.1 9.15 -3.15 9.2 -3.15 9.15 -3.35 Q9.1 -4.1 9.0 -4.25 L8.9 -4.55 9.55 -4.7 9.65 -4.8 9.65 -4.65 9.9 -4.15 9.85 -4.15 Q9.9 -4.0 9.95 -3.15 10.05 -2.75 10.0 -2.35 9.85 -2.1 9.8 -1.65 9.65 -1.0 9.65 -0.45 L9.5 -0.05 Q9.1 1.0 8.85 2.15 8.8 3.2 8.5 4.15 8.3 4.9 7.9 5.65 L7.7 6.1 7.05 6.3 Q7.7 5.3 8.0 4.15 8.25 3.35 8.25 2.45 L8.25 2.2 8.55 1.25 8.5 1.2 8.8 0.15 9.05 -1.1 9.1 -1.55 9.15 -1.55 9.2 -1.6" fill="#1a1a1a" fill-rule="evenodd" stroke="none"/>
    <path d="M8.25 2.2 L8.2 2.2 8.5 1.2 8.55 1.25 8.25 2.2" fill="#a9854f" fill-rule="evenodd" stroke="none"/>
    <path d="M2.75 6.3 L2.65 6.25 2.65 6.15 2.75 6.25 2.75 6.3 M-1.35 -0.15 L-1.15 -0.1 -1.45 -0.15 -1.35 -0.15 M-2.2 -0.35 L-2.3 -0.3 -2.45 -0.45 -2.2 -0.35 M8.55 -0.7 L8.65 -0.8 8.7 -0.7 8.7 -0.6 8.55 -0.7 M2.65 0.95 L2.6 0.9 2.7 0.9 2.65 0.9 2.65 0.95 M2.5 1.0 L2.4 1.0 2.5 1.0" fill="#a69375" fill-rule="evenodd" stroke="none"/>
    <path d="M4.55 6.65 L4.45 6.65 4.3 6.7 4.45 6.65 4.65 6.6 4.65 6.65 4.55 6.65 M3.4 6.6 L3.3 6.6 3.15 6.5 3.05 6.35 3.15 6.5 3.25 6.5 3.4 6.6 M2.8 6.3 L2.75 6.3 2.75 6.25 2.8 6.3 M4.6 4.85 L4.6 4.85" fill="#8c7c63" fill-rule="evenodd" stroke="none"/>
    <path d="M4.8 5.9 L4.8 5.85 4.75 5.8 Q4.9 5.9 5.05 5.9 L5.05 5.95 4.8 5.9 M-2.25 0.25 L-2.25 0.2 -2.25 0.25 M8.7 -0.7 L8.65 -0.8 8.8 -1.05 8.7 -0.7 M8.45 0.8 L8.4 0.75 8.45 0.75 8.45 0.8 M6.05 3.0 Q6.05 3.1 5.95 3.1 L5.9 2.95 6.05 3.0 M-1.05 2.75 L-1.05 2.75" fill="#736551" fill-rule="evenodd" stroke="none"/>
    <path d="M2.65 1.45 Q2.3 1.85 1.8 2.2 L1.35 2.4 1.25 2.35 1.3 2.3 0.75 2.4 Q0.05 2.1 -0.6 1.6 -1.3 1.1 -1.75 0.45 L-1.55 0.6 -1.4 0.65 Q-0.3 1.05 0.8 1.05 L0.8 1.3 Q0.8 1.4 0.9 1.45 0.8 1.8 1.6 1.8 L1.75 1.8 Q1.9 1.55 2.0 1.35 2.05 1.15 2.0 1.0 L2.4 1.0 2.5 1.0 2.65 0.95 2.65 0.9 2.7 0.9 2.8 1.0 2.8 1.05 Q2.7 1.25 2.7 1.4 L2.65 1.45 M5.7 2.8 L5.5 2.75 5.4 2.7 5.35 2.6 5.4 2.25 5.4 2.2 5.5 2.25 5.45 2.1 5.45 2.05 5.4 1.85 5.4 1.8 5.35 1.5 5.35 1.2 5.5 1.3 5.5 1.1 6.15 1.1 6.1 1.15 Q6.05 1.3 6.05 1.5 6.25 1.75 6.6 1.7 7.0 1.6 7.15 1.25 7.15 1.1 7.05 1.0 L7.4 0.95 Q7.25 1.1 7.2 1.3 6.95 2.7 5.6 2.65 L5.75 2.8 5.7 2.8" fill="#ffffff" fill-rule="evenodd" stroke="none"/>
    <path d="M9.2 -2.65 L9.25 -2.55 Q9.25 -2.1 9.2 -1.7 L9.2 -1.6 9.15 -1.55 9.1 -1.55 9.05 -1.1 8.8 0.15 8.5 1.2 8.55 1.25 8.25 2.2 8.2 1.55 8.2 1.4 8.35 1.2 8.4 1.15 8.45 0.8 8.45 0.75 8.4 0.75 8.0 0.85 7.9 0.8 Q7.75 0.85 7.6 0.9 7.6 1.45 7.3 1.95 7.05 2.4 6.75 2.8 L6.4 2.9 Q6.25 3.0 6.05 3.0 L5.9 2.95 5.7 2.85 5.55 2.8 5.7 2.8 5.75 2.8 5.6 2.65 Q6.95 2.7 7.2 1.3 7.25 1.1 7.4 0.95 L7.05 1.0 Q7.15 1.1 7.15 1.25 7.0 1.6 6.6 1.7 6.25 1.75 6.05 1.5 6.05 1.3 6.1 1.15 L6.15 1.1 5.5 1.1 5.5 1.3 5.35 1.2 5.1 1.0 5.05 0.95 Q5.0 0.6 5.1 0.2 5.25 -0.25 5.7 -0.35 5.95 -0.7 6.4 -0.9 7.7 -1.6 9.1 -2.05 L9.15 -2.05 Q9.2 -2.35 9.2 -2.65 M8.25 2.85 Q8.2 3.5 8.0 4.15 7.7 5.3 7.05 6.3 8.05 4.6 8.25 2.85 M4.3 6.7 L4.05 6.6 3.4 6.6 3.25 6.5 3.15 6.5 3.05 6.35 2.8 6.3 2.75 6.25 2.65 6.15 2.6 6.05 Q2.6 5.9 2.65 5.8 2.65 5.75 2.7 5.75 L3.9 5.9 4.8 5.95 4.8 5.9 5.05 5.95 5.1 5.95 Q5.2 5.95 5.25 6.0 5.15 6.2 5.0 6.3 L4.95 6.35 4.95 6.5 4.9 6.4 4.65 6.6 4.45 6.65 4.3 6.7 M-3.05 -1.3 L-3.35 -1.6 -3.45 -1.75 -3.5 -1.75 Q-3.6 -1.75 -3.5 -1.8 L-3.45 -1.8 -3.35 -1.85 -3.2 -1.75 Q-1.15 -1.55 0.65 -0.65 1.95 0.0 3.4 0.25 3.45 0.4 3.45 0.55 L3.45 0.75 3.3 1.15 3.2 1.65 3.1 1.8 Q2.85 1.85 2.7 1.6 L2.65 1.45 2.7 1.4 Q2.7 1.25 2.8 1.05 L2.8 1.0 2.7 0.9 2.6 0.9 2.65 0.95 2.5 1.0 2.4 1.0 2.0 1.0 Q2.05 1.15 2.0 1.35 1.9 1.55 1.75 1.8 L1.6 1.8 Q0.8 1.8 0.9 1.45 0.8 1.4 0.8 1.3 L0.8 1.05 Q-0.3 1.05 -1.4 0.65 L-1.55 0.6 -1.75 0.45 Q-1.3 1.1 -0.6 1.6 0.05 2.1 0.75 2.4 L0.8 2.4 Q0.25 2.4 -0.2 2.25 -1.2 2.05 -1.9 1.0 -2.2 0.6 -2.25 0.3 L-2.25 0.25 -2.25 0.2 -2.35 0.15 -2.45 0.0 -2.45 -0.15 -2.3 -0.3 -2.2 -0.35 -2.15 -0.35 -2.15 -0.4 -1.45 -0.15 -1.15 -0.1 -1.35 -0.15 Q-1.9 -0.4 -2.45 -0.8 -2.75 -1.0 -3.05 -1.3 M8.65 -0.8 L8.55 -0.7 Q8.05 -0.1 7.05 0.35 L7.15 0.3 8.25 0.3 8.5 0.35 Q8.55 -0.1 8.7 -0.6 L8.7 -0.7 8.8 -1.05 8.65 -0.8 M10.0 -2.95 L10.0 -2.9 9.95 -3.15 Q9.9 -4.0 9.85 -4.15 10.05 -3.65 10.0 -2.95 M8.5 4.15 L8.65 3.75 Q8.5 4.65 8.05 5.45 L7.7 6.1 7.9 5.65 Q8.3 4.9 8.5 4.15" fill="#1a1a1a" fill-rule="evenodd" stroke="none"/>
    <path d="M2.6 6.05 L2.55 6.0 Q2.2 5.9 2.0 5.65 L1.9 5.2 1.5 4.85 1.3 4.75 Q1.25 4.45 1.0 4.3 L-0.1 3.65 -0.25 3.4 -0.75 3.35 -1.0 3.1 Q-2.15 2.35 -2.8 1.15 L-2.85 1.0 Q-3.45 -0.2 -3.65 -1.4 -3.75 -2.0 -3.75 -2.65 L-3.6 -2.7 Q-3.35 -2.8 -3.35 -3.0 L-3.2 -3.1 -3.1 -3.25 -3.0 -3.35 Q-2.85 -3.4 -2.9 -3.6 L-2.35 -3.95 -2.2 -4.85 -1.95 -6.65 Q1.1 -9.25 4.45 -8.8 7.8 -8.3 8.75 -4.85 L8.9 -4.55 9.0 -4.25 Q9.1 -4.05 9.15 -3.35 L9.2 -3.15 9.15 -3.15 9.15 -3.1 9.2 -3.05 9.2 -2.65 Q9.2 -2.35 9.15 -2.05 L9.1 -2.05 Q7.7 -1.6 6.4 -0.9 5.95 -0.7 5.7 -0.35 5.25 -0.25 5.1 0.2 5.0 0.6 5.05 0.95 L5.1 1.0 Q4.75 1.55 4.55 2.25 L4.6 2.75 Q4.85 3.35 5.05 4.05 L5.1 4.35 5.35 4.05 5.35 3.35 Q5.3 3.05 5.5 2.8 L5.5 2.75 5.7 2.8 5.55 2.8 5.7 2.85 5.9 2.95 5.95 3.1 Q6.05 3.1 6.05 3.0 6.25 3.0 6.4 2.9 L6.75 2.8 Q7.05 2.4 7.3 1.95 7.6 1.45 7.6 0.9 7.75 0.85 7.9 0.8 L8.0 0.85 8.4 0.75 8.45 0.8 8.4 1.15 8.35 1.2 8.2 1.4 8.2 1.55 8.25 2.2 8.25 2.85 Q8.05 4.6 7.05 6.3 5.95 6.35 4.55 6.65 L4.65 6.65 4.65 6.6 4.9 6.4 4.95 6.5 4.95 6.35 5.0 6.3 Q5.15 6.2 5.25 6.0 5.2 5.95 5.1 5.95 L5.05 5.95 5.05 5.9 Q4.9 5.9 4.75 5.8 L4.8 5.85 4.8 5.9 4.8 5.95 3.9 5.9 2.7 5.75 Q2.65 5.75 2.65 5.8 2.6 5.9 2.6 6.05 M2.65 1.45 L2.7 1.6 Q2.85 1.85 3.1 1.8 L3.2 1.65 3.3 1.15 3.45 0.75 3.45 0.55 Q3.45 0.4 3.4 0.25 1.95 0.0 0.65 -0.65 -1.15 -1.55 -3.2 -1.75 L-3.35 -1.85 -3.45 -1.8 -3.5 -1.8 Q-3.6 -1.75 -3.5 -1.75 L-3.45 -1.75 -3.35 -1.6 -3.05 -1.3 Q-3.1 -1.2 -3.05 -1.1 L-2.9 -0.6 -2.55 0.0 -2.45 0.0 -2.35 0.15 -2.25 0.2 -2.25 0.25 -2.25 0.3 Q-2.2 0.6 -1.9 1.0 -1.2 2.05 -0.2 2.25 0.25 2.4 0.8 2.4 L0.75 2.4 1.3 2.3 1.25 2.35 1.35 2.4 1.8 2.2 Q2.3 1.85 2.65 1.45 M4.6 4.85 L4.6 4.85 M-1.05 2.75 L-1.05 2.75" fill="#c7a36d" fill-rule="evenodd" stroke="none"/>
    <path d="M-2.45 0.0 L-2.55 0.0 -2.9 -0.6 -3.05 -1.1 Q-3.1 -1.2 -3.05 -1.3 -2.75 -1.0 -2.45 -0.8 -1.9 -0.4 -1.35 -0.15 L-1.45 -0.15 -2.15 -0.4 -2.15 -0.35 -2.2 -0.35 -2.45 -0.45 -2.3 -0.3 -2.45 -0.15 -2.45 0.0 M8.55 -0.7 L8.7 -0.6 Q8.55 -0.1 8.5 0.35 L8.25 0.3 7.15 0.3 7.05 0.35 Q8.05 -0.1 8.55 -0.7 M5.5 2.75 L5.5 2.8 Q5.3 3.05 5.35 3.35 L5.35 4.05 5.1 4.35 5.05 4.05 Q4.85 3.35 4.6 2.75 L4.55 2.25 Q4.75 1.55 5.1 1.0 L5.35 1.2 5.35 1.5 5.4 1.8 5.4 1.85 5.45 2.05 5.45 2.1 5.5 2.25 5.4 2.2 5.4 2.25 5.35 2.6 5.4 2.7 5.5 2.75" fill="#a9854f" fill-rule="evenodd" stroke="none"/>
  </g>
</svg>
