<?xml version="1.0" encoding="UTF-8" standalone="no"?>
<svg xmlns:ffdec="https://www.free-decompiler.com/flash" xmlns:xlink="http://www.w3.org/1999/xlink" ffdec:objectType="shape" height="15.35px" width="11.2px" xmlns="http://www.w3.org/2000/svg">
  <g transform="matrix(1.0, 0.0, 0.0, 1.0, 6.05, 9.7)">
    <path d="M0.85 -9.6 L0.85 -9.4 Q2.45 -8.2 3.35 -6.6 L3.5 -6.2 3.55 -6.15 3.55 -6.05 3.6 -6.0 3.55 -6.0 3.95 -4.4 4.05 -2.75 4.1 -2.15 4.2 -1.6 4.2 -1.65 4.3 -1.65 Q4.55 -1.65 4.6 -0.75 L4.45 2.35 4.35 2.55 Q4.05 3.6 3.95 4.15 L3.85 4.35 Q3.6 4.95 3.6 5.2 3.45 5.2 3.4 5.1 2.2 4.55 0.75 4.6 -0.3 4.6 -1.3 4.3 -2.8 3.75 -3.8 2.55 -5.0 0.0 -5.55 -2.7 L-5.5 -2.75 Q-5.55 -3.0 -5.5 -3.35 L-5.0 -6.7 Q-4.75 -7.95 -4.35 -9.05 L-4.05 -9.35 -4.05 -9.4 Q-2.2 -9.8 -0.3 -9.65 L0.6 -9.65 Q0.75 -9.65 0.85 -9.6 M-0.05 -9.05 L-0.05 -9.05" fill="#c7a36d" fill-rule="evenodd" stroke="none"/>
    <path d="M3.6 -6.0 L3.8 -6.0 Q3.9 -5.9 4.1 -5.9 L4.25 -5.55 4.2 -5.2 4.35 -4.9 Q4.4 -4.7 4.5 -4.0 4.5 -3.7 4.55 -3.1 L4.55 -2.65 4.6 -2.25 4.6 -2.2 4.65 -2.05 4.85 -1.3 5.05 -0.6 5.15 0.0 5.1 0.45 5.1 0.6 4.95 1.9 4.55 3.75 4.35 4.3 4.35 4.4 4.3 4.55 4.25 4.75 4.15 4.95 4.1 5.0 4.1 5.05 4.05 5.15 4.0 5.2 3.8 5.65 Q3.65 5.55 3.6 5.5 L3.6 5.2 Q3.6 4.95 3.85 4.35 L3.95 4.15 Q4.0 3.85 4.1 3.45 L4.2 2.9 4.45 1.5 4.5 0.75 4.5 0.65 4.4 0.45 4.45 -0.05 4.45 -0.3 4.4 -0.8 Q4.25 -1.25 4.1 -2.05 L3.95 -2.8 3.95 -3.2 Q3.95 -3.95 3.8 -4.7 3.75 -5.25 3.65 -5.6 L3.55 -6.0 3.6 -6.0" fill="#111111" fill-rule="evenodd" stroke="none"/>
    <path d="M2.45 -1.3 L2.5 -1.3 2.45 -1.25 2.5 -1.1 Q2.6 -0.9 2.95 -0.85 3.3 -0.8 3.3 -1.05 L3.35 -1.15 Q3.4 -1.25 3.4 -1.35 3.35 -1.45 3.3 -1.55 L3.3 -1.6 3.5 -1.6 3.75 -1.65 Q3.75 -1.0 3.7 -0.8 L3.5 -0.55 Q3.3 -0.4 2.9 -0.35 L2.35 -0.4 2.05 -0.45 2.05 -0.55 2.0 -0.7 2.15 -0.95 Q2.3 -1.2 2.45 -1.3 M-4.4 -0.2 L-4.4 -0.35 Q-4.25 -0.4 -4.1 -0.45 -3.6 -0.7 -3.0 -0.75 L-3.05 -0.65 Q-3.05 -0.5 -3.0 -0.4 -2.9 -0.15 -2.6 -0.1 -2.5 0.05 -2.25 0.0 -2.1 -0.05 -2.05 -0.1 L-2.0 -0.15 Q-1.9 -0.2 -1.85 -0.35 L-1.85 -0.5 Q-1.9 -0.55 -1.95 -0.6 L-1.45 -0.4 -1.0 0.05 Q-1.1 0.2 -1.5 0.35 L-2.05 0.6 Q-2.95 0.75 -3.7 0.45 -4.4 0.15 -4.4 -0.2" fill="#ffffff" fill-rule="evenodd" stroke="none"/>
    <path d="M2.4 4.2 L2.25 4.5 Q2.0 4.95 1.5 4.9 0.9 4.8 0.6 4.45 L0.5 4.4 0.5 4.35 0.6 4.4 0.7 4.4 Q0.85 4.45 1.15 4.15 L1.5 3.75 1.45 3.7 Q1.35 3.7 1.05 3.85 L0.75 4.0 Q0.6 4.0 0.5 3.9 L0.65 3.75 Q1.0 3.55 1.4 3.65 L2.2 3.3 2.4 3.25 2.4 3.45 Q2.4 3.55 2.05 4.15 L1.9 4.4 2.0 4.4 Q2.15 4.45 2.4 4.2 M1.85 0.9 L1.8 0.8 1.85 0.8 1.85 0.9" fill="#a9854f" fill-rule="evenodd" stroke="none"/>
    <path d="M2.35 -3.4 L2.35 -3.55 Q2.45 -4.05 2.95 -4.0 3.5 -3.95 3.45 -3.35 3.4 -3.2 3.35 -3.15 3.25 -3.1 3.05 -3.1 L2.65 -3.2 Q2.4 -3.25 2.35 -3.4 M1.85 0.8 L1.75 0.55 Q1.5 0.05 1.4 -0.85 L1.35 -1.2 1.6 -2.1 1.8 -2.7 Q1.85 -1.9 1.8 -1.5 L1.8 -1.4 1.85 -1.4 1.9 -1.6 1.9 -1.05 2.0 -1.25 2.5 -1.65 2.75 -1.9 3.15 -2.05 3.25 -2.05 3.5 -2.1 3.55 -2.05 3.7 -2.1 3.7 -2.15 3.65 -2.35 3.65 -2.55 3.7 -2.5 Q4.35 -2.5 4.4 -2.8 4.4 -2.9 4.4 -2.8 L4.45 -2.8 4.55 -2.5 Q4.55 -2.35 4.4 -2.25 4.3 -2.15 4.2 -2.15 L4.2 -2.1 Q4.3 -2.0 4.35 -2.0 4.5 -2.0 4.65 -2.15 L4.8 -2.4 Q4.9 -2.3 4.85 -2.2 4.85 -2.05 4.75 -1.95 4.7 -1.8 4.65 -1.65 4.65 -1.55 4.55 -1.4 4.4 -1.2 4.2 -1.2 L4.05 -1.4 4.05 -1.05 Q4.1 -0.85 3.95 -0.55 3.85 -0.35 3.7 -0.25 3.6 -0.15 3.5 -0.15 L3.45 -0.15 Q3.25 0.05 2.9 0.15 2.5 0.2 2.15 0.05 L2.2 0.1 2.3 0.4 2.35 0.65 2.45 1.3 2.45 1.45 2.5 1.55 2.55 1.85 2.65 2.35 2.7 2.85 2.9 3.25 Q2.65 3.8 2.45 4.1 L2.4 4.2 Q2.15 4.45 2.0 4.4 L1.9 4.4 2.05 4.15 Q2.4 3.55 2.4 3.45 L2.4 3.25 Q2.35 3.0 2.2 2.5 L2.15 2.35 2.15 2.2 2.05 1.55 2.0 1.4 1.85 0.9 1.85 0.8 M0.5 4.4 Q0.3 4.3 0.2 4.1 0.05 3.85 0.1 3.7 0.1 3.65 0.2 3.45 L0.3 3.25 Q0.3 3.7 0.5 3.9 0.6 4.0 0.75 4.0 L1.05 3.85 Q1.35 3.7 1.45 3.7 L1.5 3.75 1.15 4.15 Q0.85 4.45 0.7 4.4 L0.6 4.4 0.5 4.35 0.5 4.4 M2.45 -1.3 Q2.3 -1.2 2.15 -0.95 L2.0 -0.7 2.05 -0.55 2.05 -0.45 2.35 -0.4 2.9 -0.35 Q3.3 -0.4 3.5 -0.55 L3.7 -0.8 Q3.75 -1.0 3.75 -1.65 L3.5 -1.6 3.3 -1.6 3.3 -1.55 Q3.35 -1.45 3.4 -1.35 3.4 -1.25 3.35 -1.15 L3.3 -1.05 Q3.3 -0.8 2.95 -0.85 2.6 -0.9 2.5 -1.1 L2.45 -1.25 2.5 -1.3 2.45 -1.3 M2.75 -1.3 L2.75 -1.2 Q2.8 -1.1 3.0 -1.1 3.05 -1.1 3.1 -1.15 L3.15 -1.3 Q3.2 -1.5 2.95 -1.5 2.75 -1.45 2.75 -1.3 M-5.05 -0.6 L-5.2 -0.6 -6.05 -0.9 Q-5.95 -1.0 -5.85 -0.95 L-5.75 -0.9 Q-5.5 -0.9 -5.0 -1.05 L-4.85 -1.05 -3.05 -1.15 Q-1.7 -1.0 -0.95 -0.45 L-0.9 -0.4 Q-0.7 -0.15 -0.7 0.05 -0.65 0.2 -0.7 0.25 -0.8 0.3 -1.0 0.35 L-1.2 0.55 -1.3 0.6 Q-1.7 0.9 -2.4 1.05 -3.3 1.2 -3.75 0.8 L-3.95 0.6 -3.95 0.55 -4.25 0.25 -4.3 0.25 -4.85 0.35 -5.0 0.35 -5.05 0.45 -5.1 0.4 -5.3 0.45 Q-5.65 0.4 -5.9 0.0 L-5.9 -0.05 Q-5.45 -0.1 -5.05 -0.3 -4.85 -0.45 -4.65 -0.65 L-4.75 -0.65 -5.05 -0.6 M-4.1 -2.6 L-4.1 -2.75 Q-4.0 -3.45 -3.25 -3.5 -2.95 -3.5 -2.75 -3.35 -2.55 -3.15 -2.6 -2.9 -2.6 -2.75 -3.15 -2.55 -3.65 -2.35 -3.9 -2.4 -4.1 -2.4 -4.1 -2.6 M-4.4 -0.2 Q-4.4 0.15 -3.7 0.45 -2.95 0.75 -2.05 0.6 L-1.5 0.35 Q-1.1 0.2 -1.0 0.05 L-1.45 -0.4 -1.95 -0.6 Q-1.9 -0.55 -1.85 -0.5 L-1.85 -0.35 Q-1.9 -0.2 -2.0 -0.15 L-2.05 -0.1 Q-2.1 -0.05 -2.25 0.0 -2.5 0.05 -2.6 -0.1 -2.9 -0.15 -3.0 -0.4 -3.05 -0.5 -3.05 -0.65 L-3.0 -0.75 Q-3.6 -0.7 -4.1 -0.45 -4.25 -0.4 -4.4 -0.35 L-4.4 -0.2 M-2.45 -0.7 Q-2.7 -0.75 -2.7 -0.55 -2.75 -0.3 -2.45 -0.25 -2.25 -0.25 -2.25 -0.45 -2.2 -0.6 -2.45 -0.7" fill="#1a1a1a" fill-rule="evenodd" stroke="none"/>
    <path d="M1.85 -1.4 L1.85 -1.7 Q1.95 -2.55 2.8 -2.85 3.15 -2.95 3.4 -2.85 3.55 -2.75 3.6 -2.55 L3.65 -2.55 3.65 -2.35 3.7 -2.15 3.7 -2.1 3.55 -2.05 3.5 -2.1 3.25 -2.05 3.15 -2.05 2.75 -1.9 2.5 -1.65 2.0 -1.25 1.9 -1.05 1.9 -1.6 1.85 -1.4 M2.75 -1.3 Q2.75 -1.45 2.95 -1.5 3.2 -1.5 3.15 -1.3 L3.1 -1.15 Q3.05 -1.1 3.0 -1.1 2.8 -1.1 2.75 -1.2 L2.75 -1.3 M-5.0 -1.05 L-5.05 -1.1 -4.8 -1.25 Q-4.6 -1.5 -4.3 -1.65 L-4.0 -1.8 Q-3.75 -1.9 -3.5 -2.0 -2.4 -2.45 -1.65 -1.75 -1.2 -1.35 -0.55 -0.6 L-0.55 -0.55 Q-0.15 -0.25 -0.15 0.0 L-0.05 0.25 0.1 0.45 -0.25 0.35 -0.35 0.4 Q-0.4 0.35 -0.5 0.35 L-0.9 0.35 -0.9 0.4 Q-1.1 0.45 -1.2 0.55 L-1.0 0.35 Q-0.8 0.3 -0.7 0.25 -0.65 0.2 -0.7 0.05 -0.7 -0.15 -0.9 -0.4 L-0.95 -0.45 Q-1.7 -1.0 -3.05 -1.15 L-4.85 -1.05 -5.0 -1.05 M-5.05 -0.3 L-5.1 -0.35 -5.05 -0.6 -4.75 -0.65 -4.65 -0.65 Q-4.85 -0.45 -5.05 -0.3 M-2.45 -0.7 Q-2.2 -0.6 -2.25 -0.45 -2.25 -0.25 -2.45 -0.25 -2.75 -0.3 -2.7 -0.55 -2.7 -0.75 -2.45 -0.7" fill="#9966ff" fill-rule="evenodd" stroke="none"/>
  </g>
</svg>
