<?xml version="1.0" encoding="UTF-8" standalone="no"?>
<svg xmlns:ffdec="https://www.free-decompiler.com/flash" xmlns:xlink="http://www.w3.org/1999/xlink" ffdec:objectType="shape" height="15.35px" width="10.6px" xmlns="http://www.w3.org/2000/svg">
  <g transform="matrix(1.0, 0.0, 0.0, 1.0, 5.55, 9.7)">
    <path d="M0.85 -9.4 Q2.45 -8.2 3.35 -6.6 L3.5 -6.2 3.55 -6.15 3.55 -6.05 3.6 -6.0 3.55 -6.0 Q3.7 -5.55 3.6 -5.05 L3.6 -4.95 4.3 -0.9 4.45 0.5 4.45 0.55 4.55 0.85 4.6 0.95 4.65 1.15 Q4.65 1.4 4.45 2.35 L4.35 2.55 Q4.05 3.6 3.95 4.15 L3.85 4.35 Q3.6 4.95 3.6 5.2 3.45 5.2 3.4 5.1 2.2 4.55 0.75 4.6 -0.3 4.6 -1.3 4.3 -2.8 3.75 -3.8 2.55 -5.0 0.0 -5.55 -2.7 L-5.5 -2.75 Q-5.55 -3.0 -5.5 -3.35 L-5.0 -6.7 Q-4.75 -7.95 -4.35 -9.05 L-4.05 -9.35 -4.05 -9.4 Q-2.2 -9.8 -0.3 -9.65 L0.6 -9.65 Q0.75 -9.65 0.85 -9.6 L0.85 -9.4 M0.75 3.85 L0.8 3.8 0.75 3.8 0.75 3.85 M-0.05 -9.05 L-0.05 -9.05" fill="#c7a36d" fill-rule="evenodd" stroke="none"/>
    <path d="M-4.95 -8.65 L-5.0 -8.65 -4.95 -8.7 -4.9 -8.7 -4.95 -8.65" fill="#c7a36d" fill-rule="evenodd" stroke="none"/>
    <path d="M3.65 -1.25 Q3.35 -0.8 2.75 -0.75 L2.55 -0.75 Q2.6 -0.9 2.7 -1.0 L2.8 -1.05 Q2.75 -1.05 2.75 -1.1 L3.0 -1.35 3.0 -1.25 3.2 -1.05 Q3.35 -1.1 3.45 -1.15 3.55 -1.2 3.65 -1.3 L3.7 -1.5 3.7 -1.35 3.65 -1.35 3.65 -1.25 M-1.35 0.0 Q-1.4 0.1 -1.6 0.25 -1.9 0.5 -2.2 0.5 L-2.5 0.5 -2.55 0.55 -2.9 0.55 -2.9 0.5 Q-3.0 0.45 -3.05 0.4 -3.15 0.4 -3.25 0.35 L-3.5 0.2 Q-3.55 0.15 -3.65 0.1 L-3.95 -0.05 -3.7 -0.25 Q-3.2 -0.55 -2.75 -0.6 L-2.5 -0.6 -2.5 -0.45 Q-2.5 -0.3 -2.45 -0.15 -2.35 0.0 -2.25 0.05 L-2.0 0.25 -1.65 0.2 Q-1.45 0.15 -1.35 0.0 M3.7 -2.15 L3.7 -1.75 3.65 -1.9 3.65 -2.0 3.6 -2.05 3.7 -2.15 M-1.3 -0.1 L-1.3 -0.15 -1.25 -0.1 -1.3 -0.1" fill="#ffffff" fill-rule="evenodd" stroke="none"/>
    <path d="M3.75 -4.15 L3.9 -3.0 Q3.85 -2.85 3.7 -2.7 3.25 -2.75 2.9 -2.35 2.65 -2.15 2.55 -1.8 2.2 -1.2 2.2 -0.65 2.1 -0.7 2.1 -1.0 L2.1 -1.4 Q2.1 -1.65 2.15 -1.95 L2.25 -1.95 Q2.45 -2.05 2.65 -2.55 2.9 -3.2 3.05 -3.4 3.35 -3.75 3.75 -4.15 M3.9 -2.0 L4.05 -1.5 3.95 -1.25 Q3.9 -1.0 3.7 -1.0 L3.6 -1.0 3.6 -1.05 Q3.85 -1.15 3.9 -1.4 3.9 -1.5 3.9 -1.8 L3.9 -2.0 M0.15 -1.4 Q0.45 -1.35 0.45 -0.6 L0.4 -0.3 Q0.35 -0.15 0.1 -0.1 L-0.25 -0.05 -0.25 -0.15 -0.3 -0.2 -0.4 -0.25 Q-0.5 -0.35 -0.7 -0.45 L-0.8 -0.5 -1.25 -1.0 Q-1.75 -1.45 -2.3 -1.5 -2.75 -1.65 -3.5 -1.25 -4.05 -1.15 -4.2 -0.8 L-4.9 -0.3 -4.95 -0.3 -5.0 -0.25 Q-5.15 -0.45 -5.25 -1.05 -5.35 -1.55 -5.4 -2.05 -5.4 -2.6 -5.35 -2.65 L-5.3 -2.6 Q-3.75 -2.85 -2.85 -2.7 -2.25 -2.55 -1.85 -2.2 L-1.25 -1.45 Q-0.85 -0.9 -0.45 -0.95 -0.4 -0.95 -0.3 -1.0 L-0.25 -1.05 -0.05 -1.15 Q0.1 -1.3 0.15 -1.4 M-2.55 0.55 Q-2.65 0.8 -3.3 0.9 -4.2 1.0 -4.55 0.6 -4.75 0.4 -4.8 0.1 L-4.65 0.15 -4.6 0.1 -4.45 0.1 -4.4 0.15 -4.4 0.1 -4.35 0.1 -4.35 0.15 -4.3 0.25 Q-4.1 0.4 -3.95 0.45 L-3.85 0.5 -3.5 0.65 -3.45 0.6 -3.5 0.6 Q-3.4 0.65 -3.25 0.65 L-3.15 0.6 -3.0 0.6 -2.9 0.55 -2.55 0.55 M1.25 3.85 L1.3 3.85 Q2.45 3.85 2.75 3.7 2.85 3.65 2.85 3.55 L2.9 3.55 3.05 3.25 3.2 3.05 3.2 3.15 Q3.2 3.3 2.9 3.75 2.55 4.2 2.35 4.2 1.9 4.2 1.6 4.1 1.35 4.0 1.25 3.85" fill="#a9854f" fill-rule="evenodd" stroke="none"/>
    <path d="M3.7 -2.7 L4.0 -2.65 3.9 -2.0 3.9 -1.8 Q3.9 -1.5 3.9 -1.4 3.85 -1.15 3.6 -1.05 L3.5 -1.0 3.65 -1.25 3.65 -1.35 3.7 -1.35 3.7 -1.5 3.65 -1.3 Q3.55 -1.2 3.45 -1.15 3.35 -1.1 3.2 -1.05 L3.0 -1.25 3.0 -1.35 2.75 -1.1 2.7 -1.0 Q2.6 -0.9 2.55 -0.75 L2.4 -0.5 2.2 -0.5 2.2 -0.65 Q2.2 -1.2 2.55 -1.8 L2.65 -2.0 Q2.75 -2.2 2.9 -2.35 3.25 -2.75 3.7 -2.7 M2.15 -1.95 Q1.95 -1.9 1.9 -2.05 1.85 -2.1 1.85 -2.2 1.85 -2.35 1.9 -2.35 2.0 -2.95 2.6 -4.0 3.45 -5.45 4.25 -5.15 L4.3 -5.15 4.3 -4.95 Q4.3 -4.55 4.0 -4.3 L3.75 -4.15 Q3.35 -3.75 3.05 -3.4 2.9 -3.2 2.65 -2.55 2.45 -2.05 2.25 -1.95 L2.15 -1.95 M-0.25 -0.05 L-0.25 0.0 Q-0.3 0.0 -0.4 0.05 L-0.65 0.05 -0.7 0.1 Q-1.0 0.05 -1.2 -0.1 L-1.3 -0.1 -1.35 0.0 Q-1.45 0.15 -1.65 0.2 L-2.0 0.25 -2.25 0.05 Q-2.35 0.0 -2.45 -0.15 -2.5 -0.3 -2.5 -0.45 L-2.5 -0.6 -2.75 -0.6 Q-3.2 -0.55 -3.7 -0.25 L-3.95 -0.05 -3.65 0.1 Q-3.55 0.15 -3.5 0.2 L-3.25 0.35 Q-3.15 0.4 -3.05 0.4 -3.0 0.45 -2.9 0.5 L-2.9 0.55 -3.0 0.6 -3.15 0.6 -3.25 0.65 Q-3.4 0.65 -3.5 0.6 L-3.45 0.6 -3.5 0.65 -3.85 0.5 -3.95 0.45 Q-4.1 0.4 -4.3 0.25 L-4.35 0.15 -4.35 0.1 -4.4 0.1 -4.45 0.1 -4.6 0.1 Q-4.9 0.1 -5.05 -0.1 L-5.0 -0.25 -4.95 -0.3 -4.9 -0.3 -4.2 -0.8 Q-4.05 -1.15 -3.5 -1.25 -2.75 -1.65 -2.3 -1.5 -1.75 -1.45 -1.25 -1.0 L-0.8 -0.5 -0.7 -0.45 Q-0.5 -0.35 -0.4 -0.25 L-0.3 -0.2 -0.25 -0.15 -0.25 -0.05 M-5.35 -2.65 L-5.4 -2.85 Q-5.4 -3.35 -4.4 -3.35 -3.4 -3.35 -1.65 -2.85 -1.2 -2.45 -0.45 -1.9 L0.15 -1.45 0.15 -1.4 Q0.1 -1.3 -0.05 -1.15 L-0.25 -1.05 -0.3 -1.0 Q-0.4 -0.95 -0.45 -0.95 -0.85 -0.9 -1.25 -1.45 L-1.85 -2.2 Q-2.25 -2.55 -2.85 -2.7 -3.75 -2.85 -5.3 -2.6 L-5.35 -2.65 M3.7 -2.15 L3.6 -2.05 3.65 -2.0 3.65 -1.9 3.7 -1.75 3.7 -2.15 M3.2 3.05 L3.05 3.25 2.9 3.55 2.85 3.55 Q2.85 3.65 2.75 3.7 2.45 3.85 1.3 3.85 L1.25 3.85 1.25 3.8 1.0 3.75 Q0.95 3.85 0.95 3.7 0.95 3.25 1.8 3.2 L2.4 3.25 2.7 3.3 2.85 3.05 3.1 2.75 3.1 2.7 Q3.1 2.6 3.15 2.55 L3.25 2.55 Q3.35 2.65 3.35 2.85 L3.2 3.05 M3.55 3.8 L3.55 3.85 3.5 3.95 3.55 3.8 M-1.3 -0.1 L-1.25 -0.1 -1.3 -0.15 -1.3 -0.1" fill="#111111" fill-rule="evenodd" stroke="none"/>
    <path d="M4.6 0.9 L4.55 0.85 Q4.5 0.6 4.35 0.3 4.15 -0.1 4.15 -0.55 L4.05 -1.35 Q4.0 -1.5 3.95 -1.65 L4.0 -1.7 3.85 -2.35 Q3.6 -3.35 3.55 -4.35 L3.55 -4.8 3.6 -5.05 Q3.7 -5.55 3.55 -6.0 L3.8 -6.0 Q3.9 -5.9 4.1 -5.9 L4.3 -5.45 4.3 -5.15 4.2 -5.05 4.1 -4.8 Q4.1 -4.4 4.15 -3.9 4.45 -3.0 4.6 -1.95 L4.6 -1.9 Q4.85 -0.95 4.9 0.0 L4.95 0.2 Q5.0 0.3 5.05 0.55 L5.05 0.9 5.05 1.35 Q5.05 2.25 4.8 3.0 L4.35 4.4 4.25 4.65 4.25 4.75 4.2 4.75 4.2 4.85 4.1 5.0 4.1 5.05 4.05 5.15 4.0 5.2 3.8 5.65 Q3.65 5.55 3.6 5.5 L3.6 5.2 Q3.6 4.95 3.85 4.35 L3.95 4.15 Q4.05 3.6 4.35 2.55 L4.45 2.35 Q4.65 1.4 4.65 1.15 L4.6 0.95 4.6 0.9 5.05 0.9 4.6 0.9" fill="#111111" fill-rule="evenodd" stroke="none"/>
  </g>
</svg>
