<?xml version="1.0" encoding="UTF-8" standalone="no"?>
<svg xmlns:ffdec="https://www.free-decompiler.com/flash" xmlns:xlink="http://www.w3.org/1999/xlink" ffdec:objectType="shape" height="23.7px" width="68.4px" xmlns="http://www.w3.org/2000/svg">
  <g transform="matrix(1.0, 0.0, 0.0, 1.0, 34.2, 11.85)">
    <path d="M26.95 -5.9 Q32.1 -3.1 33.65 0.4 35.1 3.7 32.85 6.55 30.55 9.5 25.15 10.9 19.25 12.4 11.05 11.6 1.85 10.7 -8.9 6.9 -21.05 2.7 -34.2 -4.85 -16.3 0.25 -5.0 1.95 4.45 3.35 7.65 2.2 9.05 1.7 8.95 0.8 8.9 -0.1 7.5 -1.1 4.55 -3.4 -1.65 -4.85 L-10.9 -11.75 Q2.15 -12.25 12.3 -10.55 21.25 -9.0 26.95 -5.9" fill="url(#gradient0)" fill-rule="evenodd" stroke="none"/>
  </g>
  <defs>
    <linearGradient gradientTransform="matrix(-0.0146, -0.0157, 0.0106, -0.0098, 0.1, 0.1)" gradientUnits="userSpaceOnUse" id="gradient0" spreadMethod="pad" x1="-819.2" x2="819.2">
      <stop offset="0.0" stop-color="#ffffff" stop-opacity="0.7490196"/>
      <stop offset="1.0" stop-color="#ffffff" stop-opacity="0.0"/>
    </linearGradient>
  </defs>
</svg>
