<?xml version="1.0" encoding="UTF-8" standalone="no"?>
<svg xmlns:ffdec="https://www.free-decompiler.com/flash" xmlns:xlink="http://www.w3.org/1999/xlink" ffdec:objectType="shape" height="18.35px" width="21.6px" xmlns="http://www.w3.org/2000/svg">
  <g transform="matrix(1.0, 0.0, 0.0, 1.0, 11.6, 19.65)">
    <path d="M5.7 -16.65 L5.6 -16.85 Q5.3 -17.35 5.3 -17.65 5.3 -18.0 6.1 -18.7 L6.15 -18.75 Q6.55 -19.2 7.1 -19.45 8.15 -19.95 9.0 -19.25 9.4 -19.1 9.6 -18.85 10.0 -18.5 10.0 -17.95 10.0 -17.55 9.75 -17.4 9.65 -17.35 9.1 -17.1 L8.95 -16.7 8.9 -16.55 Q9.2 -16.45 9.3 -16.15 9.4 -16.0 9.45 -15.85 9.6 -15.85 9.7 -15.65 L9.7 -15.6 Q9.75 -15.55 9.75 -15.4 L9.7 -15.15 Q9.35 -14.8 9.15 -14.5 8.65 -13.6 8.35 -12.35 8.25 -11.95 8.0 -10.05 7.85 -8.9 7.75 -8.35 L7.75 -8.2 7.55 -6.8 Q7.35 -5.5 7.0 -4.55 6.85 -4.15 6.65 -3.8 6.2 -3.25 5.75 -2.55 L5.65 -2.45 5.5 -2.35 5.0 -2.0 Q4.75 -1.85 4.5 -1.75 4.0 -1.5 3.35 -1.35 L3.1 -1.35 2.7 -1.3 Q0.8 -1.3 -0.35 -1.6 L-0.5 -1.65 Q-1.8 -1.95 -2.45 -2.55 -2.75 -2.9 -2.9 -3.3 L-2.95 -3.3 -5.35 -4.05 Q-8.95 -5.1 -11.0 -5.1 L-11.0 -5.35 -10.75 -7.35 Q-10.5 -9.25 -10.4 -9.75 -10.2 -10.4 -9.9 -11.95 -9.75 -12.8 -9.55 -13.35 L-9.6 -13.35 Q-10.75 -14.2 -11.35 -14.5 L-11.45 -14.5 -11.5 -14.55 Q-11.6 -14.65 -11.6 -14.8 L-11.6 -14.85 Q-11.6 -15.1 -11.25 -15.6 -10.9 -16.15 -10.35 -16.55 -8.85 -17.7 -7.15 -17.2 L-7.15 -17.15 Q-6.95 -17.1 -6.85 -17.0 L-6.7 -16.95 Q-6.5 -16.85 -6.35 -16.55 -5.85 -15.55 -5.25 -15.1 -4.95 -14.95 -4.65 -14.55 -4.25 -14.05 -4.05 -13.85 -3.1 -13.0 -0.4 -13.0 0.35 -13.0 2.3 -13.6 3.85 -14.05 4.45 -14.15 L4.65 -14.25 4.9 -14.3 5.1 -14.6 5.4 -14.9 Q5.45 -15.1 5.6 -15.4 5.75 -15.8 5.85 -16.0 L5.75 -16.4 5.7 -16.65 M9.0 -15.35 Q8.95 -15.35 8.9 -15.3 L8.85 -15.35 8.85 -15.4 8.8 -15.45 8.75 -15.55 8.0 -15.6 7.55 -15.6 7.55 -15.55 7.4 -15.55 7.0 -15.4 Q6.65 -15.25 6.35 -15.05 L5.9 -14.65 5.7 -14.4 5.5 -14.25 5.3 -14.05 5.3 -13.95 5.25 -13.95 5.25 -13.85 Q5.25 -13.75 5.3 -13.6 L5.25 -13.55 5.25 -13.35 5.25 -13.3 Q5.25 -13.1 5.7 -11.9 L5.8 -11.5 5.85 -11.45 5.9 -11.25 5.95 -11.1 6.0 -11.1 6.0 -11.0 6.15 -10.55 6.1 -10.5 Q6.05 -8.85 6.0 -8.1 L5.9 -7.45 Q5.75 -6.45 5.55 -5.75 4.85 -4.35 3.55 -3.4 L3.1 -3.35 Q2.45 -3.2 2.1 -3.05 L1.0 -3.1 -0.15 -3.25 -0.55 -3.35 -0.9 -3.5 -1.35 -3.95 -1.4 -4.1 Q-1.6 -4.65 -1.9 -5.2 -2.15 -6.35 -3.3 -7.9 L-3.75 -8.5 -4.0 -8.95 -4.2 -9.25 Q-6.15 -11.9 -6.6 -13.0 L-6.7 -13.0 -6.75 -12.85 -6.85 -13.0 -6.9 -12.75 -6.95 -12.45 -6.95 -12.2 -7.0 -11.8 -7.0 -11.45 -4.8 -8.05 -4.2 -7.15 Q-3.8 -6.65 -3.45 -5.8 L-2.85 -4.3 Q-2.45 -3.4 -2.0 -2.95 L-1.6 -2.55 Q-0.5 -1.9 1.85 -1.9 L2.85 -1.95 3.0 -2.0 3.15 -2.0 Q3.4 -2.0 3.55 -2.1 4.1 -2.2 4.75 -2.6 L4.85 -2.65 5.2 -2.9 Q5.55 -3.2 5.65 -3.4 L6.1 -3.95 Q6.45 -4.45 6.6 -5.15 L6.85 -6.0 6.9 -6.05 7.0 -6.5 7.0 -6.6 Q7.15 -7.3 7.15 -7.65 7.15 -8.2 7.3 -9.1 7.4 -9.75 7.6 -10.55 L7.6 -10.6 8.15 -12.8 Q8.65 -14.6 9.05 -15.35 L9.0 -15.35 M9.35 -18.4 Q9.35 -18.65 9.0 -18.85 8.6 -19.1 7.9 -19.1 7.1 -19.1 6.55 -18.65 L6.45 -18.55 Q5.95 -17.95 5.95 -17.75 L6.15 -16.85 6.25 -16.5 6.45 -16.1 6.45 -16.0 Q6.45 -15.8 6.5 -15.75 L6.5 -15.7 Q6.55 -15.65 6.7 -15.65 7.0 -16.0 7.05 -16.35 L7.15 -16.5 Q7.2 -16.95 7.3 -17.25 7.7 -18.05 8.7 -18.05 L8.75 -18.05 8.95 -18.05 Q7.55 -17.8 7.3 -17.0 L7.3 -16.95 7.35 -16.95 Q7.35 -16.75 7.35 -16.6 L7.4 -16.45 7.4 -16.4 Q7.4 -16.3 7.45 -16.2 L7.55 -16.1 Q7.6 -16.0 7.8 -15.9 L7.9 -15.85 8.1 -15.9 Q8.45 -16.05 8.45 -16.3 8.45 -16.6 8.35 -17.15 L8.55 -17.35 Q9.3 -17.9 9.35 -18.3 9.3 -18.15 9.05 -18.15 L9.2 -18.25 9.35 -18.3 9.35 -18.4 M5.9 -9.85 L5.9 -10.25 Q5.9 -10.9 5.6 -11.75 5.35 -12.55 5.0 -13.15 4.65 -13.75 4.4 -13.7 4.3 -13.7 4.2 -13.5 L3.05 -13.25 3.1 -13.2 Q3.1 -13.05 3.2 -12.65 3.3 -12.25 3.3 -12.15 L3.25 -11.7 Q3.2 -11.4 3.2 -11.2 L3.1 -11.15 Q2.95 -11.0 2.6 -10.9 L2.05 -10.7 2.1 -10.75 1.2 -10.6 1.3 -10.6 1.15 -10.55 0.8 -10.55 -1.2 -10.65 Q-1.75 -10.8 -2.05 -11.1 L-2.7 -12.05 Q-3.2 -12.65 -3.8 -13.3 -4.1 -13.45 -4.35 -13.7 L-5.15 -14.55 Q-5.6 -14.9 -6.2 -14.9 L-6.25 -14.9 -6.25 -14.85 Q-6.25 -14.75 -6.5 -14.25 L-6.65 -13.85 -6.6 -13.9 -6.65 -13.8 -6.65 -13.55 Q-6.65 -13.4 -5.75 -11.85 -4.95 -10.55 -4.15 -9.35 L-4.05 -9.35 Q-3.25 -8.35 -2.65 -7.2 -2.2 -6.35 -1.8 -5.1 -1.3 -4.4 -0.7 -4.0 0.3 -3.35 2.2 -3.35 L3.1 -3.4 Q4.25 -3.95 4.75 -4.9 5.0 -5.55 5.2 -5.9 L5.25 -6.05 5.35 -6.7 5.55 -7.35 Q5.9 -8.65 5.9 -9.45 L5.9 -9.85 M3.05 -13.05 L2.65 -13.1 2.5 -13.1 2.35 -13.05 Q0.15 -12.5 -0.45 -12.5 -1.95 -12.5 -3.0 -12.9 L-2.6 -12.15 Q-1.95 -11.1 0.15 -10.75 1.05 -10.8 2.0 -11.05 L2.9 -11.3 3.05 -11.75 3.15 -12.2 3.1 -12.6 Q3.05 -12.9 3.05 -13.05 M2.85 -11.15 L2.85 -11.15 M-6.8 -14.55 Q-6.7 -15.05 -6.6 -15.4 -6.65 -15.6 -6.75 -15.8 -6.8 -16.25 -7.25 -16.5 -7.65 -16.75 -8.3 -16.7 -8.8 -16.65 -9.15 -16.5 L-9.5 -16.45 Q-10.05 -16.2 -10.5 -15.7 L-10.7 -15.5 -10.8 -15.35 -11.0 -14.95 -11.0 -14.85 Q-11.0 -14.8 -10.95 -14.7 L-10.8 -14.65 Q-10.05 -14.45 -9.3 -13.9 L-9.3 -13.95 Q-9.15 -13.85 -9.1 -13.8 L-9.05 -13.75 Q-8.45 -13.35 -7.8 -12.55 L-7.75 -12.55 -7.65 -12.35 -7.6 -12.3 -7.6 -12.25 Q-7.15 -12.6 -7.0 -12.9 -6.95 -13.0 -6.95 -13.25 L-7.05 -13.25 Q-6.95 -13.5 -6.8 -14.55 M-3.95 -5.85 L-3.95 -5.8 -3.85 -5.8 -3.9 -6.0 -5.0 -7.7 Q-5.35 -8.2 -6.0 -9.35 L-7.0 -11.0 Q-7.2 -11.35 -7.75 -11.85 L-7.8 -11.7 -7.85 -11.65 -8.05 -10.85 -8.05 -10.8 Q-8.4 -9.5 -8.4 -9.25 -8.4 -9.1 -8.55 -8.5 L-8.65 -7.75 Q-8.65 -7.3 -8.25 -7.05 -7.95 -6.85 -7.15 -6.65 L-5.0 -6.05 -4.9 -6.0 -3.95 -5.85 M-4.15 -5.45 L-4.5 -5.6 Q-5.75 -6.15 -6.8 -6.35 -8.4 -6.65 -8.75 -7.0 -8.85 -7.15 -8.9 -7.35 L-8.85 -7.75 Q-8.85 -8.45 -8.55 -10.0 L-8.3 -11.05 -8.25 -11.55 -8.2 -11.7 -8.05 -12.1 -8.05 -12.15 -8.5 -12.55 -9.1 -13.1 -9.35 -12.25 -9.85 -10.75 Q-10.65 -8.25 -10.65 -7.0 L-10.65 -6.95 Q-10.65 -6.0 -10.35 -5.7 -10.1 -5.45 -9.1 -5.3 -7.2 -5.0 -6.25 -4.75 -5.0 -4.5 -3.6 -4.05 L-3.05 -3.85 -3.3 -4.45 -3.65 -5.25 Q-3.85 -5.3 -4.15 -5.45" fill="#111111" fill-rule="evenodd" stroke="none"/>
    <path d="M5.9 -9.85 L5.9 -9.45 Q5.9 -8.65 5.55 -7.35 L5.35 -6.7 5.25 -6.05 5.2 -5.9 Q5.0 -5.55 4.75 -4.9 4.25 -3.95 3.1 -3.4 L2.2 -3.35 Q0.3 -3.35 -0.7 -4.0 -1.3 -4.4 -1.8 -5.1 -2.2 -6.35 -2.65 -7.2 -3.25 -8.35 -4.05 -9.35 L-4.15 -9.35 Q-4.95 -10.55 -5.75 -11.85 -6.65 -13.4 -6.65 -13.55 L-6.65 -13.8 -6.6 -13.9 -6.65 -13.85 -6.5 -14.25 Q-6.25 -14.75 -6.25 -14.85 L-6.25 -14.9 -6.2 -14.9 Q-5.6 -14.9 -5.15 -14.55 L-4.35 -13.7 Q-4.1 -13.45 -3.8 -13.3 -3.2 -12.65 -2.7 -12.05 L-2.05 -11.1 Q-1.75 -10.8 -1.2 -10.65 L0.8 -10.55 1.15 -10.55 1.3 -10.6 1.2 -10.6 2.1 -10.75 2.05 -10.7 2.6 -10.9 Q2.95 -11.0 3.1 -11.15 L3.2 -11.2 Q3.2 -11.4 3.25 -11.7 L3.3 -12.15 Q3.3 -12.25 3.2 -12.65 3.1 -13.05 3.1 -13.2 L3.05 -13.25 4.2 -13.5 Q4.3 -13.7 4.4 -13.7 4.65 -13.75 5.0 -13.15 5.35 -12.55 5.6 -11.75 5.9 -10.9 5.9 -10.25 L5.9 -9.85" fill="#1a1616" fill-rule="evenodd" stroke="none"/>
    <path d="M5.25 -13.35 L5.25 -13.55 5.3 -13.6 Q5.25 -13.75 5.25 -13.85 L5.25 -13.95 5.3 -13.95 5.3 -14.05 5.5 -14.25 5.7 -14.4 5.9 -14.65 6.35 -15.05 Q6.65 -15.25 7.0 -15.4 L7.4 -15.55 7.55 -15.55 7.55 -15.6 8.0 -15.6 8.75 -15.55 8.8 -15.45 8.85 -15.4 8.85 -15.35 8.9 -15.3 Q8.95 -15.35 9.0 -15.35 L7.65 -13.75 Q6.7 -12.7 6.25 -12.7 5.75 -12.7 5.25 -13.35 M-6.9 -12.75 L-6.85 -13.0 -6.75 -12.85 -6.7 -13.0 -6.6 -13.0 Q-6.15 -11.9 -4.2 -9.25 L-4.0 -8.95 -3.75 -8.5 -3.3 -7.9 Q-2.15 -6.35 -1.9 -5.2 -1.6 -4.65 -1.4 -4.1 L-1.35 -3.95 -0.9 -3.5 -0.55 -3.35 -0.15 -3.25 1.0 -3.1 2.1 -3.05 Q2.45 -3.2 3.1 -3.35 L3.55 -3.4 Q4.85 -4.35 5.55 -5.75 5.75 -6.45 5.9 -7.45 L6.0 -8.1 Q6.05 -8.85 6.1 -10.5 L6.15 -10.55 6.0 -11.0 Q6.3 -10.85 6.65 -10.7 6.8 -10.55 6.85 -9.8 L6.9 -8.95 Q6.9 -8.25 6.85 -7.55 L6.7 -7.05 Q6.35 -5.75 5.85 -4.85 4.45 -2.5 1.6 -2.5 L0.0 -2.6 Q-0.65 -2.75 -1.15 -3.25 -2.0 -4.05 -3.8 -7.85 -4.45 -9.1 -5.65 -10.9 L-6.9 -12.75 M8.75 -18.05 L8.7 -18.05 Q7.7 -18.05 7.3 -17.25 7.2 -16.95 7.15 -16.5 L7.05 -16.35 Q7.0 -16.0 6.7 -15.65 6.55 -15.65 6.5 -15.7 L6.5 -15.75 Q6.45 -15.8 6.45 -16.0 L6.45 -16.1 6.25 -16.5 6.15 -16.85 5.95 -17.75 Q5.95 -17.95 6.45 -18.55 L6.55 -18.65 Q7.1 -19.1 7.9 -19.1 8.6 -19.1 9.0 -18.85 9.35 -18.65 9.35 -18.4 9.1 -18.2 8.75 -18.05 M7.45 -16.2 Q7.4 -16.3 7.4 -16.4 L7.45 -16.25 7.45 -16.2 M3.05 -13.05 Q3.05 -12.9 3.1 -12.6 L3.15 -12.2 3.05 -11.75 2.9 -11.3 2.0 -11.05 Q1.05 -10.8 0.15 -10.75 -1.95 -11.1 -2.6 -12.15 L-3.0 -12.9 Q-1.95 -12.5 -0.45 -12.5 0.15 -12.5 2.35 -13.05 L2.5 -13.1 2.65 -13.1 3.05 -13.05 M-11.0 -14.95 L-10.8 -15.35 -10.7 -15.5 -10.5 -15.7 Q-10.05 -16.2 -9.5 -16.45 L-9.15 -16.5 Q-8.8 -16.65 -8.3 -16.7 -7.65 -16.75 -7.25 -16.5 -6.8 -16.25 -6.75 -15.8 -6.65 -15.6 -6.6 -15.4 -6.7 -15.05 -6.8 -14.55 -7.45 -14.3 -8.85 -14.3 L-9.95 -14.65 -11.0 -14.95 M-8.2 -11.7 L-8.25 -11.55 -8.3 -11.05 -8.55 -10.0 Q-8.85 -8.45 -8.85 -7.75 L-8.9 -7.35 Q-8.85 -7.15 -8.75 -7.0 -8.4 -6.65 -6.8 -6.35 -5.75 -6.15 -4.5 -5.6 L-4.15 -5.45 -4.0 -4.95 Q-4.05 -4.7 -4.2 -4.7 -4.35 -4.7 -7.05 -5.3 L-8.2 -5.55 -9.1 -5.75 Q-10.15 -5.9 -10.5 -6.6 L-10.65 -7.0 Q-10.65 -8.25 -9.85 -10.75 L-9.35 -12.25 -9.05 -12.15 Q-8.55 -11.9 -8.2 -11.7" fill="#404040" fill-rule="evenodd" stroke="none"/>
    <path d="M5.25 -13.35 Q5.75 -12.7 6.25 -12.7 6.7 -12.7 7.65 -13.75 L9.0 -15.35 9.05 -15.35 Q8.65 -14.6 8.15 -12.8 L7.6 -10.6 7.6 -10.55 Q7.4 -9.75 7.3 -9.1 7.15 -8.2 7.15 -7.65 7.15 -7.3 7.0 -6.6 L7.0 -6.5 6.9 -6.05 6.85 -6.0 6.6 -5.15 Q6.45 -4.45 6.1 -3.95 L5.65 -3.4 Q5.55 -3.2 5.2 -2.9 L4.85 -2.65 4.75 -2.6 Q4.1 -2.2 3.55 -2.1 3.4 -2.0 3.15 -2.0 L3.0 -2.0 2.85 -1.95 1.85 -1.9 Q-0.5 -1.9 -1.6 -2.55 L-2.0 -2.95 Q-2.45 -3.4 -2.85 -4.3 L-3.45 -5.8 Q-3.8 -6.65 -4.2 -7.15 L-4.8 -8.05 -7.0 -11.45 -7.0 -11.8 -6.95 -12.2 -6.95 -12.45 -6.9 -12.75 -5.65 -10.9 Q-4.45 -9.1 -3.8 -7.85 -2.0 -4.05 -1.15 -3.25 -0.65 -2.75 0.0 -2.6 L1.6 -2.5 Q4.45 -2.5 5.85 -4.85 6.35 -5.75 6.7 -7.05 L6.85 -7.55 Q6.9 -8.25 6.9 -8.95 L6.85 -9.8 Q6.8 -10.55 6.65 -10.7 6.3 -10.85 6.0 -11.0 L6.0 -11.1 5.95 -11.1 5.9 -11.25 5.85 -11.45 5.8 -11.5 5.7 -11.9 Q5.25 -13.1 5.25 -13.3 L5.25 -13.35 M9.35 -18.4 L9.35 -18.3 9.2 -18.25 9.05 -18.15 Q9.3 -18.15 9.35 -18.3 9.3 -17.9 8.55 -17.35 L8.35 -17.15 Q8.45 -16.6 8.45 -16.3 8.45 -16.05 8.1 -15.9 L7.9 -15.85 7.8 -15.9 Q7.6 -16.0 7.55 -16.1 L7.45 -16.2 7.45 -16.25 7.4 -16.4 7.4 -16.45 7.35 -16.6 Q7.35 -16.75 7.35 -16.95 L7.3 -16.95 7.3 -17.0 Q7.55 -17.8 8.95 -18.05 L8.75 -18.05 Q9.1 -18.2 9.35 -18.4 M-11.0 -14.95 L-9.95 -14.65 -8.85 -14.3 Q-7.45 -14.3 -6.8 -14.55 -6.95 -13.5 -7.05 -13.25 L-6.95 -13.25 Q-6.95 -13.0 -7.0 -12.9 -7.15 -12.6 -7.6 -12.25 L-7.6 -12.3 -7.65 -12.35 -7.75 -12.55 -7.8 -12.55 Q-8.45 -13.35 -9.05 -13.75 L-9.1 -13.8 Q-9.15 -13.85 -9.3 -13.95 L-9.3 -13.9 Q-10.05 -14.45 -10.8 -14.65 L-10.95 -14.7 Q-11.0 -14.8 -11.0 -14.85 L-11.0 -14.95 M-8.2 -11.7 Q-8.55 -11.9 -9.05 -12.15 L-9.35 -12.25 -9.1 -13.1 -8.5 -12.55 -8.05 -12.15 -8.05 -12.1 -8.2 -11.7 M-10.65 -7.0 L-10.5 -6.6 Q-10.15 -5.9 -9.1 -5.75 L-8.2 -5.55 -7.05 -5.3 Q-4.35 -4.7 -4.2 -4.7 -4.05 -4.7 -4.0 -4.95 L-4.15 -5.45 Q-3.85 -5.3 -3.65 -5.25 L-3.3 -4.45 -3.05 -3.85 -3.6 -4.05 Q-5.0 -4.5 -6.25 -4.75 -7.2 -5.0 -9.1 -5.3 -10.1 -5.45 -10.35 -5.7 -10.65 -6.0 -10.65 -6.95 L-10.65 -7.0" fill="#262626" fill-rule="evenodd" stroke="none"/>
    <path d="M-8.05 -10.8 L-7.6 -10.25 -5.85 -8.2 Q-6.9 -7.6 -7.6 -7.6 L-7.6 -7.5 Q-7.25 -7.2 -6.7 -7.15 L-5.85 -7.15 -5.05 -7.25 -4.8 -6.85 -3.95 -5.85 -4.9 -6.0 -5.0 -6.05 -7.15 -6.65 Q-7.95 -6.85 -8.25 -7.05 -8.65 -7.3 -8.65 -7.75 L-8.55 -8.5 Q-8.4 -9.1 -8.4 -9.25 -8.4 -9.5 -8.05 -10.8" fill="#6c7680" fill-rule="evenodd" stroke="none"/>
    <path d="M-8.05 -10.8 L-8.05 -10.85 -7.85 -11.65 -7.8 -11.7 -7.75 -11.85 Q-7.2 -11.35 -7.0 -11.0 L-6.0 -9.35 Q-5.35 -8.2 -5.0 -7.7 L-3.9 -6.0 -3.85 -5.8 -3.95 -5.8 -3.95 -5.85 -4.8 -6.85 -5.05 -7.25 -5.85 -7.15 -6.7 -7.15 Q-7.25 -7.2 -7.6 -7.5 L-7.6 -7.6 Q-6.9 -7.6 -5.85 -8.2 L-7.6 -10.25 -8.05 -10.8" fill="#41474d" fill-rule="evenodd" stroke="none"/>
  </g>
</svg>
