<?xml version="1.0" encoding="UTF-8" standalone="no"?>
<svg xmlns:ffdec="https://www.free-decompiler.com/flash" xmlns:xlink="http://www.w3.org/1999/xlink" ffdec:objectType="shape" height="26.7px" width="26.5px" xmlns="http://www.w3.org/2000/svg">
  <g transform="matrix(1.0, 0.0, 0.0, 1.0, 13.75, 36.2)">
    <path d="M8.0 -33.8 Q7.75 -33.65 7.45 -33.65 6.9 -33.65 6.05 -34.1 5.2 -34.6 4.05 -34.6 2.85 -34.6 2.5 -34.75 2.25 -34.9 2.15 -35.2 2.95 -35.8 4.4 -35.8 5.8 -35.8 6.95 -35.35 8.15 -34.95 8.15 -34.35 L8.0 -33.8 M2.95 -26.8 Q3.25 -26.9 3.5 -27.35 3.7 -27.8 3.7 -28.15 3.7 -28.35 3.45 -29.15 3.2 -29.95 3.2 -30.65 3.2 -31.2 3.3 -31.75 L3.35 -32.0 3.35 -31.9 Q3.5 -32.2 3.8 -32.2 4.3 -32.2 4.55 -31.75 4.4 -31.3 4.4 -30.9 4.4 -29.9 4.65 -29.35 4.8 -29.0 5.2 -28.65 L5.5 -28.35 Q5.6 -27.95 5.6 -27.8 5.6 -27.1 5.15 -26.65 4.85 -26.4 4.1 -26.0 4.75 -27.1 4.75 -27.25 4.75 -27.4 4.7 -27.35 4.05 -26.85 3.5 -26.25 2.95 -25.7 2.7 -25.3 2.1 -25.0 1.7 -24.75 L1.55 -25.9 Q1.9 -26.25 2.7 -26.65 L2.95 -26.8 M1.6 -31.1 Q2.1 -30.9 2.3 -30.6 L2.5 -30.3 Q2.6 -29.65 2.75 -29.0 3.15 -27.7 3.15 -27.55 3.15 -27.4 2.2 -26.85 1.75 -26.6 1.5 -26.4 L1.35 -27.4 1.2 -27.85 1.25 -28.0 Q1.25 -28.2 1.1 -28.55 L0.95 -28.9 1.0 -29.45 1.05 -29.75 1.45 -30.65 1.55 -30.85 1.6 -31.1 M-0.2 -28.7 Q0.05 -28.95 0.3 -29.05 L0.55 -28.6 0.65 -28.45 Q1.1 -27.45 1.3 -26.1 L1.3 -25.8 1.4 -24.85 1.4 -24.75 1.35 -24.2 1.35 -23.9 1.4 -23.1 1.4 -23.0 Q1.05 -21.45 0.55 -20.1 L0.5 -19.9 -0.05 -20.0 -0.05 -19.85 Q0.1 -19.5 0.25 -19.35 -1.55 -15.2 -4.75 -15.2 -9.05 -15.2 -11.25 -19.6 -11.95 -21.1 -12.35 -22.85 -12.55 -23.7 -12.6 -24.3 -12.35 -24.4 -12.2 -24.4 L-11.65 -24.35 -11.55 -24.2 -11.05 -22.2 -11.0 -22.2 -10.9 -21.8 Q-10.45 -20.6 -9.8 -19.55 -7.75 -16.55 -4.45 -16.55 -2.15 -16.55 -0.95 -20.0 L-0.95 -20.05 Q-0.5 -20.8 -0.25 -21.8 0.05 -23.1 0.05 -25.15 0.05 -25.6 -0.3 -27.9 -0.3 -28.15 -0.2 -28.7 M1.75 -29.15 L1.85 -28.95 Q1.9 -28.85 1.95 -28.85 2.25 -28.85 2.25 -29.1 2.25 -29.2 2.1 -29.25 L1.8 -29.3 1.75 -29.15 M6.65 -29.45 L6.75 -30.1 6.9 -31.25 Q6.9 -31.55 7.2 -31.9 L8.05 -32.3 Q8.95 -32.75 9.25 -32.75 L9.5 -32.8 9.8 -32.85 10.3 -32.8 10.35 -32.75 10.55 -32.4 Q10.25 -30.9 10.15 -29.3 10.1 -27.95 10.1 -25.9 10.1 -24.4 10.55 -21.05 L10.85 -18.65 10.85 -18.5 10.9 -18.45 10.95 -17.95 10.5 -17.7 Q9.95 -18.55 9.6 -19.15 L9.7 -19.3 Q9.95 -19.6 10.0 -20.0 10.0 -20.5 9.65 -20.9 9.35 -21.2 8.9 -21.25 L8.65 -21.25 Q8.15 -22.5 7.85 -23.8 L7.85 -23.75 Q8.0 -23.7 8.25 -23.7 8.85 -23.7 9.2 -24.2 9.3 -24.4 9.35 -24.6 9.5 -24.8 9.5 -25.1 9.5 -25.6 9.15 -25.95 8.85 -26.3 8.4 -26.35 7.95 -26.35 7.65 -26.05 7.5 -25.95 7.4 -25.75 L7.15 -27.15 6.65 -29.45 M7.2 -21.0 L7.15 -21.25 7.2 -21.05 7.2 -21.0 M9.35 -30.3 Q9.35 -30.8 9.0 -31.15 8.7 -31.5 8.25 -31.55 7.8 -31.6 7.5 -31.3 7.15 -30.95 7.15 -30.3 7.1 -30.0 7.25 -29.75 7.25 -29.55 7.35 -29.35 7.6 -28.85 8.35 -28.85 8.9 -28.85 9.15 -29.35 9.35 -29.7 9.35 -30.1 L9.35 -30.3 M0.75 -22.4 Q0.45 -22.45 0.45 -22.2 0.45 -22.1 0.5 -22.05 0.6 -21.95 0.75 -21.95 0.85 -21.95 0.9 -22.0 1.05 -22.05 1.05 -22.2 1.05 -22.35 0.75 -22.4 M-10.65 -22.4 L-11.0 -23.6 -10.7 -23.3 Q-9.45 -22.15 -8.3 -22.15 -7.55 -21.95 -6.7 -21.95 -3.3 -21.95 -0.85 -25.5 L-0.75 -25.25 -0.65 -24.3 -0.6 -23.5 -0.6 -22.75 Q-0.6 -22.5 -0.8 -21.65 -0.95 -20.85 -0.95 -20.55 -1.55 -19.8 -2.65 -19.1 -3.35 -18.65 -4.1 -18.4 L-4.95 -18.9 Q-6.45 -19.8 -6.6 -19.95 L-6.7 -19.95 Q-6.25 -19.2 -5.05 -18.3 L-4.9 -18.2 -5.5 -18.15 Q-7.15 -18.15 -8.85 -19.8 -10.05 -20.95 -10.4 -21.75 L-10.65 -22.4 M-3.15 -20.2 Q-3.3 -20.4 -3.75 -20.35 L-3.8 -20.3 -3.8 -20.2 -3.75 -20.05 Q-3.7 -19.95 -3.5 -19.95 -3.35 -19.95 -3.3 -20.0 L-3.15 -20.2 M-10.1 -18.4 Q-10.05 -18.4 -9.9 -18.55 -9.75 -18.7 -9.75 -18.8 -9.75 -19.05 -10.05 -19.0 -10.4 -18.95 -10.4 -18.7 -10.4 -18.6 -10.35 -18.55 -10.3 -18.4 -10.1 -18.4 M-2.6 -21.6 L-2.55 -21.5 -2.35 -21.4 Q-2.2 -21.4 -2.1 -21.5 -2.0 -21.6 -2.0 -21.65 -2.0 -21.75 -2.05 -21.8 L-2.4 -21.75 Q-2.6 -21.7 -2.6 -21.6 M-5.4 -21.7 L-5.15 -21.5 Q-4.95 -21.5 -4.85 -21.55 L-4.75 -21.7 Q-5.0 -21.9 -5.2 -21.9 -5.4 -21.9 -5.4 -21.7" fill="#404040" fill-rule="evenodd" stroke="none"/>
    <path d="M4.8 -36.2 Q6.3 -36.1 7.4 -35.55 8.6 -35.0 8.6 -34.3 8.6 -33.9 8.5 -33.5 8.3 -32.75 7.7 -32.75 L7.1 -32.85 6.5 -32.9 Q6.0 -32.9 5.4 -32.35 L5.15 -32.1 5.0 -31.85 Q4.9 -31.65 4.85 -31.4 L5.4 -31.4 Q6.15 -31.8 6.5 -31.8 6.55 -32.05 6.7 -32.15 L6.9 -32.2 Q7.2 -32.6 8.75 -33.05 L9.4 -33.25 9.7 -33.4 9.7 -33.45 9.95 -33.5 10.15 -33.5 10.2 -33.55 10.25 -33.55 Q10.85 -33.1 11.15 -32.4 L10.85 -31.2 Q10.5 -29.65 10.5 -28.35 10.5 -27.85 10.6 -25.4 10.75 -23.1 10.75 -22.8 10.95 -20.85 10.95 -20.0 10.95 -19.65 11.05 -19.15 11.2 -19.25 11.5 -19.15 12.2 -18.9 12.45 -18.2 L12.65 -17.3 Q12.75 -16.95 12.75 -16.5 12.75 -15.45 12.2 -14.5 11.3 -12.95 9.3 -12.95 7.65 -12.95 6.75 -14.85 6.25 -16.05 6.25 -16.9 6.25 -17.35 6.45 -17.4 6.85 -17.6 7.2 -17.95 L7.15 -18.4 Q6.85 -18.2 6.35 -17.9 5.75 -17.6 5.15 -17.3 4.6 -16.95 4.6 -16.35 L4.6 -16.0 4.55 -15.55 4.35 -14.75 Q3.75 -13.6 2.4 -12.8 1.05 -12.1 0.05 -12.1 L-0.7 -12.1 -0.7 -11.7 Q-0.7 -11.15 -1.3 -10.35 -2.05 -9.5 -2.85 -9.5 -4.8 -9.5 -5.5 -10.95 -5.8 -11.6 -5.8 -12.6 -5.8 -12.85 -5.7 -13.05 -7.65 -13.4 -9.1 -14.6 -9.75 -15.15 -10.35 -16.0 L-11.15 -17.05 Q-11.45 -17.4 -12.55 -19.5 -13.65 -21.55 -13.7 -22.05 L-13.75 -22.35 Q-13.8 -22.65 -13.75 -23.05 -13.75 -23.5 -13.65 -23.95 -13.6 -24.15 -13.5 -24.4 -13.3 -24.75 -13.1 -24.75 -12.55 -24.95 -11.5 -24.9 L-11.3 -24.7 -11.25 -24.7 -11.2 -24.6 -10.95 -24.0 -10.3 -23.5 Q-9.65 -23.0 -8.85 -22.65 -8.05 -22.45 -7.0 -22.45 -4.4 -22.45 -2.7 -23.95 -2.15 -24.3 -1.65 -24.95 -1.3 -25.45 -1.05 -26.0 L-1.2 -26.4 Q-1.4 -26.65 -1.4 -26.8 -1.4 -27.25 -1.05 -28.0 -0.85 -28.55 -0.55 -29.0 -0.15 -29.7 0.25 -29.55 L0.3 -29.6 0.45 -29.55 Q0.55 -29.55 0.6 -29.6 L0.65 -29.65 0.65 -29.8 Q0.8 -30.0 0.95 -30.4 1.05 -30.6 1.15 -30.9 1.4 -31.5 1.4 -31.85 1.4 -32.45 1.25 -32.8 L1.2 -33.15 1.15 -33.3 Q1.1 -33.4 1.05 -33.6 0.95 -33.85 0.95 -34.1 0.95 -35.3 2.15 -35.85 3.2 -36.3 4.8 -36.2 M4.55 -31.75 L4.55 -31.85 4.8 -32.35 Q5.1 -32.95 5.6 -33.2 L5.65 -33.25 Q5.9 -33.5 6.15 -33.5 6.5 -33.5 6.75 -33.35 7.0 -33.2 7.35 -33.2 7.7 -33.2 7.95 -33.8 L8.0 -33.8 8.15 -34.35 Q8.15 -34.95 6.95 -35.35 5.8 -35.8 4.4 -35.8 2.95 -35.8 2.15 -35.2 L2.05 -35.15 1.95 -35.05 Q1.5 -34.6 1.5 -34.05 L1.5 -33.95 1.55 -33.9 Q1.6 -33.5 1.8 -33.1 2.05 -32.6 2.45 -32.4 2.55 -32.15 2.55 -31.8 L2.5 -30.8 Q2.5 -30.15 2.95 -28.85 L3.35 -27.55 Q3.35 -27.1 2.95 -26.8 L2.7 -26.65 Q1.9 -26.25 1.55 -25.9 L1.7 -24.75 1.8 -23.55 1.75 -23.15 2.25 -23.65 Q3.25 -24.4 4.45 -24.8 5.05 -25.05 5.6 -25.6 L5.7 -25.75 Q6.0 -26.25 6.0 -26.6 6.0 -27.5 5.75 -28.0 L5.6 -28.25 5.5 -28.35 5.2 -28.65 Q4.8 -29.0 4.65 -29.35 4.4 -29.9 4.4 -30.9 4.4 -31.3 4.55 -31.75 M2.5 -30.3 L2.5 -30.5 Q2.4 -31.1 2.4 -31.7 L2.4 -31.85 Q2.4 -31.95 2.2 -32.1 L1.85 -32.4 1.8 -32.4 Q1.8 -31.9 1.6 -31.1 L1.55 -30.85 1.45 -30.65 1.05 -29.75 1.0 -29.45 0.95 -28.9 1.1 -28.55 Q1.25 -28.2 1.25 -28.0 L1.2 -27.85 1.35 -27.4 1.5 -26.4 Q1.75 -26.6 2.2 -26.85 3.15 -27.4 3.15 -27.55 3.15 -27.7 2.75 -29.0 2.6 -29.65 2.5 -30.3 M1.4 -23.0 L1.4 -23.1 1.35 -23.9 1.35 -24.2 1.4 -24.75 1.4 -24.85 1.3 -25.8 1.3 -26.1 Q1.1 -27.45 0.65 -28.45 L0.55 -28.6 0.3 -29.05 Q0.05 -28.95 -0.2 -28.7 -0.4 -28.5 -0.55 -28.15 -0.8 -27.7 -0.85 -27.3 -0.9 -27.15 -0.9 -26.95 -0.8 -26.25 -0.6 -25.6 L-0.5 -25.2 Q-0.25 -23.95 -0.25 -23.5 L-0.3 -23.4 -0.4 -22.55 -0.4 -22.5 -0.9 -20.2 -0.95 -20.05 -0.95 -20.0 Q-2.15 -16.55 -4.45 -16.55 -7.75 -16.55 -9.8 -19.55 -10.45 -20.6 -10.9 -21.8 L-11.0 -22.2 -11.05 -22.2 -11.55 -24.2 -11.65 -24.35 -12.2 -24.4 Q-12.35 -24.4 -12.6 -24.3 L-12.75 -24.2 Q-12.95 -24.1 -13.05 -24.0 -13.2 -23.6 -13.2 -23.0 -13.1 -22.1 -12.85 -21.15 -12.55 -20.2 -12.2 -19.75 L-11.35 -18.1 Q-10.85 -17.3 -10.7 -17.1 L-10.05 -16.25 Q-9.5 -15.55 -8.85 -15.0 -6.95 -13.35 -4.45 -13.35 L-3.65 -13.45 Q-1.5 -13.55 -0.35 -15.45 0.2 -16.4 0.35 -17.3 L0.5 -17.6 0.6 -18.0 0.65 -18.1 0.8 -18.75 Q1.0 -19.55 1.1 -20.4 L1.1 -20.55 1.2 -21.05 Q1.4 -22.2 1.4 -23.0 M5.8 -31.15 L5.6 -31.1 Q5.35 -31.0 5.15 -30.85 L4.75 -30.45 4.7 -30.45 4.7 -30.35 4.75 -30.15 Q5.0 -30.3 5.3 -30.4 L5.5 -30.5 5.6 -30.5 Q6.05 -30.7 6.35 -30.7 L6.35 -30.75 Q6.35 -30.8 6.45 -30.85 L6.5 -31.2 6.3 -31.2 6.05 -31.15 5.8 -31.15 M6.4 -29.55 L6.4 -29.65 6.45 -30.6 6.45 -30.65 5.3 -30.15 4.8 -29.95 Q4.85 -29.8 5.0 -29.6 L5.6 -28.85 5.7 -28.7 5.95 -28.85 6.35 -29.0 6.4 -29.55 M10.95 -17.95 L10.9 -18.45 10.85 -18.5 10.85 -18.65 10.55 -21.05 Q10.1 -24.4 10.1 -25.9 10.1 -27.95 10.15 -29.3 10.25 -30.9 10.55 -32.4 L10.35 -32.75 10.3 -32.8 9.8 -32.85 9.5 -32.8 9.25 -32.75 Q8.95 -32.75 8.05 -32.3 L7.2 -31.9 Q6.9 -31.55 6.9 -31.25 L6.75 -30.1 6.65 -29.45 6.6 -28.75 6.55 -27.8 Q6.55 -26.1 6.7 -25.1 L7.1 -21.85 7.15 -21.25 7.2 -21.0 7.35 -20.3 Q7.5 -18.95 7.65 -18.1 7.75 -17.35 7.95 -16.9 8.1 -16.6 8.3 -16.45 L8.35 -16.35 Q8.55 -16.2 8.65 -16.2 9.6 -16.2 10.3 -16.7 11.0 -17.2 11.0 -17.65 L10.95 -17.95 M7.4 -25.75 Q7.5 -25.95 7.65 -26.05 7.95 -26.35 8.4 -26.35 8.85 -26.3 9.15 -25.95 9.5 -25.6 9.5 -25.1 9.5 -24.8 9.35 -24.6 L9.2 -24.35 Q8.9 -24.0 8.4 -24.0 8.0 -24.0 7.75 -24.15 L7.5 -24.35 Q7.25 -24.65 7.3 -25.1 L7.3 -25.2 Q7.3 -25.45 7.35 -25.6 L7.4 -25.75 M8.65 -21.25 L8.9 -21.25 Q9.35 -21.2 9.65 -20.9 10.0 -20.5 10.0 -20.0 9.95 -19.6 9.7 -19.3 L9.6 -19.15 Q9.3 -18.9 8.9 -18.9 8.25 -18.95 7.95 -19.3 7.75 -19.55 7.8 -20.0 7.8 -20.65 8.15 -21.0 8.35 -21.2 8.65 -21.25 M7.6 -30.9 Q7.55 -30.8 7.5 -30.65 L7.5 -30.6 7.45 -30.55 7.45 -30.35 Q7.45 -30.05 7.55 -29.85 7.8 -29.45 8.35 -29.4 8.75 -29.4 9.0 -29.7 9.15 -29.9 9.15 -30.2 9.2 -30.7 8.9 -31.0 8.7 -31.25 8.35 -31.3 8.0 -31.3 7.75 -31.05 L7.6 -30.9 M7.25 -29.75 Q7.1 -30.0 7.15 -30.3 7.15 -30.95 7.5 -31.3 7.8 -31.6 8.25 -31.55 8.7 -31.5 9.0 -31.15 9.35 -30.8 9.35 -30.3 9.3 -29.9 9.05 -29.55 8.75 -29.2 8.25 -29.2 7.6 -29.2 7.35 -29.6 L7.3 -29.6 7.25 -29.75 M5.9 -28.45 Q6.15 -28.05 6.25 -27.6 L6.3 -28.6 Q6.1 -28.5 5.9 -28.45 M12.1 -17.7 Q12.0 -18.45 11.8 -18.45 L11.45 -18.4 11.2 -18.35 11.3 -18.1 11.3 -18.0 11.35 -17.8 11.45 -17.6 Q11.8 -17.0 11.8 -16.5 L11.8 -16.4 Q11.8 -15.7 11.3 -15.0 10.95 -14.45 10.4 -14.2 10.0 -14.05 9.5 -14.05 8.3 -14.05 7.65 -15.2 7.5 -15.5 7.4 -15.7 7.2 -16.15 7.2 -16.5 7.2 -16.6 7.3 -16.7 L7.45 -16.85 7.35 -17.3 7.15 -17.25 Q6.65 -17.1 6.65 -16.8 6.65 -15.9 7.0 -15.05 7.65 -13.5 9.2 -13.5 10.75 -13.5 11.55 -14.55 L11.75 -14.8 11.85 -14.95 Q12.25 -15.7 12.25 -16.5 L12.25 -16.55 12.2 -16.95 12.15 -17.5 12.1 -17.7 M9.3 -25.15 Q9.3 -25.55 9.05 -25.8 8.85 -26.05 8.5 -26.1 8.2 -26.1 7.95 -25.95 L7.9 -25.9 7.9 -25.85 Q7.6 -25.6 7.6 -25.15 7.6 -24.85 7.7 -24.65 7.95 -24.25 8.5 -24.2 8.9 -24.2 9.15 -24.5 9.3 -24.7 9.3 -25.0 L9.3 -25.15 M6.4 -25.3 L6.35 -25.7 Q6.3 -25.55 6.05 -25.4 5.7 -24.95 4.95 -24.6 4.55 -24.4 3.7 -24.0 3.2 -23.75 2.85 -23.5 L2.45 -23.2 Q2.05 -22.85 1.7 -22.4 L1.7 -21.85 Q2.25 -22.15 3.55 -22.8 4.25 -23.1 5.15 -23.8 6.0 -24.35 6.45 -24.65 L6.4 -25.3 M6.55 -23.25 L6.45 -24.3 Q6.25 -24.1 5.9 -23.9 5.6 -23.75 4.0 -22.9 2.7 -22.25 1.9 -21.7 1.8 -21.65 1.65 -21.55 1.6 -20.65 1.4 -19.7 L1.4 -19.55 Q1.4 -19.05 1.1 -18.1 0.9 -17.4 0.65 -16.75 L0.5 -16.25 Q1.25 -16.8 1.4 -17.7 1.45 -18.05 1.45 -18.7 1.5 -19.3 1.75 -19.65 1.95 -20.0 2.85 -20.45 3.95 -21.0 4.4 -21.25 L5.75 -22.1 6.6 -22.7 6.55 -23.25 M0.85 -16.1 Q0.65 -15.95 0.35 -15.9 L0.05 -15.3 Q-0.15 -15.0 -0.4 -14.75 L-0.55 -14.55 Q-0.7 -14.35 -0.9 -14.15 -0.6 -14.0 -0.5 -14.0 0.85 -14.0 1.8 -14.95 2.5 -15.65 2.7 -16.35 2.75 -16.55 2.75 -17.1 2.75 -17.65 2.8 -17.9 3.0 -18.7 3.95 -18.9 4.3 -19.1 4.75 -19.3 5.45 -19.6 6.2 -20.2 L6.8 -20.7 6.75 -21.5 6.7 -21.85 6.7 -21.9 6.65 -22.5 5.9 -22.0 4.45 -21.0 Q4.2 -20.85 2.95 -20.2 2.05 -19.7 1.9 -19.45 1.75 -19.2 1.7 -18.55 L1.6 -17.35 Q1.45 -16.45 0.85 -16.1 M4.35 -18.85 Q3.8 -18.65 3.5 -18.4 3.25 -18.1 3.15 -17.7 L2.9 -16.15 Q2.8 -15.45 1.95 -14.7 0.95 -13.7 -0.4 -13.7 -0.95 -13.7 -1.25 -13.85 L-1.8 -13.45 Q-1.85 -13.45 -2.65 -13.2 L-2.15 -13.0 Q-1.15 -12.5 -0.05 -12.5 1.3 -12.5 2.8 -13.85 4.1 -15.0 4.15 -15.7 4.25 -16.0 4.15 -16.65 4.2 -17.3 4.95 -17.65 L6.45 -18.7 Q6.8 -18.95 7.05 -19.0 L6.9 -20.15 6.7 -20.2 5.7 -19.65 4.35 -18.85 M8.4 -20.8 Q8.1 -20.5 8.1 -20.05 8.1 -19.75 8.2 -19.55 8.4 -19.15 9.0 -19.15 9.4 -19.1 9.65 -19.4 9.8 -19.65 9.8 -19.95 L9.8 -20.05 Q9.8 -20.45 9.55 -20.7 9.35 -20.95 9.0 -21.0 8.65 -21.0 8.4 -20.8 M7.65 -16.2 Q7.65 -15.7 7.9 -15.2 8.3 -14.5 9.05 -14.5 10.3 -14.5 10.95 -15.2 11.45 -15.75 11.45 -16.4 11.45 -16.65 11.35 -16.95 11.05 -16.6 10.25 -16.2 9.15 -15.7 8.65 -15.7 L8.3 -15.7 Q8.25 -15.65 8.15 -15.65 7.9 -15.65 7.65 -16.2 M-0.95 -20.55 Q-0.95 -20.85 -0.8 -21.65 -0.6 -22.5 -0.6 -22.75 L-0.6 -23.5 -0.65 -24.3 -0.75 -25.25 -0.85 -25.5 Q-3.3 -21.95 -6.7 -21.95 -7.55 -21.95 -8.3 -22.15 -9.45 -22.15 -10.7 -23.3 L-11.0 -23.6 -10.65 -22.4 -10.45 -21.55 -10.35 -21.15 Q-8.55 -16.7 -4.5 -16.7 -3.1 -16.7 -2.05 -18.05 -1.65 -18.5 -1.45 -19.05 -1.2 -19.45 -1.2 -19.65 -1.2 -19.75 -1.1 -20.05 -0.95 -20.4 -0.95 -20.5 L-0.95 -20.55 M-2.25 -12.45 Q-3.05 -12.75 -3.3 -13.0 L-4.0 -12.95 -4.2 -12.75 Q-4.55 -12.4 -4.55 -12.15 -4.55 -11.75 -4.25 -11.35 -3.95 -10.95 -3.4 -10.95 -2.75 -10.95 -2.4 -11.4 -2.1 -11.8 -2.1 -12.15 -2.1 -12.35 -2.25 -12.45 M-1.3 -11.45 L-1.15 -12.0 -1.15 -12.2 -1.8 -12.35 -1.8 -12.1 Q-1.85 -11.85 -1.9 -11.65 -1.95 -11.4 -2.1 -11.2 L-2.3 -10.95 Q-2.7 -10.55 -3.4 -10.55 -4.25 -10.55 -4.6 -11.4 L-4.65 -11.55 Q-4.7 -11.75 -4.75 -12.05 L-4.8 -12.5 Q-4.8 -12.75 -4.65 -12.95 L-5.15 -13.0 -5.3 -12.7 Q-5.5 -12.3 -5.5 -11.95 -5.5 -11.3 -5.0 -10.65 -4.35 -9.85 -3.3 -9.85 L-3.1 -9.85 -2.7 -9.95 -2.6 -9.95 -1.6 -10.8 -1.55 -10.85 -1.45 -11.05 -1.3 -11.45" fill="#111111" fill-rule="evenodd" stroke="none"/>
    <path d="M8.0 -33.8 L7.95 -33.8 Q7.7 -33.2 7.35 -33.2 7.0 -33.2 6.75 -33.35 6.5 -33.5 6.15 -33.5 5.9 -33.5 5.65 -33.25 L5.6 -33.2 Q5.1 -32.95 4.8 -32.35 L4.55 -31.85 4.55 -31.75 Q4.3 -32.2 3.8 -32.2 3.5 -32.2 3.35 -31.9 L3.35 -32.0 3.3 -31.75 Q3.2 -31.2 3.2 -30.65 3.2 -29.95 3.45 -29.15 3.7 -28.35 3.7 -28.15 3.7 -27.8 3.5 -27.35 3.25 -26.9 2.95 -26.8 3.35 -27.1 3.35 -27.55 L2.95 -28.85 Q2.5 -30.15 2.5 -30.8 L2.55 -31.8 Q2.55 -32.15 2.45 -32.4 2.05 -32.6 1.8 -33.1 1.6 -33.5 1.55 -33.9 L1.5 -33.95 1.5 -34.05 Q1.5 -34.6 1.95 -35.05 L2.05 -35.15 2.15 -35.2 Q2.25 -34.9 2.5 -34.75 2.85 -34.6 4.05 -34.6 5.2 -34.6 6.05 -34.1 6.9 -33.65 7.45 -33.65 7.75 -33.65 8.0 -33.8 M5.5 -28.35 L5.6 -28.25 5.75 -28.0 Q6.0 -27.5 6.0 -26.6 6.0 -26.25 5.7 -25.75 L5.6 -25.6 Q5.05 -25.05 4.45 -24.8 3.25 -24.4 2.25 -23.65 L1.75 -23.15 1.8 -23.55 1.7 -24.75 Q2.1 -25.0 2.7 -25.3 2.95 -25.7 3.5 -26.25 4.05 -26.85 4.7 -27.35 4.75 -27.4 4.75 -27.25 4.75 -27.1 4.1 -26.0 4.85 -26.4 5.15 -26.65 5.6 -27.1 5.6 -27.8 5.6 -27.95 5.5 -28.35 M1.6 -31.1 Q1.8 -31.9 1.8 -32.4 L1.85 -32.4 2.2 -32.1 Q2.4 -31.95 2.4 -31.85 L2.4 -31.7 Q2.4 -31.1 2.5 -30.5 L2.5 -30.3 2.3 -30.6 Q2.1 -30.9 1.6 -31.1 M-0.2 -28.7 Q-0.3 -28.15 -0.3 -27.9 0.05 -25.6 0.05 -25.15 0.05 -23.1 -0.25 -21.8 -0.5 -20.8 -0.95 -20.05 L-0.9 -20.2 -0.4 -22.5 -0.4 -22.55 -0.3 -23.4 -0.25 -23.5 Q-0.25 -23.95 -0.5 -25.2 L-0.6 -25.6 Q-0.8 -26.25 -0.9 -26.95 -0.9 -27.15 -0.85 -27.3 -0.8 -27.7 -0.55 -28.15 -0.4 -28.5 -0.2 -28.7 M-12.6 -24.3 Q-12.55 -23.7 -12.35 -22.85 -11.95 -21.1 -11.25 -19.6 -9.05 -15.2 -4.75 -15.2 -1.55 -15.2 0.25 -19.35 0.1 -19.5 -0.05 -19.85 L-0.05 -20.0 0.5 -19.9 0.55 -20.1 Q1.05 -21.45 1.4 -23.0 1.4 -22.2 1.2 -21.05 L1.1 -20.55 1.1 -20.4 0.8 -18.75 0.65 -18.1 0.6 -18.0 0.5 -17.65 0.5 -17.6 0.35 -17.3 Q0.2 -16.4 -0.35 -15.45 -1.5 -13.55 -3.65 -13.45 L-4.45 -13.35 Q-6.95 -13.35 -8.85 -15.0 -9.5 -15.55 -10.05 -16.25 L-10.7 -17.1 Q-10.85 -17.3 -11.35 -18.1 L-12.2 -19.75 Q-12.55 -20.2 -12.85 -21.15 -13.1 -22.1 -13.2 -23.0 -13.2 -23.6 -13.05 -24.0 -12.95 -24.1 -12.75 -24.2 L-12.6 -24.3 M1.75 -29.15 L1.8 -29.3 2.1 -29.25 Q2.25 -29.2 2.25 -29.1 2.25 -28.85 1.95 -28.85 1.9 -28.85 1.85 -28.95 L1.75 -29.15 M6.65 -29.45 L7.15 -27.15 7.4 -25.75 7.35 -25.6 Q7.3 -25.45 7.3 -25.2 L7.3 -25.1 Q7.25 -24.65 7.5 -24.35 L7.75 -24.15 Q8.0 -24.0 8.4 -24.0 8.9 -24.0 9.2 -24.35 L9.35 -24.6 Q9.3 -24.4 9.2 -24.2 8.85 -23.7 8.25 -23.7 8.0 -23.7 7.85 -23.75 L7.85 -23.8 Q8.15 -22.5 8.65 -21.25 8.35 -21.2 8.15 -21.0 7.8 -20.65 7.8 -20.0 7.75 -19.55 7.95 -19.3 8.25 -18.95 8.9 -18.9 9.3 -18.9 9.6 -19.15 9.95 -18.55 10.5 -17.7 L10.95 -17.95 11.0 -17.65 Q11.0 -17.2 10.3 -16.7 9.6 -16.2 8.65 -16.2 8.55 -16.2 8.35 -16.35 L8.3 -16.45 Q8.1 -16.6 7.95 -16.9 7.75 -17.35 7.65 -18.1 7.5 -18.95 7.35 -20.3 L7.2 -21.0 7.2 -21.05 7.15 -21.25 7.1 -21.85 6.7 -25.1 Q6.55 -26.1 6.55 -27.8 L6.6 -28.75 6.65 -29.45 M9.35 -30.3 L9.35 -30.1 Q9.35 -29.7 9.15 -29.35 8.9 -28.85 8.35 -28.85 7.6 -28.85 7.35 -29.35 7.25 -29.55 7.25 -29.75 L7.3 -29.6 7.35 -29.6 Q7.6 -29.2 8.25 -29.2 8.75 -29.2 9.05 -29.55 9.3 -29.9 9.35 -30.3 M0.75 -22.4 Q1.05 -22.35 1.05 -22.2 1.05 -22.05 0.9 -22.0 0.85 -21.95 0.75 -21.95 0.6 -21.95 0.5 -22.05 0.45 -22.1 0.45 -22.2 0.45 -22.45 0.75 -22.4 M4.35 -18.85 L5.7 -19.65 6.7 -20.2 6.9 -20.15 7.05 -19.0 Q6.8 -18.95 6.45 -18.7 L4.95 -17.65 Q4.2 -17.3 4.15 -16.65 4.25 -16.0 4.15 -15.7 4.1 -15.0 2.8 -13.85 1.3 -12.5 -0.05 -12.5 -1.15 -12.5 -2.15 -13.0 L-2.65 -13.2 Q-1.85 -13.45 -1.8 -13.45 L-1.25 -13.85 Q-0.95 -13.7 -0.4 -13.7 0.95 -13.7 1.95 -14.7 2.8 -15.45 2.9 -16.15 L3.15 -17.7 Q3.25 -18.1 3.5 -18.4 3.8 -18.65 4.35 -18.85 M-10.65 -22.4 L-10.4 -21.75 Q-10.05 -20.95 -8.85 -19.8 -7.15 -18.15 -5.5 -18.15 L-4.9 -18.2 -5.05 -18.3 Q-6.25 -19.2 -6.7 -19.95 L-6.6 -19.95 Q-6.45 -19.8 -4.95 -18.9 L-4.1 -18.4 Q-3.35 -18.65 -2.65 -19.1 -1.55 -19.8 -0.95 -20.55 L-0.95 -20.5 Q-0.95 -20.4 -1.1 -20.05 -1.2 -19.75 -1.2 -19.65 -1.2 -19.45 -1.45 -19.05 -1.65 -18.5 -2.05 -18.05 -3.1 -16.7 -4.5 -16.7 -8.55 -16.7 -10.35 -21.15 L-10.45 -21.55 -10.65 -22.4 M-5.4 -21.7 Q-5.4 -21.9 -5.2 -21.9 -5.0 -21.9 -4.75 -21.7 L-4.85 -21.55 Q-4.95 -21.5 -5.15 -21.5 L-5.4 -21.7 M-2.6 -21.6 Q-2.6 -21.7 -2.4 -21.75 L-2.05 -21.8 Q-2.0 -21.75 -2.0 -21.65 -2.0 -21.6 -2.1 -21.5 -2.2 -21.4 -2.35 -21.4 L-2.55 -21.5 -2.6 -21.6 M-10.1 -18.4 Q-10.3 -18.4 -10.35 -18.55 -10.4 -18.6 -10.4 -18.7 -10.4 -18.95 -10.05 -19.0 -9.75 -19.05 -9.75 -18.8 -9.75 -18.7 -9.9 -18.55 -10.05 -18.4 -10.1 -18.4 M-3.15 -20.2 L-3.3 -20.0 Q-3.35 -19.95 -3.5 -19.95 -3.7 -19.95 -3.75 -20.05 L-3.8 -20.2 -3.8 -20.3 -3.75 -20.35 Q-3.3 -20.4 -3.15 -20.2" fill="#262626" fill-rule="evenodd" stroke="none"/>
    <path d="M7.6 -30.9 L7.75 -31.05 Q8.0 -31.3 8.35 -31.3 8.7 -31.25 8.9 -31.0 9.2 -30.7 9.15 -30.2 8.85 -29.95 8.5 -29.95 7.95 -29.95 7.7 -30.55 7.65 -30.75 7.6 -30.9 M8.1 -30.65 Q8.2 -30.45 8.5 -30.45 8.65 -30.45 8.7 -30.55 8.8 -30.65 8.8 -30.8 8.8 -31.15 8.4 -31.2 8.05 -31.25 8.05 -30.9 8.05 -30.75 8.1 -30.65 M11.45 -18.4 L11.95 -17.9 12.1 -17.7 12.15 -17.5 12.2 -16.95 12.2 -17.05 Q12.15 -16.05 11.85 -14.95 L11.75 -14.8 11.55 -14.55 Q10.7 -13.7 9.25 -13.7 7.85 -13.7 7.25 -15.1 7.1 -15.5 6.9 -16.8 L7.0 -16.85 Q7.2 -16.8 7.3 -16.7 7.2 -16.6 7.2 -16.5 7.2 -16.15 7.4 -15.7 7.4 -15.2 7.65 -14.8 8.2 -13.95 9.55 -13.95 9.9 -13.95 10.35 -14.2 L10.4 -14.2 Q10.95 -14.45 11.3 -15.0 11.8 -15.7 11.8 -16.4 L11.8 -16.5 Q11.9 -16.8 11.9 -17.05 11.9 -17.6 11.65 -17.9 11.55 -18.0 11.3 -18.1 L11.2 -18.35 11.45 -18.4 M7.95 -25.95 Q8.2 -26.1 8.5 -26.1 8.85 -26.05 9.05 -25.8 9.3 -25.55 9.3 -25.15 9.0 -24.95 8.6 -24.95 8.1 -24.95 8.0 -25.35 L7.95 -25.95 M8.85 -25.4 Q8.9 -25.5 8.9 -25.6 8.9 -25.95 8.6 -25.95 8.25 -26.0 8.25 -25.7 8.25 -25.6 8.35 -25.45 8.4 -25.3 8.65 -25.3 8.75 -25.3 8.85 -25.4 M9.05 -20.9 Q8.7 -20.95 8.7 -20.65 8.7 -20.55 8.75 -20.5 8.85 -20.3 9.1 -20.3 9.2 -20.3 9.3 -20.35 9.45 -20.45 9.45 -20.6 9.45 -20.85 9.05 -20.9 M8.4 -20.8 Q8.65 -21.0 9.0 -21.0 9.35 -20.95 9.55 -20.7 9.8 -20.45 9.8 -20.05 9.5 -19.8 9.1 -19.8 8.75 -19.8 8.5 -20.35 8.4 -20.6 8.4 -20.8 M-1.9 -11.65 L-1.7 -11.75 Q-1.55 -11.75 -1.45 -11.5 L-1.35 -11.25 -1.3 -11.45 -1.45 -11.05 -1.55 -10.85 -2.0 -10.5 Q-2.7 -10.05 -2.9 -10.05 -4.1 -10.05 -4.7 -10.9 -5.15 -11.55 -5.15 -12.25 -5.15 -12.4 -5.05 -12.3 -4.95 -12.25 -4.75 -12.05 -4.7 -11.75 -4.65 -11.55 L-4.7 -11.6 Q-4.8 -11.6 -4.8 -11.4 -4.6 -11.15 -4.3 -10.85 -3.65 -10.35 -3.1 -10.35 -2.85 -10.35 -2.55 -10.55 -2.3 -10.75 -2.3 -10.95 L-2.1 -11.2 Q-1.95 -11.4 -1.9 -11.65" fill="#a2b2bf" fill-rule="evenodd" stroke="none"/>
    <path d="M1.1 -20.4 Q1.0 -19.55 0.8 -18.75 L1.1 -20.4 M0.6 -18.0 L0.5 -17.6 0.5 -17.65 0.6 -18.0 M5.5 -30.5 L5.8 -31.15 6.05 -31.15 6.3 -31.2 6.5 -31.2 6.45 -30.85 Q6.35 -30.8 6.35 -30.75 L6.35 -30.7 Q6.05 -30.7 5.6 -30.5 L5.5 -30.5 M6.4 -29.55 L5.45 -29.1 Q5.3 -29.65 5.3 -30.15 L6.45 -30.65 6.45 -30.6 6.4 -29.65 6.4 -29.55 M9.15 -30.2 Q9.15 -29.9 9.0 -29.7 8.75 -29.4 8.35 -29.4 7.8 -29.45 7.55 -29.85 7.45 -30.05 7.45 -30.35 L7.45 -30.55 7.5 -30.6 7.5 -30.65 Q7.55 -30.8 7.6 -30.9 7.65 -30.75 7.7 -30.55 7.95 -29.95 8.5 -29.95 8.85 -29.95 9.15 -30.2 M5.9 -28.45 Q6.1 -28.5 6.3 -28.6 L6.25 -27.6 Q6.15 -28.05 5.9 -28.45 M11.55 -14.55 Q10.75 -13.5 9.2 -13.5 7.65 -13.5 7.0 -15.05 6.65 -15.9 6.65 -16.8 6.65 -17.1 7.15 -17.25 L7.35 -17.3 7.45 -16.85 7.3 -16.7 Q7.2 -16.8 7.0 -16.85 L6.9 -16.8 Q7.1 -15.5 7.25 -15.1 7.85 -13.7 9.25 -13.7 10.7 -13.7 11.55 -14.55 M11.8 -16.5 Q11.8 -17.0 11.45 -17.6 L11.35 -17.8 11.3 -18.0 11.3 -18.1 Q11.55 -18.0 11.65 -17.9 11.9 -17.6 11.9 -17.05 11.9 -16.8 11.8 -16.5 M7.95 -25.95 L8.0 -25.35 Q8.1 -24.95 8.6 -24.95 9.0 -24.95 9.3 -25.15 L9.3 -25.0 Q9.3 -24.7 9.15 -24.5 8.9 -24.2 8.5 -24.2 7.95 -24.25 7.7 -24.65 7.6 -24.85 7.6 -25.15 7.6 -25.6 7.9 -25.85 L7.9 -25.9 7.95 -25.95 M5.15 -23.8 L4.75 -23.6 Q4.5 -23.5 3.05 -22.95 L3.2 -23.1 Q4.0 -23.9 4.8 -24.2 5.3 -24.4 6.25 -25.15 L6.4 -25.3 6.45 -24.65 Q6.0 -24.35 5.15 -23.8 M1.9 -21.7 Q2.7 -22.25 4.0 -22.9 5.6 -23.75 5.9 -23.9 6.25 -24.1 6.45 -24.3 L6.55 -23.25 6.2 -23.05 Q5.65 -22.75 2.2 -20.65 L2.2 -20.7 Q1.9 -21.15 1.9 -21.6 L1.9 -21.7 M6.7 -21.9 L6.7 -21.95 5.5 -21.35 3.5 -20.25 Q2.15 -19.5 2.15 -19.05 L2.15 -18.15 Q2.15 -17.95 1.95 -17.0 1.9 -16.7 1.1 -16.0 L0.95 -15.85 Q0.9 -16.0 0.85 -16.1 1.45 -16.45 1.6 -17.35 L1.7 -18.55 Q1.75 -19.2 1.9 -19.45 2.05 -19.7 2.95 -20.2 4.2 -20.85 4.45 -21.0 L5.9 -22.0 6.65 -22.5 6.7 -21.9 M9.8 -20.05 L9.8 -19.95 Q9.8 -19.65 9.65 -19.4 9.4 -19.1 9.0 -19.15 8.4 -19.15 8.2 -19.55 8.1 -19.75 8.1 -20.05 8.1 -20.5 8.4 -20.8 8.4 -20.6 8.5 -20.35 8.75 -19.8 9.1 -19.8 9.5 -19.8 9.8 -20.05 M-1.9 -11.65 Q-1.85 -11.85 -1.8 -12.1 L-1.8 -12.35 -1.15 -12.2 -1.15 -12.0 -1.3 -11.45 -1.35 -11.25 -1.45 -11.5 Q-1.55 -11.75 -1.7 -11.75 L-1.9 -11.65 M-1.55 -10.85 L-1.6 -10.8 -2.6 -9.95 -2.7 -9.95 -3.1 -9.85 -3.3 -9.85 Q-4.35 -9.85 -5.0 -10.65 -5.5 -11.3 -5.5 -11.95 -5.5 -12.3 -5.3 -12.7 L-5.15 -13.0 -4.65 -12.95 Q-4.8 -12.75 -4.8 -12.5 L-4.75 -12.05 Q-4.95 -12.25 -5.05 -12.3 -5.15 -12.4 -5.15 -12.25 -5.15 -11.55 -4.7 -10.9 -4.1 -10.05 -2.9 -10.05 -2.7 -10.05 -2.0 -10.5 L-1.55 -10.85" fill="#6c7680" fill-rule="evenodd" stroke="none"/>
    <path d="M8.1 -30.65 Q8.05 -30.75 8.05 -30.9 8.05 -31.25 8.4 -31.2 8.8 -31.15 8.8 -30.8 8.8 -30.65 8.7 -30.55 8.65 -30.45 8.5 -30.45 8.2 -30.45 8.1 -30.65 M11.45 -18.4 L11.8 -18.45 Q12.0 -18.45 12.1 -17.7 L11.95 -17.9 11.45 -18.4 M12.2 -16.95 L12.25 -16.55 12.25 -16.5 Q12.25 -15.7 11.85 -14.95 12.15 -16.05 12.2 -17.05 L12.2 -16.95 M7.4 -15.7 Q7.5 -15.5 7.65 -15.2 8.3 -14.05 9.5 -14.05 10.0 -14.05 10.4 -14.2 L10.35 -14.2 Q9.9 -13.95 9.55 -13.95 8.2 -13.95 7.65 -14.8 7.4 -15.2 7.4 -15.7 M8.85 -25.4 Q8.75 -25.3 8.65 -25.3 8.4 -25.3 8.35 -25.45 8.25 -25.6 8.25 -25.7 8.25 -26.0 8.6 -25.95 8.9 -25.95 8.9 -25.6 8.9 -25.5 8.85 -25.4 M9.05 -20.9 Q9.45 -20.85 9.45 -20.6 9.45 -20.45 9.3 -20.35 9.2 -20.3 9.1 -20.3 8.85 -20.3 8.75 -20.5 8.7 -20.55 8.7 -20.65 8.7 -20.95 9.05 -20.9 M-4.65 -11.55 L-4.6 -11.4 Q-4.25 -10.55 -3.4 -10.55 -2.7 -10.55 -2.3 -10.95 -2.3 -10.75 -2.55 -10.55 -2.85 -10.35 -3.1 -10.35 -3.65 -10.35 -4.3 -10.85 -4.6 -11.15 -4.8 -11.4 -4.8 -11.6 -4.7 -11.6 L-4.65 -11.55" fill="#f2f2f2" fill-rule="evenodd" stroke="none"/>
    <path d="M5.5 -30.5 L5.3 -30.4 Q5.0 -30.3 4.75 -30.15 L4.7 -30.35 4.7 -30.45 4.75 -30.45 5.15 -30.85 Q5.35 -31.0 5.6 -31.1 L5.8 -31.15 5.5 -30.5 M5.3 -30.15 Q5.3 -29.65 5.45 -29.1 L6.4 -29.55 6.35 -29.0 5.95 -28.85 5.7 -28.7 5.6 -28.85 5.0 -29.6 Q4.85 -29.8 4.8 -29.95 L5.3 -30.15 M6.4 -25.3 L6.25 -25.15 Q5.3 -24.4 4.8 -24.2 4.0 -23.9 3.2 -23.1 L3.05 -22.95 Q4.5 -23.5 4.75 -23.6 L5.15 -23.8 Q4.25 -23.1 3.55 -22.8 2.25 -22.15 1.7 -21.85 L1.7 -22.4 Q2.05 -22.85 2.45 -23.2 L2.85 -23.5 Q3.2 -23.75 3.7 -24.0 4.55 -24.4 4.95 -24.6 5.7 -24.95 6.05 -25.4 6.3 -25.55 6.35 -25.7 L6.4 -25.3 M1.9 -21.7 L1.9 -21.6 Q1.9 -21.15 2.2 -20.7 L2.2 -20.65 Q5.65 -22.75 6.2 -23.05 L6.55 -23.25 6.6 -22.7 5.75 -22.1 4.4 -21.25 Q3.95 -21.0 2.85 -20.45 1.95 -20.0 1.75 -19.65 1.5 -19.3 1.45 -18.7 1.45 -18.05 1.4 -17.7 1.25 -16.8 0.5 -16.25 L0.65 -16.75 Q0.9 -17.4 1.1 -18.1 1.4 -19.05 1.4 -19.55 L1.4 -19.7 Q1.6 -20.65 1.65 -21.55 1.8 -21.65 1.9 -21.7 M6.7 -21.9 L6.7 -21.85 6.75 -21.5 6.8 -20.7 6.2 -20.2 Q5.45 -19.6 4.75 -19.3 4.3 -19.1 3.95 -18.9 3.0 -18.7 2.8 -17.9 2.75 -17.65 2.75 -17.1 2.75 -16.55 2.7 -16.35 2.5 -15.65 1.8 -14.95 0.85 -14.0 -0.5 -14.0 -0.6 -14.0 -0.9 -14.15 -0.7 -14.35 -0.55 -14.55 L-0.4 -14.75 Q-0.15 -15.0 0.05 -15.3 L0.35 -15.9 Q0.65 -15.95 0.85 -16.1 0.9 -16.0 0.95 -15.85 L1.1 -16.0 Q1.9 -16.7 1.95 -17.0 2.15 -17.95 2.15 -18.15 L2.15 -19.05 Q2.15 -19.5 3.5 -20.25 L5.5 -21.35 6.7 -21.95 6.7 -21.9" fill="#41474d" fill-rule="evenodd" stroke="none"/>
  </g>
</svg>
