<?xml version="1.0" encoding="UTF-8" standalone="no"?>
<svg xmlns:ffdec="https://www.free-decompiler.com/flash" xmlns:xlink="http://www.w3.org/1999/xlink" ffdec:objectType="shape" height="65.15px" width="61.8px" xmlns="http://www.w3.org/2000/svg">
  <g transform="matrix(1.0, 0.0, 0.0, 1.0, 15.1, 16.0)">
    <path d="M7.8 -15.4 Q8.25 -15.6 9.15 -15.75 9.85 -15.95 10.35 -15.9 L12.85 -16.0 Q17.8 -13.65 20.9 -10.2 23.4 -7.5 25.25 -3.4 26.0 -1.65 27.25 1.4 28.8 4.5 32.2 8.4 34.65 11.2 40.1 17.0 44.1 21.4 45.5 25.55 46.7 28.9 46.7 33.9 L46.7 35.5 Q46.65 36.95 46.5 37.75 L46.1 39.6 Q45.75 40.65 45.05 40.95 L44.95 41.5 44.85 41.5 44.9 41.0 44.85 41.05 Q44.9 40.6 44.9 40.25 44.75 34.35 42.05 28.05 L41.7 27.95 Q39.85 27.95 38.9 29.45 38.75 29.75 38.6 30.1 L38.85 30.95 Q39.05 31.15 39.25 31.7 39.4 32.15 39.45 32.6 39.45 33.35 39.2 34.3 38.85 35.6 38.2 36.65 36.3 39.6 32.3 39.6 29.35 39.6 27.6 37.3 26.55 35.95 26.25 34.5 L26.1 33.8 26.0 33.9 25.55 33.2 Q25.15 32.6 24.65 32.15 23.0 30.7 19.95 30.7 L18.45 30.8 18.2 30.9 18.4 31.45 Q18.55 31.6 18.55 31.85 L18.6 32.0 18.65 32.35 Q18.65 33.0 18.6 33.3 18.5 33.55 18.35 33.7 L18.2 34.1 Q17.75 35.2 16.9 36.1 14.6 38.5 10.4 38.5 7.75 38.5 5.6 37.85 4.1 37.4 2.4 36.4 0.25 35.15 -0.2 34.95 -1.65 34.3 -3.2 34.3 -5.6 34.3 -6.6 35.4 -6.9 35.75 -7.1 36.2 L-7.15 36.3 Q-7.0 37.7 -7.0 38.4 -7.0 38.75 -7.25 39.55 -7.5 40.5 -7.95 41.35 -9.2 43.75 -11.15 43.75 -11.35 43.75 -11.65 43.6 L-11.95 43.45 -12.05 43.45 Q-12.1 43.45 -12.1 43.65 L-12.05 43.95 -11.3 46.5 Q-10.75 48.3 -10.75 48.5 -10.75 48.7 -10.8 48.85 L-10.95 49.1 -11.15 49.15 Q-11.85 49.15 -12.45 47.45 L-12.6 47.05 Q-13.1 46.1 -13.4 45.1 -13.9 43.5 -14.1 41.55 -14.15 41.05 -14.6 38.1 -14.85 36.2 -14.9 34.8 -14.95 33.95 -14.95 33.4 L-15.05 32.5 -15.1 31.4 -15.1 30.4 -15.0 29.15 -15.0 23.5 Q-14.65 17.55 -13.4 12.1 -12.05 5.95 -9.6 0.85 -8.2 -2.05 -5.9 -4.85 -3.45 -7.8 -0.75 -9.75 3.95 -13.15 5.8 -14.25 L7.1 -14.95 Q7.45 -15.25 7.8 -15.4 M37.75 34.8 L37.85 34.65 Q38.15 33.85 38.25 32.9 37.55 30.85 36.3 28.35 35.4 26.55 33.35 23.05 31.35 19.5 30.45 17.8 29.0 14.9 28.3 12.65 L28.4 12.65 Q29.45 14.75 31.45 18.0 L34.95 23.55 Q36.95 26.7 37.85 28.5 L38.0 28.8 Q38.15 28.45 38.45 28.1 39.15 27.3 40.2 26.95 40.9 26.7 41.5 26.75 L40.4 24.6 Q37.3 18.6 32.15 12.5 29.95 9.95 27.95 5.55 27.35 4.2 26.4 1.85 L24.95 -1.6 Q22.95 -6.1 20.85 -8.75 17.45 -13.05 12.75 -14.55 L11.3 -14.7 10.25 -14.8 Q9.45 -14.8 8.2 -14.45 7.05 -13.85 5.45 -12.85 1.05 -10.2 -1.0 -8.3 -3.65 -5.95 -5.75 -3.45 -8.25 -0.45 -9.25 2.0 -11.45 7.4 -12.75 12.9 -13.75 17.25 -14.1 21.5 -14.05 27.05 -13.7 31.8 -13.3 37.25 -12.5 42.15 -12.25 42.0 -11.95 42.0 -11.75 42.0 -11.55 42.15 L-11.25 42.25 -11.15 42.3 Q-9.25 42.3 -8.4 39.85 -8.15 39.1 -8.05 38.15 -7.95 37.6 -7.95 37.25 L-8.1 35.35 -8.2 33.45 Q-8.2 29.6 -7.15 22.75 -6.05 15.3 -4.95 13.9 L-4.9 14.0 -4.9 14.25 Q-4.9 14.65 -5.3 17.0 L-6.15 22.3 Q-7.35 30.2 -7.35 33.45 -7.35 34.05 -7.3 35.05 -7.1 34.75 -6.85 34.45 -5.65 33.05 -3.25 33.05 -1.45 33.05 0.0 33.7 0.6 33.9 2.5 35.1 4.05 36.05 5.5 36.45 7.55 37.1 10.4 37.1 L10.8 37.1 12.1 37.05 12.15 37.0 Q15.75 36.6 17.2 34.45 17.5 34.0 17.7 33.45 17.65 33.3 17.65 33.15 L17.75 32.45 Q17.75 32.25 16.1 28.0 14.4 23.55 14.1 21.95 L14.0 21.5 Q13.7 19.55 13.4 16.75 L13.2 14.3 12.9 11.5 12.9 10.1 13.0 10.1 Q13.5 16.05 14.75 21.3 15.05 22.55 16.9 27.45 L17.85 29.9 Q18.2 29.55 18.95 29.45 20.2 29.25 22.0 29.7 23.85 30.2 25.05 31.05 L25.45 31.35 Q25.05 29.85 24.6 28.6 23.35 24.75 22.65 22.8 21.4 19.45 19.75 17.0 L19.9 16.95 Q23.3 21.2 25.25 27.7 L26.55 32.15 Q27.25 34.25 27.85 35.35 28.6 36.7 29.6 37.3 30.65 37.95 32.3 37.95 33.7 37.95 34.8 37.55 L37.75 34.85 37.75 34.8 M31.25 8.9 Q30.05 7.5 29.15 6.0 30.45 8.75 31.95 10.65 33.5 12.65 37.3 17.35 40.6 21.6 41.8 24.45 42.3 25.6 43.75 30.9 45.05 35.6 45.35 37.45 L45.4 37.2 Q45.85 35.45 45.85 34.0 45.85 27.65 43.4 22.85 41.65 19.45 37.7 15.5 L34.45 12.3 Q32.5 10.4 31.25 8.9" fill="#111111" fill-rule="evenodd" stroke="none"/>
    <path d="M-11.25 42.25 Q-11.3 41.8 -11.3 41.35 -11.3 33.6 -10.0 26.05 -8.25 16.05 -4.85 12.3 L-4.7 12.45 Q-4.65 12.6 -4.65 12.8 L-4.9 14.0 -4.95 13.9 Q-6.05 15.3 -7.15 22.75 -8.2 29.6 -8.2 33.45 L-8.1 35.35 -7.95 37.25 Q-7.95 37.6 -8.05 38.15 -8.15 39.1 -8.4 39.85 -9.25 42.3 -11.15 42.3 L-11.25 42.25 M10.8 37.1 L10.7 37.1 10.7 36.55 Q10.7 35.35 10.8 33.95 L10.85 32.8 Q10.85 31.75 10.65 30.75 10.6 30.3 10.25 28.95 9.6 26.55 9.6 24.15 9.6 18.9 9.9 16.75 10.4 13.35 12.2 8.85 12.4 8.3 12.4 7.95 L12.5 7.95 12.45 8.15 Q12.4 8.35 12.4 8.5 12.4 9.3 13.2 14.3 L13.4 16.75 Q13.7 19.55 14.0 21.5 L14.1 21.95 Q14.4 23.55 16.1 28.0 17.75 32.25 17.75 32.45 L17.65 33.15 Q17.65 33.3 17.7 33.45 17.5 34.0 17.2 34.45 15.75 36.6 12.15 37.0 L12.1 37.05 10.8 37.1 M34.8 37.55 L34.5 36.85 Q33.65 34.55 32.75 31.65 30.2 23.7 29.75 19.35 L29.85 19.35 Q30.85 21.8 32.6 25.1 L35.65 30.5 Q37.0 33.05 37.75 34.8 L37.75 34.85 34.8 37.55 M31.25 8.9 Q32.5 10.4 34.45 12.3 L37.7 15.5 Q41.65 19.45 43.4 22.85 45.85 27.65 45.85 34.0 45.85 35.45 45.4 37.2 L45.35 37.45 Q45.05 35.6 43.75 30.9 42.3 25.6 41.8 24.45 40.6 21.6 37.3 17.35 33.5 12.65 31.95 10.65 30.45 8.75 29.15 6.0 30.05 7.5 31.25 8.9" fill="#363636" fill-rule="evenodd" stroke="none"/>
    <path d="M-11.25 42.25 L-11.55 42.15 Q-11.75 42.0 -11.95 42.0 -12.25 42.0 -12.5 42.15 -13.3 37.25 -13.7 31.8 -14.05 27.05 -14.1 21.5 -13.75 17.25 -12.75 12.9 -11.45 7.4 -9.25 2.0 -8.25 -0.45 -5.75 -3.45 -3.65 -5.95 -1.0 -8.3 1.05 -10.2 5.45 -12.85 7.05 -13.85 8.2 -14.45 9.45 -14.8 10.25 -14.8 L11.3 -14.7 12.75 -14.55 Q17.45 -13.05 20.85 -8.75 22.95 -6.1 24.95 -1.6 L26.4 1.85 Q27.35 4.2 27.95 5.55 29.95 9.95 32.15 12.5 37.3 18.6 40.4 24.6 L41.5 26.75 Q40.9 26.7 40.2 26.95 39.15 27.3 38.45 28.1 38.15 28.45 38.0 28.8 L37.85 28.5 Q36.95 26.7 34.95 23.55 L31.45 18.0 Q29.45 14.75 28.4 12.65 L28.3 12.65 Q29.0 14.9 30.45 17.8 31.35 19.5 33.35 23.05 35.4 26.55 36.3 28.35 37.55 30.85 38.25 32.9 38.15 33.85 37.85 34.65 L37.75 34.8 Q37.0 33.05 35.65 30.5 L32.6 25.1 Q30.85 21.8 29.85 19.35 L29.75 19.35 Q30.2 23.7 32.75 31.65 33.65 34.55 34.5 36.85 L34.8 37.55 Q33.7 37.95 32.3 37.95 30.65 37.95 29.6 37.3 28.6 36.7 27.85 35.35 27.25 34.25 26.55 32.15 L25.25 27.7 Q23.3 21.2 19.9 16.95 L19.75 17.0 Q21.4 19.45 22.65 22.8 23.35 24.75 24.6 28.6 25.05 29.85 25.45 31.35 L25.05 31.05 Q23.85 30.2 22.0 29.7 20.2 29.25 18.95 29.45 18.2 29.55 17.85 29.9 L16.9 27.45 Q15.05 22.55 14.75 21.3 13.5 16.05 13.0 10.1 L12.9 10.1 12.9 11.5 13.2 14.3 Q12.4 9.3 12.4 8.5 12.4 8.35 12.45 8.15 L12.5 7.95 12.4 7.95 Q12.4 8.3 12.2 8.85 10.4 13.35 9.9 16.75 9.6 18.9 9.6 24.15 9.6 26.55 10.25 28.95 10.6 30.3 10.65 30.75 10.85 31.75 10.85 32.8 L10.8 33.95 Q10.7 35.35 10.7 36.55 L10.7 37.1 10.8 37.1 10.4 37.1 Q7.55 37.1 5.5 36.45 4.05 36.05 2.5 35.1 0.6 33.9 0.0 33.7 -1.45 33.05 -3.25 33.05 -5.65 33.05 -6.85 34.45 -7.1 34.75 -7.3 35.05 -7.35 34.05 -7.35 33.45 -7.35 30.2 -6.15 22.3 L-5.3 17.0 Q-4.9 14.65 -4.9 14.25 L-4.9 14.0 -4.65 12.8 Q-4.65 12.6 -4.7 12.45 L-4.85 12.3 Q-8.25 16.05 -10.0 26.05 -11.3 33.6 -11.3 41.35 -11.3 41.8 -11.25 42.25" fill="#262626" fill-rule="evenodd" stroke="none"/>
  </g>
</svg>
