<?xml version="1.0" encoding="UTF-8" standalone="no"?>
<svg xmlns:ffdec="https://www.free-decompiler.com/flash" xmlns:xlink="http://www.w3.org/1999/xlink" ffdec:objectType="shape" height="64.0px" width="61.05px" xmlns="http://www.w3.org/2000/svg">
  <g transform="matrix(1.0, 0.0, 0.0, 1.0, 10.95, 15.9)">
    <path d="M39.35 28.0 Q38.3 26.5 35.75 24.2 32.85 21.55 31.65 19.8 29.55 16.9 29.0 13.1 L29.05 13.1 Q30.35 16.25 32.75 19.15 33.75 20.3 37.1 23.7 39.0 25.6 40.1 27.05 40.0 26.45 40.0 25.95 40.0 23.05 41.0 21.3 41.8 19.85 43.1 19.55 44.15 19.3 45.0 19.8 41.6 12.7 34.6 7.95 31.05 5.5 28.2 1.7 27.2 0.35 26.0 -1.65 L24.0 -4.9 22.1 -8.1 Q20.8 -10.2 19.5 -11.5 16.3 -14.7 11.7 -14.95 8.3 -14.4 3.5 -10.8 1.6 -9.4 -0.25 -7.75 -1.6 -6.5 -1.9 -6.1 -6.1 -1.1 -7.65 5.0 -9.6 12.7 -9.95 16.9 -10.1 18.8 -10.1 21.5 L-10.1 27.35 Q-10.1 33.15 -9.15 40.6 L-8.9 42.7 Q-8.65 41.9 -8.15 41.1 -7.8 40.55 -6.25 38.8 L-6.1 38.65 Q-4.9 37.25 -4.35 36.15 -3.5 34.4 -3.5 32.35 -3.5 31.45 -3.8 30.05 L-4.4 27.15 Q-5.3 23.2 -5.35 19.9 L-5.35 19.45 Q-5.25 14.9 -5.0 13.4 L-4.95 13.4 -5.05 14.6 -5.1 15.45 Q-5.1 18.6 -3.8 25.8 L-3.1 29.7 Q-2.85 29.2 -2.4 28.75 -1.45 27.9 -0.1 27.75 1.35 27.55 2.65 28.3 4.15 29.2 5.05 31.15 L5.55 32.3 Q6.15 33.7 6.9 34.8 9.3 38.35 12.2 38.35 13.6 38.35 15.0 37.65 L15.35 37.45 16.3 36.85 16.45 36.7 16.6 36.6 17.25 36.05 Q18.05 35.3 18.75 34.4 19.25 33.75 19.4 33.5 19.6 33.0 19.85 32.1 L20.0 31.7 20.0 31.6 20.05 31.35 20.15 30.8 20.35 30.0 Q20.35 29.5 18.3 23.65 L18.3 23.6 17.95 22.6 17.8 22.25 Q15.8 16.4 15.35 14.8 L15.4 14.8 Q15.8 15.85 18.85 23.25 L20.4 27.05 Q20.5 26.05 21.25 25.2 22.05 24.25 23.25 23.75 24.3 23.3 25.1 23.4 24.55 22.0 23.7 20.65 22.9 19.5 21.95 18.45 L21.2 17.65 Q21.2 17.45 21.2 17.5 L21.25 17.65 21.25 17.6 Q24.2 18.7 26.0 22.25 26.75 23.75 27.1 25.35 27.4 26.9 27.2 28.15 26.3 33.8 28.65 36.4 30.55 38.55 34.5 38.55 36.45 38.55 38.0 37.55 38.65 37.1 39.2 36.5 L39.7 35.9 Q40.5 34.95 40.95 33.75 L41.15 33.15 Q40.95 30.4 39.5 28.25 L39.5 28.2 39.45 28.1 39.35 28.0 M22.45 -9.4 Q23.6 -7.75 24.25 -6.45 24.8 -5.55 26.25 -3.1 27.5 -0.9 28.4 0.4 31.2 4.45 34.9 6.7 36.15 7.45 37.35 8.45 44.25 12.05 47.3 17.0 48.85 19.6 49.55 22.85 50.1 25.6 50.1 29.15 50.1 31.1 50.05 31.45 49.95 32.25 49.15 34.1 L49.05 34.15 49.05 34.0 49.0 34.05 Q48.0 28.9 47.65 27.5 46.95 24.6 46.05 22.25 45.75 21.9 45.4 21.6 44.6 20.95 43.75 20.95 41.4 20.95 40.95 24.75 40.75 26.5 40.95 28.45 42.15 30.6 42.2 33.05 42.25 33.3 42.25 33.65 42.25 34.05 41.75 35.05 41.15 36.25 40.3 37.25 37.75 40.2 34.5 40.2 27.8 40.2 26.35 35.1 25.9 33.5 26.0 31.4 L26.2 29.25 Q26.2 27.1 25.65 25.15 L25.5 25.15 Q25.35 25.15 24.95 25.0 24.5 24.85 24.35 24.85 22.35 24.85 21.65 26.5 21.3 27.3 21.3 28.35 L21.45 28.75 Q21.65 29.3 21.65 29.6 21.65 30.45 21.25 31.9 20.7 33.85 19.75 35.45 17.05 40.15 12.2 40.15 9.8 40.15 8.1 38.4 6.95 37.25 5.65 34.6 4.15 31.6 3.5 30.75 2.15 29.0 0.35 29.0 -1.3 29.0 -2.2 30.0 -2.65 30.45 -2.85 31.0 L-2.55 32.55 Q-2.55 34.95 -3.45 36.65 -3.9 37.5 -5.4 39.3 -6.75 40.9 -7.35 42.3 -8.15 44.15 -8.3 46.65 L-8.2 47.4 Q-8.2 47.75 -8.25 47.95 L-8.35 48.0 -8.5 48.1 Q-9.85 43.6 -10.5 36.95 -10.95 31.8 -10.95 25.55 -10.95 19.1 -10.35 14.55 -9.75 9.95 -8.0 2.85 -7.1 -0.75 -4.4 -4.6 -1.85 -8.25 1.55 -11.1 4.95 -14.0 8.05 -15.15 10.3 -16.0 11.95 -15.75 15.35 -16.55 19.15 -13.15 20.85 -11.6 22.45 -9.4 M46.5 17.95 Q44.45 14.65 40.15 11.15 L40.85 12.0 Q43.45 15.1 45.4 19.1 47.25 22.85 48.3 26.65 48.9 28.85 49.15 30.8 L49.25 29.45 Q49.25 25.95 48.7 23.35 48.05 20.45 46.5 17.95" fill="#111111" fill-rule="evenodd" stroke="none"/>
    <path d="M-6.1 38.65 Q-5.65 33.55 -5.65 32.7 L-5.9 26.8 Q-5.9 25.7 -5.65 22.65 -5.45 20.8 -5.35 19.9 -5.3 23.2 -4.4 27.15 L-3.8 30.05 Q-3.5 31.45 -3.5 32.35 -3.5 34.4 -4.35 36.15 -4.9 37.25 -6.1 38.65 M15.35 37.45 L15.25 37.5 15.3 36.2 Q15.3 32.8 13.6 27.5 12.65 24.45 12.45 23.75 11.95 21.8 11.95 20.5 11.95 19.2 12.2 17.75 12.55 16.0 12.7 14.8 L12.75 14.8 12.7 15.85 Q12.95 17.2 14.95 19.2 L16.75 21.05 Q17.4 21.7 17.8 22.25 L17.95 22.6 18.3 23.6 18.3 23.65 Q20.35 29.5 20.35 30.0 L20.15 30.8 20.05 31.35 20.0 31.6 20.0 31.7 19.85 32.1 Q19.6 33.0 19.4 33.5 19.25 33.75 18.75 34.4 18.05 35.3 17.25 36.05 L16.6 36.6 16.45 36.7 16.3 36.85 15.35 37.45 M38.0 37.55 Q37.3 35.45 36.0 33.8 35.15 32.65 33.8 29.95 32.3 26.85 32.3 25.65 L32.35 23.55 32.45 23.55 Q32.5 24.55 32.85 25.35 33.35 26.4 34.3 26.7 L37.0 27.3 Q38.6 27.65 39.35 28.0 L39.45 28.1 39.5 28.2 39.5 28.25 Q40.95 30.4 41.15 33.15 L40.95 33.75 Q40.5 34.95 39.7 35.9 L39.2 36.5 Q38.65 37.1 38.0 37.55 M46.5 17.95 Q48.05 20.45 48.7 23.35 49.25 25.95 49.25 29.45 L49.15 30.8 Q48.9 28.85 48.3 26.65 47.25 22.85 45.4 19.1 43.45 15.1 40.85 12.0 L40.15 11.15 Q44.45 14.65 46.5 17.95" fill="#363636" fill-rule="evenodd" stroke="none"/>
    <path d="M-6.1 38.65 L-6.25 38.8 Q-7.8 40.55 -8.15 41.1 -8.65 41.9 -8.9 42.7 L-9.15 40.6 Q-10.1 33.15 -10.1 27.35 L-10.1 21.5 Q-10.1 18.8 -9.95 16.9 -9.6 12.7 -7.65 5.0 -6.1 -1.1 -1.9 -6.1 -1.6 -6.5 -0.25 -7.75 1.6 -9.4 3.5 -10.8 8.3 -14.4 11.7 -14.95 16.3 -14.7 19.5 -11.5 20.8 -10.2 22.1 -8.1 L24.0 -4.9 26.0 -1.65 Q27.2 0.35 28.2 1.7 31.05 5.5 34.6 7.95 41.6 12.7 45.0 19.8 44.15 19.3 43.1 19.55 41.8 19.85 41.0 21.3 40.0 23.05 40.0 25.95 40.0 26.45 40.1 27.05 39.0 25.6 37.1 23.7 33.75 20.3 32.75 19.15 30.35 16.25 29.05 13.1 L29.0 13.1 Q29.55 16.9 31.65 19.8 32.85 21.55 35.75 24.2 38.3 26.5 39.35 28.0 38.6 27.65 37.0 27.3 L34.3 26.7 Q33.35 26.4 32.85 25.35 32.5 24.55 32.45 23.55 L32.35 23.55 32.3 25.65 Q32.3 26.85 33.8 29.95 35.15 32.65 36.0 33.8 37.3 35.45 38.0 37.55 36.45 38.55 34.5 38.55 30.55 38.55 28.65 36.4 26.3 33.8 27.2 28.15 27.4 26.9 27.1 25.35 26.75 23.75 26.0 22.25 24.2 18.7 21.25 17.6 L21.25 17.65 21.2 17.5 Q21.2 17.45 21.2 17.65 L21.95 18.45 Q22.9 19.5 23.7 20.65 24.55 22.0 25.1 23.4 24.3 23.3 23.25 23.75 22.05 24.25 21.25 25.2 20.5 26.05 20.4 27.05 L18.85 23.25 Q15.8 15.85 15.4 14.8 L15.35 14.8 Q15.8 16.4 17.8 22.25 17.4 21.7 16.75 21.05 L14.95 19.2 Q12.95 17.2 12.7 15.85 L12.75 14.8 12.7 14.8 Q12.55 16.0 12.2 17.75 11.95 19.2 11.95 20.5 11.95 21.8 12.45 23.75 12.65 24.45 13.6 27.5 15.3 32.8 15.3 36.2 L15.25 37.5 15.35 37.45 15.0 37.65 Q13.6 38.35 12.2 38.35 9.3 38.35 6.9 34.8 6.15 33.7 5.55 32.3 L5.05 31.15 Q4.15 29.2 2.65 28.3 1.35 27.55 -0.1 27.75 -1.45 27.9 -2.4 28.75 -2.85 29.2 -3.1 29.7 L-3.8 25.8 Q-5.1 18.6 -5.1 15.45 L-5.05 14.6 -4.95 13.4 -5.0 13.4 Q-5.25 14.9 -5.35 19.45 L-5.35 19.9 Q-5.45 20.8 -5.65 22.65 -5.9 25.7 -5.9 26.8 L-5.65 32.7 Q-5.65 33.55 -6.1 38.65" fill="#262626" fill-rule="evenodd" stroke="none"/>
  </g>
</svg>
