<?xml version="1.0" encoding="UTF-8" standalone="no"?>
<svg xmlns:ffdec="https://www.free-decompiler.com/flash" xmlns:xlink="http://www.w3.org/1999/xlink" ffdec:objectType="shape" height="63.95px" width="59.1px" xmlns="http://www.w3.org/2000/svg">
  <g transform="matrix(1.0, 0.0, 0.0, 1.0, 9.65, 16.35)">
    <path d="M11.4 -15.9 Q14.8 -17.45 19.05 -13.8 20.8 -12.35 22.4 -10.25 23.65 -8.55 24.2 -7.45 24.95 -6.4 26.15 -4.5 27.5 -2.3 28.15 -1.45 30.35 1.8 33.05 3.95 42.25 8.35 46.05 14.3 47.95 17.3 48.75 20.95 49.45 24.1 49.45 28.25 49.45 28.6 49.35 29.15 49.2 29.85 49.0 30.0 L49.0 29.95 48.8 30.0 Q48.15 25.35 46.2 21.05 45.75 20.9 45.05 20.4 44.15 19.65 43.85 19.65 L43.15 19.75 41.8 19.9 Q41.25 20.35 40.9 21.45 L40.85 22.0 Q40.6 23.95 40.6 24.5 40.6 25.6 41.1 27.05 L41.55 28.3 41.8 28.7 41.95 28.95 Q42.95 30.5 42.95 31.45 L42.95 31.6 Q43.05 32.2 43.05 32.4 43.05 32.8 42.7 33.5 42.35 35.1 41.2 36.75 40.45 37.8 39.7 38.4 38.9 39.05 38.3 39.05 35.95 38.75 35.35 38.5 L32.65 38.35 29.0 38.15 Q28.4 38.05 27.75 37.45 27.2 36.95 26.9 36.35 26.0 34.55 25.9 34.2 25.75 33.75 25.75 32.5 L26.05 28.5 Q26.05 26.35 25.45 24.35 25.3 24.35 25.15 24.25 24.95 24.15 24.85 24.1 L23.4 24.1 Q22.25 24.9 21.9 26.05 L21.7 27.0 21.6 27.55 Q21.75 28.2 21.75 28.75 L21.7 29.15 21.75 29.4 Q21.75 30.15 21.25 31.6 20.6 33.45 19.55 35.05 16.5 39.55 11.5 39.55 5.95 39.55 4.05 33.0 3.6 31.45 3.4 29.35 L3.0 29.05 Q2.65 28.65 2.4 28.65 -0.15 28.65 -1.4 30.25 -1.8 30.75 -2.05 31.4 L-2.1 31.6 Q-1.95 32.55 -1.95 33.2 -1.95 34.8 -2.7 36.2 -3.2 37.1 -4.45 38.5 -5.7 39.9 -6.15 40.7 -6.65 41.6 -6.85 42.55 -7.15 43.1 -7.25 43.5 L-7.75 45.6 Q-8.0 46.75 -8.25 47.6 -8.65 46.9 -8.75 45.0 L-8.7 43.05 -8.75 42.95 -8.9 38.8 -9.15 34.2 -9.4 29.05 -9.55 23.15 -9.65 19.45 Q-9.65 18.9 -9.55 18.6 L-9.55 13.55 Q-9.95 8.45 -7.5 2.45 -5.25 -3.1 -1.25 -7.8 2.7 -12.5 6.85 -14.6 9.3 -15.85 11.4 -15.9 M38.6 27.1 Q36.75 25.3 33.75 23.1 33.1 22.55 31.0 18.2 28.95 13.9 28.95 13.15 28.95 12.95 29.0 12.6 L29.1 12.0 29.15 12.0 Q29.8 15.05 30.85 17.15 32.15 19.75 34.55 22.0 35.35 22.7 37.6 24.3 39.1 25.35 39.85 26.15 L39.85 26.0 39.9 25.0 Q39.75 24.5 39.75 24.1 39.75 23.25 40.05 21.75 40.35 20.05 40.75 19.3 41.25 18.35 42.35 18.2 43.3 18.05 44.4 18.5 44.75 18.6 45.1 18.8 L44.55 17.8 Q40.6 11.05 33.9 6.4 31.0 4.4 28.35 0.85 27.05 -1.0 24.4 -5.4 23.15 -8.1 21.0 -10.65 17.6 -14.6 13.65 -15.45 7.05 -15.45 0.3 -7.8 -1.95 -5.25 -3.9 -2.2 -5.2 -0.2 -5.8 1.05 -7.6 4.7 -8.35 10.05 -8.85 13.9 -8.85 19.35 -8.85 26.35 -8.2 35.8 L-7.75 41.9 -7.7 42.35 -7.45 41.65 Q-6.95 40.45 -5.65 38.55 L-4.7 37.15 Q-4.05 36.1 -3.75 35.55 -2.9 33.8 -2.9 32.15 -2.9 31.0 -3.25 29.15 L-4.05 25.5 -4.15 25.0 -4.15 24.95 Q-4.95 21.35 -5.15 18.6 L-5.15 18.55 Q-5.2 17.55 -5.2 16.7 L-5.15 15.4 Q-5.05 14.25 -4.9 13.55 L-4.85 13.55 Q-4.55 15.7 -4.25 18.5 L-3.85 23.45 Q-3.75 24.65 -2.8 28.3 -2.55 29.25 -2.35 30.1 L-2.15 29.75 Q-1.75 29.15 -1.1 28.6 0.6 27.15 2.6 27.4 L3.3 27.75 Q3.25 26.8 3.25 25.8 3.25 25.6 3.25 25.55 L3.45 25.55 Q3.65 27.05 3.9 28.4 4.05 28.6 4.0 28.8 4.7 32.4 5.85 34.45 7.85 37.95 11.5 37.95 14.35 37.95 16.4 36.4 17.2 35.75 17.9 34.9 18.5 34.15 19.05 33.2 19.9 31.7 20.4 29.9 L20.45 29.7 20.7 28.55 Q20.55 27.75 20.1 26.7 19.75 25.95 18.7 23.95 17.95 22.7 17.55 21.8 L17.25 21.1 Q16.6 19.45 16.6 18.15 L16.6 17.95 16.7 17.95 17.9 20.6 Q18.65 22.25 19.6 23.45 20.4 24.5 21.0 25.85 21.15 25.25 21.5 24.6 22.3 22.95 23.3 22.55 L24.8 22.65 Q23.65 20.05 21.3 17.55 24.4 19.05 25.8 22.3 26.95 24.9 26.95 28.55 L26.65 32.55 Q26.65 33.35 26.95 34.15 27.3 35.0 27.9 35.7 28.7 36.65 30.0 36.85 L30.85 36.9 32.65 36.9 34.0 36.95 35.3 37.05 Q35.95 37.25 36.6 37.25 L37.55 37.15 38.3 36.95 39.0 36.65 39.15 36.55 Q39.6 36.4 39.95 36.15 41.05 34.95 41.4 34.2 41.8 33.25 41.95 32.7 L41.95 32.5 Q41.9 31.35 41.8 31.05 L41.65 30.6 41.6 30.4 41.45 30.5 Q40.6 29.1 39.25 27.75 L38.6 27.1 M38.15 8.3 L39.3 9.5 Q42.05 12.5 44.25 15.8 46.45 19.05 47.7 22.1 47.05 18.0 45.35 15.25 44.2 13.45 42.35 11.65 40.55 9.85 38.6 8.6 L38.15 8.3" fill="#111111" fill-rule="evenodd" stroke="none"/>
    <path d="M-4.7 37.15 L-4.7 36.25 Q-4.7 33.7 -5.1 30.35 -5.5 27.05 -5.5 23.65 -5.5 22.45 -5.35 20.4 L-5.15 18.55 -5.15 18.6 Q-4.95 21.35 -4.15 24.95 L-4.15 25.0 -4.05 25.5 -3.25 29.15 Q-2.9 31.0 -2.9 32.15 -2.9 33.8 -3.75 35.55 -4.05 36.1 -4.7 37.15 M16.4 36.4 Q16.55 35.35 16.55 34.4 16.55 32.45 15.95 30.65 15.55 29.45 14.65 27.8 13.6 25.85 13.4 25.3 12.8 23.9 12.8 22.6 13.05 18.9 13.45 17.35 L13.45 17.05 Q13.45 16.65 13.65 16.6 L13.7 16.65 13.7 16.75 Q13.8 16.95 13.9 17.3 L14.1 18.15 Q14.45 19.25 15.3 19.95 16.05 20.55 17.15 21.4 L17.5 21.65 17.55 21.8 Q17.95 22.7 18.7 23.95 19.75 25.95 20.1 26.7 20.55 27.75 20.7 28.55 L20.45 29.7 20.4 29.9 Q19.9 31.7 19.05 33.2 18.5 34.15 17.9 34.9 17.2 35.75 16.4 36.4 M30.85 36.9 Q31.0 36.1 31.4 34.8 32.05 32.65 32.25 32.05 32.6 33.3 33.9 36.65 L34.0 36.95 32.65 36.9 30.85 36.9 M37.55 37.15 Q37.25 35.4 37.05 34.85 36.75 34.0 35.75 32.5 L34.3 30.15 Q33.8 29.3 33.45 27.85 L33.4 27.7 Q33.25 27.4 33.1 27.05 32.9 26.55 32.75 25.9 L32.65 25.35 Q32.65 25.25 32.7 25.25 L32.8 25.2 Q33.05 25.8 33.2 26.0 33.4 26.25 33.75 26.35 L34.65 26.45 36.2 26.5 Q37.35 26.6 38.3 26.95 L38.6 27.1 39.25 27.75 Q40.6 29.1 41.45 30.5 L41.6 30.4 41.65 30.6 41.8 31.05 Q41.9 31.35 41.95 32.5 L41.95 32.7 Q41.8 33.25 41.4 34.2 41.05 34.95 39.95 36.15 39.6 36.4 39.15 36.55 L39.0 36.65 38.3 36.95 37.55 37.15 M38.15 8.3 L38.6 8.6 Q40.55 9.85 42.35 11.65 44.2 13.45 45.35 15.25 47.05 18.0 47.7 22.1 46.45 19.05 44.25 15.8 42.05 12.5 39.3 9.5 L38.15 8.3" fill="#363636" fill-rule="evenodd" stroke="none"/>
    <path d="M-4.7 37.15 L-5.65 38.55 Q-6.95 40.45 -7.45 41.65 L-7.7 42.35 -7.75 41.9 -8.2 35.8 Q-8.85 26.35 -8.85 19.35 -8.85 13.9 -8.35 10.05 -7.6 4.7 -5.8 1.05 -5.2 -0.2 -3.9 -2.2 -1.95 -5.25 0.3 -7.8 7.05 -15.45 13.65 -15.45 17.6 -14.6 21.0 -10.65 23.15 -8.1 24.4 -5.4 27.05 -1.0 28.35 0.85 31.0 4.4 33.9 6.4 40.6 11.05 44.55 17.8 L45.1 18.8 Q44.75 18.6 44.4 18.5 43.3 18.05 42.35 18.2 41.25 18.35 40.75 19.3 40.35 20.05 40.05 21.75 39.75 23.25 39.75 24.1 39.75 24.5 39.9 25.0 L39.85 26.0 39.85 26.15 Q39.1 25.35 37.6 24.3 35.35 22.7 34.55 22.0 32.15 19.75 30.85 17.15 29.8 15.05 29.15 12.0 L29.1 12.0 29.0 12.6 Q28.95 12.95 28.95 13.15 28.95 13.9 31.0 18.2 33.1 22.55 33.75 23.1 36.75 25.3 38.6 27.1 L38.3 26.95 Q37.35 26.6 36.2 26.5 L34.65 26.45 33.75 26.35 Q33.4 26.25 33.2 26.0 33.05 25.8 32.8 25.2 L32.7 25.25 Q32.65 25.25 32.65 25.35 L32.75 25.9 Q32.9 26.55 33.1 27.05 33.25 27.4 33.4 27.7 L33.45 27.85 Q33.8 29.3 34.3 30.15 L35.75 32.5 Q36.75 34.0 37.05 34.85 37.25 35.4 37.55 37.15 L36.6 37.25 Q35.95 37.25 35.3 37.05 L34.0 36.95 33.9 36.65 Q32.6 33.3 32.25 32.05 32.05 32.65 31.4 34.8 31.0 36.1 30.85 36.9 L30.0 36.85 Q28.7 36.65 27.9 35.7 27.3 35.0 26.95 34.15 26.65 33.35 26.65 32.55 L26.95 28.55 Q26.95 24.9 25.8 22.3 24.4 19.05 21.3 17.55 23.65 20.05 24.8 22.65 L23.3 22.55 Q22.3 22.95 21.5 24.6 21.15 25.25 21.0 25.85 20.4 24.5 19.6 23.45 18.65 22.25 17.9 20.6 L16.7 17.95 16.6 17.95 16.6 18.15 Q16.6 19.45 17.25 21.1 L17.55 21.8 17.5 21.65 17.15 21.4 Q16.05 20.55 15.3 19.95 14.45 19.25 14.1 18.15 L13.9 17.3 Q13.8 16.95 13.7 16.75 L13.7 16.65 13.65 16.6 Q13.45 16.65 13.45 17.05 L13.45 17.35 Q13.05 18.9 12.8 22.6 12.8 23.9 13.4 25.3 13.6 25.85 14.65 27.8 15.55 29.45 15.95 30.65 16.55 32.45 16.55 34.4 16.55 35.35 16.4 36.4 14.35 37.95 11.5 37.95 7.85 37.95 5.85 34.45 4.7 32.4 4.0 28.8 4.05 28.6 3.9 28.4 3.65 27.05 3.45 25.55 L3.25 25.55 Q3.25 25.6 3.25 25.8 3.25 26.8 3.3 27.75 L2.6 27.4 Q0.6 27.15 -1.1 28.6 -1.75 29.15 -2.15 29.75 L-2.35 30.1 Q-2.55 29.25 -2.8 28.3 -3.75 24.65 -3.85 23.45 L-4.25 18.5 Q-4.55 15.7 -4.85 13.55 L-4.9 13.55 Q-5.05 14.25 -5.15 15.4 L-5.2 16.7 Q-5.2 17.55 -5.15 18.55 L-5.35 20.4 Q-5.5 22.45 -5.5 23.65 -5.5 27.05 -5.1 30.35 -4.7 33.7 -4.7 36.25 L-4.7 37.15" fill="#262626" fill-rule="evenodd" stroke="none"/>
  </g>
</svg>
