<?xml version="1.0" encoding="UTF-8" standalone="no"?>
<svg xmlns:ffdec="https://www.free-decompiler.com/flash" xmlns:xlink="http://www.w3.org/1999/xlink" ffdec:objectType="shape" height="62.3px" width="58.05px" xmlns="http://www.w3.org/2000/svg">
  <g transform="matrix(1.0, 0.0, 0.0, 1.0, 8.4, 15.75)">
    <path d="M13.65 -15.75 Q18.75 -14.35 21.3 -11.0 22.0 -10.05 23.1 -8.05 24.2 -6.05 24.9 -5.15 L25.4 -4.45 Q30.35 1.0 41.3 8.7 43.4 10.2 45.3 12.95 46.45 14.6 48.1 17.7 48.75 18.95 49.25 22.0 49.65 24.7 49.65 26.75 49.65 27.35 49.55 28.35 49.4 29.7 49.1 29.95 L49.1 30.05 49.0 30.25 47.05 24.6 Q45.85 21.25 44.55 18.9 L43.85 17.65 43.35 17.95 Q42.0 18.9 41.4 20.35 41.25 20.75 41.0 21.9 40.65 23.25 40.65 23.65 L41.1 26.5 Q43.05 28.15 43.05 29.6 43.05 29.75 43.0 29.9 L43.0 30.0 Q43.05 30.4 43.05 30.75 43.05 32.55 42.25 34.3 40.95 37.05 38.3 37.05 L37.6 36.95 Q37.1 36.8 36.95 36.8 36.15 36.8 35.35 37.1 34.9 37.25 33.95 37.7 32.15 38.6 30.7 38.6 28.5 38.6 26.75 36.15 26.25 35.35 25.8 34.45 L25.45 33.65 Q25.45 31.25 25.65 28.3 25.8 26.65 25.45 24.85 L25.2 24.65 24.8 24.15 23.2 24.15 Q22.75 24.85 22.35 26.0 22.15 26.55 21.8 27.75 21.9 28.45 21.9 28.95 21.9 30.7 21.3 31.8 20.4 33.5 17.85 34.6 17.35 34.85 16.7 35.7 L15.45 37.4 Q13.6 39.55 10.55 39.55 7.15 39.55 5.1 35.95 4.3 34.5 3.95 32.85 3.6 31.35 3.75 30.25 L3.75 30.05 Q3.75 29.15 3.55 28.6 3.15 27.6 1.45 27.6 0.0 27.6 -0.4 28.15 -0.5 28.3 -0.75 28.85 L-1.05 29.45 -1.05 30.15 Q-1.05 31.6 -1.2 32.35 -1.35 33.05 -1.8 33.75 L-2.95 35.45 Q-3.85 36.85 -4.7 38.55 -5.15 39.4 -5.3 40.6 L-5.45 42.75 Q-5.55 44.0 -5.75 44.75 -6.05 45.85 -6.7 46.55 -6.85 46.4 -6.95 45.9 L-7.0 45.45 -6.85 41.95 Q-7.2 37.45 -7.7 29.85 -8.4 18.6 -8.4 17.1 -8.4 11.3 -6.9 5.45 -5.45 -0.4 -2.75 -5.1 0.1 -10.05 3.75 -12.8 7.7 -15.75 12.2 -15.75 L13.0 -15.7 13.65 -15.75 M38.2 26.2 L35.8 24.85 Q33.95 23.8 32.95 23.05 31.05 21.45 30.2 18.75 29.85 17.75 29.65 16.35 L29.3 14.05 29.3 13.4 29.35 13.4 Q29.85 16.0 30.8 17.95 32.1 20.5 34.3 22.2 34.7 22.5 36.35 23.45 38.3 24.5 39.25 25.15 L39.95 25.65 Q39.8 24.6 39.8 23.55 39.8 22.1 40.55 20.4 41.25 18.95 42.2 17.75 42.8 17.1 43.25 16.75 39.75 11.45 33.55 7.15 30.5 5.0 28.05 1.7 26.95 0.2 24.25 -4.3 22.15 -7.8 20.55 -9.8 18.95 -11.85 17.5 -12.85 16.1 -13.85 14.45 -14.2 13.05 -14.5 10.75 -14.5 L10.05 -14.6 Q5.8 -13.3 2.5 -10.35 -1.35 -6.9 -3.8 -1.35 -5.85 3.2 -6.8 8.75 -7.55 13.1 -7.55 17.1 -7.55 18.7 -7.15 24.15 L-6.7 30.1 -6.4 35.8 -6.15 40.3 Q-6.0 39.2 -5.7 38.25 -5.05 36.35 -3.75 34.85 L-3.55 34.65 Q-2.0 33.0 -1.9 30.9 -1.85 30.25 -1.95 29.05 L-2.0 28.9 Q-2.15 27.8 -2.35 26.75 -2.7 25.3 -3.4 23.0 L-3.45 22.95 -3.45 22.85 -3.5 22.8 Q-3.9 21.55 -4.1 20.65 L-4.35 19.6 Q-4.75 17.55 -4.75 15.0 L-4.7 11.4 -4.65 11.4 Q-4.6 11.75 -4.25 16.0 -4.0 18.9 -3.45 20.65 -2.9 22.6 -1.85 25.45 -1.45 26.75 -1.25 28.0 -1.05 27.45 -0.65 27.0 0.15 26.15 1.3 26.1 2.45 26.05 3.25 26.85 3.45 27.05 3.65 27.35 3.5 26.4 3.2 25.3 2.95 24.35 2.45 22.85 L1.65 20.4 Q1.7 20.3 1.75 20.25 L1.9 20.2 Q3.0 22.4 3.65 24.85 4.3 27.3 4.4 29.5 L4.35 31.05 Q4.35 32.65 4.7 33.95 5.95 37.95 10.6 37.95 L11.3 37.9 Q13.1 37.6 14.85 35.75 L14.9 35.7 14.95 35.6 15.65 34.8 15.75 34.7 16.1 34.15 16.65 33.35 Q16.7 33.3 17.5 32.95 L18.35 32.55 18.5 32.45 19.05 32.2 Q19.95 31.7 20.15 31.3 20.95 29.85 20.95 28.85 L20.9 28.5 Q20.5 27.15 19.7 25.3 L19.7 25.25 19.4 24.6 19.35 24.5 18.3 22.2 Q16.6 18.35 16.4 15.9 L16.5 15.9 Q17.15 18.15 19.5 22.85 L21.0 25.8 Q21.1 25.85 21.25 26.0 21.3 25.4 21.85 24.35 22.55 23.0 23.1 22.85 24.85 22.85 24.85 22.8 L25.0 22.85 Q24.15 19.95 22.55 17.95 25.95 21.0 26.45 25.2 26.6 26.65 26.5 28.95 26.35 32.25 26.35 32.8 26.35 33.25 26.65 33.9 26.95 34.65 27.45 35.3 28.8 37.05 30.75 37.05 L31.1 37.0 Q32.2 36.85 33.7 35.9 34.65 35.3 34.95 35.15 L35.05 35.1 Q35.65 34.8 36.15 34.8 36.2 34.8 36.9 35.15 37.25 35.35 37.55 35.45 L38.15 35.5 Q41.2 35.5 41.95 32.8 42.15 32.15 42.2 31.3 L42.15 31.3 Q42.2 31.1 42.2 30.8 42.2 29.55 41.2 28.45 L40.9 28.15 40.8 28.2 40.6 27.85 Q39.9 27.2 38.8 26.55 L38.2 26.2 M48.65 25.15 Q48.4 22.05 47.85 20.25 47.15 17.9 45.45 15.3 43.7 12.65 41.4 10.5 39.85 9.1 35.8 6.3 31.55 3.4 30.05 2.15 32.1 4.65 34.4 6.45 38.45 9.55 40.95 12.05 44.05 15.15 45.25 17.85 47.2 22.05 47.75 23.5 48.4 25.25 48.75 26.65 L48.65 25.15" fill="#111111" fill-rule="evenodd" stroke="none"/>
    <path d="M-3.75 34.85 Q-3.45 29.55 -3.45 28.85 -3.45 27.35 -3.85 24.05 L-4.2 21.0 Q-4.2 20.8 -4.1 20.65 -3.9 21.55 -3.5 22.8 L-3.45 22.85 -3.45 22.95 -3.4 23.0 Q-2.7 25.3 -2.35 26.75 -2.15 27.8 -2.0 28.9 L-1.95 29.05 Q-1.85 30.25 -1.9 30.9 -2.0 33.0 -3.55 34.65 L-3.75 34.85 M11.3 37.9 L10.9 36.35 Q10.9 35.5 11.45 32.5 12.0 29.4 12.35 28.7 15.1 33.3 15.75 34.7 L15.65 34.8 14.95 35.6 14.9 35.7 14.85 35.75 Q13.1 37.6 11.3 37.9 M17.5 32.95 L17.4 32.95 17.35 32.75 Q16.5 29.25 16.1 28.4 13.5 23.0 13.5 21.05 L13.5 20.5 13.65 20.5 14.3 21.65 Q15.0 22.55 15.6 22.95 16.3 23.45 17.2 23.45 18.4 23.45 19.35 24.5 L19.4 24.6 19.7 25.25 19.7 25.3 Q20.5 27.15 20.9 28.5 L20.95 28.85 Q20.95 29.85 20.15 31.3 19.95 31.7 19.05 32.2 L18.5 32.45 18.35 32.55 17.5 32.95 M31.1 37.0 Q30.8 35.55 30.8 35.05 30.8 33.1 30.95 31.4 31.2 29.1 31.65 28.1 32.2 29.5 34.0 33.0 L35.05 35.1 34.95 35.15 Q34.65 35.3 33.7 35.9 32.2 36.85 31.1 37.0 M37.55 35.45 L36.85 32.85 Q36.65 32.15 36.15 31.4 L35.3 30.2 Q34.25 28.8 34.25 27.75 34.25 27.7 35.0 27.35 35.85 27.0 36.75 26.65 37.55 26.4 38.2 26.2 L38.8 26.55 Q39.9 27.2 40.6 27.85 L40.8 28.2 40.9 28.15 41.2 28.45 Q42.2 29.55 42.2 30.8 42.2 31.1 42.15 31.3 L42.2 31.3 Q42.15 32.15 41.95 32.8 41.2 35.5 38.15 35.5 L37.55 35.45 M48.65 25.15 L48.75 26.65 Q48.4 25.25 47.75 23.5 47.2 22.05 45.25 17.85 44.05 15.15 40.95 12.05 38.45 9.55 34.4 6.45 32.1 4.65 30.05 2.15 31.55 3.4 35.8 6.3 39.85 9.1 41.4 10.5 43.7 12.65 45.45 15.3 47.15 17.9 47.85 20.25 48.4 22.05 48.65 25.15" fill="#363636" fill-rule="evenodd" stroke="none"/>
    <path d="M-3.75 34.85 Q-5.05 36.35 -5.7 38.25 -6.0 39.2 -6.15 40.3 L-6.4 35.8 -6.7 30.1 -7.15 24.15 Q-7.55 18.7 -7.55 17.1 -7.55 13.1 -6.8 8.75 -5.85 3.2 -3.8 -1.35 -1.35 -6.9 2.5 -10.35 5.8 -13.3 10.05 -14.6 L10.75 -14.5 Q13.05 -14.5 14.45 -14.2 16.1 -13.85 17.5 -12.85 18.95 -11.85 20.55 -9.8 22.15 -7.8 24.25 -4.3 26.95 0.2 28.05 1.7 30.5 5.0 33.55 7.15 39.75 11.45 43.25 16.75 42.8 17.1 42.2 17.75 41.25 18.95 40.55 20.4 39.8 22.1 39.8 23.55 39.8 24.6 39.95 25.65 L39.25 25.15 Q38.3 24.5 36.35 23.45 34.7 22.5 34.3 22.2 32.1 20.5 30.8 17.95 29.85 16.0 29.35 13.4 L29.3 13.4 29.3 14.05 29.65 16.35 Q29.85 17.75 30.2 18.75 31.05 21.45 32.95 23.05 33.95 23.8 35.8 24.85 L38.2 26.2 Q37.55 26.4 36.75 26.65 35.85 27.0 35.0 27.35 34.25 27.7 34.25 27.75 34.25 28.8 35.3 30.2 L36.15 31.4 Q36.65 32.15 36.85 32.85 L37.55 35.45 Q37.25 35.35 36.9 35.15 36.2 34.8 36.15 34.8 35.65 34.8 35.05 35.1 L34.0 33.0 Q32.2 29.5 31.65 28.1 31.2 29.1 30.95 31.4 30.8 33.1 30.8 35.05 30.8 35.55 31.1 37.0 L30.75 37.05 Q28.8 37.05 27.45 35.3 26.95 34.65 26.65 33.9 26.35 33.25 26.35 32.8 26.35 32.25 26.5 28.95 26.6 26.65 26.45 25.2 25.95 21.0 22.55 17.95 24.15 19.95 25.0 22.85 L24.85 22.8 Q24.85 22.85 23.1 22.85 22.55 23.0 21.85 24.35 21.3 25.4 21.25 26.0 21.1 25.85 21.0 25.8 L19.5 22.85 Q17.15 18.15 16.5 15.9 L16.4 15.9 Q16.6 18.35 18.3 22.2 L19.35 24.5 Q18.4 23.45 17.2 23.45 16.3 23.45 15.6 22.95 15.0 22.55 14.3 21.65 L13.65 20.5 13.5 20.5 13.5 21.05 Q13.5 23.0 16.1 28.4 16.5 29.25 17.35 32.75 L17.4 32.95 17.5 32.95 Q16.7 33.3 16.65 33.35 L16.1 34.15 15.75 34.7 Q15.1 33.3 12.35 28.7 12.0 29.4 11.45 32.5 10.9 35.5 10.9 36.35 L11.3 37.9 10.6 37.95 Q5.95 37.95 4.7 33.95 4.35 32.65 4.35 31.05 L4.4 29.5 Q4.3 27.3 3.65 24.85 3.0 22.4 1.9 20.2 L1.75 20.25 Q1.7 20.3 1.65 20.4 L2.45 22.85 Q2.95 24.35 3.2 25.3 3.5 26.4 3.65 27.35 3.45 27.05 3.25 26.85 2.45 26.05 1.3 26.1 0.15 26.15 -0.65 27.0 -1.05 27.45 -1.25 28.0 -1.45 26.75 -1.85 25.45 -2.9 22.6 -3.45 20.65 -4.0 18.9 -4.25 16.0 -4.6 11.75 -4.65 11.4 L-4.7 11.4 -4.75 15.0 Q-4.75 17.55 -4.35 19.6 L-4.1 20.65 Q-4.2 20.8 -4.2 21.0 L-3.85 24.05 Q-3.45 27.35 -3.45 28.85 -3.45 29.55 -3.75 34.85" fill="#262626" fill-rule="evenodd" stroke="none"/>
  </g>
</svg>
