<?xml version="1.0" encoding="UTF-8" standalone="no"?>
<svg xmlns:ffdec="https://www.free-decompiler.com/flash" xmlns:xlink="http://www.w3.org/1999/xlink" ffdec:objectType="shape" height="62.25px" width="55.8px" xmlns="http://www.w3.org/2000/svg">
  <g transform="matrix(1.0, 0.0, 0.0, 1.0, 5.55, 16.4)">
    <path d="M8.65 -15.6 Q9.4 -16.15 12.45 -16.4 19.4 -14.85 23.3 -7.65 L25.95 -2.7 Q27.7 0.35 29.45 2.4 30.15 3.25 31.1 4.2 L31.5 4.5 34.05 6.45 Q34.9 7.05 37.35 8.3 40.05 9.65 40.65 10.05 43.3 11.65 46.05 14.3 46.5 14.7 46.95 15.1 L47.55 16.0 Q49.4 18.65 50.25 20.5 L50.15 20.5 45.9 17.1 43.05 14.85 Q42.3 15.6 41.55 16.6 39.45 19.3 39.45 21.9 39.45 23.15 39.9 24.45 L40.15 25.15 Q43.35 27.0 43.35 28.85 43.35 29.15 43.3 29.45 43.2 30.45 42.5 31.65 41.85 32.7 41.1 33.1 L40.65 33.5 Q40.05 34.0 37.95 34.45 L35.6 34.95 Q35.0 35.4 34.45 35.8 33.3 36.5 32.65 36.5 28.6 36.5 26.9 32.45 26.55 31.55 26.25 30.4 L25.15 29.5 Q23.8 28.4 23.55 28.4 22.4 28.4 21.7 28.7 L20.95 29.1 21.0 29.8 Q21.0 30.35 20.9 30.75 20.7 31.45 20.2 31.5 19.45 32.75 17.55 33.9 L15.6 34.7 Q13.8 35.4 13.4 35.65 L13.05 35.95 Q12.8 36.2 12.45 36.4 11.45 37.05 10.0 37.05 6.15 37.05 4.3 33.55 2.95 31.05 2.85 27.5 2.85 26.8 2.75 25.9 L2.5 25.9 Q1.8 25.9 1.35 26.85 1.25 27.05 1.15 27.25 1.4 28.25 1.4 28.75 1.4 29.25 1.2 29.85 L1.05 30.15 Q0.95 31.65 0.5 32.85 0.1 34.0 -1.6 37.05 L-2.65 38.85 Q-3.3 40.1 -3.45 40.75 -3.65 42.05 -3.85 42.75 -4.1 43.7 -4.5 44.35 -4.8 45.55 -5.2 45.85 -5.3 45.85 -5.35 45.75 -5.5 45.6 -5.5 45.4 -5.2 43.4 -4.95 41.05 -4.4 36.45 -4.4 33.45 -4.4 30.25 -4.55 27.65 -4.65 26.35 -4.95 23.4 -5.55 17.85 -5.55 11.5 -5.55 2.65 -2.65 -4.05 0.9 -12.25 8.3 -15.25 8.45 -15.5 8.65 -15.6 M37.85 25.45 Q35.1 24.25 34.25 23.75 32.3 22.75 31.5 21.75 29.9 19.85 29.2 17.4 28.65 15.6 28.5 13.0 L28.5 12.15 28.55 12.15 Q29.05 15.2 29.75 17.05 30.9 19.9 33.0 21.5 33.8 22.1 35.75 23.0 L38.85 24.45 38.65 23.3 Q38.65 21.3 38.7 20.5 38.85 18.85 39.3 17.8 39.55 17.15 40.3 16.25 41.0 15.3 41.75 14.65 L42.2 14.25 39.5 12.2 Q34.7 8.85 33.6 8.0 30.15 5.35 28.75 3.3 25.6 -1.3 22.65 -6.65 21.3 -9.0 19.15 -11.15 15.2 -15.2 11.25 -15.2 L10.7 -15.1 9.95 -15.0 8.75 -14.35 Q5.45 -12.5 3.6 -11.2 1.9 -10.05 0.65 -8.15 0.4 -7.8 -1.35 -4.75 -2.85 -2.05 -3.65 1.7 -3.85 2.85 -4.2 4.95 -4.55 7.2 -4.75 8.25 L-4.8 16.35 Q-4.8 17.15 -4.2 23.35 -3.6 29.5 -3.6 33.4 -3.6 36.7 -3.9 40.25 L-3.95 40.35 -3.65 39.55 Q-2.55 36.8 -1.75 35.25 L-1.2 34.25 Q-0.25 32.25 0.1 30.7 0.25 30.05 0.25 28.35 L0.25 27.75 0.05 27.0 -1.5 21.75 -2.15 19.5 Q-3.75 13.9 -3.75 12.3 L-3.65 10.65 Q-3.55 9.1 -3.55 8.4 L-3.45 8.4 Q-4.0 10.95 -1.4 19.1 L0.5 24.9 0.85 26.0 Q0.95 25.7 1.1 25.45 1.5 24.9 2.05 24.65 2.35 24.5 2.6 24.5 L2.25 22.35 Q1.55 18.85 1.3 17.15 L1.4 17.15 Q2.2 19.2 2.8 21.95 3.25 24.05 3.65 26.8 3.7 27.1 3.7 28.65 3.75 30.35 4.15 31.6 5.05 34.35 7.6 35.15 L8.65 35.35 10.0 35.45 Q11.45 35.45 12.55 34.75 12.9 34.5 13.25 34.15 L13.65 33.8 Q14.0 33.55 15.7 32.95 17.45 32.35 17.6 32.25 19.0 31.3 19.55 30.25 19.9 29.45 19.9 28.6 L19.7 27.85 19.45 27.05 18.8 25.1 18.1 23.0 Q16.1 17.25 16.1 15.4 L16.15 14.45 16.2 13.25 16.3 13.25 Q16.55 16.15 17.35 18.8 17.9 20.55 18.95 22.9 20.1 25.5 20.4 26.3 20.6 27.05 20.75 27.7 21.0 27.5 21.35 27.35 22.3 27.0 23.65 27.25 24.95 27.5 25.85 28.1 L25.7 27.3 Q25.3 25.7 23.9 21.55 22.65 17.9 22.65 17.7 22.65 17.5 22.8 17.4 L22.9 17.35 Q23.85 19.1 24.85 21.8 L26.4 26.25 Q26.6 26.8 26.9 28.45 27.2 29.95 27.55 30.8 27.75 31.25 28.0 31.65 L28.0 31.7 Q28.45 32.4 29.1 32.95 L29.65 33.4 Q30.7 34.2 32.25 34.75 L33.1 34.75 Q33.6 34.35 34.15 34.1 34.55 33.95 35.45 33.7 37.9 33.1 40.15 32.1 40.55 31.95 40.85 31.7 41.25 31.3 41.65 30.85 L41.75 30.75 41.85 30.4 Q42.15 29.75 42.15 28.5 L42.1 28.0 Q41.75 27.6 41.05 27.15 L40.55 26.8 Q39.55 26.25 37.85 25.5 L37.85 25.45 M37.45 9.35 L40.45 11.55 Q44.0 14.1 45.9 15.7 L45.2 14.9 Q42.75 12.15 39.85 10.65 38.55 10.0 37.45 9.35" fill="#111111" fill-rule="evenodd" stroke="none"/>
    <path d="M-1.2 34.25 Q-0.95 32.2 -0.95 30.05 -0.95 27.1 -1.55 23.45 L-1.95 21.05 Q-2.15 20.0 -2.15 19.5 L-1.5 21.75 0.05 27.0 0.25 27.75 0.25 28.35 Q0.25 30.05 0.1 30.7 -0.25 32.25 -1.2 34.25 M7.6 35.15 Q7.45 33.95 7.35 32.0 7.3 30.45 7.3 28.55 L7.3 24.6 Q7.3 23.75 7.4 23.15 7.6 22.3 9.05 18.45 L10.15 21.75 Q10.85 23.85 11.5 25.2 13.25 29.0 15.15 29.0 15.5 29.0 15.9 28.4 L16.65 27.05 Q17.75 25.05 18.7 25.05 L18.8 25.1 19.45 27.05 19.7 27.85 19.9 28.6 Q19.9 29.45 19.55 30.25 19.0 31.3 17.6 32.25 17.45 32.35 15.7 32.95 14.0 33.55 13.65 33.8 L13.25 34.15 Q12.9 34.5 12.55 34.75 11.45 35.45 10.0 35.45 L8.65 35.35 7.6 35.15 M28.0 31.65 L27.8 30.8 Q27.55 29.5 27.3 28.0 L27.15 26.75 27.25 25.1 27.3 23.45 Q27.2 22.65 27.2 22.3 27.25 21.75 27.8 21.45 28.3 22.7 28.8 23.6 29.45 24.8 30.25 25.6 31.0 26.35 32.8 27.2 34.5 28.05 35.15 28.05 35.65 28.05 35.9 27.6 36.05 27.35 36.4 26.6 36.8 25.8 37.85 25.45 L37.85 25.5 Q39.55 26.25 40.55 26.8 L41.05 27.15 Q41.75 27.6 42.1 28.0 L42.15 28.5 Q42.15 29.75 41.85 30.4 L41.75 30.75 41.65 30.85 Q41.25 31.3 40.85 31.7 40.55 31.95 40.15 32.1 37.9 33.1 35.45 33.7 34.55 33.95 34.15 34.1 33.6 34.35 33.1 34.75 L32.25 34.75 Q30.7 34.2 29.65 33.4 L29.1 32.95 Q28.45 32.4 28.0 31.7 L28.0 31.65 M37.45 9.35 Q38.55 10.0 39.85 10.65 42.75 12.15 45.2 14.9 L45.9 15.7 Q44.0 14.1 40.45 11.55 L37.45 9.35" fill="#363636" fill-rule="evenodd" stroke="none"/>
    <path d="M-1.2 34.25 L-1.75 35.25 Q-2.55 36.8 -3.65 39.55 L-3.95 40.35 -3.9 40.25 Q-3.6 36.7 -3.6 33.4 -3.6 29.5 -4.2 23.35 -4.8 17.15 -4.8 16.35 L-4.75 8.25 Q-4.55 7.2 -4.2 4.95 -3.85 2.85 -3.65 1.7 -2.85 -2.05 -1.35 -4.75 0.4 -7.8 0.65 -8.15 1.9 -10.05 3.6 -11.2 5.45 -12.5 8.75 -14.35 L9.95 -15.0 10.7 -15.1 11.25 -15.2 Q15.2 -15.2 19.15 -11.15 21.3 -9.0 22.65 -6.65 25.6 -1.3 28.75 3.3 30.15 5.35 33.6 8.0 34.7 8.85 39.5 12.2 L42.2 14.25 41.75 14.65 Q41.0 15.3 40.3 16.25 39.55 17.15 39.3 17.8 38.85 18.85 38.7 20.5 38.65 21.3 38.65 23.3 L38.85 24.45 35.75 23.0 Q33.8 22.1 33.0 21.5 30.9 19.9 29.75 17.05 29.05 15.2 28.55 12.15 L28.5 12.15 28.5 13.0 Q28.65 15.6 29.2 17.4 29.9 19.85 31.5 21.75 32.3 22.75 34.25 23.75 35.1 24.25 37.85 25.45 36.8 25.8 36.4 26.6 36.05 27.35 35.9 27.6 35.65 28.05 35.15 28.05 34.5 28.05 32.8 27.2 31.0 26.35 30.25 25.6 29.45 24.8 28.8 23.6 28.3 22.7 27.8 21.45 27.25 21.75 27.2 22.3 27.2 22.65 27.3 23.45 L27.25 25.1 27.15 26.75 27.3 28.0 Q27.55 29.5 27.8 30.8 L28.0 31.65 Q27.75 31.25 27.55 30.8 27.2 29.95 26.9 28.45 26.6 26.8 26.4 26.25 L24.85 21.8 Q23.85 19.1 22.9 17.35 L22.8 17.4 Q22.65 17.5 22.65 17.7 22.65 17.9 23.9 21.55 25.3 25.7 25.7 27.3 L25.85 28.1 Q24.95 27.5 23.65 27.25 22.3 27.0 21.35 27.35 21.0 27.5 20.75 27.7 20.6 27.05 20.4 26.3 20.1 25.5 18.95 22.9 17.9 20.55 17.35 18.8 16.55 16.15 16.3 13.25 L16.2 13.25 16.15 14.45 16.1 15.4 Q16.1 17.25 18.1 23.0 L18.8 25.1 18.7 25.05 Q17.75 25.05 16.65 27.05 L15.9 28.4 Q15.5 29.0 15.15 29.0 13.25 29.0 11.5 25.2 10.85 23.85 10.15 21.75 L9.05 18.45 Q7.6 22.3 7.4 23.15 7.3 23.75 7.3 24.6 L7.3 28.55 Q7.3 30.45 7.35 32.0 7.45 33.95 7.6 35.15 5.05 34.35 4.15 31.6 3.75 30.35 3.7 28.65 3.7 27.1 3.65 26.8 3.25 24.05 2.8 21.95 2.2 19.2 1.4 17.15 L1.3 17.15 Q1.55 18.85 2.25 22.35 L2.6 24.5 Q2.35 24.5 2.05 24.65 1.5 24.9 1.1 25.45 0.95 25.7 0.85 26.0 L0.5 24.9 -1.4 19.1 Q-4.0 10.95 -3.45 8.4 L-3.55 8.4 Q-3.55 9.1 -3.65 10.65 L-3.75 12.3 Q-3.75 13.9 -2.15 19.5 -2.15 20.0 -1.95 21.05 L-1.55 23.45 Q-0.95 27.1 -0.95 30.05 -0.95 32.2 -1.2 34.25" fill="#262626" fill-rule="evenodd" stroke="none"/>
  </g>
</svg>
