<?xml version="1.0" encoding="UTF-8" standalone="no"?>
<svg xmlns:ffdec="https://www.free-decompiler.com/flash" xmlns:xlink="http://www.w3.org/1999/xlink" ffdec:objectType="shape" height="60.1px" width="60.25px" xmlns="http://www.w3.org/2000/svg">
  <g transform="matrix(1.0, 0.0, 0.0, 1.0, 9.7, 15.85)">
    <path d="M17.4 -15.15 Q20.55 -13.8 23.35 -10.15 25.7 -7.15 27.3 -3.35 28.75 -0.05 28.85 1.8 L29.5 4.5 Q29.9 6.25 30.3 7.35 31.35 10.7 33.35 12.8 L34.0 13.6 Q34.35 14.1 34.65 14.35 35.45 15.05 36.85 15.15 42.7 15.6 43.95 15.95 44.45 16.05 45.0 16.35 45.75 16.75 46.3 16.95 48.9 18.0 49.8 19.15 50.5 20.05 50.55 21.6 L49.15 21.35 48.8 21.2 Q46.85 20.25 45.75 19.9 44.8 19.4 44.4 19.25 43.25 18.8 40.85 18.2 L39.9 17.95 Q39.3 18.5 38.65 19.6 37.75 21.1 37.75 22.0 37.75 22.65 38.05 23.55 L38.3 24.35 Q39.45 24.75 40.15 25.15 41.5 26.0 41.85 27.35 L42.05 27.65 Q42.15 27.9 42.15 28.45 42.15 29.25 41.75 30.1 41.3 31.15 40.4 31.95 38.0 34.05 33.4 34.05 27.8 34.05 26.35 32.0 L26.25 31.8 26.1 31.65 25.4 30.75 Q24.2 29.5 22.1 29.5 20.3 29.5 19.75 29.8 L19.6 29.95 Q19.6 31.5 17.9 32.45 17.3 32.8 16.45 33.05 L15.3 33.45 Q14.95 33.55 14.3 34.0 L13.15 34.85 Q11.4 35.95 9.5 35.95 6.65 35.95 4.4 33.45 3.2 32.1 2.3 30.3 2.15 30.0 1.95 27.25 L1.9 27.3 1.2 26.85 Q0.9 26.7 0.6 26.6 L0.65 27.65 Q0.65 28.9 -0.45 32.0 -1.3 34.4 -2.05 36.0 -2.65 37.25 -4.05 40.7 -5.2 43.5 -5.65 44.25 L-5.9 44.05 Q-6.05 43.95 -6.05 43.8 L-5.95 43.2 Q-6.05 42.95 -6.0 42.75 -5.9 42.1 -5.9 41.45 -5.9 38.85 -6.5 34.7 -6.9 32.0 -7.8 27.05 -8.8 21.6 -9.1 19.65 -9.7 15.85 -9.7 13.75 -9.7 9.1 -9.05 5.4 -8.2 0.65 -6.2 -3.0 -3.4 -8.15 0.05 -11.35 2.5 -13.6 5.65 -14.75 8.85 -15.9 12.1 -15.65 14.75 -16.25 17.4 -15.15 M31.65 22.95 Q30.6 21.9 29.8 20.6 28.55 18.65 28.5 17.0 L28.55 17.0 Q29.25 20.05 31.55 21.7 33.0 22.8 36.05 23.7 L37.05 24.0 36.85 23.0 Q36.85 20.6 37.25 19.6 37.6 18.6 38.4 18.1 L38.5 18.0 38.75 17.65 Q38.15 17.45 37.85 17.3 36.35 16.65 35.05 15.55 33.65 14.9 32.75 13.85 30.95 11.7 29.9 8.6 29.55 7.7 29.05 6.0 28.6 4.3 28.3 3.5 27.95 2.6 27.55 1.1 L26.8 -1.6 Q25.85 -4.9 24.7 -7.0 23.1 -9.95 20.5 -11.75 17.4 -13.95 12.65 -14.8 L10.6 -14.8 Q6.15 -13.95 2.65 -11.75 -1.65 -9.0 -4.45 -4.4 -6.75 -0.6 -7.9 4.1 -8.8 7.85 -8.8 11.15 -8.8 14.3 -8.25 18.45 -7.9 20.9 -7.0 25.95 -6.1 31.0 -5.75 33.5 -5.2 37.65 -5.2 40.85 L-5.2 41.0 Q-4.85 40.05 -4.15 38.5 L-2.45 34.8 -2.0 33.7 -1.95 33.6 -0.25 27.8 -0.25 27.6 Q-0.25 25.45 -0.95 23.5 -1.35 22.4 -2.45 20.2 L-2.45 20.15 -2.5 20.1 -3.1 18.85 -3.1 18.8 -3.2 18.6 -3.2 18.55 -3.25 18.55 -3.7 17.4 -3.75 17.35 -3.9 16.8 Q-4.6 14.7 -4.6 12.3 -4.6 10.85 -4.5 9.75 -4.3 8.15 -3.95 7.6 -3.95 7.8 -4.05 8.35 L-4.15 9.05 Q-4.15 12.7 -3.4 15.35 -2.9 17.15 -1.75 19.3 -0.45 21.7 -0.1 22.75 0.3 23.9 0.5 25.2 0.8 25.1 1.15 25.2 1.55 25.3 1.8 25.5 1.75 24.2 1.75 23.6 1.75 23.0 1.4 20.3 1.05 17.8 1.0 17.65 L1.2 17.55 Q2.1 19.45 2.4 21.9 2.6 23.4 2.6 26.3 2.65 27.05 2.85 28.1 3.2 29.6 3.8 30.8 5.6 34.2 9.25 34.35 L9.55 34.35 10.3 34.3 Q11.5 34.1 12.95 33.15 14.65 31.95 14.8 31.95 17.15 31.6 18.0 30.9 L18.3 30.55 Q18.55 30.2 18.65 29.65 L18.7 29.0 18.7 28.9 Q18.6 28.2 18.3 27.05 L17.3 23.7 Q15.9 18.95 15.9 17.2 15.9 16.2 16.0 15.1 16.15 14.0 16.4 13.1 L16.5 13.1 16.3 13.85 Q16.2 14.3 16.2 14.5 16.2 17.3 17.9 22.6 18.9 25.75 19.1 26.35 19.45 27.65 19.55 28.5 19.8 28.4 20.05 28.3 21.3 27.9 22.95 28.15 24.65 28.35 25.75 29.1 24.4 23.95 24.4 23.6 24.4 23.4 24.45 23.45 L24.45 23.55 Q24.9 24.4 25.5 25.85 26.0 27.15 26.45 28.5 L26.55 29.3 Q26.65 29.7 26.8 30.05 L27.05 30.55 27.15 30.65 Q27.75 31.55 28.9 32.0 30.15 32.5 32.05 32.55 L32.4 32.55 Q38.3 32.55 40.4 29.8 40.8 29.25 41.05 28.55 L40.2 27.45 Q39.25 26.2 38.65 25.95 38.05 25.75 36.2 25.2 L36.05 25.15 35.25 24.95 35.2 24.9 Q33.25 24.35 32.55 23.75 L31.65 22.95 M48.75 20.1 Q47.3 18.75 45.0 18.0 43.7 17.55 41.65 17.15 L39.45 16.8 42.05 17.65 Q46.15 18.85 47.25 19.3 48.1 19.7 48.75 20.1" fill="#111111" fill-rule="evenodd" stroke="none"/>
    <path d="M-2.0 33.7 Q-1.7 30.95 -1.7 30.6 -1.7 27.7 -2.75 22.85 L-3.45 19.6 Q-3.75 18.1 -3.75 17.65 L-3.75 17.35 -3.7 17.4 -3.25 18.55 -3.2 18.55 -3.2 18.6 -3.1 18.8 -3.1 18.85 -2.5 20.1 -2.45 20.15 -2.45 20.2 Q-1.35 22.4 -0.95 23.5 -0.25 25.45 -0.25 27.6 L-0.25 27.8 -1.95 33.6 -2.0 33.7 M9.25 34.35 L9.15 34.35 9.15 33.9 Q9.15 32.85 8.8 31.35 8.65 30.6 8.05 28.45 6.95 24.45 6.95 22.2 6.95 20.2 7.2 19.0 7.5 17.25 8.45 15.95 L8.65 16.0 Q8.6 16.0 8.55 16.0 8.6 15.9 8.65 15.85 9.65 18.15 10.95 20.65 12.35 23.25 13.85 25.55 14.4 26.35 16.15 27.2 17.85 28.0 18.65 28.8 L18.7 28.9 18.7 29.0 18.65 29.65 Q18.55 30.2 18.3 30.55 L18.0 30.9 Q17.15 31.6 14.8 31.95 14.65 31.95 12.95 33.15 11.5 34.1 10.3 34.3 L9.55 34.35 9.25 34.35 M28.9 32.0 Q27.45 29.55 26.85 27.4 26.6 26.4 25.9 22.7 25.2 19.0 25.2 18.5 25.2 18.1 25.5 18.0 L25.6 18.45 Q25.95 18.65 26.55 19.1 L28.15 20.55 Q30.25 22.4 31.65 22.95 L32.55 23.75 Q33.25 24.35 35.2 24.9 L35.25 24.95 36.05 25.15 36.2 25.2 Q38.05 25.75 38.65 25.95 39.25 26.2 40.2 27.45 L41.05 28.55 Q40.8 29.25 40.4 29.8 38.3 32.55 32.4 32.55 L32.05 32.55 Q30.15 32.5 28.9 32.0 M48.75 20.1 Q48.1 19.7 47.25 19.3 46.15 18.85 42.05 17.65 L39.45 16.8 41.65 17.15 Q43.7 17.55 45.0 18.0 47.3 18.75 48.75 20.1" fill="#363636" fill-rule="evenodd" stroke="none"/>
    <path d="M-2.0 33.7 L-2.45 34.8 -4.15 38.5 Q-4.85 40.05 -5.2 41.0 L-5.2 40.85 Q-5.2 37.65 -5.75 33.5 -6.1 31.0 -7.0 25.95 -7.9 20.9 -8.25 18.45 -8.8 14.3 -8.8 11.15 -8.8 7.85 -7.9 4.1 -6.75 -0.6 -4.45 -4.4 -1.65 -9.0 2.65 -11.75 6.15 -13.95 10.6 -14.8 L12.65 -14.8 Q17.4 -13.95 20.5 -11.75 23.1 -9.95 24.7 -7.0 25.85 -4.9 26.8 -1.6 L27.55 1.1 Q27.95 2.6 28.3 3.5 28.6 4.3 29.05 6.0 29.55 7.7 29.9 8.6 30.95 11.7 32.75 13.85 33.65 14.9 35.05 15.55 36.35 16.65 37.85 17.3 38.15 17.45 38.75 17.65 L38.5 18.0 38.4 18.1 Q37.6 18.6 37.25 19.6 36.85 20.6 36.85 23.0 L37.05 24.0 36.05 23.7 Q33.0 22.8 31.55 21.7 29.25 20.05 28.55 17.0 L28.5 17.0 Q28.55 18.65 29.8 20.6 30.6 21.9 31.65 22.95 30.25 22.4 28.15 20.55 L26.55 19.1 Q25.95 18.65 25.6 18.45 L25.5 18.0 Q25.2 18.1 25.2 18.5 25.2 19.0 25.9 22.7 26.6 26.4 26.85 27.4 27.45 29.55 28.9 32.0 27.75 31.55 27.15 30.65 L27.05 30.55 26.8 30.05 Q26.65 29.7 26.55 29.3 L26.45 28.5 Q26.0 27.15 25.5 25.85 24.9 24.4 24.45 23.55 L24.45 23.45 Q24.4 23.4 24.4 23.6 24.4 23.95 25.75 29.1 24.65 28.35 22.95 28.15 21.3 27.9 20.05 28.3 19.8 28.4 19.55 28.5 19.45 27.65 19.1 26.35 18.9 25.75 17.9 22.6 16.2 17.3 16.2 14.5 16.2 14.3 16.3 13.85 L16.5 13.1 16.4 13.1 Q16.15 14.0 16.0 15.1 15.9 16.2 15.9 17.2 15.9 18.95 17.3 23.7 L18.3 27.05 Q18.6 28.2 18.7 28.9 L18.65 28.8 Q17.85 28.0 16.15 27.2 14.4 26.35 13.85 25.55 12.35 23.25 10.95 20.65 9.65 18.15 8.65 15.85 8.6 15.9 8.55 16.0 8.6 16.0 8.65 16.0 L8.45 15.95 Q7.5 17.25 7.2 19.0 6.95 20.2 6.95 22.2 6.95 24.45 8.05 28.45 8.65 30.6 8.8 31.35 9.15 32.85 9.15 33.9 L9.15 34.35 9.25 34.35 Q5.6 34.2 3.8 30.8 3.2 29.6 2.85 28.1 2.65 27.05 2.6 26.3 2.6 23.4 2.4 21.9 2.1 19.45 1.2 17.55 L1.0 17.65 Q1.05 17.8 1.4 20.3 1.75 23.0 1.75 23.6 1.75 24.2 1.8 25.5 1.55 25.3 1.15 25.2 0.8 25.1 0.5 25.2 0.3 23.9 -0.1 22.75 -0.45 21.7 -1.75 19.3 -2.9 17.15 -3.4 15.35 -4.15 12.7 -4.15 9.05 L-4.05 8.35 Q-3.95 7.8 -3.95 7.6 -4.3 8.15 -4.5 9.75 -4.6 10.85 -4.6 12.3 -4.6 14.7 -3.9 16.8 L-3.75 17.35 -3.75 17.65 Q-3.75 18.1 -3.45 19.6 L-2.75 22.85 Q-1.7 27.7 -1.7 30.6 -1.7 30.95 -2.0 33.7" fill="#262626" fill-rule="evenodd" stroke="none"/>
  </g>
</svg>
