<?xml version="1.0" encoding="UTF-8" standalone="no"?>
<svg xmlns:ffdec="https://www.free-decompiler.com/flash" xmlns:xlink="http://www.w3.org/1999/xlink" ffdec:objectType="shape" height="60.1px" width="61.8px" xmlns="http://www.w3.org/2000/svg">
  <g transform="matrix(1.0, 0.0, 0.0, 1.0, 12.5, 16.6)">
    <path d="M30.1 22.05 Q29.65 21.5 29.3 20.95 28.4 19.35 28.4 17.8 L28.4 17.65 28.5 17.65 Q29.3 20.0 31.4 21.55 32.8 22.6 35.5 23.65 L35.55 23.7 Q35.4 23.2 35.4 22.65 35.4 19.35 41.4 19.3 L38.85 18.8 Q37.55 18.5 36.55 18.15 34.3 17.45 33.05 16.0 32.55 15.45 32.15 14.7 L31.45 13.5 Q30.1 11.15 29.05 8.6 28.1 6.1 27.5 3.65 26.95 1.3 26.05 -1.3 25.35 -3.35 24.2 -6.2 23.4 -8.3 21.3 -11.15 L20.5 -12.3 Q20.05 -13.0 19.55 -13.4 18.15 -14.6 15.0 -15.3 L14.1 -15.3 13.9 -15.25 Q3.95 -13.6 -1.2 -9.25 -3.3 -7.45 -5.2 -4.75 -6.3 -3.2 -8.3 0.05 -10.7 3.65 -11.35 9.2 -11.6 11.25 -11.65 14.0 L-11.65 18.65 Q-11.65 26.35 -8.5 34.5 -7.95 35.95 -6.35 39.55 -6.05 40.3 -5.8 40.85 -5.6 39.35 -5.6 38.85 -5.6 37.2 -4.95 35.9 -4.55 35.25 -3.45 33.9 L-2.85 33.15 -2.8 33.1 -2.0 31.8 -2.0 31.75 -1.95 31.65 Q-1.7 31.1 -1.5 30.45 -1.25 29.4 -1.25 28.2 -1.25 27.1 -1.8 25.4 -2.1 24.4 -3.0 22.3 L-3.25 21.65 Q-3.9 20.0 -4.15 19.15 -4.7 17.5 -4.7 16.35 L-4.7 16.3 -4.65 15.9 -4.65 15.55 -4.4 13.6 Q-4.15 11.6 -4.05 11.2 L-4.15 11.9 Q-4.15 15.0 -3.55 17.7 -3.1 19.6 -2.25 21.8 L-1.1 24.65 -0.95 24.55 Q-0.6 24.4 0.0 24.5 0.6 24.6 1.1 24.95 1.4 25.2 1.6 25.45 L1.5 24.0 Q1.25 20.8 1.25 19.5 L1.3 18.6 1.4 18.6 Q1.95 25.6 3.65 29.2 5.7 33.45 9.75 33.65 L10.75 33.65 Q11.85 33.5 12.7 32.95 L13.35 32.45 13.65 32.15 Q14.05 31.75 14.75 31.45 15.35 31.2 17.0 30.6 L17.4 30.4 18.2 29.8 18.25 29.8 18.3 29.75 18.3 29.7 18.35 29.65 18.4 29.55 Q18.5 29.35 18.55 29.1 L18.55 28.5 18.25 27.5 17.15 24.15 Q15.75 19.6 15.75 17.5 15.75 16.15 15.85 14.9 16.05 13.15 16.4 12.85 L16.35 13.7 16.3 14.45 Q16.3 18.5 17.9 22.8 L19.0 25.75 Q19.5 27.15 19.5 28.15 L19.55 28.1 Q20.35 27.65 22.05 27.65 22.2 27.65 22.95 28.15 L24.85 29.3 Q25.45 29.7 26.05 30.05 25.95 29.6 25.85 29.1 25.6 28.0 25.4 26.1 25.2 24.2 25.1 23.75 L25.15 23.75 Q25.8 26.55 27.5 29.6 28.0 30.5 28.45 31.2 L29.2 31.5 29.4 31.55 29.65 31.65 29.85 31.7 35.05 31.7 Q37.8 31.2 39.1 29.25 L39.65 28.3 38.85 27.45 Q37.85 26.3 36.9 25.95 L35.9 25.6 Q33.85 24.8 32.5 24.0 L32.45 24.0 32.35 23.9 32.2 23.85 32.15 23.8 Q31.65 23.5 31.2 23.15 30.6 22.65 30.1 22.05 M15.1 -16.6 Q20.75 -15.6 24.75 -7.5 27.05 -2.95 28.4 3.05 28.95 5.5 30.1 8.2 31.25 11.0 32.75 13.35 L33.6 14.7 Q34.1 15.45 34.7 15.9 36.2 17.15 39.55 17.55 45.95 18.35 47.4 19.5 L47.5 19.55 49.3 20.15 Q49.15 20.25 49.05 20.45 47.3 20.45 45.9 20.7 45.15 20.5 44.2 20.5 39.35 20.5 37.45 21.4 36.3 21.9 36.3 22.65 36.3 22.75 36.5 23.2 36.7 23.7 36.7 23.95 L36.65 24.1 Q38.55 24.9 39.15 25.3 40.1 25.9 40.45 26.75 L40.55 26.65 Q40.65 26.8 40.85 27.3 41.0 27.8 41.0 27.95 41.0 29.7 39.55 31.1 38.0 32.6 35.05 33.3 L29.8 33.3 Q28.4 33.05 27.1 32.35 26.25 31.85 25.1 30.9 23.8 29.8 23.4 29.55 22.5 28.95 21.7 28.95 L19.65 29.1 19.45 29.25 Q19.4 30.2 19.2 30.6 18.7 31.8 16.9 32.3 15.95 32.55 15.15 33.15 14.7 33.45 13.95 34.15 13.2 34.75 12.5 35.0 11.5 35.4 10.15 35.4 6.15 35.4 3.7 31.85 2.9 30.65 2.35 29.25 L2.15 28.8 1.85 28.25 1.1 26.85 Q0.3 25.55 -0.75 25.65 -0.35 27.05 -0.35 28.25 -0.35 30.1 -1.2 32.0 -2.0 33.85 -3.7 35.9 -4.8 37.3 -5.05 39.7 L-5.15 41.65 Q-5.25 42.85 -5.35 43.5 -5.75 43.3 -5.85 42.7 L-5.9 42.35 Q-9.9 34.85 -11.2 30.25 -11.95 27.65 -12.25 24.85 -12.5 22.25 -12.5 18.6 -12.5 13.05 -11.9 8.95 -11.05 3.55 -9.05 -0.65 -7.45 -3.85 -4.15 -7.2 -1.05 -10.35 2.75 -12.7 6.6 -15.1 9.8 -15.9 11.3 -16.25 12.45 -16.25 13.3 -16.45 15.1 -16.6" fill="#111111" fill-rule="evenodd" stroke="none"/>
    <path d="M-2.85 33.15 Q-2.9 29.4 -4.05 24.75 L-4.85 21.5 Q-5.2 19.9 -5.2 18.95 -5.2 17.8 -5.05 16.85 -4.9 16.05 -4.65 15.55 L-4.65 15.9 -4.7 16.3 -4.7 16.35 Q-4.7 17.5 -4.15 19.15 -3.9 20.0 -3.25 21.65 L-3.0 22.3 Q-2.1 24.4 -1.8 25.4 -1.25 27.1 -1.25 28.2 -1.25 29.4 -1.5 30.45 -1.7 31.1 -1.95 31.65 L-2.0 31.75 -2.0 31.8 -2.8 33.1 -2.85 33.15 M9.75 33.65 L9.55 33.65 Q9.35 30.2 8.05 26.35 L6.95 23.15 Q6.45 21.5 6.45 20.3 6.45 18.15 6.65 16.8 6.95 14.6 7.85 13.7 L7.9 13.8 7.95 13.95 7.95 13.9 Q9.6 18.1 10.0 19.05 11.35 22.2 12.55 24.1 13.6 25.75 15.25 27.05 16.1 27.7 18.0 28.8 L18.55 29.1 Q18.5 29.35 18.4 29.55 L18.35 29.65 18.3 29.7 18.3 29.75 18.25 29.8 18.2 29.8 17.4 30.4 17.0 30.6 Q15.35 31.2 14.75 31.45 14.05 31.75 13.65 32.15 L13.35 32.45 12.7 32.95 Q11.85 33.5 10.75 33.65 L9.75 33.65 M29.2 31.5 L27.45 27.9 Q27.2 27.35 26.35 24.5 25.35 21.3 25.35 20.5 L25.5 18.3 Q25.6 16.05 25.6 14.9 L25.75 14.9 25.8 14.8 25.8 14.05 25.85 14.05 Q25.8 15.3 27.1 17.4 L28.2 19.15 Q28.85 20.2 29.15 20.85 29.5 21.5 30.1 22.05 30.6 22.65 31.2 23.15 31.65 23.5 32.15 23.8 L32.2 23.85 32.35 23.9 32.45 24.0 32.5 24.0 Q33.85 24.8 35.9 25.6 L36.9 25.95 Q37.85 26.3 38.85 27.45 L39.65 28.3 39.1 29.25 Q37.8 31.2 35.05 31.7 L29.85 31.7 29.65 31.65 29.4 31.55 29.2 31.5" fill="#363636" fill-rule="evenodd" stroke="none"/>
    <path d="M-2.85 33.15 L-3.45 33.9 Q-4.55 35.25 -4.95 35.9 -5.6 37.2 -5.6 38.85 -5.6 39.35 -5.8 40.85 -6.05 40.3 -6.35 39.55 -7.95 35.95 -8.5 34.5 -11.65 26.35 -11.65 18.65 L-11.65 14.0 Q-11.6 11.25 -11.35 9.2 -10.7 3.65 -8.3 0.05 -6.3 -3.2 -5.2 -4.75 -3.3 -7.45 -1.2 -9.25 3.95 -13.6 13.9 -15.25 L14.1 -15.3 15.0 -15.3 Q18.15 -14.6 19.55 -13.4 20.05 -13.0 20.5 -12.3 L21.3 -11.15 Q23.4 -8.3 24.2 -6.2 25.35 -3.35 26.05 -1.3 26.95 1.3 27.5 3.65 28.1 6.1 29.05 8.6 30.1 11.15 31.45 13.5 L32.15 14.7 Q32.55 15.45 33.05 16.0 34.3 17.45 36.55 18.15 37.55 18.5 38.85 18.8 L41.4 19.3 Q35.4 19.35 35.4 22.65 35.4 23.2 35.55 23.7 L35.5 23.65 Q32.8 22.6 31.4 21.55 29.3 20.0 28.5 17.65 L28.4 17.65 28.4 17.8 Q28.4 19.35 29.3 20.95 29.65 21.5 30.1 22.05 29.5 21.5 29.15 20.85 28.85 20.2 28.2 19.15 L27.1 17.4 Q25.8 15.3 25.85 14.05 L25.8 14.05 25.8 14.8 25.75 14.9 25.6 14.9 Q25.6 16.05 25.5 18.3 L25.35 20.5 Q25.35 21.3 26.35 24.5 27.2 27.35 27.45 27.9 L29.2 31.5 28.45 31.2 Q28.0 30.5 27.5 29.6 25.8 26.55 25.15 23.75 L25.1 23.75 Q25.2 24.2 25.4 26.1 25.6 28.0 25.85 29.1 25.95 29.6 26.05 30.05 25.45 29.7 24.85 29.3 L22.95 28.15 Q22.2 27.65 22.05 27.65 20.35 27.65 19.55 28.1 L19.5 28.15 Q19.5 27.15 19.0 25.75 L17.9 22.8 Q16.3 18.5 16.3 14.45 L16.35 13.7 16.4 12.85 Q16.05 13.15 15.85 14.9 15.75 16.15 15.75 17.5 15.75 19.6 17.15 24.15 L18.25 27.5 18.55 28.5 18.55 29.1 18.0 28.8 Q16.1 27.7 15.25 27.05 13.6 25.75 12.55 24.1 11.35 22.2 10.0 19.05 9.6 18.1 7.95 13.9 L7.95 13.95 7.9 13.8 7.85 13.7 Q6.95 14.6 6.65 16.8 6.45 18.15 6.45 20.3 6.45 21.5 6.95 23.15 L8.05 26.35 Q9.35 30.2 9.55 33.65 L9.75 33.65 Q5.7 33.45 3.65 29.2 1.95 25.6 1.4 18.6 L1.3 18.6 1.25 19.5 Q1.25 20.8 1.5 24.0 L1.6 25.45 Q1.4 25.2 1.1 24.95 0.6 24.6 0.0 24.5 -0.6 24.4 -0.95 24.55 L-1.1 24.65 -2.25 21.8 Q-3.1 19.6 -3.55 17.7 -4.15 15.0 -4.15 11.9 L-4.05 11.2 Q-4.15 11.6 -4.4 13.6 L-4.65 15.55 Q-4.9 16.05 -5.05 16.85 -5.2 17.8 -5.2 18.95 -5.2 19.9 -4.85 21.5 L-4.05 24.75 Q-2.9 29.4 -2.85 33.15" fill="#262626" fill-rule="evenodd" stroke="none"/>
  </g>
</svg>
