<?xml version="1.0" encoding="UTF-8" standalone="no"?>
<svg xmlns:ffdec="https://www.free-decompiler.com/flash" xmlns:xlink="http://www.w3.org/1999/xlink" ffdec:objectType="shape" height="56.75px" width="47.0px" xmlns="http://www.w3.org/2000/svg">
  <g transform="matrix(1.0, 0.0, 0.0, 1.0, 11.75, 14.55)">
    <path d="M16.85 26.85 Q16.9 27.35 17.4 28.8 L17.65 29.5 Q18.1 29.05 18.7 28.8 19.4 28.55 20.05 28.75 L20.25 28.8 Q21.6 28.8 22.8 30.05 24.75 33.5 26.9 34.35 27.75 34.7 28.9 34.75 L31.0 34.75 Q31.15 34.75 31.55 34.6 31.95 34.45 32.1 34.45 32.55 34.45 32.9 34.55 30.95 30.1 29.65 24.75 28.4 19.6 27.4 11.5 26.9 7.35 26.4 4.9 25.6 1.1 24.4 -1.7 24.05 -2.45 23.25 -5.0 22.55 -7.15 21.9 -8.4 20.0 -11.9 15.65 -13.6 13.0 -13.3 10.8 -11.25 9.85 -10.45 8.6 -8.85 7.1 -7.05 6.65 -6.55 4.95 -4.8 2.8 -2.0 0.25 1.25 -0.9 2.55 -1.7 3.45 -3.2 5.85 -4.85 8.45 -6.4 11.25 -10.35 18.55 -10.35 21.4 L-10.6 23.5 Q-10.85 25.6 -10.85 25.95 -10.85 26.85 -10.7 30.35 L-10.5 34.0 Q-10.5 34.85 -10.55 35.3 L-10.55 41.0 Q-9.0 40.0 -7.95 38.15 -6.9 36.0 -6.25 35.0 L-6.1 34.8 Q-5.45 33.9 -4.7 33.1 L-3.8 32.3 Q-1.35 30.25 1.25 30.25 2.7 30.25 3.55 30.75 4.1 31.05 5.0 31.85 6.0 32.6 7.5 32.95 9.5 33.45 12.9 33.45 13.85 33.45 15.6 32.1 L16.1 31.7 16.2 31.6 16.3 31.55 Q16.35 31.2 16.7 30.75 L17.1 30.25 17.0 29.1 16.8 27.5 16.8 26.85 16.85 26.85 M7.4 -9.45 Q10.45 -12.8 12.65 -13.95 14.9 -15.1 16.65 -14.1 19.5 -13.7 21.85 -9.95 22.85 -8.3 23.8 -5.95 24.3 -4.7 24.85 -3.1 26.0 -0.05 26.85 3.55 27.55 6.45 28.1 10.25 28.45 12.4 29.05 16.95 29.65 21.05 30.3 23.75 30.7 25.45 32.8 31.3 34.8 36.7 34.8 37.05 34.95 37.6 35.05 38.25 35.25 39.2 35.25 39.9 35.25 40.2 35.2 40.35 L35.1 40.4 Q34.55 38.35 34.05 37.3 33.65 36.5 33.1 36.0 L33.0 36.0 32.05 35.95 31.55 36.1 Q30.85 36.25 29.6 36.25 27.35 36.25 25.7 35.25 24.5 34.5 23.45 33.0 22.35 31.35 21.9 30.75 21.3 30.0 20.7 29.8 L20.5 29.85 19.45 29.85 Q18.8 29.85 18.2 30.45 L17.9 30.75 17.85 30.95 17.95 31.15 Q17.95 31.6 17.6 32.2 17.2 32.9 16.6 33.5 15.05 35.05 13.15 35.05 9.8 35.05 7.65 34.5 6.1 34.15 4.9 33.35 3.75 32.55 3.15 32.25 2.2 31.7 0.85 31.7 -1.35 31.7 -3.2 33.35 -4.6 34.55 -6.1 36.95 L-8.3 40.5 Q-9.45 42.15 -10.35 42.15 -10.55 42.15 -10.75 42.05 L-10.8 42.2 Q-11.0 42.1 -11.25 41.75 -11.4 41.45 -11.45 41.25 L-11.45 35.05 -11.75 23.65 Q-11.75 20.3 -8.3 12.65 -6.85 9.45 -5.35 6.8 -3.8 4.1 -2.85 3.1 -1.2 1.45 2.1 -2.85 5.8 -7.6 7.4 -9.45" fill="#111111" fill-rule="evenodd" stroke="none"/>
    <path d="M-6.1 34.8 L-6.15 32.75 Q-6.15 30.25 -6.0 29.0 -5.7 26.65 -4.75 25.9 L-4.65 26.25 -4.85 27.7 -4.95 28.8 Q-4.95 29.65 -4.7 33.1 -5.45 33.9 -6.1 34.8 M16.1 31.7 Q15.6 28.75 15.6 28.2 15.6 27.3 15.9 25.45 16.25 23.5 16.45 23.1 16.7 23.55 16.7 23.95 L16.65 24.7 Q16.65 25.5 16.85 26.85 L16.8 26.85 16.8 27.5 17.0 29.1 17.1 30.25 16.7 30.75 Q16.35 31.2 16.3 31.55 L16.2 31.6 16.1 31.7" fill="#363636" fill-rule="evenodd" stroke="none"/>
    <path d="M-6.1 34.8 L-6.25 35.0 Q-6.9 36.0 -7.95 38.15 -9.0 40.0 -10.55 41.0 L-10.55 35.3 Q-10.5 34.85 -10.5 34.0 L-10.7 30.35 Q-10.85 26.85 -10.85 25.95 -10.85 25.6 -10.6 23.5 L-10.35 21.4 Q-10.35 18.55 -6.4 11.25 -4.85 8.45 -3.2 5.85 -1.7 3.45 -0.9 2.55 0.25 1.25 2.8 -2.0 4.95 -4.8 6.65 -6.55 7.1 -7.05 8.6 -8.85 9.85 -10.45 10.8 -11.25 13.0 -13.3 15.65 -13.6 20.0 -11.9 21.9 -8.4 22.55 -7.15 23.25 -5.0 24.05 -2.45 24.4 -1.7 25.6 1.1 26.4 4.9 26.9 7.35 27.4 11.5 28.4 19.6 29.65 24.75 30.95 30.1 32.9 34.55 32.55 34.45 32.1 34.45 31.95 34.45 31.55 34.6 31.15 34.75 31.0 34.75 L28.9 34.75 Q27.75 34.7 26.9 34.35 24.75 33.5 22.8 30.05 21.6 28.8 20.25 28.8 L20.05 28.75 Q19.4 28.55 18.7 28.8 18.1 29.05 17.65 29.5 L17.4 28.8 Q16.9 27.35 16.85 26.85 16.65 25.5 16.65 24.7 L16.7 23.95 Q16.7 23.55 16.45 23.1 16.25 23.5 15.9 25.45 15.6 27.3 15.6 28.2 15.6 28.75 16.1 31.7 L15.6 32.1 Q13.85 33.45 12.9 33.45 9.5 33.45 7.5 32.95 6.0 32.6 5.0 31.85 4.1 31.05 3.55 30.75 2.7 30.25 1.25 30.25 -1.35 30.25 -3.8 32.3 L-4.7 33.1 Q-4.95 29.65 -4.95 28.8 L-4.85 27.7 -4.65 26.25 -4.75 25.9 Q-5.7 26.65 -6.0 29.0 -6.15 30.25 -6.15 32.75 L-6.1 34.8" fill="#262626" fill-rule="evenodd" stroke="none"/>
  </g>
</svg>
