<?xml version="1.0" encoding="UTF-8" standalone="no"?>
<svg xmlns:ffdec="https://www.free-decompiler.com/flash" xmlns:xlink="http://www.w3.org/1999/xlink" ffdec:objectType="shape" height="61.9px" width="51.95px" xmlns="http://www.w3.org/2000/svg">
  <g transform="matrix(1.0, 0.0, 0.0, 1.0, 13.25, 13.7)">
    <path d="M37.15 35.35 L37.2 35.2 Q37.0 33.3 36.8 31.9 36.05 26.75 34.45 22.9 32.7 18.7 31.0 14.35 29.4 10.2 28.65 7.85 26.65 3.15 25.25 0.3 22.95 -4.55 20.95 -7.35 18.7 -10.55 16.4 -11.9 L15.55 -12.3 12.95 -12.5 Q10.35 -12.5 8.1 -11.2 L7.65 -10.9 Q-1.75 -3.15 -7.15 5.9 -9.85 10.45 -11.25 14.9 -11.55 16.1 -11.8 17.4 -12.4 22.65 -12.45 23.35 L-12.45 23.4 Q-12.45 26.85 -12.25 30.15 -11.95 34.0 -11.1 38.05 -10.85 39.25 -10.2 42.2 -9.75 44.05 -9.75 44.55 L-9.75 44.7 -9.6 44.45 -9.15 43.6 Q-8.55 42.5 -8.15 41.65 L-7.75 40.8 -7.45 40.0 -7.45 39.95 Q-7.1 38.65 -7.0 36.6 -6.95 35.65 -6.95 33.15 -6.95 29.45 -6.35 26.1 L-6.15 25.05 Q-5.95 23.6 -5.45 21.9 L-4.8 20.1 Q-4.15 18.45 -3.35 17.0 -4.05 19.1 -4.8 21.8 L-5.65 26.65 Q-6.05 28.95 -6.15 29.9 -6.25 30.85 -6.2 32.5 L-6.2 34.8 Q-6.05 34.6 -5.85 34.5 -5.2 34.1 -3.9 34.1 -1.95 34.1 -0.55 34.65 0.2 34.9 1.7 35.8 3.1 36.65 4.25 36.95 6.0 37.5 8.45 37.5 10.55 37.5 11.85 37.25 12.5 37.1 13.05 36.85 13.6 36.6 14.05 36.3 14.9 35.65 15.7 34.5 L16.1 33.95 16.95 32.55 16.95 32.1 Q16.95 31.5 16.0 28.05 15.0 24.6 15.0 23.2 15.0 22.7 14.75 21.05 14.55 19.8 14.5 19.2 L14.5 18.9 14.55 18.6 14.55 18.45 14.55 18.4 14.65 18.4 Q15.05 20.5 16.6 26.4 L17.75 30.8 Q17.95 30.45 18.4 30.3 19.15 30.1 20.4 30.55 21.5 30.95 22.65 31.7 23.75 32.4 24.2 33.05 25.15 33.95 26.35 34.75 25.7 33.4 25.2 31.95 24.75 30.75 23.85 27.55 23.1 24.75 22.45 23.15 22.5 23.15 22.55 23.1 22.7 23.55 24.0 27.4 24.9 30.1 25.9 31.8 26.2 32.35 28.65 35.75 L29.05 36.35 Q31.5 37.55 33.55 37.55 L33.6 37.55 Q35.0 37.55 36.15 36.5 36.85 35.9 37.15 35.35 M7.55 -11.9 Q10.9 -14.1 12.8 -13.6 14.55 -13.7 16.1 -13.15 L16.25 -13.1 17.25 -12.8 Q19.35 -12.1 20.85 -10.1 21.8 -8.85 22.95 -6.35 24.15 -3.75 24.75 -2.9 26.2 -0.15 27.9 3.75 28.95 6.1 30.85 10.65 32.45 14.5 34.95 19.95 36.75 23.9 37.3 25.6 38.1 27.95 38.4 30.5 38.7 33.0 38.7 37.75 38.7 38.2 38.4 39.15 38.2 39.75 38.0 40.15 L37.9 40.7 37.75 40.75 37.75 40.55 37.7 40.55 Q37.6 40.2 37.6 39.9 L37.65 39.55 37.4 37.1 Q37.15 37.5 36.65 37.95 35.4 39.05 34.1 39.05 31.45 39.05 28.95 37.9 27.1 37.0 24.95 35.25 22.75 33.4 21.8 32.65 20.25 31.5 19.25 31.5 18.9 31.5 18.45 31.8 L18.0 32.15 Q17.95 32.65 17.8 33.05 17.65 33.55 17.35 34.15 16.75 35.3 15.7 36.25 12.9 38.85 8.45 38.85 6.0 38.85 4.2 38.3 3.0 37.95 1.55 37.1 -0.05 36.2 -0.85 35.9 -2.35 35.35 -4.3 35.35 -4.75 35.35 -5.35 35.6 -5.85 35.8 -6.2 35.8 L-6.2 37.45 Q-6.2 39.25 -6.5 40.4 -6.75 41.25 -7.35 42.25 L-8.7 44.4 -8.9 44.8 Q-8.95 45.25 -9.45 46.45 -9.95 47.7 -10.35 48.2 -10.75 46.55 -11.85 39.15 L-11.95 38.65 Q-12.35 36.65 -12.6 35.3 -13.25 31.15 -13.25 25.1 -13.25 24.3 -13.0 22.2 L-13.0 21.9 -13.05 19.55 Q-13.05 18.25 -12.65 16.6 -11.5 11.15 -8.35 5.7 -6.65 2.75 -4.5 -0.15 -2.2 -3.2 0.25 -5.6 L0.85 -6.2 Q1.8 -7.2 2.75 -8.1 4.65 -9.95 6.3 -11.0 L7.55 -11.9 M34.25 20.65 Q36.1 25.35 37.05 28.75 37.45 30.3 37.7 31.75 L37.45 29.85 Q37.05 27.3 36.05 24.65 35.45 23.15 33.75 19.5 L34.25 20.65" fill="#111111" fill-rule="evenodd" stroke="none"/>
    <path d="M-8.15 41.65 L-8.15 41.75 Q-8.4 41.05 -8.55 39.55 L-8.75 36.6 Q-8.75 31.35 -8.15 28.55 -7.35 24.6 -4.75 19.95 L-4.8 20.1 -5.45 21.9 Q-5.95 23.6 -6.15 25.05 L-6.35 26.1 Q-6.95 29.45 -6.95 33.15 -6.95 35.65 -7.0 36.6 -7.1 38.65 -7.45 39.95 L-7.45 40.0 -7.75 40.8 -8.15 41.65 M11.85 37.25 Q11.55 35.1 11.55 33.0 11.55 28.9 12.15 24.75 12.75 20.1 13.95 16.85 L14.05 16.9 14.1 16.4 14.15 16.4 Q14.2 16.85 14.55 18.45 L14.55 18.6 14.5 18.9 14.5 19.2 Q14.55 19.8 14.75 21.05 15.0 22.7 15.0 23.2 15.0 24.6 16.0 28.05 16.95 31.5 16.95 32.1 L16.95 32.55 16.1 33.95 15.7 34.5 Q14.9 35.65 14.05 36.3 13.6 36.6 13.05 36.85 12.5 37.1 11.85 37.25 M33.55 37.55 L33.45 37.55 Q33.15 36.3 32.75 34.55 31.75 29.65 31.05 24.2 L31.1 24.2 35.05 31.4 Q36.4 33.9 37.15 35.35 36.85 35.9 36.15 36.5 35.0 37.55 33.6 37.55 L33.55 37.55 M34.25 20.65 L33.75 19.5 Q35.45 23.15 36.05 24.65 37.05 27.3 37.45 29.85 L37.7 31.75 Q37.45 30.3 37.05 28.75 36.1 25.35 34.25 20.65" fill="#363636" fill-rule="evenodd" stroke="none"/>
    <path d="M-8.15 41.65 Q-8.55 42.5 -9.15 43.6 L-9.6 44.45 -9.75 44.7 -9.75 44.55 Q-9.75 44.05 -10.2 42.2 -10.85 39.25 -11.1 38.05 -11.95 34.0 -12.25 30.15 -12.45 26.85 -12.45 23.4 L-12.45 23.35 Q-12.4 22.65 -11.8 17.4 -11.55 16.1 -11.25 14.9 -9.85 10.45 -7.15 5.9 -1.75 -3.15 7.65 -10.9 L8.1 -11.2 Q10.35 -12.5 12.95 -12.5 L15.55 -12.3 16.4 -11.9 Q18.7 -10.55 20.95 -7.35 22.95 -4.55 25.25 0.3 26.65 3.15 28.65 7.85 29.4 10.2 31.0 14.35 32.7 18.7 34.45 22.9 36.05 26.75 36.8 31.9 37.0 33.3 37.2 35.2 L37.15 35.35 Q36.4 33.9 35.05 31.4 L31.1 24.2 31.05 24.2 Q31.75 29.65 32.75 34.55 33.15 36.3 33.45 37.55 L33.55 37.55 Q31.5 37.55 29.05 36.35 L28.65 35.75 Q26.2 32.35 25.9 31.8 24.9 30.1 24.0 27.4 22.7 23.55 22.55 23.1 22.5 23.15 22.45 23.15 23.1 24.75 23.85 27.55 24.75 30.75 25.2 31.95 25.7 33.4 26.35 34.75 25.15 33.95 24.2 33.05 23.75 32.4 22.65 31.7 21.5 30.95 20.4 30.55 19.15 30.1 18.4 30.3 17.95 30.45 17.75 30.8 L16.6 26.4 Q15.05 20.5 14.65 18.4 L14.55 18.4 14.55 18.45 Q14.2 16.85 14.15 16.4 L14.1 16.4 14.05 16.9 13.95 16.85 Q12.75 20.1 12.15 24.75 11.55 28.9 11.55 33.0 11.55 35.1 11.85 37.25 10.55 37.5 8.45 37.5 6.0 37.5 4.25 36.95 3.1 36.65 1.7 35.8 0.2 34.9 -0.55 34.65 -1.95 34.1 -3.9 34.1 -5.2 34.1 -5.85 34.5 -6.05 34.6 -6.2 34.8 L-6.2 32.5 Q-6.25 30.85 -6.15 29.9 -6.05 28.95 -5.65 26.65 L-4.8 21.8 Q-4.05 19.1 -3.35 17.0 -4.15 18.45 -4.8 20.1 L-4.75 19.95 Q-7.35 24.6 -8.15 28.55 -8.75 31.35 -8.75 36.6 L-8.55 39.55 Q-8.4 41.05 -8.15 41.75 L-8.15 41.65" fill="#262626" fill-rule="evenodd" stroke="none"/>
  </g>
</svg>
