<?xml version="1.0" encoding="UTF-8" standalone="no"?>
<svg xmlns:ffdec="https://www.free-decompiler.com/flash" xmlns:xlink="http://www.w3.org/1999/xlink" ffdec:objectType="shape" height="63.0px" width="56.3px" xmlns="http://www.w3.org/2000/svg">
  <g transform="matrix(1.0, 0.0, 0.0, 1.0, 14.7, 14.65)">
    <path d="M37.35 34.15 Q37.25 32.35 35.85 29.45 35.05 27.7 32.6 23.35 30.3 19.25 29.35 17.1 27.9 13.75 27.9 11.6 L27.9 11.4 27.95 11.5 28.0 11.5 Q29.2 15.1 31.15 18.85 32.1 20.65 34.5 24.75 36.35 27.85 37.1 29.55 37.35 29.35 37.6 29.25 L37.65 29.25 Q37.3 28.05 36.9 27.05 35.95 24.6 33.8 19.95 31.25 14.6 30.5 12.85 28.6 8.4 27.4 5.65 25.55 1.6 24.1 -1.3 22.8 -3.85 22.2 -4.9 21.0 -6.95 19.75 -8.5 17.7 -10.9 16.35 -11.7 L15.35 -12.35 Q14.65 -12.9 14.1 -13.05 L9.75 -13.4 Q4.85 -12.0 3.35 -11.05 1.6 -9.9 -0.1 -8.45 -1.9 -6.95 -2.85 -5.75 -5.1 -2.8 -6.75 -0.05 -8.35 2.65 -9.45 5.5 -11.85 11.65 -12.4 16.8 L-13.0 22.15 Q-13.6 27.15 -13.6 28.05 -13.6 34.7 -11.5 41.65 L-11.0 43.25 Q-10.9 42.9 -10.65 42.55 -10.4 42.15 -9.6 41.3 L-9.4 41.15 Q-8.8 40.5 -8.5 40.0 -8.0 39.15 -8.0 38.0 -8.0 37.8 -8.2 36.3 -8.4 34.75 -8.4 33.15 -8.4 28.35 -7.8 24.3 L-7.75 24.25 -7.75 24.1 -7.7 23.95 -7.7 23.75 Q-7.55 22.95 -7.4 22.2 L-6.8 20.05 -6.75 20.0 Q-6.45 19.1 -6.1 18.5 L-5.9 18.2 Q-5.45 17.55 -4.95 17.25 -6.25 18.5 -7.0 23.3 -7.6 26.95 -7.6 30.35 -7.6 31.35 -7.35 35.8 L-7.05 35.6 Q-5.65 34.85 -2.85 34.85 -1.6 34.85 2.3 36.2 L6.7 37.75 9.45 37.75 10.3 37.75 11.2 37.5 Q13.8 36.65 15.3 35.1 16.0 34.4 16.5 33.5 16.55 33.3 16.55 33.1 16.55 32.8 16.0 30.9 L15.65 29.8 Q15.05 27.75 14.75 26.4 13.4 21.1 13.05 16.35 12.9 14.65 12.9 13.0 12.9 12.4 13.0 12.15 L13.05 12.15 13.05 12.55 13.0 13.0 Q13.0 16.0 15.25 24.4 L16.8 30.0 17.2 31.65 Q17.6 31.25 18.2 31.05 19.65 30.4 20.95 31.0 21.95 31.4 23.05 32.05 24.4 32.9 24.85 33.1 L25.25 33.35 25.15 33.05 Q24.7 31.95 24.25 30.5 L23.75 28.95 22.35 25.1 Q21.55 22.75 21.05 20.9 L21.15 20.9 Q21.7 22.5 22.75 24.85 L24.5 28.65 Q24.75 29.15 25.3 30.6 25.75 31.85 26.1 32.55 26.55 33.35 27.6 34.7 L28.55 35.25 Q30.7 36.45 32.25 36.75 L33.25 36.85 33.9 36.8 Q35.6 36.7 36.55 36.1 L37.3 35.25 37.3 35.15 37.35 35.1 37.35 34.15 M22.55 -6.4 Q23.3 -5.2 24.65 -2.7 L27.75 4.35 29.1 7.35 32.65 13.2 Q35.65 18.05 37.15 20.85 39.3 24.95 40.35 28.45 41.6 32.45 41.6 36.4 L41.6 37.65 41.55 38.0 Q41.4 39.2 41.25 39.85 L41.2 40.1 41.1 40.35 Q40.55 41.5 40.25 41.8 40.15 40.8 39.95 39.85 L39.95 39.2 Q39.55 37.45 38.9 34.35 38.55 32.6 38.15 31.1 L38.05 31.15 Q37.9 31.15 37.8 31.0 37.75 30.9 37.6 30.9 38.1 32.35 38.2 33.65 L38.35 34.2 Q38.35 34.65 38.2 35.1 L38.2 35.75 Q38.1 36.25 37.9 36.6 37.7 36.8 37.5 36.95 L37.5 36.9 37.45 36.95 Q37.2 37.15 36.95 37.25 L36.65 37.5 Q35.6 38.3 34.05 38.45 L33.25 38.5 32.35 38.4 Q31.3 38.15 29.85 37.5 29.1 37.15 28.0 36.5 27.35 36.45 26.75 35.8 L25.9 35.3 Q23.15 33.65 22.1 33.15 20.15 32.15 19.1 32.15 18.25 32.15 17.7 32.5 L17.45 32.65 17.45 32.75 Q17.55 33.0 17.55 33.2 17.55 33.55 17.4 33.95 L17.4 34.0 Q17.3 34.3 17.15 34.45 L16.85 34.9 Q16.2 35.85 15.1 36.75 12.95 38.6 10.9 39.05 L10.3 39.15 6.6 39.15 Q4.4 38.25 2.35 37.55 -1.6 36.15 -4.0 36.15 -5.5 36.15 -6.6 36.65 -6.95 36.85 -7.25 37.0 L-7.2 38.0 Q-7.2 38.9 -7.6 40.2 L-7.85 40.95 Q-8.15 41.7 -8.5 42.25 -8.65 42.45 -9.3 42.95 L-9.4 43.05 Q-10.1 43.55 -10.25 44.05 L-10.25 44.6 -10.3 45.05 -10.25 45.3 -10.25 45.45 Q-10.1 46.25 -9.45 48.2 L-9.45 48.35 -10.2 48.0 Q-10.4 47.9 -10.6 47.85 -12.7 46.0 -13.75 40.75 -14.7 36.4 -14.7 31.6 -14.7 29.45 -14.3 26.4 -14.2 23.85 -13.7 20.5 -13.7 19.65 -13.5 18.3 -13.25 15.55 -12.6 12.45 -11.8 8.65 -10.8 6.4 -10.4 5.25 -10.05 4.5 -7.75 0.05 -6.95 -1.3 -5.0 -4.7 -2.85 -7.25 0.0 -10.5 4.4 -12.65 7.45 -14.1 10.2 -14.4 14.65 -15.7 19.05 -11.1 20.85 -9.2 22.55 -6.4 M33.8 17.8 Q35.75 22.1 37.0 25.25 40.15 33.3 40.6 38.4 40.75 37.4 40.75 36.25 40.75 32.25 38.7 26.95 37.2 23.0 34.2 17.7 L32.3 14.45 33.8 17.8 M-13.0 40.2 Q-13.0 41.35 -12.3 42.95 -12.65 41.65 -13.0 40.0 L-13.0 40.2" fill="#111111" fill-rule="evenodd" stroke="none"/>
    <path d="M-9.4 41.15 L-9.5 39.9 -9.6 34.75 Q-9.6 29.8 -8.95 26.65 -8.35 23.55 -6.75 20.0 L-6.8 20.05 -7.4 22.2 Q-7.55 22.95 -7.7 23.75 L-7.7 23.95 -7.75 24.1 -7.75 24.25 -7.8 24.3 Q-8.4 28.35 -8.4 33.15 -8.4 34.75 -8.2 36.3 -8.0 37.8 -8.0 38.0 -8.0 39.15 -8.5 40.0 -8.8 40.5 -9.4 41.15 M-6.1 18.5 L-5.95 18.2 -5.9 18.2 -6.1 18.5 M9.45 37.75 L9.55 37.2 Q9.9 34.0 9.95 33.3 L9.95 25.45 Q9.75 22.4 10.4 18.4 10.75 16.3 11.8 11.85 L11.95 11.9 Q12.0 11.95 12.0 12.15 L11.95 12.4 Q12.2 13.35 13.05 16.35 13.4 21.1 14.75 26.4 15.05 27.75 15.65 29.8 L16.0 30.9 Q16.55 32.8 16.55 33.1 16.55 33.3 16.5 33.5 16.0 34.4 15.3 35.1 13.8 36.65 11.2 37.5 L10.3 37.75 9.45 37.75 M32.25 36.75 L32.1 34.35 30.85 29.8 Q29.7 25.5 29.7 24.75 29.25 22.6 29.25 22.05 29.25 21.8 29.35 21.45 L29.35 21.3 29.4 21.5 Q29.25 20.85 29.25 20.3 29.25 20.15 29.3 20.1 L29.25 20.0 29.35 20.0 Q30.35 21.85 32.15 24.7 34.35 28.1 34.95 29.1 36.4 31.55 37.1 33.5 L37.35 34.15 37.35 35.1 37.3 35.15 37.3 35.25 36.55 36.1 Q35.6 36.7 33.9 36.8 L33.25 36.85 32.25 36.75 M33.8 17.8 L32.3 14.45 34.2 17.7 Q37.2 23.0 38.7 26.95 40.75 32.25 40.75 36.25 40.75 37.4 40.6 38.4 40.15 33.3 37.0 25.25 35.75 22.1 33.8 17.8 M-5.65 18.7 Q-5.65 18.85 -6.55 21.4 L-6.8 22.15 Q-6.35 19.75 -5.7 18.4 -5.65 18.55 -5.65 18.7 M-13.0 40.2 L-13.0 40.0 Q-12.65 41.65 -12.3 42.95 -13.0 41.35 -13.0 40.2" fill="#363636" fill-rule="evenodd" stroke="none"/>
    <path d="M-9.4 41.15 L-9.6 41.3 Q-10.4 42.15 -10.65 42.55 -10.9 42.9 -11.0 43.25 L-11.5 41.65 Q-13.6 34.7 -13.6 28.05 -13.6 27.15 -13.0 22.15 L-12.4 16.8 Q-11.85 11.65 -9.45 5.5 -8.35 2.65 -6.75 -0.05 -5.1 -2.8 -2.85 -5.75 -1.9 -6.95 -0.1 -8.45 1.6 -9.9 3.35 -11.05 4.85 -12.0 9.75 -13.4 L14.1 -13.05 Q14.65 -12.9 15.35 -12.35 L16.35 -11.7 Q17.7 -10.9 19.75 -8.5 21.0 -6.95 22.2 -4.9 22.8 -3.85 24.1 -1.3 25.55 1.6 27.4 5.65 28.6 8.4 30.5 12.85 31.25 14.6 33.8 19.95 35.95 24.6 36.9 27.05 37.3 28.05 37.65 29.25 L37.6 29.25 Q37.35 29.35 37.1 29.55 36.35 27.85 34.5 24.75 32.1 20.65 31.15 18.85 29.2 15.1 28.0 11.5 L27.95 11.5 27.9 11.4 27.9 11.6 Q27.9 13.75 29.35 17.1 30.3 19.25 32.6 23.35 35.05 27.7 35.85 29.45 37.25 32.35 37.35 34.15 L37.1 33.5 Q36.4 31.55 34.95 29.1 34.35 28.1 32.15 24.7 30.35 21.85 29.35 20.0 L29.25 20.0 29.3 20.1 Q29.25 20.15 29.25 20.3 29.25 20.85 29.4 21.5 L29.35 21.3 29.35 21.45 Q29.25 21.8 29.25 22.05 29.25 22.6 29.7 24.75 29.7 25.5 30.85 29.8 L32.1 34.35 32.25 36.75 Q30.7 36.45 28.55 35.25 L27.6 34.7 Q26.55 33.35 26.1 32.55 25.75 31.85 25.3 30.6 24.75 29.15 24.5 28.65 L22.75 24.85 Q21.7 22.5 21.15 20.9 L21.05 20.9 Q21.55 22.75 22.35 25.1 L23.75 28.95 24.25 30.5 Q24.7 31.95 25.15 33.05 L25.25 33.35 24.85 33.1 Q24.4 32.9 23.05 32.05 21.95 31.4 20.95 31.0 19.65 30.4 18.2 31.05 17.6 31.25 17.2 31.65 L16.8 30.0 15.25 24.4 Q13.0 16.0 13.0 13.0 L13.05 12.55 13.05 12.15 13.0 12.15 Q12.9 12.4 12.9 13.0 12.9 14.65 13.05 16.35 12.2 13.35 11.95 12.4 L12.0 12.15 Q12.0 11.95 11.95 11.9 L11.8 11.85 Q10.75 16.3 10.4 18.4 9.75 22.4 9.95 25.45 L9.95 33.3 Q9.9 34.0 9.55 37.2 L9.45 37.75 6.7 37.75 2.3 36.2 Q-1.6 34.85 -2.85 34.85 -5.65 34.85 -7.05 35.6 L-7.35 35.8 Q-7.6 31.35 -7.6 30.35 -7.6 26.95 -7.0 23.3 -6.25 18.5 -4.95 17.25 -5.45 17.55 -5.9 18.2 L-5.95 18.2 -6.1 18.5 Q-6.45 19.1 -6.75 20.0 -8.35 23.55 -8.95 26.65 -9.6 29.8 -9.6 34.75 L-9.5 39.9 -9.4 41.15 M-5.65 18.7 Q-5.65 18.55 -5.7 18.4 -6.35 19.75 -6.8 22.15 L-6.55 21.4 Q-5.65 18.85 -5.65 18.7" fill="#262626" fill-rule="evenodd" stroke="none"/>
  </g>
</svg>
