<?xml version="1.0" encoding="UTF-8" standalone="no"?>
<svg xmlns:ffdec="https://www.free-decompiler.com/flash" xmlns:xlink="http://www.w3.org/1999/xlink" ffdec:objectType="shape" height="19.8px" width="43.0px" xmlns="http://www.w3.org/2000/svg">
  <g transform="matrix(1.0, 0.0, 0.0, 1.0, 24.6, 10.7)">
    <path d="M-6.65 0.15 L-6.4 0.6 Q-6.0 1.35 -5.2 3.2 L-5.2 3.25 -5.25 3.3 -6.1 1.4 Q-6.25 1.2 -6.7 0.5 -7.25 -0.35 -7.25 -0.6 -6.95 -0.25 -6.65 0.15 M-9.0 0.2 L-9.05 0.2 -8.9 0.05 -8.85 0.05 -9.0 0.2 M-9.5 0.9 L-9.45 0.95 -9.5 1.2 -9.5 1.75 -9.35 1.95 Q-8.9 2.5 -8.0 4.75 L-8.15 4.8 -8.25 4.8 Q-8.6 4.05 -9.1 2.85 L-9.7 1.15 -9.5 0.9 M-11.5 3.95 Q-11.45 3.9 -11.35 3.9 -11.2 4.35 -11.15 4.65 L-11.2 4.7 Q-11.4 4.6 -11.5 4.55 L-11.6 4.0 -11.5 3.95 M-11.95 3.45 Q-11.5 4.35 -11.5 4.85 -11.75 4.8 -12.05 4.2 -12.45 3.45 -12.5 2.55 -12.35 2.65 -11.95 3.45 M-23.05 8.4 L-23.15 8.3 -23.2 8.1 Q-23.05 8.05 -22.9 8.0 L-22.35 8.05 -22.65 8.3 -22.9 8.45 -23.05 8.4" fill="#ffffff" fill-rule="evenodd" stroke="none"/>
    <path d="M0.0 -2.95 L-0.05 -2.85 0.05 -2.9 0.15 -2.9 Q0.65 -3.15 1.4 -3.4 L1.85 -3.6 Q2.5 -4.0 3.4 -4.35 L3.8 -4.5 7.0 -6.05 7.4 -6.25 Q10.8 -7.8 11.5 -7.8 11.85 -7.7 12.3 -7.4 12.8 -7.1 13.8 -6.2 14.85 -5.25 15.35 -4.9 15.65 -4.7 15.9 -4.6 L14.85 -4.5 14.8 -4.5 14.0 -4.4 13.7 -4.4 13.7 -4.5 13.55 -4.4 13.35 -4.35 12.9 -4.45 Q11.35 -3.9 9.3 -3.1 L6.9 -3.15 6.65 -3.15 Q8.6 -5.05 9.9 -6.85 L9.85 -6.9 Q8.4 -5.25 6.05 -3.1 4.6 -2.95 1.8 -2.55 L1.9 -2.45 2.1 -2.45 4.35 -2.65 5.7 -2.8 4.4 -1.6 3.05 -0.45 2.8 -0.3 Q1.8 0.05 1.0 0.4 L0.15 0.75 -0.75 1.2 Q-0.5 0.45 -0.45 0.05 L-0.45 0.0 Q-0.55 0.3 -1.15 1.3 L-1.2 1.4 Q-1.8 1.7 -2.25 1.95 -4.5 0.7 -5.55 0.25 -5.1 0.5 -2.65 2.2 L-3.25 2.5 -3.6 2.2 -4.0 1.9 Q-4.3 1.75 -4.5 1.75 L-4.55 1.75 Q-4.7 1.75 -5.2 1.9 L-5.15 2.0 -5.95 0.45 -6.9 -1.25 -6.1 -1.65 Q-5.65 -1.85 -5.6 -1.85 -5.55 -1.85 -5.45 -1.75 -5.0 -0.55 -4.25 -0.1 -3.75 0.2 -3.05 0.2 -1.95 0.2 -1.45 -0.2 -1.2 -0.4 -0.7 -1.25 L-0.35 -1.8 -0.35 -2.05 -0.4 -2.35 -0.8 -1.5 -0.8 -1.65 Q-0.65 -1.95 -0.45 -2.35 L-0.35 -2.6 -0.2 -2.8 -0.05 -2.9 0.0 -2.95 M8.65 -2.85 L8.45 -2.75 Q7.0 -2.15 5.3 -1.45 L4.75 -1.2 Q4.55 -1.1 4.3 -1.0 L4.65 -1.3 6.35 -2.85 7.45 -2.9 8.65 -2.85 M-4.1 -0.2 L-4.2 -0.25 Q-5.0 -0.6 -5.2 -1.3 L-5.15 -1.25 Q-4.9 -0.75 -4.4 -0.4 L-4.1 -0.2 M-7.65 2.85 L-8.1 3.0 -8.6 1.75 Q-8.6 1.6 -9.05 0.65 L-8.7 0.55 -8.3 0.35 Q-8.2 0.5 -7.15 2.45 L-7.05 2.65 -7.1 2.6 -7.65 2.85 M-11.25 1.15 L-11.25 1.2 -11.0 1.55 Q-10.9 1.6 -10.55 2.5 L-10.6 2.5 Q-10.65 2.45 -10.7 2.55 -10.25 2.9 -9.9 3.75 L-10.4 4.0 -10.25 3.9 -10.4 3.7 Q-11.25 2.25 -11.55 1.9 -11.5 2.25 -10.65 4.1 L-10.85 4.2 -12.05 1.45 -11.25 1.15" fill="#5f7980" fill-rule="evenodd" stroke="none"/>
    <path d="M11.4 -10.7 L11.7 -10.7 Q12.2 -10.7 13.1 -10.1 14.0 -9.5 15.0 -8.55 L15.15 -8.4 Q15.45 -8.0 15.9 -7.5 L16.35 -7.05 17.8 -5.0 18.15 -4.45 18.2 -4.4 18.4 -4.3 17.5 -4.3 Q14.25 -4.15 13.15 -3.85 L12.65 -3.9 12.6 -3.85 12.4 -3.8 12.25 -3.75 Q11.45 -3.4 10.45 -3.0 L10.1 -2.9 9.25 -2.5 Q9.15 -2.5 8.65 -2.3 L6.4 -1.3 5.0 -0.65 2.8 0.35 2.55 0.45 1.25 1.05 0.45 1.4 Q-1.2 2.15 -3.5 3.2 -3.8 2.65 -3.9 2.65 -4.2 2.4 -4.5 2.4 L-4.85 2.55 -4.65 2.95 -4.65 3.0 -4.6 3.25 Q-4.65 3.85 -5.95 4.4 -6.05 4.4 -6.7 3.3 L-7.8 3.7 -7.5 4.45 Q-7.45 4.45 -7.35 4.6 -7.3 4.8 -7.25 4.9 L-8.0 5.25 -8.6 5.3 Q-9.0 5.3 -9.35 5.15 L-9.6 4.4 -10.6 4.8 -10.25 5.55 -11.0 5.8 -11.8 6.0 -12.05 6.0 -12.05 5.9 -12.2 5.55 -12.45 5.4 Q-12.6 5.3 -12.75 5.25 L-13.65 5.65 -15.45 6.4 -16.5 6.85 Q-18.65 7.75 -19.85 8.1 L-20.4 8.35 -20.95 8.55 -21.55 8.75 Q-22.6 9.1 -22.9 9.1 -23.45 9.1 -23.85 8.8 -24.55 8.3 -24.6 7.15 -24.6 5.95 -23.95 5.5 -23.7 5.35 -23.1 5.2 L-22.6 5.05 -22.45 5.05 Q-22.4 5.05 -22.4 5.1 -22.5 5.4 -22.55 5.65 -22.6 5.8 -22.6 5.9 -22.6 6.1 -22.45 6.35 -22.25 6.55 -22.15 6.55 -22.05 6.45 -21.75 6.35 L-21.45 6.0 Q-20.9 5.5 -20.1 5.05 -19.1 4.55 -17.1 3.8 L-16.65 3.65 -16.15 3.45 -14.95 3.0 -14.55 2.8 Q-13.7 2.3 -13.7 1.75 L-13.9 1.2 -13.9 1.1 -14.0 0.9 -14.0 0.75 -14.05 0.4 -14.05 0.35 Q-14.05 0.25 -12.75 -0.2 L-12.4 0.65 Q-12.15 0.5 -11.65 0.3 L-11.8 -0.05 -11.8 -0.35 Q-11.8 -0.5 -11.2 -0.85 -10.7 -1.15 -9.8 -1.55 L-7.85 -2.35 -7.75 -2.35 -7.5 -2.3 -7.3 -2.1 -7.1 -1.65 -6.95 -1.75 Q-5.5 -2.55 -5.45 -2.55 -5.35 -2.55 -4.7 -1.9 -4.05 -1.25 -3.75 -1.25 -3.2 -1.2 -2.65 -1.65 -2.1 -2.1 -2.05 -2.6 -2.05 -2.95 -2.2 -3.4 -2.4 -3.9 -2.4 -4.15 L-2.45 -4.25 -2.35 -4.3 Q-2.3 -4.35 -2.2 -4.35 -0.8 -4.95 5.65 -8.05 9.4 -9.8 11.05 -10.45 L11.15 -10.55 11.2 -10.55 11.15 -10.6 11.2 -10.6 11.2 -10.65 11.4 -10.7 M4.1 -4.8 L6.15 -5.75 6.7 -6.0 6.95 -6.15 7.4 -6.35 7.5 -6.4 7.95 -6.6 Q10.7 -7.9 11.4 -8.1 L11.45 -8.1 Q11.85 -7.9 13.25 -6.85 L14.3 -6.0 Q15.45 -5.1 16.25 -4.7 L16.65 -4.8 16.75 -4.8 16.85 -4.85 16.8 -4.85 17.35 -4.7 17.3 -4.75 17.55 -4.8 17.45 -5.0 17.1 -5.3 Q17.05 -5.5 16.75 -5.7 L16.7 -5.75 16.3 -6.4 16.2 -6.5 15.45 -7.35 13.85 -8.85 Q13.3 -9.35 12.55 -9.65 12.2 -9.95 12.1 -10.0 L12.05 -10.0 11.9 -10.05 11.7 -10.1 Q11.45 -10.0 11.25 -9.9 L11.15 -9.95 11.15 -9.9 10.45 -9.65 Q9.55 -9.25 8.3 -8.7 L5.7 -7.5 3.6 -6.5 Q-0.15 -4.75 -1.65 -4.15 L-1.8 -4.1 -1.7 -3.8 -1.65 -3.8 Q-1.6 -3.5 -1.55 -3.25 L-1.55 -3.2 -1.5 -2.55 -1.5 -2.5 -1.55 -2.25 Q-1.6 -2.05 -1.7 -1.85 -1.95 -1.5 -2.45 -1.2 -3.2 -0.75 -3.7 -0.75 -3.9 -0.75 -4.15 -0.85 -4.5 -1.0 -4.9 -1.3 L-5.25 -1.6 -5.25 -1.45 -5.2 -1.3 Q-5.0 -0.6 -4.2 -0.25 L-4.1 -0.2 -4.05 -0.2 -3.8 -0.1 -3.7 -0.05 -3.1 0.0 Q-2.05 0.05 -1.3 -0.8 L-1.2 -0.9 -0.95 -1.25 -0.8 -1.5 -0.4 -2.35 -0.35 -2.05 -0.35 -1.8 -0.7 -1.25 Q-1.2 -0.4 -1.45 -0.2 -1.95 0.2 -3.05 0.2 -3.75 0.2 -4.25 -0.1 -5.0 -0.55 -5.45 -1.75 -5.55 -1.85 -5.6 -1.85 -5.65 -1.85 -6.1 -1.65 L-6.9 -1.25 -5.95 0.45 -5.15 2.0 -5.2 1.9 Q-4.7 1.75 -4.55 1.75 L-4.5 1.75 Q-4.3 1.75 -4.0 1.9 L-3.6 2.2 -3.25 2.5 -2.65 2.2 -2.25 1.95 Q-1.8 1.7 -1.2 1.4 L-0.75 1.2 0.15 0.75 1.0 0.4 Q1.8 0.05 2.8 -0.3 L3.05 -0.45 3.1 -0.5 4.25 -0.95 4.3 -1.0 Q4.55 -1.1 4.75 -1.2 L5.3 -1.45 Q7.0 -2.15 8.45 -2.75 L8.65 -2.85 8.7 -2.85 9.0 -3.0 9.3 -3.1 Q11.35 -3.9 12.9 -4.45 L13.35 -4.35 13.55 -4.4 13.7 -4.5 13.7 -4.4 14.0 -4.4 14.8 -4.5 14.85 -4.5 15.9 -4.6 Q15.65 -4.7 15.35 -4.9 14.85 -5.25 13.8 -6.2 12.8 -7.1 12.3 -7.4 11.85 -7.7 11.5 -7.8 10.8 -7.8 7.4 -6.25 L7.0 -6.05 3.8 -4.5 3.4 -4.35 Q2.5 -4.0 1.85 -3.6 L1.4 -3.4 Q0.65 -3.15 0.15 -2.9 L0.05 -2.9 -0.05 -2.85 0.0 -2.95 0.05 -3.0 0.1 -3.0 0.65 -3.4 1.15 -3.6 1.35 -3.65 1.45 -3.7 Q2.25 -4.05 2.85 -4.3 L3.35 -4.5 Q3.6 -4.6 3.9 -4.7 L3.95 -4.7 4.1 -4.8 M11.25 -10.45 L11.25 -10.45 M-7.3 -1.05 L-7.35 -1.15 -7.65 -1.65 -7.65 -1.7 -7.7 -1.75 Q-8.3 -1.5 -9.55 -1.05 -10.6 -0.65 -11.25 -0.05 -10.15 2.9 -9.6 3.9 -9.15 4.65 -8.65 4.8 L-8.25 4.8 -8.15 4.8 -8.0 4.75 -7.9 4.7 -9.1 1.95 Q-9.1 1.8 -9.4 0.95 L-9.45 0.95 -9.5 0.9 Q-9.55 0.8 -9.55 0.55 -9.55 0.45 -9.05 0.2 L-9.0 0.2 -8.85 0.1 Q-8.2 -0.2 -8.1 -0.2 L-7.95 -0.15 -7.95 -0.1 -7.95 -0.05 Q-6.65 2.25 -5.8 3.9 L-5.55 3.7 -5.5 3.6 Q-5.3 3.45 -5.25 3.3 L-5.2 3.25 -5.2 3.2 Q-6.0 1.35 -6.4 0.6 L-6.65 0.15 -7.3 -1.05 M-7.65 2.85 L-7.1 2.6 -7.05 2.65 -7.15 2.45 Q-8.2 0.5 -8.3 0.35 L-8.7 0.55 -9.05 0.65 Q-8.6 1.6 -8.6 1.75 L-8.1 3.0 -7.65 2.85 M-10.4 4.0 L-9.9 3.75 Q-10.25 2.9 -10.7 2.55 -10.65 2.45 -10.6 2.5 L-10.55 2.5 Q-10.9 1.6 -11.0 1.55 L-11.25 1.2 -11.25 1.15 -11.3 1.1 -12.05 1.45 -10.85 4.2 -10.65 4.1 -10.4 4.0 M-11.35 3.9 Q-11.75 2.75 -12.8 0.6 L-13.25 0.75 -13.35 0.8 -13.3 0.9 -13.05 1.8 Q-12.35 4.15 -11.95 4.9 -11.75 5.3 -11.6 5.35 L-11.5 5.35 Q-11.05 5.3 -11.15 4.65 -11.2 4.35 -11.35 3.9 M-14.75 3.75 L-15.15 3.9 -15.85 4.05 -16.3 4.15 Q-16.3 4.35 -16.1 4.85 L-15.85 5.3 -15.2 5.65 -15.1 5.65 Q-14.7 5.45 -14.35 5.3 -14.75 4.8 -14.75 3.9 L-14.75 3.75 M-16.45 6.2 L-15.9 6.0 -15.95 5.95 Q-16.8 5.3 -16.85 4.25 L-17.4 4.35 -17.45 4.35 Q-17.65 4.8 -17.65 5.05 -17.65 6.0 -17.1 6.5 L-16.45 6.2 M-14.35 3.8 L-14.25 4.4 Q-14.2 4.9 -13.95 5.15 L-13.9 5.1 Q-12.8 4.65 -12.6 4.65 L-13.35 2.8 Q-13.6 3.25 -14.3 3.55 L-14.35 3.8 M-21.1 6.7 L-21.2 6.8 -21.55 7.1 -21.3 7.7 -21.0 7.75 -20.65 7.8 Q-20.4 7.8 -19.45 7.45 -19.8 7.4 -20.05 7.15 -20.45 6.85 -20.6 6.25 L-21.1 6.7 M-18.25 7.0 L-17.55 6.7 -17.75 6.4 Q-18.1 5.7 -18.15 4.6 -19.15 5.15 -20.25 6.0 -19.85 6.75 -19.15 6.95 L-18.25 7.0 M-21.95 7.75 L-22.0 7.6 -22.15 7.2 -22.15 7.1 -22.3 7.1 Q-22.6 7.1 -22.95 6.55 -23.15 6.25 -23.15 6.0 L-23.4 6.1 -23.6 6.25 Q-24.1 6.6 -24.1 7.0 -24.05 7.95 -23.55 8.3 -23.25 8.5 -22.7 8.5 L-22.3 8.5 -21.75 8.35 -21.55 8.25 Q-21.7 8.2 -21.8 8.1 L-21.95 7.75" fill="#1a1a1a" fill-rule="evenodd" stroke="none"/>
    <path d="M9.3 -3.1 L9.0 -3.0 8.7 -2.85 8.65 -2.85 7.45 -2.9 6.35 -2.85 4.65 -1.3 4.3 -1.0 4.25 -0.95 3.1 -0.5 3.05 -0.45 4.4 -1.6 5.7 -2.8 4.35 -2.65 2.1 -2.45 1.9 -2.45 1.8 -2.55 Q4.6 -2.95 6.05 -3.1 8.4 -5.25 9.85 -6.9 L9.9 -6.85 Q8.6 -5.05 6.65 -3.15 L6.9 -3.15 9.3 -3.1 M-0.75 1.2 L-1.2 1.4 -1.15 1.3 Q-0.55 0.3 -0.45 0.0 L-0.45 0.05 Q-0.5 0.45 -0.75 1.2 M-2.25 1.95 L-2.65 2.2 Q-5.1 0.5 -5.55 0.25 -4.5 0.7 -2.25 1.95 M-10.65 4.1 Q-11.5 2.25 -11.55 1.9 -11.25 2.25 -10.4 3.7 L-10.25 3.9 -10.4 4.0 -10.65 4.1" fill="#86aab3" fill-rule="evenodd" stroke="none"/>
    <path d="M-8.65 4.8 Q-9.15 4.65 -9.6 3.9 -10.15 2.9 -11.25 -0.05 -10.6 -0.65 -9.55 -1.05 -8.3 -1.5 -7.7 -1.75 L-7.65 -1.7 -7.65 -1.65 -7.35 -1.15 -7.3 -1.05 -7.75 -0.9 Q-8.35 -0.7 -9.1 -0.3 -10.2 0.25 -10.2 0.55 -10.2 1.25 -9.1 3.7 L-8.65 4.8 M-5.55 3.7 L-5.8 3.9 Q-6.65 2.25 -7.95 -0.05 L-7.95 -0.1 -7.95 -0.2 -7.7 -0.25 Q-7.5 -0.05 -6.4 2.0 -5.9 2.9 -5.55 3.7 M-11.35 3.9 Q-11.45 3.9 -11.5 3.95 -12.2 2.7 -12.7 1.45 L-13.05 1.8 -13.3 0.9 -13.25 0.75 -12.8 0.6 Q-11.75 2.75 -11.35 3.9 M-23.55 8.3 Q-24.05 7.95 -24.1 7.0 -24.1 6.6 -23.6 6.25 L-23.4 6.1 -23.15 6.0 Q-23.15 6.25 -22.95 6.55 -22.6 7.1 -22.3 7.1 L-22.15 7.1 -22.15 7.2 -22.0 7.6 -21.95 7.75 -22.0 7.75 -22.45 7.6 -22.55 7.6 Q-22.7 7.6 -23.0 7.5 -23.3 7.35 -23.45 7.25 -23.65 7.45 -23.7 7.9 L-23.55 8.3" fill="#999999" fill-rule="evenodd" stroke="none"/>
    <path d="M-8.65 4.8 L-9.1 3.7 Q-10.2 1.25 -10.2 0.55 -10.2 0.25 -9.1 -0.3 -8.35 -0.7 -7.75 -0.9 L-7.3 -1.05 -6.65 0.15 Q-6.95 -0.25 -7.25 -0.6 -7.25 -0.35 -6.7 0.5 -6.25 1.2 -6.1 1.4 L-5.25 3.3 Q-5.3 3.45 -5.5 3.6 L-5.55 3.7 Q-5.9 2.9 -6.4 2.0 -7.5 -0.05 -7.7 -0.25 L-7.95 -0.2 -7.95 -0.1 -7.95 -0.15 -8.1 -0.2 Q-8.2 -0.2 -8.85 0.1 L-9.0 0.2 -8.85 0.05 -8.9 0.05 -9.05 0.2 Q-9.55 0.45 -9.55 0.55 -9.55 0.8 -9.5 0.9 L-9.7 1.15 -9.1 2.85 Q-8.6 4.05 -8.25 4.8 L-8.65 4.8 M-9.45 0.95 L-9.4 0.95 Q-9.1 1.8 -9.1 1.95 L-7.9 4.7 -8.0 4.75 Q-8.9 2.5 -9.35 1.95 L-9.5 1.75 -9.5 1.2 -9.45 0.95 M-13.05 1.8 L-12.7 1.45 Q-12.2 2.7 -11.5 3.95 L-11.6 4.0 -11.5 4.55 Q-11.4 4.6 -11.2 4.7 L-11.15 4.65 Q-11.05 5.3 -11.5 5.35 L-11.6 5.35 Q-11.75 5.3 -11.95 4.9 -12.35 4.15 -13.05 1.8 M-11.95 3.45 Q-12.35 2.65 -12.5 2.55 -12.45 3.45 -12.05 4.2 -11.75 4.8 -11.5 4.85 -11.5 4.35 -11.95 3.45 M-21.95 7.75 L-21.8 8.1 Q-21.7 8.2 -21.55 8.25 L-21.75 8.35 -22.3 8.5 -22.7 8.5 Q-23.25 8.5 -23.55 8.3 L-23.7 7.9 Q-23.65 7.45 -23.45 7.25 -23.3 7.35 -23.0 7.5 -22.7 7.6 -22.55 7.6 L-22.45 7.6 -22.0 7.75 -21.95 7.75 M-23.05 8.4 L-22.9 8.45 -22.65 8.3 -22.35 8.05 -22.9 8.0 Q-23.05 8.05 -23.2 8.1 L-23.15 8.3 -23.05 8.4" fill="#cccccc" fill-rule="evenodd" stroke="none"/>
    <path d="M-13.25 0.75 L-13.3 0.9 -13.35 0.8 -13.25 0.75" fill="#ffff66" fill-rule="evenodd" stroke="none"/>
    <path d="M4.1 -4.8 L4.25 -4.85 4.65 -5.35 Q5.25 -6.1 7.0 -7.6 L8.3 -8.7 Q9.55 -9.25 10.45 -9.65 L10.5 -9.35 Q10.5 -8.3 6.15 -5.75 L4.1 -4.8 M3.6 -6.5 L2.8 -5.1 Q2.65 -4.8 1.35 -3.7 L1.15 -3.6 0.65 -3.4 0.1 -3.0 0.05 -3.0 0.0 -2.95 -0.05 -2.9 -0.65 -3.4 -0.7 -3.45 -1.35 -3.95 -1.65 -4.15 Q-0.15 -4.75 3.6 -6.5 M11.9 -10.05 L12.05 -10.0 12.1 -10.0 Q12.2 -9.95 12.55 -9.65 13.3 -9.35 13.85 -8.85 L15.45 -7.35 16.2 -6.5 15.85 -6.25 Q15.55 -6.05 15.1 -6.1 14.65 -6.1 13.25 -6.85 11.85 -7.9 11.45 -8.1 L11.6 -8.65 Q11.85 -9.45 11.9 -10.05 M-1.3 -0.8 Q-2.05 0.05 -3.1 0.0 L-3.7 -0.05 Q-3.95 -0.4 -4.15 -0.85 -3.9 -0.75 -3.7 -0.75 -3.2 -0.75 -2.45 -1.2 -1.95 -1.5 -1.7 -1.85 L-1.3 -0.8" fill="#bfcdd0" fill-rule="evenodd" stroke="none"/>
    <path d="M8.3 -8.7 L7.0 -7.6 Q5.25 -6.1 4.65 -5.35 L4.25 -4.85 4.1 -4.8 3.95 -4.7 3.9 -4.7 Q3.6 -4.6 3.35 -4.5 L2.85 -4.3 Q2.25 -4.05 1.45 -3.7 L1.35 -3.65 1.15 -3.6 1.35 -3.7 Q2.65 -4.8 2.8 -5.1 L3.6 -6.5 5.7 -7.5 8.3 -8.7 M6.15 -5.75 Q10.5 -8.3 10.5 -9.35 L10.45 -9.65 11.15 -9.9 11.15 -9.95 11.25 -9.9 Q11.45 -10.0 11.7 -10.1 L11.9 -10.05 Q11.85 -9.45 11.6 -8.65 L11.45 -8.1 11.4 -8.1 Q10.7 -7.9 7.95 -6.6 L7.5 -6.4 7.4 -6.35 6.95 -6.15 6.7 -6.0 6.15 -5.75 M16.2 -6.5 L16.3 -6.4 16.7 -5.75 16.75 -5.7 Q17.05 -5.5 17.1 -5.3 L17.45 -5.0 17.55 -4.8 17.3 -4.75 17.35 -4.7 16.8 -4.85 16.85 -4.85 16.75 -4.8 16.65 -4.8 16.25 -4.7 Q15.45 -5.1 14.3 -6.0 L13.25 -6.85 Q14.65 -6.1 15.1 -6.1 15.55 -6.05 15.85 -6.25 L16.2 -6.5 M-0.8 -1.5 L-0.95 -1.25 -1.2 -0.9 -1.3 -0.8 -1.7 -1.85 Q-1.6 -2.05 -1.55 -2.25 L-1.5 -2.5 -1.5 -2.55 -1.55 -3.2 -1.55 -3.25 Q-1.6 -3.5 -1.65 -3.8 L-1.7 -3.8 -1.8 -4.1 -1.65 -4.15 -1.35 -3.95 -0.7 -3.45 -0.65 -3.4 -0.05 -2.9 -0.2 -2.8 -0.35 -2.6 -0.45 -2.35 Q-0.65 -1.95 -0.8 -1.65 L-0.8 -1.5 M-3.7 -0.05 L-3.8 -0.1 -4.05 -0.2 -4.1 -0.2 -4.4 -0.4 Q-4.9 -0.75 -5.15 -1.25 L-5.2 -1.3 -5.25 -1.45 -5.25 -1.6 -4.9 -1.3 Q-4.5 -1.0 -4.15 -0.85 -3.95 -0.4 -3.7 -0.05" fill="#e8edee" fill-rule="evenodd" stroke="none"/>
    <path d="M-21.1 6.7 L-20.6 6.25 Q-20.45 6.85 -20.05 7.15 -19.8 7.4 -19.45 7.45 -20.4 7.8 -20.65 7.8 L-21.0 7.75 -21.3 7.7 -21.55 7.1 -21.2 6.8 -21.1 6.7 M-14.35 3.8 L-14.3 3.55 Q-13.6 3.25 -13.35 2.8 L-12.6 4.65 Q-12.8 4.65 -13.9 5.1 L-13.95 5.15 Q-14.2 4.9 -14.25 4.4 L-14.35 3.8 M-16.45 6.2 L-17.1 6.5 Q-17.65 6.0 -17.65 5.05 -17.65 4.8 -17.45 4.35 L-17.4 4.35 -16.85 4.25 Q-16.8 5.3 -15.95 5.95 L-15.9 6.0 -16.45 6.2 M-14.75 3.75 L-14.75 3.9 Q-14.75 4.8 -14.35 5.3 -14.7 5.45 -15.1 5.65 L-15.2 5.65 -15.85 5.3 -16.1 4.85 Q-16.3 4.35 -16.3 4.15 L-15.85 4.05 -15.15 3.9 -14.75 3.75 M-18.25 7.0 L-19.15 6.95 Q-19.85 6.75 -20.25 6.0 -19.15 5.15 -18.15 4.6 -18.1 5.7 -17.75 6.4 L-17.55 6.7 -18.25 7.0" fill="#304040" fill-rule="evenodd" stroke="none"/>
  </g>
</svg>
