<?xml version="1.0" encoding="UTF-8" standalone="no"?>
<svg xmlns:ffdec="https://www.free-decompiler.com/flash" xmlns:xlink="http://www.w3.org/1999/xlink" ffdec:objectType="shape" height="10.25px" width="11.55px" xmlns="http://www.w3.org/2000/svg">
  <g transform="matrix(1.0, 0.0, 0.0, 1.0, 6.4, 6.8)">
    <path d="M-2.0 -3.55 L-2.3 -3.55 Q-2.45 -3.5 -2.5 -3.45 L-2.45 -3.5 -2.75 -3.65 Q-3.0 -3.7 -3.2 -3.5 -3.3 -3.4 -3.4 -3.2 -2.75 -2.2 -1.6 -1.55 -1.1 -1.2 -0.95 -0.6 L-0.9 -0.45 Q-2.7 -1.15 -4.7 -1.75 -5.9 -2.1 -5.4 -3.1 L-4.7 -4.65 Q-3.55 -5.85 -1.9 -5.7 -2.1 -5.15 -2.05 -4.5 -2.0 -4.0 -2.0 -3.55 M-1.15 -2.5 Q-1.05 -2.5 -1.0 -2.55 -0.8 -2.3 -0.65 -2.0 L-1.15 -2.5 M0.5 -0.65 L0.45 -0.75 0.5 -0.65 M-2.45 0.65 L-1.2 0.7 Q-0.7 0.65 -0.4 1.0 -0.45 1.25 -0.6 1.5 L-0.75 1.65 -1.05 2.0 Q-1.2 2.2 -1.3 2.45 L-1.15 2.6 Q-1.75 2.75 -2.3 2.35 -2.6 2.15 -2.85 2.05 -2.5 1.5 -2.5 0.75 L-2.45 0.65 M3.55 0.55 Q3.6 0.85 3.5 1.2 L3.55 0.65 3.55 0.55 M2.35 2.6 Q1.65 2.95 0.85 2.5 L0.7 2.45 0.85 2.3 Q1.65 1.5 1.35 0.75 L1.4 0.65 1.45 0.7 Q1.7 0.4 1.7 0.0 2.0 0.4 2.2 0.85 2.4 1.25 2.1 1.65 1.8 2.15 1.65 2.6 L2.25 2.65 2.35 2.6 M-5.05 2.35 L-5.1 2.35 Q-5.3 2.45 -5.45 2.15 -5.95 0.65 -5.4 -0.95 L-5.35 -1.15 -5.2 -1.0 Q-5.7 -0.15 -4.7 1.15 -4.4 1.5 -4.8 1.85 -5.1 2.1 -5.05 2.35 M-3.0 -0.1 L-2.7 0.0 -3.0 0.55 -3.0 -0.1" fill="#660066" fill-rule="evenodd" stroke="none"/>
    <path d="M-1.9 -5.7 L-1.55 -5.7 Q-1.1 -5.6 -0.8 -5.25 0.7 -3.65 2.35 -3.95 L1.7 -4.5 Q1.95 -4.5 2.25 -4.6 L2.35 -4.65 Q3.7 -4.25 4.15 -2.9 4.45 -1.9 4.2 -1.05 3.75 -1.65 2.95 -1.9 L1.9 -2.2 1.2 -2.35 1.3 -2.45 Q1.7 -2.8 1.35 -3.05 0.9 -2.85 0.5 -2.55 L0.35 -2.45 0.2 -2.45 Q-0.15 -3.0 -0.85 -3.3 L-1.1 -3.25 -1.25 -3.2 -1.4 -3.25 -2.0 -3.55 Q-2.0 -4.0 -2.05 -4.5 -2.1 -5.15 -1.9 -5.7 M-2.5 -3.45 L-2.6 -3.35 -2.6 -3.3 Q-2.3 -2.75 -1.5 -2.5 L-1.15 -2.5 -0.65 -2.0 Q-0.5 -1.75 -0.4 -1.45 -0.15 -0.8 -0.4 -0.3 L-0.9 -0.45 -0.95 -0.6 Q-1.1 -1.2 -1.6 -1.55 -2.75 -2.2 -3.4 -3.2 -3.3 -3.4 -3.2 -3.5 -3.0 -3.7 -2.75 -3.65 L-2.45 -3.5 -2.5 -3.45 M0.5 -0.65 L0.55 -0.6 0.65 -0.15 Q0.85 0.7 0.55 1.6 -0.05 2.25 -1.0 2.55 L-1.15 2.6 -1.3 2.45 Q-1.2 2.2 -1.05 2.0 L-0.75 1.65 -0.6 1.5 Q-0.45 1.25 -0.4 1.0 -0.7 0.65 -1.2 0.7 L-2.45 0.65 Q-2.25 0.3 -2.35 0.05 -1.05 0.2 0.1 -0.1 L-0.1 -0.15 Q0.3 -0.35 0.45 -0.75 L0.5 -0.65 M1.7 0.0 L1.7 -0.1 1.55 -0.4 1.55 -0.45 1.25 -1.0 Q1.65 -1.05 2.1 -1.2 L2.2 -1.25 2.25 -1.2 Q2.25 -0.9 2.7 -0.55 3.1 -0.25 3.4 -0.05 3.5 0.25 3.55 0.55 L3.55 0.65 3.5 1.2 Q3.35 1.85 2.65 2.4 L2.35 2.6 2.25 2.65 1.65 2.6 Q1.8 2.15 2.1 1.65 2.4 1.25 2.2 0.85 2.0 0.4 1.7 0.0 M-5.2 -1.0 Q-4.85 -0.65 -4.35 -0.45 L-4.25 -0.4 -3.9 -0.3 -3.75 -0.25 -3.0 -0.1 -3.0 0.55 -3.6 1.45 Q-4.25 2.0 -5.05 2.35 -5.1 2.1 -4.8 1.85 -4.4 1.5 -4.7 1.15 -5.7 -0.15 -5.2 -1.0" fill="#4a0048" fill-rule="evenodd" stroke="none"/>
    <path d="M2.5 -5.15 L2.65 -5.1 3.05 -5.05 Q5.1 -4.15 5.15 -1.85 5.2 -0.55 4.2 0.35 L4.15 0.35 Q4.2 1.0 3.85 1.75 2.55 4.25 0.6 2.55 -1.6 4.45 -3.0 2.2 -3.5 2.85 -4.5 3.2 -5.0 3.4 -5.3 3.05 -7.25 1.0 -5.65 -1.5 L-5.55 -1.5 Q-6.95 -3.75 -4.35 -5.5 L-4.05 -5.8 Q-2.95 -6.75 -1.55 -6.8 L0.0 -5.75 1.0 -5.0 1.2 -5.1 Q1.55 -5.2 1.9 -5.25 2.15 -5.15 2.5 -5.15 M-2.0 -3.55 L-1.4 -3.25 -1.25 -3.2 -1.1 -3.25 -0.85 -3.3 Q-0.15 -3.0 0.2 -2.45 L0.35 -2.45 0.5 -2.55 Q0.9 -2.85 1.35 -3.05 1.7 -2.8 1.3 -2.45 L1.2 -2.35 1.9 -2.2 2.95 -1.9 Q3.75 -1.65 4.2 -1.05 4.45 -1.9 4.15 -2.9 3.7 -4.25 2.35 -4.65 L2.25 -4.6 Q1.95 -4.5 1.7 -4.5 L2.35 -3.95 Q0.7 -3.65 -0.8 -5.25 -1.1 -5.6 -1.55 -5.7 L-1.9 -5.7 Q-3.55 -5.85 -4.7 -4.65 L-5.4 -3.1 Q-5.9 -2.1 -4.7 -1.75 -2.7 -1.15 -0.9 -0.45 L-0.4 -0.3 Q-0.15 -0.8 -0.4 -1.45 -0.5 -1.75 -0.65 -2.0 -0.8 -2.3 -1.0 -2.55 -1.05 -2.5 -1.15 -2.5 L-1.5 -2.5 Q-2.3 -2.75 -2.6 -3.3 L-2.6 -3.35 -2.5 -3.45 Q-2.45 -3.5 -2.3 -3.55 L-2.0 -3.55 M-1.15 2.6 L-1.0 2.55 Q-0.05 2.25 0.55 1.6 0.85 0.7 0.65 -0.15 L0.55 -0.6 0.5 -0.65 0.45 -0.75 Q0.3 -0.35 -0.1 -0.15 L0.1 -0.1 Q-1.05 0.2 -2.35 0.05 -2.25 0.3 -2.45 0.65 L-2.5 0.75 Q-2.5 1.5 -2.85 2.05 -2.6 2.15 -2.3 2.35 -1.75 2.75 -1.15 2.6 M0.45 -1.75 Q0.85 -1.45 1.15 -1.05 1.3 -1.3 1.5 -1.4 L1.5 -1.45 0.45 -1.8 0.45 -1.75 M3.55 0.55 Q3.5 0.25 3.4 -0.05 3.1 -0.25 2.7 -0.55 2.25 -0.9 2.25 -1.2 L2.2 -1.25 2.1 -1.2 Q1.65 -1.05 1.25 -1.0 L1.55 -0.45 1.55 -0.4 1.7 -0.1 1.7 0.0 Q1.7 0.4 1.45 0.7 L1.4 0.65 1.35 0.75 Q1.65 1.5 0.85 2.3 L0.7 2.45 0.85 2.5 Q1.65 2.95 2.35 2.6 L2.65 2.4 Q3.35 1.85 3.5 1.2 3.6 0.85 3.55 0.55 M3.7 -0.75 L3.9 -0.4 4.15 -0.9 3.55 -0.9 3.6 -0.7 3.7 -0.75 M-5.2 -1.0 L-5.35 -1.15 -5.4 -0.95 Q-5.95 0.65 -5.45 2.15 -5.3 2.45 -5.1 2.35 L-5.05 2.35 Q-4.25 2.0 -3.6 1.45 L-3.0 0.55 -2.7 0.0 -3.0 -0.1 -3.75 -0.25 -3.9 -0.3 -4.25 -0.4 -4.35 -0.45 Q-4.85 -0.65 -5.2 -1.0" fill="#1a1a1a" fill-rule="evenodd" stroke="none"/>
    <path d="M0.45 -1.75 L0.45 -1.8 1.5 -1.45 1.5 -1.4 Q1.3 -1.3 1.15 -1.05 0.85 -1.45 0.45 -1.75 M3.7 -0.75 L3.6 -0.7 3.55 -0.9 4.15 -0.9 3.9 -0.4 3.7 -0.75" fill="#444444" fill-rule="evenodd" stroke="none"/>
  </g>
</svg>
