<?xml version="1.0" encoding="UTF-8" standalone="no"?>
<svg xmlns:ffdec="https://www.free-decompiler.com/flash" xmlns:xlink="http://www.w3.org/1999/xlink" ffdec:objectType="shape" height="25.55px" width="15.1px" xmlns="http://www.w3.org/2000/svg">
  <g transform="matrix(1.0, 0.0, 0.0, 1.0, 7.75, 12.9)">
    <path d="M-1.55 -8.25 L-1.6 -8.05 Q-1.6 -7.85 -1.45 -7.6 -1.3 -7.3 -1.3 -7.2 -1.3 -6.6 -1.9 -6.25 -2.45 -5.95 -2.45 -5.5 -2.45 -5.1 -1.9 -4.55 -1.3 -4.0 -1.3 -3.9 -1.3 -3.5 -1.55 -2.65 L-1.7 -2.2 Q-2.3 -1.4 -2.85 -0.8 L-3.1 -1.25 Q-3.6 -2.2 -3.6 -2.55 L-3.25 -3.2 Q-2.9 -3.85 -2.9 -4.05 L-3.0 -4.5 Q-3.15 -4.75 -3.45 -4.85 L-3.7 -5.2 Q-4.2 -6.1 -4.2 -6.5 -4.2 -7.2 -3.6 -7.75 -2.6 -8.1 -2.05 -8.3 L-1.55 -8.25 M-4.95 0.5 L-5.05 0.5 -5.15 0.65 Q-5.35 -0.55 -6.0 -2.9 L-6.25 -3.8 Q-6.2 -5.1 -6.3 -5.8 -6.3 -6.05 -6.45 -6.65 L-6.5 -6.85 -6.45 -6.85 Q-5.5 -6.55 -5.1 -6.3 L-5.25 -6.1 -5.3 -5.8 Q-5.3 -5.6 -5.05 -5.05 -4.8 -4.5 -4.8 -4.35 L-4.7 -3.45 -4.85 -3.0 Q-5.0 -2.55 -5.0 -2.45 -5.0 -2.2 -4.75 -1.65 -4.45 -1.0 -4.2 -0.8 -4.45 -0.45 -4.75 0.15 L-4.95 0.5 M-0.95 -11.85 Q-0.9 -10.65 -0.75 -9.5 L-0.65 -8.7 -0.85 -8.7 -3.45 -8.75 -3.4 -9.05 Q-3.4 -9.3 -3.65 -9.65 L-3.85 -10.0 -3.3 -11.55 -3.25 -11.6 Q-2.4 -11.85 -1.4 -11.85 L-0.95 -11.85 M-5.6 -8.75 L-5.65 -8.75 -5.55 -8.85 -5.6 -8.8 -5.6 -8.75 M1.65 -5.9 L1.65 -5.8 Q1.5 -4.8 0.65 -2.8 L0.25 -1.85 Q-0.6 -0.95 -1.2 0.0 -2.05 1.3 -2.1 2.0 -2.1 2.1 -2.0 2.2 -1.9 2.4 -1.65 2.4 -1.25 2.4 -0.2 1.95 L0.6 1.6 Q0.95 2.65 1.0 3.0 L1.15 4.05 Q1.25 4.55 1.35 5.0 L0.0 5.0 Q-0.1 4.8 -0.45 4.6 -0.6 4.5 -1.45 4.15 -2.85 3.5 -2.85 2.9 -2.85 2.75 -2.65 2.25 -2.6 2.0 -2.9 1.3 L-3.0 1.15 Q-2.4 0.45 -1.75 -0.75 -1.25 -1.75 -0.75 -3.1 L-0.7 -3.1 -0.8 -3.0 Q0.25 -4.45 1.65 -5.9 M-3.6 4.65 L-4.05 4.65 -4.7 3.5 Q-5.25 2.55 -5.35 2.15 L-5.3 2.1 Q-5.2 2.25 -4.9 2.25 -4.55 2.25 -4.2 2.15 L-4.6 2.25 -4.3 2.5 Q-3.95 2.75 -3.95 2.85 -4.0 2.95 -3.85 3.35 L-3.7 3.8 -3.75 4.6 -3.75 4.65 -3.6 4.65 M-3.3 5.1 L-3.3 5.2 Q-3.3 5.55 -3.05 5.8 -2.55 6.15 -2.2 6.45 L-2.45 6.85 -2.5 7.05 Q-2.5 7.25 -2.15 7.45 -1.65 7.75 -1.45 8.3 -1.45 8.45 -1.4 8.9 -1.35 9.35 -1.2 9.6 -0.75 10.4 -0.45 10.9 L-0.5 10.85 -0.35 11.6 Q-0.6 11.55 -0.8 11.4 L-0.95 11.1 Q-1.15 10.7 -1.15 10.35 -1.9 8.25 -3.3 6.65 -3.7 6.15 -4.0 5.9 L-4.05 5.6 -4.1 5.4 -4.1 5.05 -3.3 5.1 M1.95 11.7 L1.5 10.85 1.15 10.15 0.6 9.0 Q0.35 7.5 -0.3 7.05 -0.45 6.95 -0.65 6.85 -0.8 6.75 -0.8 6.55 -0.8 6.15 -0.6 6.05 -0.5 5.95 -0.2 5.95 L0.25 5.9 Q0.4 5.75 0.45 5.45 L1.6 5.45 2.2 5.5 2.2 5.55 Q2.05 6.05 2.05 6.45 L2.25 8.0 Q2.45 9.55 2.45 9.75 L2.35 10.6 2.5 10.55 2.4 10.6 2.4 10.65 Q2.4 10.75 2.75 11.4 L1.95 11.7" fill="#5c5141" fill-rule="evenodd" stroke="none"/>
    <path d="M-1.55 -8.25 L-1.45 -8.25 0.15 -7.9 0.3 -7.85 Q1.5 -7.55 2.35 -7.5 L1.7 -7.2 Q1.7 -6.25 -0.15 -4.5 -0.75 -3.5 -1.35 -2.65 L-1.6 -2.3 -1.7 -2.2 -1.55 -2.65 Q-1.3 -3.5 -1.3 -3.9 -1.3 -4.0 -1.9 -4.55 -2.45 -5.1 -2.45 -5.5 -2.45 -5.95 -1.9 -6.25 -1.3 -6.6 -1.3 -7.2 -1.3 -7.3 -1.45 -7.6 -1.6 -7.85 -1.6 -8.05 L-1.55 -8.25 M-0.95 -11.85 Q-0.25 -11.75 0.35 -11.2 0.9 -10.75 1.45 -9.75 L2.1 -8.65 1.7 -8.65 Q0.6 -8.7 -0.65 -8.7 L-0.75 -9.5 Q-0.9 -10.65 -0.95 -11.85 M1.65 -5.9 L1.9 -6.15 2.1 -6.3 2.75 -6.75 Q3.25 -7.1 3.55 -7.2 L3.65 -7.0 Q4.2 -6.15 4.55 -5.2 4.85 -4.25 5.0 -3.5 L5.0 -3.25 5.05 -2.2 Q5.05 -2.05 4.9 -1.65 4.8 -1.3 4.8 -1.25 4.8 -1.1 5.05 -0.4 L5.4 0.55 5.7 1.5 Q5.85 2.0 5.85 2.35 5.85 2.55 5.65 3.45 L5.55 4.15 5.05 4.25 3.45 4.65 Q2.4 4.9 1.6 5.0 L1.35 5.0 Q1.25 4.55 1.15 4.05 L1.0 3.0 Q0.95 2.65 0.6 1.6 L-0.2 1.95 Q-1.25 2.4 -1.65 2.4 -1.9 2.4 -2.0 2.2 -2.1 2.1 -2.1 2.0 -2.05 1.3 -1.2 0.0 -0.6 -0.95 0.25 -1.85 L0.65 -2.8 Q1.5 -4.8 1.65 -5.8 L1.65 -5.9 M2.2 5.5 L2.85 5.55 3.65 5.65 Q5.05 5.65 5.8 5.4 L5.95 5.35 6.1 5.75 Q6.4 6.8 6.4 7.15 6.4 7.3 6.25 7.55 L6.3 7.45 6.3 7.7 Q6.3 8.9 5.6 9.85 L5.85 9.7 5.8 9.7 Q5.5 10.0 5.0 10.4 L5.2 10.25 5.05 10.4 4.0 10.9 2.75 11.4 Q2.4 10.75 2.4 10.65 L2.4 10.6 2.5 10.55 2.35 10.6 2.45 9.75 Q2.45 9.55 2.25 8.0 L2.05 6.45 Q2.05 6.05 2.2 5.55 L2.2 5.5" fill="#40382d" fill-rule="evenodd" stroke="none"/>
    <path d="M-2.85 -0.8 Q-4.05 0.45 -4.95 0.5 L-4.75 0.15 Q-4.45 -0.45 -4.2 -0.8 -4.45 -1.0 -4.75 -1.65 -5.0 -2.2 -5.0 -2.45 -5.0 -2.55 -4.85 -3.0 L-4.7 -3.45 -4.8 -4.35 Q-4.8 -4.5 -5.05 -5.05 -5.3 -5.6 -5.3 -5.8 L-5.25 -6.1 -5.1 -6.3 Q-5.5 -6.55 -6.45 -6.85 L-6.5 -6.85 Q-6.45 -7.15 -6.3 -7.35 L-6.25 -7.45 Q-5.6 -8.25 -3.35 -8.35 L-2.6 -8.35 -2.1 -8.3 -2.05 -8.3 Q-2.6 -8.1 -3.6 -7.75 -4.2 -7.2 -4.2 -6.5 -4.2 -6.1 -3.7 -5.2 L-3.45 -4.85 Q-3.15 -4.75 -3.0 -4.5 L-2.9 -4.05 Q-2.9 -3.85 -3.25 -3.2 L-3.6 -2.55 Q-3.6 -2.2 -3.1 -1.25 L-2.85 -0.8 M-3.45 -8.75 L-5.1 -8.8 -5.6 -8.75 -5.6 -8.8 -5.55 -8.85 -5.55 -8.9 -4.95 -9.85 -4.85 -9.95 -4.85 -10.0 Q-4.15 -11.0 -3.5 -11.55 L-3.25 -11.6 -3.3 -11.55 -3.85 -10.0 -3.65 -9.65 Q-3.4 -9.3 -3.4 -9.05 L-3.45 -8.75 M0.0 5.0 L-1.3 4.95 -1.95 4.8 -2.1 4.8 -3.6 4.65 -3.75 4.65 -3.75 4.6 -3.7 3.8 -3.85 3.35 Q-4.0 2.95 -3.95 2.85 -3.95 2.75 -4.3 2.5 L-4.6 2.25 -4.2 2.15 Q-4.55 2.25 -4.9 2.25 -5.2 2.25 -5.3 2.1 L-3.8 0.45 -3.7 0.35 -3.7 0.3 Q-1.6 -1.85 -1.1 -2.6 L-1.05 -2.65 -0.8 -3.0 -0.7 -3.1 -0.75 -3.1 Q-1.25 -1.75 -1.75 -0.75 -2.4 0.45 -3.0 1.15 L-2.9 1.3 Q-2.6 2.0 -2.65 2.25 -2.85 2.75 -2.85 2.9 -2.85 3.5 -1.45 4.15 -0.6 4.5 -0.45 4.6 -0.1 4.8 0.0 5.0 M-0.35 11.6 L-0.5 10.85 -0.45 10.9 Q-0.75 10.4 -1.2 9.6 -1.35 9.35 -1.4 8.9 -1.45 8.45 -1.45 8.3 -1.65 7.75 -2.15 7.45 -2.5 7.25 -2.5 7.05 L-2.45 6.85 -2.2 6.45 Q-2.55 6.15 -3.05 5.8 -3.3 5.55 -3.3 5.2 L-3.3 5.1 -1.95 5.25 -1.3 5.4 0.45 5.45 Q0.4 5.75 0.25 5.9 L-0.2 5.95 Q-0.5 5.95 -0.6 6.05 -0.8 6.15 -0.8 6.55 -0.8 6.75 -0.65 6.85 -0.45 6.95 -0.3 7.05 0.35 7.5 0.6 9.0 L1.15 10.15 1.5 10.85 1.95 11.7 1.25 11.8 Q0.25 11.8 -0.35 11.6" fill="#736551" fill-rule="evenodd" stroke="none"/>
    <path d="M-1.7 -2.2 L-1.6 -2.3 -1.35 -2.65 Q-0.75 -3.5 -0.15 -4.5 1.7 -6.25 1.7 -7.2 L2.35 -7.5 Q1.5 -7.55 0.3 -7.85 L0.15 -7.9 -1.45 -8.25 -1.55 -8.25 -2.05 -8.3 -2.1 -8.3 -2.6 -8.35 -3.35 -8.35 Q-5.6 -8.25 -6.25 -7.45 L-6.3 -7.35 Q-6.45 -7.15 -6.5 -6.85 L-6.45 -6.65 Q-6.3 -6.05 -6.3 -5.8 -6.2 -5.1 -6.25 -3.8 L-6.0 -2.9 Q-5.35 -0.55 -5.15 0.65 L-5.05 0.5 -4.95 0.5 Q-4.05 0.45 -2.85 -0.8 -2.3 -1.4 -1.7 -2.2 M-0.65 -8.7 Q0.6 -8.7 1.7 -8.65 L2.1 -8.65 1.45 -9.75 Q0.9 -10.75 0.35 -11.2 -0.25 -11.75 -0.95 -11.85 L-1.4 -11.85 Q-2.4 -11.85 -3.25 -11.6 L-3.5 -11.55 Q-4.15 -11.0 -4.85 -10.0 L-4.85 -9.95 -4.95 -9.85 -5.55 -8.9 -5.55 -8.85 -5.65 -8.75 -5.6 -8.75 -5.1 -8.8 -3.45 -8.75 -0.85 -8.7 -0.65 -8.7 M4.55 -7.8 Q4.8 -7.65 4.85 -7.4 L5.35 -5.8 Q5.85 -3.9 5.95 -2.65 6.15 -0.45 6.5 0.95 6.8 2.0 6.8 3.65 6.8 4.15 6.75 4.35 L6.7 4.5 Q6.95 5.0 6.95 5.6 7.35 6.55 7.35 7.5 L7.35 7.75 7.3 7.85 7.3 8.15 7.25 8.35 7.25 8.6 Q7.25 9.0 6.9 9.65 6.5 10.35 5.8 11.0 4.1 12.65 1.75 12.65 L0.6 12.55 -0.5 12.5 Q-0.85 12.5 -1.25 12.1 L-1.4 11.9 -1.65 11.7 -1.9 11.05 -2.7 9.4 Q-3.1 8.6 -4.0 7.6 -4.4 7.15 -4.75 6.85 L-5.15 6.05 Q-5.15 5.9 -5.05 5.7 -5.0 5.5 -5.0 5.4 L-5.25 4.65 Q-5.5 4.3 -5.7 3.8 -6.05 3.05 -6.25 2.3 L-6.25 2.25 Q-6.1 2.15 -6.05 1.95 -6.0 1.8 -6.0 1.35 -6.0 0.55 -6.45 -1.1 -6.75 -2.15 -7.15 -3.2 L-7.25 -4.05 Q-7.25 -6.0 -7.75 -7.4 -7.65 -7.75 -7.4 -7.95 -7.3 -8.2 -6.85 -8.35 L-6.85 -8.55 Q-6.85 -8.8 -6.3 -9.55 L-5.8 -10.45 Q-4.8 -11.95 -2.85 -12.65 -1.25 -13.25 0.3 -12.4 1.55 -11.7 2.15 -10.6 2.75 -9.9 3.35 -9.05 L3.85 -8.3 3.95 -8.2 Q4.45 -8.3 4.55 -7.95 L4.55 -7.8 M1.35 5.0 L1.6 5.0 Q2.4 4.9 3.45 4.65 L5.05 4.25 5.55 4.15 5.65 3.45 Q5.85 2.55 5.85 2.35 5.85 2.0 5.7 1.5 L5.4 0.55 5.05 -0.4 Q4.8 -1.1 4.8 -1.25 4.8 -1.3 4.9 -1.65 5.05 -2.05 5.05 -2.2 L5.0 -3.25 5.0 -3.5 Q4.85 -4.25 4.55 -5.2 4.2 -6.15 3.65 -7.0 L3.55 -7.2 Q3.25 -7.1 2.75 -6.75 L2.1 -6.3 1.9 -6.15 1.65 -5.9 Q0.25 -4.45 -0.8 -3.0 L-1.05 -2.65 -1.1 -2.6 Q-1.6 -1.85 -3.7 0.3 L-3.7 0.35 -3.8 0.45 -5.3 2.1 -5.35 2.15 Q-5.25 2.55 -4.7 3.5 L-4.05 4.65 -3.6 4.65 -2.1 4.8 -1.95 4.8 -1.3 4.95 0.0 5.0 1.35 5.0 M-3.3 5.1 L-4.1 5.05 -4.1 5.4 -4.05 5.6 -4.0 5.9 Q-3.7 6.15 -3.3 6.65 -1.9 8.25 -1.15 10.35 -1.15 10.7 -0.95 11.1 L-0.8 11.4 Q-0.6 11.55 -0.35 11.6 0.25 11.8 1.25 11.8 L1.95 11.7 2.75 11.4 4.0 10.9 5.05 10.4 5.2 10.25 5.0 10.4 Q5.5 10.0 5.8 9.7 L5.85 9.7 5.6 9.85 Q6.3 8.9 6.3 7.7 L6.3 7.45 6.25 7.55 Q6.4 7.3 6.4 7.15 6.4 6.8 6.1 5.75 L5.95 5.35 5.8 5.4 Q5.05 5.65 3.65 5.65 L2.85 5.55 2.2 5.5 1.6 5.45 0.45 5.45 -1.3 5.4 -1.95 5.25 -3.3 5.1" fill="#1a1a1a" fill-rule="evenodd" stroke="none"/>
  </g>
</svg>
