<?xml version="1.0" encoding="UTF-8" standalone="no"?>
<svg xmlns:ffdec="https://www.free-decompiler.com/flash" xmlns:xlink="http://www.w3.org/1999/xlink" ffdec:objectType="shape" height="22.1px" width="16.2px" xmlns="http://www.w3.org/2000/svg">
  <g transform="matrix(1.0, 0.0, 0.0, 1.0, 8.1, 11.05)">
    <path d="M1.05 -8.75 Q1.45 -8.95 1.9 -9.1 5.85 -10.55 6.5 -7.15 6.8 -5.6 6.5 -4.15 4.75 -2.1 3.3 0.15 2.95 -0.35 2.4 -0.7 L2.35 -0.75 2.1 -0.9 Q3.1 -1.65 4.0 -2.6 5.55 -4.3 5.1 -5.8 L3.4 -3.85 Q2.2 -2.4 1.95 -0.95 L1.55 -1.15 Q-0.2 -1.8 -2.05 -2.2 -0.7 -5.6 1.05 -8.75 M-4.1 1.75 Q-2.7 2.2 -1.35 2.95 L-1.2 3.05 -0.6 3.35 Q0.05 3.65 0.65 3.8 -0.3 5.5 -0.55 7.35 L-0.65 7.5 Q-0.8 7.9 -1.05 8.25 -1.85 9.15 -2.85 9.85 L-3.0 9.95 -3.25 10.05 Q-3.7 10.2 -4.25 10.3 -4.4 10.25 -4.6 10.15 -5.1 8.55 -4.85 6.85 L-4.1 1.75 M-5.6 2.25 L-5.35 1.45 -5.15 1.45 -5.6 2.25 M-2.2 7.35 Q-2.65 8.0 -2.6 8.7 -2.05 8.65 -1.75 8.1 -1.4 7.5 -1.35 6.75 -1.9 6.9 -2.2 7.35" fill="#660066" fill-rule="evenodd" stroke="none"/>
    <path d="M1.05 -8.75 Q-0.7 -5.6 -2.05 -2.2 L-3.25 -2.45 -3.85 -2.35 Q-2.7 -4.95 -1.45 -7.2 -0.35 -8.15 1.05 -8.75 M-4.1 1.75 L-4.85 6.85 Q-5.1 8.55 -4.6 10.15 L-4.9 9.9 -5.05 9.65 Q-6.35 7.75 -6.45 5.45 L-6.3 4.7 -6.3 4.65 -5.65 2.3 -5.6 2.25 -5.15 1.45 Q-4.65 1.6 -4.1 1.75" fill="#4d004b" fill-rule="evenodd" stroke="none"/>
    <path d="M1.95 -0.95 Q2.2 -2.4 3.4 -3.85 L5.1 -5.8 Q5.55 -4.3 4.0 -2.6 3.1 -1.65 2.1 -0.9 L2.0 -0.95 1.95 -0.95 M-2.2 7.35 Q-1.9 6.9 -1.35 6.75 -1.4 7.5 -1.75 8.1 -2.05 8.65 -2.6 8.7 -2.65 8.0 -2.2 7.35" fill="#7d007a" fill-rule="evenodd" stroke="none"/>
    <path d="M-0.2 -0.25 Q-0.25 -0.15 -0.35 -0.15 L-0.8 0.0 Q-0.8 0.3 -0.65 0.6 -0.6 0.8 -0.4 1.0 -0.3 1.15 -0.4 1.3 -1.0 1.75 -1.8 1.3 -2.15 1.1 -2.35 0.8 -2.35 0.5 -2.3 0.25 -2.3 -0.15 -1.95 -0.35 -1.85 -0.45 -1.9 -0.6 -1.7 -0.75 -1.55 -0.8 L-0.2 -0.25" fill="#666666" fill-rule="evenodd" stroke="none"/>
    <path d="M1.9 -11.05 Q8.65 -11.1 8.05 -4.7 8.0 -4.0 7.8 -3.4 L7.9 -3.5 Q7.6 -1.75 5.75 0.1 4.0 1.85 2.6 3.85 L2.75 4.05 2.45 4.05 Q1.3 5.7 0.35 7.45 0.15 7.9 -0.1 8.2 -0.4 8.75 -0.75 9.2 -2.05 10.95 -4.85 11.05 -7.55 11.15 -7.85 8.45 L-7.85 7.35 -7.9 7.1 Q-8.45 4.45 -7.3 1.4 -6.6 -0.45 -5.65 -2.2 -4.45 -4.9 -2.7 -7.15 L-2.55 -7.45 Q-1.45 -9.75 1.0 -10.75 1.45 -10.95 1.9 -11.05 M2.1 -0.9 L2.35 -0.75 2.4 -0.7 Q2.95 -0.35 3.3 0.15 4.75 -2.1 6.5 -4.15 6.8 -5.6 6.5 -7.15 5.85 -10.55 1.9 -9.1 1.45 -8.95 1.05 -8.75 -0.35 -8.15 -1.45 -7.2 -2.7 -4.95 -3.85 -2.35 L-3.25 -2.45 -2.05 -2.2 Q-0.2 -1.8 1.55 -1.15 L1.95 -0.95 2.0 -0.95 2.1 -0.9 M-1.55 -0.8 Q-2.85 -1.3 -4.15 -1.6 L-5.1 0.75 Q-4.55 0.7 -3.95 0.75 L-3.95 0.7 Q-1.85 1.3 0.2 2.15 0.85 2.4 1.35 2.75 1.9 2.0 2.6 1.3 L2.8 0.9 Q1.4 0.45 -0.2 -0.25 L-1.55 -0.8 M-4.6 10.15 Q-4.4 10.25 -4.25 10.3 -3.7 10.2 -3.25 10.05 L-3.0 9.95 -2.85 9.85 Q-1.85 9.15 -1.05 8.25 -0.8 7.9 -0.65 7.5 L-0.55 7.35 Q-0.3 5.5 0.65 3.8 0.05 3.65 -0.6 3.35 L-1.2 3.05 -1.35 2.95 Q-2.7 2.2 -4.1 1.75 -4.65 1.6 -5.15 1.45 L-5.35 1.45 -5.6 2.25 -5.65 2.3 -6.3 4.65 -6.3 4.7 -6.45 5.45 Q-6.35 7.75 -5.05 9.65 L-4.9 9.9 -4.6 10.15" fill="#1a1a1a" fill-rule="evenodd" stroke="none"/>
    <path d="M-0.2 -0.25 Q1.4 0.45 2.8 0.9 L2.6 1.3 Q1.9 2.0 1.35 2.75 0.85 2.4 0.2 2.15 -1.85 1.3 -3.95 0.7 L-3.95 0.75 Q-4.55 0.7 -5.1 0.75 L-4.15 -1.6 Q-2.85 -1.3 -1.55 -0.8 -1.7 -0.75 -1.9 -0.6 -1.85 -0.45 -1.95 -0.35 -2.3 -0.15 -2.3 0.25 -2.35 0.5 -2.35 0.8 -2.15 1.1 -1.8 1.3 -1.0 1.75 -0.4 1.3 -0.3 1.15 -0.4 1.0 -0.6 0.8 -0.65 0.6 -0.8 0.3 -0.8 0.0 L-0.35 -0.15 Q-0.25 -0.15 -0.2 -0.25" fill="#444444" fill-rule="evenodd" stroke="none"/>
  </g>
</svg>
