<?xml version="1.0" encoding="UTF-8" standalone="no"?>
<svg xmlns:ffdec="https://www.free-decompiler.com/flash" xmlns:xlink="http://www.w3.org/1999/xlink" ffdec:objectType="shape" height="17.45px" width="19.4px" xmlns="http://www.w3.org/2000/svg">
  <g transform="matrix(1.0, 0.0, 0.0, 1.0, 1.85, 8.9)">
    <path d="M6.7 -5.0 Q6.35 -5.4 5.9 -5.7 5.05 -6.2 4.0 -6.05 L3.65 -5.85 Q2.3 -5.05 1.25 -3.95 L1.25 -3.9 1.2 -3.9 0.5 -3.0 0.25 -2.55 Q0.95 -5.95 4.3 -7.4 5.2 -7.45 5.85 -6.55 L6.0 -6.35 Q6.7 -5.4 7.15 -4.5 L6.9 -4.5 6.9 -4.55 6.95 -4.75 6.7 -5.0 M8.3 6.95 L7.55 6.75 7.55 6.7 Q7.85 5.6 8.6 4.95 10.3 4.5 11.8 4.05 L12.35 4.05 Q14.15 4.25 14.45 3.65 14.6 3.8 14.8 3.95 L15.3 4.45 Q15.5 4.65 15.5 4.75 L15.5 4.7 Q15.3 4.45 14.9 4.4 L14.75 4.4 Q13.3 4.95 11.65 4.85 8.7 4.75 8.3 6.95" fill="#cccccc" fill-rule="evenodd" stroke="none"/>
    <path d="M0.5 -3.0 L1.2 -3.9 1.25 -3.9 1.25 -3.95 Q2.3 -5.05 3.65 -5.85 L4.0 -6.05 Q5.05 -6.2 5.9 -5.7 6.35 -5.4 6.7 -5.0 5.3 -5.0 3.75 -4.65 2.15 -4.25 1.45 -2.75 1.4 -2.65 1.25 -2.55 L0.95 -2.55 Q0.65 -2.5 0.45 -2.75 L0.5 -3.0 M8.3 6.95 Q8.7 4.75 11.65 4.85 13.3 4.95 14.75 4.4 L14.9 4.4 Q15.3 4.45 15.5 4.7 12.8 5.75 9.8 6.5 9.3 6.65 8.9 7.05 L8.65 7.0 8.3 6.95" fill="#999999" fill-rule="evenodd" stroke="none"/>
    <path d="M6.7 -5.0 L6.95 -4.75 6.9 -4.55 6.9 -4.5 6.4 -4.45 6.35 -4.4 6.1 -4.4 Q4.9 -4.1 3.75 -3.4 2.0 -2.3 0.3 -1.55 L0.2 -1.9 0.2 -2.1 0.25 -2.55 0.5 -3.0 0.45 -2.75 Q0.65 -2.5 0.95 -2.55 L1.25 -2.55 Q1.4 -2.65 1.45 -2.75 2.15 -4.25 3.75 -4.65 5.3 -5.0 6.7 -5.0 M15.5 4.7 L15.5 4.75 15.5 4.85 Q13.35 8.05 8.9 7.05 9.3 6.65 9.8 6.5 12.8 5.75 15.5 4.7" fill="#b3b3b3" fill-rule="evenodd" stroke="none"/>
    <path d="M6.9 -2.4 Q7.85 -0.9 9.05 0.55 L10.7 2.5 Q8.9 1.75 7.45 -0.15 6.45 -1.45 6.9 -2.4 M3.6 1.85 Q4.3 2.75 5.1 3.5 5.8 4.2 5.85 4.95 4.45 4.65 3.55 3.3 2.9 2.35 3.6 1.85" fill="#666666" fill-rule="evenodd" stroke="none"/>
    <path d="M6.9 -4.5 L7.15 -4.5 Q6.7 -5.4 6.0 -6.35 L5.85 -6.55 Q5.2 -7.45 4.3 -7.4 0.95 -5.95 0.25 -2.55 L0.2 -2.1 0.2 -1.9 0.3 -1.55 Q2.0 -2.3 3.75 -3.4 4.9 -4.1 6.1 -4.4 L6.35 -4.4 6.4 -4.45 6.9 -4.5 M0.9 -6.55 Q2.5 -8.6 5.1 -8.9 7.65 -8.75 8.35 -6.4 8.75 -5.1 8.15 -4.0 L8.25 -3.95 Q8.75 -3.45 8.95 -2.85 L8.65 -3.0 Q9.3 -2.1 10.1 -1.25 L11.4 -0.15 12.3 0.65 12.5 0.55 Q12.95 0.65 13.3 0.9 13.95 0.9 14.45 1.2 16.25 1.65 17.05 3.35 17.25 3.85 17.35 4.25 17.55 4.7 17.55 5.05 L17.55 5.2 Q17.55 5.9 16.85 6.55 16.5 6.85 16.15 7.0 15.7 7.45 15.05 7.85 14.0 8.45 13.05 8.4 12.35 8.6 11.65 8.45 10.1 8.65 8.35 8.3 7.45 8.2 6.65 7.95 L6.65 7.85 Q5.65 7.75 4.7 6.85 3.95 6.45 3.2 5.85 3.05 5.75 2.85 5.6 2.65 5.35 2.25 5.25 L2.25 5.3 1.8 5.1 1.75 5.15 1.1 5.15 Q-0.8 5.4 -1.6 3.2 -1.75 2.75 -1.75 2.4 -2.0 1.5 -1.55 0.2 -1.2 -0.8 -0.7 -1.5 -1.25 -2.1 -1.1 -3.05 L-1.25 -2.85 -1.3 -2.75 -1.25 -3.3 -1.1 -3.7 Q-0.65 -5.2 0.7 -6.35 L0.9 -6.55 M1.4 -0.75 Q1.65 0.45 1.85 2.0 L2.15 4.2 2.45 4.35 Q4.1 4.5 5.55 5.4 5.95 5.65 6.35 5.95 6.2 4.8 7.4 4.15 8.75 3.35 10.25 3.05 L12.25 3.1 13.1 3.0 Q10.8 1.55 8.8 -1.1 7.95 -2.2 7.6 -3.25 L7.55 -3.3 Q5.6 -3.6 3.35 -2.0 2.95 -1.65 2.5 -1.45 1.95 -0.95 1.4 -0.75 M13.3 2.85 L13.3 2.8 13.25 2.8 13.3 2.85 M15.5 4.75 Q15.5 4.65 15.3 4.45 L14.8 3.95 Q14.6 3.8 14.45 3.65 14.15 4.25 12.35 4.05 L11.8 4.05 Q10.3 4.5 8.6 4.95 7.85 5.6 7.55 6.7 L7.55 6.75 8.3 6.95 8.65 7.0 8.9 7.05 Q13.35 8.05 15.5 4.85 L15.5 4.75 M0.2 1.05 Q0.15 0.1 0.45 -0.65 0.05 -0.65 -0.3 -0.8 -0.3 0.5 -0.45 1.85 L-0.5 2.25 Q-0.1 2.85 0.6 3.25 0.2 2.3 0.2 1.05" fill="#1a1a1a" fill-rule="evenodd" stroke="none"/>
    <path d="M1.4 -0.75 Q1.95 -0.95 2.5 -1.45 2.95 -1.65 3.35 -2.0 5.6 -3.6 7.55 -3.3 L7.6 -3.25 Q7.95 -2.2 8.8 -1.1 10.8 1.55 13.1 3.0 L12.25 3.1 10.25 3.05 Q8.75 3.35 7.4 4.15 6.2 4.8 6.35 5.95 5.95 5.65 5.55 5.4 4.1 4.5 2.45 4.35 L2.15 4.2 1.85 2.0 Q1.65 0.45 1.4 -0.75 M6.9 -2.4 Q6.45 -1.45 7.45 -0.15 8.9 1.75 10.7 2.5 L9.05 0.55 Q7.85 -0.9 6.9 -2.4 M3.6 1.85 Q2.9 2.35 3.55 3.3 4.45 4.65 5.85 4.95 5.8 4.2 5.1 3.5 4.3 2.75 3.6 1.85 M0.2 1.05 Q0.2 2.3 0.6 3.25 -0.1 2.85 -0.5 2.25 L-0.45 1.85 Q-0.3 0.5 -0.3 -0.8 0.05 -0.65 0.45 -0.65 0.15 0.1 0.2 1.05" fill="#444444" fill-rule="evenodd" stroke="none"/>
  </g>
</svg>
