<?xml version="1.0" encoding="UTF-8" standalone="no"?>
<svg xmlns:ffdec="https://www.free-decompiler.com/flash" xmlns:xlink="http://www.w3.org/1999/xlink" ffdec:objectType="shape" height="28.05px" width="22.75px" xmlns="http://www.w3.org/2000/svg">
  <g transform="matrix(1.0, 0.0, 0.0, 1.0, 11.25, 14.6)">
    <path d="M10.95 -2.4 L11.1 -2.35 11.35 -2.1 Q11.45 -1.95 11.5 -1.8 L11.45 -1.65 11.5 -1.6 11.5 -1.45 10.95 -1.1 Q10.5 -0.35 9.8 0.6 L9.7 0.7 Q9.4 1.05 9.05 1.3 L8.9 1.6 Q7.85 2.35 6.85 3.15 6.35 4.05 5.95 4.95 6.1 5.9 5.9 7.0 L5.8 7.55 5.9 8.0 Q5.9 9.2 4.65 10.3 L4.35 10.75 3.1 11.55 Q0.95 12.9 -0.5 13.45 L-1.9 13.25 Q-2.85 13.45 -3.4 13.45 -4.85 13.45 -5.6 13.1 L-5.65 13.1 Q-7.0 12.9 -8.25 11.25 -9.95 8.9 -11.25 6.25 -11.15 4.7 -10.9 2.95 -10.85 2.35 -10.65 1.9 -10.7 1.3 -10.55 0.7 -10.15 -1.05 -8.05 -2.6 L-6.7 -3.65 -6.75 -3.45 Q-5.5 -4.25 -4.5 -5.45 L-4.3 -6.0 -2.95 -7.4 -2.9 -7.4 Q-1.3 -9.3 0.55 -10.85 L0.55 -10.9 Q1.8 -12.1 3.25 -13.05 3.5 -13.3 3.85 -13.55 4.95 -14.35 6.25 -14.6 L6.3 -14.55 6.35 -14.55 Q6.6 -14.3 6.45 -13.95 L6.6 -13.85 6.15 -13.4 Q5.95 -13.15 5.65 -12.9 L5.6 -12.9 4.95 -12.4 4.75 -12.25 4.6 -12.15 4.5 -12.15 Q4.3 -12.0 4.1 -11.9 L3.65 -11.8 3.7 -11.9 3.6 -11.85 Q3.1 -11.2 2.1 -10.5 0.75 -9.55 -0.45 -8.55 -2.2 -6.55 -3.95 -4.35 L-4.2 -4.0 Q-4.5 -2.75 -5.0 -1.4 -5.35 -0.3 -5.75 0.7 L-6.25 2.0 -6.5 2.55 -7.0 3.7 -7.15 4.0 -7.25 3.25 Q-7.35 2.7 -7.35 2.1 -7.35 1.4 -7.25 0.7 L-7.15 0.3 -6.95 -0.45 Q-6.8 -1.1 -6.55 -1.65 -6.8 -1.45 -7.05 -1.3 L-7.2 -1.2 -7.25 -0.35 -7.95 0.4 -8.1 0.7 Q-8.55 1.65 -8.9 2.65 L-9.05 3.0 -9.05 3.05 -9.1 3.1 Q-9.5 4.35 -9.35 5.6 L-9.35 6.3 -8.9 7.5 Q-8.55 8.25 -7.95 8.9 -6.95 9.95 -6.15 11.0 -5.05 11.55 -4.1 11.7 L-4.0 11.65 Q-2.95 11.4 -1.95 11.6 0.1 11.35 1.8 10.35 2.3 10.05 2.7 9.7 L2.95 9.05 3.1 8.75 3.55 8.4 Q3.65 7.7 3.8 6.95 L3.8 6.85 Q2.15 7.95 -0.6 8.8 L0.2 8.25 Q1.0 7.65 1.8 7.0 L1.9 6.9 2.05 6.8 3.1 5.75 4.4 4.5 4.7 4.2 Q5.1 3.3 5.7 2.5 L5.75 2.45 Q6.3 1.5 7.1 0.7 L7.2 0.6 Q7.5 0.3 7.85 0.0 L8.1 -0.35 Q8.2 -0.55 8.35 -0.7 L8.55 -0.9 8.95 -1.35 9.15 -1.25 Q9.85 -1.75 10.65 -2.0 L10.7 -1.95 10.85 -1.95 10.95 -1.85 Q11.0 -2.1 10.95 -2.4" fill="#111111" fill-rule="evenodd" stroke="none"/>
    <path d="M10.95 -2.4 Q11.0 -2.1 10.95 -1.85 L10.85 -1.95 10.7 -1.95 10.65 -2.0 Q9.85 -1.75 9.15 -1.25 L8.95 -1.35 8.55 -0.9 8.35 -0.7 Q8.2 -0.55 8.1 -0.35 L7.85 0.0 Q7.5 0.3 7.2 0.6 L7.05 0.7 5.95 1.5 Q4.7 2.4 2.5 4.2 L-0.2 6.4 Q2.0 5.65 4.4 4.5 L3.1 5.75 2.05 6.8 1.9 6.9 1.8 7.0 Q1.0 7.65 0.2 8.25 -0.8 8.65 -2.1 9.0 L-1.1 9.3 Q-0.1 9.55 0.2 9.55 L2.85 9.15 2.95 9.1 2.95 9.05 2.7 9.7 Q2.3 10.05 1.8 10.35 0.1 11.35 -1.95 11.6 -2.95 11.4 -4.0 11.65 L-4.1 11.7 Q-5.05 11.55 -6.15 11.0 -6.95 9.95 -7.95 8.9 -8.55 8.25 -8.9 7.5 L-8.8 7.4 Q-8.65 6.65 -7.95 6.25 -7.2 5.8 -6.0 5.8 -5.3 5.8 -4.0 6.8 L-3.95 6.85 Q-3.7 6.65 -3.45 6.35 -3.25 5.4 -2.6 2.95 L-1.95 0.7 Q-1.35 -1.3 -0.95 -2.35 -0.05 -4.55 2.95 -8.8 L4.85 -11.5 Q5.6 -12.6 5.65 -12.9 5.95 -13.15 6.15 -13.4 L6.6 -13.85 Q7.0 -13.55 7.3 -13.05 9.5 -9.55 9.7 -5.25 9.75 -4.25 10.35 -3.5 10.8 -2.85 10.95 -2.4 M-7.15 0.3 L-7.25 0.7 Q-7.35 1.4 -7.35 2.1 -7.35 2.7 -7.25 3.25 -7.45 3.9 -7.65 4.2 L-8.0 4.05 -8.05 4.3 -8.05 4.35 -8.4 4.4 Q-8.6 4.4 -8.75 3.55 -8.1 2.3 -8.0 1.95 -7.9 1.55 -7.4 0.7 L-7.15 0.3" fill="#414243" fill-rule="evenodd" stroke="none"/>
    <path d="M7.2 0.6 L7.1 0.7 Q6.3 1.5 5.75 2.45 L5.7 2.5 Q5.1 3.3 4.7 4.2 L4.4 4.5 Q2.0 5.65 -0.2 6.4 L2.5 4.2 Q4.7 2.4 5.95 1.5 L7.05 0.7 7.2 0.6 M0.2 8.25 L-0.6 8.8 Q2.15 7.95 3.8 6.85 L3.8 6.95 Q3.65 7.7 3.55 8.4 L3.1 8.75 2.95 9.05 2.95 9.1 2.85 9.15 0.2 9.55 Q-0.1 9.55 -1.1 9.3 L-2.1 9.0 Q-0.8 8.65 0.2 8.25 M-8.9 7.5 L-9.35 6.3 -9.35 5.6 Q-9.5 4.35 -9.1 3.1 L-9.05 3.05 -9.05 3.0 -8.9 2.65 Q-8.55 1.65 -8.1 0.7 L-7.95 0.4 -7.25 -0.35 -7.2 -1.2 -7.05 -1.3 Q-6.8 -1.45 -6.55 -1.65 -6.8 -1.1 -6.95 -0.45 L-7.15 0.3 -7.4 0.7 Q-7.9 1.55 -8.0 1.95 -8.1 2.3 -8.75 3.55 -8.6 4.4 -8.4 4.4 L-8.05 4.35 -8.05 4.3 -8.0 4.05 -7.65 4.2 Q-7.45 3.9 -7.25 3.25 L-7.15 4.0 -7.0 3.7 -6.5 2.55 -6.25 2.0 -5.75 0.7 Q-5.35 -0.3 -5.0 -1.4 -4.5 -2.75 -4.2 -4.0 L-3.95 -4.35 Q-2.2 -6.55 -0.45 -8.55 0.75 -9.55 2.1 -10.5 3.1 -11.2 3.6 -11.85 L3.7 -11.9 3.65 -11.8 4.1 -11.9 Q4.3 -12.0 4.5 -12.15 L4.6 -12.15 4.75 -12.25 4.95 -12.4 5.6 -12.9 5.65 -12.9 Q5.6 -12.6 4.85 -11.5 L2.95 -8.8 Q-0.05 -4.55 -0.95 -2.35 -1.35 -1.3 -1.95 0.7 L-2.6 2.95 Q-3.25 5.4 -3.45 6.35 -3.7 6.65 -3.95 6.85 L-4.0 6.8 Q-5.3 5.8 -6.0 5.8 -7.2 5.8 -7.95 6.25 -8.65 6.65 -8.8 7.4 L-8.9 7.5" fill="#616263" fill-rule="evenodd" stroke="none"/>
  </g>
</svg>
