<?xml version="1.0" encoding="UTF-8" standalone="no"?>
<svg xmlns:ffdec="https://www.free-decompiler.com/flash" xmlns:xlink="http://www.w3.org/1999/xlink" ffdec:objectType="shape" height="14.3px" width="16.85px" xmlns="http://www.w3.org/2000/svg">
  <g transform="matrix(1.0, 0.0, 0.0, 1.0, 10.05, 11.1)">
    <path d="M2.35 0.2 L2.4 0.25 2.65 0.3 Q1.1 1.4 -0.9 2.15 -1.75 2.45 -2.55 2.65 -2.65 2.8 -2.85 2.95 -3.2 3.2 -3.75 3.2 -4.75 3.2 -6.15 1.85 L-6.4 1.6 Q-6.9 1.05 -7.4 0.45 L-7.8 -0.1 Q-7.8 -1.3 -6.0 0.25 -5.6 0.55 -4.7 1.5 -4.05 2.1 -3.95 2.1 -3.5 2.1 -3.3 1.9 -3.1 1.7 -3.0 1.7 L-2.8 1.75 Q-2.15 1.3 -1.35 1.0 -0.85 0.95 -0.2 0.7 L0.15 0.55 1.75 0.15 1.9 0.1 2.15 0.15 2.2 0.15 2.35 0.2" fill="#1a1a1a" fill-rule="evenodd" stroke="none"/>
    <path d="M-6.15 1.85 Q-6.85 1.3 -7.55 0.45 -10.45 -3.15 -10.0 -7.6 -9.85 -9.05 -8.95 -9.9 L-8.95 -9.75 -8.7 -10.0 Q-6.0 -10.95 -3.0 -11.0 0.4 -11.25 3.75 -10.95 L4.85 -11.0 5.05 -10.85 Q5.85 -10.75 6.5 -11.0 L6.55 -10.7 Q6.75 -10.25 6.75 -9.6 6.8 -8.85 6.6 -8.25 6.4 -5.65 5.0 -3.0 3.9 -0.9 2.35 0.2 L2.2 0.15 2.15 0.15 1.9 0.1 1.75 0.15 0.15 0.55 -0.2 0.7 Q-0.85 0.95 -1.35 1.0 -2.15 1.3 -2.8 1.75 L-3.0 1.7 Q-3.1 1.7 -3.3 1.9 -3.5 2.1 -3.95 2.1 -4.05 2.1 -4.7 1.5 -5.6 0.55 -6.0 0.25 -7.8 -1.3 -7.8 -0.1 L-7.4 0.45 Q-6.9 1.05 -6.4 1.6 L-6.15 1.85 M-9.1 -6.75 L-9.1 -6.75" fill="#414243" fill-rule="evenodd" stroke="none"/>
  </g>
</svg>
