<?xml version="1.0" encoding="UTF-8" standalone="no"?>
<svg xmlns:ffdec="https://www.free-decompiler.com/flash" xmlns:xlink="http://www.w3.org/1999/xlink" ffdec:objectType="shape" height="28.15px" width="24.9px" xmlns="http://www.w3.org/2000/svg">
  <g transform="matrix(1.0, 0.0, 0.0, 1.0, 11.25, 15.05)">
    <path d="M10.75 -14.15 L9.9 -14.2 9.3 -14.25 8.4 -14.2 8.35 -14.2 Q7.45 -13.8 6.5 -13.35 L6.0 -13.15 5.8 -13.05 5.45 -12.65 5.4 -12.6 4.9 -12.45 Q4.3 -12.25 3.65 -11.9 3.15 -11.2 2.1 -10.5 0.75 -9.55 -0.45 -8.55 -2.2 -6.55 -3.95 -4.35 L-4.3 -3.9 -4.35 -3.5 Q-4.85 -2.85 -5.15 -2.3 -6.05 -0.55 -6.45 0.3 L-6.45 -0.05 -7.1 0.65 -7.5 1.1 -8.05 1.75 Q-8.7 2.45 -9.0 3.1 L-9.15 3.4 Q-9.4 4.15 -9.4 4.9 L-9.35 5.6 -9.35 5.7 -9.3 6.15 -9.35 6.3 -8.9 7.5 Q-8.55 8.25 -7.95 8.9 -7.05 9.85 -6.3 10.8 -5.45 11.2 -4.95 11.35 -4.45 11.55 -3.9 11.65 -2.75 11.4 -1.7 11.65 -0.95 11.5 -0.25 11.55 0.65 11.15 1.9 10.2 L2.8 9.4 3.3 8.25 Q2.6 8.7 1.85 9.05 L1.7 9.15 Q-0.1 9.95 -2.05 10.1 L-1.35 9.7 Q-0.5 9.15 0.45 8.4 L1.8 7.4 3.25 6.3 Q4.25 5.55 4.65 4.95 5.15 4.05 5.55 3.4 L4.7 3.95 4.45 4.1 Q2.3 5.4 0.5 6.95 L0.75 6.55 -0.25 7.25 Q0.55 6.55 1.85 5.25 L2.35 4.7 4.7 2.25 4.8 2.2 Q6.05 0.95 6.65 0.65 7.05 0.5 7.25 0.65 L7.6 0.4 Q7.95 0.05 8.4 -0.2 8.95 -0.5 9.5 -0.7 10.1 -1.0 10.7 -1.2 L10.95 -1.3 11.55 -1.45 11.65 -1.5 11.8 -1.55 Q12.4 -1.9 13.1 -2.1 13.0 -1.85 12.8 -1.65 L13.6 -1.85 13.6 -1.8 13.65 -1.85 13.6 -1.7 Q13.65 -1.1 13.3 -0.7 L13.25 -0.65 12.8 -0.3 Q11.8 0.35 10.5 0.5 L9.7 0.6 9.35 0.75 Q8.5 2.4 7.3 4.05 L7.0 4.45 Q6.65 5.05 6.15 5.65 5.35 7.8 5.35 9.25 5.35 9.8 4.85 10.45 4.3 11.1 3.45 11.65 L2.8 12.0 2.5 12.45 Q0.75 13.1 -0.55 13.1 L-2.05 13.0 -4.1 12.95 -4.85 13.0 -5.7 13.1 Q-7.05 12.85 -8.25 11.25 -9.95 8.9 -11.25 6.25 -11.15 4.7 -10.9 2.95 -10.85 2.35 -10.65 1.9 L-10.65 1.85 Q-9.65 0.75 -9.3 0.15 -7.95 -1.1 -7.8 -1.55 L-6.75 -3.35 -6.25 -3.95 -6.15 -4.05 -2.95 -7.4 -2.9 -7.4 Q-1.3 -9.3 0.55 -10.85 L0.55 -10.9 Q2.1 -12.35 3.9 -13.4 4.15 -13.6 4.5 -13.75 5.35 -14.55 6.75 -14.9 8.15 -15.2 9.5 -15.0 10.5 -15.0 11.35 -14.5 11.3 -14.35 11.15 -14.25 L11.2 -14.25 Q11.1 -14.15 10.8 -14.15 L10.75 -14.15" fill="#111111" fill-rule="evenodd" stroke="none"/>
    <path d="M5.4 -12.6 L5.45 -12.65 5.8 -13.05 6.0 -13.15 6.5 -13.35 Q7.45 -13.8 8.35 -14.2 L8.4 -14.2 9.3 -14.25 9.9 -14.2 10.75 -14.15 Q10.2 -10.5 9.55 -6.85 9.2 -5.2 10.05 -3.65 10.7 -2.45 11.65 -1.5 L11.55 -1.45 10.95 -1.3 10.7 -1.2 Q10.1 -1.0 9.5 -0.7 8.95 -0.5 8.4 -0.2 7.95 0.05 7.6 0.4 L7.25 0.65 Q7.05 0.5 6.65 0.65 6.05 0.95 4.8 2.2 L4.7 2.25 2.35 4.7 1.85 5.25 1.45 5.55 1.05 5.95 0.75 6.2 Q-1.25 7.95 -2.9 9.05 -3.55 9.5 -4.05 9.75 -3.45 10.1 -2.65 9.95 L-1.35 9.7 -2.05 10.1 Q-0.1 9.95 1.7 9.15 L1.9 9.1 1.85 9.05 Q2.6 8.7 3.3 8.25 L2.8 9.4 1.9 10.2 Q0.65 11.15 -0.25 11.55 -0.95 11.5 -1.7 11.65 -2.75 11.4 -3.9 11.65 -4.45 11.55 -4.95 11.35 -5.45 11.2 -6.3 10.8 -7.05 9.85 -7.95 8.9 -8.55 8.25 -8.9 7.5 L-9.35 6.3 -9.3 6.15 -9.35 5.7 -9.35 5.6 -9.4 4.9 -9.05 4.75 Q-8.5 4.55 -7.95 4.4 L-6.8 5.2 Q-5.55 6.05 -4.05 6.8 L-4.2 6.75 Q-3.75 7.05 -3.55 7.1 L-3.25 7.0 Q-3.15 6.3 -3.1 5.35 L-3.1 4.25 -3.05 4.15 -2.3 3.1 Q-0.55 2.45 1.8 0.45 2.7 -0.3 4.25 -1.7 5.4 -2.75 5.65 -2.9 3.95 -2.5 1.15 -1.15 -1.15 0.15 -3.7 1.45 -3.6 1.05 -3.2 0.65 -2.8 0.25 -2.8 0.15 -2.8 0.0 -1.05 -1.45 -0.7 -2.05 0.5 -3.35 2.15 -5.2 4.25 -7.05 L4.65 -7.4 Q4.5 -7.75 4.5 -7.85 4.5 -8.05 4.35 -8.6 4.2 -9.2 4.2 -9.4 4.2 -9.8 4.95 -11.4 5.25 -12.05 5.45 -12.6 L5.4 -12.6 M4.7 2.25 L4.7 2.25 M0.45 8.4 L0.05 8.35 0.15 8.35 Q1.05 7.7 2.25 6.55 3.45 5.5 4.25 4.5 L4.7 3.95 5.55 3.4 Q5.15 4.05 4.65 4.95 4.25 5.55 3.25 6.3 L1.8 7.4 0.45 8.4" fill="#414243" fill-rule="evenodd" stroke="none"/>
    <path d="M5.4 -12.6 L5.45 -12.6 Q5.25 -12.05 4.95 -11.4 4.2 -9.8 4.2 -9.4 4.2 -9.2 4.35 -8.6 4.5 -8.05 4.5 -7.85 4.5 -7.75 4.65 -7.4 L4.25 -7.05 Q2.15 -5.2 0.5 -3.35 -0.7 -2.05 -1.05 -1.45 -2.8 0.0 -2.8 0.15 -2.8 0.25 -3.2 0.65 -3.6 1.05 -3.7 1.45 -1.15 0.15 1.15 -1.15 3.95 -2.5 5.65 -2.9 5.4 -2.75 4.25 -1.7 2.7 -0.3 1.8 0.45 -0.55 2.45 -2.3 3.1 L-3.05 4.15 -3.1 4.25 -3.1 5.35 Q-3.15 6.3 -3.25 7.0 L-3.55 7.1 Q-3.75 7.05 -4.2 6.75 L-4.05 6.8 Q-5.55 6.05 -6.8 5.2 L-7.95 4.4 Q-8.5 4.55 -9.05 4.75 L-9.4 4.9 Q-9.4 4.15 -9.15 3.4 L-9.0 3.1 Q-8.7 2.45 -8.05 1.75 L-7.5 1.1 -7.1 0.65 -6.45 -0.05 -6.45 0.3 Q-6.05 -0.55 -5.15 -2.3 -4.85 -2.85 -4.35 -3.5 L-4.3 -3.9 -3.95 -4.35 Q-2.2 -6.55 -0.45 -8.55 0.75 -9.55 2.1 -10.5 3.15 -11.2 3.65 -11.9 4.3 -12.25 4.9 -12.45 L5.4 -12.6 M-1.35 9.7 L-2.65 9.95 Q-3.45 10.1 -4.05 9.75 -3.55 9.5 -2.9 9.05 -1.25 7.95 0.75 6.2 L1.05 5.95 1.45 5.55 1.85 5.25 Q0.55 6.55 -0.25 7.25 L0.75 6.55 0.5 6.95 Q2.3 5.4 4.45 4.1 L4.7 3.95 4.25 4.5 Q3.45 5.5 2.25 6.55 1.05 7.7 0.15 8.35 L0.05 8.35 0.45 8.4 Q-0.5 9.15 -1.35 9.7" fill="#616263" fill-rule="evenodd" stroke="none"/>
  </g>
</svg>
