<?xml version="1.0" encoding="UTF-8" standalone="no"?>
<svg xmlns:ffdec="https://www.free-decompiler.com/flash" xmlns:xlink="http://www.w3.org/1999/xlink" ffdec:objectType="shape" height="28.05px" width="24.05px" xmlns="http://www.w3.org/2000/svg">
  <g transform="matrix(1.0, 0.0, 0.0, 1.0, 12.3, 10.05)">
    <path d="M2.6 -10.0 L4.45 -9.85 Q5.3 -9.75 6.05 -9.45 4.5 -9.9 2.8 -10.0 L2.6 -10.0 M-8.05 -5.35 Q-6.65 -6.85 -4.75 -7.8 -3.6 -8.4 -2.35 -8.75 L-2.2 -8.65 Q1.0 -9.25 4.25 -8.9 L5.95 -8.7 Q6.5 -8.6 7.05 -8.45 L8.4 -7.95 8.4 -7.75 8.5 -7.9 8.95 -7.5 9.45 -6.9 Q10.15 -5.95 10.65 -4.9 10.65 -3.95 10.55 -3.0 L10.2 -2.35 9.05 -0.1 Q8.4 1.2 7.55 2.1 7.25 2.45 6.6 3.25 L5.7 4.4 Q5.15 5.0 4.55 5.35 L4.15 5.4 Q3.65 5.8 3.25 5.95 2.2 6.3 -0.35 6.85 L-0.85 7.05 Q-1.55 7.3 -2.25 7.45 -3.55 7.75 -4.9 7.8 L1.35 7.7 Q2.45 7.35 3.55 6.9 L3.7 6.8 3.8 6.75 Q4.8 6.35 5.0 6.3 L4.9 6.55 5.0 6.5 5.0 6.6 4.95 7.4 Q3.95 7.8 2.8 7.8 L2.95 7.9 Q-1.0 9.2 -5.05 9.3 -5.4 8.9 -5.65 8.35 -5.95 7.75 -6.2 6.8 -6.6 5.5 -6.7 5.3 -8.1 0.15 -8.1 -0.85 L-8.3 -3.35 -8.15 -4.4 -8.05 -5.35 M2.9 14.6 Q2.45 14.9 1.95 15.15 L0.85 15.6 4.1 11.5 3.4 13.3 Q3.1 14.05 2.9 14.6 M-2.4 16.35 Q-3.35 16.45 -4.25 16.3 -4.7 16.25 -5.1 16.05 L-5.15 16.05 -5.25 15.65 Q-5.8 13.6 -6.0 11.95 L-6.1 11.9 Q-3.0 13.9 0.55 15.05 -1.95 15.9 -4.35 14.8 L-2.4 16.35 M-9.25 7.75 L-9.3 7.7 -10.15 6.1 -10.35 5.75 Q-10.4 5.4 -10.55 4.85 L-10.6 4.5 -10.05 5.9 -9.25 7.75 M5.25 7.45 L5.2 7.85 4.55 9.65 4.25 10.55 Q3.95 10.75 3.6 10.9 1.8 11.5 0.1 10.75 L-0.3 10.45 3.4 8.65 5.25 7.45 M0.2 12.3 L-2.3 12.1 Q-3.7 12.1 -4.2 11.75 L-4.85 11.2 -5.75 10.25 -5.45 10.3 Q-5.75 10.2 -5.95 10.2 -4.6 10.0 -2.95 10.45 L-0.65 11.15 0.35 11.4 2.0 11.8 1.8 11.8 2.65 12.05 Q1.5 12.7 0.3 12.35 L0.2 12.3" fill="#304040" fill-rule="evenodd" stroke="none"/>
    <path d="M8.95 -7.5 L9.2 -7.25 9.45 -7.0 Q10.15 -6.15 10.7 -5.2 L10.65 -4.9 Q10.15 -5.95 9.45 -6.9 L8.95 -7.5 M10.55 -3.0 Q10.45 -1.9 10.2 -0.8 L10.2 -0.85 Q9.9 -0.4 9.4 0.8 8.85 2.1 8.5 2.7 7.8 3.65 7.25 4.5 6.2 6.1 6.2 6.5 L6.2 6.8 6.1 7.9 Q5.85 8.5 5.75 9.1 L5.65 9.5 Q5.55 9.95 5.5 10.4 5.4 11.15 5.1 11.85 L5.0 12.1 5.0 12.15 4.75 12.6 4.7 12.7 4.5 13.0 4.15 13.45 4.15 13.5 2.95 14.6 2.9 14.6 Q3.1 14.05 3.4 13.3 L4.1 11.5 0.85 15.6 Q-0.55 16.1 -2.05 16.3 L-2.4 16.35 -4.35 14.8 Q-1.95 15.9 0.55 15.05 -3.0 13.9 -6.1 11.9 L-6.0 11.95 Q-5.8 13.6 -5.25 15.65 L-5.15 16.05 Q-5.8 15.75 -6.05 15.15 -6.25 14.55 -6.35 13.95 -6.55 13.1 -6.8 12.25 L-6.85 11.8 -6.8 11.85 -6.7 11.65 -6.85 11.45 -6.9 11.35 -6.9 11.05 -6.85 11.0 -6.8 10.8 -6.95 10.7 -6.95 10.6 Q-7.0 10.55 -7.05 10.55 L-7.25 10.3 Q-7.4 10.1 -7.55 10.0 L-8.1 9.25 Q-8.55 8.65 -9.05 8.05 L-9.25 7.75 -10.05 5.9 -10.6 4.5 -10.75 4.0 -10.75 3.75 Q-10.75 3.45 -10.8 3.15 -11.05 1.2 -10.7 -0.65 -10.45 -1.95 -9.95 -2.7 L-9.65 -3.25 Q-8.95 -4.4 -8.05 -5.35 L-8.15 -4.4 -8.3 -3.35 -8.1 -0.85 Q-8.1 0.15 -6.7 5.3 -6.6 5.5 -6.2 6.8 -5.95 7.75 -5.65 8.35 -5.4 8.9 -5.05 9.3 -1.0 9.2 2.95 7.9 L2.8 7.8 Q3.95 7.8 4.95 7.4 L5.0 6.6 5.0 6.5 4.9 6.55 5.0 6.3 Q4.8 6.35 3.8 6.75 L3.7 6.8 3.55 6.9 Q2.45 7.35 1.35 7.7 L-4.9 7.8 Q-3.55 7.75 -2.25 7.45 -1.55 7.3 -0.85 7.05 L-0.35 6.85 Q2.2 6.3 3.25 5.95 3.65 5.8 4.15 5.4 L4.55 5.35 Q5.15 5.0 5.7 4.4 L6.6 3.25 Q7.25 2.45 7.55 2.1 8.4 1.2 9.05 -0.1 L10.2 -2.35 10.55 -3.0 M5.25 7.45 L3.4 8.65 -0.3 10.45 0.1 10.75 Q1.8 11.5 3.6 10.9 3.95 10.75 4.25 10.55 L4.55 9.65 5.2 7.85 5.25 7.45 M0.2 12.3 L0.3 12.35 Q1.5 12.7 2.65 12.05 L1.8 11.8 2.0 11.8 0.35 11.4 -0.65 11.15 -2.95 10.45 Q-4.6 10.0 -5.95 10.2 -5.75 10.2 -5.45 10.3 L-5.75 10.25 -4.85 11.2 -4.2 11.75 Q-3.7 12.1 -2.3 12.1 L0.2 12.3" fill="#506060" fill-rule="evenodd" stroke="none"/>
    <path d="M6.05 -9.45 L6.45 -9.45 Q9.05 -9.45 10.5 -7.25 10.75 -6.85 11.0 -6.55 11.7 -5.7 11.75 -4.6 11.75 -3.45 11.55 -2.3 L11.25 -0.85 10.35 0.7 Q7.65 5.5 7.6 6.0 7.4 6.35 7.3 6.75 7.2 7.15 7.2 7.8 L6.6 9.55 6.45 10.35 Q6.2 11.5 5.75 12.4 L5.5 13.3 Q5.4 13.65 5.2 14.0 L3.95 15.9 Q3.65 16.3 3.25 16.55 1.95 17.45 0.4 17.75 -1.0 18.1 -2.5 17.95 -5.15 17.7 -7.0 15.8 -7.5 15.35 -7.7 14.75 -8.05 13.7 -8.05 12.55 -8.0 11.55 -8.5 10.6 L-8.55 10.6 -8.7 10.45 Q-9.05 9.7 -10.75 7.45 L-11.3 6.7 -11.8 3.7 -12.3 1.15 -12.25 0.85 Q-12.05 -0.45 -12.05 -0.7 L-12.05 -0.75 -11.9 -1.3 -11.8 -1.65 Q-10.65 -3.8 -8.85 -6.05 L-7.75 -7.35 -7.2 -7.9 -5.9 -8.65 Q-5.5 -8.9 -5.2 -8.95 -4.6 -9.3 -3.9 -9.55 -3.15 -9.8 -2.4 -9.9 L-1.65 -9.95 -0.4 -10.05 Q0.65 -10.05 1.75 -10.05 L2.6 -10.0 2.8 -10.0 Q4.5 -9.9 6.05 -9.45 M8.95 -7.5 L8.5 -7.9 8.4 -7.75 8.4 -7.95 7.05 -8.45 Q6.5 -8.6 5.95 -8.7 L4.25 -8.9 Q1.0 -9.25 -2.2 -8.65 L-2.35 -8.75 Q-3.6 -8.4 -4.75 -7.8 -6.65 -6.85 -8.05 -5.35 -8.95 -4.4 -9.65 -3.25 L-9.95 -2.7 Q-10.45 -1.95 -10.7 -0.65 -11.05 1.2 -10.8 3.15 -10.75 3.45 -10.75 3.75 L-10.75 4.0 -10.6 4.5 -10.55 4.85 Q-10.4 5.4 -10.35 5.75 L-10.15 6.1 -9.3 7.7 -9.25 7.75 -9.05 8.05 Q-8.55 8.65 -8.1 9.25 L-7.55 10.0 Q-7.4 10.1 -7.25 10.3 L-7.05 10.55 Q-7.0 10.55 -6.95 10.6 L-6.95 10.7 -6.8 10.8 -6.85 11.0 -6.9 11.05 -6.9 11.35 -6.85 11.45 -6.7 11.65 -6.8 11.85 -6.85 11.8 -6.8 12.25 Q-6.55 13.1 -6.35 13.95 -6.25 14.55 -6.05 15.15 -5.8 15.75 -5.15 16.05 L-5.1 16.05 Q-4.7 16.25 -4.25 16.3 -3.35 16.45 -2.4 16.35 L-2.05 16.3 Q-0.55 16.1 0.85 15.6 L1.95 15.15 Q2.45 14.9 2.9 14.6 L2.95 14.6 4.15 13.5 4.15 13.45 4.5 13.0 4.7 12.7 4.75 12.6 5.0 12.15 5.0 12.1 5.1 11.85 Q5.4 11.15 5.5 10.4 5.55 9.95 5.65 9.5 L5.75 9.1 Q5.85 8.5 6.1 7.9 L6.2 6.8 6.2 6.5 Q6.2 6.1 7.25 4.5 7.8 3.65 8.5 2.7 8.85 2.1 9.4 0.8 9.9 -0.4 10.2 -0.85 L10.2 -0.8 Q10.45 -1.9 10.55 -3.0 10.65 -3.95 10.65 -4.9 L10.7 -5.2 Q10.1 -6.4 9.2 -7.25 L8.95 -7.5" fill="#111111" fill-rule="evenodd" stroke="none"/>
  </g>
</svg>
