<?xml version="1.0" encoding="UTF-8" standalone="no"?>
<svg xmlns:ffdec="https://www.free-decompiler.com/flash" xmlns:xlink="http://www.w3.org/1999/xlink" ffdec:objectType="shape" height="11.85px" width="19.25px" xmlns="http://www.w3.org/2000/svg">
  <g transform="matrix(1.0, 0.0, 0.0, 1.0, 8.8, 6.35)">
    <path d="M4.85 -3.4 L3.85 -2.95 0.45 -1.75 Q-1.55 -1.1 -3.6 -0.7 -5.15 -0.35 -6.6 -0.3 -4.6 0.2 -2.55 0.45 L-1.85 0.55 -0.3 0.5 4.35 0.4 4.4 0.4 5.85 0.35 7.6 0.3 Q8.0 0.15 8.4 0.0 L9.15 -0.55 Q9.25 -1.0 9.2 -1.45 L9.1 -1.95 9.05 -2.0 Q8.8 -2.85 8.65 -3.75 8.55 -4.35 8.5 -5.0 L8.5 -5.05 8.1 -5.0 7.9 -4.85 Q7.55 -4.55 7.25 -4.6 L7.05 -4.45 6.9 -4.35 Q6.55 -4.05 6.3 -4.05 L5.1 -3.5 4.85 -3.4 M9.15 -6.1 L9.25 -5.9 9.55 -5.7 9.65 -5.6 9.6 -5.25 Q10.2 -4.35 10.4 -2.95 10.6 -1.5 10.2 -0.6 10.25 -0.25 10.2 0.05 10.05 1.55 8.1 1.25 7.75 1.4 7.35 1.5 L6.95 1.75 Q4.25 4.05 0.1 5.0 -3.55 5.9 -6.4 5.25 L-6.35 5.05 Q-6.65 5.0 -6.95 4.8 L-7.65 4.55 -7.2 4.6 -7.3 4.5 Q-8.4 3.85 -8.45 1.95 -8.7 0.8 -8.6 -0.35 L-8.8 -0.5 -8.55 -0.45 -8.55 -0.65 Q-7.55 -1.2 -6.25 -1.1 L-5.8 -1.1 Q-5.8 -0.95 -5.85 -0.85 L-5.4 -0.95 Q-1.0 -2.25 3.65 -3.7 5.1 -4.2 6.5 -4.8 L6.75 -5.05 Q6.75 -5.4 7.0 -5.6 7.65 -6.2 8.45 -6.35 8.8 -6.15 9.1 -5.9 L9.15 -6.1 M4.9 1.8 Q5.7 1.55 4.65 1.45 L3.4 1.7 Q1.35 1.95 -0.8 1.75 -4.35 1.5 -6.95 0.45 L-6.85 0.4 Q-6.75 0.15 -7.05 0.0 L-7.55 -0.15 -7.65 -0.1 Q-7.9 0.1 -7.65 0.25 -7.45 0.4 -7.25 0.45 -7.2 0.65 -7.4 0.7 L-7.55 0.5 -7.6 0.45 -7.6 0.55 -7.55 0.9 -7.45 1.35 -7.45 1.4 Q-7.3 2.4 -6.85 3.3 L-6.8 3.4 Q-4.85 3.95 -2.6 3.9 L-0.2 3.9 Q1.7 3.4 3.5 2.6 L3.8 2.45 4.7 1.9 4.9 1.8" fill="#1a1a1a" fill-rule="evenodd" stroke="none"/>
    <path d="M3.8 -2.2 L3.85 -2.2 4.55 -2.5 4.6 -2.5 5.1 -2.65 5.25 -2.7 6.45 -3.05 Q7.25 -3.25 8.0 -3.5 L8.65 -3.75 Q8.8 -2.85 9.05 -2.0 L9.1 -1.95 9.2 -1.45 Q5.0 -0.55 1.15 -0.95 2.4 -1.65 3.8 -2.2 M-7.55 0.5 L-7.4 0.7 Q-7.2 0.65 -7.25 0.45 -7.45 0.4 -7.65 0.25 -7.9 0.1 -7.65 -0.1 L-7.55 -0.15 -7.05 0.0 Q-6.75 0.15 -6.85 0.4 L-6.95 0.45 Q-4.35 1.5 -0.8 1.75 1.35 1.95 3.4 1.7 L4.65 1.45 Q5.7 1.55 4.9 1.8 L4.7 1.85 4.7 1.9 3.8 2.45 3.5 2.6 Q0.4 3.3 -3.35 2.3 -5.1 1.8 -6.75 1.2 -7.55 0.9 -7.55 0.5 M-6.85 3.3 Q-7.3 2.4 -7.45 1.4 L-7.45 1.35 -7.55 0.9 Q-6.15 1.6 -4.6 2.0 -3.1 2.45 -2.45 3.35 -4.35 4.1 -6.85 3.3" fill="#4a0048" fill-rule="evenodd" stroke="none"/>
    <path d="M5.25 -2.7 Q7.5 -3.55 8.35 -4.7 7.1 -4.3 5.8 -3.75 L4.85 -3.4 5.1 -3.5 6.3 -4.05 Q6.55 -4.05 6.9 -4.35 L7.05 -4.45 7.25 -4.6 Q7.55 -4.55 7.9 -4.85 L8.1 -5.0 8.5 -5.05 8.5 -5.0 Q8.55 -4.35 8.65 -3.75 L8.0 -3.5 Q7.25 -3.25 6.45 -3.05 L5.25 -2.7 M3.85 -2.95 Q2.2 -2.2 0.6 -1.35 2.1 -1.65 3.8 -2.2 2.4 -1.65 1.15 -0.95 5.0 -0.55 9.2 -1.45 9.25 -1.0 9.15 -0.55 L8.4 0.0 Q8.0 0.15 7.6 0.3 L5.85 0.35 Q6.9 0.25 7.95 -0.1 6.4 -0.8 4.65 -0.65 L1.3 -0.5 Q-0.35 -0.7 -2.0 -0.3 -2.1 -0.3 -2.15 -0.2 0.55 -0.1 3.45 0.3 L4.35 0.4 -0.3 0.5 -1.85 0.55 -2.55 0.45 Q-4.6 0.2 -6.6 -0.3 -5.15 -0.35 -3.6 -0.7 -1.55 -1.1 0.45 -1.75 L3.85 -2.95 M3.5 2.6 Q1.7 3.4 -0.2 3.9 L-2.6 3.9 Q-4.85 3.95 -6.8 3.4 L-6.85 3.3 Q-4.35 4.1 -2.45 3.35 -3.1 2.45 -4.6 2.0 -6.15 1.6 -7.55 0.9 L-7.6 0.55 -7.6 0.45 -7.55 0.5 Q-7.55 0.9 -6.75 1.2 -5.1 1.8 -3.35 2.3 0.4 3.3 3.5 2.6 M0.95 3.25 Q0.85 3.15 0.8 3.1 L-1.1 2.9 -1.45 2.85 Q-1.85 3.15 -1.4 3.3 -0.45 3.6 0.7 3.4 L0.85 3.35 0.95 3.25" fill="#660066" fill-rule="evenodd" stroke="none"/>
    <path d="M5.25 -2.7 L5.1 -2.65 4.6 -2.5 4.55 -2.5 3.85 -2.2 3.8 -2.2 Q2.1 -1.65 0.6 -1.35 2.2 -2.2 3.85 -2.95 L4.85 -3.4 5.8 -3.75 Q7.1 -4.3 8.35 -4.7 7.5 -3.55 5.25 -2.7 M4.35 0.4 L3.45 0.3 Q0.55 -0.1 -2.15 -0.2 -2.1 -0.3 -2.0 -0.3 -0.35 -0.7 1.3 -0.5 L4.65 -0.65 Q6.4 -0.8 7.95 -0.1 6.9 0.25 5.85 0.35 L4.4 0.4 4.35 0.4 M0.95 3.25 L0.85 3.35 0.7 3.4 Q-0.45 3.6 -1.4 3.3 -1.85 3.15 -1.45 2.85 L-1.1 2.9 0.8 3.1 Q0.85 3.15 0.95 3.25" fill="#850081" fill-rule="evenodd" stroke="none"/>
  </g>
</svg>
