<?xml version="1.0" encoding="UTF-8" standalone="no"?>
<svg xmlns:ffdec="https://www.free-decompiler.com/flash" xmlns:xlink="http://www.w3.org/1999/xlink" ffdec:objectType="shape" height="26.2px" width="8.35px" xmlns="http://www.w3.org/2000/svg">
  <g transform="matrix(1.0, 0.0, 0.0, 1.0, 4.25, 13.4)">
    <path d="M-2.35 -9.1 L-2.3 -9.25 -2.4 -8.5 Q-2.4 -5.75 -1.1 -3.1 L-0.2 -1.35 Q0.2 -0.5 0.2 0.0 L0.15 1.2 0.05 2.55 0.05 2.95 -0.1 3.05 -1.55 -0.55 -1.95 0.7 Q-2.3 1.8 -2.45 2.8 L-1.65 4.9 Q-0.3 8.35 0.75 9.95 0.3 9.8 -0.4 9.2 -1.15 8.5 -1.8 7.65 L-2.0 8.8 -2.05 8.65 -2.4 7.65 Q-3.15 5.2 -3.15 1.15 L-3.15 0.0 -3.1 -0.25 -3.1 -0.6 -3.05 -1.65 -3.05 -1.75 -3.0 -2.45 -3.0 -2.6 -2.0 -1.85 -2.0 -1.8 -1.15 -1.25 Q-2.15 -2.9 -2.5 -4.75 L-2.65 -5.7 Q-2.8 -6.95 -2.6 -8.0 L-2.35 -9.1 M0.05 -7.15 Q-0.15 -8.5 1.1 -10.15 1.85 -7.4 0.85 -4.05 0.25 -5.8 0.05 -7.15" fill="#506060" fill-rule="evenodd" stroke="none"/>
    <path d="M-2.0 8.8 L-1.8 7.65 Q-1.15 8.5 -0.4 9.2 0.3 9.8 0.75 9.95 -0.3 8.35 -1.65 4.9 L-2.45 2.8 Q-2.3 1.8 -1.95 0.7 L-1.55 -0.55 -0.1 3.05 0.05 2.95 0.05 2.55 0.15 1.2 0.2 0.0 Q0.2 -0.5 -0.2 -1.35 L-1.1 -3.1 Q-2.4 -5.75 -2.4 -8.5 L-2.3 -9.25 -2.35 -9.1 Q-1.35 -12.0 2.55 -13.05 L2.95 -9.8 Q3.3 -6.85 1.85 -3.1 3.05 -1.45 2.1 4.15 1.8 6.0 1.65 7.2 L1.65 7.1 1.1 6.55 Q0.45 6.05 0.0 5.8 -0.25 5.55 -0.45 5.45 L-0.45 5.6 -0.55 5.75 -0.3 6.0 0.45 7.7 Q0.95 8.75 1.3 9.35 1.6 10.15 1.95 10.4 L2.0 10.15 Q1.95 10.75 0.25 12.6 0.1 12.7 -1.75 9.3 L-2.0 8.8 M0.05 -7.15 Q0.25 -5.8 0.85 -4.05 1.85 -7.4 1.1 -10.15 -0.15 -8.5 0.05 -7.15" fill="#304040" fill-rule="evenodd" stroke="none"/>
    <path d="M-2.0 8.8 L-1.75 9.3 Q0.1 12.7 0.25 12.6 1.95 10.75 2.0 10.15 L1.95 10.4 Q1.6 10.15 1.3 9.35 0.95 8.75 0.45 7.7 L-0.3 6.0 -0.55 5.75 -0.45 5.6 -0.45 5.45 Q-0.25 5.55 0.0 5.8 0.45 6.05 1.1 6.55 L1.65 7.1 1.65 7.2 Q1.8 6.0 2.1 4.15 3.05 -1.45 1.85 -3.1 3.3 -6.85 2.95 -9.8 L2.55 -13.05 Q-1.35 -12.0 -2.35 -9.1 L-2.6 -8.0 Q-2.8 -6.95 -2.65 -5.7 L-2.5 -4.75 Q-2.15 -2.9 -1.15 -1.25 L-2.0 -1.8 -2.0 -1.85 -3.0 -2.6 -3.0 -2.45 -3.05 -1.75 -3.05 -1.65 -3.1 -0.6 -3.1 -0.25 -3.15 0.0 -3.15 1.15 Q-3.15 5.2 -2.4 7.65 L-2.05 8.65 -2.0 8.8 M-4.2 -6.25 Q-3.6 -12.65 2.55 -13.4 L3.0 -13.1 2.75 -13.05 Q5.5 -8.45 2.6 -3.5 4.65 2.25 1.95 7.45 3.9 11.45 0.25 12.65 -2.05 13.4 -2.55 11.05 -4.2 3.5 -4.25 -4.25 -4.25 -5.25 -4.2 -6.25" fill="#111111" fill-rule="evenodd" stroke="none"/>
  </g>
</svg>
