<?xml version="1.0" encoding="UTF-8" standalone="no"?>
<svg xmlns:ffdec="https://www.free-decompiler.com/flash" xmlns:xlink="http://www.w3.org/1999/xlink" ffdec:objectType="shape" height="2.95px" width="6.2px" xmlns="http://www.w3.org/2000/svg">
  <g transform="matrix(1.0, 0.0, 0.0, 1.0, 3.05, 1.9)">
    <path d="M-0.05 0.15 L-0.1 0.15 -0.05 0.25 Q-0.05 0.4 -0.1 0.55 -0.25 0.8 -0.4 0.8 -0.5 0.8 -0.6 0.7 L-0.6 0.65 -0.55 0.35 Q-0.45 0.15 -0.3 0.15 L-0.1 0.15 -0.1 0.1 -0.05 0.15 M-0.5 0.5 L-0.25 0.35 Q-0.3 0.25 -0.4 0.3 -0.5 0.4 -0.5 0.45 L-0.5 0.5 M-0.35 0.65 Q-0.25 0.65 -0.15 0.5 -0.15 0.35 -0.25 0.35 -0.2 0.4 -0.35 0.45 L-0.45 0.55 Q-0.45 0.65 -0.35 0.65" fill="#ffff99" fill-rule="evenodd" stroke="none"/>
    <path d="M-1.0 -1.0 L-1.0 -0.95 -1.0 -1.0 M-1.0 -0.85 L-0.95 -0.75 -0.9 -0.7 -0.9 -0.55 Q-0.8 -0.45 -0.8 -0.4 L-0.75 -0.3 -0.65 -0.2 -0.55 -0.1 Q-0.65 -0.1 -0.7 -0.15 L-0.8 -0.25 Q-0.95 -0.35 -0.95 -0.4 L-0.95 -0.45 -1.0 -0.5 -1.0 -0.55 -1.05 -0.65 -1.05 -0.7 Q-1.05 -0.8 -1.25 -1.0 L-1.1 -1.15 -1.1 -1.1 -1.05 -1.1 -1.05 -0.7 -1.0 -0.55 -0.95 -0.45 -0.85 -0.3 -0.8 -0.25 -0.8 -0.3 -0.85 -0.3 -0.85 -0.4 -0.95 -0.6 -1.0 -0.8 -1.0 -0.85 M1.1 -0.4 L1.05 -0.4 1.2 -0.5 1.25 -0.55 1.4 -0.65 1.6 -0.9 1.7 -1.15 1.75 -1.2 1.9 -1.05 1.9 -1.0 1.75 -0.9 1.65 -0.8 1.55 -0.75 1.5 -0.7 1.25 -0.55 1.25 -0.5 1.1 -0.4 M1.25 -1.2 L1.25 -1.1 1.1 -0.95 1.0 -0.9 0.6 -0.45 0.45 -0.35 0.1 0.0 0.0 0.05 Q-0.1 0.0 -0.2 0.0 L-0.35 0.0 -0.4 -0.2 -0.45 -0.25 -0.6 -0.7 -0.6 -1.0 Q-0.5 -1.15 0.15 -1.3 0.85 -1.45 1.15 -1.3 L1.2 -1.3 1.25 -1.2 M0.15 0.25 L0.3 0.2 0.5 0.15 0.7 0.05 0.75 0.0 0.95 -0.05 1.1 -0.2 1.15 -0.2 1.2 -0.3 Q1.35 -0.4 1.4 -0.45 L1.6 -0.5 1.75 -0.6 2.0 -0.75 Q2.05 -0.75 2.15 -0.85 L2.2 -0.85 2.0 -0.65 1.75 -0.5 1.3 -0.2 1.2 -0.1 1.0 -0.05 0.75 0.1 0.4 0.25 0.15 0.35 0.15 0.25 M0.25 0.45 L0.25 0.4 0.65 0.3 0.8 0.2 1.05 0.15 1.3 0.05 1.45 -0.05 1.65 -0.1 1.85 -0.2 Q1.9 -0.25 2.05 -0.35 L2.25 -0.4 2.45 -0.4 2.55 -0.45 2.8 -0.45 2.8 -0.35 2.6 -0.35 2.55 -0.3 2.35 -0.25 2.3 -0.25 2.25 -0.25 2.15 -0.2 2.1 -0.2 2.05 -0.15 1.6 0.0 1.55 0.05 Q1.4 0.1 1.25 0.15 L1.05 0.25 0.95 0.25 0.9 0.3 0.85 0.3 0.6 0.35 0.15 0.5 0.15 0.45 0.25 0.45 M3.0 -0.1 L3.05 -0.05 2.9 0.0 2.85 0.0 2.6 0.05 2.55 0.1 2.4 0.15 1.8 0.3 Q1.75 0.3 1.55 0.4 L1.45 0.4 1.2 0.5 1.1 0.5 1.05 0.55 0.85 0.65 0.65 0.7 0.6 0.7 0.5 0.75 0.35 0.75 0.25 0.8 -0.05 0.8 0.05 0.7 0.05 0.65 0.15 0.65 1.1 0.45 1.45 0.35 1.65 0.25 Q1.7 0.2 1.75 0.2 L1.95 0.15 2.1 0.1 2.2 0.05 2.4 0.0 2.6 0.0 2.7 -0.05 2.85 -0.05 3.0 -0.1 M1.85 0.35 L2.5 0.15 2.55 0.15 2.85 0.1 2.6 0.35 2.4 0.45 2.4 0.5 2.35 0.5 Q2.15 0.6 1.9 0.65 L1.85 0.65 1.55 0.75 1.45 0.8 1.4 0.8 0.9 0.9 0.4 0.9 0.25 0.95 0.0 0.95 -0.05 0.9 0.15 0.9 0.25 0.85 0.5 0.8 0.7 0.75 0.75 0.75 1.05 0.65 1.15 0.6 1.0 0.65 1.35 0.65 1.65 0.6 Q1.9 0.6 2.3 0.4 L2.55 0.3 2.65 0.2 2.55 0.2 2.35 0.3 2.15 0.3 1.85 0.35 M-2.95 0.2 L-2.8 0.25 -2.7 0.2 -2.7 0.25 -2.65 0.2 -2.05 0.2 Q-2.2 0.2 -2.65 0.3 L-2.45 0.35 -1.85 0.3 -1.8 0.3 Q-1.5 0.3 -0.75 0.55 L-0.75 0.6 -0.8 0.6 -0.9 0.55 -1.0 0.55 -1.05 0.5 -1.3 0.5 -1.5 0.45 Q-1.75 0.4 -2.3 0.45 L-2.6 0.5 -2.85 0.55 -2.95 0.4 -2.95 0.2 M-2.4 -0.4 L-1.9 -0.15 -1.3 0.05 -1.4 0.05 -1.5 -0.1 -1.4 -0.05 -1.3 0.05 -1.2 0.1 -1.0 0.25 -0.9 0.3 -1.05 0.3 -1.2 0.15 Q-1.3 0.1 -1.5 0.1 L-1.85 -0.05 Q-1.9 -0.05 -2.15 -0.15 L-1.75 -0.05 -1.65 0.0 -1.3 0.15 -1.3 0.1 -1.85 -0.1 -2.0 -0.15 -2.35 -0.25 -2.4 -0.25 -2.45 -0.3 -2.5 -0.3 -2.5 -0.35 -2.45 -0.4 -2.4 -0.4 M-2.4 -0.2 L-2.25 -0.2 -2.4 -0.2 M-1.9 -0.6 Q-1.85 -0.5 -1.7 -0.4 L-1.6 -0.3 -1.6 -0.35 -1.65 -0.45 -1.7 -0.5 -1.75 -0.6 -1.75 -0.7 -1.7 -0.65 -1.7 -0.6 -1.55 -0.4 -1.4 -0.25 -1.2 -0.1 -0.95 0.1 -0.8 0.2 Q-0.75 0.2 -0.65 0.25 L-0.7 0.35 -1.45 -0.2 -1.7 -0.3 -1.85 -0.45 -1.95 -0.45 -1.95 -0.5 -1.9 -0.5 -1.9 -0.6 M-1.15 0.6 L-0.95 0.6 -0.75 0.65 -0.7 0.8 -0.7 0.85 -0.75 0.8 -1.0 0.8 -1.1 0.75 -1.15 0.75 -1.85 0.7 -1.9 0.7 -2.1 0.65 -2.35 0.65 -2.45 0.6 -2.35 0.55 -2.15 0.55 -1.25 0.7 -1.2 0.7 -0.9 0.75 -0.75 0.75 -1.05 0.6 -1.15 0.6" fill="#262626" fill-rule="evenodd" stroke="none"/>
    <path d="M-0.6 0.7 L-0.65 0.7 -0.65 0.5 Q-0.65 0.35 -0.55 0.3 L-0.45 0.2 Q-0.4 0.1 -0.25 0.1 L-0.1 0.1 -0.1 0.15 -0.3 0.15 Q-0.45 0.15 -0.55 0.35 L-0.6 0.65 -0.6 0.7 M-0.5 0.5 L-0.5 0.45 Q-0.5 0.4 -0.4 0.3 -0.3 0.25 -0.25 0.35 L-0.5 0.5" fill="#ffffcc" fill-rule="evenodd" stroke="none"/>
    <path d="M0.0 0.25 L0.0 0.5 Q0.0 0.6 -0.05 0.7 L-0.2 0.85 -0.4 0.9 -0.45 0.9 Q-0.5 0.9 -0.6 0.8 L-0.6 0.75 -0.65 0.7 -0.6 0.7 Q-0.5 0.8 -0.4 0.8 -0.25 0.8 -0.1 0.55 -0.05 0.4 -0.05 0.25 L-0.1 0.15 -0.05 0.15 -0.05 0.2 0.0 0.25 M-0.35 0.65 Q-0.45 0.65 -0.45 0.55 L-0.35 0.45 Q-0.2 0.4 -0.25 0.35 -0.15 0.35 -0.15 0.5 -0.25 0.65 -0.35 0.65" fill="#cccc70" fill-rule="evenodd" stroke="none"/>
    <path d="M-1.0 -1.0 L-1.05 -1.1 -1.05 -1.3 -0.85 -1.5 -0.75 -1.5 -0.3 -1.65 -0.25 -1.7 0.0 -1.75 0.75 -1.75 1.25 -1.7 1.35 -1.65 1.4 -1.6 1.75 -1.2 1.7 -1.15 1.6 -0.9 1.4 -0.65 1.25 -0.55 1.2 -0.5 1.05 -0.4 1.1 -0.4 0.85 -0.25 0.75 -0.25 0.45 -0.05 0.4 -0.05 0.25 0.05 0.15 0.05 0.5 -0.3 0.6 -0.35 0.75 -0.5 1.0 -0.7 1.0 -0.75 1.1 -0.8 1.15 -0.9 1.25 -0.95 1.5 -1.2 1.5 -1.45 1.45 -1.45 1.45 -1.3 Q1.4 -1.2 1.35 -1.2 L1.25 -1.3 1.15 -1.35 1.1 -1.4 0.65 -1.45 0.6 -1.45 0.0 -1.35 -0.35 -1.2 -0.65 -1.05 -0.65 -0.6 -0.55 -0.4 -0.55 -0.35 -0.6 -0.35 -0.6 -0.4 -0.7 -0.45 -0.75 -0.55 -0.85 -0.95 -0.85 -1.15 -0.8 -1.25 -0.75 -1.4 -0.85 -1.3 -0.85 -1.25 -0.9 -1.2 Q-0.95 -1.05 -0.85 -0.75 L-0.8 -0.6 Q-0.8 -0.4 -0.7 -0.35 L-0.65 -0.25 -0.65 -0.2 -0.75 -0.3 -0.8 -0.4 Q-0.8 -0.45 -0.9 -0.55 L-0.9 -0.7 -0.95 -0.75 -1.0 -0.85 -1.0 -0.95 -1.0 -1.0 M0.15 0.25 L0.1 0.15 0.55 0.0 0.65 -0.05 1.1 -0.4 1.6 -0.7 1.65 -0.75 2.0 -1.0 2.1 -1.05 2.15 -1.1 2.25 -1.0 2.3 -0.9 2.35 -0.85 2.4 -0.75 2.4 -0.7 2.3 -0.7 2.0 -0.55 1.9 -0.45 1.6 -0.3 1.45 -0.25 1.25 -0.15 1.2 -0.1 1.3 -0.2 1.75 -0.5 2.0 -0.65 2.2 -0.85 2.15 -0.85 Q2.05 -0.75 2.0 -0.75 L1.75 -0.6 1.6 -0.5 1.4 -0.45 Q1.35 -0.4 1.2 -0.3 L1.15 -0.2 1.1 -0.2 0.95 -0.05 0.75 0.0 0.7 0.05 0.5 0.15 0.3 0.2 0.15 0.25 M0.25 0.45 L0.25 0.4 0.5 0.25 0.95 0.1 1.05 0.05 1.3 -0.05 1.45 -0.15 1.6 -0.2 2.3 -0.55 2.45 -0.6 2.65 -0.65 2.7 -0.65 2.8 -0.5 2.8 -0.45 2.55 -0.45 2.45 -0.4 2.25 -0.4 2.05 -0.35 Q1.9 -0.25 1.85 -0.2 L1.65 -0.1 1.45 -0.05 1.3 0.05 1.05 0.15 0.8 0.2 0.65 0.3 0.25 0.4 0.25 0.45 M2.3 -0.25 L2.65 -0.3 2.8 -0.3 2.9 -0.25 3.0 -0.1 2.85 -0.05 2.7 -0.05 2.6 0.0 2.4 0.0 2.2 0.05 2.1 0.1 1.95 0.15 1.75 0.2 Q1.7 0.2 1.65 0.25 L1.45 0.35 1.1 0.45 0.15 0.65 0.05 0.65 0.1 0.65 0.25 0.55 0.4 0.5 0.9 0.35 0.95 0.3 1.05 0.3 1.5 0.1 1.6 0.05 1.9 -0.05 2.2 -0.2 2.1 -0.2 2.15 -0.2 2.25 -0.25 2.3 -0.25 M1.85 0.35 L2.15 0.3 2.35 0.3 2.55 0.2 2.65 0.2 2.55 0.3 2.3 0.4 Q1.9 0.6 1.65 0.6 L1.35 0.65 1.0 0.65 1.15 0.6 1.05 0.65 1.45 0.5 1.5 0.5 1.75 0.4 1.85 0.35 M-2.95 0.2 L-2.9 0.1 -2.9 0.05 -2.85 0.0 -2.75 -0.05 -2.7 -0.1 -2.5 -0.05 -2.45 -0.05 -2.25 0.0 -1.9 0.05 -1.55 0.15 -1.45 0.2 -1.3 0.25 -1.1 0.3 -1.0 0.35 -0.8 0.4 -0.75 0.45 -0.75 0.55 Q-1.5 0.3 -1.8 0.3 L-1.85 0.3 -2.45 0.35 -2.65 0.3 Q-2.2 0.2 -2.05 0.2 L-2.65 0.2 -2.7 0.25 -2.7 0.2 -2.8 0.25 -2.95 0.2 M-2.4 -0.4 L-2.3 -0.45 -2.0 -0.4 -1.9 -0.35 -1.6 -0.15 -1.5 -0.1 -1.4 0.05 -1.3 0.05 -1.9 -0.15 -2.4 -0.4 M-1.05 0.3 L-1.15 0.25 -1.25 0.25 -1.6 0.1 -2.3 -0.1 -2.45 -0.15 -2.55 -0.2 -2.4 -0.2 -2.25 -0.2 -2.2 -0.15 -2.15 -0.15 Q-1.9 -0.05 -1.85 -0.05 L-1.5 0.1 Q-1.3 0.1 -1.2 0.15 L-1.05 0.3 M-0.7 -0.15 L-0.55 -0.05 -0.5 -0.05 -0.5 0.1 -0.55 0.05 -0.65 0.0 -0.9 -0.1 -1.15 -0.25 -1.3 -0.4 -1.45 -0.85 -1.35 -0.9 -1.25 -1.0 Q-1.05 -0.8 -1.05 -0.7 L-1.05 -0.65 -1.0 -0.55 -1.0 -0.5 -0.95 -0.45 -0.95 -0.4 Q-0.95 -0.35 -0.8 -0.25 L-0.7 -0.15 M-1.9 -0.6 L-1.6 -0.9 -1.6 -0.85 -1.55 -0.7 -1.4 -0.45 -1.0 -0.05 -0.85 0.0 -0.85 0.05 -0.8 0.05 -0.65 0.1 -0.55 0.15 -0.65 0.25 Q-0.75 0.2 -0.8 0.2 L-0.95 0.1 -1.2 -0.1 -1.4 -0.25 -1.55 -0.4 -1.7 -0.6 -1.7 -0.65 -1.75 -0.7 -1.75 -0.6 -1.7 -0.5 -1.65 -0.45 -1.6 -0.35 -1.6 -0.3 -1.7 -0.4 Q-1.85 -0.5 -1.9 -0.6 M-2.15 0.55 L-2.05 0.5 -1.8 0.5 -1.4 0.55 -1.15 0.6 -1.05 0.6 -0.75 0.75 -0.9 0.75 -1.2 0.7 -1.25 0.7 -2.15 0.55" fill="#363636" fill-rule="evenodd" stroke="none"/>
    <path d="M0.8 -1.9 L1.25 -1.8 1.35 -1.75 1.45 -1.75 1.55 -1.65 Q1.65 -1.5 1.75 -1.35 L2.0 -1.2 2.05 -1.15 2.05 -1.2 2.1 -1.2 2.2 -1.25 2.3 -1.05 2.4 -0.95 2.4 -0.9 2.5 -0.8 2.5 -0.75 2.55 -0.7 2.6 -0.75 2.7 -0.75 2.75 -0.7 2.8 -0.6 2.9 -0.45 2.9 -0.35 2.95 -0.35 Q3.05 -0.3 3.1 -0.15 L3.15 -0.1 3.15 0.0 Q3.15 0.05 3.1 0.05 L3.05 0.05 3.05 0.1 2.95 0.2 2.8 0.3 2.6 0.45 2.4 0.55 Q2.25 0.7 2.0 0.75 L1.95 0.75 1.5 0.85 1.4 0.9 0.55 1.0 0.5 1.0 0.45 1.05 0.1 1.05 -0.2 0.95 -0.45 1.0 Q-0.55 1.0 -0.6 0.95 L-0.7 0.9 -0.9 0.95 -1.1 0.9 -1.15 0.85 -1.25 0.85 -1.45 0.8 -1.7 0.8 -2.1 0.75 -2.35 0.75 -2.45 0.7 -2.5 0.65 -2.6 0.65 -2.7 0.6 -2.95 0.6 Q-3.05 0.55 -3.05 0.45 L-3.05 0.3 Q-3.1 0.2 -3.05 0.15 L-3.05 0.1 -2.8 -0.15 Q-2.8 -0.2 -2.65 -0.2 L-2.6 -0.25 -2.55 -0.35 -2.45 -0.5 -2.1 -0.5 -1.85 -0.75 -1.85 -0.8 Q-1.75 -0.95 -1.65 -1.0 L-1.55 -1.0 -1.5 -0.95 -1.4 -1.0 -1.15 -1.25 -1.15 -1.3 -1.1 -1.3 -1.15 -1.35 -1.0 -1.5 Q-0.95 -1.55 -0.9 -1.55 L-0.85 -1.6 -0.55 -1.7 -0.5 -1.7 -0.45 -1.75 Q0.0 -1.85 0.45 -1.85 L0.8 -1.9 M1.75 -1.2 L1.4 -1.6 1.35 -1.65 1.25 -1.7 0.75 -1.75 0.0 -1.75 -0.25 -1.7 -0.3 -1.65 -0.75 -1.5 -0.85 -1.5 -1.05 -1.3 -1.05 -1.1 -1.0 -1.0 -1.0 -0.95 -1.0 -0.85 -1.0 -0.8 -0.95 -0.6 -0.85 -0.4 -0.85 -0.3 -0.8 -0.3 -0.8 -0.25 -0.85 -0.3 -0.95 -0.45 -1.0 -0.55 -1.05 -0.7 -1.05 -1.1 -1.1 -1.1 -1.1 -1.15 -1.25 -1.0 -1.35 -0.9 -1.45 -0.85 -1.3 -0.4 -1.15 -0.25 -0.9 -0.1 -0.65 0.0 -0.55 0.05 -0.5 0.1 -0.5 -0.05 -0.55 -0.05 -0.7 -0.15 Q-0.65 -0.1 -0.55 -0.1 L-0.65 -0.2 -0.65 -0.25 -0.7 -0.35 Q-0.8 -0.4 -0.8 -0.6 L-0.85 -0.75 Q-0.95 -1.05 -0.9 -1.2 L-0.85 -1.25 -0.85 -1.3 -0.75 -1.4 -0.8 -1.25 -0.85 -1.15 -0.85 -0.95 -0.75 -0.55 -0.7 -0.45 -0.6 -0.4 -0.6 -0.35 -0.55 -0.35 -0.55 -0.4 -0.65 -0.6 -0.65 -1.05 -0.35 -1.2 0.0 -1.35 0.6 -1.45 0.65 -1.45 1.1 -1.4 1.15 -1.35 1.25 -1.3 1.35 -1.2 Q1.4 -1.2 1.45 -1.3 L1.45 -1.45 1.5 -1.45 1.5 -1.2 1.25 -0.95 1.15 -0.9 1.1 -0.8 1.0 -0.75 1.0 -0.7 0.75 -0.5 0.6 -0.35 0.5 -0.3 0.15 0.05 0.25 0.05 0.4 -0.05 0.45 -0.05 0.75 -0.25 0.85 -0.25 1.1 -0.4 1.25 -0.5 1.25 -0.55 1.5 -0.7 1.55 -0.75 1.65 -0.8 1.75 -0.9 1.9 -1.0 1.9 -1.05 1.75 -1.2 M1.25 -1.2 L1.2 -1.3 1.15 -1.3 Q0.85 -1.45 0.15 -1.3 -0.5 -1.15 -0.6 -1.0 L-0.6 -0.7 -0.45 -0.25 -0.4 -0.2 -0.35 0.0 -0.2 0.0 Q-0.1 0.0 0.0 0.05 L0.1 0.0 0.45 -0.35 0.6 -0.45 1.0 -0.9 1.1 -0.95 1.25 -1.1 1.25 -1.2 M1.2 -0.1 L1.25 -0.15 1.45 -0.25 1.6 -0.3 1.9 -0.45 2.0 -0.55 2.3 -0.7 2.4 -0.7 2.4 -0.75 2.35 -0.85 2.3 -0.9 2.25 -1.0 2.15 -1.1 2.1 -1.05 2.0 -1.0 1.65 -0.75 1.6 -0.7 1.1 -0.4 0.65 -0.05 0.55 0.0 0.1 0.15 0.15 0.25 0.15 0.35 0.4 0.25 0.75 0.1 1.0 -0.05 1.2 -0.1 M2.8 -0.45 L2.8 -0.5 2.7 -0.65 2.65 -0.65 2.45 -0.6 2.3 -0.55 1.6 -0.2 1.45 -0.15 1.3 -0.05 1.05 0.05 0.95 0.1 0.5 0.25 0.25 0.4 0.25 0.45 0.15 0.45 0.15 0.5 0.6 0.35 0.85 0.3 0.9 0.3 0.95 0.25 1.05 0.25 1.25 0.15 Q1.4 0.1 1.55 0.05 L1.6 0.0 2.05 -0.15 2.1 -0.2 2.2 -0.2 1.9 -0.05 1.6 0.05 1.5 0.1 1.05 0.3 0.95 0.3 0.9 0.35 0.4 0.5 0.25 0.55 0.1 0.65 0.05 0.65 0.05 0.7 -0.05 0.8 0.25 0.8 0.35 0.75 0.5 0.75 0.6 0.7 0.65 0.7 0.85 0.65 1.05 0.55 1.1 0.5 1.2 0.5 1.45 0.4 1.55 0.4 Q1.75 0.3 1.8 0.3 L2.4 0.15 2.55 0.1 2.6 0.05 2.85 0.0 2.9 0.0 3.05 -0.05 3.0 -0.1 2.9 -0.25 2.8 -0.3 2.65 -0.3 2.3 -0.25 2.35 -0.25 2.55 -0.3 2.6 -0.35 2.8 -0.35 2.8 -0.45 M1.05 0.65 L0.75 0.75 0.7 0.75 0.5 0.8 0.25 0.85 0.15 0.9 -0.05 0.9 0.0 0.95 0.25 0.95 0.4 0.9 0.9 0.9 1.4 0.8 1.45 0.8 1.55 0.75 1.85 0.65 1.9 0.65 Q2.15 0.6 2.35 0.5 L2.4 0.5 2.4 0.45 2.6 0.35 2.85 0.1 2.55 0.15 2.5 0.15 1.85 0.35 1.75 0.4 1.5 0.5 1.45 0.5 1.05 0.65 M-0.65 0.7 L-0.6 0.75 -0.6 0.8 Q-0.5 0.9 -0.45 0.9 L-0.4 0.9 -0.2 0.85 -0.05 0.7 Q0.0 0.6 0.0 0.5 L0.0 0.25 -0.05 0.2 -0.05 0.15 -0.1 0.1 -0.25 0.1 Q-0.4 0.1 -0.45 0.2 L-0.55 0.3 Q-0.65 0.35 -0.65 0.5 L-0.65 0.7 M-0.75 0.55 L-0.75 0.45 -0.8 0.4 -1.0 0.35 -1.1 0.3 -1.3 0.25 -1.45 0.2 -1.55 0.15 -1.9 0.05 -2.25 0.0 -2.45 -0.05 -2.5 -0.05 -2.7 -0.1 -2.75 -0.05 -2.85 0.0 -2.9 0.05 -2.9 0.1 -2.95 0.2 -2.95 0.4 -2.85 0.55 -2.6 0.5 -2.3 0.45 Q-1.75 0.4 -1.5 0.45 L-1.3 0.5 -1.05 0.5 -1.0 0.55 -0.9 0.55 -0.8 0.6 -0.75 0.6 -0.75 0.55 M-1.5 -0.1 L-1.6 -0.15 -1.9 -0.35 -2.0 -0.4 -2.3 -0.45 -2.4 -0.4 -2.45 -0.4 -2.5 -0.35 -2.5 -0.3 -2.45 -0.3 -2.4 -0.25 -2.35 -0.25 -2.0 -0.15 -1.85 -0.1 -1.3 0.1 -1.3 0.15 -1.65 0.0 -1.75 -0.05 -2.15 -0.15 -2.2 -0.15 -2.25 -0.2 -2.4 -0.2 -2.55 -0.2 -2.45 -0.15 -2.3 -0.1 -1.6 0.1 -1.25 0.25 -1.15 0.25 -1.05 0.3 -0.9 0.3 -1.0 0.25 -1.2 0.1 -1.3 0.05 -1.4 -0.05 -1.5 -0.1 M-0.65 0.25 L-0.55 0.15 -0.65 0.1 -0.8 0.05 -0.85 0.05 -0.85 0.0 -1.0 -0.05 -1.4 -0.45 -1.55 -0.7 -1.6 -0.85 -1.6 -0.9 -1.9 -0.6 -1.9 -0.5 -1.95 -0.5 -1.95 -0.45 -1.85 -0.45 -1.7 -0.3 -1.45 -0.2 -0.7 0.35 -0.65 0.25 M-2.15 0.55 L-2.35 0.55 -2.45 0.6 -2.35 0.65 -2.1 0.65 -1.9 0.7 -1.85 0.7 -1.15 0.75 -1.1 0.75 -1.0 0.8 -0.75 0.8 -0.7 0.85 -0.7 0.8 -0.75 0.65 -0.95 0.6 -1.15 0.6 -1.4 0.55 -1.8 0.5 -2.05 0.5 -2.15 0.55" fill="#111111" fill-rule="evenodd" stroke="none"/>
  </g>
</svg>
