<?xml version="1.0" encoding="UTF-8" standalone="no"?>
<svg xmlns:ffdec="https://www.free-decompiler.com/flash" xmlns:xlink="http://www.w3.org/1999/xlink" ffdec:objectType="shape" height="9.7px" width="25.35px" xmlns="http://www.w3.org/2000/svg">
  <g transform="matrix(1.0, 0.0, 0.0, 1.0, 13.4, 4.4)">
    <path d="M1.0 -0.1 L0.2 -0.2 -0.15 -0.2 Q0.2 -0.7 0.55 -1.1 L0.55 -1.15 -0.3 -0.2 -0.65 -0.25 -1.45 -0.35 -1.55 -0.35 -1.5 -0.3 -0.45 -0.1 -0.4 -0.05 -0.8 0.4 -1.35 0.65 Q-2.3 1.1 -3.15 1.8 -3.65 2.15 -3.7 2.15 L-3.9 2.15 -3.85 2.05 -2.55 0.75 -2.55 0.7 -4.25 2.15 -4.8 2.2 Q-5.55 2.3 -5.65 2.7 L-6.35 2.15 Q-6.85 1.75 -7.1 1.3 -6.9 1.45 -6.7 1.5 L-5.95 1.55 -5.7 1.5 -5.4 1.45 Q-5.25 1.45 -4.35 1.1 -3.5 0.75 -3.3 0.6 L-3.0 0.35 -2.7 -0.2 Q-2.6 -0.3 -2.4 -0.35 L-2.1 -0.5 -2.0 -0.6 -0.7 -1.0 Q0.55 -1.4 1.0 -1.45 L2.05 -1.55 2.65 -1.65 3.0 -1.7 3.3 -1.75 4.75 -1.85 6.4 -1.95 Q7.45 -2.0 8.55 -2.2 7.95 -1.95 7.05 -1.7 L5.4 -1.3 4.25 -0.95 3.1 -1.2 3.15 -1.15 Q3.25 -1.1 3.45 -1.0 L3.7 -0.95 4.0 -0.9 3.2 -0.65 2.7 -0.55 2.05 -0.35 1.6 -0.25 1.25 -0.2 1.0 -0.1 M-0.45 0.3 L-0.25 -0.05 0.35 0.05 Q0.15 0.1 -0.2 0.25 L-0.45 0.3 M1.7 -0.95 L1.6 -0.9 1.65 -0.8 1.7 -0.75 1.75 -0.75 1.85 -0.7 1.95 -0.75 1.95 -0.8 1.8 -0.9 1.7 -0.95 M-8.25 0.0 L-8.2 -0.1 Q-7.9 -0.35 -7.65 -0.2 L-7.7 0.0 -7.7 0.6 Q-7.85 0.3 -8.0 0.15 L-8.15 0.05 -8.25 0.0 M-5.5 3.75 Q-5.65 3.45 -5.85 3.1 -6.0 2.9 -6.5 2.5 -7.05 2.05 -7.2 1.9 L-7.6 1.5 Q-7.95 1.15 -8.45 0.9 -9.05 0.6 -9.6 0.65 L-9.5 0.6 -9.45 0.6 -9.25 0.55 Q-8.7 0.55 -8.35 0.65 L-8.35 0.7 -8.2 0.75 Q-8.1 0.8 -8.05 0.85 L-7.65 1.25 -7.15 1.7 -6.6 2.2 Q-6.0 2.6 -5.85 2.85 -5.5 3.25 -5.5 3.75 M-12.85 4.7 Q-13.15 4.35 -13.15 3.9 -13.15 3.55 -12.7 3.3 -12.35 3.1 -12.05 3.1 -11.8 3.1 -11.5 3.35 L-11.35 3.5 -11.1 3.8 -10.8 4.4 Q-10.8 4.45 -10.9 4.45 L-11.15 4.3 -11.2 4.3 -11.45 3.9 Q-11.45 3.75 -11.75 3.6 -12.05 3.5 -12.2 3.5 -12.35 3.5 -12.65 3.65 -13.0 3.9 -13.0 4.2 -13.0 4.5 -12.85 4.7 M-11.65 4.25 Q-11.75 4.25 -11.85 4.35 -11.95 4.45 -12.0 4.75 L-12.1 4.9 Q-12.2 5.05 -12.25 5.05 -12.45 5.05 -12.7 4.85 L-12.65 4.85 Q-12.6 4.85 -12.3 4.5 -12.0 4.2 -12.0 4.05 -11.9 4.1 -11.65 4.25" fill="#999999" fill-rule="evenodd" stroke="none"/>
    <path d="M8.25 -4.1 L7.1 -4.1 6.7 -4.05 5.75 -3.95 5.65 -3.9 4.8 -3.75 4.4 -3.7 3.95 -3.6 Q2.8 -3.35 1.95 -3.05 L1.25 -2.85 0.55 -2.6 0.2 -2.5 -0.3 -2.35 -0.55 -2.3 -0.9 -2.15 -2.45 -1.6 -2.5 -1.55 -3.35 -1.2 -3.5 -1.2 -3.6 -1.15 -3.65 -1.15 -3.7 -1.1 -3.8 -1.05 -3.85 -0.95 -3.9 -0.8 Q-3.95 -0.6 -4.05 -0.45 -4.15 -0.25 -4.25 -0.15 -4.4 0.05 -4.75 0.2 L-5.8 0.7 -5.85 0.7 Q-6.5 1.0 -7.05 1.0 -7.15 1.0 -7.25 0.9 L-7.15 1.15 Q-6.95 1.3 -6.7 1.4 L-5.85 1.5 -5.6 1.45 -5.55 1.4 -5.35 1.4 Q-5.25 1.4 -4.4 1.0 -3.55 0.65 -3.3 0.5 -3.15 0.4 -2.9 -0.05 L-2.75 -0.3 -2.55 -0.4 -2.4 -0.45 -2.25 -0.55 -2.15 -0.6 -1.95 -0.65 0.15 -1.35 0.35 -1.4 0.45 -1.4 0.65 -1.45 0.7 -1.45 0.8 -1.5 0.85 -1.5 1.35 -1.55 1.4 -1.55 2.35 -1.7 2.45 -1.7 2.7 -1.75 4.5 -1.95 4.8 -1.95 4.95 -1.95 6.8 -2.05 Q7.3 -2.1 9.25 -2.5 10.75 -3.05 11.5 -3.4 L11.4 -3.3 11.65 -3.4 11.4 -3.55 11.0 -3.7 10.95 -3.7 10.45 -3.9 10.1 -3.95 9.7 -4.05 9.2 -4.1 8.25 -4.1 M3.5 -3.75 Q3.7 -3.75 5.0 -4.05 L6.45 -4.25 7.35 -4.35 7.95 -4.35 9.85 -4.2 Q11.45 -3.95 11.85 -3.45 L11.95 -3.35 Q11.45 -3.1 10.5 -2.75 L10.4 -2.7 8.9 -2.1 8.3 -1.9 Q7.15 -1.5 6.85 -1.45 L5.15 -0.95 5.05 -0.9 4.9 -0.85 3.2 -0.45 1.75 -0.1 1.3 0.0 1.15 0.05 0.9 0.15 0.5 0.25 0.45 0.25 -0.05 0.4 -0.1 0.45 -0.15 0.45 -1.1 0.8 Q-1.6 1.0 -2.25 1.45 L-2.4 1.55 -2.75 1.75 -2.85 1.8 -3.05 1.95 -3.1 2.0 Q-3.55 2.45 -3.6 2.45 L-3.85 2.4 -4.05 2.35 Q-5.2 2.35 -5.3 3.0 L-5.3 3.2 -5.35 3.25 Q-5.2 3.65 -5.2 4.25 -5.2 4.4 -5.3 4.5 -5.3 4.6 -5.4 4.7 -5.55 4.8 -5.65 4.8 L-5.85 4.8 -6.05 4.75 -6.25 4.75 Q-6.3 4.8 -6.3 4.65 L-6.2 4.35 -6.2 4.25 -6.25 4.3 Q-6.35 4.4 -6.5 4.4 L-6.55 4.4 Q-6.9 4.45 -6.9 4.2 L-6.9 3.65 Q-6.9 3.45 -6.95 3.25 L-6.95 3.1 -7.0 3.1 Q-7.25 3.1 -7.4 2.65 -7.5 2.4 -7.5 2.15 L-7.5 2.05 -7.7 1.9 Q-7.85 1.8 -8.05 1.65 -8.55 1.4 -9.1 1.25 -9.7 1.05 -10.0 1.05 L-10.35 1.15 -10.4 1.0 -10.4 0.95 -10.35 0.95 Q-10.35 0.65 -9.95 0.5 L-10.0 0.5 -9.65 0.35 -9.4 0.3 -9.3 0.3 -9.0 0.25 Q-8.7 0.25 -8.35 -0.1 L-8.3 -0.15 -8.2 -0.2 Q-8.0 -0.4 -7.8 -0.5 L-7.65 -0.4 -7.45 -0.35 -7.45 0.0 Q-7.45 0.4 -7.25 0.6 L-7.2 0.65 Q-7.1 0.75 -6.75 0.8 -6.2 0.8 -5.05 0.15 -4.55 -0.15 -4.3 -0.4 L-4.25 -0.5 Q-4.05 -0.75 -4.05 -1.15 L-4.1 -1.2 -4.0 -1.2 -3.9 -1.25 -2.4 -1.8 Q-0.7 -2.5 0.25 -2.75 L0.4 -2.85 0.65 -2.9 2.0 -3.3 Q3.25 -3.75 3.5 -3.75 M1.0 -0.1 L1.25 -0.2 1.6 -0.25 2.05 -0.35 2.7 -0.55 3.2 -0.65 4.0 -0.9 4.1 -0.9 4.2 -0.95 4.25 -0.95 5.4 -1.3 7.05 -1.7 Q7.95 -1.95 8.55 -2.2 7.45 -2.0 6.4 -1.95 L4.75 -1.85 3.3 -1.75 3.0 -1.7 2.65 -1.65 2.05 -1.55 1.0 -1.45 Q0.55 -1.4 -0.7 -1.0 L-2.0 -0.6 -2.1 -0.5 -2.4 -0.35 Q-2.6 -0.3 -2.7 -0.2 L-3.0 0.35 -3.3 0.6 Q-3.5 0.75 -4.35 1.1 -5.25 1.45 -5.4 1.45 L-5.7 1.5 -5.95 1.55 -6.7 1.5 Q-6.9 1.45 -7.1 1.3 -6.85 1.75 -6.35 2.15 L-5.65 2.7 Q-5.55 2.3 -4.8 2.2 L-4.25 2.15 -3.9 2.15 -3.7 2.15 Q-3.65 2.15 -3.15 1.8 -2.3 1.1 -1.35 0.65 L-0.8 0.4 -0.7 0.4 -0.5 0.3 -0.45 0.3 -0.2 0.25 Q0.15 0.1 0.35 0.05 L0.6 0.0 0.85 -0.1 1.0 -0.1 M-7.7 0.6 L-7.7 0.0 -7.65 -0.2 Q-7.9 -0.35 -8.2 -0.1 L-8.25 0.0 -8.3 0.05 -8.45 0.35 Q-8.25 0.4 -8.05 0.6 L-7.8 0.85 -7.55 1.15 Q-7.7 0.9 -7.7 0.6 M-9.6 0.65 L-9.9 0.85 Q-8.55 0.9 -7.5 1.75 -7.3 1.9 -7.15 2.05 -5.95 3.15 -5.95 4.45 L-5.65 4.55 -5.45 4.1 -5.5 3.75 Q-5.5 3.25 -5.85 2.85 -6.0 2.6 -6.6 2.2 L-7.15 1.7 -7.65 1.25 -8.05 0.85 Q-8.1 0.8 -8.2 0.75 L-8.35 0.7 -8.35 0.65 Q-8.45 0.6 -8.6 0.55 L-8.6 0.6 -8.8 0.55 -9.05 0.5 Q-9.3 0.5 -9.5 0.6 L-9.6 0.65 M-7.4 2.05 L-7.3 2.15 -7.2 2.3 Q-6.85 2.7 -6.8 3.55 L-6.8 3.6 Q-6.75 4.05 -6.6 4.15 L-6.45 4.2 -6.3 4.05 -6.15 3.85 Q-6.25 2.85 -7.35 2.05 L-7.45 2.0 -7.4 2.05 M-11.3 3.15 Q-10.95 3.4 -10.85 3.75 L-10.7 3.9 -10.6 4.1 Q-10.5 4.3 -10.5 4.4 -10.5 4.6 -10.6 4.7 L-11.05 4.5 -11.25 4.45 -11.55 4.4 Q-11.65 4.4 -11.7 4.5 -11.75 4.6 -11.8 4.75 L-11.75 4.7 -11.75 4.8 Q-11.75 5.15 -12.0 5.25 L-12.35 5.3 Q-12.6 5.3 -12.95 5.0 -13.4 4.6 -13.4 3.9 -13.4 3.4 -12.8 3.1 -12.3 2.8 -11.9 2.8 -11.85 2.8 -11.75 2.9 L-11.75 2.85 -11.7 2.85 -11.5 3.05 Q-11.4 3.1 -11.3 3.15 M-11.2 4.3 L-11.15 4.3 -10.9 4.45 Q-10.8 4.45 -10.8 4.4 L-11.1 3.8 -11.35 3.5 -11.5 3.35 Q-11.8 3.1 -12.05 3.1 -12.35 3.1 -12.7 3.3 -13.15 3.55 -13.15 3.9 -13.15 4.35 -12.85 4.7 L-12.7 4.85 Q-12.45 5.05 -12.25 5.05 -12.2 5.05 -12.1 4.9 L-12.0 4.75 Q-11.95 4.45 -11.85 4.35 -11.75 4.25 -11.65 4.25 L-11.5 4.25 Q-11.9 4.0 -12.1 4.0 -12.2 4.0 -12.3 4.2 L-12.4 4.5 Q-12.5 4.4 -12.5 4.3 L-12.5 4.25 Q-12.5 4.1 -12.25 4.0 L-11.9 3.95 Q-11.85 3.95 -11.4 4.2 L-11.25 4.25 -11.25 4.3 -11.2 4.3" fill="#111111" fill-rule="evenodd" stroke="none"/>
    <path d="M-0.8 0.4 L-0.4 -0.05 -0.45 -0.1 -1.5 -0.3 -1.55 -0.35 -1.45 -0.35 -0.65 -0.25 -0.3 -0.2 0.55 -1.15 0.55 -1.1 Q0.2 -0.7 -0.15 -0.2 L0.2 -0.2 1.0 -0.1 0.85 -0.1 0.6 0.0 0.35 0.05 -0.25 -0.05 -0.45 0.3 -0.5 0.3 -0.7 0.4 -0.8 0.4 M4.0 -0.9 L3.7 -0.95 3.45 -1.0 Q3.25 -1.1 3.15 -1.15 L3.1 -1.2 4.25 -0.95 4.2 -0.95 4.1 -0.9 4.0 -0.9 M-4.25 2.15 L-2.55 0.7 -2.55 0.75 -3.85 2.05 -3.9 2.15 -4.25 2.15 M1.7 -0.95 L1.8 -0.9 1.95 -0.8 1.95 -0.75 1.85 -0.7 1.75 -0.75 1.7 -0.75 1.65 -0.8 1.6 -0.9 1.7 -0.95 M-8.25 0.0 L-8.15 0.05 -8.0 0.15 Q-7.85 0.3 -7.7 0.6 -7.7 0.9 -7.55 1.15 L-7.8 0.85 -8.05 0.6 Q-8.25 0.4 -8.45 0.35 L-8.3 0.05 -8.25 0.0 M-5.5 3.75 L-5.45 4.1 -5.65 4.55 -5.95 4.45 Q-5.95 3.15 -7.15 2.05 -7.3 1.9 -7.5 1.75 -8.55 0.9 -9.9 0.85 L-9.6 0.65 Q-9.05 0.6 -8.45 0.9 -7.95 1.15 -7.6 1.5 L-7.2 1.9 Q-7.05 2.05 -6.5 2.5 -6.0 2.9 -5.85 3.1 -5.65 3.45 -5.5 3.75 M-9.5 0.6 Q-9.3 0.5 -9.05 0.5 L-8.8 0.55 -8.6 0.6 -8.6 0.55 Q-8.45 0.6 -8.35 0.65 -8.7 0.55 -9.25 0.55 L-9.45 0.6 -9.5 0.6 M-7.4 2.05 L-7.45 2.0 -7.35 2.05 Q-6.25 2.85 -6.15 3.85 L-6.3 4.05 -6.45 4.2 -6.6 4.15 Q-6.75 4.05 -6.8 3.6 L-6.8 3.55 Q-6.85 2.7 -7.2 2.3 L-7.3 2.15 -7.4 2.05 M-12.85 4.7 Q-13.0 4.5 -13.0 4.2 -13.0 3.9 -12.65 3.65 -12.35 3.5 -12.2 3.5 -12.05 3.5 -11.75 3.6 -11.45 3.75 -11.45 3.9 L-11.2 4.3 -11.25 4.3 -11.25 4.25 -11.4 4.2 Q-11.85 3.95 -11.9 3.95 L-12.25 4.0 Q-12.5 4.1 -12.5 4.25 L-12.5 4.3 Q-12.5 4.4 -12.4 4.5 L-12.3 4.2 Q-12.2 4.0 -12.1 4.0 -11.9 4.0 -11.5 4.25 L-11.65 4.25 Q-11.9 4.1 -12.0 4.05 -12.0 4.2 -12.3 4.5 -12.6 4.85 -12.65 4.85 L-12.7 4.85 -12.85 4.7" fill="#666666" fill-rule="evenodd" stroke="none"/>
    <path d="M1.95 -3.05 Q1.85 -2.15 0.9 -1.6 L0.7 -1.45 0.65 -1.45 0.45 -1.4 0.35 -1.4 0.15 -1.35 -1.95 -0.65 -2.25 -0.65 Q-2.35 -0.65 -2.5 -0.75 -2.7 -0.85 -2.7 -1.05 -2.7 -1.3 -2.35 -1.6 L-2.45 -1.6 -0.9 -2.15 -0.55 -2.3 -0.3 -2.35 0.2 -2.5 0.55 -2.6 1.25 -2.85 1.95 -3.05 M4.8 -1.95 Q4.6 -2.1 4.6 -2.25 4.6 -3.0 6.55 -3.65 7.55 -4.0 8.25 -4.1 L9.2 -4.1 9.7 -4.05 10.1 -3.95 10.45 -3.9 Q10.5 -3.75 10.5 -3.6 10.5 -3.2 9.65 -2.8 8.9 -2.4 8.55 -2.4 L7.75 -2.25 6.6 -2.1 4.9 -1.95 4.95 -1.95 4.8 -1.95 M1.55 -1.6 L1.55 -1.65 Q1.8 -2.35 2.75 -3.0 3.5 -3.5 4.1 -3.55 4.3 -3.5 4.3 -3.4 4.3 -2.5 2.3 -1.85 L1.55 -1.6 M-5.8 0.7 L-4.75 0.2 Q-4.4 0.05 -4.25 -0.15 -4.15 -0.25 -4.05 -0.45 -3.95 -0.6 -3.9 -0.8 L-3.85 -0.95 -2.75 -0.3 -2.9 -0.05 Q-3.15 0.4 -3.3 0.5 -3.55 0.65 -4.4 1.0 -5.25 1.4 -5.35 1.4 L-5.55 1.4 Q-5.85 1.3 -5.85 0.9 -5.85 0.8 -5.8 0.7" fill="#bfbfbf" fill-rule="evenodd" stroke="none"/>
    <path d="M1.95 -3.05 Q2.8 -3.35 3.95 -3.6 L4.4 -3.7 4.8 -3.75 5.65 -3.9 5.75 -3.95 6.7 -4.05 7.1 -4.1 8.25 -4.1 Q7.55 -4.0 6.55 -3.65 4.6 -3.0 4.6 -2.25 4.6 -2.1 4.8 -1.95 L4.5 -1.95 2.7 -1.75 2.45 -1.7 2.35 -1.7 1.4 -1.55 1.35 -1.55 0.85 -1.5 0.8 -1.5 0.7 -1.45 0.9 -1.6 Q1.85 -2.15 1.95 -3.05 M10.45 -3.9 L10.95 -3.7 11.0 -3.7 11.4 -3.55 11.65 -3.4 11.4 -3.3 11.5 -3.4 Q10.75 -3.05 9.25 -2.5 7.3 -2.1 6.8 -2.05 L4.95 -1.95 4.9 -1.95 6.6 -2.1 7.75 -2.25 8.55 -2.4 Q8.9 -2.4 9.65 -2.8 10.5 -3.2 10.5 -3.6 10.5 -3.75 10.45 -3.9 M-2.45 -1.6 L-2.35 -1.6 Q-2.7 -1.3 -2.7 -1.05 -2.7 -0.85 -2.5 -0.75 -2.35 -0.65 -2.25 -0.65 L-1.95 -0.65 -2.15 -0.6 -2.25 -0.55 -2.4 -0.45 -2.55 -0.4 -2.75 -0.3 -3.85 -0.95 -3.8 -1.05 -3.7 -1.1 -3.65 -1.15 -3.6 -1.15 -3.5 -1.2 -3.35 -1.2 -2.5 -1.55 -2.45 -1.6 M1.55 -1.6 L2.3 -1.85 Q4.3 -2.5 4.3 -3.4 4.3 -3.5 4.1 -3.55 3.5 -3.5 2.75 -3.0 1.8 -2.35 1.55 -1.65 L1.55 -1.6 M-5.8 0.7 Q-5.85 0.8 -5.85 0.9 -5.85 1.3 -5.55 1.4 L-5.6 1.45 -5.85 1.5 -6.7 1.4 Q-6.95 1.3 -7.15 1.15 L-7.25 0.9 Q-7.15 1.0 -7.05 1.0 -6.5 1.0 -5.85 0.7 L-5.8 0.7" fill="#dfdfdf" fill-rule="evenodd" stroke="none"/>
  </g>
</svg>
