<?xml version="1.0" encoding="UTF-8" standalone="no"?>
<svg xmlns:ffdec="https://www.free-decompiler.com/flash" xmlns:xlink="http://www.w3.org/1999/xlink" ffdec:objectType="shape" height="2.15px" width="4.15px" xmlns="http://www.w3.org/2000/svg">
  <g transform="matrix(1.0, 0.0, 0.0, 1.0, 11.4, -1.85)">
    <path d="M-7.4 2.6 L-7.4 2.65 -7.35 2.6 -7.35 2.7 -7.3 2.8 -8.4 3.15 Q-9.7 3.6 -10.2 3.75 -10.7 3.95 -11.1 4.0 L-11.0 3.8 Q-7.85 2.7 -7.4 2.6 M-11.2 3.15 L-11.3 3.15 -11.4 3.1 -10.95 3.0 -10.2 2.75 -8.65 2.2 Q-7.45 1.75 -7.55 1.9 L-7.55 2.1 -11.2 3.15" fill="#111111" fill-rule="evenodd" stroke="none"/>
    <path d="M-7.55 2.1 L-7.5 2.15 -7.4 2.6 Q-7.85 2.7 -11.0 3.8 L-11.2 3.15 -7.55 2.1" fill="#000066" fill-rule="evenodd" stroke="none"/>
  </g>
</svg>
