<?xml version="1.0" encoding="UTF-8" standalone="no"?>
<svg xmlns:ffdec="https://www.free-decompiler.com/flash" xmlns:xlink="http://www.w3.org/1999/xlink" ffdec:objectType="shape" height="1.8px" width="1.8px" xmlns="http://www.w3.org/2000/svg">
  <g transform="matrix(1.0, 0.0, 0.0, 1.0, 0.9, 0.9)">
    <path d="M0.35 -0.3 Q0.45 -0.2 0.45 0.0 0.45 0.2 0.35 0.35 0.2 0.45 0.0 0.45 -0.2 0.45 -0.3 0.35 -0.45 0.2 -0.45 0.0 -0.45 -0.2 -0.3 -0.3 -0.2 -0.45 0.0 -0.45 0.2 -0.45 0.35 -0.3" fill="#ffff99" fill-rule="evenodd" stroke="none"/>
    <path d="M0.0 -0.9 Q0.35 -0.9 0.65 -0.65 0.9 -0.35 0.9 0.0 0.9 0.35 0.65 0.65 0.35 0.9 0.0 0.9 -0.35 0.9 -0.65 0.65 -0.9 0.35 -0.9 0.0 -0.9 -0.35 -0.65 -0.65 -0.35 -0.9 0.0 -0.9 M0.35 -0.3 Q0.2 -0.45 0.0 -0.45 -0.2 -0.45 -0.3 -0.3 -0.45 -0.2 -0.45 0.0 -0.45 0.2 -0.3 0.35 -0.2 0.45 0.0 0.45 0.2 0.45 0.35 0.35 0.45 0.2 0.45 0.0 0.45 -0.2 0.35 -0.3" fill="#000033" fill-rule="evenodd" stroke="none"/>
  </g>
</svg>
