<?xml version="1.0" encoding="UTF-8" standalone="no"?>
<svg xmlns:ffdec="https://www.free-decompiler.com/flash" xmlns:xlink="http://www.w3.org/1999/xlink" ffdec:objectType="shape" height="1.85px" width="1.8px" xmlns="http://www.w3.org/2000/svg">
  <g transform="matrix(1.0, 0.0, 0.0, 1.0, 0.9, 0.9)">
    <path d="M-0.1 -0.85 L-0.2 -0.7 Q-0.25 -0.6 -0.2 -0.6 -0.15 -0.6 -0.15 -0.65 L-0.1 -0.7 Q0.0 -0.65 -0.05 -0.55 L-0.05 -0.4 Q-0.2 -0.4 -0.3 -0.25 -0.45 -0.15 -0.45 0.05 -0.45 0.25 -0.3 0.35 -0.2 0.5 0.0 0.5 0.2 0.5 0.35 0.35 0.45 0.25 0.45 0.05 0.45 -0.15 0.35 -0.25 0.2 -0.4 0.05 -0.4 L0.05 -0.65 0.0 -0.8 0.1 -0.75 0.25 -0.65 0.25 -0.6 0.3 -0.55 0.35 -0.55 Q0.4 -0.55 0.45 -0.6 L0.4 -0.6 0.25 -0.8 0.15 -0.85 Q0.45 -0.8 0.65 -0.6 0.9 -0.35 0.9 0.05 0.9 0.4 0.65 0.65 0.35 0.95 0.0 0.95 -0.35 0.95 -0.65 0.65 -0.9 0.4 -0.9 0.05 -0.9 -0.35 -0.65 -0.6 -0.4 -0.8 -0.1 -0.85" fill="#ffff33" fill-rule="evenodd" stroke="none"/>
    <path d="M0.15 -0.85 L0.25 -0.8 0.4 -0.6 0.45 -0.6 Q0.4 -0.55 0.35 -0.55 L0.3 -0.55 0.25 -0.6 0.25 -0.65 0.1 -0.75 0.0 -0.8 0.05 -0.65 0.05 -0.4 Q0.2 -0.4 0.35 -0.25 0.45 -0.15 0.45 0.05 0.45 0.25 0.35 0.35 0.2 0.5 0.0 0.5 -0.2 0.5 -0.3 0.35 -0.45 0.25 -0.45 0.05 -0.45 -0.15 -0.3 -0.25 -0.2 -0.4 -0.05 -0.4 L-0.05 -0.55 Q0.0 -0.65 -0.1 -0.7 L-0.15 -0.65 Q-0.15 -0.6 -0.2 -0.6 -0.25 -0.6 -0.2 -0.7 L-0.1 -0.85 0.05 -0.9 0.15 -0.85" fill="#000000" fill-rule="evenodd" stroke="none"/>
  </g>
</svg>
