<?xml version="1.0" encoding="UTF-8" standalone="no"?>
<svg xmlns:ffdec="https://www.free-decompiler.com/flash" xmlns:xlink="http://www.w3.org/1999/xlink" ffdec:objectType="shape" height="22.85px" width="17.95px" xmlns="http://www.w3.org/2000/svg">
  <g transform="matrix(1.0, 0.0, 0.0, 1.0, 10.05, 9.05)">
    <path d="M-6.5 -5.9 L-6.25 -5.95 -6.1 -6.0 -5.55 -5.85 -5.45 -5.85 -6.15 -3.65 -6.8 -3.9 -6.5 -5.9" fill="#ffffff" fill-rule="evenodd" stroke="none"/>
    <path d="M7.45 5.3 Q7.7 5.15 7.8 5.25 8.0 5.4 7.75 6.3 L7.65 6.25 7.15 6.2 7.2 6.15 7.35 5.7 7.35 5.65 7.4 5.45 7.4 5.35 7.45 5.3 M-7.3 -4.2 L-7.6 -4.45 -7.55 -4.8 -7.5 -5.55 Q-7.6 -5.6 -7.55 -5.85 -7.5 -6.1 -7.4 -6.25 L-7.35 -6.35 Q-7.2 -6.45 -7.0 -6.45 -6.75 -6.4 -6.6 -6.15 -6.55 -6.0 -6.55 -5.85 L-6.5 -5.9 -6.8 -3.9 -7.3 -4.2 M-6.1 -6.0 L-5.55 -5.85 -6.1 -6.0 M-5.45 -5.85 L-4.5 -6.05 -6.15 -3.65 -5.45 -5.85" fill="#1a1a1a" fill-rule="evenodd" stroke="none"/>
    <path d="M-4.5 -6.05 L-1.95 -6.95 Q1.5 -7.05 2.2 -5.7 2.95 -4.35 3.15 -3.1 L3.6 -0.55 Q3.8 0.7 4.25 1.8 L4.35 2.15 4.85 3.2 5.2 3.8 5.35 3.95 Q6.05 4.5 6.6 4.8 7.2 5.1 7.25 5.05 L7.35 5.2 7.45 5.3 7.4 5.35 7.4 5.45 7.35 5.65 7.35 5.7 7.2 6.15 7.15 6.2 2.85 2.75 -3.2 -3.1 -3.35 -3.0 -3.75 -2.65 Q-3.75 -0.8 -2.85 1.0 -4.7 4.3 -3.85 9.8 -8.7 9.05 -6.8 1.85 L-7.3 -4.2 -6.8 -3.9 -6.15 -3.65 -4.5 -6.05" fill="#c7a36d" fill-rule="evenodd" stroke="none"/>
    <path d="M-4.55 -4.45 L-3.65 -4.05 -2.9 -3.55 -2.8 -3.5 Q-2.45 -3.65 -2.15 -3.2 -1.9 -2.9 -1.65 -2.6 L-1.4 -2.35 -1.25 -2.45 -0.9 -2.4 -0.8 -2.35 -0.7 -2.4 -0.45 -2.4 -0.45 -2.35 Q0.1 -2.3 0.5 -1.75 1.65 -0.1 2.55 1.7 3.05 2.6 3.85 3.25 L4.4 3.65 6.1 4.95 6.25 5.0 6.3 5.1 6.35 5.25 Q6.8 5.25 7.05 5.75 7.3 6.25 7.1 6.5 7.35 6.15 7.65 6.1 L3.8 12.65 Q2.3 14.05 0.25 13.5 L-3.35 9.55 -4.35 9.55 Q-6.1 3.35 -4.4 -0.15 L-4.5 -0.35 -4.4 -1.25 -4.1 -1.2 -4.05 -1.25 -4.55 -4.45" fill="#c7a36d" fill-rule="evenodd" stroke="none"/>
    <path d="M-1.55 9.2 L-1.35 9.0 -1.55 9.2 M-1.3 8.95 L-0.55 8.8 -1.3 8.95 M3.65 9.8 L3.4 10.05 3.4 10.0 Q3.45 9.7 3.3 9.45 L3.4 9.4 3.65 9.4 3.65 9.5 3.6 9.65 Q3.6 9.75 3.65 9.8 M3.0 10.4 Q2.4 10.85 1.75 10.95 L1.85 10.8 1.85 10.65 1.8 10.6 1.65 10.5 1.5 10.55 1.4 10.65 Q1.4 10.75 1.4 10.9 L1.4 11.0 Q0.8 11.05 0.2 10.85 0.2 10.6 0.15 10.4 0.05 10.0 -0.05 9.7 -0.4 9.9 -0.3 10.3 -0.25 10.55 -0.15 10.7 L-1.05 10.15 -0.75 10.2 Q-0.8 9.85 -0.7 9.6 L-0.55 9.3 -0.5 9.3 -0.15 9.35 0.0 9.35 Q0.35 9.25 -0.05 9.2 -0.05 9.15 -0.05 9.1 L0.3 9.25 1.2 9.6 1.6 9.7 Q2.05 9.75 2.45 9.6 L2.45 9.7 2.7 9.7 2.85 9.65 3.0 10.1 3.0 10.4" fill="#ffffff" fill-rule="evenodd" stroke="none"/>
    <path d="M-1.55 9.8 L-1.55 9.2 -1.35 9.0 -1.3 8.95 -0.55 8.8 -0.25 8.85 -0.1 8.95 -0.05 9.05 -0.1 9.05 -0.05 9.1 Q-0.05 9.15 -0.05 9.2 0.35 9.25 0.0 9.35 L-0.15 9.35 -0.5 9.3 -0.55 9.3 -0.7 9.6 Q-0.8 9.85 -0.75 10.2 L-1.05 10.15 -1.25 10.15 -1.55 9.8 M1.85 8.4 L2.0 8.45 2.05 8.45 3.3 8.4 1.85 8.4 M4.0 9.3 L4.0 9.35 3.8 9.8 3.7 9.85 3.65 9.8 Q3.6 9.75 3.6 9.65 L3.65 9.5 3.65 9.4 3.4 9.4 3.3 9.45 Q3.45 9.7 3.4 10.0 L3.4 10.05 3.4 10.2 3.0 10.75 3.0 10.4 3.0 10.1 2.85 9.65 2.7 9.7 2.45 9.7 2.45 9.6 Q2.5 9.45 2.65 9.3 2.7 9.3 2.8 9.25 L2.95 9.2 3.1 9.1 Q3.15 9.05 3.2 9.05 L3.35 9.0 3.7 9.05 Q3.8 9.05 3.95 9.15 L4.0 9.3 M1.75 10.95 L1.75 11.0 1.4 11.0 1.4 10.9 Q1.4 10.75 1.4 10.65 L1.5 10.55 1.65 10.5 1.8 10.6 1.85 10.65 1.85 10.8 1.75 10.95 M0.2 10.85 L-0.15 10.7 Q-0.25 10.55 -0.3 10.3 -0.4 9.9 -0.05 9.7 0.05 10.0 0.15 10.4 0.2 10.6 0.2 10.85" fill="#cccccc" fill-rule="evenodd" stroke="none"/>
    <path d="M2.0 8.45 L2.05 8.45 2.0 8.45" fill="#cc0000" fill-rule="evenodd" stroke="none"/>
    <path d="M-0.25 8.85 L1.85 8.4 3.3 8.4 3.55 8.25 Q4.0 8.35 4.25 8.7 L4.2 9.25 4.0 9.3 3.95 9.15 Q3.8 9.05 3.7 9.05 L3.35 9.0 3.2 9.05 Q3.15 9.05 3.1 9.1 L2.95 9.2 2.8 9.25 Q2.7 9.3 2.65 9.3 2.5 9.45 2.45 9.6 2.05 9.75 1.6 9.7 L1.2 9.6 0.3 9.25 0.35 9.25 Q0.1 9.15 -0.1 8.95 L-0.25 8.85" fill="#8c0000" fill-rule="evenodd" stroke="none"/>
    <path d="M-1.25 10.15 L-0.3 11.15 -0.15 11.35 Q-0.1 11.3 -0.05 11.3 L1.95 11.3 Q2.65 11.35 3.25 11.5 2.85 11.65 2.4 11.75 1.45 11.95 0.35 11.9 L0.2 11.85 0.2 11.95 0.4 12.3 0.35 12.35 Q0.55 12.7 0.6 13.1 L0.2 12.75 0.2 12.9 -0.65 12.75 -3.6 9.75 -3.8 9.35 Q-5.15 9.8 -5.6 8.1 -5.85 7.05 -5.75 6.35 -5.35 7.1 -4.75 7.7 L-5.6 5.55 Q-6.35 4.1 -6.6 2.4 L-6.05 1.3 -5.9 1.7 -5.85 2.15 Q-5.15 4.4 -3.95 6.55 -3.0 8.35 -1.55 9.8 L-1.25 10.15" fill="#a9854f" fill-rule="evenodd" stroke="none"/>
    <path d="M-7.05 -5.75 Q-6.55 -5.85 -6.25 -5.95 L-6.6 -2.3 -7.05 -5.75" fill="#003366" fill-rule="evenodd" stroke="none"/>
    <path d="M-2.45 6.9 L-2.5 6.9 -2.45 6.85 -2.45 6.9 M-6.5 2.5 L-6.25 1.75 Q-5.9 2.9 -5.9 4.2 L-5.9 4.95 -4.4 7.8 -4.35 7.7 -2.8 9.5 -2.8 9.55 -2.35 10.1 -1.45 11.15 Q-1.15 11.5 -0.95 11.9 L-0.6 12.25 0.15 12.9 0.2 12.85 0.6 13.0 0.65 12.9 2.1 12.9 2.85 12.95 Q3.25 12.6 3.6 12.2 3.65 11.65 3.95 11.05 4.15 10.6 4.45 10.1 L4.7 9.75 4.75 9.65 4.75 9.6 Q4.75 9.35 4.85 9.2 4.9 9.1 5.0 9.0 L4.55 9.0 Q4.55 10.1 3.85 10.8 3.65 11.25 3.0 11.5 2.65 11.6 2.3 11.6 L1.2 11.65 1.05 11.6 Q0.4 11.65 -0.25 11.3 -0.95 11.05 -1.55 10.35 -1.85 10.1 -1.95 9.8 L-2.0 9.8 -2.05 9.7 -2.1 9.65 -2.1 9.55 -2.15 9.35 -2.15 9.2 Q-2.2 9.05 -2.1 8.9 L-2.0 8.8 -1.75 8.7 Q-0.7 8.1 0.55 8.15 L0.95 8.1 Q2.05 8.05 3.1 8.05 L5.05 8.6 4.9 8.6 Q5.1 8.75 5.3 8.95 L5.65 8.5 5.8 8.35 6.4 7.65 Q6.95 6.9 7.3 6.15 7.6 6.1 7.85 5.95 7.85 6.2 7.75 6.4 L7.8 6.35 Q7.3 7.8 6.1 9.35 5.8 9.75 5.55 10.2 5.35 10.35 5.25 10.6 L5.15 10.75 4.7 11.6 3.7 13.4 3.65 13.25 3.3 13.5 3.15 13.6 Q3.0 13.75 2.75 13.8 L1.0 13.7 0.9 13.7 0.45 13.6 Q0.05 13.6 -0.4 13.3 L-0.55 13.2 -0.6 13.15 -0.8 13.0 -0.9 12.9 Q-1.25 12.65 -1.55 12.2 -2.1 11.65 -2.6 11.0 L-2.6 10.95 Q-3.1 10.55 -3.5 10.0 -3.9 9.5 -4.0 9.1 L-4.25 8.8 Q-5.8 7.55 -6.3 5.65 L-6.4 4.75 Q-6.5 4.0 -6.55 3.2 L-6.5 2.5 M-1.55 9.35 Q-0.75 10.2 0.1 10.75 L0.3 10.9 0.35 10.9 0.4 10.85 1.05 10.95 Q1.35 10.9 1.55 11.0 L1.65 11.0 1.9 11.05 Q2.65 10.8 3.25 10.3 3.8 9.85 4.15 9.05 L4.15 8.95 1.55 8.8 0.95 8.8 Q-0.15 8.8 -1.1 9.05 -1.35 9.15 -1.55 9.35 M5.25 9.05 L5.1 9.0 5.1 9.25 5.25 9.05 M0.85 11.2 L0.9 11.2 0.95 11.15 0.85 11.2" fill="#1a1a1a" fill-rule="evenodd" stroke="none"/>
    <path d="M-3.0 -1.05 Q-2.8 -0.95 -2.85 -0.7 L-2.9 -0.65 Q-2.65 -0.55 -2.55 -0.1 -2.4 0.4 -2.15 0.8 -2.1 0.85 -2.2 0.9 -2.25 0.95 -2.35 1.0 L-2.2 1.45 Q-2.1 1.75 -2.1 2.1 -2.1 2.15 -2.2 2.15 L-2.95 1.65 Q-3.8 0.4 -4.25 -0.95 L-4.05 -1.2 -3.9 -1.2 Q-3.8 -1.2 -3.75 -1.15 L-3.7 -1.15 Q-3.6 -1.15 -3.5 -1.05 L-3.0 -1.05 M-2.45 -0.35 Q-1.8 -0.1 -1.85 0.45 -1.85 0.55 -1.95 0.5 -2.55 0.2 -2.5 -0.3 L-2.45 -0.35 M-0.3 3.45 L-0.25 3.45 -0.2 3.4 Q-0.05 3.45 0.05 3.6 L0.2 3.85 0.25 3.9 Q0.8 3.4 0.9 4.1 1.05 4.8 0.35 4.95 L0.3 5.0 0.1 5.15 -0.05 5.15 -0.05 4.55 Q-0.05 4.45 0.05 4.35 L-0.05 4.15 Q-0.1 4.0 -0.25 3.9 L-0.3 3.85 -0.25 3.75 -0.35 3.6 -0.3 3.5 -0.3 3.45" fill="#c7a36d" fill-rule="evenodd" stroke="none"/>
    <path d="M-7.05 -5.75 L-7.85 -2.75 -5.95 1.95 Q-5.75 2.3 -5.5 2.6 -5.8 4.0 -5.6 5.3 -5.05 6.8 -3.95 8.05 L-3.95 8.25 -3.75 9.4 -3.75 9.6 -3.65 9.9 -3.7 9.85 -3.9 9.85 -3.9 9.9 Q-4.7 10.05 -5.45 9.5 L-5.95 9.15 Q-8.0 7.95 -8.0 4.4 -7.95 3.25 -7.55 2.45 L-7.5 2.1 Q-9.75 1.9 -10.05 -0.95 L-10.05 -1.55 Q-10.1 -3.55 -8.55 -4.5 L-7.8 -4.25 -7.65 -4.15 -7.55 -4.8 Q-7.55 -5.3 -7.45 -5.8 L-7.3 -5.75 -7.05 -5.75 M-6.65 2.3 L-6.75 2.8 -6.8 3.1 Q-6.9 4.45 -6.7 5.75 L-6.5 6.95 -6.35 7.35 Q-5.9 8.5 -4.85 9.0 -4.5 9.1 -4.2 9.25 L-4.1 9.3 Q-5.1 7.85 -5.8 6.1 L-5.95 5.75 -6.35 4.6 Q-6.55 3.75 -6.6 2.85 L-6.65 2.3" fill="#1a1a1a" fill-rule="evenodd" stroke="none"/>
    <path d="M-4.2 -1.35 Q-2.7 -0.3 -2.15 1.45 -1.9 2.3 -2.6 2.5 -2.65 2.5 -2.75 2.4 -3.45 1.6 -3.45 0.6 L-3.45 0.55 Q-3.75 0.25 -4.0 -0.15 -4.25 -0.65 -4.35 -1.15 L-4.2 -1.35 M3.4 7.0 Q3.65 7.05 3.85 7.2 L3.9 7.25 4.05 7.2 4.1 7.2 4.2 7.15 Q4.6 6.9 5.25 7.15 5.5 7.25 5.65 7.45 5.85 7.65 5.55 7.7 L5.45 7.75 5.45 7.85 5.4 7.9 5.4 7.95 5.35 8.0 Q5.45 8.25 5.4 8.35 5.45 8.45 5.2 8.5 5.1 8.65 5.15 8.7 L4.95 8.65 Q4.6 8.6 4.3 8.45 3.95 8.25 2.45 8.15 L1.15 8.05 Q1.35 8.0 1.5 7.7 1.7 7.35 2.1 7.15 2.5 6.9 2.95 6.9 L3.4 7.0" fill="#c7a36d" fill-rule="evenodd" stroke="none"/>
    <path d="M-4.15 -8.8 L-4.05 -8.8 Q-3.65 -9.25 -3.5 -8.85 L-1.2 -8.6 -5.2 1.9 -5.8 2.25 -5.75 2.25 -5.85 2.15 -5.9 1.7 -5.9 1.85 -6.0 1.55 -5.85 1.45 -6.05 1.45 -6.05 1.3 -6.15 1.35 -6.3 1.25 -6.55 1.3 -6.6 1.25 -6.95 1.15 Q-7.15 1.05 -7.3 0.95 L-6.85 0.9 -7.0 0.25 -6.95 0.15 -6.55 0.55 -6.55 0.2 Q-6.5 0.25 -6.45 0.3 -6.5 -0.5 -6.95 -1.25 -7.45 -2.2 -8.35 -2.75 L-7.85 -2.75 Q-7.6 -2.6 -7.3 -2.5 L-6.8 -1.95 -6.8 -1.75 Q-6.65 -1.35 -6.5 -1.15 -6.3 -0.95 -6.05 -0.9 L-5.9 -1.35 -6.2 -2.35 -6.3 -2.7 -6.4 -2.55 -6.45 -2.6 -6.9 -3.1 -6.9 -3.15 -7.0 -3.3 -6.95 -3.45 -6.9 -3.35 Q-6.8 -3.6 -6.8 -3.9 L-6.8 -4.7 -6.75 -4.95 -6.5 -5.9 -6.6 -5.85 -6.3 -5.95 -6.1 -6.1 Q-5.9 -6.3 -5.6 -6.35 L-5.55 -6.45 -5.5 -6.65 Q-5.0 -7.75 -4.5 -8.25 L-4.25 -8.6 Q-4.25 -8.7 -4.15 -8.75 L-4.15 -8.8 M-6.6 2.75 L-6.75 2.85 -6.75 2.8 -6.65 2.3 -6.6 2.75 M-6.95 3.0 L-7.1 3.05 -6.95 3.0 M-8.7 -1.95 L-8.8 -1.7 -8.8 -2.15 -8.75 -2.2 -8.7 -1.95" fill="#c7a36d" fill-rule="evenodd" stroke="none"/>
    <path d="M-7.0 0.25 L-6.85 0.9 -7.3 0.95 -7.6 0.75 -7.5 0.6 Q-7.3 0.55 -7.15 0.4 L-7.0 0.25 M-6.15 1.35 L-6.05 1.3 -6.05 1.45 -6.15 1.4 -6.15 1.35 M-6.0 1.55 L-5.9 1.85 -5.9 1.7 -5.85 2.15 -5.95 1.95 -6.05 1.8 -6.05 1.75 -6.15 1.65 -6.1 1.55 -6.0 1.55 M-8.8 -1.7 L-8.7 -1.95 Q-8.55 -1.7 -8.3 -1.4 -7.95 -0.9 -7.55 -0.55 -7.8 -0.3 -7.9 0.05 -7.95 0.25 -7.9 0.45 -8.3 0.05 -8.5 -0.5 -8.75 -1.1 -8.8 -1.7" fill="#a9854f" fill-rule="evenodd" stroke="none"/>
    <path d="M-4.15 -8.75 L-4.15 -8.8 -4.15 -8.75 M-5.8 2.25 L-6.6 2.75 -6.65 2.3 -6.75 2.8 -6.75 2.85 -6.95 3.0 -7.1 3.05 -7.9 3.55 Q-7.8 2.95 -7.55 2.45 L-7.5 2.1 Q-9.75 1.9 -10.05 -0.95 L-10.05 -1.55 Q-10.1 -3.55 -8.55 -4.5 L-7.8 -4.25 -7.65 -4.15 -7.6 -4.45 -7.55 -4.8 -7.55 -4.95 -7.5 -5.55 -7.5 -5.7 -7.45 -5.8 -7.35 -6.35 -7.0 -6.45 Q-6.55 -6.25 -6.6 -5.85 L-6.5 -5.9 -6.75 -4.95 -6.8 -4.7 -6.8 -3.9 Q-6.8 -3.6 -6.9 -3.35 L-6.95 -3.45 -7.0 -3.3 -6.9 -3.15 -6.9 -3.1 -6.45 -2.6 -6.4 -2.55 -6.3 -2.7 -6.2 -2.35 -5.9 -1.35 -6.05 -0.9 Q-6.3 -0.95 -6.5 -1.15 -6.65 -1.35 -6.8 -1.75 L-6.8 -1.95 -7.3 -2.5 Q-7.6 -2.6 -7.85 -2.75 L-8.35 -2.75 Q-7.45 -2.2 -6.95 -1.25 -6.5 -0.5 -6.45 0.3 -6.5 0.25 -6.55 0.2 L-6.9 0.0 -6.95 0.15 -7.0 0.25 -7.15 0.4 Q-7.3 0.55 -7.5 0.6 L-7.75 0.6 -7.6 0.75 -7.3 0.95 Q-7.15 1.05 -6.95 1.15 L-6.6 1.25 -6.55 1.3 -6.3 1.25 -6.15 1.35 -6.15 1.4 -6.05 1.45 -5.85 1.45 -6.0 1.55 -6.1 1.55 -6.15 1.65 -6.05 1.75 -6.05 1.8 -5.95 1.95 -5.85 2.15 -5.75 2.25 -5.8 2.25 M-8.7 -1.95 L-8.75 -2.2 -8.8 -2.15 -8.8 -1.7 Q-8.75 -1.1 -8.5 -0.5 -8.3 0.05 -7.9 0.45 L-7.85 0.5 Q-7.95 0.15 -7.7 -0.1 -7.55 -0.25 -7.35 -0.35 L-7.55 -0.55 Q-7.95 -0.9 -8.3 -1.4 -8.55 -1.7 -8.7 -1.95" fill="#1a1a1a" fill-rule="evenodd" stroke="none"/>
    <path d="M-6.55 0.2 L-6.55 0.55 -6.95 0.15 -6.9 0.0 -6.55 0.2 M-7.9 0.45 Q-7.95 0.25 -7.9 0.05 -7.8 -0.3 -7.55 -0.55 L-7.35 -0.35 Q-7.55 -0.25 -7.7 -0.1 -7.95 0.15 -7.85 0.5 L-7.9 0.45 M-7.5 0.6 L-7.6 0.75 -7.75 0.6 -7.5 0.6" fill="#111111" fill-rule="evenodd" stroke="none"/>
  </g>
</svg>
