<?xml version="1.0" encoding="UTF-8" standalone="no"?>
<svg xmlns:ffdec="https://www.free-decompiler.com/flash" xmlns:xlink="http://www.w3.org/1999/xlink" ffdec:objectType="shape" height="15.7px" width="14.95px" xmlns="http://www.w3.org/2000/svg">
  <g transform="matrix(1.0, 0.0, 0.0, 1.0, 4.9, 7.7)">
    <path d="M6.85 2.05 L6.85 2.0 Q7.2 1.7 7.4 1.35 7.25 1.85 6.85 2.05" fill="#a69375" fill-rule="evenodd" stroke="none"/>
    <path d="M8.8 -6.05 Q8.95 -6.2 9.15 -6.2 L9.6 -6.2 10.0 -3.7 Q10.05 -3.35 10.05 -2.95 10.0 -2.5 9.85 -2.1 9.8 -1.2 9.5 -0.3 L8.9 1.3 8.7 1.85 Q8.9 3.9 8.1 5.7 L8.1 5.8 7.8 6.4 7.85 6.35 7.65 6.8 7.3 7.5 6.85 7.55 6.5 7.6 6.4 7.6 6.45 7.55 Q8.0 5.4 8.25 2.75 L8.3 2.55 8.25 1.9 8.3 1.9 Q8.25 1.5 8.3 1.1 8.35 0.25 8.7 -0.55 L8.65 -1.0 8.8 -1.05 8.8 -1.1 8.85 -1.15 8.9 -1.6 Q7.95 -1.5 7.2 -0.75 L7.25 -0.7 7.3 -0.7 7.35 -0.6 7.5 -0.45 Q7.85 0.0 8.05 0.45 8.15 0.8 8.15 1.15 8.05 2.15 6.55 2.85 6.15 3.1 5.8 3.0 5.45 2.9 5.15 2.45 4.8 1.8 4.95 1.3 5.0 1.0 5.2 0.7 L5.25 0.65 5.2 0.65 Q5.15 0.7 5.05 0.75 5.1 -0.4 5.85 -1.25 L6.2 -1.6 6.25 -1.7 Q7.15 -2.7 8.35 -3.05 8.55 -3.05 8.75 -3.0 9.05 -2.9 9.25 -2.7 9.3 -3.1 9.25 -3.5 L9.25 -3.7 8.85 -5.2 8.8 -5.85 8.85 -5.9 8.8 -6.05 M5.1 7.7 Q4.4 8.0 3.35 8.0 3.2 8.0 3.05 7.9 L2.3 7.45 2.05 7.2 Q1.7 6.85 2.1 6.6 2.7 6.75 3.15 7.05 L3.5 7.3 3.7 7.3 3.9 7.4 4.8 7.45 4.75 7.4 5.1 7.45 5.05 7.45 5.25 7.5 5.1 7.7 M-3.5 -0.3 L-3.75 -0.55 Q-3.85 -0.65 -3.85 -0.7 L-3.9 -0.75 Q-4.0 -0.75 -3.85 -0.8 L-3.75 -0.8 -3.6 -0.75 Q-1.55 -0.5 0.25 0.4 1.55 1.05 3.0 1.3 3.1 1.4 3.1 1.55 L2.95 2.15 2.9 2.3 2.6 2.2 2.55 2.25 Q2.3 2.55 1.95 2.65 2.1 2.4 2.35 1.95 L2.3 1.9 2.2 1.9 2.3 2.0 2.15 2.0 Q1.75 2.3 0.85 2.5 L-0.35 2.7 -0.95 2.8 -0.75 2.6 Q-0.4 2.3 0.0 2.05 L-0.8 1.95 -2.05 1.45 -2.65 1.25 -2.75 1.15 -2.85 1.0 -2.85 0.85 -2.8 0.8 -2.75 0.75 -2.55 0.65 Q-2.05 0.8 -1.55 0.95 -2.2 0.65 -2.85 0.25 -3.2 0.0 -3.5 -0.3 M7.25 0.4 Q7.1 0.15 7.1 -0.1 L6.75 -0.2 Q6.35 0.15 5.95 0.35 L5.7 0.5 Q5.8 0.75 5.7 1.05 L5.7 1.1 Q5.8 1.35 5.75 1.7 L5.75 1.75 5.8 1.8 Q5.85 2.0 6.05 2.15 6.5 2.2 6.85 2.05 7.25 1.85 7.4 1.35 L7.45 1.05 7.3 0.5 7.25 0.4 M6.6 0.45 Q7.2 0.5 6.9 1.05 6.65 1.45 6.35 1.1 L6.3 0.8 Q6.3 0.5 6.6 0.45 M5.4 0.65 L5.4 0.65" fill="#1a1a1a" fill-rule="evenodd" stroke="none"/>
    <path d="M7.3 0.5 L7.25 0.5 7.15 0.45 7.25 0.4 7.3 0.5" fill="#736551" fill-rule="evenodd" stroke="none"/>
    <path d="M5.25 0.65 L5.2 0.7 5.25 0.65 M5.4 0.65 L5.4 0.65 M4.65 4.8 L4.65 4.85 4.6 4.75 4.65 4.8" fill="#8c7c63" fill-rule="evenodd" stroke="none"/>
    <path d="M6.85 2.05 Q6.5 2.2 6.05 2.15 5.85 2.0 5.8 1.8 L5.75 1.75 5.75 1.7 Q5.8 1.35 5.7 1.1 L5.7 1.05 Q5.8 0.75 5.7 0.5 L5.95 0.35 Q6.35 0.15 6.75 -0.2 L7.1 -0.1 Q7.1 0.15 7.25 0.4 L7.15 0.45 7.25 0.5 7.3 0.5 7.45 1.05 7.4 1.35 Q7.2 1.7 6.85 2.0 L6.85 2.05 M6.6 0.45 Q6.3 0.5 6.3 0.8 L6.35 1.1 Q6.65 1.45 6.9 1.05 7.2 0.5 6.6 0.45" fill="#ffffff" fill-rule="evenodd" stroke="none"/>
    <path d="M2.3 7.45 L1.0 6.65 Q-0.1 5.0 -2.35 4.0 L-3.45 2.3 Q-4.1 1.3 -4.6 0.35 L-4.9 -0.2 -4.9 -0.55 Q-4.85 -0.85 -4.6 -1.05 L-4.15 -1.1 -4.3 -1.65 Q-4.5 -2.9 -3.7 -3.7 L-3.3 -4.0 Q-0.3 -8.05 4.85 -7.65 7.4 -7.85 8.75 -6.55 L8.8 -6.05 8.85 -5.9 8.8 -5.85 8.85 -5.2 9.25 -3.7 9.25 -3.5 Q9.3 -3.1 9.25 -2.7 9.05 -2.9 8.75 -3.0 8.55 -3.05 8.35 -3.05 7.15 -2.7 6.25 -1.7 L6.2 -1.6 5.85 -1.25 Q5.1 -0.4 5.05 0.75 5.15 0.7 5.2 0.65 L5.25 0.65 5.2 0.7 Q5.0 1.0 4.95 1.3 4.75 1.65 4.6 2.15 L4.6 2.55 Q4.55 2.9 4.6 3.3 4.6 4.2 4.85 5.0 4.9 5.4 5.05 5.75 L5.05 5.9 Q5.2 5.3 5.3 4.65 L5.35 4.0 5.4 3.95 5.35 3.55 Q5.9 4.3 6.7 4.55 6.5 3.95 6.1 3.4 L5.8 3.0 Q6.15 3.1 6.55 2.85 8.05 2.15 8.15 1.15 L8.25 1.15 8.3 1.1 Q8.25 1.5 8.3 1.9 L8.25 1.9 8.3 2.55 8.25 2.75 Q8.0 5.4 6.45 7.55 L6.4 7.6 6.5 7.6 5.1 7.7 5.25 7.5 5.05 7.45 5.1 7.45 4.75 7.4 4.8 7.45 3.9 7.4 3.7 7.3 3.5 7.3 3.15 7.05 Q2.7 6.75 2.1 6.6 1.7 6.85 2.05 7.2 L2.3 7.45 M2.55 2.25 L2.6 2.2 2.9 2.3 2.95 2.15 3.1 1.55 Q3.1 1.4 3.0 1.3 1.55 1.05 0.25 0.4 -1.55 -0.5 -3.6 -0.75 L-3.75 -0.8 -3.85 -0.8 Q-4.0 -0.75 -3.9 -0.75 L-3.85 -0.7 Q-3.85 -0.65 -3.75 -0.55 L-3.5 -0.3 Q-3.35 0.25 -2.95 0.7 L-2.8 0.8 -2.85 0.85 -2.85 1.0 -2.75 1.15 -2.65 1.25 -2.05 1.45 Q-1.75 1.65 -1.45 1.75 L-1.6 1.8 -1.95 1.8 -2.15 1.85 Q-1.65 2.5 -0.85 2.6 L-0.75 2.6 -0.95 2.8 -0.35 2.7 Q-0.65 2.85 -0.95 3.0 -0.25 3.35 0.65 3.1 1.05 3.05 1.35 2.9 0.7 3.65 0.15 4.45 1.1 4.0 1.95 3.15 2.4 2.65 2.55 2.25 M4.65 4.8 L4.6 4.75 4.65 4.85 4.65 4.8" fill="#c7a36d" fill-rule="evenodd" stroke="none"/>
    <path d="M2.55 2.25 Q2.4 2.65 1.95 3.15 1.1 4.0 0.15 4.45 0.7 3.65 1.35 2.9 1.05 3.05 0.65 3.1 -0.25 3.35 -0.95 3.0 -0.65 2.85 -0.35 2.7 L0.85 2.5 Q1.75 2.3 2.15 2.0 L2.3 2.0 2.2 1.9 2.3 1.9 2.35 1.95 Q2.1 2.4 1.95 2.65 2.3 2.55 2.55 2.25 M-0.75 2.6 L-0.85 2.6 Q-1.65 2.5 -2.15 1.85 L-1.95 1.8 -1.6 1.8 -1.45 1.75 Q-1.75 1.65 -2.05 1.45 L-0.8 1.95 0.0 2.05 Q-0.4 2.3 -0.75 2.6 M-2.8 0.8 L-2.95 0.7 Q-3.35 0.25 -3.5 -0.3 -3.2 0.0 -2.85 0.25 -2.2 0.65 -1.55 0.95 -2.05 0.8 -2.55 0.65 L-2.75 0.75 -2.8 0.8 M4.95 1.3 Q4.8 1.8 5.15 2.45 5.45 2.9 5.8 3.0 L6.1 3.4 Q6.5 3.95 6.7 4.55 5.9 4.3 5.35 3.55 L5.4 3.95 5.35 4.0 5.3 4.65 Q5.2 5.3 5.05 5.9 L5.05 5.75 Q4.9 5.4 4.85 5.0 4.6 4.2 4.6 3.3 4.55 2.9 4.6 2.55 L4.6 2.15 Q4.75 1.65 4.95 1.3 M8.15 1.15 Q8.15 0.8 8.05 0.45 7.85 0.0 7.5 -0.45 L7.35 -0.6 7.3 -0.7 7.25 -0.7 7.2 -0.75 Q7.95 -1.5 8.9 -1.6 L8.85 -1.15 8.8 -1.1 8.8 -1.05 8.65 -1.0 8.7 -0.55 Q8.35 0.25 8.3 1.1 L8.25 1.15 8.15 1.15" fill="#a9854f" fill-rule="evenodd" stroke="none"/>
  </g>
</svg>
