<?xml version="1.0" encoding="UTF-8" standalone="no"?>
<svg xmlns:ffdec="https://www.free-decompiler.com/flash" xmlns:xlink="http://www.w3.org/1999/xlink" ffdec:objectType="shape" height="15.7px" width="15.2px" xmlns="http://www.w3.org/2000/svg">
  <g transform="matrix(1.0, 0.0, 0.0, 1.0, 7.6, 7.85)">
    <path d="M1.2 -5.65 L0.65 -5.45 Q2.2 -6.65 4.5 -5.6 5.45 -5.2 6.0 -4.55 6.35 -3.7 6.15 -2.55 L6.1 -2.25 6.05 -2.1 5.9 -2.4 Q6.5 -3.5 5.5 -4.55 4.1 -6.1 2.0 -5.8 1.6 -5.75 1.2 -5.65 M-4.35 5.5 Q-4.95 5.35 -5.15 4.85 -5.55 3.75 -6.0 2.85 L-5.95 2.9 Q-4.2 4.55 -1.8 3.85 0.2 3.3 2.2 2.85 L5.0 2.15 Q5.35 2.25 5.65 2.4 L5.7 2.4 6.0 2.7 Q5.9 3.3 5.7 4.05 L5.6 4.3 Q5.45 4.0 5.1 3.8 4.8 3.65 4.45 3.55 -0.8 3.35 -4.35 5.5" fill="#cccccc" fill-rule="evenodd" stroke="none"/>
    <path d="M5.0 -3.45 Q4.35 -4.05 3.5 -4.3 L3.45 -4.3 3.4 -4.35 3.25 -4.35 3.2 -4.4 3.05 -4.4 3.0 -4.45 2.75 -4.45 2.7 -4.5 2.6 -4.5 Q1.95 -4.65 1.25 -4.7 0.35 -4.55 -0.45 -4.2 L-0.3 -4.45 -0.2 -4.55 0.55 -5.35 0.65 -5.45 1.2 -5.65 Q3.35 -5.5 4.75 -3.8 L5.0 -3.45 M5.1 3.8 Q5.45 4.0 5.6 4.3 5.4 5.2 5.3 6.1 L5.1 6.1 2.05 6.25 -2.55 5.75 -2.45 5.75 -2.2 5.65 Q1.6 3.7 5.2 4.4 5.2 4.05 5.1 3.8" fill="#b3b3b3" fill-rule="evenodd" stroke="none"/>
    <path d="M5.0 -3.45 L4.75 -3.8 Q3.35 -5.5 1.2 -5.65 1.6 -5.75 2.0 -5.8 4.1 -6.1 5.5 -4.55 6.5 -3.5 5.9 -2.4 5.5 -3.0 5.0 -3.45 M-4.35 5.5 Q-0.8 3.35 4.45 3.55 4.8 3.65 5.1 3.8 5.2 4.05 5.2 4.4 1.6 3.7 -2.2 5.65 L-2.45 5.75 -2.55 5.75 -4.05 5.55 -4.2 5.55 -4.35 5.5" fill="#999999" fill-rule="evenodd" stroke="none"/>
    <path d="M0.8 1.45 Q1.25 -0.85 3.0 -2.3 4.35 0.5 1.05 1.75 0.75 1.85 0.8 1.45" fill="#666666" fill-rule="evenodd" stroke="none"/>
    <path d="M0.65 -5.45 L0.55 -5.35 -0.2 -4.55 -0.3 -4.45 -0.45 -4.2 Q0.35 -4.55 1.25 -4.7 1.95 -4.65 2.6 -4.5 L2.7 -4.5 2.75 -4.45 3.0 -4.45 3.05 -4.4 3.2 -4.4 3.25 -4.35 3.4 -4.35 3.45 -4.3 3.5 -4.3 Q4.35 -4.05 5.0 -3.45 5.5 -3.0 5.9 -2.4 L6.05 -2.1 6.1 -2.25 6.15 -2.55 Q6.35 -3.7 6.0 -4.55 5.45 -5.2 4.5 -5.6 2.2 -6.65 0.65 -5.45 M2.05 -3.15 Q-2.7 -2.65 -4.3 2.1 L-4.35 2.2 Q-3.5 2.7 -2.55 2.9 L1.65 2.1 1.7 2.1 1.95 1.95 Q2.85 1.45 3.8 1.25 L4.1 1.25 Q5.05 1.25 5.7 1.45 L5.7 1.4 Q5.2 0.25 4.85 -1.15 L4.7 -1.35 Q3.7 -2.7 2.55 -3.15 L2.05 -3.15 M7.2 -4.15 Q7.5 -3.1 7.2 -2.45 7.0 -1.7 6.4 -1.25 7.0 0.35 6.65 1.9 L6.65 1.85 Q7.3 2.3 7.45 3.15 7.8 4.05 7.35 5.35 6.9 6.65 6.0 6.9 L5.55 7.25 Q4.0 8.3 1.35 7.5 L0.65 7.3 -1.0 7.25 -1.3 7.25 Q-5.8 7.9 -6.8 5.3 -7.45 4.75 -7.55 3.8 -7.75 2.4 -6.65 1.8 -6.3 1.5 -5.6 1.5 -5.15 -0.2 -4.0 -1.55 -3.35 -2.4 -2.55 -3.0 -2.7 -3.5 -2.5 -4.2 -1.6 -7.5 2.1 -7.8 6.35 -8.15 7.15 -4.45 L7.2 -4.15 M5.6 4.3 L5.7 4.05 Q5.9 3.3 6.0 2.7 L5.7 2.4 5.65 2.4 Q5.35 2.25 5.0 2.15 L2.2 2.85 Q0.2 3.3 -1.8 3.85 -4.2 4.55 -5.95 2.9 L-6.0 2.85 Q-5.55 3.75 -5.15 4.85 -4.95 5.35 -4.35 5.5 L-4.2 5.55 -4.05 5.55 -2.55 5.75 2.05 6.25 5.1 6.1 5.3 6.1 Q5.4 5.2 5.6 4.3" fill="#1a1a1a" fill-rule="evenodd" stroke="none"/>
    <path d="M2.05 -3.15 L2.55 -3.15 Q3.7 -2.7 4.7 -1.35 L4.85 -1.15 Q5.2 0.25 5.7 1.4 L5.7 1.45 Q5.05 1.25 4.1 1.25 L3.8 1.25 Q2.85 1.45 1.95 1.95 L1.7 2.1 1.65 2.1 -2.55 2.9 Q-3.5 2.7 -4.35 2.2 L-4.3 2.1 Q-2.7 -2.65 2.05 -3.15 M0.8 1.45 Q0.75 1.85 1.05 1.75 4.35 0.5 3.0 -2.3 1.25 -0.85 0.8 1.45" fill="#444444" fill-rule="evenodd" stroke="none"/>
  </g>
</svg>
