<?xml version="1.0" encoding="UTF-8" standalone="no"?>
<svg xmlns:ffdec="https://www.free-decompiler.com/flash" xmlns:xlink="http://www.w3.org/1999/xlink" ffdec:objectType="shape" height="3.9px" width="11.4px" xmlns="http://www.w3.org/2000/svg">
  <g transform="matrix(1.0, 0.0, 0.0, 1.0, 0.0, 0.0)">
    <path d="M10.5 2.15 L10.5 2.1 9.65 1.75 9.5 1.75 9.5 1.7 9.05 1.7 8.7 1.75 8.65 1.75 8.5 1.8 8.4 1.85 Q8.1 1.9 7.8 2.05 L7.75 2.1 6.35 2.4 6.2 2.35 6.2 2.3 Q6.25 2.2 6.65 1.95 7.1 1.8 7.65 1.6 L8.3 1.4 7.6 1.15 7.65 1.15 7.1 1.2 7.2 1.1 7.8 0.75 Q8.1 0.55 8.45 0.6 9.3 0.65 10.3 1.7 L10.75 2.3 10.75 2.35 10.8 2.4 10.75 2.4 10.65 2.3 10.65 2.25 10.6 2.15 10.5 2.15" fill="#363636" fill-rule="evenodd" stroke="none"/>
    <path d="M7.75 2.1 L7.8 2.05 Q8.1 1.9 8.4 1.85 L8.5 1.8 8.65 1.75 8.7 1.75 9.05 1.7 9.5 1.7 9.5 1.75 9.65 1.75 10.5 2.1 10.5 2.15 10.65 2.3 10.75 2.4 10.85 2.55 10.8 2.4 10.75 2.35 10.75 2.3 10.3 1.7 Q9.3 0.65 8.45 0.6 8.1 0.55 7.8 0.75 L7.2 1.1 7.1 1.2 Q6.75 1.4 6.45 1.5 5.95 1.65 5.35 1.6 L4.9 1.5 5.15 1.9 Q5.65 2.55 6.3 2.6 6.55 2.65 6.9 2.5 L7.65 2.15 7.75 2.1 M10.2 2.9 Q9.75 2.8 9.4 2.75 8.85 2.7 8.25 2.9 7.8 3.0 7.1 3.3 6.3 3.65 6.05 3.75 5.5 3.95 5.1 3.9 4.65 3.85 4.35 3.7 L3.8 3.35 Q3.45 3.1 3.15 2.95 2.7 2.8 2.05 2.75 1.95 2.75 1.45 2.9 0.9 3.1 0.85 3.15 L0.8 3.1 Q0.8 3.0 0.85 2.95 L0.3 3.05 Q0.0 3.0 0.0 2.5 0.0 2.15 0.05 1.95 0.25 1.25 0.65 0.8 1.3 0.1 2.3 0.0 3.25 0.0 3.8 0.15 4.2 0.3 4.45 0.55 L4.65 0.8 4.8 1.0 Q5.05 1.25 5.4 1.25 5.9 1.3 6.35 1.15 L7.05 0.75 Q7.5 0.5 7.7 0.4 8.1 0.25 8.55 0.3 9.5 0.35 10.5 1.6 10.85 2.05 11.1 2.45 11.25 2.6 11.35 2.8 11.45 3.05 11.4 3.35 L11.35 3.35 11.3 3.4 11.25 3.4 11.15 3.25 Q11.05 3.15 10.85 3.1 L10.65 3.05 10.2 2.9 M10.65 2.55 Q10.15 2.0 9.2 1.95 8.9 1.9 8.5 2.05 8.35 2.15 7.8 2.45 L7.0 2.8 Q6.6 2.95 6.2 2.95 5.8 2.9 5.45 2.65 5.15 2.45 4.95 2.1 4.7 1.8 4.65 1.5 L4.65 1.35 4.3 1.0 Q4.1 0.7 3.9 0.6 3.6 0.4 3.1 0.35 1.65 0.2 0.85 1.15 0.5 1.6 0.35 2.1 0.35 2.25 0.3 2.65 L0.3 2.7 0.5 2.7 0.95 2.55 Q1.4 2.45 1.8 2.45 L1.95 2.5 2.3 2.5 Q3.0 2.55 3.8 3.0 L4.3 3.35 Q4.55 3.5 4.65 3.5 4.75 3.5 4.9 3.55 L5.2 3.65 Q5.5 3.65 6.0 3.5 L7.05 3.05 Q7.75 2.75 8.25 2.65 8.9 2.45 9.45 2.5 10.05 2.55 10.65 2.8 L10.95 2.9 10.65 2.55" fill="#111111" fill-rule="evenodd" stroke="none"/>
    <path d="M10.5 2.15 L10.6 2.15 10.65 2.25 10.65 2.3 10.5 2.15 M10.75 2.4 L10.8 2.4 10.85 2.55 10.75 2.4 M7.1 1.2 L7.65 1.15 7.6 1.15 8.3 1.4 7.65 1.6 Q7.1 1.8 6.65 1.95 6.25 2.2 6.2 2.3 L6.2 2.35 6.35 2.4 7.75 2.1 7.65 2.15 6.9 2.5 Q6.55 2.65 6.3 2.6 5.65 2.55 5.15 1.9 L4.9 1.5 5.35 1.6 Q5.95 1.65 6.45 1.5 6.75 1.4 7.1 1.2 M10.65 2.55 L10.95 2.9 10.65 2.8 Q10.05 2.55 9.45 2.5 8.9 2.45 8.25 2.65 7.75 2.75 7.05 3.05 L6.0 3.5 Q5.5 3.65 5.2 3.65 L4.9 3.55 Q4.75 3.5 4.65 3.5 4.55 3.5 4.3 3.35 L3.8 3.0 Q3.0 2.55 2.3 2.5 L1.95 2.5 1.8 2.45 Q1.4 2.45 0.95 2.55 L0.5 2.7 0.3 2.7 0.3 2.65 Q0.35 2.25 0.35 2.1 0.5 1.6 0.85 1.15 1.65 0.2 3.1 0.35 3.6 0.4 3.9 0.6 4.1 0.7 4.3 1.0 L4.65 1.35 4.65 1.5 Q4.7 1.8 4.95 2.1 5.15 2.45 5.45 2.65 5.8 2.9 6.2 2.95 6.6 2.95 7.0 2.8 L7.8 2.45 Q8.35 2.15 8.5 2.05 8.9 1.9 9.2 1.95 10.15 2.0 10.65 2.55" fill="#262626" fill-rule="evenodd" stroke="none"/>
  </g>
</svg>
