<?xml version="1.0" encoding="UTF-8" standalone="no"?>
<svg xmlns:ffdec="https://www.free-decompiler.com/flash" xmlns:xlink="http://www.w3.org/1999/xlink" ffdec:objectType="shape" height="7.6px" width="12.7px" xmlns="http://www.w3.org/2000/svg">
  <g transform="matrix(1.0, 0.0, 0.0, 1.0, 0.0, 0.0)">
    <path d="M12.35 2.1 L11.95 2.35 10.75 3.15 9.6 3.8 Q8.85 4.25 7.9 4.75 6.75 5.05 4.7 5.4 L1.8 5.8 Q1.0 5.95 0.7 6.55 0.5 6.9 0.3 7.5 L0.2 7.4 0.2 7.6 0.15 7.6 0.05 7.2 0.0 6.85 Q0.0 6.6 0.05 6.3 L0.0 6.0 Q0.0 4.7 0.9 3.6 2.05 2.05 4.35 1.85 4.4 1.6 4.75 1.3 5.2 0.9 5.75 0.9 L7.05 1.05 8.0 1.2 Q8.4 1.2 8.9 0.95 L9.8 0.35 Q10.75 -0.35 11.8 0.35 12.15 0.6 12.45 0.95 12.7 1.25 12.7 1.4 12.7 1.85 12.35 2.1 M1.25 4.2 Q1.95 3.7 2.95 3.7 3.5 3.7 4.95 3.95 L6.85 4.2 Q8.25 4.2 9.55 3.65 L10.35 3.15 Q11.55 2.4 12.4 1.55 L12.45 1.4 Q12.45 1.1 11.9 0.7 11.45 0.35 10.95 0.3 L10.65 0.25 Q10.3 0.25 9.6 0.65 L9.2 0.95 8.9 1.15 8.0 1.7 Q6.95 2.0 5.85 2.1 L4.25 2.15 Q3.45 2.15 3.0 2.3 2.35 2.5 1.75 3.0 L1.75 3.05 1.6 3.2 Q0.85 3.9 0.55 4.85 L0.45 5.15 0.45 5.1 1.15 4.25 1.25 4.2 M7.9 1.5 L8.05 1.45 8.2 1.35 7.6 1.4 Q7.25 1.4 6.85 1.3 L5.75 1.2 Q5.2 1.2 4.85 1.55 L4.7 1.75 4.65 1.85 5.05 1.85 7.4 1.7 7.75 1.6 7.9 1.5 M8.0 4.35 L6.9 4.45 4.85 4.25 2.9 4.05 Q1.45 4.05 0.75 5.25 0.5 5.75 0.3 6.6 L0.45 6.35 Q0.9 5.75 1.55 5.6 1.95 5.45 4.5 5.05 7.0 4.7 7.55 4.5 L8.0 4.35" fill="#111111" fill-rule="evenodd" stroke="none"/>
    <path d="M10.95 0.3 Q11.45 0.35 11.9 0.7 12.45 1.1 12.45 1.4 L12.4 1.55 Q11.55 2.4 10.35 3.15 L9.55 3.65 Q8.25 4.2 6.85 4.2 L4.95 3.95 Q3.5 3.7 2.95 3.7 1.95 3.7 1.25 4.2 1.6 3.75 1.9 3.5 2.8 2.8 4.6 2.8 L6.7 2.9 Q7.6 2.9 8.55 2.55 9.15 2.3 9.6 2.0 9.3 1.95 8.3 2.25 7.3 2.55 6.6 2.55 L6.0 2.5 6.05 2.5 Q7.35 2.7 9.4 1.45 10.2 0.95 10.75 0.45 L10.95 0.3 M8.9 1.15 L9.2 0.95 9.6 0.65 Q9.2 1.0 9.0 1.1 L8.9 1.15 M8.05 1.45 L7.9 1.5 7.65 1.45 8.05 1.45 M7.4 1.7 L5.05 1.85 4.65 1.85 4.7 1.85 Q5.25 1.55 5.95 1.55 L7.0 1.7 7.4 1.7 M8.0 4.35 L7.55 4.5 Q7.0 4.7 4.5 5.05 1.95 5.45 1.55 5.6 0.9 5.75 0.45 6.35 L0.3 6.6 Q0.5 5.75 0.75 5.25 1.45 4.05 2.9 4.05 L4.85 4.25 6.9 4.45 8.0 4.35" fill="#262626" fill-rule="evenodd" stroke="none"/>
    <path d="M10.95 0.3 L10.75 0.45 Q10.2 0.95 9.4 1.45 7.35 2.7 6.05 2.5 L6.0 2.5 6.6 2.55 Q7.3 2.55 8.3 2.25 9.3 1.95 9.6 2.0 9.15 2.3 8.55 2.55 7.6 2.9 6.7 2.9 L4.6 2.8 Q2.8 2.8 1.9 3.5 1.6 3.75 1.25 4.2 L1.15 4.25 0.45 5.1 0.45 5.15 0.55 4.85 Q0.85 3.9 1.6 3.2 L1.75 3.05 1.75 3.0 Q2.35 2.5 3.0 2.3 3.45 2.15 4.25 2.15 L5.85 2.1 Q6.95 2.0 8.0 1.7 L8.9 1.15 9.0 1.1 Q9.2 1.0 9.6 0.65 10.3 0.25 10.65 0.25 L10.95 0.3 M8.05 1.45 L7.65 1.45 7.9 1.5 7.75 1.6 7.4 1.7 7.0 1.7 5.95 1.55 Q5.25 1.55 4.7 1.85 L4.65 1.85 4.7 1.75 4.85 1.55 Q5.2 1.2 5.75 1.2 L6.85 1.3 Q7.25 1.4 7.6 1.4 L8.2 1.35 8.05 1.45" fill="#363636" fill-rule="evenodd" stroke="none"/>
  </g>
</svg>
