<?xml version="1.0" encoding="UTF-8" standalone="no"?>
<svg xmlns:ffdec="https://www.free-decompiler.com/flash" xmlns:xlink="http://www.w3.org/1999/xlink" ffdec:objectType="shape" height="3.7px" width="9.55px" xmlns="http://www.w3.org/2000/svg">
  <g transform="matrix(1.0, 0.0, 0.0, 1.0, 0.0, 0.0)">
    <path d="M8.6 1.4 L8.85 1.45 8.9 1.45 9.1 1.85 8.9 1.65 8.6 1.4 M4.8 0.55 L6.1 0.6 Q6.4 0.65 6.7 0.75 6.95 0.8 7.1 0.85 7.05 0.9 6.75 1.05 6.45 1.2 6.45 1.3 L6.45 1.4 Q6.25 1.5 6.05 1.65 L5.45 2.0 Q5.1 2.2 4.75 2.35 L4.55 2.45 2.95 2.8 2.15 2.75 Q1.9 2.75 1.7 2.65 L1.4 2.55 Q1.2 2.55 0.8 2.35 L0.65 2.2 Q1.3 2.25 2.05 1.95 2.45 1.8 3.45 1.2 4.25 0.75 4.8 0.55 M9.15 2.75 L8.95 2.45 Q8.35 1.8 7.4 1.7 6.8 1.65 6.45 1.75 L6.4 1.75 6.65 1.6 6.7 1.6 Q7.25 1.45 8.0 1.5 8.4 1.55 8.65 1.75 8.95 2.0 9.1 2.5 L9.15 2.75" fill="#262626" fill-rule="evenodd" stroke="none"/>
    <path d="M8.9 1.45 L8.85 1.45 8.6 1.4 Q8.3 1.15 7.85 1.1 7.25 1.05 6.6 1.35 L6.5 1.4 6.45 1.4 6.45 1.3 Q6.45 1.2 6.75 1.05 7.05 0.9 7.1 0.85 6.95 0.8 6.7 0.75 6.4 0.65 6.1 0.6 L4.8 0.55 4.95 0.5 Q5.85 0.2 6.75 0.25 7.65 0.35 8.25 0.8 8.65 1.1 8.9 1.45" fill="#363636" fill-rule="evenodd" stroke="none"/>
    <path d="M8.6 1.4 L8.9 1.65 9.1 1.85 8.9 1.45 Q8.65 1.1 8.25 0.8 7.65 0.35 6.75 0.25 5.85 0.2 4.95 0.5 L4.8 0.55 Q4.25 0.75 3.45 1.2 2.45 1.8 2.05 1.95 1.3 2.25 0.65 2.2 L0.8 2.35 Q1.2 2.55 1.4 2.55 L1.7 2.65 Q1.9 2.75 2.15 2.75 L2.95 2.8 4.55 2.45 4.75 2.35 Q5.1 2.2 5.45 2.0 L6.05 1.65 Q6.25 1.5 6.45 1.4 L6.5 1.4 6.6 1.35 Q7.25 1.05 7.85 1.1 8.3 1.15 8.6 1.4 M9.15 2.75 L9.1 2.5 Q8.95 2.0 8.65 1.75 8.4 1.55 8.0 1.5 7.25 1.45 6.7 1.6 L6.65 1.6 6.4 1.75 6.45 1.75 Q6.8 1.65 7.4 1.7 8.35 1.8 8.95 2.45 L9.15 2.75 M9.1 3.2 Q8.95 2.95 8.75 2.7 8.15 2.05 7.3 1.95 6.75 1.9 6.25 2.05 5.95 2.15 5.35 2.45 4.8 2.7 4.5 2.8 L4.1 2.9 Q3.45 3.05 2.7 3.05 L2.05 3.15 Q1.2 3.05 0.65 2.6 L0.55 2.55 Q0.35 2.4 0.25 2.3 0.15 2.15 0.15 2.05 L0.15 2.0 Q0.0 1.85 0.0 1.8 L0.0 1.75 0.2 1.75 Q0.3 1.75 0.4 1.85 0.45 1.9 0.6 1.9 1.3 1.95 2.05 1.65 2.35 1.55 2.7 1.3 L3.4 0.95 Q4.25 0.45 4.9 0.25 5.8 -0.05 6.85 0.0 8.75 0.2 9.35 1.55 9.55 2.05 9.55 2.6 L9.55 2.85 Q9.55 3.0 9.5 3.15 L9.5 3.2 9.45 3.35 9.35 3.5 9.2 3.6 9.15 3.7 9.15 3.65 9.1 3.65 9.15 3.6 9.2 3.35 9.1 3.2" fill="#111111" fill-rule="evenodd" stroke="none"/>
  </g>
</svg>
