<?xml version="1.0" encoding="UTF-8" standalone="no"?>
<svg xmlns:ffdec="https://www.free-decompiler.com/flash" xmlns:xlink="http://www.w3.org/1999/xlink" ffdec:objectType="shape" height="6.1px" width="13.05px" xmlns="http://www.w3.org/2000/svg">
  <g transform="matrix(1.0, 0.0, 0.0, 1.0, 0.0, 0.0)">
    <path d="M12.9 0.45 L12.95 0.6 13.05 1.05 Q13.05 1.35 12.65 1.95 12.25 2.6 11.55 3.2 9.65 4.75 7.1 4.75 6.8 4.75 5.9 4.5 L5.4 4.45 3.9 4.25 2.6 4.25 Q1.7 4.4 1.2 4.7 L0.5 5.15 Q0.35 5.6 0.35 6.1 L0.15 5.9 0.1 5.8 0.1 5.5 0.0 5.2 0.0 4.7 Q0.0 3.55 0.55 2.45 1.4 0.7 3.25 0.7 3.45 0.7 3.9 0.85 4.0 0.5 4.7 0.2 5.65 -0.2 6.4 0.25 L6.65 0.45 Q6.95 -0.2 8.4 0.15 9.35 0.35 10.45 0.8 L11.05 0.7 Q11.3 0.6 11.4 0.6 11.45 0.55 11.45 0.65 12.05 0.45 12.7 0.35 12.85 0.35 12.9 0.45 M12.75 0.65 Q12.65 0.55 12.5 0.55 12.4 0.55 11.1 1.15 L10.6 1.4 9.95 1.7 8.8 2.1 6.6 2.1 Q6.3 2.05 4.9 1.5 4.0 1.15 3.6 1.05 L3.3 1.0 2.65 1.05 Q2.35 1.1 2.05 1.25 1.85 1.35 1.65 1.5 L1.45 1.7 Q1.25 1.9 1.1 2.15 L0.9 2.45 0.8 2.7 0.75 2.75 0.5 3.55 0.45 3.8 Q0.4 4.2 0.35 4.65 L0.7 4.2 Q1.55 3.35 2.8 3.35 3.35 3.35 5.0 3.85 L5.9 4.15 Q6.6 4.25 6.95 4.4 L7.1 4.4 Q9.4 4.4 11.6 2.7 12.2 2.25 12.5 1.55 L12.75 0.85 12.8 0.75 12.8 0.7 12.75 0.65 M7.05 0.75 L7.25 0.9 Q8.15 1.45 9.0 1.45 L9.9 1.35 10.6 1.05 10.5 1.05 Q10.0 1.05 9.1 0.7 8.15 0.4 7.9 0.4 7.2 0.4 6.95 0.65 L6.95 0.7 7.05 0.75 M8.9 1.8 L9.25 1.65 8.9 1.65 Q7.75 1.65 6.85 1.0 L6.75 0.95 6.75 1.0 6.55 0.8 6.2 0.55 Q5.85 0.35 5.45 0.35 4.75 0.35 4.4 0.7 L4.2 0.95 4.4 1.05 4.9 1.25 Q6.35 1.75 6.6 1.8 L8.4 1.8 8.65 1.8 8.85 1.8 8.9 1.8 M1.15 4.4 Q2.0 3.95 2.55 3.95 L3.95 3.95 Q3.1 3.7 2.8 3.7 1.45 3.7 0.8 4.6 L1.15 4.4 M4.15 4.0 L4.15 4.0" fill="#111111" fill-rule="evenodd" stroke="none"/>
    <path d="M12.75 0.65 L12.8 0.7 12.8 0.75 12.75 0.85 12.5 1.55 Q12.2 2.25 11.6 2.7 9.4 4.4 7.1 4.4 L6.95 4.4 Q6.6 4.25 5.9 4.15 L5.0 3.85 Q3.35 3.35 2.8 3.35 1.55 3.35 0.7 4.2 L0.35 4.65 Q0.4 4.2 0.45 3.8 0.75 3.3 1.2 2.9 2.2 2.05 3.6 2.05 4.3 2.05 6.0 2.45 7.7 2.85 8.75 2.85 L9.85 2.8 10.15 2.65 10.05 2.6 9.0 2.55 Q10.05 2.35 11.2 1.8 12.6 1.1 12.75 0.65 M2.65 1.05 L3.3 1.0 3.6 1.05 2.65 1.05 M9.95 1.7 L10.6 1.4 Q10.35 1.5 10.05 1.65 L9.95 1.7 M10.5 1.05 L10.6 1.05 9.9 1.35 9.0 1.45 Q8.15 1.45 7.25 0.9 L7.05 0.75 Q7.3 0.65 7.65 0.65 8.15 0.65 8.75 0.9 9.35 1.15 9.6 1.15 L10.35 1.05 10.5 1.05 M8.9 1.8 L8.9 1.65 9.25 1.65 8.9 1.8 M4.4 1.05 Q4.5 1.0 4.6 0.95 5.0 0.7 5.5 0.7 5.7 0.7 6.0 0.9 L6.55 1.25 Q7.3 1.8 8.4 1.8 L6.6 1.8 Q6.35 1.75 4.9 1.25 L4.4 1.05 M8.65 1.8 L8.85 1.8 8.65 1.8 M1.15 4.4 L0.8 4.6 Q1.45 3.7 2.8 3.7 3.1 3.7 3.95 3.95 L2.55 3.95 Q2.0 3.95 1.15 4.4" fill="#262626" fill-rule="evenodd" stroke="none"/>
    <path d="M10.6 1.4 L11.1 1.15 Q12.4 0.55 12.5 0.55 12.65 0.55 12.75 0.65 12.6 1.1 11.2 1.8 10.05 2.35 9.0 2.55 L10.05 2.6 10.15 2.65 9.85 2.8 8.75 2.85 Q7.7 2.85 6.0 2.45 4.3 2.05 3.6 2.05 2.2 2.05 1.2 2.9 0.75 3.3 0.45 3.8 L0.5 3.55 0.75 2.75 0.8 2.7 0.9 2.45 1.1 2.15 Q1.25 1.9 1.45 1.7 L1.65 1.5 Q1.85 1.35 2.05 1.25 2.35 1.1 2.65 1.05 L3.6 1.05 Q4.0 1.15 4.9 1.5 6.3 2.05 6.6 2.1 L8.8 2.1 9.95 1.7 10.05 1.65 Q10.35 1.5 10.6 1.4 M10.5 1.05 L10.35 1.05 9.6 1.15 Q9.35 1.15 8.75 0.9 8.15 0.65 7.65 0.65 7.3 0.65 7.05 0.75 L6.95 0.7 6.95 0.65 Q7.2 0.4 7.9 0.4 8.15 0.4 9.1 0.7 10.0 1.05 10.5 1.05 M8.9 1.65 L8.9 1.8 8.85 1.8 8.65 1.8 8.4 1.8 Q7.3 1.8 6.55 1.25 L6.0 0.9 Q5.7 0.7 5.5 0.7 5.0 0.7 4.6 0.95 4.5 1.0 4.4 1.05 L4.2 0.95 4.4 0.7 Q4.75 0.35 5.45 0.35 5.85 0.35 6.2 0.55 L6.55 0.8 6.75 1.0 6.75 0.95 6.85 1.0 Q7.75 1.65 8.9 1.65" fill="#363636" fill-rule="evenodd" stroke="none"/>
  </g>
</svg>
