<?xml version="1.0" encoding="UTF-8" standalone="no"?>
<svg xmlns:ffdec="https://www.free-decompiler.com/flash" xmlns:xlink="http://www.w3.org/1999/xlink" ffdec:objectType="shape" height="4.2px" width="9.5px" xmlns="http://www.w3.org/2000/svg">
  <g transform="matrix(1.0, 0.0, 0.0, 1.0, 0.0, 0.0)">
    <path d="M9.1 3.1 L9.0 2.95 Q8.7 2.55 8.35 2.3 8.0 1.9 7.5 1.85 6.8 1.8 6.2 2.05 L6.65 1.75 Q7.3 1.3 7.95 1.35 L8.1 1.35 Q8.5 1.6 8.9 2.5 L9.1 3.1 M4.6 1.05 L4.7 1.05 Q5.3 0.85 6.0 0.95 L6.35 1.0 6.45 1.05 6.4 1.05 Q6.2 1.2 6.0 1.35 5.65 1.65 5.4 2.1 L4.95 2.85 Q4.4 3.3 3.95 3.5 3.3 3.85 2.5 3.85 L2.25 3.85 Q1.75 3.8 1.0 3.55 L0.9 3.5 Q1.4 3.4 1.95 3.1 2.6 2.75 3.55 1.95 L4.3 1.3 4.6 1.05" fill="#262626" fill-rule="evenodd" stroke="none"/>
    <path d="M9.35 3.25 L9.45 3.55 Q9.5 4.0 9.45 4.1 L9.45 4.15 9.4 4.2 Q9.0 4.1 9.05 4.0 L9.1 3.95 9.05 3.7 Q8.9 3.4 8.7 3.05 8.15 2.2 7.5 2.15 6.85 2.1 6.2 2.4 5.9 2.55 5.15 3.05 4.55 3.55 4.15 3.8 3.3 4.25 2.4 4.15 1.65 4.1 1.05 3.8 0.85 3.75 0.65 3.7 L0.3 3.55 0.2 3.55 Q0.05 3.5 0.05 3.45 0.05 3.4 0.05 3.35 L0.0 3.3 0.05 3.25 0.2 3.25 0.35 3.2 1.05 3.05 Q2.25 2.7 3.3 1.7 L3.75 1.2 4.3 0.7 Q5.0 0.1 5.85 0.05 8.2 -0.2 8.95 1.65 9.15 2.05 9.25 2.55 L9.25 2.65 9.35 3.25 M9.1 3.1 L8.9 2.5 Q8.5 1.6 8.1 1.35 L7.95 1.35 Q7.3 1.3 6.65 1.75 L6.2 2.05 Q6.8 1.8 7.5 1.85 8.0 1.9 8.35 2.3 8.7 2.55 9.0 2.95 L9.1 3.1 M4.95 2.85 L5.3 2.55 5.65 2.15 Q6.0 1.7 6.25 1.5 L6.6 1.25 Q6.8 1.15 7.0 1.1 7.45 0.95 8.0 1.0 L8.1 1.05 Q7.4 0.4 6.3 0.3 5.8 0.25 5.0 0.8 L4.6 1.05 4.3 1.3 3.55 1.95 Q2.6 2.75 1.95 3.1 1.4 3.4 0.9 3.5 L1.0 3.55 Q1.75 3.8 2.25 3.85 L2.5 3.85 Q3.3 3.85 3.95 3.5 4.4 3.3 4.95 2.85 M9.2 3.9 L9.2 3.85 9.05 3.45 9.15 3.65 9.2 3.9" fill="#111111" fill-rule="evenodd" stroke="none"/>
    <path d="M4.6 1.05 L5.0 0.8 Q5.8 0.25 6.3 0.3 7.4 0.4 8.1 1.05 L8.0 1.0 Q7.45 0.95 7.0 1.1 6.8 1.15 6.6 1.25 L6.25 1.5 Q6.0 1.7 5.65 2.15 L5.3 2.55 4.95 2.85 5.4 2.1 Q5.65 1.65 6.0 1.35 6.2 1.2 6.4 1.05 L6.45 1.05 6.35 1.0 6.0 0.95 Q5.3 0.85 4.7 1.05 L4.6 1.05" fill="#363636" fill-rule="evenodd" stroke="none"/>
  </g>
</svg>
