<?xml version="1.0" encoding="UTF-8" standalone="no"?>
<svg xmlns:ffdec="https://www.free-decompiler.com/flash" xmlns:xlink="http://www.w3.org/1999/xlink" ffdec:objectType="shape" height="6.4px" width="12.85px" xmlns="http://www.w3.org/2000/svg">
  <g transform="matrix(1.0, 0.0, 0.0, 1.0, 0.0, 0.0)">
    <path d="M12.25 2.0 Q12.45 2.1 12.55 2.35 L12.55 2.45 Q12.25 3.2 11.55 4.0 10.05 5.7 7.55 5.7 6.6 5.7 4.85 5.05 3.1 4.4 2.2 4.4 1.25 4.4 0.6 5.0 L0.3 5.3 Q0.4 4.7 0.5 4.15 L0.5 4.15 0.55 3.95 0.6 3.8 0.65 3.75 Q0.95 3.2 1.4 2.85 2.3 2.15 3.65 2.15 4.55 2.15 6.0 2.9 7.5 3.65 8.4 3.65 9.7 3.65 11.0 3.0 12.1 2.45 12.25 2.0 M7.6 2.35 Q7.65 2.25 7.75 2.25 8.05 2.25 8.9 2.5 L9.8 2.75 9.95 2.75 Q9.55 2.85 9.2 2.85 8.35 2.85 7.6 2.35" fill="#262626" fill-rule="evenodd" stroke="none"/>
    <path d="M12.5 3.25 Q12.15 3.9 11.5 4.45 9.85 6.05 7.55 6.05 6.5 6.05 4.75 5.4 3.0 4.75 2.2 4.75 1.2 4.75 0.65 5.45 0.25 5.95 0.25 6.35 L0.15 6.4 0.05 5.9 0.0 5.75 0.0 5.45 Q0.0 4.3 0.45 3.0 1.0 1.45 1.9 0.85 3.3 -0.1 4.3 0.0 5.05 0.1 5.85 0.8 L6.8 1.75 Q6.85 1.65 7.0 1.55 7.15 1.4 7.45 1.4 7.85 1.4 8.85 1.9 9.9 2.35 10.8 2.35 L11.15 2.25 11.95 1.75 Q12.5 1.75 12.7 2.15 L12.8 2.15 Q12.85 2.3 12.85 2.4 12.85 2.7 12.5 3.25 M12.25 2.0 L11.95 2.0 Q11.55 2.35 11.05 2.6 L10.95 2.65 10.9 2.7 10.85 2.7 10.8 2.75 10.75 2.75 9.35 3.15 9.15 3.15 Q8.2 3.15 7.5 2.7 7.05 2.45 6.5 1.8 5.85 1.1 5.55 0.9 4.95 0.45 4.2 0.45 2.05 0.45 1.05 2.65 L1.0 2.65 1.0 2.7 0.95 2.75 0.6 3.8 0.55 3.95 0.55 4.1 0.5 4.15 0.5 4.15 Q0.4 4.7 0.3 5.3 L0.6 5.0 Q1.25 4.4 2.2 4.4 3.1 4.4 4.85 5.05 6.6 5.7 7.55 5.7 10.05 5.7 11.55 4.0 12.25 3.2 12.55 2.45 L12.55 2.35 Q12.45 2.1 12.25 2.0 M7.6 2.35 Q8.35 2.85 9.2 2.85 9.55 2.85 9.95 2.75 L10.4 2.6 Q9.7 2.55 8.8 2.15 7.75 1.7 7.5 1.7 7.2 1.7 7.1 1.85 L7.0 1.95 7.6 2.35" fill="#111111" fill-rule="evenodd" stroke="none"/>
    <path d="M0.6 3.8 L0.95 2.75 1.0 2.7 1.0 2.65 1.05 2.65 Q2.05 0.45 4.2 0.45 4.95 0.45 5.55 0.9 5.85 1.1 6.5 1.8 7.05 2.45 7.5 2.7 8.2 3.15 9.15 3.15 L9.35 3.15 10.75 2.75 10.8 2.75 10.85 2.7 10.9 2.7 10.95 2.65 11.05 2.6 Q11.55 2.35 11.95 2.0 L12.25 2.0 Q12.1 2.45 11.0 3.0 9.7 3.65 8.4 3.65 7.5 3.65 6.0 2.9 4.55 2.15 3.65 2.15 2.3 2.15 1.4 2.85 0.95 3.2 0.65 3.75 L0.6 3.8 M0.5 4.15 L0.55 4.1 0.55 3.95 0.5 4.15 M9.95 2.75 L9.8 2.75 8.9 2.5 Q8.05 2.25 7.75 2.25 7.65 2.25 7.6 2.35 L7.0 1.95 7.1 1.85 Q7.2 1.7 7.5 1.7 7.75 1.7 8.8 2.15 9.7 2.55 10.4 2.6 L9.95 2.75" fill="#363636" fill-rule="evenodd" stroke="none"/>
  </g>
</svg>
