<?xml version="1.0" encoding="UTF-8" standalone="no"?>
<svg xmlns:ffdec="https://www.free-decompiler.com/flash" xmlns:xlink="http://www.w3.org/1999/xlink" ffdec:objectType="shape" height="3.45px" width="11.55px" xmlns="http://www.w3.org/2000/svg">
  <g transform="matrix(1.0, 0.0, 0.0, 1.0, 0.0, 0.0)">
    <path d="M10.4 3.15 L10.3 3.15 10.3 3.2 10.15 3.2 Q10.1 3.2 9.8 3.0 L9.65 2.9 9.6 2.9 9.3 2.65 Q8.0 1.55 7.1 1.45 6.9 1.45 6.75 1.35 6.65 1.25 6.65 1.2 6.8 0.65 8.6 1.85 L9.2 2.25 8.2 1.5 Q7.55 1.0 7.1 0.8 6.5 0.5 5.8 0.45 L5.7 0.45 6.05 0.35 6.2 0.35 Q7.2 0.45 8.15 1.0 L8.95 1.75 9.85 2.65 Q10.3 3.1 10.65 3.1 L10.6 3.15 10.45 3.15 9.85 2.75 10.4 3.15" fill="#363636" fill-rule="evenodd" stroke="none"/>
    <path d="M9.6 2.9 L9.65 2.9 9.8 3.0 Q10.1 3.2 10.15 3.2 L10.3 3.2 10.3 3.15 10.4 3.15 10.45 3.15 10.6 3.15 10.65 3.1 Q10.3 3.1 9.85 2.65 L8.95 1.75 8.15 1.0 Q7.2 0.45 6.2 0.35 L6.05 0.35 5.7 0.45 5.25 0.55 Q4.7 0.75 3.65 1.25 2.5 1.8 2.0 1.95 L1.95 2.0 1.85 2.05 1.4 2.25 1.75 2.4 2.05 2.55 Q2.2 2.65 2.3 2.65 3.15 2.7 3.8 2.65 4.25 2.55 4.85 2.35 L5.95 2.05 Q6.7 1.85 7.55 1.8 8.1 2.0 9.15 2.6 L9.6 2.9 M8.95 2.9 L8.25 2.45 Q7.85 2.2 7.5 2.1 6.6 2.2 5.9 2.4 L4.85 2.7 Q4.3 2.9 3.85 2.95 3.25 3.0 2.35 2.95 2.05 2.9 1.85 2.85 L1.6 2.65 Q1.45 2.55 1.25 2.5 L0.4 2.45 0.3 2.4 Q0.3 2.35 0.3 2.3 L0.25 2.3 Q0.0 2.2 0.0 2.1 L0.0 2.05 0.1 2.05 0.2 2.0 1.05 1.8 Q2.35 1.45 3.6 0.95 L5.2 0.25 Q6.1 -0.05 6.75 0.0 7.45 0.05 8.1 0.5 8.55 0.75 9.15 1.4 L10.2 2.35 10.65 2.7 Q11.1 2.9 11.55 2.9 L11.55 3.05 Q11.4 3.15 11.05 3.3 L11.0 3.3 10.8 3.4 10.1 3.45 Q9.85 3.45 9.55 3.25 L8.95 2.9" fill="#111111" fill-rule="evenodd" stroke="none"/>
    <path d="M9.6 2.9 L9.15 2.6 Q8.1 2.0 7.55 1.8 6.7 1.85 5.95 2.05 L4.85 2.35 Q4.25 2.55 3.8 2.65 3.15 2.7 2.3 2.65 2.2 2.65 2.05 2.55 L1.75 2.4 1.4 2.25 1.85 2.05 1.95 2.0 2.0 1.95 Q2.5 1.8 3.65 1.25 4.7 0.75 5.25 0.55 L5.7 0.45 5.8 0.45 Q6.5 0.5 7.1 0.8 7.55 1.0 8.2 1.5 L9.2 2.25 8.6 1.85 Q6.8 0.65 6.65 1.2 6.65 1.25 6.75 1.35 6.9 1.45 7.1 1.45 8.0 1.55 9.3 2.65 L9.6 2.9 M10.45 3.15 L10.4 3.15 9.85 2.75 10.45 3.15" fill="#262626" fill-rule="evenodd" stroke="none"/>
  </g>
</svg>
