<?xml version="1.0" encoding="UTF-8" standalone="no"?>
<svg xmlns:ffdec="https://www.free-decompiler.com/flash" xmlns:xlink="http://www.w3.org/1999/xlink" ffdec:objectType="shape" height="7.9px" width="12.9px" xmlns="http://www.w3.org/2000/svg">
  <g transform="matrix(1.0, 0.0, 0.0, 1.0, 0.0, 0.0)">
    <path d="M12.6 1.0 L12.6 0.9 12.65 0.7 12.5 0.7 11.45 1.25 Q10.35 1.85 9.3 1.85 8.85 1.85 7.4 1.3 L6.2 0.95 6.05 0.9 6.0 0.85 5.85 0.85 5.8 0.8 3.8 0.25 3.65 0.25 Q2.3 0.25 1.4 1.15 L0.9 1.8 0.85 1.85 Q0.2 2.95 0.2 3.8 0.2 4.2 0.55 4.9 L0.9 5.6 1.15 5.95 Q1.6 6.6 2.65 7.15 L3.45 7.5 3.45 7.45 3.4 7.35 Q3.35 7.15 3.35 6.75 3.35 6.1 3.7 5.4 4.3 4.3 5.6 4.3 L6.8 4.4 7.95 4.55 Q10.5 4.55 11.8 2.65 12.2 2.05 12.5 1.3 L12.6 1.0 M12.7 0.55 L12.8 0.55 Q12.9 0.8 12.9 1.0 12.9 1.3 12.65 1.85 12.35 2.6 11.85 3.2 10.35 4.9 7.95 4.9 L6.65 4.8 5.6 4.65 Q4.5 4.65 4.0 5.65 3.7 6.25 3.7 6.75 3.7 7.4 4.25 7.8 L4.15 7.9 4.0 7.9 Q3.8 7.9 3.65 7.8 2.0 7.75 0.9 6.05 0.45 5.4 0.2 4.7 0.0 4.1 0.0 3.85 0.0 2.7 0.65 1.65 1.4 0.5 2.8 0.15 3.05 0.0 3.5 0.0 L3.6 0.0 Q4.6 0.05 6.2 0.65 L6.3 0.65 6.4 0.7 6.45 0.7 Q6.7 -0.1 8.3 0.25 L9.8 0.7 Q10.65 0.95 10.95 0.95 L11.5 0.85 12.0 0.7 Q12.05 0.65 12.1 0.65 12.3 0.5 12.4 0.5 L12.7 0.5 12.7 0.55 M10.55 1.45 Q10.9 1.35 11.2 1.2 L10.7 1.25 Q10.2 1.25 9.05 0.9 L9.0 0.85 8.95 0.85 7.9 0.55 7.35 0.55 6.9 0.7 Q6.85 0.75 6.8 0.8 L6.8 0.85 6.9 0.9 Q8.2 1.4 8.85 1.55 L9.05 1.6 9.35 1.65 Q9.95 1.65 10.55 1.45" fill="#111111" fill-rule="evenodd" stroke="none"/>
    <path d="M3.8 0.25 L5.8 0.8 5.85 0.85 6.0 0.85 6.05 0.9 6.2 0.95 7.4 1.3 Q8.85 1.85 9.3 1.85 10.35 1.85 11.45 1.25 L12.5 0.7 12.65 0.7 12.6 0.9 12.6 1.0 Q12.3 1.25 11.6 1.6 10.25 2.3 8.95 2.3 8.0 2.3 7.25 2.1 L7.15 2.1 Q8.9 2.7 9.6 2.7 L10.45 2.6 Q10.35 2.75 10.05 2.85 9.75 2.95 9.45 2.95 8.4 2.95 7.2 2.55 5.95 2.15 4.9 2.15 2.9 2.15 1.6 3.55 L1.25 3.95 1.1 4.2 Q0.95 4.5 0.95 4.75 L0.95 5.3 0.9 5.6 0.55 4.9 Q0.2 4.2 0.2 3.8 0.2 2.95 0.85 1.85 L0.9 1.8 1.4 1.15 Q2.25 0.45 3.45 0.25 L3.8 0.25 M10.55 1.45 L10.45 1.45 Q9.9 1.45 8.85 1.15 7.8 0.85 7.3 0.85 L6.9 0.9 6.8 0.85 6.8 0.8 Q6.85 0.75 6.9 0.7 L7.35 0.55 Q7.55 0.55 7.8 0.55 L7.9 0.55 8.95 0.85 9.0 0.85 9.05 0.9 Q10.2 1.25 10.7 1.25 L11.2 1.2 Q10.9 1.35 10.55 1.45" fill="#363636" fill-rule="evenodd" stroke="none"/>
    <path d="M3.8 0.25 L3.45 0.25 Q2.25 0.45 1.4 1.15 2.3 0.25 3.65 0.25 L3.8 0.25 M0.9 5.6 L0.95 5.3 0.95 4.75 Q0.95 4.5 1.1 4.2 L1.25 3.95 1.6 3.55 Q2.9 2.15 4.9 2.15 5.95 2.15 7.2 2.55 8.4 2.95 9.45 2.95 9.75 2.95 10.05 2.85 10.35 2.75 10.45 2.6 L9.6 2.7 Q8.9 2.7 7.15 2.1 L7.25 2.1 Q8.0 2.3 8.95 2.3 10.25 2.3 11.6 1.6 12.3 1.25 12.6 1.0 L12.5 1.3 Q12.2 2.05 11.8 2.65 10.5 4.55 7.95 4.55 L6.8 4.4 5.6 4.3 Q4.3 4.3 3.7 5.4 3.35 6.1 3.35 6.75 3.35 7.15 3.4 7.35 L3.45 7.45 3.45 7.5 2.65 7.15 Q1.6 6.6 1.15 5.95 L0.9 5.6 M6.9 0.9 L7.3 0.85 Q7.8 0.85 8.85 1.15 9.9 1.45 10.45 1.45 L10.55 1.45 Q9.95 1.65 9.35 1.65 L9.05 1.6 8.85 1.55 Q8.2 1.4 6.9 0.9 M7.9 0.55 L7.8 0.55 Q7.55 0.55 7.35 0.55 L7.9 0.55" fill="#262626" fill-rule="evenodd" stroke="none"/>
  </g>
</svg>
