<?xml version="1.0" encoding="UTF-8" standalone="no"?>
<svg xmlns:ffdec="https://www.free-decompiler.com/flash" xmlns:xlink="http://www.w3.org/1999/xlink" ffdec:objectType="shape" height="2.9px" width="12.95px" xmlns="http://www.w3.org/2000/svg">
  <g transform="matrix(1.0, 0.0, 0.0, 1.0, 0.0, 0.0)">
    <path d="M12.7 2.2 Q12.45 2.4 12.1 2.55 11.15 3.0 10.05 2.9 9.65 2.85 9.25 2.7 8.9 2.55 8.85 2.55 L8.6 2.45 8.15 2.25 Q7.35 2.0 6.55 1.95 L5.8 2.0 4.7 2.2 3.6 2.35 2.8 2.45 2.1 2.3 1.2 2.1 Q0.2 1.85 0.15 1.6 L0.05 1.55 0.0 1.45 0.95 1.35 2.15 1.2 2.8 1.0 3.3 0.75 3.65 0.6 Q3.95 0.4 4.3 0.3 5.3 -0.1 6.75 0.05 7.2 0.05 7.9 0.4 8.25 0.55 9.15 1.05 10.0 1.5 10.45 1.7 11.15 2.0 11.65 2.0 L11.7 2.05 11.9 2.05 Q12.35 1.9 12.65 1.75 L12.7 1.75 12.75 1.8 12.8 1.8 12.9 1.85 Q12.95 1.85 12.95 1.95 L12.7 2.2 M10.65 2.6 L10.7 2.6 11.9 2.35 11.95 2.35 11.95 2.3 12.05 2.3 12.05 2.25 Q11.4 2.45 10.95 2.4 10.4 2.4 10.1 2.25 L9.8 2.15 Q9.7 2.15 9.45 2.05 L8.95 1.75 Q8.1 1.35 7.0 1.25 L6.85 1.25 6.85 1.2 7.2 1.15 7.75 1.1 8.25 1.1 8.55 1.2 7.7 0.7 Q7.2 0.45 6.7 0.4 5.7 0.3 4.85 0.5 4.3 0.65 3.55 1.05 2.7 1.45 2.2 1.55 1.5 1.75 0.7 1.7 L1.3 1.85 2.9 2.15 3.6 2.1 4.6 1.9 Q6.15 1.6 7.0 1.7 7.7 1.75 8.7 2.15 L9.45 2.4 10.1 2.65 10.65 2.6" fill="#111111" fill-rule="evenodd" stroke="none"/>
    <path d="M7.2 1.15 L6.85 1.2 6.85 1.25 7.0 1.25 Q8.1 1.35 8.95 1.75 L9.45 2.05 Q9.7 2.15 9.8 2.15 L10.1 2.25 Q10.4 2.4 10.95 2.4 11.4 2.45 12.05 2.25 L12.05 2.3 11.95 2.3 11.95 2.35 11.9 2.35 10.7 2.6 10.65 2.6 10.2 2.5 Q10.05 2.5 9.7 2.35 L8.9 2.0 Q7.6 1.45 6.35 1.3 L6.3 1.3 Q6.25 1.25 6.3 1.2 6.35 1.0 7.2 1.15 M4.85 0.5 Q5.7 0.3 6.7 0.4 7.2 0.45 7.7 0.7 L8.55 1.2 8.25 1.1 7.75 1.1 6.2 0.55 4.95 0.55 4.85 0.5" fill="#363636" fill-rule="evenodd" stroke="none"/>
    <path d="M7.2 1.15 Q6.35 1.0 6.3 1.2 6.25 1.25 6.3 1.3 L6.35 1.3 Q7.6 1.45 8.9 2.0 L9.7 2.35 Q10.05 2.5 10.2 2.5 L10.65 2.6 10.1 2.65 9.45 2.4 8.7 2.15 Q7.7 1.75 7.0 1.7 6.15 1.6 4.6 1.9 L3.6 2.1 2.9 2.15 1.3 1.85 0.7 1.7 Q1.5 1.75 2.2 1.55 2.7 1.45 3.55 1.05 4.3 0.65 4.85 0.5 L4.95 0.55 6.2 0.55 7.75 1.1 7.2 1.15" fill="#262626" fill-rule="evenodd" stroke="none"/>
  </g>
</svg>
