<?xml version="1.0" encoding="UTF-8" standalone="no"?>
<svg xmlns:ffdec="https://www.free-decompiler.com/flash" xmlns:xlink="http://www.w3.org/1999/xlink" ffdec:objectType="shape" height="7.85px" width="11.55px" xmlns="http://www.w3.org/2000/svg">
  <g transform="matrix(1.0, 0.0, 0.0, 1.0, 0.0, 0.0)">
    <path d="M2.6 3.95 Q2.9 4.6 3.3 4.6 L3.4 4.6 Q3.4 4.5 3.35 4.4 L3.45 3.55 Q3.45 3.45 3.55 3.25 L3.6 3.2 Q3.75 2.5 4.05 2.65 L4.1 2.75 Q4.0 2.95 3.95 3.1 L3.95 3.45 4.05 3.45 Q4.35 3.45 5.3 2.9 6.2 2.35 6.4 2.35 6.65 2.35 6.65 2.7 L6.55 3.3 Q6.8 3.1 7.1 2.35 7.5 1.7 8.35 1.55 L9.4 1.25 10.1 1.0 10.35 0.8 Q10.5 0.7 10.8 0.6 10.85 0.55 10.9 0.55 11.05 0.5 11.15 0.45 L11.2 0.45 11.2 0.6 11.25 0.6 Q11.15 0.9 10.95 1.25 10.8 1.55 10.3 2.2 10.05 2.55 9.1 3.0 8.15 3.45 7.9 3.8 7.5 4.5 7.2 4.8 6.7 5.4 6.05 5.55 5.1 5.8 4.55 6.3 3.95 6.75 3.95 7.3 L3.95 7.45 Q2.25 7.25 1.3 6.3 L1.25 6.2 1.0 5.9 0.9 5.8 0.7 5.2 Q0.55 4.6 0.5 3.95 0.5 3.4 0.75 2.9 1.0 2.45 1.35 2.25 1.45 2.2 1.55 2.2 1.65 1.85 1.9 1.6 2.2 1.3 2.65 1.15 L2.85 1.2 Q2.45 1.25 2.15 1.7 L2.0 1.95 Q1.95 2.15 1.9 2.35 L1.8 2.6 1.8 2.9 Q1.8 3.15 2.0 3.5 2.25 3.9 2.6 3.95 M3.45 2.05 Q3.35 2.15 3.35 2.3 L3.3 2.6 Q3.3 2.85 3.1 2.95 L3.0 2.55 Q3.0 2.15 3.25 1.8 3.4 1.55 3.6 1.55 3.75 1.55 3.9 1.6 L4.0 1.7 Q3.9 1.7 3.85 1.75 L3.35 2.0 3.3 2.0 3.4 2.05 3.45 2.05 M4.85 5.2 L5.05 5.0 Q5.05 4.4 4.4 5.3 L4.4 5.4 4.45 5.4 4.6 5.45 4.85 5.2 M3.3 6.2 Q3.55 6.15 3.7 6.0 3.5 5.95 3.2 6.05 2.95 6.2 2.85 6.3 L3.3 6.2 M3.2 4.1 L3.1 4.0 Q3.15 3.95 3.25 3.9 L3.2 4.1" fill="#262626" fill-rule="evenodd" stroke="none"/>
    <path d="M11.55 0.45 Q11.55 1.75 9.95 2.9 8.25 3.85 8.05 4.15 7.5 5.05 6.75 5.55 6.35 5.85 5.6 6.15 4.95 6.4 4.75 6.65 4.4 6.95 4.4 7.65 L4.4 7.8 Q4.4 7.85 4.25 7.85 L4.05 7.85 Q3.1 7.85 1.85 7.05 0.85 6.35 0.65 6.0 0.25 5.25 0.1 4.75 0.0 4.3 0.0 3.6 0.0 2.5 0.8 1.65 1.5 0.9 2.15 0.9 2.65 0.7 2.85 0.9 3.4 1.35 4.15 1.35 L5.0 1.25 5.55 0.85 Q5.95 0.55 9.6 0.05 L10.2 0.05 10.7 0.0 Q11.3 0.0 11.4 0.2 11.55 0.4 11.55 0.45 M2.6 3.95 Q2.25 3.9 2.0 3.5 1.8 3.15 1.8 2.9 L1.8 2.6 1.9 2.35 Q1.95 2.15 2.0 1.95 L2.15 1.7 Q2.45 1.25 2.85 1.2 L2.65 1.15 Q2.35 1.05 2.05 1.1 L2.0 1.1 Q0.3 2.05 0.3 3.55 0.3 3.95 0.35 4.3 L0.65 5.35 0.7 5.4 0.7 5.5 0.75 5.55 0.9 5.8 1.0 5.9 1.25 6.2 1.3 6.3 Q2.25 7.25 3.95 7.45 L3.95 7.3 Q3.95 6.75 4.55 6.3 5.1 5.8 6.05 5.55 6.7 5.4 7.2 4.8 7.5 4.5 7.9 3.8 8.15 3.45 9.1 3.0 10.05 2.55 10.3 2.2 10.8 1.55 10.95 1.25 11.15 0.9 11.25 0.6 L11.2 0.6 11.2 0.45 Q11.05 0.45 10.8 0.35 L10.75 0.35 10.05 0.25 Q9.45 0.25 8.95 0.45 L8.2 0.65 6.25 0.85 Q6.1 0.85 5.85 1.05 L5.0 1.65 Q4.2 2.15 3.8 2.15 3.65 2.15 3.45 2.05 L3.4 2.05 3.3 2.0 3.35 2.0 3.85 1.75 Q3.9 1.7 4.0 1.7 L4.05 1.65 3.9 1.6 Q3.75 1.55 3.6 1.55 L3.3 1.45 3.25 1.45 3.0 1.4 Q2.6 1.4 2.3 2.15 2.15 2.5 2.1 2.9 2.1 3.1 2.4 3.5 L2.45 3.55 2.7 3.95 Q2.7 4.05 2.65 3.95 L2.6 3.95" fill="#111111" fill-rule="evenodd" stroke="none"/>
    <path d="M11.2 0.45 L11.15 0.45 Q11.05 0.5 10.9 0.55 10.85 0.55 10.8 0.6 10.5 0.7 10.35 0.8 L10.1 1.0 9.4 1.25 8.35 1.55 Q7.5 1.7 7.1 2.35 6.8 3.1 6.55 3.3 L6.65 2.7 Q6.65 2.35 6.4 2.35 6.2 2.35 5.3 2.9 4.35 3.45 4.05 3.45 L3.95 3.45 3.95 3.1 Q4.0 2.95 4.1 2.75 L4.05 2.65 Q3.75 2.5 3.6 3.2 L3.55 3.25 Q3.45 3.45 3.45 3.55 L3.35 4.4 Q3.4 4.5 3.4 4.6 L3.3 4.6 Q2.9 4.6 2.6 3.95 L2.65 3.95 Q2.7 4.05 2.7 3.95 L2.45 3.55 2.4 3.5 Q2.1 3.1 2.1 2.9 2.15 2.5 2.3 2.15 2.6 1.4 3.0 1.4 L3.25 1.45 3.3 1.45 3.6 1.55 Q3.4 1.55 3.25 1.8 3.0 2.15 3.0 2.55 L3.1 2.95 Q3.3 2.85 3.3 2.6 L3.35 2.3 Q3.35 2.15 3.45 2.05 3.65 2.15 3.8 2.15 4.2 2.15 5.0 1.65 L5.85 1.05 Q6.1 0.85 6.25 0.85 L8.2 0.65 8.95 0.45 Q9.45 0.25 10.05 0.25 L10.75 0.35 10.8 0.35 Q11.05 0.45 11.2 0.45 M2.65 1.15 Q2.2 1.3 1.9 1.6 1.65 1.85 1.55 2.2 1.45 2.2 1.35 2.25 1.0 2.45 0.75 2.9 0.5 3.4 0.5 3.95 0.55 4.6 0.7 5.2 L0.9 5.8 0.75 5.55 0.7 5.5 0.7 5.4 0.65 5.35 0.35 4.3 Q0.3 3.95 0.3 3.55 0.3 2.05 2.0 1.1 L2.05 1.1 Q2.35 1.05 2.65 1.15 M4.0 1.7 L3.9 1.6 4.05 1.65 4.0 1.7 M4.85 5.2 L4.6 5.45 4.45 5.4 4.4 5.4 4.4 5.3 Q5.05 4.4 5.05 5.0 L4.85 5.2 M3.2 4.1 L3.25 3.9 Q3.15 3.95 3.1 4.0 L3.2 4.1 M3.3 6.2 L2.85 6.3 Q2.95 6.2 3.2 6.05 3.5 5.95 3.7 6.0 3.55 6.15 3.3 6.2" fill="#363636" fill-rule="evenodd" stroke="none"/>
  </g>
</svg>
