<?xml version="1.0" encoding="UTF-8" standalone="no"?>
<svg xmlns:ffdec="https://www.free-decompiler.com/flash" xmlns:xlink="http://www.w3.org/1999/xlink" ffdec:objectType="shape" height="2.9px" width="8.15px" xmlns="http://www.w3.org/2000/svg">
  <g transform="matrix(1.0, 0.0, 0.0, 1.0, 0.0, 0.0)">
    <path d="M8.1 0.4 L8.15 0.5 Q8.15 1.45 7.8 2.0 7.45 2.6 6.7 2.6 L6.6 2.55 Q6.5 2.5 6.45 2.5 6.35 2.5 5.5 2.05 4.6 1.65 4.5 1.65 4.2 1.65 3.9 1.85 L3.45 2.3 Q3.15 2.6 2.9 2.7 2.6 2.9 2.2 2.8 L1.8 2.9 1.4 2.75 Q1.05 2.65 0.95 2.65 L0.35 2.55 Q0.25 2.55 0.2 2.5 L0.15 2.4 0.15 2.35 0.05 2.25 Q0.0 2.05 0.0 1.9 0.0 1.85 0.0 1.8 L0.05 1.75 0.2 1.85 0.3 1.95 Q0.55 1.9 0.8 1.75 L0.95 1.7 1.15 1.6 Q1.35 1.6 1.65 1.35 L2.3 0.8 Q2.7 0.45 3.1 0.25 3.6 0.0 4.1 0.0 L4.6 0.15 5.1 0.35 Q5.15 0.35 5.15 0.4 5.15 0.45 5.25 0.45 5.35 0.45 5.5 0.55 L5.9 0.85 Q6.45 1.2 6.7 1.2 L7.1 1.2 7.4 1.15 7.7 0.65 8.05 0.1 8.1 0.15 8.1 0.25 8.15 0.35 8.1 0.4 M7.3 2.1 Q7.55 1.9 7.75 1.45 L7.85 1.25 7.8 1.3 Q7.45 2.0 6.8 2.0 6.7 2.0 6.3 1.8 L5.95 1.65 5.8 1.6 5.5 1.45 5.45 1.45 5.45 1.4 5.4 1.4 5.4 1.35 5.35 1.35 4.95 1.05 4.9 1.0 4.95 1.0 5.05 0.95 5.35 0.95 5.5 1.05 5.55 1.05 5.6 1.1 5.95 1.3 Q6.55 1.7 6.8 1.7 7.0 1.7 7.2 1.55 L7.15 1.55 7.1 1.55 6.75 1.6 6.7 1.6 Q6.55 1.6 6.25 1.4 L5.65 1.0 Q4.65 0.45 3.9 0.45 3.65 0.45 3.05 0.8 L2.95 0.85 2.8 0.95 2.3 1.3 1.8 1.8 Q1.5 2.0 0.75 2.2 L1.0 2.35 Q1.45 2.45 2.2 2.45 L2.25 2.5 Q2.65 2.4 2.95 2.15 L3.4 1.8 Q3.65 1.55 3.8 1.45 L4.15 1.35 4.4 1.3 4.45 1.3 Q4.65 1.3 4.95 1.45 5.15 1.55 5.55 1.8 L6.15 2.1 6.2 2.15 Q6.55 2.3 6.75 2.3 7.05 2.3 7.3 2.1" fill="#111111" fill-rule="evenodd" stroke="none"/>
    <path d="M4.95 1.05 L5.35 1.35 5.4 1.35 5.4 1.4 5.45 1.4 5.45 1.45 5.5 1.45 5.8 1.6 5.95 1.65 6.3 1.8 Q6.7 2.0 6.8 2.0 7.45 2.0 7.8 1.3 L7.85 1.25 7.75 1.45 Q7.55 1.9 7.3 2.1 6.95 2.25 6.65 2.25 6.5 2.25 6.2 2.1 L6.15 2.1 5.55 1.8 Q5.15 1.55 4.95 1.45 4.65 1.3 4.45 1.3 L4.4 1.3 4.15 1.35 Q3.65 1.2 3.3 1.2 L3.1 1.2 2.85 1.05 2.9 1.05 2.8 0.95 2.95 0.85 3.05 0.8 Q3.65 0.45 3.9 0.45 4.65 0.45 5.65 1.0 L6.25 1.4 Q6.55 1.6 6.7 1.6 L6.75 1.6 7.1 1.55 7.15 1.55 6.65 1.65 5.6 1.1 5.55 1.05 5.5 1.05 5.35 0.95 5.05 0.95 4.95 1.0 4.75 0.95 4.95 1.05" fill="#363636" fill-rule="evenodd" stroke="none"/>
    <path d="M4.95 1.05 L4.75 0.95 4.95 1.0 4.9 1.0 4.95 1.05 M5.6 1.1 L6.65 1.65 7.15 1.55 7.2 1.55 Q7.0 1.7 6.8 1.7 6.55 1.7 5.95 1.3 L5.6 1.1 M2.8 0.95 L2.9 1.05 2.85 1.05 3.1 1.2 3.3 1.2 Q3.65 1.2 4.15 1.35 L3.8 1.45 Q3.65 1.55 3.4 1.8 L2.95 2.15 Q2.65 2.4 2.25 2.5 L2.2 2.45 Q1.45 2.45 1.0 2.35 L0.75 2.2 Q1.5 2.0 1.8 1.8 L2.3 1.3 2.8 0.95 M6.15 2.1 L6.2 2.1 Q6.5 2.25 6.65 2.25 6.95 2.25 7.3 2.1 7.05 2.3 6.75 2.3 6.55 2.3 6.2 2.15 L6.15 2.1" fill="#262626" fill-rule="evenodd" stroke="none"/>
  </g>
</svg>
