<?xml version="1.0" encoding="UTF-8" standalone="no"?>
<svg xmlns:ffdec="https://www.free-decompiler.com/flash" xmlns:xlink="http://www.w3.org/1999/xlink" ffdec:objectType="shape" height="7.9px" width="11.05px" xmlns="http://www.w3.org/2000/svg">
  <g transform="matrix(1.0, 0.0, 0.0, 1.0, 0.0, 0.0)">
    <path d="M10.8 0.35 L10.85 0.4 Q10.8 0.9 10.75 1.2 10.6 1.75 10.2 2.15 9.95 2.35 9.05 2.8 8.5 3.1 8.2 3.4 7.8 3.6 7.35 3.95 6.35 4.7 5.95 4.9 6.0 4.95 6.15 4.95 6.55 4.95 7.45 4.3 L7.7 4.15 7.4 4.55 Q7.0 5.15 6.4 5.45 5.5 5.85 5.1 6.1 4.25 6.65 4.25 7.05 L4.4 7.5 4.4 7.55 Q3.0 7.2 1.75 6.35 1.05 5.9 0.7 5.45 L0.6 4.65 0.6 4.45 Q0.65 4.2 0.7 3.9 L1.1 2.95 1.15 2.65 Q1.35 1.9 1.75 2.1 L1.75 2.15 1.55 2.5 Q1.3 3.1 1.3 3.75 1.3 4.05 1.35 4.15 L1.35 4.2 1.6 4.65 Q1.6 3.65 1.75 3.05 1.85 2.8 1.95 2.55 L1.85 2.95 1.9 2.95 Q2.0 2.85 2.1 2.95 L2.1 3.1 2.05 3.25 2.0 3.65 2.0 3.75 Q2.0 4.25 2.55 5.1 L2.6 5.25 2.7 5.35 2.65 5.2 2.75 5.4 2.85 5.4 2.85 5.3 2.6 4.75 2.4 4.35 2.4 4.25 Q2.4 3.75 2.7 3.5 L2.75 3.45 3.0 2.9 3.25 2.25 3.3 2.15 Q3.35 2.05 3.55 2.05 L4.1 2.0 4.05 2.05 3.9 2.15 3.35 2.55 3.35 2.65 3.5 2.65 Q3.4 2.9 3.4 3.35 3.4 3.65 3.5 3.9 3.6 4.45 3.9 4.45 4.15 4.45 4.5 3.75 L4.85 2.9 Q5.0 2.55 5.15 2.35 5.9 1.35 6.85 1.35 L7.35 1.45 8.15 1.5 Q8.55 1.5 9.4 0.95 10.25 0.4 10.8 0.35 M2.2 1.45 L2.35 1.5 2.2 1.6 2.2 1.45 M2.8 1.65 L2.9 1.65 2.85 1.65 2.75 1.75 2.8 1.65 M6.45 3.2 Q6.6 2.9 7.1 2.5 7.65 2.1 7.75 1.95 L7.7 1.9 Q6.45 2.05 6.1 2.9 5.9 3.95 5.65 4.3 6.0 4.2 6.2 3.8 L6.45 3.2 M8.4 1.15 L8.5 1.1 8.45 1.15 8.4 1.15 M2.35 3.55 L2.35 3.7 2.3 3.85 2.3 3.75 2.35 3.55 M5.45 4.85 L5.45 4.75 5.4 4.7 Q5.3 4.7 5.05 5.0 4.7 5.35 4.4 5.45 4.0 5.7 3.5 5.9 3.15 6.05 3.15 6.25 3.15 6.4 3.25 6.6 3.6 6.2 4.65 5.65 5.45 5.25 5.45 4.85" fill="#262626" fill-rule="evenodd" stroke="none"/>
    <path d="M10.8 0.35 L10.7 0.3 Q10.6 0.2 10.3 0.2 10.1 0.2 9.65 0.35 L9.4 0.45 Q9.1 0.55 8.65 0.6 L8.1 0.65 Q7.65 0.65 7.4 0.55 L6.8 0.5 Q6.3 0.5 5.8 0.8 5.4 1.05 5.0 1.55 L4.95 1.6 3.9 2.55 3.5 2.65 3.35 2.65 3.35 2.55 3.9 2.15 4.05 2.05 4.1 2.0 4.5 1.6 4.4 1.65 Q4.05 1.75 3.75 1.75 L3.6 1.75 Q3.55 1.8 3.35 1.75 L3.05 1.7 2.9 1.65 2.8 1.65 2.75 1.6 2.55 1.55 Q2.15 2.0 1.95 2.55 1.85 2.8 1.75 3.05 1.6 3.65 1.6 4.65 L1.35 4.2 1.35 4.15 Q1.3 4.05 1.3 3.75 1.3 3.1 1.55 2.5 L1.75 2.15 Q1.95 1.85 2.2 1.6 L2.35 1.5 2.2 1.45 1.8 1.3 Q1.15 1.3 0.65 2.9 0.4 3.75 0.3 4.6 0.3 5.0 0.7 5.45 1.05 5.9 1.75 6.35 3.0 7.2 4.4 7.55 L4.4 7.5 4.25 7.05 Q4.25 6.65 5.1 6.1 5.5 5.85 6.4 5.45 7.0 5.15 7.4 4.55 L7.7 4.15 7.45 4.3 Q6.55 4.95 6.15 4.95 6.0 4.95 5.95 4.9 6.35 4.7 7.35 3.95 7.8 3.6 8.2 3.4 8.5 3.1 9.05 2.8 9.95 2.35 10.2 2.15 10.6 1.75 10.75 1.2 10.8 0.9 10.85 0.4 L10.8 0.35 M11.05 0.4 L11.05 0.55 Q11.05 1.9 10.05 2.55 L9.15 3.1 Q8.6 3.45 8.25 3.85 L7.65 4.75 Q7.2 5.35 6.8 5.55 6.1 5.9 5.6 6.15 4.6 6.75 4.6 7.05 4.6 7.25 4.65 7.35 L5.05 7.75 4.85 7.9 Q4.7 7.9 4.55 7.75 L4.35 7.75 Q3.0 7.75 1.5 6.55 0.0 5.4 0.0 4.6 0.0 3.9 0.35 2.7 0.9 1.0 1.75 1.0 2.0 1.0 2.4 1.25 2.8 1.45 3.75 1.45 4.3 1.45 5.05 1.05 L5.2 0.9 Q5.95 0.15 6.6 0.15 7.5 0.15 7.55 0.25 7.6 0.35 8.05 0.35 8.4 0.35 9.85 0.05 10.9 -0.1 10.95 0.25 L11.05 0.4 M2.4 4.35 L2.6 4.75 2.85 5.3 2.85 5.4 2.75 5.4 2.65 5.2 2.55 5.1 Q2.0 4.25 2.0 3.75 L2.0 3.65 2.05 3.25 2.1 3.1 2.1 2.95 Q2.25 2.25 2.65 1.8 2.7 1.75 2.7 1.8 L2.75 1.85 2.6 2.25 Q2.45 2.65 2.45 2.75 L2.35 3.55 2.3 3.75 2.3 3.85 Q2.3 3.95 2.35 4.05 L2.4 4.35" fill="#111111" fill-rule="evenodd" stroke="none"/>
    <path d="M3.5 2.65 L3.9 2.55 4.95 1.6 5.0 1.55 Q5.4 1.05 5.8 0.8 6.3 0.5 6.8 0.5 L7.4 0.55 Q7.65 0.65 8.1 0.65 L8.65 0.6 Q9.1 0.55 9.4 0.45 L9.65 0.35 Q10.1 0.2 10.3 0.2 10.6 0.2 10.7 0.3 L10.8 0.35 Q10.25 0.4 9.4 0.95 8.55 1.5 8.15 1.5 L7.35 1.45 6.85 1.35 Q5.9 1.35 5.15 2.35 5.0 2.55 4.85 2.9 L4.5 3.75 Q4.15 4.45 3.9 4.45 3.6 4.45 3.5 3.9 3.4 3.65 3.4 3.35 3.4 2.9 3.5 2.65 M0.7 5.45 Q0.3 5.0 0.3 4.6 0.4 3.75 0.65 2.9 1.15 1.3 1.8 1.3 L2.2 1.45 2.2 1.6 Q1.95 1.85 1.75 2.15 L1.75 2.1 Q1.35 1.9 1.15 2.65 L1.1 2.95 0.7 3.9 Q0.65 4.2 0.6 4.45 L0.6 4.65 0.7 5.45 M1.95 2.55 Q2.15 2.0 2.55 1.55 L2.75 1.6 2.8 1.65 2.75 1.75 2.85 1.65 2.9 1.65 3.05 1.7 3.35 1.75 Q3.55 1.8 3.6 1.75 L3.75 1.75 Q4.05 1.75 4.4 1.65 L4.5 1.6 4.1 2.0 3.55 2.05 Q3.35 2.05 3.3 2.15 L3.25 2.25 3.0 2.9 2.75 3.45 2.7 3.5 Q2.4 3.75 2.4 4.25 L2.4 4.35 2.35 4.05 Q2.3 3.95 2.3 3.85 L2.35 3.7 2.35 3.55 2.45 2.75 Q2.45 2.65 2.6 2.25 L2.75 1.85 2.7 1.8 Q2.7 1.75 2.65 1.8 2.25 2.25 2.1 2.95 2.0 2.85 1.9 2.95 L1.85 2.95 1.95 2.55 M8.4 1.15 L8.45 1.15 8.5 1.1 8.4 1.15 M6.45 3.2 L6.2 3.8 Q6.0 4.2 5.65 4.3 5.9 3.95 6.1 2.9 6.45 2.05 7.7 1.9 L7.75 1.95 Q7.65 2.1 7.1 2.5 6.6 2.9 6.45 3.2 M2.65 5.2 L2.7 5.35 2.6 5.25 2.55 5.1 2.65 5.2 M5.45 4.85 Q5.45 5.25 4.65 5.65 3.6 6.2 3.25 6.6 3.15 6.4 3.15 6.25 3.15 6.05 3.5 5.9 4.0 5.7 4.4 5.45 4.7 5.35 5.05 5.0 5.3 4.7 5.4 4.7 L5.45 4.75 5.45 4.85" fill="#363636" fill-rule="evenodd" stroke="none"/>
  </g>
</svg>
