<?xml version="1.0" encoding="UTF-8" standalone="no"?>
<svg xmlns:ffdec="https://www.free-decompiler.com/flash" xmlns:xlink="http://www.w3.org/1999/xlink" ffdec:objectType="shape" height="13.65px" width="14.4px" xmlns="http://www.w3.org/2000/svg">
  <g transform="matrix(1.0, 0.0, 0.0, 1.0, 4.35, 6.85)">
    <path d="M3.25 -0.1 L3.25 -0.15 3.25 -0.1 M-0.85 -0.9 L-0.85 -0.9 M5.6 0.3 L5.65 0.3 5.65 0.35 5.6 0.3 M5.85 0.35 L5.85 0.3 6.0 0.3 5.95 0.35 Q5.95 0.45 6.1 0.5 L6.25 0.6 6.2 0.65 6.1 0.65 5.85 0.35 M7.55 -0.55 L7.6 -0.5 7.45 -0.5 7.55 -0.55 M3.1 0.1 L3.05 0.15 3.0 0.2 3.0 0.15 3.05 0.15 3.0 0.1 3.05 0.05 3.1 0.1 M2.75 0.15 L2.65 0.35 2.65 0.2 2.75 0.15 M-0.8 -0.1 L-0.85 -0.1 -0.9 -0.15 -0.8 -0.1 M0.05 1.0 L0.5 1.1 0.2 1.1 0.05 1.0 M0.1 0.45 L0.1 0.45 M-0.45 0.15 L-0.5 0.2 -0.65 0.05 -0.45 0.15" fill="#a69375" fill-rule="evenodd" stroke="none"/>
    <path d="M3.25 -0.15 L3.25 -0.1 3.3 -0.1 3.3 -0.15 3.25 -0.15 M-2.95 -2.35 L-3.0 -2.4 Q-3.1 -2.5 -3.1 -2.55 L-3.15 -2.55 Q-3.2 -2.6 -3.1 -2.6 L-3.0 -2.65 -2.85 -2.6 Q-0.8 -2.35 1.0 -1.45 2.3 -0.8 3.75 -0.55 3.85 -0.45 3.85 -0.3 L3.8 -0.05 3.7 0.3 3.55 0.85 3.5 0.95 3.3 1.0 Q3.15 0.95 3.1 0.8 3.05 0.7 3.05 0.6 3.1 0.4 3.15 0.25 L3.2 0.15 3.1 0.1 3.05 0.05 3.0 0.1 3.05 0.15 3.0 0.15 2.75 0.15 2.65 0.2 2.6 0.2 2.5 0.1 Q2.4 0.05 2.25 0.05 L2.05 0.1 2.05 0.4 2.0 0.45 1.95 0.65 2.0 0.6 2.0 0.65 2.4 0.55 2.45 0.65 Q2.6 0.9 2.1 1.05 L1.5 1.25 0.75 1.4 0.7 1.5 0.45 1.5 0.15 1.45 Q-0.35 1.3 -0.8 1.0 -1.2 0.65 -1.55 0.2 -1.85 -0.25 -1.85 -0.6 L-2.0 -0.65 -2.0 -0.7 -2.05 -0.75 -2.1 -0.85 -2.1 -1.0 -2.0 -1.1 -1.8 -1.2 Q-1.35 -1.05 -0.85 -0.9 -1.5 -1.2 -2.05 -1.6 -2.5 -1.9 -2.95 -2.35 M-0.85 -0.9 L-0.85 -0.9 M8.8 -6.05 Q8.9 -6.25 9.15 -6.2 L9.6 -6.2 10.05 -3.55 Q10.05 -3.3 10.05 -2.95 10.0 -2.5 9.85 -2.1 9.8 -1.2 9.5 -0.3 L8.7 1.85 Q8.9 3.9 8.1 5.7 L8.1 5.8 7.8 6.4 7.85 6.35 7.65 6.8 7.6 6.8 7.25 6.3 Q8.1 4.7 8.3 2.85 L8.3 2.6 Q8.3 2.05 8.25 1.5 L8.25 1.4 8.3 1.35 Q8.25 1.15 8.25 0.95 8.15 0.5 8.3 0.0 8.1 0.0 8.0 0.05 7.95 0.6 7.65 1.15 L7.65 1.25 7.5 1.4 7.45 1.35 7.35 1.25 6.7 1.25 Q6.5 1.15 6.4 1.1 L6.3 1.0 Q6.2 1.0 6.15 0.9 L6.2 0.85 Q6.1 0.75 6.2 0.65 L6.25 0.6 6.6 0.7 Q6.45 0.55 6.5 0.35 L6.5 0.3 6.55 0.2 6.4 0.3 6.0 0.3 5.85 0.3 5.85 0.35 5.85 0.45 5.65 0.3 5.6 0.3 5.45 0.15 5.45 0.1 Q5.4 -0.25 5.5 -0.6 5.6 -1.05 6.1 -1.2 6.35 -1.5 6.75 -1.75 7.95 -2.4 9.25 -2.8 L9.3 -3.05 9.25 -3.45 9.25 -3.55 9.1 -4.1 Q8.85 -5.05 8.8 -6.05 M5.25 6.05 L5.2 6.05 5.0 5.9 5.05 5.95 5.1 5.95 Q5.2 5.95 5.25 6.0 L5.25 6.05 M8.6 -0.9 L8.65 -0.9 8.65 -1.0 8.8 -1.4 Q8.35 -0.9 7.55 -0.55 L7.45 -0.5 7.6 -0.5 8.45 -0.5 8.5 -0.6 8.6 -0.9 M7.7 0.15 L7.65 0.15 7.65 0.05 7.55 0.0 7.4 -0.05 7.4 0.35 Q7.35 0.6 7.2 0.7 L7.55 0.55 7.45 0.7 7.5 0.7 7.55 0.75 7.6 0.5 Q7.65 0.3 7.7 0.2 L7.75 0.15 7.7 0.15 M3.7 4.85 L4.75 5.0 5.65 5.05 5.65 5.0 5.95 5.05 6.1 5.1 Q6.0 5.3 5.85 5.4 L5.8 5.45 5.8 5.55 5.75 5.5 5.65 5.55 5.1 5.7 5.05 5.75 5.0 5.75 4.85 5.7 Q4.75 5.65 4.65 5.65 L4.15 5.65 4.1 5.6 Q3.35 5.3 3.5 5.0 L3.5 4.9 Q3.5 4.85 3.55 4.85 L3.6 4.85 3.7 4.85 M0.5 1.1 L0.95 0.95 1.2 0.85 1.15 0.85 1.45 0.8 Q1.3 0.8 1.1 0.6 0.9 0.4 1.0 0.25 0.05 0.2 -0.8 -0.1 L-0.9 -0.15 -1.2 -0.25 -1.35 -0.4 -1.4 -0.35 Q-0.95 0.3 -0.25 0.8 L0.05 1.0 0.2 1.1 0.5 1.1" fill="#1a1a1a" fill-rule="evenodd" stroke="none"/>
    <path d="M3.25 -0.1 L3.25 -0.15 3.3 -0.15 3.3 -0.1 3.25 -0.1 M4.15 5.7 L3.8 5.65 3.45 5.7 3.4 5.4 3.4 5.35 Q3.4 5.1 3.5 5.0 3.35 5.3 4.1 5.6 L4.15 5.65 4.15 5.7 M7.7 0.15 L7.75 0.15 7.7 0.2 7.7 0.15 M5.1 5.7 L5.05 5.75 5.1 5.7 M3.7 4.85 L3.6 4.85 3.6 4.8 3.7 4.85" fill="#8c7c63" fill-rule="evenodd" stroke="none"/>
    <path d="M3.3 1.0 L3.5 0.95 3.55 0.85 3.7 0.3 3.8 -0.05 3.85 -0.3 Q3.85 -0.45 3.75 -0.55 2.3 -0.8 1.0 -1.45 -0.8 -2.35 -2.85 -2.6 L-3.0 -2.65 -3.1 -2.6 Q-3.2 -2.6 -3.15 -2.55 L-3.1 -2.55 Q-3.1 -2.5 -3.0 -2.4 L-2.95 -2.35 Q-3.0 -2.25 -2.95 -2.15 -3.0 -1.9 -2.85 -1.7 L-2.5 -1.2 Q-2.3 -0.9 -2.05 -0.75 L-2.0 -0.7 -2.0 -0.65 -1.85 -0.6 Q-1.85 -0.25 -1.55 0.2 -1.2 0.65 -0.8 1.0 -0.85 1.25 -0.5 1.45 -0.35 1.55 -0.15 1.6 L-0.05 1.65 -0.15 1.65 Q0.2 1.85 0.6 1.85 1.05 1.95 1.6 1.85 1.95 1.8 2.2 1.7 L1.85 2.15 Q2.35 2.0 2.8 1.6 3.15 1.3 3.3 1.0 M8.8 -6.05 Q8.85 -5.05 9.1 -4.1 L9.25 -3.55 9.25 -3.45 9.3 -3.05 9.25 -2.8 Q7.95 -2.4 6.75 -1.75 6.35 -1.5 6.1 -1.2 5.6 -1.05 5.5 -0.6 5.4 -0.25 5.45 0.1 5.1 0.65 4.95 1.3 L4.95 1.8 Q5.25 2.4 5.4 3.1 L5.45 3.4 5.7 3.1 5.7 2.4 Q5.65 2.1 5.85 1.85 L5.9 1.85 5.75 1.7 5.75 1.25 5.85 1.35 5.85 1.3 6.1 1.4 6.45 1.45 Q7.15 1.65 7.45 1.35 L7.5 1.4 7.65 1.25 Q7.8 1.25 8.0 1.15 8.15 1.05 8.25 0.95 8.25 1.15 8.3 1.35 L8.25 1.4 8.25 1.5 Q8.3 2.05 8.3 2.6 L8.3 2.85 Q8.1 4.7 7.25 6.3 L7.2 6.2 6.25 6.35 5.25 6.1 5.25 6.05 5.25 6.0 Q5.2 5.95 5.1 5.95 L5.05 5.95 5.05 5.9 Q4.9 5.9 4.75 5.8 L4.75 5.85 Q4.45 5.7 4.15 5.7 L4.15 5.65 4.65 5.65 Q4.75 5.65 4.85 5.7 L5.0 5.75 5.05 5.75 5.1 5.7 5.65 5.55 5.75 5.5 5.8 5.55 5.8 5.45 5.85 5.4 Q6.0 5.3 6.1 5.1 L5.95 5.05 5.65 5.0 5.65 5.05 4.75 5.0 3.7 4.85 3.6 4.8 3.6 4.85 3.55 4.85 Q3.5 4.85 3.5 4.9 L3.5 5.0 Q3.4 5.1 3.4 5.35 L3.4 5.4 3.45 5.7 1.95 5.45 1.65 5.3 Q-0.2 4.95 -1.95 3.25 L-2.35 2.9 -3.75 0.15 -4.3 -1.65 Q-4.5 -2.8 -3.8 -3.55 L-3.3 -4.0 Q1.15 -6.6 7.25 -6.75 8.0 -7.0 8.5 -6.6 L8.6 -6.5 8.8 -6.05 M6.2 -5.85 L6.85 -6.6 6.1 -5.9 6.2 -5.85" fill="#c7a36d" fill-rule="evenodd" stroke="none"/>
    <path d="M6.2 -5.85 L6.1 -5.9 6.85 -6.6 6.2 -5.85" fill="#bfa987" fill-rule="evenodd" stroke="none"/>
    <path d="M5.0 5.9 L4.75 5.85 4.75 5.8 Q4.9 5.9 5.05 5.9 L5.05 5.95 5.0 5.9 M8.6 -0.9 L8.55 -0.95 8.65 -1.0 8.65 -0.9 8.6 -0.9" fill="#736551" fill-rule="evenodd" stroke="none"/>
    <path d="M3.3 1.0 Q3.15 1.3 2.8 1.6 2.35 2.0 1.85 2.15 L2.2 1.7 Q1.95 1.8 1.6 1.85 1.05 1.95 0.6 1.85 0.2 1.85 -0.15 1.65 L-0.05 1.65 -0.15 1.6 Q-0.35 1.55 -0.5 1.45 -0.85 1.25 -0.8 1.0 -0.35 1.3 0.15 1.45 L0.45 1.5 0.7 1.5 0.75 1.4 1.5 1.25 2.1 1.05 Q2.6 0.9 2.45 0.65 L2.45 0.6 2.5 0.55 2.65 0.35 2.75 0.15 3.0 0.15 3.0 0.2 3.05 0.15 3.1 0.1 3.2 0.15 3.15 0.25 Q3.1 0.4 3.05 0.6 3.05 0.7 3.1 0.8 3.15 0.95 3.3 1.0 M-2.05 -0.75 Q-2.3 -0.9 -2.5 -1.2 L-2.85 -1.7 Q-3.0 -1.9 -2.95 -2.15 -3.0 -2.25 -2.95 -2.35 -2.5 -1.9 -2.05 -1.6 -1.5 -1.2 -0.85 -0.9 -1.35 -1.05 -1.8 -1.2 L-2.0 -1.1 -2.1 -1.0 -2.1 -0.85 -2.05 -0.75 M5.45 0.1 L5.45 0.15 5.6 0.3 5.65 0.35 5.65 0.3 5.85 0.45 5.85 0.35 6.1 0.65 6.2 0.65 Q6.1 0.75 6.2 0.85 L6.15 0.9 Q6.2 1.0 6.3 1.0 L6.4 1.1 Q6.5 1.15 6.7 1.25 L7.35 1.25 7.45 1.35 Q7.15 1.65 6.45 1.45 L6.1 1.4 5.85 1.3 5.85 1.35 5.75 1.25 5.75 1.7 5.9 1.85 5.85 1.85 Q5.65 2.1 5.7 2.4 L5.7 3.1 5.45 3.4 5.4 3.1 Q5.25 2.4 4.95 1.8 L4.95 1.3 Q5.1 0.65 5.45 0.1 M7.65 1.25 L7.65 1.15 Q7.95 0.6 8.0 0.05 8.1 0.0 8.3 0.0 8.15 0.5 8.25 0.95 8.15 1.05 8.0 1.15 7.8 1.25 7.65 1.25 M8.65 -1.0 L8.55 -0.95 8.6 -0.9 8.5 -0.6 8.45 -0.5 7.6 -0.5 7.55 -0.55 Q8.35 -0.9 8.8 -1.4 L8.65 -1.0" fill="#a9854f" fill-rule="evenodd" stroke="none"/>
    <path d="M6.0 0.3 L6.4 0.3 6.55 0.2 6.5 0.3 6.5 0.35 Q6.45 0.55 6.6 0.7 L6.25 0.6 6.1 0.5 Q5.95 0.45 5.95 0.35 L6.0 0.3 M7.7 0.2 Q7.65 0.3 7.6 0.5 L7.55 0.75 7.5 0.7 7.45 0.7 7.55 0.55 7.2 0.7 Q7.35 0.6 7.4 0.35 L7.4 -0.05 7.55 0.0 7.65 0.05 7.65 0.15 7.7 0.15 7.7 0.2 M2.65 0.35 L2.5 0.55 2.45 0.6 2.45 0.65 2.4 0.55 2.0 0.65 2.0 0.6 1.95 0.65 2.0 0.45 2.05 0.4 2.05 0.1 2.25 0.05 Q2.4 0.05 2.5 0.1 L2.6 0.2 2.65 0.2 2.65 0.35 M-0.8 -0.1 Q0.05 0.2 1.0 0.25 0.9 0.4 1.1 0.6 1.3 0.8 1.45 0.8 L1.15 0.85 1.2 0.85 0.95 0.95 0.5 1.1 0.05 1.0 -0.25 0.8 Q-0.95 0.3 -1.4 -0.35 L-1.35 -0.4 -1.2 -0.25 -0.9 -0.15 -0.85 -0.1 -0.8 -0.1 M0.1 0.45 L0.1 0.45 M-0.45 0.15 L-0.65 0.05 -0.5 0.2 -0.45 0.15" fill="#ffffff" fill-rule="evenodd" stroke="none"/>
  </g>
</svg>
