<?xml version="1.0" encoding="UTF-8" standalone="no"?>
<svg xmlns:ffdec="https://www.free-decompiler.com/flash" xmlns:xlink="http://www.w3.org/1999/xlink" ffdec:objectType="shape" height="23.15px" width="17.95px" xmlns="http://www.w3.org/2000/svg">
  <g transform="matrix(1.0, 0.0, 0.0, 1.0, 10.05, 9.05)">
    <path d="M-6.5 -5.9 L-6.25 -5.95 -6.1 -6.0 -5.55 -5.85 -5.45 -5.85 -6.15 -3.65 -6.8 -3.9 -6.5 -5.9" fill="#ffffff" fill-rule="evenodd" stroke="none"/>
    <path d="M7.45 5.3 Q7.7 5.15 7.8 5.25 8.0 5.4 7.75 6.3 L7.75 6.25 7.65 6.25 7.15 6.2 7.2 6.15 7.35 5.7 7.35 5.65 7.4 5.45 7.4 5.35 7.45 5.3 M-7.3 -4.2 L-7.6 -4.45 -7.55 -4.8 -7.5 -5.55 Q-7.6 -5.6 -7.55 -5.85 -7.5 -6.1 -7.4 -6.25 L-7.35 -6.35 Q-7.2 -6.45 -7.0 -6.45 -6.75 -6.4 -6.6 -6.15 -6.55 -6.0 -6.55 -5.85 L-6.5 -5.9 -6.8 -3.9 -7.3 -4.2 M-6.1 -6.0 L-5.55 -5.85 -6.1 -6.0 M-5.45 -5.85 L-4.5 -6.05 -6.15 -3.65 -5.45 -5.85" fill="#1a1a1a" fill-rule="evenodd" stroke="none"/>
    <path d="M-4.5 -6.05 L-3.6 -6.65 Q-3.15 -6.95 -1.65 -6.75 1.35 -6.8 2.0 -5.5 2.7 -4.15 3.05 -3.0 3.4 -1.85 3.6 -0.55 3.8 0.7 4.25 1.8 L4.35 2.15 4.85 3.2 5.2 3.8 5.35 3.95 Q6.05 4.5 6.6 4.8 7.2 5.1 7.25 5.05 L7.35 5.2 7.45 5.3 7.4 5.35 7.4 5.45 7.35 5.65 7.35 5.7 7.2 6.15 7.15 6.2 5.5 7.0 Q5.05 7.45 4.3 7.0 L4.05 6.85 3.65 7.25 Q3.4 7.05 3.15 6.8 1.15 4.85 -1.05 3.3 L-3.1 1.5 Q-4.6 4.7 -3.85 9.8 -8.7 9.05 -6.8 1.85 L-7.3 -4.2 -6.8 -3.9 -6.15 -3.65 -4.5 -6.05" fill="#c7a36d" fill-rule="evenodd" stroke="none"/>
    <path d="M1.9 5.2 L2.0 5.65 Q2.2 5.9 2.55 6.0 2.7 6.05 2.65 6.25 L3.05 6.35 3.15 6.5 4.3 6.7 Q6.0 6.35 7.75 6.05 6.95 8.1 5.2 9.95 L4.45 12.75 Q2.65 14.55 0.5 13.75 L-3.35 9.55 -4.35 9.55 Q-6.4 2.15 -3.65 -1.4 -3.45 -0.1 -2.8 1.15 -2.15 2.35 -1.0 3.1 L-0.75 3.35 -0.25 3.4 -0.1 3.65 1.0 4.3 Q1.25 4.45 1.3 4.75 L1.5 4.85 1.9 5.2" fill="#c7a36d" fill-rule="evenodd" stroke="none"/>
    <path d="M-1.0 6.6 L-1.1 6.65 -1.0 6.6 M-1.35 7.15 L-0.7 8.1 Q-0.6 8.0 -0.55 7.8 -0.45 7.5 -0.2 7.4 L0.2 7.3 0.45 7.5 Q0.7 7.6 0.95 7.7 L1.35 7.9 1.7 7.9 1.9 7.95 2.75 7.95 2.85 7.95 2.9 7.9 Q3.05 7.95 3.2 7.85 L3.2 7.8 3.35 7.65 3.45 7.75 Q3.6 7.9 3.55 8.25 3.5 8.7 3.75 8.9 L3.65 9.0 Q3.15 9.85 1.85 9.7 L0.35 9.05 -1.35 7.15 M3.4 7.2 L3.65 7.15 3.8 7.15 3.95 7.35 4.2 8.0 4.55 7.95 3.85 8.8 4.1 8.15 Q4.1 7.7 3.8 7.45 3.65 7.35 3.45 7.3 L3.4 7.3 3.4 7.2 M2.95 7.75 L2.9 7.85 Q2.8 7.8 2.95 7.75 M0.6 7.6 L0.5 7.5 0.5 7.55 0.45 7.6 Q0.2 7.85 0.2 8.25 0.15 8.9 0.55 9.2 L0.65 8.45 Q0.7 8.05 0.65 7.8 L0.6 7.6 M2.2 8.9 L2.2 9.05 Q2.15 9.2 2.25 9.3 L2.3 9.35 2.55 9.5 Q2.7 9.3 2.7 9.05 2.75 8.65 2.4 8.55 2.2 8.65 2.2 8.9" fill="#ffffff" fill-rule="evenodd" stroke="none"/>
    <path d="M-1.1 6.65 L-1.0 6.6 -0.2 7.0 0.15 7.25 0.2 7.3 -0.2 7.4 Q-0.45 7.5 -0.55 7.8 -0.6 8.0 -0.7 8.1 L-1.35 7.15 -1.1 6.65 M3.4 7.2 Q3.4 7.1 3.45 7.0 3.5 6.9 3.6 6.8 L4.05 6.6 4.15 6.65 4.3 6.8 4.35 7.0 4.3 7.15 4.35 7.15 Q4.4 7.2 4.4 7.3 L4.4 7.4 4.55 7.95 4.2 8.0 3.95 7.35 3.8 7.15 3.65 7.15 3.4 7.2 M3.4 7.3 L3.45 7.3 Q3.65 7.35 3.8 7.45 4.1 7.7 4.1 8.15 L3.85 8.8 3.75 8.9 Q3.5 8.7 3.55 8.25 3.6 7.9 3.45 7.75 L3.35 7.65 3.2 7.8 3.2 7.85 Q3.05 7.95 2.9 7.9 L2.95 7.85 2.9 7.85 2.95 7.75 3.0 7.8 3.3 7.55 3.35 7.55 Q3.35 7.5 3.4 7.5 L3.4 7.3 M0.6 7.6 L0.65 7.8 Q0.7 8.05 0.65 8.45 L0.55 9.2 Q0.15 8.9 0.2 8.25 0.2 7.85 0.45 7.6 L0.5 7.55 0.5 7.5 0.6 7.6 M2.2 8.9 Q2.2 8.65 2.4 8.55 2.75 8.65 2.7 9.05 2.7 9.3 2.55 9.5 L2.3 9.35 2.25 9.3 Q2.15 9.2 2.2 9.05 L2.2 8.9" fill="#cccccc" fill-rule="evenodd" stroke="none"/>
    <path d="M4.05 6.6 L3.6 6.8 Q3.5 6.9 3.45 7.0 3.4 7.1 3.4 7.2 L3.35 7.2 Q3.3 7.2 3.25 7.15 3.15 6.95 3.35 6.8 L3.5 6.7 4.05 6.6 M4.3 6.8 L4.15 6.65 4.35 6.7 4.3 6.8" fill="#cacaca" fill-rule="evenodd" stroke="none"/>
    <path d="M0.2 7.3 L0.15 7.25 -0.1 6.95 3.5 6.7 3.35 6.8 Q3.15 6.95 3.25 7.15 3.3 7.2 3.35 7.2 L3.4 7.2 3.4 7.3 3.4 7.5 Q3.35 7.5 3.35 7.55 L3.3 7.55 3.0 7.8 2.95 7.75 Q2.8 7.8 2.9 7.85 L2.95 7.85 2.9 7.9 2.75 7.95 1.9 7.95 1.7 7.9 1.35 7.9 0.95 7.7 Q0.7 7.6 0.45 7.5 L0.2 7.3 M4.4 7.3 Q4.4 7.2 4.35 7.15 L4.3 7.15 4.35 7.0 4.3 6.8 4.35 6.7 4.55 6.65 Q4.65 6.75 4.6 6.95 4.55 7.15 4.4 7.3" fill="#8c0000" fill-rule="evenodd" stroke="none"/>
    <path d="M-5.6 5.55 Q-6.35 4.1 -6.6 2.4 L-6.05 1.3 -5.9 1.7 -5.85 2.15 Q-5.15 4.4 -3.95 6.55 -2.95 8.4 -1.45 9.95 -0.35 11.05 0.45 12.4 1.35 12.6 2.3 12.45 3.65 12.2 4.45 12.95 1.6 14.05 -0.65 12.75 L-3.6 9.75 -3.8 9.35 Q-5.15 9.8 -5.6 8.1 -5.85 7.05 -5.75 6.35 -5.35 7.1 -4.75 7.7 L-5.6 5.55 M1.0 10.4 L1.9 10.5 Q2.35 10.6 2.3 10.95 1.9 11.15 1.4 11.05 0.95 10.95 0.65 10.65 L0.7 10.55 Q0.7 10.5 0.75 10.45 L0.9 10.4 1.0 10.4" fill="#a9854f" fill-rule="evenodd" stroke="none"/>
    <path d="M-6.25 -5.95 L-6.6 -2.3 -7.05 -5.75 Q-6.55 -5.85 -6.25 -5.95" fill="#003366" fill-rule="evenodd" stroke="none"/>
    <path d="M-1.5 6.45 L-1.5 6.35 -1.3 6.55 -1.25 6.5 Q-1.15 6.45 -0.95 6.45 L-0.85 6.4 -0.05 6.35 0.75 6.45 1.45 6.35 Q2.15 6.3 2.85 6.3 L3.05 6.35 Q4.15 6.45 5.3 6.3 L5.85 6.4 5.9 6.4 Q5.6 6.65 5.15 6.75 4.9 7.65 4.55 8.5 L4.4 8.85 Q4.2 9.3 3.8 9.6 3.5 9.85 3.3 9.7 3.0 9.85 2.6 9.8 1.9 10.15 1.1 9.85 L1.0 9.8 1.05 9.85 Q-0.35 9.1 -1.3 7.75 -1.8 7.0 -1.6 6.35 L-1.55 6.45 -1.5 6.45 M-1.3 6.85 Q-0.85 7.65 -0.05 8.4 L0.5 9.0 0.9 9.25 1.45 9.4 1.5 9.35 2.65 9.35 Q3.05 9.25 3.35 9.3 3.95 8.6 4.25 7.7 4.4 7.2 4.65 6.85 L4.15 6.85 Q2.4 6.8 0.6 6.95 L0.1 6.95 -0.25 7.0 -1.3 6.85 M-6.5 2.5 L-6.25 1.75 Q-5.9 2.9 -5.9 4.2 L-5.9 4.95 -4.3 7.95 -4.35 7.7 -3.35 8.9 -3.35 8.95 Q-2.15 10.4 -0.7 11.7 0.4 12.75 1.6 13.55 L3.15 13.3 Q3.3 13.3 3.4 13.25 L4.4 10.4 Q4.75 9.35 5.55 8.65 L5.65 8.5 5.8 8.35 6.4 7.65 Q6.95 6.9 7.3 6.15 L7.9 6.05 7.75 6.4 7.8 6.35 Q7.3 7.8 6.1 9.35 5.8 9.7 5.55 10.1 L5.0 11.3 4.55 12.35 Q4.45 12.7 4.3 13.05 4.15 13.4 3.9 13.55 L3.85 13.55 Q3.7 13.85 3.45 13.75 L3.5 13.7 3.4 13.75 3.5 13.5 3.45 13.65 Q3.25 13.9 2.9 14.0 1.9 14.2 1.05 14.05 L0.9 13.9 Q0.05 13.85 -0.75 12.95 L-2.35 11.1 -2.95 10.55 -3.0 10.6 -3.4 10.15 Q-3.8 9.7 -3.95 9.25 L-4.3 8.75 Q-5.8 7.55 -6.3 5.65 L-6.4 4.75 Q-6.5 4.0 -6.55 3.2 L-6.5 2.5" fill="#1a1a1a" fill-rule="evenodd" stroke="none"/>
    <path d="M-7.05 -5.75 L-7.85 -2.75 -5.95 1.95 Q-5.75 2.3 -5.5 2.6 -5.8 4.0 -5.6 5.3 -5.05 6.8 -3.95 8.05 L-3.95 8.25 -3.75 9.4 -3.75 9.6 -3.65 9.9 -3.7 9.85 -3.9 9.85 -3.9 9.9 Q-4.7 10.05 -5.45 9.5 L-5.95 9.15 Q-8.0 7.95 -8.0 4.4 -7.95 3.25 -7.55 2.45 L-7.5 2.1 Q-9.75 1.9 -10.05 -0.95 L-10.05 -1.55 Q-10.1 -3.55 -8.55 -4.5 L-7.8 -4.25 -7.65 -4.15 -7.55 -4.8 Q-7.55 -5.3 -7.45 -5.8 L-7.3 -5.75 -7.05 -5.75 M-6.65 2.3 L-6.75 2.8 -6.8 3.1 Q-6.9 4.45 -6.7 5.75 L-6.5 6.95 -6.35 7.35 Q-5.9 8.5 -4.85 9.0 -4.5 9.1 -4.2 9.25 L-4.1 9.3 Q-5.1 7.85 -5.8 6.1 L-5.95 5.75 -6.35 4.6 Q-6.55 3.75 -6.6 2.85 L-6.65 2.3" fill="#1a1a1a" fill-rule="evenodd" stroke="none"/>
    <path d="M-4.15 -8.75 L-4.15 -8.8 -4.05 -8.8 Q-3.65 -9.25 -3.5 -8.85 L-1.2 -8.6 -5.2 1.9 -5.8 2.25 -5.75 2.25 -5.85 2.15 -5.9 1.7 -5.9 1.85 -6.0 1.55 -5.85 1.45 -6.05 1.45 -6.05 1.3 -6.15 1.35 -6.3 1.25 -6.55 1.3 -6.6 1.25 -6.95 1.15 Q-7.15 1.05 -7.3 0.95 L-6.85 0.9 -7.0 0.25 -6.95 0.15 -6.55 0.55 -6.55 0.2 Q-6.5 0.25 -6.45 0.3 -6.5 -0.5 -6.95 -1.25 -7.45 -2.2 -8.35 -2.75 L-7.85 -2.75 Q-7.6 -2.6 -7.3 -2.5 L-6.8 -1.95 -6.8 -1.75 Q-6.65 -1.35 -6.5 -1.15 -6.3 -0.95 -6.05 -0.9 L-5.9 -1.35 -6.2 -2.35 -6.3 -2.7 -6.4 -2.55 -6.45 -2.6 -6.9 -3.1 -6.9 -3.15 -7.0 -3.3 -6.95 -3.45 -6.9 -3.35 Q-6.8 -3.6 -6.8 -3.9 L-6.8 -4.7 -6.75 -4.95 -6.5 -5.9 -6.6 -5.85 -6.3 -5.95 -6.1 -6.1 Q-5.9 -6.3 -5.6 -6.35 L-5.55 -6.45 -5.5 -6.65 Q-5.0 -7.75 -4.5 -8.25 L-4.25 -8.6 Q-4.25 -8.7 -4.15 -8.75 M-8.7 -1.95 L-8.8 -1.7 -8.8 -2.15 -8.75 -2.2 -8.7 -1.95 M-6.6 2.75 L-6.75 2.85 -6.75 2.8 -6.65 2.3 -6.6 2.75 M-6.95 3.0 L-7.1 3.05 -6.95 3.0" fill="#c7a36d" fill-rule="evenodd" stroke="none"/>
    <path d="M-7.0 0.25 L-6.85 0.9 -7.3 0.95 -7.6 0.75 -7.5 0.6 Q-7.3 0.55 -7.15 0.4 L-7.0 0.25 M-6.15 1.35 L-6.05 1.3 -6.05 1.45 -6.15 1.4 -6.15 1.35 M-6.0 1.55 L-5.9 1.85 -5.9 1.7 -5.85 2.15 -5.95 1.95 -6.05 1.8 -6.05 1.75 -6.15 1.65 -6.1 1.55 -6.0 1.55 M-8.8 -1.7 L-8.7 -1.95 Q-8.55 -1.7 -8.3 -1.4 -7.95 -0.9 -7.55 -0.55 -7.8 -0.3 -7.9 0.05 -7.95 0.25 -7.9 0.45 -8.3 0.05 -8.5 -0.5 -8.75 -1.1 -8.8 -1.7" fill="#a9854f" fill-rule="evenodd" stroke="none"/>
    <path d="M-4.15 -8.8 L-4.15 -8.75 -4.15 -8.8 M-6.6 -5.85 L-6.5 -5.9 -6.75 -4.95 -6.8 -4.7 -6.8 -3.9 Q-6.8 -3.6 -6.9 -3.35 L-6.95 -3.45 -7.0 -3.3 -6.9 -3.15 -6.9 -3.1 -6.45 -2.6 -6.4 -2.55 -6.3 -2.7 -6.2 -2.35 -5.9 -1.35 -6.05 -0.9 Q-6.3 -0.95 -6.5 -1.15 -6.65 -1.35 -6.8 -1.75 L-6.8 -1.95 -7.3 -2.5 Q-7.6 -2.6 -7.85 -2.75 L-8.35 -2.75 Q-7.45 -2.2 -6.95 -1.25 -6.5 -0.5 -6.45 0.3 -6.5 0.25 -6.55 0.2 L-6.9 0.0 -6.95 0.15 -7.0 0.25 -7.15 0.4 Q-7.3 0.55 -7.5 0.6 L-7.75 0.6 -7.6 0.75 -7.3 0.95 Q-7.15 1.05 -6.95 1.15 L-6.6 1.25 -6.55 1.3 -6.3 1.25 -6.15 1.35 -6.15 1.4 -6.05 1.45 -5.85 1.45 -6.0 1.55 -6.1 1.55 -6.15 1.65 -6.05 1.75 -6.05 1.8 -5.95 1.95 -5.85 2.15 -5.75 2.25 -5.8 2.25 -6.6 2.75 -6.65 2.3 -6.75 2.8 -6.75 2.85 -6.95 3.0 -7.1 3.05 -7.9 3.55 Q-7.8 2.95 -7.55 2.45 L-7.5 2.1 Q-9.75 1.9 -10.05 -0.95 L-10.05 -1.55 Q-10.1 -3.55 -8.55 -4.5 L-7.8 -4.25 -7.65 -4.15 -7.6 -4.45 -7.55 -4.8 -7.55 -4.95 -7.5 -5.55 -7.5 -5.7 -7.45 -5.8 -7.35 -6.35 -7.0 -6.45 Q-6.55 -6.25 -6.6 -5.85 M-8.7 -1.95 L-8.75 -2.2 -8.8 -2.15 -8.8 -1.7 Q-8.75 -1.1 -8.5 -0.5 -8.3 0.05 -7.9 0.45 L-7.85 0.5 Q-7.95 0.15 -7.7 -0.1 -7.55 -0.25 -7.35 -0.35 L-7.55 -0.55 Q-7.95 -0.9 -8.3 -1.4 -8.55 -1.7 -8.7 -1.95" fill="#1a1a1a" fill-rule="evenodd" stroke="none"/>
    <path d="M-6.55 0.2 L-6.55 0.55 -6.95 0.15 -6.9 0.0 -6.55 0.2 M-7.9 0.45 Q-7.95 0.25 -7.9 0.05 -7.8 -0.3 -7.55 -0.55 L-7.35 -0.35 Q-7.55 -0.25 -7.7 -0.1 -7.95 0.15 -7.85 0.5 L-7.9 0.45 M-7.5 0.6 L-7.6 0.75 -7.75 0.6 -7.5 0.6" fill="#111111" fill-rule="evenodd" stroke="none"/>
  </g>
</svg>
