<?xml version="1.0" encoding="UTF-8" standalone="no"?>
<svg xmlns:ffdec="https://www.free-decompiler.com/flash" xmlns:xlink="http://www.w3.org/1999/xlink" ffdec:objectType="shape" height="3.05px" width="6.4px" xmlns="http://www.w3.org/2000/svg">
  <g transform="matrix(1.0, 0.0, 0.0, 1.0, 3.1, 1.9)">
    <path d="M-1.25 -1.25 Q-1.2 -1.25 -1.1 -1.25 L-0.2 -1.25 1.65 -1.4 1.75 -1.4 0.85 -1.2 -0.4 -1.05 -0.45 -1.1 0.4 -1.0 0.9 -1.0 1.4 -1.05 1.75 -1.1 Q1.8 -1.1 2.0 -1.2 L2.1 -1.25 2.15 -1.1 2.2 -1.05 1.4 -0.9 1.0 -0.8 0.95 -0.75 0.6 -0.75 0.45 -0.75 Q-0.7 -0.95 -1.15 -1.1 L-1.35 -1.15 -1.3 -1.2 -1.3 -1.25 -1.25 -1.25 M2.55 -0.75 L2.65 -0.65 2.15 -0.35 Q1.5 0.0 1.1 0.0 L0.5 -0.05 Q0.2 -0.05 -0.2 -0.2 L-0.75 -0.35 -1.25 -0.6 -1.4 -0.7 Q-1.65 -0.8 -1.75 -0.8 L-2.0 -0.75 -1.95 -0.85 -1.85 -0.9 -1.8 -0.9 -1.15 -0.8 -0.7 -0.7 -0.35 -0.6 0.4 -0.5 1.7 -0.65 2.35 -0.75 2.4 -0.75 Q1.25 -0.35 0.4 -0.35 0.1 -0.35 -0.55 -0.5 L0.3 -0.2 0.8 -0.2 1.8 -0.35 Q2.15 -0.45 2.45 -0.6 L2.55 -0.75 M3.05 -0.4 L3.15 -0.3 3.1 -0.25 2.95 -0.2 2.6 -0.05 2.5 0.05 Q2.0 0.3 1.5 0.35 L1.7 0.35 1.8 0.3 1.85 0.3 1.05 0.4 0.75 0.35 0.95 0.35 1.05 0.4 1.4 0.35 1.1 0.35 0.0 0.2 -0.05 0.15 -0.65 0.0 -0.8 -0.05 -1.0 -0.1 -1.1 -0.1 -1.2 -0.15 -1.75 -0.3 -2.5 -0.35 -2.5 -0.4 -2.4 -0.5 -2.3 -0.55 Q-1.9 -0.55 -0.6 -0.15 0.7 0.2 1.2 0.2 1.6 0.2 2.4 -0.1 L3.05 -0.4 M3.0 -0.1 L3.1 -0.1 3.2 0.0 2.9 0.3 Q2.7 0.45 2.3 0.6 L1.65 0.9 1.1 1.0 1.0 1.0 0.55 0.95 Q-0.2 0.9 -0.75 0.6 L-0.8 0.6 -0.9 0.55 -0.95 0.5 -1.05 0.45 Q-1.15 0.4 -1.25 0.35 -1.45 0.25 -1.7 0.2 L-1.75 0.15 -1.8 0.15 -2.5 -0.1 -2.6 -0.15 -2.75 -0.2 -2.7 -0.25 -2.1 -0.1 -1.25 0.2 -0.1 0.4 1.15 0.6 Q1.85 0.6 2.6 0.2 L3.0 -0.1 M-1.5 0.35 L-1.35 0.45 -0.85 0.65 -0.8 0.7 -0.85 0.7 -0.9 0.65 -1.45 0.55 -1.95 0.55 -2.8 0.45 Q-2.9 0.4 -2.95 0.35 L-2.95 0.3 -2.9 0.15 -2.85 0.1 -2.85 0.05 -2.65 0.2 -2.3 0.25 -1.5 0.35 M-1.5 0.65 L-0.7 0.8 -1.55 0.75 -1.9 0.65 -1.5 0.65" fill="#262626" fill-rule="evenodd" stroke="none"/>
    <path d="M1.4 -1.8 L1.95 -1.6 2.2 -1.3 2.45 -1.05 2.5 -1.05 Q2.55 -1.1 2.7 -0.75 L2.8 -0.75 Q2.9 -0.75 3.05 -0.55 L3.1 -0.5 3.25 -0.3 3.25 -0.1 3.3 0.0 Q3.3 0.25 2.45 0.7 1.55 1.15 1.05 1.15 L0.7 1.15 0.15 1.05 Q-0.9 1.05 -1.9 0.8 L-2.55 0.6 -2.8 0.6 -3.0 0.5 -3.05 0.4 -3.05 0.35 -3.1 0.25 -3.0 0.1 -2.95 -0.05 -2.95 -0.1 -2.9 -0.2 Q-2.75 -0.35 -2.65 -0.4 -2.65 -0.5 -2.55 -0.6 -2.4 -0.7 -2.2 -0.7 L-1.85 -1.05 -1.8 -1.15 -1.7 -1.2 -1.5 -1.15 Q-1.45 -1.4 -0.65 -1.65 0.15 -1.9 0.75 -1.9 L1.2 -1.85 1.4 -1.8 M-1.25 -1.25 L-1.3 -1.25 -1.3 -1.2 -1.35 -1.15 -1.15 -1.1 Q-0.7 -0.95 0.45 -0.75 L0.6 -0.75 0.15 -0.75 -0.85 -0.9 -1.65 -1.05 -1.85 -0.9 -1.95 -0.85 -2.0 -0.75 -1.75 -0.8 Q-1.65 -0.8 -1.4 -0.7 L-1.25 -0.6 -0.75 -0.35 -0.2 -0.2 Q0.2 -0.05 0.5 -0.05 L1.1 0.0 Q1.5 0.0 2.15 -0.35 L2.65 -0.65 2.55 -0.75 2.5 -0.95 2.4 -0.95 2.15 -1.0 1.95 -0.95 1.65 -0.9 1.6 -0.9 1.55 -0.85 Q1.25 -0.75 0.95 -0.75 L0.95 -0.75 1.0 -0.8 1.4 -0.9 2.2 -1.05 2.15 -1.1 2.1 -1.25 2.0 -1.4 Q1.65 -1.8 0.55 -1.8 0.35 -1.8 -0.1 -1.65 L-0.65 -1.5 -1.1 -1.35 -1.25 -1.25 M3.05 -0.4 L3.0 -0.45 2.85 -0.55 2.8 -0.6 Q2.65 -0.5 2.2 -0.25 1.6 0.1 1.4 0.1 L0.8 0.1 0.5 0.05 -0.75 -0.35 -1.85 -0.65 -2.05 -0.6 -2.25 -0.6 -2.3 -0.55 -2.4 -0.5 -2.5 -0.4 -2.5 -0.35 -1.75 -0.3 -1.2 -0.15 -1.1 -0.1 -1.0 -0.1 -0.8 -0.05 -0.2 0.15 -0.05 0.15 0.0 0.2 1.1 0.35 1.4 0.35 1.05 0.4 0.95 0.35 0.75 0.35 Q0.15 0.3 -0.8 0.05 -1.9 -0.3 -2.35 -0.3 L-2.65 -0.25 -2.7 -0.25 -2.75 -0.2 -2.6 -0.15 -2.85 0.0 -2.85 0.05 -2.85 0.1 -2.9 0.15 -2.95 0.3 -2.95 0.35 Q-2.9 0.4 -2.8 0.45 L-1.95 0.55 -1.45 0.55 -0.9 0.65 -0.85 0.7 -0.8 0.7 -0.85 0.65 -1.35 0.45 -1.5 0.35 -2.6 -0.1 -2.5 -0.1 -1.8 0.15 -1.75 0.15 -1.7 0.2 Q-1.45 0.25 -1.25 0.35 -1.15 0.4 -1.05 0.45 L-0.95 0.5 -0.9 0.55 -0.8 0.6 -0.75 0.6 Q-0.2 0.9 0.55 0.95 L1.0 1.0 1.1 1.0 1.65 0.9 2.3 0.6 Q2.7 0.45 2.9 0.3 L3.2 0.0 3.1 -0.1 3.0 -0.1 2.95 -0.05 2.55 0.1 2.15 0.2 1.8 0.3 1.7 0.35 1.5 0.35 Q2.0 0.3 2.5 0.05 L2.6 -0.05 2.95 -0.2 3.1 -0.25 3.15 -0.3 3.05 -0.4 M-0.8 0.7 L-0.8 0.7 M-1.5 0.65 L-1.9 0.65 -1.55 0.75 -0.7 0.8 -1.5 0.65" fill="#111111" fill-rule="evenodd" stroke="none"/>
    <path d="M2.1 -1.25 L2.0 -1.2 Q1.8 -1.1 1.75 -1.1 L1.4 -1.05 0.9 -1.0 0.4 -1.0 -0.45 -1.1 -0.4 -1.05 0.85 -1.2 1.75 -1.4 1.65 -1.4 -0.2 -1.25 -1.1 -1.25 Q-1.2 -1.25 -1.25 -1.25 L-1.1 -1.35 -0.65 -1.5 -0.1 -1.65 Q0.35 -1.8 0.55 -1.8 1.65 -1.8 2.0 -1.4 L2.1 -1.25 M0.6 -0.75 L0.95 -0.75 0.95 -0.75 Q1.25 -0.75 1.55 -0.85 L1.6 -0.9 1.65 -0.9 1.95 -0.95 2.15 -1.0 2.4 -0.95 2.5 -0.95 2.55 -0.75 2.45 -0.6 Q2.15 -0.45 1.8 -0.35 L0.8 -0.2 0.3 -0.2 -0.55 -0.5 Q0.1 -0.35 0.4 -0.35 1.25 -0.35 2.4 -0.75 L2.35 -0.75 1.7 -0.65 0.4 -0.5 -0.35 -0.6 -0.7 -0.7 -1.15 -0.8 -1.8 -0.9 -1.85 -0.9 -1.65 -1.05 -0.85 -0.9 0.15 -0.75 0.6 -0.75 M-2.3 -0.55 L-2.25 -0.6 -2.05 -0.6 -1.85 -0.65 -0.75 -0.35 0.5 0.05 0.8 0.1 1.4 0.1 Q1.6 0.1 2.2 -0.25 2.65 -0.5 2.8 -0.6 L2.85 -0.55 3.0 -0.45 3.05 -0.4 2.4 -0.1 Q1.6 0.2 1.2 0.2 0.7 0.2 -0.6 -0.15 -1.9 -0.55 -2.3 -0.55 M1.8 0.3 L2.15 0.2 2.55 0.1 2.95 -0.05 3.0 -0.1 2.6 0.2 Q1.85 0.6 1.15 0.6 L-0.1 0.4 -1.25 0.2 -2.1 -0.1 -2.7 -0.25 -2.65 -0.25 -2.35 -0.3 Q-1.9 -0.3 -0.8 0.05 0.15 0.3 0.75 0.35 L1.05 0.4 1.85 0.3 1.8 0.3 M-2.5 -0.1 L-2.6 -0.1 -1.5 0.35 -2.3 0.25 -2.65 0.2 -2.85 0.05 -2.85 0.0 -2.6 -0.15 -2.5 -0.1" fill="#363636" fill-rule="evenodd" stroke="none"/>
    <path d="M-0.8 0.7 L-0.8 0.7 M-0.05 0.15 L-0.2 0.15 -0.8 -0.05 -0.65 0.0 -0.05 0.15" fill="#76714b" fill-rule="evenodd" stroke="none"/>
  </g>
</svg>
