<?xml version="1.0" encoding="UTF-8" standalone="no"?>
<svg xmlns:ffdec="https://www.free-decompiler.com/flash" xmlns:xlink="http://www.w3.org/1999/xlink" ffdec:objectType="shape" height="15.8px" width="12.9px" xmlns="http://www.w3.org/2000/svg">
  <g transform="matrix(1.0, 0.0, 0.0, 1.0, 4.6, 7.9)">
    <path d="M8.2 1.85 Q7.6 5.0 4.35 6.65 0.7 8.55 -4.6 7.6 2.3 4.0 3.5 0.05 4.9 -4.4 -1.8 -7.9 3.65 -6.95 6.35 -4.0 8.8 -1.3 8.2 1.85" fill="url(#gradient0)" fill-rule="evenodd" stroke="none"/>
    <path d="M8.15 1.9 Q7.5 4.95 4.5 6.6 1.2 8.4 -3.55 7.6 -0.7 7.5 2.0 5.85 4.75 4.15 5.8 1.8 6.95 -0.75 5.55 -3.2 3.95 -5.95 -0.9 -7.9 4.15 -6.75 6.6 -3.8 8.75 -1.15 8.15 1.9" fill="url(#gradient1)" fill-rule="evenodd" stroke="none"/>
  </g>
  <defs>
    <linearGradient gradientTransform="matrix(0.0019, -0.0086, 0.0134, 0.0015, 1.6, 1.1)" gradientUnits="userSpaceOnUse" id="gradient0" spreadMethod="pad" x1="-819.2" x2="819.2">
      <stop offset="0.00392156862745098" stop-color="#ffffff" stop-opacity="0.0"/>
      <stop offset="0.27450980392156865" stop-color="#ffffff" stop-opacity="0.7529412"/>
      <stop offset="1.0" stop-color="#ffffff" stop-opacity="0.0"/>
    </linearGradient>
    <linearGradient gradientTransform="matrix(0.0036, -0.0101, 0.0123, 0.0025, 2.35, -0.05)" gradientUnits="userSpaceOnUse" id="gradient1" spreadMethod="pad" x1="-819.2" x2="819.2">
      <stop offset="0.00392156862745098" stop-color="#ffffff" stop-opacity="0.0"/>
      <stop offset="0.27450980392156865" stop-color="#ffffff"/>
      <stop offset="1.0" stop-color="#ffffff" stop-opacity="0.0"/>
    </linearGradient>
  </defs>
</svg>
