<?xml version="1.0" encoding="UTF-8" standalone="no"?>
<svg xmlns:ffdec="https://www.free-decompiler.com/flash" xmlns:xlink="http://www.w3.org/1999/xlink" ffdec:objectType="shape" height="15.8px" width="12.95px" xmlns="http://www.w3.org/2000/svg">
  <g transform="matrix(1.0, 0.0, 0.0, 1.0, 4.6, 7.9)">
    <path d="M8.25 1.85 Q7.65 5.0 4.35 6.65 0.75 8.55 -4.6 7.6 2.35 4.0 3.55 0.05 4.9 -4.4 -1.75 -7.9 3.7 -6.95 6.4 -4.0 8.85 -1.3 8.25 1.85" fill="url(#gradient0)" fill-rule="evenodd" stroke="none"/>
    <path d="M1.8 5.85 Q4.65 4.15 5.75 1.8 7.0 -0.75 5.5 -3.2 3.8 -5.95 -1.25 -7.9 4.05 -6.75 6.6 -3.8 8.9 -1.15 8.2 1.9 7.55 4.95 4.4 6.6 0.95 8.4 -4.05 7.6 -1.0 7.5 1.8 5.85" fill="url(#gradient1)" fill-rule="evenodd" stroke="none"/>
  </g>
  <defs>
    <linearGradient gradientTransform="matrix(0.0016, -0.0072, 0.0134, 0.0015, 1.35, 2.15)" gradientUnits="userSpaceOnUse" id="gradient0" spreadMethod="pad" x1="-819.2" x2="819.2">
      <stop offset="0.00392156862745098" stop-color="#ffffff" stop-opacity="0.0"/>
      <stop offset="0.27450980392156865" stop-color="#ffffff" stop-opacity="0.5019608"/>
      <stop offset="1.0" stop-color="#ffffff" stop-opacity="0.0"/>
    </linearGradient>
    <linearGradient gradientTransform="matrix(0.0031, -0.0084, 0.0128, 0.0025, 1.9, 1.2)" gradientUnits="userSpaceOnUse" id="gradient1" spreadMethod="pad" x1="-819.2" x2="819.2">
      <stop offset="0.00392156862745098" stop-color="#ffffff" stop-opacity="0.0"/>
      <stop offset="0.27450980392156865" stop-color="#ffffff" stop-opacity="0.7529412"/>
      <stop offset="1.0" stop-color="#ffffff" stop-opacity="0.0"/>
    </linearGradient>
  </defs>
</svg>
