<?xml version="1.0" encoding="UTF-8" standalone="no"?>
<svg xmlns:ffdec="https://www.free-decompiler.com/flash" xmlns:xlink="http://www.w3.org/1999/xlink" ffdec:objectType="shape" height="15.8px" width="13.0px" xmlns="http://www.w3.org/2000/svg">
  <g transform="matrix(1.0, 0.0, 0.0, 1.0, 4.6, 7.9)">
    <path d="M8.25 1.85 Q7.65 5.0 4.4 6.65 0.75 8.55 -4.6 7.6 2.35 4.0 3.6 0.05 4.95 -4.4 -1.75 -7.9 3.7 -6.95 6.45 -4.0 8.9 -1.3 8.25 1.85" fill="url(#gradient0)" fill-rule="evenodd" stroke="none"/>
    <path d="M8.25 1.9 Q7.6 4.95 4.55 6.6 1.15 8.4 -3.7 7.6 -0.75 7.5 2.0 5.85 4.75 4.15 5.85 1.8 7.05 -0.75 5.6 -3.2 3.95 -5.95 -0.95 -7.9 4.2 -6.75 6.65 -3.8 8.9 -1.15 8.25 1.9" fill="url(#gradient1)" fill-rule="evenodd" stroke="none"/>
  </g>
  <defs>
    <linearGradient gradientTransform="matrix(0.0014, -0.0063, 0.0134, 0.0015, 0.75, 2.9)" gradientUnits="userSpaceOnUse" id="gradient0" spreadMethod="pad" x1="-819.2" x2="819.2">
      <stop offset="0.00392156862745098" stop-color="#ffffff" stop-opacity="0.0"/>
      <stop offset="0.27450980392156865" stop-color="#ffffff" stop-opacity="0.2509804"/>
      <stop offset="1.0" stop-color="#ffffff" stop-opacity="0.0"/>
    </linearGradient>
    <linearGradient gradientTransform="matrix(0.0026, -0.0072, 0.0125, 0.0025, 1.95, 2.3)" gradientUnits="userSpaceOnUse" id="gradient1" spreadMethod="pad" x1="-819.2" x2="819.2">
      <stop offset="0.00392156862745098" stop-color="#ffffff" stop-opacity="0.0"/>
      <stop offset="0.27450980392156865" stop-color="#ffffff" stop-opacity="0.5019608"/>
      <stop offset="1.0" stop-color="#ffffff" stop-opacity="0.0"/>
    </linearGradient>
  </defs>
</svg>
