<?xml version="1.0" encoding="UTF-8" standalone="no"?>
<svg xmlns:ffdec="https://www.free-decompiler.com/flash" xmlns:xlink="http://www.w3.org/1999/xlink" ffdec:objectType="shape" height="16.25px" width="12.25px" xmlns="http://www.w3.org/2000/svg">
  <g transform="matrix(1.0, 0.0, 0.0, 1.0, 6.2, 6.6)">
    <path d="M5.0 -1.85 L5.05 -1.85 5.0 -1.75 5.0 -1.85 M1.4 -5.3 L1.3 -5.3 Q1.25 -5.1 1.7 -4.85 L1.9 -4.8 1.9 -4.7 Q1.0 -5.1 0.05 -5.25 L1.05 -5.35 1.4 -5.3 M0.15 -1.15 L0.1 -1.15 0.0 -1.05 -0.2 0.65 Q-0.25 1.1 -0.2 1.4 L-0.15 1.45 Q-0.7 1.4 -1.2 1.55 L-2.35 1.6 Q-2.15 0.6 -2.25 -0.4 -2.45 -1.65 -3.1 -2.4 -1.45 -2.0 0.15 -1.15 M2.1 2.3 Q2.15 2.2 2.15 2.1 2.0 1.35 1.8 0.7 1.5 -0.1 1.05 -0.7 L3.75 0.75 Q3.25 2.3 2.1 2.3 M2.5 3.25 L1.3 5.3 Q1.0 5.8 0.45 5.7 L0.45 4.1 Q0.45 3.35 0.1 2.9 L0.55 3.05 Q1.55 3.3 2.5 3.25 M0.15 8.7 L0.3 8.95 0.1 9.0 0.15 8.7 M2.55 6.0 L2.55 5.8 2.65 5.6 2.55 6.0 M3.05 1.9 Q3.15 1.6 3.15 1.25 3.1 0.7 2.7 0.45 2.3 0.55 2.35 1.05 2.4 1.75 3.05 1.9 M-4.15 -0.25 Q-4.4 -0.5 -4.55 -0.8 -4.65 -1.1 -4.7 -1.4 -4.55 -2.05 -4.25 -2.6 L-3.8 -2.55 Q-4.25 -1.85 -4.2 -1.0 L-4.15 -0.25 M-1.0 -0.2 Q-1.05 -0.8 -1.05 -1.3 -1.65 -1.2 -1.6 -0.55 -1.5 0.25 -1.05 0.65 -0.9 0.2 -1.0 -0.2 M-1.4 2.55 Q-1.65 3.25 -1.7 4.05 L-1.85 5.45 Q-2.7 5.45 -3.5 5.65 -3.25 4.75 -3.2 3.75 -3.15 3.1 -3.3 2.6 L-3.35 2.25 -3.35 2.2 -1.4 2.55 M-4.0 8.15 L-3.95 8.2 -4.0 8.2 -4.0 8.15 M-3.0 8.45 L-2.45 8.3 -2.5 8.3 Q-2.75 8.45 -3.0 8.45 M-2.15 7.95 L-2.15 7.85 -2.0 7.75 -2.15 7.95 M-0.6 2.95 L-0.7 2.7 -0.6 2.8 -0.6 2.95 M-5.4 0.5 L-5.35 0.5 -5.35 0.65 -5.4 0.5 M-4.95 1.15 L-4.95 1.25 -5.0 1.2 -4.95 1.15" fill="#660066" fill-rule="evenodd" stroke="none"/>
    <path d="M5.0 -1.85 L4.95 -2.0 Q4.75 -3.0 3.6 -3.75 L3.55 -3.8 2.15 -4.65 1.9 -4.7 1.9 -4.8 1.7 -4.85 Q1.25 -5.1 1.3 -5.3 L1.4 -5.3 1.65 -5.25 1.95 -5.2 2.2 -5.2 2.65 -5.05 Q3.35 -4.85 4.05 -4.45 4.25 -3.85 4.7 -3.1 L4.85 -2.85 Q5.1 -2.35 5.05 -1.85 L5.0 -1.85 M0.15 -1.15 L0.6 -0.9 1.05 -0.7 Q1.5 -0.1 1.8 0.7 2.0 1.35 2.15 2.1 2.15 2.2 2.1 2.3 1.2 2.3 -0.05 1.45 L-0.15 1.45 -0.2 1.4 Q-0.25 1.1 -0.2 0.65 L0.0 -1.05 0.1 -1.15 0.15 -1.15 M3.05 3.1 L3.1 3.1 3.1 3.15 3.05 3.1 M2.5 3.25 L2.7 3.25 2.9 3.2 2.95 3.2 2.9 3.2 2.95 3.4 2.95 3.5 2.8 3.95 2.65 5.0 2.75 5.1 2.65 5.6 2.55 5.8 2.55 6.0 Q2.4 6.75 2.15 7.55 L2.1 7.6 2.1 7.65 1.85 8.15 Q1.6 8.45 1.35 8.65 0.8 8.85 0.3 8.95 L0.15 8.7 0.3 7.25 0.4 6.65 Q0.45 6.15 0.45 5.7 1.0 5.8 1.3 5.3 L2.5 3.25 M-3.8 -2.55 L-3.1 -2.4 Q-2.45 -1.65 -2.25 -0.4 -2.15 0.6 -2.35 1.6 L-2.55 1.5 -2.8 1.2 -2.9 1.25 Q-3.2 0.9 -3.35 0.25 -3.85 0.05 -4.15 -0.25 L-4.2 -1.0 Q-4.25 -1.85 -3.8 -2.55 M-1.4 2.55 L-1.35 2.55 -0.95 2.45 -1.1 2.6 -0.7 2.7 -0.6 2.95 -0.65 3.4 Q-0.8 4.3 -1.05 5.2 -1.45 6.35 -1.9 7.45 L-2.0 7.75 -2.15 7.85 -2.15 7.95 -2.2 8.0 -2.3 8.15 -2.45 8.3 -3.0 8.45 -3.15 8.45 -3.25 8.45 -3.9 8.25 -3.95 8.2 -4.0 8.15 -3.7 6.3 -3.5 5.65 Q-2.7 5.45 -1.85 5.45 L-1.7 4.05 Q-1.65 3.25 -1.4 2.55 M-5.35 0.5 L-4.9 0.8 -4.95 1.15 -5.0 1.2 -5.3 0.75 -5.35 0.65 -5.35 0.5 M-4.55 0.95 L-4.15 1.05 Q-3.95 1.6 -3.6 1.95 L-3.6 2.0 -3.7 1.85 -3.65 2.25 -3.7 2.5 -3.75 2.45 Q-3.8 2.35 -3.9 2.35 -4.0 2.4 -4.1 2.3 -4.35 1.85 -4.45 1.35 -4.45 1.1 -4.55 0.95" fill="#4a0048" fill-rule="evenodd" stroke="none"/>
    <path d="M3.05 1.9 Q2.4 1.75 2.35 1.05 2.3 0.55 2.7 0.45 3.1 0.7 3.15 1.25 3.15 1.6 3.05 1.9 M-1.0 -0.2 Q-0.9 0.2 -1.05 0.65 -1.5 0.25 -1.6 -0.55 -1.65 -1.2 -1.05 -1.3 -1.05 -0.8 -1.0 -0.2" fill="#850081" fill-rule="evenodd" stroke="none"/>
    <path d="M4.85 -4.85 Q6.2 -3.9 6.05 -2.1 5.95 -0.85 5.1 -0.7 5.1 0.0 4.8 0.75 4.9 1.05 5.0 1.35 L4.6 1.15 4.3 1.65 Q4.15 2.25 3.9 2.85 L3.9 2.95 3.75 3.0 3.7 3.0 3.6 3.4 3.6 3.95 Q3.65 5.25 3.3 6.3 2.95 8.15 1.65 9.0 0.95 9.55 -0.15 9.65 L-0.15 9.65 Q-0.4 9.5 -0.45 9.2 -0.5 8.8 -0.45 8.45 L-0.6 6.6 -0.65 6.05 -0.85 6.8 Q-1.05 7.45 -1.5 8.0 -3.05 10.0 -4.6 8.6 -4.7 7.4 -4.5 6.1 -4.3 4.65 -4.0 3.3 -4.3 3.3 -4.6 2.9 -5.1 2.3 -5.05 1.7 -5.65 1.5 -5.95 0.95 -6.4 0.2 -6.0 -0.55 -6.1 -1.0 -6.0 -1.55 -5.9 -2.3 -5.5 -2.75 -5.5 -3.1 -5.3 -3.55 -4.4 -5.4 -2.45 -6.25 -1.6 -6.6 -0.7 -6.6 1.3 -6.6 3.25 -6.1 4.55 -5.75 4.85 -4.85 M1.9 -4.7 L2.15 -4.65 3.55 -3.8 3.6 -3.75 Q4.75 -3.0 4.95 -2.0 L5.0 -1.85 5.0 -1.75 5.05 -1.85 Q5.1 -2.35 4.85 -2.85 L4.7 -3.1 Q4.25 -3.85 4.05 -4.45 3.35 -4.85 2.65 -5.05 L2.2 -5.2 1.95 -5.2 1.65 -5.25 1.4 -5.3 1.05 -5.35 0.05 -5.25 Q1.0 -5.1 1.9 -4.7 M1.05 -0.7 L0.6 -0.9 0.15 -1.15 Q-1.45 -2.0 -3.1 -2.4 L-3.8 -2.55 -4.25 -2.6 Q-4.55 -2.05 -4.7 -1.4 -4.65 -1.1 -4.55 -0.8 -4.4 -0.5 -4.15 -0.25 -3.85 0.05 -3.35 0.25 -3.2 0.9 -2.9 1.25 L-2.8 1.2 -2.55 1.5 -2.35 1.6 -1.2 1.55 Q-0.7 1.4 -0.15 1.45 L-0.05 1.45 Q1.2 2.3 2.1 2.3 3.25 2.3 3.75 0.75 L1.05 -0.7 M1.85 -2.1 L2.75 -1.55 Q3.5 -1.1 4.0 -0.55 4.05 -1.05 4.15 -1.45 3.5 -1.9 2.8 -2.65 1.8 -3.7 0.35 -4.2 L-1.5 -4.85 Q-2.0 -4.6 -2.55 -4.25 -1.0 -3.85 0.4 -3.25 1.5 -2.8 2.3 -1.95 L1.85 -2.1 M3.05 3.1 L3.1 3.15 3.1 3.1 3.05 3.1 M2.95 3.2 L2.9 3.2 2.7 3.25 2.5 3.25 Q1.55 3.3 0.55 3.05 L0.1 2.9 Q0.45 3.35 0.45 4.1 L0.45 5.7 Q0.45 6.15 0.4 6.65 L0.3 7.25 0.15 8.7 0.1 9.0 0.3 8.95 Q0.8 8.85 1.35 8.65 1.6 8.45 1.85 8.15 L2.1 7.65 2.1 7.6 2.15 7.55 Q2.4 6.75 2.55 6.0 L2.65 5.6 2.75 5.1 2.65 5.0 2.8 3.95 2.95 3.5 2.95 3.4 2.95 3.2 M-1.4 -3.1 Q-2.35 -3.5 -3.1 -3.9 -3.6 -3.55 -3.9 -3.1 L-2.25 -3.2 -1.4 -3.1 M-0.7 2.7 L-1.1 2.6 -0.95 2.45 -1.35 2.55 -1.4 2.55 -3.35 2.2 -3.4 2.15 -3.4 2.2 -3.35 2.25 -3.3 2.6 Q-3.15 3.1 -3.2 3.75 -3.25 4.75 -3.5 5.65 L-3.7 6.3 -4.0 8.15 -4.0 8.2 -3.95 8.2 -3.9 8.25 -3.25 8.45 -3.15 8.45 -3.0 8.45 Q-2.75 8.45 -2.5 8.3 L-2.45 8.3 -2.3 8.15 -2.2 8.0 -2.15 7.95 -2.0 7.75 -1.9 7.45 Q-1.45 6.35 -1.05 5.2 -0.8 4.3 -0.65 3.4 L-0.6 2.95 -0.6 2.8 -0.7 2.7 M-5.35 0.5 L-5.4 0.5 -5.3 0.75 -5.0 1.2 -4.95 1.25 -4.95 1.15 -4.9 0.8 -5.35 0.5 M-4.55 0.95 Q-4.45 1.1 -4.45 1.35 -4.35 1.85 -4.1 2.3 -4.0 2.4 -3.9 2.35 -3.8 2.35 -3.75 2.45 L-3.7 2.5 -3.65 2.25 -3.7 1.85 -3.6 2.0 -3.6 1.95 Q-3.95 1.6 -4.15 1.05 L-4.55 0.95 M-4.5 8.5 L-4.5 8.45 -4.55 8.55 -4.5 8.5" fill="#1a1a1a" fill-rule="evenodd" stroke="none"/>
    <path d="M1.85 -2.1 L2.3 -1.95 Q1.5 -2.8 0.4 -3.25 -1.0 -3.85 -2.55 -4.25 -2.0 -4.6 -1.5 -4.85 L0.35 -4.2 Q1.8 -3.7 2.8 -2.65 3.5 -1.9 4.15 -1.45 4.05 -1.05 4.0 -0.55 3.5 -1.1 2.75 -1.55 L1.85 -2.1 M-1.4 -3.1 L-2.25 -3.2 -3.9 -3.1 Q-3.6 -3.55 -3.1 -3.9 -2.35 -3.5 -1.4 -3.1" fill="#444444" fill-rule="evenodd" stroke="none"/>
  </g>
</svg>
