<?xml version="1.0" encoding="UTF-8" standalone="no"?>
<svg xmlns:ffdec="https://www.free-decompiler.com/flash" xmlns:xlink="http://www.w3.org/1999/xlink" ffdec:objectType="shape" height="19.1px" width="14.2px" xmlns="http://www.w3.org/2000/svg">
  <g transform="matrix(1.0, 0.0, 0.0, 1.0, 11.2, 16.45)">
    <path d="M2.2 -6.7 Q2.2 -6.85 2.15 -7.0 L1.85 -7.25 1.7 -7.35 Q1.0 -7.6 1.0 -7.85 1.0 -8.1 1.55 -8.2 L1.55 -8.25 1.9 -8.45 Q2.0 -8.5 2.05 -8.65 2.05 -8.8 1.85 -9.05 L1.7 -9.3 1.35 -9.3 1.05 -9.05 Q0.75 -8.75 0.5 -8.75 -0.2 -8.75 -0.4 -9.2 -0.5 -9.45 -0.5 -9.7 -0.5 -10.0 -0.45 -10.15 L-0.35 -10.25 Q-0.25 -10.5 -0.05 -10.6 0.25 -10.7 0.8 -10.7 L1.15 -10.7 1.75 -10.8 Q1.95 -10.9 2.05 -11.05 L2.05 -11.6 Q1.95 -11.75 1.85 -11.9 1.55 -12.2 1.1 -12.35 L0.95 -12.35 0.95 -12.4 0.85 -12.4 0.75 -12.45 0.95 -12.55 0.45 -12.45 Q0.25 -12.35 0.15 -12.1 L0.05 -11.9 0.1 -11.75 Q0.1 -11.6 -0.25 -11.4 -0.55 -11.25 -0.8 -11.25 -1.5 -11.25 -1.65 -11.6 -1.7 -11.8 -1.65 -12.0 -1.65 -12.35 -1.5 -12.5 -1.4 -12.6 -1.25 -12.6 L-1.25 -12.7 Q-1.1 -13.05 -0.7 -13.2 L-0.7 -13.5 Q-0.7 -13.65 -0.65 -13.55 -0.55 -13.4 -0.55 -13.2 -0.55 -12.95 -0.75 -12.65 -0.85 -12.45 -1.05 -12.35 L-1.15 -12.15 -1.3 -11.9 -1.2 -11.8 Q-1.05 -11.6 -0.95 -11.6 -0.45 -11.6 -0.15 -11.85 L-0.1 -12.05 Q0.0 -12.35 0.1 -12.45 L0.3 -12.55 Q0.45 -12.65 0.65 -12.65 L0.8 -12.65 1.05 -12.6 1.1 -12.6 1.55 -12.4 Q2.25 -11.95 2.25 -11.45 2.25 -11.1 2.15 -10.75 1.75 -10.45 0.8 -10.45 0.4 -10.3 0.0 -10.1 -0.2 -9.85 -0.2 -9.75 -0.2 -9.5 -0.05 -9.3 0.15 -9.0 0.45 -9.0 L0.7 -9.05 0.95 -9.25 Q1.25 -9.5 1.45 -9.5 L1.55 -9.5 1.55 -9.4 Q1.9 -9.45 2.1 -9.25 2.3 -9.05 2.3 -8.85 2.3 -8.65 1.85 -8.05 L1.8 -8.05 1.75 -8.0 1.7 -8.05 1.5 -8.0 1.35 -8.0 1.25 -7.95 Q1.3 -7.8 1.9 -7.4 2.2 -7.2 2.35 -7.0 L2.45 -6.9 2.55 -6.9 2.6 -6.7 2.6 -6.4 2.6 -6.5 Q2.55 -6.7 2.25 -6.7 L2.2 -6.7 M2.1 -5.75 L1.85 -5.75 Q1.75 -5.75 1.5 -5.9 1.25 -6.05 0.9 -6.05 L0.8 -6.05 Q0.6 -6.0 0.4 -5.85 L0.35 -5.75 0.3 -5.7 Q0.3 -5.55 0.2 -5.5 L0.05 -5.45 Q-0.2 -5.3 -0.35 -5.3 -0.85 -5.3 -1.0 -5.55 -1.05 -5.6 -1.05 -5.8 -1.05 -6.0 -0.85 -6.4 -0.5 -6.95 0.0 -6.95 L0.15 -6.9 0.25 -6.85 0.3 -6.8 0.2 -6.75 0.15 -6.75 -0.15 -6.6 -0.15 -6.55 -0.2 -6.45 -0.25 -6.3 Q-0.25 -6.2 -0.15 -6.1 0.0 -6.0 0.2 -6.0 0.45 -6.1 0.6 -6.35 0.75 -6.4 0.9 -6.5 1.1 -6.7 1.35 -6.7 1.55 -6.7 1.6 -6.55 1.65 -6.35 1.95 -6.35 L2.3 -6.35 Q2.4 -6.35 2.4 -6.2 2.4 -6.1 2.25 -5.9 L2.1 -5.75 M1.35 -6.85 L1.5 -6.85 Q1.6 -6.85 1.7 -6.7 L1.45 -6.85 1.35 -6.85 M1.85 -6.6 L1.9 -6.6 1.85 -6.6 M1.65 -11.25 L1.6 -11.2 Q1.45 -10.95 1.25 -10.95 1.1 -10.95 1.0 -11.1 0.95 -11.2 0.95 -11.3 0.95 -11.5 1.05 -11.65 L1.0 -11.65 0.9 -11.6 Q0.75 -11.6 0.7 -11.75 L0.7 -11.85 Q0.7 -12.05 0.9 -12.0 1.05 -12.0 1.1 -11.8 L1.1 -11.75 Q1.2 -11.9 1.35 -12.0 L1.5 -12.0 1.4 -12.0 1.5 -11.8 1.55 -11.6 Q1.55 -11.5 1.45 -11.35 1.4 -11.2 1.4 -11.1 L1.4 -11.05 1.45 -11.05 Q1.55 -11.1 1.65 -11.25 M1.2 -11.45 L1.3 -11.3 1.35 -11.3 1.4 -11.35 1.4 -11.55 Q1.2 -11.6 1.2 -11.45 M2.85 -8.75 L2.85 -8.5 2.75 -8.35 2.6 -8.45 Q2.55 -8.5 2.55 -8.55 2.55 -8.6 2.65 -8.7 L2.8 -8.8 2.85 -8.75 M2.75 -7.55 L2.75 -7.65 2.85 -7.7 Q2.95 -7.6 3.0 -7.5 L2.9 -7.45 2.8 -7.45 Q2.75 -7.45 2.75 -7.55 M2.3 -6.9 L2.25 -6.9 2.25 -6.85 2.3 -6.9 M1.6 -6.0 L1.6 -6.0 M1.3 -6.35 L1.05 -6.35 1.05 -6.25 Q1.05 -6.2 1.05 -6.15 1.1 -6.05 1.25 -6.05 L1.35 -6.05 Q1.45 -6.1 1.45 -6.15 1.45 -6.3 1.3 -6.35 M-0.7 -0.65 L-0.55 -0.55 Q-0.15 -0.65 0.0 -1.05 0.1 -1.25 -0.05 -1.45 L-0.1 -1.5 -0.05 -1.6 -0.1 -1.65 -0.1 -1.9 -0.45 -2.15 Q-0.9 -2.4 -1.05 -2.75 -1.25 -3.0 -1.25 -3.35 -1.25 -3.6 -1.1 -3.9 -0.9 -4.6 -0.6 -4.6 0.05 -4.6 0.25 -4.35 L0.4 -4.15 0.45 -4.15 0.7 -4.1 Q0.9 -4.1 1.05 -4.5 L1.1 -4.55 1.1 -4.75 Q1.1 -4.95 0.8 -5.9 L0.85 -5.9 0.9 -5.9 1.0 -5.8 1.05 -5.7 1.2 -5.45 Q1.35 -5.05 1.35 -4.9 1.35 -4.75 1.25 -4.5 L1.2 -4.1 Q1.1 -3.75 0.95 -3.75 0.45 -3.75 0.2 -4.05 -0.05 -4.35 -0.3 -4.35 L-0.45 -4.35 Q-1.0 -3.8 -1.0 -3.35 -1.0 -2.95 -0.65 -2.8 -0.55 -2.75 -0.4 -2.7 -0.35 -2.6 -0.2 -2.55 L0.35 -2.4 Q1.2 -2.25 1.2 -1.55 1.2 -1.25 0.9 -0.95 L0.75 -0.75 0.65 -0.75 Q0.5 -0.75 0.4 -0.85 L0.4 -0.8 0.3 -0.5 0.35 -0.25 0.65 0.2 Q0.65 0.5 0.2 0.95 L0.1 1.05 Q-0.45 1.7 -1.4 1.7 -1.9 1.7 -2.05 1.25 L-2.05 1.2 -2.1 1.1 -2.1 0.8 Q-2.1 0.55 -1.95 -0.05 -1.85 -0.55 -1.9 -0.9 L-2.0 -0.9 Q-2.05 -0.9 -2.2 -0.75 L-2.25 -0.7 -2.35 -0.55 Q-2.7 -0.55 -2.85 -0.9 -2.9 -1.1 -2.9 -1.3 -2.9 -1.85 -2.6 -2.3 L-2.7 -2.35 -2.7 -2.3 -2.75 -2.35 -3.0 -2.55 -3.05 -2.6 -3.8 -2.65 -4.2 -2.65 Q-4.75 -2.4 -4.75 -1.55 -4.75 -1.25 -4.35 -0.4 L-4.35 -0.2 -4.3 0.1 -4.2 0.4 Q-4.05 0.8 -4.05 1.0 -4.05 1.1 -4.15 1.6 L-4.1 1.65 Q-4.25 1.75 -4.4 1.75 -4.45 1.95 -4.65 1.95 -4.95 1.95 -5.05 1.7 L-5.05 1.45 Q-5.05 1.15 -4.95 1.0 L-4.9 0.75 -4.85 0.35 -4.95 0.05 -5.0 -0.05 -5.15 -0.05 -5.45 0.35 -5.55 0.5 -5.5 0.4 Q-5.6 0.2 -5.85 0.2 L-5.75 0.0 Q-5.6 -0.2 -5.3 -0.2 -5.15 -0.3 -5.05 -0.3 L-5.0 -0.35 -4.95 -0.3 -4.85 -0.25 Q-4.6 -0.1 -4.55 0.4 -4.5 0.2 -4.5 0.1 -4.5 -0.15 -4.65 -0.55 -4.8 -0.75 -4.9 -1.1 L-4.9 -1.15 Q-5.05 -1.5 -5.05 -1.75 -5.05 -1.9 -5.0 -2.05 -4.9 -2.65 -4.35 -2.8 L-3.55 -2.85 Q-3.35 -2.8 -3.1 -2.7 -2.85 -2.6 -2.75 -2.45 L-2.6 -2.35 -2.2 -2.8 Q-1.9 -3.1 -1.7 -3.0 -1.45 -2.95 -1.45 -2.45 L-1.6 -2.15 Q-1.6 -2.25 -1.65 -2.35 L-1.7 -2.4 -1.8 -2.4 -1.85 -2.45 Q-2.1 -2.4 -2.15 -2.15 -2.2 -1.95 -2.05 -1.8 L-1.75 -1.8 Q-1.6 -1.9 -1.45 -1.9 L-1.55 -1.9 -1.65 -1.75 -1.65 -1.7 -1.5 -1.65 Q-1.45 -1.65 -1.3 -1.8 -1.15 -1.95 -0.95 -2.0 L-0.85 -1.8 Q-0.8 -1.75 -0.8 -1.65 L-0.9 -1.45 Q-1.05 -1.25 -1.05 -1.1 L-1.0 -0.85 Q-0.95 -0.75 -0.7 -0.55 L-0.6 -0.6 -0.7 -0.65 M-6.25 2.15 Q-6.55 2.5 -6.85 2.5 -7.05 2.5 -7.2 2.35 L-7.3 2.25 -7.6 2.55 Q-7.7 2.65 -7.85 2.65 -8.15 2.65 -8.25 2.25 L-8.25 1.25 Q-8.2 1.0 -7.95 0.65 L-7.95 0.6 -7.75 0.55 -7.7 0.7 -7.8 0.65 Q-7.95 0.7 -7.95 1.0 L-7.95 1.1 -7.9 1.1 -7.8 0.95 -7.75 0.8 Q-7.6 1.0 -7.5 1.0 L-7.4 1.0 -7.35 0.95 -7.05 0.9 -7.15 0.95 -7.2 1.0 -7.2 1.1 -7.05 1.1 -6.9 1.15 Q-6.75 1.15 -6.4 0.9 L-5.95 0.65 Q-5.9 0.75 -5.9 0.9 -5.9 0.95 -6.0 1.25 L-6.15 1.6 Q-6.15 1.7 -6.25 1.9 L-6.3 2.15 -6.3 2.2 -6.25 2.2 -6.25 2.15 M-0.5 -1.6 L-0.4 -1.55 -0.55 -1.55 -0.5 -1.6 M0.95 -5.75 L0.95 -5.75 M0.4 -2.6 L0.45 -2.65 0.5 -2.6 0.75 -2.55 Q0.95 -2.45 1.0 -2.3 L0.95 -2.35 0.4 -2.6 M0.65 -1.8 L0.65 -2.0 Q0.65 -2.25 0.45 -2.2 0.25 -2.1 0.25 -1.9 L0.3 -1.8 Q0.35 -1.7 0.45 -1.7 0.6 -1.7 0.65 -1.8 M0.9 -1.65 Q0.75 -1.55 0.75 -1.35 L0.75 -1.25 0.8 -1.15 Q0.9 -1.25 0.95 -1.35 L1.0 -1.55 1.0 -1.65 0.9 -1.65 M-1.35 -0.2 L-1.45 -0.35 Q-1.65 -0.35 -1.7 -0.25 L-1.75 0.0 Q-1.75 0.05 -0.4 0.75 -0.25 0.75 0.05 0.5 0.3 0.25 0.3 0.1 L0.3 0.0 0.2 0.0 0.05 0.2 Q-0.1 0.3 -0.25 0.35 -0.1 0.15 -0.1 -0.2 -0.3 -0.35 -0.55 -0.25 L-0.8 -0.2 -0.95 -0.3 Q-1.0 -0.4 -1.15 -0.45 -1.3 -0.3 -1.35 -0.2 M-2.35 -16.4 L-2.3 -16.3 Q-2.3 -16.2 -2.4 -16.15 L-2.55 -16.05 -2.7 -16.2 -2.6 -16.3 Q-2.6 -16.4 -2.4 -16.45 L-2.35 -16.4 M-1.65 -15.4 L-1.7 -15.45 -1.7 -15.55 -1.65 -15.8 Q-1.55 -15.95 -1.4 -15.9 -1.35 -15.95 -1.35 -15.8 -1.35 -15.75 -1.5 -15.6 L-1.65 -15.4 M-2.5 -14.75 Q-2.25 -14.95 -2.0 -14.95 L-1.95 -14.95 -1.95 -14.85 Q-1.95 -14.65 -2.25 -14.6 -2.45 -14.7 -2.5 -14.75 M-1.45 -14.4 L-1.45 -14.3 -1.55 -14.2 -1.65 -14.2 -1.7 -14.25 -1.7 -14.45 -1.65 -14.5 Q-1.5 -14.5 -1.45 -14.4 M-0.95 -11.5 L-1.15 -11.55 Q-1.05 -11.5 -0.95 -11.5 M-10.0 -1.9 Q-9.6 -2.0 -9.15 -2.0 -8.7 -2.0 -8.45 -1.8 -8.2 -1.6 -8.2 -1.3 -8.2 -1.2 -8.35 -1.0 L-8.55 -0.6 -8.55 -0.55 -9.05 -0.4 -9.15 -0.3 -9.75 0.2 -9.85 0.2 Q-10.2 0.2 -10.4 -0.1 -10.6 -0.3 -10.6 -0.45 -10.6 -1.2 -10.2 -1.65 L-10.0 -1.9 M-10.15 -0.95 L-10.15 -0.85 -9.95 -0.85 -9.8 -1.05 Q-9.75 -1.2 -9.75 -1.25 L-9.75 -1.3 -9.8 -1.35 Q-9.9 -1.35 -10.05 -1.15 -10.15 -1.0 -10.15 -0.95 M-9.8 -0.7 Q-9.9 -0.65 -10.0 -0.55 -10.05 -0.5 -10.05 -0.4 -9.95 -0.2 -9.75 -0.35 -9.55 -0.55 -9.8 -0.7 M-8.8 -1.45 Q-8.9 -1.6 -9.05 -1.6 -9.25 -1.5 -9.4 -1.3 -9.6 -1.0 -9.35 -0.75 -9.2 -0.7 -9.05 -0.85 -8.85 -1.05 -8.75 -1.3 L-8.8 -1.45 M-0.85 -5.9 L-0.8 -5.8 -0.8 -5.9 -0.85 -5.9 M-0.25 -5.85 Q-0.5 -6.25 -0.6 -6.15 -0.6 -6.1 -0.6 -5.8 L-0.5 -5.7 Q-0.45 -5.7 -0.35 -5.75 L-0.25 -5.85 M-5.05 -0.15 L-5.05 -0.15 M-2.9 -2.5 L-3.0 -2.55 -2.85 -2.45 -2.9 -2.5 M-2.35 -1.55 Q-2.65 -1.4 -2.35 -1.4 -1.95 -1.4 -2.35 -1.55 M-2.25 -1.15 Q-2.4 -1.25 -2.45 -1.2 -2.55 -1.2 -2.55 -1.05 L-2.55 -0.95 -2.4 -0.95 Q-2.35 -0.95 -2.25 -1.1 L-2.25 -1.15 M-1.75 -0.75 L-1.7 -0.75 -1.7 -0.8 -1.85 -0.9 -1.75 -0.75 M-1.8 -0.25 L-1.9 0.15 -1.85 0.1 -1.85 0.05 Q-1.8 -0.15 -1.8 -0.3 L-1.8 -0.25 M-1.25 0.55 Q-1.45 0.55 -1.45 0.75 -1.45 0.85 -1.4 0.95 -1.2 1.1 -1.1 0.9 -0.95 0.6 -1.25 0.55 M-1.65 0.55 Q-1.8 0.5 -1.8 0.75 -1.85 0.95 -1.6 0.95 L-1.5 0.95 -1.5 0.9 Q-1.5 0.95 -1.5 0.85 -1.5 0.6 -1.65 0.55 M-4.3 1.0 Q-4.6 1.0 -4.4 1.15 -4.1 1.4 -4.3 1.0 M-6.45 0.4 L-6.5 0.4 -6.65 0.45 -6.8 0.4 -6.8 0.25 Q-6.8 0.15 -6.75 0.1 L-6.45 0.05 Q-6.45 0.1 -6.45 0.25 L-6.45 0.4 M-6.5 1.3 Q-6.7 1.35 -6.85 1.55 -6.95 1.7 -6.85 1.9 -6.6 2.0 -6.4 1.8 -6.1 1.45 -6.5 1.3 M-7.5 0.25 Q-7.55 0.3 -7.6 0.3 L-7.8 0.3 -7.8 0.15 Q-7.8 -0.1 -7.6 -0.15 -7.4 -0.25 -7.4 0.05 -7.4 0.15 -7.5 0.25 M-8.55 0.3 Q-8.55 0.0 -8.35 0.0 -8.15 0.0 -8.15 0.25 -8.15 0.35 -8.2 0.4 -8.3 0.5 -8.35 0.5 L-8.5 0.45 -8.55 0.4 -8.55 0.3 M-7.6 1.55 L-7.65 1.65 Q-7.55 1.85 -7.35 1.7 -7.1 1.45 -7.45 1.4 -7.6 1.4 -7.6 1.55 M-7.95 2.05 L-7.9 2.25 -7.8 2.25 -7.65 2.2 Q-7.6 2.2 -7.6 2.05 -7.6 1.9 -7.75 1.85 -7.95 1.85 -7.95 2.05 M-8.6 1.95 L-8.55 1.9 Q-8.55 1.75 -8.65 1.65 -8.9 1.65 -8.9 1.9 -8.95 2.05 -8.75 2.05 L-8.7 2.05 Q-8.75 2.1 -8.85 2.1 -9.0 2.1 -9.05 2.0 L-9.05 1.85 Q-9.05 1.65 -8.75 1.5 -8.4 1.3 -8.4 1.65 -8.4 1.8 -8.6 1.95 M-9.8 0.8 L-9.75 0.85 -9.75 1.05 -9.9 1.1 -10.05 1.05 -10.1 1.05 -10.1 0.95 Q-10.1 0.9 -10.05 0.8 L-9.8 0.8 M-10.5 0.5 L-10.55 0.6 Q-10.4 0.65 -10.4 0.85 L-10.55 0.65 -10.5 0.5 M-10.75 1.15 L-10.8 1.1 -10.85 1.15 Q-11.15 1.15 -11.2 0.9 -11.2 0.8 -11.2 0.65 -11.2 0.35 -11.05 0.2 L-11.05 0.3 Q-10.65 0.3 -10.65 0.5 -10.7 0.8 -10.6 0.95 L-10.7 1.0 Q-10.75 1.05 -10.75 1.1 L-10.75 1.15" fill="#466130" fill-rule="evenodd" stroke="none"/>
    <path d="M1.1 -12.6 Q1.65 -12.8 2.05 -12.4 2.35 -12.05 2.4 -11.6 L2.4 -11.45 Q2.4 -11.15 2.35 -11.0 2.25 -10.85 2.15 -10.75 2.25 -11.1 2.25 -11.45 2.25 -11.95 1.55 -12.4 L1.1 -12.6 M1.55 -9.5 Q2.15 -9.5 2.25 -9.2 L2.25 -9.15 2.3 -9.1 Q2.4 -9.0 2.4 -8.85 L2.4 -8.65 Q2.4 -8.55 2.35 -8.5 L2.25 -8.35 2.25 -8.3 2.2 -8.3 2.15 -8.2 Q2.0 -8.1 1.85 -8.05 2.3 -8.65 2.3 -8.85 2.3 -9.05 2.1 -9.25 1.9 -9.45 1.55 -9.4 L1.55 -9.5 M2.6 -6.4 L2.6 -6.25 Q2.55 -6.1 2.55 -6.05 2.5 -6.0 2.4 -5.95 L2.25 -5.8 2.1 -5.75 2.25 -5.9 Q2.4 -6.1 2.4 -6.2 2.4 -6.35 2.3 -6.35 L1.95 -6.35 Q1.65 -6.35 1.6 -6.55 1.55 -6.7 1.35 -6.7 1.1 -6.7 0.9 -6.5 0.75 -6.4 0.6 -6.35 L0.65 -6.4 Q0.8 -6.85 1.1 -6.85 L1.35 -6.85 1.45 -6.85 1.7 -6.7 1.75 -6.6 1.85 -6.6 1.9 -6.6 Q2.05 -6.6 2.15 -6.65 L2.2 -6.65 2.2 -6.7 2.25 -6.7 Q2.55 -6.7 2.6 -6.5 L2.6 -6.4 M1.5 -12.0 Q1.6 -12.0 1.6 -11.95 1.7 -11.9 1.7 -11.65 L1.7 -11.6 Q1.7 -11.45 1.65 -11.25 1.55 -11.1 1.45 -11.05 L1.4 -11.05 1.4 -11.1 Q1.4 -11.2 1.45 -11.35 1.55 -11.5 1.55 -11.6 L1.5 -11.8 1.4 -12.0 1.5 -12.0 M-0.4 -2.7 L0.05 -2.65 0.3 -2.6 Q0.45 -2.8 0.75 -2.65 1.0 -2.55 1.1 -2.3 L1.1 -2.25 Q1.25 -2.1 1.3 -1.9 1.45 -1.7 1.45 -1.5 1.45 -1.2 1.35 -1.05 L1.2 -0.9 Q1.05 -0.8 0.75 -0.75 L0.9 -0.95 Q1.2 -1.25 1.2 -1.55 1.2 -2.25 0.35 -2.4 L-0.2 -2.55 Q-0.35 -2.6 -0.4 -2.7 M-4.35 -0.4 L-4.3 -0.35 -4.25 -0.25 Q-3.8 0.7 -3.8 0.95 -3.8 1.15 -3.9 1.4 L-3.9 1.45 Q-4.0 1.6 -4.1 1.65 L-4.15 1.6 Q-4.05 1.1 -4.05 1.0 -4.05 0.8 -4.2 0.4 L-4.3 0.1 -4.35 -0.2 -4.35 -0.4 M-5.55 0.5 L-5.55 0.55 Q-5.5 0.55 -5.5 0.65 -5.5 1.0 -5.85 1.65 L-5.9 1.75 -6.25 2.15 -6.25 2.2 -6.3 2.2 -6.3 2.15 -6.25 1.9 Q-6.15 1.7 -6.15 1.6 L-6.0 1.25 Q-5.9 0.95 -5.9 0.9 -5.9 0.75 -5.95 0.65 L-6.4 0.9 Q-6.75 1.15 -6.9 1.15 L-7.05 1.1 -7.2 1.1 -7.2 1.0 -7.15 0.95 -7.05 0.9 -6.4 0.65 -6.35 0.65 -6.35 0.6 -6.3 0.6 Q-6.1 0.45 -5.9 0.4 L-5.85 0.2 Q-5.6 0.2 -5.5 0.4 L-5.55 0.5 M-7.7 0.7 L-7.65 0.8 Q-7.6 0.95 -7.4 0.95 L-7.35 0.95 -7.4 1.0 -7.5 1.0 Q-7.6 1.0 -7.75 0.8 L-7.8 0.95 -7.9 1.1 -7.95 1.1 -7.95 1.0 Q-7.95 0.7 -7.8 0.65 L-7.7 0.7 M-1.45 -1.9 L-1.35 -1.9 Q-1.25 -2.1 -1.0 -2.15 -0.6 -2.35 -0.6 -1.8 -0.6 -1.7 -0.6 -1.6 L-0.5 -1.6 -0.55 -1.55 Q-0.85 -1.35 -0.8 -1.0 L-0.8 -0.95 -0.7 -0.65 -0.6 -0.6 -0.7 -0.55 Q-0.95 -0.75 -1.0 -0.85 L-1.05 -1.1 Q-1.05 -1.25 -0.9 -1.45 L-0.8 -1.65 Q-0.8 -1.75 -0.85 -1.8 L-0.95 -2.0 Q-1.15 -1.95 -1.3 -1.8 -1.45 -1.65 -1.5 -1.65 L-1.65 -1.7 -1.65 -1.75 -1.55 -1.9 -1.45 -1.9 M0.4 -2.6 L0.95 -2.35 1.0 -2.3 Q0.95 -2.45 0.75 -2.55 L0.5 -2.6 0.45 -2.65 0.4 -2.6 M0.9 -1.65 L1.0 -1.65 1.0 -1.55 0.95 -1.35 Q0.9 -1.25 0.8 -1.15 L0.75 -1.25 0.75 -1.35 Q0.75 -1.55 0.9 -1.65 M-0.25 0.35 Q-0.1 0.3 0.05 0.2 L0.2 0.0 0.3 0.0 0.3 0.1 Q0.3 0.25 0.05 0.5 -0.25 0.75 -0.4 0.75 -1.75 0.05 -1.75 0.0 L-1.7 -0.25 Q-1.65 -0.35 -1.45 -0.35 L-1.35 -0.2 Q-1.45 0.05 -1.0 0.3 -0.45 0.55 -0.25 0.35 M-10.0 -1.9 L-9.85 -2.0 -9.35 -2.2 -9.3 -2.2 Q-8.8 -2.3 -8.45 -2.05 -8.2 -1.9 -8.1 -1.65 -7.9 -1.75 -7.9 -1.2 -7.9 -1.1 -7.95 -1.0 -7.95 -0.75 -8.0 -0.7 -8.05 -0.65 -8.25 -0.6 L-8.4 -0.6 -8.55 -0.55 -8.55 -0.6 -8.35 -1.0 Q-8.2 -1.2 -8.2 -1.3 -8.2 -1.6 -8.45 -1.8 -8.7 -2.0 -9.15 -2.0 -9.6 -2.0 -10.0 -1.9 M-10.5 0.5 L-10.55 0.65 -10.4 0.85 -10.4 0.9 Q-10.4 1.0 -10.45 1.05 -10.55 1.15 -10.65 1.15 L-10.75 1.15 -10.75 1.1 Q-10.75 1.05 -10.7 1.0 L-10.6 0.95 Q-10.7 0.8 -10.65 0.5 -10.65 0.3 -11.05 0.3 L-11.05 0.2 Q-10.95 0.15 -10.85 0.1 -10.5 0.0 -10.5 0.4 L-10.5 0.5" fill="#7d946e" fill-rule="evenodd" stroke="none"/>
    <path d="M1.2 -11.45 Q1.2 -11.6 1.4 -11.55 L1.4 -11.35 1.35 -11.3 1.3 -11.3 1.2 -11.45 M1.3 -6.35 Q1.45 -6.3 1.45 -6.15 1.45 -6.1 1.35 -6.05 L1.25 -6.05 Q1.1 -6.05 1.05 -6.15 1.05 -6.2 1.05 -6.25 L1.05 -6.35 1.3 -6.35 M0.65 -1.8 Q0.6 -1.7 0.45 -1.7 0.35 -1.7 0.3 -1.8 L0.25 -1.9 Q0.25 -2.1 0.45 -2.2 0.65 -2.25 0.65 -2.0 L0.65 -1.8 M-10.15 -0.95 Q-10.15 -1.0 -10.05 -1.15 -9.9 -1.35 -9.8 -1.35 L-9.75 -1.3 -9.75 -1.25 Q-9.75 -1.2 -9.8 -1.05 L-9.95 -0.85 -10.15 -0.85 -10.15 -0.95 M-0.25 -5.85 L-0.35 -5.75 Q-0.45 -5.7 -0.5 -5.7 L-0.6 -5.8 Q-0.6 -6.1 -0.6 -6.15 -0.5 -6.25 -0.25 -5.85 M-2.25 -1.15 L-2.25 -1.1 Q-2.35 -0.95 -2.4 -0.95 L-2.55 -0.95 -2.55 -1.05 Q-2.55 -1.2 -2.45 -1.2 -2.4 -1.25 -2.25 -1.15 M-1.65 0.55 Q-1.5 0.6 -1.5 0.85 -1.5 0.95 -1.5 0.9 L-1.5 0.95 -1.6 0.95 Q-1.85 0.95 -1.8 0.75 -1.8 0.5 -1.65 0.55 M-7.95 2.05 Q-7.95 1.85 -7.75 1.85 -7.6 1.9 -7.6 2.05 -7.6 2.2 -7.65 2.2 L-7.8 2.25 -7.9 2.25 -7.95 2.05 M-8.6 1.95 L-8.7 2.05 -8.75 2.05 Q-8.95 2.05 -8.9 1.9 -8.9 1.65 -8.65 1.65 -8.55 1.75 -8.55 1.9 L-8.6 1.95" fill="#2c401f" fill-rule="evenodd" stroke="none"/>
  </g>
</svg>
