<?xml version="1.0" encoding="UTF-8" standalone="no"?>
<svg xmlns:ffdec="https://www.free-decompiler.com/flash" xmlns:xlink="http://www.w3.org/1999/xlink" ffdec:objectType="shape" height="16.05px" width="14.8px" xmlns="http://www.w3.org/2000/svg">
  <g transform="matrix(1.0, 0.0, 0.0, 1.0, 11.45, 12.8)">
    <path d="M2.95 -11.85 Q2.9 -11.7 2.7 -11.5 L2.6 -11.6 2.75 -11.85 2.75 -12.4 2.6 -12.8 2.65 -12.8 Q2.95 -12.55 2.95 -12.15 L2.95 -11.85 M1.85 -11.15 L1.7 -11.05 1.65 -11.05 1.65 -11.0 1.55 -11.0 1.55 -11.1 1.65 -11.25 1.8 -11.45 1.95 -11.45 1.95 -11.3 Q1.95 -11.25 1.85 -11.15 M2.7 -8.35 L2.9 -8.95 Q2.9 -9.1 2.75 -9.3 2.6 -9.45 2.35 -9.6 3.05 -9.55 3.05 -9.05 3.05 -8.85 3.05 -8.75 2.95 -8.55 2.75 -8.35 L2.7 -8.35 M3.35 -6.1 Q3.35 -5.9 3.25 -5.75 3.1 -5.6 2.65 -5.55 L2.25 -5.55 Q2.35 -5.7 2.75 -5.95 3.2 -6.15 3.2 -6.35 L3.3 -6.35 3.35 -6.1 M1.2 -3.55 L1.3 -3.65 1.65 -3.95 1.65 -4.1 1.7 -4.1 1.7 -4.0 1.75 -4.0 1.75 -3.9 Q1.75 -3.6 1.3 -3.55 L1.2 -3.55 M1.35 -2.05 Q1.75 -1.75 1.95 -1.4 L2.0 -1.3 2.0 -1.2 2.05 -0.85 Q2.05 -0.6 2.0 -0.4 1.85 0.0 1.6 0.0 1.15 0.0 1.0 -0.15 L0.95 -0.4 1.0 -0.4 Q1.0 -0.45 1.05 -0.45 L1.1 -0.4 Q1.55 -0.35 1.75 -0.6 1.85 -0.75 1.85 -1.0 1.85 -1.15 1.7 -1.5 1.55 -1.7 1.3 -2.0 L1.35 -2.05 M1.15 -0.3 Q1.2 -0.2 1.35 -0.2 L1.4 -0.25 1.25 -0.3 1.15 -0.35 1.15 -0.3 M1.55 -0.2 L1.6 -0.2 Q1.75 -0.2 1.8 -0.35 L1.55 -0.2 M-1.8 -12.05 L-1.8 -11.9 Q-1.8 -11.75 -1.75 -11.7 L-1.35 -11.35 -1.5 -11.35 Q-1.85 -11.35 -1.95 -11.5 -1.95 -11.6 -1.95 -11.75 L-1.95 -11.95 Q-1.9 -12.1 -1.8 -12.1 L-1.8 -12.05 M-0.6 -10.0 Q-0.6 -9.85 -0.5 -9.65 -0.35 -9.4 -0.35 -9.3 L-0.35 -9.25 Q-0.35 -9.2 -0.45 -9.2 -0.65 -9.2 -0.8 -9.6 -0.85 -9.85 -0.85 -10.0 L-0.85 -10.3 Q-0.8 -10.45 -0.5 -10.65 -0.45 -10.7 -0.45 -10.55 L-0.55 -10.3 -0.6 -10.0 M-9.9 -2.75 Q-10.1 -2.6 -10.3 -2.65 L-10.35 -2.65 Q-10.1 -3.25 -9.1 -2.95 -8.65 -2.85 -8.35 -2.6 -8.05 -2.4 -8.05 -2.15 L-8.1 -2.15 Q-8.15 -2.4 -8.5 -2.65 -8.8 -2.9 -9.15 -2.9 -9.65 -2.9 -9.9 -2.75 M-11.35 -1.3 Q-11.35 -0.95 -11.3 -0.8 -11.2 -0.55 -10.85 -0.35 L-10.85 -0.3 Q-11.25 -0.5 -11.35 -0.65 -11.45 -0.8 -11.45 -1.05 -11.45 -1.25 -11.3 -1.65 -11.15 -2.15 -10.95 -2.2 L-11.2 -1.75 Q-11.35 -1.5 -11.35 -1.3 M-10.05 -1.3 Q-10.05 -1.15 -9.9 -1.05 -9.5 -0.85 -9.2 -0.6 -10.2 -0.6 -10.2 -1.1 -10.2 -1.45 -10.0 -1.7 -9.75 -2.1 -9.0 -1.9 -9.55 -2.0 -9.85 -1.7 -10.05 -1.45 -10.05 -1.3 M-5.85 -0.3 Q-5.65 -0.55 -5.35 -0.45 L-5.35 -0.4 -5.8 -0.15 Q-5.95 -0.05 -6.05 0.0 L-5.85 -0.3 M-0.95 -6.45 L-1.0 -6.3 Q-1.0 -6.0 -0.85 -5.7 L-0.95 -5.7 Q-1.15 -5.7 -1.15 -5.85 L-1.15 -6.0 Q-1.15 -6.35 -1.1 -6.5 -1.05 -6.8 -0.8 -6.7 L-0.95 -6.45 M-1.3 -4.35 L-1.35 -4.35 Q-1.35 -4.55 -1.1 -4.9 -0.85 -5.25 -0.55 -5.3 -0.65 -5.1 -1.0 -4.75 -1.25 -4.45 -1.3 -4.35 M-3.1 -2.0 Q-3.1 -1.85 -3.0 -1.6 -2.9 -1.35 -2.75 -1.15 -2.55 -0.95 -2.35 -0.9 L-2.3 -0.85 -2.3 -0.8 -2.45 -0.8 Q-2.9 -0.8 -3.15 -1.35 -3.3 -1.6 -3.3 -1.9 -3.3 -2.1 -3.25 -2.35 -3.2 -2.65 -3.1 -2.85 -2.95 -3.15 -2.7 -3.25 -2.5 -3.4 -2.25 -3.35 L-2.2 -3.35 -2.2 -3.3 Q-2.5 -3.25 -2.75 -3.05 -2.95 -2.8 -3.1 -2.25 L-3.1 -2.0 M-4.6 -3.15 Q-4.6 -3.0 -4.9 -2.75 -5.2 -2.5 -5.2 -2.2 -5.2 -1.7 -4.85 -1.1 -4.5 -0.6 -3.9 -0.1 L-3.9 -0.05 -5.1 -1.1 Q-5.4 -1.35 -5.4 -1.95 -5.4 -2.5 -5.35 -2.6 -5.25 -2.95 -4.6 -3.25 -4.6 -3.3 -4.6 -3.15 M-0.4 1.45 Q-0.25 1.3 0.05 1.3 L-0.2 1.5 Q-0.35 1.5 -0.4 1.45 M-1.7 0.75 Q-1.9 1.25 -1.8 1.75 L-1.85 1.75 Q-1.95 1.45 -1.95 1.25 -1.95 1.2 -1.85 0.95 L-1.75 0.7 -1.7 0.75 M-2.1 1.15 Q-2.1 1.65 -1.9 2.0 -1.6 2.55 -0.95 2.55 -0.6 2.55 -0.2 2.15 L0.25 1.7 -0.1 2.3 Q-0.55 2.85 -0.85 2.85 L-1.55 2.85 Q-2.05 2.55 -2.25 2.2 -2.4 1.95 -2.4 1.45 -2.4 1.05 -2.3 0.65 -2.15 0.2 -1.9 -0.05 -1.85 -0.1 -1.85 0.05 -2.1 0.8 -2.1 1.15 M-3.5 1.55 Q-3.55 1.8 -3.8 2.3 -4.2 2.95 -4.6 2.95 -5.0 2.95 -5.2 2.65 -5.3 2.45 -5.3 2.2 L-5.3 1.9 -5.2 1.8 -5.15 1.2 Q-5.1 0.7 -4.9 0.6 L-4.9 0.7 Q-5.0 1.05 -5.1 1.5 L-5.1 2.0 Q-5.1 2.15 -5.0 2.3 -4.9 2.5 -4.75 2.5 -4.25 2.5 -3.95 2.1 -3.65 1.75 -3.6 1.75 L-3.6 1.65 -3.5 1.55 M-5.6 1.8 L-5.55 2.0 Q-5.55 2.25 -5.8 2.65 -6.1 3.15 -6.45 3.15 -6.7 3.15 -6.9 3.0 L-7.0 2.85 -7.0 2.8 -6.55 3.0 Q-6.1 3.0 -5.8 2.4 L-5.65 1.8 -5.6 1.8 M-7.95 0.95 L-8.35 1.6 Q-8.5 1.9 -8.5 2.25 L-8.45 2.65 Q-8.35 3.05 -8.2 3.05 L-7.9 3.0 -7.75 2.9 -7.7 2.9 Q-7.6 2.9 -7.6 2.95 L-7.7 3.1 Q-7.85 3.25 -8.05 3.25 -8.45 3.25 -8.65 2.95 -8.8 2.75 -8.8 2.5 -8.8 2.3 -8.5 1.65 -8.2 1.0 -8.05 0.95 L-7.95 0.95 M-8.65 2.35 L-8.7 2.4 -8.7 2.65 -8.65 2.65 Q-8.6 2.4 -8.65 2.3 L-8.65 2.35 M-8.55 2.9 L-8.5 3.0 -8.45 3.0 -8.55 2.9 M-8.95 1.75 L-8.9 1.8 -8.9 2.0 -8.95 2.05 -9.1 2.05 -9.1 1.75 -8.95 1.75 M-11.0 0.1 L-11.1 0.35 Q-11.1 0.5 -10.95 0.6 L-11.0 0.65 Q-11.2 0.5 -11.2 0.4 -11.2 0.3 -11.15 0.2 L-11.0 0.1" fill="#7d946e" fill-rule="evenodd" stroke="none"/>
  </g>
</svg>
