<?xml version="1.0" encoding="UTF-8" standalone="no"?>
<svg xmlns:ffdec="https://www.free-decompiler.com/flash" xmlns:xlink="http://www.w3.org/1999/xlink" ffdec:objectType="shape" height="18.5px" width="22.6px" xmlns="http://www.w3.org/2000/svg">
  <g transform="matrix(1.0, 0.0, 0.0, 1.0, 13.85, 8.3)">
    <path d="M8.7 -2.35 Q8.45 -0.3 4.75 1.8 0.65 4.1 -6.1 5.55 -3.9 4.05 -3.05 3.35 -1.25 1.85 -0.55 0.6 1.35 -2.9 -4.55 -5.55 2.05 -6.35 5.65 -5.35 9.0 -4.4 8.7 -2.35" fill="url(#gradient0)" fill-rule="evenodd" stroke="none"/>
    <path d="M1.75 -1.95 Q2.05 -4.85 0.85 -8.3 6.2 -4.25 7.0 0.25 7.4 2.25 6.75 4.05 6.15 5.8 4.7 7.2 3.3 8.55 1.25 9.3 -0.8 10.15 -3.2 10.2 -8.6 10.4 -13.85 7.05 -4.4 7.25 -0.45 2.95 1.4 0.9 1.75 -1.95" fill="url(#gradient1)" fill-rule="evenodd" stroke="none"/>
  </g>
  <defs>
    <linearGradient gradientTransform="matrix(-6.0E-4, -0.0049, 0.0061, -9.0E-4, 0.6, -2.8)" gradientUnits="userSpaceOnUse" id="gradient0" spreadMethod="pad" x1="-819.2" x2="819.2">
      <stop offset="0.0" stop-color="#ffffff" stop-opacity="0.0"/>
      <stop offset="0.19607843137254902" stop-color="#ffffff" stop-opacity="0.5019608"/>
      <stop offset="1.0" stop-color="#ffffff" stop-opacity="0.0"/>
    </linearGradient>
    <linearGradient gradientTransform="matrix(0.003, -0.0051, 0.0095, 0.0055, -1.7, 7.75)" gradientUnits="userSpaceOnUse" id="gradient1" spreadMethod="pad" x1="-819.2" x2="819.2">
      <stop offset="0.0" stop-color="#ffffff" stop-opacity="0.0"/>
      <stop offset="0.22745098039215686" stop-color="#ffffff" stop-opacity="0.2509804"/>
      <stop offset="1.0" stop-color="#ffffff" stop-opacity="0.0"/>
    </linearGradient>
  </defs>
</svg>
