<?xml version="1.0" encoding="UTF-8" standalone="no"?>
<svg xmlns:ffdec="https://www.free-decompiler.com/flash" xmlns:xlink="http://www.w3.org/1999/xlink" ffdec:objectType="shape" height="21.0px" width="28.75px" xmlns="http://www.w3.org/2000/svg">
  <g transform="matrix(1.0, 0.0, 0.0, 1.0, 20.25, 21.3)">
    <path d="M3.6 -9.05 Q4.55 -13.55 3.6 -17.15 7.3 -14.45 8.2 -10.3 9.1 -6.25 7.35 -1.05 3.95 -0.05 0.25 -0.4 2.7 -4.85 3.6 -9.05" fill="url(#gradient0)" fill-rule="evenodd" stroke="none"/>
    <path d="M0.3 -0.45 Q1.15 -5.55 0.5 -10.3 -0.25 -15.45 -2.6 -19.6 2.25 -16.5 4.8 -11.75 7.3 -7.1 7.4 -1.15 4.3 0.0 0.3 -0.45" fill="url(#gradient1)" fill-rule="evenodd" stroke="none"/>
    <path d="M-9.55 -4.15 Q-13.6 -7.1 -15.55 -11.3 -17.7 -16.0 -16.75 -21.3 -11.8 -13.15 -6.2 -8.4 -0.15 -3.3 7.6 -1.4 3.7 0.2 -1.0 -0.6 -5.65 -1.4 -9.55 -4.15" fill="url(#gradient2)" fill-rule="evenodd" stroke="none"/>
    <path d="M-10.2 -3.4 Q-14.75 -5.75 -17.4 -9.15 -20.35 -12.85 -20.25 -17.1 -13.95 -10.6 -7.55 -6.8 -0.65 -2.7 7.4 -1.15 3.8 0.1 -1.05 -0.55 -5.8 -1.15 -10.2 -3.4" fill="url(#gradient3)" fill-rule="evenodd" stroke="none"/>
  </g>
  <defs>
    <linearGradient gradientTransform="matrix(-0.0034, 0.0094, -0.0114, 0.0, 5.5, -9.3)" gradientUnits="userSpaceOnUse" id="gradient0" spreadMethod="pad" x1="-819.2" x2="819.2">
      <stop offset="0.0" stop-color="#ffffff" stop-opacity="0.0"/>
      <stop offset="0.7843137254901961" stop-color="#ffffff" stop-opacity="0.7490196"/>
      <stop offset="1.0" stop-color="#ffffff" stop-opacity="0.101960786"/>
    </linearGradient>
    <linearGradient gradientTransform="matrix(0.0, 0.0108, -0.0118, 0.0, 2.4, -10.6)" gradientUnits="userSpaceOnUse" id="gradient1" spreadMethod="pad" x1="-819.2" x2="819.2">
      <stop offset="0.0" stop-color="#ffffff" stop-opacity="0.0"/>
      <stop offset="0.7843137254901961" stop-color="#ffffff" stop-opacity="0.7529412"/>
      <stop offset="1.0" stop-color="#ffffff" stop-opacity="0.101960786"/>
    </linearGradient>
    <linearGradient gradientTransform="matrix(0.015, 0.0, 0.0, 0.0128, -4.7, -10.8)" gradientUnits="userSpaceOnUse" id="gradient2" spreadMethod="pad" x1="-819.2" x2="819.2">
      <stop offset="0.0" stop-color="#ffffff" stop-opacity="0.0"/>
      <stop offset="1.0" stop-color="#ffffff" stop-opacity="0.7529412"/>
    </linearGradient>
    <linearGradient gradientTransform="matrix(0.015, 0.0, 0.0022, 0.0102, -6.5, -8.7)" gradientUnits="userSpaceOnUse" id="gradient3" spreadMethod="pad" x1="-819.2" x2="819.2">
      <stop offset="0.0" stop-color="#ffffff" stop-opacity="0.0"/>
      <stop offset="1.0" stop-color="#ffffff" stop-opacity="0.7490196"/>
    </linearGradient>
  </defs>
</svg>
