<?xml version="1.0" encoding="UTF-8" standalone="no"?>
<svg xmlns:ffdec="https://www.free-decompiler.com/flash" xmlns:xlink="http://www.w3.org/1999/xlink" ffdec:objectType="shape" height="7.15px" width="26.4px" xmlns="http://www.w3.org/2000/svg">
  <g transform="matrix(1.0, 0.0, 0.0, 1.0, 18.05, 3.75)">
    <path d="M-3.15 -1.15 Q-4.7 -2.6 -7.4 -3.75 1.4 -2.65 5.25 2.55 4.85 3.2 3.15 3.25 1.5 3.3 -0.6 2.7 -1.7 0.3 -3.15 -1.15" fill="url(#gradient0)" fill-rule="evenodd" stroke="none"/>
    <path d="M8.35 -3.35 Q7.5 0.55 1.7 2.15 -4.9 4.05 -18.05 3.05 -14.0 3.25 -9.85 2.1 -7.1 1.35 -3.0 -0.45 1.35 -2.4 2.85 -2.85 5.95 -3.85 8.35 -3.35" fill="url(#gradient1)" fill-rule="evenodd" stroke="none"/>
  </g>
  <defs>
    <linearGradient gradientTransform="matrix(0.0011, 0.0067, -0.0042, 7.0E-4, -0.15, -1.8)" gradientUnits="userSpaceOnUse" id="gradient0" spreadMethod="pad" x1="-819.2" x2="819.2">
      <stop offset="0.0" stop-color="#ffffff" stop-opacity="0.0"/>
      <stop offset="0.8666666666666667" stop-color="#ffffff"/>
      <stop offset="1.0" stop-color="#ffffff" stop-opacity="0.101960786"/>
    </linearGradient>
    <linearGradient gradientTransform="matrix(0.0146, -0.0039, 0.0015, 0.0055, -2.45, 1.0)" gradientUnits="userSpaceOnUse" id="gradient1" spreadMethod="pad" x1="-819.2" x2="819.2">
      <stop offset="0.00784313725490196" stop-color="#ffffff" stop-opacity="0.0"/>
      <stop offset="0.7843137254901961" stop-color="#ffffff"/>
      <stop offset="0.984313725490196" stop-color="#ffffff" stop-opacity="0.101960786"/>
    </linearGradient>
  </defs>
</svg>
