<?xml version="1.0" encoding="UTF-8" standalone="no"?>
<svg xmlns:ffdec="https://www.free-decompiler.com/flash" xmlns:xlink="http://www.w3.org/1999/xlink" ffdec:objectType="shape" height="19.4px" width="38.3px" xmlns="http://www.w3.org/2000/svg">
  <g transform="matrix(1.0, 0.0, 0.0, 1.0, 19.15, 19.4)">
    <path d="M0.55 -4.3 Q3.0 -5.15 4.55 -5.85 8.95 -7.9 9.5 -10.65 10.2 -14.2 5.1 -19.4 10.35 -17.2 12.45 -13.6 14.5 -10.2 12.85 -6.9 11.15 -3.45 6.05 -1.6 0.35 0.45 -8.1 -0.15 -7.9 -0.95 -6.55 -1.7 -5.5 -2.3 -3.4 -3.0 -0.8 -3.85 0.55 -4.3" fill="url(#gradient0)" fill-rule="evenodd" stroke="none"/>
    <path d="M19.15 -17.65 Q17.2 -12.4 13.1 -8.25 9.05 -4.05 3.8 -1.85 -1.75 0.4 -7.45 -0.1 -13.65 -0.6 -19.15 -4.35 -17.25 -5.7 -15.1 -6.15 -13.3 -6.55 -11.0 -6.4 -9.6 -6.3 -6.8 -5.8 -3.85 -5.3 -2.35 -5.2 3.05 -4.75 7.45 -6.9 13.3 -9.75 19.15 -17.65" fill="url(#gradient1)" fill-rule="evenodd" stroke="none"/>
  </g>
  <defs>
    <linearGradient gradientTransform="matrix(-0.0132, 0.0, 0.0, -0.0118, 2.75, -9.7)" gradientUnits="userSpaceOnUse" id="gradient0" spreadMethod="pad" x1="-819.2" x2="819.2">
      <stop offset="0.0" stop-color="#a6ffef" stop-opacity="0.0"/>
      <stop offset="0.8117647058823529" stop-color="#e5fffb"/>
      <stop offset="1.0" stop-color="#ffffff" stop-opacity="0.0"/>
    </linearGradient>
    <linearGradient gradientTransform="matrix(-0.0234, 0.0, 0.0, -0.0108, 0.0, -8.8)" gradientUnits="userSpaceOnUse" id="gradient1" spreadMethod="pad" x1="-819.2" x2="819.2">
      <stop offset="0.0" stop-color="#a6ffef" stop-opacity="0.0"/>
      <stop offset="0.8117647058823529" stop-color="#e5fffb"/>
      <stop offset="1.0" stop-color="#ffffff" stop-opacity="0.0"/>
    </linearGradient>
  </defs>
</svg>
