<?xml version="1.0" encoding="UTF-8" standalone="no"?>
<svg xmlns:ffdec="https://www.free-decompiler.com/flash" xmlns:xlink="http://www.w3.org/1999/xlink" ffdec:objectType="shape" height="30.2px" width="22.15px" xmlns="http://www.w3.org/2000/svg">
  <g transform="matrix(1.0, 0.0, 0.0, 1.0, 7.7, 30.2)">
    <path d="M7.55 -17.9 Q8.2 -13.1 6.1 -8.4 3.95 -3.4 -0.65 0.0 2.9 -7.7 0.9 -13.85 -1.05 -19.7 -7.7 -23.5 -7.6 -25.75 -6.85 -27.6 -6.05 -29.55 -5.0 -30.0 0.45 -29.4 3.8 -25.9 6.95 -22.7 7.55 -17.9" fill="url(#gradient0)" fill-rule="evenodd" stroke="none"/>
    <path d="M14.45 -11.05 Q9.55 -27.75 -5.0 -30.0 -1.0 -30.55 2.45 -29.55 5.9 -28.6 8.5 -26.15 11.15 -23.65 12.65 -19.9 14.25 -16.0 14.45 -11.05" fill="url(#gradient1)" fill-rule="evenodd" stroke="none"/>
  </g>
  <defs>
    <linearGradient gradientTransform="matrix(-0.0092, -0.0092, 0.0122, -0.0122, -1.15, -16.9)" gradientUnits="userSpaceOnUse" id="gradient0" spreadMethod="pad" x1="-819.2" x2="819.2">
      <stop offset="0.0" stop-color="#a6ffef" stop-opacity="0.0"/>
      <stop offset="0.8117647058823529" stop-color="#e5fffb"/>
      <stop offset="1.0" stop-color="#ffffff" stop-opacity="0.0"/>
    </linearGradient>
    <linearGradient gradientTransform="matrix(-0.0084, -0.0084, 0.0083, -0.0083, 4.75, -20.6)" gradientUnits="userSpaceOnUse" id="gradient1" spreadMethod="pad" x1="-819.2" x2="819.2">
      <stop offset="0.0" stop-color="#a6ffef" stop-opacity="0.0"/>
      <stop offset="0.8117647058823529" stop-color="#e5fffb"/>
      <stop offset="1.0" stop-color="#ffffff" stop-opacity="0.0"/>
    </linearGradient>
  </defs>
</svg>
