<?xml version="1.0" encoding="UTF-8" standalone="no"?>
<svg xmlns:ffdec="https://www.free-decompiler.com/flash" xmlns:xlink="http://www.w3.org/1999/xlink" ffdec:objectType="shape" height="36.3px" width="39.45px" xmlns="http://www.w3.org/2000/svg">
  <g transform="matrix(1.0, 0.0, 0.0, 1.0, 17.4, 36.3)">
    <path d="M5.9 -35.5 Q14.1 -31.6 16.55 -25.4 17.65 -22.55 17.35 -19.5 17.05 -16.55 15.35 -13.7 11.8 -7.7 3.6 -4.0 -5.4 0.05 -17.4 0.0 -0.1 -3.6 5.1 -10.1 10.45 -16.8 2.8 -26.3 3.0 -30.7 3.5 -32.55 4.2 -35.2 5.9 -35.5" fill="url(#gradient0)" fill-rule="evenodd" stroke="none"/>
    <path d="M3.65 -36.3 Q24.8 -33.2 15.9 -6.1 17.85 -27.0 3.65 -36.3" fill="url(#gradient1)" fill-rule="evenodd" stroke="none"/>
    <path d="M15.55 -31.05 Q20.65 -25.9 22.05 -16.6 17.3 -32.15 4.25 -36.2 10.95 -35.7 15.55 -31.05" fill="url(#gradient2)" fill-rule="evenodd" stroke="none"/>
  </g>
  <defs>
    <linearGradient gradientTransform="matrix(-0.0036, -0.0183, 0.0212, -0.0042, 0.0, -17.8)" gradientUnits="userSpaceOnUse" id="gradient0" spreadMethod="pad" x1="-819.2" x2="819.2">
      <stop offset="0.0" stop-color="#a6ffef" stop-opacity="0.0"/>
      <stop offset="0.8117647058823529" stop-color="#e5fffb"/>
      <stop offset="1.0" stop-color="#ffffff" stop-opacity="0.0"/>
    </linearGradient>
    <linearGradient gradientTransform="matrix(-0.0047, -0.0177, 0.0178, -0.0048, 10.5, -22.3)" gradientUnits="userSpaceOnUse" id="gradient1" spreadMethod="pad" x1="-819.2" x2="819.2">
      <stop offset="0.0" stop-color="#a6ffef" stop-opacity="0.0"/>
      <stop offset="0.8117647058823529" stop-color="#e5fffb"/>
      <stop offset="1.0" stop-color="#ffffff" stop-opacity="0.0"/>
    </linearGradient>
    <linearGradient gradientTransform="matrix(-0.0054, -0.0094, 0.0104, -0.006, 12.25, -28.0)" gradientUnits="userSpaceOnUse" id="gradient2" spreadMethod="pad" x1="-819.2" x2="819.2">
      <stop offset="0.0" stop-color="#a6ffef" stop-opacity="0.0"/>
      <stop offset="0.8117647058823529" stop-color="#e5fffb"/>
      <stop offset="1.0" stop-color="#ffffff" stop-opacity="0.0"/>
    </linearGradient>
  </defs>
</svg>
