<?xml version="1.0" encoding="UTF-8" standalone="no"?>
<svg xmlns:ffdec="https://www.free-decompiler.com/flash" xmlns:xlink="http://www.w3.org/1999/xlink" ffdec:objectType="shape" height="27.85px" width="36.2px" xmlns="http://www.w3.org/2000/svg">
  <g transform="matrix(1.0, 0.0, 0.0, 1.0, 14.45, 27.6)">
    <path d="M9.95 -1.6 Q6.15 -2.2 2.45 -4.55 -1.4 -7.05 -3.75 -10.6 -6.3 -14.55 -6.25 -18.95 -4.7 -14.4 -1.55 -11.45 0.95 -9.2 4.85 -7.55 7.1 -6.65 11.35 -5.25 14.8 -3.95 16.25 -2.55 13.85 -1.0 9.95 -1.6" fill="url(#gradient0)" fill-rule="evenodd" stroke="none"/>
    <path d="M-13.85 -13.75 Q0.4 -2.6 15.2 -1.3 5.75 0.4 -1.7 -2.55 -9.65 -5.75 -13.85 -13.75" fill="url(#gradient1)" fill-rule="evenodd" stroke="none"/>
    <path d="M-0.75 -8.45 Q6.85 -3.45 13.85 -1.6 4.2 -1.05 -3.05 -5.9 -9.2 -10.0 -14.15 -18.4 L-7.45 -13.25 Q-3.7 -10.35 -0.75 -8.45" fill="url(#gradient2)" fill-rule="evenodd" stroke="none"/>
    <path d="M11.2 -8.4 Q4.7 -1.45 -14.45 0.0 -14.05 -3.4 -7.7 -6.35 4.1 -7.85 8.85 -13.15 13.65 -18.5 11.1 -27.6 17.75 -15.35 11.2 -8.4" fill="url(#gradient3)" fill-rule="evenodd" stroke="none"/>
    <path d="M17.5 -11.05 Q14.55 -6.95 10.1 -4.25 5.65 -1.55 -0.05 -0.45 -5.8 0.65 -12.4 0.0 -1.35 -1.3 7.95 -7.2 16.4 -12.6 21.75 -20.7 20.55 -15.25 17.5 -11.05" fill="url(#gradient4)" fill-rule="evenodd" stroke="none"/>
    <path d="M19.1 -26.1 Q19.95 -20.7 18.5 -16.3 17.05 -11.9 13.4 -8.75 9.65 -5.55 3.85 -3.8 -2.15 -2.05 -9.95 -1.95 13.55 -5.4 19.1 -26.1" fill="url(#gradient5)" fill-rule="evenodd" stroke="none"/>
  </g>
  <defs>
    <linearGradient gradientTransform="matrix(0.0137, 0.0, 0.0, 0.0107, 5.0, -10.2)" gradientUnits="userSpaceOnUse" id="gradient0" spreadMethod="pad" x1="-819.2" x2="819.2">
      <stop offset="0.0" stop-color="#a6ffef" stop-opacity="0.0"/>
      <stop offset="0.8117647058823529" stop-color="#e5fffb"/>
      <stop offset="1.0" stop-color="#ffffff" stop-opacity="0.0"/>
    </linearGradient>
    <linearGradient gradientTransform="matrix(0.0145, 0.0084, -0.004, 0.0069, -0.1, -7.2)" gradientUnits="userSpaceOnUse" id="gradient1" spreadMethod="pad" x1="-819.2" x2="819.2">
      <stop offset="0.0" stop-color="#a6ffef" stop-opacity="0.0"/>
      <stop offset="0.8117647058823529" stop-color="#e5fffb"/>
      <stop offset="1.0" stop-color="#ffffff" stop-opacity="0.0"/>
    </linearGradient>
    <linearGradient gradientTransform="matrix(0.0138, 0.01, -0.0061, 0.0083, -0.15, -9.95)" gradientUnits="userSpaceOnUse" id="gradient2" spreadMethod="pad" x1="-819.2" x2="819.2">
      <stop offset="0.0" stop-color="#a6ffef" stop-opacity="0.0"/>
      <stop offset="0.8117647058823529" stop-color="#ffffff"/>
      <stop offset="1.0" stop-color="#ffffff" stop-opacity="0.0"/>
    </linearGradient>
    <linearGradient gradientTransform="matrix(-0.0173, 0.0031, -0.003, -0.0166, 0.15, -13.85)" gradientUnits="userSpaceOnUse" id="gradient3" spreadMethod="pad" x1="-819.2" x2="819.2">
      <stop offset="0.0" stop-color="#a6ffef" stop-opacity="0.0"/>
      <stop offset="0.8117647058823529" stop-color="#e5fffb"/>
      <stop offset="1.0" stop-color="#ffffff" stop-opacity="0.0"/>
    </linearGradient>
    <linearGradient gradientTransform="matrix(-0.0208, 0.0, 0.0, -0.0128, 7.05, -10.3)" gradientUnits="userSpaceOnUse" id="gradient4" spreadMethod="pad" x1="-819.2" x2="819.2">
      <stop offset="0.0" stop-color="#a6ffef" stop-opacity="0.0"/>
      <stop offset="0.8117647058823529" stop-color="#e5fffb"/>
      <stop offset="1.0" stop-color="#ffffff" stop-opacity="0.0"/>
    </linearGradient>
    <linearGradient gradientTransform="matrix(-0.0133, 0.0036, -0.0038, -0.0142, 10.25, -13.55)" gradientUnits="userSpaceOnUse" id="gradient5" spreadMethod="pad" x1="-819.2" x2="819.2">
      <stop offset="0.0" stop-color="#a6ffef" stop-opacity="0.0"/>
      <stop offset="0.8117647058823529" stop-color="#e5fffb"/>
      <stop offset="1.0" stop-color="#ffffff" stop-opacity="0.0"/>
    </linearGradient>
  </defs>
</svg>
