<?xml version="1.0" encoding="UTF-8" standalone="no"?>
<svg xmlns:ffdec="https://www.free-decompiler.com/flash" xmlns:xlink="http://www.w3.org/1999/xlink" ffdec:objectType="shape" height="10.05px" width="30.0px" xmlns="http://www.w3.org/2000/svg">
  <g transform="matrix(1.0, 0.0, 0.0, 1.0, 15.0, 8.45)">
    <path d="M2.75 -0.05 Q-2.15 0.25 -6.8 -1.6 -11.8 -3.65 -15.0 -7.65 -6.65 -0.65 3.55 -3.5 6.6 -4.35 10.55 -6.4 L13.15 -7.7 Q14.4 -8.3 15.0 -8.45 14.45 -4.75 10.95 -2.45 7.6 -0.3 2.75 -0.05" fill="url(#gradient0)" fill-rule="evenodd" stroke="none"/>
    <path d="M-6.1 1.05 Q7.35 0.85 14.6 -6.9 12.5 -1.7 6.9 0.4 1.4 2.45 -6.1 1.05" fill="url(#gradient1)" fill-rule="evenodd" stroke="none"/>
    <path d="M7.95 -4.5 Q10.95 -4.45 12.7 -3.9 7.5 -0.45 1.5 -1.45 -4.1 -2.45 -8.4 -6.95 -6.15 -5.6 -3.4 -5.0 -1.0 -4.5 2.45 -4.45 4.35 -4.45 7.95 -4.5" fill="url(#gradient2)" fill-rule="evenodd" stroke="none"/>
  </g>
  <defs>
    <linearGradient gradientTransform="matrix(0.0183, 0.0, 0.0, 0.0052, 0.0, -4.25)" gradientUnits="userSpaceOnUse" id="gradient0" spreadMethod="pad" x1="-819.2" x2="819.2">
      <stop offset="0.0" stop-color="#ffa6a6" stop-opacity="0.0"/>
      <stop offset="0.40784313725490196" stop-color="#fbc5ff" stop-opacity="0.5019608"/>
      <stop offset="0.8117647058823529" stop-color="#fae5ff"/>
      <stop offset="1.0" stop-color="#ffffff" stop-opacity="0.0"/>
    </linearGradient>
    <linearGradient gradientTransform="matrix(0.0126, 0.0, 0.0, 0.0052, 4.25, -2.65)" gradientUnits="userSpaceOnUse" id="gradient1" spreadMethod="pad" x1="-819.2" x2="819.2">
      <stop offset="0.0" stop-color="#ffa6a6" stop-opacity="0.0"/>
      <stop offset="0.40784313725490196" stop-color="#fbc5ff" stop-opacity="0.5019608"/>
      <stop offset="0.8117647058823529" stop-color="#fae5ff"/>
      <stop offset="1.0" stop-color="#ffffff" stop-opacity="0.0"/>
    </linearGradient>
    <linearGradient gradientTransform="matrix(0.0129, 0.0, 0.0, 0.0035, 2.15, -4.1)" gradientUnits="userSpaceOnUse" id="gradient2" spreadMethod="pad" x1="-819.2" x2="819.2">
      <stop offset="0.0" stop-color="#fba6ff" stop-opacity="0.0"/>
      <stop offset="0.8117647058823529" stop-color="#ffffff"/>
      <stop offset="1.0" stop-color="#ffffff" stop-opacity="0.0"/>
    </linearGradient>
  </defs>
</svg>
