<?xml version="1.0" encoding="UTF-8" standalone="no"?>
<svg xmlns:ffdec="https://www.free-decompiler.com/flash" xmlns:xlink="http://www.w3.org/1999/xlink" ffdec:objectType="shape" height="26.5px" width="45.7px" xmlns="http://www.w3.org/2000/svg">
  <g transform="matrix(1.0, 0.0, 0.0, 1.0, 23.45, 25.5)">
    <path d="M22.25 -7.4 Q9.25 -0.3 -2.7 0.0 -7.85 0.1 -12.15 -1.1 -16.15 -2.25 -18.75 -4.4 -21.3 -6.5 -22.0 -9.2 -22.75 -12.0 -21.35 -14.8 -19.85 -17.85 -16.15 -20.5 -12.1 -23.35 -5.85 -25.5 -9.45 -21.05 -10.0 -17.45 -10.5 -14.0 -8.15 -11.7 -5.85 -9.45 -1.1 -8.65 3.75 -7.8 10.45 -8.5 20.45 -9.6 22.25 -7.4" fill="url(#gradient0)" fill-rule="evenodd" stroke="none"/>
    <path d="M-20.4 -17.25 Q-18.2 -19.6 -14.65 -21.5 -20.55 -16.95 -21.35 -12.3 -21.7 -10.1 -20.85 -8.15 -20.0 -6.25 -18.05 -4.7 -14.0 -1.5 -6.45 -0.85 1.75 -0.15 11.9 -2.75 0.9 1.55 -8.2 0.95 -12.2 0.65 -15.4 -0.6 -18.4 -1.75 -20.4 -3.65 -22.35 -5.5 -23.05 -7.8 -23.8 -10.1 -23.15 -12.5 -22.45 -15.0 -20.4 -17.25" fill="url(#gradient1)" fill-rule="evenodd" stroke="none"/>
  </g>
  <defs>
    <linearGradient gradientTransform="matrix(0.0272, 0.0, 0.0, 0.0156, -7.95, -12.5)" gradientUnits="userSpaceOnUse" id="gradient0" spreadMethod="pad" x1="-819.2" x2="819.2">
      <stop offset="0.0" stop-color="#bff2ff" stop-opacity="0.0"/>
      <stop offset="0.6549019607843137" stop-color="#ccf5ff" stop-opacity="0.78039217"/>
      <stop offset="1.0" stop-color="#ffffff"/>
    </linearGradient>
    <linearGradient gradientTransform="matrix(-0.0064, 0.0064, -0.0097, -0.0097, -13.95, -7.05)" gradientUnits="userSpaceOnUse" id="gradient1" spreadMethod="pad" x1="-819.2" x2="819.2">
      <stop offset="0.0" stop-color="#bff2ff" stop-opacity="0.0"/>
      <stop offset="1.0" stop-color="#ffffff"/>
    </linearGradient>
  </defs>
</svg>
