<?xml version="1.0" encoding="UTF-8" standalone="no"?>
<svg xmlns:ffdec="https://www.free-decompiler.com/flash" xmlns:xlink="http://www.w3.org/1999/xlink" ffdec:objectType="shape" height="21.0px" width="34.5px" xmlns="http://www.w3.org/2000/svg">
  <g transform="matrix(1.0, 0.0, 0.0, 1.0, 17.0, 20.6)">
    <path d="M10.5 -14.25 Q10.65 -17.3 7.5 -20.6 12.55 -18.15 14.95 -15.45 17.15 -13.05 17.0 -10.55 16.85 -8.25 14.8 -6.15 12.9 -4.2 9.65 -2.7 6.45 -1.25 2.65 -0.55 -1.25 0.15 -4.95 -0.05 -8.9 -0.3 -11.9 -1.55 -15.2 -2.95 -17.0 -5.45 -14.5 -8.4 -7.55 -7.45 -3.25 -6.4 0.95 -7.05 5.05 -7.6 7.65 -9.5 10.35 -11.5 10.5 -14.25" fill="url(#gradient0)" fill-rule="evenodd" stroke="none"/>
    <path d="M8.4 -2.95 Q13.0 -4.95 14.75 -8.15 16.7 -11.65 14.7 -15.75 18.7 -12.05 16.95 -8.1 15.4 -4.55 9.95 -2.1 4.55 0.3 -1.8 0.4 -8.75 0.45 -13.75 -2.5 -8.0 -0.65 -1.95 -0.8 3.9 -1.0 8.4 -2.95" fill="url(#gradient1)" fill-rule="evenodd" stroke="none"/>
  </g>
  <defs>
    <linearGradient gradientTransform="matrix(-0.017, 0.0097, -0.0062, -0.0109, 0.1, -10.75)" gradientUnits="userSpaceOnUse" id="gradient0" spreadMethod="pad" x1="-819.2" x2="819.2">
      <stop offset="0.0" stop-color="#bff2ff" stop-opacity="0.0"/>
      <stop offset="0.6549019607843137" stop-color="#ccf5ff" stop-opacity="0.78039217"/>
      <stop offset="1.0" stop-color="#ffffff"/>
    </linearGradient>
    <linearGradient gradientTransform="matrix(0.0039, 0.0058, -0.0082, 0.0055, 6.2, -5.15)" gradientUnits="userSpaceOnUse" id="gradient1" spreadMethod="pad" x1="-819.2" x2="819.2">
      <stop offset="0.0" stop-color="#ffffff" stop-opacity="0.0"/>
      <stop offset="1.0" stop-color="#ffffff"/>
    </linearGradient>
  </defs>
</svg>
