<?xml version="1.0" encoding="UTF-8" standalone="no"?>
<svg xmlns:ffdec="https://www.free-decompiler.com/flash" xmlns:xlink="http://www.w3.org/1999/xlink" ffdec:objectType="shape" height="15.05px" width="36.6px" xmlns="http://www.w3.org/2000/svg">
  <g transform="matrix(1.0, 0.0, 0.0, 1.0, 18.3, 14.0)">
    <path d="M18.3 -14.0 Q18.2 -9.1 14.75 -5.55 11.45 -2.2 5.95 -0.85 0.45 0.55 -5.8 -0.35 -12.45 -1.35 -18.3 -4.7 5.65 1.7 18.3 -14.0" fill="url(#gradient0)" fill-rule="evenodd" stroke="none"/>
    <path d="M17.95 -11.35 Q17.1 -6.3 13.25 -3.1 9.7 -0.2 4.3 0.7 -0.9 1.55 -6.5 0.4 -12.15 -0.8 -16.6 -3.8 -11.05 -1.3 -5.35 -0.6 0.1 0.05 4.95 -1.0 9.75 -2.05 13.1 -4.7 16.55 -7.4 17.95 -11.35" fill="url(#gradient1)" fill-rule="evenodd" stroke="none"/>
  </g>
  <defs>
    <linearGradient gradientTransform="matrix(-0.0198, 0.0114, -0.0043, -0.0074, 2.05, -6.35)" gradientUnits="userSpaceOnUse" id="gradient0" spreadMethod="pad" x1="-819.2" x2="819.2">
      <stop offset="0.0" stop-color="#bff2ff" stop-opacity="0.0"/>
      <stop offset="0.6549019607843137" stop-color="#ccf5ff" stop-opacity="0.78039217"/>
      <stop offset="1.0" stop-color="#ffffff"/>
    </linearGradient>
    <linearGradient gradientTransform="matrix(9.0E-4, 0.0035, -0.0073, 0.002, 5.15, -2.65)" gradientUnits="userSpaceOnUse" id="gradient1" spreadMethod="pad" x1="-819.2" x2="819.2">
      <stop offset="0.0" stop-color="#bff2ff" stop-opacity="0.0"/>
      <stop offset="0.6549019607843137" stop-color="#ccf5ff" stop-opacity="0.78039217"/>
      <stop offset="1.0" stop-color="#ffffff"/>
    </linearGradient>
  </defs>
</svg>
