<?xml version="1.0" encoding="UTF-8" standalone="no"?>
<svg xmlns:ffdec="https://www.free-decompiler.com/flash" xmlns:xlink="http://www.w3.org/1999/xlink" ffdec:objectType="shape" height="21.4px" width="30.2px" xmlns="http://www.w3.org/2000/svg">
  <g transform="matrix(1.0, 0.0, 0.0, 1.0, 14.85, 21.4)">
    <path d="M14.85 -11.5 Q14.8 -9.65 13.6 -7.9 10.9 -4.05 3.9 -1.9 -3.95 0.5 -14.85 -0.1 -8.3 -1.1 -4.35 -3.05 -0.55 -4.95 0.4 -7.6 1.35 -10.2 -0.65 -13.2 -2.65 -16.3 -7.45 -19.4 -6.85 -22.25 3.45 -20.45 10.9 -18.75 13.6 -15.05 14.85 -13.35 14.85 -11.5" fill="url(#gradient0)" fill-rule="evenodd" stroke="none"/>
    <path d="M8.25 -3.6 Q12.65 -6.6 13.75 -9.75 14.7 -12.7 12.65 -15.3 10.65 -17.85 6.35 -19.4 1.9 -21.0 -3.95 -21.15 1.7 -21.9 6.65 -20.4 11.35 -19.0 13.7 -16.2 16.15 -13.3 15.0 -10.05 13.7 -6.5 8.25 -3.6" fill="url(#gradient1)" fill-rule="evenodd" stroke="none"/>
  </g>
  <defs>
    <linearGradient gradientTransform="matrix(-0.0058, -0.0171, 0.0122, -0.0042, 0.0, -10.5)" gradientUnits="userSpaceOnUse" id="gradient0" spreadMethod="pad" x1="-819.2" x2="819.2">
      <stop offset="0.0" stop-color="#bff2ff" stop-opacity="0.0"/>
      <stop offset="0.6549019607843137" stop-color="#ccf5ff" stop-opacity="0.78039217"/>
      <stop offset="1.0" stop-color="#ffffff"/>
    </linearGradient>
    <linearGradient gradientTransform="matrix(0.0039, -0.0026, 0.006, 0.009, 10.85, -12.6)" gradientUnits="userSpaceOnUse" id="gradient1" spreadMethod="pad" x1="-819.2" x2="819.2">
      <stop offset="0.0" stop-color="#bff2ff" stop-opacity="0.0"/>
      <stop offset="0.6549019607843137" stop-color="#ccf5ff" stop-opacity="0.78039217"/>
      <stop offset="1.0" stop-color="#ffffff"/>
    </linearGradient>
  </defs>
</svg>
