<?xml version="1.0" encoding="UTF-8" standalone="no"?>
<svg xmlns:ffdec="https://www.free-decompiler.com/flash" xmlns:xlink="http://www.w3.org/1999/xlink" ffdec:objectType="shape" height="21.35px" width="23.8px" xmlns="http://www.w3.org/2000/svg">
  <g transform="matrix(1.0, 0.0, 0.0, 1.0, 11.65, 21.35)">
    <path d="M9.7 -16.5 Q12.5 -13.5 11.3 -9.45 10.05 -5.0 4.15 0.0 6.35 -3.9 6.45 -7.4 6.55 -10.85 4.55 -13.6 2.5 -16.35 -1.5 -18.15 -5.7 -20.05 -11.65 -20.75 -4.4 -21.65 1.35 -20.45 7.0 -19.3 9.7 -16.5" fill="url(#gradient0)" fill-rule="evenodd" stroke="none"/>
    <path d="M8.35 -18.45 Q11.25 -16.65 11.95 -14.0 12.7 -11.2 10.7 -7.85 12.55 -14.15 7.45 -17.6 2.6 -20.95 -7.45 -21.1 -2.75 -21.65 1.45 -20.95 5.6 -20.25 8.35 -18.45" fill="url(#gradient1)" fill-rule="evenodd" stroke="none"/>
  </g>
  <defs>
    <linearGradient gradientTransform="matrix(0.0, -0.0142, 0.0129, 0.0, 0.0, -10.55)" gradientUnits="userSpaceOnUse" id="gradient0" spreadMethod="pad" x1="-819.2" x2="819.2">
      <stop offset="0.0" stop-color="#bff2ff" stop-opacity="0.0"/>
      <stop offset="0.6549019607843137" stop-color="#ccf5ff" stop-opacity="0.78039217"/>
      <stop offset="1.0" stop-color="#ffffff"/>
    </linearGradient>
    <linearGradient gradientTransform="matrix(0.0066, -0.0038, 0.0041, 0.0071, 2.6, -15.55)" gradientUnits="userSpaceOnUse" id="gradient1" spreadMethod="pad" x1="-819.2" x2="819.2">
      <stop offset="0.0" stop-color="#bff2ff" stop-opacity="0.0"/>
      <stop offset="1.0" stop-color="#ffffff" stop-opacity="0.7529412"/>
    </linearGradient>
  </defs>
</svg>
