<?xml version="1.0" encoding="UTF-8" standalone="no"?>
<svg xmlns:ffdec="https://www.free-decompiler.com/flash" xmlns:xlink="http://www.w3.org/1999/xlink" ffdec:objectType="shape" height="22.8px" width="37.6px" xmlns="http://www.w3.org/2000/svg">
  <g transform="matrix(1.0, 0.0, 0.0, 1.0, 19.1, 20.5)">
    <path d="M6.55 -15.9 Q1.5 -13.75 -1.75 -10.6 -4.9 -7.55 -5.65 -4.15 -6.5 -0.7 -4.6 2.3 -9.65 1.5 -11.45 0.8 -12.3 0.5 -13.15 -0.05 L-14.85 -1.25 Q-19.45 -4.65 -18.2 -8.85 -17.65 -10.8 -15.9 -12.65 -14.2 -14.45 -11.5 -16.0 -5.8 -19.2 1.9 -20.15 10.4 -21.2 18.5 -18.95 11.9 -18.2 6.55 -15.9" fill="url(#gradient0)" fill-rule="evenodd" stroke="none"/>
    <path d="M-16.75 -7.75 Q-17.0 -4.6 -14.45 -2.6 -11.75 -0.45 -6.9 -0.5 -13.2 1.05 -16.55 -1.15 -18.0 -2.15 -18.65 -3.7 -19.25 -5.25 -19.05 -7.05 -18.8 -8.9 -17.8 -10.75 -16.7 -12.65 -14.95 -14.25 -10.9 -17.9 -4.8 -18.8 -10.35 -17.05 -13.6 -13.85 -16.55 -10.95 -16.75 -7.75" fill="url(#gradient1)" fill-rule="evenodd" stroke="none"/>
  </g>
  <defs>
    <linearGradient gradientTransform="matrix(-0.0159, 0.0092, -0.0063, -0.0108, -3.5, -9.3)" gradientUnits="userSpaceOnUse" id="gradient0" spreadMethod="pad" x1="-819.2" x2="819.2">
      <stop offset="0.0" stop-color="#bff2ff" stop-opacity="0.0"/>
      <stop offset="0.6549019607843137" stop-color="#ccf5ff" stop-opacity="0.78039217"/>
      <stop offset="1.0" stop-color="#ffffff"/>
    </linearGradient>
    <linearGradient gradientTransform="matrix(-0.0041, 5.0E-4, -0.0014, -0.0117, -15.8, -8.75)" gradientUnits="userSpaceOnUse" id="gradient1" spreadMethod="pad" x1="-819.2" x2="819.2">
      <stop offset="0.0" stop-color="#bff2ff" stop-opacity="0.0"/>
      <stop offset="1.0" stop-color="#ffffff" stop-opacity="0.7529412"/>
    </linearGradient>
  </defs>
</svg>
