<?xml version="1.0" encoding="UTF-8" standalone="no"?>
<svg xmlns:ffdec="https://www.free-decompiler.com/flash" xmlns:xlink="http://www.w3.org/1999/xlink" ffdec:objectType="shape" height="20.5px" width="11.2px" xmlns="http://www.w3.org/2000/svg">
  <g transform="matrix(1.0, 0.0, 0.0, 1.0, 5.95, 20.35)">
    <path d="M-5.25 -9.3 Q-5.0 -12.95 -2.6 -16.1 -0.15 -19.4 3.45 -20.35 -6.05 -8.55 5.25 0.0 -0.3 -0.1 -3.05 -2.9 -5.5 -5.4 -5.25 -9.3" fill="url(#gradient0)" fill-rule="evenodd" stroke="none"/>
    <path d="M-0.35 -1.55 Q1.9 -0.25 5.0 0.0 0.9 0.55 -1.85 -0.85 -4.35 -2.1 -5.35 -4.7 -6.3 -7.2 -5.7 -10.1 -5.05 -13.1 -3.05 -15.55 -4.4 -12.45 -4.55 -9.7 -4.65 -7.0 -3.6 -4.9 -2.5 -2.8 -0.35 -1.55" fill="url(#gradient1)" fill-rule="evenodd" stroke="none"/>
  </g>
  <defs>
    <linearGradient gradientTransform="matrix(0.0, 0.0115, -0.0124, 0.0, 1.35, -9.7)" gradientUnits="userSpaceOnUse" id="gradient0" spreadMethod="pad" x1="-819.2" x2="819.2">
      <stop offset="0.0" stop-color="#f5bfff" stop-opacity="0.0"/>
      <stop offset="0.6549019607843137" stop-color="#f7ccff" stop-opacity="0.78039217"/>
      <stop offset="1.0" stop-color="#ffffff"/>
    </linearGradient>
    <linearGradient gradientTransform="matrix(-0.0033, 0.0019, -0.0048, -0.0083, -2.85, -6.3)" gradientUnits="userSpaceOnUse" id="gradient1" spreadMethod="pad" x1="-819.2" x2="819.2">
      <stop offset="0.0" stop-color="#bff2ff" stop-opacity="0.0"/>
      <stop offset="1.0" stop-color="#ffffff" stop-opacity="0.7529412"/>
    </linearGradient>
  </defs>
</svg>
