<?xml version="1.0" encoding="UTF-8" standalone="no"?>
<svg xmlns:ffdec="https://www.free-decompiler.com/flash" xmlns:xlink="http://www.w3.org/1999/xlink" ffdec:objectType="shape" height="31.05px" width="24.45px" xmlns="http://www.w3.org/2000/svg">
  <g transform="matrix(1.0, 0.0, 0.0, 1.0, 10.6, 29.9)">
    <path d="M10.15 -6.7 Q8.3 -4.25 5.4 -2.5 -1.0 1.45 -10.6 1.1 -0.3 -0.95 1.4 -7.35 2.8 -12.85 -2.1 -22.35 -3.55 -25.2 -3.65 -27.6 -3.7 -28.7 -3.4 -29.3 -3.1 -29.95 -2.45 -29.9 6.15 -27.7 10.2 -22.35 12.0 -19.9 12.65 -17.15 13.2 -14.45 12.6 -11.75 11.95 -9.05 10.15 -6.7" fill="url(#gradient0)" fill-rule="evenodd" stroke="none"/>
    <path d="M10.4 -8.35 Q12.45 -11.85 12.15 -15.5 11.85 -19.1 9.25 -22.4 6.6 -25.8 1.95 -28.45 7.1 -26.9 10.25 -23.65 13.3 -20.5 13.8 -16.55 14.25 -12.5 11.85 -8.7 9.2 -4.55 3.75 -1.6 8.25 -4.7 10.4 -8.35" fill="url(#gradient1)" fill-rule="evenodd" stroke="none"/>
  </g>
  <defs>
    <linearGradient gradientTransform="matrix(-0.0025, -0.017, 0.018, -0.0026, 0.25, -12.65)" gradientUnits="userSpaceOnUse" id="gradient0" spreadMethod="pad" x1="-819.2" x2="819.2">
      <stop offset="0.0" stop-color="#f5bfff" stop-opacity="0.0"/>
      <stop offset="0.6549019607843137" stop-color="#f7ccff" stop-opacity="0.78039217"/>
      <stop offset="1.0" stop-color="#ffffff"/>
    </linearGradient>
    <linearGradient gradientTransform="matrix(0.0056, -0.0023, 0.0063, 0.0151, 9.7, -16.0)" gradientUnits="userSpaceOnUse" id="gradient1" spreadMethod="pad" x1="-819.2" x2="819.2">
      <stop offset="0.0" stop-color="#bff2ff" stop-opacity="0.0"/>
      <stop offset="1.0" stop-color="#ffffff"/>
    </linearGradient>
  </defs>
</svg>
