<?xml version="1.0" encoding="UTF-8" standalone="no"?>
<svg xmlns:ffdec="https://www.free-decompiler.com/flash" xmlns:xlink="http://www.w3.org/1999/xlink" ffdec:objectType="shape" height="32.5px" width="23.15px" xmlns="http://www.w3.org/2000/svg">
  <g transform="matrix(1.0, 0.0, 0.0, 1.0, 11.1, 32.5)">
    <path d="M10.95 -19.5 Q11.4 -16.7 10.6 -13.85 9.85 -11.05 8.05 -8.55 6.15 -5.95 3.45 -4.05 -2.7 0.15 -11.1 0.0 -5.3 -1.55 -1.65 -4.55 2.0 -7.55 3.15 -11.75 4.35 -16.1 2.75 -21.2 1.05 -26.6 -3.55 -32.5 5.1 -30.4 8.85 -24.85 10.5 -22.4 10.95 -19.5" fill="url(#gradient0)" fill-rule="evenodd" stroke="none"/>
    <path d="M6.9 -26.25 Q3.15 -30.35 -3.55 -32.5 2.65 -31.95 7.0 -28.15 11.15 -24.5 11.9 -19.4 12.7 -14.0 9.25 -9.3 5.45 -4.05 -2.8 -1.1 3.8 -4.05 7.35 -8.6 10.65 -12.9 10.55 -17.6 10.4 -22.35 6.9 -26.25" fill="url(#gradient1)" fill-rule="evenodd" stroke="none"/>
  </g>
  <defs>
    <linearGradient gradientTransform="matrix(-0.0051, -0.019, 0.0191, -0.0051, 2.15, -15.8)" gradientUnits="userSpaceOnUse" id="gradient0" spreadMethod="pad" x1="-819.2" x2="819.2">
      <stop offset="0.0" stop-color="#f5bfff" stop-opacity="0.0"/>
      <stop offset="0.6549019607843137" stop-color="#f7ccff" stop-opacity="0.78039217"/>
      <stop offset="1.0" stop-color="#ffffff"/>
    </linearGradient>
    <linearGradient gradientTransform="matrix(0.0094, -0.0013, 0.0027, 0.019, 4.25, -16.8)" gradientUnits="userSpaceOnUse" id="gradient1" spreadMethod="pad" x1="-819.2" x2="819.2">
      <stop offset="0.0" stop-color="#bff2ff" stop-opacity="0.0"/>
      <stop offset="1.0" stop-color="#ffffff" stop-opacity="0.7529412"/>
    </linearGradient>
  </defs>
</svg>
