<?xml version="1.0" encoding="UTF-8" standalone="no"?>
<svg xmlns:ffdec="https://www.free-decompiler.com/flash" xmlns:xlink="http://www.w3.org/1999/xlink" ffdec:objectType="shape" height="26.3px" width="18.55px" xmlns="http://www.w3.org/2000/svg">
  <g transform="matrix(1.0, 0.0, 0.0, 1.0, 9.0, 26.3)">
    <path d="M6.95 -18.3 Q8.95 -14.8 9.0 -10.1 9.1 -5.45 7.25 0.0 5.7 -10.9 2.3 -16.85 -1.6 -23.65 -9.0 -26.25 -3.1 -26.0 1.0 -23.9 4.9 -21.9 6.95 -18.3" fill="url(#gradient0)" fill-rule="evenodd" stroke="none"/>
    <path d="M6.9 -20.1 Q9.35 -16.6 9.55 -11.65 9.75 -6.4 7.25 0.0 10.65 -11.8 6.35 -18.6 2.1 -25.25 -9.0 -26.25 -3.75 -26.6 0.35 -25.0 4.55 -23.4 6.9 -20.1" fill="url(#gradient1)" fill-rule="evenodd" stroke="none"/>
  </g>
  <defs>
    <linearGradient gradientTransform="matrix(-0.0061, -0.0143, 0.0147, -0.0063, 1.2, -11.5)" gradientUnits="userSpaceOnUse" id="gradient0" spreadMethod="pad" x1="-819.2" x2="819.2">
      <stop offset="0.0" stop-color="#f5bfff" stop-opacity="0.0"/>
      <stop offset="0.6549019607843137" stop-color="#ffa6a6" stop-opacity="0.78039217"/>
      <stop offset="1.0" stop-color="#ffffff"/>
    </linearGradient>
    <linearGradient gradientTransform="matrix(0.006, -0.0041, 0.0092, 0.0132, 3.85, -14.35)" gradientUnits="userSpaceOnUse" id="gradient1" spreadMethod="pad" x1="-819.2" x2="819.2">
      <stop offset="0.0" stop-color="#bff2ff" stop-opacity="0.0"/>
      <stop offset="1.0" stop-color="#ffffff" stop-opacity="0.7529412"/>
    </linearGradient>
  </defs>
</svg>
