<?xml version="1.0" encoding="UTF-8" standalone="no"?>
<svg xmlns:ffdec="https://www.free-decompiler.com/flash" xmlns:xlink="http://www.w3.org/1999/xlink" ffdec:objectType="shape" height="32.85px" width="32.7px" xmlns="http://www.w3.org/2000/svg">
  <g transform="matrix(1.0, 0.0, 0.0, 1.0, 17.0, 32.8)">
    <path d="M-15.55 -10.6 Q-16.3 -15.65 -13.1 -20.45 -9.7 -25.65 -2.8 -28.85 4.95 -32.45 15.7 -32.8 -7.35 -19.95 1.55 -0.9 -4.45 1.4 -10.5 -2.25 -14.85 -5.5 -15.55 -10.6" fill="url(#gradient0)" fill-rule="evenodd" stroke="none"/>
    <path d="M-16.7 -9.0 Q-17.7 -13.6 -15.2 -18.3 -12.5 -23.4 -6.45 -26.9 -11.1 -22.85 -13.1 -18.25 -15.05 -13.9 -14.25 -9.9 -13.45 -5.95 -10.2 -3.4 -6.75 -0.7 -1.3 -0.15 -7.5 0.7 -11.75 -1.95 -15.7 -4.4 -16.7 -9.0" fill="url(#gradient1)" fill-rule="evenodd" stroke="none"/>
  </g>
  <defs>
    <linearGradient gradientTransform="matrix(-0.0063, 0.0236, -0.0193, -0.0051, 2.95, -17.2)" gradientUnits="userSpaceOnUse" id="gradient0" spreadMethod="pad" x1="-819.2" x2="819.2">
      <stop offset="0.0" stop-color="#f5bfff" stop-opacity="0.0"/>
      <stop offset="0.6549019607843137" stop-color="#ffa6a6" stop-opacity="0.78039217"/>
      <stop offset="1.0" stop-color="#ffffff"/>
    </linearGradient>
    <linearGradient gradientTransform="matrix(-0.0088, 0.0038, -0.0065, -0.0151, -9.25, -13.4)" gradientUnits="userSpaceOnUse" id="gradient1" spreadMethod="pad" x1="-819.2" x2="819.2">
      <stop offset="0.0" stop-color="#bff2ff" stop-opacity="0.0"/>
      <stop offset="1.0" stop-color="#ffffff" stop-opacity="0.7529412"/>
    </linearGradient>
  </defs>
</svg>
