<?xml version="1.0" encoding="UTF-8" standalone="no"?>
<svg xmlns:ffdec="https://www.free-decompiler.com/flash" xmlns:xlink="http://www.w3.org/1999/xlink" ffdec:objectType="shape" height="30.7px" width="43.05px" xmlns="http://www.w3.org/2000/svg">
  <g transform="matrix(1.0, 0.0, 0.0, 1.0, 25.8, 30.75)">
    <path d="M15.35 -15.6 Q15.75 -12.05 14.1 -8.8 12.4 -5.5 8.95 -3.3 5.25 -0.95 0.3 -0.3 -5.1 0.4 -11.4 -1.05 -18.35 -2.7 -25.8 -6.9 -17.85 -4.4 -11.95 -4.85 -6.6 -5.25 -3.85 -7.95 -1.25 -10.45 -1.65 -14.25 -2.0 -18.1 -5.35 -21.9 -7.45 -24.35 -8.5 -27.35 -9.0 -28.75 -8.95 -29.65 -8.85 -30.6 -8.15 -30.75 -0.75 -30.15 4.65 -27.8 9.55 -25.7 12.35 -22.35 14.95 -19.25 15.35 -15.6" fill="url(#gradient0)" fill-rule="evenodd" stroke="none"/>
    <path d="M17.15 -15.2 Q17.85 -10.3 14.35 -6.55 10.35 -2.3 1.9 -0.55 7.8 -3.0 11.0 -6.8 14.05 -10.45 14.05 -14.6 14.05 -18.8 11.0 -22.5 7.75 -26.35 1.75 -28.9 7.95 -27.55 12.3 -23.6 16.45 -19.8 17.15 -15.2" fill="url(#gradient1)" fill-rule="evenodd" stroke="none"/>
  </g>
  <defs>
    <linearGradient gradientTransform="matrix(-0.0028, -0.0193, 0.018, -0.0026, 2.2, -12.2)" gradientUnits="userSpaceOnUse" id="gradient0" spreadMethod="pad" x1="-819.2" x2="819.2">
      <stop offset="0.0" stop-color="#f5bfff" stop-opacity="0.0"/>
      <stop offset="0.6549019607843137" stop-color="#ffa6a6" stop-opacity="0.78039217"/>
      <stop offset="1.0" stop-color="#ffffff"/>
    </linearGradient>
    <linearGradient gradientTransform="matrix(0.0056, -0.0023, 0.0063, 0.0151, 9.7, -16.0)" gradientUnits="userSpaceOnUse" id="gradient1" spreadMethod="pad" x1="-819.2" x2="819.2">
      <stop offset="0.0" stop-color="#bff2ff" stop-opacity="0.0"/>
      <stop offset="1.0" stop-color="#ffffff"/>
    </linearGradient>
  </defs>
</svg>
