<?xml version="1.0" encoding="UTF-8" standalone="no"?>
<svg xmlns:ffdec="https://www.free-decompiler.com/flash" xmlns:xlink="http://www.w3.org/1999/xlink" ffdec:objectType="shape" height="40.75px" width="45.1px" xmlns="http://www.w3.org/2000/svg">
  <g transform="matrix(1.0, 0.0, 0.0, 1.0, 21.85, 40.75)">
    <path d="M19.95 -29.4 Q22.05 -25.5 21.8 -20.9 21.55 -16.5 19.15 -12.35 16.75 -8.15 12.75 -5.15 8.55 -2.0 3.3 -0.75 -2.35 0.6 -8.45 -0.5 -15.15 -1.75 -21.85 -5.85 -14.15 -4.4 -8.3 -5.55 -2.6 -6.65 0.45 -10.0 3.6 -13.45 3.45 -18.65 3.25 -24.15 -0.55 -30.85 -2.55 -34.35 -2.3 -37.6 -2.2 -39.0 -1.65 -39.85 -1.05 -40.75 -0.15 -40.75 7.65 -39.65 12.85 -36.5 17.65 -33.65 19.95 -29.4" fill="url(#gradient0)" fill-rule="evenodd" stroke="none"/>
    <path d="M15.95 -32.0 Q12.45 -36.5 6.25 -39.35 14.1 -38.2 18.7 -33.4 22.9 -29.0 23.25 -22.85 23.55 -16.8 20.05 -11.45 16.25 -5.75 8.75 -2.7 14.6 -7.1 17.45 -12.4 20.15 -17.45 19.75 -22.6 19.4 -27.7 15.95 -32.0" fill="url(#gradient1)" fill-rule="evenodd" stroke="none"/>
  </g>
  <defs>
    <linearGradient gradientTransform="matrix(0.0, -0.0266, 0.0249, 0.0, 0.2, -16.9)" gradientUnits="userSpaceOnUse" id="gradient0" spreadMethod="pad" x1="-819.2" x2="819.2">
      <stop offset="0.0" stop-color="#f5bfff" stop-opacity="0.0"/>
      <stop offset="0.6549019607843137" stop-color="#ffa6a6" stop-opacity="0.78039217"/>
      <stop offset="1.0" stop-color="#ffffff"/>
    </linearGradient>
    <linearGradient gradientTransform="matrix(0.008, 0.0, 0.0, 0.0224, 17.1, -21.25)" gradientUnits="userSpaceOnUse" id="gradient1" spreadMethod="pad" x1="-819.2" x2="819.2">
      <stop offset="0.0" stop-color="#bff2ff" stop-opacity="0.0"/>
      <stop offset="1.0" stop-color="#ffffff" stop-opacity="0.7529412"/>
    </linearGradient>
  </defs>
</svg>
