<?xml version="1.0" encoding="UTF-8" standalone="no"?>
<svg xmlns:ffdec="https://www.free-decompiler.com/flash" xmlns:xlink="http://www.w3.org/1999/xlink" ffdec:objectType="shape" height="16.85px" width="19.4px" xmlns="http://www.w3.org/2000/svg">
  <g transform="matrix(1.0, 0.0, 0.0, 1.0, 6.1, 16.0)">
    <path d="M2.35 -2.95 Q4.1 -2.35 6.7 -3.1 9.4 -3.85 12.45 -5.9 10.7 -2.4 7.05 -0.5 3.7 1.2 0.75 0.7 -0.7 0.5 -1.55 -0.25 -2.5 -1.05 -2.65 -2.35 -3.05 -5.25 0.65 -9.75 -0.35 -7.0 0.15 -5.2 0.65 -3.5 2.35 -2.95" fill="url(#gradient0)" fill-rule="evenodd" stroke="none"/>
    <path d="M3.75 -4.2 Q7.4 -3.75 13.3 -4.6 6.25 -0.6 0.8 -0.5 -1.55 -0.45 -3.2 -1.2 -4.8 -1.9 -5.55 -3.15 -6.3 -4.45 -6.05 -6.05 -5.8 -7.7 -4.5 -9.4 -1.55 -13.35 5.35 -16.0 1.3 -12.9 -0.25 -10.3 -1.8 -7.8 -0.8 -6.25 0.25 -4.6 3.75 -4.2" fill="url(#gradient1)" fill-rule="evenodd" stroke="none"/>
  </g>
  <defs>
    <linearGradient gradientTransform="matrix(0.0092, 0.0, 0.0, 0.0065, 4.9, -4.45)" gradientUnits="userSpaceOnUse" id="gradient0" spreadMethod="pad" x1="-819.2" x2="819.2">
      <stop offset="0.0" stop-color="#ffffff" stop-opacity="0.0"/>
      <stop offset="1.0" stop-color="#ffffff" stop-opacity="0.7529412"/>
    </linearGradient>
    <linearGradient gradientTransform="matrix(0.0047, 0.0081, -0.0085, 0.0049, 0.0, -8.0)" gradientUnits="userSpaceOnUse" id="gradient1" spreadMethod="pad" x1="-819.2" x2="819.2">
      <stop offset="0.0" stop-color="#ffffff" stop-opacity="0.0"/>
      <stop offset="1.0" stop-color="#ffffff" stop-opacity="0.7529412"/>
    </linearGradient>
  </defs>
</svg>
