<?xml version="1.0" encoding="UTF-8" standalone="no"?>
<svg xmlns:ffdec="https://www.free-decompiler.com/flash" xmlns:xlink="http://www.w3.org/1999/xlink" ffdec:objectType="shape" height="10.4px" width="26.05px" xmlns="http://www.w3.org/2000/svg">
  <g transform="matrix(1.0, 0.0, 0.0, 1.0, 10.1, 10.4)">
    <path d="M12.85 -0.75 Q10.15 0.2 6.35 -0.55 2.1 -1.35 -2.05 -4.1 14.1 0.5 13.85 -8.85 16.3 -6.15 15.9 -3.85 15.5 -1.75 12.85 -0.75" fill="url(#gradient0)" fill-rule="evenodd" stroke="none"/>
    <path d="M-9.65 -6.3 Q-8.35 -8.8 -4.45 -10.4 -10.45 -1.5 10.1 -2.35 2.75 0.15 -2.5 0.0 -7.1 -0.1 -9.05 -2.1 -9.95 -2.95 -10.1 -4.05 -10.25 -5.15 -9.65 -6.3" fill="url(#gradient1)" fill-rule="evenodd" stroke="none"/>
  </g>
  <defs>
    <linearGradient gradientTransform="matrix(0.011, 0.0, 0.0, 0.0053, 6.95, -4.5)" gradientUnits="userSpaceOnUse" id="gradient0" spreadMethod="pad" x1="-819.2" x2="819.2">
      <stop offset="0.0" stop-color="#ffffff" stop-opacity="0.0"/>
      <stop offset="1.0" stop-color="#ffffff"/>
    </linearGradient>
    <linearGradient gradientTransform="matrix(-0.0081, -0.0068, 0.0041, -0.0049, 0.0, -5.2)" gradientUnits="userSpaceOnUse" id="gradient1" spreadMethod="pad" x1="-819.2" x2="819.2">
      <stop offset="0.0" stop-color="#ffffff" stop-opacity="0.0"/>
      <stop offset="1.0" stop-color="#ffffff"/>
    </linearGradient>
  </defs>
</svg>
