<?xml version="1.0" encoding="UTF-8" standalone="no"?>
<svg xmlns:ffdec="https://www.free-decompiler.com/flash" xmlns:xlink="http://www.w3.org/1999/xlink" ffdec:objectType="shape" height="22.6px" width="27.55px" xmlns="http://www.w3.org/2000/svg">
  <g transform="matrix(1.0, 0.0, 0.0, 1.0, 17.1, 12.7)">
    <path d="M10.35 -0.25 Q9.85 2.35 6.4 4.5 2.85 6.75 -2.85 7.8 -4.35 8.15 -8.35 4.85 0.75 3.1 3.2 -0.35 6.0 -4.25 -1.15 -9.25 5.1 -7.8 8.15 -5.25 10.9 -2.95 10.35 -0.25" fill="url(#gradient0)" fill-rule="evenodd" stroke="none"/>
    <path d="M7.85 -4.4 Q7.9 -0.5 2.8 3.15 -2.9 7.25 -13.7 9.9 -17.7 9.7 -17.0 2.1 -11.2 1.2 -7.55 -0.55 -4.1 -2.25 -3.1 -4.45 -2.15 -6.55 -3.65 -8.75 -5.15 -10.95 -8.95 -12.7 -1.4 -12.85 3.3 -10.4 5.5 -9.3 6.65 -7.75 7.85 -6.2 7.85 -4.4" fill="url(#gradient1)" fill-rule="evenodd" stroke="none"/>
  </g>
  <defs>
    <linearGradient gradientTransform="matrix(-0.0053, 0.0069, -0.0082, -0.0064, -0.25, 2.2)" gradientUnits="userSpaceOnUse" id="gradient0" spreadMethod="pad" x1="-819.2" x2="819.2">
      <stop offset="0.00784313725490196" stop-color="#ffffff" stop-opacity="0.101960786"/>
      <stop offset="1.0" stop-color="#ffffff" stop-opacity="0.0"/>
    </linearGradient>
    <linearGradient gradientTransform="matrix(-0.0081, 0.0047, -0.0069, -0.012, -5.35, 6.1)" gradientUnits="userSpaceOnUse" id="gradient1" spreadMethod="pad" x1="-819.2" x2="819.2">
      <stop offset="0.0" stop-color="#ffffff" stop-opacity="0.101960786"/>
      <stop offset="1.0" stop-color="#ffffff" stop-opacity="0.0"/>
    </linearGradient>
  </defs>
</svg>
