<?xml version="1.0" encoding="UTF-8" standalone="no"?>
<svg xmlns:ffdec="https://www.free-decompiler.com/flash" xmlns:xlink="http://www.w3.org/1999/xlink" ffdec:objectType="shape" height="13.9px" width="32.1px" xmlns="http://www.w3.org/2000/svg">
  <g transform="matrix(1.0, 0.0, 0.0, 1.0, 13.2, 6.95)">
    <path d="M9.5 3.65 Q16.7 2.05 18.9 -2.05 16.6 4.15 10.75 5.4 5.7 6.45 -3.4 4.0 -0.35 4.5 2.95 4.4 6.45 4.3 9.5 3.65" fill="url(#gradient0)" fill-rule="evenodd" stroke="none"/>
    <path d="M-0.45 6.2 Q-2.95 6.9 -5.35 6.95 -7.7 7.0 -9.5 6.45 -11.35 5.85 -12.3 4.7 -13.3 3.5 -13.2 1.85 -12.9 -1.9 -6.85 -6.95 -9.75 -2.6 -8.6 0.1 -7.55 2.55 -3.65 2.85 0.15 3.15 4.7 1.3 9.65 -0.75 13.2 -4.55 11.2 -0.3 6.65 2.8 3.2 5.15 -0.45 6.2" fill="url(#gradient1)" fill-rule="evenodd" stroke="none"/>
  </g>
  <defs>
    <linearGradient gradientTransform="matrix(0.0102, 0.0, 0.0, 0.0024, 5.5, 4.2)" gradientUnits="userSpaceOnUse" id="gradient0" spreadMethod="pad" x1="-819.2" x2="819.2">
      <stop offset="0.0" stop-color="#ffffff" stop-opacity="0.0"/>
      <stop offset="1.0" stop-color="#ffffff" stop-opacity="0.9019608"/>
    </linearGradient>
    <linearGradient gradientTransform="matrix(0.0139, -0.0037, 0.0022, 0.0082, -6.75, -1.5)" gradientUnits="userSpaceOnUse" id="gradient1" spreadMethod="pad" x1="-819.2" x2="819.2">
      <stop offset="0.0" stop-color="#ffffff" stop-opacity="0.0"/>
      <stop offset="1.0" stop-color="#ffffff" stop-opacity="0.9019608"/>
    </linearGradient>
  </defs>
</svg>
