<?xml version="1.0" encoding="UTF-8" standalone="no"?>
<svg xmlns:ffdec="https://www.free-decompiler.com/flash" xmlns:xlink="http://www.w3.org/1999/xlink" ffdec:objectType="shape" height="22.1px" width="43.3px" xmlns="http://www.w3.org/2000/svg">
  <g transform="matrix(1.0, 0.0, 0.0, 1.0, 23.05, 11.4)">
    <path d="M20.05 -1.95 Q20.6 -0.35 19.7 1.75 18.8 3.9 16.55 6.15 14.15 8.5 10.55 10.7 13.4 6.8 13.0 4.6 12.6 2.45 9.05 2.05 1.95 1.3 -16.0 7.75 -22.05 8.9 -23.05 7.05 -7.85 -1.2 3.3 -4.0 12.9 -6.45 17.45 -4.45 19.45 -3.6 20.05 -1.95" fill="url(#gradient0)" fill-rule="evenodd" stroke="none"/>
    <path d="M5.25 -1.3 Q3.95 -3.2 1.35 -4.0 -1.3 -4.85 -4.8 -4.35 -6.4 -5.65 -9.65 -6.5 -11.1 -6.9 -11.5 -7.05 -12.15 -7.35 -12.1 -7.75 -1.5 -11.3 5.65 -11.4 12.3 -11.5 14.5 -8.7 16.7 -5.9 13.9 -1.2 11.0 3.75 3.35 9.45 5.65 6.2 6.1 3.3 6.5 0.65 5.25 -1.3" fill="url(#gradient1)" fill-rule="evenodd" stroke="none"/>
  </g>
  <defs>
    <linearGradient gradientTransform="matrix(0.0103, -0.0114, 0.006, 0.0054, -3.05, 5.45)" gradientUnits="userSpaceOnUse" id="gradient0" spreadMethod="pad" x1="-819.2" x2="819.2">
      <stop offset="0.0" stop-color="#ffffff" stop-opacity="0.0"/>
      <stop offset="1.0" stop-color="#ffffff" stop-opacity="0.7019608"/>
    </linearGradient>
    <linearGradient gradientTransform="matrix(-0.0202, -0.0123, 0.006, -0.0098, 8.2, 1.5)" gradientUnits="userSpaceOnUse" id="gradient1" spreadMethod="pad" x1="-819.2" x2="819.2">
      <stop offset="0.0" stop-color="#ffffff" stop-opacity="0.6"/>
      <stop offset="0.796078431372549" stop-color="#ffffff" stop-opacity="0.7019608"/>
      <stop offset="1.0" stop-color="#ffffff" stop-opacity="0.0"/>
    </linearGradient>
  </defs>
</svg>
