<?xml version="1.0" encoding="UTF-8" standalone="no"?>
<svg xmlns:ffdec="https://www.free-decompiler.com/flash" xmlns:xlink="http://www.w3.org/1999/xlink" ffdec:objectType="shape" height="27.65px" width="26.3px" xmlns="http://www.w3.org/2000/svg">
  <g transform="matrix(1.0, 0.0, 0.0, 1.0, 7.65, 6.6)">
    <path d="M12.55 11.9 Q11.0 16.25 5.45 20.95 2.05 21.5 -2.4 17.95 2.05 15.35 3.8 12.45 5.5 9.7 4.6 6.9 3.75 4.2 0.55 1.8 -2.6 -0.65 -7.65 -2.45 -0.45 -2.2 4.65 -0.3 9.75 1.55 11.85 4.65 14.0 7.9 12.55 11.9" fill="url(#gradient0)" fill-rule="evenodd" stroke="none"/>
    <path d="M15.45 13.85 Q11.7 18.7 5.45 20.95 2.3 21.55 -2.4 17.95 2.95 15.6 5.55 12.15 8.0 8.95 7.65 5.35 7.35 1.8 4.35 -1.3 1.3 -4.5 -3.95 -6.5 6.8 -7.15 12.8 -3.85 18.0 -0.95 18.55 4.25 18.8 6.6 18.0 9.1 17.2 11.55 15.45 13.85" fill="url(#gradient1)" fill-rule="evenodd" stroke="none"/>
  </g>
  <defs>
    <linearGradient gradientTransform="matrix(0.0058, -0.0125, 0.013, 0.006, 0.55, 7.45)" gradientUnits="userSpaceOnUse" id="gradient0" spreadMethod="pad" x1="-819.2" x2="819.2">
      <stop offset="0.0" stop-color="#ffffff" stop-opacity="0.101960786"/>
      <stop offset="0.2627450980392157" stop-color="#ffffff" stop-opacity="0.9019608"/>
      <stop offset="1.0" stop-color="#ffffff" stop-opacity="0.0"/>
    </linearGradient>
    <linearGradient gradientTransform="matrix(0.0084, -0.0146, 0.0146, 0.0084, 1.65, 4.05)" gradientUnits="userSpaceOnUse" id="gradient1" spreadMethod="pad" x1="-819.2" x2="819.2">
      <stop offset="0.0" stop-color="#ffffff" stop-opacity="0.101960786"/>
      <stop offset="0.2627450980392157" stop-color="#ffffff" stop-opacity="0.9019608"/>
      <stop offset="1.0" stop-color="#ffffff" stop-opacity="0.0"/>
    </linearGradient>
  </defs>
</svg>
