<?xml version="1.0" encoding="UTF-8" standalone="no"?>
<svg xmlns:ffdec="https://www.free-decompiler.com/flash" xmlns:xlink="http://www.w3.org/1999/xlink" ffdec:objectType="shape" height="15.3px" width="13.75px" xmlns="http://www.w3.org/2000/svg">
  <g transform="matrix(1.0, 0.0, 0.0, 1.0, 3.75, 8.85)">
    <path d="M7.05 6.3 L6.7 6.3 6.75 6.25 6.65 6.25 6.55 6.3 6.4 6.25 5.15 6.2 1.95 5.3 1.95 5.35 1.9 5.25 Q1.2 4.95 0.5 4.55 -0.55 3.9 -1.25 3.25 -1.6 2.85 -1.75 2.55 L-2.3 2.15 Q-2.55 1.8 -2.8 1.4 L-2.85 1.25 Q-3.45 0.2 -3.65 -0.9 -3.7 -1.3 -3.75 -1.75 L-3.75 -2.35 Q-3.75 -4.65 -2.35 -6.25 -2.0 -6.7 -1.7 -6.9 1.25 -9.25 4.45 -8.8 7.8 -8.3 8.75 -4.85 L8.9 -4.55 9.0 -4.25 Q9.1 -4.1 9.15 -3.35 L9.2 -3.15 9.15 -3.15 9.15 -3.1 9.2 -3.05 9.2 -2.9 9.25 -2.55 Q9.25 -2.1 9.2 -1.7 L9.2 -1.6 9.05 -1.5 9.1 -1.55 9.05 -1.1 8.8 0.15 8.5 1.2 8.2 2.2 8.25 2.2 8.25 2.45 Q8.25 3.35 8.0 4.15 7.7 5.3 7.05 6.3" fill="#c7a36d" fill-rule="evenodd" stroke="none"/>
    <path d="M8.9 -4.55 L9.55 -4.7 9.65 -4.8 9.65 -4.65 9.9 -4.15 9.85 -4.15 Q9.9 -4.0 9.95 -3.15 10.05 -2.75 10.0 -2.35 9.85 -2.1 9.8 -1.65 9.65 -1.0 9.65 -0.45 L9.5 -0.05 Q9.1 1.0 8.85 2.15 8.8 3.2 8.5 4.15 8.3 4.9 7.9 5.65 L7.7 6.1 7.05 6.3 Q7.7 5.3 8.0 4.15 8.25 3.35 8.25 2.45 L8.25 2.2 8.55 1.25 8.5 1.2 8.8 0.15 9.05 -1.1 9.1 -1.55 9.15 -1.55 9.2 -1.6 9.2 -1.7 Q9.25 -2.1 9.25 -2.55 L9.2 -2.9 9.2 -3.05 9.15 -3.1 9.15 -3.15 9.2 -3.15 9.15 -3.35 Q9.1 -4.1 9.0 -4.25 L8.9 -4.55" fill="#1a1a1a" fill-rule="evenodd" stroke="none"/>
    <path d="M8.5 1.2 L8.55 1.25 8.25 2.2 8.2 2.2 8.5 1.2" fill="#a9854f" fill-rule="evenodd" stroke="none"/>
    <path d="M-1.25 0.25 L-1.15 0.3 -1.45 0.25 -1.25 0.25 M-2.2 0.05 L-2.3 0.1 -2.45 -0.05 -2.2 0.05 M2.65 1.2 L2.7 1.2 2.65 1.2" fill="#a69375" fill-rule="evenodd" stroke="none"/>
    <path d="M-2.25 0.6 L-2.25 0.55 -2.25 0.6" fill="#736551" fill-rule="evenodd" stroke="none"/>
    <path d="M7.15 1.5 Q7.15 1.4 7.05 1.25 L7.3 1.25 Q7.2 1.5 7.05 1.7 L7.15 1.5 M5.4 1.9 L5.45 1.5 5.5 1.55 5.5 1.4 6.15 1.35 6.1 1.4 Q6.05 1.55 6.05 1.75 6.2 1.9 6.45 1.95 L6.25 1.95 Q5.75 1.95 5.6 1.95 L5.4 2.0 5.4 1.9 M2.7 1.2 L2.8 1.25 2.8 1.35 2.7 1.6 2.55 1.6 2.6 1.5 2.6 1.25 2.65 1.25 2.65 1.2 2.7 1.2 M0.6 1.25 L0.65 1.2 1.15 1.2 1.15 1.6 0.8 1.6 0.8 1.65 -0.8 1.7 -1.15 1.4 Q-1.5 1.1 -1.75 0.8 L-1.75 0.75 -1.55 0.9 -1.4 0.95 Q-0.45 1.25 0.55 1.35 L0.6 1.25" fill="#ffffff" fill-rule="evenodd" stroke="none"/>
    <path d="M6.4 0.35 Q6.95 0.25 7.45 0.0 L8.1 -0.35 8.3 -0.45 8.55 -0.6 8.65 -0.65 8.7 -0.7 8.7 -0.65 Q9.0 -0.9 9.0 -0.4 L9.0 0.15 Q8.95 0.35 8.75 0.45 L8.5 0.55 8.1 0.65 8.5 0.7 8.5 0.6 8.65 0.7 8.5 1.2 8.45 1.15 8.4 1.1 8.2 1.1 7.95 1.15 7.8 1.15 7.8 1.2 Q7.75 1.55 7.55 2.15 L7.5 2.25 7.45 2.25 7.3 2.15 Q6.9 2.4 6.15 2.4 L5.5 2.4 Q5.4 2.4 5.35 2.35 L5.35 2.55 5.4 2.85 5.4 3.05 5.4 3.2 5.8 4.15 Q6.25 5.25 6.25 5.45 6.25 5.75 6.15 5.8 5.8 6.25 5.4 6.25 5.1 6.35 4.85 6.35 L4.8 6.35 4.35 6.45 Q4.0 6.45 3.5 6.25 L3.1 6.1 2.5 6.0 2.45 5.9 Q2.1 5.75 2.0 5.55 L1.9 5.55 1.95 5.3 1.95 5.2 Q1.95 4.85 2.0 4.7 L2.05 4.65 2.05 4.6 2.3 4.4 2.4 4.5 2.65 4.45 2.65 4.65 2.6 4.9 Q2.6 5.0 2.9 5.25 L3.05 5.35 3.15 5.35 3.15 5.4 Q3.45 5.7 3.8 5.7 4.75 5.7 5.25 5.55 5.5 5.45 5.55 5.35 L5.6 5.3 5.55 5.2 5.55 5.15 Q5.2 4.5 5.05 3.8 L5.05 3.7 Q5.0 3.45 4.95 3.15 L4.95 2.95 4.9 2.4 4.9 1.6 4.9 1.45 Q4.9 1.3 5.0 1.2 L5.0 1.0 5.05 0.8 5.1 0.7 5.1 0.75 5.05 0.6 5.0 0.55 5.0 0.5 5.15 0.35 5.25 0.35 6.4 0.35 M5.4 2.0 L5.6 1.95 Q5.75 1.95 6.25 1.95 L6.45 1.95 Q6.2 1.9 6.05 1.75 6.05 1.55 6.1 1.4 L6.15 1.35 5.5 1.4 5.5 1.55 5.45 1.5 5.4 1.9 5.4 2.0 M7.15 1.5 L7.05 1.7 Q7.2 1.5 7.3 1.25 L7.05 1.25 Q7.15 1.4 7.15 1.5 M-2.75 0.1 L-2.9 0.2 -3.05 0.25 -3.1 0.3 Q-3.2 0.3 -3.2 0.15 L-3.2 0.1 -3.15 -0.1 -3.15 -0.15 Q-2.95 -0.75 -2.05 -1.1 -1.75 -1.2 -1.5 -1.4 L-1.3 -1.45 Q0.2 -1.1 1.65 -0.6 3.1 -0.1 4.6 0.2 4.7 0.25 4.75 0.35 4.4 0.65 4.05 0.75 L3.85 0.8 3.4 0.8 3.45 0.85 3.45 0.95 Q3.4 0.95 3.4 1.05 3.35 1.3 3.15 1.45 L2.95 1.65 Q3.15 1.7 3.15 1.9 L3.15 2.05 Q3.1 2.1 2.95 2.2 L-0.05 2.2 Q-0.9 2.2 -1.05 2.05 L-1.05 2.0 -1.1 2.05 -1.15 2.0 -1.3 1.9 Q-1.65 1.65 -1.9 1.3 -2.2 0.95 -2.25 0.6 L-2.25 0.55 -2.35 0.5 -2.45 0.35 -2.45 0.2 -2.35 0.1 -2.3 0.1 -2.2 0.05 -2.15 0.05 -2.15 0.0 -1.45 0.25 -1.15 0.3 -1.25 0.25 Q-0.2 0.6 0.95 0.65 L2.45 0.6 Q2.15 0.5 1.85 0.3 1.4 0.05 0.95 -0.1 -0.8 -0.8 -2.45 -0.05 L-2.75 0.1 M2.7 1.2 L2.65 1.2 2.65 1.25 2.6 1.25 2.6 1.5 2.55 1.6 2.7 1.6 2.8 1.35 2.8 1.25 2.7 1.2 M0.6 1.25 L0.55 1.35 Q-0.45 1.25 -1.4 0.95 L-1.55 0.9 -1.75 0.75 -1.75 0.8 Q-1.5 1.1 -1.15 1.4 L-0.8 1.7 0.8 1.65 0.8 1.6 1.15 1.6 1.15 1.2 0.65 1.2 0.6 1.25" fill="#1a1a1a" fill-rule="evenodd" stroke="none"/>
    <path d="M7.8 1.2 L7.8 1.15 7.95 1.15 7.8 1.2 M8.2 1.1 L8.4 1.1 8.45 1.15 8.2 1.1" fill="#c7a36d" fill-rule="evenodd" stroke="none"/>
    <path d="M4.75 -1.3 Q4.75 -1.8 5.5 -1.8 5.85 -1.8 6.0 -1.7 6.05 -1.6 6.05 -1.45 6.05 -1.3 5.8 -0.9 5.5 -0.4 5.35 -0.4 4.95 -0.4 4.8 -0.85 4.75 -1.05 4.75 -1.3 M6.4 0.35 L5.25 0.35 5.35 0.25 5.55 0.3 5.85 0.25 5.9 0.3 5.9 0.35 6.4 0.35 M4.9 1.6 L4.9 2.4 4.95 2.95 4.95 3.15 Q5.0 3.45 5.05 3.7 L5.05 3.8 4.95 3.8 4.3 3.7 3.5 3.85 2.95 3.95 Q2.75 3.95 2.7 3.75 L2.65 3.5 Q2.65 3.05 2.8 2.75 2.9 2.45 3.3 2.05 3.9 1.55 4.75 1.55 L4.8 1.6 Q4.8 1.55 4.85 1.6 L4.9 1.6 M5.4 3.05 L5.4 2.85 5.4 3.0 5.45 3.05 5.4 3.05 M7.55 2.15 Q7.75 1.55 7.8 1.2 L7.95 1.15 8.2 1.1 8.45 1.15 8.5 1.2 8.55 1.25 8.25 2.2 7.75 2.1 7.7 2.15 7.55 2.15 M8.5 0.6 L8.5 0.7 8.1 0.65 8.5 0.55 8.5 0.6 M5.4 2.0 L5.4 1.9 5.4 2.0 M4.05 0.75 L3.95 0.8 Q3.85 1.0 3.75 1.0 3.65 1.0 3.55 0.85 L3.45 0.85 3.4 0.8 3.85 0.8 4.05 0.75 M-2.45 0.35 L-2.55 0.35 -2.75 0.1 -2.45 -0.05 Q-0.8 -0.8 0.95 -0.1 1.4 0.05 1.85 0.3 2.15 0.5 2.45 0.6 L0.95 0.65 Q-0.2 0.6 -1.25 0.25 L-1.45 0.25 -2.15 0.0 -2.15 0.05 -2.2 0.05 -2.45 -0.05 -2.3 0.1 -2.35 0.1 -2.45 0.2 -2.45 0.35 M4.3 3.5 L4.5 3.55 4.35 3.5 4.3 3.5 M3.35 2.75 L3.35 2.75 M4.55 1.85 L4.5 1.9 4.55 1.9 4.55 1.85 M2.95 3.6 L2.95 3.65 3.05 3.6 2.95 3.6 M-3.05 -0.8 L-3.0 -0.75 -3.05 -0.55 -3.05 -0.65 Q-3.1 -0.7 -3.05 -0.8" fill="#a9854f" fill-rule="evenodd" stroke="none"/>
  </g>
</svg>
