<?xml version="1.0" encoding="UTF-8" standalone="no"?>
<svg xmlns:ffdec="https://www.free-decompiler.com/flash" xmlns:xlink="http://www.w3.org/1999/xlink" ffdec:objectType="shape" height="15.4px" width="13.75px" xmlns="http://www.w3.org/2000/svg">
  <g transform="matrix(1.0, 0.0, 0.0, 1.0, 3.75, 8.85)">
    <path d="M8.9 -4.55 L9.0 -4.25 Q9.1 -4.1 9.15 -3.35 L9.2 -3.15 9.15 -3.15 9.15 -3.1 9.2 -3.05 9.2 -2.9 9.25 -2.55 Q9.25 -2.1 9.2 -1.7 L9.2 -1.6 9.05 -1.5 9.1 -1.55 9.05 -1.1 8.8 0.15 8.5 1.2 8.2 2.2 8.25 2.2 8.25 2.45 Q8.25 3.35 8.0 4.15 7.7 5.3 7.05 6.3 L6.7 6.3 6.75 6.25 6.65 6.25 6.55 6.3 6.4 6.25 5.15 6.2 5.5 6.1 Q3.7 6.05 1.95 5.3 L1.95 5.35 1.9 5.25 Q1.2 4.95 0.5 4.55 -0.55 3.9 -1.25 3.25 -1.6 2.85 -1.75 2.55 L-2.3 2.15 Q-2.55 1.8 -2.8 1.4 L-2.85 1.25 Q-3.45 0.2 -3.65 -0.9 -3.7 -1.3 -3.75 -1.75 L-3.75 -2.35 Q-3.75 -4.65 -2.35 -6.25 -2.0 -6.7 -1.7 -6.9 1.25 -9.25 4.45 -8.8 7.8 -8.3 8.75 -4.85 L8.9 -4.55 M5.95 5.6 L5.95 5.6" fill="#c7a36d" fill-rule="evenodd" stroke="none"/>
    <path d="M8.9 -4.55 L9.55 -4.7 9.65 -4.8 9.65 -4.65 9.9 -4.15 9.85 -4.15 Q9.9 -4.0 9.95 -3.15 10.05 -2.75 10.0 -2.35 L9.95 -2.3 10.0 -1.85 Q9.8 -1.0 9.65 -0.5 L9.65 -0.45 9.5 -0.05 Q9.1 1.0 8.85 2.15 8.8 3.2 8.5 4.15 8.3 4.9 7.9 5.65 L7.7 6.1 7.05 6.3 Q7.7 5.3 8.0 4.15 8.25 3.35 8.25 2.45 L8.25 2.2 8.55 1.25 8.5 1.2 8.8 0.15 9.05 -1.1 9.1 -1.55 9.15 -1.55 9.2 -1.6 9.2 -1.7 Q9.25 -2.1 9.25 -2.55 L9.2 -2.9 9.2 -3.05 9.15 -3.1 9.15 -3.15 9.2 -3.15 9.15 -3.35 Q9.1 -4.1 9.0 -4.25 L8.9 -4.55" fill="#1a1a1a" fill-rule="evenodd" stroke="none"/>
    <path d="M8.5 1.2 L8.55 1.25 8.25 2.2 8.2 2.2 8.5 1.2" fill="#a9854f" fill-rule="evenodd" stroke="none"/>
    <path d="M1.6 -0.4 Q1.9 -0.15 2.0 0.2 2.1 0.45 2.1 0.7 L2.1 0.9 2.05 1.05 2.05 1.1 Q2.0 1.3 1.85 1.45 0.9 1.35 0.05 1.05 -0.3 0.9 -0.55 0.6 L-0.55 0.55 Q-0.55 0.35 -0.4 0.2 -0.35 -0.1 -0.05 -0.3 0.3 -0.6 0.8 -0.6 1.3 -0.65 1.6 -0.4 M6.9 -0.15 L6.9 -0.2 7.1 -0.25 7.2 -0.15 Q7.65 0.1 7.65 0.7 L7.65 0.95 Q7.5 1.15 7.25 1.3 6.6 1.6 6.15 1.85 5.9 1.8 5.75 1.65 L5.7 1.6 5.65 1.5 Q5.45 1.45 5.45 1.2 L5.4 0.9 5.45 0.7 5.45 0.6 Q5.45 0.4 5.5 0.3 L5.7 0.3 Q6.1 0.3 6.55 0.1 6.75 -0.05 6.9 -0.15" fill="#ffffff" fill-rule="evenodd" stroke="none"/>
    <path d="M-2.85 -1.75 L-3.05 -1.75 -2.65 -2.05 -2.05 -2.45 -1.85 -2.55 Q-1.35 -2.9 -0.7 -3.15 L-0.65 -3.1 Q0.3 -2.6 1.15 -2.3 L1.2 -2.25 1.6 -2.1 Q2.65 -1.75 3.45 -1.7 3.8 -1.7 4.25 -2.6 L4.3 -2.9 4.35 -2.9 4.4 -2.8 4.45 -2.85 Q4.55 -2.55 4.55 -2.2 L4.5 -1.95 4.5 -1.85 4.5 -1.7 4.45 -1.45 4.45 -1.1 4.4 -0.95 4.3 -0.7 4.15 -0.45 Q4.05 -0.2 3.95 -0.2 3.85 -0.2 3.3 -0.6 L2.95 -0.8 2.75 -0.9 2.55 -0.95 2.9 -0.6 Q3.2 -0.2 3.25 0.2 L3.4 0.25 Q4.0 0.55 4.0 1.1 4.0 1.2 3.95 1.3 L3.85 1.45 3.7 1.25 Q3.6 1.15 3.5 1.15 L3.4 1.15 Q3.7 1.3 3.7 1.55 3.7 1.65 3.6 1.85 3.5 2.1 3.5 2.2 3.5 2.4 3.65 2.7 3.85 3.1 3.9 3.5 L3.8 3.5 Q3.75 3.25 3.2 2.6 L3.05 2.35 2.9 2.2 2.6 2.45 2.65 2.7 Q2.65 2.75 2.55 3.0 2.45 3.25 2.45 3.3 2.45 3.45 2.65 3.7 2.8 3.95 2.8 4.05 L2.75 4.25 Q2.7 4.4 2.7 4.5 L2.6 4.5 Q2.7 4.3 2.15 3.55 1.85 3.1 1.7 2.85 L1.55 2.9 1.6 3.1 1.5 3.6 Q1.4 3.9 1.4 4.05 L1.35 4.55 Q1.3 5.0 1.3 5.2 L1.05 4.2 Q0.95 3.9 0.95 3.4 L0.85 3.1 0.75 2.95 0.5 2.9 0.25 3.3 -0.35 4.1 -0.45 4.1 -0.25 3.8 Q-0.2 3.7 -0.2 3.55 -0.2 3.45 -0.25 3.2 -0.35 3.0 -0.35 2.85 L-0.35 2.7 Q-0.65 2.6 -0.85 2.45 -1.1 2.6 -1.2 2.8 L-1.4 3.15 Q-1.55 3.4 -1.7 3.5 L-1.6 3.35 Q-1.55 3.25 -1.55 3.15 -1.55 3.05 -1.65 2.8 L-1.75 2.5 Q-1.75 2.35 -1.5 2.1 L-1.35 1.95 -1.5 1.65 -2.5 1.95 Q-2.6 2.1 -2.6 1.9 -2.6 1.25 -1.8 0.7 L-1.8 0.45 -2.45 0.45 Q-2.65 0.45 -2.95 0.3 L-3.3 0.1 Q-3.15 0.1 -2.7 -0.1 L-2.5 -0.2 -1.95 -0.45 -1.65 -0.55 -1.6 -0.6 -1.8 -0.6 -2.3 -0.65 Q-2.7 -0.75 -2.75 -0.8 L-2.75 -0.85 Q-2.35 -1.2 -1.85 -1.4 L-2.1 -1.4 Q-2.5 -1.4 -2.95 -1.25 L-3.1 -1.25 -2.7 -1.55 -2.65 -1.6 -2.35 -1.65 -2.35 -1.85 -2.85 -1.75 M5.4 -1.35 L5.75 -1.7 Q6.4 -2.45 6.4 -3.3 L6.45 -3.3 6.45 -2.95 6.1 -1.9 Q5.8 -1.15 5.75 -0.7 L5.8 -0.7 5.8 -0.75 6.05 -0.8 Q6.65 -1.0 7.2 -1.05 L7.65 -1.15 8.4 -1.25 9.0 -1.3 Q9.1 -1.15 9.2 -0.8 L9.25 -1.1 Q9.3 -1.0 9.35 -0.9 9.6 -0.6 9.6 -0.15 L9.45 0.3 9.25 0.85 9.25 0.8 9.2 0.75 9.1 0.25 Q9.05 -0.05 8.9 -0.15 L8.85 -0.2 8.8 -0.4 Q8.6 -0.3 8.6 0.05 8.8 0.1 8.9 0.2 9.05 0.35 9.1 0.6 L8.9 0.8 8.75 0.8 8.6 1.4 8.7 0.85 8.75 0.8 8.55 0.85 8.5 0.85 Q8.45 1.4 8.35 1.8 L8.3 1.95 Q8.55 2.3 8.55 2.7 L8.5 2.9 Q8.45 3.0 8.45 3.05 L8.45 3.1 7.95 2.5 7.9 2.5 7.7 2.65 Q7.8 2.85 7.8 3.1 L7.7 3.55 Q7.6 3.9 7.6 4.05 L7.55 4.1 Q7.5 3.35 7.15 3.0 L7.0 2.9 6.85 2.95 6.9 3.6 Q6.95 4.05 6.95 4.25 L6.95 4.3 Q6.85 4.15 6.15 3.5 L6.05 3.35 6.4 4.45 Q6.8 5.4 6.8 5.55 6.8 5.8 6.4 6.15 5.9 6.55 5.2 6.55 L5.05 6.55 4.95 6.5 4.9 6.45 4.7 6.35 4.85 6.25 Q4.95 6.05 5.35 5.95 L5.4 5.95 5.65 5.85 Q5.95 5.7 6.05 5.6 5.8 4.95 5.35 3.3 L5.2 2.75 5.2 2.7 Q5.15 2.65 5.15 2.55 L5.05 2.1 Q4.95 1.95 4.85 1.7 L4.75 1.2 4.8 0.9 4.8 0.85 4.85 0.55 4.9 0.45 4.9 0.35 Q4.9 0.2 5.05 -0.25 L5.2 -0.7 5.2 -0.75 5.1 -1.0 5.1 -1.05 5.4 -1.35 M4.75 3.7 Q4.8 3.45 4.75 3.25 L4.8 3.25 4.85 3.8 4.9 4.2 Q4.9 4.6 4.7 4.9 4.45 5.35 3.85 5.4 L3.8 5.5 3.7 5.9 4.0 5.85 4.1 5.75 Q4.3 5.65 4.5 5.65 L4.7 5.6 4.9 5.65 4.95 5.7 4.25 6.1 Q3.9 6.3 3.7 6.35 L3.45 6.55 Q3.25 6.55 3.25 6.4 L3.2 6.15 3.2 6.05 3.35 5.2 Q3.45 5.0 3.65 4.85 L4.15 4.6 Q4.5 4.3 4.75 3.7 M0.75 -1.7 L0.6 -1.7 0.9 -1.6 0.75 -1.7 M1.6 -0.4 Q1.3 -0.65 0.8 -0.6 0.3 -0.6 -0.05 -0.3 -0.35 -0.1 -0.4 0.2 -0.55 0.35 -0.55 0.55 L-0.55 0.6 Q-0.3 0.9 0.05 1.05 0.9 1.35 1.85 1.45 2.0 1.3 2.05 1.1 L2.05 1.05 2.1 0.9 2.1 0.7 Q2.1 0.45 2.0 0.2 1.9 -0.15 1.6 -0.4 M6.9 -0.15 Q6.75 -0.05 6.55 0.1 6.1 0.3 5.7 0.3 L5.5 0.3 Q5.45 0.4 5.45 0.6 L5.45 0.7 5.4 0.9 5.45 1.2 Q5.45 1.45 5.65 1.5 L5.7 1.6 5.75 1.65 Q5.9 1.8 6.15 1.85 6.6 1.6 7.25 1.3 7.5 1.15 7.65 0.95 L7.65 0.7 Q7.65 0.1 7.2 -0.15 L7.1 -0.25 6.9 -0.2 6.9 -0.15" fill="#1a1a1a" fill-rule="evenodd" stroke="none"/>
    <path d="M4.5 -1.85 L5.55 -1.5 5.4 -1.35 5.1 -1.05 5.1 -1.0 4.8 -1.0 Q4.65 -1.0 4.45 -1.05 L4.45 -1.1 4.45 -1.45 4.5 -1.7 4.5 -1.85" fill="#c7a36d" fill-rule="evenodd" stroke="none"/>
    <path d="M8.9 -0.15 L8.95 -0.1 8.95 0.0 8.9 0.2 Q8.8 0.1 8.6 0.05 8.6 -0.3 8.8 -0.4 L8.85 -0.2 8.9 -0.15 M8.55 0.85 L8.5 0.85 8.55 0.85 M4.8 0.9 L4.45 1.0 4.4 1.15 4.35 1.4 4.4 1.45 4.4 1.55 4.45 1.7 4.45 1.85 4.55 2.25 Q4.75 3.0 4.75 3.7 4.5 4.3 4.15 4.6 L3.65 4.85 Q3.45 5.0 3.35 5.2 L3.2 6.05 Q3.1 5.8 3.1 5.2 L3.2 2.6 Q3.75 3.25 3.8 3.5 L3.9 3.5 Q3.85 3.1 3.65 2.7 3.5 2.4 3.5 2.2 3.5 2.1 3.6 1.85 3.7 1.65 3.7 1.55 3.7 1.3 3.4 1.15 L3.5 1.15 Q3.6 1.15 3.7 1.25 L3.85 1.45 3.95 1.3 Q4.0 1.2 4.0 1.1 4.0 0.55 3.4 0.25 L3.25 0.2 Q3.2 -0.2 2.9 -0.6 L2.55 -0.95 2.75 -0.9 2.95 -0.8 3.3 -0.6 Q3.85 -0.2 3.95 -0.2 4.05 -0.2 4.15 -0.45 L4.3 -0.7 4.4 -0.95 4.45 -1.1 4.45 -1.05 Q4.65 -1.0 4.8 -1.0 L5.1 -1.0 5.2 -0.75 5.2 -0.7 5.05 -0.25 Q4.9 0.2 4.9 0.35 L4.9 0.45 4.85 0.55 4.8 0.85 4.8 0.9 M-2.5 -0.2 L-2.95 -0.6 -3.25 -0.85 -3.35 -0.9 -3.45 -1.0 -3.5 -1.0 -3.5 -1.05 Q-3.5 -1.15 -3.2 -1.45 L-2.9 -1.75 -2.85 -1.75 -2.35 -1.85 -2.35 -1.65 -2.65 -1.6 -2.7 -1.55 -3.1 -1.25 -2.95 -1.25 Q-2.5 -1.4 -2.1 -1.4 L-1.85 -1.4 Q-2.35 -1.2 -2.75 -0.85 L-2.75 -0.8 Q-2.7 -0.75 -2.3 -0.65 L-1.8 -0.6 -1.6 -0.6 -1.65 -0.55 -1.95 -0.45 -2.5 -0.2" fill="#a9854f" fill-rule="evenodd" stroke="none"/>
    <path d="M0.75 -1.7 L0.9 -1.6 0.6 -1.7 0.75 -1.7" fill="#794040" fill-rule="evenodd" stroke="none"/>
  </g>
</svg>
