<?xml version="1.0" encoding="UTF-8" standalone="no"?>
<svg xmlns:ffdec="https://www.free-decompiler.com/flash" xmlns:xlink="http://www.w3.org/1999/xlink" ffdec:objectType="shape" height="15.3px" width="13.75px" xmlns="http://www.w3.org/2000/svg">
  <g transform="matrix(1.0, 0.0, 0.0, 1.0, 3.75, 8.85)">
    <path d="M7.05 6.3 L6.7 6.3 6.75 6.25 6.65 6.25 6.55 6.3 6.4 6.25 5.15 6.2 1.95 5.3 1.95 5.35 1.9 5.25 Q1.2 4.95 0.5 4.55 -0.55 3.9 -1.25 3.25 -1.6 2.85 -1.75 2.55 L-2.3 2.15 Q-2.55 1.8 -2.8 1.4 L-2.85 1.25 Q-3.45 0.2 -3.65 -0.9 -3.7 -1.3 -3.75 -1.75 L-3.75 -2.35 Q-3.75 -4.65 -2.35 -6.25 -2.0 -6.7 -1.7 -6.9 1.25 -9.25 4.45 -8.8 7.8 -8.3 8.75 -4.85 L8.9 -4.55 9.0 -4.25 Q9.1 -4.1 9.15 -3.35 L9.2 -3.15 9.15 -3.15 9.15 -3.1 9.2 -3.05 9.2 -2.9 9.25 -2.55 Q9.25 -2.1 9.2 -1.7 L9.2 -1.6 9.05 -1.5 9.1 -1.55 9.05 -1.1 8.8 0.15 8.5 1.2 8.2 2.2 8.25 2.2 8.25 2.45 Q8.25 3.35 8.0 4.15 7.7 5.3 7.05 6.3" fill="#c7a36d" fill-rule="evenodd" stroke="none"/>
    <path d="M8.9 -4.55 L9.55 -4.7 9.65 -4.8 9.65 -4.65 9.9 -4.15 9.85 -4.15 Q9.9 -4.0 9.95 -3.15 10.05 -2.75 10.0 -2.35 9.85 -2.1 9.8 -1.65 9.65 -1.0 9.65 -0.45 L9.5 -0.05 Q9.1 1.0 8.85 2.15 8.8 3.2 8.5 4.15 8.3 4.9 7.9 5.65 L7.7 6.1 7.05 6.3 Q7.7 5.3 8.0 4.15 8.25 3.35 8.25 2.45 L8.25 2.2 8.55 1.25 8.5 1.2 8.8 0.15 9.05 -1.1 9.1 -1.55 9.15 -1.55 9.2 -1.6 9.2 -1.7 Q9.25 -2.1 9.25 -2.55 L9.2 -2.9 9.2 -3.05 9.15 -3.1 9.15 -3.15 9.2 -3.15 9.15 -3.35 Q9.1 -4.1 9.0 -4.25 L8.9 -4.55" fill="#1a1a1a" fill-rule="evenodd" stroke="none"/>
    <path d="M8.5 1.2 L8.55 1.25 8.25 2.2 8.2 2.2 8.5 1.2" fill="#a9854f" fill-rule="evenodd" stroke="none"/>
    <path d="M-2.3 0.1 L-2.45 -0.05 -2.2 0.05 -2.3 0.1 M-1.45 0.25 L-1.25 0.25 -1.15 0.3 -1.45 0.25 M2.65 1.2 L2.7 1.2 2.65 1.2 M2.5 1.25 L2.45 1.3 2.4 1.25 2.5 1.25" fill="#a69375" fill-rule="evenodd" stroke="none"/>
    <path d="M-2.25 0.6 L-2.25 0.55 -2.25 0.6 M5.9 3.05 L6.05 3.1 6.05 3.2 5.95 3.2 5.9 3.15 5.9 3.05" fill="#736551" fill-rule="evenodd" stroke="none"/>
    <path d="M2.65 1.7 L2.25 2.05 2.15 2.15 1.35 2.55 1.3 2.5 0.75 2.55 -0.15 2.15 -0.6 1.85 Q-1.3 1.35 -1.75 0.8 L-1.75 0.75 -1.55 0.9 -1.4 0.95 Q-0.3 1.3 0.8 1.35 L0.8 1.55 Q0.8 1.65 0.9 1.7 0.8 2.0 1.6 2.0 L1.75 2.0 Q1.9 1.8 2.0 1.6 2.05 1.4 2.0 1.3 L2.4 1.25 2.45 1.3 2.5 1.25 2.65 1.25 2.65 1.2 2.7 1.2 2.8 1.25 2.8 1.35 Q2.7 1.5 2.7 1.65 L2.65 1.7 M5.4 1.9 L5.45 1.5 5.5 1.55 5.5 1.4 6.15 1.35 6.1 1.4 Q6.05 1.55 6.05 1.75 6.25 2.0 6.6 1.9 7.0 1.85 7.15 1.5 7.15 1.4 7.05 1.25 L7.4 1.25 Q7.25 1.35 7.2 1.55 7.15 1.9 7.0 2.15 6.6 2.8 5.85 2.8 L5.6 2.8 5.7 2.9 5.5 2.9 5.4 2.75 5.4 2.6 5.4 2.35 5.5 2.4 5.4 2.15 5.4 1.9" fill="#ffffff" fill-rule="evenodd" stroke="none"/>
    <path d="M-2.45 0.35 L-2.45 0.2 -2.35 0.1 -2.3 0.1 -2.2 0.05 -2.15 0.05 -2.15 0.0 -1.45 0.25 -1.15 0.3 -1.25 0.25 Q-0.2 0.6 0.95 0.65 L2.9 0.5 2.95 0.55 3.05 0.65 3.2 0.75 3.45 0.85 3.45 0.95 Q3.4 0.95 3.4 1.05 3.35 1.3 3.15 1.45 L2.7 1.85 2.65 1.7 2.7 1.65 Q2.7 1.5 2.8 1.35 L2.8 1.25 2.7 1.2 2.65 1.2 2.65 1.25 2.5 1.25 2.4 1.25 2.0 1.3 Q2.05 1.4 2.0 1.6 1.9 1.8 1.75 2.0 L1.6 2.0 Q0.8 2.0 0.9 1.7 0.8 1.65 0.8 1.55 L0.8 1.35 Q-0.3 1.3 -1.4 0.95 L-1.55 0.9 -1.75 0.75 -1.75 0.8 Q-1.3 1.35 -0.6 1.85 L-0.15 2.15 0.75 2.55 Q0.05 2.55 -0.65 2.3 L-0.95 2.15 Q-1.5 1.85 -1.9 1.3 -2.2 0.95 -2.25 0.6 L-2.25 0.55 -2.35 0.5 -2.4 0.4 -2.45 0.35 M-1.75 -1.05 Q-2.15 -0.85 -2.4 -0.7 -2.85 -0.7 -2.85 -1.0 -2.85 -1.1 -2.75 -1.2 L-2.5 -1.55 Q-2.2 -1.9 -1.8 -2.15 -0.6 -2.85 0.65 -2.4 L3.25 -0.85 Q3.65 -0.85 3.9 -0.95 L4.15 -1.1 4.2 -1.1 Q4.25 -1.2 4.35 -1.2 L4.55 -1.15 4.55 -0.9 Q4.55 -0.55 4.3 -0.3 4.0 0.05 3.45 0.05 3.2 0.05 1.8 -0.65 0.45 -1.4 -0.3 -1.4 -1.0 -1.4 -1.75 -1.05 M8.05 0.0 L7.85 -0.25 7.4 -0.7 7.35 -0.7 6.15 -1.2 Q5.55 -1.5 5.55 -1.9 5.55 -2.35 5.65 -2.55 L5.7 -2.6 Q5.7 -2.75 5.7 -2.8 5.75 -2.9 6.0 -2.85 6.05 -2.65 6.1 -2.45 L6.55 -2.1 Q6.95 -1.8 7.25 -1.7 8.05 -1.45 8.45 -0.95 8.8 -0.45 8.8 0.1 L8.8 0.25 8.95 0.5 8.9 0.55 Q8.85 0.6 8.75 0.6 L8.55 0.5 Q8.45 0.45 8.3 0.3 L8.1 -0.05 8.05 0.0 M8.5 0.65 L8.65 0.7 8.5 1.2 8.45 1.15 8.4 1.1 8.2 1.1 7.95 1.15 7.8 1.15 7.8 1.2 Q7.75 1.45 7.65 1.8 L7.55 2.15 Q7.15 3.05 6.5 3.05 L6.2 3.05 6.05 3.1 5.9 3.05 5.8 3.0 5.55 2.9 5.7 2.9 5.6 2.8 5.85 2.8 Q6.6 2.8 7.0 2.15 7.15 1.9 7.2 1.55 7.25 1.35 7.4 1.25 L7.05 1.25 Q7.15 1.4 7.15 1.5 7.0 1.85 6.6 1.9 6.25 2.0 6.05 1.75 6.05 1.55 6.1 1.4 L6.15 1.35 5.5 1.4 5.5 1.55 5.45 1.5 5.4 1.9 5.35 2.15 5.35 2.3 5.4 2.6 5.4 2.75 5.4 3.2 5.5 3.45 5.8 4.15 Q6.25 5.25 6.25 5.45 6.25 5.75 6.15 5.8 5.8 6.25 5.4 6.25 5.1 6.35 4.85 6.35 L4.8 6.35 4.35 6.45 Q4.0 6.45 3.5 6.25 L3.1 6.1 2.5 6.0 2.45 5.9 Q2.1 5.75 2.0 5.55 L1.9 5.55 1.95 5.3 1.95 5.2 Q1.95 4.85 2.0 4.7 L2.05 4.65 2.05 4.6 2.3 4.4 2.4 4.5 2.65 4.45 2.65 4.65 2.6 4.9 Q2.6 5.0 2.9 5.25 L3.05 5.35 3.15 5.35 3.15 5.4 Q3.45 5.7 3.8 5.7 4.75 5.7 5.25 5.55 5.5 5.45 5.55 5.35 L5.6 5.3 5.55 5.2 5.55 5.15 Q5.2 4.5 5.05 3.8 L5.05 3.7 Q5.0 3.45 4.95 3.15 L4.95 2.95 4.9 2.4 4.9 1.6 4.9 1.45 Q4.9 1.3 5.0 1.2 L5.0 1.0 5.05 0.8 5.1 0.7 5.1 0.75 5.2 0.65 Q5.25 0.65 5.4 0.7 5.55 0.8 5.6 0.85 6.2 0.95 7.05 0.7 L7.15 0.65 7.75 0.65 8.5 0.7 8.5 0.65 M8.7 -0.2 L8.7 -0.2" fill="#1a1a1a" fill-rule="evenodd" stroke="none"/>
    <path d="M2.9 0.5 L2.95 0.5 2.95 0.55 2.9 0.5 M8.7 -0.2 L8.7 -0.2 M7.8 1.2 L7.8 1.15 7.95 1.15 7.8 1.2 M8.2 1.1 L8.4 1.1 8.45 1.15 8.2 1.1" fill="#c7a36d" fill-rule="evenodd" stroke="none"/>
    <path d="M-2.45 0.35 L-2.55 0.35 -2.9 -0.2 -2.95 -0.35 -2.9 -0.35 -2.8 -0.4 Q-0.9 -1.5 1.05 -0.75 1.55 -0.55 2.0 -0.3 2.55 0.0 3.05 0.15 3.25 0.2 3.45 0.3 L3.55 0.2 4.0 0.2 Q4.1 0.25 4.1 0.55 4.1 0.65 3.95 0.8 3.85 1.0 3.75 1.0 3.65 1.0 3.6 0.9 L3.5 1.05 Q3.3 1.5 3.05 1.85 2.25 2.95 0.95 2.95 -0.85 2.95 -1.8 1.7 -2.35 1.0 -2.4 0.4 L-2.35 0.5 -2.25 0.55 -2.25 0.6 Q-2.2 0.95 -1.9 1.3 -1.5 1.85 -0.95 2.15 L-0.65 2.3 Q0.05 2.55 0.75 2.55 L1.3 2.5 1.35 2.55 2.15 2.15 2.25 2.05 2.65 1.7 2.7 1.85 3.15 1.45 Q3.35 1.3 3.4 1.05 3.4 0.95 3.45 0.95 L3.45 0.85 3.2 0.75 3.05 0.65 2.95 0.55 2.95 0.5 2.9 0.5 0.95 0.65 Q-0.2 0.6 -1.25 0.25 L-1.45 0.25 -2.15 0.0 -2.15 0.05 -2.2 0.05 -2.45 -0.05 -2.3 0.1 -2.35 0.1 -2.45 0.2 -2.45 0.35 M-3.0 -0.75 L-3.05 -0.55 -3.05 -0.65 Q-3.1 -0.7 -3.05 -0.8 L-3.0 -0.75 M8.3 0.3 Q8.35 0.5 8.5 0.65 L8.5 0.7 7.75 0.65 7.15 0.65 7.05 0.7 Q6.2 0.95 5.6 0.85 5.55 0.8 5.4 0.7 5.25 0.65 5.2 0.65 5.15 0.55 5.25 0.45 L5.3 0.35 5.25 0.2 Q5.25 -0.2 5.35 -0.3 L5.8 -0.3 Q7.15 0.0 8.0 0.0 L8.05 0.0 8.1 -0.05 8.3 0.3 M8.5 1.2 L8.55 1.25 8.25 2.2 7.9 2.15 Q7.8 2.4 7.4 2.85 6.75 3.55 6.15 3.55 5.75 3.55 5.5 3.45 L5.4 3.2 5.4 2.75 5.5 2.9 5.5 2.95 5.8 3.0 5.9 3.05 5.9 3.15 5.95 3.2 6.05 3.2 6.05 3.1 6.2 3.05 6.5 3.05 Q7.15 3.05 7.55 2.15 L7.65 1.8 Q7.75 1.45 7.8 1.2 L7.95 1.15 8.2 1.1 8.45 1.15 8.5 1.2 M5.05 3.8 L4.95 3.8 4.3 3.7 3.5 3.85 2.95 3.95 Q2.75 3.95 2.7 3.75 L2.65 3.5 Q2.65 3.05 2.8 2.75 2.9 2.45 3.3 2.05 3.9 1.55 4.75 1.55 L4.8 1.6 Q4.8 1.55 4.85 1.6 L4.9 1.6 4.9 2.4 4.95 2.95 4.95 3.15 Q5.0 3.45 5.05 3.7 L5.05 3.8 M5.4 1.9 L5.4 2.15 5.5 2.4 5.4 2.35 5.4 2.6 5.35 2.3 5.35 2.15 5.4 1.9 M3.35 2.75 L3.35 2.75 M4.3 3.5 L4.5 3.55 4.35 3.5 4.3 3.5 M4.55 1.9 L4.55 1.85 4.5 1.9 4.55 1.9 M2.95 3.6 L2.95 3.65 3.05 3.6 2.95 3.6" fill="#a9854f" fill-rule="evenodd" stroke="none"/>
  </g>
</svg>
