<?xml version="1.0" encoding="UTF-8" standalone="no"?>
<svg xmlns:ffdec="https://www.free-decompiler.com/flash" xmlns:xlink="http://www.w3.org/1999/xlink" ffdec:objectType="shape" height="23.85px" width="22.65px" xmlns="http://www.w3.org/2000/svg">
  <g transform="matrix(1.0, 0.0, 0.0, 1.0, 17.15, 16.8)">
    <path d="M0.55 -10.1 L1.7 -7.45 Q0.25 -7.2 -1.05 -6.8 L0.55 -10.1" fill="#c7a36d" fill-rule="evenodd" stroke="none"/>
    <path d="M2.1 -10.95 Q2.3 -10.85 2.5 -10.7 3.15 -10.5 3.5 -10.05 3.65 -9.8 3.95 -9.2 4.2 -8.7 4.4 -8.5 5.2 -7.1 5.3 -6.85 5.5 -6.35 5.5 -5.45 5.5 -4.55 5.2 -3.85 4.9 -3.25 4.4 -2.75 4.15 -2.35 3.8 -2.05 L3.8 -2.3 3.85 -2.6 3.8 -2.85 3.95 -4.35 Q3.85 -4.9 3.7 -5.35 L3.15 -6.75 Q3.25 -6.1 3.25 -5.25 3.25 -4.2 2.75 -3.05 2.3 -1.95 1.5 -0.8 L1.4 -0.85 Q1.35 -0.9 1.35 -1.0 L1.55 -2.0 1.7 -2.85 Q0.5 -5.9 -0.1 -8.65 L-0.05 -8.15 -0.05 -7.5 Q-0.05 -5.85 -1.65 -3.45 L-3.05 -1.45 Q-3.95 -0.25 -4.35 0.5 -4.45 0.45 -4.5 0.4 L-4.5 0.25 Q-4.5 -0.35 -3.9 -1.95 L-3.15 -3.8 Q-2.9 -4.5 -2.65 -5.4 -3.0 -4.85 -3.6 -4.0 -4.95 -2.15 -5.25 -1.85 -6.3 -0.85 -6.95 0.4 -7.35 1.25 -7.85 2.75 L-7.85 2.8 -8.0 2.85 Q-8.15 2.85 -8.2 2.4 L-8.2 1.7 -8.25 0.95 -8.3 0.55 Q-8.45 1.4 -8.45 1.85 -8.45 2.65 -8.15 4.75 L-8.15 5.0 -8.3 5.05 Q-8.7 3.6 -9.2 2.15 L-9.9 0.05 Q-10.3 -1.05 -10.45 -2.25 L-10.6 -2.35 -10.75 -2.55 -10.8 -2.55 -10.9 -2.7 -11.2 -2.75 Q-11.7 -2.75 -12.15 -2.25 L-12.7 -1.85 Q-12.8 -1.75 -12.9 -1.7 L-12.9 -1.65 Q-12.9 -1.4 -12.8 -1.05 L-12.8 -0.95 Q-12.85 -0.7 -12.75 -0.45 L-12.75 -0.35 Q-12.75 -0.1 -12.4 0.55 -12.2 0.9 -11.95 1.1 L-11.85 1.25 Q-11.35 1.5 -10.75 1.55 L-10.6 1.6 -10.45 1.6 -10.45 1.65 Q-10.4 1.65 -10.4 1.75 L-10.4 1.8 Q-10.0 2.0 -9.6 2.45 -8.7 3.45 -8.7 4.25 L-8.75 4.8 Q-8.8 5.2 -8.9 5.5 L-8.95 5.5 -8.95 5.45 -9.05 5.8 Q-9.25 7.05 -9.3 7.05 -10.5 7.05 -10.8 4.85 L-10.9 4.1 -10.95 4.2 Q-11.5 5.0 -12.05 5.0 L-12.7 4.95 -12.75 4.9 -12.75 4.8 -12.35 4.2 Q-11.95 3.65 -11.95 3.4 -11.95 2.7 -12.15 1.85 L-12.15 1.8 -12.2 1.85 Q-12.6 2.25 -12.7 2.55 L-12.7 2.65 Q-12.85 2.85 -13.0 3.25 L-13.2 3.75 Q-13.85 3.75 -14.05 2.3 -14.2 1.6 -14.15 0.85 -14.15 0.6 -13.8 -0.3 -13.45 -1.15 -13.45 -1.25 -13.45 -1.3 -13.6 -1.4 L-13.95 -1.7 -14.05 -1.7 Q-15.0 -1.7 -15.9 -2.75 -16.7 -3.65 -16.7 -4.15 -16.7 -4.5 -15.55 -3.95 -16.0 -4.35 -16.15 -4.55 -16.75 -5.35 -16.95 -5.9 -17.15 -6.4 -17.15 -7.2 -17.15 -8.1 -16.85 -9.05 -16.65 -9.75 -16.4 -9.75 L-16.2 -8.85 -15.8 -7.85 Q-15.9 -8.35 -15.9 -8.8 -15.9 -10.9 -15.1 -12.45 -14.0 -14.6 -11.5 -15.1 L-11.35 -15.25 Q-9.6 -16.8 -7.45 -16.75 -6.75 -16.95 -5.55 -16.35 -4.45 -15.8 -4.45 -15.6 -4.45 -15.35 -4.7 -15.35 -4.85 -15.35 -5.2 -15.5 -5.6 -15.65 -5.95 -15.65 -6.55 -15.65 -7.45 -15.3 L-8.3 -14.95 -8.35 -14.95 -7.3 -15.0 -6.45 -15.05 Q-5.05 -15.05 -4.1 -14.5 -3.65 -14.2 -3.0 -13.55 -2.15 -13.3 -1.55 -12.95 -0.7 -12.55 -0.1 -11.85 L0.05 -11.9 Q0.65 -11.9 1.0 -11.5 L1.1 -11.25 Q1.65 -11.1 2.1 -10.95 M2.0 -8.95 L1.7 -9.55 1.7 -9.6 Q2.55 -8.95 2.9 -7.8 3.45 -7.0 3.75 -6.45 4.15 -5.7 4.25 -5.05 4.35 -4.75 4.35 -4.55 L4.3 -3.7 4.25 -3.5 Q4.6 -4.1 4.9 -4.55 5.1 -4.85 5.1 -5.5 5.1 -6.85 4.1 -8.35 3.15 -9.8 1.75 -10.6 0.65 -10.9 -1.15 -10.9 -2.9 -10.9 -4.35 -10.45 L-4.45 -10.45 -4.65 -10.35 -4.75 -10.35 Q-5.4 -10.1 -5.95 -9.8 -6.4 -9.7 -7.0 -9.2 L-7.1 -9.05 -7.9 -8.45 -8.6 -7.65 Q-9.0 -7.35 -9.4 -6.5 L-9.45 -6.45 -9.75 -5.85 Q-10.15 -5.2 -10.25 -4.6 L-10.3 -4.5 -10.3 -4.15 -10.25 -3.7 -10.3 -3.45 -10.15 -2.5 Q-10.05 -2.3 -10.05 -2.1 L-10.05 -2.05 Q-9.6 -0.05 -8.7 2.1 -8.4 -0.55 -8.3 -1.1 L-8.1 -2.0 Q-7.9 -3.0 -7.5 -4.3 -6.75 -6.6 -6.2 -7.45 L-6.15 -7.4 Q-6.1 -7.4 -6.1 -7.3 -6.1 -7.1 -6.4 -6.35 L-6.95 -4.6 Q-7.55 -2.5 -7.7 -0.45 -7.3 -1.7 -6.5 -3.25 -5.25 -5.55 -4.25 -6.8 L-4.2 -6.8 Q-4.55 -6.0 -5.15 -4.8 L-6.25 -2.75 Q-7.5 -0.3 -7.8 1.25 L-7.8 1.3 Q-7.5 0.25 -6.55 -1.05 L-4.6 -3.45 Q-3.35 -4.9 -2.8 -5.85 -2.5 -6.3 -2.3 -6.7 L-2.05 -7.8 -2.05 -7.5 Q-1.95 -7.9 -1.95 -8.25 L-1.9 -8.25 Q-1.85 -7.95 -1.85 -7.75 L-2.0 -6.95 Q-2.05 -5.9 -2.6 -4.25 -2.9 -3.35 -3.75 -1.45 L-3.7 -1.45 Q-1.9 -3.35 -1.05 -5.2 -0.1 -7.2 -0.25 -9.1 L-0.2 -9.1 -0.15 -8.95 -0.1 -8.95 1.1 -5.7 1.7 -4.1 1.7 -4.25 Q1.7 -5.4 1.65 -6.0 1.6 -6.4 1.6 -7.35 1.5 -8.25 1.05 -8.8 L1.1 -8.95 1.1 -9.0 1.2 -9.0 Q1.7 -9.0 1.85 -7.2 L1.9 -5.45 1.95 -3.35 Q2.15 -2.7 2.2 -2.45 L2.4 -2.8 Q2.5 -3.1 2.5 -3.5 2.5 -3.75 2.65 -4.35 2.75 -4.95 2.75 -5.25 2.75 -6.6 2.6 -7.3 2.45 -7.95 2.05 -8.8 L1.95 -8.9 2.0 -8.95 M1.95 -2.2 L1.95 -2.2 M-9.5 -14.45 Q-9.5 -14.7 -8.2 -15.35 -6.85 -16.05 -6.15 -16.05 L-6.1 -16.05 Q-6.4 -16.25 -6.55 -16.25 -9.4 -16.25 -11.05 -14.75 -11.65 -14.25 -12.1 -13.55 L-12.75 -12.5 -12.8 -12.5 -12.85 -12.7 Q-12.85 -13.2 -12.45 -13.9 L-12.0 -14.5 -12.15 -14.45 Q-13.4 -13.9 -13.55 -13.8 L-14.15 -13.1 Q-14.45 -12.7 -14.6 -12.4 -14.9 -11.9 -15.1 -11.1 -15.4 -10.2 -15.4 -9.7 L-15.25 -8.0 -15.15 -6.7 -15.0 -6.05 -15.0 -5.95 Q-14.9 -5.45 -14.9 -5.2 L-14.9 -5.05 -14.95 -5.05 Q-15.05 -5.45 -15.2 -5.95 -15.5 -6.15 -15.7 -6.5 -16.15 -6.85 -16.35 -7.35 -16.55 -7.95 -16.5 -8.6 L-16.6 -7.9 Q-16.7 -7.5 -16.7 -7.2 -16.7 -5.9 -15.8 -4.8 -15.3 -4.2 -14.35 -3.45 L-14.35 -3.7 Q-14.35 -3.75 -14.25 -3.85 L-14.2 -3.95 -14.25 -4.4 -14.25 -4.45 -14.5 -4.8 Q-14.55 -4.85 -14.55 -5.25 -14.55 -5.65 -14.5 -5.75 -14.45 -5.9 -14.1 -6.3 L-14.4 -6.75 -14.4 -7.1 Q-14.4 -7.4 -14.0 -7.8 L-13.55 -8.2 Q-13.55 -8.3 -13.65 -8.5 -13.7 -8.75 -13.7 -8.8 -13.7 -9.15 -13.55 -9.4 -13.35 -9.8 -12.85 -9.95 -12.95 -10.1 -12.95 -10.3 -12.95 -10.7 -12.7 -11.05 -12.45 -11.5 -11.9 -11.6 -11.5 -11.7 -11.4 -11.9 L-11.35 -12.25 Q-11.25 -12.7 -10.15 -12.8 -9.05 -13.7 -8.3 -13.5 -7.2 -13.9 -5.95 -14.05 L-4.0 -13.75 Q-5.0 -14.65 -7.05 -14.65 L-7.9 -14.55 Q-8.7 -14.45 -9.15 -14.25 L-9.45 -14.25 -9.5 -14.3 -9.5 -14.45 M-12.45 -7.9 Q-12.0 -9.0 -11.0 -9.8 -9.55 -10.95 -7.05 -11.25 -6.15 -11.3 -5.3 -11.1 L-5.0 -11.05 -4.95 -11.05 -4.75 -11.35 Q-4.35 -11.8 -3.7 -11.8 -3.35 -11.8 -3.15 -11.7 L-2.9 -11.6 Q-2.8 -11.6 -2.55 -11.8 L-2.85 -12.05 Q-3.95 -12.85 -6.15 -12.85 -8.25 -12.85 -9.65 -12.15 -10.05 -11.95 -10.4 -11.7 -11.55 -10.75 -12.35 -9.3 -13.1 -7.9 -13.5 -6.25 L-13.65 -5.5 Q-13.65 -4.85 -13.5 -4.25 -13.4 -4.7 -12.95 -5.15 -12.15 -5.9 -10.95 -5.9 -10.85 -6.1 -10.75 -6.35 -10.45 -6.8 -9.9 -6.9 L-9.85 -7.05 Q-9.9 -7.4 -9.9 -7.65 -9.9 -8.3 -9.45 -8.55 -9.0 -8.75 -8.75 -8.9 L-8.6 -9.05 Q-8.6 -9.45 -8.3 -9.7 -8.05 -9.95 -7.55 -9.9 L-7.3 -10.0 Q-7.1 -10.05 -6.9 -10.3 -6.65 -10.65 -6.45 -10.75 L-6.3 -10.85 -7.15 -10.85 Q-9.4 -10.85 -11.1 -9.45 -11.95 -8.7 -12.4 -7.9 L-12.45 -7.9 M-13.35 -3.65 Q-13.3 -3.95 -12.95 -4.15 -12.6 -4.45 -12.0 -4.5 L-11.15 -4.45 -11.05 -4.6 Q-10.85 -4.85 -10.85 -5.1 L-10.9 -5.2 -10.95 -5.55 -11.6 -5.55 Q-12.85 -5.15 -13.2 -4.45 -13.35 -4.2 -13.4 -3.8 L-13.35 -3.65 M-13.0 -3.65 Q-13.15 -3.45 -13.25 -3.3 -13.0 -2.75 -12.65 -2.5 L-12.3 -2.8 Q-11.85 -3.15 -11.55 -3.15 L-11.15 -3.1 -11.2 -3.35 Q-11.3 -3.7 -11.25 -4.05 L-11.25 -4.15 Q-11.5 -4.25 -11.7 -4.25 -12.55 -4.25 -13.0 -3.65 M-15.45 -2.8 Q-15.0 -2.4 -13.5 -2.35 L-14.1 -2.8 -14.3 -2.8 Q-14.5 -2.8 -15.3 -3.2 L-16.2 -3.75 Q-16.0 -3.55 -15.8 -3.25 -15.6 -2.95 -15.45 -2.8 M-2.55 -12.75 Q-2.2 -12.45 -1.95 -12.05 L-1.8 -12.05 Q-1.55 -12.2 -1.35 -12.2 L-1.7 -12.4 Q-2.2 -12.7 -2.65 -12.9 L-2.55 -12.75 M-2.3 -11.95 L-2.7 -12.45 -3.1 -12.85 Q-3.25 -12.9 -3.35 -13.05 L-3.85 -13.3 Q-4.55 -13.5 -5.15 -13.5 -6.5 -13.5 -7.7 -13.15 L-6.5 -13.25 Q-3.8 -13.0 -2.8 -12.25 L-2.45 -11.9 -2.3 -11.95 M-11.1 1.85 L-11.6 1.8 -11.6 2.35 -11.55 2.75 Q-11.55 3.4 -11.65 3.55 -11.7 3.75 -12.3 4.55 L-12.35 4.55 Q-11.45 4.25 -11.15 3.7 L-10.95 3.0 -10.95 2.1 Q-10.55 2.4 -10.4 2.9 -10.3 3.2 -10.3 3.95 -10.25 4.75 -10.2 5.1 -10.05 5.75 -9.65 6.2 -9.35 5.45 -9.3 5.2 -9.3 5.1 -9.3 4.45 -9.3 4.0 -9.5 3.55 L-9.6 3.25 Q-10.1 2.45 -11.0 1.9 L-11.1 1.85 M-13.0 0.45 L-13.25 -0.25 -13.55 0.5 Q-13.7 1.0 -13.7 1.4 -13.7 1.85 -13.65 2.1 -13.55 2.5 -13.35 2.75 -13.0 2.35 -12.75 1.95 -12.5 1.55 -12.5 1.35 L-12.5 1.2 Q-12.75 1.0 -13.0 0.45" fill="#111111" fill-rule="evenodd" stroke="none"/>
    <path d="M2.0 -8.95 L1.95 -8.9 2.05 -8.8 Q2.45 -7.95 2.6 -7.3 2.75 -6.6 2.75 -5.25 2.75 -4.95 2.65 -4.35 2.5 -3.75 2.5 -3.5 2.5 -3.1 2.4 -2.8 L2.2 -2.45 Q2.15 -2.7 1.95 -3.35 L1.9 -5.45 1.85 -7.2 Q1.7 -9.0 1.2 -9.0 L1.1 -9.0 1.1 -8.95 1.05 -8.8 Q1.5 -8.25 1.6 -7.35 1.6 -6.4 1.65 -6.0 1.7 -5.4 1.7 -4.25 L1.7 -4.1 1.1 -5.7 -0.1 -8.95 -0.15 -8.95 -0.2 -9.1 -0.25 -9.1 Q-0.1 -7.2 -1.05 -5.2 -1.9 -3.35 -3.7 -1.45 L-3.75 -1.45 Q-2.9 -3.35 -2.6 -4.25 -2.05 -5.9 -2.0 -6.95 L-1.85 -7.75 Q-1.85 -7.95 -1.9 -8.25 L-1.95 -8.25 Q-1.95 -7.9 -2.05 -7.5 L-2.05 -7.8 -2.3 -6.7 Q-2.5 -6.3 -2.8 -5.85 -3.35 -4.9 -4.6 -3.45 L-6.55 -1.05 Q-7.5 0.25 -7.8 1.3 L-7.8 1.25 Q-7.5 -0.3 -6.25 -2.75 L-5.15 -4.8 Q-4.55 -6.0 -4.2 -6.8 L-4.25 -6.8 Q-5.25 -5.55 -6.5 -3.25 -7.3 -1.7 -7.7 -0.45 -7.55 -2.5 -6.95 -4.6 L-6.4 -6.35 Q-6.1 -7.1 -6.1 -7.3 -6.1 -7.4 -6.15 -7.4 L-6.2 -7.45 Q-6.75 -6.6 -7.5 -4.3 -7.9 -3.0 -8.1 -2.0 L-8.3 -1.1 Q-8.4 -0.55 -8.7 2.1 -9.6 -0.05 -10.05 -2.05 L-10.05 -2.1 Q-10.05 -2.3 -10.15 -2.5 L-10.3 -3.45 -10.25 -3.7 -10.3 -4.15 -10.3 -4.5 -10.25 -4.6 Q-10.15 -5.2 -9.75 -5.85 L-9.45 -6.45 -9.4 -6.5 Q-9.0 -7.35 -8.6 -7.65 L-7.9 -8.45 -7.1 -9.05 -7.0 -9.2 Q-6.4 -9.7 -5.95 -9.8 -5.4 -10.1 -4.75 -10.35 L-4.65 -10.35 -4.45 -10.45 -4.35 -10.45 Q-2.9 -10.9 -1.15 -10.9 0.65 -10.9 1.75 -10.6 3.15 -9.8 4.1 -8.35 5.1 -6.85 5.1 -5.5 5.1 -4.85 4.9 -4.55 4.6 -4.1 4.25 -3.5 L4.3 -3.7 4.35 -4.55 Q4.35 -4.75 4.25 -5.05 4.15 -5.7 3.75 -6.45 3.45 -7.0 2.9 -7.8 2.55 -8.95 1.7 -9.6 L1.7 -9.55 2.0 -8.95 M-13.0 0.45 Q-12.75 1.0 -12.5 1.2 L-12.5 1.35 Q-12.5 1.55 -12.75 1.95 -13.0 2.35 -13.35 2.75 -13.55 2.5 -13.65 2.1 -13.7 1.85 -13.7 1.4 -13.7 1.0 -13.55 0.5 L-13.25 -0.25 -13.0 0.45 M-11.1 1.85 L-11.0 1.9 Q-10.1 2.45 -9.6 3.25 L-9.5 3.55 Q-9.3 4.0 -9.3 4.45 -9.3 5.1 -9.3 5.2 -9.35 5.45 -9.65 6.2 -10.05 5.75 -10.2 5.1 -10.25 4.75 -10.3 3.95 -10.3 3.2 -10.4 2.9 -10.55 2.4 -10.95 2.1 L-10.95 3.0 -11.15 3.7 Q-11.45 4.25 -12.35 4.55 L-12.3 4.55 Q-11.7 3.75 -11.65 3.55 -11.55 3.4 -11.55 2.75 L-11.6 2.35 -11.6 1.8 -11.1 1.85 M-2.3 -11.95 L-2.45 -11.9 -2.8 -12.25 Q-3.8 -13.0 -6.5 -13.25 L-7.7 -13.15 Q-6.5 -13.5 -5.15 -13.5 -4.55 -13.5 -3.85 -13.3 L-3.35 -13.05 Q-3.25 -12.9 -3.1 -12.85 L-2.7 -12.45 -2.3 -11.95 M-2.55 -12.75 L-2.65 -12.9 Q-2.2 -12.7 -1.7 -12.4 L-1.35 -12.2 Q-1.55 -12.2 -1.8 -12.05 L-1.95 -12.05 Q-2.2 -12.45 -2.55 -12.75 M-15.45 -2.8 Q-15.6 -2.95 -15.8 -3.25 -16.0 -3.55 -16.2 -3.75 L-15.3 -3.2 Q-14.5 -2.8 -14.3 -2.8 L-14.1 -2.8 -13.5 -2.35 Q-15.0 -2.4 -15.45 -2.8 M-13.0 -3.65 Q-12.55 -4.25 -11.7 -4.25 -11.5 -4.25 -11.25 -4.15 L-11.25 -4.05 Q-11.3 -3.7 -11.2 -3.35 L-11.15 -3.1 -11.55 -3.15 Q-11.85 -3.15 -12.3 -2.8 L-12.65 -2.5 Q-13.0 -2.75 -13.25 -3.3 -13.15 -3.45 -13.0 -3.65 M-13.35 -3.65 L-13.4 -3.8 Q-13.35 -4.2 -13.2 -4.45 -12.85 -5.15 -11.6 -5.55 L-10.95 -5.55 -10.9 -5.2 -10.85 -5.1 Q-10.85 -4.85 -11.05 -4.6 L-11.15 -4.45 -12.0 -4.5 Q-12.6 -4.45 -12.95 -4.15 -13.3 -3.95 -13.35 -3.65 M-12.45 -7.9 L-12.4 -7.9 Q-11.95 -8.7 -11.1 -9.45 -9.4 -10.85 -7.15 -10.85 L-6.3 -10.85 -6.45 -10.75 Q-6.65 -10.65 -6.9 -10.3 -7.1 -10.05 -7.3 -10.0 L-7.55 -9.9 Q-8.05 -9.95 -8.3 -9.7 -8.6 -9.45 -8.6 -9.05 L-8.75 -8.9 Q-9.0 -8.75 -9.45 -8.55 -9.9 -8.3 -9.9 -7.65 -9.9 -7.4 -9.85 -7.05 L-9.9 -6.9 Q-10.45 -6.8 -10.75 -6.35 -10.85 -6.1 -10.95 -5.9 -12.15 -5.9 -12.95 -5.15 -13.4 -4.7 -13.5 -4.25 -13.65 -4.85 -13.65 -5.5 L-13.5 -6.25 Q-13.1 -7.9 -12.35 -9.3 -11.55 -10.75 -10.4 -11.7 -10.05 -11.95 -9.65 -12.15 -8.25 -12.85 -6.15 -12.85 -3.95 -12.85 -2.85 -12.05 L-2.55 -11.8 Q-2.8 -11.6 -2.9 -11.6 L-3.15 -11.7 Q-3.35 -11.8 -3.7 -11.8 -4.35 -11.8 -4.75 -11.35 L-4.95 -11.05 -5.0 -11.05 -5.3 -11.1 Q-6.15 -11.3 -7.05 -11.25 -9.55 -10.95 -11.0 -9.8 -12.0 -9.0 -12.45 -7.9 M-9.5 -14.45 L-9.5 -14.3 -9.45 -14.25 -9.15 -14.25 Q-8.7 -14.45 -7.9 -14.55 L-7.05 -14.65 Q-5.0 -14.65 -4.0 -13.75 L-5.95 -14.05 Q-7.2 -13.9 -8.3 -13.5 -9.05 -13.7 -10.15 -12.8 -11.25 -12.7 -11.35 -12.25 L-11.4 -11.9 Q-11.5 -11.7 -11.9 -11.6 -12.45 -11.5 -12.7 -11.05 -12.95 -10.7 -12.95 -10.3 -12.95 -10.1 -12.85 -9.95 -13.35 -9.8 -13.55 -9.4 -13.7 -9.15 -13.7 -8.8 -13.7 -8.75 -13.65 -8.5 -13.55 -8.3 -13.55 -8.2 L-14.0 -7.8 Q-14.4 -7.4 -14.4 -7.1 L-14.4 -6.75 -14.1 -6.3 Q-14.45 -5.9 -14.5 -5.75 -14.55 -5.65 -14.55 -5.25 -14.55 -4.85 -14.5 -4.8 L-14.25 -4.45 -14.25 -4.4 -14.2 -3.95 -14.25 -3.85 Q-14.35 -3.75 -14.35 -3.7 L-14.35 -3.45 Q-15.3 -4.2 -15.8 -4.8 -16.7 -5.9 -16.7 -7.2 -16.7 -7.5 -16.6 -7.9 L-16.5 -8.6 Q-16.55 -7.95 -16.35 -7.35 -16.15 -6.85 -15.7 -6.5 -15.5 -6.15 -15.2 -5.95 -15.05 -5.45 -14.95 -5.05 L-14.9 -5.05 -14.9 -5.2 Q-14.9 -5.45 -15.0 -5.95 L-15.0 -6.05 -15.15 -6.7 -15.25 -8.0 -15.4 -9.7 Q-15.4 -10.2 -15.1 -11.1 -14.9 -11.9 -14.6 -12.4 -14.45 -12.7 -14.15 -13.1 L-13.55 -13.8 Q-13.4 -13.9 -12.15 -14.45 L-12.0 -14.5 -12.45 -13.9 Q-12.85 -13.2 -12.85 -12.7 L-12.8 -12.5 -12.75 -12.5 -12.1 -13.55 Q-11.65 -14.25 -11.05 -14.75 -9.4 -16.25 -6.55 -16.25 -6.4 -16.25 -6.1 -16.05 L-6.15 -16.05 Q-6.85 -16.05 -8.2 -15.35 -9.5 -14.7 -9.5 -14.45" fill="#003366" fill-rule="evenodd" stroke="none"/>
  </g>
</svg>
