<?xml version="1.0" encoding="UTF-8" standalone="no"?>
<svg xmlns:ffdec="https://www.free-decompiler.com/flash" xmlns:xlink="http://www.w3.org/1999/xlink" ffdec:objectType="shape" height="24.15px" width="21.85px" xmlns="http://www.w3.org/2000/svg">
  <g transform="matrix(1.0, 0.0, 0.0, 1.0, 14.85, 15.6)">
    <path d="M4.2 -12.55 L4.15 -12.45 Q4.1 -12.45 4.0 -12.45 L3.0 -12.75 2.4 -12.85 2.15 -12.85 3.5 -12.4 Q5.65 -11.65 5.65 -11.0 5.65 -10.85 5.6 -10.75 5.5 -10.7 5.45 -10.7 5.35 -10.7 5.2 -10.8 5.0 -10.95 4.8 -11.0 4.1 -11.3 2.6 -11.3 L3.35 -10.65 3.45 -10.55 Q4.05 -10.15 4.65 -9.5 L5.0 -9.1 Q5.6 -8.45 6.0 -7.7 6.25 -7.35 6.35 -7.0 L6.55 -6.5 Q7.0 -5.35 7.0 -4.45 L6.95 -3.55 6.85 -2.15 6.7 -2.1 6.15 -3.5 6.15 -3.15 Q6.4 -1.85 6.4 -1.55 L6.4 -1.25 Q6.35 -1.05 6.2 -1.05 6.0 -1.05 5.55 -1.8 L4.9 -2.95 4.45 -3.4 3.6 -3.75 Q2.35 -4.25 1.7 -4.35 L-1.05 -4.35 Q-3.7 -4.3 -5.15 -4.65 L-4.7 -4.4 Q-3.45 -3.7 -2.7 -3.0 -2.8 -2.9 -2.85 -2.85 -3.05 -2.75 -3.5 -2.75 -4.7 -2.75 -6.45 -3.65 -7.2 -4.0 -7.7 -4.35 -7.25 -3.75 -7.0 -3.0 L-6.45 -1.35 Q-6.1 -0.35 -5.7 0.3 L-5.7 0.4 -5.75 0.45 -5.9 0.45 Q-6.65 0.45 -8.1 -1.4 L-8.6 -2.1 Q-7.55 0.2 -7.35 2.15 L-7.4 2.25 Q-7.4 2.3 -7.55 2.3 -7.75 2.3 -9.05 0.4 -10.65 -2.0 -11.15 -2.55 L-11.25 -2.55 Q-11.55 -2.75 -11.9 -2.6 -12.15 -2.55 -12.3 -2.35 L-12.4 -2.25 Q-12.8 -1.75 -12.9 -0.8 L-12.9 -0.85 Q-12.9 -0.45 -12.7 0.05 -12.5 0.5 -12.25 0.95 -11.65 1.55 -10.6 1.55 L-10.5 1.6 -10.4 1.7 -10.4 1.75 -10.35 1.8 Q-10.15 1.95 -9.95 2.2 L-9.7 2.7 Q-9.25 3.3 -8.7 4.55 -8.0 5.95 -8.0 6.4 -8.0 6.6 -8.25 6.6 -8.7 6.6 -9.1 5.9 L-9.4 5.35 Q-9.5 5.95 -9.75 6.8 -10.3 8.55 -10.65 8.55 -10.9 8.55 -11.05 8.0 L-11.15 7.4 Q-11.15 7.0 -10.9 5.45 -11.4 6.1 -11.7 6.15 L-12.7 6.15 -13.0 6.0 Q-13.25 5.85 -13.35 5.85 L-13.35 5.8 -12.45 5.2 -12.35 5.1 Q-11.75 4.6 -11.75 3.85 -11.75 3.1 -12.8 1.2 -13.55 -0.1 -13.75 -0.85 L-13.8 -0.95 Q-14.35 -2.05 -14.45 -2.65 L-14.45 -2.7 -14.55 -2.85 -14.5 -2.85 Q-14.85 -4.9 -14.85 -5.6 -14.85 -7.75 -14.25 -9.4 -13.45 -11.65 -11.6 -12.6 L-11.5 -12.65 Q-11.1 -13.05 -11.1 -12.4 -11.1 -12.3 -11.3 -11.8 L-10.95 -12.4 Q-10.25 -13.5 -9.35 -14.05 -7.85 -15.05 -4.95 -15.55 L-4.95 -15.6 -3.0 -15.6 -2.2 -15.35 Q0.8 -15.45 2.25 -14.4 2.7 -14.05 3.25 -13.45 3.85 -12.8 4.2 -12.55 M-6.9 -1.45 L-7.45 -3.05 Q-8.15 -4.7 -9.4 -5.85 -8.75 -5.5 -8.25 -5.0 L-7.45 -4.55 Q-6.55 -4.05 -6.45 -4.0 -5.7 -3.75 -5.05 -3.6 L-3.35 -3.25 Q-4.75 -4.5 -7.7 -5.55 L-7.65 -5.6 -6.65 -5.3 -6.7 -5.35 -6.65 -5.4 Q-5.2 -4.8 -0.95 -4.9 L1.65 -4.9 1.9 -4.85 Q0.2 -5.5 -1.35 -5.85 L-4.6 -6.55 -4.1 -6.6 -3.8 -6.6 Q-3.3 -6.6 1.6 -5.4 3.0 -4.9 4.3 -4.05 L4.8 -3.7 4.95 -3.6 Q5.75 -3.0 5.95 -2.5 5.9 -4.9 4.55 -6.3 2.4 -8.55 -3.2 -9.25 2.25 -9.35 4.6 -7.0 5.35 -6.3 5.7 -5.4 L5.95 -4.95 Q6.4 -4.2 6.55 -3.5 L6.6 -3.5 6.6 -3.75 6.4 -4.7 6.25 -5.7 6.2 -5.7 5.6 -6.95 Q5.0 -8.3 4.7 -8.65 3.7 -9.75 3.05 -10.15 2.0 -10.8 0.35 -11.15 L0.1 -11.1 0.25 -11.15 -1.2 -11.4 Q-0.1 -11.8 1.15 -11.45 L1.65 -11.55 4.2 -11.7 Q3.8 -12.0 2.55 -12.35 0.9 -12.75 -1.25 -12.75 -2.25 -12.75 -3.8 -12.05 L-4.75 -11.65 Q-5.0 -11.5 -5.2 -11.4 L-5.1 -11.45 -5.35 -11.35 -3.65 -12.5 -3.35 -12.7 -3.4 -12.65 Q-1.5 -13.4 0.75 -13.15 L0.9 -13.15 1.5 -13.1 3.35 -12.9 Q1.0 -14.95 -1.35 -14.95 L-2.05 -14.9 -2.3 -14.9 Q-4.05 -14.8 -5.6 -14.2 -6.35 -13.9 -7.4 -13.35 L-9.2 -12.4 -8.15 -13.1 Q-7.25 -13.75 -6.7 -14.1 -5.5 -14.75 -4.15 -15.1 L-4.95 -15.1 Q-7.65 -15.4 -10.05 -12.6 -10.75 -11.85 -11.65 -10.45 L-12.15 -9.75 -12.35 -9.25 -12.4 -9.25 -12.35 -9.5 Q-12.6 -9.15 -12.7 -9.05 L-12.75 -9.1 Q-12.5 -9.45 -12.15 -10.2 L-12.1 -10.4 Q-12.1 -10.55 -12.0 -11.15 L-11.8 -11.9 -11.8 -11.95 -12.2 -11.55 -13.0 -10.55 -13.4 -9.95 Q-14.45 -8.3 -14.45 -6.65 L-14.45 -6.05 Q-14.4 -4.6 -14.2 -3.65 -14.05 -2.75 -13.6 -1.65 L-13.25 -1.0 Q-13.25 -1.5 -13.2 -1.6 L-13.05 -1.8 Q-13.0 -2.1 -12.75 -2.4 -12.55 -2.7 -12.15 -2.9 L-11.95 -3.0 -11.0 -3.0 -10.9 -2.9 -10.6 -2.5 -10.15 -2.0 -9.5 -1.05 -9.3 -0.75 Q-8.25 0.9 -7.65 1.6 -7.85 0.55 -8.65 -1.35 L-8.85 -1.75 -8.85 -1.8 Q-9.6 -3.6 -9.8 -4.25 L-9.75 -4.25 -9.75 -4.2 -9.65 -4.25 -8.25 -2.35 Q-7.35 -1.15 -6.45 -0.35 L-6.9 -1.45 M-11.35 1.9 Q-11.7 1.85 -11.9 1.7 L-11.6 2.5 Q-11.35 3.2 -11.35 3.85 -11.35 4.3 -11.5 4.75 -11.65 5.35 -12.0 5.55 L-12.15 5.7 Q-11.2 5.4 -10.8 4.9 -10.65 3.85 -10.7 3.45 L-10.7 2.6 Q-10.4 2.85 -10.2 3.8 -10.15 4.25 -10.1 4.7 -10.1 4.95 -10.4 6.0 -10.7 7.05 -10.7 7.45 L-10.65 7.7 -10.1 6.7 Q-9.7 5.95 -9.7 5.55 -9.7 4.55 -9.75 3.95 L-9.8 3.4 Q-9.95 3.15 -10.1 2.9 -10.55 2.3 -11.15 1.9 L-11.35 1.9 M-9.2 4.45 L-9.2 4.95 Q-9.2 5.3 -8.95 5.45 L-8.9 5.45 -9.05 4.9 Q-9.1 4.55 -9.2 4.45" fill="#111111" fill-rule="evenodd" stroke="none"/>
    <path d="M-13.4 -9.95 L-13.0 -10.55 -12.2 -11.55 -11.8 -11.95 -11.8 -11.9 -12.0 -11.15 Q-12.1 -10.55 -12.1 -10.4 L-12.15 -10.2 Q-12.5 -9.45 -12.75 -9.1 L-12.7 -9.05 Q-12.6 -9.15 -12.35 -9.5 L-12.4 -9.25 -12.35 -9.25 -12.15 -9.75 -11.65 -10.45 Q-10.75 -11.85 -10.05 -12.6 -7.65 -15.4 -4.95 -15.1 L-4.15 -15.1 Q-5.5 -14.75 -6.7 -14.1 -7.25 -13.75 -8.15 -13.1 L-9.2 -12.4 -7.4 -13.35 Q-6.35 -13.9 -5.6 -14.2 -4.05 -14.8 -2.3 -14.9 L-2.05 -14.9 -1.35 -14.95 Q1.0 -14.95 3.35 -12.9 L1.5 -13.1 0.9 -13.15 0.75 -13.15 Q-1.5 -13.4 -3.4 -12.65 L-3.35 -12.7 -3.65 -12.5 -5.35 -11.35 -5.1 -11.45 -5.2 -11.4 Q-5.0 -11.5 -4.75 -11.65 L-3.8 -12.05 Q-2.25 -12.75 -1.25 -12.75 0.9 -12.75 2.55 -12.35 3.8 -12.0 4.2 -11.7 L1.65 -11.55 1.15 -11.45 Q-0.1 -11.8 -1.2 -11.4 L0.25 -11.15 0.1 -11.1 0.35 -11.15 Q2.0 -10.8 3.05 -10.15 3.7 -9.75 4.7 -8.65 5.0 -8.3 5.6 -6.95 L6.2 -5.7 6.25 -5.7 6.4 -4.7 6.6 -3.75 6.6 -3.5 6.55 -3.5 Q6.4 -4.2 5.95 -4.95 L5.7 -5.4 Q5.35 -6.3 4.6 -7.0 2.25 -9.35 -3.2 -9.25 2.4 -8.55 4.55 -6.3 5.9 -4.9 5.95 -2.5 5.75 -3.0 4.95 -3.6 L4.8 -3.7 4.3 -4.05 Q3.0 -4.9 1.6 -5.4 -3.3 -6.6 -3.8 -6.6 L-4.1 -6.6 -4.6 -6.55 -1.35 -5.85 Q0.2 -5.5 1.9 -4.85 L1.65 -4.9 -0.95 -4.9 Q-5.2 -4.8 -6.65 -5.4 L-6.7 -5.35 -6.65 -5.3 -7.65 -5.6 -7.7 -5.55 Q-4.75 -4.5 -3.35 -3.25 L-5.05 -3.6 Q-5.7 -3.75 -6.45 -4.0 -6.55 -4.05 -7.45 -4.55 L-8.25 -5.0 Q-8.75 -5.5 -9.4 -5.85 -8.15 -4.7 -7.45 -3.05 L-6.9 -1.45 -7.8 -2.8 Q-8.05 -3.15 -9.7 -4.8 -10.95 -6.05 -11.35 -6.85 L-11.4 -6.85 Q-11.1 -6.1 -10.35 -4.6 -9.65 -3.3 -9.35 -2.55 L-9.65 -2.95 -10.85 -4.5 Q-12.4 -6.5 -12.55 -7.6 L-12.6 -7.6 -12.7 -7.2 -12.65 -6.8 -12.65 -6.7 Q-12.65 -6.55 -12.45 -5.6 -12.2 -4.6 -12.05 -4.3 L-12.0 -4.15 Q-13.7 -6.3 -13.7 -8.25 -13.7 -9.0 -13.4 -9.95 M-9.5 -1.05 L-10.15 -2.0 -10.05 -2.05 Q-9.7 -1.45 -9.5 -1.05" fill="#003366" fill-rule="evenodd" stroke="none"/>
    <path d="M-13.4 -9.95 Q-13.7 -9.0 -13.7 -8.25 -13.7 -6.3 -12.0 -4.15 L-12.05 -4.3 Q-12.2 -4.6 -12.45 -5.6 -12.65 -6.55 -12.65 -6.7 L-12.65 -6.8 -12.7 -7.2 -12.6 -7.6 -12.55 -7.6 Q-12.4 -6.5 -10.85 -4.5 L-9.65 -2.95 -9.35 -2.55 Q-9.65 -3.3 -10.35 -4.6 -11.1 -6.1 -11.4 -6.85 L-11.35 -6.85 Q-10.95 -6.05 -9.7 -4.8 -8.05 -3.15 -7.8 -2.8 L-6.9 -1.45 -6.45 -0.35 Q-7.35 -1.15 -8.25 -2.35 L-9.65 -4.25 -9.75 -4.2 -9.75 -4.25 -9.8 -4.25 Q-9.6 -3.6 -8.85 -1.8 L-8.85 -1.75 -8.65 -1.35 Q-7.85 0.55 -7.65 1.6 -8.25 0.9 -9.3 -0.75 L-9.5 -1.05 Q-9.7 -1.45 -10.05 -2.05 L-10.15 -2.0 -10.6 -2.5 -10.9 -2.9 -11.0 -3.0 -11.95 -3.0 -12.15 -2.9 Q-12.55 -2.7 -12.75 -2.4 -13.0 -2.1 -13.05 -1.8 L-13.2 -1.6 Q-13.25 -1.5 -13.25 -1.0 L-13.6 -1.65 Q-14.05 -2.75 -14.2 -3.65 -14.4 -4.6 -14.45 -6.05 L-14.45 -6.65 Q-14.45 -8.3 -13.4 -9.95 M-9.2 4.45 Q-9.1 4.55 -9.05 4.9 L-8.9 5.45 -8.95 5.45 Q-9.2 5.3 -9.2 4.95 L-9.2 4.45 M-11.35 1.9 L-11.15 1.9 Q-10.55 2.3 -10.1 2.9 -9.95 3.15 -9.8 3.4 L-9.75 3.95 Q-9.7 4.55 -9.7 5.55 -9.7 5.95 -10.1 6.7 L-10.65 7.7 -10.7 7.45 Q-10.7 7.05 -10.4 6.0 -10.1 4.95 -10.1 4.7 -10.15 4.25 -10.2 3.8 -10.4 2.85 -10.7 2.6 L-10.7 3.45 Q-10.65 3.85 -10.8 4.9 -11.2 5.4 -12.15 5.7 L-12.0 5.55 Q-11.65 5.35 -11.5 4.75 -11.35 4.3 -11.35 3.85 -11.35 3.2 -11.6 2.5 L-11.9 1.7 Q-11.7 1.85 -11.35 1.9" fill="#ffffff" fill-rule="evenodd" stroke="none"/>
  </g>
</svg>
