<?xml version="1.0" encoding="UTF-8" standalone="no"?>
<svg xmlns:ffdec="https://www.free-decompiler.com/flash" xmlns:xlink="http://www.w3.org/1999/xlink" ffdec:objectType="shape" height="23.45px" width="22.7px" xmlns="http://www.w3.org/2000/svg">
  <g transform="matrix(1.0, 0.0, 0.0, 1.0, 14.7, 16.0)">
    <path d="M3.55 -10.9 Q6.25 -9.2 7.15 -8.0 8.0 -6.85 8.0 -4.85 L8.0 -4.75 7.95 -4.7 7.8 -4.7 Q7.65 -4.7 7.3 -5.4 L6.75 -6.45 Q6.55 -6.7 5.7 -7.3 L5.35 -7.5 Q5.7 -6.9 6.0 -5.8 6.4 -4.3 6.4 -3.4 6.4 -2.75 6.3 -1.85 L6.1 -0.3 6.1 2.95 Q6.15 3.05 6.15 3.3 L6.15 3.35 Q6.1 3.4 6.0 3.4 5.7 3.4 5.35 1.8 L5.05 0.45 Q4.95 0.75 4.8 0.75 L4.6 0.75 4.6 0.7 4.4 -1.05 4.2 -2.9 Q4.2 -3.0 3.5 -4.65 3.15 -5.4 2.95 -5.85 2.7 -5.1 1.75 -3.55 0.55 -1.65 0.05 -1.2 L-0.05 -1.25 Q-0.1 -1.3 -0.1 -1.45 -0.1 -1.5 0.5 -2.9 1.1 -4.45 1.25 -5.3 L1.15 -5.15 1.45 -6.0 1.1 -5.55 Q0.15 -4.0 -0.45 -3.55 -1.5 -2.8 -2.5 -1.55 L-3.6 -0.15 -4.0 0.9 Q-4.7 2.75 -5.0 3.3 -5.15 2.95 -5.15 2.55 -5.15 1.5 -4.45 -0.9 L-4.2 -1.6 Q-4.7 -0.8 -5.25 0.0 -7.55 3.3 -8.95 3.65 -8.35 4.75 -8.35 6.0 -8.35 6.2 -8.7 6.6 -9.05 7.1 -9.4 7.1 L-9.75 7.05 -9.75 6.9 -9.4 5.8 -9.05 4.6 -10.05 5.9 Q-11.25 7.45 -11.3 7.45 -11.7 7.45 -11.85 5.3 -11.95 4.25 -11.95 3.15 -11.95 2.9 -11.85 2.35 -12.2 3.0 -12.4 3.7 -12.5 4.15 -12.55 4.8 L-12.55 6.0 -12.7 6.05 -13.1 5.1 -13.25 4.65 Q-13.3 4.3 -13.5 3.5 -13.8 2.45 -13.8 1.15 L-13.55 -1.1 -13.5 -1.5 Q-13.6 -1.1 -13.8 -0.55 -14.2 0.55 -14.5 0.85 L-14.55 0.85 Q-14.6 -0.2 -14.7 -1.2 L-14.7 -3.0 Q-14.75 -4.25 -14.05 -5.5 -14.1 -5.6 -14.1 -5.7 -14.1 -7.65 -12.1 -9.55 -11.0 -10.6 -9.65 -11.2 L-10.7 -11.2 -12.05 -11.25 Q-12.2 -11.3 -12.2 -11.45 L-10.65 -12.05 Q-9.4 -12.5 -9.1 -12.7 L-8.0 -13.4 Q-7.25 -13.85 -6.75 -14.05 -6.2 -14.35 -5.75 -14.5 -4.85 -14.8 -3.85 -14.75 -3.15 -14.65 -2.6 -14.5 L-2.4 -14.45 Q-2.55 -14.6 -2.7 -14.7 -3.6 -15.3 -5.0 -15.75 L-5.0 -15.85 Q-4.95 -15.95 -4.8 -16.0 L-3.95 -16.0 Q-0.25 -15.65 1.15 -13.9 1.6 -13.35 2.0 -12.4 L2.1 -12.1 2.1 -12.35 Q2.1 -13.0 2.4 -13.55 2.7 -14.2 2.9 -12.8 2.8 -12.35 3.2 -11.6 L3.55 -10.9 M2.35 -11.55 Q2.55 -11.1 2.6 -11.0 2.6 -10.95 2.45 -10.9 L2.4 -11.0 2.2 -11.2 2.2 -11.3 Q2.0 -11.65 1.75 -12.15 1.35 -13.05 1.0 -13.5 -0.2 -15.05 -3.0 -15.4 L-3.2 -15.4 Q-2.5 -15.05 -2.2 -14.6 L-2.05 -14.35 Q-1.8 -14.25 -1.55 -14.1 -1.1 -13.85 -0.2 -12.95 -0.7 -13.3 -1.1 -13.55 L-1.1 -13.5 -1.15 -13.5 -1.25 -13.55 -1.6 -13.85 -1.85 -13.95 -1.8 -13.9 -1.9 -13.9 -1.9 -13.95 -2.0 -14.0 Q-2.9 -14.3 -4.65 -14.3 -5.85 -14.3 -7.75 -13.3 L-9.3 -12.35 Q-10.25 -11.85 -10.85 -11.55 L-9.75 -11.55 -8.9 -11.65 -8.25 -11.7 Q-7.5 -11.95 -6.7 -12.05 L-9.45 -10.65 Q-11.25 -9.7 -11.9 -9.1 -12.8 -8.3 -13.25 -7.15 L-13.45 -6.45 Q-12.35 -7.9 -10.35 -9.1 -12.3 -7.3 -13.2 -5.95 -14.4 -4.25 -14.3 -2.8 L-14.3 -0.3 Q-13.95 -0.85 -13.75 -1.4 -13.6 -1.9 -13.45 -2.7 L-13.4 -2.35 Q-13.25 -3.45 -13.25 -3.8 L-13.2 -3.8 -13.1 -2.0 -12.9 -2.3 Q-12.4 -2.85 -11.75 -3.05 -11.1 -3.3 -10.4 -2.5 L-10.2 -2.2 -10.0 -1.95 -10.0 -2.0 Q-10.0 -2.5 -9.75 -4.75 L-9.7 -4.75 -9.7 -4.4 -9.75 -4.1 -9.45 -0.6 Q-9.3 -1.05 -9.25 -1.4 -9.05 -3.0 -8.0 -4.65 -6.9 -6.45 -5.1 -7.75 -6.5 -6.55 -7.3 -5.1 -7.95 -4.0 -8.4 -2.4 L-9.15 0.3 Q-9.65 1.85 -10.35 2.95 L-8.0 0.75 Q-6.65 -0.65 -6.05 -1.6 -6.05 -1.65 -6.05 -1.6 L-5.7 -2.2 Q-6.0 -1.2 -6.8 0.15 L-8.1 2.45 Q-6.1 0.55 -4.4 -2.2 -3.4 -3.75 -1.85 -6.8 L-1.75 -6.65 Q-2.45 -4.65 -3.65 -2.6 L-3.95 -1.5 -4.75 1.35 -4.75 1.65 Q-4.3 0.1 -2.7 -2.5 L-2.75 -2.5 Q-2.4 -3.1 -1.15 -5.05 L-0.5 -6.05 -1.1 -5.05 -0.3 -6.35 Q0.05 -7.15 0.3 -7.45 L0.35 -7.45 0.4 -7.35 Q-0.3 -6.6 -1.25 -4.15 L-2.1 -2.75 Q-1.55 -3.35 -0.85 -3.8 0.45 -4.7 1.05 -6.0 L1.5 -7.15 Q1.75 -7.85 2.05 -8.3 L2.1 -8.3 2.15 -7.7 Q2.15 -7.4 1.85 -6.75 1.8 -6.5 1.45 -4.85 1.05 -3.05 0.85 -2.6 L0.85 -2.55 Q1.4 -3.15 1.75 -4.05 L2.2 -5.55 Q2.4 -6.15 2.45 -7.15 2.5 -8.1 2.65 -8.55 2.75 -8.35 2.9 -7.35 L3.0 -6.75 Q3.3 -6.55 3.6 -5.9 4.0 -4.95 4.2 -4.55 4.5 -3.6 4.6 -3.25 4.7 -2.8 4.7 -2.15 4.7 -1.7 4.75 -1.25 L4.9 -0.35 5.0 -2.05 5.05 -3.2 Q5.05 -3.9 4.6 -4.9 3.95 -6.4 3.9 -6.6 L3.9 -6.65 Q4.8 -5.4 5.1 -4.05 5.3 -3.15 5.3 -1.65 5.4 -1.05 5.4 -0.35 5.4 0.0 5.5 0.65 L5.7 1.6 Q5.75 0.95 5.9 -1.35 6.05 -3.25 6.05 -4.3 6.05 -5.2 5.8 -6.15 5.55 -6.9 5.2 -7.65 4.7 -8.0 4.55 -8.2 L4.55 -8.25 Q6.0 -7.75 6.7 -6.9 6.95 -6.65 7.2 -6.2 L7.65 -5.45 7.7 -5.7 Q7.7 -7.0 7.0 -7.85 6.55 -8.45 5.5 -9.0 L3.85 -9.9 Q3.3 -10.35 3.05 -10.9 2.9 -11.1 2.75 -11.35 2.45 -12.1 2.5 -12.8 2.45 -12.45 2.4 -11.85 L2.35 -11.55 M-13.2 -0.5 L-13.25 -0.3 Q-13.35 0.6 -13.35 1.2 -13.35 1.55 -13.15 3.05 L-12.95 4.65 Q-12.75 3.15 -12.6 2.6 -12.35 1.55 -11.95 1.3 L-12.3 0.9 -12.7 0.4 Q-13.0 0.05 -13.2 -0.45 L-13.2 -0.5 M-12.85 -1.35 Q-12.85 -0.2 -11.45 0.75 L-10.45 1.3 -10.15 1.5 -10.05 1.2 -10.05 0.75 Q-9.9 0.35 -9.85 0.05 L-10.1 -1.2 -10.25 -1.65 -10.55 -2.0 Q-11.0 -2.55 -11.25 -2.55 -11.95 -2.55 -12.45 -2.0 -12.75 -1.7 -12.85 -1.35 M-5.5 -9.75 L-5.7 -9.55 -6.6 -8.6 Q-7.15 -8.05 -7.5 -7.15 L-7.55 -7.1 -7.6 -6.95 Q-8.2 -6.15 -8.2 -5.85 -8.2 -5.65 -8.4 -5.0 -8.6 -4.35 -8.6 -4.2 -8.6 -4.1 -8.7 -3.9 L-8.75 -3.55 -8.75 -3.5 -9.05 -2.35 Q-9.2 -2.35 -9.25 -2.8 L-9.3 -3.2 Q-9.3 -4.2 -8.75 -5.65 -8.25 -7.05 -7.6 -8.0 -6.9 -8.95 -5.5 -9.75 M-8.6 1.95 Q-8.9 2.25 -9.45 2.9 L-9.25 3.15 -7.6 0.75 -8.6 1.95 M-11.3 1.65 L-11.45 2.75 -11.6 4.2 -11.55 4.8 Q-11.35 4.2 -10.6 2.55 L-10.35 2.0 -10.95 1.8 -11.3 1.6 -11.3 1.65 M-9.45 3.85 L-9.75 3.25 -10.3 3.95 -11.45 5.35 -11.5 5.35 -11.5 5.45 -11.35 6.7 -11.25 6.75 Q-10.85 6.15 -10.3 5.45 L-9.2 4.25 -9.45 3.85 M-9.35 6.6 Q-9.2 6.5 -9.0 6.3 -8.8 6.1 -8.8 6.0 -8.8 5.8 -9.0 5.5 -9.15 6.15 -9.35 6.6" fill="#111111" fill-rule="evenodd" stroke="none"/>
    <path d="M-13.2 -0.5 L-13.2 -0.45 Q-13.0 0.05 -12.7 0.4 L-12.3 0.9 -11.95 1.3 Q-12.35 1.55 -12.6 2.6 -12.75 3.15 -12.95 4.65 L-13.15 3.05 Q-13.35 1.55 -13.35 1.2 -13.35 0.6 -13.25 -0.3 L-13.2 -0.5 M2.35 -11.55 L2.4 -11.85 Q2.45 -12.45 2.5 -12.8 2.45 -12.1 2.75 -11.35 2.9 -11.1 3.05 -10.9 3.3 -10.35 3.85 -9.9 L5.5 -9.0 Q6.55 -8.45 7.0 -7.85 7.7 -7.0 7.7 -5.7 L7.65 -5.45 7.2 -6.2 Q6.95 -6.65 6.7 -6.9 6.0 -7.75 4.55 -8.25 L4.55 -8.2 Q4.7 -8.0 5.2 -7.65 5.55 -6.9 5.8 -6.15 6.05 -5.2 6.05 -4.3 6.05 -3.25 5.9 -1.35 5.75 0.95 5.7 1.6 L5.5 0.65 Q5.4 0.0 5.4 -0.35 5.4 -1.05 5.3 -1.65 5.3 -3.15 5.1 -4.05 4.8 -5.4 3.9 -6.65 L3.9 -6.6 Q3.95 -6.4 4.6 -4.9 5.05 -3.9 5.05 -3.2 L5.0 -2.05 4.9 -0.35 4.75 -1.25 Q4.7 -1.7 4.7 -2.15 4.7 -2.8 4.6 -3.25 4.5 -3.6 4.2 -4.55 4.0 -4.95 3.6 -5.9 3.3 -6.55 3.0 -6.75 L2.9 -7.35 Q2.75 -8.35 2.65 -8.55 2.5 -8.1 2.45 -7.15 2.4 -6.15 2.2 -5.55 L1.75 -4.05 Q1.4 -3.15 0.85 -2.55 L0.85 -2.6 Q1.05 -3.05 1.45 -4.85 1.8 -6.5 1.85 -6.75 2.15 -7.4 2.15 -7.7 L2.1 -8.3 2.05 -8.3 Q1.75 -7.85 1.5 -7.15 L1.05 -6.0 Q0.45 -4.7 -0.85 -3.8 -1.55 -3.35 -2.1 -2.75 L-1.25 -4.15 Q-0.3 -6.6 0.4 -7.35 L0.35 -7.45 0.3 -7.45 Q0.05 -7.15 -0.3 -6.35 L-1.1 -5.05 -0.5 -6.05 -1.15 -5.05 Q-2.4 -3.1 -2.75 -2.5 L-2.7 -2.5 Q-4.3 0.1 -4.75 1.65 L-4.75 1.35 -3.95 -1.5 -3.65 -2.6 Q-2.45 -4.65 -1.75 -6.65 L-1.85 -6.8 Q-3.4 -3.75 -4.4 -2.2 -6.1 0.55 -8.1 2.45 L-6.8 0.15 Q-6.0 -1.2 -5.7 -2.2 L-6.05 -1.6 Q-6.05 -1.65 -6.05 -1.6 -6.65 -0.65 -8.0 0.75 L-10.35 2.95 Q-9.65 1.85 -9.15 0.3 L-8.4 -2.4 Q-7.95 -4.0 -7.3 -5.1 -6.5 -6.55 -5.1 -7.75 -6.9 -6.45 -8.0 -4.65 -9.05 -3.0 -9.25 -1.4 -9.3 -1.05 -9.45 -0.6 L-9.75 -4.1 -9.7 -4.4 -9.7 -4.75 -9.75 -4.75 Q-10.0 -2.5 -10.0 -2.0 L-10.0 -1.95 -10.2 -2.2 -10.4 -2.5 Q-11.1 -3.3 -11.75 -3.05 -12.4 -2.85 -12.9 -2.3 L-13.1 -2.0 -13.2 -3.8 -13.25 -3.8 Q-13.25 -3.45 -13.4 -2.35 L-13.45 -2.7 Q-13.6 -1.9 -13.75 -1.4 -13.95 -0.85 -14.3 -0.3 L-14.3 -2.8 Q-14.4 -4.25 -13.2 -5.95 -12.3 -7.3 -10.35 -9.1 -12.35 -7.9 -13.45 -6.45 L-13.25 -7.15 Q-12.8 -8.3 -11.9 -9.1 -11.25 -9.7 -9.45 -10.65 L-6.7 -12.05 Q-7.5 -11.95 -8.25 -11.7 L-8.9 -11.65 -9.75 -11.55 -10.85 -11.55 Q-10.25 -11.85 -9.3 -12.35 L-7.75 -13.3 Q-5.85 -14.3 -4.65 -14.3 -2.9 -14.3 -2.0 -14.0 L-1.9 -13.95 -1.9 -13.9 -1.8 -13.9 -1.85 -13.95 -1.6 -13.85 -1.25 -13.55 -1.15 -13.5 -1.1 -13.5 -1.1 -13.55 Q-0.7 -13.3 -0.2 -12.95 -1.1 -13.85 -1.55 -14.1 -1.8 -14.25 -2.05 -14.35 L-2.2 -14.6 Q-2.5 -15.05 -3.2 -15.4 L-3.0 -15.4 Q-0.2 -15.05 1.0 -13.5 1.35 -13.05 1.75 -12.15 2.0 -11.65 2.2 -11.3 L2.2 -11.2 2.4 -11.0 2.45 -10.9 Q2.6 -10.95 2.6 -11.0 2.55 -11.1 2.35 -11.55 M-5.5 -9.75 Q-6.9 -8.95 -7.6 -8.0 -8.25 -7.05 -8.75 -5.65 -9.3 -4.2 -9.3 -3.2 L-9.25 -2.8 Q-9.2 -2.35 -9.05 -2.35 L-8.75 -3.5 -8.75 -3.55 -8.7 -3.9 Q-8.6 -4.1 -8.6 -4.2 -8.6 -4.35 -8.4 -5.0 -8.2 -5.65 -8.2 -5.85 -8.2 -6.15 -7.6 -6.95 L-7.55 -7.1 -7.5 -7.15 Q-7.15 -8.05 -6.6 -8.6 L-5.7 -9.55 -5.5 -9.75 M-9.35 6.6 Q-9.15 6.15 -9.0 5.5 -8.8 5.8 -8.8 6.0 -8.8 6.1 -9.0 6.3 -9.2 6.5 -9.35 6.6 M-9.45 3.85 L-9.2 4.25 -10.3 5.45 Q-10.85 6.15 -11.25 6.75 L-11.35 6.7 -11.5 5.45 -11.5 5.35 -11.45 5.35 -10.3 3.95 -9.75 3.25 -9.45 3.85 M-11.3 1.65 L-11.3 1.6 -10.95 1.8 -10.35 2.0 -10.6 2.55 Q-11.35 4.2 -11.55 4.8 L-11.6 4.2 -11.45 2.75 -11.3 1.65" fill="#003366" fill-rule="evenodd" stroke="none"/>
  </g>
</svg>
