<?xml version="1.0" encoding="UTF-8" standalone="no"?>
<svg xmlns:ffdec="https://www.free-decompiler.com/flash" xmlns:xlink="http://www.w3.org/1999/xlink" ffdec:objectType="shape" height="21.1px" width="29.7px" xmlns="http://www.w3.org/2000/svg">
  <g transform="matrix(1.0, 0.0, 0.0, 1.0, 21.8, 15.4)">
    <path d="M-15.2 2.4 L-15.25 2.4 -15.8 2.5 Q-16.3 2.55 -16.7 2.1 -16.9 1.95 -17.0 1.7 -17.15 1.45 -17.25 1.15 L-17.35 0.75 Q-17.4 0.25 -17.15 -0.15 -17.1 -0.45 -16.45 -0.95 -16.0 -1.25 -15.55 -1.45 L-15.3 -1.7 -15.65 -1.65 -15.85 -1.6 -16.2 -1.65 -16.5 -1.65 -16.6 -1.7 Q-16.65 -1.65 -16.8 -1.6 L-17.5 -1.5 -17.55 -1.45 -17.8 -1.45 Q-18.3 -1.35 -18.95 -1.6 -19.6 -1.8 -19.75 -2.1 -20.45 -2.6 -21.0 -3.75 -21.55 -4.85 -21.75 -6.15 -21.9 -7.4 -21.25 -8.4 L-21.1 -8.7 Q-20.85 -9.25 -20.45 -9.8 -19.35 -11.25 -18.15 -11.4 L-17.5 -11.4 -16.9 -11.6 -15.95 -11.95 -15.8 -12.05 -15.75 -12.05 Q-15.55 -12.15 -15.05 -12.55 -14.6 -12.9 -14.45 -12.9 -14.1 -12.85 -13.65 -12.6 L-13.7 -12.65 Q-13.5 -12.75 -13.3 -12.8 -13.0 -13.05 -12.6 -13.5 -12.25 -13.95 -11.8 -14.1 -11.15 -14.4 -10.6 -14.05 L-10.05 -14.05 Q-9.75 -13.95 -9.65 -13.85 L-9.25 -14.15 -8.85 -14.35 -8.85 -14.4 -8.75 -14.4 Q-8.2 -14.65 -7.7 -14.7 L-7.6 -14.65 -7.5 -14.55 -7.15 -14.55 Q-7.1 -14.6 -6.95 -14.65 -6.7 -14.65 -6.2 -15.05 L-5.55 -15.4 Q-5.2 -15.4 -4.9 -15.1 -4.75 -15.2 -4.25 -15.2 -3.6 -15.2 -3.5 -14.85 L-3.35 -14.9 -2.9 -14.9 Q-2.65 -14.8 -2.3 -14.75 -0.8 -14.5 -0.4 -14.3 0.1 -14.1 1.45 -13.35 2.0 -13.1 2.55 -12.15 2.85 -11.65 3.05 -11.15 4.3 -9.35 4.6 -8.75 5.2 -7.55 5.2 -5.85 L5.1 -5.05 Q5.25 -4.75 5.6 -4.5 L5.55 -4.5 6.05 -4.35 Q6.65 -4.2 6.9 -4.1 L7.0 -4.0 Q7.3 -3.95 7.6 -3.55 7.9 -3.15 7.9 -2.9 7.95 -2.55 7.65 -2.3 7.4 -2.05 6.85 -2.0 6.35 -1.9 6.15 -2.4 6.1 -2.6 6.1 -2.85 L6.05 -3.0 Q6.05 -3.15 6.1 -3.25 6.15 -3.35 6.25 -3.35 L6.45 -3.35 Q6.5 -3.35 6.5 -3.3 L6.45 -3.05 6.45 -2.9 Q6.5 -2.85 6.6 -2.85 6.9 -2.9 7.0 -3.1 L7.0 -3.25 Q7.0 -3.5 6.9 -3.65 L6.05 -3.75 5.05 -3.8 4.95 -3.8 Q4.9 -3.35 4.8 -2.95 4.35 -1.6 3.05 -1.4 2.75 -1.4 2.5 -1.55 2.3 -1.65 2.15 -1.95 2.0 -2.2 1.95 -2.55 1.95 -2.8 2.15 -3.2 2.35 -3.55 2.7 -3.7 2.75 -3.75 2.8 -3.75 3.15 -3.8 3.3 -3.55 3.4 -3.4 3.4 -3.25 L3.4 -3.1 3.3 -3.05 Q3.25 -3.05 3.15 -3.1 L3.05 -3.15 2.85 -3.05 2.85 -2.6 2.95 -2.6 Q3.1 -2.65 3.25 -2.7 3.5 -2.9 3.65 -3.35 3.75 -3.7 3.75 -4.1 3.7 -4.65 3.6 -4.95 L3.05 -5.4 2.9 -5.5 2.65 -5.45 2.45 -5.5 2.3 -5.3 2.3 -5.15 Q2.3 -5.05 1.85 -4.6 L1.6 -4.3 1.0 -3.75 0.9 -3.7 0.9 -3.65 0.85 -3.65 Q0.4 -3.35 -0.15 -3.05 L0.05 -3.2 Q-0.35 -3.0 -0.8 -2.95 L-1.4 -3.0 -1.65 -3.0 Q-2.1 -2.8 -2.5 -2.35 -2.95 -1.8 -2.95 -1.4 -2.9 -0.95 -2.65 -0.7 -2.4 -0.45 -1.85 -0.55 L-1.5 -0.8 -1.4 -0.8 Q-1.35 -0.8 -1.35 -0.75 L-1.35 -0.7 Q-1.4 -0.55 -1.65 -0.35 -2.0 -0.05 -2.3 -0.05 -3.15 0.05 -3.55 -0.6 -3.8 -1.0 -3.8 -1.4 -3.85 -2.0 -3.7 -2.35 -3.6 -2.55 -3.35 -2.8 -4.5 -2.5 -5.25 -1.55 -5.6 -1.15 -5.8 -0.7 -5.95 -0.35 -5.95 -0.15 -5.95 0.0 -5.65 0.4 -5.35 0.85 -5.1 0.85 L-4.7 0.75 -4.4 0.4 Q-4.15 0.15 -4.15 0.1 -4.2 -0.05 -4.25 -0.1 L-4.65 -0.15 -4.8 -0.05 Q-4.85 0.1 -4.85 0.25 L-5.0 0.35 Q-5.15 0.35 -5.2 0.25 L-5.2 -0.1 -5.25 -0.2 Q-5.25 -0.4 -4.95 -0.7 -4.6 -1.05 -4.25 -1.05 -3.85 -1.15 -3.6 -0.6 -3.45 -0.3 -3.4 0.1 -3.35 0.5 -3.7 0.95 -4.15 1.6 -5.05 1.7 -6.05 1.85 -6.5 0.65 -6.75 0.1 -6.8 -0.6 L-6.8 -0.7 -7.2 -0.45 -7.15 -0.5 Q-7.15 -0.4 -7.3 -0.25 L-7.55 0.1 -7.6 0.15 -7.25 0.05 -7.05 0.0 -6.9 0.0 -6.85 0.05 Q-6.8 0.1 -6.8 0.2 -6.8 0.4 -7.05 0.85 -7.3 1.3 -7.3 1.4 -7.3 1.6 -7.2 1.65 -7.05 1.75 -6.85 1.95 L-6.75 1.95 -6.6 1.9 -6.55 1.95 Q-6.55 2.0 -6.55 2.05 -6.5 2.2 -7.0 2.5 -7.6 2.6 -7.9 2.3 -8.1 2.05 -8.15 1.75 L-8.05 1.25 -8.05 1.15 Q-8.1 1.2 -8.3 1.2 L-8.65 1.25 -8.65 1.05 -8.7 1.3 -8.5 1.95 Q-8.1 2.75 -7.5 3.35 L-7.55 3.45 Q-8.4 3.15 -9.15 2.35 L-8.95 2.95 -8.95 3.45 -8.75 3.85 -8.2 4.55 -8.15 4.6 -8.2 4.65 -8.3 4.6 -8.3 4.65 -8.4 4.7 Q-8.4 4.8 -8.55 5.0 -8.75 5.25 -8.8 5.25 -9.35 5.3 -9.7 4.95 L-9.9 4.75 Q-10.15 5.6 -10.75 5.65 L-10.8 5.65 -10.95 5.7 Q-11.55 5.8 -11.9 5.35 -12.15 5.05 -12.15 4.75 L-12.2 4.25 -12.35 4.45 Q-12.8 5.05 -13.55 5.15 -14.3 5.25 -14.8 4.7 -15.1 4.35 -15.15 3.95 -15.2 3.5 -15.0 3.15 -14.7 2.65 -14.0 2.55 -13.75 2.5 -13.45 2.75 -13.25 2.85 -13.2 2.95 -13.4 2.4 -13.95 1.8 -14.2 2.0 -14.55 2.15 L-14.7 2.2 Q-14.95 2.3 -15.2 2.4 M-5.15 -14.7 Q-5.45 -15.05 -5.65 -15.0 L-6.4 -14.55 -5.35 -14.4 -5.35 -14.55 -5.1 -14.65 -5.15 -14.7 M-4.65 -14.75 L-4.35 -14.75 -4.15 -14.8 Q-4.45 -14.9 -4.75 -14.85 L-4.65 -14.75 M-2.95 -14.45 L-2.95 -14.5 -4.15 -14.3 -4.55 -14.2 Q-3.9 -14.05 -3.2 -13.75 L-3.1 -13.75 -3.05 -13.8 -2.05 -13.75 Q-0.4 -13.6 1.0 -12.35 1.7 -11.65 2.2 -10.8 2.6 -10.0 2.65 -9.4 2.7 -9.2 2.85 -8.8 3.05 -8.4 3.05 -8.2 L3.05 -7.65 3.0 -7.6 3.0 -7.55 3.2 -6.8 3.2 -6.5 3.35 -6.5 3.45 -6.4 Q3.5 -6.5 3.5 -6.6 L3.55 -6.75 Q3.45 -6.95 3.45 -7.2 L3.35 -8.35 Q3.25 -8.75 3.0 -9.45 2.7 -10.15 2.65 -10.5 2.35 -11.65 1.4 -12.65 1.1 -13.0 0.75 -13.25 0.15 -13.55 -0.5 -13.8 -1.55 -14.15 -2.85 -14.35 L-2.95 -14.4 -2.95 -14.45 M-12.6 -12.6 Q-12.1 -12.3 -12.0 -12.05 -11.65 -12.25 -11.25 -12.35 L-10.95 -12.5 -10.55 -12.95 -10.4 -13.1 -10.7 -13.4 Q-11.0 -13.85 -11.4 -13.8 L-12.1 -13.2 -12.7 -12.6 -12.6 -12.6 M-13.3 -11.15 L-12.9 -11.5 -13.3 -11.95 Q-13.95 -12.6 -14.35 -12.55 L-15.3 -11.95 -15.35 -11.9 -15.2 -11.85 Q-14.75 -11.95 -14.0 -11.6 -13.45 -11.4 -13.3 -11.15 M-13.5 -10.95 L-14.05 -11.3 Q-14.55 -11.6 -15.0 -11.75 L-14.9 -11.7 Q-13.8 -11.0 -13.75 -10.7 L-13.5 -10.95 M-11.8 -11.4 L-11.7 -11.6 Q-12.75 -10.9 -13.55 -9.85 L-13.8 -9.3 Q-14.6 -7.5 -14.45 -5.7 -14.4 -5.45 -14.1 -4.7 L-13.75 -3.9 Q-13.75 -3.4 -13.0 -2.9 -13.2 -3.25 -13.2 -3.75 L-13.15 -4.05 -13.3 -4.6 -13.35 -5.25 -13.35 -5.35 -13.45 -5.75 -13.65 -5.75 -13.55 -6.35 Q-13.45 -6.65 -13.2 -6.9 L-13.25 -6.9 Q-13.3 -6.95 -13.3 -7.15 L-13.3 -7.65 Q-13.35 -7.85 -13.35 -8.0 L-13.3 -8.4 -13.3 -8.5 Q-13.35 -9.05 -12.55 -9.85 -12.2 -10.25 -11.9 -10.45 -11.95 -10.6 -11.9 -10.75 -11.95 -11.15 -11.8 -11.4 M-12.25 -11.95 L-12.65 -12.35 Q-13.0 -12.65 -13.65 -12.6 L-13.2 -12.35 Q-12.8 -12.0 -12.55 -11.75 L-12.25 -11.95 M-15.85 -11.65 Q-16.35 -11.4 -16.75 -11.3 -16.15 -11.15 -15.55 -10.8 -14.7 -10.25 -14.4 -9.8 L-14.05 -10.3 -13.95 -10.4 Q-14.15 -10.65 -14.55 -10.95 -15.1 -11.4 -15.85 -11.65 M-15.75 -8.35 Q-16.75 -10.0 -19.0 -9.75 -20.25 -9.6 -20.95 -8.0 -21.2 -7.5 -21.35 -6.9 -21.45 -6.45 -21.45 -6.3 -21.4 -5.6 -21.15 -5.05 -20.9 -4.55 -20.9 -4.4 -20.85 -3.8 -19.95 -2.95 -18.85 -1.9 -17.6 -2.05 -16.5 -2.2 -15.95 -2.9 -15.65 -3.35 -15.7 -3.7 L-15.6 -4.2 -15.6 -4.65 -15.55 -4.75 -15.65 -5.0 -15.7 -5.0 -15.7 -5.1 -15.8 -5.25 Q-16.1 -5.9 -16.55 -6.5 -17.0 -7.05 -17.45 -7.4 L-17.5 -7.4 Q-18.6 -7.25 -19.05 -6.15 -19.3 -5.5 -19.25 -4.9 -19.25 -4.7 -18.9 -4.2 L-18.6 -3.8 -18.3 -3.55 Q-17.8 -3.4 -17.25 -3.5 -16.75 -3.55 -16.55 -4.0 L-16.4 -4.45 Q-16.45 -4.85 -16.5 -5.15 L-16.6 -5.1 Q-16.85 -4.95 -17.15 -4.9 L-17.35 -4.95 -17.4 -4.9 Q-17.45 -4.9 -17.55 -4.85 -18.05 -4.8 -18.3 -5.35 -18.45 -5.65 -18.45 -5.95 -18.45 -6.25 -18.25 -6.45 -18.0 -6.65 -17.65 -6.7 -17.05 -6.75 -16.65 -6.25 L-16.55 -6.1 Q-16.45 -5.95 -16.4 -5.75 -16.2 -5.25 -16.1 -4.5 -16.1 -4.1 -16.35 -3.75 -16.7 -3.25 -17.6 -3.15 -18.9 -3.0 -19.7 -4.2 -20.2 -5.0 -20.25 -5.6 -20.3 -6.4 -19.95 -7.1 -19.4 -8.2 -17.9 -8.35 -16.5 -8.55 -15.7 -6.8 -15.45 -6.25 -15.35 -5.7 -15.15 -5.25 -15.1 -5.0 -15.1 -4.85 -15.15 -4.7 L-15.2 -4.7 -15.15 -4.5 -15.2 -4.35 Q-15.2 -3.75 -15.4 -3.25 -15.7 -2.45 -16.45 -2.05 L-16.1 -2.0 -15.7 -2.0 Q-15.0 -2.1 -14.65 -2.8 L-14.5 -3.15 Q-14.7 -3.55 -14.9 -4.15 -15.25 -5.25 -15.35 -6.85 -15.4 -7.15 -15.35 -7.55 -15.5 -8.0 -15.75 -8.35 M-15.2 -8.15 L-15.1 -8.45 Q-14.9 -8.95 -14.65 -9.4 -15.05 -10.05 -15.55 -10.4 -16.7 -11.3 -18.45 -11.1 -19.45 -10.95 -20.4 -9.5 L-20.65 -9.1 Q-19.8 -9.85 -18.6 -10.05 -17.2 -10.25 -16.2 -9.45 -15.5 -8.95 -15.2 -8.15 M-12.1 -9.65 Q-12.5 -9.2 -12.6 -8.9 L-12.65 -8.75 -12.65 -7.7 -12.55 -7.3 -11.95 -7.5 -11.95 -7.45 -11.9 -7.5 -11.65 -7.6 Q-10.9 -7.8 -9.95 -7.95 L-9.1 -7.95 -6.85 -7.85 Q-5.9 -7.75 -5.6 -7.5 L-4.85 -7.3 -4.0 -7.15 Q-3.45 -7.2 -2.5 -7.0 L-0.9 -6.55 Q-0.7 -6.55 0.3 -6.15 1.15 -5.8 1.6 -5.5 L1.75 -5.9 1.85 -6.0 0.3 -7.3 Q0.15 -7.75 -0.7 -8.2 L-1.1 -8.4 -1.7 -8.75 Q-5.2 -10.9 -8.1 -10.5 -8.6 -10.45 -9.4 -10.55 L-9.9 -10.45 Q-10.15 -10.5 -10.75 -10.45 -11.7 -10.3 -12.05 -9.7 L-12.1 -9.65 M-18.9 -7.85 L-18.9 -7.85 M-18.95 -7.8 Q-19.4 -7.5 -19.65 -6.9 -20.0 -6.25 -19.95 -5.6 -19.9 -5.15 -19.6 -4.65 L-19.7 -4.9 Q-19.7 -5.15 -19.6 -5.65 L-19.55 -5.7 -19.55 -5.9 Q-19.6 -6.15 -19.25 -6.65 L-19.15 -6.8 Q-18.75 -7.5 -18.2 -7.75 L-18.6 -7.8 -18.7 -7.8 -18.85 -7.85 -18.95 -7.8 M-18.25 -8.15 Q-17.55 -8.1 -17.0 -7.65 -16.55 -7.4 -16.15 -6.9 L-15.95 -6.7 -16.0 -6.9 Q-16.65 -8.35 -17.85 -8.2 L-18.25 -8.15 M-17.95 -6.25 L-18.05 -6.15 Q-18.15 -6.05 -18.15 -5.85 -18.1 -5.45 -17.7 -5.2 L-17.55 -5.15 Q-17.35 -5.1 -17.3 -5.1 -17.15 -5.1 -17.1 -5.15 -17.05 -5.2 -17.15 -5.2 L-17.0 -5.3 -16.95 -5.5 Q-17.5 -5.45 -17.75 -5.75 -17.9 -6.0 -17.95 -6.2 L-17.95 -6.25 M-17.65 -6.3 Q-17.65 -6.1 -17.4 -5.95 -17.15 -5.85 -16.85 -5.9 L-16.95 -6.05 -17.0 -6.2 Q-17.25 -6.4 -17.6 -6.4 L-17.6 -6.35 -17.65 -6.3 M-12.8 -6.0 L-12.85 -5.3 -12.85 -5.0 -12.7 -5.15 Q-12.6 -5.5 -11.65 -5.85 -11.6 -5.85 -11.55 -5.9 -10.9 -6.25 -9.4 -6.6 -8.8 -6.85 -8.45 -6.9 L-6.95 -7.15 -6.25 -7.25 -7.25 -7.45 Q-7.9 -7.5 -8.4 -7.45 -9.45 -7.3 -10.4 -7.0 -11.0 -6.85 -11.35 -6.7 L-11.5 -6.6 Q-11.65 -6.55 -11.65 -6.65 -12.35 -6.35 -12.8 -6.0 M-12.3 -4.4 Q-12.25 -3.75 -12.1 -3.35 L-12.0 -3.2 -12.05 -3.2 -12.0 -3.1 -11.75 -2.65 -10.9 -2.6 -10.85 -2.6 Q-10.1 -2.9 -8.9 -3.3 L-5.9 -4.2 -5.95 -4.1 -5.65 -4.2 -5.65 -4.25 -1.95 -4.45 Q-1.0 -4.4 0.0 -4.2 0.35 -4.35 0.7 -4.6 L0.8 -4.65 0.0 -5.05 -1.35 -5.7 -1.8 -5.85 Q-2.75 -6.2 -3.7 -6.4 L-4.45 -6.55 Q-6.0 -6.7 -8.35 -6.3 L-8.85 -6.15 Q-10.4 -5.7 -11.3 -5.4 -11.3 -5.5 -11.35 -5.5 -11.7 -5.3 -11.9 -5.1 -12.3 -4.7 -12.3 -4.4 M-16.6 -5.45 L-16.6 -5.5 -16.65 -5.45 -16.6 -5.45 M-16.1 -0.15 Q-15.75 -0.4 -15.05 -0.75 L-14.85 -0.85 -14.85 -0.9 Q-14.8 -0.9 -14.75 -0.95 -13.9 -1.3 -13.7 -1.55 -13.45 -1.75 -13.55 -2.05 L-13.75 -2.15 -13.75 -2.2 -13.85 -2.25 -14.05 -2.25 Q-14.15 -2.05 -14.35 -1.8 -14.55 -1.65 -14.85 -1.45 -15.1 -1.3 -15.45 -1.15 -16.25 -0.75 -16.55 -0.45 -17.0 0.0 -16.95 0.75 -16.95 1.05 -16.75 1.4 L-16.75 1.2 Q-16.8 0.45 -16.2 -0.1 L-16.1 -0.15 M-14.8 1.15 L-14.65 1.05 -14.6 1.0 -14.6 0.85 -14.75 0.9 -14.95 0.95 -15.05 1.05 -15.15 1.0 -15.2 0.9 Q-15.25 0.7 -15.05 0.6 L-14.9 0.6 -14.9 0.55 -14.8 0.5 -14.6 0.5 -14.4 0.55 Q-14.3 0.55 -14.25 0.65 -14.2 0.75 -14.2 0.9 L-14.2 1.05 Q-14.25 1.2 -14.35 1.4 -14.6 1.6 -15.0 1.7 L-15.3 1.7 Q-15.75 1.7 -15.9 1.45 L-16.0 1.05 Q-16.0 0.7 -15.75 0.3 -15.5 -0.05 -15.1 -0.25 L-14.85 -0.3 -14.55 -0.35 Q-13.95 -0.45 -13.75 0.25 L-13.7 0.35 -13.6 0.6 Q-13.55 1.15 -13.7 1.45 -12.85 2.25 -12.75 3.45 -12.7 3.8 -13.0 4.15 -13.4 4.65 -13.95 4.7 L-14.15 4.7 Q-13.9 4.8 -13.65 4.8 -12.95 4.7 -12.6 4.1 -12.35 3.7 -12.35 3.35 -12.4 2.75 -12.95 2.0 -13.5 1.25 -13.55 0.6 -13.6 0.15 -13.3 -0.5 L-13.25 -0.6 -13.25 -0.85 -13.2 -0.95 -13.1 -1.45 -13.05 -1.6 -13.05 -1.75 -13.35 -1.95 -13.45 -2.0 -13.4 -2.0 Q-13.4 -1.4 -13.85 -1.0 -14.05 -0.8 -14.55 -0.55 L-14.85 -0.45 -14.95 -0.4 -15.1 -0.35 Q-15.75 -0.05 -16.0 0.2 -16.5 0.65 -16.45 1.25 -16.4 1.6 -16.2 1.8 -15.9 2.05 -15.25 2.0 -14.65 1.85 -14.3 1.5 L-14.3 1.45 -14.25 1.4 Q-14.2 1.3 -14.15 1.1 -14.1 0.9 -14.15 0.65 -14.15 0.4 -14.4 0.3 L-14.75 0.25 -14.9 0.25 -15.05 0.3 Q-15.25 0.35 -15.45 0.6 L-15.55 0.8 Q-15.6 0.95 -15.6 1.1 -15.6 1.2 -15.4 1.3 L-15.15 1.3 -14.9 1.2 -14.85 1.2 -14.8 1.15 M-10.9 1.8 Q-10.75 1.85 -10.6 1.95 L-10.95 1.2 -10.95 0.55 Q-10.95 0.0 -10.65 -0.8 L-10.6 -0.85 Q-10.55 -1.25 -10.35 -1.5 L-10.3 -1.55 Q-10.75 -1.65 -11.3 -1.95 -12.0 -2.3 -12.2 -2.4 L-12.3 -2.35 -12.5 -2.2 -12.4 -2.2 Q-12.65 -2.05 -12.85 -1.3 -13.0 -0.7 -13.0 -0.3 -13.0 0.4 -12.65 0.75 -12.35 1.15 -11.4 1.55 L-11.25 1.6 -11.2 1.65 -10.9 1.8 M-2.05 -9.7 Q-0.65 -9.25 0.55 -8.45 1.8 -7.65 2.6 -6.65 2.45 -7.25 2.4 -7.5 2.4 -7.9 2.1 -8.5 L1.95 -8.5 1.7 -8.85 Q0.65 -10.25 -0.3 -11.15 -3.05 -13.5 -8.0 -14.25 -8.4 -14.0 -8.95 -13.75 L-9.05 -13.7 Q-9.2 -13.45 -9.5 -13.1 L-9.5 -13.05 -9.8 -12.7 -9.7 -12.6 -9.75 -12.55 -9.35 -12.5 -9.0 -12.45 Q-8.7 -12.35 -8.55 -12.25 -7.4 -12.15 -6.25 -11.75 -4.75 -11.25 -3.85 -10.55 -3.1 -10.25 -2.4 -9.85 L-2.05 -9.7 M-3.15 -13.7 Q-1.4 -12.95 0.3 -11.4 1.4 -10.45 2.25 -9.3 L2.2 -9.6 Q1.85 -10.7 1.5 -11.2 0.45 -12.95 -2.75 -13.65 L-3.15 -13.7 M-6.75 -11.3 Q-8.4 -11.9 -9.6 -12.1 L-10.15 -12.15 -10.3 -12.15 -10.6 -11.85 Q-11.0 -11.4 -11.15 -11.1 L-11.25 -10.95 -11.2 -10.75 -11.15 -10.8 Q-10.55 -11.0 -9.8 -11.0 -9.65 -11.1 -9.3 -11.15 -7.75 -11.35 -6.25 -11.15 L-6.75 -11.3 M-10.1 -13.75 L-10.3 -13.8 Q-10.15 -13.65 -10.05 -13.5 L-9.85 -13.65 -10.1 -13.75 M-6.1 -3.85 L-4.35 -4.15 -4.45 -4.15 -6.1 -3.85 M-10.6 -2.15 Q-10.5 -2.05 -10.35 -2.0 -10.05 -1.9 -9.55 -1.9 -9.05 -1.9 -7.75 -2.25 L-6.45 -2.6 Q-6.55 -2.55 -7.8 -2.0 -8.7 -1.6 -9.3 -1.5 L-9.9 -1.0 Q-9.95 -1.0 -9.95 -0.95 -10.15 -0.8 -10.2 -0.5 -10.5 0.05 -10.5 0.7 -10.5 1.2 -10.3 1.65 -10.05 2.2 -9.55 2.6 L-9.4 2.6 -9.4 2.55 -9.35 2.45 -9.7 1.65 Q-10.05 0.95 -10.05 0.7 -10.05 0.3 -9.55 -0.4 L-9.2 -0.85 -9.0 -0.95 -8.95 -0.95 -7.7 -1.65 Q-7.1 -2.0 -6.5 -2.3 L-6.5 -2.25 Q-6.1 -2.45 -6.0 -2.55 L-5.95 -2.55 Q-5.1 -3.5 -3.85 -3.85 L-4.7 -3.75 -5.05 -3.65 -6.65 -3.35 Q-8.35 -2.85 -10.7 -2.2 L-10.75 -2.25 -10.6 -2.15 M-7.25 -0.4 Q-7.75 -0.1 -8.15 0.1 L-8.15 0.15 Q-8.1 0.25 -8.2 0.5 -8.3 0.8 -8.35 0.9 L-8.0 0.8 -7.7 0.65 -7.6 0.7 Q-7.55 0.7 -7.55 0.8 L-7.7 1.2 Q-7.85 1.55 -7.85 1.7 -7.8 1.85 -7.65 2.0 -7.5 2.15 -7.3 2.15 -7.5 2.05 -7.6 1.75 L-7.65 1.2 Q-7.65 1.15 -7.45 0.85 L-7.15 0.45 -7.15 0.4 -7.45 0.45 -8.0 0.5 -8.05 0.4 Q-8.05 0.25 -7.65 -0.1 L-7.25 -0.4 M-8.65 -0.35 Q-8.15 -0.7 -7.6 -1.0 L-6.6 -1.55 -6.55 -1.65 Q-6.85 -1.5 -7.2 -1.3 L-8.45 -0.6 -8.35 -0.8 Q-8.9 -0.7 -9.25 -0.3 -9.5 0.05 -9.5 0.45 L-9.65 0.4 -9.65 0.5 -9.55 0.85 -9.5 0.6 -9.45 1.05 Q-9.3 1.4 -9.05 1.7 L-9.0 1.65 Q-9.2 1.2 -9.2 0.75 -9.2 0.35 -8.95 0.05 L-8.65 -0.35 M-6.3 -1.15 Q-6.3 -1.1 -6.35 -0.8 L-6.45 -0.6 Q-6.4 0.0 -6.15 0.55 -5.75 1.5 -5.05 1.4 -4.15 1.3 -3.85 0.6 -3.65 0.2 -3.7 -0.3 -3.7 -0.35 -3.9 -0.6 -4.05 -0.85 -4.15 -0.8 -4.65 -0.75 -4.8 -0.4 L-4.5 -0.45 Q-4.05 -0.55 -3.9 -0.25 -3.9 -0.2 -3.85 0.2 -3.85 0.4 -4.15 0.7 -4.5 1.1 -5.05 1.15 -5.55 1.2 -5.95 0.5 -6.15 0.2 -6.25 -0.2 L-6.2 -0.45 Q-6.2 -0.6 -6.2 -0.7 -6.2 -0.85 -5.95 -1.2 -5.65 -1.6 -5.25 -2.0 -4.15 -3.05 -2.9 -3.2 L-2.85 -3.25 -1.2 -3.25 -0.7 -3.3 Q0.35 -3.45 1.0 -4.15 L1.15 -4.45 1.1 -4.45 Q0.05 -3.7 -1.5 -3.5 L-2.4 -3.55 -3.25 -3.6 Q-4.65 -3.45 -5.6 -2.4 -5.95 -2.05 -6.15 -1.65 -6.3 -1.3 -6.3 -1.15 M-2.4 -3.9 Q-1.6 -3.85 -1.0 -3.9 L-0.7 -3.95 -2.05 -3.95 -2.7 -3.9 -2.4 -3.9 M-1.1 -5.95 Q0.0 -5.5 0.75 -4.95 L1.05 -4.8 1.45 -5.2 1.5 -5.3 Q0.25 -5.95 -1.25 -6.35 L-2.75 -6.7 Q-1.95 -6.4 -1.1 -5.95 M-3.4 -2.5 Q-3.6 -2.0 -3.6 -1.7 -3.55 -1.25 -3.35 -0.9 -3.1 -0.45 -2.7 -0.35 -3.15 -0.6 -3.2 -1.35 -3.25 -2.05 -2.45 -2.7 L-2.0 -3.0 -2.8 -2.95 -3.15 -2.9 -3.4 -2.5 M1.15 -11.85 L1.5 -11.45 Q1.25 -11.8 0.9 -12.15 L1.15 -11.85 M0.25 -8.05 Q1.4 -7.25 1.95 -6.4 2.0 -6.55 2.2 -6.6 L2.05 -6.75 0.9 -7.7 -0.2 -8.5 0.15 -8.2 0.05 -8.2 0.25 -8.05 M3.35 -9.8 Q3.65 -8.25 3.9 -7.3 4.2 -5.85 4.6 -5.4 L4.7 -5.85 Q4.7 -7.5 4.2 -8.35 L3.55 -9.45 3.35 -9.8 M3.35 -5.85 L3.35 -5.95 3.0 -6.15 2.95 -6.05 Q3.35 -5.8 3.65 -5.45 4.1 -4.95 4.15 -4.2 4.2 -3.7 4.0 -3.3 L3.75 -2.95 Q3.55 -2.45 3.4 -2.35 L3.25 -2.35 2.85 -2.25 2.8 -2.3 Q2.65 -2.35 2.6 -2.5 L2.55 -2.7 2.5 -2.8 2.55 -3.05 2.55 -3.15 2.6 -3.2 2.5 -3.05 2.45 -3.0 2.35 -2.5 Q2.35 -2.35 2.6 -2.05 2.75 -1.9 2.9 -1.8 L3.1 -1.8 Q3.7 -1.9 4.05 -2.45 4.15 -2.65 4.25 -2.95 4.4 -3.5 4.45 -4.05 L4.3 -4.9 4.0 -5.5 3.9 -5.65 3.7 -5.75 3.65 -5.8 3.65 -5.7 3.55 -5.65 Q3.35 -5.8 3.35 -5.85 M4.95 -4.5 L4.95 -4.2 Q5.2 -4.1 5.65 -4.05 L6.1 -4.0 5.8 -4.1 Q5.25 -4.25 4.95 -4.5 M2.7 -6.25 L2.7 -6.15 2.75 -6.15 2.7 -6.25 M1.3 -4.65 L1.2 -4.55 1.25 -4.55 1.3 -4.65 M7.25 -3.5 L7.35 -3.2 Q7.35 -2.95 7.2 -2.75 7.0 -2.5 6.55 -2.45 6.65 -2.25 6.85 -2.3 7.3 -2.35 7.5 -2.65 7.6 -2.8 7.55 -3.0 7.55 -3.35 7.25 -3.5 M-8.55 0.4 L-8.6 0.7 -8.45 0.4 -8.55 0.4 M-11.45 2.05 Q-11.45 2.45 -11.3 2.85 -11.0 3.65 -10.15 3.65 L-9.55 3.6 Q-9.45 3.6 -9.45 3.5 L-9.6 3.35 Q-9.95 2.95 -10.15 2.7 -10.35 2.4 -10.65 2.35 -11.05 2.25 -11.45 2.05 M-11.5 3.25 Q-11.85 2.65 -11.9 2.3 L-11.9 1.8 -12.3 1.55 -12.5 1.55 Q-12.85 1.6 -13.1 1.25 L-13.15 1.2 -13.0 1.45 Q-12.35 2.05 -12.15 2.7 L-12.1 2.95 Q-12.0 3.25 -12.0 3.55 -12.0 3.7 -12.05 3.85 L-12.0 4.3 -12.0 4.35 Q-12.0 3.95 -11.7 3.65 -11.5 3.55 -11.35 3.5 L-11.5 3.25 M-9.25 4.1 Q-9.55 4.05 -9.7 4.25 L-9.75 4.4 -9.6 4.65 Q-9.35 4.95 -9.0 4.9 -8.85 4.9 -8.8 4.65 L-8.8 4.55 Q-8.95 4.45 -9.15 4.25 L-9.25 4.1 M-9.9 4.05 L-10.4 4.0 Q-10.3 4.1 -10.25 4.25 -10.25 4.3 -10.2 4.65 -10.15 4.3 -10.0 4.15 L-9.9 4.05 M-10.95 3.85 L-11.1 3.75 -11.2 3.75 Q-11.5 3.8 -11.65 3.9 -11.7 4.05 -11.7 4.2 -11.7 4.5 -11.55 4.8 L-11.55 4.85 Q-11.35 5.2 -11.05 5.35 L-11.0 5.35 -10.7 5.3 -10.7 5.2 -10.65 5.1 Q-11.05 5.25 -11.3 4.95 L-11.45 4.75 -11.5 4.5 -11.5 4.3 -11.4 4.1 Q-11.25 3.9 -10.95 3.85 M-10.85 4.85 Q-10.8 4.85 -10.7 4.7 L-10.55 4.6 -10.5 4.55 Q-10.45 4.65 -10.5 4.5 -10.5 4.3 -10.65 4.2 -10.75 4.15 -10.85 4.15 -11.25 4.1 -11.2 4.5 -11.2 4.65 -11.1 4.75 -11.0 4.9 -10.85 4.85 M-14.0 3.15 Q-14.5 3.2 -14.5 3.7 -14.45 3.9 -14.35 4.05 -14.2 4.3 -13.95 4.3 -13.65 4.25 -13.35 3.9 -13.1 3.55 -13.15 3.35 L-13.15 3.15 -13.2 3.2 -13.15 3.25 -13.25 3.25 -13.25 3.4 Q-13.25 3.55 -13.3 3.7 -13.4 3.95 -13.6 3.95 -13.85 4.0 -14.05 3.9 -14.2 3.8 -14.2 3.6 -14.25 3.55 -14.1 3.5 -14.05 3.5 -14.0 3.55 L-13.8 3.65 Q-13.65 3.65 -13.65 3.45 -13.65 3.4 -13.75 3.3 -13.85 3.15 -14.0 3.15 M-11.9 4.6 L-11.95 4.55 -11.85 4.75 -11.9 4.6" fill="#111111" fill-rule="evenodd" stroke="none"/>
    <path d="M-14.55 2.15 Q-14.8 2.35 -15.05 2.35 L-15.2 2.4 Q-14.95 2.3 -14.7 2.2 L-14.55 2.15 M-13.5 -10.95 L-13.75 -10.7 Q-13.8 -11.0 -14.9 -11.7 L-15.0 -11.75 Q-14.55 -11.6 -14.05 -11.3 L-13.5 -10.95 M-13.3 -11.15 Q-13.45 -11.4 -14.0 -11.6 -14.75 -11.95 -15.2 -11.85 L-15.35 -11.9 -15.3 -11.95 -14.35 -12.55 Q-13.95 -12.6 -13.3 -11.95 L-12.9 -11.5 -13.3 -11.15 M-12.6 -12.6 L-12.7 -12.6 -12.1 -13.2 -11.4 -13.8 Q-11.0 -13.85 -10.7 -13.4 L-10.4 -13.1 -10.55 -12.95 -10.95 -12.5 -11.25 -12.35 Q-11.65 -12.25 -12.0 -12.05 -12.1 -12.3 -12.6 -12.6 M-2.95 -14.45 L-2.95 -14.4 -2.85 -14.35 Q-1.55 -14.15 -0.5 -13.8 0.15 -13.55 0.75 -13.25 1.1 -13.0 1.4 -12.65 2.35 -11.65 2.65 -10.5 2.7 -10.15 3.0 -9.45 3.25 -8.75 3.35 -8.35 L3.45 -7.2 Q3.45 -6.95 3.55 -6.75 L3.5 -6.6 Q3.5 -6.5 3.45 -6.4 L3.35 -6.5 3.2 -6.5 3.2 -6.8 3.0 -7.55 3.0 -7.6 3.05 -7.65 3.05 -8.2 Q3.05 -8.4 2.85 -8.8 2.7 -9.2 2.65 -9.4 2.6 -10.0 2.2 -10.8 1.7 -11.65 1.0 -12.35 -0.4 -13.6 -2.05 -13.75 L-3.05 -13.8 -3.1 -13.75 -3.2 -13.75 Q-3.9 -14.05 -4.55 -14.2 L-4.15 -14.3 -2.95 -14.5 -2.95 -14.45 M-4.65 -14.75 L-4.75 -14.85 Q-4.45 -14.9 -4.15 -14.8 L-4.35 -14.75 -4.65 -14.75 M-5.15 -14.7 L-5.1 -14.65 -5.35 -14.55 -5.35 -14.4 -6.4 -14.55 -5.65 -15.0 Q-5.45 -15.05 -5.15 -14.7 M-12.1 -9.65 L-12.05 -9.7 Q-11.7 -10.3 -10.75 -10.45 -10.15 -10.5 -9.9 -10.45 L-9.4 -10.55 Q-8.6 -10.45 -8.1 -10.5 -5.2 -10.9 -1.7 -8.75 L-1.1 -8.4 -0.7 -8.2 Q0.15 -7.75 0.3 -7.3 L1.85 -6.0 1.75 -5.9 1.6 -5.5 Q1.15 -5.8 0.3 -6.15 -0.7 -6.55 -0.9 -6.55 L-2.5 -7.0 Q-3.45 -7.2 -4.0 -7.15 L-4.85 -7.3 -5.6 -7.5 Q-5.9 -7.75 -6.85 -7.85 L-9.1 -7.95 -9.95 -7.95 Q-10.9 -7.8 -11.65 -7.6 L-11.9 -7.5 -11.95 -7.45 -11.95 -7.5 -12.55 -7.3 -12.65 -7.7 -12.65 -8.75 -12.6 -8.9 Q-12.5 -9.2 -12.1 -9.65 M-15.2 -8.15 Q-15.5 -8.95 -16.2 -9.45 -17.2 -10.25 -18.6 -10.05 -19.8 -9.85 -20.65 -9.1 L-20.4 -9.5 Q-19.45 -10.95 -18.45 -11.1 -16.7 -11.3 -15.55 -10.4 -15.05 -10.05 -14.65 -9.4 -14.9 -8.95 -15.1 -8.45 L-15.2 -8.15 M-15.75 -8.35 Q-15.5 -8.0 -15.35 -7.55 -15.4 -7.15 -15.35 -6.85 -15.25 -5.25 -14.9 -4.15 -14.7 -3.55 -14.5 -3.15 L-14.65 -2.8 Q-15.0 -2.1 -15.7 -2.0 L-16.1 -2.0 -16.45 -2.05 Q-15.7 -2.45 -15.4 -3.25 -15.2 -3.75 -15.2 -4.35 L-15.15 -4.5 -15.2 -4.7 -15.15 -4.7 Q-15.1 -4.85 -15.1 -5.0 -15.15 -5.25 -15.35 -5.7 -15.45 -6.25 -15.7 -6.8 -16.5 -8.55 -17.9 -8.35 -19.4 -8.2 -19.95 -7.1 -20.3 -6.4 -20.25 -5.6 -20.2 -5.0 -19.7 -4.2 -18.9 -3.0 -17.6 -3.15 -16.7 -3.25 -16.35 -3.75 -16.1 -4.1 -16.1 -4.5 -16.2 -5.25 -16.4 -5.75 -16.45 -5.95 -16.55 -6.1 L-16.65 -6.25 Q-17.05 -6.75 -17.65 -6.7 -18.0 -6.65 -18.25 -6.45 -18.45 -6.25 -18.45 -5.95 -18.45 -5.65 -18.3 -5.35 -18.05 -4.8 -17.55 -4.85 -17.45 -4.9 -17.4 -4.9 L-17.35 -4.95 -17.15 -4.9 Q-16.85 -4.95 -16.6 -5.1 L-16.5 -5.15 Q-16.45 -4.85 -16.4 -4.45 L-16.55 -4.0 Q-16.75 -3.55 -17.25 -3.5 -17.8 -3.4 -18.3 -3.55 L-18.6 -3.8 -18.9 -4.2 Q-19.25 -4.7 -19.25 -4.9 -19.3 -5.5 -19.05 -6.15 -18.6 -7.25 -17.5 -7.4 L-17.45 -7.4 Q-17.0 -7.05 -16.55 -6.5 -16.1 -5.9 -15.8 -5.25 L-15.7 -5.1 -15.7 -5.0 -15.65 -5.0 -15.55 -4.75 -15.6 -4.65 -15.6 -4.2 -15.7 -3.7 Q-15.65 -3.35 -15.95 -2.9 -16.5 -2.2 -17.6 -2.05 -18.85 -1.9 -19.95 -2.95 -20.85 -3.8 -20.9 -4.4 -20.9 -4.55 -21.15 -5.05 -21.4 -5.6 -21.45 -6.3 -21.45 -6.45 -21.35 -6.9 -21.2 -7.5 -20.95 -8.0 -20.25 -9.6 -19.0 -9.75 -16.75 -10.0 -15.75 -8.35 M-15.85 -11.65 Q-15.1 -11.4 -14.55 -10.95 -14.15 -10.65 -13.95 -10.4 L-14.05 -10.3 -14.4 -9.8 Q-14.7 -10.25 -15.55 -10.8 -16.15 -11.15 -16.75 -11.3 -16.35 -11.4 -15.85 -11.65 M-12.25 -11.95 L-12.55 -11.75 Q-12.8 -12.0 -13.2 -12.35 L-13.65 -12.6 Q-13.0 -12.65 -12.65 -12.35 L-12.25 -11.95 M-12.3 -4.4 Q-12.3 -4.7 -11.9 -5.1 -11.7 -5.3 -11.35 -5.5 -11.3 -5.5 -11.3 -5.4 -10.4 -5.7 -8.85 -6.15 L-8.35 -6.3 Q-6.0 -6.7 -4.45 -6.55 L-3.7 -6.4 Q-2.75 -6.2 -1.8 -5.85 L-1.35 -5.7 0.0 -5.05 0.8 -4.65 0.7 -4.6 Q0.35 -4.35 0.0 -4.2 -1.0 -4.4 -1.95 -4.45 L-5.65 -4.25 -5.65 -4.2 -5.95 -4.1 -5.9 -4.2 -8.9 -3.3 Q-10.1 -2.9 -10.85 -2.6 L-10.9 -2.6 -11.75 -2.65 -12.0 -3.1 -12.05 -3.2 -12.0 -3.2 -12.1 -3.35 Q-12.25 -3.75 -12.3 -4.4 M-12.8 -6.0 Q-12.35 -6.35 -11.65 -6.65 -11.65 -6.55 -11.5 -6.6 L-11.35 -6.7 Q-11.0 -6.85 -10.4 -7.0 -9.45 -7.3 -8.4 -7.45 -7.9 -7.5 -7.25 -7.45 L-6.25 -7.25 -6.95 -7.15 -8.45 -6.9 Q-8.8 -6.85 -9.4 -6.6 -10.9 -6.25 -11.55 -5.9 -11.6 -5.85 -11.65 -5.85 -12.6 -5.5 -12.7 -5.15 L-12.85 -5.0 -12.85 -5.3 -12.8 -6.0 M-17.65 -6.3 L-17.6 -6.35 -17.6 -6.4 Q-17.25 -6.4 -17.0 -6.2 L-16.95 -6.05 -16.85 -5.9 Q-17.15 -5.85 -17.4 -5.95 -17.65 -6.1 -17.65 -6.3 M-17.95 -6.25 L-17.95 -6.2 Q-17.9 -6.0 -17.75 -5.75 -17.5 -5.45 -16.95 -5.5 L-17.0 -5.3 -17.15 -5.2 Q-17.05 -5.2 -17.1 -5.15 -17.15 -5.1 -17.3 -5.1 -17.35 -5.1 -17.55 -5.15 L-17.7 -5.2 Q-18.1 -5.45 -18.15 -5.85 -18.15 -6.05 -18.05 -6.15 L-17.95 -6.25 M-18.25 -8.15 L-17.85 -8.2 Q-16.65 -8.35 -16.0 -6.9 L-15.95 -6.7 -16.15 -6.9 Q-16.55 -7.4 -17.0 -7.65 -17.55 -8.1 -18.25 -8.15 M-18.95 -7.8 L-18.85 -7.85 -18.7 -7.8 -18.6 -7.8 -18.2 -7.75 Q-18.75 -7.5 -19.15 -6.8 L-19.25 -6.65 Q-19.6 -6.15 -19.55 -5.9 L-19.55 -5.7 -19.6 -5.65 Q-19.7 -5.15 -19.7 -4.9 L-19.6 -4.65 Q-19.9 -5.15 -19.95 -5.6 -20.0 -6.25 -19.65 -6.9 -19.4 -7.5 -18.95 -7.8 M-13.25 -0.6 L-13.3 -0.5 Q-13.6 0.15 -13.55 0.6 -13.5 1.25 -12.95 2.0 -12.4 2.75 -12.35 3.35 -12.35 3.7 -12.6 4.1 -12.95 4.7 -13.65 4.8 -13.9 4.8 -14.15 4.7 L-13.95 4.7 Q-13.4 4.65 -13.0 4.15 -12.7 3.8 -12.75 3.45 -12.85 2.25 -13.7 1.45 -13.55 1.15 -13.6 0.6 L-13.7 0.35 -13.75 0.25 Q-13.95 -0.45 -14.55 -0.35 L-14.85 -0.3 -15.1 -0.25 Q-15.5 -0.05 -15.75 0.3 -16.0 0.7 -16.0 1.05 L-15.9 1.45 Q-15.75 1.7 -15.3 1.7 L-15.0 1.7 Q-14.6 1.6 -14.35 1.4 -14.25 1.2 -14.2 1.05 L-14.2 0.9 Q-14.2 0.75 -14.25 0.65 -14.3 0.55 -14.4 0.55 L-14.6 0.5 -14.8 0.5 -14.9 0.55 -14.9 0.6 -15.05 0.6 Q-15.25 0.7 -15.2 0.9 L-15.15 1.0 -15.05 1.05 -14.95 0.95 -14.75 0.9 -14.6 0.85 -14.6 1.0 -14.65 1.05 -14.8 1.15 -14.9 1.15 -14.9 1.2 -15.15 1.3 -15.4 1.3 Q-15.6 1.2 -15.6 1.1 -15.6 0.95 -15.55 0.8 L-15.45 0.6 Q-15.25 0.35 -15.05 0.3 L-14.9 0.25 -14.75 0.25 -14.4 0.3 Q-14.15 0.4 -14.15 0.65 -14.1 0.9 -14.15 1.1 -14.2 1.3 -14.25 1.4 L-14.3 1.45 -14.3 1.5 Q-14.65 1.85 -15.25 2.0 -15.9 2.05 -16.2 1.8 -16.4 1.6 -16.45 1.25 -16.5 0.65 -16.0 0.2 -15.75 -0.05 -15.1 -0.35 L-14.95 -0.4 -14.85 -0.45 -14.55 -0.55 Q-14.05 -0.8 -13.85 -1.0 -13.4 -1.4 -13.4 -2.0 L-13.45 -2.0 -13.35 -1.95 -13.05 -1.75 -13.05 -1.6 -13.1 -1.45 -13.2 -0.95 -13.25 -0.85 -13.25 -0.6 M-16.1 -0.15 L-16.2 -0.1 Q-16.8 0.45 -16.75 1.2 L-16.75 1.4 Q-16.95 1.05 -16.95 0.75 -17.0 0.0 -16.55 -0.45 -16.25 -0.75 -15.45 -1.15 -15.1 -1.3 -14.85 -1.45 -14.55 -1.65 -14.35 -1.8 -14.15 -2.05 -14.05 -2.25 L-13.85 -2.25 -13.75 -2.2 -13.75 -2.15 -13.55 -2.05 Q-13.45 -1.75 -13.7 -1.55 -13.9 -1.3 -14.75 -0.95 -14.8 -0.9 -14.85 -0.9 L-14.85 -0.85 -15.05 -0.75 Q-15.75 -0.4 -16.1 -0.15 M-11.25 1.6 Q-11.1 1.6 -10.9 1.8 L-11.2 1.65 -11.25 1.6 M-12.35 -1.25 L-12.35 -1.15 -12.4 -1.15 -12.4 -1.2 -12.35 -1.25 M-10.1 -13.75 L-9.85 -13.65 -10.05 -13.5 Q-10.15 -13.65 -10.3 -13.8 L-10.1 -13.75 M-6.75 -11.3 L-6.25 -11.15 Q-7.75 -11.35 -9.3 -11.15 -9.65 -11.1 -9.8 -11.0 -10.55 -11.0 -11.15 -10.8 L-11.2 -10.75 -11.25 -10.95 -11.15 -11.1 Q-11.0 -11.4 -10.6 -11.85 L-10.3 -12.15 -10.15 -12.15 -9.6 -12.1 Q-8.4 -11.9 -6.75 -11.3 M-3.15 -13.7 L-2.75 -13.65 Q0.45 -12.95 1.5 -11.2 1.85 -10.7 2.2 -9.6 L2.25 -9.3 Q1.4 -10.45 0.3 -11.4 -1.4 -12.95 -3.15 -13.7 M-2.05 -9.7 L-2.4 -9.85 Q-3.1 -10.25 -3.85 -10.55 -4.75 -11.25 -6.25 -11.75 -7.4 -12.15 -8.55 -12.25 -8.7 -12.35 -9.0 -12.45 L-9.35 -12.5 -9.75 -12.55 -9.7 -12.6 -9.8 -12.7 -9.5 -13.05 -9.5 -13.1 Q-9.2 -13.45 -9.05 -13.7 L-8.95 -13.75 Q-8.4 -14.0 -8.0 -14.25 -3.05 -13.5 -0.3 -11.15 0.65 -10.25 1.7 -8.85 L1.95 -8.5 2.1 -8.5 Q2.4 -7.9 2.4 -7.5 2.45 -7.25 2.6 -6.65 1.8 -7.65 0.55 -8.45 -0.65 -9.25 -2.05 -9.7 M-10.6 -2.15 L-10.7 -2.2 Q-8.35 -2.85 -6.65 -3.35 L-5.05 -3.65 -4.7 -3.75 -3.85 -3.85 Q-5.1 -3.5 -5.95 -2.55 L-6.0 -2.55 Q-6.1 -2.45 -6.5 -2.25 L-6.5 -2.3 Q-7.1 -2.0 -7.7 -1.65 L-8.95 -0.95 -9.0 -0.95 -9.2 -0.85 -9.55 -0.4 Q-10.05 0.3 -10.05 0.7 -10.05 0.95 -9.7 1.65 L-9.35 2.45 -9.4 2.55 -9.4 2.6 -9.55 2.6 Q-10.05 2.2 -10.3 1.65 -10.5 1.2 -10.5 0.7 -10.5 0.05 -10.2 -0.5 -10.15 -0.8 -9.95 -0.95 -9.95 -1.0 -9.9 -1.0 L-9.3 -1.5 Q-8.7 -1.6 -7.8 -2.0 -6.55 -2.55 -6.45 -2.6 L-7.75 -2.25 Q-9.05 -1.9 -9.55 -1.9 -10.05 -1.9 -10.35 -2.0 -10.5 -2.05 -10.6 -2.15 M-6.3 -1.15 Q-6.3 -1.3 -6.15 -1.65 -5.95 -2.05 -5.6 -2.4 -4.65 -3.45 -3.25 -3.6 L-2.4 -3.55 -1.5 -3.5 Q0.05 -3.7 1.1 -4.45 L1.15 -4.45 1.0 -4.15 Q0.35 -3.45 -0.7 -3.3 L-1.2 -3.25 -2.85 -3.25 -2.9 -3.2 Q-4.15 -3.05 -5.25 -2.0 -5.65 -1.6 -5.95 -1.2 -6.2 -0.85 -6.2 -0.7 -6.2 -0.6 -6.2 -0.45 L-6.25 -0.2 Q-6.15 0.2 -5.95 0.5 -5.55 1.2 -5.05 1.15 -4.5 1.1 -4.15 0.7 -3.85 0.4 -3.85 0.2 -3.9 -0.2 -3.9 -0.25 -4.05 -0.55 -4.5 -0.45 L-4.8 -0.4 Q-4.65 -0.75 -4.15 -0.8 -4.05 -0.85 -3.9 -0.6 -3.7 -0.35 -3.7 -0.3 -3.65 0.2 -3.85 0.6 -4.15 1.3 -5.05 1.4 -5.75 1.5 -6.15 0.55 -6.4 0.0 -6.45 -0.6 L-6.35 -0.8 Q-6.3 -1.1 -6.3 -1.15 M-8.65 -0.35 L-8.95 0.05 Q-9.2 0.35 -9.2 0.75 -9.2 1.2 -9.0 1.65 L-9.05 1.7 Q-9.3 1.4 -9.45 1.05 L-9.5 0.6 -9.55 0.85 -9.65 0.5 -9.65 0.4 -9.5 0.45 Q-9.5 0.05 -9.25 -0.3 -8.9 -0.7 -8.35 -0.8 L-8.45 -0.6 -7.2 -1.3 Q-6.85 -1.5 -6.55 -1.65 L-6.6 -1.55 -7.6 -1.0 Q-8.15 -0.7 -8.65 -0.35 M-7.25 -0.4 L-7.65 -0.1 Q-8.05 0.25 -8.05 0.4 L-8.0 0.5 -7.45 0.45 -7.15 0.4 -7.15 0.45 -7.45 0.85 Q-7.65 1.15 -7.65 1.2 L-7.6 1.75 Q-7.5 2.05 -7.3 2.15 -7.5 2.15 -7.65 2.0 -7.8 1.85 -7.85 1.7 -7.85 1.55 -7.7 1.2 L-7.55 0.8 Q-7.55 0.7 -7.6 0.7 L-7.7 0.65 -8.0 0.8 -8.35 0.9 Q-8.3 0.8 -8.2 0.5 -8.1 0.25 -8.15 0.15 L-8.15 0.1 Q-7.75 -0.1 -7.25 -0.4 M4.95 -4.5 Q5.25 -4.25 5.8 -4.1 L6.1 -4.0 5.65 -4.05 Q5.2 -4.1 4.95 -4.2 L4.95 -4.5 M3.35 -5.85 Q3.35 -5.8 3.55 -5.65 L3.65 -5.7 3.65 -5.8 3.7 -5.75 3.9 -5.65 4.0 -5.5 4.3 -4.9 4.45 -4.05 Q4.4 -3.5 4.25 -2.95 4.15 -2.65 4.05 -2.45 3.7 -1.9 3.1 -1.8 L2.9 -1.8 Q2.75 -1.9 2.6 -2.05 2.35 -2.35 2.35 -2.5 L2.45 -3.0 2.5 -3.05 2.6 -3.2 2.55 -3.15 2.55 -3.05 2.5 -2.8 2.55 -2.7 2.6 -2.5 Q2.65 -2.35 2.8 -2.3 L2.85 -2.25 3.25 -2.35 3.4 -2.35 Q3.55 -2.45 3.75 -2.95 L4.0 -3.3 Q4.2 -3.7 4.15 -4.2 4.1 -4.95 3.65 -5.45 3.35 -5.8 2.95 -6.05 L3.0 -6.15 3.35 -5.95 3.35 -5.85 M3.35 -9.8 L3.55 -9.45 4.2 -8.35 Q4.7 -7.5 4.7 -5.85 L4.6 -5.4 Q4.2 -5.85 3.9 -7.3 3.65 -8.25 3.35 -9.8 M0.25 -8.05 L0.05 -8.2 0.15 -8.2 -0.2 -8.5 0.9 -7.7 2.05 -6.75 2.2 -6.6 Q2.0 -6.55 1.95 -6.4 1.4 -7.25 0.25 -8.05 M1.15 -11.85 L0.9 -12.15 Q1.25 -11.8 1.5 -11.45 L1.15 -11.85 M-3.4 -2.5 L-3.15 -2.9 -2.8 -2.95 -2.0 -3.0 -2.45 -2.7 Q-3.25 -2.05 -3.2 -1.35 -3.15 -0.6 -2.7 -0.35 -3.1 -0.45 -3.35 -0.9 -3.55 -1.25 -3.6 -1.7 -3.6 -2.0 -3.4 -2.5 M-1.1 -5.95 Q-1.95 -6.4 -2.75 -6.7 L-1.25 -6.35 Q0.25 -5.95 1.5 -5.3 L1.45 -5.2 1.05 -4.8 0.75 -4.95 Q0.0 -5.5 -1.1 -5.95 M7.25 -3.5 Q7.55 -3.35 7.55 -3.0 7.6 -2.8 7.5 -2.65 7.3 -2.35 6.85 -2.3 6.65 -2.25 6.55 -2.45 7.0 -2.5 7.2 -2.75 7.35 -2.95 7.35 -3.2 L7.25 -3.5 M-14.0 3.15 Q-13.85 3.15 -13.75 3.3 -13.65 3.4 -13.65 3.45 -13.65 3.65 -13.8 3.65 L-14.0 3.55 Q-14.05 3.5 -14.1 3.5 -14.25 3.55 -14.2 3.6 -14.2 3.8 -14.05 3.9 -13.85 4.0 -13.6 3.95 -13.4 3.95 -13.3 3.7 -13.25 3.55 -13.25 3.4 L-13.25 3.25 -13.15 3.25 -13.2 3.2 -13.15 3.15 -13.15 3.35 Q-13.1 3.55 -13.35 3.9 -13.65 4.25 -13.95 4.3 -14.2 4.3 -14.35 4.05 -14.45 3.9 -14.5 3.7 -14.5 3.2 -14.0 3.15 M-10.85 4.85 Q-11.0 4.9 -11.1 4.75 -11.2 4.65 -11.2 4.5 -11.25 4.1 -10.85 4.15 -10.75 4.15 -10.65 4.2 -10.5 4.3 -10.5 4.5 -10.45 4.65 -10.5 4.55 L-10.55 4.6 -10.7 4.7 Q-10.8 4.85 -10.85 4.85 M-10.95 3.85 Q-11.25 3.9 -11.4 4.1 L-11.5 4.3 -11.5 4.5 -11.45 4.75 -11.3 4.95 Q-11.05 5.25 -10.65 5.1 L-10.7 5.2 -10.7 5.3 -11.0 5.35 -11.05 5.35 Q-11.35 5.2 -11.55 4.85 L-11.55 4.8 Q-11.7 4.5 -11.7 4.2 -11.7 4.05 -11.65 3.9 -11.5 3.8 -11.2 3.75 L-11.1 3.75 -10.95 3.85 M-9.9 4.05 L-10.0 4.15 Q-10.15 4.3 -10.2 4.65 -10.25 4.3 -10.25 4.25 -10.3 4.1 -10.4 4.0 L-9.9 4.05 M-9.25 4.1 L-9.15 4.25 Q-8.95 4.45 -8.8 4.55 L-8.8 4.65 Q-8.85 4.9 -9.0 4.9 -9.35 4.95 -9.6 4.65 L-9.75 4.4 -9.7 4.25 Q-9.55 4.05 -9.25 4.1 M-11.5 3.25 L-11.35 3.5 Q-11.5 3.55 -11.7 3.65 -12.0 3.95 -12.0 4.35 L-12.0 4.3 -12.05 3.85 Q-12.0 3.7 -12.0 3.55 -12.0 3.25 -12.1 2.95 L-12.15 2.7 Q-12.35 2.05 -13.0 1.45 L-13.15 1.2 -13.1 1.25 Q-12.85 1.6 -12.5 1.55 L-12.3 1.55 -11.9 1.8 -11.9 2.3 Q-11.85 2.65 -11.5 3.25 M-11.45 2.05 Q-11.05 2.25 -10.65 2.35 -10.35 2.4 -10.15 2.7 -9.95 2.95 -9.6 3.35 L-9.45 3.5 Q-9.45 3.6 -9.55 3.6 L-10.15 3.65 Q-11.0 3.65 -11.3 2.85 -11.45 2.45 -11.45 2.05 M-11.85 4.75 L-11.9 4.65 -11.9 4.6 -11.85 4.75" fill="#003366" fill-rule="evenodd" stroke="none"/>
    <path d="M-11.8 -11.4 Q-11.95 -11.15 -11.9 -10.75 -11.95 -10.6 -11.9 -10.45 -12.2 -10.25 -12.55 -9.85 -13.35 -9.05 -13.3 -8.5 L-13.3 -8.4 -13.35 -8.0 Q-13.35 -7.85 -13.3 -7.65 L-13.3 -7.15 Q-13.3 -6.95 -13.25 -6.9 L-13.2 -6.9 Q-13.45 -6.65 -13.55 -6.35 L-13.65 -5.75 -13.45 -5.75 -13.35 -5.35 -13.35 -5.25 -13.3 -4.6 -13.15 -4.05 -13.2 -3.75 Q-13.2 -3.25 -13.0 -2.9 -13.75 -3.4 -13.75 -3.9 L-14.1 -4.7 Q-14.4 -5.45 -14.45 -5.7 -14.6 -7.5 -13.8 -9.3 L-13.55 -9.85 Q-12.75 -10.9 -11.7 -11.6 L-11.8 -11.4" fill="#506060" fill-rule="evenodd" stroke="none"/>
  </g>
</svg>
