<?xml version="1.0" encoding="UTF-8" standalone="no"?>
<svg xmlns:ffdec="https://www.free-decompiler.com/flash" xmlns:xlink="http://www.w3.org/1999/xlink" ffdec:objectType="shape" height="22.45px" width="19.55px" xmlns="http://www.w3.org/2000/svg">
  <g transform="matrix(1.0, 0.0, 0.0, 1.0, 13.9, 13.15)">
    <path d="M0.5 -2.1 Q1.7 -3.7 2.2 -4.5 3.15 -6.15 3.15 -7.45 L2.95 -8.2 2.9 -8.15 Q2.8 -8.5 2.6 -9.3 L2.55 -9.4 Q2.25 -10.1 1.65 -10.45 2.45 -10.25 2.75 -9.65 L2.8 -9.55 Q3.05 -9.2 3.25 -8.7 3.6 -7.75 3.6 -7.0 3.65 -6.85 3.55 -6.55 3.55 -6.4 3.45 -5.95 L3.3 -5.5 Q3.3 -4.6 3.6 -3.55 3.75 -3.05 4.25 -1.7 4.85 0.05 5.05 1.55 4.95 -0.95 4.45 -3.65 L3.85 -6.75 3.85 -7.1 3.9 -7.45 3.95 -7.45 4.7 -3.9 Q5.05 -2.3 5.25 -1.25 L5.25 -2.25 5.15 -4.0 5.05 -5.2 4.9 -5.8 Q4.45 -7.9 4.15 -8.45 3.5 -9.6 2.0 -10.75 -0.6 -12.75 -4.0 -12.7 -7.95 -12.6 -10.95 -9.65 -12.4 -7.6 -12.8 -6.75 -13.45 -5.35 -13.4 -3.4 -13.4 -2.45 -13.05 -0.75 L-12.8 0.25 -12.75 0.5 Q-12.4 1.95 -12.25 3.0 -12.15 2.35 -12.15 2.1 L-12.2 0.15 -12.25 0.1 -12.45 -1.1 Q-12.75 -2.4 -12.75 -3.65 L-12.7 -4.05 -12.65 -4.05 -12.65 -3.95 -11.9 -0.85 Q-11.4 1.1 -11.35 2.4 -11.35 3.55 -11.1 4.65 L-11.05 4.9 -10.8 5.65 -10.35 6.75 -10.2 7.15 -10.2 7.05 Q-10.45 6.0 -10.45 4.6 -10.5 3.65 -10.45 3.0 -10.4 2.3 -10.4 1.35 L-10.4 0.35 -10.35 0.35 Q-10.3 0.95 -10.3 1.8 L-10.3 2.55 Q-10.25 4.1 -10.2 4.75 -10.15 5.7 -9.9 6.55 L-9.95 5.9 Q-9.95 5.45 -9.85 4.4 L-9.8 3.95 -10.1 2.95 -10.05 2.55 -10.05 1.95 -10.0 1.9 Q-9.5 4.05 -9.05 5.35 -8.4 7.05 -7.45 8.35 L-7.4 8.4 -7.2 8.7 -7.15 8.65 Q-7.15 7.25 -7.65 5.5 L-8.55 2.85 -8.6 2.65 -8.65 2.5 -8.7 2.5 -8.95 2.1 -9.0 2.05 -9.7 0.85 Q-10.2 -0.05 -10.55 -1.45 L-10.55 -1.55 -10.65 -1.85 -10.8 -2.7 -10.8 -2.75 -10.85 -2.85 -10.85 -2.95 Q-10.95 -3.5 -10.95 -3.95 -10.95 -4.4 -10.85 -5.35 -10.75 -6.25 -10.75 -6.75 L-10.7 -6.75 Q-10.6 -6.05 -10.65 -5.8 -10.7 -5.35 -10.7 -5.05 -10.7 -3.35 -10.25 -1.8 L-10.2 -1.7 -10.0 -1.25 -8.8 1.45 -8.6 1.75 -7.35 3.5 -7.25 3.65 -7.45 2.75 -7.5 2.45 -7.65 1.25 -8.15 -0.15 -8.25 -0.35 Q-8.8 -1.9 -8.8 -2.3 L-8.8 -3.6 -8.75 -5.1 -8.65 -5.8 -8.65 -5.95 -8.6 -6.1 -8.6 -6.3 -8.15 -7.8 Q-7.75 -8.9 -7.05 -9.85 -8.55 -5.75 -8.5 -4.85 -8.5 -3.4 -8.25 -2.0 -8.15 -1.35 -7.95 -0.75 L-7.9 -0.5 -7.7 0.1 -7.75 -0.35 -7.75 -1.05 Q-7.75 -2.6 -7.6 -3.6 -7.45 -4.45 -7.25 -5.15 L-6.95 -5.9 -6.55 -6.55 -6.45 -6.75 Q-6.55 -6.3 -6.55 -6.15 L-7.0 -4.15 Q-7.4 -2.1 -7.35 -0.35 L-7.35 0.2 Q-7.3 1.85 -7.0 3.0 L-6.9 3.3 -6.9 3.35 -6.85 3.45 -6.85 3.15 -6.8 2.95 -6.8 2.8 Q-6.85 1.7 -6.55 0.3 -6.35 -0.7 -6.0 -1.85 L-5.95 -1.9 -5.95 -2.0 -5.9 -2.05 -5.85 -2.2 -5.8 -2.4 -5.75 -2.55 -5.65 -2.75 -5.65 -2.85 -5.6 -2.9 -5.55 -3.0 -5.55 -3.1 -5.5 -3.15 -5.45 -3.25 -5.45 -3.35 -5.4 -3.4 Q-4.85 -4.9 -4.15 -6.0 L-4.0 -6.2 Q-5.6 -2.35 -6.1 0.4 L-6.1 0.5 -6.15 0.7 -6.45 4.35 -6.0 2.7 Q-5.4 0.55 -5.05 -0.1 L-4.95 -0.3 -3.7 -2.5 -3.35 -3.1 -2.55 -4.85 Q-2.05 -5.9 -1.85 -6.0 -2.2 -4.9 -2.85 -3.4 L-3.9 -0.75 -4.25 0.25 -4.8 1.75 -4.9 2.05 Q-5.2 2.95 -5.3 3.9 -5.3 4.4 -5.3 4.85 L-5.25 5.4 Q-4.95 4.25 -4.0 2.8 L-3.7 2.4 Q-2.3 0.45 -1.6 -0.7 -1.3 -1.3 -1.1 -1.9 L-1.1 -1.95 -1.05 -1.95 Q-1.0 -1.85 -1.1 -1.5 -0.15 -3.2 0.5 -4.7 L0.65 -5.2 0.7 -5.3 Q1.3 -6.85 1.45 -8.15 L1.5 -8.55 1.5 -8.65 1.55 -8.65 1.65 -7.65 Q1.7 -7.0 0.25 -3.75 L0.2 -3.65 -0.65 -1.7 -1.05 -0.95 Q-1.3 -0.45 -1.4 -0.3 L-1.4 -0.25 -1.8 0.9 -1.9 1.05 -1.95 1.3 Q-1.4 0.3 0.1 -1.6 L0.2 -1.75 0.5 -2.1 M2.95 -5.15 L2.75 -4.8 Q2.15 -3.75 0.7 -1.65 -0.95 0.75 -1.5 1.6 -2.6 3.35 -2.85 4.35 L-2.95 4.35 -2.9 3.7 -2.95 3.4 Q-2.95 2.2 -2.5 1.15 -4.7 4.25 -5.2 6.6 L-5.1 7.55 Q-5.1 7.7 -5.1 7.65 L-5.15 7.7 Q-5.15 7.75 -5.25 7.75 -5.55 7.75 -5.6 6.6 L-5.65 5.4 Q-5.65 3.3 -5.2 1.55 -6.2 3.95 -6.45 5.7 L-6.45 6.85 -6.5 7.3 -6.55 7.3 Q-6.65 7.1 -6.75 5.95 L-6.8 5.75 Q-7.0 5.2 -7.4 4.45 -7.3 4.8 -7.2 5.25 -6.75 7.25 -6.75 9.0 -6.75 9.15 -6.85 9.3 L-6.95 9.3 Q-7.9 9.35 -9.1 6.15 L-9.55 4.8 -9.55 5.75 Q-9.55 7.35 -9.35 8.25 -9.15 8.65 -8.9 9.05 L-8.95 9.1 Q-9.5 8.95 -9.85 8.2 -10.85 7.2 -11.3 5.85 -11.5 5.15 -11.75 3.05 L-11.9 4.15 Q-12.05 5.55 -12.45 6.45 -12.5 6.45 -12.55 6.5 L-12.6 6.7 -12.7 6.7 -12.65 6.45 Q-12.75 6.3 -12.75 6.15 -12.75 5.95 -12.55 4.8 -12.55 3.3 -13.2 0.8 -13.85 -1.65 -13.9 -3.4 -13.9 -4.4 -13.8 -5.2 L-13.8 -5.6 Q-13.85 -6.45 -13.15 -7.6 -12.4 -8.9 -11.15 -10.05 -7.9 -12.95 -3.3 -13.15 1.7 -12.8 4.0 -9.45 5.5 -7.3 5.55 -4.55 L5.5 -4.3 Q5.65 -3.15 5.65 -2.2 5.65 -1.65 5.5 -0.35 L5.45 0.15 5.45 0.35 Q5.45 1.25 5.3 2.55 L5.15 3.55 5.1 4.0 Q5.05 4.45 4.75 5.2 L4.7 5.25 4.8 4.85 4.9 4.5 Q4.85 1.15 3.9 -1.5 L3.25 -3.25 Q2.95 -4.15 2.95 -4.9 L2.95 -5.15" fill="#111111" fill-rule="evenodd" stroke="none"/>
    <path d="M-12.8 0.25 L-13.05 -0.75 Q-13.4 -2.45 -13.4 -3.4 -13.45 -5.35 -12.8 -6.75 -12.4 -7.6 -10.95 -9.65 -7.95 -12.6 -4.0 -12.7 -0.6 -12.75 2.0 -10.75 3.5 -9.6 4.15 -8.45 4.45 -7.9 4.9 -5.8 L5.05 -5.2 5.15 -4.0 5.25 -2.25 5.25 -1.25 Q5.05 -2.3 4.7 -3.9 L3.95 -7.45 3.9 -7.45 3.85 -7.1 3.85 -6.75 4.45 -3.65 Q4.95 -0.95 5.05 1.55 4.85 0.05 4.25 -1.7 3.75 -3.05 3.6 -3.55 3.3 -4.6 3.3 -5.5 L3.45 -5.95 Q3.55 -6.4 3.55 -6.55 3.65 -6.85 3.6 -7.0 3.6 -7.75 3.25 -8.7 3.05 -9.2 2.8 -9.55 L2.75 -9.65 Q2.45 -10.25 1.65 -10.45 2.25 -10.1 2.55 -9.4 L2.6 -9.3 Q2.8 -8.5 2.9 -8.15 L2.95 -8.2 3.15 -7.45 Q3.15 -6.15 2.2 -4.5 1.7 -3.7 0.5 -2.1 L0.55 -2.2 0.7 -2.45 Q1.2 -3.55 1.55 -4.75 1.85 -5.85 1.85 -6.5 L1.8 -7.15 1.8 -7.4 Q1.8 -7.95 1.7 -8.3 L1.4 -9.45 1.2 -10.35 1.15 -10.35 Q1.5 -8.8 0.7 -6.85 L0.75 -7.0 Q0.1 -5.95 -0.8 -4.7 L-3.1 -1.6 Q-3.75 -0.65 -4.25 0.15 L-4.25 0.25 -3.9 -0.75 -2.85 -3.4 Q-2.2 -4.9 -1.85 -6.0 -2.05 -5.9 -2.55 -4.85 L-3.35 -3.1 -3.7 -2.5 -3.0 -3.9 Q-2.0 -6.05 -1.4 -7.95 -4.4 -3.4 -5.55 -0.8 L-5.55 -0.85 -5.45 -1.5 Q-5.25 -2.45 -4.2 -5.3 -3.2 -8.0 -3.2 -8.05 -3.2 -8.35 -3.05 -8.75 L-3.7 -7.6 Q-5.85 -4.45 -6.5 -2.9 -7.15 -1.45 -7.35 0.2 L-7.35 -0.35 Q-7.4 -2.1 -7.0 -4.15 L-6.55 -6.15 Q-6.55 -6.3 -6.45 -6.75 L-6.55 -6.55 -5.95 -7.85 -6.0 -7.95 Q-7.7 -5.6 -8.1 -4.05 -8.25 -3.4 -8.25 -2.45 L-8.25 -2.0 Q-8.5 -3.4 -8.5 -4.85 -8.55 -5.75 -7.05 -9.85 -7.75 -8.9 -8.15 -7.8 -9.25 -6.3 -9.7 -4.9 -9.95 -4.15 -10.1 -3.4 L-10.1 -2.55 Q-10.1 -1.85 -10.0 -1.25 L-10.2 -1.7 -10.25 -1.8 Q-10.7 -3.35 -10.7 -5.05 -10.7 -5.35 -10.65 -5.8 -10.6 -6.05 -10.7 -6.75 L-10.75 -6.75 Q-10.75 -6.25 -10.85 -5.35 -10.95 -4.4 -10.95 -3.95 -10.95 -3.5 -10.85 -2.95 -11.35 -0.45 -11.35 1.4 -11.3 3.0 -11.1 4.65 -11.35 3.55 -11.35 2.4 -11.4 1.1 -11.9 -0.85 L-12.65 -3.95 -12.65 -4.25 -12.8 -3.65 -12.85 -3.25 -13.0 -2.25 -12.95 -2.4 Q-12.95 -1.65 -12.9 -0.55 L-12.8 0.25 M-1.8 0.9 L-1.4 -0.25 -1.4 -0.3 Q-1.3 -0.45 -1.05 -0.95 L-1.45 -0.05 -1.8 0.9 M-0.65 -1.7 L0.2 -3.65 Q-0.1 -2.7 -0.55 -1.95 L-0.65 -1.7 M0.5 -4.7 Q-0.15 -3.2 -1.1 -1.5 -1.0 -1.85 -1.05 -1.95 L-1.1 -1.95 -0.5 -2.9 Q0.0 -3.8 0.4 -4.55 L0.5 -4.7 M-1.1 -1.9 Q-1.3 -1.3 -1.6 -0.7 -2.3 0.45 -3.7 2.4 -3.45 1.8 -3.1 1.3 -2.0 -0.45 -1.1 -1.9 M-7.75 -1.05 L-7.75 -1.8 Q-7.75 -3.55 -7.4 -4.65 L-7.25 -5.0 -7.25 -5.15 Q-7.45 -4.45 -7.6 -3.6 -7.75 -2.6 -7.75 -1.05 M-8.75 -5.1 L-8.8 -3.6 -8.8 -4.5 -8.75 -4.95 -8.75 -5.1 M-5.95 -1.9 L-6.0 -1.85 Q-6.35 -0.7 -6.55 0.3 -6.4 -0.8 -5.95 -1.9" fill="#003366" fill-rule="evenodd" stroke="none"/>
    <path d="M-12.8 0.25 L-12.9 -0.55 Q-12.95 -1.65 -12.95 -2.4 L-13.0 -2.25 -12.85 -3.25 -12.8 -3.65 -12.65 -4.25 -12.65 -3.95 -12.65 -4.05 -12.7 -4.05 -12.75 -3.65 Q-12.75 -2.4 -12.45 -1.1 L-12.25 0.1 -12.2 0.15 -12.15 2.1 Q-12.15 2.35 -12.25 3.0 -12.4 1.95 -12.75 0.5 L-12.8 0.25 M-11.1 4.65 Q-11.3 3.0 -11.35 1.4 -11.35 -0.45 -10.85 -2.95 L-10.85 -2.85 -10.8 -2.75 -10.8 -2.7 -10.65 -1.85 -10.55 -1.55 -10.55 -1.45 Q-10.2 -0.05 -9.7 0.85 L-9.0 2.05 -8.95 2.1 -8.7 2.5 -8.65 2.5 -8.6 2.65 -8.55 2.85 -7.65 5.5 Q-7.15 7.25 -7.15 8.65 L-7.2 8.7 -7.4 8.4 -7.45 8.35 Q-8.4 7.05 -9.05 5.35 -9.5 4.05 -10.0 1.9 L-10.05 1.95 -10.05 2.55 -10.1 2.95 -9.8 3.95 -9.85 4.4 Q-9.95 5.45 -9.95 5.9 L-9.9 6.55 Q-10.15 5.7 -10.2 4.75 -10.25 4.1 -10.3 2.55 L-10.3 1.8 Q-10.3 0.95 -10.35 0.35 L-10.4 0.35 -10.4 1.35 Q-10.4 2.3 -10.45 3.0 -10.5 3.65 -10.45 4.6 -10.45 6.0 -10.2 7.05 L-10.2 7.15 -10.35 6.75 -10.8 5.65 -11.05 4.9 -11.1 4.65 M-10.0 -1.25 Q-10.1 -1.85 -10.1 -2.55 L-10.1 -3.4 Q-9.95 -4.15 -9.7 -4.9 -9.25 -6.3 -8.15 -7.8 L-8.6 -6.3 -8.6 -6.1 -8.65 -5.95 -8.65 -5.8 -8.75 -5.1 -8.75 -4.95 -8.8 -4.5 -8.8 -3.6 -8.8 -2.3 Q-8.8 -1.9 -8.25 -0.35 L-8.15 -0.15 -7.65 1.25 -7.5 2.45 -7.45 2.75 -7.25 3.65 -7.35 3.5 -8.6 1.75 -8.8 1.45 -10.0 -1.25 M-8.25 -2.0 L-8.25 -2.45 Q-8.25 -3.4 -8.1 -4.05 -7.7 -5.6 -6.0 -7.95 L-5.95 -7.85 -6.55 -6.55 -6.95 -5.9 -7.25 -5.15 -7.25 -5.0 -7.4 -4.65 Q-7.75 -3.55 -7.75 -1.8 L-7.75 -1.05 -7.75 -0.35 -7.7 0.1 -7.9 -0.5 -7.95 -0.75 Q-8.15 -1.35 -8.25 -2.0 M-7.35 0.2 Q-7.15 -1.45 -6.5 -2.9 -5.85 -4.45 -3.7 -7.6 L-3.05 -8.75 Q-3.2 -8.35 -3.2 -8.05 -3.2 -8.0 -4.2 -5.3 -5.25 -2.45 -5.45 -1.5 L-5.55 -0.85 -5.55 -0.8 Q-4.4 -3.4 -1.4 -7.95 -2.0 -6.05 -3.0 -3.9 L-3.7 -2.5 -4.95 -0.3 -5.05 -0.1 Q-5.4 0.55 -6.0 2.7 L-6.45 4.35 -6.15 0.7 -6.1 0.5 -6.1 0.4 Q-5.6 -2.35 -4.0 -6.2 L-4.15 -6.0 Q-4.85 -4.9 -5.4 -3.4 L-5.45 -3.35 -5.45 -3.25 -5.5 -3.15 -5.55 -3.1 -5.55 -3.0 -5.6 -2.9 -5.65 -2.85 -5.65 -2.75 -5.75 -2.55 -5.8 -2.4 -5.85 -2.2 -5.9 -2.05 -5.95 -2.0 -5.95 -1.9 Q-6.4 -0.8 -6.55 0.3 -6.85 1.7 -6.8 2.8 L-6.8 2.95 -6.85 3.15 -6.85 3.45 -6.9 3.35 -6.9 3.3 -7.0 3.0 Q-7.3 1.85 -7.35 0.2 M-4.25 0.25 L-4.25 0.15 Q-3.75 -0.65 -3.1 -1.6 L-0.8 -4.7 Q0.1 -5.95 0.75 -7.0 L0.7 -6.85 Q1.5 -8.8 1.15 -10.35 L1.2 -10.35 1.4 -9.45 1.7 -8.3 Q1.8 -7.95 1.8 -7.4 L1.8 -7.15 1.85 -6.5 Q1.85 -5.85 1.55 -4.75 1.2 -3.55 0.7 -2.45 L0.55 -2.2 0.5 -2.1 0.2 -1.75 0.1 -1.6 Q-1.4 0.3 -1.95 1.3 L-1.9 1.05 -1.8 0.9 -1.45 -0.05 -1.05 -0.95 -0.65 -1.7 -0.55 -1.95 Q-0.1 -2.7 0.2 -3.65 L0.25 -3.75 Q1.7 -7.0 1.65 -7.65 L1.55 -8.65 1.5 -8.65 1.5 -8.55 1.45 -8.15 Q1.3 -6.85 0.7 -5.3 L0.65 -5.2 0.5 -4.7 0.4 -4.55 Q0.0 -3.8 -0.5 -2.9 L-1.1 -1.95 -1.1 -1.9 Q-2.0 -0.45 -3.1 1.3 -3.45 1.8 -3.7 2.4 L-4.0 2.8 Q-4.95 4.25 -5.25 5.4 L-5.3 4.85 Q-5.3 4.4 -5.3 3.9 -5.2 2.95 -4.9 2.05 L-4.8 1.75 -4.25 0.25" fill="#fcfcfc" fill-rule="evenodd" stroke="none"/>
  </g>
</svg>
