<?xml version="1.0" encoding="UTF-8" standalone="no"?>
<svg xmlns:ffdec="https://www.free-decompiler.com/flash" xmlns:xlink="http://www.w3.org/1999/xlink" ffdec:objectType="shape" height="22.0px" width="25.1px" xmlns="http://www.w3.org/2000/svg">
  <g transform="matrix(1.0, 0.0, 0.0, 1.0, 14.45, 15.35)">
    <path d="M6.9 -8.9 Q7.2 -8.65 7.55 -8.4 7.9 -8.15 8.05 -8.05 L7.7 -8.1 7.45 -8.2 Q6.25 -8.55 4.15 -8.8 L1.3 -8.8 1.3 -8.75 Q-0.8 -8.6 -3.05 -7.35 L-4.8 -6.3 Q-5.85 -5.65 -6.4 -5.35 L-6.35 -5.35 Q-2.0 -8.0 1.2 -8.35 L2.0 -8.35 Q3.45 -8.15 5.0 -7.6 5.6 -7.35 6.15 -7.1 7.0 -6.55 7.65 -5.75 8.85 -4.4 9.1 -2.8 L9.1 -2.1 9.05 -2.1 Q8.55 -3.35 7.0 -4.65 6.7 -4.9 5.85 -5.15 L5.7 -5.25 Q4.8 -5.5 3.4 -5.8 L0.3 -6.45 Q-0.8 -7.2 -2.45 -6.5 -0.35 -6.9 0.85 -5.35 1.9 -4.0 1.9 -1.75 0.9 0.15 0.35 0.75 L0.35 0.7 Q0.45 -0.05 0.6 -0.7 0.7 -1.15 0.7 -1.8 0.7 -2.5 -0.15 -3.7 -0.9 -4.8 -1.65 -5.1 L-1.75 -5.4 Q-2.15 -6.1 -2.85 -5.95 L-2.9 -5.9 Q-2.5 -5.75 -2.2 -5.2 -1.95 -4.7 -1.95 -4.4 -1.95 -3.2 -3.15 -1.7 L-4.35 -0.35 Q-5.15 0.5 -5.6 1.15 L-5.65 1.1 -5.25 -0.45 Q-4.95 -1.7 -4.95 -1.9 -4.95 -2.5 -5.05 -3.2 -5.15 -4.0 -5.3 -4.4 L-5.3 -4.35 Q-5.25 -3.9 -5.25 -3.45 L-5.25 -3.5 -5.3 -3.5 Q-5.25 -2.9 -5.65 -2.05 -5.95 -1.3 -6.5 -0.55 L-7.05 0.15 Q-6.8 -0.7 -6.8 -1.15 -6.8 -1.45 -7.0 -2.9 -7.2 -4.6 -7.4 -5.15 L-7.45 -5.15 -7.4 -4.3 -7.3 -3.7 -7.25 -2.3 -7.2 -1.1 Q-7.2 -0.6 -7.7 1.1 L-7.7 0.55 Q-7.7 -0.65 -7.8 -1.2 -7.95 -1.75 -7.95 -2.5 L-7.85 -3.2 Q-7.8 -3.6 -7.9 -4.1 L-7.95 -4.1 Q-8.0 -3.75 -8.15 -2.7 -8.25 -2.2 -8.25 -1.5 -8.25 -0.75 -8.3 1.8 L-8.3 2.0 -8.35 1.9 -8.7 0.0 Q-9.2 -2.3 -10.25 -3.8 L-10.3 -3.8 Q-10.05 -3.2 -9.75 -1.95 L-10.0 -2.3 Q-10.6 -3.05 -11.4 -3.15 -12.2 -3.3 -12.7 -2.85 -12.95 -2.65 -13.1 -2.4 -13.2 -2.9 -13.5 -3.65 -14.0 -5.0 -14.0 -6.35 L-13.95 -7.3 Q-13.95 -7.85 -13.8 -8.2 L-13.8 -8.15 Q-13.8 -7.05 -13.7 -6.55 -13.6 -5.7 -13.2 -5.55 -13.15 -5.1 -13.0 -4.85 L-13.0 -5.7 Q-13.0 -7.2 -12.75 -8.1 -12.5 -9.15 -11.75 -10.1 -11.3 -10.95 -10.85 -11.3 -11.65 -10.15 -11.95 -8.55 -11.6 -9.1 -11.15 -9.55 -10.6 -10.15 -8.4 -11.75 -6.2 -13.4 -5.6 -14.0 L-5.6 -13.95 Q-5.65 -13.45 -6.25 -12.55 L-6.55 -12.15 -8.05 -11.0 -7.7 -10.95 -7.0 -11.45 -7.1 -11.25 -7.05 -11.3 Q-6.7 -11.6 -6.4 -11.9 -5.7 -12.4 -4.9 -12.9 -1.9 -14.8 -0.05 -14.8 0.9 -14.8 1.85 -14.3 L2.95 -13.6 Q0.55 -13.6 -2.0 -12.7 -4.4 -11.85 -5.4 -10.8 L-5.35 -10.75 Q-4.9 -11.2 -3.9 -11.7 L-3.85 -11.7 -3.55 -11.85 -3.7 -11.75 -3.1 -12.05 -3.15 -12.0 -2.35 -12.3 Q-1.6 -12.5 -0.45 -12.5 L0.9 -12.45 Q2.85 -12.15 3.95 -11.35 4.65 -10.75 5.0 -10.5 L5.35 -10.25 Q4.25 -10.6 2.7 -10.85 L-0.35 -10.7 -2.5 -10.55 Q1.35 -10.6 3.85 -10.1 5.7 -9.8 6.4 -9.3 L6.85 -8.95 6.9 -8.9 M5.25 -5.15 L5.0 -5.05 Q5.75 -4.5 6.0 -3.85 6.15 -3.4 6.15 -2.6 6.15 -1.95 6.1 -1.7 L6.05 -1.7 Q5.7 -2.45 4.95 -3.95 4.6 -4.95 4.2 -5.35 4.8 -5.3 5.25 -5.15 M-11.2 2.45 L-11.2 2.55 Q-11.05 3.5 -10.35 4.8 -10.35 5.5 -10.4 6.0 -11.5 5.15 -11.7 4.7 -11.85 4.4 -11.85 3.5 L-11.8 2.85 Q-11.8 2.2 -11.95 2.2 -12.15 2.2 -12.45 2.5 L-12.8 2.95 -12.8 2.9 -12.4 2.2 Q-12.35 2.1 -12.35 1.65 L-12.35 1.4 Q-12.1 1.55 -11.75 1.7 -11.1 1.95 -10.75 2.1 -10.2 2.9 -9.6 4.2 L-8.95 5.7 Q-9.7 5.1 -10.25 4.1 -11.05 2.65 -11.2 2.45" fill="#003366" fill-rule="evenodd" stroke="none"/>
    <path d="M2.1 -14.65 Q2.1 -14.6 2.95 -14.15 3.85 -13.65 4.0 -13.2 L4.0 -13.05 3.95 -13.0 3.75 -12.95 Q3.65 -12.95 3.4 -13.2 3.2 -13.4 2.95 -13.4 L2.15 -13.35 1.8 -13.3 Q0.75 -13.2 -0.55 -12.85 0.2 -12.9 1.2 -12.9 L1.6 -12.8 Q1.65 -12.75 1.75 -12.8 3.05 -12.5 5.2 -11.4 L5.95 -10.55 6.65 -9.75 7.25 -9.4 8.5 -8.45 Q9.35 -7.85 10.3 -7.35 L10.15 -7.35 10.05 -7.3 Q10.55 -7.0 10.65 -6.75 L10.65 -6.7 Q10.45 -6.85 8.9 -7.35 L7.15 -7.7 4.55 -8.25 Q5.15 -8.05 5.8 -7.7 7.25 -6.95 8.1 -5.95 8.45 -5.55 8.65 -5.2 L8.8 -4.95 Q9.3 -4.1 9.45 -2.95 9.5 -2.3 9.5 -0.95 L9.5 -0.75 9.35 -0.75 Q9.3 -0.75 8.5 -2.1 7.65 -3.55 7.35 -3.9 6.8 -4.45 6.15 -4.75 6.3 -4.45 6.4 -3.9 6.5 -3.25 6.5 -2.6 6.5 -1.8 6.5 -1.6 6.4 -1.05 6.15 -0.75 5.85 -1.2 5.55 -1.9 L5.0 -3.15 Q4.4 -4.5 3.5 -5.45 L3.4 -5.45 1.5 -5.65 Q1.2 -5.75 0.95 -5.85 1.2 -5.5 1.4 -5.05 1.85 -4.15 2.1 -2.95 2.25 -2.15 2.25 -1.6 2.25 -1.35 1.15 0.25 L-0.3 2.2 -0.4 2.2 -0.45 2.0 Q0.3 -0.65 0.3 -1.0 0.3 -2.25 -0.1 -3.15 -0.55 -4.15 -1.55 -4.9 -1.5 -4.6 -1.5 -4.35 -1.5 -3.6 -2.2 -2.3 -2.9 -0.95 -3.6 -0.5 -4.4 0.1 -5.2 1.4 -6.05 2.7 -6.7 3.2 L-6.8 3.15 Q-6.85 3.15 -6.85 3.0 -6.85 2.85 -6.55 2.1 -6.1 1.1 -5.9 0.45 -5.5 -0.85 -5.35 -2.0 -5.45 -1.7 -5.45 -1.55 -5.45 -1.4 -6.55 0.3 L-7.8 2.25 Q-7.85 3.15 -7.95 3.6 L-7.9 3.8 -7.95 3.65 -8.05 3.95 Q-8.25 3.65 -8.3 3.0 -8.85 1.8 -9.25 0.05 L-9.35 -0.55 -10.1 -1.55 Q-11.1 -2.75 -11.7 -2.75 -12.55 -2.75 -12.85 -2.0 L-13.0 -1.6 -13.05 -1.25 -13.1 -1.15 -13.1 -1.05 Q-13.2 -0.85 -13.3 -0.8 -13.5 -1.3 -13.65 -2.15 L-13.95 -3.55 Q-14.15 -4.5 -14.35 -5.2 -14.45 -5.55 -14.45 -6.35 L-14.45 -7.5 Q-14.35 -8.05 -13.95 -8.8 -13.35 -10.05 -13.3 -9.35 L-13.35 -8.05 Q-13.35 -7.55 -13.25 -7.1 -13.25 -8.75 -12.45 -9.9 -11.0 -11.55 -9.85 -13.15 L-9.9 -12.95 Q-9.95 -12.85 -9.95 -12.75 -9.95 -12.65 -10.0 -12.6 L-10.0 -12.5 -10.1 -12.3 Q-10.25 -11.4 -10.8 -10.65 L-10.85 -10.55 -10.5 -10.8 Q-9.8 -11.2 -8.9 -11.85 L-7.35 -13.0 Q-7.15 -13.15 -6.1 -14.35 -5.1 -15.35 -5.1 -14.65 -5.1 -13.85 -5.65 -12.9 L-5.7 -12.8 Q-5.05 -13.3 -4.4 -13.7 L-3.25 -14.45 Q-2.55 -14.9 -1.8 -15.05 0.25 -15.5 1.3 -15.25 2.1 -15.1 2.1 -14.65 M6.9 -8.9 L6.85 -8.95 6.4 -9.3 Q5.7 -9.8 3.85 -10.1 1.35 -10.6 -2.5 -10.55 L-0.35 -10.7 2.7 -10.85 Q4.25 -10.6 5.35 -10.25 L5.0 -10.5 Q4.65 -10.75 3.95 -11.35 2.85 -12.15 0.9 -12.45 L-0.45 -12.5 Q-1.6 -12.5 -2.35 -12.3 L-3.15 -12.0 -3.1 -12.05 -3.7 -11.75 -3.55 -11.85 -3.85 -11.7 -3.9 -11.7 Q-4.9 -11.2 -5.35 -10.75 L-5.4 -10.8 Q-4.4 -11.85 -2.0 -12.7 0.55 -13.6 2.95 -13.6 L1.85 -14.3 Q0.9 -14.8 -0.05 -14.8 -1.9 -14.8 -4.9 -12.9 -5.7 -12.4 -6.4 -11.9 -6.7 -11.6 -7.05 -11.3 L-7.1 -11.25 -7.0 -11.45 -7.7 -10.95 -8.05 -11.0 -6.55 -12.15 -6.25 -12.55 Q-5.65 -13.45 -5.6 -13.95 L-5.6 -14.0 Q-6.2 -13.4 -8.4 -11.75 -10.6 -10.15 -11.15 -9.55 -11.6 -9.1 -11.95 -8.55 -11.65 -10.15 -10.85 -11.3 -11.3 -10.95 -11.75 -10.1 -12.5 -9.15 -12.75 -8.1 -13.0 -7.2 -13.0 -5.7 L-13.0 -4.85 Q-13.15 -5.1 -13.2 -5.55 -13.6 -5.7 -13.7 -6.55 -13.8 -7.05 -13.8 -8.15 L-13.8 -8.2 Q-13.95 -7.85 -13.95 -7.3 L-14.0 -6.35 Q-14.0 -5.0 -13.5 -3.65 -13.2 -2.9 -13.1 -2.4 -12.95 -2.65 -12.7 -2.85 -12.2 -3.3 -11.4 -3.15 -10.6 -3.05 -10.0 -2.3 L-9.75 -1.95 Q-10.05 -3.2 -10.3 -3.8 L-10.25 -3.8 Q-9.2 -2.3 -8.7 0.0 L-8.35 1.9 -8.3 2.0 -8.3 1.8 Q-8.25 -0.75 -8.25 -1.5 -8.25 -2.2 -8.15 -2.7 -8.0 -3.75 -7.95 -4.1 L-7.9 -4.1 Q-7.8 -3.6 -7.85 -3.2 L-7.95 -2.5 Q-7.95 -1.75 -7.8 -1.2 -7.7 -0.65 -7.7 0.55 L-7.7 1.1 Q-7.2 -0.6 -7.2 -1.1 L-7.25 -2.3 -7.3 -3.7 -7.4 -4.3 -7.45 -5.15 -7.4 -5.15 Q-7.2 -4.6 -7.0 -2.9 -6.8 -1.45 -6.8 -1.15 -6.8 -0.7 -7.05 0.15 L-6.5 -0.55 Q-5.95 -1.3 -5.65 -2.05 -5.25 -2.9 -5.3 -3.5 L-5.25 -3.5 -5.25 -3.45 Q-5.25 -3.9 -5.3 -4.35 L-5.3 -4.4 Q-5.15 -4.0 -5.05 -3.2 -4.95 -2.5 -4.95 -1.9 -4.95 -1.7 -5.25 -0.45 L-5.65 1.1 -5.6 1.15 Q-5.15 0.5 -4.35 -0.35 L-3.15 -1.7 Q-1.95 -3.2 -1.95 -4.4 -1.95 -4.7 -2.2 -5.2 -2.5 -5.75 -2.9 -5.9 L-2.85 -5.95 Q-2.15 -6.1 -1.75 -5.4 L-1.65 -5.1 Q-0.9 -4.8 -0.15 -3.7 0.7 -2.5 0.7 -1.8 0.7 -1.15 0.6 -0.7 0.45 -0.05 0.35 0.7 L0.35 0.75 Q0.9 0.15 1.9 -1.75 1.9 -4.0 0.85 -5.35 -0.35 -6.9 -2.45 -6.5 -0.8 -7.2 0.3 -6.45 L3.4 -5.8 Q4.8 -5.5 5.7 -5.25 L5.85 -5.15 Q6.7 -4.9 7.0 -4.65 8.55 -3.35 9.05 -2.1 L9.1 -2.1 9.1 -2.8 Q8.85 -4.4 7.65 -5.75 7.0 -6.55 6.15 -7.1 5.6 -7.35 5.0 -7.6 3.45 -8.15 2.0 -8.35 L1.2 -8.35 Q-2.0 -8.0 -6.35 -5.35 L-6.4 -5.35 Q-5.85 -5.65 -4.8 -6.3 L-3.05 -7.35 Q-0.8 -8.6 1.3 -8.75 L1.3 -8.8 4.15 -8.8 Q6.25 -8.55 7.45 -8.2 L7.7 -8.1 8.05 -8.05 Q7.9 -8.15 7.55 -8.4 7.2 -8.65 6.9 -8.9 M4.0 -11.9 L3.65 -12.1 3.6 -12.1 4.0 -11.9 M5.25 -5.15 Q4.8 -5.3 4.2 -5.35 4.6 -4.95 4.95 -3.95 5.7 -2.45 6.05 -1.7 L6.1 -1.7 Q6.15 -1.95 6.15 -2.6 6.15 -3.4 6.0 -3.85 5.75 -4.5 5.0 -5.05 L5.25 -5.15 M-13.05 -0.55 Q-12.75 -0.4 -12.5 0.45 L-12.45 0.7 -12.35 0.85 Q-12.0 1.35 -11.15 1.55 -10.35 1.7 -9.85 2.25 L-9.7 2.45 -8.95 4.4 -8.9 4.5 -8.45 6.2 -8.3 6.65 -8.4 6.65 Q-9.2 6.65 -10.1 5.15 L-10.1 5.4 -9.95 6.4 Q-9.95 6.65 -10.2 6.65 -10.5 6.65 -11.3 5.85 -12.0 5.15 -12.1 4.9 -12.3 4.55 -12.3 3.95 L-12.25 3.05 -12.3 3.05 -12.8 3.4 Q-13.15 3.7 -13.35 3.7 L-13.6 3.65 -13.6 3.45 -13.2 2.7 Q-12.8 2.0 -12.8 1.6 -12.8 1.15 -12.95 0.6 -13.1 0.1 -13.1 -0.2 L-13.05 -0.5 -13.05 -0.55 M-11.2 2.45 Q-11.05 2.65 -10.25 4.1 -9.7 5.1 -8.95 5.7 L-9.6 4.2 Q-10.2 2.9 -10.75 2.1 -11.1 1.95 -11.75 1.7 -12.1 1.55 -12.35 1.4 L-12.35 1.65 Q-12.35 2.1 -12.4 2.2 L-12.8 2.9 -12.8 2.95 -12.45 2.5 Q-12.15 2.2 -11.95 2.2 -11.8 2.2 -11.8 2.85 L-11.85 3.5 Q-11.85 4.4 -11.7 4.7 -11.5 5.15 -10.4 6.0 -10.35 5.5 -10.35 4.8 -11.05 3.5 -11.2 2.55 L-11.2 2.45" fill="#121212" fill-rule="evenodd" stroke="none"/>
  </g>
</svg>
