<?xml version="1.0" encoding="UTF-8" standalone="no"?>
<svg xmlns:ffdec="https://www.free-decompiler.com/flash" xmlns:xlink="http://www.w3.org/1999/xlink" ffdec:objectType="shape" height="21.3px" width="23.8px" xmlns="http://www.w3.org/2000/svg">
  <g transform="matrix(1.0, 0.0, 0.0, 1.0, 16.8, 15.35)">
    <path d="M0.55 -10.1 L-2.4 -6.25 -3.1 -6.0 -3.75 -5.7 -6.05 -5.1 Q-6.7 -4.9 -7.6 -4.75 L-12.35 -4.75 Q-12.6 -6.0 -12.75 -6.45 L-12.4 -6.8 -7.55 -8.45 0.55 -10.1" fill="#c7a36d" fill-rule="evenodd" stroke="none"/>
    <path d="M3.1 -9.7 L2.65 -10.25 -1.75 -12.75 Q-3.2 -13.4 -3.2 -13.55 -3.2 -13.9 -2.85 -13.9 L-3.0 -13.85 Q-3.0 -13.7 -2.95 -13.75 L-2.95 -13.7 Q-2.8 -13.75 -2.6 -13.9 L-2.55 -13.9 -1.65 -14.35 Q-0.95 -13.95 0.95 -13.0 2.15 -12.4 2.8 -12.0 3.05 -11.6 3.25 -11.1 L3.4 -10.55 3.25 -10.15 3.1 -9.8 3.1 -9.7 M0.45 -13.7 L0.05 -13.85 Q-1.35 -14.4 -1.4 -14.4 L-1.5 -14.45 -0.55 -14.9 Q-0.05 -14.2 0.45 -13.7 M3.65 -11.3 L3.55 -10.9 3.4 -11.25 3.1 -11.8 3.3 -11.65 3.3 -11.7 Q3.15 -12.1 2.6 -12.55 2.1 -12.95 1.7 -13.15 L0.85 -13.5 Q0.2 -14.3 -0.4 -14.95 L-0.3 -14.95 Q0.2 -14.55 0.9 -14.25 L2.25 -13.65 Q3.65 -12.5 3.65 -11.3 M1.7 -14.55 L1.3 -14.7 2.0 -14.85 2.4 -14.05 1.7 -14.55" fill="#003366" fill-rule="evenodd" stroke="none"/>
    <path d="M-2.85 -13.9 L-2.75 -14.0 -1.95 -14.65 Q-1.1 -15.25 -0.65 -15.35 -0.35 -15.4 0.5 -15.05 L0.75 -14.95 0.95 -15.0 Q1.5 -15.2 2.2 -15.2 2.4 -15.2 3.2 -13.6 L3.7 -13.2 Q4.05 -12.8 4.05 -11.7 4.1 -11.65 4.0 -11.4 L3.95 -11.0 3.9 -10.55 Q3.9 -10.4 3.7 -10.1 L3.7 -9.9 Q3.7 -9.8 3.6 -9.8 L3.6 -9.9 Q3.5 -9.75 3.4 -9.7 L3.4 -9.8 3.2 -9.6 3.1 -9.65 3.1 -9.7 3.1 -9.8 3.25 -10.15 3.4 -10.55 3.25 -11.1 Q3.05 -11.6 2.8 -12.0 2.15 -12.4 0.95 -13.0 -0.95 -13.95 -1.65 -14.35 L-2.55 -13.9 -2.6 -13.9 Q-2.8 -13.75 -2.95 -13.7 L-2.95 -13.75 Q-3.0 -13.7 -3.0 -13.85 L-2.85 -13.9 M1.7 -14.55 L2.4 -14.05 2.0 -14.85 1.3 -14.7 1.7 -14.55 M3.65 -11.3 Q3.65 -12.5 2.25 -13.65 L0.9 -14.25 Q0.2 -14.55 -0.3 -14.95 L-0.4 -14.95 Q0.2 -14.3 0.85 -13.5 L1.7 -13.15 Q2.1 -12.95 2.6 -12.55 3.15 -12.1 3.3 -11.7 L3.3 -11.65 3.1 -11.8 3.4 -11.25 3.55 -10.9 3.65 -11.3 M0.45 -13.7 Q-0.05 -14.2 -0.55 -14.9 L-1.5 -14.45 -1.4 -14.4 Q-1.35 -14.4 0.05 -13.85 L0.45 -13.7" fill="#111111" fill-rule="evenodd" stroke="none"/>
    <path d="M0.15 -12.0 L-0.1 -12.1 Q-0.45 -12.25 -0.8 -12.35 L-1.0 -12.4 Q0.2 -11.15 1.0 -9.1 L1.15 -8.7 1.2 -8.7 1.55 -7.55 1.9 -7.4 2.0 -7.4 1.8 -8.4 1.75 -8.7 1.6 -9.15 Q1.35 -10.0 1.2 -10.4 0.85 -11.15 0.25 -11.85 L0.15 -12.0 M-0.65 -12.8 L-0.95 -12.8 Q-0.45 -12.65 0.0 -12.45 L0.15 -12.4 0.95 -11.9 Q1.9 -11.2 2.3 -10.8 2.7 -10.3 3.0 -9.8 L3.25 -9.4 3.35 -9.4 Q3.6 -8.95 3.75 -8.5 L4.0 -8.0 3.95 -8.05 4.15 -7.5 4.2 -7.4 4.25 -7.4 4.35 -7.5 Q4.55 -7.3 4.8 -7.2 L4.75 -7.15 Q6.1 -5.95 6.6 -5.1 7.0 -4.05 7.0 -3.35 7.0 -2.75 6.9 -2.15 L6.9 -2.3 Q6.75 -2.8 6.6 -3.2 6.4 -4.05 5.85 -4.65 L5.65 -4.85 Q5.8 -4.5 5.9 -4.1 L5.8 -4.15 5.9 -4.05 5.95 -3.6 Q5.95 -2.9 5.9 -2.75 5.75 -2.3 5.05 -1.95 L4.9 -2.1 Q4.85 -2.1 4.85 -2.2 4.85 -2.25 4.95 -2.45 L5.0 -2.75 Q5.0 -3.35 4.85 -3.8 4.75 -4.2 4.35 -4.95 4.25 -5.2 3.2 -6.0 L2.85 -6.25 3.65 -4.8 3.75 -4.5 3.85 -4.1 Q3.95 -3.4 3.95 -3.1 L3.95 -2.95 3.6 -2.7 3.45 -2.5 Q3.1 -2.2 2.7 -1.95 2.45 -1.45 2.05 -1.35 2.0 -1.4 1.95 -1.4 L1.85 -1.4 1.75 -1.75 Q1.55 -1.7 1.0 -1.4 L0.95 -1.35 Q0.8 -1.45 0.75 -1.5 L0.7 -1.55 Q0.7 -1.65 0.75 -1.75 0.85 -1.8 0.85 -1.9 0.85 -2.7 0.35 -3.4 L-0.2 -4.05 Q-0.6 -4.55 -0.9 -5.1 L-0.3 -3.65 Q0.2 -2.55 0.2 -2.1 L0.1 -0.85 Q0.15 -0.85 -0.05 -0.85 -0.2 -0.85 -0.7 -2.05 L-1.5 -3.8 -1.85 -4.55 Q-2.1 -5.05 -2.3 -5.35 -2.8 -6.0 -3.45 -6.25 -2.7 -5.65 -2.1 -4.8 -1.8 -4.3 -1.6 -3.55 -1.45 -2.85 -1.45 -2.25 -1.45 -1.8 -1.5 -1.6 -1.55 -1.4 -1.8 -0.9 -1.75 -2.7 -2.1 -3.85 -2.25 -4.35 -3.5 -5.45 -3.15 -4.75 -3.15 -4.35 -3.15 -3.45 -3.2 -2.8 -3.25 -2.1 -3.25 -1.2 -3.25 -0.9 -3.4 -0.95 L-3.75 -1.0 Q-4.0 -0.75 -4.35 -0.75 -4.4 -0.65 -4.4 -0.85 L-4.35 -0.9 Q-4.55 -0.85 -4.8 -0.65 -5.0 -0.5 -5.25 -0.45 -5.55 -0.15 -5.95 -0.25 L-5.9 -0.3 -5.95 -0.3 -6.2 -0.35 -6.5 -0.35 Q-6.5 -0.4 -6.5 -0.5 L-6.3 -1.45 Q-6.05 -2.35 -6.05 -2.85 L-6.1 -4.0 -6.15 -4.45 -6.6 -4.0 -6.6 -3.95 -6.75 -3.8 -6.95 -2.7 -7.35 0.3 -7.5 0.35 Q-7.75 0.15 -7.9 -0.65 -8.0 -1.05 -8.0 -1.35 L-8.1 -1.15 -8.2 -0.8 -8.45 -0.55 -8.55 -0.4 Q-9.15 0.4 -9.15 0.75 L-9.15 0.95 Q-9.25 1.25 -9.25 1.55 L-9.2 2.05 Q-9.45 1.9 -9.7 1.05 L-9.85 0.2 Q-10.15 0.2 -10.1 -0.4 L-10.0 -1.1 -10.0 -1.25 -10.1 -1.6 Q-10.4 -2.05 -11.1 -2.4 -11.55 -2.65 -12.1 -2.8 L-12.4 -2.45 Q-12.8 -1.9 -12.8 -1.4 -12.8 -1.2 -13.05 -1.2 -13.35 -1.2 -13.8 -2.3 -14.0 -2.8 -14.15 -3.35 -14.15 -3.5 -13.85 -4.4 L-13.15 -6.9 -11.8 -8.9 -11.45 -9.35 -11.05 -9.95 -10.3 -11.0 Q-9.9 -11.4 -9.5 -11.75 L-9.2 -11.9 -9.1 -12.05 -9.05 -12.05 Q-8.1 -12.65 -7.05 -12.9 -5.2 -13.65 -3.4 -13.5 L-3.4 -13.55 -3.3 -13.5 -2.95 -13.45 -3.05 -13.6 -2.55 -13.45 -2.45 -13.4 -2.45 -13.35 -1.8 -13.15 -1.75 -13.15 -0.65 -12.8 M1.25 -11.05 Q1.55 -10.4 1.85 -9.45 L1.95 -9.2 2.1 -8.7 2.25 -8.05 2.55 -7.5 2.9 -7.5 2.9 -7.55 2.8 -7.75 2.8 -7.85 2.75 -7.9 2.65 -8.25 2.65 -8.3 2.55 -8.7 2.5 -9.05 2.45 -9.3 2.25 -10.1 2.25 -10.4 2.2 -10.5 2.1 -10.6 Q1.65 -11.1 1.0 -11.5 L1.25 -11.05 M2.4 -10.1 L2.65 -9.3 2.9 -8.55 3.05 -7.95 3.2 -7.5 3.55 -7.5 3.2 -8.7 3.2 -8.75 3.0 -9.2 2.95 -9.35 Q2.75 -9.8 2.5 -10.15 L2.35 -10.35 2.4 -10.1 M0.05 -8.95 L0.45 -7.8 0.5 -7.7 0.8 -7.7 1.1 -7.65 1.0 -7.85 0.8 -8.4 0.55 -9.05 Q-0.25 -11.15 -1.05 -12.45 L-1.85 -12.7 Q-1.25 -11.95 -0.55 -10.6 L0.0 -9.05 0.05 -8.95 M0.0 -7.45 L-0.85 -7.55 -1.25 -7.55 Q-1.95 -7.5 -2.45 -7.35 L-2.6 -7.4 Q-3.0 -7.45 -3.25 -7.3 L-3.45 -7.1 Q-3.7 -7.05 -3.85 -6.9 L-3.95 -6.7 -3.7 -6.7 -3.0 -6.9 -2.35 -6.9 -2.5 -6.85 Q-2.55 -6.8 -2.65 -6.75 -2.4 -6.75 -2.15 -6.6 L-2.1 -6.6 Q-1.75 -6.4 -1.3 -6.05 -0.55 -5.35 -0.1 -4.45 L0.5 -3.15 Q0.9 -2.4 1.0 -1.85 1.15 -1.9 1.3 -2.0 1.5 -2.4 1.5 -2.8 1.5 -3.6 0.4 -5.3 -0.2 -6.15 -0.65 -6.6 0.4 -5.95 1.1 -4.85 1.95 -3.55 1.95 -2.5 L1.9 -2.3 Q2.1 -2.3 2.2 -2.15 L2.4 -2.7 Q2.6 -3.35 2.6 -3.75 2.6 -4.1 2.3 -4.65 1.95 -5.25 1.4 -5.8 0.9 -6.3 0.35 -6.6 1.55 -6.1 2.2 -5.35 2.95 -4.45 2.95 -3.15 2.95 -2.9 2.9 -2.6 L3.65 -3.2 3.7 -3.35 Q3.7 -5.05 2.65 -6.2 2.05 -6.9 1.4 -7.15 L1.1 -7.25 0.5 -7.35 0.4 -7.35 0.05 -7.45 0.0 -7.45 M2.35 -7.1 L2.55 -6.9 2.8 -6.85 3.15 -6.75 3.75 -6.55 Q4.05 -6.45 4.3 -6.25 L4.5 -6.15 Q4.95 -5.95 5.35 -5.7 5.85 -5.35 6.25 -4.95 L5.6 -5.75 Q5.05 -6.35 4.65 -6.65 L4.25 -6.85 Q4.0 -7.0 3.65 -7.1 L3.3 -7.15 2.7 -7.15 2.35 -7.1 M4.7 -5.3 Q4.65 -5.35 4.65 -5.2 L4.9 -4.4 Q5.2 -3.6 5.2 -3.3 L5.2 -3.05 5.25 -2.75 Q5.4 -2.85 5.45 -3.2 L5.45 -3.55 Q5.45 -4.15 5.35 -4.35 L4.7 -5.3 M-12.7 -6.15 L-12.7 -5.3 Q-12.35 -4.9 -11.85 -4.9 -11.2 -4.9 -10.7 -5.35 -10.45 -5.6 -10.2 -5.95 L-10.1 -6.2 -12.7 -6.15 M-13.15 -5.5 L-13.4 -4.55 Q-13.75 -3.6 -13.75 -3.45 -13.75 -3.3 -13.5 -2.9 L-13.25 -2.4 -12.45 -3.05 -12.4 -3.1 Q-12.3 -3.25 -12.3 -3.35 -12.3 -3.45 -12.35 -3.55 L-12.0 -3.8 Q-11.25 -3.9 -10.15 -3.35 L-10.1 -3.35 Q-9.75 -3.15 -9.4 -2.9 L-8.95 -2.55 Q-8.85 -2.65 -8.7 -2.6 L-8.65 -2.6 -8.5 -2.55 -8.35 -2.65 Q-8.25 -2.75 -8.1 -2.8 L-8.05 -2.8 -7.85 -2.85 -7.8 -3.0 -7.9 -3.05 -8.0 -3.15 -8.05 -3.1 -8.5 -3.4 -8.55 -3.45 -8.95 -3.7 -9.0 -3.7 -9.1 -3.75 -9.75 -4.1 Q-10.55 -4.5 -11.25 -4.7 L-11.8 -4.6 -12.3 -4.65 -12.35 -4.65 -12.3 -4.6 -12.5 -4.6 -12.5 -4.75 -12.7 -5.05 -13.15 -5.5 M-12.05 -3.15 Q-11.75 -3.2 -11.25 -3.15 L-10.3 -3.0 -10.1 -2.95 -10.25 -3.05 -10.8 -3.2 -12.1 -3.55 -12.05 -3.15 M-2.75 -12.9 Q-1.5 -11.45 -0.4 -9.3 L-0.7 -10.25 Q-1.2 -11.7 -2.05 -12.75 L-2.75 -12.9 M-3.75 -13.05 L-4.35 -13.1 -4.95 -13.1 -4.25 -12.5 Q-2.9 -11.15 -1.65 -8.9 L-1.6 -8.8 -1.45 -8.6 -1.45 -8.55 -1.2 -8.15 -1.1 -8.0 -0.8 -8.0 -0.15 -7.9 -0.45 -8.55 -0.75 -9.25 Q-1.05 -9.85 -2.1 -11.35 -2.75 -12.3 -3.15 -12.95 L-3.75 -13.05 M-5.45 -12.95 Q-6.65 -12.65 -7.65 -12.15 -6.2 -11.75 -5.1 -10.75 -4.25 -10.0 -3.8 -9.1 L-3.45 -8.65 -3.4 -8.6 -3.4 -8.55 -2.95 -7.95 -2.75 -7.65 Q-2.1 -7.85 -1.5 -7.95 L-1.9 -8.55 -1.95 -8.6 -2.05 -8.75 -2.65 -9.75 Q-3.1 -10.5 -3.4 -10.95 -4.0 -11.7 -4.85 -12.45 L-5.45 -12.95 M-5.0 -7.75 L-5.4 -8.15 Q-7.05 -9.7 -9.5 -10.9 L-9.85 -10.6 Q-9.45 -10.2 -9.3 -9.65 -8.75 -9.35 -8.3 -8.9 -7.75 -8.4 -7.35 -7.85 L-6.85 -7.45 -6.55 -7.15 Q-6.15 -6.8 -5.75 -6.45 L-5.5 -6.5 -4.35 -6.85 -4.25 -6.95 -4.5 -7.2 -4.95 -7.7 -5.0 -7.75 M-4.95 -8.25 L-4.45 -7.65 -4.0 -7.1 Q-3.75 -7.25 -3.35 -7.4 L-3.4 -7.55 -4.05 -8.55 Q-4.3 -8.9 -5.0 -9.5 L-6.1 -10.5 Q-6.65 -11.0 -8.0 -11.4 L-8.55 -11.6 -9.0 -11.3 Q-7.05 -10.6 -5.0 -8.3 L-4.95 -8.25 M-2.05 -7.25 L-2.15 -7.25 -1.55 -7.3 -1.1 -7.3 -0.65 -7.25 -0.4 -7.2 -0.65 -7.15 -0.7 -7.15 -0.6 -7.1 -0.15 -6.9 0.45 -6.65 -0.45 -6.85 -0.5 -6.85 -0.9 -6.95 -1.4 -6.95 -1.4 -6.9 Q-1.7 -7.1 -2.05 -7.25 M-8.0 -11.95 Q-6.7 -11.7 -5.5 -10.8 -6.6 -11.7 -7.75 -12.1 L-8.0 -11.95 M-9.3 -11.05 L-9.1 -11.1 -9.2 -11.15 -9.3 -11.05 M-9.2 -9.0 L-8.85 -8.8 -8.7 -8.75 -9.25 -9.2 -9.2 -9.0 M-9.25 -8.35 L-9.35 -7.75 Q-8.4 -7.15 -7.85 -6.7 -7.6 -6.45 -7.45 -6.25 L-6.85 -5.65 Q-6.6 -6.2 -6.4 -6.4 L-6.95 -7.0 -7.2 -7.2 Q-7.85 -7.7 -8.9 -8.2 L-9.25 -8.35 M-6.35 -5.3 L-6.2 -5.3 -6.25 -5.7 -6.35 -5.3 M-5.9 -5.35 L-5.9 -4.75 -5.85 -4.75 -5.8 -2.8 -5.8 -1.8 Q-5.85 -1.3 -6.05 -0.7 -6.15 -0.6 -5.95 -0.6 L-5.6 -0.6 Q-5.2 -1.1 -5.05 -1.8 -4.9 -2.4 -4.9 -3.5 L-4.9 -3.45 Q-4.7 -2.15 -4.7 -1.7 -4.7 -1.2 -5.0 -0.75 -4.6 -0.85 -4.25 -1.1 L-4.1 -1.35 Q-3.8 -1.75 -3.8 -2.15 -3.8 -3.0 -4.15 -4.2 -3.65 -2.95 -3.5 -2.25 -3.4 -2.65 -3.4 -3.15 -3.4 -3.45 -3.4 -3.75 -3.4 -4.35 -3.5 -4.65 -3.6 -5.15 -3.95 -5.65 -4.25 -6.05 -4.5 -6.25 -4.65 -6.35 -4.8 -6.4 L-5.0 -6.35 -4.9 -6.1 -4.8 -5.95 -4.95 -6.1 -5.05 -6.25 -5.25 -6.4 -5.3 -6.45 Q-5.45 -6.55 -5.55 -6.5 -5.65 -6.45 -5.65 -6.35 L-5.7 -6.25 -5.7 -6.15 -5.65 -6.0 -5.6 -5.95 -5.75 -5.8 -5.75 -5.75 -5.9 -5.4 -5.9 -5.35 M-8.25 -5.65 Q-7.7 -5.25 -7.25 -4.8 L-6.95 -5.45 -7.45 -6.0 Q-7.65 -6.2 -8.05 -6.5 L-9.4 -7.4 -9.65 -6.65 -9.15 -6.3 -8.6 -5.95 -8.25 -5.65 M-8.15 -5.4 L-8.3 -5.5 -8.45 -5.55 -8.5 -5.55 -8.3 -5.45 -8.15 -5.4 M-7.3 -4.55 L-7.6 -4.75 -8.3 -5.15 -8.4 -5.2 -8.55 -5.3 -8.95 -5.5 Q-9.45 -5.75 -9.95 -5.9 -10.15 -5.5 -10.4 -5.25 L-9.45 -4.75 -8.75 -4.3 -8.65 -4.25 -8.1 -3.9 -7.8 -3.8 -7.6 -3.7 -7.35 -4.45 -7.3 -4.55 M-6.45 -4.8 L-6.45 -4.9 -6.5 -4.75 -6.75 -3.9 -6.25 -4.45 -6.15 -4.55 -6.15 -4.7 -6.2 -4.5 -6.25 -4.45 -6.25 -4.55 -6.2 -5.1 -6.45 -4.8 M-6.95 -4.5 L-7.1 -4.1 Q-7.7 -2.2 -7.7 -1.05 L-7.65 -0.7 -7.6 -0.3 -7.55 -0.3 -7.25 -2.4 -7.0 -4.2 -6.95 -4.55 -6.95 -4.5 M-9.85 -6.15 L-9.7 -6.1 -9.8 -6.15 -9.85 -6.15 M-9.55 -2.35 L-9.6 -2.35 -9.8 -2.45 -9.9 -2.45 -10.15 -2.5 -9.95 -2.35 -9.85 -2.25 -9.8 -2.25 -9.55 -2.35 M-9.5 -1.25 Q-9.3 -1.4 -9.15 -1.7 L-9.0 -1.9 -9.55 -1.65 Q-9.5 -1.45 -9.5 -1.25 M-9.1 -0.4 L-8.65 -1.0 Q-8.2 -1.55 -8.3 -1.9 -8.55 -1.55 -8.95 -0.95 L-9.05 -0.7 -9.1 -0.4 M-2.75 -6.45 L-3.15 -6.5 -3.15 -6.75 -3.2 -6.75 -3.45 -6.65 -3.5 -6.6 -3.35 -6.45 Q-2.1 -5.6 -1.35 -4.15 -0.6 -2.35 -0.15 -1.5 L-0.15 -1.45 -0.1 -1.8 Q-0.05 -2.0 -0.05 -2.1 -0.05 -3.1 -0.8 -4.6 -1.65 -6.2 -2.75 -6.45 M-5.0 -4.1 L-5.0 -4.2 -5.2 -4.95 -5.1 -4.95 -5.0 -4.1 M-10.45 1.65 L-9.55 2.75 Q-8.6 3.95 -8.6 4.9 -8.6 5.25 -8.85 5.55 -9.1 5.95 -9.6 5.95 -10.0 5.95 -10.05 5.8 -10.1 5.7 -10.05 5.6 -10.05 5.4 -9.9 5.15 -9.7 4.9 -9.7 4.7 L-9.7 4.55 -9.9 4.8 Q-10.0 5.0 -10.55 5.0 -11.25 5.0 -11.65 4.6 -11.35 4.5 -11.1 4.25 -10.9 4.05 -10.85 3.9 -10.8 3.85 -10.8 3.75 -10.8 2.95 -11.3 2.25 L-11.65 1.75 Q-11.8 1.55 -11.8 1.45 L-11.8 1.25 -11.2 1.35 -10.65 1.35 Q-10.45 1.4 -10.45 1.65 M-11.3 1.65 Q-10.9 2.0 -10.65 2.7 -10.4 3.35 -10.4 3.75 -10.4 4.05 -10.4 4.1 -10.5 4.3 -10.8 4.55 L-10.3 4.55 Q-10.15 4.4 -10.0 4.2 -9.85 3.95 -9.85 3.8 -9.85 3.55 -10.45 2.65 -11.1 1.8 -11.3 1.65 M-9.35 5.0 L-9.45 5.2 -9.55 5.45 -9.6 5.5 Q-9.35 5.45 -9.3 5.25 -9.25 5.1 -9.35 5.0" fill="#121212" fill-rule="evenodd" stroke="none"/>
    <path d="M0.15 -12.0 L0.25 -11.85 Q0.85 -11.15 1.2 -10.4 1.35 -10.0 1.6 -9.15 L1.75 -8.7 1.8 -8.4 2.0 -7.4 1.9 -7.4 1.55 -7.55 1.2 -8.7 1.15 -8.7 1.0 -9.1 Q0.2 -11.15 -1.0 -12.4 L-0.8 -12.35 Q-0.45 -12.25 -0.1 -12.1 L0.15 -12.0 M4.0 -8.0 Q4.15 -7.75 4.25 -7.6 L4.35 -7.5 4.25 -7.4 4.2 -7.4 4.15 -7.5 3.95 -8.05 4.0 -8.0 M-13.15 -6.9 L-11.8 -8.9 -13.15 -6.9 M-11.45 -9.35 L-11.05 -9.95 -11.45 -9.35 M-2.45 -13.4 L-2.3 -13.35 -1.75 -13.15 -1.8 -13.15 -2.45 -13.35 -2.45 -13.4 M2.35 -7.1 L2.7 -7.15 3.3 -7.15 3.65 -7.1 Q4.0 -7.0 4.25 -6.85 L4.65 -6.65 Q5.05 -6.35 5.6 -5.75 L6.25 -4.95 Q5.85 -5.35 5.35 -5.7 4.95 -5.95 4.5 -6.15 L4.3 -6.25 Q4.05 -6.45 3.75 -6.55 L3.15 -6.75 2.8 -6.85 2.55 -6.9 2.35 -7.1 M0.0 -7.45 L0.05 -7.45 0.4 -7.35 0.5 -7.35 1.1 -7.25 1.4 -7.15 Q2.05 -6.9 2.65 -6.2 3.7 -5.05 3.7 -3.35 L3.65 -3.2 2.9 -2.6 Q2.95 -2.9 2.95 -3.15 2.95 -4.45 2.2 -5.35 1.55 -6.1 0.35 -6.6 0.9 -6.3 1.4 -5.8 1.95 -5.25 2.3 -4.65 2.6 -4.1 2.6 -3.75 2.6 -3.35 2.4 -2.7 L2.2 -2.15 Q2.1 -2.3 1.9 -2.3 L1.95 -2.5 Q1.95 -3.55 1.1 -4.85 0.4 -5.95 -0.65 -6.6 -0.2 -6.15 0.4 -5.3 1.5 -3.6 1.5 -2.8 1.5 -2.4 1.3 -2.0 1.15 -1.9 1.0 -1.85 0.9 -2.4 0.5 -3.15 L-0.1 -4.45 Q-0.55 -5.35 -1.3 -6.05 -1.75 -6.4 -2.1 -6.6 L-2.15 -6.6 Q-2.4 -6.75 -2.65 -6.75 -2.55 -6.8 -2.5 -6.85 L-2.35 -6.9 -3.0 -6.9 -3.7 -6.7 -3.95 -6.7 -3.85 -6.9 Q-3.7 -7.05 -3.45 -7.1 L-3.25 -7.3 Q-3.0 -7.45 -2.6 -7.4 L-2.45 -7.35 Q-1.95 -7.5 -1.25 -7.55 L-0.85 -7.55 0.0 -7.45 M0.05 -8.95 L0.0 -9.05 -0.55 -10.6 Q-1.25 -11.95 -1.85 -12.7 L-1.05 -12.45 Q-0.25 -11.15 0.55 -9.05 L0.8 -8.4 1.0 -7.85 1.1 -7.65 0.8 -7.7 0.5 -7.7 0.45 -7.8 0.05 -8.95 M2.4 -10.1 L2.35 -10.35 2.5 -10.15 Q2.75 -9.8 2.95 -9.35 L3.0 -9.2 3.2 -8.75 3.2 -8.7 3.55 -7.5 3.2 -7.5 3.05 -7.95 2.9 -8.55 2.65 -9.3 2.4 -10.1 M1.25 -11.05 L1.0 -11.5 Q1.65 -11.1 2.1 -10.6 L2.2 -10.5 2.25 -10.4 2.25 -10.1 2.45 -9.3 2.5 -9.05 2.55 -8.7 2.65 -8.3 2.65 -8.25 2.75 -7.9 2.8 -7.85 2.8 -7.75 2.9 -7.55 2.9 -7.5 2.55 -7.5 2.25 -8.05 2.1 -8.7 1.95 -9.2 1.85 -9.45 Q1.55 -10.4 1.25 -11.05 M4.7 -5.3 L5.35 -4.35 Q5.45 -4.15 5.45 -3.55 L5.45 -3.2 Q5.4 -2.85 5.25 -2.75 L5.2 -3.05 5.2 -3.3 Q5.2 -3.6 4.9 -4.4 L4.65 -5.2 Q4.65 -5.35 4.7 -5.3 M-13.15 -5.5 L-12.7 -5.05 -12.5 -4.75 -12.5 -4.6 -12.3 -4.6 -12.35 -4.65 -12.3 -4.65 -11.8 -4.6 -11.25 -4.7 Q-10.55 -4.5 -9.75 -4.1 L-9.1 -3.75 -9.0 -3.7 -8.95 -3.7 -8.55 -3.45 -8.5 -3.4 -8.05 -3.1 -8.0 -3.15 -7.9 -3.05 -7.8 -3.0 -7.85 -2.85 -8.05 -2.8 -8.1 -2.8 Q-8.25 -2.75 -8.35 -2.65 L-8.5 -2.55 -8.65 -2.6 -8.7 -2.6 Q-8.85 -2.65 -8.95 -2.55 L-9.4 -2.9 Q-9.75 -3.15 -10.1 -3.35 L-10.15 -3.35 Q-11.25 -3.9 -12.0 -3.8 L-12.35 -3.55 Q-12.3 -3.45 -12.3 -3.35 -12.3 -3.25 -12.4 -3.1 L-12.45 -3.05 -13.25 -2.4 -13.5 -2.9 Q-13.75 -3.3 -13.75 -3.45 -13.75 -3.6 -13.4 -4.55 L-13.15 -5.5 M-2.75 -12.9 L-2.05 -12.75 Q-1.2 -11.7 -0.7 -10.25 L-0.4 -9.3 Q-1.5 -11.45 -2.75 -12.9 M-12.05 -3.15 L-12.1 -3.55 -10.8 -3.2 -10.25 -3.05 -10.1 -2.95 -10.3 -3.0 -11.25 -3.15 Q-11.75 -3.2 -12.05 -3.15 M-4.95 -8.25 L-5.0 -8.3 Q-7.05 -10.6 -9.0 -11.3 L-8.55 -11.6 -8.0 -11.4 Q-6.65 -11.0 -6.1 -10.5 L-5.0 -9.5 Q-4.3 -8.9 -4.05 -8.55 L-3.4 -7.55 -3.35 -7.4 Q-3.75 -7.25 -4.0 -7.1 L-4.45 -7.65 -4.95 -8.25 M-5.0 -7.75 L-4.95 -7.7 -4.5 -7.2 -4.25 -6.95 -4.35 -6.85 -5.5 -6.5 -5.75 -6.45 Q-6.15 -6.8 -6.55 -7.15 L-6.85 -7.45 -7.35 -7.85 Q-7.75 -8.4 -8.3 -8.9 -8.75 -9.35 -9.3 -9.65 -9.45 -10.2 -9.85 -10.6 L-9.5 -10.9 Q-7.05 -9.7 -5.4 -8.15 L-5.0 -7.75 M-5.45 -12.95 L-4.85 -12.45 Q-4.0 -11.7 -3.4 -10.95 -3.1 -10.5 -2.65 -9.75 L-2.05 -8.75 -1.95 -8.6 -1.9 -8.55 -1.5 -7.95 Q-2.1 -7.85 -2.75 -7.65 L-2.95 -7.95 -3.4 -8.55 -3.4 -8.6 -3.45 -8.65 -3.8 -9.1 Q-4.25 -10.0 -5.1 -10.75 -6.2 -11.75 -7.65 -12.15 -6.65 -12.65 -5.45 -12.95 M-3.75 -13.05 L-3.15 -12.95 Q-2.75 -12.3 -2.1 -11.35 -1.05 -9.85 -0.75 -9.25 L-0.45 -8.55 -0.15 -7.9 -0.8 -8.0 -1.1 -8.0 -1.2 -8.15 -1.45 -8.55 -1.45 -8.6 -1.6 -8.8 -1.65 -8.9 Q-2.9 -11.15 -4.25 -12.5 L-4.95 -13.1 -4.35 -13.1 -3.75 -13.05 M-2.05 -7.25 Q-1.7 -7.1 -1.4 -6.9 L-1.4 -6.95 -0.9 -6.95 -0.5 -6.85 -0.45 -6.85 0.45 -6.65 -0.15 -6.9 -0.6 -7.1 -0.7 -7.15 -0.65 -7.15 -0.4 -7.2 -0.65 -7.25 -1.1 -7.3 -1.55 -7.3 -2.15 -7.25 -2.05 -7.25 M-9.2 -9.0 L-9.25 -9.2 -8.7 -8.75 -8.85 -8.8 -9.2 -9.0 M-9.3 -11.05 L-9.2 -11.15 -9.1 -11.1 -9.3 -11.05 M-8.0 -11.95 L-7.75 -12.1 Q-6.6 -11.7 -5.5 -10.8 -6.7 -11.7 -8.0 -11.95 M-6.5 -4.75 L-6.45 -4.9 -6.45 -4.8 -6.5 -4.75 M-7.3 -4.55 L-7.35 -4.45 -7.6 -3.7 -7.8 -3.8 -8.1 -3.9 -8.65 -4.25 -8.75 -4.3 -9.45 -4.75 -10.4 -5.25 Q-10.15 -5.5 -9.95 -5.9 -9.45 -5.75 -8.95 -5.5 L-8.55 -5.3 -8.4 -5.2 -8.3 -5.15 -7.6 -4.75 -7.3 -4.55 M-8.15 -5.4 L-8.3 -5.45 -8.5 -5.55 -8.45 -5.55 -8.3 -5.5 -8.15 -5.4 M-8.25 -5.65 L-8.6 -5.95 -9.15 -6.3 -9.65 -6.65 -9.4 -7.4 -8.05 -6.5 Q-7.65 -6.2 -7.45 -6.0 L-6.95 -5.45 -7.25 -4.8 Q-7.7 -5.25 -8.25 -5.65 M-5.9 -5.35 L-5.9 -5.4 -5.75 -5.75 -5.75 -5.8 -5.6 -5.95 -5.65 -6.0 -5.7 -6.15 -5.7 -6.25 -5.65 -6.35 Q-5.65 -6.45 -5.55 -6.5 -5.45 -6.55 -5.3 -6.45 L-5.25 -6.4 -5.05 -6.25 -4.95 -6.1 -4.8 -5.95 -4.9 -6.1 -5.0 -6.35 -4.8 -6.4 Q-4.65 -6.35 -4.5 -6.25 -4.25 -6.05 -3.95 -5.65 -3.6 -5.15 -3.5 -4.65 -3.4 -4.35 -3.4 -3.75 -3.4 -3.45 -3.4 -3.15 -3.4 -2.65 -3.5 -2.25 -3.65 -2.95 -4.15 -4.2 -3.8 -3.0 -3.8 -2.15 -3.8 -1.75 -4.1 -1.35 L-4.25 -1.1 Q-4.6 -0.85 -5.0 -0.75 -4.7 -1.2 -4.7 -1.7 -4.7 -2.15 -4.9 -3.45 L-4.9 -3.5 Q-4.9 -2.4 -5.05 -1.8 -5.2 -1.1 -5.6 -0.6 L-5.95 -0.6 Q-6.15 -0.6 -6.05 -0.7 -5.85 -1.3 -5.8 -1.8 L-5.8 -2.8 -5.85 -4.75 -5.9 -4.75 -5.9 -5.35 M-6.35 -5.3 L-6.25 -5.7 -6.2 -5.3 -6.35 -5.3 M-9.25 -8.35 L-8.9 -8.2 Q-7.85 -7.7 -7.2 -7.2 L-6.95 -7.0 -6.4 -6.4 Q-6.6 -6.2 -6.85 -5.65 L-7.45 -6.25 Q-7.6 -6.45 -7.85 -6.7 -8.4 -7.15 -9.35 -7.75 L-9.25 -8.35 M-9.1 -0.4 L-9.05 -0.7 -8.95 -0.95 Q-8.55 -1.55 -8.3 -1.9 -8.2 -1.55 -8.65 -1.0 L-9.1 -0.4 M-9.5 -1.25 Q-9.5 -1.45 -9.55 -1.65 L-9.0 -1.9 -9.15 -1.7 Q-9.3 -1.4 -9.5 -1.25 M-9.55 -2.35 L-9.8 -2.25 -9.85 -2.25 -9.95 -2.35 -10.15 -2.5 -9.9 -2.45 -9.8 -2.45 -9.6 -2.35 -9.55 -2.35 M-9.85 -6.15 L-9.8 -6.15 -9.7 -6.1 -9.85 -6.15 M-6.95 -4.5 L-6.95 -4.55 -7.0 -4.2 -7.25 -2.4 -7.55 -0.3 -7.6 -0.3 -7.65 -0.7 -7.7 -1.05 Q-7.7 -2.2 -7.1 -4.1 L-6.95 -4.5 M-5.0 -4.1 L-5.1 -4.95 -5.2 -4.95 -5.0 -4.2 -5.0 -4.1 M-2.75 -6.45 Q-1.65 -6.2 -0.8 -4.6 -0.05 -3.1 -0.05 -2.1 -0.05 -2.0 -0.1 -1.8 L-0.15 -1.45 -0.15 -1.5 Q-0.6 -2.35 -1.35 -4.15 -2.1 -5.6 -3.35 -6.45 L-3.5 -6.6 -3.45 -6.65 -3.2 -6.75 -3.15 -6.75 -3.15 -6.5 -2.75 -6.45 M-9.35 5.0 Q-9.25 5.1 -9.3 5.25 -9.35 5.45 -9.6 5.5 L-9.55 5.45 -9.45 5.2 -9.35 5.0 M-11.3 1.65 Q-11.1 1.8 -10.45 2.65 -9.85 3.55 -9.85 3.8 -9.85 3.95 -10.0 4.2 -10.15 4.4 -10.3 4.55 L-10.8 4.55 Q-10.5 4.3 -10.4 4.1 -10.4 4.05 -10.4 3.75 -10.4 3.35 -10.65 2.7 -10.9 2.0 -11.3 1.65" fill="#003366" fill-rule="evenodd" stroke="none"/>
    <path d="M-0.65 -12.8 L-0.1 -12.6 0.0 -12.5 0.15 -12.4 0.0 -12.45 Q-0.45 -12.65 -0.95 -12.8 L-0.65 -12.8 M-12.7 -6.15 L-10.1 -6.2 -10.2 -5.95 Q-10.45 -5.6 -10.7 -5.35 -11.2 -4.9 -11.85 -4.9 -12.35 -4.9 -12.7 -5.3 L-12.7 -6.15" fill="#506060" fill-rule="evenodd" stroke="none"/>
    <path d="M-14.2 -11.8 L-14.25 -11.9 Q-14.0 -12.0 -13.5 -12.3 L-12.35 -12.65 Q-11.9 -12.65 -11.4 -12.35 L-11.2 -12.2 Q-11.2 -9.0 -12.75 -7.75 -12.3 -8.1 -11.7 -8.9 -11.05 -9.75 -11.05 -10.15 L-10.95 -11.7 -10.95 -12.0 -10.85 -11.85 -10.35 -11.15 -10.35 -11.0 -10.4 -10.5 -10.45 -10.05 -10.5 -9.65 Q-10.5 -8.95 -11.2 -8.0 L-12.15 -6.75 Q-13.2 -5.75 -14.55 -4.9 -13.45 -5.2 -11.95 -6.55 L-11.55 -6.9 -11.6 -6.55 Q-11.9 -6.15 -12.35 -5.7 L-12.7 -5.35 -12.9 -5.3 -12.9 -5.2 -13.55 -4.65 Q-13.65 -4.65 -13.7 -4.6 -14.95 -4.65 -15.55 -4.85 L-15.5 -4.85 Q-15.2 -4.85 -14.75 -5.15 -14.3 -5.45 -14.3 -5.65 -14.45 -5.65 -14.9 -5.45 -15.4 -5.2 -15.6 -5.2 L-15.9 -5.3 -16.1 -5.35 Q-16.3 -5.65 -16.3 -6.05 L-16.4 -7.6 Q-16.4 -7.95 -16.0 -8.25 L-15.05 -8.8 -15.1 -8.75 -15.55 -8.35 Q-15.55 -8.5 -15.6 -8.4 L-15.9 -8.05 -16.1 -7.8 Q-16.05 -7.45 -16.0 -7.1 -15.85 -6.4 -15.55 -6.4 -14.75 -6.4 -13.9 -7.65 -13.55 -8.2 -13.35 -8.65 L-13.05 -9.15 Q-12.15 -10.7 -12.15 -11.55 -12.15 -12.0 -12.3 -12.15 -12.55 -12.4 -13.25 -12.2 L-12.4 -12.05 -12.4 -11.65 Q-12.55 -11.35 -12.55 -11.0 -12.55 -10.9 -12.6 -10.8 -12.65 -10.7 -12.65 -10.6 -12.65 -10.4 -13.55 -8.9 L-14.1 -7.95 -14.2 -7.75 Q-14.9 -6.75 -15.4 -6.75 -15.6 -6.75 -15.7 -7.15 -15.8 -7.45 -15.8 -7.65 L-15.6 -8.05 Q-15.35 -8.15 -14.9 -8.5 L-14.6 -8.75 Q-14.25 -9.0 -14.05 -9.15 L-14.1 -9.2 -14.45 -9.15 Q-13.65 -9.7 -13.4 -10.35 L-13.35 -10.35 Q-13.3 -10.4 -13.2 -10.6 L-13.1 -10.9 -13.15 -11.15 -13.2 -11.2 -13.35 -11.2 Q-13.5 -11.2 -13.55 -11.1 L-13.5 -10.95 Q-13.45 -10.9 -13.45 -10.8 L-13.5 -10.6 -13.45 -10.45 -13.85 -10.05 Q-14.45 -9.5 -14.9 -9.25 -15.1 -9.1 -15.5 -8.95 L-15.45 -9.2 Q-15.35 -9.55 -15.25 -10.2 -15.1 -10.8 -14.45 -11.1 L-14.4 -11.0 -14.35 -10.85 Q-14.25 -10.95 -14.2 -11.15 L-14.2 -11.2 Q-13.55 -11.4 -12.55 -11.4 L-12.8 -11.55 -13.65 -11.6 -14.15 -11.55 -14.2 -11.8" fill="#003366" fill-rule="evenodd" stroke="none"/>
    <path d="M-12.1 -5.65 L-12.05 -5.7 Q-11.0 -6.95 -11.0 -7.3 L-11.05 -7.4 Q-10.5 -8.05 -10.4 -8.5 -10.0 -9.1 -9.9 -9.55 L-9.85 -9.3 -9.65 -8.7 -9.65 -8.5 Q-9.65 -7.35 -10.35 -6.65 L-10.65 -6.4 Q-10.95 -6.2 -11.35 -6.0 -11.7 -5.8 -12.1 -5.65" fill="#506060" fill-rule="evenodd" stroke="none"/>
    <path d="M-11.7 -12.95 L-11.1 -12.6 -11.05 -12.6 -10.55 -12.25 Q-10.2 -11.95 -10.1 -11.65 -9.95 -11.55 -9.85 -11.3 -9.75 -11.05 -9.75 -10.75 L-9.8 -10.3 -9.85 -10.2 Q-9.5 -10.05 -9.4 -9.2 -9.25 -8.55 -9.25 -8.15 -9.25 -7.4 -9.95 -6.35 -10.95 -4.95 -12.55 -4.95 L-12.6 -5.0 Q-13.4 -4.1 -13.9 -4.1 -14.05 -4.1 -14.1 -4.15 L-14.15 -4.2 -14.55 -4.2 Q-16.15 -4.2 -16.6 -5.9 -16.8 -6.5 -16.8 -7.95 -16.8 -8.35 -16.15 -8.65 L-16.05 -8.7 Q-16.0 -9.0 -15.9 -9.4 -15.7 -9.9 -15.7 -10.0 L-15.6 -10.25 Q-15.55 -10.35 -15.55 -10.45 -15.55 -10.95 -15.3 -11.15 -15.05 -11.4 -14.45 -11.5 L-14.4 -11.9 -14.5 -11.9 -14.65 -11.85 -14.55 -12.0 -14.55 -12.05 Q-14.55 -12.2 -14.25 -12.35 L-13.9 -12.65 Q-13.4 -12.9 -12.65 -13.15 -12.2 -13.25 -11.7 -12.95 M-14.2 -11.8 L-14.15 -11.55 -13.65 -11.6 -12.8 -11.55 -12.55 -11.4 Q-13.55 -11.4 -14.2 -11.2 L-14.2 -11.15 Q-14.25 -10.95 -14.35 -10.85 L-14.4 -11.0 -14.45 -11.1 Q-15.1 -10.8 -15.25 -10.2 -15.35 -9.55 -15.45 -9.2 L-15.5 -8.95 Q-15.1 -9.1 -14.9 -9.25 -14.45 -9.5 -13.85 -10.05 L-13.45 -10.45 -13.5 -10.6 -13.45 -10.8 Q-13.45 -10.9 -13.5 -10.95 L-13.55 -11.1 Q-13.5 -11.2 -13.35 -11.2 L-13.2 -11.2 -13.15 -11.15 -13.1 -10.9 -13.2 -10.6 Q-13.3 -10.4 -13.35 -10.35 L-13.4 -10.35 Q-13.65 -9.7 -14.45 -9.15 L-14.1 -9.2 -14.05 -9.15 Q-14.25 -9.0 -14.6 -8.75 L-14.9 -8.5 Q-15.35 -8.15 -15.6 -8.05 L-15.8 -7.65 Q-15.8 -7.45 -15.7 -7.15 -15.6 -6.75 -15.4 -6.75 -14.9 -6.75 -14.2 -7.75 L-14.1 -7.95 -13.55 -8.9 Q-12.65 -10.4 -12.65 -10.6 -12.65 -10.7 -12.6 -10.8 -12.55 -10.9 -12.55 -11.0 -12.55 -11.35 -12.4 -11.65 L-12.4 -12.05 -13.25 -12.2 Q-12.55 -12.4 -12.3 -12.15 -12.15 -12.0 -12.15 -11.55 -12.15 -10.7 -13.05 -9.15 L-13.35 -8.65 Q-13.55 -8.2 -13.9 -7.65 -14.75 -6.4 -15.55 -6.4 -15.85 -6.4 -16.0 -7.1 -16.05 -7.45 -16.1 -7.8 L-15.9 -8.05 -15.6 -8.4 Q-15.55 -8.5 -15.55 -8.35 L-15.1 -8.75 -15.05 -8.8 -16.0 -8.25 Q-16.4 -7.95 -16.4 -7.6 L-16.3 -6.05 Q-16.3 -5.65 -16.1 -5.35 L-15.9 -5.3 -15.6 -5.2 Q-15.4 -5.2 -14.9 -5.45 -14.45 -5.65 -14.3 -5.65 -14.3 -5.45 -14.75 -5.15 -15.2 -4.85 -15.5 -4.85 L-15.55 -4.85 Q-14.95 -4.65 -13.7 -4.6 -13.65 -4.65 -13.55 -4.65 L-12.9 -5.2 -12.9 -5.3 -12.7 -5.35 -12.35 -5.7 Q-11.9 -6.15 -11.6 -6.55 L-11.55 -6.9 -11.95 -6.55 Q-13.45 -5.2 -14.55 -4.9 -13.2 -5.75 -12.15 -6.75 L-11.2 -8.0 Q-10.5 -8.95 -10.5 -9.65 L-10.45 -10.05 -10.4 -10.5 -10.35 -11.0 -10.35 -11.15 -10.85 -11.85 -10.95 -12.0 -10.95 -11.7 -11.05 -10.15 Q-11.05 -9.75 -11.7 -8.9 -12.3 -8.1 -12.75 -7.75 -11.2 -9.0 -11.2 -12.2 L-11.4 -12.35 Q-11.9 -12.65 -12.35 -12.65 L-13.5 -12.3 Q-14.0 -12.0 -14.25 -11.9 L-14.2 -11.8 M-12.1 -5.65 Q-11.7 -5.8 -11.35 -6.0 -10.95 -6.2 -10.65 -6.4 L-10.35 -6.65 Q-9.65 -7.35 -9.65 -8.5 L-9.65 -8.7 -9.85 -9.3 -9.9 -9.55 Q-10.0 -9.1 -10.4 -8.5 -10.5 -8.05 -11.05 -7.4 L-11.0 -7.3 Q-11.0 -6.95 -12.05 -5.7 L-12.1 -5.65" fill="#111111" fill-rule="evenodd" stroke="none"/>
  </g>
</svg>
