<?xml version="1.0" encoding="UTF-8" standalone="no"?>
<svg xmlns:ffdec="https://www.free-decompiler.com/flash" xmlns:xlink="http://www.w3.org/1999/xlink" ffdec:objectType="shape" height="24.35px" width="20.45px" xmlns="http://www.w3.org/2000/svg">
  <g transform="matrix(1.0, 0.0, 0.0, 1.0, 14.5, 14.5)">
    <path d="M3.4 -9.4 L3.5 -8.95 3.25 -9.1 Q1.75 -9.8 0.3 -9.0 L-0.45 -8.55 -0.05 -8.75 Q3.05 -10.05 4.2 -6.9 L4.2 -6.7 Q3.95 -7.1 3.65 -7.4 2.3 -8.8 0.45 -8.2 L0.3 -8.15 0.1 -8.05 -1.05 -9.1 1.95 -10.45 3.4 -9.45 3.4 -9.4 M0.75 -12.05 L1.0 -11.9 Q1.9 -11.4 2.4 -10.45 L2.15 -10.5 1.15 -10.6 0.95 -10.55 Q-0.3 -10.3 -1.05 -9.25 L-1.95 -10.05 -1.8 -10.0 Q-3.1 -12.1 -4.85 -13.8 L-4.2 -13.9 Q-3.1 -13.35 -2.45 -12.3 L-3.25 -13.8 -2.95 -13.95 -2.7 -13.8 -2.5 -13.65 -2.3 -13.45 Q-1.5 -12.45 -1.85 -11.15 L-2.3 -12.05 -1.6 -9.95 -1.05 -12.9 -0.75 -12.9 Q-0.05 -12.85 0.4 -12.4 L-1.4 -9.6 0.75 -12.05 M3.5 -9.9 L3.3 -10.05 3.45 -10.0 Q3.5 -9.95 3.5 -9.9 M2.1 -8.2 L2.4 -8.0 Q3.5 -7.4 4.2 -6.4 L4.4 -5.7 4.45 -5.55 4.35 -5.7 3.95 -6.4 Q2.35 -7.6 0.3 -7.75 L2.1 -8.2 M0.15 -7.45 L0.65 -7.55 0.75 -7.35 Q2.15 -7.1 3.15 -6.4 L3.55 -5.7 Q3.85 -5.35 4.65 -3.05 5.4 -0.75 5.05 1.5 L4.5 4.8 Q5.05 -1.05 2.55 -5.0 L2.2 -5.7 1.7 -6.4 Q1.0 -6.8 0.25 -7.05 L0.15 -7.45 M-3.2 -14.2 L-3.2 -14.15 Q-3.15 -14.05 -3.35 -14.05 L-3.2 -14.2 M4.0 -8.6 Q3.95 -8.6 3.9 -8.6 3.9 -8.65 3.9 -8.75 L4.0 -8.6 M-6.5 7.0 L-6.8 6.45 Q-8.8 2.85 -8.45 -1.25 -8.2 -3.5 -7.6 -5.7 L-7.35 -6.25 -7.7 -6.0 -8.15 -5.7 Q-8.9 -5.15 -9.75 -4.75 -11.45 -3.85 -13.35 -3.4 L-12.55 -5.7 -12.5 -5.75 Q-10.15 -9.65 -5.5 -10.05 L-6.5 -10.05 Q-4.85 -10.35 -3.2 -10.0 L-4.45 -10.0 -3.6 -9.9 Q-2.4 -9.6 -1.3 -8.95 -1.95 -9.25 -2.65 -9.4 L-4.0 -9.45 -5.3 -8.0 Q-4.8 -8.2 -4.3 -8.3 L-2.3 -8.4 -2.7 -8.2 Q-4.05 -7.6 -5.0 -6.4 -4.55 -6.85 -3.95 -7.15 -2.25 -7.95 -0.4 -7.55 -1.8 -6.7 -2.95 -5.7 -5.1 -3.8 -6.1 -1.25 -7.25 2.1 -5.9 5.5 L-6.1 5.1 Q-7.55 2.05 -6.9 -1.25 -6.45 -3.55 -5.5 -5.7 L-5.4 -5.9 -5.55 -5.7 Q-5.7 -5.45 -5.85 -5.15 -6.7 -3.25 -7.25 -1.25 -8.45 2.85 -6.6 6.7 L-6.45 7.05 -6.5 7.0 M-13.3 -5.7 L-13.8 -4.85 -14.1 -5.15 -13.3 -8.65 Q-12.0 -9.7 -10.35 -10.2 L-12.3 -10.0 Q-8.25 -14.05 -3.5 -10.4 L-3.9 -10.45 Q-10.25 -10.8 -13.3 -5.7 M-10.05 -3.75 L-8.5 -4.65 -8.6 -1.25 -8.6 0.95 -8.7 0.95 Q-10.95 0.95 -11.6 0.75 -12.3 0.55 -13.05 -0.35 L-13.1 -0.35 Q-13.2 0.1 -12.1 0.8 -10.8 1.6 -9.2 1.6 L-9.15 1.6 -9.35 1.7 -10.7 1.8 Q-12.3 1.8 -13.05 0.85 -13.5 0.3 -13.5 -0.25 -13.5 -0.65 -13.35 -0.75 -13.25 -0.85 -13.0 -0.75 -12.35 -0.4 -11.7 -0.15 L-11.75 -0.45 Q-11.3 -0.3 -10.8 -0.35 -10.3 -0.35 -9.85 -0.6 L-9.85 -0.3 -8.8 -1.7 -10.4 -0.9 -10.5 -1.25 -12.65 -1.25 -13.75 -2.55 -10.05 -3.75 -10.05 -3.75 M-3.05 -11.0 L-2.65 -10.6 Q-5.6 -12.1 -8.85 -12.6 L-8.3 -13.45 -7.95 -13.5 Q-4.45 -14.25 -3.05 -11.0 M-0.4 -7.35 L-0.05 -7.3 -1.45 -5.7 Q-2.85 -3.55 -3.85 -1.25 -5.15 1.5 -5.15 4.55 L-5.3 4.0 Q-5.85 1.35 -5.3 -1.25 -4.55 -3.75 -2.6 -5.7 L-2.5 -5.8 -3.75 -4.05 -0.4 -7.35 M-1.3 -13.65 L-1.15 -13.25 -1.65 -12.0 -2.0 -13.85 -1.3 -13.65 M-11.55 0.2 L-11.55 0.15 -11.7 0.15 -11.55 0.2" fill="#003366" fill-rule="evenodd" stroke="none"/>
    <path d="M0.75 -12.05 L-1.4 -9.6 0.4 -12.4 Q-0.05 -12.85 -0.75 -12.9 L-1.05 -12.9 -1.6 -9.95 -2.3 -12.05 -1.85 -11.15 Q-1.5 -12.45 -2.3 -13.45 L-2.5 -13.65 -2.7 -13.8 -2.95 -13.95 -3.25 -13.8 -2.45 -12.3 Q-3.1 -13.35 -4.2 -13.9 L-4.85 -13.8 Q-3.1 -12.1 -1.8 -10.0 L-1.95 -10.05 -1.05 -9.25 Q-0.3 -10.3 0.95 -10.55 L1.15 -10.6 2.15 -10.5 2.4 -10.45 Q1.9 -11.4 1.0 -11.9 L0.75 -12.05 M3.4 -9.45 L1.95 -10.45 -1.05 -9.1 0.1 -8.05 0.3 -8.15 0.45 -8.2 Q2.3 -8.8 3.65 -7.4 3.95 -7.1 4.2 -6.7 L4.2 -6.9 Q3.05 -10.05 -0.05 -8.75 L-0.45 -8.55 0.3 -9.0 Q1.75 -9.8 3.25 -9.1 L3.5 -8.95 3.4 -9.4 3.4 -9.45 M0.15 -7.45 L0.25 -7.05 Q1.0 -6.8 1.7 -6.4 L2.2 -5.7 2.55 -5.0 Q5.05 -1.05 4.5 4.8 L5.05 1.5 Q5.4 -0.75 4.65 -3.05 3.85 -5.35 3.55 -5.7 L3.15 -6.4 Q2.15 -7.1 0.75 -7.35 L0.65 -7.55 0.15 -7.45 M2.1 -8.2 L0.3 -7.75 Q2.35 -7.6 3.95 -6.4 L4.35 -5.7 4.45 -5.55 4.4 -5.7 4.2 -6.4 Q3.5 -7.4 2.4 -8.0 L2.1 -8.2 M3.3 -10.05 L3.5 -9.9 3.9 -8.75 Q3.9 -8.65 3.9 -8.6 3.95 -8.6 4.0 -8.6 4.9 -7.9 4.6 -6.85 L4.55 -6.75 4.75 -6.4 Q4.85 -6.05 5.0 -6.0 5.15 -5.95 5.75 -3.05 6.35 -0.15 5.35 3.75 4.4 7.6 4.25 8.45 L3.85 5.25 3.85 4.1 3.65 1.25 Q3.5 -0.4 3.15 -1.5 2.55 -4.15 1.25 -5.75 0.7 -6.4 0.35 -6.5 L0.2 -6.5 0.1 -6.55 -0.75 -5.7 Q-2.3 -3.65 -3.0 -1.25 -3.9 2.15 -2.4 5.35 L-2.2 5.9 Q-4.1 3.75 -4.2 0.85 L-4.2 -0.05 Q-4.9 4.9 -3.65 9.85 L-5.0 6.65 -4.5 8.8 -6.25 5.7 -6.3 8.25 -7.7 4.9 -7.7 5.0 -7.8 5.0 -8.5 1.75 -9.5 2.7 -9.55 2.55 Q-9.8 2.7 -10.15 2.7 -11.8 2.7 -13.0 1.45 -13.45 1.0 -13.7 0.5 -13.95 0.1 -13.95 -0.05 -13.95 -0.65 -13.75 -1.25 L-13.9 -1.95 Q-14.05 -2.75 -14.5 -3.4 L-14.1 -3.55 -14.35 -5.7 Q-14.3 -10.45 -9.35 -12.55 -7.75 -14.95 -5.0 -13.9 L-4.0 -14.3 -3.35 -14.05 Q-3.15 -14.05 -3.2 -14.15 L-3.2 -14.2 -2.6 -14.5 -1.2 -14.0 -0.85 -13.3 Q0.4 -12.8 1.55 -12.0 2.45 -11.35 2.8 -10.3 L3.3 -10.05 M-6.45 7.05 L-6.6 6.7 Q-8.45 2.85 -7.25 -1.25 -6.7 -3.25 -5.85 -5.15 -5.7 -5.45 -5.55 -5.7 L-5.4 -5.9 -5.5 -5.7 Q-6.45 -3.55 -6.9 -1.25 -7.55 2.05 -6.1 5.1 L-5.9 5.5 Q-7.25 2.1 -6.1 -1.25 -5.1 -3.8 -2.95 -5.7 -1.8 -6.7 -0.4 -7.55 -2.25 -7.95 -3.95 -7.15 -4.55 -6.85 -5.0 -6.4 -4.05 -7.6 -2.7 -8.2 L-2.3 -8.4 -4.3 -8.3 Q-4.8 -8.2 -5.3 -8.0 L-4.0 -9.45 -2.65 -9.4 Q-1.95 -9.25 -1.3 -8.95 -2.4 -9.6 -3.6 -9.9 L-4.45 -10.0 -3.2 -10.0 Q-4.85 -10.35 -6.5 -10.05 L-5.5 -10.05 Q-10.15 -9.65 -12.5 -5.75 L-12.55 -5.7 -13.35 -3.4 Q-11.45 -3.85 -9.75 -4.75 -8.9 -5.15 -8.15 -5.7 L-7.7 -6.0 -7.35 -6.25 -7.6 -5.7 Q-8.2 -3.5 -8.45 -1.25 -8.8 2.85 -6.8 6.45 L-6.5 7.0 -6.45 7.25 -6.45 7.05 M-13.3 -5.7 Q-10.25 -10.8 -3.9 -10.45 L-3.5 -10.4 Q-8.25 -14.05 -12.3 -10.0 L-10.35 -10.2 Q-12.0 -9.7 -13.3 -8.65 L-14.1 -5.15 -13.8 -4.85 -13.3 -5.7 M-13.95 -3.25 L-13.95 -3.25 M-10.05 -3.75 L-13.75 -2.55 -12.65 -1.25 -10.5 -1.25 -10.4 -0.9 -8.8 -1.7 -9.85 -0.3 -9.85 -0.6 Q-10.3 -0.35 -10.8 -0.35 -11.3 -0.3 -11.75 -0.45 L-11.7 -0.15 Q-12.35 -0.4 -13.0 -0.75 -13.25 -0.85 -13.35 -0.75 -13.5 -0.65 -13.5 -0.25 -13.5 0.3 -13.05 0.85 -12.3 1.8 -10.7 1.8 L-9.35 1.7 -9.15 1.6 -9.2 1.6 Q-10.8 1.6 -12.1 0.8 -13.2 0.1 -13.1 -0.35 L-13.05 -0.35 Q-12.3 0.55 -11.6 0.75 -10.95 0.95 -8.7 0.95 L-8.6 0.95 -8.6 -1.25 -8.5 -4.65 -10.05 -3.75 M-1.3 -13.65 L-2.0 -13.85 -1.65 -12.0 -1.15 -13.25 -1.3 -13.65 M-0.4 -7.35 L-3.75 -4.05 -2.5 -5.8 -2.6 -5.7 Q-4.55 -3.75 -5.3 -1.25 -5.85 1.35 -5.3 4.0 L-5.15 4.55 Q-5.15 1.5 -3.85 -1.25 -2.85 -3.55 -1.45 -5.7 L-0.05 -7.3 -0.4 -7.35 M-3.05 -11.0 Q-4.45 -14.25 -7.95 -13.5 L-8.3 -13.45 -8.85 -12.6 Q-5.6 -12.1 -2.65 -10.6 L-3.05 -11.0 M-11.55 0.2 L-11.7 0.15 -11.55 0.15 -11.55 0.2" fill="#121212" fill-rule="evenodd" stroke="none"/>
  </g>
</svg>
