<?xml version="1.0" encoding="UTF-8" standalone="no"?>
<svg xmlns:ffdec="https://www.free-decompiler.com/flash" xmlns:xlink="http://www.w3.org/1999/xlink" ffdec:objectType="shape" height="23.6px" width="24.25px" xmlns="http://www.w3.org/2000/svg">
  <g transform="matrix(1.0, 0.0, 0.0, 1.0, 16.6, 17.1)">
    <path d="M0.55 -10.1 L-12.35 -4.75 Q-12.6 -6.0 -12.75 -6.45 L0.55 -10.1" fill="#c7a36d" fill-rule="evenodd" stroke="none"/>
    <path d="M3.1 -10.95 L3.1 -9.15 3.05 -9.15 3.1 -9.05 3.3 -8.85 3.3 -8.9 3.35 -9.45 3.25 -10.2 3.1 -10.95 M1.55 -13.0 Q1.55 -10.65 1.9 -9.85 L1.8 -9.8 Q2.25 -9.7 2.7 -9.4 2.25 -10.15 2.0 -11.05 1.95 -11.4 1.7 -13.55 L1.7 -13.65 1.6 -13.3 Q1.55 -13.1 1.55 -13.0 M1.3 -12.6 L1.35 -12.45 1.4 -12.8 Q1.55 -14.1 1.7 -14.35 L2.3 -11.55 Q2.5 -10.7 2.75 -9.95 L2.75 -10.35 Q2.75 -11.05 2.8 -11.9 L2.95 -11.9 Q3.05 -11.7 3.4 -10.4 3.7 -9.1 3.7 -8.75 L3.7 -8.45 Q4.4 -7.6 5.1 -6.2 5.95 -4.55 6.65 -2.55 7.0 -1.4 7.15 -0.8 L7.45 -0.15 7.45 -0.05 7.65 0.55 7.55 0.55 Q7.05 0.55 6.35 -0.6 6.1 -1.05 5.9 -1.5 L5.95 -0.1 5.9 0.75 Q5.85 1.1 5.6 1.9 L5.5 1.95 Q5.35 1.6 5.35 1.5 L5.35 0.65 Q5.25 0.85 5.15 0.95 L5.15 0.75 Q4.85 0.15 4.6 -1.0 4.25 -2.35 4.05 -2.9 3.25 -5.0 1.2 -5.95 0.85 -5.3 -1.4 -3.4 L-4.15 -1.0 -5.65 1.55 -6.1 2.35 -6.2 2.95 Q-6.5 3.85 -7.05 4.45 L-7.05 3.85 Q-7.0 1.85 -6.05 -0.1 L-7.15 0.85 Q-8.45 1.85 -9.8 2.45 L-9.65 2.7 Q-8.85 3.9 -8.85 4.95 -8.85 6.05 -9.2 6.5 L-9.3 6.5 Q-9.5 6.35 -9.45 5.95 -9.45 5.5 -9.45 5.3 -9.55 5.35 -9.7 5.75 -9.8 6.0 -10.15 6.0 L-10.35 5.95 -10.4 5.9 -10.4 5.8 Q-10.4 5.6 -10.3 5.1 -10.2 4.6 -10.2 4.45 -10.2 4.25 -10.3 3.45 L-10.4 2.7 Q-10.85 2.85 -11.35 3.0 L-11.4 2.95 -11.5 2.9 -10.75 2.35 -10.9 2.3 -11.35 2.1 Q-12.65 1.8 -13.25 1.8 L-13.45 1.85 -13.5 1.8 Q-13.5 1.55 -13.1 0.95 L-12.9 0.7 Q-13.55 0.65 -14.35 0.25 -15.1 -0.15 -15.1 -0.35 -15.1 -0.4 -14.4 -0.85 -13.95 -1.15 -13.6 -1.25 -14.6 -1.3 -15.1 -1.45 L-15.7 -1.8 Q-14.85 -2.35 -13.65 -2.95 L-12.9 -3.35 Q-14.05 -3.0 -14.8 -2.9 L-15.45 -2.9 -15.7 -3.1 Q-14.7 -3.65 -13.3 -4.8 L-12.5 -5.5 -12.85 -5.35 Q-15.25 -4.2 -15.8 -4.2 L-15.95 -4.25 -16.0 -4.25 -16.0 -4.4 Q-16.0 -4.6 -15.9 -4.9 -15.85 -5.7 -14.5 -6.75 -13.65 -7.45 -12.95 -7.65 -14.05 -7.7 -15.1 -7.95 -16.6 -8.3 -16.6 -8.65 -16.6 -8.8 -15.65 -9.0 L-13.85 -9.3 Q-13.05 -9.5 -12.0 -9.45 L-13.9 -9.9 -16.3 -9.9 -16.4 -9.95 Q-16.45 -10.0 -16.45 -10.1 -16.45 -10.65 -15.1 -10.85 -13.9 -11.05 -12.0 -10.9 L-10.7 -10.75 -11.7 -11.15 Q-12.05 -11.25 -12.35 -11.45 L-12.95 -11.75 Q-13.8 -12.15 -15.5 -12.3 L-15.7 -12.45 -15.7 -12.55 Q-15.7 -12.8 -14.35 -13.2 -12.85 -13.65 -11.5 -13.65 L-11.5 -13.7 -8.85 -13.7 Q-7.35 -13.4 -6.65 -13.2 -7.5 -13.8 -8.9 -14.35 L-9.05 -14.4 Q-11.5 -15.05 -13.0 -15.15 L-13.75 -15.15 Q-13.95 -15.15 -13.95 -15.2 -13.95 -15.4 -12.95 -15.65 -11.95 -15.95 -11.05 -16.0 L-9.9 -15.9 Q-7.2 -16.6 -3.75 -14.85 L-2.9 -14.4 -3.5 -15.0 Q-4.05 -15.6 -5.45 -16.35 -6.7 -17.1 -6.7 -16.95 -6.7 -17.35 -4.85 -16.7 L-3.6 -16.25 -3.6 -16.2 -2.8 -15.9 Q-1.35 -15.3 -0.45 -14.35 L-0.35 -14.2 0.05 -13.5 -0.3 -14.4 Q-0.8 -15.75 -0.8 -16.3 L-0.8 -16.5 Q-0.25 -16.15 0.2 -15.35 0.65 -14.4 0.9 -14.0 L1.3 -12.6 M1.1 -12.35 Q0.8 -13.15 0.5 -13.9 0.1 -14.85 -0.25 -15.35 -0.2 -14.75 0.3 -13.65 L1.05 -11.95 1.1 -11.95 1.1 -12.35 M0.5 -11.65 Q0.0 -12.65 -0.35 -13.2 -0.5 -13.35 -2.05 -14.75 L-3.2 -15.75 Q-3.95 -16.1 -4.85 -16.4 -3.65 -15.75 -2.8 -14.7 L-2.5 -14.35 -2.2 -13.75 Q-1.75 -13.35 -1.35 -12.9 -0.4 -11.75 -0.2 -11.05 -0.8 -11.55 -1.6 -12.6 -2.5 -13.8 -3.05 -14.25 L-3.15 -14.35 Q-5.0 -15.5 -8.9 -15.75 -6.85 -15.45 -5.6 -14.85 -5.2 -14.65 -4.7 -14.35 L-4.25 -13.9 Q-3.35 -13.05 -3.05 -12.8 L-3.05 -12.75 Q-3.45 -13.2 -5.5 -14.35 L-6.0 -14.55 Q-8.9 -15.7 -9.95 -15.7 L-12.0 -15.6 Q-12.3 -15.55 -12.5 -15.45 L-12.75 -15.35 Q-11.1 -15.25 -8.6 -14.5 L-8.1 -14.35 Q-6.5 -13.6 -5.95 -12.95 -5.45 -12.75 -5.2 -12.35 L-5.4 -12.45 -5.75 -12.55 -5.8 -12.55 -5.9 -12.6 -5.95 -12.65 -6.35 -12.75 Q-7.45 -13.05 -8.8 -13.25 L-11.5 -13.25 Q-12.6 -12.95 -13.2 -12.9 L-14.15 -12.75 -14.45 -12.7 Q-12.9 -12.2 -11.1 -11.4 -10.15 -10.95 -9.25 -10.5 L-8.55 -10.35 Q-6.85 -9.9 -6.2 -9.3 L-6.2 -9.25 -8.4 -9.9 -8.55 -9.95 Q-11.0 -10.55 -13.45 -10.55 -14.3 -10.55 -14.6 -10.45 L-15.1 -10.25 Q-12.95 -10.15 -11.25 -9.6 -9.6 -8.95 -8.75 -8.7 -9.25 -8.75 -10.6 -9.1 L-12.9 -8.85 -15.65 -8.65 -15.65 -8.6 -15.9 -8.55 Q-15.55 -8.4 -14.8 -8.25 -13.55 -8.0 -12.0 -8.0 L-11.2 -8.05 Q-9.95 -8.35 -8.7 -8.25 L-9.55 -8.1 -9.05 -8.1 -9.05 -8.05 -10.4 -7.8 -11.15 -7.7 Q-12.3 -7.35 -13.25 -6.85 -15.25 -5.85 -15.45 -4.75 L-15.5 -4.7 -11.35 -6.45 -10.95 -6.75 Q-9.6 -7.8 -8.3 -8.25 -6.7 -8.8 -4.85 -8.6 L-4.8 -8.55 Q-7.75 -8.35 -10.45 -6.5 L-12.6 -4.85 Q-13.95 -3.75 -14.65 -3.3 -13.65 -3.3 -11.25 -4.35 -9.05 -5.3 -7.9 -5.4 L-6.6 -6.3 Q-7.0 -5.9 -7.55 -5.35 L-9.6 -3.4 -10.45 -2.4 -10.5 -2.35 -10.5 -2.3 -10.6 -2.25 Q-11.4 -1.2 -11.6 -0.4 -11.35 -0.65 -9.4 -2.2 -8.75 -2.7 -8.3 -3.15 L-7.6 -4.45 Q-6.9 -5.85 -6.15 -6.8 -5.35 -7.8 -4.35 -8.55 L-4.0 -8.75 -4.05 -8.7 Q-3.75 -8.85 -3.3 -9.0 -2.75 -9.15 -2.3 -9.15 -1.55 -9.35 -0.95 -9.15 L-0.65 -9.0 Q-0.65 -9.8 -1.15 -10.7 -1.65 -11.65 -2.55 -12.35 L-2.5 -12.35 Q-1.6 -11.7 -0.9 -10.7 -0.35 -9.85 -0.25 -9.25 L0.05 -9.45 Q0.4 -9.65 0.7 -9.65 1.1 -9.8 1.45 -9.8 1.05 -10.45 0.65 -11.4 L0.5 -11.65 M0.4 -9.2 Q-0.1 -8.85 -0.2 -8.7 L-0.25 -8.65 Q-0.15 -8.55 -0.1 -8.4 L-0.35 -8.55 Q-0.4 -8.45 -0.55 -8.45 -0.75 -8.45 -0.7 -8.45 L-0.75 -8.45 Q-0.8 -8.45 -0.8 -8.55 L-0.75 -8.75 -1.1 -8.9 -1.55 -9.05 -1.45 -9.0 Q-2.2 -9.4 -3.35 -8.8 L-3.7 -8.7 -4.3 -8.5 Q-5.2 -7.65 -5.9 -6.65 -6.55 -5.8 -7.25 -4.35 -8.1 -2.5 -8.4 -2.0 -8.65 -1.5 -9.0 -1.1 -7.65 -2.45 -7.05 -3.2 L-5.45 -5.25 Q-4.4 -6.55 -3.55 -7.3 -4.4 -6.4 -5.2 -5.25 L-6.5 -3.3 Q-8.05 -1.0 -10.05 0.5 L-10.1 0.55 Q-9.5 0.45 -8.7 0.0 L-8.2 -0.25 -5.95 -3.0 -4.95 -4.45 Q-4.25 -5.4 -3.45 -6.0 -3.0 -6.35 -1.65 -7.1 -1.25 -7.3 -0.9 -7.8 -0.55 -8.1 0.4 -7.75 L0.5 -7.7 Q-0.7 -7.7 -1.55 -7.0 -2.45 -6.15 -3.05 -5.8 -3.85 -5.3 -4.5 -4.5 L-5.5 -3.1 -7.55 -0.4 Q-8.75 1.05 -10.1 2.15 -10.05 2.15 -10.05 2.2 -6.1 0.2 -4.95 -2.35 L-4.9 -2.35 Q-5.0 -2.1 -5.0 -1.9 L-5.0 -1.85 Q-3.6 -3.85 -1.35 -5.25 -3.8 -2.9 -5.05 -1.2 -6.65 1.05 -6.65 2.85 -6.65 2.55 -6.35 2.0 L-6.25 1.85 -6.25 1.65 Q-6.25 0.95 -4.75 -0.65 -4.1 -1.4 -2.3 -3.05 L-1.15 -4.05 Q-0.3 -4.75 0.1 -5.2 1.45 -6.65 0.8 -7.55 L0.95 -7.65 1.05 -7.65 Q1.05 -7.45 1.15 -6.9 L1.25 -6.25 Q3.15 -6.2 4.25 -3.35 5.0 -1.45 5.15 0.5 5.15 -1.85 4.2 -4.45 3.0 -7.55 1.4 -7.5 2.8 -7.75 3.55 -6.45 L4.0 -5.35 Q4.3 -4.65 4.45 -4.35 4.85 -3.55 5.15 -2.45 5.45 -1.3 5.45 -0.5 L5.45 -0.05 5.6 0.65 5.65 0.65 5.65 -0.9 Q5.25 -2.8 5.25 -3.6 5.25 -3.75 5.0 -4.45 4.7 -5.3 4.3 -6.05 3.15 -8.3 1.8 -8.3 1.5 -8.3 1.05 -8.05 L0.9 -8.1 Q0.85 -8.1 0.85 -8.2 0.85 -8.55 1.65 -8.7 2.4 -8.8 2.8 -8.3 L3.35 -7.75 3.85 -7.15 Q4.3 -6.65 4.65 -6.0 4.85 -5.55 5.2 -4.8 5.6 -3.75 5.75 -2.65 L6.1 -1.85 Q6.45 -1.0 6.85 -0.6 L6.85 -0.7 Q6.75 -1.0 6.6 -1.45 L6.4 -2.3 6.15 -2.85 5.25 -5.2 4.75 -6.35 Q4.45 -7.05 4.05 -7.5 3.3 -8.3 2.9 -8.55 2.05 -9.15 0.6 -9.35 L0.4 -9.2 M-15.0 -1.85 L-14.1 -1.75 -13.3 -1.7 -12.75 -2.35 Q-12.15 -3.0 -11.2 -3.0 -10.95 -3.0 -10.7 -2.8 L-10.3 -3.25 Q-9.5 -4.15 -8.45 -5.0 L-11.2 -3.95 -11.75 -3.75 Q-12.1 -3.45 -13.05 -2.9 -14.25 -2.2 -14.95 -1.9 L-15.0 -1.85 M-12.7 -1.4 Q-12.7 -0.45 -12.45 0.05 -12.1 0.65 -11.25 1.15 L-11.15 1.2 -11.15 1.05 -10.0 -0.05 -9.65 -0.7 Q-9.7 -0.9 -9.8 -1.1 L-10.0 -1.45 Q-10.4 -1.15 -10.9 -0.6 L-11.95 0.55 Q-12.1 0.35 -12.1 0.2 -12.1 -0.95 -11.0 -2.45 -11.2 -2.55 -11.35 -2.55 -12.1 -2.55 -12.45 -2.0 -12.7 -1.65 -12.7 -1.4 M-13.35 -0.95 L-13.6 -0.75 Q-14.15 -0.35 -14.5 -0.3 -14.1 -0.1 -13.8 0.05 L-13.05 0.35 -13.05 0.3 Q-13.2 -0.05 -13.3 -0.6 L-13.35 -0.95 M-9.5 -1.8 Q-9.45 -1.65 -9.4 -1.4 L-9.35 -1.25 -8.75 -2.35 Q-9.1 -2.05 -9.5 -1.8 M-9.05 0.55 Q-10.3 1.25 -10.9 1.25 L-11.05 1.25 -10.95 1.3 -10.8 1.35 -10.85 1.4 -10.75 1.45 Q-10.45 1.75 -10.35 1.95 -9.55 1.25 -8.75 0.35 L-9.05 0.55 M-9.8 3.35 Q-9.8 4.35 -9.9 5.1 L-9.85 5.15 -9.7 4.55 Q-9.55 4.1 -9.55 3.85 -9.55 3.75 -9.8 3.35 M-12.9 1.6 L-12.0 1.65 -11.6 1.65 Q-11.7 1.55 -12.0 1.45 L-12.1 1.35 Q-12.4 1.2 -12.6 1.0 L-12.65 1.1 -12.95 1.5 Q-13.0 1.55 -12.9 1.6" fill="#121212" fill-rule="evenodd" stroke="none"/>
    <path d="M1.55 -13.0 Q1.55 -13.1 1.6 -13.3 L1.7 -13.65 1.7 -13.55 Q1.95 -11.4 2.0 -11.05 2.25 -10.15 2.7 -9.4 2.25 -9.7 1.8 -9.8 L1.9 -9.85 Q1.55 -10.65 1.55 -13.0 M3.1 -10.95 L3.25 -10.2 3.35 -9.45 3.3 -8.9 3.3 -8.85 3.1 -9.05 3.05 -9.15 3.1 -9.15 3.1 -10.95 M-15.0 -1.85 L-14.95 -1.9 Q-14.25 -2.2 -13.05 -2.9 -12.1 -3.45 -11.75 -3.75 L-11.2 -3.95 -8.45 -5.0 Q-9.5 -4.15 -10.3 -3.25 L-10.7 -2.8 Q-10.95 -3.0 -11.2 -3.0 -12.15 -3.0 -12.75 -2.35 L-13.3 -1.7 -14.1 -1.75 -15.0 -1.85 M0.4 -9.2 L0.6 -9.35 Q2.05 -9.15 2.9 -8.55 3.3 -8.3 4.05 -7.5 4.45 -7.05 4.75 -6.35 L5.25 -5.2 6.15 -2.85 6.4 -2.3 6.6 -1.45 Q6.75 -1.0 6.85 -0.7 L6.85 -0.6 Q6.45 -1.0 6.1 -1.85 L5.75 -2.65 Q5.6 -3.75 5.2 -4.8 4.85 -5.55 4.65 -6.0 4.3 -6.65 3.85 -7.15 L3.35 -7.75 2.8 -8.3 Q2.4 -8.8 1.65 -8.7 0.85 -8.55 0.85 -8.2 0.85 -8.1 0.9 -8.1 L1.05 -8.05 Q1.5 -8.3 1.8 -8.3 3.15 -8.3 4.3 -6.05 4.7 -5.3 5.0 -4.45 5.25 -3.75 5.25 -3.6 5.25 -2.8 5.65 -0.9 L5.65 0.65 5.6 0.65 5.45 -0.05 5.45 -0.5 Q5.45 -1.3 5.15 -2.45 4.85 -3.55 4.45 -4.35 4.3 -4.65 4.0 -5.35 L3.55 -6.45 Q2.8 -7.75 1.4 -7.5 3.0 -7.55 4.2 -4.45 5.15 -1.85 5.15 0.5 5.0 -1.45 4.25 -3.35 3.15 -6.2 1.25 -6.25 L1.15 -6.9 Q1.05 -7.45 1.05 -7.65 L0.95 -7.65 0.8 -7.55 Q1.45 -6.65 0.1 -5.2 -0.3 -4.75 -1.15 -4.05 L-2.3 -3.05 Q-4.1 -1.4 -4.75 -0.65 -6.25 0.95 -6.25 1.65 L-6.25 1.85 -6.35 2.0 Q-6.65 2.55 -6.65 2.85 -6.65 1.05 -5.05 -1.2 -3.8 -2.9 -1.35 -5.25 -3.6 -3.85 -5.0 -1.85 L-5.0 -1.9 Q-5.0 -2.1 -4.9 -2.35 L-4.95 -2.35 Q-6.1 0.2 -10.05 2.2 -10.05 2.15 -10.1 2.15 -8.75 1.05 -7.55 -0.4 L-5.5 -3.1 -4.5 -4.5 Q-3.85 -5.3 -3.05 -5.8 -2.45 -6.15 -1.55 -7.0 -0.7 -7.7 0.5 -7.7 L0.4 -7.75 Q-0.55 -8.1 -0.9 -7.8 -1.25 -7.3 -1.65 -7.1 -3.0 -6.35 -3.45 -6.0 -4.25 -5.4 -4.95 -4.45 L-5.95 -3.0 -8.2 -0.25 -8.7 0.0 Q-9.5 0.45 -10.1 0.55 L-10.05 0.5 Q-8.05 -1.0 -6.5 -3.3 L-5.2 -5.25 Q-4.4 -6.4 -3.55 -7.3 -4.4 -6.55 -5.45 -5.25 L-7.05 -3.2 Q-7.65 -2.45 -9.0 -1.1 -8.65 -1.5 -8.4 -2.0 -8.1 -2.5 -7.25 -4.35 -6.55 -5.8 -5.9 -6.65 -5.2 -7.65 -4.3 -8.5 L-3.7 -8.7 -3.35 -8.8 Q-2.2 -9.4 -1.45 -9.0 L-1.55 -9.05 -1.1 -8.9 -0.75 -8.75 -0.8 -8.55 Q-0.8 -8.45 -0.75 -8.45 L-0.7 -8.45 Q-0.75 -8.45 -0.55 -8.45 -0.4 -8.45 -0.35 -8.55 L-0.1 -8.4 Q-0.15 -8.55 -0.25 -8.65 L-0.2 -8.7 Q-0.1 -8.85 0.4 -9.2 M0.5 -11.65 L0.65 -11.4 Q1.05 -10.45 1.45 -9.8 1.1 -9.8 0.7 -9.65 0.4 -9.65 0.05 -9.45 L-0.25 -9.25 Q-0.35 -9.85 -0.9 -10.7 -1.6 -11.7 -2.5 -12.35 L-2.55 -12.35 Q-1.65 -11.65 -1.15 -10.7 -0.65 -9.8 -0.65 -9.0 L-0.95 -9.15 Q-1.55 -9.35 -2.3 -9.15 -2.75 -9.15 -3.3 -9.0 -3.75 -8.85 -4.05 -8.7 L-4.0 -8.75 -4.35 -8.55 Q-5.35 -7.8 -6.15 -6.8 -6.9 -5.85 -7.6 -4.45 L-8.3 -3.15 Q-8.75 -2.7 -9.4 -2.2 -11.35 -0.65 -11.6 -0.4 -11.4 -1.2 -10.6 -2.25 L-10.5 -2.3 -10.5 -2.35 -10.45 -2.4 -9.6 -3.4 -7.55 -5.35 Q-7.0 -5.9 -6.6 -6.3 L-7.9 -5.4 Q-9.05 -5.3 -11.25 -4.35 -13.65 -3.3 -14.65 -3.3 -13.95 -3.75 -12.6 -4.85 L-10.45 -6.5 Q-7.75 -8.35 -4.8 -8.55 L-4.85 -8.6 Q-6.7 -8.8 -8.3 -8.25 -9.6 -7.8 -10.95 -6.75 L-11.35 -6.45 -15.5 -4.7 -15.45 -4.75 Q-15.25 -5.85 -13.25 -6.85 -12.3 -7.35 -11.15 -7.7 L-10.4 -7.8 -9.05 -8.05 -9.05 -8.1 -9.55 -8.1 -8.7 -8.25 Q-9.95 -8.35 -11.2 -8.05 L-12.0 -8.0 Q-13.55 -8.0 -14.8 -8.25 -15.55 -8.4 -15.9 -8.55 L-15.65 -8.6 -15.65 -8.65 -12.9 -8.85 -10.6 -9.1 Q-9.25 -8.75 -8.75 -8.7 -9.6 -8.95 -11.25 -9.6 -12.95 -10.15 -15.1 -10.25 L-14.6 -10.45 Q-14.3 -10.55 -13.45 -10.55 -11.0 -10.55 -8.55 -9.95 L-8.4 -9.9 -6.2 -9.25 -6.2 -9.3 Q-6.85 -9.9 -8.55 -10.35 L-9.25 -10.5 Q-10.15 -10.95 -11.1 -11.4 -12.9 -12.2 -14.45 -12.7 L-14.15 -12.75 -13.2 -12.9 Q-12.6 -12.95 -11.5 -13.25 L-8.8 -13.25 Q-7.45 -13.05 -6.35 -12.75 L-5.95 -12.65 -5.9 -12.6 -5.8 -12.55 -5.75 -12.55 -5.4 -12.45 -5.2 -12.35 Q-5.45 -12.75 -5.95 -12.95 -6.5 -13.6 -8.1 -14.35 L-8.6 -14.5 Q-11.1 -15.25 -12.75 -15.35 L-12.5 -15.45 Q-12.3 -15.55 -12.0 -15.6 L-9.95 -15.7 Q-8.9 -15.7 -6.0 -14.55 L-5.5 -14.35 Q-3.45 -13.2 -3.05 -12.75 L-3.05 -12.8 Q-3.35 -13.05 -4.25 -13.9 L-4.7 -14.35 Q-5.2 -14.65 -5.6 -14.85 -6.85 -15.45 -8.9 -15.75 -5.0 -15.5 -3.15 -14.35 L-3.05 -14.25 Q-2.5 -13.8 -1.6 -12.6 -0.8 -11.55 -0.2 -11.05 -0.4 -11.75 -1.35 -12.9 -1.75 -13.35 -2.2 -13.75 L-2.5 -14.35 -2.8 -14.7 Q-3.65 -15.75 -4.85 -16.4 -3.95 -16.1 -3.2 -15.75 L-2.05 -14.75 Q-0.5 -13.35 -0.35 -13.2 0.0 -12.65 0.5 -11.65 M1.1 -12.35 L1.1 -11.95 1.05 -11.95 0.3 -13.65 Q-0.2 -14.75 -0.25 -15.35 0.1 -14.85 0.5 -13.9 0.8 -13.15 1.1 -12.35 M-9.5 -1.8 Q-9.1 -2.05 -8.75 -2.35 L-9.35 -1.25 -9.4 -1.4 Q-9.45 -1.65 -9.5 -1.8 M-13.35 -0.95 L-13.3 -0.6 Q-13.2 -0.05 -13.05 0.3 L-13.05 0.35 -13.8 0.05 Q-14.1 -0.1 -14.5 -0.3 -14.15 -0.35 -13.6 -0.75 L-13.35 -0.95 M-12.9 1.6 Q-13.0 1.55 -12.95 1.5 L-12.65 1.1 -12.6 1.0 Q-12.4 1.2 -12.1 1.35 L-12.0 1.45 Q-11.7 1.55 -11.6 1.65 L-12.0 1.65 -12.9 1.6 M-9.8 3.35 Q-9.55 3.75 -9.55 3.85 -9.55 4.1 -9.7 4.55 L-9.85 5.15 -9.9 5.1 Q-9.8 4.35 -9.8 3.35" fill="#003366" fill-rule="evenodd" stroke="none"/>
  </g>
</svg>
