<?xml version="1.0" encoding="UTF-8" standalone="no"?>
<svg xmlns:ffdec="https://www.free-decompiler.com/flash" xmlns:xlink="http://www.w3.org/1999/xlink" ffdec:objectType="shape" height="19.75px" width="21.35px" xmlns="http://www.w3.org/2000/svg">
  <g transform="matrix(1.0, 0.0, 0.0, 1.0, 15.2, 14.95)">
    <path d="M-2.9 -11.55 L-2.95 -11.65 -3.1 -11.9 -3.2 -12.15 -3.25 -12.2 -3.45 -12.5 Q-3.75 -12.9 -4.1 -13.15 L-4.25 -13.25 -4.25 -13.15 -4.35 -13.25 -4.4 -13.35 -4.6 -13.6 Q-4.75 -13.8 -4.95 -14.0 -5.1 -14.1 -5.3 -14.2 L-5.25 -14.25 -4.6 -14.3 Q-3.75 -13.9 -3.2 -13.3 -2.95 -13.0 -2.8 -12.65 L-2.6 -12.15 -2.6 -12.05 -2.5 -11.8 -2.45 -11.65 Q-2.3 -11.1 -2.1 -10.75 L-2.0 -10.45 -2.0 -10.4 -1.95 -10.45 Q-1.9 -10.9 -1.8 -12.15 L-1.8 -12.25 -1.75 -12.5 -1.75 -12.6 Q-1.7 -12.85 -1.6 -13.0 L-1.5 -13.2 -1.45 -13.25 -1.3 -13.3 Q-0.45 -13.3 -0.05 -12.95 L0.15 -12.7 0.1 -12.7 0.05 -12.65 -0.35 -12.2 -0.95 -11.4 Q-1.45 -10.8 -1.65 -10.45 -1.8 -10.25 -1.8 -10.15 L-1.8 -10.05 -1.7 -10.05 -1.35 -10.4 -0.6 -11.4 -0.1 -12.0 Q0.25 -12.4 0.4 -12.45 L0.45 -12.45 Q0.8 -12.45 1.45 -11.75 1.9 -11.3 2.1 -10.9 L1.7 -11.05 1.55 -11.05 Q1.35 -11.25 0.9 -11.1 0.55 -11.0 0.05 -10.75 -0.45 -10.45 -0.95 -10.1 L-1.1 -10.0 Q-1.4 -9.75 -1.4 -9.7 L-1.4 -9.6 Q-1.9 -10.1 -2.35 -10.5 L-2.45 -10.55 -2.3 -10.5 -2.15 -10.4 -2.15 -10.45 -2.2 -10.5 -2.3 -10.7 -2.6 -11.15 -2.85 -11.5 -2.9 -11.6 -2.9 -11.55 M4.0 -7.15 L3.25 -7.9 3.2 -8.0 2.45 -8.7 2.2 -8.85 0.7 -8.8 Q0.2 -8.7 -0.05 -8.6 L-0.25 -8.45 -0.75 -8.85 -0.7 -8.8 -0.7 -8.85 Q-1.05 -9.15 -1.5 -9.5 L-1.4 -9.5 -1.4 -9.55 -1.25 -9.55 -0.7 -9.8 0.15 -10.3 Q0.7 -10.65 1.25 -10.75 L1.65 -10.8 1.65 -10.9 1.9 -10.8 2.05 -10.75 2.2 -10.65 2.25 -10.55 2.4 -10.55 2.7 -10.4 2.75 -10.35 3.0 -10.15 Q3.05 -10.05 3.1 -9.9 L3.15 -9.85 3.2 -9.55 3.25 -9.4 2.9 -9.55 2.85 -9.6 Q2.4 -9.8 1.95 -9.9 0.85 -10.05 -0.2 -9.4 L-0.75 -9.0 Q-0.85 -8.95 -0.65 -8.95 L-0.25 -9.1 0.4 -9.25 Q1.55 -9.55 2.0 -9.55 L2.15 -9.55 Q2.6 -9.5 3.05 -9.15 L3.45 -8.85 Q4.1 -8.15 4.1 -7.8 L4.05 -7.4 4.0 -7.15 M3.05 -10.5 Q3.2 -10.45 3.25 -10.3 L3.05 -10.5 M3.65 -9.15 L3.75 -9.0 3.65 -9.1 3.65 -9.15 M-13.8 -10.05 L-13.5 -10.25 -13.4 -10.3 -13.4 -10.25 -13.8 -10.05 M-3.75 -14.5 L-3.6 -14.65 -3.6 -14.55 -3.7 -14.5 -3.75 -14.5 M1.8 -8.6 L2.0 -8.55 Q2.45 -8.4 3.25 -7.6 L3.4 -7.45 4.15 -6.55 4.2 -6.45 3.95 -6.7 Q2.6 -7.95 -0.05 -8.1 L-0.05 -8.2 Q0.2 -8.4 0.9 -8.55 L1.8 -8.6 M0.75 -7.15 L0.75 -7.2 0.2 -7.4 -0.05 -7.5 -0.05 -7.6 -0.1 -7.7 -0.05 -7.7 -0.05 -7.75 -0.1 -7.9 -0.05 -7.9 -0.05 -8.0 0.3 -7.95 Q0.3 -7.85 0.5 -7.7 2.8 -7.1 3.9 -6.05 4.25 -5.75 4.45 -5.4 L4.7 -4.9 Q4.95 -4.3 5.0 -3.3 4.75 -3.75 4.4 -4.25 L3.75 -4.9 Q3.45 -5.3 3.0 -5.7 L2.6 -6.1 2.3 -6.3 1.8 -6.65 1.5 -6.85 0.75 -7.15 M-14.3 -5.5 L-14.35 -5.45 -14.5 -5.2 -14.6 -5.35 Q-14.75 -5.55 -14.75 -5.65 L-14.65 -6.0 -14.4 -6.7 -14.35 -7.0 -14.3 -7.15 -14.3 -7.1 -14.2 -7.0 -14.15 -7.0 -14.1 -7.2 -14.1 -8.3 Q-14.15 -9.05 -13.7 -9.45 L-13.55 -9.6 Q-12.4 -10.4 -7.95 -10.9 L-5.15 -11.2 -8.0 -11.05 Q-11.4 -10.85 -12.9 -10.4 L-12.85 -10.45 -12.45 -11.15 -12.1 -11.65 -11.1 -12.1 Q-10.5 -12.4 -10.05 -12.55 L-9.3 -12.8 -9.2 -12.8 -8.3 -12.65 Q-7.45 -12.45 -6.05 -11.95 L-5.1 -11.45 -4.8 -11.3 -4.25 -11.05 -3.9 -10.85 -3.95 -10.85 -4.7 -10.95 Q-6.75 -11.25 -7.75 -10.7 -8.0 -10.55 -8.25 -10.35 L-8.95 -10.0 -9.4 -9.85 -10.2 -9.5 -10.95 -9.15 -11.55 -8.8 Q-12.6 -8.15 -13.35 -7.4 -13.7 -7.25 -13.85 -7.05 -13.95 -6.9 -13.95 -6.7 -14.4 -6.1 -14.45 -5.6 L-14.5 -5.55 -14.5 -5.4 Q-14.5 -5.3 -14.45 -5.3 L-14.4 -5.35 -14.35 -5.45 -14.3 -5.5 M-2.4 -14.3 L-2.3 -14.3 Q-1.7 -14.25 -1.6 -14.0 L-1.55 -13.7 -1.5 -13.65 -1.45 -13.55 Q-1.6 -13.45 -1.75 -13.2 L-1.8 -13.1 -1.9 -12.85 -2.0 -12.45 -2.0 -12.5 -2.05 -12.8 -2.1 -13.2 -2.25 -13.8 Q-2.3 -14.1 -2.4 -14.3 M-3.35 -14.35 L-3.3 -14.4 Q-2.45 -14.35 -2.3 -13.25 L-2.3 -12.25 -2.25 -12.15 -2.25 -11.95 -2.2 -11.6 -2.5 -12.2 -2.5 -12.25 Q-2.75 -12.85 -3.05 -13.35 -3.3 -13.8 -3.55 -14.1 L-3.65 -14.25 -3.35 -14.35 M-6.15 -14.4 L-5.85 -14.15 -5.85 -14.15 Q-5.45 -13.9 -5.1 -13.5 L-4.7 -13.1 -4.5 -12.8 -3.8 -12.0 -3.5 -11.5 -3.45 -11.5 -3.45 -11.45 -3.05 -11.0 -3.5 -11.35 -3.65 -11.45 Q-4.15 -11.7 -4.7 -11.9 -5.45 -12.15 -6.25 -12.2 -7.35 -12.65 -8.2 -12.85 L-8.65 -12.95 -9.1 -13.0 -9.5 -13.0 -9.15 -13.45 -8.8 -13.85 -8.25 -14.05 -7.95 -14.15 Q-7.3 -14.4 -6.95 -14.5 L-6.6 -14.55 -6.35 -14.5 -6.15 -14.4 M-14.35 -5.5 L-14.3 -5.55 -14.35 -5.5 M-12.1 -7.75 L-11.75 -7.9 Q-10.95 -8.15 -10.65 -8.4 L-10.45 -8.55 -9.45 -9.35 -8.85 -9.75 -8.8 -9.75 -9.05 -9.55 -9.15 -9.5 -9.05 -9.5 -8.45 -9.9 Q-6.85 -10.45 -5.1 -10.45 L-4.15 -10.35 -3.8 -10.3 -2.95 -10.2 Q-2.65 -10.05 -2.4 -9.9 L-1.85 -9.5 -1.8 -9.45 Q-3.75 -10.3 -5.3 -9.75 -4.8 -10.0 -4.25 -10.05 L-4.3 -10.1 Q-5.65 -9.95 -6.75 -9.0 -7.15 -8.6 -7.55 -8.15 -7.85 -7.75 -8.1 -7.3 -8.45 -6.7 -8.7 -6.05 L-9.35 -5.35 Q-9.75 -4.9 -10.25 -4.65 -10.75 -4.45 -11.7 -4.2 L-11.75 -4.2 -12.65 -3.95 -13.65 -3.75 -13.7 -3.75 Q-13.85 -3.8 -14.0 -3.9 L-14.1 -3.95 Q-14.35 -4.1 -14.45 -4.4 L-14.4 -4.85 -14.35 -4.95 Q-14.15 -5.35 -13.95 -5.75 L-13.95 -5.7 -13.9 -5.7 -13.7 -6.25 -13.7 -6.3 -13.4 -6.65 Q-12.9 -7.2 -12.35 -7.65 L-12.1 -7.75 M-11.8 -8.1 L-11.7 -8.2 -11.15 -8.6 -10.2 -9.15 -10.75 -8.75 -11.05 -8.55 -11.8 -8.1 M-10.6 -4.15 L-10.3 -4.3 Q-9.45 -4.7 -9.0 -5.1 L-9.1 -4.75 -9.25 -4.05 -9.3 -3.55 -9.25 -3.25 -9.25 -2.8 -9.2 -2.4 -9.2 -1.65 -10.1 -1.45 Q-11.5 -1.2 -11.8 -1.2 -11.95 -1.2 -12.55 -1.35 L-12.45 -1.4 -11.45 -1.7 -11.15 -1.75 -11.7 -1.7 -12.15 -1.75 -12.35 -1.7 -12.85 -1.4 Q-13.4 -1.1 -13.75 -1.1 -14.3 -1.1 -14.4 -1.5 -14.45 -1.7 -14.4 -1.85 -14.4 -2.3 -14.35 -2.4 -14.3 -2.5 -14.05 -2.45 -12.7 -2.2 -11.85 -2.2 L-11.7 -2.2 -11.15 -2.3 Q-9.8 -2.55 -9.55 -2.45 L-9.4 -2.55 -9.3 -2.75 -9.35 -2.8 -9.4 -2.8 Q-9.55 -2.75 -9.95 -2.6 L-10.3 -2.6 Q-10.5 -2.6 -10.95 -2.45 L-11.05 -2.4 -11.15 -2.4 -11.5 -2.45 -12.4 -2.45 -12.5 -2.4 -13.15 -2.35 -13.2 -2.35 -13.4 -2.5 -13.7 -2.7 -13.8 -2.75 Q-14.25 -3.05 -14.4 -3.25 L-14.35 -3.25 -13.85 -3.3 Q-11.95 -3.6 -10.6 -4.15 L-10.85 -4.0 -10.85 -3.95 -10.6 -4.15 M-13.55 -0.75 L-12.9 -0.9 -12.95 -0.85 -11.7 -0.8 -11.6 -0.75 Q-11.55 -0.75 -11.55 -0.65 -11.55 -0.5 -11.7 -0.45 L-12.45 -0.4 Q-13.1 -0.4 -13.4 -0.55 -13.55 -0.65 -13.55 -0.75 M-7.5 -0.6 L-7.5 -1.05 -7.45 -1.45 -7.45 -1.8 Q-7.35 -2.6 -7.15 -3.25 L-7.0 -3.85 Q-6.65 -4.95 -6.15 -5.75 L-5.95 -6.1 Q-5.45 -6.7 -4.85 -7.2 L-4.2 -7.7 Q-3.65 -8.1 -3.05 -8.4 L-2.3 -8.5 -2.15 -8.5 Q-1.8 -8.5 -1.35 -8.3 L-1.3 -8.3 -1.05 -8.15 -0.95 -8.1 -0.9 -8.05 -0.75 -7.95 -1.05 -7.9 -1.2 -7.8 Q-1.5 -7.6 -1.9 -7.25 -3.0 -6.6 -3.95 -5.7 -4.45 -5.2 -4.9 -4.6 L-5.55 -3.65 -6.15 -2.65 -6.25 -2.45 -6.45 -1.95 -6.7 -1.85 Q-6.85 -1.75 -7.0 -1.55 -7.15 -1.4 -7.25 -1.2 L-7.35 -1.05 -7.4 -0.8 -7.5 -0.65 -7.5 -0.6 M-5.35 -7.5 L-5.4 -7.4 Q-6.1 -6.7 -6.65 -5.6 L-6.75 -5.45 -7.05 -4.9 Q-7.55 -3.9 -7.75 -2.85 -7.9 -2.2 -7.95 -1.5 L-7.95 -1.2 -8.0 -1.2 -8.1 -1.05 -8.25 -0.65 -8.6 0.25 -8.7 -0.3 -8.7 -0.6 -8.75 -1.15 -8.75 -1.55 -8.45 -1.7 -8.6 -1.75 -8.75 -1.75 -8.8 -1.7 -8.8 -2.1 -8.85 -2.55 -8.85 -3.0 -8.9 -3.4 -8.9 -3.55 Q-8.9 -4.0 -8.75 -4.55 L-8.6 -5.2 -8.25 -6.05 Q-8.0 -6.65 -7.7 -7.25 L-7.45 -7.55 Q-6.95 -8.4 -6.35 -8.95 L-6.2 -9.05 Q-6.05 -9.15 -5.9 -9.2 -4.95 -9.6 -3.8 -9.6 -2.85 -9.6 -2.15 -9.35 L-1.95 -9.25 -1.7 -9.1 -1.25 -8.75 -0.95 -8.45 -1.05 -8.5 -1.1 -8.5 Q-1.4 -8.7 -1.75 -8.75 L-1.95 -8.8 -1.9 -8.9 Q-1.9 -9.0 -1.95 -9.0 L-2.5 -8.8 Q-2.95 -8.8 -3.45 -8.6 -4.5 -8.4 -5.35 -7.5 M-13.1 -0.05 L-12.4 -0.1 -11.1 -0.1 -11.65 0.35 -12.65 1.25 Q-12.75 1.15 -12.95 0.6 -13.15 0.15 -13.15 0.05 L-13.1 -0.05 M-10.0 -0.25 Q-9.7 -0.4 -9.45 -0.55 L-9.1 -0.8 -9.1 -0.75 Q-9.2 -0.05 -9.4 0.45 -10.0 1.75 -10.25 3.2 L-10.4 2.3 -10.45 1.5 Q-10.45 1.15 -10.2 0.3 L-10.0 -0.25 M-10.65 -0.65 L-10.75 -0.75 -10.95 -0.9 -11.05 -0.9 -9.85 -1.0 Q-9.65 -1.05 -9.35 -1.25 L-9.15 -1.35 -9.15 -1.15 Q-9.5 -1.1 -9.8 -0.95 L-10.15 -0.8 -10.65 -0.65 M-5.45 -10.75 Q-4.5 -10.75 -3.6 -10.45 -5.3 -10.7 -6.95 -10.45 L-5.45 -10.75 M-0.4 -7.75 L-0.5 -7.6 -0.75 -7.15 -0.85 -7.0 -0.85 -7.05 -0.95 -7.0 -1.05 -6.75 -1.25 -6.45 -1.3 -6.35 -1.5 -6.1 Q-2.15 -5.3 -2.7 -4.85 L-3.8 -3.9 Q-5.15 -3.25 -6.2 -1.45 L-6.45 -0.9 Q-6.3 -1.4 -6.1 -1.9 -5.9 -2.45 -5.6 -3.0 L-5.5 -3.15 -5.35 -3.35 -5.35 -3.4 Q-4.75 -4.35 -3.95 -5.2 -3.45 -5.75 -2.9 -6.25 L-3.1 -6.0 -3.95 -5.1 Q-4.0 -4.8 -4.15 -4.5 L-3.3 -5.3 -1.9 -6.7 Q-1.1 -7.5 -0.85 -7.7 L-0.7 -7.8 -0.4 -7.75 M-0.3 -7.75 L-0.3 -7.75 M-2.05 -8.8 L-2.05 -8.8 M-5.1 -3.45 L-5.05 -3.5 -4.75 -3.75 -5.1 -3.45 M-4.65 -3.0 L-4.8 -2.8 -4.9 -2.75 -4.65 -3.0 M-10.75 0.2 L-11.2 1.55 Q-11.5 2.45 -11.7 2.85 L-12.0 2.5 Q-12.15 2.25 -12.15 2.1 -12.15 1.6 -11.8 1.1 -11.45 0.5 -10.75 0.2" fill="#003366" fill-rule="evenodd" stroke="none"/>
    <path d="M-2.85 -11.5 L-2.6 -11.15 -2.3 -10.7 -2.2 -10.5 -2.15 -10.45 -2.15 -10.4 -2.3 -10.5 -2.45 -10.55 -2.35 -10.5 Q-1.9 -10.1 -1.4 -9.6 L-1.4 -9.7 Q-1.4 -9.75 -1.1 -10.0 L-0.95 -10.1 Q-0.45 -10.45 0.05 -10.75 0.55 -11.0 0.9 -11.1 1.35 -11.25 1.55 -11.05 L1.7 -11.05 2.1 -10.9 Q1.9 -11.3 1.45 -11.75 0.8 -12.45 0.45 -12.45 L0.4 -12.45 Q0.25 -12.4 -0.1 -12.0 L-0.6 -11.4 -1.35 -10.4 -1.7 -10.05 -1.8 -10.05 -1.8 -10.15 Q-1.8 -10.25 -1.65 -10.45 -1.45 -10.8 -0.95 -11.4 L-0.35 -12.2 0.05 -12.65 0.1 -12.7 0.15 -12.7 -0.05 -12.95 Q-0.45 -13.3 -1.3 -13.3 L-1.45 -13.25 -1.5 -13.2 -1.6 -13.0 Q-1.7 -12.85 -1.75 -12.6 L-1.75 -12.5 -1.8 -12.25 -1.8 -12.15 Q-1.9 -10.9 -1.95 -10.45 L-2.0 -10.4 -2.0 -10.45 -2.1 -10.75 Q-2.3 -11.1 -2.45 -11.65 L-2.5 -11.8 -2.6 -12.05 -2.6 -12.15 -2.8 -12.65 Q-2.95 -13.0 -3.2 -13.3 -3.75 -13.9 -4.6 -14.3 L-5.25 -14.25 -5.3 -14.2 Q-5.1 -14.1 -4.95 -14.0 -4.75 -13.8 -4.6 -13.6 L-4.4 -13.35 -4.35 -13.25 -4.25 -13.15 -4.25 -13.25 -4.1 -13.15 Q-3.75 -12.9 -3.45 -12.5 L-3.25 -12.2 -3.2 -12.15 -3.1 -11.9 -2.95 -11.65 -2.9 -11.55 -2.85 -11.5 M3.1 -9.9 Q3.05 -10.05 3.0 -10.15 L2.75 -10.35 2.7 -10.4 2.4 -10.55 2.25 -10.55 2.2 -10.65 2.05 -10.75 1.9 -10.8 1.65 -10.9 1.65 -10.8 1.25 -10.75 Q0.7 -10.65 0.15 -10.3 L-0.7 -9.8 -1.25 -9.55 -1.4 -9.55 -1.4 -9.5 -1.5 -9.5 Q-1.05 -9.15 -0.7 -8.85 L-0.7 -8.8 -0.75 -8.85 -0.25 -8.45 -0.05 -8.6 Q0.2 -8.7 0.7 -8.8 L2.2 -8.85 2.45 -8.7 3.2 -8.0 3.25 -7.9 4.0 -7.15 4.05 -7.4 4.1 -7.8 Q4.1 -8.15 3.45 -8.85 L3.05 -9.15 Q2.6 -9.5 2.15 -9.55 L2.0 -9.55 Q1.55 -9.55 0.4 -9.25 L-0.25 -9.1 -0.65 -8.95 Q-0.85 -8.95 -0.75 -9.0 L-0.2 -9.4 Q0.85 -10.05 1.95 -9.9 2.4 -9.8 2.85 -9.6 L2.9 -9.55 3.25 -9.4 3.2 -9.55 3.15 -9.85 3.1 -9.9 M-3.6 -14.65 Q-3.6 -14.7 -3.6 -14.65 -2.95 -15.3 -2.5 -14.55 L-1.65 -14.5 Q-1.55 -14.4 -1.35 -14.1 L-1.2 -13.75 -1.2 -13.7 Q-0.6 -13.9 0.45 -12.8 0.9 -12.8 1.55 -12.1 1.95 -11.75 2.25 -11.35 2.5 -11.0 2.5 -10.9 L2.5 -10.75 Q2.85 -10.6 3.05 -10.5 L3.25 -10.3 Q3.6 -9.95 3.65 -9.15 L3.65 -9.1 3.75 -9.0 4.05 -8.65 Q4.5 -8.15 4.5 -7.85 4.5 -7.7 4.35 -7.3 L4.25 -7.1 Q4.6 -7.05 4.75 -6.25 L4.8 -5.75 4.75 -5.75 Q5.45 -4.55 5.45 -2.75 5.45 -2.15 5.35 -1.8 L5.5 -1.35 5.55 -1.1 Q5.85 0.0 5.85 1.6 5.85 1.8 6.0 2.2 L6.15 2.8 Q5.7 1.9 5.1 -0.7 4.85 -1.6 4.6 -2.35 4.05 -3.3 3.5 -3.8 3.05 -4.25 1.4 -5.4 0.45 -6.1 -0.05 -6.75 -1.75 -2.85 -4.0 -0.35 -5.4 1.1 -6.7 1.75 L-6.95 2.35 Q-7.6 3.75 -8.55 4.05 -8.75 4.5 -8.9 4.65 L-8.65 4.1 -9.05 4.15 -9.1 4.1 Q-8.75 3.9 -8.5 3.65 -8.3 3.0 -8.1 2.25 L-8.7 2.35 -8.8 2.8 Q-9.1 4.25 -9.3 4.7 L-9.45 4.05 Q-9.45 3.55 -9.25 2.25 L-9.4 2.25 Q-9.55 2.3 -9.6 2.25 L-9.25 2.15 -9.1 1.2 -9.2 1.2 -9.2 1.15 -9.3 1.3 Q-9.9 2.3 -9.9 2.8 -9.9 3.35 -9.75 3.85 -9.65 4.4 -9.65 4.5 L-9.65 4.7 -9.7 4.75 Q-9.75 4.8 -9.85 4.8 -10.3 4.8 -10.6 3.8 -10.85 2.95 -10.85 2.2 L-10.95 2.1 Q-11.0 2.5 -11.1 2.85 -11.3 3.5 -11.6 3.5 -11.9 3.5 -13.8 -0.05 L-13.95 -0.05 -14.05 -0.15 Q-14.1 -0.2 -14.1 -0.35 L-14.0 -0.7 Q-14.7 -0.8 -14.75 -1.6 -14.75 -2.05 -14.65 -2.6 -14.65 -2.65 -14.75 -2.8 -14.85 -2.95 -14.85 -3.0 L-14.85 -3.1 -14.95 -3.3 -15.05 -3.4 -15.05 -3.55 -15.2 -3.85 -15.2 -3.9 -15.15 -3.85 -15.0 -3.75 Q-14.95 -3.9 -14.8 -3.95 L-14.75 -3.95 Q-14.8 -4.1 -14.8 -4.25 L-14.8 -4.35 -15.0 -4.45 -14.9 -4.65 -14.75 -4.8 -14.75 -4.95 Q-14.85 -5.05 -15.0 -5.25 -15.15 -5.55 -15.15 -5.6 -15.15 -5.8 -14.9 -6.55 -14.55 -7.45 -14.5 -7.65 L-14.45 -8.45 Q-14.45 -9.15 -14.4 -9.35 L-14.35 -9.45 -14.3 -9.7 -14.2 -9.65 Q-14.05 -9.9 -13.8 -10.05 L-13.4 -10.25 -13.4 -10.3 Q-13.3 -10.9 -12.75 -11.45 -12.1 -12.15 -11.15 -12.45 L-11.0 -12.55 Q-10.45 -12.85 -9.9 -12.95 -9.85 -13.35 -9.6 -13.65 -9.35 -13.95 -8.9 -14.15 -7.8 -15.05 -6.25 -14.65 L-5.8 -14.5 -5.45 -14.35 -5.3 -14.4 -4.85 -14.5 Q-4.45 -15.0 -3.85 -14.45 L-3.75 -14.5 -3.7 -14.5 -3.6 -14.55 -3.6 -14.65 M0.75 -7.15 L1.5 -6.85 1.8 -6.65 2.3 -6.3 2.6 -6.1 3.0 -5.7 Q3.45 -5.3 3.75 -4.9 L4.4 -4.25 Q4.75 -3.75 5.0 -3.3 4.95 -4.3 4.7 -4.9 L4.45 -5.4 Q4.25 -5.75 3.9 -6.05 2.8 -7.1 0.5 -7.7 0.3 -7.85 0.3 -7.95 L-0.05 -8.0 -0.05 -7.9 -0.1 -7.9 -0.05 -7.75 -0.05 -7.7 -0.1 -7.7 -0.05 -7.6 -0.05 -7.5 0.2 -7.4 0.75 -7.2 0.75 -7.15 M1.8 -8.6 L0.9 -8.55 Q0.2 -8.4 -0.05 -8.2 L-0.05 -8.1 Q2.6 -7.95 3.95 -6.7 L4.2 -6.45 4.15 -6.55 3.4 -7.45 3.25 -7.6 Q2.45 -8.4 2.0 -8.55 L1.8 -8.6 M4.0 -7.15 L4.0 -7.15 M0.5 -6.5 Q1.0 -5.9 1.5 -5.75 1.7 -5.6 2.45 -5.05 L3.2 -4.55 2.85 -4.9 Q1.65 -6.25 0.4 -6.6 L0.5 -6.5 M-6.15 -14.4 L-6.35 -14.5 -6.6 -14.55 -6.95 -14.5 Q-7.3 -14.4 -7.95 -14.15 L-8.25 -14.05 -8.8 -13.85 -9.15 -13.45 -9.5 -13.0 -9.1 -13.0 -8.65 -12.95 -8.2 -12.85 Q-7.35 -12.65 -6.25 -12.2 -5.45 -12.15 -4.7 -11.9 -4.15 -11.7 -3.65 -11.45 L-3.5 -11.35 -3.05 -11.0 -3.45 -11.45 -3.45 -11.5 -3.5 -11.5 -3.8 -12.0 -4.5 -12.8 -4.7 -13.1 -5.1 -13.5 Q-5.45 -13.9 -5.85 -14.15 L-5.85 -14.15 -6.15 -14.4 M-3.35 -14.35 L-3.65 -14.25 -3.55 -14.1 Q-3.3 -13.8 -3.05 -13.35 -2.75 -12.85 -2.5 -12.25 L-2.5 -12.2 -2.2 -11.6 -2.25 -11.95 -2.25 -12.15 -2.3 -12.25 -2.3 -13.25 Q-2.45 -14.35 -3.3 -14.4 L-3.35 -14.35 M-2.4 -14.3 Q-2.3 -14.1 -2.25 -13.8 L-2.1 -13.2 -2.05 -12.8 -2.0 -12.5 -2.0 -12.45 -1.9 -12.85 -1.8 -13.1 -1.75 -13.2 Q-1.6 -13.45 -1.45 -13.55 L-1.5 -13.65 -1.55 -13.7 -1.6 -14.0 Q-1.7 -14.25 -2.3 -14.3 L-2.4 -14.3 M-14.35 -5.45 L-14.4 -5.35 -14.45 -5.3 Q-14.5 -5.3 -14.5 -5.4 L-14.5 -5.55 -14.45 -5.6 Q-14.4 -6.1 -13.95 -6.7 -13.95 -6.9 -13.85 -7.05 -13.7 -7.25 -13.35 -7.4 -12.6 -8.15 -11.55 -8.8 L-10.95 -9.15 -10.2 -9.5 -9.4 -9.85 -8.95 -10.0 -8.25 -10.35 Q-8.0 -10.55 -7.75 -10.7 -6.75 -11.25 -4.7 -10.95 L-3.95 -10.85 -3.9 -10.85 -4.25 -11.05 -4.8 -11.3 -5.1 -11.45 -6.05 -11.95 Q-7.45 -12.45 -8.3 -12.65 L-9.2 -12.8 -9.3 -12.8 -10.05 -12.55 Q-10.5 -12.4 -11.1 -12.1 L-12.1 -11.65 -12.45 -11.15 -12.85 -10.45 -12.9 -10.4 Q-11.4 -10.85 -8.0 -11.05 L-5.15 -11.2 -7.95 -10.9 Q-12.4 -10.4 -13.55 -9.6 L-13.7 -9.45 Q-14.15 -9.05 -14.1 -8.3 L-14.1 -7.2 -14.15 -7.0 -14.2 -7.0 -14.3 -7.1 -14.3 -7.15 -14.35 -7.0 -14.4 -6.7 -14.65 -6.0 -14.75 -5.65 Q-14.75 -5.55 -14.6 -5.35 L-14.5 -5.2 -14.35 -5.45 -14.3 -5.5 -14.3 -5.55 -14.35 -5.5 -14.35 -5.45 M-11.8 -8.1 L-11.05 -8.55 -10.75 -8.75 -10.2 -9.15 -11.15 -8.6 -11.7 -8.2 -11.8 -8.1 M-12.1 -7.75 L-12.35 -7.65 Q-12.9 -7.2 -13.4 -6.65 L-13.7 -6.3 -13.7 -6.25 -13.9 -5.7 -13.95 -5.7 -13.95 -5.75 Q-14.15 -5.35 -14.35 -4.95 L-14.4 -4.85 -14.45 -4.4 Q-14.35 -4.1 -14.1 -3.95 L-14.0 -3.9 Q-13.85 -3.8 -13.7 -3.75 L-13.65 -3.75 -12.65 -3.95 -11.75 -4.2 -11.7 -4.2 Q-10.75 -4.45 -10.25 -4.65 -9.75 -4.9 -9.35 -5.35 L-8.7 -6.05 Q-8.45 -6.7 -8.1 -7.3 -7.85 -7.75 -7.55 -8.15 -7.15 -8.6 -6.75 -9.0 -5.65 -9.95 -4.3 -10.1 L-4.25 -10.05 Q-4.8 -10.0 -5.3 -9.75 -3.75 -10.3 -1.8 -9.45 L-1.85 -9.5 -2.4 -9.9 Q-2.65 -10.05 -2.95 -10.2 L-3.8 -10.3 -4.15 -10.35 -5.1 -10.45 Q-6.85 -10.45 -8.45 -9.9 L-9.05 -9.5 -9.15 -9.5 -9.05 -9.55 -8.8 -9.75 -8.85 -9.75 -9.45 -9.35 -10.45 -8.55 -10.65 -8.4 Q-10.95 -8.15 -11.75 -7.9 L-12.1 -7.75 M-14.6 -3.65 L-14.55 -3.65 -14.6 -3.7 -14.6 -3.65 M-13.15 -2.35 L-12.5 -2.4 -12.4 -2.45 -11.5 -2.45 -11.15 -2.4 -11.05 -2.4 -10.95 -2.45 Q-10.5 -2.6 -10.3 -2.6 L-9.95 -2.6 Q-9.55 -2.75 -9.4 -2.8 L-9.35 -2.8 -9.3 -2.75 -9.4 -2.55 -9.55 -2.45 Q-9.8 -2.55 -11.15 -2.3 L-11.7 -2.2 -11.85 -2.2 Q-12.7 -2.2 -14.05 -2.45 -14.3 -2.5 -14.35 -2.4 -14.4 -2.3 -14.4 -1.85 -14.45 -1.7 -14.4 -1.5 -14.3 -1.1 -13.75 -1.1 -13.4 -1.1 -12.85 -1.4 L-12.35 -1.7 -12.15 -1.75 -11.7 -1.7 -11.15 -1.75 -11.45 -1.7 -12.45 -1.4 -12.55 -1.35 Q-11.95 -1.2 -11.8 -1.2 -11.5 -1.2 -10.1 -1.45 L-9.2 -1.65 -9.2 -2.4 -9.25 -2.8 -9.25 -3.25 -9.3 -3.55 -9.25 -4.05 -9.1 -4.75 -9.0 -5.1 Q-9.45 -4.7 -10.3 -4.3 L-10.6 -4.15 Q-11.95 -3.6 -13.85 -3.3 L-14.35 -3.25 -14.4 -3.25 Q-14.25 -3.05 -13.8 -2.75 L-13.7 -2.7 -13.4 -2.5 -13.2 -2.35 -13.15 -2.35 M-13.55 -0.75 Q-13.55 -0.65 -13.4 -0.55 -13.1 -0.4 -12.45 -0.4 L-11.7 -0.45 Q-11.55 -0.5 -11.55 -0.65 -11.55 -0.75 -11.6 -0.75 L-11.7 -0.8 -12.95 -0.85 -12.9 -0.9 -13.55 -0.75 M-13.1 -0.05 L-13.15 0.05 Q-13.15 0.15 -12.95 0.6 -12.75 1.15 -12.65 1.25 L-11.65 0.35 -11.1 -0.1 -12.4 -0.1 -13.1 -0.05 M-5.35 -7.5 Q-4.5 -8.4 -3.45 -8.6 -2.95 -8.8 -2.5 -8.8 L-1.95 -9.0 Q-1.9 -9.0 -1.9 -8.9 L-1.95 -8.8 -1.75 -8.75 Q-1.4 -8.7 -1.1 -8.5 L-1.05 -8.5 -0.95 -8.45 -1.25 -8.75 -1.7 -9.1 -1.95 -9.25 -2.15 -9.35 Q-2.85 -9.6 -3.8 -9.6 -4.95 -9.6 -5.9 -9.2 -6.05 -9.15 -6.2 -9.05 L-6.35 -8.95 Q-6.95 -8.4 -7.45 -7.55 L-7.7 -7.25 Q-8.0 -6.65 -8.25 -6.05 L-8.6 -5.2 -8.75 -4.55 Q-8.9 -4.0 -8.9 -3.55 L-8.9 -3.4 -8.85 -3.0 -8.85 -2.55 -8.8 -2.1 -8.8 -1.7 -8.75 -1.75 -8.6 -1.75 -8.45 -1.7 -8.75 -1.55 -8.75 -1.15 -8.7 -0.6 -8.7 -0.3 -8.6 0.25 -8.25 -0.65 -8.1 -1.05 -8.0 -1.2 -7.95 -1.2 -7.95 -1.5 Q-7.9 -2.2 -7.75 -2.85 -7.55 -3.9 -7.05 -4.9 L-6.75 -5.45 -6.65 -5.6 Q-6.1 -6.7 -5.4 -7.4 L-5.35 -7.5 M-7.5 -0.65 L-7.4 -0.8 -7.35 -1.05 -7.25 -1.2 Q-7.15 -1.4 -7.0 -1.55 -6.85 -1.75 -6.7 -1.85 L-6.45 -1.95 -6.25 -2.45 -6.15 -2.65 -5.55 -3.65 -4.9 -4.6 Q-4.45 -5.2 -3.95 -5.7 -3.0 -6.6 -1.9 -7.25 -1.5 -7.6 -1.2 -7.8 L-1.05 -7.9 -0.75 -7.95 -0.9 -8.05 -0.95 -8.1 -1.05 -8.15 -1.3 -8.3 -1.35 -8.3 Q-1.8 -8.5 -2.15 -8.5 L-2.3 -8.5 -3.05 -8.4 Q-3.65 -8.1 -4.2 -7.7 L-4.85 -7.2 Q-5.45 -6.7 -5.95 -6.1 L-6.15 -5.75 Q-6.65 -4.95 -7.0 -3.85 L-7.15 -3.25 Q-7.35 -2.6 -7.45 -1.8 L-7.45 -1.45 -7.5 -1.05 -7.5 -0.6 -7.55 -0.55 -7.5 -0.65 M-2.05 -8.8 L-2.05 -8.8 M-0.3 -7.75 L-0.3 -7.75 M-0.4 -7.75 L-0.7 -7.8 -0.85 -7.7 Q-1.1 -7.5 -1.9 -6.7 L-3.3 -5.3 -4.15 -4.5 Q-4.0 -4.8 -3.95 -5.1 L-3.1 -6.0 -2.9 -6.25 Q-3.45 -5.75 -3.95 -5.2 -4.75 -4.35 -5.35 -3.4 L-5.35 -3.35 -5.5 -3.15 -5.6 -3.0 Q-5.9 -2.45 -6.1 -1.9 -6.3 -1.4 -6.45 -0.9 L-6.2 -1.45 Q-5.15 -3.25 -3.8 -3.9 L-2.7 -4.85 Q-2.15 -5.3 -1.5 -6.1 L-1.3 -6.35 -1.25 -6.45 -1.05 -6.75 -0.95 -7.0 -0.85 -7.05 -0.85 -7.0 -0.75 -7.15 -0.5 -7.6 -0.4 -7.75 M-5.45 -10.75 L-6.95 -10.45 Q-5.3 -10.7 -3.6 -10.45 -4.5 -10.75 -5.45 -10.75 M-10.65 -0.65 L-10.15 -0.8 -9.8 -0.95 Q-9.5 -1.1 -9.15 -1.15 L-9.15 -1.35 -9.35 -1.25 Q-9.65 -1.05 -9.85 -1.0 L-11.05 -0.9 -10.95 -0.9 -10.75 -0.75 -10.65 -0.65 M-10.0 -0.25 L-10.2 0.3 Q-10.45 1.15 -10.45 1.5 L-10.4 2.3 -10.25 3.2 Q-10.0 1.75 -9.4 0.45 -9.2 -0.05 -9.1 -0.75 L-9.1 -0.8 -9.45 -0.55 Q-9.7 -0.4 -10.0 -0.25 M-7.95 -0.5 Q-8.05 -0.2 -8.3 0.3 L-8.55 0.8 -8.55 1.3 Q-8.55 1.4 -8.65 2.0 L-8.05 1.8 -7.8 0.4 -7.9 -0.05 -7.9 -0.15 -7.95 -0.5 M-7.05 -0.6 L-7.15 -0.4 -7.25 0.1 -7.35 1.0 -7.35 1.05 -7.45 1.55 -7.2 1.45 -7.15 1.0 Q-7.1 -0.05 -6.75 -1.1 L-7.05 -0.6 M-2.15 -4.65 L-2.75 -4.2 Q-3.6 -3.45 -4.45 -2.65 -5.25 -1.85 -5.35 -1.6 L-6.4 0.8 -6.5 1.15 Q-5.7 0.75 -5.1 0.3 -3.65 -0.75 -2.9 -2.2 L-2.15 -3.5 Q-1.65 -4.4 -1.45 -4.8 -1.3 -5.1 -1.1 -5.75 L-2.0 -4.85 -2.15 -4.65 M-4.65 -3.0 L-4.9 -2.75 -4.8 -2.8 -4.65 -3.0 M-7.5 1.6 L-7.45 1.55 -7.45 1.45 -7.5 1.6 M-7.7 2.15 L-8.05 3.1 -8.15 3.3 Q-7.65 2.75 -7.35 2.05 L-7.7 2.15 M-10.75 0.2 Q-11.45 0.5 -11.8 1.1 -12.15 1.6 -12.15 2.1 -12.15 2.25 -12.0 2.5 L-11.7 2.85 Q-11.5 2.45 -11.2 1.55 L-10.75 0.2" fill="#121212" fill-rule="evenodd" stroke="none"/>
  </g>
</svg>
