<?xml version="1.0" encoding="UTF-8" standalone="no"?>
<svg xmlns:ffdec="https://www.free-decompiler.com/flash" xmlns:xlink="http://www.w3.org/1999/xlink" ffdec:objectType="shape" height="20.95px" width="20.75px" xmlns="http://www.w3.org/2000/svg">
  <g transform="matrix(1.0, 0.0, 0.0, 1.0, 15.7, 15.55)">
    <path d="M-8.9 -14.35 L-9.45 -14.7 Q-10.2 -15.15 -10.9 -15.15 L-11.0 -15.15 -11.5 -15.1 -11.8 -15.0 Q-12.4 -14.7 -13.05 -14.15 L-13.45 -13.8 -13.8 -13.45 -13.9 -13.3 -13.95 -13.2 -14.0 -13.2 -14.0 -13.15 -13.8 -13.2 -13.7 -13.25 -13.45 -13.3 -13.4 -13.3 Q-12.6 -13.35 -12.15 -13.1 -11.8 -12.9 -11.8 -12.65 -11.8 -12.55 -11.8 -12.45 L-11.85 -12.35 -11.95 -12.3 -12.0 -12.3 -12.0 -12.15 -12.2 -11.95 Q-12.3 -12.05 -12.4 -12.35 -12.55 -12.75 -13.0 -12.75 -13.65 -12.7 -14.05 -12.5 L-14.1 -12.5 -14.1 -12.4 -14.2 -12.2 -14.3 -11.95 -14.3 -11.7 Q-14.25 -11.3 -14.05 -11.1 L-13.95 -11.0 Q-13.4 -10.75 -13.05 -10.5 L-13.1 -10.4 -13.25 -10.35 Q-13.95 -10.35 -14.35 -10.85 L-14.4 -10.95 Q-14.65 -11.3 -14.65 -11.6 L-14.65 -11.95 -14.9 -11.7 Q-15.15 -11.4 -15.25 -11.2 L-15.25 -11.15 -15.3 -10.95 -15.25 -10.9 Q-15.25 -10.7 -15.1 -10.4 L-15.05 -10.4 -15.05 -10.35 -15.0 -10.3 -14.85 -9.95 -14.75 -9.85 Q-14.2 -9.05 -14.2 -8.75 L-14.2 -8.65 Q-14.5 -8.65 -15.05 -9.6 L-15.1 -9.2 Q-15.1 -8.8 -14.75 -8.55 L-14.25 -8.15 -14.05 -7.9 -14.2 -7.8 Q-14.35 -7.8 -14.65 -8.0 L-14.55 -7.8 -14.35 -7.35 Q-14.3 -7.2 -14.3 -7.05 L-14.4 -6.85 Q-14.7 -6.85 -14.95 -7.45 -15.1 -7.75 -15.15 -8.05 L-15.1 -8.35 Q-15.45 -8.7 -15.45 -8.85 -15.45 -9.3 -15.4 -9.45 L-15.25 -9.95 Q-15.7 -10.75 -15.7 -11.05 -15.7 -11.55 -14.9 -12.4 L-14.65 -12.6 Q-14.65 -13.05 -14.5 -13.3 L-14.2 -13.6 Q-14.0 -14.1 -13.35 -14.55 -13.1 -14.75 -12.75 -14.9 -11.85 -15.5 -10.85 -15.55 L-10.2 -15.45 -9.1 -15.4 Q-8.15 -15.2 -8.15 -14.7 L-8.9 -14.35" fill="#121212" fill-rule="evenodd" stroke="none"/>
    <path d="M-14.25 -8.15 L-14.75 -8.55 Q-15.1 -8.8 -15.1 -9.2 L-15.05 -9.6 Q-14.5 -8.65 -14.2 -8.65 L-14.2 -8.75 Q-14.2 -9.05 -14.75 -9.85 L-14.85 -9.95 -15.0 -10.3 -15.05 -10.35 -15.05 -10.4 -15.1 -10.4 Q-15.25 -10.7 -15.25 -10.9 L-15.3 -10.95 -15.25 -11.15 -15.25 -11.2 Q-15.15 -11.4 -14.9 -11.7 L-14.65 -11.95 -14.65 -11.6 Q-14.65 -11.3 -14.4 -10.95 L-14.35 -10.85 Q-13.95 -10.35 -13.25 -10.35 L-13.1 -10.4 -13.05 -10.5 Q-13.4 -10.75 -13.95 -11.0 L-14.05 -11.1 Q-14.25 -11.3 -14.3 -11.7 L-14.3 -11.95 -14.2 -12.2 -14.1 -12.4 -14.1 -12.5 -14.05 -12.5 Q-13.65 -12.7 -13.0 -12.75 -12.55 -12.75 -12.4 -12.35 -12.3 -12.05 -12.2 -11.95 L-14.25 -8.15" fill="#003366" fill-rule="evenodd" stroke="none"/>
    <path d="M-10.9 -15.15 Q-10.2 -15.15 -9.45 -14.7 L-8.9 -14.35 -9.45 -13.3 -12.0 -12.15 -12.0 -12.3 -11.95 -12.3 -11.85 -12.35 -11.8 -12.45 Q-11.8 -12.55 -11.8 -12.65 -11.8 -12.9 -12.15 -13.1 -12.6 -13.35 -13.4 -13.3 L-13.45 -13.3 -13.7 -13.25 -13.8 -13.2 -14.0 -13.15 -14.0 -13.2 -13.95 -13.2 -13.9 -13.3 -13.8 -13.45 -13.45 -13.8 -13.05 -14.15 Q-12.4 -14.7 -11.8 -15.0 L-11.4 -15.1 -10.9 -15.15 M-14.35 -7.35 L-14.55 -7.8 -14.65 -8.0 Q-14.35 -7.8 -14.2 -7.8 L-14.05 -7.9 -14.15 -7.45 Q-14.25 -7.35 -14.35 -7.35" fill="#506060" fill-rule="evenodd" stroke="none"/>
    <path d="M3.45 -10.65 L3.45 -10.7 3.25 -10.85 Q3.45 -10.85 3.45 -10.65 M-3.4 -15.2 L-3.4 -15.1 -3.5 -15.05 -3.55 -15.05 Q-3.5 -15.15 -3.4 -15.2 M-13.2 -10.4 L-13.2 -10.35 -13.25 -10.3 -13.55 -10.15 -13.3 -10.35 -13.2 -10.4 M-3.55 -0.3 Q-2.75 -0.65 -2.25 -1.2 -2.8 -0.5 -3.55 -0.3 M3.95 -9.25 L3.85 -9.4 3.85 -9.45 3.95 -9.25 M4.2 -7.25 L3.5 -8.1 3.4 -8.2 Q2.95 -8.65 2.65 -8.95 L2.45 -9.1 Q2.0 -9.3 0.95 -9.0 0.4 -8.9 0.15 -8.75 L-0.05 -8.6 -0.3 -8.85 Q-0.4 -8.95 -0.55 -9.0 L-0.45 -9.0 Q-0.8 -9.4 -1.25 -9.7 L-1.15 -9.75 -1.15 -9.8 -1.0 -9.75 -0.5 -10.05 0.35 -10.65 Q0.9 -10.95 1.45 -11.1 L1.9 -11.2 1.85 -11.25 2.1 -11.15 2.25 -11.1 2.45 -11.0 2.5 -10.9 2.65 -10.9 2.95 -10.75 3.2 -10.5 Q3.3 -10.4 3.35 -10.2 L3.35 -10.15 3.45 -9.85 3.45 -9.65 3.15 -9.85 3.05 -9.9 Q2.6 -10.1 2.15 -10.2 1.1 -10.35 0.05 -9.65 L-0.55 -9.2 Q-0.65 -9.15 -0.45 -9.15 L-0.05 -9.3 0.65 -9.5 Q1.8 -9.85 2.2 -9.85 L2.4 -9.85 Q2.85 -9.8 3.3 -9.45 L3.7 -9.05 Q4.35 -8.4 4.35 -8.0 L4.25 -7.55 4.25 -7.3 4.2 -7.25 M-2.7 -11.95 L-2.75 -12.0 -2.85 -12.3 -3.0 -12.5 -3.2 -12.9 Q-3.5 -13.35 -3.85 -13.6 L-4.0 -13.7 -4.05 -13.65 -4.05 -13.6 -4.1 -13.7 -4.2 -13.85 -4.35 -14.05 Q-4.5 -14.3 -4.75 -14.45 L-5.05 -14.75 -4.4 -14.85 Q-3.5 -14.45 -3.0 -13.8 -2.75 -13.45 -2.6 -13.05 L-2.4 -12.55 -2.35 -12.45 -2.3 -12.2 -2.2 -12.0 Q-2.05 -11.4 -1.85 -11.05 L-1.8 -10.75 -1.75 -10.65 -1.7 -10.7 -1.7 -10.75 Q-1.65 -11.2 -1.55 -12.6 L-1.55 -12.7 -1.5 -12.95 -1.5 -13.05 -1.4 -13.5 -1.3 -13.7 -1.2 -13.75 Q-1.15 -13.8 -1.1 -13.8 -0.25 -13.85 0.2 -13.45 L0.35 -13.2 0.3 -13.15 Q0.15 -13.0 -0.1 -12.65 L-0.75 -11.8 Q-1.25 -11.1 -1.45 -10.75 -1.6 -10.5 -1.6 -10.4 L-1.55 -10.3 -1.5 -10.3 Q-1.4 -10.35 -1.15 -10.7 L0.1 -12.45 Q0.45 -12.85 0.65 -12.95 L0.7 -12.95 Q1.0 -12.9 1.65 -12.2 2.1 -11.7 2.35 -11.3 L1.9 -11.4 1.75 -11.45 Q1.6 -11.65 1.1 -11.5 0.75 -11.35 0.3 -11.1 -0.25 -10.75 -0.75 -10.35 L-0.9 -10.25 Q-1.2 -10.0 -1.2 -9.9 L-1.2 -9.85 -2.15 -10.75 -2.25 -10.85 -2.1 -10.75 Q-2.0 -10.7 -1.95 -10.65 L-1.95 -10.75 -2.05 -11.0 -2.4 -11.5 -2.65 -11.85 -2.65 -11.95 -2.7 -11.95 M0.05 -7.6 L0.15 -7.9 0.15 -8.0 0.1 -8.05 0.2 -8.05 0.2 -8.25 0.15 -8.35 Q0.4 -8.6 1.15 -8.7 L2.05 -8.8 2.25 -8.75 Q2.65 -8.6 3.45 -7.75 L3.6 -7.6 Q4.1 -7.0 4.4 -6.65 4.45 -6.3 4.6 -6.1 L4.7 -5.85 4.7 -4.75 4.65 -4.3 4.6 -3.9 4.45 -4.1 Q4.3 -4.45 4.0 -4.85 3.65 -5.3 3.25 -5.75 L2.55 -6.35 Q2.15 -6.7 1.7 -6.9 1.2 -7.2 0.65 -7.35 0.25 -7.6 0.05 -7.6 M0.05 -8.0 L0.05 -8.0 M1.0 -7.15 L0.85 -7.25 1.2 -7.05 1.0 -7.15 M-7.7 -14.65 Q-7.05 -14.9 -6.7 -15.0 L-6.4 -15.05 -6.15 -15.05 -5.9 -14.9 -5.6 -14.7 -5.65 -14.65 -5.6 -14.65 -4.85 -13.95 -4.5 -13.55 -4.25 -13.25 -3.55 -12.35 Q-3.45 -12.1 -3.25 -11.85 L-3.25 -11.8 -3.2 -11.8 -2.8 -11.35 -3.25 -11.65 -3.45 -11.75 Q-3.95 -12.05 -4.45 -12.25 -5.2 -12.5 -6.0 -12.5 -7.1 -13.0 -8.0 -13.25 L-8.45 -13.35 -8.9 -13.4 -9.15 -13.4 -9.3 -13.35 -8.9 -13.8 -8.6 -14.3 -8.0 -14.5 -7.7 -14.65 M-14.1 -5.2 L-14.1 -5.15 -14.25 -4.9 -14.35 -5.1 Q-14.5 -5.3 -14.5 -5.4 L-14.4 -5.75 -14.2 -6.5 -14.1 -6.85 -14.1 -7.0 -13.95 -6.85 -13.9 -7.05 -13.85 -7.6 -13.9 -8.25 Q-13.9 -9.05 -13.5 -9.45 L-13.3 -9.65 Q-12.15 -10.5 -7.75 -11.15 L-4.9 -11.5 -7.8 -11.3 Q-11.2 -11.0 -12.7 -10.5 L-12.65 -10.6 -12.2 -11.35 -11.85 -11.85 -10.9 -12.35 Q-10.3 -12.7 -9.85 -12.85 L-9.55 -13.0 Q-9.25 -13.1 -9.05 -13.15 L-8.95 -13.15 Q-8.65 -13.15 -8.1 -13.0 -7.2 -12.8 -5.8 -12.25 -5.4 -12.1 -4.85 -11.8 L-4.55 -11.6 -4.05 -11.35 -3.65 -11.1 -3.75 -11.15 -4.45 -11.25 Q-6.55 -11.5 -7.5 -10.95 L-8.05 -10.5 -8.4 -10.3 -8.55 -10.25 -8.75 -10.15 -9.2 -9.95 -10.0 -9.6 -10.75 -9.2 -11.35 -8.8 Q-12.4 -8.1 -13.15 -7.3 -13.5 -7.15 -13.6 -6.9 -13.7 -6.75 -13.75 -6.55 -14.15 -5.9 -14.25 -5.35 L-14.25 -5.15 Q-14.25 -5.0 -14.2 -5.05 L-14.2 -5.1 -14.15 -5.2 -14.1 -5.15 -14.1 -5.2 M-2.0 -14.3 Q-2.1 -14.6 -2.15 -14.85 L-2.1 -14.85 Q-1.45 -14.85 -1.35 -14.55 L-1.3 -14.25 -1.3 -14.2 -1.25 -14.1 Q-1.4 -13.95 -1.5 -13.7 L-1.55 -13.7 -1.6 -13.55 -1.65 -13.3 -1.8 -12.85 -1.8 -13.25 -1.9 -13.65 -1.95 -14.15 -2.0 -14.3 M-3.15 -14.9 L-3.05 -14.95 Q-2.25 -14.9 -2.1 -13.7 L-2.1 -13.0 -2.05 -12.65 -2.05 -12.35 -2.0 -11.95 -2.05 -12.15 -2.1 -12.3 -2.25 -12.6 -2.3 -12.65 Q-2.55 -13.3 -2.85 -13.85 L-3.3 -14.6 -3.45 -14.75 Q-3.25 -14.85 -3.15 -14.9 M-14.1 -5.25 L-14.05 -5.3 -14.05 -5.25 -14.1 -5.25 M-13.65 -2.35 L-13.7 -2.45 -13.9 -2.65 Q-14.25 -2.95 -14.5 -3.1 -14.65 -3.45 -14.65 -3.55 L-14.1 -4.65 -13.75 -5.5 -13.7 -5.5 Q-13.6 -5.65 -13.5 -6.05 L-13.5 -6.1 -13.15 -6.5 Q-12.7 -7.05 -12.1 -7.6 L-11.9 -7.7 -11.5 -7.8 Q-10.75 -8.15 -10.4 -8.4 L-10.2 -8.6 -9.2 -9.45 -8.6 -9.9 -8.9 -9.6 -8.85 -9.6 -8.55 -9.8 -8.2 -10.05 Q-6.6 -10.65 -4.85 -10.65 L-3.9 -10.6 -3.6 -10.55 -2.7 -10.45 -2.2 -10.15 -1.65 -9.7 -1.45 -9.6 -1.55 -9.6 -1.6 -9.65 Q-3.55 -10.6 -5.05 -9.9 L-5.15 -9.9 Q-5.8 -9.6 -6.45 -9.05 L-6.6 -8.95 -6.7 -8.8 Q-7.3 -8.25 -7.6 -7.7 L-7.75 -7.45 Q-8.3 -6.15 -9.45 -4.7 -10.05 -4.0 -10.75 -3.75 -11.15 -3.65 -11.95 -3.6 L-12.1 -3.6 -12.45 -3.55 -12.65 -3.5 -12.75 -3.45 Q-13.25 -3.3 -13.45 -3.2 -13.65 -3.05 -13.65 -2.65 L-13.6 -2.35 -13.65 -2.35 M-1.4 -3.8 L-1.45 -3.65 Q-1.55 -3.3 -1.9 -2.65 L-2.35 -1.65 Q-2.5 -1.4 -2.8 -1.1 -3.1 -0.75 -3.45 -0.6 -3.65 -0.55 -3.9 -0.45 -3.2 -1.0 -2.55 -2.0 -2.1 -2.6 -1.6 -3.4 L-1.4 -3.8 M-10.5 -8.8 L-10.8 -8.55 Q-11.2 -8.3 -11.6 -8.05 L-11.45 -8.15 -10.9 -8.6 -9.95 -9.2 -10.5 -8.8 M-0.1 -7.85 L-0.05 -7.85 -0.05 -7.8 -0.1 -7.85 M-5.25 -11.0 Q-4.25 -11.0 -3.4 -10.7 -5.1 -10.95 -6.75 -10.65 L-5.25 -11.0 M-12.0 -0.1 L-9.5 -0.45 -9.25 -0.5 Q-8.35 -0.85 -7.3 -1.45 -6.3 -2.15 -5.15 -3.15 L-4.2 -4.05 Q-3.2 -5.0 -1.7 -6.7 -0.9 -7.6 -0.6 -7.8 L-0.5 -7.9 -0.2 -7.85 -0.15 -7.85 -0.3 -7.7 -0.5 -7.2 -0.6 -7.05 -0.7 -7.05 -0.8 -6.8 -1.5 -5.7 -2.0 -4.95 -2.7 -3.85 -2.85 -3.65 -2.9 -3.6 -3.15 -3.25 Q-3.35 -3.0 -3.8 -2.55 L-4.25 -2.15 -4.55 -1.85 -4.75 -1.7 -5.15 -1.3 -5.45 -1.05 Q-5.5 -1.05 -5.7 -0.95 L-6.5 -0.65 Q-6.9 -0.5 -7.4 -0.3 L-8.1 0.0 -8.5 0.15 -8.85 0.25 -8.95 0.3 -9.0 0.25 -9.7 0.45 Q-11.5 0.45 -12.45 0.25 L-13.25 0.0 -12.0 -0.1 M-13.35 -1.55 L-13.2 -1.6 -13.2 -1.55 -13.35 -1.55 M-13.25 -1.2 L-13.05 -1.45 -12.85 -1.45 -12.85 -1.4 -12.8 -1.4 -12.85 -1.5 -12.75 -1.5 -12.2 -1.6 Q-9.7 -2.05 -8.7 -3.0 -8.45 -3.2 -7.9 -3.95 -7.4 -4.6 -6.85 -4.95 -6.6 -5.15 -6.0 -5.85 L-5.6 -6.3 -4.9 -7.05 Q-3.4 -8.6 -2.05 -8.65 L-1.9 -8.65 Q-1.55 -8.65 -1.15 -8.45 L-1.1 -8.4 -0.85 -8.3 -0.75 -8.2 -0.55 -8.1 -0.8 -8.0 -0.95 -7.9 Q-1.4 -7.6 -2.05 -6.95 L-2.9 -5.95 -3.85 -4.85 Q-4.25 -4.45 -4.5 -4.25 -5.4 -3.4 -6.3 -2.65 L-6.8 -2.3 Q-8.65 -0.9 -9.8 -0.55 L-10.25 -0.5 -10.4 -0.45 -10.85 -0.5 -10.85 -0.45 -12.15 -0.45 -13.65 -0.55 -13.7 -0.7 Q-13.7 -0.75 -13.25 -1.2 M-13.05 -3.1 L-13.0 -3.1 -13.05 -3.0 Q-13.15 -2.7 -13.15 -2.2 L-13.15 -2.05 Q-13.3 -2.3 -13.3 -2.65 -13.3 -3.0 -13.05 -3.1 M-12.75 -2.95 Q-12.65 -3.05 -12.4 -3.1 L-12.3 -3.15 Q-11.9 -3.25 -11.3 -3.35 -10.05 -3.55 -9.95 -3.7 L-8.95 -4.75 Q-8.4 -5.4 -8.25 -5.85 L-8.0 -6.6 Q-7.75 -7.25 -7.4 -7.75 L-7.3 -7.95 Q-6.7 -8.7 -5.95 -9.15 -4.95 -9.8 -3.55 -9.8 -2.65 -9.85 -1.95 -9.55 L-1.45 -9.3 -1.0 -8.95 -0.8 -8.7 -0.7 -8.6 -0.85 -8.65 Q-1.2 -8.85 -1.55 -8.9 -2.65 -9.15 -3.85 -8.4 L-4.4 -8.0 -5.15 -7.3 -5.3 -7.1 -5.8 -6.55 -6.3 -5.95 Q-7.7 -4.5 -8.85 -3.45 -9.7 -2.6 -11.6 -2.1 L-12.2 -1.95 -12.65 -1.8 -12.75 -1.8 -12.75 -1.9 Q-12.75 -2.0 -12.85 -2.4 L-12.85 -2.5 Q-12.9 -2.8 -12.75 -2.95 M-10.75 3.4 Q-11.05 3.15 -11.35 2.5 -11.7 1.8 -11.85 1.6 -10.7 2.0 -9.95 3.1 -9.3 4.0 -9.2 4.9 -9.4 4.9 -9.5 4.6 -9.6 4.35 -9.65 4.2 -9.65 3.8 -10.1 3.65 L-10.75 3.4 M-8.1 0.55 L-8.15 0.7 Q-8.35 1.1 -8.35 1.85 -8.35 2.55 -8.3 2.75 -8.2 3.05 -7.7 3.95 -8.45 3.8 -8.9 2.9 -9.2 2.2 -9.2 1.5 -9.2 1.4 -9.0 1.05 L-8.8 0.8 -8.1 0.55" fill="#003366" fill-rule="evenodd" stroke="none"/>
    <path d="M3.25 -10.85 L3.45 -10.7 3.45 -10.65 Q3.85 -10.3 3.85 -9.45 L3.85 -9.4 3.95 -9.25 4.3 -8.9 Q4.7 -8.35 4.7 -8.0 4.7 -7.85 4.55 -7.45 L4.5 -7.2 Q4.85 -7.2 4.95 -6.35 L5.05 -5.5 Q5.05 -4.8 4.95 -3.95 L4.95 -3.3 4.9 -3.2 4.85 -3.2 Q4.75 -2.6 4.6 -2.6 L4.45 -2.9 4.4 -2.9 4.4 -2.95 Q4.05 -3.6 3.5 -4.35 2.05 -6.25 -0.05 -7.15 L-0.15 -6.85 Q-0.25 -6.3 -0.45 -5.45 -0.85 -4.2 -1.15 -3.55 L-1.4 -3.0 -1.5 -2.6 -1.55 -2.55 Q-1.75 -1.85 -2.0 -1.5 L-2.25 -1.2 Q-2.75 -0.65 -3.55 -0.3 -4.2 0.0 -5.15 0.2 L-7.25 0.25 -7.35 0.3 -7.75 0.75 Q-7.95 1.15 -8.0 1.35 -8.05 1.5 -8.05 1.9 -8.05 2.55 -7.75 3.15 -7.5 3.6 -6.8 4.45 -6.75 4.55 -6.85 4.6 -6.95 4.7 -7.05 4.7 -7.3 4.7 -8.15 4.1 -8.95 3.55 -9.2 3.2 -9.3 3.05 -9.45 2.4 -9.6 1.75 -9.6 1.5 -9.6 1.25 -9.5 1.0 L-9.7 0.85 -12.3 0.7 -11.9 1.1 -10.95 1.6 Q-10.15 2.05 -10.0 2.25 -9.5 3.1 -9.25 3.55 -8.8 4.4 -8.8 4.9 L-8.8 5.25 Q-8.85 5.4 -9.05 5.4 -9.55 5.4 -9.8 4.85 L-10.05 4.2 Q-10.5 4.1 -10.95 3.75 -11.4 3.4 -11.5 3.05 -11.6 2.9 -12.35 1.75 -13.0 0.75 -13.05 0.5 L-13.15 0.5 Q-13.8 0.2 -13.65 -0.25 L-14.0 -0.6 -14.0 -0.65 -13.9 -1.0 Q-14.0 -1.3 -14.1 -1.6 L-14.4 -2.25 Q-14.65 -2.65 -15.0 -3.45 -15.0 -3.85 -14.65 -4.3 L-14.45 -4.6 Q-14.6 -4.7 -14.75 -4.95 -14.95 -5.25 -14.95 -5.35 -14.95 -5.5 -14.65 -6.35 -14.35 -7.3 -14.3 -7.5 L-14.2 -8.4 Q-14.2 -9.15 -14.15 -9.35 L-14.1 -9.5 -14.1 -9.7 -14.0 -9.7 Q-13.85 -9.95 -13.55 -10.15 L-13.25 -10.3 -13.2 -10.35 -13.2 -10.4 Q-13.1 -11.05 -12.55 -11.65 -11.9 -12.4 -10.95 -12.75 L-10.75 -12.85 Q-10.25 -13.2 -9.65 -13.3 -9.65 -13.75 -9.35 -14.05 -9.1 -14.35 -8.65 -14.6 -7.55 -15.6 -6.0 -15.15 L-5.55 -15.0 -5.25 -14.85 -5.1 -14.9 -4.6 -15.0 Q-4.2 -15.6 -3.65 -15.0 L-3.55 -15.05 -3.5 -15.05 -3.4 -15.1 -3.4 -15.2 Q-3.4 -15.3 -3.4 -15.2 -2.7 -15.95 -2.3 -15.1 L-1.4 -15.1 Q-1.3 -15.0 -1.15 -14.65 -1.0 -14.35 -1.0 -14.3 L-1.0 -14.25 Q-0.35 -14.45 0.65 -13.3 1.1 -13.3 1.8 -12.6 2.15 -12.2 2.45 -11.8 2.75 -11.4 2.75 -11.3 L2.75 -11.1 Q3.05 -11.0 3.25 -10.85 M3.35 -10.2 Q3.3 -10.4 3.2 -10.5 L2.95 -10.75 2.65 -10.9 2.5 -10.9 2.45 -11.0 2.25 -11.1 2.1 -11.15 1.85 -11.25 1.9 -11.2 1.45 -11.1 Q0.9 -10.95 0.35 -10.65 L-0.5 -10.05 -1.0 -9.75 -1.15 -9.8 -1.15 -9.75 -1.25 -9.7 Q-0.8 -9.4 -0.45 -9.0 L-0.55 -9.0 Q-0.4 -8.95 -0.3 -8.85 L-0.05 -8.6 0.15 -8.75 Q0.4 -8.9 0.95 -9.0 2.0 -9.3 2.45 -9.1 L2.65 -8.95 Q2.95 -8.65 3.4 -8.2 L3.5 -8.1 4.2 -7.25 4.25 -7.3 4.25 -7.55 4.35 -8.0 Q4.35 -8.4 3.7 -9.05 L3.3 -9.45 Q2.85 -9.8 2.4 -9.85 L2.2 -9.85 Q1.8 -9.85 0.65 -9.5 L-0.05 -9.3 -0.45 -9.15 Q-0.65 -9.15 -0.55 -9.2 L0.05 -9.65 Q1.1 -10.35 2.15 -10.2 2.6 -10.1 3.05 -9.9 L3.15 -9.85 3.45 -9.65 3.45 -9.85 3.35 -10.15 3.35 -10.2 M-2.65 -11.85 L-2.4 -11.5 -2.05 -11.0 -1.95 -10.75 -1.95 -10.65 Q-2.0 -10.7 -2.1 -10.75 L-2.25 -10.85 -2.15 -10.75 -1.2 -9.85 -1.2 -9.9 Q-1.2 -10.0 -0.9 -10.25 L-0.75 -10.35 Q-0.25 -10.75 0.3 -11.1 0.75 -11.35 1.1 -11.5 1.6 -11.65 1.75 -11.45 L1.9 -11.4 2.35 -11.3 Q2.1 -11.7 1.65 -12.2 1.0 -12.9 0.7 -12.95 L0.65 -12.95 Q0.45 -12.85 0.1 -12.45 L-1.15 -10.7 Q-1.4 -10.35 -1.5 -10.3 L-1.55 -10.3 -1.6 -10.4 Q-1.6 -10.5 -1.45 -10.75 -1.25 -11.1 -0.75 -11.8 L-0.1 -12.65 Q0.15 -13.0 0.3 -13.15 L0.35 -13.2 0.2 -13.45 Q-0.25 -13.85 -1.1 -13.8 -1.15 -13.8 -1.2 -13.75 L-1.3 -13.7 -1.4 -13.5 -1.5 -13.05 -1.5 -12.95 -1.55 -12.7 -1.55 -12.6 Q-1.65 -11.2 -1.7 -10.75 L-1.7 -10.7 -1.75 -10.65 -1.8 -10.75 -1.85 -11.05 Q-2.05 -11.4 -2.2 -12.0 L-2.3 -12.2 -2.35 -12.45 -2.4 -12.55 -2.6 -13.05 Q-2.75 -13.45 -3.0 -13.8 -3.5 -14.45 -4.4 -14.85 L-5.05 -14.75 -4.75 -14.45 Q-4.5 -14.3 -4.35 -14.05 L-4.2 -13.85 -4.1 -13.7 -4.05 -13.6 -4.05 -13.65 -4.0 -13.7 -3.85 -13.6 Q-3.5 -13.35 -3.2 -12.9 L-3.0 -12.5 -2.85 -12.3 -2.75 -12.0 -2.7 -11.95 -2.65 -11.85 M0.05 -8.0 L0.05 -8.0 M4.6 -3.9 L4.65 -4.3 4.7 -4.75 4.7 -5.85 4.6 -6.1 Q4.45 -6.3 4.4 -6.65 4.1 -7.0 3.6 -7.6 L3.45 -7.75 Q2.65 -8.6 2.25 -8.75 L2.05 -8.8 1.15 -8.7 Q0.4 -8.6 0.15 -8.35 L0.2 -8.25 0.2 -8.05 0.1 -8.05 0.15 -8.0 0.15 -7.9 0.05 -7.6 Q0.25 -7.6 0.65 -7.35 1.2 -7.2 1.7 -6.9 2.15 -6.7 2.55 -6.35 L3.25 -5.75 Q3.65 -5.3 4.0 -4.85 4.3 -4.45 4.45 -4.1 L4.55 -3.8 4.6 -3.9 M0.05 -7.6 L0.05 -7.6 M1.0 -7.15 L1.2 -7.05 0.85 -7.25 1.0 -7.15 M-7.7 -14.65 L-8.0 -14.5 -8.6 -14.3 -8.9 -13.8 -9.3 -13.35 -9.15 -13.4 -8.9 -13.4 -8.45 -13.35 -8.0 -13.25 Q-7.1 -13.0 -6.0 -12.5 -5.2 -12.5 -4.45 -12.25 -3.95 -12.05 -3.45 -11.75 L-3.25 -11.65 -2.8 -11.35 -3.2 -11.8 -3.25 -11.8 -3.25 -11.85 Q-3.45 -12.1 -3.55 -12.35 L-4.25 -13.25 -4.5 -13.55 -4.85 -13.95 -5.6 -14.65 -5.65 -14.65 -5.6 -14.7 -5.9 -14.9 -6.15 -15.05 -6.4 -15.05 -6.7 -15.0 Q-7.05 -14.9 -7.7 -14.65 M-3.15 -14.9 Q-3.25 -14.85 -3.45 -14.75 L-3.3 -14.6 -2.85 -13.85 Q-2.55 -13.3 -2.3 -12.65 L-2.25 -12.6 -2.1 -12.3 -2.05 -12.15 -2.0 -11.95 -2.05 -12.35 -2.05 -12.65 -2.1 -13.0 -2.1 -13.7 Q-2.25 -14.9 -3.05 -14.95 L-3.15 -14.9 M-2.0 -14.3 L-1.95 -14.15 -1.9 -13.65 -1.8 -13.25 -1.8 -12.85 -1.65 -13.3 -1.6 -13.55 -1.55 -13.7 -1.5 -13.7 Q-1.4 -13.95 -1.25 -14.1 L-1.3 -14.2 -1.3 -14.25 -1.35 -14.55 Q-1.45 -14.85 -2.1 -14.85 L-2.15 -14.85 Q-2.1 -14.6 -2.0 -14.3 M-14.15 -5.2 L-14.2 -5.1 -14.2 -5.05 Q-14.25 -5.0 -14.25 -5.15 L-14.25 -5.35 Q-14.15 -5.9 -13.75 -6.55 -13.7 -6.75 -13.6 -6.9 -13.5 -7.15 -13.15 -7.3 -12.4 -8.1 -11.35 -8.8 L-10.75 -9.2 -10.0 -9.6 -9.2 -9.95 -8.75 -10.15 -8.55 -10.25 -8.4 -10.3 -8.05 -10.5 -7.5 -10.95 Q-6.55 -11.5 -4.45 -11.25 L-3.75 -11.15 -3.65 -11.1 -4.05 -11.35 -4.55 -11.6 -4.85 -11.8 Q-5.4 -12.1 -5.8 -12.25 -7.2 -12.8 -8.1 -13.0 -8.65 -13.15 -8.95 -13.15 L-9.05 -13.15 Q-9.25 -13.1 -9.55 -13.0 L-9.85 -12.85 Q-10.3 -12.7 -10.9 -12.35 L-11.85 -11.85 -12.2 -11.35 -12.65 -10.6 -12.7 -10.5 Q-11.2 -11.0 -7.8 -11.3 L-4.9 -11.5 -7.75 -11.15 Q-12.15 -10.5 -13.3 -9.65 L-13.5 -9.45 Q-13.9 -9.05 -13.9 -8.25 L-13.85 -7.6 -13.9 -7.05 -13.95 -6.85 -14.1 -7.0 -14.1 -6.85 -14.2 -6.5 -14.4 -5.75 -14.5 -5.4 Q-14.5 -5.3 -14.35 -5.1 L-14.25 -4.9 -14.1 -5.15 -14.1 -5.2 -14.15 -5.2 M-14.1 -5.25 L-14.1 -5.2 -14.05 -5.25 -14.05 -5.3 -14.1 -5.25 M-13.6 -2.35 L-13.65 -2.65 Q-13.65 -3.05 -13.45 -3.2 -13.25 -3.3 -12.75 -3.45 L-12.65 -3.5 -12.45 -3.55 -12.1 -3.6 -11.95 -3.6 Q-11.15 -3.65 -10.75 -3.75 -10.05 -4.0 -9.45 -4.7 -8.3 -6.15 -7.75 -7.45 L-7.6 -7.7 Q-7.3 -8.25 -6.7 -8.8 L-6.6 -8.95 -6.45 -9.05 Q-5.8 -9.6 -5.15 -9.9 L-5.05 -9.9 Q-3.55 -10.6 -1.6 -9.65 L-1.55 -9.6 -1.45 -9.6 -1.65 -9.7 -2.2 -10.15 -2.7 -10.45 -3.6 -10.55 -3.9 -10.6 -4.85 -10.65 Q-6.6 -10.65 -8.2 -10.05 L-8.55 -9.8 -8.85 -9.6 -8.9 -9.6 -8.6 -9.9 -9.2 -9.45 -10.2 -8.6 -10.4 -8.4 Q-10.75 -8.15 -11.5 -7.8 L-11.9 -7.7 -12.1 -7.6 Q-12.7 -7.05 -13.15 -6.5 L-13.5 -6.1 -13.5 -6.05 Q-13.6 -5.65 -13.7 -5.5 L-13.75 -5.5 -14.1 -4.65 -14.65 -3.55 Q-14.65 -3.45 -14.5 -3.1 -14.25 -2.95 -13.9 -2.65 L-13.7 -2.45 -13.65 -2.35 -13.6 -2.3 -13.6 -2.35 M-12.75 -2.95 Q-12.9 -2.8 -12.85 -2.5 L-12.85 -2.4 Q-12.75 -2.0 -12.75 -1.9 L-12.75 -1.8 -12.65 -1.8 -12.2 -1.95 -11.6 -2.1 Q-9.7 -2.6 -8.85 -3.45 -7.7 -4.5 -6.3 -5.95 L-5.8 -6.55 -5.3 -7.1 -5.15 -7.3 -4.4 -8.0 -3.85 -8.4 Q-2.65 -9.15 -1.55 -8.9 -1.2 -8.85 -0.85 -8.65 L-0.7 -8.6 -0.8 -8.7 -1.0 -8.95 -1.45 -9.3 -1.95 -9.55 Q-2.65 -9.85 -3.55 -9.8 -4.95 -9.8 -5.95 -9.15 -6.7 -8.7 -7.3 -7.95 L-7.4 -7.75 Q-7.75 -7.25 -8.0 -6.6 L-8.25 -5.85 Q-8.4 -5.4 -8.95 -4.75 L-9.95 -3.7 Q-10.05 -3.55 -11.3 -3.35 -11.9 -3.25 -12.3 -3.15 L-12.4 -3.1 Q-12.65 -3.05 -12.75 -2.95 M-13.05 -3.1 Q-13.3 -3.0 -13.3 -2.65 -13.3 -2.3 -13.15 -2.05 L-13.15 -2.2 Q-13.15 -2.7 -13.05 -3.0 L-13.0 -3.1 -13.05 -3.1 M-13.25 -1.2 Q-13.7 -0.75 -13.7 -0.7 L-13.65 -0.55 -12.15 -0.45 -10.85 -0.45 -10.85 -0.5 -10.4 -0.45 -10.25 -0.5 -9.8 -0.55 Q-8.65 -0.9 -6.8 -2.3 L-6.3 -2.65 Q-5.4 -3.4 -4.5 -4.25 -4.25 -4.45 -3.85 -4.85 L-2.9 -5.95 -2.05 -6.95 Q-1.4 -7.6 -0.95 -7.9 L-0.8 -8.0 -0.55 -8.1 -0.75 -8.2 -0.85 -8.3 -1.1 -8.4 -1.15 -8.45 Q-1.55 -8.65 -1.9 -8.65 L-2.05 -8.65 Q-3.4 -8.6 -4.9 -7.05 L-5.6 -6.3 -6.0 -5.85 Q-6.6 -5.15 -6.85 -4.95 -7.4 -4.6 -7.9 -3.95 -8.45 -3.2 -8.7 -3.0 -9.7 -2.05 -12.2 -1.6 L-12.75 -1.5 -12.85 -1.5 -12.8 -1.4 -12.85 -1.4 -12.85 -1.45 -13.05 -1.45 -13.25 -1.2 M-13.35 -1.55 L-13.2 -1.55 -13.2 -1.6 -13.35 -1.55 M-12.0 -0.1 L-13.25 0.0 -12.45 0.25 Q-11.5 0.45 -9.7 0.45 L-9.0 0.25 -8.95 0.3 -8.85 0.25 -8.5 0.15 -8.1 0.0 -7.4 -0.3 Q-6.9 -0.5 -6.5 -0.65 L-5.7 -0.95 Q-5.5 -1.05 -5.45 -1.05 L-5.15 -1.3 -4.75 -1.7 -4.55 -1.85 -4.25 -2.15 -3.8 -2.55 Q-3.35 -3.0 -3.15 -3.25 L-2.9 -3.6 -2.85 -3.65 -2.7 -3.85 -2.0 -4.95 -1.5 -5.7 -0.8 -6.8 -0.7 -7.05 -0.6 -7.05 -0.5 -7.2 -0.3 -7.7 -0.15 -7.85 -0.2 -7.85 -0.5 -7.9 -0.6 -7.8 Q-0.9 -7.6 -1.7 -6.7 -3.2 -5.0 -4.2 -4.05 L-5.15 -3.15 Q-6.3 -2.15 -7.3 -1.45 -8.35 -0.85 -9.25 -0.5 L-9.5 -0.45 -12.0 -0.1 M-5.25 -11.0 L-6.75 -10.65 Q-5.1 -10.95 -3.4 -10.7 -4.25 -11.0 -5.25 -11.0 M-0.1 -7.85 L-0.05 -7.8 -0.05 -7.85 -0.1 -7.85 M-10.5 -8.8 L-9.95 -9.2 -10.9 -8.6 -11.45 -8.15 -11.6 -8.05 Q-11.2 -8.3 -10.8 -8.55 L-10.5 -8.8 M-1.4 -3.8 L-1.6 -3.4 Q-2.1 -2.6 -2.55 -2.0 -3.2 -1.0 -3.9 -0.45 -3.65 -0.55 -3.45 -0.6 -3.1 -0.75 -2.8 -1.1 -2.5 -1.4 -2.35 -1.65 L-1.9 -2.65 Q-1.55 -3.3 -1.45 -3.65 L-1.4 -3.8 M-1.4 -5.15 Q-2.45 -3.55 -2.95 -2.95 -4.2 -1.45 -5.15 -0.8 L-5.55 -0.55 -5.25 -0.55 Q-4.1 -1.15 -3.2 -2.1 -2.35 -2.95 -1.85 -3.85 L-1.4 -5.15 M-8.1 0.55 L-8.8 0.8 -9.0 1.05 Q-9.2 1.4 -9.2 1.5 -9.2 2.2 -8.9 2.9 -8.45 3.8 -7.7 3.95 -8.2 3.05 -8.3 2.75 -8.35 2.55 -8.35 1.85 -8.35 1.1 -8.15 0.7 L-8.1 0.55 M-10.75 3.4 L-10.1 3.65 Q-9.65 3.8 -9.65 4.2 -9.6 4.35 -9.5 4.6 -9.4 4.9 -9.2 4.9 -9.3 4.0 -9.95 3.1 -10.7 2.0 -11.85 1.6 -11.7 1.8 -11.35 2.5 -11.05 3.15 -10.75 3.4" fill="#121212" fill-rule="evenodd" stroke="none"/>
  </g>
</svg>
