<?xml version="1.0" encoding="UTF-8" standalone="no"?>
<svg xmlns:ffdec="https://www.free-decompiler.com/flash" xmlns:xlink="http://www.w3.org/1999/xlink" ffdec:objectType="shape" height="22.7px" width="25.8px" xmlns="http://www.w3.org/2000/svg">
  <g transform="matrix(1.0, 0.0, 0.0, 1.0, 18.8, 16.75)">
    <path d="M1.35 -14.5 Q0.55 -13.55 0.3 -13.3 0.75 -13.2 1.15 -13.0 1.55 -13.45 1.95 -14.4 2.35 -15.0 2.9 -15.1 L2.4 -15.55 Q2.15 -15.55 1.35 -14.5 M1.5 -16.0 Q1.15 -16.3 0.9 -16.3 -0.6 -16.3 -1.1 -15.4 -1.3 -14.95 -1.45 -13.3 L-1.4 -13.3 -0.05 -13.4 0.15 -13.35 0.15 -13.4 Q0.15 -13.6 0.8 -14.55 1.4 -15.4 1.85 -15.75 1.75 -15.8 1.5 -16.0 M-0.95 -16.25 L-0.9 -16.25 Q-0.2 -16.9 0.9 -16.7 1.4 -16.7 1.8 -16.35 2.1 -16.1 2.15 -15.95 2.55 -16.15 3.0 -15.7 L3.4 -15.1 3.45 -15.05 4.3 -14.4 Q4.55 -14.2 4.6 -13.95 L4.7 -13.75 Q5.1 -12.9 5.1 -12.45 5.1 -11.85 4.45 -10.95 3.8 -10.1 3.8 -9.65 3.8 -9.3 3.9 -8.95 4.05 -8.35 4.35 -8.35 4.75 -8.35 4.95 -8.65 L5.25 -9.05 Q5.35 -9.0 5.35 -8.85 L5.4 -8.85 5.45 -8.75 5.4 -8.6 Q5.35 -8.25 5.1 -7.7 4.7 -6.9 4.25 -6.9 L4.05 -6.9 4.15 -7.25 4.25 -7.4 4.6 -7.75 4.75 -7.95 4.6 -7.9 4.1 -7.95 Q3.9 -8.1 3.75 -8.25 L3.4 -9.0 Q3.4 -9.2 3.4 -9.6 3.4 -10.45 4.05 -11.2 L4.2 -11.4 Q3.85 -11.1 3.45 -11.1 3.3 -11.1 2.95 -11.4 L2.7 -11.45 Q2.5 -11.55 2.4 -11.65 L2.45 -11.5 Q2.6 -11.15 2.6 -10.85 2.65 -10.55 2.6 -10.4 L2.1 -10.6 2.1 -10.7 Q2.15 -11.1 2.1 -11.25 L1.95 -11.55 Q1.7 -11.6 1.3 -11.85 L0.5 -11.9 -0.05 -12.25 Q0.1 -12.55 0.75 -12.45 L0.85 -12.4 Q0.8 -12.45 0.75 -12.45 -0.25 -12.9 -1.3 -12.8 L-1.8 -13.1 -1.65 -13.2 Q-1.75 -13.3 -1.8 -13.5 L-1.85 -13.8 Q-1.85 -14.75 -1.35 -15.65 L-1.15 -16.0 Q-1.8 -15.9 -2.25 -15.25 -2.7 -14.65 -2.7 -14.2 L-2.65 -13.8 -2.6 -13.75 -2.45 -13.35 -2.6 -13.15 Q-2.85 -13.15 -3.05 -13.65 -3.15 -13.9 -3.2 -14.2 -3.2 -14.85 -2.55 -15.6 -2.05 -16.2 -1.45 -16.25 L-0.95 -16.25 M4.5 -13.4 L4.55 -13.35 4.5 -13.45 4.5 -13.4 M4.5 -12.5 Q4.25 -12.55 4.2 -12.7 L4.2 -12.75 3.95 -12.45 3.65 -12.15 Q3.4 -11.9 3.1 -11.8 L3.7 -11.7 3.95 -11.75 4.1 -11.9 4.1 -11.95 Q4.45 -12.3 4.7 -12.45 L4.6 -12.95 Q4.6 -12.65 4.5 -12.5 M4.2 -13.5 L4.2 -13.8 Q4.2 -13.85 3.15 -14.85 2.85 -14.5 2.3 -13.8 1.7 -13.0 1.45 -12.85 1.85 -12.55 2.15 -12.2 L2.15 -12.25 2.3 -12.3 2.4 -12.25 Q2.8 -12.75 3.5 -13.2 3.9 -13.45 4.2 -13.5 M-9.75 -1.15 L-9.65 -1.25 Q-9.5 -1.3 -9.45 -1.5 L-9.3 -1.9 Q-9.0 -2.3 -7.75 -2.5 L-7.8 -2.2 -8.45 -2.2 -9.5 -0.7 -9.65 -0.75 -9.8 -0.95 -9.75 -1.15" fill="#121212" fill-rule="evenodd" stroke="none"/>
    <path d="M1.5 -16.0 Q1.75 -15.8 1.85 -15.75 1.4 -15.4 0.8 -14.55 0.15 -13.6 0.15 -13.4 L0.15 -13.35 -0.05 -13.4 -1.4 -13.3 -1.45 -13.3 Q-1.3 -14.95 -1.1 -15.4 -0.6 -16.3 0.9 -16.3 1.15 -16.3 1.5 -16.0 M1.35 -14.5 Q2.15 -15.55 2.4 -15.55 L2.9 -15.1 Q2.35 -15.0 1.95 -14.4 1.55 -13.45 1.15 -13.0 0.75 -13.2 0.3 -13.3 0.55 -13.55 1.35 -14.5 M4.15 -7.25 L4.05 -7.4 Q4.0 -7.4 4.0 -7.6 L3.75 -8.25 Q3.9 -8.1 4.1 -7.95 L4.6 -7.9 4.75 -7.95 4.6 -7.75 4.25 -7.4 4.15 -7.25 M3.4 -9.0 L2.6 -10.4 Q2.65 -10.55 2.6 -10.85 2.6 -11.15 2.45 -11.5 L2.4 -11.65 Q2.5 -11.55 2.7 -11.45 L2.95 -11.4 Q3.3 -11.1 3.45 -11.1 3.85 -11.1 4.2 -11.4 L4.05 -11.2 Q3.4 -10.45 3.4 -9.6 3.4 -9.2 3.4 -9.0 M-1.8 -13.1 L-2.45 -13.35 -2.6 -13.75 -2.65 -13.8 -2.7 -14.2 Q-2.7 -14.65 -2.25 -15.25 -1.8 -15.9 -1.15 -16.0 L-1.35 -15.65 Q-1.85 -14.75 -1.85 -13.8 L-1.8 -13.5 Q-1.75 -13.3 -1.65 -13.2 L-1.8 -13.1 M-1.45 -16.25 Q-1.3 -16.35 -1.15 -16.35 -1.05 -16.35 -0.95 -16.25 L-1.45 -16.25 M4.2 -13.5 Q3.9 -13.45 3.5 -13.2 2.8 -12.75 2.4 -12.25 L2.3 -12.3 2.15 -12.25 2.15 -12.2 Q1.85 -12.55 1.45 -12.85 1.7 -13.0 2.3 -13.8 2.85 -14.5 3.15 -14.85 4.2 -13.85 4.2 -13.8 L4.2 -13.5 M4.5 -12.5 Q4.6 -12.65 4.6 -12.95 L4.7 -12.45 Q4.45 -12.3 4.1 -11.95 L4.1 -11.9 3.95 -11.75 3.7 -11.7 3.1 -11.8 Q3.4 -11.9 3.65 -12.15 L3.95 -12.45 4.2 -12.75 4.2 -12.7 Q4.25 -12.55 4.5 -12.5" fill="#003366" fill-rule="evenodd" stroke="none"/>
    <path d="M2.1 -10.6 L0.5 -11.9 1.3 -11.85 Q1.7 -11.6 1.95 -11.55 L2.1 -11.25 Q2.15 -11.1 2.1 -10.7 L2.1 -10.6 M-0.05 -12.25 L-1.3 -12.8 Q-0.25 -12.9 0.75 -12.45 0.8 -12.45 0.85 -12.4 L0.75 -12.45 Q0.1 -12.55 -0.05 -12.25" fill="#506060" fill-rule="evenodd" stroke="none"/>
    <path d="M3.25 -6.35 L2.95 -7.3 Q2.75 -7.75 2.5 -9.05 L2.45 -9.3 2.4 -9.5 Q2.25 -10.25 2.25 -10.4 L2.2 -10.5 Q1.75 -11.05 1.0 -11.5 1.4 -10.8 1.85 -9.5 L1.85 -9.45 1.95 -9.2 2.25 -8.05 Q2.65 -7.3 2.9 -6.55 L2.1 -7.0 1.8 -8.4 1.6 -9.15 1.5 -9.5 1.2 -10.4 Q0.8 -11.25 0.15 -12.0 -0.4 -12.2 -1.0 -12.4 0.05 -11.3 0.85 -9.5 L1.0 -9.1 1.2 -8.7 1.7 -7.15 1.2 -7.3 0.8 -8.4 0.55 -9.05 0.4 -9.5 Q-0.3 -11.3 -1.05 -12.45 L-1.85 -12.7 Q-1.25 -11.95 -0.55 -10.6 L-0.15 -9.45 0.0 -9.05 0.05 -8.95 Q0.5 -7.65 0.5 -7.5 L0.5 -7.45 0.05 -7.45 Q-0.3 -8.35 -0.6 -8.9 L-0.75 -9.25 -0.8 -9.35 Q-1.15 -10.0 -2.1 -11.35 -2.75 -12.3 -3.15 -12.95 L-3.75 -13.05 -4.35 -13.1 -4.95 -13.1 -4.25 -12.5 Q-3.0 -11.25 -1.85 -9.25 L-1.65 -8.9 -1.6 -8.8 Q-1.2 -8.2 -0.75 -7.4 L-1.15 -7.35 Q-1.65 -8.25 -1.95 -8.6 L-2.05 -8.75 -2.3 -9.2 -2.65 -9.75 Q-3.1 -10.5 -3.4 -10.95 -4.0 -11.7 -4.85 -12.45 L-5.45 -12.95 Q-6.65 -12.65 -7.65 -12.15 -6.2 -11.75 -5.1 -10.75 -4.25 -10.0 -3.8 -9.1 L-3.7 -8.95 -3.45 -8.65 -3.4 -8.6 Q-2.9 -7.95 -2.45 -7.15 L-3.1 -7.05 -4.05 -8.55 -4.3 -8.85 Q-4.55 -9.1 -5.0 -9.5 L-6.1 -10.5 Q-6.65 -11.0 -8.0 -11.4 L-8.55 -11.6 -9.0 -11.3 Q-7.2 -10.65 -5.3 -8.6 L-5.0 -8.3 -4.45 -7.65 -3.85 -6.9 -4.2 -6.8 -4.45 -7.15 Q-4.9 -7.65 -5.4 -8.15 L-5.75 -8.5 Q-7.3 -9.85 -9.5 -10.9 L-10.1 -10.4 -10.35 -10.1 Q-9.2 -9.75 -8.3 -8.9 -7.75 -8.4 -7.35 -7.9 L-7.35 -7.85 -6.85 -7.45 -6.55 -7.15 -5.6 -6.3 -6.05 -6.05 -6.95 -7.0 -7.2 -7.2 -7.75 -7.6 -8.9 -8.2 -11.05 -9.2 -9.45 -7.8 Q-8.55 -7.3 -8.05 -6.85 L-7.85 -6.7 Q-7.6 -6.45 -7.45 -6.25 L-6.6 -5.45 -6.75 -5.2 -7.45 -6.0 Q-7.65 -6.2 -8.05 -6.5 L-8.15 -6.55 -9.55 -7.45 -11.85 -7.85 Q-10.8 -7.5 -9.15 -6.3 L-8.6 -5.95 -8.25 -5.65 -7.15 -4.75 -6.95 -4.6 -7.05 -4.35 -7.6 -4.75 -8.4 -5.2 -8.95 -5.5 Q-10.45 -6.2 -11.8 -6.2 L-11.65 -5.65 Q-10.7 -5.45 -9.45 -4.75 L-8.75 -4.3 -8.1 -3.9 -7.8 -3.8 -7.55 -3.7 -7.35 -3.55 -8.0 -2.1 Q-8.2 -2.2 -8.4 -2.2 L-8.95 -1.85 -8.95 -1.9 -9.95 -1.5 -10.2 -2.05 -10.05 -2.15 Q-9.75 -2.3 -9.55 -2.35 L-9.85 -2.45 -9.9 -2.45 -10.55 -2.55 -11.1 -2.6 -11.95 -2.8 Q-12.25 -2.85 -12.5 -2.75 L-12.6 -4.55 -10.55 -10.75 Q-10.05 -11.3 -9.5 -11.75 L-9.2 -11.9 -9.1 -12.05 -9.05 -12.05 Q-8.1 -12.65 -7.05 -12.9 -5.2 -13.65 -3.4 -13.5 L-3.4 -13.55 -3.3 -13.5 -2.7 -13.4 Q-1.8 -13.2 -0.95 -12.8 -0.45 -12.65 0.0 -12.45 0.25 -12.45 0.5 -12.2 1.75 -11.5 2.65 -10.4 3.05 -9.9 3.3 -9.45 L3.35 -9.4 Q3.7 -8.8 3.85 -8.2 4.2 -7.8 4.3 -6.55 L3.85 -5.85 3.65 -7.25 3.2 -8.7 2.95 -9.35 2.9 -9.5 Q2.65 -9.95 2.35 -10.35 L2.6 -9.5 2.65 -9.3 Q3.2 -7.5 3.6 -6.05 L3.25 -6.35 M-12.1 -7.3 L-11.25 -6.6 Q-10.5 -6.4 -9.7 -6.1 L-10.5 -6.7 -12.1 -7.3 M-12.15 -3.75 Q-11.35 -3.95 -10.15 -3.35 L-10.1 -3.35 Q-9.75 -3.15 -9.4 -2.9 L-8.95 -2.55 Q-8.85 -2.65 -8.7 -2.6 L-8.65 -2.6 -8.5 -2.55 -8.35 -2.65 Q-8.25 -2.75 -8.1 -2.8 L-7.65 -2.9 -8.0 -3.15 -8.05 -3.1 -8.5 -3.4 -8.55 -3.45 -9.0 -3.7 -9.75 -4.1 Q-11.25 -4.85 -12.4 -4.9 L-12.15 -3.75 M-12.05 -3.15 Q-11.75 -3.2 -11.25 -3.15 L-10.3 -3.0 -10.1 -2.95 -10.25 -3.05 -10.8 -3.2 -12.1 -3.55 -12.05 -3.15 M-2.75 -12.9 Q-1.55 -11.5 -0.45 -9.4 L-0.45 -9.4 -0.7 -10.25 Q-1.2 -11.7 -2.05 -12.75 L-2.75 -12.9 M-8.0 -11.95 Q-6.7 -11.7 -5.5 -10.8 -6.6 -11.7 -7.75 -12.1 L-8.0 -11.95 M-9.2 -11.15 L-9.3 -11.05 -9.1 -11.1 -9.2 -11.15 M-10.55 -9.9 L-10.75 -9.6 Q-9.95 -9.45 -8.85 -8.8 L-8.7 -8.75 Q-9.55 -9.5 -10.45 -10.0 L-10.55 -9.9 M-8.3 -5.45 L-8.15 -5.4 -8.0 -5.3 Q-8.2 -5.45 -8.3 -5.5 L-8.45 -5.55 -8.5 -5.55 -8.3 -5.45" fill="#121212" fill-rule="evenodd" stroke="none"/>
    <path d="M2.9 -6.55 Q2.65 -7.3 2.25 -8.05 L1.95 -9.2 1.85 -9.45 1.85 -9.5 Q1.4 -10.8 1.0 -11.5 1.75 -11.05 2.2 -10.5 L2.25 -10.4 Q2.25 -10.25 2.4 -9.5 L2.45 -9.3 2.5 -9.05 Q2.75 -7.75 2.95 -7.3 L3.25 -6.35 2.9 -6.55 M3.6 -6.05 Q3.2 -7.5 2.65 -9.3 L2.6 -9.5 2.35 -10.35 Q2.65 -9.95 2.9 -9.5 L2.95 -9.35 3.2 -8.7 3.65 -7.25 3.85 -5.85 3.6 -6.05 M-11.1 -2.6 L-10.55 -2.55 -9.9 -2.45 -9.85 -2.45 -9.55 -2.35 Q-9.75 -2.3 -10.05 -2.15 L-10.2 -2.05 -11.1 -2.6 M-9.95 -1.5 L-8.95 -1.9 -8.95 -1.85 -9.65 -0.85 -9.95 -1.5 M-7.35 -3.55 L-7.55 -3.7 -7.8 -3.8 -8.1 -3.9 -8.75 -4.3 -9.45 -4.75 Q-10.7 -5.45 -11.65 -5.65 L-11.8 -6.2 Q-10.45 -6.2 -8.95 -5.5 L-8.4 -5.2 -7.6 -4.75 -7.05 -4.35 -7.35 -3.55 M-6.95 -4.6 L-7.15 -4.75 -8.25 -5.65 -8.6 -5.95 -9.15 -6.3 Q-10.8 -7.5 -11.85 -7.85 L-9.55 -7.45 -8.15 -6.55 -8.05 -6.5 Q-7.65 -6.2 -7.45 -6.0 L-6.75 -5.2 -6.95 -4.6 M-6.6 -5.45 L-7.45 -6.25 Q-7.6 -6.45 -7.85 -6.7 L-8.05 -6.85 Q-8.55 -7.3 -9.45 -7.8 L-11.05 -9.2 -8.9 -8.2 -7.75 -7.6 -7.2 -7.2 -6.95 -7.0 -6.05 -6.05 -6.6 -5.45 M-5.6 -6.3 L-6.55 -7.15 -6.85 -7.45 -7.35 -7.85 -7.35 -7.9 Q-7.75 -8.4 -8.3 -8.9 -9.2 -9.75 -10.35 -10.1 L-10.1 -10.4 -9.5 -10.9 Q-7.3 -9.85 -5.75 -8.5 L-5.4 -8.15 Q-4.9 -7.65 -4.45 -7.15 L-4.2 -6.8 -5.6 -6.3 M-3.85 -6.9 L-4.45 -7.65 -5.0 -8.3 -5.3 -8.6 Q-7.2 -10.65 -9.0 -11.3 L-8.55 -11.6 -8.0 -11.4 Q-6.65 -11.0 -6.1 -10.5 L-5.0 -9.5 Q-4.55 -9.1 -4.3 -8.85 L-4.05 -8.55 -3.1 -7.05 -3.85 -6.9 M-2.45 -7.15 Q-2.9 -7.95 -3.4 -8.6 L-3.45 -8.65 -3.7 -8.95 -3.8 -9.1 Q-4.25 -10.0 -5.1 -10.75 -6.2 -11.75 -7.65 -12.15 -6.65 -12.65 -5.45 -12.95 L-4.85 -12.45 Q-4.0 -11.7 -3.4 -10.95 -3.1 -10.5 -2.65 -9.75 L-2.3 -9.2 -2.05 -8.75 -1.95 -8.6 Q-1.65 -8.25 -1.15 -7.35 L-2.45 -7.15 M-0.75 -7.4 Q-1.2 -8.2 -1.6 -8.8 L-1.65 -8.9 -1.85 -9.25 Q-3.0 -11.25 -4.25 -12.5 L-4.95 -13.1 -4.35 -13.1 -3.75 -13.05 -3.15 -12.95 Q-2.75 -12.3 -2.1 -11.35 -1.15 -10.0 -0.8 -9.35 L-0.75 -9.25 -0.6 -8.9 Q-0.3 -8.35 0.05 -7.45 L-0.75 -7.4 M0.5 -7.45 L0.5 -7.5 Q0.5 -7.65 0.05 -8.95 L0.0 -9.05 -0.15 -9.45 -0.55 -10.6 Q-1.25 -11.95 -1.85 -12.7 L-1.05 -12.45 Q-0.3 -11.3 0.4 -9.5 L0.55 -9.05 0.8 -8.4 1.2 -7.3 0.5 -7.45 M1.7 -7.15 L1.2 -8.7 1.0 -9.1 0.85 -9.5 Q0.05 -11.3 -1.0 -12.4 -0.4 -12.2 0.15 -12.0 0.8 -11.25 1.2 -10.4 L1.5 -9.5 1.6 -9.15 1.8 -8.4 2.1 -7.0 1.7 -7.15 M-2.75 -12.9 L-2.05 -12.75 Q-1.2 -11.7 -0.7 -10.25 L-0.45 -9.4 -0.45 -9.4 Q-1.55 -11.5 -2.75 -12.9 M-12.05 -3.15 L-12.1 -3.55 -10.8 -3.2 -10.25 -3.05 -10.1 -2.95 -10.3 -3.0 -11.25 -3.15 Q-11.75 -3.2 -12.05 -3.15 M-12.15 -3.75 L-12.4 -4.9 Q-11.25 -4.85 -9.75 -4.1 L-9.0 -3.7 -8.55 -3.45 -8.5 -3.4 -8.05 -3.1 -8.0 -3.15 -7.65 -2.9 -8.1 -2.8 Q-8.25 -2.75 -8.35 -2.65 L-8.5 -2.55 -8.65 -2.6 -8.7 -2.6 Q-8.85 -2.65 -8.95 -2.55 L-9.4 -2.9 Q-9.75 -3.15 -10.1 -3.35 L-10.15 -3.35 Q-11.35 -3.95 -12.15 -3.75 M-12.1 -7.3 L-10.5 -6.7 -9.7 -6.1 Q-10.5 -6.4 -11.25 -6.6 L-12.1 -7.3 M-10.55 -9.9 L-10.45 -10.0 Q-9.55 -9.5 -8.7 -8.75 L-8.85 -8.8 Q-9.95 -9.45 -10.75 -9.6 L-10.55 -9.9 M-9.2 -11.15 L-9.1 -11.1 -9.3 -11.05 -9.2 -11.15 M-8.0 -11.95 L-7.75 -12.1 Q-6.6 -11.7 -5.5 -10.8 -6.7 -11.7 -8.0 -11.95 M-8.3 -5.45 L-8.5 -5.55 -8.45 -5.55 -8.3 -5.5 Q-8.2 -5.45 -8.0 -5.3 L-8.15 -5.4 -8.3 -5.45" fill="#003366" fill-rule="evenodd" stroke="none"/>
    <path d="M-12.45 -3.05 L-12.15 -3.25 -12.0 -3.1 -11.95 -3.0 Q-11.15 -3.15 -10.45 -2.7 L-10.25 -2.6 -9.95 -2.35 Q-9.45 -1.85 -9.5 -1.25 -9.3 -1.4 -9.15 -1.7 L-8.85 -2.2 Q-8.5 -2.6 -7.9 -2.7 -7.7 -3.4 -7.35 -4.45 -6.65 -6.5 -6.15 -6.5 -6.05 -6.5 -6.05 -6.45 -6.0 -6.35 -5.95 -6.35 L-5.75 -6.45 -5.5 -6.5 -4.35 -6.85 Q-4.1 -7.15 -3.1 -7.5 -1.75 -8.05 -0.8 -8.0 L0.25 -7.85 Q0.45 -7.85 0.5 -7.7 L0.8 -7.7 Q1.5 -7.6 1.9 -7.4 3.7 -7.7 4.7 -7.2 6.05 -6.0 6.6 -5.1 7.0 -4.05 7.0 -3.35 7.0 -2.75 6.9 -2.15 L6.9 -2.3 Q6.75 -2.8 6.6 -3.2 6.4 -4.05 5.85 -4.65 L5.65 -4.85 Q5.8 -4.5 5.9 -4.1 L5.8 -4.15 5.9 -4.05 5.95 -3.6 Q5.95 -2.9 5.9 -2.75 5.75 -2.3 5.05 -1.95 L4.9 -2.1 Q4.85 -2.1 4.85 -2.2 4.85 -2.25 4.95 -2.45 L5.0 -2.75 Q5.0 -3.35 4.85 -3.8 4.75 -4.2 4.35 -4.95 4.25 -5.2 3.2 -6.0 L2.85 -6.25 3.65 -4.8 3.75 -4.5 3.85 -4.1 Q3.95 -3.4 3.95 -3.1 L3.95 -2.95 3.6 -2.7 3.45 -2.5 Q3.1 -2.2 2.7 -1.95 2.45 -1.45 2.05 -1.35 2.0 -1.4 1.95 -1.4 L1.85 -1.4 1.75 -1.75 Q1.55 -1.7 1.0 -1.4 L0.95 -1.35 Q0.8 -1.45 0.75 -1.5 L0.7 -1.55 Q0.7 -1.65 0.75 -1.75 0.85 -1.8 0.85 -1.9 0.85 -2.7 0.35 -3.4 L-0.2 -4.05 Q-0.6 -4.55 -0.9 -5.1 L-0.3 -3.65 Q0.2 -2.55 0.2 -2.1 L0.1 -0.85 Q0.15 -0.85 -0.05 -0.85 -0.2 -0.85 -0.7 -2.05 L-1.5 -3.8 -1.85 -4.55 Q-2.1 -5.05 -2.3 -5.35 -2.8 -6.0 -3.45 -6.25 -2.7 -5.65 -2.1 -4.8 -1.8 -4.3 -1.6 -3.55 -1.45 -2.85 -1.45 -2.25 -1.45 -1.8 -1.5 -1.6 -1.55 -1.4 -1.8 -0.9 -1.75 -2.7 -2.1 -3.85 -2.25 -4.35 -3.5 -5.45 -3.15 -4.75 -3.15 -4.35 -3.15 -3.45 -3.2 -2.8 -3.25 -2.1 -3.25 -1.2 -3.25 -0.9 -3.4 -0.95 L-3.75 -1.0 Q-4.0 -0.75 -4.35 -0.75 -4.4 -0.65 -4.4 -0.85 L-4.35 -0.9 Q-4.55 -0.85 -4.8 -0.65 -5.0 -0.5 -5.25 -0.45 -5.55 -0.15 -5.95 -0.25 L-5.9 -0.3 -5.95 -0.3 -6.2 -0.35 -6.5 -0.35 Q-6.5 -0.4 -6.5 -0.5 L-6.3 -1.45 Q-6.05 -2.35 -6.05 -2.85 L-6.1 -4.0 -6.15 -4.7 -6.2 -4.5 -6.25 -4.45 -6.25 -4.55 Q-6.25 -4.9 -6.2 -5.2 L-6.25 -5.7 Q-6.7 -4.45 -6.95 -2.7 L-7.35 0.3 -7.5 0.35 Q-7.75 0.15 -7.9 -0.65 L-8.05 -1.4 -8.2 -0.8 Q-8.5 -0.5 -8.9 -0.25 -8.45 -0.85 -8.05 -1.5 L-8.05 -1.6 Q-8.05 -1.85 -8.0 -2.2 -8.35 -1.95 -8.95 -0.95 -9.3 -0.3 -9.55 0.0 L-9.6 -0.55 Q-9.65 -0.85 -10.0 -1.2 -10.05 -1.5 -10.2 -1.7 -10.4 -2.0 -10.75 -2.2 L-11.1 -2.4 Q-11.55 -2.65 -12.1 -2.8 L-12.4 -2.45 Q-12.8 -1.9 -12.8 -1.4 -12.8 -1.2 -13.05 -1.2 -13.35 -1.2 -13.8 -2.3 L-14.05 -2.95 -14.1 -3.55 -14.1 -4.8 -14.05 -4.9 -14.0 -5.25 Q-13.95 -5.85 -13.7 -6.1 -14.6 -6.2 -15.05 -6.7 -15.35 -7.05 -15.4 -7.4 L-15.45 -7.0 Q-15.45 -6.25 -15.1 -5.25 -14.8 -4.2 -14.8 -3.95 -14.8 -3.7 -14.95 -3.3 L-15.0 -2.95 Q-15.15 -2.5 -15.4 -2.3 -15.6 -2.0 -15.8 -2.0 L-16.0 -2.0 -16.2 -1.8 -16.3 -1.85 Q-16.35 -1.9 -16.35 -2.0 -16.5 -2.1 -16.6 -2.2 -17.2 -2.3 -17.4 -2.6 -17.65 -2.85 -17.7 -3.25 L-17.7 -3.4 -17.65 -3.45 -17.45 -3.45 Q-17.3 -3.45 -17.1 -3.3 -17.0 -3.2 -16.85 -3.15 L-16.75 -3.15 Q-16.55 -3.15 -16.45 -3.35 L-16.4 -3.55 Q-16.4 -4.1 -16.8 -4.55 -16.95 -4.75 -17.6 -5.3 -18.8 -6.35 -18.8 -7.5 -18.8 -8.15 -18.7 -8.8 L-18.75 -9.3 Q-18.75 -10.85 -17.5 -12.0 -16.35 -13.05 -14.65 -13.45 -13.0 -13.85 -11.8 -13.4 -10.55 -12.9 -10.55 -11.55 -10.55 -11.35 -10.6 -11.05 -10.25 -10.95 -9.9 -10.65 -9.2 -10.0 -9.2 -8.85 -9.2 -7.85 -9.65 -6.65 -10.35 -4.6 -11.8 -4.6 L-12.3 -4.65 -12.5 -4.75 Q-12.65 -5.15 -13.15 -5.5 L-13.25 -5.45 -13.3 -5.25 -13.25 -4.95 -13.4 -4.55 -13.65 -3.7 -13.7 -3.65 -13.3 -2.8 -13.2 -2.45 -12.45 -3.05 M5.35 -5.7 Q5.85 -5.35 6.25 -4.95 L5.6 -5.75 Q5.05 -6.35 4.65 -6.65 3.75 -7.3 2.35 -7.1 L2.55 -6.9 Q3.7 -6.7 4.5 -6.15 4.95 -5.95 5.35 -5.7 M4.7 -5.3 Q4.65 -5.35 4.65 -5.2 L4.9 -4.4 Q5.2 -3.6 5.2 -3.3 L5.2 -3.05 5.25 -2.75 Q5.4 -2.85 5.45 -3.2 L5.45 -3.55 Q5.45 -4.15 5.35 -4.35 L4.7 -5.3 M-0.95 -7.55 L-1.1 -7.55 Q-1.85 -7.55 -2.45 -7.35 -3.15 -7.5 -3.45 -7.1 -3.85 -7.0 -3.95 -6.7 -3.6 -6.7 -3.35 -6.8 -3.05 -6.9 -2.5 -6.9 L-2.35 -6.9 -2.5 -6.85 Q-2.55 -6.8 -2.65 -6.75 -2.05 -6.65 -1.3 -6.05 -0.55 -5.35 -0.1 -4.45 L0.5 -3.15 Q0.9 -2.4 1.0 -1.85 1.15 -1.9 1.3 -2.0 1.5 -2.4 1.5 -2.8 1.5 -3.6 0.4 -5.3 -0.2 -6.15 -0.65 -6.6 0.4 -5.95 1.1 -4.85 1.95 -3.55 1.95 -2.5 L1.9 -2.3 Q2.1 -2.3 2.2 -2.15 L2.4 -2.7 Q2.6 -3.35 2.6 -3.75 2.6 -4.1 2.3 -4.65 1.95 -5.25 1.4 -5.8 0.9 -6.3 0.35 -6.6 1.55 -6.1 2.2 -5.35 2.95 -4.45 2.95 -3.15 2.95 -2.9 2.9 -2.6 L3.65 -3.2 3.7 -3.35 Q3.7 -5.05 2.65 -6.2 1.65 -7.35 0.4 -7.35 -0.05 -7.55 -0.9 -7.55 L-0.95 -7.55 M-13.4 -11.4 Q-15.1 -11.4 -16.15 -10.0 L-16.4 -9.65 -16.6 -9.0 Q-16.8 -8.45 -16.85 -7.95 L-16.7 -8.3 Q-16.0 -9.7 -15.0 -10.25 -14.15 -10.8 -13.2 -10.6 -12.9 -10.55 -12.65 -10.45 L-12.55 -10.5 -12.3 -10.3 -12.1 -10.15 -12.15 -10.15 -11.8 -9.85 Q-11.35 -9.35 -11.25 -8.8 -11.1 -9.3 -11.0 -9.85 L-11.0 -9.9 Q-11.15 -10.2 -11.35 -10.45 -11.4 -10.85 -11.85 -10.95 -12.5 -11.4 -13.4 -11.4 M-11.6 -11.4 Q-11.4 -11.3 -11.25 -11.15 L-11.0 -11.1 -10.85 -11.1 Q-10.85 -11.25 -10.85 -11.35 -10.85 -11.95 -11.4 -12.55 -12.2 -13.3 -13.6 -13.3 -16.15 -13.3 -17.5 -11.4 -17.95 -10.8 -18.25 -10.05 L-18.35 -9.7 -18.4 -9.4 Q-18.4 -9.0 -18.1 -7.7 L-18.05 -7.5 Q-17.85 -6.3 -17.65 -6.15 L-16.3 -4.5 -16.25 -4.45 Q-16.4 -4.85 -16.6 -5.3 -17.1 -6.3 -17.15 -7.0 L-17.35 -7.1 -17.4 -7.1 Q-17.3 -7.9 -17.25 -8.8 -16.9 -10.15 -15.8 -10.95 -14.85 -11.65 -13.6 -11.75 -12.45 -11.85 -11.6 -11.4 M-14.7 -8.45 Q-14.3 -8.45 -14.25 -8.05 L-13.95 -7.7 -13.95 -7.65 -13.7 -7.4 -13.7 -7.6 Q-13.5 -7.2 -13.3 -7.15 L-13.3 -7.0 -13.05 -6.85 -12.85 -6.8 -12.8 -6.8 -12.55 -7.0 -12.5 -6.95 -12.1 -7.2 -11.9 -7.35 -11.75 -7.55 Q-11.65 -7.85 -11.6 -8.15 L-11.8 -8.95 -11.8 -9.05 -11.85 -9.2 Q-11.95 -9.55 -12.15 -9.75 L-12.2 -9.85 -12.35 -9.95 -12.95 -10.05 -12.9 -10.15 -13.05 -10.15 Q-14.9 -10.15 -15.75 -9.1 -16.3 -8.5 -16.55 -7.3 L-16.8 -6.95 Q-16.7 -6.3 -16.25 -5.5 -15.65 -4.45 -15.65 -3.35 L-15.65 -3.25 Q-15.6 -3.5 -15.6 -3.75 -15.6 -5.0 -15.85 -5.6 -16.1 -6.25 -16.1 -6.85 -16.1 -7.4 -15.85 -8.0 L-15.8 -8.05 Q-15.5 -8.7 -14.95 -8.55 L-14.85 -8.6 -14.9 -8.55 -14.7 -8.45 M-14.95 -7.5 Q-14.95 -7.15 -14.5 -6.85 -14.15 -6.6 -13.65 -6.55 L-13.65 -6.7 Q-13.85 -6.85 -13.95 -7.1 -14.15 -7.45 -14.3 -7.6 -14.5 -7.8 -14.8 -7.8 L-14.95 -7.5 M-13.05 -6.05 Q-12.65 -4.9 -11.85 -4.9 -10.5 -4.9 -9.85 -6.8 -9.5 -7.8 -9.45 -8.85 -9.45 -10.0 -10.05 -10.45 -10.25 -10.6 -10.5 -10.65 -10.45 -10.5 -10.45 -10.3 L-10.45 -10.1 Q-10.25 -9.65 -10.25 -9.2 -10.25 -8.85 -10.4 -8.6 -10.55 -8.3 -10.9 -8.2 L-11.0 -8.0 Q-11.75 -6.15 -13.1 -6.1 L-13.05 -6.05 M-17.1 -4.15 L-17.2 -4.25 -17.1 -4.2 -17.1 -4.15 M-15.3 -4.75 L-15.2 -4.2 -15.15 -4.2 -15.3 -4.75 M-2.05 -7.25 L-2.15 -7.25 -1.35 -7.3 -0.4 -7.2 -0.7 -7.15 Q-0.25 -6.95 0.45 -6.65 L-0.45 -6.85 -1.1 -6.95 -1.4 -6.95 -1.4 -6.9 Q-1.7 -7.1 -2.05 -7.25 M-10.6 -9.2 L-10.7 -8.85 Q-10.6 -9.0 -10.6 -9.2 M-6.95 -4.5 Q-7.7 -2.3 -7.7 -1.05 L-7.65 -0.7 -7.6 -0.3 -7.55 -0.3 -7.25 -2.4 -6.95 -4.55 -6.95 -4.5 M-5.95 -0.6 L-5.6 -0.6 Q-5.2 -1.1 -5.05 -1.8 -4.9 -2.4 -4.9 -3.5 L-4.9 -3.45 Q-4.7 -2.15 -4.7 -1.7 -4.7 -1.2 -5.0 -0.75 -4.6 -0.85 -4.25 -1.1 L-4.1 -1.35 Q-3.8 -1.75 -3.8 -2.15 -3.8 -3.0 -4.15 -4.2 -3.65 -2.95 -3.5 -2.25 -3.4 -2.65 -3.4 -3.15 -3.4 -3.45 -3.4 -3.75 -3.4 -4.35 -3.5 -4.65 -3.6 -5.15 -3.95 -5.65 -4.35 -6.25 -4.8 -6.4 L-5.0 -6.35 -4.8 -5.95 Q-4.95 -6.15 -5.05 -6.25 L-5.25 -6.4 Q-5.45 -6.55 -5.55 -6.5 -5.7 -6.45 -5.7 -6.15 L-5.65 -6.0 -5.6 -5.95 -5.75 -5.8 -5.9 -5.4 -5.8 -2.8 -5.8 -1.8 Q-5.85 -1.3 -6.05 -0.7 -6.15 -0.6 -5.95 -0.6 M-3.2 -6.75 L-3.45 -6.65 -3.5 -6.6 Q-2.15 -5.7 -1.35 -4.15 -0.6 -2.35 -0.15 -1.5 L-0.15 -1.45 -0.1 -1.8 Q-0.05 -2.0 -0.05 -2.1 -0.05 -3.1 -0.8 -4.6 -1.8 -6.45 -3.15 -6.5 L-3.15 -6.75 -3.2 -6.75 M-5.2 -4.95 L-5.1 -4.95 -5.0 -4.1 -5.0 -4.2 -5.2 -4.95 M-11.2 1.35 L-10.65 1.35 Q-10.45 1.4 -10.45 1.65 L-10.25 1.85 -9.7 2.5 -9.55 3.05 -9.45 2.9 Q-8.75 3.8 -8.65 4.55 -8.6 4.75 -8.6 4.9 -8.6 5.25 -8.85 5.55 -9.1 5.95 -9.6 5.95 -10.0 5.95 -10.05 5.8 -10.1 5.7 -10.05 5.6 -10.05 5.4 -9.9 5.15 -9.7 4.9 -9.7 4.7 L-9.7 4.55 -9.9 4.8 Q-10.0 5.0 -10.55 5.0 -11.4 5.0 -11.8 4.4 -11.6 4.05 -11.15 4.0 -10.8 3.95 -10.8 3.75 -10.8 2.95 -11.3 2.25 L-11.65 1.75 Q-11.8 1.55 -11.8 1.45 L-11.8 1.25 -11.2 1.35 M-11.3 1.65 Q-10.9 2.0 -10.65 2.7 -10.4 3.35 -10.4 3.75 -10.4 4.05 -10.4 4.1 -10.5 4.3 -10.8 4.55 L-10.3 4.55 Q-10.15 4.4 -10.0 4.2 -9.85 3.95 -9.85 3.8 -9.85 3.55 -10.45 2.65 -11.1 1.8 -11.3 1.65 M-9.35 5.0 L-9.45 5.2 -9.55 5.45 -9.6 5.5 Q-9.35 5.45 -9.3 5.25 -9.25 5.1 -9.35 5.0" fill="#121212" fill-rule="evenodd" stroke="none"/>
    <path d="M-10.6 -9.2 Q-10.6 -9.0 -10.7 -8.85 L-10.6 -9.2" fill="#cc0000" fill-rule="evenodd" stroke="none"/>
    <path d="M-12.5 -4.75 L-12.5 -4.6 -12.3 -4.6 Q-11.35 -4.6 -11.35 -4.2 L-11.95 -3.8 Q-12.2 -3.65 -12.35 -3.55 -12.3 -3.45 -12.3 -3.35 -12.3 -3.25 -12.4 -3.1 L-12.45 -3.05 -13.2 -2.45 -13.3 -2.8 -13.7 -3.65 -13.65 -3.7 -13.4 -4.55 -13.25 -4.95 -13.3 -5.25 -13.25 -5.45 -13.15 -5.5 Q-12.65 -5.15 -12.5 -4.75 M-0.9 -7.55 Q-0.05 -7.55 0.4 -7.35 1.65 -7.35 2.65 -6.2 3.7 -5.05 3.7 -3.35 L3.65 -3.2 2.9 -2.6 Q2.95 -2.9 2.95 -3.15 2.95 -4.45 2.2 -5.35 1.55 -6.1 0.35 -6.6 0.9 -6.3 1.4 -5.8 1.95 -5.25 2.3 -4.65 2.6 -4.1 2.6 -3.75 2.6 -3.35 2.4 -2.7 L2.2 -2.15 Q2.1 -2.3 1.9 -2.3 L1.95 -2.5 Q1.95 -3.55 1.1 -4.85 0.4 -5.95 -0.65 -6.6 -0.2 -6.15 0.4 -5.3 1.5 -3.6 1.5 -2.8 1.5 -2.4 1.3 -2.0 1.15 -1.9 1.0 -1.85 0.9 -2.4 0.5 -3.15 L-0.1 -4.45 Q-0.55 -5.35 -1.3 -6.05 -2.05 -6.65 -2.65 -6.75 -2.55 -6.8 -2.5 -6.85 L-2.35 -6.9 -2.5 -6.9 Q-3.05 -6.9 -3.35 -6.8 -3.6 -6.7 -3.95 -6.7 -3.85 -7.0 -3.45 -7.1 -3.15 -7.5 -2.45 -7.35 -1.85 -7.55 -1.1 -7.55 L-0.95 -7.55 -0.9 -7.55 M4.7 -5.3 L5.35 -4.35 Q5.45 -4.15 5.45 -3.55 L5.45 -3.2 Q5.4 -2.85 5.25 -2.75 L5.2 -3.05 5.2 -3.3 Q5.2 -3.6 4.9 -4.4 L4.65 -5.2 Q4.65 -5.35 4.7 -5.3 M5.35 -5.7 Q4.95 -5.95 4.5 -6.15 3.7 -6.7 2.55 -6.9 L2.35 -7.1 Q3.75 -7.3 4.65 -6.65 5.05 -6.35 5.6 -5.75 L6.25 -4.95 Q5.85 -5.35 5.35 -5.7 M-14.95 -7.5 L-14.8 -7.8 Q-14.5 -7.8 -14.3 -7.6 -14.15 -7.45 -13.95 -7.1 -13.85 -6.85 -13.65 -6.7 L-13.65 -6.55 Q-14.15 -6.6 -14.5 -6.85 -14.95 -7.15 -14.95 -7.5 M-14.7 -8.45 L-14.9 -8.55 -14.85 -8.6 -14.95 -8.55 Q-15.5 -8.7 -15.8 -8.05 L-15.85 -8.0 Q-16.1 -7.4 -16.1 -6.85 -16.1 -6.25 -15.85 -5.6 -15.6 -5.0 -15.6 -3.75 -15.6 -3.5 -15.65 -3.25 L-15.65 -3.35 Q-15.65 -4.45 -16.25 -5.5 -16.7 -6.3 -16.8 -6.95 L-16.55 -7.3 Q-16.3 -8.5 -15.75 -9.1 -14.9 -10.15 -13.05 -10.15 L-12.9 -10.15 -12.95 -10.05 -12.35 -9.95 -12.2 -9.85 -12.15 -9.75 Q-11.95 -9.55 -11.85 -9.2 L-11.8 -9.05 -11.8 -8.95 -11.6 -8.15 Q-11.65 -7.85 -11.75 -7.55 L-11.9 -7.35 -12.1 -7.2 -12.5 -6.95 -12.55 -7.0 -12.8 -6.8 -12.85 -6.8 -13.05 -6.85 -13.3 -7.0 -13.3 -7.15 Q-13.5 -7.2 -13.7 -7.6 L-13.7 -7.4 -13.95 -7.65 -13.95 -7.7 -14.25 -8.05 Q-14.3 -8.45 -14.7 -8.45 M-11.6 -11.4 Q-12.45 -11.85 -13.6 -11.75 -14.85 -11.65 -15.8 -10.95 -16.9 -10.15 -17.25 -8.8 -17.3 -7.9 -17.4 -7.1 L-17.35 -7.1 -17.15 -7.0 Q-17.1 -6.3 -16.6 -5.3 -16.4 -4.85 -16.25 -4.45 L-16.3 -4.5 -17.65 -6.15 Q-17.85 -6.3 -18.05 -7.5 L-18.1 -7.7 Q-18.4 -9.0 -18.4 -9.4 L-18.35 -9.7 -18.25 -10.05 Q-17.95 -10.8 -17.5 -11.4 -16.15 -13.3 -13.6 -13.3 -12.2 -13.3 -11.4 -12.55 -10.85 -11.95 -10.85 -11.35 -10.85 -11.25 -10.85 -11.1 L-11.0 -11.1 -11.25 -11.15 Q-11.4 -11.3 -11.6 -11.4 M-13.4 -11.4 Q-12.5 -11.4 -11.85 -10.95 -11.4 -10.85 -11.35 -10.45 -11.15 -10.2 -11.0 -9.9 L-11.0 -9.85 Q-11.1 -9.3 -11.25 -8.8 -11.35 -9.35 -11.8 -9.85 L-12.15 -10.15 -12.1 -10.15 -12.3 -10.3 -12.55 -10.5 -12.65 -10.45 Q-12.9 -10.55 -13.2 -10.6 -14.15 -10.8 -15.0 -10.25 -16.0 -9.7 -16.7 -8.3 L-16.85 -7.95 Q-16.8 -8.45 -16.6 -9.0 L-16.4 -9.65 -16.15 -10.0 Q-15.1 -11.4 -13.4 -11.4 M-2.05 -7.25 Q-1.7 -7.1 -1.4 -6.9 L-1.4 -6.95 -1.1 -6.95 -0.45 -6.85 0.45 -6.65 Q-0.25 -6.95 -0.7 -7.15 L-0.4 -7.2 -1.35 -7.3 -2.15 -7.25 -2.05 -7.25 M-5.2 -4.95 L-5.0 -4.2 -5.0 -4.1 -5.1 -4.95 -5.2 -4.95 M-3.2 -6.75 L-3.15 -6.75 -3.15 -6.5 Q-1.8 -6.45 -0.8 -4.6 -0.05 -3.1 -0.05 -2.1 -0.05 -2.0 -0.1 -1.8 L-0.15 -1.45 -0.15 -1.5 Q-0.6 -2.35 -1.35 -4.15 -2.15 -5.7 -3.5 -6.6 L-3.45 -6.65 -3.2 -6.75 M-5.95 -0.6 Q-6.15 -0.6 -6.05 -0.7 -5.85 -1.3 -5.8 -1.8 L-5.8 -2.8 -5.9 -5.4 -5.75 -5.8 -5.6 -5.95 -5.65 -6.0 -5.7 -6.15 Q-5.7 -6.45 -5.55 -6.5 -5.45 -6.55 -5.25 -6.4 L-5.05 -6.25 Q-4.95 -6.15 -4.8 -5.95 L-5.0 -6.35 -4.8 -6.4 Q-4.35 -6.25 -3.95 -5.65 -3.6 -5.15 -3.5 -4.65 -3.4 -4.35 -3.4 -3.75 -3.4 -3.45 -3.4 -3.15 -3.4 -2.65 -3.5 -2.25 -3.65 -2.95 -4.15 -4.2 -3.8 -3.0 -3.8 -2.15 -3.8 -1.75 -4.1 -1.35 L-4.25 -1.1 Q-4.6 -0.85 -5.0 -0.75 -4.7 -1.2 -4.7 -1.7 -4.7 -2.15 -4.9 -3.45 L-4.9 -3.5 Q-4.9 -2.4 -5.05 -1.8 -5.2 -1.1 -5.6 -0.6 L-5.95 -0.6 M-6.95 -4.5 L-6.95 -4.55 -7.25 -2.4 -7.55 -0.3 -7.6 -0.3 -7.65 -0.7 -7.7 -1.05 Q-7.7 -2.3 -6.95 -4.5 M-9.35 5.0 Q-9.25 5.1 -9.3 5.25 -9.35 5.45 -9.6 5.5 L-9.55 5.45 -9.45 5.2 -9.35 5.0 M-11.3 1.65 Q-11.1 1.8 -10.45 2.65 -9.85 3.55 -9.85 3.8 -9.85 3.95 -10.0 4.2 -10.15 4.4 -10.3 4.55 L-10.8 4.55 Q-10.5 4.3 -10.4 4.1 -10.4 4.05 -10.4 3.75 -10.4 3.35 -10.65 2.7 -10.9 2.0 -11.3 1.65" fill="#003366" fill-rule="evenodd" stroke="none"/>
    <path d="M-13.05 -6.05 L-13.1 -6.1 Q-11.75 -6.15 -11.0 -8.0 L-10.9 -8.2 Q-10.55 -8.3 -10.4 -8.6 -10.25 -8.85 -10.25 -9.2 -10.25 -9.65 -10.45 -10.1 L-10.45 -10.3 Q-10.45 -10.5 -10.5 -10.65 -10.25 -10.6 -10.05 -10.45 -9.45 -10.0 -9.45 -8.85 -9.5 -7.8 -9.85 -6.8 -10.5 -4.9 -11.85 -4.9 -12.65 -4.9 -13.05 -6.05" fill="#506060" fill-rule="evenodd" stroke="none"/>
  </g>
</svg>
