<?xml version="1.0" encoding="UTF-8" standalone="no"?>
<svg xmlns:ffdec="https://www.free-decompiler.com/flash" xmlns:xlink="http://www.w3.org/1999/xlink" ffdec:objectType="shape" height="18.65px" width="21.3px" xmlns="http://www.w3.org/2000/svg">
  <g transform="matrix(1.0, 0.0, 0.0, 1.0, 13.15, 14.4)">
    <path d="M3.0 -9.8 L3.0 -9.85 2.6 -10.6 2.55 -10.7 2.45 -10.8 2.25 -11.05 Q0.4 -13.5 -3.25 -13.55 -2.55 -13.0 -1.45 -11.45 -0.1 -9.5 0.0 -8.65 L0.35 -8.7 0.4 -8.7 Q0.35 -9.55 0.1 -10.5 -0.05 -11.3 -0.45 -12.55 -0.05 -12.65 0.35 -11.05 0.6 -9.7 0.6 -8.9 L0.6 -8.75 0.8 -8.55 1.0 -8.45 1.15 -8.3 1.35 -8.25 1.45 -8.25 1.45 -8.4 Q1.45 -8.6 1.5 -8.95 1.65 -9.55 1.95 -9.75 L2.0 -9.75 2.05 -9.6 Q2.05 -9.4 1.85 -8.9 1.7 -8.4 1.6 -8.25 L1.7 -8.3 2.05 -8.25 2.35 -8.2 Q2.7 -8.1 3.0 -7.85 3.0 -7.95 3.2 -8.1 L3.55 -8.3 3.45 -8.6 3.35 -9.05 3.0 -9.8 M0.75 -8.25 Q0.7 -8.35 0.55 -8.35 L0.0 -8.35 0.1 -8.1 Q0.4 -8.2 0.7 -8.2 L0.75 -8.2 0.75 -8.25 M1.15 -8.3 L1.15 -8.25 1.2 -8.2 1.15 -8.3 M1.15 -7.95 L0.95 -7.95 -0.35 -6.95 Q-0.5 -6.7 -0.6 -6.35 -0.75 -5.8 -0.85 -5.2 L-0.85 -4.9 -0.9 -4.6 Q-0.9 -3.9 -0.5 -3.3 0.05 -2.45 1.1 -2.5 L1.15 -2.45 Q1.15 -2.4 1.15 -2.3 1.15 -2.05 0.95 -1.9 0.8 -1.75 0.5 -1.75 L0.45 -1.7 Q0.35 -1.6 0.2 -1.6 -0.7 -1.6 -1.35 -2.65 -1.7 -3.0 -1.9 -3.5 -2.1 -3.95 -2.15 -4.45 -2.15 -4.8 -2.15 -5.2 L-2.15 -5.45 Q-2.15 -5.85 -2.1 -6.2 L-2.0 -6.85 Q-2.75 -6.2 -3.1 -5.35 -3.35 -4.7 -3.4 -3.9 L-3.45 -3.4 Q-3.45 -2.95 -3.1 -2.65 L-2.0 -1.7 -1.9 -1.7 -1.85 -1.45 Q-1.9 -1.35 -2.2 -1.2 L-2.45 -1.1 -2.45 -1.05 Q-2.6 -0.95 -2.7 -0.95 -3.45 -0.95 -4.0 -1.45 -4.2 -1.15 -4.7 -0.65 -5.55 0.2 -6.2 0.2 -6.95 0.2 -7.6 -0.05 L-8.05 -0.05 -8.3 -0.1 -9.15 1.0 Q-10.1 2.25 -10.1 2.8 -10.1 3.1 -9.8 3.45 L-9.55 3.7 -9.4 3.75 Q-9.0 3.75 -8.8 3.5 -8.7 3.3 -8.7 3.2 -8.7 3.05 -8.8 2.9 -8.9 2.8 -8.95 2.8 -9.2 2.8 -9.4 2.9 -9.65 2.95 -9.7 3.0 L-9.75 3.0 -9.5 2.65 Q-9.3 2.35 -8.95 2.35 -8.5 2.35 -8.3 2.8 -8.25 3.0 -8.25 3.2 -8.25 3.55 -8.5 3.85 -8.8 4.25 -9.4 4.25 -10.1 4.25 -10.65 3.4 -11.05 2.8 -11.05 2.5 -11.05 2.25 -10.6 1.55 L-10.5 1.2 -10.4 0.9 Q-10.1 -0.3 -10.1 -0.5 -10.1 -1.2 -10.7 -1.85 -11.4 -2.65 -12.45 -2.65 L-12.65 -2.7 -12.7 -2.75 -12.8 -2.65 -12.85 -3.1 Q-13.15 -4.3 -13.15 -5.85 -13.15 -6.65 -13.05 -7.4 L-13.0 -7.8 Q-12.9 -8.35 -12.65 -9.0 L-12.35 -9.7 Q-12.1 -10.15 -11.8 -10.5 L-11.6 -10.7 -11.15 -11.25 Q-10.7 -11.7 -10.15 -12.15 L-10.05 -12.25 Q-9.6 -12.65 -9.0 -13.0 L-8.7 -13.1 Q-8.1 -13.45 -7.55 -13.7 L-6.15 -13.7 Q-5.6 -14.1 -5.25 -14.2 L-4.9 -14.2 -4.9 -14.25 Q-4.75 -14.35 -4.45 -14.35 L-4.35 -14.4 Q-3.95 -14.4 -3.35 -14.35 -1.75 -14.2 -0.7 -13.7 0.75 -13.15 1.65 -12.3 4.05 -10.2 4.0 -8.5 L4.0 -8.35 Q4.35 -8.3 4.45 -7.95 L4.7 -7.9 Q7.2 -7.6 7.2 -4.3 7.2 -3.5 7.0 -2.7 L7.3 -2.65 7.35 -2.65 7.7 -2.75 7.95 -2.85 8.1 -2.8 Q8.15 -2.8 8.15 -2.65 8.15 -2.5 7.95 -2.3 7.75 -2.15 7.6 -2.15 L7.1 -2.2 6.85 -2.2 Q6.7 -1.75 6.45 -1.45 6.35 -1.25 6.15 -1.1 L6.15 -1.15 6.1 -1.1 5.9 -1.1 5.9 -1.15 5.8 -1.15 5.8 -1.3 Q5.8 -1.4 5.9 -1.8 L5.9 -1.9 6.0 -2.35 6.0 -2.45 Q5.7 -2.6 5.45 -2.8 4.4 -3.2 4.05 -3.8 3.9 -4.0 3.75 -4.35 3.5 -4.7 3.4 -5.0 L3.1 -5.7 2.65 -6.55 Q2.2 -7.15 1.7 -7.65 L1.35 -7.95 1.15 -7.95 M4.75 -5.05 Q4.9 -5.0 5.05 -4.9 5.7 -4.7 6.1 -3.9 6.3 -3.55 6.45 -3.15 L6.45 -3.25 Q6.6 -3.75 6.6 -4.1 6.6 -5.3 5.9 -6.3 5.3 -7.2 4.25 -7.65 L3.5 -7.7 3.4 -7.75 3.25 -7.7 3.15 -7.7 3.3 -7.5 Q3.55 -7.2 3.75 -6.7 L3.85 -6.55 4.0 -6.15 4.2 -5.7 Q4.35 -5.55 4.5 -5.2 L4.6 -5.1 4.75 -5.05 M3.75 -5.7 L3.95 -5.4 3.75 -5.8 3.75 -5.7 M5.15 -4.35 L4.8 -4.7 Q5.05 -4.15 5.25 -3.9 5.45 -3.6 5.7 -3.35 L5.5 -3.8 5.15 -4.35 M-11.65 -9.05 L-11.9 -8.5 Q-12.35 -7.4 -12.4 -6.4 L-11.95 -7.05 Q-10.8 -8.7 -9.65 -9.05 -9.6 -9.1 -9.6 -8.95 L-9.7 -8.8 Q-9.8 -8.7 -9.9 -8.65 L-9.75 -8.8 Q-11.35 -7.65 -12.3 -5.8 -12.2 -5.1 -11.9 -3.65 L-11.85 -3.4 -11.8 -3.05 -11.55 -3.0 -11.45 -3.35 -11.15 -4.15 Q-10.6 -5.15 -9.7 -6.1 -8.35 -7.4 -6.7 -8.15 -7.35 -7.8 -8.05 -7.25 -9.05 -6.45 -9.9 -5.45 L-10.0 -5.35 -8.85 -6.25 -6.35 -8.0 Q-6.25 -8.0 -6.25 -7.95 -6.3 -7.85 -6.35 -7.8 -6.4 -7.75 -6.4 -7.85 L-10.65 -4.4 -11.0 -3.65 -11.1 -3.2 -11.2 -2.85 -10.5 -2.1 -10.35 -2.4 Q-10.0 -3.05 -9.4 -3.9 -8.1 -5.65 -6.9 -6.2 L-6.9 -6.8 Q-6.7 -7.6 -5.95 -8.15 -5.3 -8.65 -4.45 -8.85 L-4.3 -8.85 -4.15 -8.9 Q-3.55 -8.95 -3.05 -8.8 -2.55 -8.65 -2.45 -8.25 -1.95 -8.25 -1.65 -7.75 L-1.6 -7.75 Q-1.25 -8.3 -0.7 -8.5 L-1.4 -8.9 Q-2.0 -9.25 -2.5 -9.45 -4.0 -10.1 -6.35 -10.1 L-6.95 -10.05 -7.6 -9.95 -7.65 -9.9 Q-7.65 -9.85 -7.65 -9.95 -6.3 -10.55 -5.5 -10.4 -3.7 -10.35 -2.2 -9.7 -1.05 -9.2 -0.5 -8.55 L-0.35 -8.55 -0.4 -8.65 -0.45 -8.65 -0.45 -8.7 Q-1.25 -9.65 -2.25 -10.5 L-3.45 -11.45 Q-3.65 -11.55 -3.9 -11.75 L-4.05 -11.85 Q-5.05 -12.5 -6.2 -13.0 L-6.45 -13.05 -6.75 -13.0 -7.3 -13.05 -7.65 -12.9 -8.75 -12.25 -9.05 -12.05 -9.65 -11.6 -10.4 -10.85 Q-10.85 -10.35 -11.2 -9.85 L-11.1 -9.95 Q-10.45 -10.4 -9.6 -10.85 -7.4 -11.95 -6.65 -11.5 -6.8 -11.3 -7.85 -11.05 -9.1 -10.8 -9.55 -10.5 -11.25 -9.45 -11.65 -9.0 L-11.65 -9.05 M-1.65 -10.75 L-1.2 -10.3 -1.65 -11.0 Q-2.65 -12.55 -3.6 -13.55 -4.45 -13.5 -5.3 -13.25 -5.7 -13.15 -5.95 -13.05 -3.95 -12.4 -2.1 -10.85 L-1.65 -10.45 Q-1.75 -10.65 -1.75 -10.75 L-1.65 -10.75 M-3.4 -7.15 L-3.8 -6.8 Q-4.0 -6.6 -4.2 -6.4 -4.45 -6.0 -4.6 -5.65 -4.7 -5.35 -4.7 -5.05 L-4.75 -4.85 Q-4.75 -4.15 -4.45 -3.45 L-4.45 -3.8 Q-4.35 -4.95 -3.9 -5.85 -3.5 -6.65 -2.85 -7.15 -2.45 -7.45 -1.95 -7.65 -2.65 -7.55 -3.2 -7.25 L-3.4 -7.15 M-3.6 -8.2 Q-3.85 -8.3 -4.0 -8.3 L-4.25 -8.3 Q-5.4 -8.2 -6.0 -7.1 -6.35 -6.5 -6.45 -6.0 L-6.45 -5.7 -6.35 -4.75 -6.35 -4.7 -6.25 -3.7 -6.25 -3.0 Q-6.3 -2.5 -6.7 -1.8 L-6.75 -1.65 Q-7.1 -1.0 -7.6 -0.9 -7.9 -0.8 -8.2 -0.8 L-7.8 -0.6 -6.95 -0.5 Q-5.65 -0.5 -4.9 -1.25 -4.5 -1.6 -4.35 -1.9 -4.6 -2.25 -4.8 -2.7 -5.2 -3.75 -5.2 -4.6 L-5.2 -4.85 Q-5.2 -5.75 -5.15 -5.9 -5.05 -6.3 -4.25 -7.15 -3.75 -7.7 -3.1 -8.05 L-3.15 -8.1 -3.2 -8.1 Q-3.35 -8.1 -3.6 -8.2 M-1.65 -6.15 Q-1.7 -5.8 -1.7 -5.4 L-1.7 -5.0 -1.65 -4.65 -1.55 -4.25 -1.45 -4.05 -1.55 -4.65 -1.55 -5.2 Q-1.5 -5.75 -1.35 -6.2 -1.2 -6.65 -1.0 -7.0 -0.6 -7.75 0.05 -8.05 L-0.15 -8.35 -0.25 -8.3 -0.4 -8.2 Q-1.05 -7.65 -1.4 -6.85 L-1.55 -6.45 -1.6 -6.35 -1.65 -6.15 M-9.6 0.0 Q-9.3 -0.2 -9.0 -0.25 L-8.9 -0.25 -8.9 -0.1 -9.0 0.05 Q-8.8 -0.1 -8.55 -0.2 L-8.95 -0.5 Q-9.6 -0.95 -9.7 -1.3 L-9.65 -1.35 -9.65 -1.75 -9.6 -1.75 -9.4 -1.8 -9.35 -1.8 -9.3 -1.9 Q-9.1 -1.85 -8.8 -1.55 L-8.6 -1.4 -8.4 -1.4 -8.15 -1.45 Q-7.7 -1.55 -7.35 -1.95 -7.15 -2.15 -7.0 -2.45 L-6.9 -2.75 -6.9 -6.05 Q-8.4 -4.85 -9.35 -3.4 -9.85 -2.7 -10.1 -2.0 L-10.2 -1.75 -10.15 -1.7 Q-9.9 -1.3 -9.9 -0.65 L-9.9 -0.45 -9.75 -0.2 -9.7 -0.1 -9.65 0.05 -9.6 0.0" fill="#111111" fill-rule="evenodd" stroke="none"/>
    <path d="M3.45 -8.6 L3.55 -8.3 3.2 -8.1 Q3.0 -7.95 3.0 -7.85 2.7 -8.1 2.35 -8.2 L2.05 -8.25 1.7 -8.3 1.6 -8.25 Q1.7 -8.4 1.85 -8.9 2.05 -9.4 2.05 -9.6 L2.0 -9.75 1.95 -9.75 Q1.65 -9.55 1.5 -8.95 1.45 -8.6 1.45 -8.4 L1.45 -8.25 1.35 -8.25 1.15 -8.3 1.0 -8.45 0.8 -8.55 0.6 -8.75 0.6 -8.9 Q0.6 -9.7 0.35 -11.05 -0.05 -12.65 -0.45 -12.55 -0.05 -11.3 0.1 -10.5 0.35 -9.55 0.4 -8.7 L0.35 -8.7 0.0 -8.65 Q-0.1 -9.5 -1.45 -11.45 -2.55 -13.0 -3.25 -13.55 0.4 -13.5 2.25 -11.05 L2.45 -10.8 2.55 -10.7 2.6 -10.6 3.0 -9.85 3.0 -9.8 3.4 -8.8 3.45 -8.6 M0.7 -8.2 Q0.4 -8.2 0.1 -8.1 L0.0 -8.35 0.55 -8.35 Q0.7 -8.35 0.75 -8.25 L0.7 -8.2 M1.15 -8.3 L1.2 -8.2 1.15 -8.25 1.15 -8.3 M4.5 -5.2 Q4.35 -5.55 4.2 -5.7 L4.0 -6.15 3.85 -6.55 3.75 -6.7 Q3.55 -7.2 3.3 -7.5 L3.15 -7.7 3.25 -7.7 3.4 -7.75 3.5 -7.7 4.25 -7.65 Q5.3 -7.2 5.9 -6.3 6.6 -5.3 6.6 -4.1 6.6 -3.75 6.45 -3.25 L6.45 -3.15 Q6.3 -3.55 6.1 -3.9 5.7 -4.7 5.05 -4.9 4.9 -5.0 4.75 -5.05 L4.5 -5.2 M-1.6 -6.35 L-1.55 -6.45 -1.4 -6.85 Q-1.05 -7.65 -0.4 -8.2 L-0.25 -8.3 -0.15 -8.35 0.05 -8.05 Q-0.6 -7.75 -1.0 -7.0 -1.2 -6.65 -1.35 -6.2 -1.5 -5.75 -1.55 -5.2 L-1.55 -4.65 -1.45 -4.05 -1.55 -4.25 -1.65 -4.65 -1.7 -5.0 -1.7 -5.4 Q-1.7 -5.8 -1.65 -6.15 L-1.65 -6.1 -1.6 -6.35 M-3.6 -8.2 Q-3.35 -8.1 -3.2 -8.1 L-3.15 -8.1 -3.1 -8.05 Q-3.75 -7.7 -4.25 -7.15 -5.05 -6.3 -5.15 -5.9 -5.2 -5.75 -5.2 -4.85 L-5.2 -4.6 Q-5.2 -3.75 -4.8 -2.7 -4.6 -2.25 -4.35 -1.9 -4.5 -1.6 -4.9 -1.25 -5.65 -0.5 -6.95 -0.5 L-7.8 -0.6 -8.2 -0.8 Q-7.9 -0.8 -7.6 -0.9 -7.1 -1.0 -6.75 -1.65 L-6.7 -1.8 Q-6.3 -2.5 -6.25 -3.0 L-6.25 -3.7 -6.35 -4.7 -6.35 -4.75 -6.45 -5.7 -6.45 -6.0 Q-6.35 -6.5 -6.0 -7.1 -5.4 -8.2 -4.25 -8.3 L-4.0 -8.3 Q-3.85 -8.3 -3.6 -8.2 M-3.4 -7.15 L-3.2 -7.25 Q-2.65 -7.55 -1.95 -7.65 -2.45 -7.45 -2.85 -7.15 -3.5 -6.65 -3.9 -5.85 -4.35 -4.95 -4.45 -3.8 L-4.45 -3.45 Q-4.75 -4.15 -4.75 -4.85 L-4.7 -5.05 Q-4.7 -5.35 -4.6 -5.65 -4.45 -6.0 -4.2 -6.4 -4.0 -6.6 -3.8 -6.8 L-3.4 -7.15 M-1.65 -10.75 L-1.75 -10.75 Q-1.75 -10.65 -1.65 -10.45 L-2.1 -10.85 Q-3.95 -12.4 -5.95 -13.05 -5.7 -13.15 -5.3 -13.25 -4.45 -13.5 -3.6 -13.55 -2.65 -12.55 -1.65 -11.0 L-1.2 -10.3 -1.65 -10.75 M-11.65 -9.05 L-11.65 -9.0 Q-11.25 -9.45 -9.55 -10.5 -9.1 -10.8 -7.85 -11.05 -6.8 -11.3 -6.65 -11.5 -7.4 -11.95 -9.6 -10.85 -10.45 -10.4 -11.1 -9.95 L-11.2 -9.85 Q-10.85 -10.35 -10.4 -10.85 L-9.65 -11.6 -9.05 -12.05 -8.75 -12.25 -7.65 -12.9 -7.3 -13.05 -6.75 -13.0 -6.45 -13.05 -6.2 -13.0 Q-5.05 -12.5 -4.05 -11.85 L-3.9 -11.75 Q-3.65 -11.55 -3.45 -11.45 L-2.25 -10.5 Q-1.25 -9.65 -0.45 -8.7 L-0.45 -8.65 -0.4 -8.65 -0.35 -8.55 -0.5 -8.55 Q-1.05 -9.2 -2.2 -9.7 -3.7 -10.35 -5.5 -10.4 -6.3 -10.55 -7.65 -9.95 -7.65 -9.85 -7.65 -9.9 L-7.6 -9.95 -6.95 -10.05 -6.35 -10.1 Q-4.0 -10.1 -2.5 -9.45 -2.0 -9.25 -1.4 -8.9 L-0.7 -8.5 Q-1.25 -8.3 -1.6 -7.75 L-1.65 -7.75 Q-1.95 -8.25 -2.45 -8.25 -2.55 -8.65 -3.05 -8.8 -3.55 -8.95 -4.15 -8.9 L-4.3 -8.85 -4.45 -8.85 Q-5.3 -8.65 -5.95 -8.15 -6.7 -7.6 -6.9 -6.8 L-6.9 -6.2 Q-8.1 -5.65 -9.4 -3.9 -10.0 -3.05 -10.35 -2.4 L-10.5 -2.1 -11.2 -2.85 -11.1 -3.2 -11.0 -3.65 -10.65 -4.4 -6.4 -7.85 Q-6.4 -7.75 -6.35 -7.8 -6.3 -7.85 -6.25 -7.95 -6.25 -8.0 -6.35 -8.0 L-8.85 -6.25 -10.0 -5.35 -9.9 -5.45 Q-9.05 -6.45 -8.05 -7.25 -7.35 -7.8 -6.7 -8.15 -8.35 -7.4 -9.7 -6.1 -10.6 -5.15 -11.15 -4.15 L-11.45 -3.35 -11.55 -3.0 -11.8 -3.05 -11.85 -3.4 -11.9 -3.65 Q-12.2 -5.1 -12.3 -5.8 -11.35 -7.65 -9.75 -8.8 L-9.9 -8.65 Q-9.8 -8.7 -9.7 -8.8 L-9.6 -8.95 Q-9.6 -9.1 -9.65 -9.05 -10.8 -8.7 -11.95 -7.05 L-12.4 -6.4 Q-12.35 -7.4 -11.9 -8.5 L-11.65 -9.05 M-9.7 -0.1 L-9.75 -0.2 -9.9 -0.45 -9.9 -0.65 Q-9.9 -1.3 -10.15 -1.7 L-10.2 -1.75 -10.1 -2.0 Q-9.85 -2.7 -9.35 -3.4 -8.4 -4.85 -6.9 -6.05 L-6.9 -2.75 -7.0 -2.45 Q-7.15 -2.15 -7.35 -1.95 -7.7 -1.55 -8.15 -1.45 L-8.4 -1.4 -8.6 -1.4 -8.8 -1.55 Q-9.1 -1.85 -9.3 -1.9 L-9.35 -1.8 -9.4 -1.8 -9.6 -1.75 -9.65 -1.75 -9.65 -1.35 -9.7 -1.3 Q-9.6 -0.95 -8.95 -0.5 L-8.55 -0.2 Q-8.8 -0.1 -9.0 0.05 L-8.9 -0.1 -8.9 -0.25 -9.0 -0.25 Q-9.3 -0.2 -9.6 0.0 L-9.7 -0.1" fill="#003366" fill-rule="evenodd" stroke="none"/>
  </g>
</svg>
