<?xml version="1.0" encoding="UTF-8" standalone="no"?>
<svg xmlns:ffdec="https://www.free-decompiler.com/flash" xmlns:xlink="http://www.w3.org/1999/xlink" ffdec:objectType="frame" height="111.65px" width="92.4px" xmlns="http://www.w3.org/2000/svg">
  <g transform="matrix(1.0, 0.0, 0.0, 1.0, 43.05, 72.1)">
    <use ffdec:characterId="936" height="15.95" transform="matrix(7.0, 0.0, 0.0, 7.0, -43.05, -72.1)" width="13.2" xlink:href="#shape0"/>
  </g>
  <defs>
    <g id="shape0" transform="matrix(1.0, 0.0, 0.0, 1.0, 6.15, 10.3)">
      <path d="M-0.2 -1.25 L-0.45 -1.3 -0.8 -1.3 -0.8 -1.35 Q-0.8 -1.95 -1.8 -1.8 -2.2 -1.75 -2.5 -1.6 -2.8 -1.45 -2.8 -1.4 L-2.8 -1.2 -2.9 -1.2 -3.2 -2.1 Q-3.5 -2.95 -3.5 -3.1 L-3.5 -3.15 -3.3 -3.0 -2.55 -2.55 -1.9 -2.5 -1.4 -2.55 Q-1.2 -2.6 -1.1 -2.65 L-0.95 -2.7 Q-0.6 -2.85 0.1 -3.35 L0.15 -3.4 0.2 -3.4 Q0.7 -3.7 1.2 -4.2 L0.45 -2.6 -0.2 -1.25 M-6.1 -4.3 L-6.15 -4.05 -6.15 -4.1 -6.1 -4.3" fill="#d6b37e" fill-rule="evenodd" stroke="none"/>
      <path d="M4.1 3.5 L4.15 3.45 4.25 3.5 4.1 3.5 M3.15 3.7 L3.5 3.55 3.65 3.6 3.35 3.65 3.15 3.7 M0.7 3.15 L0.6 3.15 0.45 3.05 0.7 3.15" fill="#485679" fill-rule="evenodd" stroke="none"/>
      <path d="M-0.8 -1.3 L-1.7 -1.3 -1.85 -1.25 -2.0 -1.3 -2.6 -1.2 -2.8 -1.2 -2.8 -1.4 Q-2.8 -1.45 -2.5 -1.6 -2.2 -1.75 -1.8 -1.8 -0.8 -1.95 -0.8 -1.35 L-0.8 -1.3 M-4.25 -7.4 L-4.25 -7.4" fill="#c67137" fill-rule="evenodd" stroke="none"/>
      <path d="M-1.05 -3.7 L-1.1 -3.7 -1.05 -3.7" fill="#663e5c" fill-rule="evenodd" stroke="none"/>
      <path d="M0.0 -1.2 L-0.1 -1.05 -0.2 -1.05 -0.2 -1.25 0.45 -2.6 1.2 -4.2 1.45 -4.8 1.55 -4.8 1.55 -4.7 1.5 -4.5 Q1.4 -4.0 0.75 -2.7 L0.2 -1.65 0.15 -1.55 0.1 -1.45 0.1 -1.4 0.0 -1.2 M-2.9 -1.2 L-2.8 -1.0 -2.75 -0.95 -2.8 -0.95 -2.85 -0.9 -2.9 -0.95 -3.0 -1.2 -3.1 -1.35 -3.15 -1.6 -3.3 -1.9 -3.3 -2.0 Q-3.6 -2.9 -3.6 -3.1 L-3.6 -3.3 -3.6 -3.35 -3.5 -3.35 Q-3.45 -3.35 -3.5 -3.25 L-3.5 -3.15 -3.5 -3.1 Q-3.5 -2.95 -3.2 -2.1 L-2.9 -1.2" fill="#180e06" fill-rule="evenodd" stroke="none"/>
      <path d="M6.4 -6.7 L6.45 -6.6 6.5 -6.45 6.55 -6.4 6.6 -6.2 6.65 -6.1 6.4 -6.45 6.45 -6.45 6.45 -6.0 6.5 -5.75 6.5 -5.45 Q6.45 -4.5 6.35 -3.65 L6.3 -3.4 6.3 -3.35 6.2 -2.9 6.15 -2.75 5.95 -2.35 5.85 -2.25 5.55 -1.8 Q5.25 -1.35 5.0 -1.05 L4.8 -0.9 4.65 -0.75 4.1 -0.35 4.05 -0.3 4.0 -0.2 4.0 -0.15 4.1 -0.1 4.3 -0.15 4.35 -0.2 4.35 -0.05 4.4 0.25 4.4 0.4 4.35 0.35 Q3.85 0.0 3.25 -0.25 L3.1 -0.3 3.05 -0.3 2.95 -0.35 2.9 -0.4 2.9 -0.45 2.8 -0.4 2.75 -0.45 2.5 -0.55 Q2.5 -0.85 3.1 -1.25 3.8 -1.75 3.95 -2.25 3.95 -3.4 4.1 -3.9 4.45 -5.2 4.6 -5.6 5.1 -6.75 5.9 -6.8 L6.05 -6.8 Q6.25 -6.8 6.4 -6.7 M0.1 -1.2 L0.0 -1.2 0.1 -1.4 0.05 -1.25 0.1 -1.2 M-3.1 -1.2 Q-3.95 -1.1 -4.4 -0.9 L-4.55 -0.85 -4.6 -0.85 -4.6 -0.9 -4.7 -1.0 -4.0 -1.55 Q-3.55 -1.85 -3.3 -1.9 L-3.15 -1.6 -3.1 -1.35 -3.05 -1.25 -3.1 -1.2" fill="#3f201d" fill-rule="evenodd" stroke="none"/>
      <path d="M3.45 -8.15 Q3.55 -8.35 3.65 -8.35 4.6 -8.35 5.45 -7.6 L5.7 -7.6 5.9 -7.4 Q6.15 -7.15 6.4 -6.7 6.25 -6.8 6.05 -6.8 L5.9 -6.8 Q5.1 -6.75 4.6 -5.6 4.45 -5.2 4.1 -3.9 3.95 -3.4 3.95 -2.25 3.8 -1.75 3.1 -1.25 2.5 -0.85 2.5 -0.55 L2.3 -0.6 1.45 -0.85 Q0.8 -1.05 0.1 -1.2 L0.05 -1.25 0.1 -1.4 0.1 -1.45 0.15 -1.55 0.2 -1.65 0.75 -2.7 Q1.4 -4.0 1.5 -4.5 1.9 -4.9 2.25 -5.4 L2.65 -6.0 2.65 -6.05 2.75 -6.35 2.8 -6.45 2.85 -6.5 2.95 -6.75 3.25 -7.45 3.35 -7.95 3.4 -8.05 3.45 -8.15 M6.6 -6.2 L6.65 -6.05 6.65 -6.1 6.6 -6.2 M-3.0 -1.2 L-3.1 -1.2 -3.05 -1.25 -3.1 -1.35 -3.0 -1.2 M-4.7 -1.0 L-4.8 -1.15 -4.85 -1.2 -5.35 -1.8 -5.35 -1.85 -5.4 -1.95 -5.7 -2.45 -5.9 -3.0 -5.95 -3.2 -5.95 -3.55 Q-5.9 -4.25 -5.4 -5.45 L-5.35 -5.55 -4.5 -7.05 -4.25 -7.4 -4.3 -7.3 -4.3 -7.1 -4.35 -6.8 -4.35 -6.65 -4.35 -6.6 -4.35 -6.05 Q-4.35 -4.95 -4.1 -4.2 L-4.0 -3.9 Q-3.95 -3.7 -3.85 -3.5 L-3.6 -3.3 -3.6 -3.1 Q-3.6 -2.9 -3.3 -2.0 L-3.3 -1.9 Q-3.55 -1.85 -4.0 -1.55 L-4.7 -1.0" fill="#6a2c1a" fill-rule="evenodd" stroke="none"/>
      <path d="M-3.35 -5.45 L-3.35 -5.65 -3.3 -5.8 -3.35 -5.9 Q-3.4 -6.1 -3.35 -6.3 -3.35 -6.5 -3.15 -7.05 -2.5 -6.4 -1.7 -6.4 -1.05 -6.4 0.25 -7.0 1.05 -7.4 1.35 -7.65 L1.35 -7.5 Q1.35 -7.0 0.75 -6.25 L0.25 -5.65 0.2 -5.6 0.1 -5.5 -0.3 -5.15 Q-0.9 -4.7 -1.5 -4.55 L-1.5 -4.55 Q-1.0 -4.65 -0.45 -4.95 -0.25 -5.1 -0.1 -5.2 L0.2 -5.4 0.25 -5.4 0.25 -5.45 0.3 -5.45 0.4 -5.55 0.45 -5.55 0.75 -5.8 0.85 -5.9 Q1.25 -6.05 1.25 -5.7 -0.05 -3.7 -0.95 -3.7 L-1.05 -3.7 -1.05 -3.7 -1.1 -3.7 -1.2 -3.7 Q-2.15 -3.7 -2.65 -4.2 -2.95 -4.5 -3.0 -4.75 L-3.15 -5.0 -3.3 -5.4 -3.35 -5.45 M-1.3 -3.0 Q-1.45 -2.95 -1.55 -2.9 -1.9 -2.8 -2.2 -2.75 -2.55 -2.8 -2.85 -2.95 -2.95 -3.0 -3.0 -3.05 -3.25 -3.2 -3.4 -3.45 L-3.5 -3.6 Q-3.7 -3.9 -3.8 -4.35 L-3.95 -5.2 -4.0 -5.3 Q-4.1 -6.0 -4.15 -6.7 L-4.15 -6.95 -4.15 -6.9 Q-4.05 -6.8 -3.95 -6.8 -3.85 -6.8 -3.8 -6.9 -3.75 -6.1 -3.45 -5.3 -3.2 -4.6 -2.8 -4.2 L-2.8 -4.0 -2.35 -3.45 Q-1.8 -3.0 -1.35 -3.0 L-1.3 -3.0 M-4.8 3.65 L-4.6 3.9 -4.8 3.7 -4.8 3.65 M-4.85 3.15 L-4.85 3.15" fill="#b34424" fill-rule="evenodd" stroke="none"/>
      <path d="M-3.35 -5.45 Q-3.65 -6.35 -3.65 -7.1 -3.65 -7.5 -3.5 -8.1 L-3.45 -8.25 -3.4 -8.45 -3.3 -8.7 -3.2 -8.8 Q-3.0 -9.05 -2.85 -9.05 L-2.7 -9.1 Q-2.5 -9.25 -2.2 -9.3 -0.7 -10.0 0.6 -10.05 L1.75 -10.0 1.85 -10.0 Q2.15 -9.95 2.55 -9.75 L2.4 -9.85 2.75 -9.7 3.4 -9.15 3.1 -8.8 3.1 -8.75 2.9 -8.55 2.9 -8.5 2.85 -8.4 2.7 -8.25 2.2 -7.55 Q1.5 -6.6 1.05 -6.4 L0.7 -6.05 0.2 -5.6 0.25 -5.65 0.75 -6.25 Q1.35 -7.0 1.35 -7.5 L1.35 -7.65 Q1.05 -7.4 0.25 -7.0 -1.05 -6.4 -1.7 -6.4 -2.5 -6.4 -3.15 -7.05 -3.35 -6.5 -3.35 -6.3 -3.4 -6.1 -3.35 -5.9 L-3.3 -5.8 -3.35 -5.65 -3.35 -5.45 M0.85 -5.9 L1.95 -6.95 2.95 -8.05 3.05 -8.2 3.45 -8.7 3.25 -8.15 2.9 -7.2 2.6 -6.5 2.2 -5.8 2.0 -5.6 Q1.05 -4.55 -0.05 -3.8 L-0.7 -3.3 -1.3 -3.0 -1.35 -3.0 Q-1.8 -3.0 -2.35 -3.45 L-2.8 -4.0 -2.8 -4.2 -2.7 -4.1 Q-2.5 -3.9 -2.3 -3.8 L-2.25 -3.8 Q-1.95 -3.7 -1.5 -3.6 L-1.15 -3.65 -1.1 -3.65 -1.05 -3.7 -0.95 -3.7 Q-0.05 -3.7 1.25 -5.7 1.25 -6.05 0.85 -5.9 M-4.15 -6.95 L-4.05 -7.7 -4.05 -7.75 -4.0 -7.8 -3.9 -8.0 -3.8 -8.0 -3.85 -7.15 -3.8 -6.9 Q-3.85 -6.8 -3.95 -6.8 -4.05 -6.8 -4.15 -6.9 L-4.15 -6.95" fill="#763529" fill-rule="evenodd" stroke="none"/>
      <path d="M6.4 -6.7 Q6.15 -7.15 5.9 -7.4 L5.7 -7.6 5.45 -7.6 Q4.6 -8.35 3.65 -8.35 3.55 -8.35 3.45 -8.15 L3.4 -8.15 3.4 -8.05 3.35 -7.95 3.25 -7.45 2.95 -6.75 2.85 -6.5 2.8 -6.45 2.75 -6.35 2.65 -6.05 2.65 -6.0 2.25 -5.4 Q1.9 -4.9 1.5 -4.5 L1.55 -4.7 1.55 -4.8 1.45 -4.8 1.2 -4.2 Q0.7 -3.7 0.2 -3.4 L0.15 -3.4 0.1 -3.35 Q-0.6 -2.85 -0.95 -2.7 L-1.1 -2.65 Q-1.2 -2.6 -1.4 -2.55 L-1.9 -2.5 -2.55 -2.55 -3.3 -3.0 -3.5 -3.15 -3.5 -3.25 Q-3.45 -3.35 -3.5 -3.35 L-3.6 -3.35 -3.6 -3.3 -3.85 -3.5 Q-3.95 -3.7 -4.0 -3.9 L-4.1 -4.2 Q-4.35 -4.95 -4.35 -6.05 L-4.35 -6.6 -4.35 -6.65 -4.35 -6.8 -4.3 -7.1 -4.3 -7.3 -4.25 -7.4 -4.5 -7.05 -5.35 -5.55 -5.4 -5.45 Q-5.9 -4.25 -5.95 -3.55 L-5.95 -3.2 -5.9 -3.0 -5.7 -2.45 -5.4 -1.95 -5.35 -1.85 -5.35 -1.8 -4.85 -1.2 -4.8 -1.15 -4.7 -1.0 -4.6 -0.9 -4.6 -0.85 -4.55 -0.85 -4.4 -0.9 Q-3.95 -1.1 -3.1 -1.2 L-3.0 -1.2 -2.9 -0.95 -3.9 -0.75 -4.1 -0.7 -4.6 -0.5 -4.7 -0.45 -4.75 -0.15 -4.75 -0.05 -4.8 0.1 -4.8 0.35 -2.1 0.4 Q0.95 0.7 2.6 1.1 L3.0 1.2 4.45 1.55 4.4 1.0 4.4 0.95 Q4.4 0.75 3.95 0.45 3.9 0.25 3.7 0.3 L3.6 0.2 3.5 0.15 3.45 0.15 2.95 -0.1 Q2.1 -0.5 1.75 -0.5 1.2 -0.7 0.75 -0.75 L0.6 -0.75 Q-0.6 -1.15 -1.1 -0.95 L-1.75 -1.05 -2.8 -1.0 -2.9 -1.2 -2.8 -1.2 -2.6 -1.2 -2.0 -1.3 -1.85 -1.25 -1.7 -1.3 -0.8 -1.3 -0.45 -1.3 -0.2 -1.25 -0.2 -1.05 -0.1 -1.05 0.0 -1.2 0.1 -1.2 Q0.8 -1.05 1.45 -0.85 L2.3 -0.6 2.5 -0.55 2.75 -0.45 2.8 -0.4 2.9 -0.45 2.9 -0.4 2.95 -0.35 3.05 -0.3 3.1 -0.3 3.25 -0.25 Q3.85 0.0 4.35 0.35 L4.4 0.4 4.4 0.25 4.35 -0.05 4.35 -0.2 4.3 -0.15 4.1 -0.1 4.0 -0.15 4.0 -0.2 4.05 -0.3 4.1 -0.35 4.65 -0.75 4.8 -0.9 5.0 -1.05 Q5.25 -1.35 5.55 -1.8 L5.85 -2.25 5.95 -2.35 6.15 -2.75 6.2 -2.9 6.3 -3.35 6.3 -3.4 6.35 -3.65 Q6.45 -4.5 6.5 -5.45 L6.5 -5.75 6.45 -6.0 6.45 -6.45 6.4 -6.45 6.65 -6.1 6.65 -6.05 6.6 -6.2 6.55 -6.4 6.5 -6.45 6.45 -6.6 6.4 -6.7 M-4.25 -7.4 L-4.25 -7.4 M-6.1 -4.3 Q-5.85 -4.95 -5.4 -5.9 L-4.95 -6.85 Q-4.25 -8.0 -3.9 -8.5 L-3.9 -8.55 -3.85 -8.55 -3.85 -8.6 -3.8 -8.6 -3.6 -8.65 -3.6 -8.7 -3.55 -8.7 -3.3 -8.9 Q-2.95 -9.2 -2.45 -9.4 L-2.45 -9.45 -1.8 -9.7 -1.3 -9.85 -0.3 -10.1 -0.25 -10.1 Q1.3 -10.35 1.65 -10.25 L1.8 -10.3 2.1 -10.25 2.15 -10.25 2.2 -10.2 Q2.4 -10.2 2.7 -10.0 L2.75 -9.95 3.1 -9.7 3.4 -9.5 3.65 -9.25 3.65 -9.15 3.6 -8.75 3.6 -8.7 3.8 -8.65 Q4.55 -8.5 5.75 -8.1 L5.95 -7.95 6.05 -7.85 Q6.15 -7.7 6.4 -7.4 L6.7 -6.8 7.05 -6.2 6.95 -5.9 6.9 -5.65 6.9 -5.3 Q6.9 -4.45 6.85 -3.75 L6.8 -3.2 6.85 -3.25 6.8 -3.05 6.75 -2.9 6.75 -2.85 6.65 -2.7 6.6 -2.65 6.3 -2.2 6.25 -2.15 6.1 -1.95 6.05 -1.85 5.85 -1.65 Q5.45 -1.1 5.1 -0.7 4.95 -0.5 4.9 -0.3 L4.9 0.95 4.95 1.0 4.95 1.25 4.9 1.2 4.9 1.55 Q4.9 1.8 4.9 2.05 L4.85 2.85 4.8 3.3 4.4 3.85 Q4.05 4.15 3.1 4.75 2.0 5.35 0.45 5.65 L-1.2 5.65 -1.8 5.55 -2.55 5.4 -2.75 5.3 -2.85 5.3 -3.85 4.95 -4.05 4.85 -4.4 4.55 Q-5.05 3.95 -5.05 3.75 L-5.1 3.7 -5.15 3.4 -5.15 3.35 -5.2 3.2 -5.35 2.65 -5.4 2.65 -5.4 2.25 -5.35 1.25 -5.25 0.3 Q-5.15 0.25 -5.1 0.1 -5.05 0.0 -5.05 -0.15 -5.0 -0.3 -5.0 -0.5 L-5.0 -0.7 -5.05 -0.85 Q-5.15 -1.0 -5.3 -1.2 L-5.35 -1.2 -5.4 -1.3 -5.5 -1.4 Q-5.85 -1.8 -6.05 -2.25 -6.1 -2.45 -6.15 -2.75 L-6.15 -4.05 -6.1 -4.3 M0.2 -5.6 L0.7 -6.05 1.05 -6.4 Q1.5 -6.6 2.2 -7.55 L2.7 -8.25 2.85 -8.4 2.9 -8.5 2.9 -8.55 3.1 -8.75 3.1 -8.8 3.4 -9.15 2.75 -9.7 2.4 -9.85 2.55 -9.75 Q2.15 -9.95 1.85 -10.0 L1.75 -10.0 0.6 -10.05 Q-0.7 -10.0 -2.2 -9.3 -2.5 -9.25 -2.7 -9.1 L-2.85 -9.05 Q-3.0 -9.05 -3.2 -8.8 L-3.3 -8.7 -3.4 -8.45 -3.45 -8.25 -3.5 -8.1 Q-3.65 -7.5 -3.65 -7.1 -3.65 -6.35 -3.35 -5.45 L-3.3 -5.4 -3.15 -5.0 -3.0 -4.75 Q-2.95 -4.5 -2.65 -4.2 -2.15 -3.7 -1.2 -3.7 L-1.1 -3.7 -1.05 -3.7 -1.1 -3.65 -1.15 -3.65 -1.5 -3.6 Q-1.95 -3.7 -2.25 -3.8 L-2.3 -3.8 Q-2.5 -3.9 -2.7 -4.1 L-2.8 -4.2 Q-3.2 -4.6 -3.45 -5.3 -3.75 -6.1 -3.8 -6.9 L-3.85 -7.15 -3.8 -8.0 -3.9 -8.0 -4.0 -7.8 -4.05 -7.75 -4.05 -7.7 -4.15 -6.95 -4.15 -6.7 Q-4.1 -6.0 -4.0 -5.3 L-3.95 -5.2 -3.8 -4.35 Q-3.7 -3.9 -3.5 -3.6 L-3.4 -3.45 Q-3.25 -3.2 -3.0 -3.05 -2.95 -3.0 -2.85 -2.95 -2.55 -2.8 -2.2 -2.75 -1.9 -2.8 -1.55 -2.9 -1.45 -2.95 -1.3 -3.0 L-0.7 -3.3 -0.05 -3.8 Q1.05 -4.55 2.0 -5.6 L2.2 -5.8 2.6 -6.5 2.9 -7.2 3.25 -8.15 3.45 -8.7 3.05 -8.2 2.95 -8.05 1.95 -6.95 0.85 -5.9 0.75 -5.8 0.45 -5.55 0.4 -5.55 0.3 -5.45 0.25 -5.45 0.25 -5.4 0.2 -5.4 -0.1 -5.2 Q-0.25 -5.1 -0.45 -4.95 -1.0 -4.65 -1.5 -4.55 L-1.5 -4.55 Q-0.9 -4.7 -0.3 -5.15 L0.1 -5.5 0.2 -5.6 M-1.05 -3.7 L-1.05 -3.7 M-4.15 -7.25 L-4.15 -7.25 M-4.2 0.9 Q-3.6 1.3 -2.85 1.7 L-2.8 1.7 -2.35 1.9 -1.25 2.35 -0.2 2.7 Q2.4 3.55 3.8 3.5 L4.1 3.5 4.25 3.5 4.3 3.5 4.4 3.45 4.4 3.0 4.45 1.85 4.45 1.7 2.95 1.35 2.65 1.25 Q1.1 0.85 -2.0 0.55 L-4.7 0.55 -4.6 0.6 -4.2 0.9 M-4.9 2.45 L-4.9 2.8 -4.8 3.0 -4.75 3.0 Q-4.65 3.2 -4.4 3.4 -3.95 3.75 -3.25 3.85 L-2.85 3.95 -2.25 4.15 -1.45 4.25 -0.4 4.2 1.3 4.05 1.75 3.95 3.0 3.7 3.15 3.7 3.35 3.65 3.65 3.6 3.5 3.55 1.25 3.25 0.7 3.15 0.45 3.05 -0.55 2.75 Q-2.35 2.1 -3.3 1.65 L-3.65 1.45 Q-4.6 1.0 -4.85 0.6 L-4.85 0.85 -4.9 1.2 -4.9 2.45 M-4.85 3.15 L-4.8 3.25 -4.8 3.65 -4.8 3.7 -4.6 3.9 -4.5 4.05 -3.95 4.4 -3.65 4.55 Q-2.8 4.95 -2.5 5.05 L-2.45 5.05 -2.35 5.1 -1.95 5.2 -1.8 5.2 -1.05 5.3 0.1 5.3 1.35 5.1 Q1.65 5.05 2.15 4.8 2.3 4.8 2.9 4.5 L2.95 4.5 3.1 4.4 3.45 4.25 3.7 4.1 4.15 3.85 4.15 3.8 4.0 3.8 4.0 3.75 3.95 3.75 3.75 3.8 3.25 3.9 3.1 3.95 2.95 3.95 2.5 4.05 1.95 4.15 0.7 4.4 -0.4 4.55 -0.65 4.55 -1.4 4.55 Q-2.1 4.4 -2.65 4.2 L-2.9 4.1 -3.6 3.85 -3.7 3.8 -3.75 3.8 Q-4.45 3.5 -4.75 3.2 L-4.8 3.15 -4.85 3.15 -4.85 3.15" fill="#101010" fill-rule="evenodd" stroke="none"/>
      <path d="M-2.8 -1.0 L-1.75 -1.05 -1.1 -0.95 Q-0.6 -1.15 0.6 -0.75 L0.75 -0.75 Q1.2 -0.7 1.75 -0.5 L1.95 -0.45 Q2.85 -0.05 3.25 0.35 3.2 0.55 3.1 0.95 L3.0 1.2 2.6 1.1 Q0.95 0.7 -2.1 0.4 L-4.8 0.35 -4.8 0.1 -4.75 -0.05 -4.75 -0.15 -4.7 -0.45 -4.6 -0.5 -4.1 -0.7 -3.9 -0.75 -2.9 -0.95 -2.85 -0.9 -2.8 -0.95 -2.75 -0.95 -2.8 -1.0 M-4.2 0.9 L-1.8 1.05 -0.6 1.2 -0.5 1.2 -0.1 1.4 0.2 1.6 0.65 1.75 0.95 1.9 2.2 2.55 1.0 2.65 0.95 2.65 Q-0.45 2.65 -1.15 2.3 L-1.2 2.25 -1.25 2.25 -1.25 2.35 -2.35 1.9 -2.8 1.7 -2.85 1.7 Q-3.6 1.3 -4.2 0.9 M-3.65 1.45 L-3.2 1.85 -2.65 2.2 -0.85 3.15 Q0.1 3.65 0.1 3.75 0.1 3.9 -0.05 3.95 L-0.35 4.0 -0.95 3.95 Q-1.25 4.05 -1.65 4.05 -2.7 3.85 -3.95 3.05 L-4.75 2.5 -4.9 2.45 -4.9 1.2 -4.85 0.85 -4.85 0.6 Q-4.6 1.0 -3.65 1.45 M3.1 3.95 Q2.7 4.4 0.1 4.8 L-0.5 4.8 -0.6 4.75 Q-0.65 4.75 -0.65 4.6 L-0.65 4.55 -0.4 4.55 0.7 4.4 1.95 4.15 2.5 4.05 2.95 3.95 3.1 3.95" fill="#587094" fill-rule="evenodd" stroke="none"/>
      <path d="M1.75 -0.5 Q2.1 -0.5 2.95 -0.1 L3.45 0.15 3.5 0.15 3.6 0.2 3.7 0.3 Q3.9 0.25 3.95 0.45 4.4 0.75 4.4 0.95 L4.4 1.0 4.45 1.55 3.0 1.2 3.1 0.95 Q3.2 0.55 3.25 0.35 2.85 -0.05 1.95 -0.45 L1.75 -0.5 M-1.25 2.35 L-1.25 2.25 -1.2 2.25 -1.15 2.3 Q-0.45 2.65 0.95 2.65 L1.0 2.65 2.2 2.55 0.95 1.9 0.65 1.75 0.2 1.6 -0.1 1.4 -0.5 1.2 -0.6 1.2 -1.8 1.05 -4.2 0.9 -4.6 0.6 -4.7 0.55 -2.0 0.55 Q1.1 0.85 2.65 1.25 L2.95 1.35 4.45 1.7 4.45 1.85 4.4 3.0 4.4 3.45 4.3 3.5 4.25 3.5 4.15 3.45 4.1 3.5 3.8 3.5 Q2.4 3.55 -0.2 2.7 L-1.25 2.35 M-4.9 2.45 L-4.75 2.5 -3.95 3.05 Q-2.7 3.85 -1.65 4.05 -1.25 4.05 -0.95 3.95 L-0.35 4.0 -0.05 3.95 Q0.1 3.9 0.1 3.75 0.1 3.65 -0.85 3.15 L-2.65 2.2 -3.2 1.85 -3.65 1.45 -3.3 1.65 Q-2.35 2.1 -0.55 2.75 L0.45 3.05 0.6 3.15 0.7 3.15 1.25 3.25 3.5 3.55 3.15 3.7 3.0 3.7 1.75 3.95 1.3 4.05 -0.4 4.2 -1.45 4.25 -2.25 4.15 -2.85 3.95 -3.25 3.85 Q-3.95 3.75 -4.4 3.4 -4.65 3.2 -4.75 3.0 L-4.8 3.0 -4.9 2.8 -4.9 2.45 M-4.8 3.65 L-4.8 3.25 -4.85 3.15 -4.8 3.15 -4.75 3.2 Q-4.45 3.5 -3.75 3.8 L-3.7 3.8 -3.6 3.85 -2.9 4.1 -2.65 4.2 Q-2.1 4.4 -1.4 4.55 L-0.65 4.55 -0.65 4.6 Q-0.65 4.75 -0.6 4.75 L-0.5 4.8 0.1 4.8 Q2.7 4.4 3.1 3.95 L3.25 3.9 3.75 3.8 3.95 3.75 4.0 3.75 4.0 3.8 4.15 3.8 4.15 3.85 3.7 4.1 3.45 4.25 3.1 4.4 2.95 4.5 2.9 4.5 Q2.3 4.8 2.15 4.8 1.65 5.05 1.35 5.1 L0.1 5.3 -1.05 5.3 -1.8 5.2 -1.95 5.2 -2.35 5.1 -2.45 5.05 -2.5 5.05 Q-2.8 4.95 -3.65 4.55 L-3.95 4.4 -4.5 4.05 -4.6 3.9 -4.8 3.65" fill="#565f69" fill-rule="evenodd" stroke="none"/>
    </g>
  </defs>
</svg>
