<?xml version="1.0" encoding="UTF-8" standalone="no"?>
<svg xmlns:ffdec="https://www.free-decompiler.com/flash" xmlns:xlink="http://www.w3.org/1999/xlink" ffdec:objectType="frame" height="88.2px" width="169.05px" xmlns="http://www.w3.org/2000/svg">
  <g transform="matrix(1.0, 0.0, 0.0, 1.0, 157.15, 60.55)">
    <use ffdec:characterId="942" height="12.6" transform="matrix(7.0, 0.0, 0.0, 7.0, -157.15, -60.55)" width="24.15" xlink:href="#shape0"/>
  </g>
  <defs>
    <g id="shape0" transform="matrix(1.0, 0.0, 0.0, 1.0, 22.45, 8.65)">
      <path d="M-19.55 -1.85 Q-19.4 -2.75 -19.4 -3.1 L-19.45 -3.4 Q-19.65 -3.65 -20.0 -4.5 -20.3 -5.35 -20.3 -5.5 -20.3 -5.6 -19.9 -5.8 L-19.7 -5.9 -19.25 -6.1 -18.2 -6.85 -17.9 -7.2 Q-17.05 -7.9 -16.75 -8.05 -16.1 -8.4 -14.5 -8.65 -12.8 -8.6 -11.85 -8.3 L-11.15 -8.15 -9.5 -7.7 -7.1 -7.05 Q-6.75 -6.9 -6.0 -6.7 L-5.45 -6.6 -4.5 -6.25 -4.45 -6.2 Q-3.85 -5.9 -3.55 -5.45 L-3.3 -5.1 -3.25 -5.05 -2.95 -4.65 Q-2.5 -4.25 -1.55 -4.1 L-1.4 -3.95 -1.65 -3.45 Q-1.95 -2.9 -2.0 -2.65 -2.05 -2.2 -2.1 -2.0 L-2.05 -1.7 Q-2.05 -1.65 -2.15 -1.45 -2.2 -1.3 -2.2 -1.15 L-2.2 -0.65 Q-2.35 -0.65 -2.35 -0.3 L-2.35 -0.25 -2.5 -1.65 -2.5 -1.75 -2.55 -1.7 -2.9 -1.6 -2.85 -0.85 -2.85 -0.7 -2.8 -0.15 Q-3.3 0.05 -3.6 0.35 -3.8 0.6 -3.85 0.85 L-3.85 0.95 -3.8 1.15 Q-3.75 1.25 -3.75 1.35 -3.75 1.45 -5.95 2.1 -7.95 2.7 -8.45 2.8 L-8.5 2.45 -8.5 2.1 Q-8.5 1.65 -8.65 1.45 -8.7 1.3 -8.95 1.2 -9.2 1.05 -9.3 0.7 L-9.35 0.65 Q-9.4 0.4 -9.4 0.1 L-9.4 -0.25 -9.45 -0.25 -10.15 -0.1 -10.25 -0.1 Q-10.25 0.2 -10.3 0.45 L-10.3 0.8 -10.25 1.3 Q-10.2 2.4 -10.2 2.85 L-10.2 3.05 -10.25 3.05 -10.45 3.1 -10.4 1.8 -10.4 0.6 -10.4 -0.05 -10.65 0.05 -11.0 -0.1 -11.0 -0.05 -11.2 -0.05 -11.25 0.0 -11.25 0.05 -11.2 0.15 -11.2 0.25 -11.15 0.55 -11.25 1.1 -11.25 1.25 Q-11.6 1.4 -11.8 1.65 L-11.9 1.75 Q-12.1 2.05 -12.1 2.55 L-12.1 2.6 -13.65 1.9 -15.05 1.35 -15.5 1.05 Q-15.95 0.85 -17.35 0.3 L-17.55 0.2 -17.55 0.25 -17.65 0.2 -17.65 -0.4 -17.7 -0.5 -17.85 -0.85 Q-18.0 -1.1 -18.25 -1.2 L-18.45 -1.35 -18.4 -1.7 -18.3 -2.2 -18.3 -2.25 -18.25 -2.5 -18.25 -2.6 -18.3 -2.8 -18.3 -2.85 -18.35 -2.85 -18.3 -3.0 Q-18.85 -3.2 -19.15 -3.35 L-19.15 -3.1 -19.2 -2.85 Q-19.4 -0.95 -19.4 -0.6 L-19.4 -0.5 -19.45 -0.95 -19.4 -1.7 -19.45 -1.85 -19.55 -1.85 M-12.15 3.75 L-13.25 3.35 Q-15.05 2.6 -15.65 2.25 -16.2 1.95 -18.1 1.1 L-19.2 0.5 -19.3 0.3 -19.25 0.2 -19.25 0.15 Q-18.75 0.4 -17.9 0.9 -16.05 1.9 -15.45 2.2 -14.8 2.5 -13.1 3.15 L-11.75 3.65 -12.15 3.75 M-11.2 -6.85 L-14.9 -7.7 Q-15.45 -7.45 -16.0 -7.1 L-16.85 -6.45 -16.75 -6.5 -16.55 -6.5 -16.55 -6.45 Q-15.9 -6.2 -15.05 -6.0 L-14.6 -5.9 -14.05 -5.75 Q-13.7 -5.6 -13.25 -5.5 L-12.75 -5.4 Q-10.85 -4.8 -9.55 -4.7 L-9.6 -4.65 -9.45 -4.75 -8.65 -5.5 -8.55 -5.55 Q-8.15 -5.85 -7.7 -6.1 -9.05 -6.35 -10.7 -6.75 L-11.2 -6.85 M-6.25 -6.25 L-6.5 -6.3 Q-7.0 -6.15 -7.55 -5.9 L-7.75 -5.85 -8.25 -5.55 -9.2 -4.85 -10.05 -4.1 Q-10.9 -3.35 -11.25 -3.35 L-11.4 -3.35 Q-11.9 -3.4 -14.6 -4.3 L-17.85 -5.35 -18.3 -5.45 -18.45 -5.45 Q-17.8 -5.75 -17.3 -6.15 L-16.5 -6.9 Q-15.45 -7.75 -13.15 -8.25 L-13.55 -8.35 -13.75 -8.35 -13.9 -8.4 -14.1 -8.4 Q-15.9 -8.4 -17.4 -7.2 L-17.7 -6.95 -18.05 -6.65 -18.6 -6.2 Q-19.2 -5.7 -19.85 -5.45 L-19.95 -5.45 -19.95 -5.2 -19.65 -4.5 -19.6 -4.5 Q-19.45 -4.1 -19.35 -3.8 -18.95 -3.6 -18.25 -3.3 L-18.1 -3.2 -16.75 -2.65 -16.65 -2.65 -16.6 -2.6 Q-15.45 -2.15 -13.9 -1.6 L-12.75 -1.2 -12.6 -1.15 -11.2 -0.6 -11.0 -0.5 -10.55 -0.35 -10.55 -0.4 -10.6 -0.7 -10.65 -1.3 -10.65 -1.4 -10.7 -1.45 -10.75 -1.65 -10.85 -2.15 -10.85 -2.3 -10.8 -2.3 -10.6 -2.35 -10.3 -2.45 -10.25 -2.4 -10.25 -2.45 Q-9.5 -2.8 -9.1 -3.15 L-8.4 -3.75 -7.7 -4.4 Q-7.0 -5.1 -6.0 -5.5 -5.0 -5.9 -4.15 -5.6 L-4.55 -5.9 -5.0 -6.05 -5.1 -6.05 Q-5.7 -6.25 -6.25 -6.25 M-8.1 -7.0 L-9.15 -7.25 -9.7 -7.4 -10.1 -7.55 -10.2 -7.55 -10.75 -7.7 -11.2 -7.8 -12.05 -7.95 -12.1 -8.0 -12.25 -8.0 -12.95 -8.1 Q-13.9 -8.1 -14.8 -7.75 L-13.0 -7.4 Q-12.45 -7.2 -11.7 -7.05 -11.0 -6.85 -10.35 -6.75 L-9.95 -6.65 Q-9.25 -6.45 -8.85 -6.4 L-8.75 -6.4 Q-8.4 -6.2 -7.75 -6.2 L-7.55 -6.25 -7.4 -6.2 -7.35 -6.2 -7.3 -6.25 -6.55 -6.45 -6.3 -6.55 -6.45 -6.55 -7.85 -6.95 -8.1 -7.0 M-17.65 -5.8 L-18.05 -5.6 -18.0 -5.6 -17.9 -5.45 Q-16.75 -5.25 -15.0 -4.65 -12.65 -3.8 -11.45 -3.55 L-11.3 -3.45 Q-10.8 -3.7 -10.1 -4.25 L-9.8 -4.5 -11.2 -4.8 -11.6 -4.95 -12.6 -5.2 -13.5 -5.5 -14.45 -5.75 -15.7 -6.05 -15.8 -6.1 -16.3 -6.2 -16.9 -6.4 -17.1 -6.25 -17.1 -6.2 Q-17.4 -6.0 -17.65 -5.8 M-16.75 -2.1 L-16.75 -2.4 -17.3 -2.6 -18.15 -2.9 -18.2 -2.6 -18.2 -2.5 -18.25 -2.35 -18.25 -2.25 -16.6 -1.65 -16.65 -1.75 -16.65 -1.8 -16.75 -2.05 -16.75 -2.1 M-15.9 -0.6 Q-16.25 -0.85 -16.45 -1.25 -16.55 -1.4 -16.6 -1.65 L-18.25 -2.15 -18.3 -1.55 -18.25 -1.4 Q-18.0 -1.25 -17.85 -1.05 -17.75 -0.95 -17.7 -0.8 L-17.7 -0.75 -17.55 -0.45 -16.9 -0.25 -16.35 0.0 -15.45 0.35 Q-15.1 0.5 -14.25 0.8 L-14.05 0.85 Q-13.8 1.05 -13.4 1.2 -12.6 1.45 -12.25 1.45 L-11.9 1.6 -11.8 1.5 Q-11.35 1.05 -11.3 0.75 L-11.3 0.15 -12.65 -0.35 -12.85 -0.4 -12.95 -0.45 -13.2 -0.55 Q-13.7 -0.2 -14.3 -0.2 L-14.4 -0.2 Q-15.35 -0.2 -15.9 -0.6 M-15.65 -0.8 L-15.7 -0.95 -15.75 -1.25 -15.7 -1.4 -15.8 -1.55 Q-15.85 -1.65 -15.85 -1.75 L-15.8 -1.95 -15.75 -2.05 -15.65 -2.05 -16.45 -2.3 -16.5 -2.35 -16.6 -2.35 Q-16.6 -2.0 -16.45 -1.65 L-16.45 -1.6 -16.4 -1.5 Q-15.95 -0.35 -14.65 -0.35 -13.8 -0.35 -13.35 -0.6 L-13.3 -0.6 Q-13.05 -0.75 -12.95 -0.9 L-12.9 -0.95 -13.15 -1.05 Q-14.45 -1.65 -14.85 -1.75 L-15.05 -1.85 -15.05 -1.7 -15.05 -1.65 Q-15.05 -1.35 -15.3 -1.3 L-15.25 -0.95 -15.3 -0.8 -15.35 -0.75 -15.35 -0.7 -15.45 -0.7 Q-15.6 -0.7 -15.65 -0.8 M-12.9 -0.8 L-13.15 -0.55 -11.3 0.05 -11.3 -0.25 -12.2 -0.65 -12.8 -0.9 -12.9 -0.8 M-6.85 -3.75 L-6.85 -3.7 -7.2 -3.35 -7.0 -3.4 -6.95 -3.35 -6.8 -3.35 Q-6.45 -3.4 -6.05 -3.5 L-5.9 -3.5 Q-5.5 -3.55 -5.2 -3.7 L-5.05 -3.75 -4.65 -3.75 -4.5 -3.8 -4.4 -3.85 -4.0 -3.9 -4.25 -4.1 -4.3 -4.15 -4.4 -4.2 Q-4.55 -4.25 -4.7 -4.3 L-4.95 -4.3 Q-5.65 -4.3 -6.15 -4.1 L-6.5 -3.95 -6.7 -3.85 -6.8 -3.75 -6.85 -3.75 M-8.0 -4.05 L-9.1 -3.0 Q-9.6 -2.6 -10.2 -2.4 L-10.15 -2.35 -10.4 -2.25 Q-10.65 -2.2 -10.75 -2.2 L-10.75 -2.15 -10.65 -1.55 -10.45 -0.6 Q-10.45 -0.5 -10.45 -0.45 L-10.35 -0.3 Q-9.85 -0.35 -6.8 -1.05 L-2.9 -1.9 -2.45 -2.5 Q-1.95 -3.2 -1.95 -3.35 L-1.85 -3.55 -1.8 -3.75 Q-2.75 -4.1 -3.6 -5.1 L-3.85 -5.3 Q-4.4 -5.65 -5.05 -5.65 -5.95 -5.65 -7.0 -4.9 -7.55 -4.5 -8.0 -4.05 M-9.2 -1.95 Q-8.15 -2.55 -7.65 -3.0 L-7.4 -3.2 -7.35 -3.25 Q-7.0 -3.7 -6.7 -3.9 -6.15 -4.35 -4.95 -4.45 L-4.5 -4.35 -3.9 -3.9 -3.85 -3.85 -3.6 -3.65 Q-3.1 -3.3 -2.75 -3.25 L-2.85 -3.0 -2.9 -2.95 Q-3.1 -2.95 -3.35 -2.8 L-3.4 -2.85 -6.2 -2.3 Q-7.85 -1.95 -8.55 -1.8 L-8.5 -1.75 -8.65 -1.75 -8.95 -1.6 Q-9.2 -1.6 -9.2 -1.7 L-9.2 -1.9 -9.15 -1.9 -9.2 -1.95 M-10.6 -0.9 Q-10.6 -0.7 -10.5 -0.55 -10.5 -0.7 -10.6 -1.2 L-10.6 -0.9 M-10.55 -0.3 L-10.5 -0.3 -10.55 -0.3 M-4.15 -1.4 L-4.2 -1.35 -6.7 -0.9 -6.75 -0.9 -9.0 -0.3 -9.25 -0.3 -9.25 0.55 -9.2 0.6 -8.4 0.5 -6.4 0.15 Q-5.3 -0.05 -4.05 -0.45 L-3.05 -0.8 -3.15 -1.55 -3.2 -1.55 -3.35 -1.5 -3.45 -1.5 -3.95 -1.4 -4.15 -1.4 M-9.0 -1.75 L-8.85 -1.8 Q-8.0 -2.1 -6.15 -2.5 -4.4 -2.85 -3.4 -2.9 L-3.2 -3.0 Q-3.05 -3.05 -2.95 -3.15 L-2.9 -3.25 Q-3.25 -3.25 -3.7 -3.6 L-3.9 -3.8 -5.65 -3.5 -7.3 -3.15 -7.25 -3.2 -7.3 -3.1 -7.45 -3.0 -7.7 -2.75 -9.05 -1.85 -9.0 -1.75 M-5.55 -6.35 L-5.55 -6.35 M-3.55 -0.45 L-3.6 -0.45 Q-3.8 -0.45 -4.25 -0.3 L-5.2 -0.05 -5.9 0.15 -6.45 0.25 -8.2 0.55 -9.1 0.7 -8.75 1.1 Q-8.4 1.4 -8.35 1.85 L-8.35 2.05 -5.75 1.35 -3.95 0.85 Q-3.95 0.55 -3.85 0.4 -3.6 0.1 -3.2 -0.1 -3.0 -0.2 -3.0 -0.45 L-3.0 -0.65 -3.55 -0.45 M-5.65 1.45 L-5.8 1.45 -8.35 2.1 -8.35 2.55 Q-7.15 2.4 -5.8 2.0 -4.35 1.6 -4.05 1.35 -3.95 1.25 -3.95 0.95 L-4.05 1.0 -5.1 1.3 -5.65 1.45 M-12.15 2.25 Q-12.15 2.0 -12.0 1.75 -13.55 1.2 -17.55 -0.35 -17.5 -0.15 -17.5 0.05 -14.75 1.35 -12.2 2.45 L-12.15 2.35 -12.15 2.25" fill="#000000" fill-rule="evenodd" stroke="none"/>
      <path d="M-13.75 -8.35 Q-14.35 -8.2 -15.25 -7.75 -16.15 -7.3 -16.6 -7.0 -18.65 -5.65 -18.65 -5.45 -18.65 -5.35 -18.4 -5.2 -18.1 -5.0 -17.75 -5.0 -17.5 -5.0 -14.7 -4.15 -12.45 -3.45 -11.75 -3.3 -11.5 -3.2 -11.15 -3.2 -10.8 -3.2 -9.95 -4.0 L-8.95 -4.8 Q-7.3 -6.15 -6.25 -6.25 -5.7 -6.25 -5.1 -6.05 L-5.15 -6.1 Q-5.95 -5.95 -6.65 -5.45 -7.2 -5.1 -7.8 -4.5 L-8.95 -3.45 Q-9.9 -2.7 -10.8 -2.7 -11.5 -2.7 -14.95 -3.75 -18.45 -4.85 -19.55 -5.45 -19.05 -5.75 -18.4 -6.3 L-17.25 -7.2 Q-15.85 -8.2 -13.85 -8.35 L-13.9 -8.4 -13.75 -8.35 M-19.0 -2.75 L-18.75 -2.7 -18.65 -2.65 -18.65 -2.2 -18.7 -1.5 Q-18.7 -1.2 -18.3 -1.0 -17.85 -0.8 -17.85 -0.3 -17.8 0.05 -17.6 0.3 -17.3 0.55 -16.55 0.85 -16.25 0.95 -14.3 1.9 -12.55 2.8 -12.35 2.8 -11.95 2.8 -11.75 2.25 -11.5 1.6 -11.4 1.55 -11.35 1.45 -11.25 1.25 L-11.1 0.75 -11.05 0.35 -10.6 0.5 Q-10.5 1.3 -10.5 1.6 -10.5 2.2 -10.55 2.55 L-10.65 3.2 -11.0 3.4 -11.3 3.5 Q-12.35 3.2 -13.25 2.85 L-15.65 1.75 Q-16.2 1.45 -18.0 0.75 L-18.9 0.25 Q-19.0 0.1 -19.0 0.0 L-19.1 -0.45 Q-19.2 -0.75 -19.2 -0.95 -19.2 -1.25 -18.95 -2.4 L-18.9 -2.75 -19.0 -2.75 M-15.8 -1.95 L-15.85 -1.75 Q-15.85 -1.65 -15.8 -1.55 L-15.7 -1.4 -15.75 -1.25 -15.7 -0.95 -15.65 -0.8 Q-15.95 -0.95 -16.15 -1.2 -16.35 -1.5 -16.5 -1.9 L-16.4 -1.9 -15.85 -1.9 -15.8 -1.95 M-15.35 -0.75 L-15.3 -0.8 -15.25 -0.95 -15.3 -1.3 Q-15.05 -1.35 -15.05 -1.65 L-15.05 -1.7 -14.95 -1.65 Q-14.15 -1.4 -13.85 -1.1 L-14.35 -0.8 Q-14.6 -0.7 -15.15 -0.7 L-15.35 -0.75 M-10.55 -0.3 L-10.5 -0.3 -10.55 -0.3 M-10.6 -0.9 L-10.6 -1.2 Q-10.5 -0.7 -10.5 -0.55 -10.6 -0.7 -10.6 -0.9" fill="#ffe066" fill-rule="evenodd" stroke="none"/>
      <path d="M-8.85 -5.4 L-8.9 -5.4 Q-9.4 -5.0 -9.7 -5.0 -10.75 -5.0 -13.05 -5.65 L-16.0 -6.55 Q-16.05 -6.55 -16.1 -6.6 -16.0 -6.85 -15.75 -7.05 -15.45 -7.3 -15.1 -7.35 L-12.3 -6.95 -11.6 -6.85 -11.95 -6.8 Q-12.1 -6.8 -12.3 -6.9 -12.5 -7.0 -12.85 -7.0 -13.25 -7.0 -13.45 -6.9 -13.65 -6.8 -13.65 -6.5 -13.65 -6.25 -13.4 -6.1 -13.25 -5.95 -12.9 -5.8 -12.1 -5.5 -10.5 -5.45 L-9.05 -5.45 -8.85 -5.4 M-9.85 -6.75 L-10.8 -7.0 -13.95 -7.8 -13.4 -7.9 -9.7 -7.4 -9.15 -7.25 -8.1 -7.0 -9.3 -6.75 -9.6 -6.7 -9.85 -6.75 M-17.1 -6.25 Q-16.8 -6.25 -16.35 -6.1 -14.95 -5.5 -14.5 -5.45 L-11.75 -4.9 Q-10.9 -4.7 -10.25 -4.35 -10.35 -4.3 -10.85 -4.1 -11.35 -3.9 -11.45 -3.9 -11.9 -3.9 -14.2 -4.6 L-17.65 -5.7 -17.6 -5.85 -17.65 -5.8 Q-17.4 -6.0 -17.1 -6.2 L-17.1 -6.25 M-18.1 -2.5 L-17.85 -2.4 -17.2 -2.25 -17.1 -2.2 -16.9 -2.15 -16.75 -2.1 -16.75 -2.05 -17.4 -2.05 Q-18.1 -2.2 -18.1 -2.45 L-18.1 -2.5 M-13.4 -0.15 Q-11.55 -0.05 -11.55 0.55 -11.55 0.75 -11.75 0.95 -11.95 1.25 -12.35 1.25 -12.9 1.25 -14.25 0.7 L-16.0 -0.05 Q-16.7 -0.3 -17.1 -0.55 -18.0 -1.1 -18.0 -1.8 -18.0 -2.1 -17.3 -1.7 -16.7 -1.35 -16.55 -1.15 -16.35 -0.85 -16.0 -0.6 L-15.8 -0.5 -15.75 -0.45 -15.7 -0.45 -15.7 -0.4 -15.6 -0.35 Q-15.4 -0.2 -15.15 -0.15 L-15.05 -0.1 Q-14.7 0.0 -14.3 0.0 -13.85 0.0 -13.4 -0.15 M-17.15 -0.05 Q-15.05 0.6 -14.55 0.8 -12.9 1.4 -12.25 1.95 L-12.3 2.05 -12.55 2.1 -14.75 1.05 -17.15 -0.05" fill="#aa6f4a" fill-rule="evenodd" stroke="none"/>
      <path d="M-19.2 -2.85 L-19.15 -3.1 -19.15 -3.35 Q-18.85 -3.2 -18.3 -3.0 L-18.35 -2.85 -18.3 -2.85 -18.3 -2.8 -18.25 -2.6 -18.3 -2.6 -18.5 -2.65 -18.65 -2.65 -18.75 -2.7 -19.0 -2.75 -19.05 -2.8 -19.15 -2.8 -19.2 -2.85 M-11.2 0.25 L-11.2 0.15 -11.25 0.05 -11.25 0.0 -11.2 -0.05 -11.0 -0.05 -11.0 -0.1 -10.65 0.05 -10.4 -0.05 -10.4 0.6 -10.45 0.6 -10.5 0.55 -10.6 0.5 -11.05 0.35 -11.2 0.25 M-17.9 -3.65 L-17.95 -3.75 -18.25 -3.75 -18.4 -3.6 -18.35 -3.55 -18.25 -3.5 Q-18.15 -3.5 -18.05 -3.55 -17.95 -3.6 -17.9 -3.65 M-18.3 -3.5 Q-19.7 -4.1 -19.6 -4.8 L-16.7 -3.85 Q-15.1 -3.35 -14.35 -3.1 -13.7 -2.95 -12.8 -2.65 L-11.55 -2.25 Q-10.9 -2.05 -10.85 -1.55 L-10.85 -1.1 Q-10.8 -0.85 -10.75 -0.7 L-10.95 -0.7 Q-11.05 -0.7 -11.45 -0.85 L-11.85 -1.6 -11.95 -1.6 -11.95 -1.45 -11.75 -0.95 Q-12.3 -1.2 -13.1 -1.55 L-14.4 -2.0 Q-15.25 -2.25 -15.7 -2.45 -16.5 -2.85 -18.3 -3.5 M-15.35 -0.7 L-15.35 -0.75 -15.15 -0.7 Q-14.6 -0.7 -14.35 -0.8 L-13.85 -1.1 Q-14.15 -1.4 -14.95 -1.65 L-15.05 -1.7 -15.05 -1.85 -14.85 -1.75 Q-14.45 -1.65 -13.15 -1.05 -13.5 -0.55 -14.1 -0.55 -14.85 -0.55 -15.35 -0.7 M-16.45 -2.3 L-15.65 -2.05 -15.75 -2.05 -15.8 -1.95 -15.85 -1.9 -16.4 -1.9 -16.45 -2.3 M-16.85 -3.4 L-17.0 -3.45 -17.1 -3.35 -17.1 -3.3 -17.0 -3.3 -16.85 -3.35 -16.85 -3.4 M-13.25 -1.0 L-13.35 -1.05 -13.35 -0.95 -13.3 -0.95 Q-13.25 -0.95 -13.25 -1.0 M-13.3 -2.25 L-13.3 -2.3 -13.65 -2.35 -13.7 -2.25 -13.65 -2.2 -13.4 -2.2 -13.3 -2.25 M-7.85 -3.7 Q-7.15 -4.4 -6.75 -4.75 -5.95 -5.4 -5.15 -5.4 -3.95 -5.25 -3.4 -4.7 L-3.15 -4.5 -3.35 -4.45 -3.65 -4.25 -3.55 -4.25 -3.5 -4.2 Q-3.45 -4.25 -3.3 -4.35 L-3.15 -4.45 -2.85 -4.2 Q-2.5 -3.85 -2.0 -3.6 -2.15 -3.45 -2.3 -3.15 -2.45 -2.8 -2.55 -2.65 -2.95 -2.1 -4.35 -1.85 L-6.9 -1.15 Q-8.95 -0.6 -9.65 -0.6 -10.2 -0.6 -10.45 -1.1 -10.55 -1.4 -10.55 -1.75 -10.55 -2.0 -9.25 -2.8 L-7.85 -3.7 M-10.1 3.05 L-9.95 3.1 -10.0 2.65 Q-10.0 1.85 -10.05 1.2 L-10.1 0.1 Q-9.95 -0.05 -9.6 -0.05 L-9.65 -0.05 Q-9.65 0.45 -9.6 0.7 -9.45 1.1 -8.95 1.45 -8.85 1.5 -8.8 1.8 L-8.75 2.3 Q-8.65 2.95 -8.05 2.95 -7.75 2.95 -6.8 2.7 -7.0 3.0 -7.05 3.25 -7.05 3.3 -7.0 3.35 L-6.45 2.6 -6.05 2.45 Q-4.4 1.95 -3.85 1.7 -3.55 1.55 -3.55 1.2 L-3.55 0.65 Q-3.4 0.4 -3.0 0.15 -2.65 -0.05 -2.65 -0.3 L-2.7 -1.45 -2.55 0.2 Q-3.15 1.35 -3.7 1.8 L-3.95 1.95 -4.95 2.7 Q-5.4 2.95 -5.7 3.1 -6.9 3.7 -8.35 3.7 -8.7 3.7 -9.3 3.4 -9.75 3.1 -10.1 3.05 M-9.5 -1.75 L-9.5 -1.55 Q-9.45 -1.4 -9.2 -1.4 -8.9 -1.4 -7.45 -1.75 -6.2 -2.0 -5.55 -2.2 -4.6 -2.5 -3.15 -2.7 -2.8 -2.75 -2.65 -2.8 -2.55 -2.9 -2.55 -3.15 -2.55 -3.4 -3.1 -3.7 -3.85 -4.1 -4.1 -4.35 -4.5 -4.7 -5.5 -4.65 -6.45 -4.6 -6.7 -4.25 -7.05 -3.9 -8.35 -2.8 L-9.5 -1.75 M-6.35 -1.7 Q-6.75 -1.75 -7.0 -1.55 L-6.95 -1.5 -6.8 -1.45 -6.55 -1.5 Q-6.35 -1.55 -6.35 -1.6 L-6.35 -1.7" fill="#adb649" fill-rule="evenodd" stroke="none"/>
      <path d="M-8.75 -5.5 L-8.85 -5.4 -9.05 -5.45 -10.5 -5.45 Q-12.1 -5.5 -12.9 -5.8 -13.25 -5.95 -13.4 -6.1 -13.65 -6.25 -13.65 -6.5 -13.65 -6.8 -13.45 -6.9 -13.25 -7.0 -12.85 -7.0 -12.5 -7.0 -12.3 -6.9 -12.1 -6.8 -11.95 -6.8 L-11.6 -6.85 -11.3 -6.8 -10.8 -6.7 Q-9.7 -6.4 -8.85 -6.0 L-8.8 -6.0 -8.4 -5.8 Q-8.45 -5.75 -8.75 -5.5 M-9.6 -6.7 L-9.3 -6.75 -8.1 -7.0 -7.85 -6.9 Q-7.3 -6.7 -6.75 -6.45 -7.15 -6.3 -7.45 -6.3 -7.95 -6.3 -9.6 -6.7 M-17.85 -2.4 L-17.85 -2.65 Q-17.6 -2.65 -17.2 -2.25 L-17.85 -2.4 M-13.35 -0.15 L-13.4 -0.15 -13.35 -0.15 M-15.05 -0.1 L-14.6 -0.1 -13.4 -0.15 Q-13.85 0.0 -14.3 0.0 -14.7 0.0 -15.05 -0.1 M-12.85 -0.6 L-12.85 -0.65 Q-12.35 -0.7 -12.05 -0.55 -11.55 -0.3 -11.45 -0.3 L-11.9 -0.3 Q-12.65 -0.45 -12.85 -0.6 M-6.85 -3.7 L-6.85 -3.75 -6.85 -3.7 Q-6.55 -3.8 -6.45 -3.9 -6.4 -4.0 -6.35 -4.05 L-6.5 -3.95 -6.15 -4.1 -6.3 -4.05 -4.3 -4.15 -4.25 -4.1 -6.55 -3.6 Q-6.7 -3.6 -6.85 -3.7 M-4.15 -1.4 L-3.95 -1.4 -3.45 -1.5 -3.55 -1.5 Q-3.15 -1.45 -3.15 -1.05 -3.15 -0.85 -5.85 -0.3 -8.35 0.2 -9.05 0.3 L-9.1 0.3 Q-9.15 0.3 -9.15 0.2 -9.15 -0.1 -9.05 -0.2 -8.95 -0.3 -8.55 -0.35 -6.95 -0.6 -5.8 -0.95 L-4.15 -1.4 M-8.6 -2.05 L-8.55 -2.1 Q-7.1 -3.05 -6.1 -3.35 -4.7 -3.75 -3.5 -3.25 -4.35 -3.0 -6.35 -2.55 L-8.6 -2.05 M-3.45 -0.2 L-3.5 -0.15 Q-3.9 0.0 -4.15 0.4 -4.4 0.75 -4.8 0.9 -5.5 1.2 -6.4 1.35 L-8.25 1.65 Q-8.3 1.4 -8.5 1.15 L-8.6 0.9 -8.6 0.8 -8.55 0.8 -6.3 0.35 -3.45 -0.2 M-5.1 1.3 L-5.15 1.3 Q-4.45 1.15 -4.1 1.15 L-4.15 1.2 Q-4.6 1.4 -5.9 1.85 -7.45 2.3 -7.95 2.3 -8.2 2.3 -8.2 2.25 L-8.25 2.15 -8.15 2.15 Q-7.85 2.1 -6.05 1.55 L-5.65 1.45 -5.1 1.3" fill="#763e30" fill-rule="evenodd" stroke="none"/>
      <path d="M-8.65 -5.5 L-9.45 -4.75 -9.6 -4.65 -9.55 -4.7 Q-10.85 -4.8 -12.75 -5.4 L-13.25 -5.5 Q-13.7 -5.6 -14.05 -5.75 L-14.6 -5.9 -15.05 -6.0 Q-15.9 -6.2 -16.55 -6.45 L-16.55 -6.5 -16.75 -6.5 -16.85 -6.45 -16.0 -7.1 Q-15.45 -7.45 -14.9 -7.7 L-11.2 -6.85 -11.75 -6.95 -12.3 -6.95 -15.1 -7.35 Q-15.45 -7.3 -15.75 -7.05 -16.0 -6.85 -16.1 -6.6 -16.05 -6.55 -16.0 -6.55 L-13.05 -5.65 Q-10.75 -5.0 -9.7 -5.0 -9.4 -5.0 -8.9 -5.4 L-8.85 -5.4 -8.75 -5.5 -8.65 -5.5 M-9.7 -7.4 L-13.4 -7.9 -13.95 -7.8 -10.8 -7.0 -9.85 -6.75 -10.0 -6.7 -9.95 -6.65 -10.35 -6.75 Q-11.0 -6.85 -11.7 -7.05 -12.45 -7.2 -13.0 -7.4 L-14.8 -7.75 Q-13.9 -8.1 -12.95 -8.1 L-12.25 -8.0 -12.1 -8.0 -12.05 -7.95 -11.2 -7.8 -10.75 -7.7 -10.2 -7.55 -10.1 -7.55 -9.7 -7.4 M-17.1 -6.25 L-16.9 -6.4 -16.3 -6.2 -15.8 -6.1 -15.7 -6.05 -14.45 -5.75 -13.5 -5.5 -12.6 -5.2 -11.6 -4.95 -11.2 -4.8 -9.8 -4.5 -10.1 -4.25 Q-10.8 -3.7 -11.3 -3.45 L-11.45 -3.55 Q-12.65 -3.8 -15.0 -4.65 -16.75 -5.25 -17.9 -5.45 L-18.0 -5.6 -18.05 -5.6 -17.65 -5.8 -17.6 -5.85 -17.65 -5.7 -14.2 -4.6 Q-11.9 -3.9 -11.45 -3.9 -11.35 -3.9 -10.85 -4.1 -10.35 -4.3 -10.25 -4.35 -10.9 -4.7 -11.75 -4.9 L-14.5 -5.45 Q-14.95 -5.5 -16.35 -6.1 -16.8 -6.25 -17.1 -6.25 M-18.2 -2.5 L-18.1 -2.5 -18.1 -2.45 Q-18.1 -2.2 -17.4 -2.05 L-16.75 -2.05 -16.65 -1.8 -16.65 -1.75 -16.6 -1.65 -18.25 -2.25 -18.25 -2.35 -18.2 -2.5 M-12.85 -0.4 L-12.65 -0.35 -11.3 0.15 -11.3 0.75 Q-11.35 1.05 -11.8 1.5 L-11.9 1.6 -12.25 1.45 Q-12.6 1.45 -13.4 1.2 -13.8 1.05 -14.05 0.85 L-14.25 0.8 Q-15.1 0.5 -15.45 0.35 L-16.35 0.0 -16.9 -0.25 -17.55 -0.45 -17.7 -0.75 -17.7 -0.8 Q-17.75 -0.95 -17.85 -1.05 -18.0 -1.25 -18.25 -1.4 L-18.3 -1.55 -18.25 -2.15 -16.6 -1.65 Q-16.55 -1.4 -16.45 -1.25 -16.25 -0.85 -15.9 -0.6 L-15.8 -0.5 -16.0 -0.6 Q-16.35 -0.85 -16.55 -1.15 -16.7 -1.35 -17.3 -1.7 -18.0 -2.1 -18.0 -1.8 -18.0 -1.1 -17.1 -0.55 -16.7 -0.3 -16.0 -0.05 L-14.25 0.7 Q-12.9 1.25 -12.35 1.25 -11.95 1.25 -11.75 0.95 -11.55 0.75 -11.55 0.55 -11.55 -0.05 -13.4 -0.15 L-13.35 -0.15 -12.9 -0.35 -12.85 -0.4 M-17.15 -0.05 L-14.75 1.05 -12.55 2.1 -12.3 2.05 -12.25 1.95 Q-12.9 1.4 -14.55 0.8 -15.05 0.6 -17.15 -0.05 M-6.45 -6.55 L-6.3 -6.55 -6.55 -6.45 -6.45 -6.5 -6.45 -6.55 M-7.85 -6.95 L-7.85 -6.9 -8.1 -7.0 -7.85 -6.95 M-12.15 2.25 L-12.15 2.35 -12.2 2.45 Q-14.75 1.35 -17.5 0.05 -17.5 -0.15 -17.55 -0.35 -13.55 1.2 -12.0 1.75 -12.15 2.0 -12.15 2.25" fill="#bc8665" fill-rule="evenodd" stroke="none"/>
      <path d="M-8.65 -5.5 L-8.75 -5.5 Q-8.45 -5.75 -8.4 -5.8 L-8.8 -6.0 -8.85 -6.0 Q-9.7 -6.4 -10.8 -6.7 L-11.3 -6.8 -11.6 -6.85 -12.3 -6.95 -11.75 -6.95 -11.2 -6.85 -10.7 -6.75 Q-9.05 -6.35 -7.7 -6.1 -8.15 -5.85 -8.55 -5.55 L-8.65 -5.5 M-9.85 -6.75 L-9.6 -6.7 Q-7.95 -6.3 -7.45 -6.3 -7.15 -6.3 -6.75 -6.45 -7.3 -6.7 -7.85 -6.9 L-7.85 -6.95 -6.45 -6.55 -6.45 -6.5 -6.55 -6.45 -7.3 -6.25 -7.35 -6.2 -7.4 -6.2 -7.55 -6.25 -7.75 -6.2 Q-8.4 -6.2 -8.75 -6.4 L-8.85 -6.4 Q-9.25 -6.45 -9.95 -6.65 L-10.0 -6.7 -9.85 -6.75 M-18.1 -2.5 L-18.2 -2.5 -18.2 -2.6 -18.15 -2.9 -17.3 -2.6 -16.75 -2.4 -16.75 -2.1 -16.9 -2.15 -17.1 -2.2 -17.2 -2.25 Q-17.6 -2.65 -17.85 -2.65 L-17.85 -2.4 -18.1 -2.5 M-12.85 -0.4 L-12.9 -0.35 -13.35 -0.15 -13.4 -0.15 -14.6 -0.1 -15.05 -0.1 -15.15 -0.15 Q-15.4 -0.2 -15.6 -0.35 L-15.7 -0.4 -15.7 -0.45 -15.75 -0.45 -15.8 -0.5 -15.9 -0.6 Q-15.35 -0.2 -14.4 -0.2 L-14.3 -0.2 Q-13.7 -0.2 -13.2 -0.55 L-12.95 -0.45 -12.85 -0.4 M-12.85 -0.6 Q-12.65 -0.45 -11.9 -0.3 L-11.45 -0.3 Q-11.55 -0.3 -12.05 -0.55 -12.35 -0.7 -12.85 -0.65 L-12.85 -0.6 M-12.9 -0.8 L-12.8 -0.9 -12.2 -0.65 -11.3 -0.25 -11.3 0.05 -13.15 -0.55 -12.9 -0.8 M-6.85 -3.7 Q-6.7 -3.6 -6.55 -3.6 L-4.25 -4.1 -4.0 -3.9 -4.4 -3.85 -4.5 -3.8 -4.65 -3.75 -5.05 -3.75 -5.2 -3.7 Q-5.5 -3.55 -5.9 -3.5 L-6.05 -3.5 Q-6.45 -3.4 -6.8 -3.35 L-6.95 -3.35 -7.0 -3.4 -7.2 -3.35 -6.85 -3.7 -6.85 -3.75 -6.8 -3.75 -6.7 -3.85 -6.5 -3.95 -6.35 -4.05 Q-6.4 -4.0 -6.45 -3.9 -6.55 -3.8 -6.85 -3.7 M-4.3 -4.15 L-6.3 -4.05 -6.15 -4.1 Q-5.65 -4.3 -4.95 -4.3 L-4.7 -4.3 Q-4.55 -4.25 -4.4 -4.2 L-4.3 -4.15 M-3.45 -1.5 L-3.35 -1.5 -3.2 -1.55 -3.15 -1.55 -3.05 -0.8 -4.05 -0.45 Q-5.3 -0.05 -6.4 0.15 L-8.4 0.5 -9.2 0.6 -9.25 0.55 -9.25 -0.3 -9.0 -0.3 -6.75 -0.9 -6.7 -0.9 -4.2 -1.35 -4.15 -1.4 -5.8 -0.95 Q-6.95 -0.6 -8.55 -0.35 -8.95 -0.3 -9.05 -0.2 -9.15 -0.1 -9.15 0.2 -9.15 0.3 -9.1 0.3 L-9.05 0.3 Q-8.35 0.2 -5.85 -0.3 -3.15 -0.85 -3.15 -1.05 -3.15 -1.45 -3.55 -1.5 L-3.45 -1.5 M-9.0 -1.75 L-9.05 -1.85 -7.7 -2.75 -7.45 -3.0 -7.3 -3.1 -7.25 -3.2 -7.3 -3.15 -5.65 -3.5 -3.9 -3.8 -3.7 -3.6 Q-3.25 -3.25 -2.9 -3.25 L-2.95 -3.15 Q-3.05 -3.05 -3.2 -3.0 L-3.4 -2.9 Q-4.4 -2.85 -6.15 -2.5 -8.0 -2.1 -8.85 -1.8 L-9.0 -1.75 M-8.6 -2.05 L-6.35 -2.55 Q-4.35 -3.0 -3.5 -3.25 -4.7 -3.75 -6.1 -3.35 -7.1 -3.05 -8.55 -2.1 L-8.6 -2.05 M-3.45 -0.2 L-6.3 0.35 -8.55 0.8 -8.6 0.8 -8.6 0.9 -8.5 1.15 Q-8.3 1.4 -8.25 1.65 L-6.4 1.35 Q-5.5 1.2 -4.8 0.9 -4.4 0.75 -4.15 0.4 -3.9 0.0 -3.5 -0.15 L-3.45 -0.2 M-3.55 -0.45 L-3.0 -0.65 -3.0 -0.45 Q-3.0 -0.2 -3.2 -0.1 -3.6 0.1 -3.85 0.4 -3.95 0.55 -3.95 0.85 L-5.75 1.35 -8.35 2.05 -8.35 1.85 Q-8.4 1.4 -8.75 1.1 L-9.1 0.7 -8.2 0.55 -6.45 0.25 -5.9 0.15 -5.2 -0.05 -4.25 -0.3 Q-3.8 -0.45 -3.6 -0.45 L-3.55 -0.45 M-5.1 1.3 L-4.05 1.0 -3.95 0.95 Q-3.95 1.25 -4.05 1.35 -4.35 1.6 -5.8 2.0 -7.15 2.4 -8.35 2.55 L-8.35 2.1 -5.8 1.45 -5.65 1.45 -6.05 1.55 Q-7.85 2.1 -8.15 2.15 L-8.25 2.15 -8.2 2.25 Q-8.2 2.3 -7.95 2.3 -7.45 2.3 -5.9 1.85 -4.6 1.4 -4.15 1.2 L-4.1 1.15 Q-4.45 1.15 -5.15 1.3 L-5.1 1.3" fill="#8b4938" fill-rule="evenodd" stroke="none"/>
      <path d="M-2.2 -0.65 Q-2.0 -0.65 -1.7 -0.35 -1.35 0.0 -0.9 0.5 -0.6 0.75 -0.3 1.35 -0.05 1.55 0.4 1.7 L0.45 1.75 Q0.9 1.9 1.55 2.0 L1.65 2.0 Q1.7 2.0 1.7 2.05 1.7 2.1 1.55 2.1 L0.75 2.05 Q0.25 1.95 -0.15 1.7 -0.5 1.5 -0.8 1.1 L-1.45 0.4 Q-1.75 0.1 -2.1 0.0 L-2.1 0.05 -2.3 0.4 -2.55 0.8 Q-2.95 1.35 -3.5 1.9 L-3.85 2.15 Q-4.35 2.6 -4.85 2.95 -6.45 3.95 -8.05 3.95 -8.65 3.95 -9.35 3.6 -10.0 3.3 -10.15 3.3 L-10.8 3.6 -11.4 3.8 -11.8 3.9 -12.1 3.9 -12.9 3.8 Q-13.6 3.7 -13.7 3.6 L-12.3 3.8 -12.15 3.75 -11.75 3.65 -11.3 3.5 -11.0 3.4 -10.65 3.2 -10.6 3.2 -10.45 3.1 -10.25 3.05 -10.2 3.05 -10.1 3.05 Q-9.75 3.1 -9.3 3.4 -8.7 3.7 -8.35 3.7 -6.9 3.7 -5.7 3.1 -5.4 2.95 -4.95 2.7 L-3.95 1.95 -3.7 1.8 Q-3.15 1.35 -2.55 0.2 L-2.35 -0.25 -2.35 -0.3 Q-2.35 -0.65 -2.2 -0.65 M-19.2 0.5 L-19.0 0.85 -19.25 0.6 -19.4 0.4 -19.55 0.15 -19.55 0.05 -19.6 -0.1 Q-19.65 -0.3 -19.65 -0.65 L-19.65 -1.45 -19.75 -1.45 -19.85 -1.4 -20.9 -1.1 -22.0 -1.15 Q-22.35 -1.25 -22.45 -1.35 L-21.65 -1.25 Q-20.65 -1.25 -20.0 -1.55 L-19.55 -1.85 -19.45 -1.85 -19.4 -1.7 -19.45 -0.95 -19.4 -0.5 -19.4 -0.4 -19.35 -0.15 -19.25 0.15 -19.25 0.2 -19.3 0.3 -19.2 0.5" fill="#b9af79" fill-rule="evenodd" stroke="none"/>
      <path d="M-19.4 -0.5 L-19.4 -0.6 Q-19.4 -0.95 -19.2 -2.85 L-19.15 -2.8 -19.05 -2.8 -19.0 -2.75 -18.9 -2.75 -18.95 -2.4 Q-19.2 -1.25 -19.2 -0.95 -19.2 -0.75 -19.1 -0.45 L-19.0 0.0 Q-19.0 0.1 -18.9 0.25 L-18.0 0.75 Q-16.2 1.45 -15.65 1.75 L-13.25 2.85 Q-12.35 3.2 -11.3 3.5 L-11.75 3.65 -13.1 3.15 Q-14.8 2.5 -15.45 2.2 -16.05 1.9 -17.9 0.9 -18.75 0.4 -19.25 0.15 L-19.35 -0.15 -19.4 -0.4 -19.4 -0.5 M-18.25 -2.6 L-18.25 -2.5 -18.3 -2.25 -18.3 -2.2 -18.4 -1.7 -18.45 -1.35 -18.25 -1.2 Q-18.0 -1.1 -17.85 -0.85 L-17.7 -0.5 -17.65 -0.4 -17.65 0.2 -17.55 0.25 -17.55 0.2 -17.35 0.3 Q-15.95 0.85 -15.5 1.05 L-15.05 1.35 -13.65 1.9 -12.1 2.6 -12.1 2.55 Q-12.1 2.05 -11.9 1.75 L-11.8 1.65 Q-11.6 1.4 -11.25 1.25 L-11.25 1.1 -11.15 0.55 -11.2 0.25 -11.05 0.35 -11.1 0.75 -11.25 1.25 Q-11.35 1.45 -11.4 1.55 -11.5 1.6 -11.75 2.25 -11.95 2.8 -12.35 2.8 -12.55 2.8 -14.3 1.9 -16.25 0.95 -16.55 0.85 -17.3 0.55 -17.6 0.3 -17.8 0.05 -17.85 -0.3 -17.85 -0.8 -18.3 -1.0 -18.7 -1.2 -18.7 -1.5 L-18.65 -2.2 -18.65 -2.65 -18.5 -2.65 -18.3 -2.6 -18.25 -2.6 M-10.4 0.6 L-10.4 1.8 -10.45 3.1 -10.6 3.2 -10.65 3.2 -10.55 2.55 Q-10.5 2.2 -10.5 1.6 -10.5 1.3 -10.6 0.5 L-10.5 0.55 -10.45 0.6 -10.4 0.6 M-13.75 -8.35 L-13.55 -8.35 -13.15 -8.25 Q-15.45 -7.75 -16.5 -6.9 L-17.3 -6.15 Q-17.8 -5.75 -18.45 -5.45 L-18.3 -5.45 -17.85 -5.35 -14.6 -4.3 Q-11.9 -3.4 -11.4 -3.35 L-11.25 -3.35 Q-10.9 -3.35 -10.05 -4.1 L-9.2 -4.85 -8.25 -5.55 -7.75 -5.85 -7.55 -5.9 Q-7.0 -6.15 -6.5 -6.3 L-6.25 -6.25 Q-7.3 -6.15 -8.95 -4.8 L-9.95 -4.0 Q-10.8 -3.2 -11.15 -3.2 -11.5 -3.2 -11.75 -3.3 -12.45 -3.45 -14.7 -4.15 -17.5 -5.0 -17.75 -5.0 -18.1 -5.0 -18.4 -5.2 -18.65 -5.35 -18.65 -5.45 -18.65 -5.65 -16.6 -7.0 -16.15 -7.3 -15.25 -7.75 -14.35 -8.2 -13.75 -8.35 M-5.1 -6.05 L-5.0 -6.05 -4.55 -5.9 -4.15 -5.6 Q-5.0 -5.9 -6.0 -5.5 -7.0 -5.1 -7.7 -4.4 L-8.4 -3.75 -9.1 -3.15 Q-9.5 -2.8 -10.25 -2.45 L-10.25 -2.4 -10.3 -2.45 -10.6 -2.35 -10.8 -2.3 -11.8 -2.6 -14.1 -3.3 -14.6 -3.5 -15.75 -3.8 Q-17.0 -4.2 -19.05 -4.95 -19.15 -5.0 -19.85 -5.45 -19.2 -5.7 -18.6 -6.2 L-18.05 -6.65 -17.7 -6.95 -17.4 -7.2 Q-15.9 -8.4 -14.1 -8.4 L-13.9 -8.4 -13.85 -8.35 Q-15.85 -8.2 -17.25 -7.2 L-18.4 -6.3 Q-19.05 -5.75 -19.55 -5.45 -18.45 -4.85 -14.95 -3.75 -11.5 -2.7 -10.8 -2.7 -9.9 -2.7 -8.95 -3.45 L-7.8 -4.5 Q-7.2 -5.1 -6.65 -5.45 -5.95 -5.95 -5.15 -6.1 L-5.1 -6.05" fill="#fff0b7" fill-rule="evenodd" stroke="none"/>
      <path d="M-10.2 3.05 L-10.2 2.85 Q-10.2 2.4 -10.25 1.3 L-10.3 0.8 -10.3 0.45 Q-10.25 0.2 -10.25 -0.1 L-10.15 -0.1 -9.45 -0.25 -9.4 -0.25 -9.4 0.1 Q-9.4 0.4 -9.35 0.65 L-9.3 0.7 Q-9.2 1.05 -8.95 1.2 -8.7 1.3 -8.65 1.45 -8.5 1.65 -8.5 2.1 L-8.5 2.45 -8.45 2.8 Q-7.95 2.7 -5.95 2.1 -3.75 1.45 -3.75 1.35 -3.75 1.25 -3.8 1.15 L-3.85 0.95 -3.85 0.85 Q-3.8 0.6 -3.6 0.35 -3.3 0.05 -2.8 -0.15 L-2.85 -0.7 -2.85 -0.85 -2.9 -1.6 -2.55 -1.7 -2.5 -1.75 -2.5 -1.65 -2.35 -0.25 -2.55 0.2 -2.7 -1.45 -2.65 -0.3 Q-2.65 -0.05 -3.0 0.15 -3.4 0.4 -3.55 0.65 L-3.55 1.2 Q-3.55 1.55 -3.85 1.7 -4.4 1.95 -6.05 2.45 L-6.45 2.6 -7.0 3.35 Q-7.05 3.3 -7.05 3.25 -7.0 3.0 -6.8 2.7 -7.75 2.95 -8.05 2.95 -8.65 2.95 -8.75 2.3 L-8.8 1.8 Q-8.85 1.5 -8.95 1.45 -9.45 1.1 -9.6 0.7 -9.65 0.45 -9.65 -0.05 L-9.6 -0.05 Q-9.95 -0.05 -10.1 0.1 L-10.05 1.2 Q-10.0 1.85 -10.0 2.65 L-9.95 3.1 -10.1 3.05 -10.2 3.05 M-10.8 -2.3 L-10.85 -2.3 -10.85 -2.15 -10.75 -1.65 -10.7 -1.45 -10.65 -1.4 -10.65 -1.3 -10.6 -0.7 -10.55 -0.4 -10.55 -0.35 -11.0 -0.5 -11.2 -0.6 -12.6 -1.15 -12.75 -1.2 -13.9 -1.6 Q-15.45 -2.15 -16.6 -2.6 L-16.65 -2.65 -16.75 -2.65 -18.1 -3.2 -18.25 -3.3 Q-18.95 -3.6 -19.35 -3.8 -19.45 -4.1 -19.6 -4.5 L-19.65 -4.5 -19.95 -5.2 -19.95 -5.45 -19.85 -5.45 Q-19.15 -5.0 -19.05 -4.95 -17.0 -4.2 -15.75 -3.8 L-14.6 -3.5 -14.1 -3.3 -11.8 -2.6 -10.8 -2.3 M-17.9 -3.65 Q-17.95 -3.6 -18.05 -3.55 -18.15 -3.5 -18.25 -3.5 L-18.35 -3.55 -18.4 -3.6 -18.25 -3.75 -17.95 -3.75 -17.9 -3.65 M-18.3 -3.5 Q-16.5 -2.85 -15.7 -2.45 -15.25 -2.25 -14.4 -2.0 L-13.1 -1.55 Q-12.3 -1.2 -11.75 -0.95 L-11.95 -1.45 -11.95 -1.6 -11.85 -1.6 -11.45 -0.85 Q-11.05 -0.7 -10.95 -0.7 L-10.75 -0.7 Q-10.8 -0.85 -10.85 -1.1 L-10.85 -1.55 Q-10.9 -2.05 -11.55 -2.25 L-12.8 -2.65 Q-13.7 -2.95 -14.35 -3.1 -15.1 -3.35 -16.7 -3.85 L-19.6 -4.8 Q-19.7 -4.1 -18.3 -3.5 M-15.65 -0.8 Q-15.6 -0.7 -15.45 -0.7 L-15.35 -0.7 Q-14.85 -0.55 -14.1 -0.55 -13.5 -0.55 -13.15 -1.05 L-12.9 -0.95 -12.95 -0.9 Q-13.05 -0.75 -13.3 -0.6 L-13.35 -0.6 Q-13.8 -0.35 -14.65 -0.35 -15.95 -0.35 -16.4 -1.5 L-16.45 -1.6 -16.45 -1.65 Q-16.6 -2.0 -16.6 -2.35 L-16.5 -2.35 -16.45 -2.3 -16.4 -1.9 -16.5 -1.9 Q-16.35 -1.5 -16.15 -1.2 -15.95 -0.95 -15.65 -0.8 M-16.85 -3.4 L-16.85 -3.35 -17.0 -3.3 -17.1 -3.3 -17.1 -3.35 -17.0 -3.45 -16.85 -3.4 M-13.3 -2.25 L-13.4 -2.2 -13.65 -2.2 -13.7 -2.25 -13.65 -2.35 -13.3 -2.3 -13.3 -2.25 M-13.25 -1.0 Q-13.25 -0.95 -13.3 -0.95 L-13.35 -0.95 -13.35 -1.05 -13.25 -1.0 M-7.85 -3.7 L-9.25 -2.8 Q-10.55 -2.0 -10.55 -1.75 -10.55 -1.4 -10.45 -1.1 -10.2 -0.6 -9.65 -0.6 -8.95 -0.6 -6.9 -1.15 L-4.35 -1.85 Q-2.95 -2.1 -2.55 -2.65 -2.45 -2.8 -2.3 -3.15 -2.15 -3.45 -2.0 -3.6 -2.5 -3.85 -2.85 -4.2 L-3.15 -4.45 -3.3 -4.35 Q-3.45 -4.25 -3.5 -4.2 L-3.55 -4.25 -3.65 -4.25 -3.35 -4.45 -3.15 -4.5 -3.4 -4.7 Q-3.95 -5.25 -5.15 -5.4 -5.95 -5.4 -6.75 -4.75 -7.15 -4.4 -7.85 -3.7 M-9.2 -1.95 L-9.15 -1.9 -9.2 -1.9 -9.2 -1.7 Q-9.2 -1.6 -8.95 -1.6 L-8.65 -1.75 -8.5 -1.75 -8.55 -1.8 Q-7.85 -1.95 -6.2 -2.3 L-3.4 -2.85 -3.35 -2.8 Q-3.1 -2.95 -2.9 -2.95 L-2.85 -3.0 -2.75 -3.25 Q-3.1 -3.3 -3.6 -3.65 L-3.85 -3.85 -3.9 -3.9 -4.5 -4.35 -4.95 -4.45 Q-6.15 -4.35 -6.7 -3.9 -7.0 -3.7 -7.35 -3.25 L-7.4 -3.2 -7.65 -3.0 Q-8.15 -2.55 -9.2 -1.95 M-8.0 -4.05 Q-7.55 -4.5 -7.0 -4.9 -5.95 -5.65 -5.05 -5.65 -4.4 -5.65 -3.85 -5.3 L-3.6 -5.1 Q-2.75 -4.1 -1.8 -3.75 L-1.85 -3.55 -1.95 -3.35 Q-1.95 -3.2 -2.45 -2.5 L-2.9 -1.9 -6.8 -1.05 Q-9.85 -0.35 -10.35 -0.3 L-10.45 -0.45 Q-10.45 -0.5 -10.45 -0.6 L-10.65 -1.55 -10.75 -2.15 -10.75 -2.2 Q-10.65 -2.2 -10.4 -2.25 L-10.15 -2.35 -10.2 -2.4 Q-9.6 -2.6 -9.1 -3.0 L-8.0 -4.05 M-9.5 -1.75 L-8.35 -2.8 Q-7.05 -3.9 -6.7 -4.25 -6.45 -4.6 -5.5 -4.65 -4.5 -4.7 -4.1 -4.35 -3.85 -4.1 -3.1 -3.7 -2.55 -3.4 -2.55 -3.15 -2.55 -2.9 -2.65 -2.8 -2.8 -2.75 -3.15 -2.7 -4.6 -2.5 -5.55 -2.2 -6.2 -2.0 -7.45 -1.75 -8.9 -1.4 -9.2 -1.4 -9.45 -1.4 -9.5 -1.55 L-9.5 -1.75 M-6.35 -1.7 L-6.35 -1.6 Q-6.35 -1.55 -6.55 -1.5 L-6.8 -1.45 -6.95 -1.5 -7.0 -1.55 Q-6.75 -1.75 -6.35 -1.7" fill="#ccd18b" fill-rule="evenodd" stroke="none"/>
      <path d="M0.4 1.7 L0.45 1.7 0.45 1.75 0.4 1.7 M0.75 2.05 Q0.75 2.35 -0.2 2.55 L-3.8 3.15 -4.65 3.15 -4.85 2.95 Q-4.35 2.6 -3.85 2.15 L-3.5 1.9 Q-2.95 1.35 -2.55 0.8 L-2.3 0.4 -2.1 0.05 -2.1 0.0 Q-1.75 0.1 -1.45 0.4 L-0.8 1.1 Q-0.5 1.5 -0.15 1.7 0.25 1.95 0.75 2.05" fill="#f1edc2" fill-rule="evenodd" stroke="none"/>
      <path d="M-18.9 -0.7 Q-19.05 -0.6 -19.05 -0.35 -19.05 -0.25 -19.0 -0.15 L-18.9 -0.05 Q-18.8 0.05 -18.65 0.05 -18.35 0.05 -18.3 -0.3 L-18.3 -0.4 Q-18.3 -0.75 -18.5 -0.75 L-18.65 -0.75 Q-18.8 -0.75 -18.9 -0.7 M-18.15 -0.45 L-18.15 -0.4 Q-18.15 0.05 -18.65 0.05 -19.1 0.05 -19.1 -0.4 L-19.1 -0.5 Q-19.05 -0.95 -18.65 -0.9 -18.2 -0.85 -18.15 -0.45 M-2.75 0.4 L-2.7 0.4 -2.75 0.5 -3.1 0.5 Q-3.3 0.6 -3.3 0.95 -3.3 1.05 -3.25 1.2 L-3.35 1.4 -3.4 1.25 Q-3.45 1.1 -3.4 0.9 -3.4 0.3 -2.8 0.4 L-2.75 0.4 M-10.7 2.35 L-10.7 2.45 Q-10.7 2.7 -10.8 2.85 -10.95 3.15 -11.25 3.15 -11.55 3.15 -11.7 2.95 L-11.75 2.95 -11.8 2.8 -11.85 2.7 -11.85 2.4 Q-11.85 1.8 -11.25 1.9 -11.05 1.95 -10.85 2.15 -10.75 2.25 -10.7 2.35 M-11.1 2.05 L-11.25 2.0 -11.3 2.0 Q-11.5 2.0 -11.65 2.1 -11.75 2.25 -11.75 2.5 L-11.75 2.8 Q-11.65 3.0 -11.3 3.0 -11.0 3.0 -10.9 2.8 L-10.85 2.65 -10.85 2.5 Q-10.85 2.1 -11.1 2.05 M-8.95 2.05 L-9.25 2.0 Q-9.65 2.05 -9.65 2.4 L-9.65 2.6 Q-9.55 2.85 -9.25 2.85 -8.8 2.85 -8.8 2.35 -8.8 2.2 -8.85 2.1 -8.9 2.05 -8.95 2.05 M-8.75 2.45 Q-8.75 2.6 -8.85 2.75 -9.0 3.0 -9.25 3.0 -9.6 3.0 -9.7 2.7 L-9.75 2.4 Q-9.75 1.9 -9.25 1.9 -8.75 1.9 -8.75 2.45" fill="#000000" fill-rule="evenodd" stroke="none"/>
      <path d="M-18.9 -0.7 L-18.9 -0.6 Q-18.9 -0.4 -18.7 -0.4 -18.55 -0.4 -18.5 -0.5 -18.45 -0.55 -18.45 -0.6 -18.45 -0.7 -18.5 -0.75 -18.3 -0.75 -18.3 -0.4 L-18.3 -0.3 -18.45 -0.3 Q-18.9 -0.25 -18.9 -0.05 L-19.0 -0.15 Q-19.05 -0.25 -19.05 -0.35 -19.05 -0.6 -18.9 -0.7 M-11.65 2.1 L-11.65 2.15 Q-11.65 2.35 -11.4 2.35 -11.25 2.35 -11.1 2.25 -11.05 2.15 -11.0 2.1 L-11.1 2.05 Q-10.85 2.1 -10.85 2.5 L-10.85 2.65 Q-11.05 2.8 -11.2 2.8 -11.4 2.8 -11.65 2.6 L-11.75 2.5 Q-11.75 2.25 -11.65 2.1" fill="#ffe066" fill-rule="evenodd" stroke="none"/>
      <path d="M-18.9 -0.05 Q-18.9 -0.25 -18.45 -0.3 L-18.3 -0.3 Q-18.35 0.05 -18.65 0.05 -18.8 0.05 -18.9 -0.05 M-3.05 0.9 L-3.25 1.2 Q-3.3 1.05 -3.3 0.95 -3.3 0.6 -3.1 0.5 L-3.15 0.55 Q-3.2 0.6 -3.2 0.7 L-3.15 0.85 -3.1 0.9 -3.05 0.9 M-10.85 2.65 L-10.9 2.8 Q-11.0 3.0 -11.3 3.0 -11.65 3.0 -11.75 2.8 L-11.75 2.5 -11.65 2.6 Q-11.4 2.8 -11.2 2.8 -11.05 2.8 -10.85 2.65 M-8.95 2.05 Q-9.2 2.0 -9.35 2.1 -9.4 2.2 -9.4 2.3 L-9.4 2.35 -9.25 2.5 Q-9.1 2.45 -8.95 2.3 -8.85 2.2 -8.85 2.15 L-8.85 2.1 Q-8.8 2.2 -8.8 2.35 -8.8 2.85 -9.25 2.85 -9.55 2.85 -9.65 2.6 L-9.65 2.4 Q-9.65 2.05 -9.25 2.0 L-8.95 2.05" fill="#adb649" fill-rule="evenodd" stroke="none"/>
      <path d="M-18.5 -0.75 Q-18.45 -0.7 -18.45 -0.6 -18.45 -0.55 -18.5 -0.5 -18.55 -0.4 -18.7 -0.4 -18.9 -0.4 -18.9 -0.6 L-18.9 -0.7 Q-18.8 -0.75 -18.65 -0.75 L-18.5 -0.75 M-18.4 0.25 L-18.25 0.15 Q-18.05 0.05 -18.05 0.0 -18.05 -0.35 -18.15 -0.45 -18.2 -0.85 -18.65 -0.9 -19.05 -0.95 -19.1 -0.5 -19.2 -0.45 -19.2 -0.25 L-19.2 -0.2 -19.2 -0.5 Q-19.2 -1.1 -18.6 -1.1 -18.35 -1.1 -18.2 -1.0 -18.0 -0.85 -18.0 -0.65 L-18.0 0.05 -18.2 0.2 -18.4 0.25 M-11.7 2.95 L-11.7 3.0 -11.75 2.95 -11.7 2.95 M-10.6 2.75 Q-10.6 2.5 -10.7 2.35 -10.75 2.25 -10.85 2.15 -11.05 1.95 -11.25 1.9 -11.85 1.8 -11.85 2.4 L-11.85 2.7 -11.95 2.35 Q-11.95 2.1 -11.75 1.9 -11.55 1.75 -11.25 1.75 -10.55 1.75 -10.55 2.65 L-10.6 2.75 M-11.65 2.1 Q-11.5 2.0 -11.3 2.0 L-11.25 2.0 -11.1 2.05 -11.0 2.1 Q-11.05 2.15 -11.1 2.25 -11.25 2.35 -11.4 2.35 -11.65 2.35 -11.65 2.15 L-11.65 2.1" fill="#fff0b7" fill-rule="evenodd" stroke="none"/>
      <path d="M-18.4 0.25 L-18.45 0.25 Q-19.0 0.25 -19.15 -0.1 L-19.2 -0.15 -19.2 -0.2 -19.2 -0.25 Q-19.2 -0.45 -19.1 -0.5 L-19.1 -0.4 Q-19.1 0.05 -18.65 0.05 -18.15 0.05 -18.15 -0.4 L-18.15 -0.45 Q-18.05 -0.35 -18.05 0.0 -18.05 0.05 -18.25 0.15 L-18.4 0.25 M-2.75 0.5 L-3.0 0.85 -3.05 0.9 -3.1 0.9 -3.15 0.85 -3.2 0.7 Q-3.2 0.6 -3.15 0.55 L-3.1 0.5 -2.75 0.5 M-3.35 1.4 L-3.4 1.45 Q-3.5 1.4 -3.55 1.3 L-3.65 1.1 Q-3.65 0.8 -3.45 0.5 -3.2 0.05 -2.75 0.2 L-2.75 0.4 -2.8 0.4 Q-3.4 0.3 -3.4 0.9 -3.45 1.1 -3.4 1.25 L-3.35 1.4 M-11.7 2.95 Q-11.55 3.15 -11.25 3.15 -10.95 3.15 -10.8 2.85 -10.7 2.7 -10.7 2.45 L-10.7 2.35 Q-10.6 2.5 -10.6 2.75 L-10.65 2.9 -10.8 3.05 Q-11.05 3.3 -11.35 3.3 -11.5 3.3 -11.7 3.0 L-11.7 2.95 M-8.85 2.1 L-8.85 2.15 Q-8.85 2.2 -8.95 2.3 -9.1 2.45 -9.25 2.5 L-9.4 2.35 -9.4 2.3 Q-9.4 2.2 -9.35 2.1 -9.2 2.0 -8.95 2.05 -8.9 2.05 -8.85 2.1 M-8.75 2.45 Q-8.75 1.9 -9.25 1.9 -9.75 1.9 -9.75 2.4 L-9.7 2.7 Q-9.6 3.0 -9.25 3.0 -9.0 3.0 -8.85 2.75 -8.75 2.6 -8.75 2.45 M-9.3 3.1 Q-9.75 3.1 -9.9 2.7 L-9.9 2.3 Q-9.9 1.55 -9.25 1.65 -8.95 1.7 -8.75 1.85 -8.55 2.05 -8.55 2.3 -8.55 2.4 -8.75 2.7 -9.0 3.1 -9.3 3.1" fill="#ccd18b" fill-rule="evenodd" stroke="none"/>
    </g>
  </defs>
</svg>
