<?xml version="1.0" encoding="UTF-8" standalone="no"?>
<svg xmlns:ffdec="https://www.free-decompiler.com/flash" xmlns:xlink="http://www.w3.org/1999/xlink" ffdec:objectType="frame" height="61.25px" width="84.0px" xmlns="http://www.w3.org/2000/svg">
  <g transform="matrix(1.0, 0.0, 0.0, 1.0, 0.0, 0.0)">
    <path d="M84.0 30.625 C84.0 47.5 65.2 61.25 42.0 61.25 C18.8 61.25 0.0 47.5 0.0 30.625 C0.0 13.75 18.8 0.0 42.0 0.0 C65.2 0.0 84.0 13.75 84.0 30.625 Z" fill="#8B4513" stroke="#000000" stroke-width="1.5"/>
    <path d="M70.0 30.625 C70.0 39.0 57.5 45.75 42.0 45.75 C26.5 45.75 14.0 39.0 14.0 30.625 C14.0 22.25 26.5 15.5 42.0 15.5 C57.5 15.5 70.0 22.25 70.0 30.625 Z" fill="#D2691E" stroke="none"/>
    <path d="M60.0 30.625 C60.0 33.5 52.0 35.75 42.0 35.75 C32.0 35.75 24.0 33.5 24.0 30.625 C24.0 27.75 32.0 25.5 42.0 25.5 C52.0 25.5 60.0 27.75 60.0 30.625 Z" fill="#F4A460" stroke="none"/>
  </g>
</svg>
